<svg id="Layer_1" data-name="Layer 1" xmlns="http://www.w3.org/2000/svg" viewBox="0 0 232.72 129.83"><defs><style>.cls-1{fill:#ffdd50;}.cls-2{fill:#ffbf3e;}.cls-3{fill:#ffed4e;}</style></defs><path class="cls-1" d="M201.47,86.24a1,1,0,0,0-.29,1,2.28,2.28,0,0,0,.64,1.1,4.52,4.52,0,0,0,1,.7,8.12,8.12,0,0,0,2.26.84,4.39,4.39,0,0,0,2.33-.16,1.77,1.77,0,0,0,.64-.36,1.08,1.08,0,0,0,.31-.69,1.44,1.44,0,0,0-.09-.45,3.29,3.29,0,0,0-1.56-1.74,6.58,6.58,0,0,0-2.17-.66c-.59-.09-1.19-.17-1.78-.22A1.59,1.59,0,0,0,201.47,86.24Z"/><path class="cls-2" d="M207.45,89.74a1.77,1.77,0,0,0,.64-.36,1.08,1.08,0,0,0,.31-.69,1.44,1.44,0,0,0-.09-.45,3.29,3.29,0,0,0-1.56-1.74,6.58,6.58,0,0,0-2.17-.66h0a8.59,8.59,0,0,1,1.07.39,4.22,4.22,0,0,1,1.29.84,2.35,2.35,0,0,1,.7,1.41,5.78,5.78,0,0,0-4.48-2.13,6.58,6.58,0,0,1,2.51,1.15,2.34,2.34,0,0,1,.8.88.45.45,0,0,1,.06.32c0,.21-.29.28-.49.3a7.31,7.31,0,0,1-4.65-1.24,2.66,2.66,0,0,0,.46.6,4.52,4.52,0,0,0,1,.7,8.12,8.12,0,0,0,2.26.84A4.39,4.39,0,0,0,207.45,89.74Z"/><path class="cls-3" d="M202.84,87.33a2.71,2.71,0,0,0,1.69.71.36.36,0,0,0,.11-.72,12,12,0,0,0-1.68-.26.15.15,0,0,0-.12.27Z"/><path class="cls-1" d="M173.63,31a1.2,1.2,0,0,0-.3.58,1,1,0,0,0,0,.43,2.26,2.26,0,0,0,.64,1.11,4.52,4.52,0,0,0,1,.7,8.12,8.12,0,0,0,2.26.84,4.49,4.49,0,0,0,2.33-.16,1.65,1.65,0,0,0,.64-.37,1,1,0,0,0,.31-.68,1.44,1.44,0,0,0-.09-.45,3.31,3.31,0,0,0-1.55-1.74,6.71,6.71,0,0,0-2.18-.66c-.59-.1-1.19-.17-1.78-.22A1.54,1.54,0,0,0,173.63,31Z"/><path class="cls-2" d="M179.61,34.45a1.65,1.65,0,0,0,.64-.37,1,1,0,0,0,.31-.68,1.44,1.44,0,0,0-.09-.45,3.31,3.31,0,0,0-1.55-1.74,6.71,6.71,0,0,0-2.18-.66h0a8.59,8.59,0,0,1,1.07.39,4.22,4.22,0,0,1,1.29.84,2.35,2.35,0,0,1,.7,1.41,5.78,5.78,0,0,0-4.48-2.13,6.58,6.58,0,0,1,2.51,1.15,2.34,2.34,0,0,1,.8.88.45.45,0,0,1,.06.32c0,.21-.28.28-.49.3a7.22,7.22,0,0,1-4.64-1.25,2.24,2.24,0,0,0,.45.61,4.52,4.52,0,0,0,1,.7,8.12,8.12,0,0,0,2.26.84A4.49,4.49,0,0,0,179.61,34.45Z"/><path class="cls-3" d="M175,32a2.71,2.71,0,0,0,1.69.71.36.36,0,0,0,.11-.72,12,12,0,0,0-1.68-.26A.15.15,0,0,0,175,32Z"/><path class="cls-1" d="M112,56a1.29,1.29,0,0,0-.3.58,1,1,0,0,0,0,.43,2.21,2.21,0,0,0,.65,1.11,4.26,4.26,0,0,0,1,.7,8.24,8.24,0,0,0,2.26.84,4.38,4.38,0,0,0,2.33-.16,1.77,1.77,0,0,0,.64-.36,1,1,0,0,0,.31-.69,1.44,1.44,0,0,0-.09-.45,3.27,3.27,0,0,0-1.55-1.74,6.71,6.71,0,0,0-2.18-.66c-.59-.1-1.18-.17-1.78-.22A1.55,1.55,0,0,0,112,56Z"/><path class="cls-2" d="M118,59.54a1.77,1.77,0,0,0,.64-.36,1,1,0,0,0,.31-.69,1.44,1.44,0,0,0-.09-.45,3.27,3.27,0,0,0-1.55-1.74,6.71,6.71,0,0,0-2.18-.66h0a8,8,0,0,1,1.07.39,4.39,4.39,0,0,1,1.3.84,2.28,2.28,0,0,1,.69,1.41,5.77,5.77,0,0,0-4.47-2.13,6.47,6.47,0,0,1,2.5,1.15,2.34,2.34,0,0,1,.8.88.52.52,0,0,1,.07.32c0,.21-.29.28-.49.3a7.3,7.3,0,0,1-4.65-1.24,2.66,2.66,0,0,0,.46.6,4.26,4.26,0,0,0,1,.7,8.24,8.24,0,0,0,2.26.84A4.38,4.38,0,0,0,118,59.54Z"/><path class="cls-3" d="M113.35,57.13a2.71,2.71,0,0,0,1.69.71.36.36,0,0,0,.11-.72,12,12,0,0,0-1.68-.26.15.15,0,0,0-.12.27Z"/><path class="cls-1" d="M24.34,85.36a1,1,0,0,0-.29,1,2.28,2.28,0,0,0,.64,1.1,4.52,4.52,0,0,0,1,.7A7.82,7.82,0,0,0,28,89a4.39,4.39,0,0,0,2.33-.16A1.65,1.65,0,0,0,31,88.5a1,1,0,0,0,.32-.69,1.44,1.44,0,0,0-.09-.45,3.36,3.36,0,0,0-1.56-1.74A6.58,6.58,0,0,0,27.45,85c-.59-.09-1.19-.17-1.78-.22A1.59,1.59,0,0,0,24.34,85.36Z"/><path class="cls-2" d="M30.32,88.86A1.65,1.65,0,0,0,31,88.5a1,1,0,0,0,.32-.69,1.44,1.44,0,0,0-.09-.45,3.36,3.36,0,0,0-1.56-1.74A6.58,6.58,0,0,0,27.45,85h0a10.55,10.55,0,0,1,1.07.39,4.22,4.22,0,0,1,1.29.84,2.38,2.38,0,0,1,.7,1.41A5.78,5.78,0,0,0,26,85.47a6.58,6.58,0,0,1,2.51,1.15,2.34,2.34,0,0,1,.8.88.46.46,0,0,1,.06.32c0,.21-.29.28-.49.3a7.24,7.24,0,0,1-4.65-1.24,2.46,2.46,0,0,0,.46.6,4.52,4.52,0,0,0,1,.7A7.82,7.82,0,0,0,28,89,4.39,4.39,0,0,0,30.32,88.86Z"/><path class="cls-3" d="M25.71,86.45a2.66,2.66,0,0,0,1.69.71.36.36,0,0,0,.11-.72,12,12,0,0,0-1.68-.26.15.15,0,0,0-.12.27Z"/><path class="cls-1" d="M112.78,75.1a1.21,1.21,0,0,0-.31.58,1.25,1.25,0,0,0,0,.43,2.12,2.12,0,0,0,.64,1.1,4.73,4.73,0,0,0,1,.71,7.9,7.9,0,0,0,2.26.83,4.42,4.42,0,0,0,2.34-.15,1.9,1.9,0,0,0,.63-.37,1,1,0,0,0,.31-.68,1.12,1.12,0,0,0-.08-.45,3.29,3.29,0,0,0-1.56-1.74,6.73,6.73,0,0,0-2.17-.66c-.59-.1-1.19-.17-1.78-.22A1.54,1.54,0,0,0,112.78,75.1Z"/><path class="cls-2" d="M118.76,78.6a1.9,1.9,0,0,0,.63-.37,1,1,0,0,0,.31-.68,1.12,1.12,0,0,0-.08-.45,3.29,3.29,0,0,0-1.56-1.74,6.73,6.73,0,0,0-2.17-.66h0a8.65,8.65,0,0,1,1.07.4,4.31,4.31,0,0,1,1.29.83,2.33,2.33,0,0,1,.69,1.42,5.77,5.77,0,0,0-4.47-2.14A6.73,6.73,0,0,1,117,76.35a2.6,2.6,0,0,1,.8.88.54.54,0,0,1,.06.33c0,.21-.29.27-.49.29a7.18,7.18,0,0,1-4.65-1.24,2.28,2.28,0,0,0,.46.6,4.73,4.73,0,0,0,1,.71,7.9,7.9,0,0,0,2.26.83A4.42,4.42,0,0,0,118.76,78.6Z"/><path class="cls-3" d="M114.14,76.18a2.72,2.72,0,0,0,1.7.72.37.37,0,0,0,.1-.73,10.47,10.47,0,0,0-1.68-.25.15.15,0,0,0-.12.26Z"/><path class="cls-1" d="M125.55,31.87a1.31,1.31,0,0,0-.31.58,1.29,1.29,0,0,0,0,.44,2.12,2.12,0,0,0,.64,1.1,4.73,4.73,0,0,0,1,.71,7.9,7.9,0,0,0,2.26.83,4.52,4.52,0,0,0,2.34-.15,1.9,1.9,0,0,0,.63-.37,1,1,0,0,0,.31-.69,1.32,1.32,0,0,0-.08-.44,3.33,3.33,0,0,0-1.56-1.74,6.75,6.75,0,0,0-2.17-.67c-.59-.09-1.19-.16-1.79-.22A1.58,1.58,0,0,0,125.55,31.87Z"/><path class="cls-2" d="M131.53,35.38a1.9,1.9,0,0,0,.63-.37,1,1,0,0,0,.31-.69,1.32,1.32,0,0,0-.08-.44,3.33,3.33,0,0,0-1.56-1.74,6.75,6.75,0,0,0-2.17-.67h0a8.65,8.65,0,0,1,1.07.4,4.13,4.13,0,0,1,1.29.83,2.33,2.33,0,0,1,.69,1.42A5.77,5.77,0,0,0,127.21,32a6.73,6.73,0,0,1,2.51,1.15,2.6,2.6,0,0,1,.8.88.63.63,0,0,1,.06.33c-.05.21-.29.27-.49.29a7.18,7.18,0,0,1-4.65-1.24,2.46,2.46,0,0,0,.46.6,4.73,4.73,0,0,0,1,.71,7.9,7.9,0,0,0,2.26.83A4.52,4.52,0,0,0,131.53,35.38Z"/><path class="cls-3" d="M126.91,33a2.7,2.7,0,0,0,1.7.72.37.37,0,0,0,.1-.73A10.47,10.47,0,0,0,127,32.7a.15.15,0,0,0-.12.26Z"/><path class="cls-1" d="M1.39,95.05a1.29,1.29,0,0,0-.3.58,1,1,0,0,0,0,.43,2.12,2.12,0,0,0,.64,1.11,4.26,4.26,0,0,0,1,.7A8.24,8.24,0,0,0,5,98.71a4.53,4.53,0,0,0,2.34-.16A1.62,1.62,0,0,0,8,98.18a1,1,0,0,0,.31-.68,1.44,1.44,0,0,0-.09-.45,3.27,3.27,0,0,0-1.55-1.74,6.73,6.73,0,0,0-2.17-.66c-.6-.1-1.19-.17-1.79-.22A1.56,1.56,0,0,0,1.39,95.05Z"/><path class="cls-2" d="M7.38,98.55A1.62,1.62,0,0,0,8,98.18a1,1,0,0,0,.31-.68,1.44,1.44,0,0,0-.09-.45,3.27,3.27,0,0,0-1.55-1.74,6.73,6.73,0,0,0-2.17-.66h0A8.18,8.18,0,0,1,5.55,95a4.35,4.35,0,0,1,1.29.84,2.28,2.28,0,0,1,.69,1.41,5.77,5.77,0,0,0-4.47-2.13,6.58,6.58,0,0,1,2.51,1.15,2.51,2.51,0,0,1,.8.88.59.59,0,0,1,.06.32c0,.21-.29.28-.49.3a7.25,7.25,0,0,1-4.65-1.25,2.51,2.51,0,0,0,.46.61,4.26,4.26,0,0,0,1,.7A8.24,8.24,0,0,0,5,98.71,4.53,4.53,0,0,0,7.38,98.55Z"/><path class="cls-3" d="M2.76,96.14a2.74,2.74,0,0,0,1.69.71.36.36,0,0,0,.11-.72,11.75,11.75,0,0,0-1.68-.26.16.16,0,0,0-.12.27Z"/><path class="cls-1" d="M143.48,5.68a1.4,1.4,0,0,0-.3.58,1.09,1.09,0,0,0,0,.44,2.06,2.06,0,0,0,.64,1.1,4.46,4.46,0,0,0,1,.7,7.64,7.64,0,0,0,2.26.84,4.52,4.52,0,0,0,2.34-.15,1.9,1.9,0,0,0,.63-.37,1,1,0,0,0,.31-.69,1.12,1.12,0,0,0-.09-.44,3.33,3.33,0,0,0-1.55-1.75,7,7,0,0,0-2.17-.66c-.59-.09-1.19-.16-1.79-.22A1.61,1.61,0,0,0,143.48,5.68Z"/><path class="cls-2" d="M149.47,9.19a1.9,1.9,0,0,0,.63-.37,1,1,0,0,0,.31-.69,1.12,1.12,0,0,0-.09-.44,3.33,3.33,0,0,0-1.55-1.75,7,7,0,0,0-2.17-.66h0a8.65,8.65,0,0,1,1.07.4,4.13,4.13,0,0,1,1.29.83,2.31,2.31,0,0,1,.69,1.41,5.76,5.76,0,0,0-4.47-2.13,6.73,6.73,0,0,1,2.51,1.15,2.6,2.6,0,0,1,.8.88.61.61,0,0,1,.06.32c-.05.22-.29.28-.49.3a7.18,7.18,0,0,1-4.65-1.24,2.46,2.46,0,0,0,.46.6,4.46,4.46,0,0,0,1,.7,7.64,7.64,0,0,0,2.26.84A4.52,4.52,0,0,0,149.47,9.19Z"/><path class="cls-3" d="M144.85,6.77a2.68,2.68,0,0,0,1.7.71.36.36,0,0,0,.1-.72A11.75,11.75,0,0,0,145,6.5a.16.16,0,0,0-.12.27Z"/><path class="cls-3" d="M199.87,50.77s0,0,0,0Z"/><path class="cls-1" d="M102.31,71.13a1.21,1.21,0,0,1,.31.58,1.25,1.25,0,0,1,0,.43,2.12,2.12,0,0,1-.64,1.1,4.73,4.73,0,0,1-1,.71,7.9,7.9,0,0,1-2.26.83,4.42,4.42,0,0,1-2.34-.15,1.9,1.9,0,0,1-.63-.37,1,1,0,0,1-.31-.68,1.13,1.13,0,0,1,.09-.45A3.27,3.27,0,0,1,97,71.39a6.73,6.73,0,0,1,2.17-.66c.59-.1,1.19-.17,1.79-.22A1.53,1.53,0,0,1,102.31,71.13Z"/><path class="cls-2" d="M96.33,74.63a1.9,1.9,0,0,1-.63-.37,1,1,0,0,1-.31-.68,1.13,1.13,0,0,1,.09-.45A3.27,3.27,0,0,1,97,71.39a6.73,6.73,0,0,1,2.17-.66h0a8.65,8.65,0,0,0-1.07.4,4.31,4.31,0,0,0-1.29.83,2.33,2.33,0,0,0-.69,1.42,5.77,5.77,0,0,1,4.47-2.14,6.73,6.73,0,0,0-2.51,1.15,2.6,2.6,0,0,0-.8.88.63.63,0,0,0-.06.33c0,.21.29.27.49.29a7.18,7.18,0,0,0,4.65-1.24,2.28,2.28,0,0,1-.46.6,4.73,4.73,0,0,1-1,.71,7.9,7.9,0,0,1-2.26.83A4.42,4.42,0,0,1,96.33,74.63Z"/><path class="cls-3" d="M101,72.21a2.7,2.7,0,0,1-1.7.72.37.37,0,0,1-.1-.73,10.47,10.47,0,0,1,1.68-.25.15.15,0,0,1,.12.26Z"/><path class="cls-1" d="M219.15,3.83a1.29,1.29,0,0,1,.31.59,1.25,1.25,0,0,1,0,.43A2.12,2.12,0,0,1,218.8,6a4.73,4.73,0,0,1-1,.71,7.9,7.9,0,0,1-2.26.83,4.42,4.42,0,0,1-2.34-.15,1.9,1.9,0,0,1-.63-.37,1,1,0,0,1-.31-.68,1.12,1.12,0,0,1,.08-.45,3.29,3.29,0,0,1,1.56-1.74A6.49,6.49,0,0,1,216,3.44c.59-.1,1.19-.17,1.78-.23A1.59,1.59,0,0,1,219.15,3.83Z"/><path class="cls-2" d="M213.17,7.34a1.9,1.9,0,0,1-.63-.37,1,1,0,0,1-.31-.68,1.12,1.12,0,0,1,.08-.45,3.29,3.29,0,0,1,1.56-1.74A6.49,6.49,0,0,1,216,3.44h0a8.65,8.65,0,0,0-1.07.4,4.31,4.31,0,0,0-1.29.83A2.33,2.33,0,0,0,213,6.08a5.77,5.77,0,0,1,4.47-2.14A6.73,6.73,0,0,0,215,5.09a2.6,2.6,0,0,0-.8.88.54.54,0,0,0-.06.33c0,.21.29.27.49.29a7.18,7.18,0,0,0,4.65-1.24,2.46,2.46,0,0,1-.46.6,4.73,4.73,0,0,1-1,.71,7.9,7.9,0,0,1-2.26.83A4.42,4.42,0,0,1,213.17,7.34Z"/><path class="cls-3" d="M217.79,4.92a2.72,2.72,0,0,1-1.7.72.37.37,0,0,1-.1-.73,10.47,10.47,0,0,1,1.68-.25.15.15,0,0,1,.12.26Z"/><path class="cls-1" d="M112.24,58.42a1.29,1.29,0,0,1,.3.58,1.09,1.09,0,0,1,0,.44,2.22,2.22,0,0,1-.65,1.1,4.26,4.26,0,0,1-1,.7,7.82,7.82,0,0,1-2.26.84,4.49,4.49,0,0,1-2.33-.15,2,2,0,0,1-.64-.37,1,1,0,0,1-.31-.69,1.44,1.44,0,0,1,.09-.45A3.39,3.39,0,0,1,107,58.68a6.71,6.71,0,0,1,2.18-.66c.59-.09,1.19-.16,1.78-.22A1.59,1.59,0,0,1,112.24,58.42Z"/><path class="cls-2" d="M106.26,61.93a2,2,0,0,1-.64-.37,1,1,0,0,1-.31-.69,1.44,1.44,0,0,1,.09-.45A3.39,3.39,0,0,1,107,58.68a6.71,6.71,0,0,1,2.18-.66h0a9.74,9.74,0,0,0-1.07.39,4.22,4.22,0,0,0-1.29.84,2.32,2.32,0,0,0-.7,1.41,5.78,5.78,0,0,1,4.48-2.13,6.51,6.51,0,0,0-2.51,1.15,2.34,2.34,0,0,0-.8.88.46.46,0,0,0-.06.32c0,.22.28.28.49.3a7.17,7.17,0,0,0,4.64-1.24,2.46,2.46,0,0,1-.46.6,4.26,4.26,0,0,1-1,.7,7.82,7.82,0,0,1-2.26.84A4.49,4.49,0,0,1,106.26,61.93Z"/><path class="cls-3" d="M110.87,59.51a2.66,2.66,0,0,1-1.69.71.36.36,0,0,1-.11-.72,12,12,0,0,1,1.68-.26.15.15,0,0,1,.12.27Z"/><path class="cls-1" d="M53,72a1.29,1.29,0,0,1,.3.58,1,1,0,0,1,0,.43,2.21,2.21,0,0,1-.65,1.11,4.26,4.26,0,0,1-1,.7,8.24,8.24,0,0,1-2.26.84A4.49,4.49,0,0,1,47,75.48a1.77,1.77,0,0,1-.64-.36,1,1,0,0,1-.31-.69,1.44,1.44,0,0,1,.09-.45,3.27,3.27,0,0,1,1.55-1.74,6.71,6.71,0,0,1,2.18-.66c.59-.1,1.18-.17,1.78-.22A1.55,1.55,0,0,1,53,72Z"/><path class="cls-2" d="M47,75.48a1.77,1.77,0,0,1-.64-.36,1,1,0,0,1-.31-.69,1.44,1.44,0,0,1,.09-.45,3.27,3.27,0,0,1,1.55-1.74,6.71,6.71,0,0,1,2.18-.66h0a8,8,0,0,0-1.07.39,4.22,4.22,0,0,0-1.29.84,2.24,2.24,0,0,0-.7,1.41,5.77,5.77,0,0,1,4.47-2.13,6.47,6.47,0,0,0-2.5,1.15,2.34,2.34,0,0,0-.8.88.45.45,0,0,0-.06.32c0,.21.28.28.49.3a7.23,7.23,0,0,0,4.64-1.25,2.51,2.51,0,0,1-.46.61,4.26,4.26,0,0,1-1,.7,8.24,8.24,0,0,1-2.26.84A4.49,4.49,0,0,1,47,75.48Z"/><path class="cls-3" d="M51.64,73.07a2.71,2.71,0,0,1-1.69.71.36.36,0,0,1-.11-.72,12,12,0,0,1,1.68-.26.15.15,0,0,1,.12.27Z"/><path class="cls-1" d="M157.43,51.32a1.12,1.12,0,0,1,.3.58,1,1,0,0,1,0,.43,2.19,2.19,0,0,1-.64,1.1,4.56,4.56,0,0,1-1,.71,7.79,7.79,0,0,1-2.26.83,4.39,4.39,0,0,1-2.33-.15,1.65,1.65,0,0,1-.64-.37,1.05,1.05,0,0,1-.31-.68,1.34,1.34,0,0,1,.09-.45,3.31,3.31,0,0,1,1.55-1.74,6.71,6.71,0,0,1,2.18-.66c.59-.1,1.19-.17,1.78-.22A1.54,1.54,0,0,1,157.43,51.32Z"/><path class="cls-2" d="M151.45,54.82a1.65,1.65,0,0,1-.64-.37,1.05,1.05,0,0,1-.31-.68,1.34,1.34,0,0,1,.09-.45,3.31,3.31,0,0,1,1.55-1.74,6.71,6.71,0,0,1,2.18-.66h0a8.65,8.65,0,0,0-1.07.4,4,4,0,0,0-1.29.84,2.35,2.35,0,0,0-.7,1.41,5.79,5.79,0,0,1,4.48-2.14,6.73,6.73,0,0,0-2.51,1.15,2.41,2.41,0,0,0-.8.88.48.48,0,0,0-.06.33c0,.21.29.27.49.29a7.19,7.19,0,0,0,4.65-1.24,2.28,2.28,0,0,1-.46.6,4.56,4.56,0,0,1-1,.71,7.79,7.79,0,0,1-2.26.83A4.39,4.39,0,0,1,151.45,54.82Z"/><path class="cls-3" d="M156.06,52.4a2.67,2.67,0,0,1-1.69.72.36.36,0,0,1-.11-.72,9.62,9.62,0,0,1,1.68-.26.15.15,0,0,1,.12.26Z"/><path class="cls-1" d="M215.39,41.94a1.21,1.21,0,0,1,.31.58,1.25,1.25,0,0,1,0,.43,2.19,2.19,0,0,1-.64,1.1,4.56,4.56,0,0,1-1,.71,7.79,7.79,0,0,1-2.26.83,4.39,4.39,0,0,1-2.33-.15,1.81,1.81,0,0,1-.63-.37,1,1,0,0,1-.32-.68,1.34,1.34,0,0,1,.09-.45,3.29,3.29,0,0,1,1.56-1.74,6.35,6.35,0,0,1,2.17-.66c.59-.1,1.19-.17,1.78-.22A1.54,1.54,0,0,1,215.39,41.94Z"/><path class="cls-2" d="M209.41,45.44a1.81,1.81,0,0,1-.63-.37,1,1,0,0,1-.32-.68,1.34,1.34,0,0,1,.09-.45,3.29,3.29,0,0,1,1.56-1.74,6.35,6.35,0,0,1,2.17-.66h0a8.65,8.65,0,0,0-1.07.4,4.19,4.19,0,0,0-1.29.83,2.4,2.4,0,0,0-.7,1.42A5.79,5.79,0,0,1,213.73,42a6.73,6.73,0,0,0-2.51,1.15,2.41,2.41,0,0,0-.8.88.48.48,0,0,0-.06.33c0,.21.29.27.49.29a7.19,7.19,0,0,0,4.65-1.24,2.46,2.46,0,0,1-.46.6,4.56,4.56,0,0,1-1,.71,7.79,7.79,0,0,1-2.26.83A4.39,4.39,0,0,1,209.41,45.44Z"/><path class="cls-3" d="M214,43a2.67,2.67,0,0,1-1.69.72.37.37,0,0,1-.11-.73,10.64,10.64,0,0,1,1.68-.25A.15.15,0,0,1,214,43Z"/><path class="cls-1" d="M194.11,49.19a1.2,1.2,0,0,1,.3.58,1,1,0,0,1,0,.43,2.14,2.14,0,0,1-.65,1.1,4.3,4.3,0,0,1-1,.71,7.9,7.9,0,0,1-2.26.83,4.39,4.39,0,0,1-2.33-.15,2,2,0,0,1-.64-.37,1,1,0,0,1-.31-.68,1.34,1.34,0,0,1,.09-.45,3.31,3.31,0,0,1,1.55-1.74,6.71,6.71,0,0,1,2.18-.66c.59-.1,1.18-.17,1.78-.22A1.54,1.54,0,0,1,194.11,49.19Z"/><path class="cls-2" d="M188.13,52.69a2,2,0,0,1-.64-.37,1,1,0,0,1-.31-.68,1.34,1.34,0,0,1,.09-.45,3.31,3.31,0,0,1,1.55-1.74,6.71,6.71,0,0,1,2.18-.66h0a8.09,8.09,0,0,0-1.07.4,4,4,0,0,0-1.29.84,2.24,2.24,0,0,0-.7,1.41,5.78,5.78,0,0,1,4.47-2.14,6.62,6.62,0,0,0-2.5,1.15,2.41,2.41,0,0,0-.8.88.48.48,0,0,0-.06.33c0,.21.28.27.49.29a7.17,7.17,0,0,0,4.64-1.24,2.28,2.28,0,0,1-.46.6,4.3,4.3,0,0,1-1,.71,7.9,7.9,0,0,1-2.26.83A4.39,4.39,0,0,1,188.13,52.69Z"/><path class="cls-3" d="M192.74,50.27a2.67,2.67,0,0,1-1.69.72.36.36,0,0,1-.11-.72,9.62,9.62,0,0,1,1.68-.26.15.15,0,0,1,.12.26Z"/><path class="cls-3" d="M204.91,85.66h0s0,0,0,0Z"/><path class="cls-1" d="M110,113.6a1,1,0,0,0-.29,1,2.28,2.28,0,0,0,.64,1.1,4.69,4.69,0,0,0,1,.7,7.93,7.93,0,0,0,2.26.84,4.42,4.42,0,0,0,2.34-.16,1.72,1.72,0,0,0,.63-.36,1,1,0,0,0,.31-.69,1.19,1.19,0,0,0-.08-.45,3.36,3.36,0,0,0-1.56-1.74,6.73,6.73,0,0,0-2.17-.66c-.59-.09-1.19-.17-1.78-.22A1.59,1.59,0,0,0,110,113.6Z"/><path class="cls-2" d="M116,117.1a1.72,1.72,0,0,0,.63-.36,1,1,0,0,0,.31-.69,1.19,1.19,0,0,0-.08-.45,3.36,3.36,0,0,0-1.56-1.74,6.73,6.73,0,0,0-2.17-.66h0a10.55,10.55,0,0,1,1.07.39,4.35,4.35,0,0,1,1.29.84,2.31,2.31,0,0,1,.69,1.41,5.76,5.76,0,0,0-4.47-2.13,6.58,6.58,0,0,1,2.51,1.15,2.42,2.42,0,0,1,.8.88.53.53,0,0,1,.06.32c0,.22-.29.28-.49.3a7.24,7.24,0,0,1-4.65-1.24,2.46,2.46,0,0,0,.46.6,4.69,4.69,0,0,0,1,.7,7.93,7.93,0,0,0,2.26.84A4.42,4.42,0,0,0,116,117.1Z"/><path class="cls-3" d="M111.37,114.69a2.66,2.66,0,0,0,1.69.71.36.36,0,0,0,.11-.72,12.11,12.11,0,0,0-1.69-.26.15.15,0,0,0-.11.27Z"/><path class="cls-1" d="M115.16,99.31a1,1,0,0,0-.29,1,2.28,2.28,0,0,0,.64,1.1,4.69,4.69,0,0,0,1,.7,8.18,8.18,0,0,0,2.27.84,4.39,4.39,0,0,0,2.33-.16,1.72,1.72,0,0,0,.63-.36,1,1,0,0,0,.32-.69,1.44,1.44,0,0,0-.09-.45,3.29,3.29,0,0,0-1.56-1.74,6.73,6.73,0,0,0-2.17-.66c-.59-.09-1.19-.17-1.78-.22A1.59,1.59,0,0,0,115.16,99.31Z"/><path class="cls-2" d="M121.14,102.81a1.72,1.72,0,0,0,.63-.36,1,1,0,0,0,.32-.69,1.44,1.44,0,0,0-.09-.45,3.29,3.29,0,0,0-1.56-1.74,6.73,6.73,0,0,0-2.17-.66h0a8.59,8.59,0,0,1,1.07.39,4.35,4.35,0,0,1,1.29.84,2.28,2.28,0,0,1,.69,1.41,5.76,5.76,0,0,0-4.47-2.13,6.58,6.58,0,0,1,2.51,1.15,2.34,2.34,0,0,1,.8.88.51.51,0,0,1,.06.32c0,.21-.29.28-.49.3a7.3,7.3,0,0,1-4.65-1.24,2.66,2.66,0,0,0,.46.6,4.69,4.69,0,0,0,1,.7,8.18,8.18,0,0,0,2.27.84A4.39,4.39,0,0,0,121.14,102.81Z"/><path class="cls-3" d="M116.53,100.4a2.71,2.71,0,0,0,1.69.71.36.36,0,0,0,.11-.72,12.11,12.11,0,0,0-1.69-.26.15.15,0,0,0-.11.27Z"/><path class="cls-1" d="M84.51,84.4a1,1,0,0,0-.29,1,2.28,2.28,0,0,0,.64,1.1,4.52,4.52,0,0,0,1,.7,7.82,7.82,0,0,0,2.26.84,4.39,4.39,0,0,0,2.33-.16,1.65,1.65,0,0,0,.63-.36,1,1,0,0,0,.32-.69,1.44,1.44,0,0,0-.09-.45,3.36,3.36,0,0,0-1.56-1.74A6.58,6.58,0,0,0,87.62,84c-.59-.09-1.19-.17-1.78-.22A1.59,1.59,0,0,0,84.51,84.4Z"/><path class="cls-2" d="M90.49,87.9a1.65,1.65,0,0,0,.63-.36,1,1,0,0,0,.32-.69,1.44,1.44,0,0,0-.09-.45,3.36,3.36,0,0,0-1.56-1.74A6.58,6.58,0,0,0,87.62,84h0a8.59,8.59,0,0,1,1.07.39,4.22,4.22,0,0,1,1.29.84,2.38,2.38,0,0,1,.7,1.41,5.78,5.78,0,0,0-4.48-2.13,6.58,6.58,0,0,1,2.51,1.15,2.34,2.34,0,0,1,.8.88.45.45,0,0,1,.06.32c0,.21-.29.28-.49.3a7.24,7.24,0,0,1-4.65-1.24,2.66,2.66,0,0,0,.46.6,4.52,4.52,0,0,0,1,.7,7.82,7.82,0,0,0,2.26.84A4.39,4.39,0,0,0,90.49,87.9Z"/><path class="cls-3" d="M85.88,85.49a2.66,2.66,0,0,0,1.69.71.36.36,0,0,0,.11-.72A12,12,0,0,0,86,85.22a.15.15,0,0,0-.12.27Z"/><path class="cls-1" d="M100.87,97.72a1,1,0,0,0-.29,1,2.23,2.23,0,0,0,.64,1.1,4.69,4.69,0,0,0,1,.7,7.64,7.64,0,0,0,2.26.84,4.52,4.52,0,0,0,2.34-.15,1.9,1.9,0,0,0,.63-.37,1,1,0,0,0,.31-.69,1.11,1.11,0,0,0-.08-.44A3.35,3.35,0,0,0,106.15,98a6.73,6.73,0,0,0-2.17-.66c-.59-.09-1.19-.16-1.78-.22A1.59,1.59,0,0,0,100.87,97.72Z"/><path class="cls-2" d="M106.85,101.23a1.9,1.9,0,0,0,.63-.37,1,1,0,0,0,.31-.69,1.11,1.11,0,0,0-.08-.44A3.35,3.35,0,0,0,106.15,98a6.73,6.73,0,0,0-2.17-.66h0a8.65,8.65,0,0,1,1.07.4,4.13,4.13,0,0,1,1.29.83A2.31,2.31,0,0,1,107,100a5.76,5.76,0,0,0-4.47-2.13A6.73,6.73,0,0,1,105,99a2.5,2.5,0,0,1,.8.88.53.53,0,0,1,.06.32c-.05.22-.29.28-.49.3a7.18,7.18,0,0,1-4.65-1.24,2.46,2.46,0,0,0,.46.6,4.69,4.69,0,0,0,1,.7,7.64,7.64,0,0,0,2.26.84A4.52,4.52,0,0,0,106.85,101.23Z"/><path class="cls-3" d="M102.24,98.81a2.66,2.66,0,0,0,1.69.71.36.36,0,0,0,.11-.72,12.11,12.11,0,0,0-1.69-.26.15.15,0,0,0-.11.27Z"/><path class="cls-1" d="M122.3,106.46a1.2,1.2,0,0,0-.3.58,1,1,0,0,0,0,.43,2.14,2.14,0,0,0,.65,1.1,4.3,4.3,0,0,0,1,.71,7.9,7.9,0,0,0,2.26.83,4.42,4.42,0,0,0,2.34-.15,1.62,1.62,0,0,0,.63-.37,1,1,0,0,0,.31-.68,1.34,1.34,0,0,0-.09-.45,3.27,3.27,0,0,0-1.55-1.74,6.73,6.73,0,0,0-2.17-.66c-.6-.1-1.19-.17-1.79-.22A1.56,1.56,0,0,0,122.3,106.46Z"/><path class="cls-2" d="M128.29,110a1.62,1.62,0,0,0,.63-.37,1,1,0,0,0,.31-.68,1.34,1.34,0,0,0-.09-.45,3.27,3.27,0,0,0-1.55-1.74,6.73,6.73,0,0,0-2.17-.66h0a8.22,8.22,0,0,1,1.08.4,4.16,4.16,0,0,1,1.29.84,2.28,2.28,0,0,1,.69,1.41,5.78,5.78,0,0,0-4.47-2.14,6.73,6.73,0,0,1,2.51,1.15,2.6,2.6,0,0,1,.8.88.63.63,0,0,1,.06.33c0,.21-.29.27-.49.29A7.18,7.18,0,0,1,122.2,108a2.28,2.28,0,0,0,.46.6,4.3,4.3,0,0,0,1,.71,7.9,7.9,0,0,0,2.26.83A4.42,4.42,0,0,0,128.29,110Z"/><path class="cls-3" d="M123.67,107.54a2.69,2.69,0,0,0,1.69.72.36.36,0,0,0,.11-.72,9.62,9.62,0,0,0-1.68-.26.15.15,0,0,0-.12.26Z"/><path class="cls-1" d="M193.07,99.24a1.2,1.2,0,0,0-.3.58,1,1,0,0,0,0,.43,2.14,2.14,0,0,0,.65,1.1,4.3,4.3,0,0,0,1,.71,7.9,7.9,0,0,0,2.26.83,4.42,4.42,0,0,0,2.34-.15,2,2,0,0,0,.63-.37,1,1,0,0,0,.31-.68,1.34,1.34,0,0,0-.09-.45,3.27,3.27,0,0,0-1.55-1.74,6.48,6.48,0,0,0-2.18-.66c-.59-.1-1.18-.17-1.78-.22A1.55,1.55,0,0,0,193.07,99.24Z"/><path class="cls-2" d="M199.06,102.74a2,2,0,0,0,.63-.37,1,1,0,0,0,.31-.68,1.34,1.34,0,0,0-.09-.45,3.27,3.27,0,0,0-1.55-1.74,6.48,6.48,0,0,0-2.18-.66h0a8.22,8.22,0,0,1,1.08.4,4.31,4.31,0,0,1,1.29.83,2.33,2.33,0,0,1,.69,1.42,5.78,5.78,0,0,0-4.47-2.14,6.62,6.62,0,0,1,2.5,1.15,2.41,2.41,0,0,1,.8.88.55.55,0,0,1,.07.33c-.05.21-.29.27-.49.29a7.18,7.18,0,0,1-4.65-1.24,2.28,2.28,0,0,0,.46.6,4.3,4.3,0,0,0,1,.71,7.9,7.9,0,0,0,2.26.83A4.42,4.42,0,0,0,199.06,102.74Z"/><path class="cls-3" d="M194.44,100.32a2.69,2.69,0,0,0,1.69.72.37.37,0,0,0,.11-.73,10.64,10.64,0,0,0-1.68-.25.15.15,0,0,0-.12.26Z"/><path class="cls-1" d="M119.92,112.41a1.29,1.29,0,0,0-.3.58,1.09,1.09,0,0,0,0,.44,2.22,2.22,0,0,0,.65,1.1,4.26,4.26,0,0,0,1,.7,8.24,8.24,0,0,0,2.26.84,4.39,4.39,0,0,0,2.33-.16,1.77,1.77,0,0,0,.64-.36,1,1,0,0,0,.31-.69,1.44,1.44,0,0,0-.09-.45,3.27,3.27,0,0,0-1.55-1.74A6.71,6.71,0,0,0,123,112c-.59-.09-1.18-.17-1.78-.22A1.6,1.6,0,0,0,119.92,112.41Z"/><path class="cls-2" d="M125.9,115.91a1.77,1.77,0,0,0,.64-.36,1,1,0,0,0,.31-.69,1.44,1.44,0,0,0-.09-.45,3.27,3.27,0,0,0-1.55-1.74A6.71,6.71,0,0,0,123,112h0a8,8,0,0,1,1.07.39,4.22,4.22,0,0,1,1.29.84,2.24,2.24,0,0,1,.7,1.41,5.77,5.77,0,0,0-4.47-2.13,6.47,6.47,0,0,1,2.5,1.15,2.34,2.34,0,0,1,.8.88.45.45,0,0,1,.06.32c0,.21-.28.28-.49.3a7.29,7.29,0,0,1-4.64-1.24,2.66,2.66,0,0,0,.46.6,4.26,4.26,0,0,0,1,.7,8.24,8.24,0,0,0,2.26.84A4.39,4.39,0,0,0,125.9,115.91Z"/><path class="cls-3" d="M121.29,113.5a2.71,2.71,0,0,0,1.69.71.36.36,0,0,0,.11-.72,12,12,0,0,0-1.68-.26.15.15,0,0,0-.12.27Z"/><path class="cls-1" d="M189,112a1.29,1.29,0,0,0-.3.58,1.08,1.08,0,0,0,0,.44,2.14,2.14,0,0,0,.65,1.1,4.3,4.3,0,0,0,1,.71,7.9,7.9,0,0,0,2.26.83,4.38,4.38,0,0,0,2.33-.15,2,2,0,0,0,.64-.37,1,1,0,0,0,.31-.69,1.33,1.33,0,0,0-.09-.44,3.27,3.27,0,0,0-1.55-1.74,6.73,6.73,0,0,0-2.18-.67c-.59-.09-1.18-.16-1.78-.22A1.6,1.6,0,0,0,189,112Z"/><path class="cls-2" d="M195,115.55a2,2,0,0,0,.64-.37,1,1,0,0,0,.31-.69,1.33,1.33,0,0,0-.09-.44,3.27,3.27,0,0,0-1.55-1.74,6.73,6.73,0,0,0-2.18-.67h0a7.6,7.6,0,0,1,1.07.4,4.36,4.36,0,0,1,1.3.83,2.33,2.33,0,0,1,.69,1.42,5.78,5.78,0,0,0-4.47-2.14,6.62,6.62,0,0,1,2.5,1.15,2.41,2.41,0,0,1,.8.88.55.55,0,0,1,.07.33c-.05.21-.29.27-.49.29a7.18,7.18,0,0,1-4.65-1.24,2.46,2.46,0,0,0,.46.6,4.3,4.3,0,0,0,1,.71,7.9,7.9,0,0,0,2.26.83A4.38,4.38,0,0,0,195,115.55Z"/><path class="cls-3" d="M190.38,113.13a2.67,2.67,0,0,0,1.69.72.37.37,0,0,0,.11-.73,10.64,10.64,0,0,0-1.68-.25.15.15,0,0,0-.12.26Z"/><path class="cls-3" d="M117.4,114.13h0s0,0,0,0Z"/><path class="cls-1" d="M211.84,72.49a1.21,1.21,0,0,1,.31.58,1.25,1.25,0,0,1,0,.43,2.19,2.19,0,0,1-.64,1.1,4.73,4.73,0,0,1-1,.71,7.85,7.85,0,0,1-2.27.83,4.39,4.39,0,0,1-2.33-.15,1.62,1.62,0,0,1-.63-.37,1,1,0,0,1-.32-.68,1.34,1.34,0,0,1,.09-.45,3.29,3.29,0,0,1,1.56-1.74,6.73,6.73,0,0,1,2.17-.66c.59-.1,1.19-.17,1.78-.22A1.54,1.54,0,0,1,211.84,72.49Z"/><path class="cls-2" d="M205.86,76a1.62,1.62,0,0,1-.63-.37,1,1,0,0,1-.32-.68,1.34,1.34,0,0,1,.09-.45,3.29,3.29,0,0,1,1.56-1.74,6.73,6.73,0,0,1,2.17-.66h0a8.65,8.65,0,0,0-1.07.4,4.16,4.16,0,0,0-1.29.84,2.28,2.28,0,0,0-.69,1.41,5.72,5.72,0,0,1,4.47-2.13,6.56,6.56,0,0,0-2.51,1.14,2.41,2.41,0,0,0-.8.88.56.56,0,0,0-.06.33c.05.21.29.27.49.29A7.18,7.18,0,0,0,212,74a2.28,2.28,0,0,1-.46.6,4.73,4.73,0,0,1-1,.71,7.85,7.85,0,0,1-2.27.83A4.39,4.39,0,0,1,205.86,76Z"/><path class="cls-3" d="M210.47,73.57a2.67,2.67,0,0,1-1.69.72.36.36,0,0,1-.11-.72,9.73,9.73,0,0,1,1.69-.26.15.15,0,0,1,.11.26Z"/><path class="cls-1" d="M106.68,88.2a1.21,1.21,0,0,1,.31.58,1.25,1.25,0,0,1,0,.43,2.19,2.19,0,0,1-.64,1.1,4.73,4.73,0,0,1-1,.71,8,8,0,0,1-2.27.83,4.39,4.39,0,0,1-2.33-.15,1.9,1.9,0,0,1-.63-.37,1,1,0,0,1-.32-.68,1.34,1.34,0,0,1,.09-.45,3.29,3.29,0,0,1,1.56-1.74,6.66,6.66,0,0,1,2.17-.66c.59-.1,1.19-.17,1.78-.22A1.54,1.54,0,0,1,106.68,88.2Z"/><path class="cls-2" d="M100.7,91.7a1.9,1.9,0,0,1-.63-.37,1,1,0,0,1-.32-.68,1.34,1.34,0,0,1,.09-.45,3.29,3.29,0,0,1,1.56-1.74,6.66,6.66,0,0,1,2.17-.66h0a8.65,8.65,0,0,0-1.07.4,4.19,4.19,0,0,0-1.29.83,2.4,2.4,0,0,0-.7,1.42A5.79,5.79,0,0,1,105,88.3a6.73,6.73,0,0,0-2.51,1.15,2.41,2.41,0,0,0-.8.88.48.48,0,0,0-.06.33c0,.21.29.27.49.29a7.18,7.18,0,0,0,4.65-1.24,2.28,2.28,0,0,1-.46.6,4.73,4.73,0,0,1-1,.71,8,8,0,0,1-2.27.83A4.39,4.39,0,0,1,100.7,91.7Z"/><path class="cls-3" d="M105.31,89.28a2.67,2.67,0,0,1-1.69.72.37.37,0,0,1-.11-.73A10.6,10.6,0,0,1,105.2,89a.15.15,0,0,1,.11.26Z"/><path class="cls-1" d="M213.77,106.78a1.29,1.29,0,0,1,.3.58,1.09,1.09,0,0,1,0,.44,2.14,2.14,0,0,1-.65,1.1,4.26,4.26,0,0,1-1,.7,7.64,7.64,0,0,1-2.26.84,4.53,4.53,0,0,1-2.34-.15,1.9,1.9,0,0,1-.63-.37,1,1,0,0,1-.31-.69,1.33,1.33,0,0,1,.09-.44,3.27,3.27,0,0,1,1.55-1.74,6.75,6.75,0,0,1,2.17-.67c.6-.09,1.19-.16,1.79-.22A1.61,1.61,0,0,1,213.77,106.78Z"/><path class="cls-2" d="M207.78,110.29a1.9,1.9,0,0,1-.63-.37,1,1,0,0,1-.31-.69,1.33,1.33,0,0,1,.09-.44,3.27,3.27,0,0,1,1.55-1.74,6.75,6.75,0,0,1,2.17-.67h0a8.22,8.22,0,0,0-1.08.4,4.13,4.13,0,0,0-1.29.83,2.33,2.33,0,0,0-.69,1.41,5.8,5.8,0,0,1,4.47-2.13,6.73,6.73,0,0,0-2.51,1.15,2.6,2.6,0,0,0-.8.88.61.61,0,0,0-.06.32c.05.22.29.28.49.3a7.18,7.18,0,0,0,4.65-1.24,2.46,2.46,0,0,1-.46.6,4.26,4.26,0,0,1-1,.7,7.64,7.64,0,0,1-2.26.84A4.53,4.53,0,0,1,207.78,110.29Z"/><path class="cls-3" d="M212.4,107.87a2.75,2.75,0,0,1-1.69.72.37.37,0,0,1-.11-.73,12,12,0,0,1,1.68-.26.16.16,0,0,1,.12.27Z"/><path class="cls-1" d="M135.54,1.34a1.29,1.29,0,0,1,.3.58,1.1,1.1,0,0,1,0,.44,2.13,2.13,0,0,1-.64,1.1,4.26,4.26,0,0,1-1,.7,8.24,8.24,0,0,1-2.26.84,4.43,4.43,0,0,1-2.34-.16,1.72,1.72,0,0,1-.63-.36,1,1,0,0,1-.31-.69,1.44,1.44,0,0,1,.09-.45,3.27,3.27,0,0,1,1.55-1.74,6.73,6.73,0,0,1,2.17-.66c.6-.09,1.19-.17,1.79-.22A1.61,1.61,0,0,1,135.54,1.34Z"/><path class="cls-2" d="M129.55,4.84a1.72,1.72,0,0,1-.63-.36,1,1,0,0,1-.31-.69,1.44,1.44,0,0,1,.09-.45,3.27,3.27,0,0,1,1.55-1.74,6.73,6.73,0,0,1,2.17-.66h0a8.18,8.18,0,0,0-1.08.39,4.35,4.35,0,0,0-1.29.84,2.28,2.28,0,0,0-.69,1.41,5.77,5.77,0,0,1,4.47-2.13,6.58,6.58,0,0,0-2.51,1.15,2.51,2.51,0,0,0-.8.88.59.59,0,0,0-.06.32c.05.21.29.28.49.3a7.3,7.3,0,0,0,4.65-1.24,2.66,2.66,0,0,1-.46.6,4.26,4.26,0,0,1-1,.7,8.24,8.24,0,0,1-2.26.84A4.43,4.43,0,0,1,129.55,4.84Z"/><path class="cls-3" d="M134.17,2.43a2.74,2.74,0,0,1-1.69.71.36.36,0,0,1-.11-.72,11.75,11.75,0,0,1,1.68-.26.16.16,0,0,1,.12.27Z"/><path class="cls-1" d="M165,106.68a1.2,1.2,0,0,1,.3.58,1,1,0,0,1,0,.43,2.14,2.14,0,0,1-.65,1.1,4.3,4.3,0,0,1-1,.71,7.9,7.9,0,0,1-2.26.83,4.42,4.42,0,0,1-2.34-.15,1.69,1.69,0,0,1-.63-.37,1,1,0,0,1-.31-.68,1.39,1.39,0,0,1,.09-.45,3.27,3.27,0,0,1,1.55-1.74,6.71,6.71,0,0,1,2.18-.66c.59-.1,1.18-.17,1.78-.22A1.55,1.55,0,0,1,165,106.68Z"/><path class="cls-2" d="M159,110.18a1.69,1.69,0,0,1-.63-.37,1,1,0,0,1-.31-.68,1.39,1.39,0,0,1,.09-.45,3.27,3.27,0,0,1,1.55-1.74,6.71,6.71,0,0,1,2.18-.66h0a8.22,8.22,0,0,0-1.08.4,4.16,4.16,0,0,0-1.29.84,2.28,2.28,0,0,0-.69,1.41,5.74,5.74,0,0,1,4.47-2.13,6.33,6.33,0,0,0-2.5,1.15,2.34,2.34,0,0,0-.8.88.52.52,0,0,0-.07.32c.05.21.29.28.49.29a7.18,7.18,0,0,0,4.65-1.24,2.28,2.28,0,0,1-.46.6,4.3,4.3,0,0,1-1,.71,7.9,7.9,0,0,1-2.26.83A4.42,4.42,0,0,1,159,110.18Z"/><path class="cls-3" d="M163.59,107.77a2.74,2.74,0,0,1-1.69.71.36.36,0,0,1-.11-.72,9.62,9.62,0,0,1,1.68-.26.16.16,0,0,1,.12.27Z"/><path class="cls-1" d="M110.3,39.75a1.29,1.29,0,0,0-.3.58,1.09,1.09,0,0,0,0,.44,2.14,2.14,0,0,0,.65,1.1,4.26,4.26,0,0,0,1,.7,7.64,7.64,0,0,0,2.26.84,4.53,4.53,0,0,0,2.34-.15,1.9,1.9,0,0,0,.63-.37,1,1,0,0,0,.31-.69,1.33,1.33,0,0,0-.09-.44A3.33,3.33,0,0,0,115.59,40a7,7,0,0,0-2.17-.66c-.6-.09-1.19-.16-1.79-.22A1.61,1.61,0,0,0,110.3,39.75Z"/><path class="cls-2" d="M116.29,43.26a1.9,1.9,0,0,0,.63-.37,1,1,0,0,0,.31-.69,1.33,1.33,0,0,0-.09-.44A3.33,3.33,0,0,0,115.59,40a7,7,0,0,0-2.17-.66h0a8.22,8.22,0,0,1,1.08.4,4.13,4.13,0,0,1,1.29.83,2.31,2.31,0,0,1,.69,1.41A5.77,5.77,0,0,0,112,39.86,6.73,6.73,0,0,1,114.48,41a2.6,2.6,0,0,1,.8.88.61.61,0,0,1,.06.32c0,.22-.29.28-.49.3a7.18,7.18,0,0,1-4.65-1.24,2.46,2.46,0,0,0,.46.6,4.26,4.26,0,0,0,1,.7,7.64,7.64,0,0,0,2.26.84A4.53,4.53,0,0,0,116.29,43.26Z"/><path class="cls-3" d="M111.67,40.84a2.68,2.68,0,0,0,1.69.71.36.36,0,0,0,.11-.72,12,12,0,0,0-1.68-.26.16.16,0,0,0-.12.27Z"/><path class="cls-1" d="M129.45,100.9a1.31,1.31,0,0,0-.31.58,1.25,1.25,0,0,0,0,.43,2.26,2.26,0,0,0,.64,1.11,4.52,4.52,0,0,0,1,.7,8.12,8.12,0,0,0,2.26.84,4.49,4.49,0,0,0,2.33-.16,1.55,1.55,0,0,0,.63-.37,1,1,0,0,0,.32-.68,1.44,1.44,0,0,0-.09-.45,3.29,3.29,0,0,0-1.56-1.74,6.66,6.66,0,0,0-2.17-.66c-.59-.1-1.19-.17-1.78-.22A1.54,1.54,0,0,0,129.45,100.9Z"/><path class="cls-2" d="M135.43,104.4a1.55,1.55,0,0,0,.63-.37,1,1,0,0,0,.32-.68,1.44,1.44,0,0,0-.09-.45,3.29,3.29,0,0,0-1.56-1.74,6.66,6.66,0,0,0-2.17-.66h0a8.65,8.65,0,0,1,1.07.4,4.22,4.22,0,0,1,1.29.84,2.35,2.35,0,0,1,.7,1.41,5.74,5.74,0,0,0-4.48-2.13,6.43,6.43,0,0,1,2.51,1.15,2.34,2.34,0,0,1,.8.88.45.45,0,0,1,.06.32c0,.21-.29.28-.49.3a7.25,7.25,0,0,1-4.65-1.25,2.51,2.51,0,0,0,.46.61,4.52,4.52,0,0,0,1,.7,8.12,8.12,0,0,0,2.26.84A4.49,4.49,0,0,0,135.43,104.4Z"/><path class="cls-3" d="M130.82,102a2.71,2.71,0,0,0,1.69.71.36.36,0,0,0,.11-.72,10.61,10.61,0,0,0-1.69-.26.15.15,0,0,0-.11.27Z"/><path class="cls-1" d="M197.92,125.3a1.2,1.2,0,0,1,.3.58,1,1,0,0,1,0,.43,2.14,2.14,0,0,1-.65,1.1,4.3,4.3,0,0,1-1,.71,7.9,7.9,0,0,1-2.26.83,4.38,4.38,0,0,1-2.33-.15,2,2,0,0,1-.64-.37,1,1,0,0,1-.31-.68,1.34,1.34,0,0,1,.09-.45,3.27,3.27,0,0,1,1.55-1.74,6.71,6.71,0,0,1,2.18-.66c.59-.1,1.18-.17,1.78-.22A1.55,1.55,0,0,1,197.92,125.3Z"/><path class="cls-2" d="M191.94,128.8a2,2,0,0,1-.64-.37,1,1,0,0,1-.31-.68,1.34,1.34,0,0,1,.09-.45,3.27,3.27,0,0,1,1.55-1.74,6.71,6.71,0,0,1,2.18-.66h0a7.6,7.6,0,0,0-1.07.4,4.36,4.36,0,0,0-1.3.83,2.33,2.33,0,0,0-.69,1.42,5.78,5.78,0,0,1,4.47-2.14,6.62,6.62,0,0,0-2.5,1.15,2.41,2.41,0,0,0-.8.88.55.55,0,0,0-.07.33c.05.21.29.27.49.29a7.18,7.18,0,0,0,4.65-1.24,2.28,2.28,0,0,1-.46.6,4.3,4.3,0,0,1-1,.71,7.9,7.9,0,0,1-2.26.83A4.38,4.38,0,0,1,191.94,128.8Z"/><path class="cls-3" d="M196.55,126.38a2.67,2.67,0,0,1-1.69.72.37.37,0,0,1-.11-.73,10.64,10.64,0,0,1,1.68-.25.15.15,0,0,1,.12.26Z"/><path class="cls-1" d="M52.64,106.55a1.2,1.2,0,0,1,.3.58,1,1,0,0,1,0,.43,2.06,2.06,0,0,1-.64,1.1,4.3,4.3,0,0,1-1,.71,7.9,7.9,0,0,1-2.26.83,4.42,4.42,0,0,1-2.34-.15,1.62,1.62,0,0,1-.63-.37,1,1,0,0,1-.31-.68,1.39,1.39,0,0,1,.09-.45,3.27,3.27,0,0,1,1.55-1.74,6.73,6.73,0,0,1,2.17-.66c.6-.1,1.19-.17,1.79-.22A1.56,1.56,0,0,1,52.64,106.55Z"/><path class="cls-2" d="M46.65,110.05a1.62,1.62,0,0,1-.63-.37,1,1,0,0,1-.31-.68,1.39,1.39,0,0,1,.09-.45,3.27,3.27,0,0,1,1.55-1.74,6.73,6.73,0,0,1,2.17-.66h0a8.22,8.22,0,0,0-1.08.4,4.16,4.16,0,0,0-1.29.84,2.28,2.28,0,0,0-.69,1.41A5.74,5.74,0,0,1,51,106.66a6.56,6.56,0,0,0-2.51,1.14,2.6,2.6,0,0,0-.8.88.65.65,0,0,0-.06.33c0,.21.29.28.49.29a7.18,7.18,0,0,0,4.65-1.24,2.28,2.28,0,0,1-.46.6,4.3,4.3,0,0,1-1,.71,7.9,7.9,0,0,1-2.26.83A4.42,4.42,0,0,1,46.65,110.05Z"/><path class="cls-3" d="M51.27,107.64a2.74,2.74,0,0,1-1.69.71.36.36,0,0,1-.11-.72,9.47,9.47,0,0,1,1.68-.26.16.16,0,0,1,.12.27Z"/><path class="cls-3" d="M104.44,103s0,0,0,0Z"/><path class="cls-1" d="M193.09,37.88a1.29,1.29,0,0,0-.3.58,1.09,1.09,0,0,0,0,.44,2.14,2.14,0,0,0,.65,1.1,4.26,4.26,0,0,0,1,.7,7.64,7.64,0,0,0,2.26.84,4.53,4.53,0,0,0,2.34-.15,1.9,1.9,0,0,0,.63-.37,1,1,0,0,0,.31-.69,1.33,1.33,0,0,0-.09-.44,3.27,3.27,0,0,0-1.55-1.74,6.75,6.75,0,0,0-2.17-.67c-.6-.09-1.19-.16-1.79-.22A1.61,1.61,0,0,0,193.09,37.88Z"/><path class="cls-2" d="M199.08,41.39a1.9,1.9,0,0,0,.63-.37,1,1,0,0,0,.31-.69,1.33,1.33,0,0,0-.09-.44,3.27,3.27,0,0,0-1.55-1.74,6.75,6.75,0,0,0-2.17-.67h0a8.22,8.22,0,0,1,1.08.4,4.13,4.13,0,0,1,1.29.83,2.33,2.33,0,0,1,.69,1.42A5.78,5.78,0,0,0,194.76,38a6.73,6.73,0,0,1,2.51,1.15,2.6,2.6,0,0,1,.8.88.61.61,0,0,1,.06.32c0,.22-.29.28-.49.3A7.18,7.18,0,0,1,193,39.4a2.46,2.46,0,0,0,.46.6,4.26,4.26,0,0,0,1,.7,7.64,7.64,0,0,0,2.26.84A4.53,4.53,0,0,0,199.08,41.39Z"/><path class="cls-3" d="M194.46,39a2.75,2.75,0,0,0,1.69.72.37.37,0,0,0,.11-.73,12,12,0,0,0-1.68-.26.16.16,0,0,0-.12.27Z"/><path class="cls-1" d="M197.25,9.59a1.29,1.29,0,0,0-.3.58,1.1,1.1,0,0,0,0,.44,2.13,2.13,0,0,0,.64,1.1,4.26,4.26,0,0,0,1,.7,7.64,7.64,0,0,0,2.26.84,4.52,4.52,0,0,0,2.34-.15,1.9,1.9,0,0,0,.63-.37,1,1,0,0,0,.31-.69,1.44,1.44,0,0,0-.09-.45,3.34,3.34,0,0,0-1.55-1.74,6.73,6.73,0,0,0-2.17-.66c-.6-.09-1.19-.16-1.79-.22A1.61,1.61,0,0,0,197.25,9.59Z"/><path class="cls-2" d="M203.24,13.1a1.9,1.9,0,0,0,.63-.37,1,1,0,0,0,.31-.69,1.44,1.44,0,0,0-.09-.45,3.34,3.34,0,0,0-1.55-1.74,6.73,6.73,0,0,0-2.17-.66h0a8.22,8.22,0,0,1,1.08.4,4.13,4.13,0,0,1,1.29.83,2.31,2.31,0,0,1,.69,1.41,5.77,5.77,0,0,0-4.47-2.13,6.58,6.58,0,0,1,2.51,1.15,2.51,2.51,0,0,1,.8.88.61.61,0,0,1,.06.32c0,.22-.29.28-.49.3a7.18,7.18,0,0,1-4.65-1.24,2.46,2.46,0,0,0,.46.6,4.26,4.26,0,0,0,1,.7,7.64,7.64,0,0,0,2.26.84A4.52,4.52,0,0,0,203.24,13.1Z"/><path class="cls-3" d="M198.62,10.68a2.68,2.68,0,0,0,1.69.71.36.36,0,0,0,.11-.72,11.75,11.75,0,0,0-1.68-.26.16.16,0,0,0-.12.27Z"/><path class="cls-1" d="M96.61,31.68a1,1,0,0,0-.29,1A2.12,2.12,0,0,0,97,33.8a4.69,4.69,0,0,0,1,.7,7.64,7.64,0,0,0,2.26.84,4.52,4.52,0,0,0,2.34-.15,1.9,1.9,0,0,0,.63-.37,1,1,0,0,0,.31-.69,1.11,1.11,0,0,0-.08-.44,3.35,3.35,0,0,0-1.56-1.75,7,7,0,0,0-2.17-.66c-.59-.09-1.19-.16-1.78-.22A1.59,1.59,0,0,0,96.61,31.68Z"/><path class="cls-2" d="M102.59,35.19a1.9,1.9,0,0,0,.63-.37,1,1,0,0,0,.31-.69,1.11,1.11,0,0,0-.08-.44,3.35,3.35,0,0,0-1.56-1.75,7,7,0,0,0-2.17-.66h0a8.65,8.65,0,0,1,1.07.4,4.13,4.13,0,0,1,1.29.83,2.31,2.31,0,0,1,.69,1.41,5.76,5.76,0,0,0-4.47-2.13,6.73,6.73,0,0,1,2.51,1.15,2.6,2.6,0,0,1,.8.88.53.53,0,0,1,.06.32c0,.22-.29.28-.49.3A7.18,7.18,0,0,1,96.5,33.2a2.46,2.46,0,0,0,.46.6,4.69,4.69,0,0,0,1,.7,7.64,7.64,0,0,0,2.26.84A4.52,4.52,0,0,0,102.59,35.19Z"/><path class="cls-3" d="M98,32.77a2.71,2.71,0,0,0,1.7.71.36.36,0,0,0,.1-.72,11.75,11.75,0,0,0-1.68-.26.16.16,0,0,0-.12.27Z"/><path class="cls-1" d="M201,56a1.2,1.2,0,0,0-.3.58,1,1,0,0,0,0,.43,2.14,2.14,0,0,0,.65,1.1,4.3,4.3,0,0,0,1,.71,7.9,7.9,0,0,0,2.26.83,4.42,4.42,0,0,0,2.34-.15,2,2,0,0,0,.63-.37,1,1,0,0,0,.31-.68,1.34,1.34,0,0,0-.09-.45,3.27,3.27,0,0,0-1.55-1.74,6.48,6.48,0,0,0-2.18-.66c-.59-.1-1.18-.17-1.78-.22A1.56,1.56,0,0,0,201,56Z"/><path class="cls-2" d="M207,59.51a2,2,0,0,0,.63-.37,1,1,0,0,0,.31-.68,1.34,1.34,0,0,0-.09-.45,3.27,3.27,0,0,0-1.55-1.74,6.48,6.48,0,0,0-2.18-.66h0a8.22,8.22,0,0,1,1.08.4,4.31,4.31,0,0,1,1.29.83,2.33,2.33,0,0,1,.69,1.42,5.78,5.78,0,0,0-4.47-2.14,6.73,6.73,0,0,1,2.51,1.15,2.48,2.48,0,0,1,.79.88.55.55,0,0,1,.07.33c-.05.21-.29.27-.49.29a7.18,7.18,0,0,1-4.65-1.24,2.46,2.46,0,0,0,.46.6,4.3,4.3,0,0,0,1,.71,7.9,7.9,0,0,0,2.26.83A4.42,4.42,0,0,0,207,59.51Z"/><path class="cls-3" d="M202.33,57.09a2.69,2.69,0,0,0,1.69.72.37.37,0,0,0,.11-.73,10.64,10.64,0,0,0-1.68-.25.15.15,0,0,0-.12.26Z"/><path class="cls-1" d="M76.4,114.74a1.26,1.26,0,0,0-.31.58,1.25,1.25,0,0,0,0,.43,2.19,2.19,0,0,0,.64,1.1,4.26,4.26,0,0,0,1,.71,7.79,7.79,0,0,0,2.26.83,4.39,4.39,0,0,0,2.33-.15,1.65,1.65,0,0,0,.64-.37,1.05,1.05,0,0,0,.31-.68,1.39,1.39,0,0,0-.09-.45A3.29,3.29,0,0,0,81.68,115a6.58,6.58,0,0,0-2.17-.66c-.59-.1-1.19-.17-1.78-.22A1.54,1.54,0,0,0,76.4,114.74Z"/><path class="cls-2" d="M82.38,118.24a1.65,1.65,0,0,0,.64-.37,1.05,1.05,0,0,0,.31-.68,1.39,1.39,0,0,0-.09-.45A3.29,3.29,0,0,0,81.68,115a6.58,6.58,0,0,0-2.17-.66h0a8.65,8.65,0,0,1,1.07.4,4,4,0,0,1,1.29.84,2.35,2.35,0,0,1,.7,1.41,5.74,5.74,0,0,0-4.48-2.13A6.43,6.43,0,0,1,80.57,116a2.34,2.34,0,0,1,.8.88.45.45,0,0,1,.06.32c0,.21-.29.28-.49.29a7.19,7.19,0,0,1-4.65-1.24,2.28,2.28,0,0,0,.46.6,4.26,4.26,0,0,0,1,.71,7.79,7.79,0,0,0,2.26.83A4.39,4.39,0,0,0,82.38,118.24Z"/><path class="cls-3" d="M77.77,115.83a2.71,2.71,0,0,0,1.69.71.36.36,0,0,0,.11-.72,9.62,9.62,0,0,0-1.68-.26.15.15,0,0,0-.12.27Z"/><path class="cls-1" d="M61.17,98.52a1.21,1.21,0,0,0-.31.58,1.25,1.25,0,0,0,0,.43,2.19,2.19,0,0,0,.64,1.1,4.56,4.56,0,0,0,1,.71,7.79,7.79,0,0,0,2.26.83,4.39,4.39,0,0,0,2.33-.15,1.55,1.55,0,0,0,.63-.37,1,1,0,0,0,.32-.68,1.39,1.39,0,0,0-.09-.45,3.29,3.29,0,0,0-1.56-1.74,6.58,6.58,0,0,0-2.17-.66c-.59-.1-1.19-.17-1.78-.22A1.54,1.54,0,0,0,61.17,98.52Z"/><path class="cls-2" d="M67.15,102a1.55,1.55,0,0,0,.63-.37,1,1,0,0,0,.32-.68,1.39,1.39,0,0,0-.09-.45,3.29,3.29,0,0,0-1.56-1.74,6.58,6.58,0,0,0-2.17-.66h0a8.65,8.65,0,0,1,1.07.4,4,4,0,0,1,1.29.84,2.35,2.35,0,0,1,.7,1.41,5.74,5.74,0,0,0-4.48-2.13,6.56,6.56,0,0,1,2.51,1.14,2.41,2.41,0,0,1,.8.88.49.49,0,0,1,.06.33c0,.21-.29.27-.49.29A7.18,7.18,0,0,1,61.06,100a2.28,2.28,0,0,0,.46.6,4.56,4.56,0,0,0,1,.71,7.79,7.79,0,0,0,2.26.83A4.39,4.39,0,0,0,67.15,102Z"/><path class="cls-3" d="M62.54,99.6a2.67,2.67,0,0,0,1.69.72.36.36,0,0,0,.11-.72,9.59,9.59,0,0,0-1.69-.26.15.15,0,0,0-.11.26Z"/><path class="cls-1" d="M81,101.69a1,1,0,0,0-.29,1,2.23,2.23,0,0,0,.64,1.1,4.69,4.69,0,0,0,1,.7,7.6,7.6,0,0,0,2.27.84A4.49,4.49,0,0,0,87,105.2a1.9,1.9,0,0,0,.63-.37,1,1,0,0,0,.32-.69,1.33,1.33,0,0,0-.09-.44A3.35,3.35,0,0,0,86.3,102a6.73,6.73,0,0,0-2.17-.66c-.59-.09-1.19-.16-1.78-.22A1.59,1.59,0,0,0,81,101.69Z"/><path class="cls-2" d="M87,105.2a1.9,1.9,0,0,0,.63-.37,1,1,0,0,0,.32-.69,1.33,1.33,0,0,0-.09-.44A3.35,3.35,0,0,0,86.3,102a6.73,6.73,0,0,0-2.17-.66h0a8.65,8.65,0,0,1,1.07.4,4.13,4.13,0,0,1,1.29.83,2.31,2.31,0,0,1,.69,1.41,5.76,5.76,0,0,0-4.47-2.13A6.58,6.58,0,0,1,85.19,103a2.34,2.34,0,0,1,.8.88.53.53,0,0,1,.06.32c0,.22-.29.28-.49.3a7.18,7.18,0,0,1-4.65-1.24,2.46,2.46,0,0,0,.46.6,4.69,4.69,0,0,0,1,.7,7.6,7.6,0,0,0,2.27.84A4.49,4.49,0,0,0,87,105.2Z"/><path class="cls-3" d="M82.39,102.78a2.66,2.66,0,0,0,1.69.71.36.36,0,0,0,.11-.72,12.11,12.11,0,0,0-1.69-.26.15.15,0,0,0-.11.27Z"/><path class="cls-1" d="M184.11,84.33a1.21,1.21,0,0,0-.31.58,1.25,1.25,0,0,0,0,.43,2.19,2.19,0,0,0,.64,1.1,4.73,4.73,0,0,0,1,.71,8,8,0,0,0,2.27.83,4.39,4.39,0,0,0,2.33-.15,1.81,1.81,0,0,0,.63-.37,1,1,0,0,0,.32-.68,1.34,1.34,0,0,0-.09-.45,3.29,3.29,0,0,0-1.56-1.74,6.66,6.66,0,0,0-2.17-.66c-.59-.1-1.19-.17-1.78-.22A1.54,1.54,0,0,0,184.11,84.33Z"/><path class="cls-2" d="M190.09,87.83a1.81,1.81,0,0,0,.63-.37,1,1,0,0,0,.32-.68,1.34,1.34,0,0,0-.09-.45,3.29,3.29,0,0,0-1.56-1.74,6.66,6.66,0,0,0-2.17-.66h0a8.65,8.65,0,0,1,1.07.4,4,4,0,0,1,1.29.84,2.35,2.35,0,0,1,.7,1.41,5.79,5.79,0,0,0-4.48-2.14,6.73,6.73,0,0,1,2.51,1.15,2.41,2.41,0,0,1,.8.88.48.48,0,0,1,.06.33c0,.21-.29.27-.49.29A7.18,7.18,0,0,1,184,85.84a2.28,2.28,0,0,0,.46.6,4.73,4.73,0,0,0,1,.71,8,8,0,0,0,2.27.83A4.39,4.39,0,0,0,190.09,87.83Z"/><path class="cls-3" d="M185.48,85.41a2.67,2.67,0,0,0,1.69.72.37.37,0,0,0,.11-.73,10.6,10.6,0,0,0-1.69-.25.15.15,0,0,0-.11.26Z"/><path class="cls-3" d="M78.5,103.41Z"/><path class="cls-1" d="M146.94,22.77a1.24,1.24,0,0,1,.3.58,1,1,0,0,1,0,.43,2.21,2.21,0,0,1-.65,1.11,4.26,4.26,0,0,1-1,.7,7.9,7.9,0,0,1-2.26.83,4.39,4.39,0,0,1-2.33-.15,1.65,1.65,0,0,1-.64-.37,1,1,0,0,1-.31-.68,1.44,1.44,0,0,1,.09-.45A3.27,3.27,0,0,1,141.65,23a6.71,6.71,0,0,1,2.18-.66c.59-.1,1.18-.17,1.78-.22A1.55,1.55,0,0,1,146.94,22.77Z"/><path class="cls-2" d="M141,26.27a1.65,1.65,0,0,1-.64-.37,1,1,0,0,1-.31-.68,1.44,1.44,0,0,1,.09-.45A3.27,3.27,0,0,1,141.65,23a6.71,6.71,0,0,1,2.18-.66h0a8.09,8.09,0,0,0-1.07.4,4,4,0,0,0-1.29.84,2.24,2.24,0,0,0-.7,1.41,5.74,5.74,0,0,1,4.47-2.13,6.33,6.33,0,0,0-2.5,1.15,2.34,2.34,0,0,0-.8.88.45.45,0,0,0-.06.32c0,.21.28.28.49.29A7.17,7.17,0,0,0,147,24.28a2.51,2.51,0,0,1-.46.61,4.26,4.26,0,0,1-1,.7,7.9,7.9,0,0,1-2.26.83A4.39,4.39,0,0,1,141,26.27Z"/><path class="cls-3" d="M145.57,23.86a2.71,2.71,0,0,1-1.69.71.36.36,0,0,1-.11-.72,9.62,9.62,0,0,1,1.68-.26.15.15,0,0,1,.12.27Z"/><path class="cls-1" d="M67.78,77.48a1.2,1.2,0,0,1,.3.58,1,1,0,0,1,0,.43,2.14,2.14,0,0,1-.65,1.1,4.3,4.3,0,0,1-1,.71,7.9,7.9,0,0,1-2.26.83A4.38,4.38,0,0,1,61.8,81a1.65,1.65,0,0,1-.64-.37,1,1,0,0,1-.31-.68,1.39,1.39,0,0,1,.09-.45,3.27,3.27,0,0,1,1.55-1.74,6.71,6.71,0,0,1,2.18-.66c.59-.1,1.18-.17,1.78-.22A1.55,1.55,0,0,1,67.78,77.48Z"/><path class="cls-2" d="M61.8,81a1.65,1.65,0,0,1-.64-.37,1,1,0,0,1-.31-.68,1.39,1.39,0,0,1,.09-.45,3.27,3.27,0,0,1,1.55-1.74,6.71,6.71,0,0,1,2.18-.66h0a7.6,7.6,0,0,0-1.07.4,4.2,4.2,0,0,0-1.3.84,2.28,2.28,0,0,0-.69,1.41,5.74,5.74,0,0,1,4.47-2.13,6.45,6.45,0,0,0-2.5,1.14,2.41,2.41,0,0,0-.8.88.57.57,0,0,0-.07.33c0,.21.29.28.49.29A7.18,7.18,0,0,0,67.88,79a2.28,2.28,0,0,1-.46.6,4.3,4.3,0,0,1-1,.71,7.9,7.9,0,0,1-2.26.83A4.38,4.38,0,0,1,61.8,81Z"/><path class="cls-3" d="M66.41,78.57a2.71,2.71,0,0,1-1.69.71.36.36,0,0,1-.11-.72,9.62,9.62,0,0,1,1.68-.26.16.16,0,0,1,.12.27Z"/><path class="cls-1" d="M82.86,79.07a1.21,1.21,0,0,1,.31.58,1.25,1.25,0,0,1,0,.43,2.19,2.19,0,0,1-.64,1.1,4.73,4.73,0,0,1-1,.71,7.9,7.9,0,0,1-2.26.83,4.42,4.42,0,0,1-2.34-.15,1.9,1.9,0,0,1-.63-.37,1,1,0,0,1-.31-.68,1.12,1.12,0,0,1,.08-.45,3.29,3.29,0,0,1,1.56-1.74,6.49,6.49,0,0,1,2.17-.66c.59-.1,1.19-.17,1.78-.22A1.54,1.54,0,0,1,82.86,79.07Z"/><path class="cls-2" d="M76.88,82.57a1.9,1.9,0,0,1-.63-.37,1,1,0,0,1-.31-.68,1.12,1.12,0,0,1,.08-.45,3.29,3.29,0,0,1,1.56-1.74,6.49,6.49,0,0,1,2.17-.66h0a8.65,8.65,0,0,0-1.07.4,4.31,4.31,0,0,0-1.29.83,2.33,2.33,0,0,0-.69,1.42,5.77,5.77,0,0,1,4.47-2.14,6.73,6.73,0,0,0-2.51,1.15,2.5,2.5,0,0,0-.8.88.54.54,0,0,0-.06.33c0,.21.29.27.49.29A7.18,7.18,0,0,0,83,80.58a2.28,2.28,0,0,1-.46.6,4.73,4.73,0,0,1-1,.71,7.9,7.9,0,0,1-2.26.83A4.42,4.42,0,0,1,76.88,82.57Z"/><path class="cls-3" d="M81.49,80.15a2.67,2.67,0,0,1-1.69.72.37.37,0,0,1-.11-.73,10.77,10.77,0,0,1,1.69-.25.15.15,0,0,1,.11.26Z"/><path class="cls-1" d="M60.63,84.62a1,1,0,0,1,.29,1,2.23,2.23,0,0,1-.64,1.1,4.69,4.69,0,0,1-1,.7,7.6,7.6,0,0,1-2.27.84,4.49,4.49,0,0,1-2.33-.15,1.9,1.9,0,0,1-.63-.37,1,1,0,0,1-.32-.69,1.33,1.33,0,0,1,.09-.44,3.35,3.35,0,0,1,1.56-1.75,6.73,6.73,0,0,1,2.17-.66c.59-.09,1.19-.16,1.78-.22A1.59,1.59,0,0,1,60.63,84.62Z"/><path class="cls-2" d="M54.65,88.13a1.9,1.9,0,0,1-.63-.37,1,1,0,0,1-.32-.69,1.33,1.33,0,0,1,.09-.44,3.35,3.35,0,0,1,1.56-1.75,6.73,6.73,0,0,1,2.17-.66h0a8.65,8.65,0,0,0-1.07.4,4.13,4.13,0,0,0-1.29.83,2.31,2.31,0,0,0-.69,1.41A5.76,5.76,0,0,1,59,84.73a6.73,6.73,0,0,0-2.51,1.15,2.34,2.34,0,0,0-.8.88.53.53,0,0,0-.06.32c0,.22.29.28.49.3a7.18,7.18,0,0,0,4.65-1.24,2.46,2.46,0,0,1-.46.6,4.69,4.69,0,0,1-1,.7,7.6,7.6,0,0,1-2.27.84A4.49,4.49,0,0,1,54.65,88.13Z"/><path class="cls-3" d="M59.26,85.71a2.66,2.66,0,0,1-1.69.71.36.36,0,0,1-.11-.72,12.11,12.11,0,0,1,1.69-.26.15.15,0,0,1,.11.27Z"/><path class="cls-1" d="M232.05,46a1.31,1.31,0,0,1,.31.58,1.25,1.25,0,0,1,0,.43,2.19,2.19,0,0,1-.64,1.11,4.69,4.69,0,0,1-1,.7,8.24,8.24,0,0,1-2.26.84,4.52,4.52,0,0,1-2.34-.16,1.62,1.62,0,0,1-.63-.37,1,1,0,0,1-.31-.68,1.19,1.19,0,0,1,.08-.45,3.29,3.29,0,0,1,1.56-1.74,6.73,6.73,0,0,1,2.17-.66c.59-.1,1.19-.17,1.78-.22A1.54,1.54,0,0,1,232.05,46Z"/><path class="cls-2" d="M226.07,49.46a1.62,1.62,0,0,1-.63-.37,1,1,0,0,1-.31-.68,1.19,1.19,0,0,1,.08-.45,3.29,3.29,0,0,1,1.56-1.74,6.73,6.73,0,0,1,2.17-.66h0a7.24,7.24,0,0,0-1.07.39,4.35,4.35,0,0,0-1.29.84,2.28,2.28,0,0,0-.69,1.41,5.72,5.72,0,0,1,4.47-2.13,6.58,6.58,0,0,0-2.51,1.15,2.42,2.42,0,0,0-.8.88.51.51,0,0,0-.06.32c0,.21.29.28.49.3a7.25,7.25,0,0,0,4.65-1.25,2.51,2.51,0,0,1-.46.61,4.69,4.69,0,0,1-1,.7,8.24,8.24,0,0,1-2.26.84A4.52,4.52,0,0,1,226.07,49.46Z"/><path class="cls-3" d="M230.68,47.05a2.71,2.71,0,0,1-1.69.71.36.36,0,0,1-.1-.72,10.49,10.49,0,0,1,1.68-.26.15.15,0,0,1,.11.27Z"/><path class="cls-1" d="M136.61,44a1.21,1.21,0,0,0-.31.58,1.25,1.25,0,0,0,0,.43,2.12,2.12,0,0,0,.64,1.1,4.73,4.73,0,0,0,1,.71,7.9,7.9,0,0,0,2.26.83,4.42,4.42,0,0,0,2.34-.15,1.9,1.9,0,0,0,.63-.37,1,1,0,0,0,.31-.68,1.12,1.12,0,0,0-.08-.45,3.29,3.29,0,0,0-1.56-1.74,6.49,6.49,0,0,0-2.17-.66c-.59-.1-1.19-.17-1.78-.22A1.54,1.54,0,0,0,136.61,44Z"/><path class="cls-2" d="M142.59,47.54a1.9,1.9,0,0,0,.63-.37,1,1,0,0,0,.31-.68,1.12,1.12,0,0,0-.08-.45,3.29,3.29,0,0,0-1.56-1.74,6.49,6.49,0,0,0-2.17-.66h0a8.65,8.65,0,0,1,1.07.4,4.31,4.31,0,0,1,1.29.83,2.33,2.33,0,0,1,.69,1.42,5.77,5.77,0,0,0-4.47-2.14,6.73,6.73,0,0,1,2.51,1.15,2.6,2.6,0,0,1,.8.88.54.54,0,0,1,.06.33c0,.21-.29.27-.49.29a7.18,7.18,0,0,1-4.65-1.24,2.46,2.46,0,0,0,.46.6,4.73,4.73,0,0,0,1,.71,7.9,7.9,0,0,0,2.26.83A4.42,4.42,0,0,0,142.59,47.54Z"/><path class="cls-3" d="M138,45.12a2.72,2.72,0,0,0,1.7.72.37.37,0,0,0,.1-.73,10.47,10.47,0,0,0-1.68-.25.15.15,0,0,0-.12.26Z"/><path class="cls-1" d="M197.75,29.18a1.29,1.29,0,0,0-.3.58,1,1,0,0,0,0,.43,2.21,2.21,0,0,0,.65,1.11,4.26,4.26,0,0,0,1,.7,8.24,8.24,0,0,0,2.26.84,4.39,4.39,0,0,0,2.33-.16,1.77,1.77,0,0,0,.64-.36,1,1,0,0,0,.31-.69,1.44,1.44,0,0,0-.09-.45A3.27,3.27,0,0,0,203,29.44a6.71,6.71,0,0,0-2.18-.66c-.59-.1-1.18-.17-1.78-.22A1.54,1.54,0,0,0,197.75,29.18Z"/><path class="cls-2" d="M203.73,32.68a1.77,1.77,0,0,0,.64-.36,1,1,0,0,0,.31-.69,1.44,1.44,0,0,0-.09-.45A3.27,3.27,0,0,0,203,29.44a6.71,6.71,0,0,0-2.18-.66h0a8,8,0,0,1,1.07.39,4.22,4.22,0,0,1,1.29.84,2.24,2.24,0,0,1,.7,1.41,5.77,5.77,0,0,0-4.47-2.13,6.47,6.47,0,0,1,2.5,1.15,2.34,2.34,0,0,1,.8.88.45.45,0,0,1,.06.32c0,.21-.28.28-.49.3a7.29,7.29,0,0,1-4.64-1.24,2.66,2.66,0,0,0,.46.6,4.26,4.26,0,0,0,1,.7,8.24,8.24,0,0,0,2.26.84A4.39,4.39,0,0,0,203.73,32.68Z"/><path class="cls-3" d="M199.12,30.27a2.71,2.71,0,0,0,1.69.71.36.36,0,0,0,.11-.72,12,12,0,0,0-1.68-.26.15.15,0,0,0-.12.27Z"/><path class="cls-1" d="M31,103.58a1.21,1.21,0,0,1,.31.58,1.25,1.25,0,0,1,0,.43,2.12,2.12,0,0,1-.64,1.1,4.73,4.73,0,0,1-1,.71,7.9,7.9,0,0,1-2.26.83,4.42,4.42,0,0,1-2.34-.15,1.62,1.62,0,0,1-.63-.37,1,1,0,0,1-.31-.68,1.16,1.16,0,0,1,.08-.45,3.29,3.29,0,0,1,1.56-1.74,6.73,6.73,0,0,1,2.17-.66c.59-.1,1.19-.17,1.78-.22A1.54,1.54,0,0,1,31,103.58Z"/><path class="cls-2" d="M25,107.08a1.62,1.62,0,0,1-.63-.37,1,1,0,0,1-.31-.68,1.16,1.16,0,0,1,.08-.45,3.29,3.29,0,0,1,1.56-1.74,6.73,6.73,0,0,1,2.17-.66h0a8.65,8.65,0,0,0-1.07.4,4.16,4.16,0,0,0-1.29.84,2.28,2.28,0,0,0-.69,1.41,5.72,5.72,0,0,1,4.47-2.13,6.56,6.56,0,0,0-2.51,1.14,2.7,2.7,0,0,0-.8.88A.56.56,0,0,0,26,106c.05.21.29.28.49.29a7.18,7.18,0,0,0,4.65-1.24,2.28,2.28,0,0,1-.46.6,4.73,4.73,0,0,1-1,.71,7.9,7.9,0,0,1-2.26.83A4.42,4.42,0,0,1,25,107.08Z"/><path class="cls-3" d="M29.65,104.67a2.76,2.76,0,0,1-1.7.71.36.36,0,0,1-.1-.72,9.47,9.47,0,0,1,1.68-.26.16.16,0,0,1,.12.27Z"/><path class="cls-1" d="M165.73,21.83a1.31,1.31,0,0,1,.31.58,1.25,1.25,0,0,1,0,.43,2.26,2.26,0,0,1-.64,1.11,4.69,4.69,0,0,1-1,.7,8.24,8.24,0,0,1-2.26.84,4.52,4.52,0,0,1-2.34-.16,1.62,1.62,0,0,1-.63-.37,1,1,0,0,1-.31-.68,1.19,1.19,0,0,1,.08-.45,3.29,3.29,0,0,1,1.56-1.74,6.73,6.73,0,0,1,2.17-.66c.59-.1,1.19-.17,1.78-.22A1.54,1.54,0,0,1,165.73,21.83Z"/><path class="cls-2" d="M159.75,25.33a1.62,1.62,0,0,1-.63-.37,1,1,0,0,1-.31-.68,1.19,1.19,0,0,1,.08-.45,3.29,3.29,0,0,1,1.56-1.74,6.73,6.73,0,0,1,2.17-.66h0a8.65,8.65,0,0,0-1.07.4,4.35,4.35,0,0,0-1.29.84,2.28,2.28,0,0,0-.69,1.41,5.72,5.72,0,0,1,4.47-2.13,6.43,6.43,0,0,0-2.51,1.15,2.34,2.34,0,0,0-.8.88.51.51,0,0,0-.06.32c.05.21.29.28.49.3a7.25,7.25,0,0,0,4.65-1.25,2.51,2.51,0,0,1-.46.61,4.69,4.69,0,0,1-1,.7,8.24,8.24,0,0,1-2.26.84A4.52,4.52,0,0,1,159.75,25.33Z"/><path class="cls-3" d="M164.36,22.92a2.71,2.71,0,0,1-1.69.71.36.36,0,0,1-.11-.72,10.79,10.79,0,0,1,1.69-.26.15.15,0,0,1,.11.27Z"/></svg>