<svg id="Layer_1" data-name="Layer 1" xmlns="http://www.w3.org/2000/svg" viewBox="0 0 72.23 68.63"><defs><style>.cls-1,.cls-3{fill:#a7ce38;}.cls-10,.cls-2,.cls-8{fill:#81a13e;}.cls-10,.cls-3,.cls-4,.cls-6,.cls-8{stroke:#332e2d;stroke-miterlimit:10;}.cls-3,.cls-4,.cls-6,.cls-8{stroke-width:0.1px;}.cls-4,.cls-5{fill:#8eb73f;}.cls-6{fill:#d0dd4d;}.cls-7{fill:#c4d750;}.cls-9{fill:#fff;}.cls-10{stroke-width:0.01px;}.cls-11{fill:#331f1f;}</style></defs><g id="grasapper"><path class="cls-1" d="M30.34,59.31a2.21,2.21,0,0,0,2-.48c.06-.07,0-.32-.09-.31a7.13,7.13,0,0,0-.84.31,3.2,3.2,0,0,1-1.07.06c-.17,0-.18.38,0,.42Z"/><path class="cls-1" d="M30.69,60.46a1.82,1.82,0,0,0,1.63-1.23c0-.07,0-.34-.18-.25s-.38.43-.61.61a3,3,0,0,1-.89.45c-.15.05-.13.43.05.42Z"/><path class="cls-1" d="M31.68,61.35a2.91,2.91,0,0,0,.91-2.41c-.05-.23-.25-.19-.3,0-.09.37-.1.74-.22,1.1a3.41,3.41,0,0,1-.53,1c-.06.09,0,.39.14.26Z"/><path class="cls-2" d="M28.68,63.82a39.25,39.25,0,0,0-1.06-7.53c-.33-1.82-2-.68-1.75.78l0,.24c.06.35.37,1,.82.91l.16,0c.49-.06.64-.62.64-1v-.23c-.07.3-.14.6-.22.91l.1-.19L26,57.41c.71,2.2,1.06,4.61,2,6.74.26.62.75.12.76-.33Z"/><path class="cls-3" d="M31.94,58.62a138,138,0,0,0,5.12-17.14c1.27-5.71,1.75-11.56,3-17.25.29-1.31,1.54-1.71,1.58-.09.13,6-1.46,12.27-3,18a108.24,108.24,0,0,1-6.06,17.14c-.36.79-.85-.13-.65-.7Z"/><path class="cls-4" d="M41.69,52.34c4.38,1.69,5.5-9.67,4.57-17.23s-2-12.25-4.6-12.11c-3.13.17-2.58,8.82-2.68,13.77S36.15,50.2,41.69,52.34Z"/><path class="cls-5" d="M41.39,23c-1,2.86-.73,8.3-.79,11.85-.1,5-2.84,13.42,2.7,15.56a2.06,2.06,0,0,0,1.67,0c-.78,1.62-1.86,2.45-3.28,1.9C36.15,50.2,38.89,41.73,39,36.77S38.56,23.67,41.39,23Z"/><path class="cls-2" d="M42.9,26.11c1.28-.45,2.36,11.61,1,13.37S40.85,26.82,42.9,26.11Z"/><path class="cls-2" d="M6.5,57.75a60.08,60.08,0,0,0,2.31-8.91c.28-1.3-1.23-2.2-1.57-.61a64.25,64.25,0,0,0-1.59,9c0,.52.53,1.35.85.52Z"/><path class="cls-4" d="M16.5,43.56c.44,1.2-7.1,5.69-9,4.78S15.1,39.71,16.5,43.56Z"/><path class="cls-4" d="M32,49c.93.86-3.72,8.3-5.83,8.37S29,46.21,32,49Z"/><path class="cls-6" d="M10.49,35.38s3,15.12,20.75,17.8,32.61-1.34,37.22-13.1-1-9.4-1-9.4S51.33,38.4,34.54,37.06s-17.79-5-17.79-5Z"/><path class="cls-2" d="M3.28,59.2a4.1,4.1,0,0,0,2.78-1.72c.16-.23-.1-.79-.32-.46a4.64,4.64,0,0,1-2.5,1.87c-.11,0-.09.34,0,.31Z"/><path class="cls-2" d="M3.92,60.05a3.46,3.46,0,0,0,2.2-2.78c0-.16-.18-.38-.3-.18-.28.43-.39.94-.68,1.37a4.37,4.37,0,0,1-1.28,1.29c-.1.06-.08.36.06.3Z"/><path class="cls-2" d="M4.81,60.59a3.47,3.47,0,0,0,1.57-3.27c0-.13-.22-.32-.32-.12-.22.46-.24,1-.43,1.48a7.59,7.59,0,0,1-1,1.6c0,.08,0,.4.13.31Z"/><path class="cls-2" d="M25.81,66.5a3.93,3.93,0,0,0,2.5-1.61c0-.07,0-.42-.14-.32-.38.24-.68.62-1.06.88a13.26,13.26,0,0,1-1.33.74c-.1,0-.11.33,0,.31Z"/><path class="cls-2" d="M26.58,67.2a2.29,2.29,0,0,0,1.18-.87c.25-.31.63-.85.52-1.27,0,0-.06-.15-.13-.11s-.16.21-.22.36a3.06,3.06,0,0,1-.37.63,4.33,4.33,0,0,1-1.09.91c-.12.08-.06.39.11.35Z"/><path class="cls-2" d="M27.61,67.67A2.83,2.83,0,0,0,28.48,65c-.06-.32-.4-.21-.38.08a3.11,3.11,0,0,1-.65,2.27c-.07.1,0,.42.16.29Z"/><path class="cls-7" d="M68.82,37.08c-4.61,11.76-19.43,15.79-37.21,13.1-13.34-2-18.34-11-20-15.4l-1.11.6s3,15.12,20.75,17.8,32.61-1.34,37.22-13.1c1.45-3.7,1.89-6,1.81-7.42A34.68,34.68,0,0,1,68.82,37.08Z"/><path class="cls-1" d="M24.58,43.78c.06-.17-.11-.58-.28-.31-.71,1.08-1.16,2.3-1.91,3.36A8.71,8.71,0,0,1,20.15,49l.39.26A11,11,0,0,0,24.58,43.78Z"/><path class="cls-1" d="M28.93,45c0-.2-.19-.51-.32-.2A23.93,23.93,0,0,1,27,48.55a11.88,11.88,0,0,1-2.47,2.81l.4.17C26.92,50,28.76,47.54,28.93,45Z"/><path class="cls-1" d="M31.17,53.17a9.28,9.28,0,0,0,1.53-7.09c-.06-.2-.29-.24-.3,0a23.18,23.18,0,0,1-.34,3.82Z"/><path class="cls-1" d="M41.77,45.52c-.18-.32-.36.2-.3.38A19.9,19.9,0,0,1,42.24,54h.37C43,51.19,43.17,48,41.77,45.52Z"/><path class="cls-1" d="M47.41,44.84c-.18-.31-.35.18-.29.36a16.58,16.58,0,0,1,1.11,8.33l.37-.05A12.84,12.84,0,0,0,47.41,44.84Z"/><path class="cls-1" d="M52.94,42c-.14-.34-.43,0-.36.25.38,1.41.88,2.78,1.36,4.16a15.52,15.52,0,0,1,.86,5.63l.38-.14A22.27,22.27,0,0,0,52.94,42Z"/><path class="cls-1" d="M58.35,39.35c-.21-.18-.27.28-.19.4,1.82,2.85,3.3,5.36,3.66,8.79l.34-.25C61.9,45.1,60.78,41.46,58.35,39.35Z"/><path class="cls-1" d="M62.12,36.36c-.25-.18-.36.32-.22.48a27.42,27.42,0,0,1,4.68,6.82l.29-.43A15.37,15.37,0,0,0,62.12,36.36Z"/><path class="cls-1" d="M64.69,33.89c-.25-.11-.26.43-.08.54a17.59,17.59,0,0,1,4.48,3.92l.2-.57A11.78,11.78,0,0,0,64.69,33.89Z"/><path class="cls-4" d="M14.06,32.89s7.38,17.36,30.43,15.78c27.68-1.89,28.14-15.33,27.3-20.1a63.2,63.2,0,0,1-29.87,8c-16.31.34-19.36-2-25.14-4.75Z"/><path class="cls-2" d="M64.88,64.51a3.28,3.28,0,0,1-1.6-1.06,2.55,2.55,0,0,1-.46-.82,2.6,2.6,0,0,0-.23-.68c-.06-.09-.15-.05-.19,0-.23.6.26,1.42.63,1.87a2.76,2.76,0,0,0,1.82,1c.15,0,.16-.33,0-.37Z"/><path class="cls-2" d="M65.51,63.4c-.46-.2-.91-.4-1.35-.63a5.53,5.53,0,0,0-1.25-.7c-.2,0-.21.26-.13.38a2.79,2.79,0,0,0,1.21.84,5,5,0,0,0,1.5.43c.13,0,.11-.27,0-.32Z"/><path class="cls-2" d="M65.47,62A12.31,12.31,0,0,1,64,61.76a3.46,3.46,0,0,0-1.18-.18c-.2,0-.23.39-.08.49a4.68,4.68,0,0,0,2.75.36c.19,0,.18-.42,0-.44Z"/><path class="cls-2" d="M39.59,64.78a31,31,0,0,1,2-6.36c.55-1.09-.61-3-1.3-1.44a17.31,17.31,0,0,0-1.7,7.44c0,.53.73,1.16,1,.36Z"/><path class="cls-4" d="M36.14,49.43c-2.27,1.9,3.42,9.48,5.53,8.86S39.3,46.8,36.14,49.43Z"/><path class="cls-2" d="M39.39,68.11a6.69,6.69,0,0,1-.26-3.26c0-.22-.26-.55-.35-.21a5.25,5.25,0,0,0,.44,3.67c.09.18.2-.11.17-.2Z"/><path class="cls-2" d="M40.27,67.67a6.15,6.15,0,0,1-.93-3c0-.24-.26-.35-.33-.06A4,4,0,0,0,40.1,68c.15.17.24-.23.17-.34Z"/><path class="cls-2" d="M41.1,66.7a4,4,0,0,1-.91-.88,11.05,11.05,0,0,1-.55-1c-.12-.21-.28,0-.28.19A2.27,2.27,0,0,0,41,67c.15,0,.18-.25.08-.32Z"/><path class="cls-2" d="M13.27,61.52a50.67,50.67,0,0,0,2.67-8.6c.33-1.45-1.54-2.42-1.72-.68a52.55,52.55,0,0,1-1.74,8.61c-.15.57.42,1.52.79.67Z"/><path class="cls-4" d="M18.66,44c-2.24-1-5.57,7.2-4.63,9.09S22.4,45.71,18.66,44Z"/><path class="cls-2" d="M9.61,62.9A6.76,6.76,0,0,0,13,61.06c.18-.19,0-.77-.22-.54a8.76,8.76,0,0,1-3.18,2.07c-.11,0-.09.34,0,.31Z"/><path class="cls-2" d="M10.1,63.49C11.26,63.26,13,62.3,13.19,61c0-.08,0-.39-.2-.29-.47.31-.73,1-1.16,1.34a5.85,5.85,0,0,1-1.77,1.08c-.12,0-.11.38,0,.35Z"/><path class="cls-2" d="M11,64a3.73,3.73,0,0,0,2.43-3.5c0-.2-.23-.41-.34-.13-.49,1.28-.92,2.51-2.17,3.26-.13.08-.1.45.08.37Z"/><path class="cls-1" d="M71,30.33c.1,0,.1-.23,0-.23s-.1.23,0,.23Z"/><path class="cls-1" d="M18.7,39.74s0-.08,0-.08,0,.08,0,.08Z"/><path class="cls-1" d="M17.81,38s0-.08,0-.08,0,.08,0,.08Z"/><path class="cls-1" d="M16,32.8c2,4,6,6.34,10.07,7.83a51.91,51.91,0,0,0,16.18,2.94c9.48.3,22-1.72,26.71-11.27.07-.14-.06-.51-.2-.29a21.26,21.26,0,0,1-10.56,8.8C53.26,42.73,47.82,43.14,42.56,43a54.5,54.5,0,0,1-15.67-2.72c-4.34-1.46-8.2-3.74-10.74-7.63-.09-.15-.2.09-.15.18Z"/><path class="cls-1" d="M16.88,32.69a17.84,17.84,0,0,0,9.53,5.62,79.47,79.47,0,0,0,14.1,1.48c8.27.32,17.5-.8,24.14-6.22.12-.11,0-.47-.14-.35-7,5-15.22,6.36-23.69,6.06A110.43,110.43,0,0,1,27.73,38,19.15,19.15,0,0,1,17,32.49c-.09-.08-.15.14-.09.2Z"/><path class="cls-2" d="M58.34,23.52c0,3-1.92,8.11-3,11.5-1.47,4.74-1.53,13.63-7.46,13.92a2,2,0,0,1-1.58-.54c.23,1.79,1,2.91,2.51,2.84,5.94-.29,6-9.19,7.47-13.92S60.83,25,58.34,23.52Z"/><path class="cls-2" d="M63.38,62.27A105.2,105.2,0,0,1,59.71,43.7c-.59-6.11,0-12.24-.54-18.34C59,24,57.3,23.35,56.88,25c-1.54,6.18-.62,12.94.34,19.15a84.87,84.87,0,0,0,5.05,18.71c.35.88,1.28,0,1.11-.61Z"/><path class="cls-5" d="M48.83,51.24c-4.69.22-2.18-10.91,1.09-17.8s5.76-11,8.18-10c2.92,1.15-.33,9.18-1.8,13.92S54.77,51,48.83,51.24Z"/><path class="cls-2" d="M58.34,23.52c0,3-1.92,8.11-3,11.5-1.47,4.74-1.53,13.63-7.46,13.92a2,2,0,0,1-1.58-.54c.23,1.79,1,2.91,2.51,2.84,5.94-.29,6-9.19,7.47-13.92S60.83,25,58.34,23.52Z"/><path class="cls-1" d="M55.94,26c-1.07-.82-5.89,10.27-5.16,12.38S57.66,27.28,55.94,26Z"/><path class="cls-8" d="M63.38,62.27A105.2,105.2,0,0,1,59.71,43.7c-.59-6.11,0-12.24-.54-18.34C59,24,57.3,23.35,56.88,25c-1.54,6.18-.62,12.94.34,19.15a84.87,84.87,0,0,0,5.05,18.71c.35.88,1.28,0,1.11-.61Z"/><path class="cls-4" d="M48.83,51.24c-4.69.22-2.18-10.91,1.09-17.8s5.76-11,8.18-10c2.92,1.15-.33,9.18-1.8,13.92S54.77,51,48.83,51.24Z"/><path class="cls-2" d="M58.34,23.52c0,3-1.92,8.11-3,11.5-1.47,4.74-1.53,13.63-7.46,13.92a2,2,0,0,1-1.58-.54c.23,1.79,1,2.91,2.51,2.84,5.94-.29,6-9.19,7.47-13.92S60.83,25,58.34,23.52Z"/><path class="cls-1" d="M56.21,25.17c-1-1.39-7.74,15.28-7.34,18.63S57.74,27.4,56.21,25.17Z"/><path class="cls-2" d="M5.32,5.86A11.8,11.8,0,0,1,11,10.45a10.51,10.51,0,0,1,1.49,3.82,26.24,26.24,0,0,1,.12,4.06c0,.38.42.7.61.23,1.05-2.56.06-6-1.3-8.31A11,11,0,0,0,5.4,5.3c-.27-.08-.31.48-.08.56Z"/><path class="cls-2" d="M16,2.05a16.78,16.78,0,0,1-.17,15.8c-.37.64.33,2.12.84,1.22,3-5.32,3.13-12.24-.4-17.35-.17-.25-.35.16-.27.33Z"/><path class="cls-4" d="M18,18.61c-5.33-3.43-13.8-.15-17.14,9.85S11.54,39.33,18,32.56C23.74,26.49,22.22,21.34,18,18.61Z"/><path class="cls-1" d="M6.55,19.87c-.09.22-.17.45-.25.68C4.47,26,12.15,26.5,15.67,22.79a6.13,6.13,0,0,0,2.06-4.33C14.5,16.54,10.18,17,6.55,19.87Z"/><path class="cls-2" d="M20.41,20.86a13.24,13.24,0,0,1-3.57,6C12.29,31.66,3.93,32.63.61,29.25c-2.35,9.26,11.1,9.9,17.37,3.31C22.41,27.89,22.53,23.76,20.41,20.86Z"/><path class="cls-9" d="M3.12,22.55a2.73,2.73,0,1,1,2.73,2.73A2.73,2.73,0,0,1,3.12,22.55Z"/><path class="cls-9" d="M3.12,22.55a2.73,2.73,0,1,1,2.73,2.73A2.73,2.73,0,0,1,3.12,22.55Z"/><path class="cls-10" d="M5.85,25.85a3.3,3.3,0,1,1,3.29-3.3A3.3,3.3,0,0,1,5.85,25.85Zm0-5.46A2.16,2.16,0,1,0,8,22.55,2.16,2.16,0,0,0,5.85,20.39Z"/><path class="cls-11" d="M4.63,22.55a1.22,1.22,0,1,1,1.22,1.21A1.22,1.22,0,0,1,4.63,22.55Z"/><path class="cls-9" d="M5.85,23.31a.76.76,0,1,1,.75.76A.76.76,0,0,1,5.85,23.31Z"/><path class="cls-9" d="M12.52,24.67a2.73,2.73,0,1,1,2.73,2.73A2.73,2.73,0,0,1,12.52,24.67Z"/><path class="cls-10" d="M15.25,28a3.3,3.3,0,1,1,3.3-3.3A3.3,3.3,0,0,1,15.25,28Zm0-5.46a2.16,2.16,0,1,0,2.16,2.16A2.16,2.16,0,0,0,15.25,22.51Z"/><path class="cls-11" d="M14,24.67a1.22,1.22,0,1,1,1.22,1.22A1.22,1.22,0,0,1,14,24.67Z"/><path class="cls-9" d="M15.25,25.43a.76.76,0,1,1,.76.76A.76.76,0,0,1,15.25,25.43Z"/><path class="cls-11" d="M5.82,34.08a4,4,0,0,0,6.12-2c.16-.45-.56-.65-.72-.2a3.25,3.25,0,0,1-5,1.59c-.4-.27-.78.38-.38.65Z"/><path class="cls-2" d="M6.2,5.75c-.13.44-.88.6-1.68.37S3.19,5.33,3.33,4.88s.88-.6,1.67-.36S6.34,5.31,6.2,5.75Z"/><path class="cls-2" d="M16.94,2.54c-.34.31-1.07.06-1.62-.56S14.59.61,14.94.3s1.07,0,1.62.56S17.29,2.23,16.94,2.54Z"/></g></svg>