<svg id="Layer_1" data-name="Layer 1" xmlns="http://www.w3.org/2000/svg" viewBox="0 0 311.49 141.74"><defs><style>.cls-1{fill:#1f140f;opacity:0.3;}.cls-15,.cls-2{fill:#f7ccaa;}.cls-2,.cls-3,.cls-4{stroke:#652d0f;}.cls-10,.cls-11,.cls-12,.cls-13,.cls-14,.cls-15,.cls-16,.cls-17,.cls-18,.cls-19,.cls-2,.cls-20,.cls-21,.cls-22,.cls-23,.cls-25,.cls-26,.cls-27,.cls-28,.cls-3,.cls-4,.cls-5,.cls-6,.cls-7{stroke-miterlimit:10;}.cls-16,.cls-3{fill:#f0a16a;}.cls-28,.cls-4{fill:#f5bd8d;}.cls-5{fill:#963b2f;}.cls-10,.cls-11,.cls-12,.cls-13,.cls-14,.cls-5,.cls-6,.cls-7{stroke:#331512;}.cls-6{fill:#843126;}.cls-7{fill:#76221d;}.cls-13,.cls-8{fill:#bd5f4a;}.cls-14,.cls-9{fill:#db8b79;}.cls-10,.cls-17{fill:#a03f33;}.cls-11{fill:#b6463d;}.cls-12{fill:#ad2d25;}.cls-15,.cls-16,.cls-17,.cls-18,.cls-19,.cls-20,.cls-21,.cls-22,.cls-23,.cls-25,.cls-26,.cls-27,.cls-28{stroke:#1f140f;}.cls-15,.cls-16,.cls-17,.cls-18,.cls-19,.cls-20,.cls-22,.cls-23,.cls-25,.cls-26,.cls-27,.cls-28{stroke-width:0.25px;}.cls-18{fill:#94352a;}.cls-19{fill:#87352a;}.cls-20,.cls-24{fill:#ee9466;}.cls-21{fill:#cf524f;stroke-width:0.5px;}.cls-22{fill:#da6a62;}.cls-23{fill:#cd413b;}.cls-25{fill:#cd443f;}.cls-26{fill:#b43432;}.cls-27{fill:#c65b43;}</style></defs><ellipse class="cls-1" cx="155.6" cy="126.07" rx="154.82" ry="14.53"/><path class="cls-2" d="M275,50.26a5.8,5.8,0,0,0-2.83-6.63,18,18,0,0,0,7.11-4.47c4.07-4.39,5.53-10.67,11.15-11.73,5.37-1,3,8.49,2.76,11.6s3,5.33,5.18,9c3.18,5.35-1.67,10.3-8.44,5C284,48.34,282.44,48.54,275,50.26Z"/><path class="cls-3" d="M272.19,43.63a20.58,20.58,0,0,0,4.22-2.06c2.46,1.27,4.37,3.35,3.71,6.52-.09.42-.21.81-.33,1.2-1.32.18-2.85.53-4.76,1A5.79,5.79,0,0,0,272.19,43.63Z"/><path class="cls-4" d="M287.46,30.55s-2.22,1.07-3.79,5.66a12.77,12.77,0,0,1-3.76,5.38c-1.07.82,2.3,2.94,1.45,5.27s7.77,2.42,10.34,5S293.93,49.26,290,46s-2.8-6.09-1.38-9.56S290.27,28,287.46,30.55Z"/><path class="cls-5" d="M238,43.89c-2.25-.61-43.6-12.83-45,22.7s25.6,36.69,49.74,11.67,25.7-24.27,30.87-26.1,3.82-8.59-2.13-9.33S252.78,47.92,238,43.89Z"/><path class="cls-6" d="M194,79.41a51.66,51.66,0,0,0,8.78,2.92,25.7,25.7,0,0,0,16-.67,33.77,33.77,0,0,0,11.28-7.3c6.48-6.31,11.17-14.44,18.26-20.12,7.37-5.89,16.78-9.3,26.23-7.61a3.13,3.13,0,0,0,2-.23,4.3,4.3,0,0,1-2.9,5.76c-5.17,1.83-6.72,1.09-30.87,26.1C222,99.81,199.07,101.94,194,79.41Z"/><path class="cls-7" d="M197.68,88.28a24.53,24.53,0,0,0,13.84,2.37c8.74-1.05,16.46-6.24,22.78-12.09,3.29-3,6.39-6.26,9.4-9.57,1.35-1.49,2.68-3,4.08-4.45l.73-.74.7-.68c.76-.72,1.53-1.44,2.32-2.13a40.5,40.5,0,0,1,10.32-7,27.66,27.66,0,0,1,3-1.14c.06,0,.92-.21,1-.23.51-.09,1-.18,1.52-.24l1.12-.1,1,0c.51,0,1,.09,1.54.18.15,0,1.83.4.59.07l.59.13c-4.27,1.45-7.63,3-29.46,25.62C225.27,96.4,206.28,100.77,197.68,88.28Z"/><path class="cls-6" d="M246,50.65c-1.54,6.1-9.5,8.06-16.37,19.07s-22.46,10.22-29.07,6.92-1.63-7.15,5.51-6.58,14.55-5.66,22.55-12.25S247.06,46.28,246,50.65Z"/><path class="cls-8" d="M225.34,47.05s-17.36-3.64-24,6.17.35,16.37,8.3,13.89,15.13-11.76,19.89-14.38S229.71,47.61,225.34,47.05Z"/><path class="cls-9" d="M208.71,46.64c-3.6,1.24-7.28,3-9.24,11s4,1.74,6-1.28,6.72-6.86,9.88-7.55S213.67,44.92,208.71,46.64Z"/><path class="cls-9" d="M219.33,45.39c-.76.17-3.42,1.31-.67,2.69s6.43.52,8.5,1.1c2.57.73,3.91-.83-.91-3A11.8,11.8,0,0,0,219.33,45.39Z"/><path class="cls-5" d="M147.62,58s14.66,2.32,13.48,15.57-9.68,19.19-23.23,14.07-23.7-16.11-29.64-39.23S144,16.92,150.48,4.28s1.68,18.32-19.22,32.35C117,46.2,138.49,53.23,147.62,58Z"/><path class="cls-6" d="M134.9,69.1c-6.57-6.47-12.9-15-13.9-24.48-.57-5.39.83-10.82,4.76-14.68,3.56-3.49,8.18-4.91,12.16-7.63,3.61-2.47,6.23-5.5,9.18-8.83,1.4-1.58,3.05-3.13,3.86-5.1s1.39-3.89,2.23-5.77c.06-2-.88-1.88-2.71,1.67-6.53,12.64-48.19,21-42.25,44.09s16.1,34.1,29.64,39.23c10.06,3.8,17.33,1.5,20.89-5.35A49.78,49.78,0,0,1,134.9,69.1Z"/><path class="cls-7" d="M156.21,85.71c-10-2-20.14-5.69-28.17-12.14a36.44,36.44,0,0,1-13.83-31.2c.5-6.23,3.33-12.21,8.8-15.56a48.12,48.12,0,0,1,7.22-3.51c1-.38,1.91-.75,2.86-1.15a16.49,16.49,0,0,1,1.84-.85c7.52-4.47,14.46-11.42,17.48-19.47a4.31,4.31,0,0,1,.22-.49c-.45.14-1.17,1.05-2.15,2.94-6.53,12.64-48.19,21-42.25,44.09s16.1,34.1,29.64,39.23c8.1,3.06,14.4,2.16,18.4-1.88Z"/><path class="cls-8" d="M131.45,53.86a64,64,0,0,0,16,6.76c8.5,2.15,10.5,9.58,7.62,14s-19-5.46-23.53-13.94S128,51.94,131.45,53.86Z"/><path class="cls-9" d="M156.72,70.73s.37-8.86-8.57-9.77-2.4,3.53-.08,4.55S154.7,75.15,156.72,70.73Z"/><path class="cls-10" d="M113.73,65.52c10.7-19.44,32.78-43.75,72.68-42.09,45.86,1.9,59.76,54.55,86.4,77,6.54,5.51,11.5,20.56-9.71,21.61-19,.95-23.9,3.54-38.74,8.38-24.56,8-87.21,5.75-108.87-23C110.79,101.18,102.39,86.12,113.73,65.52Z"/><path class="cls-11" d="M272.94,104.25c-2.93-2.76-6.8-4.26-10.92-5.32-4.56-1.17-9.18-1.94-13.8-2.77-7.82-1.41-15.63-2.9-23.61-2.69a132.55,132.55,0,0,0-22.08,2.79c-14.41,2.81-29.57,6.57-44.31,3.93s-27.6-12.94-31.29-27.89a65.33,65.33,0,0,1-1.49-23.46,92.21,92.21,0,0,0-11.71,16.68c-11.34,20.6-2.94,35.66,1.76,41.9,21.66,28.72,84.31,31,108.87,23,14.84-4.84,19.71-7.43,38.74-8.38,15.87-.79,17.09-9.41,14-16A6.57,6.57,0,0,1,272.94,104.25Z"/><path class="cls-12" d="M244.86,108.19a127.22,127.22,0,0,0-33.9,2c-16,3-32.14,7.41-48.58,5.48-15.19-1.78-30.11-10.23-37.57-24-6-11.07-7.21-23.06-5.62-35a96.16,96.16,0,0,0-5.46,8.76c-11.34,20.6-2.94,35.66,1.76,41.9,21.66,28.72,84.31,31,108.87,23,14.84-4.84,19.71-7.43,38.74-8.38,9.13-.45,13.41-3.5,14.8-7.26A170.78,170.78,0,0,0,244.86,108.19Z"/><path class="cls-13" d="M156.59,36.55c11.7-6,30.91-12,52.51,1.36s33.78,39.86,33.78,39.86-8.79,13-37.52,3.2S131.88,49.18,156.59,36.55Z"/><path class="cls-14" d="M209,35c8.3,3.2,16.41,7.28,25.55,24.79s-5.21,8.72-9.51,2-19-21.19-25.37-22.7S198.54,31,209,35Z"/><path class="cls-12" d="M143,47.28s15.79,31.8,57.21,36.59S180,98.61,166,95.14,138,78,133.9,59.59,142.77,41,143,47.28Z"/><path class="cls-2" d="M281.23,81.84a5.77,5.77,0,0,0-2.43-6.78,18,18,0,0,0,7.38-4c4.32-4.14,6.16-10.32,11.82-11,5.43-.7,2.45,8.65,2.07,11.74s2.65,5.5,4.63,9.32c2.85,5.53-2.29,10.17-8.73,4.44C290.35,80.47,288.74,80.57,281.23,81.84Z"/><path class="cls-3" d="M278.8,75.05a20.34,20.34,0,0,0,4.33-1.79c2.39,1.4,4.17,3.6,3.31,6.73a11.51,11.51,0,0,1-.4,1.17c-1.32.1-2.87.36-4.81.68A5.79,5.79,0,0,0,278.8,75.05Z"/><path class="cls-4" d="M294.83,62.91s-2.29.94-4.13,5.43a12.88,12.88,0,0,1-4.07,5.15c-1.12.74,2.12,3.07,1.13,5.34s7.61,2.88,10,5.56,2.37-2.41-1.37-6-2.43-6.24-.81-9.61S297.78,60.56,294.83,62.91Z"/><path class="cls-5" d="M244.68,73.28c-2.22-.75-42.76-15.42-46.28,20s23.36,38.15,49,14.62,27.11-22.69,32.38-24.21,4.32-8.35-1.58-9.44S259.17,78.18,244.68,73.28Z"/><path class="cls-6" d="M198.61,106.09a51,51,0,0,0,8.59,3.45,25.65,25.65,0,0,0,16,.28,33.49,33.49,0,0,0,11.69-6.61c6.85-5.91,12-13.74,19.44-19,7.7-5.45,17.3-8.29,26.64-6a3.05,3.05,0,0,0,2-.11,4.3,4.3,0,0,1-3.23,5.58c-5.27,1.52-6.78.68-32.38,24.21C225.31,128.14,202.32,128.89,198.61,106.09Z"/><path class="cls-7" d="M201.75,115.17a24.59,24.59,0,0,0,13.68,3.2c8.78-.54,16.8-5.25,23.46-10.71,3.46-2.83,6.75-5.87,10-9,1.43-1.4,2.84-2.83,4.33-4.19l.78-.7.74-.63c.8-.68,1.6-1.35,2.43-2a41,41,0,0,1,10.73-6.41,29.87,29.87,0,0,1,3.09-1c.06,0,.94-.15,1-.16.51-.06,1-.13,1.53-.15s.75,0,1.12,0l1,.07c.52.08,1,.15,1.54.27.14,0,1.8.51.58.1.19.07.39.13.58.18-4.34,1.18-7.8,2.54-30.94,23.81C228.81,124.92,209.59,128.16,201.75,115.17Z"/><path class="cls-13" d="M231.83,75.67S214.72,71,207.46,80.39s-.63,16.36,7.45,14.36,15.82-10.83,20.72-13.16S236.15,76.49,231.83,75.67Z"/><path class="cls-5" d="M136.31,88.1s14.66,2.32,13.48,15.58-9.68,19.19-23.22,14.06-23.71-16.1-29.65-39.23,35.72-31.44,42.25-44.08S140.86,52.74,120,66.77C105.68,76.35,127.18,83.37,136.31,88.1Z"/><path class="cls-6" d="M123.6,99.24c-6.58-6.46-12.91-15-13.91-24.48-.57-5.38.83-10.81,4.77-14.67,3.56-3.5,8.17-4.91,12.15-7.64,3.61-2.47,6.23-5.49,9.18-8.82,1.4-1.58,3.05-3.13,3.86-5.1s1.4-3.89,2.23-5.78c.06-2-.87-1.87-2.71,1.68-6.53,12.64-48.19,21-42.25,44.08s16.1,34.11,29.65,39.23c10.05,3.81,17.32,1.51,20.89-5.35A49.69,49.69,0,0,1,123.6,99.24Z"/><path class="cls-12" d="M144.9,115.85c-10-2-20.14-5.68-28.17-12.13a36.43,36.43,0,0,1-13.82-31.21c.49-6.23,3.33-12.21,8.8-15.55a47.12,47.12,0,0,1,7.21-3.52c1-.38,1.92-.75,2.87-1.15a16.73,16.73,0,0,1,1.84-.84C131.14,47,138.09,40,141.1,32c.06-.17.15-.33.22-.49-.45.14-1.17,1.05-2.15,2.94-6.53,12.64-48.19,21-42.25,44.08s16.1,34.11,29.65,39.23c8.1,3.07,14.39,2.17,18.4-1.88Z"/><path class="cls-13" d="M120.14,84a64,64,0,0,0,16,6.77c8.5,2.15,10.5,9.57,7.62,14s-19-5.45-23.53-13.93S116.69,82.09,120.14,84Z"/><path class="cls-15" d="M39.67,113c-1.24-5.37-10.86-11.09-4.59-13.71,4.52-1.9,6.6,1.42,9.85,4,1.33,1.06,5,1.36,11-.35l1.26,12.15c-2.07.64-5.69,2.16-6.68,5.23-1.41,4.36-8.55,10.4-10.56,4.16S40.82,118,39.67,113Z"/><path class="cls-16" d="M50,108.8a18.42,18.42,0,0,1-.79-4.69,29.1,29.1,0,0,0,6.67-1.2l1.26,12.15a15.93,15.93,0,0,0-3.34,1.45C51.41,114.89,50.71,111.46,50,108.8Z"/><path class="cls-17" d="M130.85,67s-26,1.06-47.21,14S71.85,99.6,54.85,101.36c-3.44.36-2.74,7.81.52,13.48,3,5.18,8.64-.48,30.24,11.5,17.92,9.94,40.23,10.36,58.2,7.31Z"/><path class="cls-18" d="M72.71,110.22c10,2.32,19.08,7.54,28.93,10.36a44.75,44.75,0,0,0,25.1.43c5-1.4,9.84-3.71,13.21-7.49l3.9,20c-18,3.05-40.28,2.63-58.2-7.31-21.6-12-27.25-6.33-30.23-11.5a22.07,22.07,0,0,1-2.21-5.37A58.29,58.29,0,0,1,72.71,110.22Z"/><path class="cls-19" d="M61.67,113.26a56.65,56.65,0,0,1,15.53,3.4c5.12,2,10.12,4.24,15.26,6.18a86,86,0,0,0,14.69,4.53,40.16,40.16,0,0,0,14.17-.16,53.06,53.06,0,0,0,12.59-4.06c2.46-1.09,5.39-2.32,7-4.62l2.94,15.12c-18,3-40.28,2.63-58.2-7.31-21.6-12-27.25-6.32-30.24-11.5-.32-.57-.62-1.15-.89-1.74A61.59,61.59,0,0,1,61.67,113.26Z"/><path class="cls-15" d="M108.88,104.28c2.28,21.9,18.39,31.09,34.93,29.37s33-15.82,15.81-34.63C147.06,85.29,154.68,71.47,137,67.53,120.78,64,106.18,78.26,108.88,104.28Z"/><path class="cls-20" d="M111.11,104.2c2.18,20.93,17.07,29.78,32.3,28.2s30.8-15.23,14.88-33.27C146.67,86,153.21,73,136.85,69.17,121.94,65.68,108.53,79.31,111.11,104.2Z"/><path class="cls-21" d="M112.5,103.81c2,19.76,16.13,28.1,30.54,26.61s28.72-14.17,13.67-31.2c-11-12.42-4.39-24.87-19.86-28.47C122.75,67.46,110.06,80.32,112.5,103.81Z"/><path class="cls-22" d="M117.05,109.72c1.37.13,2.83-.44,4.17-.15,1.74.37,2.31,2.09,3.23,3.4,1.54,2.2,4.08,1.09,6.33,1,3.33-.09,4.41,3.66,7.61,3.73a9.58,9.58,0,0,0,4.83-1.18c1.82-1,3.42-2.6,5.48-3.16,1.44-.39,3.29-.2,4.58-1.06a7.41,7.41,0,0,0,2.38-3.09c1.05-2.06,2.15-4.77,4.29-5.72,9.35,14.83-3.74,25.54-16.91,26.91s-26.1-5.52-29.76-21.86A9.5,9.5,0,0,0,117.05,109.72Z"/><path class="cls-23" d="M136.85,70.75c15.47,3.6,8.87,16,19.86,28.47,15,17,.74,29.7-13.67,31.2s-28.49-6.85-30.54-26.61C110.06,80.32,122.75,67.46,136.85,70.75Zm-8.6,52.36c4.14,1.71,8.67,3.32,13.21,3.19s9.37-1.43,12.84-4.31c3.32-2.74,5.58-6.56,4.8-11s-2.63-10-5.73-13a28.46,28.46,0,0,1-3.3-4.16,67.56,67.56,0,0,1-4.23-8c-2-4.06-4.17-8.43-8.11-11a10.89,10.89,0,0,0-11.37,0c-3.47,2.13-5.88,5.61-7.68,9.18-3.47,6.89-5.35,14.49-3.6,22.16C116.73,113.44,121.17,120.19,128.25,123.11Z"/><path class="cls-22" d="M130.21,92.09c.32-.15.2-7.6-2.93-11.39S116.65,87,117,96s.06,11.69,5.58,8.06S122.53,95.62,130.21,92.09Z"/><path class="cls-22" d="M137.19,90.52a18.52,18.52,0,0,0-1.73-7.18c-1.67-3.17-4-9.26.9-6.23s11.24,13.24,7.81,14.21S140.19,94.3,137.19,90.52Z"/><path class="cls-15" d="M134.76,123.85a27.41,27.41,0,0,1,.5-16.68l3.35,1.14a19,19,0,0,0-.94,10.09c.83,5,1,9.79-1.36,12a9.2,9.2,0,0,1-3.23-.58A6,6,0,0,0,134.76,123.85Z"/><path class="cls-15" d="M149.84,105.65c4,3.16,5.39,6.51,7.42,8.42a8.69,8.69,0,0,0,5.44,2.51,7.63,7.63,0,0,1-1,2.69,13.56,13.56,0,0,1-6.29-4.86c-5.33-7.91-10.37-8.38-13.95-7.89,0,0,.47-1.69-.68-2S145.88,102.49,149.84,105.65Z"/><path class="cls-15" d="M137.1,99.16c-1.81,3.47-.92-2.3-1-3.69s3.47.2,6.69-1.07c2.76-1.08,5.81-5.15,6.85-8.75a22.43,22.43,0,0,1,1.1,3.36c-.69,2.12-2.08,5.18-4.6,6.26C142.15,97,138.91,95.69,137.1,99.16Z"/><path class="cls-15" d="M132.63,93.81s2.56-4.7-1.12-10.77c-3-5-5.11-9-5.25-11.64a8.28,8.28,0,0,1,2.42-.73,34.87,34.87,0,0,0,2.91,7.71c2.65,5.18,5.54,12.08,2.21,17.15S132.63,93.81,132.63,93.81Z"/><path class="cls-15" d="M120.32,106.12c9.32-2,10.31-7.64,10.31-7.64l.7,3.14c-1.49,4.74-4.32,5-10.74,7.07a8.37,8.37,0,0,0-5.5,5.65,12,12,0,0,1-1.14-3.1A10.2,10.2,0,0,1,120.32,106.12Z"/><path class="cls-24" d="M136.25,118.54a19.16,19.16,0,0,1,.94-10.09l-2.12-.72c.06-.19.12-.37.19-.56l3.35,1.14a19,19,0,0,0-.94,10.09c.83,5,1,9.79-1.36,12a9.39,9.39,0,0,1-1.19-.08C137.24,128,137.06,123.34,136.25,118.54Z"/><path class="cls-24" d="M162.41,117.42A8.66,8.66,0,0,1,157,114.9c-2-1.91-3.47-5.25-7.42-8.41-2.73-2.18-6.55-2.07-8.29-1.69a1,1,0,0,0-.49-.32c-1.15-.34,5.1-2,9.06,1.17s5.39,6.51,7.42,8.42a8.69,8.69,0,0,0,5.44,2.51,6.47,6.47,0,0,1-.43,1.52A5.12,5.12,0,0,0,162.41,117.42Z"/><path class="cls-24" d="M138.66,94.91a10,10,0,0,0,4.15-.51c2.76-1.08,5.81-5.15,6.85-8.75.17.4.32.82.47,1.25-1,3.58-4.09,7.6-6.82,8.68a10.29,10.29,0,0,1-4.35.49C138.88,95.69,138.77,95.3,138.66,94.91Z"/><path class="cls-24" d="M131.51,83c-3-5-5.11-9-5.25-11.64a7.35,7.35,0,0,1,.77-.32c.18,2.67,2.23,6.55,5.24,11.53,3.67,6.07,1.12,10.77,1.12,10.77s-1,3.07-.6,3.53c-1.8,2.08-.16-3.1-.16-3.1S135.19,89.11,131.51,83Z"/><path class="cls-24" d="M114.58,113.23a8.37,8.37,0,0,1,5.5-5.65c6.42-2,9.25-2.33,10.74-7.07L130.48,99a2.86,2.86,0,0,0,.15-.52l.7,3.14c-1.49,4.74-4.32,5-10.74,7.07a8.37,8.37,0,0,0-5.5,5.65,7.93,7.93,0,0,1-.56-1.2Z"/><path class="cls-25" d="M143.52,103.48s-3.05-2.48-4.38-8-9.73-4.79-9.56,1,1.6,11.92,7.92,12.7C144.21,110,146.52,107.64,143.52,103.48Z"/><path class="cls-26" d="M142.31,105.59s-3.05-2.48-4.38-8a5,5,0,0,0-8.21-2.48c1.08-4.5,8.21-4.71,9.42.37,1.33,5.55,4.38,8,4.38,8,1.72,2.39,1.69,4.18.08,5.11A5.9,5.9,0,0,0,142.31,105.59Z"/><path class="cls-18" d="M59.4,103.37s9.51-2.81,18.29-12.68,15-12.61,17.17-8.62,3.54,21.6-9.44,22.08-21.54,1.26-23.55,1.47C56.52,106.17,54.19,104.66,59.4,103.37Z"/><path class="cls-27" d="M107.86,113.11s-7.73-20.93,3.53-36.61c1.43-2-2.63-3.82-9.63,1.74S101,90.49,98.18,100.4,110.86,125.21,107.86,113.11Z"/><path class="cls-28" d="M48.17,106.21c-.08-1.1-2.34-.22-3.8-2.1s-2.42-1.26-1.37.14,4.83,9.26,4,14,1,4.86,1.86,2.35A11.43,11.43,0,0,1,51,116.47,29.44,29.44,0,0,1,48.17,106.21Z"/></svg>