<svg id="Layer_1" data-name="Layer 1" xmlns="http://www.w3.org/2000/svg" viewBox="0 0 206.3 56.17"><defs><style>.cls-1{fill:#1b3ac2;}</style></defs><path class="cls-1" d="M70.56,38.42a15.07,15.07,0,0,1-3.5.4A11.56,11.56,0,0,1,62.75,38a10.62,10.62,0,0,1-3.41-2.12,9.41,9.41,0,0,1-2.23-3.28,11.17,11.17,0,0,1-.78-4.25A13.77,13.77,0,0,1,57,23.9a9.18,9.18,0,0,1,2.16-3.53,9.82,9.82,0,0,1,3.57-2.3,14,14,0,0,1,5-.81,11.54,11.54,0,0,1,3.75.51,13.51,13.51,0,0,1,2.42,1.1l-1.13,5.64-1.25-.61a9.22,9.22,0,0,0-1-.45,5.08,5.08,0,0,0-1-.24,10.6,10.6,0,0,0-1.35-.07,5.05,5.05,0,0,0-3.77,1.33,4.89,4.89,0,0,0-1.33,3.62,4.82,4.82,0,0,0,1.37,3.63,5.51,5.51,0,0,0,4,1.31,10.72,10.72,0,0,0,2.55-.3,13.9,13.9,0,0,0,2.6-.93L74,37.13A16.8,16.8,0,0,1,70.56,38.42Z"/><path class="cls-1" d="M94.35,38.82c0-.23,0-.51,0-.84s-.06-.57-.08-.93,0-.73-.07-1.13A7.68,7.68,0,0,1,91,38.45a10.34,10.34,0,0,1-4.17.86,7.75,7.75,0,0,1-6.26-2.65Q78.29,34,78.28,29.11q0-5.92,3.6-9.13t10.26-3.21c.73,0,1.39,0,2,.05s1.19.09,1.79.17,1.21.18,1.83.31,1.33.32,2.09.54V31.76c0,.75,0,1.54,0,2.38s.08,1.59.15,2.28.13,1.61.19,2.4Zm-1-16a9.69,9.69,0,0,0-1.54-.24c-.47,0-.9-.05-1.3-.05a5.24,5.24,0,0,0-4.19,1.74,7.2,7.2,0,0,0-1.49,4.82,4.78,4.78,0,0,0,.9,3.14,3.1,3.1,0,0,0,2.54,1.08,4.58,4.58,0,0,0,2-.44,5.12,5.12,0,0,0,1.62-1.25,6.29,6.29,0,0,0,1.1-1.91,7.42,7.42,0,0,0,.39-2.48Z"/><path class="cls-1" d="M119.15,35.62c-.27.57-.51,1.07-.74,1.48a3.7,3.7,0,0,1-.78,1,2.63,2.63,0,0,1-1,.55,5,5,0,0,1-1.39.17A3.83,3.83,0,0,1,113,38.2a5.35,5.35,0,0,1-1.55-2.34l-7.69-18.6h6.76l3.63,9.92c.26.7.5,1.37.71,2s.37,1.18.47,1.62c.16-.44.37-1,.63-1.64s.53-1.3.79-1.93l3.87-10h6.71Z"/><path class="cls-1" d="M150,23.19a5.52,5.52,0,0,1-.87,3,7.27,7.27,0,0,1-2.46,2.33,13.48,13.48,0,0,1-3.82,1.5,21.76,21.76,0,0,1-5,.53c-.17,0-.37,0-.59,0s-.49,0-.8,0a4.54,4.54,0,0,0,1.47,2.91,4.68,4.68,0,0,0,3.17,1,14.49,14.49,0,0,0,7.22-2.2v5.14A14.1,14.1,0,0,1,144.75,39a14.89,14.89,0,0,1-3.85.46,12.67,12.67,0,0,1-4.43-.73,9.11,9.11,0,0,1-3.36-2.13A9.51,9.51,0,0,1,131,33.25a12.27,12.27,0,0,1-.73-4.38,13.68,13.68,0,0,1,.86-4.93,11.46,11.46,0,0,1,2.4-3.84,10.58,10.58,0,0,1,3.7-2.5,12.36,12.36,0,0,1,4.75-.88,9,9,0,0,1,5.81,1.76A5.77,5.77,0,0,1,150,23.19Zm-6.52.48a1.68,1.68,0,0,0-.67-1.34,2.52,2.52,0,0,0-1.69-.57,3.88,3.88,0,0,0-2.8,1.16,5.41,5.41,0,0,0-1.5,3.16,4.43,4.43,0,0,0,.78.09h.72Q143.45,26.17,143.45,23.67Z"/></svg>