<svg id="Layer_1" data-name="Layer 1" xmlns="http://www.w3.org/2000/svg" viewBox="0 0 206.3 56.17"><defs><style>.cls-1{fill:#1b3ac2;}</style></defs><path class="cls-1" d="M67.55,31.17a15.07,15.07,0,0,1-3.5.39,11.52,11.52,0,0,1-4.31-.77,10.51,10.51,0,0,1-3.41-2.12,9.28,9.28,0,0,1-2.23-3.28,11.22,11.22,0,0,1-.78-4.26A13.45,13.45,0,0,1,54,16.65a9.32,9.32,0,0,1,2.15-3.54,10.06,10.06,0,0,1,3.58-2.29,14,14,0,0,1,5-.82,11.17,11.17,0,0,1,3.75.52,13.64,13.64,0,0,1,2.43,1.1l-1.13,5.64c-.49-.23-.91-.44-1.25-.62a9.06,9.06,0,0,0-1-.44,5,5,0,0,0-1-.24,10.2,10.2,0,0,0-1.35-.08,5.07,5.07,0,0,0-3.77,1.34,4.92,4.92,0,0,0-1.32,3.61,4.82,4.82,0,0,0,1.37,3.64,5.54,5.54,0,0,0,4,1.31,10.72,10.72,0,0,0,2.55-.3,14.57,14.57,0,0,0,2.59-.93L71,29.88A17.4,17.4,0,0,1,67.55,31.17Z"/><path class="cls-1" d="M97.66,20.71a12.49,12.49,0,0,1-.8,4.64,9.23,9.23,0,0,1-2.3,3.4A10,10,0,0,1,91,30.85a15.32,15.32,0,0,1-9.22,0,10,10,0,0,1-3.56-2.1,9.52,9.52,0,0,1-2.32-3.4,12.09,12.09,0,0,1-.83-4.64,11.87,11.87,0,0,1,.81-4.52,9.33,9.33,0,0,1,2.27-3.37,9.64,9.64,0,0,1,3.56-2.1A14.36,14.36,0,0,1,86.39,10a14.53,14.53,0,0,1,4.61.7,9.73,9.73,0,0,1,3.56,2.05,9,9,0,0,1,2.3,3.37A12.4,12.4,0,0,1,97.66,20.71Zm-6.52,0a4.51,4.51,0,0,0-4.85-4.93,4.53,4.53,0,0,0-3.49,1.3,5.09,5.09,0,0,0-1.21,3.63,5.35,5.35,0,0,0,1.19,3.74,4.48,4.48,0,0,0,3.51,1.32,4.76,4.76,0,0,0,3.59-1.3A5.18,5.18,0,0,0,91.14,20.72Z"/><path class="cls-1" d="M125.35,20.71a12.29,12.29,0,0,1-.81,4.64,9.33,9.33,0,0,1-2.29,3.4,10.06,10.06,0,0,1-3.56,2.1,15.32,15.32,0,0,1-9.22,0,10,10,0,0,1-3.57-2.1,9.5,9.5,0,0,1-2.31-3.4,11.9,11.9,0,0,1-.83-4.64,11.87,11.87,0,0,1,.8-4.52,9.46,9.46,0,0,1,2.27-3.37,9.72,9.72,0,0,1,3.56-2.1,14.38,14.38,0,0,1,4.69-.72,14.57,14.57,0,0,1,4.61.7,9.81,9.81,0,0,1,3.56,2.05,9.13,9.13,0,0,1,2.29,3.37A12.2,12.2,0,0,1,125.35,20.71Zm-6.52,0a4.84,4.84,0,0,0-1.32-3.63,4.77,4.77,0,0,0-3.53-1.3,4.53,4.53,0,0,0-3.49,1.3,5.09,5.09,0,0,0-1.22,3.63,5.4,5.4,0,0,0,1.19,3.74A4.48,4.48,0,0,0,114,25.78a4.75,4.75,0,0,0,3.58-1.3A5.14,5.14,0,0,0,118.83,20.72Z"/><path class="cls-1" d="M153,19.51a16.77,16.77,0,0,1-.68,4.9,11.9,11.9,0,0,1-1.94,3.81,8.66,8.66,0,0,1-3,2.47,8.33,8.33,0,0,1-3.8.87,8.19,8.19,0,0,1-2.58-.34A7.41,7.41,0,0,1,138.82,30V46.17H132V16.47a12.36,12.36,0,0,0-.07-1.26c0-.48-.12-1-.2-1.51s-.18-1.06-.29-1.59a12.89,12.89,0,0,0-.42-1.47h6.64a5.32,5.32,0,0,1,.36,1,11.42,11.42,0,0,1,.2,1.34,10.69,10.69,0,0,1,3-2.25,7.76,7.76,0,0,1,3.38-.69,8.44,8.44,0,0,1,3.45.69,7.57,7.57,0,0,1,2.67,1.93,8.8,8.8,0,0,1,1.73,3A11.74,11.74,0,0,1,153,19.51Zm-6.52,1.09a4.66,4.66,0,0,0-1-3.15,3.37,3.37,0,0,0-2.69-1.12,3.85,3.85,0,0,0-3.16,1.44,6,6,0,0,0-1.16,3.87v2.84a5.17,5.17,0,0,0,3.47,1.3,4.2,4.2,0,0,0,3.3-1.37A5.55,5.55,0,0,0,146.46,20.6Z"/></svg>