<svg id="Layer_1" data-name="Layer 1" xmlns="http://www.w3.org/2000/svg" viewBox="0 0 206.3 56.17"><defs><style>.cls-1{fill:#1b3ac2;}</style></defs><path class="cls-1" d="M25,44.4a15.07,15.07,0,0,1-3.5.39A11.52,11.52,0,0,1,17.21,44,10.51,10.51,0,0,1,13.8,41.9a9.28,9.28,0,0,1-2.23-3.28,11.22,11.22,0,0,1-.78-4.26,13.45,13.45,0,0,1,.71-4.48,9.32,9.32,0,0,1,2.15-3.54,10.06,10.06,0,0,1,3.58-2.29,14,14,0,0,1,5-.82,11.43,11.43,0,0,1,3.75.52,14,14,0,0,1,2.43,1.1l-1.13,5.64c-.49-.23-.91-.44-1.25-.62a9.06,9.06,0,0,0-1-.44,5,5,0,0,0-1-.24,10.2,10.2,0,0,0-1.35-.08,5.07,5.07,0,0,0-3.77,1.34,4.92,4.92,0,0,0-1.32,3.61,4.79,4.79,0,0,0,1.37,3.64,5.54,5.54,0,0,0,4,1.31,10.72,10.72,0,0,0,2.55-.3A14.57,14.57,0,0,0,28,37.78l.45,5.33A17.63,17.63,0,0,1,25,44.4Z"/><path class="cls-1" d="M55.13,33.94a12.38,12.38,0,0,1-.81,4.65A9.25,9.25,0,0,1,52,42a10,10,0,0,1-3.56,2.1,15.32,15.32,0,0,1-9.22,0A10,10,0,0,1,35.69,42a9.57,9.57,0,0,1-2.32-3.39,12.17,12.17,0,0,1-.83-4.65,11.87,11.87,0,0,1,.81-4.52,9.44,9.44,0,0,1,2.26-3.37A9.76,9.76,0,0,1,39.18,24a14.32,14.32,0,0,1,4.68-.72,14.53,14.53,0,0,1,4.61.7A9.73,9.73,0,0,1,52,26a9,9,0,0,1,2.29,3.37A12.2,12.2,0,0,1,55.13,33.94Zm-6.52,0a4.88,4.88,0,0,0-1.31-3.63A4.81,4.81,0,0,0,43.76,29a4.53,4.53,0,0,0-3.49,1.3A5.09,5.09,0,0,0,39.06,34a5.35,5.35,0,0,0,1.19,3.74A4.48,4.48,0,0,0,43.76,39a4.76,4.76,0,0,0,3.59-1.3A5.18,5.18,0,0,0,48.61,34Z"/><path class="cls-1" d="M88,42.4a3.73,3.73,0,0,1-1.3,1.84,3.89,3.89,0,0,1-2.23.55,3.63,3.63,0,0,1-2.25-.6,4.09,4.09,0,0,1-1.28-2L76.74,29.5l-4.36,13a3.12,3.12,0,0,1-1.25,1.79,4.25,4.25,0,0,1-2.33.55,6.85,6.85,0,0,1-1-.07,2.62,2.62,0,0,1-.93-.31,2.65,2.65,0,0,1-.83-.76,5.29,5.29,0,0,1-.69-1.39l-6.86-19h6.62l2.84,8.71c.1.31.2.69.32,1.12s.23.85.36,1.26.28,1,.45,1.54a8,8,0,0,1,.29-1.2c.1-.35.2-.73.32-1.12s.22-.78.32-1.13l2.74-9.18h7.94l2.94,9.61a7.26,7.26,0,0,0,.27.94c.11.33.22.66.32,1a6.33,6.33,0,0,1,.29,1.1c.1-.32.2-.66.29-1,.17-.64.35-1.24.54-1.82l2.89-9.8h6.86Z"/><path class="cls-1" d="M115.6,38.82a6.2,6.2,0,0,1-2.08,4.9,8.63,8.63,0,0,1-5.84,1.81,24.22,24.22,0,0,1-5-.49,15,15,0,0,1-3.92-1.32l.83-5a16.72,16.72,0,0,0,7.45,2.2,2.12,2.12,0,0,0,1.54-.46,1.46,1.46,0,0,0,.47-1.06,1.85,1.85,0,0,0-.37-1.2,5.58,5.58,0,0,0-1.79-1.15,28.86,28.86,0,0,1-3.45-1.76,11.1,11.1,0,0,1-2.35-1.84,6.19,6.19,0,0,1-1.33-2A6.73,6.73,0,0,1,99.38,29a5.55,5.55,0,0,1,2.36-4.78,10.42,10.42,0,0,1,6.19-1.69,19.07,19.07,0,0,1,3.65.32,16.78,16.78,0,0,1,3.67,1.25L114.46,29a11.23,11.23,0,0,0-3.37-1.35,14.74,14.74,0,0,0-3.22-.37,2.23,2.23,0,0,0-1.56.42,1.48,1.48,0,0,0-.42,1.1,1.64,1.64,0,0,0,.67,1.35,14.27,14.27,0,0,0,2.62,1.35,29.07,29.07,0,0,1,3,1.69,10.22,10.22,0,0,1,2,1.66,5.35,5.35,0,0,1,1.1,1.82A6.43,6.43,0,0,1,115.6,38.82Z"/><path class="cls-1" d="M135.54,44.79V32.61a6.39,6.39,0,0,0-.23-1.89,2.52,2.52,0,0,0-.62-1.09,1.91,1.91,0,0,0-.9-.49,4.57,4.57,0,0,0-1-.12,3,3,0,0,0-1.63.49,4.91,4.91,0,0,0-1.38,1.35,7.51,7.51,0,0,0-1,2,7.82,7.82,0,0,0-.38,2.43v9.49h-6.51V11.23h6.46V25.68A7.32,7.32,0,0,1,131,23.8a8.94,8.94,0,0,1,3.29-.57,10.32,10.32,0,0,1,2.82.39,7.07,7.07,0,0,1,2.46,1.21,6.14,6.14,0,0,1,1.77,2.22,7.67,7.67,0,0,1,.68,3.39V44.79Z"/><path class="cls-1" d="M168.66,29.16a5.55,5.55,0,0,1-.87,3,7.27,7.27,0,0,1-2.46,2.33A13.47,13.47,0,0,1,161.51,36a21.2,21.2,0,0,1-5,.54l-.59,0c-.22,0-.49,0-.79,0a4.49,4.49,0,0,0,1.47,2.92,4.65,4.65,0,0,0,3.17,1,14.46,14.46,0,0,0,7.21-2.2v5.14A14,14,0,0,1,163.44,45a14.86,14.86,0,0,1-3.84.46,12.69,12.69,0,0,1-4.44-.73,9,9,0,0,1-3.35-2.13,9.55,9.55,0,0,1-2.11-3.34,12.26,12.26,0,0,1-.74-4.38,13.68,13.68,0,0,1,.86-4.93,11.36,11.36,0,0,1,2.4-3.84,10.58,10.58,0,0,1,3.7-2.5,12.4,12.4,0,0,1,4.75-.89,8.93,8.93,0,0,1,5.81,1.77A5.75,5.75,0,0,1,168.66,29.16Zm-6.52.49a1.68,1.68,0,0,0-.67-1.34,2.52,2.52,0,0,0-1.69-.57,3.91,3.91,0,0,0-2.8,1.15,5.53,5.53,0,0,0-1.5,3.16,3.76,3.76,0,0,0,.78.1H157Q162.14,32.15,162.14,29.65Z"/><path class="cls-1" d="M189.93,44.79c0-.19-.07-.42-.1-.68s-.07-.49-.1-.79-.07-.65-.1-1.07a9,9,0,0,1-3.25,2.42,9.94,9.94,0,0,1-3.88.71,9.59,9.59,0,0,1-3.9-.76,8.48,8.48,0,0,1-3-2.1,9.67,9.67,0,0,1-1.92-3.26A12.54,12.54,0,0,1,173,35a14.5,14.5,0,0,1,.81-4.94,11.88,11.88,0,0,1,2.25-3.9,10.28,10.28,0,0,1,3.46-2.55,10.67,10.67,0,0,1,4.41-.91,14.81,14.81,0,0,1,2.15.15,12.63,12.63,0,0,1,2.41.64V10.64H195V37.35c0,.55,0,1.25.08,2.1s.1,1.67.17,2.45.14,1.88.24,2.89Zm-1.42-15.72a7,7,0,0,0-1.81-.5,16.58,16.58,0,0,0-1.76-.09A4.92,4.92,0,0,0,181,30.17a6.85,6.85,0,0,0-1.45,4.63,5,5,0,0,0,1,3.35,3.45,3.45,0,0,0,2.8,1.21,5.82,5.82,0,0,0,2-.35A3.8,3.8,0,0,0,187,37.84a6.28,6.28,0,0,0,1.1-2.18,11.85,11.85,0,0,0,.41-3.36Z"/></svg>