<svg id="Layer_1" data-name="Layer 1" xmlns="http://www.w3.org/2000/svg" viewBox="0 0 206.3 56.17"><defs><style>.cls-1{fill:#1b3ac2;}</style></defs><path class="cls-1" d="M73.94,41.22V29a5,5,0,0,0-.31-2,2.9,2.9,0,0,0-.76-1.06,2,2,0,0,0-.93-.43,5.66,5.66,0,0,0-.84-.07,4.74,4.74,0,0,0-1,.19,3.42,3.42,0,0,0-1.49.9,6,6,0,0,0-1.35,2.07,9.61,9.61,0,0,0-.59,3.69v8.93H60.13V27a23.9,23.9,0,0,0-.3-3.72,11.69,11.69,0,0,0-.78-3h6.52A9.69,9.69,0,0,1,66,21.37c.08.3.17.72.27,1.28a10.21,10.21,0,0,1,3.36-2.26,9.74,9.74,0,0,1,3.65-.73,7.12,7.12,0,0,1,2.86.57,6.68,6.68,0,0,1,2.28,1.6,7.28,7.28,0,0,1,1.51,2.53,9.63,9.63,0,0,1,.55,3.36v13.5Z"/><path class="cls-1" d="M107.07,25.59a5.52,5.52,0,0,1-.87,3A7.27,7.27,0,0,1,103.74,31a13.48,13.48,0,0,1-3.82,1.5,21.2,21.2,0,0,1-5,.54l-.59,0c-.22,0-.49,0-.8,0A4.59,4.59,0,0,0,95,35.85a4.7,4.7,0,0,0,3.18,1.06,14.51,14.51,0,0,0,7.21-2.21v5.15a14.42,14.42,0,0,1-3.55,1.54,14.89,14.89,0,0,1-3.85.46,12.67,12.67,0,0,1-4.43-.73A9.11,9.11,0,0,1,90.21,39a9.54,9.54,0,0,1-2.1-3.33,12.32,12.32,0,0,1-.74-4.39,13.59,13.59,0,0,1,.86-4.92,11.41,11.41,0,0,1,2.4-3.85,10.58,10.58,0,0,1,3.7-2.5,12.4,12.4,0,0,1,4.75-.88,9,9,0,0,1,5.81,1.76A5.77,5.77,0,0,1,107.07,25.59Zm-6.52.49a1.68,1.68,0,0,0-.67-1.35,2.52,2.52,0,0,0-1.69-.56,3.87,3.87,0,0,0-2.8,1.15,5.41,5.41,0,0,0-1.5,3.16,4.6,4.6,0,0,0,.78.1h.72C98.83,28.58,100.55,27.74,100.55,26.08Z"/><path class="cls-1" d="M127.94,35.24a6.18,6.18,0,0,1-2.07,4.9A8.6,8.6,0,0,1,120,42a24.15,24.15,0,0,1-5-.49,14.14,14.14,0,0,1-3.92-1.32l.83-5a16.72,16.72,0,0,0,7.45,2.21,2.12,2.12,0,0,0,1.54-.47,1.46,1.46,0,0,0,.47-1.05,1.91,1.91,0,0,0-.37-1.2,5.68,5.68,0,0,0-1.79-1.16,27.45,27.45,0,0,1-3.45-1.76,11.45,11.45,0,0,1-2.36-1.84,6.21,6.21,0,0,1-1.32-2,6.69,6.69,0,0,1-.42-2.45,5.53,5.53,0,0,1,2.37-4.78,10.49,10.49,0,0,1,6.19-1.69,19.14,19.14,0,0,1,3.65.32,16.72,16.72,0,0,1,3.66,1.25l-.78,5a11.89,11.89,0,0,0-3.37-1.35,15.38,15.38,0,0,0-3.22-.37,2.21,2.21,0,0,0-1.56.42,1.49,1.49,0,0,0-.42,1.1,1.61,1.61,0,0,0,.67,1.35,14.44,14.44,0,0,0,2.61,1.35,30.16,30.16,0,0,1,3,1.69,10.49,10.49,0,0,1,2,1.66,5.32,5.32,0,0,1,1.11,1.82A6.44,6.44,0,0,1,127.94,35.24Z"/><path class="cls-1" d="M135.29,41.22V24.31H131V19.66h4.31V14.22h6.42v5.44h5.54v4.65h-5.54V41.22Z"/></svg>