<svg id="Layer_1" data-name="Layer 1" xmlns="http://www.w3.org/2000/svg" viewBox="0 0 206.3 56.17"><defs><style>.cls-1{fill:#1b3ac2;}</style></defs><path class="cls-1" d="M72,25.81a16.44,16.44,0,0,1-.68,4.9,11.8,11.8,0,0,1-1.94,3.81,8.66,8.66,0,0,1-3,2.47,8.3,8.3,0,0,1-3.8.87,8.08,8.08,0,0,1-2.57-.34,7.79,7.79,0,0,1-2.2-1.26v16.2H51V22.76a12.18,12.18,0,0,0-.07-1.25c0-.48-.11-1-.2-1.52s-.18-1-.29-1.58A9.79,9.79,0,0,0,50,16.94h6.65a5.42,5.42,0,0,1,.35.95,11.51,11.51,0,0,1,.21,1.35A10.47,10.47,0,0,1,60.19,17a7.76,7.76,0,0,1,3.38-.69A8.6,8.6,0,0,1,67,17a7.7,7.7,0,0,1,2.67,1.93,9,9,0,0,1,1.73,3A11.7,11.7,0,0,1,72,25.81ZM65.52,26.9a4.66,4.66,0,0,0-1-3.15,3.36,3.36,0,0,0-2.68-1.13,3.84,3.84,0,0,0-3.16,1.44,6,6,0,0,0-1.17,3.88v2.83A5.18,5.18,0,0,0,61,32.08a4.14,4.14,0,0,0,3.3-1.38A5.53,5.53,0,0,0,65.52,26.9Z"/><path class="cls-1" d="M100.16,27a12.32,12.32,0,0,1-.81,4.64A9.17,9.17,0,0,1,97.06,35a9.85,9.85,0,0,1-3.56,2.11,15.32,15.32,0,0,1-9.22,0A9.85,9.85,0,0,1,80.72,35a9.48,9.48,0,0,1-2.32-3.39A12.12,12.12,0,0,1,77.57,27a11.87,11.87,0,0,1,.81-4.52,9.35,9.35,0,0,1,2.26-3.37A9.49,9.49,0,0,1,84.21,17a14.32,14.32,0,0,1,4.68-.72A14.53,14.53,0,0,1,93.5,17a9.89,9.89,0,0,1,3.56,2.06,9,9,0,0,1,2.29,3.37A12.2,12.2,0,0,1,100.16,27Zm-6.52,0a4.92,4.92,0,0,0-1.31-3.64,4.85,4.85,0,0,0-3.54-1.3,4.56,4.56,0,0,0-3.49,1.3A5.13,5.13,0,0,0,84.09,27a5.37,5.37,0,0,0,1.19,3.74,4.48,4.48,0,0,0,3.51,1.32,4.76,4.76,0,0,0,3.59-1.3A5.18,5.18,0,0,0,93.64,27Z"/><path class="cls-1" d="M120.35,37.86V25.63a5,5,0,0,0-.32-2,2.87,2.87,0,0,0-.76-1.06,1.88,1.88,0,0,0-.93-.43,7.48,7.48,0,0,0-.83-.07,5.33,5.33,0,0,0-1,.19,3.66,3.66,0,0,0-1.5.9,6.34,6.34,0,0,0-1.35,2.08,9.54,9.54,0,0,0-.58,3.68v8.93h-6.52V23.61a25.15,25.15,0,0,0-.29-3.72,12.07,12.07,0,0,0-.79-3H112a10.1,10.1,0,0,1,.42,1.13,12.34,12.34,0,0,1,.26,1.27A10.27,10.27,0,0,1,116,17a9.66,9.66,0,0,1,3.64-.74,7.12,7.12,0,0,1,2.86.57,6.82,6.82,0,0,1,2.28,1.6A7.38,7.38,0,0,1,126.31,21a9.63,9.63,0,0,1,.55,3.36v13.5Z"/><path class="cls-1" d="M150.68,37.86c0-.2-.07-.42-.1-.69s-.07-.49-.1-.78-.07-.65-.1-1.08a9,9,0,0,1-3.25,2.43,10.13,10.13,0,0,1-3.88.71,9.76,9.76,0,0,1-3.9-.76,8.69,8.69,0,0,1-3-2.11,9.57,9.57,0,0,1-1.92-3.26,12.44,12.44,0,0,1-.69-4.26,14.52,14.52,0,0,1,.81-4.95,11.78,11.78,0,0,1,2.26-3.89,9.89,9.89,0,0,1,3.45-2.55,10.52,10.52,0,0,1,4.41-.91,15.05,15.05,0,0,1,2.16.15,12.75,12.75,0,0,1,2.4.64V3.71h6.51v26.7c0,.56,0,1.26.08,2.11s.1,1.67.17,2.45.15,1.88.24,2.89Zm-1.42-15.73a7.34,7.34,0,0,0-1.81-.49,16.52,16.52,0,0,0-1.76-.1,5,5,0,0,0-3.95,1.69,6.87,6.87,0,0,0-1.45,4.63,5,5,0,0,0,1,3.36,3.48,3.48,0,0,0,2.8,1.2,5.81,5.81,0,0,0,2-.34,3.69,3.69,0,0,0,1.63-1.18,6.1,6.1,0,0,0,1.1-2.18,11.78,11.78,0,0,0,.41-3.35Z"/></svg>