<svg id="Layer_1" data-name="Layer 1" xmlns="http://www.w3.org/2000/svg" viewBox="0 0 206.3 56.17"><defs><style>.cls-1{fill:#1b3ac2;}</style></defs><path class="cls-1" d="M56.21,38.82a6.17,6.17,0,0,1-2.08,4.9,8.63,8.63,0,0,1-5.84,1.81,24.29,24.29,0,0,1-5-.49,15.08,15.08,0,0,1-3.92-1.32l.83-5a16.76,16.76,0,0,0,7.45,2.2,2.16,2.16,0,0,0,1.55-.46,1.45,1.45,0,0,0,.46-1.06,1.85,1.85,0,0,0-.37-1.2,5.62,5.62,0,0,0-1.78-1.15,29.06,29.06,0,0,1-3.46-1.76,11.37,11.37,0,0,1-2.35-1.84,6,6,0,0,1-1.32-2A6.73,6.73,0,0,1,40,29a5.53,5.53,0,0,1,2.37-4.78,10.4,10.4,0,0,1,6.19-1.69,19.22,19.22,0,0,1,3.65.32,16.72,16.72,0,0,1,3.66,1.25L55.07,29a11.28,11.28,0,0,0-3.36-1.35,14.88,14.88,0,0,0-3.22-.37,2.21,2.21,0,0,0-1.56.42,1.48,1.48,0,0,0-.42,1.1,1.62,1.62,0,0,0,.67,1.35,14.44,14.44,0,0,0,2.61,1.35,29.07,29.07,0,0,1,3,1.69,10.22,10.22,0,0,1,2,1.66,5.28,5.28,0,0,1,1.11,1.81A6.54,6.54,0,0,1,56.21,38.82Z"/><path class="cls-1" d="M63.56,44.79V27.89H59.25V23.23h4.31V17.8H70v5.43h5.53v4.66H70v16.9Z"/><path class="cls-1" d="M93.54,44.79a6.85,6.85,0,0,0-.05-.83c0-.26-.06-.57-.08-.93s0-.73-.07-1.13a7.79,7.79,0,0,1-3.19,2.53,10.38,10.38,0,0,1-4.18.85,7.76,7.76,0,0,1-6.26-2.64c-1.49-1.77-2.24-4.28-2.24-7.55q0-5.93,3.61-9.14t10.25-3.21c.73,0,1.39,0,2,.05s1.19.09,1.79.17,1.21.19,1.84.32,1.32.31,2.08.54V37.74c0,.75,0,1.54,0,2.37s.08,1.6.15,2.28.13,1.62.2,2.4Zm-1-16A11.25,11.25,0,0,0,91,28.57c-.46,0-.9,0-1.29,0a5.21,5.21,0,0,0-4.19,1.74A7.13,7.13,0,0,0,84,35.09a4.8,4.8,0,0,0,.9,3.14,3.11,3.11,0,0,0,2.54,1.08,4.41,4.41,0,0,0,2-.45A4.87,4.87,0,0,0,91,37.62a6,6,0,0,0,1.1-1.92,7.31,7.31,0,0,0,.4-2.47Z"/><path class="cls-1" d="M127.89,32.45a14.59,14.59,0,0,1-.84,5.08,10.68,10.68,0,0,1-6.21,6.38,13,13,0,0,1-4.91.88,25.27,25.27,0,0,1-4.9-.51,22.63,22.63,0,0,1-4.6-1.39V11.19H113V25.74a7.78,7.78,0,0,1,2.79-1.88,9.64,9.64,0,0,1,3.56-.63,9.14,9.14,0,0,1,3.51.66,7.5,7.5,0,0,1,2.72,1.86,8.48,8.48,0,0,1,1.74,2.91A10.84,10.84,0,0,1,127.89,32.45Zm-6.51,1.19a4.29,4.29,0,0,0-1-3,3.56,3.56,0,0,0-2.77-1.08A4.5,4.5,0,0,0,114.15,31a4.61,4.61,0,0,0-.94,1.58,5.5,5.5,0,0,0-.31,1.86V38.2a6,6,0,0,0,1.54.58,9.53,9.53,0,0,0,1.78.13A5,5,0,0,0,120,37.52,5.29,5.29,0,0,0,121.38,33.64Z"/><path class="cls-1" d="M134.07,44.79V10.64h6.51V44.79Z"/><path class="cls-1" d="M166.9,29.16a5.55,5.55,0,0,1-.87,3,7.27,7.27,0,0,1-2.46,2.33A13.47,13.47,0,0,1,159.75,36a21.26,21.26,0,0,1-5,.54l-.59,0c-.23,0-.49,0-.8,0a4.49,4.49,0,0,0,1.47,2.92,4.68,4.68,0,0,0,3.17,1,14.49,14.49,0,0,0,7.22-2.2v5.14A14.1,14.1,0,0,1,161.68,45a14.89,14.89,0,0,1-3.85.46,12.67,12.67,0,0,1-4.43-.73A8.85,8.85,0,0,1,150,42.56a9.56,9.56,0,0,1-2.11-3.33,12.27,12.27,0,0,1-.73-4.38,13.47,13.47,0,0,1,.86-4.93,11.36,11.36,0,0,1,2.4-3.84,10.58,10.58,0,0,1,3.7-2.5,12.37,12.37,0,0,1,4.75-.89,9,9,0,0,1,5.81,1.77A5.74,5.74,0,0,1,166.9,29.16Zm-6.52.49a1.68,1.68,0,0,0-.67-1.34,2.53,2.53,0,0,0-1.7-.57,3.9,3.9,0,0,0-2.79,1.15,5.44,5.44,0,0,0-1.5,3.16,3.76,3.76,0,0,0,.77.1h.73Q160.38,32.15,160.38,29.65Z"/></svg>