<svg id="Layer_1" data-name="Layer 1" xmlns="http://www.w3.org/2000/svg" viewBox="0 0 207 85.79"><defs><style>.cls-1{fill:#72331d;}</style></defs><path class="cls-1" d="M90.48,47.2a14.74,14.74,0,0,1-.87,5.18,10.91,10.91,0,0,1-6.33,6.51,13.4,13.4,0,0,1-5,.9,26.21,26.21,0,0,1-5-.52,23.12,23.12,0,0,1-4.69-1.42V25.5h6.65V40.35a7.89,7.89,0,0,1,2.85-1.92,9.74,9.74,0,0,1,3.63-.64,9.5,9.5,0,0,1,3.58.66,7.72,7.72,0,0,1,2.77,1.91,8.54,8.54,0,0,1,1.78,3A11.32,11.32,0,0,1,90.48,47.2Zm-6.65,1.2a4.38,4.38,0,0,0-1-3A3.63,3.63,0,0,0,80,44.24a4.63,4.63,0,0,0-2,.41,4.7,4.7,0,0,0-1.53,1.11,4.81,4.81,0,0,0-1,1.6,5.78,5.78,0,0,0-.31,1.9v3.8a5.72,5.72,0,0,0,1.57.59,9.73,9.73,0,0,0,1.82.14,5.15,5.15,0,0,0,3.85-1.43A5.39,5.39,0,0,0,83.83,48.4Z"/><path class="cls-1" d="M112.12,59.79c0-.23,0-.52-.05-.85S112,58.36,112,58s0-.75-.08-1.15a7.82,7.82,0,0,1-3.26,2.57,10.37,10.37,0,0,1-4.25.88A7.91,7.91,0,0,1,98,57.59c-1.53-1.8-2.28-4.37-2.28-7.7q0-6,3.67-9.33t10.47-3.27c.74,0,1.42,0,2,.05s1.21.09,1.82.17,1.23.2,1.88.33,1.35.32,2.13.55v14.2c0,.77,0,1.57,0,2.42s.09,1.63.16,2.33.13,1.65.2,2.45Zm-1.05-16.3a10.13,10.13,0,0,0-1.57-.25c-.48,0-.92-.05-1.32-.05A5.35,5.35,0,0,0,103.9,45a7.33,7.33,0,0,0-1.52,4.93,4.88,4.88,0,0,0,.91,3.2,3.21,3.21,0,0,0,2.6,1.1,4.62,4.62,0,0,0,2-.45,5.18,5.18,0,0,0,1.65-1.28,6.22,6.22,0,0,0,1.12-2,7.4,7.4,0,0,0,.4-2.52Z"/><path class="cls-1" d="M126.23,59.79V42.54h-4.41V37.79h4.41V32.24h6.54v5.55h5.65v4.75h-5.65V59.79Z"/></svg>