<svg id="Layer_1" data-name="Layer 1" xmlns="http://www.w3.org/2000/svg" viewBox="0 0 207 85.79"><defs><style>.cls-1{fill:#72331d;}</style></defs><path class="cls-1" d="M93.58,38.8a17,17,0,0,1-.7,5,12.09,12.09,0,0,1-2,3.89,9,9,0,0,1-3,2.53,9.48,9.48,0,0,1-6.51.54,7.6,7.6,0,0,1-2.23-1.29V66h-7V35.69c0-.36,0-.79-.08-1.28s-.12-1-.2-1.55-.18-1.08-.3-1.62a13.46,13.46,0,0,0-.42-1.5H77.9a5.12,5.12,0,0,1,.37,1,11.66,11.66,0,0,1,.21,1.37,10.78,10.78,0,0,1,3-2.3,8,8,0,0,1,3.45-.7,8.74,8.74,0,0,1,3.52.7,7.77,7.77,0,0,1,2.73,2A9.15,9.15,0,0,1,93,34.83,12,12,0,0,1,93.58,38.8Zm-6.65,1.11a4.79,4.79,0,0,0-1-3.22,3.44,3.44,0,0,0-2.74-1.15A3.94,3.94,0,0,0,80,37a6.13,6.13,0,0,0-1.18,4v2.89a5.25,5.25,0,0,0,3.54,1.33,4.26,4.26,0,0,0,3.37-1.4A5.68,5.68,0,0,0,86.93,39.91Z"/><path class="cls-1" d="M108.18,23.05A2.76,2.76,0,0,1,107,25.28a4.63,4.63,0,0,1-5.54,0,3,3,0,0,1-1.2-2.29,2.67,2.67,0,0,1,1.1-2.29,4.71,4.71,0,0,1,4.37-.68,3.9,3.9,0,0,1,1.25.7,3.65,3.65,0,0,1,.85,1.06A2.69,2.69,0,0,1,108.18,23.05Zm-7.5,28v-22h6.65v22Z"/><path class="cls-1" d="M135.87,51.79a23.38,23.38,0,0,1-.84,6.78,11.79,11.79,0,0,1-2.29,4.37,8.33,8.33,0,0,1-3.45,2.38A12.61,12.61,0,0,1,125,66a37.87,37.87,0,0,1-4.47-.27,15.78,15.78,0,0,1-4.21-1.08v-5a27.41,27.41,0,0,0,3.83,1.08,16.63,16.63,0,0,0,3.22.37,5.53,5.53,0,0,0,2.39-.5,4.59,4.59,0,0,0,1.87-1.6,8.39,8.39,0,0,0,1.21-2.9,19.42,19.42,0,0,0,.42-4.35v-2.2a7.58,7.58,0,0,1-2.85,1.68,11.61,11.61,0,0,1-3.1.37,9.83,9.83,0,0,1-3.9-.75,8.53,8.53,0,0,1-3-2.1,9.42,9.42,0,0,1-1.9-3.27,12.86,12.86,0,0,1-.67-4.28,12.7,12.7,0,0,1,1-5.22,11.22,11.22,0,0,1,3-4,13.22,13.22,0,0,1,4.66-2.52,20.43,20.43,0,0,1,6.19-.88c.71,0,1.33,0,1.87,0s1.07.06,1.6.12,1.08.16,1.67.28,1.28.27,2.05.47Zm-6.65-16.7c-.58-.1-1-.16-1.31-.2s-.68,0-1.15,0a6.34,6.34,0,0,0-4.61,1.63,5.92,5.92,0,0,0-1.68,4.47,4.23,4.23,0,0,0,1.11,3.15,3.74,3.74,0,0,0,2.76,1.1,7.76,7.76,0,0,0,1.8-.2,3.18,3.18,0,0,0,1.57-.9,4.83,4.83,0,0,0,1.1-2,12.3,12.3,0,0,0,.41-3.58Z"/></svg>