<?xml version="1.0" encoding="UTF-8"?><svg id="a" xmlns="http://www.w3.org/2000/svg" viewBox="0 0 207 85.79"><defs><style>.b{fill:#72331d;}</style></defs><path class="b" d="M84.08,47.43c0,1.9-.29,3.63-.87,5.18-.58,1.55-1.4,2.88-2.47,3.97-1.07,1.09-2.36,1.94-3.86,2.54-1.5,.6-3.17,.9-5.02,.9-1.58,0-3.25-.17-4.99-.52-1.75-.35-3.31-.82-4.7-1.42V25.73h6.65v14.85c.81-.85,1.76-1.49,2.85-1.92,1.09-.43,2.3-.64,3.63-.64s2.49,.22,3.58,.67c1.09,.44,2.01,1.08,2.78,1.9,.76,.82,1.36,1.81,1.78,2.97s.63,2.45,.63,3.87Zm-6.65,1.21c0-1.3-.34-2.32-1.01-3.05-.67-.74-1.61-1.11-2.83-1.11-.75,0-1.43,.14-2.02,.41s-1.1,.64-1.52,1.11c-.43,.47-.75,1-.96,1.61-.21,.6-.32,1.24-.32,1.9v3.8c.59,.3,1.11,.5,1.57,.59,.46,.09,1.06,.14,1.82,.14,1.64,0,2.92-.48,3.86-1.43,.93-.95,1.4-2.27,1.4-3.96Z"/><path class="b" d="M98.07,31.98c0,.88-.38,1.62-1.15,2.23-.77,.61-1.68,.91-2.75,.91s-2.03-.31-2.8-.93c-.77-.62-1.17-1.39-1.2-2.29-.03-.9,.33-1.67,1.1-2.29,.77-.62,1.73-.93,2.9-.93,.5,0,.99,.09,1.48,.25,.48,.17,.9,.4,1.25,.7,.35,.3,.63,.65,.85,1.06,.22,.41,.33,.84,.33,1.29Zm-7.5,28.04v-22h6.65v22h-6.65Z"/><path class="b" d="M119.82,44.17c-.47-.1-.83-.17-1.1-.2-.27-.03-.57-.05-.9-.05-1.9,0-3.34,.65-4.32,1.95-.98,1.3-1.48,3.24-1.48,5.81v8.34h-6.65v-14.44c0-.82,0-1.53-.02-2.13-.02-.6-.06-1.17-.12-1.69-.07-.52-.16-1.04-.28-1.54-.12-.51-.27-1.08-.47-1.74h6.31c.1,.41,.2,.76,.28,1.05s.15,.56,.18,.82c.03,.26,.07,.53,.1,.82,.03,.29,.05,.64,.05,1.05,.98-1.54,1.93-2.62,2.84-3.26,.92-.63,1.98-.95,3.17-.95,.47,0,.86,.04,1.18,.13,.32,.09,.76,.25,1.32,.49l-.1,5.53Z"/><path class="b" d="M139.13,60.02c-.03-.2-.07-.43-.1-.7-.04-.23-.07-.5-.1-.8-.03-.3-.07-.67-.1-1.1-1.04,1.17-2.14,1.99-3.31,2.48-1.17,.48-2.49,.72-3.96,.72s-2.8-.26-3.99-.77c-1.19-.52-2.2-1.23-3.03-2.15-.84-.92-1.49-2.03-1.96-3.33-.47-1.3-.7-2.75-.7-4.35,0-1.83,.27-3.52,.83-5.05,.55-1.53,1.32-2.86,2.3-3.98,.98-1.12,2.16-1.98,3.52-2.6,1.37-.62,2.87-.92,4.5-.92,.77,0,1.5,.05,2.2,.15,.7,.1,1.52,.32,2.45,.65v-13.1h6.65v27.25c0,.57,.02,1.28,.07,2.15,.05,.87,.11,1.7,.18,2.5,.07,.93,.15,1.92,.25,2.95h-5.7Zm-1.45-16.05c-.66-.27-1.27-.43-1.85-.5-.57-.07-1.17-.1-1.79-.1-1.7,0-3.04,.57-4.03,1.73-.99,1.15-1.48,2.72-1.48,4.72,0,1.47,.35,2.61,1.04,3.42,.69,.82,1.65,1.23,2.86,1.23,.73,0,1.41-.12,2.05-.35,.64-.23,1.2-.63,1.66-1.2,.47-.57,.84-1.31,1.12-2.22,.28-.92,.42-2.06,.42-3.42v-3.3Z"/></svg>