<svg xmlns="http://www.w3.org/2000/svg" xmlns:xlink="http://www.w3.org/1999/xlink" viewBox="0 0 305.74 285.53"><defs><style>.cls-1{isolation:isolate;}.cls-2{fill:#62ba46;}.cls-11,.cls-12,.cls-13,.cls-22,.cls-28,.cls-29,.cls-3,.cls-30,.cls-31,.cls-32,.cls-33,.cls-34,.cls-35,.cls-36,.cls-9{mix-blend-mode:screen;}.cls-3{fill:url(#linear-gradient);}.cls-4{fill:#1c0e0d;opacity:0.29;}.cls-10,.cls-23,.cls-4,.cls-7{mix-blend-mode:multiply;}.cls-5{fill:#087039;}.cls-6{fill:#5fba46;}.cls-7{fill:url(#linear-gradient-2);}.cls-8{fill:#6a9d41;}.cls-9{fill:url(#linear-gradient-3);}.cls-10{fill:url(#linear-gradient-4);}.cls-11{fill:url(#linear-gradient-5);}.cls-12{fill:url(#linear-gradient-6);}.cls-13{fill:url(#linear-gradient-7);}.cls-14{fill:url(#radial-gradient);}.cls-15{fill:url(#radial-gradient-2);}.cls-16{fill:url(#radial-gradient-3);}.cls-17{fill:#fff;}.cls-18{fill:url(#radial-gradient-4);}.cls-19{fill:url(#radial-gradient-5);}.cls-20{fill:url(#radial-gradient-6);}.cls-21{fill:#e6e982;}.cls-22{fill:url(#linear-gradient-8);}.cls-23{fill:url(#radial-gradient-7);}.cls-24{fill:#756629;}.cls-25{fill:#400f28;}.cls-26{fill:#f38183;}.cls-27{fill:#bf3e3f;}.cls-28{fill:url(#linear-gradient-9);}.cls-29{fill:url(#linear-gradient-10);}.cls-30{fill:url(#linear-gradient-11);}.cls-31{fill:url(#linear-gradient-12);}.cls-32{fill:url(#linear-gradient-13);}.cls-33{fill:url(#linear-gradient-14);}.cls-34{fill:url(#linear-gradient-15);}.cls-35{fill:url(#linear-gradient-16);}.cls-36{fill:url(#linear-gradient-17);}.cls-37{fill:url(#radial-gradient-8);}.cls-38{fill:url(#radial-gradient-9);}.cls-39{fill:url(#radial-gradient-10);}.cls-40{fill:url(#radial-gradient-11);}.cls-41{fill:url(#radial-gradient-12);}.cls-42{fill:url(#radial-gradient-13);}.cls-43{fill:url(#radial-gradient-14);}.cls-44{fill:url(#radial-gradient-15);}.cls-45{fill:url(#radial-gradient-16);}.cls-46{fill:url(#radial-gradient-17);}.cls-47{fill:url(#radial-gradient-18);}.cls-48{fill:url(#radial-gradient-19);}.cls-49{fill:url(#radial-gradient-20);}</style><linearGradient id="linear-gradient" x1="14.52" y1="232.45" x2="16.93" y2="246.35" gradientTransform="translate(4.98 1.46) rotate(0.18)" gradientUnits="userSpaceOnUse"><stop offset="0" stop-color="#b9b9ba"/><stop offset="0.1" stop-color="#979798"/><stop offset="0.25" stop-color="#6a6a6a"/><stop offset="0.41" stop-color="#444"/><stop offset="0.56" stop-color="#262626"/><stop offset="0.71" stop-color="#111"/><stop offset="0.86" stop-color="#040404"/><stop offset="0.99"/></linearGradient><linearGradient id="linear-gradient-2" x1="78.03" y1="204.17" x2="15.26" y2="147.54" gradientTransform="translate(4.98 1.46) rotate(0.18)" gradientUnits="userSpaceOnUse"><stop offset="0" stop-color="#90ae5c"/><stop offset="0.06" stop-color="#98b565"/><stop offset="0.29" stop-color="#b2ca80"/><stop offset="0.52" stop-color="#c5d993"/><stop offset="0.76" stop-color="#d0e29f"/><stop offset="1" stop-color="#d4e5a3"/></linearGradient><linearGradient id="linear-gradient-3" x1="-1196.92" y1="232.45" x2="-1194.51" y2="246.35" gradientTransform="matrix(-1, 0, 0, 1, -909.3, -1.38)" xlink:href="#linear-gradient"/><linearGradient id="linear-gradient-4" x1="-1133.41" y1="204.17" x2="-1196.18" y2="147.54" gradientTransform="matrix(-1, 0, 0, 1, -909.3, -1.38)" xlink:href="#linear-gradient-2"/><linearGradient id="linear-gradient-5" x1="146.2" y1="111.55" x2="145.98" y2="47.02" gradientTransform="translate(4.98 1.46) rotate(0.18)" gradientUnits="userSpaceOnUse"><stop offset="0" stop-color="#fff"/><stop offset="0.1" stop-color="#cfcfcf"/><stop offset="0.23" stop-color="#999"/><stop offset="0.37" stop-color="#6a6a6a"/><stop offset="0.5" stop-color="#444"/><stop offset="0.63" stop-color="#262626"/><stop offset="0.75" stop-color="#111"/><stop offset="0.88" stop-color="#040404"/><stop offset="0.99"/></linearGradient><linearGradient id="linear-gradient-6" x1="143.95" y1="15.6" x2="146.88" y2="69.45" xlink:href="#linear-gradient-5"/><linearGradient id="linear-gradient-7" x1="-781.65" y1="72.87" x2="-769.25" y2="68.75" gradientTransform="matrix(-1, 0, 0, 1, -633.72, -0.52)" xlink:href="#linear-gradient-5"/><radialGradient id="radial-gradient" cx="-535.81" cy="70.09" r="55.11" gradientTransform="matrix(0, -1, -1.07, 0, 152.15, -501.14)" gradientUnits="userSpaceOnUse"><stop offset="0.01" stop-color="#172514"/><stop offset="0.27" stop-color="#3f5820"/><stop offset="0.61" stop-color="#6f952f"/><stop offset="0.87" stop-color="#8ebb38"/><stop offset="1" stop-color="#99ca3c"/></radialGradient><radialGradient id="radial-gradient-2" cx="89.09" cy="13.23" r="53.59" gradientTransform="translate(138.66 -61.69) rotate(90)" gradientUnits="userSpaceOnUse"><stop offset="0" stop-color="#d4e5a3"/><stop offset="0.09" stop-color="#bedb7c"/><stop offset="0.19" stop-color="#aad259"/><stop offset="0.27" stop-color="#9dcc44"/><stop offset="0.32" stop-color="#99ca3c"/><stop offset="0.51" stop-color="#80ac37"/><stop offset="0.93" stop-color="#3f6129"/><stop offset="1" stop-color="#335327"/></radialGradient><radialGradient id="radial-gradient-3" cx="83.61" cy="25.17" r="51.93" gradientTransform="translate(141.1 -57.9) rotate(90)" gradientUnits="userSpaceOnUse"><stop offset="0" stop-color="#f5ea14"/><stop offset="1" stop-color="#f27121"/></radialGradient><radialGradient id="radial-gradient-4" cx="195.53" cy="70.09" r="55.11" gradientTransform="matrix(0, 1, -1.07, 0, 247.98, -157.05)" xlink:href="#radial-gradient"/><radialGradient id="radial-gradient-5" cx="188.51" cy="11.04" r="38.74" gradientTransform="translate(233.15 -155.89) rotate(90)" xlink:href="#radial-gradient-2"/><radialGradient id="radial-gradient-6" cx="189.91" cy="31.85" r="37.15" gradientTransform="translate(236.93 -153.43) rotate(90)" xlink:href="#radial-gradient-3"/><linearGradient id="linear-gradient-8" x1="146.22" y1="147.48" x2="147.1" y2="83.79" xlink:href="#linear-gradient-5"/><radialGradient id="radial-gradient-7" cx="144.05" cy="132.18" r="20.77" gradientTransform="translate(4.98 1.46) rotate(0.18)" gradientUnits="userSpaceOnUse"><stop offset="0" stop-color="#e6ac22"/><stop offset="0.27" stop-color="#eec86c"/><stop offset="0.52" stop-color="#f6dfab"/><stop offset="0.74" stop-color="#fbf1d9"/><stop offset="0.9" stop-color="#fefbf5"/><stop offset="1" stop-color="#fff"/></radialGradient><linearGradient id="linear-gradient-9" x1="254.24" y1="813.26" x2="256.4" y2="825.72" gradientTransform="matrix(0.72, -0.69, 0.69, 0.72, -661.03, -142.51)" xlink:href="#linear-gradient"/><linearGradient id="linear-gradient-10" x1="220.17" y1="593.96" x2="222.41" y2="606.85" gradientTransform="translate(-408.74 -160.79) rotate(-28.13)" xlink:href="#linear-gradient"/><linearGradient id="linear-gradient-11" x1="222.27" y1="968.71" x2="223.67" y2="973.22" gradientTransform="translate(-851.77 -52.52) rotate(-59.12)" xlink:href="#linear-gradient"/><linearGradient id="linear-gradient-12" x1="113.06" y1="324.8" x2="115.08" y2="336.42" gradientTransform="translate(-95.76 -65.86) rotate(-7.59)" xlink:href="#linear-gradient"/><linearGradient id="linear-gradient-13" x1="-535.73" y1="52.68" x2="-533.56" y2="65.14" gradientTransform="matrix(-0.72, -0.7, -0.7, 0.72, -125.5, -140.85)" xlink:href="#linear-gradient"/><linearGradient id="linear-gradient-14" x1="-745.33" y1="73.92" x2="-743.09" y2="86.81" gradientTransform="matrix(-0.88, -0.48, -0.48, 0.88, -377.68, -160.69)" xlink:href="#linear-gradient"/><linearGradient id="linear-gradient-15" x1="-337.69" y1="25.8" x2="-336.29" y2="30.31" gradientTransform="matrix(-0.51, -0.86, -0.86, 0.51, 64.68, -49.67)" xlink:href="#linear-gradient"/><linearGradient id="linear-gradient-16" x1="-973.55" y1="176.64" x2="-971.53" y2="188.25" gradientTransform="matrix(-0.99, -0.14, -0.14, 0.99, -691.24, -67.71)" xlink:href="#linear-gradient"/><linearGradient id="linear-gradient-17" x1="144.79" y1="72.87" x2="157.19" y2="68.75" xlink:href="#linear-gradient-5"/><radialGradient id="radial-gradient-8" cx="150.83" cy="71.02" r="7.82" gradientTransform="translate(4.98 1.46) rotate(0.18)" gradientUnits="userSpaceOnUse"><stop offset="0.33" stop-color="#190c0c"/><stop offset="0.6" stop-color="#37100f"/><stop offset="0.79" stop-color="#481211"/><stop offset="0.8" stop-color="#4a1211"/><stop offset="0.9" stop-color="#5f0e0e"/><stop offset="0.97" stop-color="#660d0d"/></radialGradient><radialGradient id="radial-gradient-9" cx="137.22" cy="71.24" r="7.98" xlink:href="#radial-gradient-8"/><radialGradient id="radial-gradient-10" cx="50.9" cy="65.46" r="39.14" gradientTransform="translate(4.98 1.46) rotate(0.18)" gradientUnits="userSpaceOnUse"><stop offset="0" stop-color="#99ca3c"/><stop offset="0.16" stop-color="#7fac39"/><stop offset="0.47" stop-color="#466d33"/><stop offset="0.99" stop-color="#172514"/></radialGradient><radialGradient id="radial-gradient-11" cx="50.9" cy="65.46" r="39.14" xlink:href="#radial-gradient-10"/><radialGradient id="radial-gradient-12" cx="50.9" cy="65.46" r="39.14" xlink:href="#radial-gradient-10"/><radialGradient id="radial-gradient-13" cx="213.16" cy="70.29" r="31.06" xlink:href="#radial-gradient-10"/><radialGradient id="radial-gradient-14" cx="213.16" cy="70.29" r="31.06" xlink:href="#radial-gradient-10"/><radialGradient id="radial-gradient-15" cx="213.16" cy="70.29" r="31.06" xlink:href="#radial-gradient-10"/><radialGradient id="radial-gradient-16" cx="183.39" cy="149.04" r="31.06" gradientTransform="matrix(1.22, 0, 0, 1, 42.47, 1.57)" xlink:href="#radial-gradient-10"/><radialGradient id="radial-gradient-17" cx="183.39" cy="149.04" r="31.06" gradientTransform="matrix(1.22, 0, 0, 1, 42.47, 1.57)" xlink:href="#radial-gradient-10"/><radialGradient id="radial-gradient-18" cx="183.39" cy="149.04" r="31.06" gradientTransform="matrix(1.22, 0, 0, 1, 42.47, 1.57)" xlink:href="#radial-gradient-10"/><radialGradient id="radial-gradient-19" cx="-898.11" cy="147.14" r="31.06" gradientTransform="matrix(-1.36, 0, 0, 1, -1174.26, -2.2)" xlink:href="#radial-gradient-10"/><radialGradient id="radial-gradient-20" cx="-898.11" cy="147.14" r="31.06" gradientTransform="matrix(-1.36, 0, 0, 1, -1174.26, -2.2)" xlink:href="#radial-gradient-10"/></defs><g class="cls-1"><g id="Layer_1" data-name="Layer 1"><path class="cls-2" d="M28.16,209.13c-3.32-4.91-8.68-9.71-14.87-9.19-8.48.7-8.81,11.28-3.14,15.24,5.28,3.7,10,2.64,17-.19,3.26.17,20.43,2.91,24.09,3.66A184.45,184.45,0,0,0,20,222.13c-3.31-3.57-10.32-6.7-15.54-2.82C-1,223.38.79,231.77,7,234.52c5.94,2.61,12-.75,14.74-5.16,5.62-1,34.65-2.64,34.65-2.64-17.68,6.46-29.5,10-29.5,10-6.16-3.07-12.16-1.84-15,2.32-3,4.36-1,13.56,8.27,12.89,5.71-.42,8.65-3.88,10.36-6.65,4.4-1.37,53.71-19.86,73.88-13.77-9.09-9.15-14.18-13.82-18.52-14.71C74.67,214.49,42.65,209.18,28.16,209.13Z"/><path class="cls-3" d="M28.75,240.51c.38,2.89-4.52,6.15-9.08,6.76s-8.15-1.21-8.14-4.24,2.19-6.22,6.75-6.83S28.36,237.62,28.75,240.51Z"/><path class="cls-4" d="M27,213.2c-6,2.07-21.23,5-20.2-8.51a9.42,9.42,0,0,0,3.34,10.49c5.28,3.7,10,2.64,17-.19,2.21.12,10.85,1.42,17.3,2.48.09-.26,10.84,1.75,10.84,1.55A189.87,189.87,0,0,0,27,213.2Z"/><path class="cls-4" d="M29.18,243.51c-2.93,5.91-14.51,9.91-18.43,1.28.51,3.86,3.45,7.57,9.46,7.14,5.71-.42,8.65-3.88,10.36-6.65,4.4-1.37,53.71-19.86,73.88-13.77-1.9-1.91-3.63-3.63-5.21-5.15C75.83,228.3,51.81,235.56,29.18,243.51Z"/><path class="cls-4" d="M21.31,227.5c-5.78,6.62-17.25,7.91-20.12-1.57A9.71,9.71,0,0,0,7,234.52c5.94,2.61,12-.75,14.74-5.16,3.83-.71,28.86-2.71,37.83-3.25C50.12,225.29,31.08,226,21.31,227.5Z"/><path class="cls-5" d="M19.23,252.4a8.51,8.51,0,0,1-7.78-4.15,9.33,9.33,0,0,1,.13-9.46c3-4.45,9.34-5.48,15.39-2.54,1.41-.42,11.65-3.57,26.5-8.92-7.46.43-26.62,1.61-31.42,2.43-2.9,4.5-9.15,7.82-15.18,5.16A10.21,10.21,0,0,1,.8,226.8,8.38,8.38,0,0,1,4.17,219c5.43-4,12.54-.88,16,2.71l1.32-.24A174.93,174.93,0,0,1,47,218.33c-6.38-1.08-17.1-2.73-19.78-2.9-7.36,3-12.08,3.79-17.33.11a9.88,9.88,0,0,1-3.69-10.4,7.49,7.49,0,0,1,7-5.64c7.48-.63,13,6.07,15.14,9.19,14.88.1,46.76,5.45,57.63,7.68,4.32.89,9.07,5.1,18.74,14.83l1.22,1.23-1.66-.5c-12-3.62-35.91.73-71.1,12.91-1.08.38-1.89.66-2.37.81-2.63,4.19-6.11,6.39-10.61,6.71C19.9,252.39,19.56,252.4,19.23,252.4Zm1-16.93a9.19,9.19,0,0,0-7.88,3.81,8.39,8.39,0,0,0-.1,8.53c1.52,2.64,4.35,3.94,8,3.68,5.66-.41,8.43-3.87,10-6.44l.09-.14.16,0c.42-.13,1.29-.43,2.49-.85,33.9-11.73,57.45-16.21,70.06-13.34-8.61-8.62-13.24-12.64-17.15-13.44-10.89-2.24-43-7.61-57.69-7.66h-.23l-.13-.19c-2-2.91-7.29-9.6-14.46-9a6.69,6.69,0,0,0-6.28,5,9,9,0,0,0,3.35,9.45c5,3.48,9.32,2.7,16.6-.24l.09,0h.09c3.25.17,20.45,2.91,24.15,3.67l4,.8-4,.06a172.35,172.35,0,0,0-29.62,3.21,6.74,6.74,0,0,1-1.74.27l-.14,0-.1-.1C16.49,219,9.77,215.9,4.7,219.67a7.48,7.48,0,0,0-3,7,9.31,9.31,0,0,0,5.54,7.42c5.66,2.49,11.53-.72,14.19-5l.1-.17.19,0c5.59-1,33.52-2.58,34.71-2.65l3-.16-2.78,1c-17.49,6.39-29.4,10-29.52,10l-.17.05-.16-.07A14.69,14.69,0,0,0,20.19,235.47Z"/><path class="cls-6" d="M88.28,148.35c-9.46-8-21.45-12.55-38.71-12.49-7.81,0-13.19,0-19-.88s-17.06-2.2-21,7.92,8.07,22.65,14.55,31.79,12.53,20.49,23.62,30C60.29,215.61,77,223.67,93.91,222.19,73,194.87,88.28,148.35,88.28,148.35Z"/><path class="cls-7" d="M30.43,153.1c8.17,27.48,34.23,47,43.4,49.1,3.23-14.77,1-11.71,1-11.71C57.74,188.68,39.93,175.7,30.43,153.1Z"/><path class="cls-5" d="M89.86,222.8c-14-.05-29.29-6.37-42.47-17.74-8.55-7.36-14.19-15.89-19.16-23.41-1.56-2.36-3-4.58-4.54-6.71-1.14-1.6-2.44-3.3-3.83-5.1-6.31-8.21-14.18-18.42-10.77-27.1,4.17-10.65,16.31-8.93,21.5-8.19,5.94.84,11.37.89,19,.87,16.41,0,28.81,4,39,12.6l.22.19-.09.28a128.24,128.24,0,0,0-5,26.59c-1.09,13.64-.14,32.84,10.57,46.84l.49.64-.8.07C92.6,222.74,91.23,222.8,89.86,222.8Zm-65.95-88c-5.29,0-11.34,1.43-14,8.23-3.23,8.22,4.14,17.79,10.65,26.25,1.39,1.8,2.7,3.51,3.85,5.13,1.52,2.14,3,4.36,4.55,6.72,4.94,7.48,10.55,16,19,23.24,14,12.11,30.44,18.43,45.12,17.41C82.65,207.65,81.73,188.59,82.82,175a131,131,0,0,1,5-26.49c-9.85-8.27-21.82-12.16-37.6-12.2-.2,0-.4,0-.6,0-7.65,0-13.11,0-19.11-.88A46.51,46.51,0,0,0,23.91,134.83Z"/><path class="cls-8" d="M86.34,206c-11.75,0-19.79-5.86-29.07-13.47a81.57,81.57,0,0,1-10.81-10.78,94.52,94.52,0,0,1-8.57-12.2,55.22,55.22,0,0,1-6.53-15.73c.07.22,7.36,22.37,26.47,38,9.14,7.5,17,13.24,28.52,13.28Z"/><path class="cls-2" d="M277.68,209.91c3.35-4.9,8.74-9.66,14.92-9.11,8.48.76,8.74,11.34,3,15.27-5.31,3.66-10,2.57-17-.3-3.26.15-20.44,2.79-24.11,3.51A184.78,184.78,0,0,1,285.78,223c3.33-3.56,10.36-6.64,15.56-2.72,5.45,4.1,3.57,12.47-2.7,15.19-6,2.57-12-.83-14.71-5.26-5.62-1.07-34.63-2.85-34.63-2.85,17.64,6.57,29.44,10.19,29.44,10.19,6.17-3,12.16-1.77,15,2.4,2.94,4.38.92,13.57-8.35,12.84-5.71-.45-8.62-3.93-10.31-6.71-4.4-1.4-53.59-20.19-73.8-14.23,9.15-9.09,14.26-13.73,18.61-14.59C231.14,215,263.19,209.86,277.68,209.91Z"/><path class="cls-9" d="M276.9,241.28c-.41,2.89,4.48,6.18,9,6.82s8.16-1.16,8.16-4.19-2.15-6.24-6.7-6.88S277.3,238.4,276.9,241.28Z"/><path class="cls-4" d="M278.81,214c5.93,2.11,21.19,5.11,20.25-8.39a9.44,9.44,0,0,1-3.41,10.48c-5.31,3.66-10,2.57-17-.3-2.21.1-10.85,1.35-17.32,2.37-.08-.26-10.84,1.69-10.84,1.49A189.36,189.36,0,0,1,278.81,214Z"/><path class="cls-4" d="M276.44,244.28c2.9,5.92,14.46,10,18.43,1.4-.54,3.85-3.5,7.54-9.51,7.07-5.71-.45-8.62-3.93-10.31-6.71-4.4-1.4-53.59-20.19-73.8-14.23,1.92-1.9,3.65-3.6,5.24-5.12C229.89,228.77,253.86,236.19,276.44,244.28Z"/><path class="cls-4" d="M284.41,228.32c5.74,6.65,17.21,8,20.13-1.45a9.73,9.73,0,0,1-5.9,8.56c-6,2.57-12-.83-14.71-5.26-3.83-.73-28.84-2.88-37.81-3.48C255.61,225.93,274.65,226.73,284.41,228.32Z"/><path class="cls-5" d="M285.33,253.19c-4.5-.36-8-2.58-10.57-6.78l-2.36-.82c-35.12-12.41-59-16.9-71-13.36l-1.67.49L201,231.5c9.73-9.67,14.49-13.85,18.83-14.72,10.87-2.16,42.79-7.31,57.67-7.31,2.17-3.12,7.72-9.78,15.19-9.1a7.51,7.51,0,0,1,7,5.68,9.9,9.9,0,0,1-3.76,10.38c-5.28,3.64-10,2.79-17.33-.22-2.68.15-13.41,1.74-19.8,2.78a175,175,0,0,1,25.53,3.26l1.31.25c3.47-3.57,10.59-6.68,16-2.61a8.34,8.34,0,0,1,3.33,7.85,10.23,10.23,0,0,1-6.12,8.09c-6.05,2.61-12.28-.74-15.15-5.26-4.79-.85-23.94-2.14-31.4-2.62,14.81,5.44,25,8.65,26.44,9.09,6.07-2.91,12.37-1.84,15.37,2.63a9.31,9.31,0,0,1,.08,9.45,8.53,8.53,0,0,1-7.81,4.11C286,253.23,285.67,253.21,285.33,253.19Zm-6.4-15.29-.16.08-.16,0c-.12,0-12-3.7-29.46-10.2l-2.77-1,3,.18c1.18.07,29.1,1.8,34.68,2.86l.19,0,.1.17c2.63,4.29,8.49,7.52,14.16,5.07a9.28,9.28,0,0,0,5.59-7.38,7.49,7.49,0,0,0-3-7c-5.05-3.8-11.8-.73-15,2.67l-.09.1-.14,0a6.55,6.55,0,0,1-1.74-.28,170.65,170.65,0,0,0-29.61-3.39l-4-.09,4-.78c3.71-.73,20.93-3.37,24.17-3.52h.1l.09,0c7.26,3,11.59,3.8,16.59.35a9,9,0,0,0,3.41-9.43,6.67,6.67,0,0,0-6.24-5c-7.17-.64-12.55,6-14.53,8.91l-.13.2h-.23c-14.72,0-46.82,5.14-57.73,7.31-3.91.77-8.57,4.76-17.24,13.33,12.63-2.8,36.15,1.83,70,13.78,1.2.42,2.07.73,2.49.86l.16,0,.08.14c1.57,2.58,4.32,6.05,10,6.5,3.62.29,6.45-1,8-3.63a8.4,8.4,0,0,0-.05-8.52,9.17,9.17,0,0,0-7.85-3.87A14.83,14.83,0,0,0,278.93,237.9Z"/><path class="cls-6" d="M217.94,148.75c9.51-8,21.52-12.41,38.78-12.25,7.82.07,13.19,0,19-.76s17.08-2.1,21,8-8.21,22.6-14.75,31.7-12.66,20.41-23.81,29.9c-12.68,10.79-29.42,18.75-46.34,17.16C232.93,195.36,217.94,148.75,217.94,148.75Z"/><path class="cls-10" d="M275.75,153.86c-8.33,27.43-34.51,46.81-43.7,48.83-3.14-14.79-1-11.71-1-11.71C248.22,189.27,266.11,176.4,275.75,153.86Z"/><path class="cls-5" d="M211.8,223l-.79-.07.49-.63c10.8-13.93,11.87-33.13,10.86-46.78a128.48,128.48,0,0,0-4.84-26.62l-.09-.28.22-.19c10.24-8.58,22.67-12.51,39.08-12.36,7.61.07,13,.06,19-.75,5.18-.7,17.33-2.35,21.44,8.32,3.35,8.7-4.57,18.87-10.94,27-1.39,1.79-2.71,3.48-3.86,5.08-1.53,2.12-3,4.33-4.58,6.67-5,7.5-10.71,16-19.3,23.3-13.26,11.28-28.55,17.51-42.58,17.47C214.52,223.18,213.15,223.12,211.8,223Zm64-86.81c-6,.81-11.46.83-19.11.76h-.6c-15.78,0-27.78,3.77-37.68,12a130.19,130.19,0,0,1,4.8,26.52c1,13.61,0,32.67-10.56,46.76,14.67,1.11,31.1-5.11,45.23-17.13,8.5-7.23,14.15-15.67,19.14-23.12,1.58-2.35,3.06-4.56,4.59-6.7,1.16-1.61,2.49-3.31,3.89-5.1,6.55-8.41,14-17.94,10.81-26.18-2.62-6.82-8.66-8.3-13.95-8.31A46,46,0,0,0,275.83,136.18Z"/><path class="cls-8" d="M219.52,206.43c11.75,0,19.82-5.74,29.15-13.29a80,80,0,0,0,10.87-10.72,94.78,94.78,0,0,0,8.66-12.15,55.43,55.43,0,0,0,6.62-15.69c-.07.22-7.5,22.33-26.7,37.87-9.19,7.45-17.13,13.13-28.6,13.1Z"/><path class="cls-6" d="M228.12,48.85c-1-2.45,6.73-14.43.94-29.22-5.44-13.92-20-20.55-34.21-16.92-11.16,2.84-23,14.09-24.76,15.92s-5.05,5.26-8.56,3.76c-6.91-3-13-3.31-21.09-.07-3.7,1.48-6.83-2-8.54-3.81S118.48,4.94,107.24,2.44C93.52-.62,78.6,5.22,73.09,19.73c-5.6,14.76,1.58,26.2.59,28.64S57.42,55,58.18,73.27s23,38.74,29.26,66.11c-4.16,3.41-15.14,22.4-9.41,42.71-3.3,55.67,114.38,97,144.92.45,5.86-20.27-5-39.33-9.15-42.76,6.43-27.34,28.8-47.7,29.67-65.93S229.09,51.29,228.12,48.85Z"/><path class="cls-11" d="M86.68,72.46c11.61,13.3,38.13,18.23,64,18.17,28-.08,55.37-6.16,64.3-17.77C187.13,91.63,114,91.84,86.68,72.46Z"/><path class="cls-12" d="M150.12,21.14c4.69-.24,11.71,2.09,14.1,7,5.1,10.5,2,29.5.91,37.37-1.26,8.83-29.57,11.93-30.29,1.75-.84-11.81-3-28.69,1.79-38.42C139,23.92,145,21.4,150.12,21.14Z"/><path class="cls-13" d="M142.87,66.37c2,.57,2.82,3.77,1.76,7.15s-3.57,5.68-5.6,5.11-2.81-3.76-1.75-7.15S140.84,65.81,142.87,66.37Z"/><ellipse class="cls-14" cx="102.83" cy="36.43" rx="29.56" ry="26.7" transform="translate(66.07 139.14) rotate(-89.82)"/><ellipse class="cls-15" cx="103.49" cy="36.93" rx="24.02" ry="23.55" transform="translate(66.24 140.31) rotate(-89.82)"/><ellipse class="cls-16" cx="102.81" cy="40.05" rx="23.75" ry="23.55" transform="translate(62.44 142.74) rotate(-89.82)"/><path class="cls-8" d="M78.83,40a24,24,0,1,1,23.91,24.26A24.12,24.12,0,0,1,78.83,40Zm.88,0a23.11,23.11,0,1,0,23.18-23.24A23.23,23.23,0,0,0,79.71,40Z"/><path d="M126.8,40.13c.43-25-35.23-35.38-46.61-8.11C92.82,10.13,123.3,16.81,126.8,40.13Z"/><ellipse cx="102.8" cy="46.2" rx="11.45" ry="11.36" transform="translate(56.27 148.85) rotate(-89.82)"/><path class="cls-17" d="M91.43,38.52a4.3,4.3,0,1,0,4.31-4.28A4.3,4.3,0,0,0,91.43,38.52Z"/><path class="cls-6" d="M118.9,66.56l-22.38.6L75.39,61.31S92.38,51.22,118.9,66.56Z"/><path class="cls-8" d="M108.82,61.11c3.32,1.2,10.16,5.62,10.16,5.62-26.12-14.46-43.42-5.51-43.59-5.42,0,0,4.09-3.16,11.77-3.65A53.49,53.49,0,0,1,108.82,61.11Z"/><ellipse class="cls-18" cx="198.65" cy="36.73" rx="29.56" ry="26.7" transform="translate(161.31 235.27) rotate(-89.82)"/><ellipse class="cls-19" cx="197.98" cy="37.22" rx="24.02" ry="23.55" transform="matrix(0, -1, 1, 0, 160.15, 235.09)"/><ellipse class="cls-20" cx="198.64" cy="40.35" rx="23.75" ry="23.55" transform="translate(157.68 238.87) rotate(-89.82)"/><path class="cls-8" d="M198.57,64.54a24.19,24.19,0,1,1,24.06-24.12A24.12,24.12,0,0,1,198.57,64.54Zm.15-47.5a23.31,23.31,0,1,0,23,23.38A23.24,23.24,0,0,0,198.72,17Z"/><path d="M174.66,40.27c-.28-25,35.45-35.15,46.66-7.81C208.83,10.49,178.3,17,174.66,40.27Z"/><ellipse cx="198.62" cy="46.5" rx="11.45" ry="11.36" transform="translate(151.53 244.98) rotate(-89.83)"/><path class="cls-17" d="M196.87,38.85a4.3,4.3,0,1,1-4.28-4.31A4.3,4.3,0,0,1,196.87,38.85Z"/><path class="cls-6" d="M182.39,66.76l22.38.73,21.16-5.71S209,51.58,182.39,66.76Z"/><path class="cls-8" d="M192.51,61.36c-3.33,1.19-10.2,5.57-10.2,5.57,26.21-14.3,43.45-5.24,43.62-5.15,0,0-4.07-3.19-11.74-3.72A53.32,53.32,0,0,0,192.51,61.36Z"/><path class="cls-5" d="M150.41,240.85a82.16,82.16,0,0,1-14.81-1.39c-16-3-30.76-10.27-41.62-20.58-11.32-10.75-17.13-23.79-16.39-36.74C72.1,162.56,82,143.57,87,139.22c-3.15-13.49-10.27-25.46-16.55-36-6.59-11.08-12.28-20.65-12.67-29.9-.59-14.18,8.26-20,13-23.1a8.67,8.67,0,0,0,2.53-2c.23-.57-.21-2.17-.73-4-1.45-5.24-3.88-14,.13-24.6A27.56,27.56,0,0,1,86.9,4.1,31.89,31.89,0,0,1,107.34,2c12.28,2.73,24.76,16.07,24.88,16.2l.07.07c1.72,1.86,4.61,5,8,3.63,7.83-3.12,14-3.1,21.44.07,3.3,1.42,6.52-2,8.06-3.65.12-.13,12.72-12.92,25-16,14.76-3.76,29.36,3.47,34.73,17.19,4.17,10.64,1.48,19.72-.12,25.14-.56,1.88-1,3.51-.82,4.08a8.78,8.78,0,0,0,2.51,2c4.74,3.15,13.55,9,12.87,23.18-.44,9.24-6.19,18.78-12.85,29.82-6.35,10.53-13.55,22.46-16.77,35.93,4.91,4.38,14.73,23.48,9.08,43-7.29,23.06-19.81,39.64-37.19,49.31A73.07,73.07,0,0,1,150.41,240.85ZM100.05,2.06C88.12,2,77.73,8.74,73.5,19.88,69.59,30.19,72,38.8,73.4,43.94c.62,2.25,1,3.74.69,4.59s-1.31,1.38-2.86,2.39c-4.6,3-13.18,8.65-12.61,22.33.37,9,6,18.51,12.54,29.49,6.36,10.69,13.57,22.82,16.71,36.54l.06.27-.21.17c-3.5,2.87-15.14,21.44-9.27,42.25l0,.07v.08c-1.51,25.45,23.66,50.26,57.29,56.48,31.51,5.82,70.85-5.88,86.77-56.19,6-20.76-5.52-39.41-9-42.3l-.21-.17.06-.27c3.23-13.7,10.51-25.78,16.94-36.44,6.6-10.94,12.29-20.38,12.72-29.4.66-13.68-7.88-19.36-12.47-22.41-1.55-1-2.56-1.71-2.84-2.41h0c-.34-.85.11-2.36.78-4.65,1.58-5.31,4.21-14.21.16-24.57C223.45,6.49,209.28-.52,195,3.13c-12,3.07-24.43,15.67-24.55,15.8-1.55,1.65-5.18,5.52-9,3.86-7.16-3.07-13.17-3.09-20.76-.06-3.93,1.57-7.2-2-8.95-3.85l-.07-.07c-.12-.13-12.42-13.27-24.43-15.94A33,33,0,0,0,100.05,2.06Z"/><path class="cls-21" d="M215,72.86C200.89,88.69,165.1,92.49,157.53,92c-3.05-.21-5.17-.37-6.64-.49v0h-.24v0c-1.47.11-3.59.26-6.64.45-7.58.46-43.34-3.56-57.33-19.48a17.76,17.76,0,0,1-8.31,1.09c-.76,8.53,1.63,23.8,10.39,35.07s24.43,30.36,25.5,45c1.43,19.51-13,35.7-14.81,51.49-.78,6.67.5,11.86,2.3,17.56,24.6,29.71,71.39,31.22,95.37,1.17,1.84-5.69,5-11.74,4.26-18.42-1.74-15.8-15.85-34.4-14.49-51.57,1.16-14.64,17-33.65,25.78-44.86S224,82.54,223.28,74A17.68,17.68,0,0,1,215,72.86Z"/><path class="cls-22" d="M102.65,92.42c20.34,50.08,73.89,55.68,98.14-1.64C172.39,100.15,102.65,92.42,102.65,92.42Z"/><path class="cls-23" d="M133.6,133.62c-16.91,30.07,43.66,31.72,30.74,2C156.33,141.28,140.75,140.87,133.6,133.62Z"/><path class="cls-24" d="M150.64,246.13A63.9,63.9,0,0,1,101.41,223l0-.07,0-.08c-1.69-5.33-3.13-10.71-2.31-17.75.77-6.65,3.71-13.28,6.83-20.3,4.33-9.75,8.8-19.84,8-31.1-1-13.55-14.61-30.95-23.61-42.47l-1.81-2.31C80,98.08,77.09,83,77.93,73.51l0-.46.46.07a17.62,17.62,0,0,0,8.09-1.06l.28-.12.2.23c14.08,16,50.29,19.74,57,19.33,2.44-.15,4.54-.29,6.23-.42V91l.56,0,.56-.05v.09c1.7.14,3.79.29,6.23.46,6.7.46,42.92-3.05,57.1-19l.2-.23.29.11a17.42,17.42,0,0,0,8.07,1.12l.46-.07,0,.47c.78,9.46-2.23,24.55-10.7,35.3l-1.84,2.32c-9.07,11.45-22.78,28.76-23.85,42.3-.77,9.69,3.47,19.91,7.57,29.79,3.17,7.64,6.16,14.85,6.92,21.7.58,5.29-1.2,10.1-2.92,14.75-.49,1.33-1,2.59-1.36,3.86l0,.07,0,.06a59.1,59.1,0,0,1-46,22Zm-48.5-23.67a63.08,63.08,0,0,0,49.29,22.79,58.3,58.3,0,0,0,45.3-21.61c.4-1.26.86-2.5,1.35-3.81,1.68-4.56,3.43-9.27,2.87-14.35-.74-6.73-3.71-13.88-6.86-21.46-4.14-10-8.42-20.3-7.64-30.2,1.09-13.8,14.91-31.24,24.05-42.77.63-.81,1.25-1.58,1.83-2.32,8.19-10.4,11.19-24.92,10.55-34.24a18.33,18.33,0,0,1-7.77-1.11c-7.67,8.43-21.17,13.13-31.19,15.59-11.51,2.83-22.38,3.72-26.42,3.45-2.64-.18-4.88-.35-6.65-.5h-.17c-1.76.14-4,.29-6.65.45-4,.25-14.9-.7-26.39-3.6-10-2.52-23.47-7.31-31.09-15.79A18.43,18.43,0,0,1,78.77,74c-.7,9.32,2.21,23.86,10.34,34.31l1.8,2.3c9.07,11.6,22.78,29.13,23.79,42.95.84,11.48-3.68,21.66-8,31.51-3.09,7-6,13.54-6.76,20.06C99.09,212,100.49,217.25,102.14,222.46Z"/><path class="cls-25" d="M150.89,90.26h-.24c-12.88.76-43.34-2.76-55.53-10.52,0,0,13.56,23.44,24.32,33.12,9.19,8.27,17,15.37,31.22,15s22.07-6.58,31.31-14.79c10.82-9.62,24.52-33,24.52-33C194.25,87.77,163.77,91.1,150.89,90.26Z"/><path class="cls-26" d="M125.87,118.94c6.68,5.36,13.71,9.19,24.22,8.91a38.14,38.14,0,0,0,22.1-7.3C158.31,108.28,138.21,110.8,125.87,118.94Z"/><path class="cls-27" d="M148.9,128.3c-10.62,0-17.47-4.34-23.3-9l-.47-.38.5-.33c12.8-8.44,33-10.58,46.86,1.65l.41.37-.45.32a38.81,38.81,0,0,1-22.35,7.38ZM126.62,119c5.82,4.61,12.73,8.73,23.46,8.44a37.81,37.81,0,0,0,21.4-6.9C158.16,109.14,139,111.08,126.62,119Z"/><path class="cls-24" d="M155,90c-1.36,0-2.61-.07-3.73-.1h-1c-1.12,0-2.37.09-3.73.08-14,0-40-3.43-51.24-10.56l-1.27-.81.75,1.3c.14.23,13.72,23.61,24.39,33.21l.07.07c8.94,8,16.66,15,30.2,15h1.21c14.16-.38,22-6.41,31.54-14.89,10.74-9.54,24.46-32.83,24.6-33.06l.76-1.3-1.27.8C195.05,86.84,169,90.06,155,90Zm26.74,22.76c-9.43,8.38-17.17,14.33-31.08,14.71s-21.81-6.66-30.9-14.84l-.07-.06c-9.17-8.26-20.55-26.84-23.51-31.8,11.9,6.7,36.76,9.89,50.39,9.94,1.51,0,2.9-.07,4.12-.1h.19c1.22,0,2.6.12,4.12.12,13.63,0,38.51-3,50.45-9.62C202.45,86.07,191,104.58,181.73,112.78Z"/><path class="cls-8" d="M86.54,72.13a17.49,17.49,0,0,1-10,.74A5.93,5.93,0,0,0,80.27,74a17.36,17.36,0,0,0,9.08-2.49c2.07-1.28,2-2.75,2-2.75S90.44,70.53,86.54,72.13Z"/><path class="cls-2" d="M104.93,154s-17.26.71-26,16.08c-8.08,14.27-4.77,43.71,10.83,65.55-8,1.6-21.94,7.46-21.94,7.46-4.21-2.39-11.28-1.24-13.58,2.95-1.95,3.53-.72,8.89,4.81,10.64,4.83,1.52,10.26-1.69,10.53-9.92,5.13-.78,23.21-5.06,23.21-5.06-7.34,6.15-17.26,15.52-17.26,15.52-7.57,0-13.34,4.7-13.59,10.52-.31,7.28,7.73,12.42,14.63,7.49,6.32-4.51,4.39-12.73,4-13.46,2.7-2.86,16.46-16.09,16.46-16.09a111.83,111.83,0,0,0-4.71,19.95c-6.41,2.37-8.9,6.17-8.63,11.21.42,7.68,9.89,9.46,14.81,3.95,3.56-4,2.77-10,.19-14.2,3.52-12.08,4.49-17.53,6.57-18.13s17.2,4.26,18.48,5.12c2.3,4.81,6.26,8.57,12.38,8.2,6.9-.42,9.68-8.76,4.06-13.46-3.89-3.26-10.31-2.11-12.33-1.07-4.88-1.85-18.16-8.3-18.4-10.26s4.17-33.22-7.09-50.82c8.7-6.77,7.57-21.79,7.57-21.79Z"/><path class="cls-28" d="M95.09,266.86c2,1.57,1.19,7.37-1.28,10.48s-6,4.57-7.85,2.69c-2.13-2.2-2.11-5.92.19-9.15S93.12,265.29,95.09,266.86Z"/><path class="cls-29" d="M76.28,259.57c1.53,2.11-.86,7.67-4.19,10.08s-7.28,2.89-8.57.5c-1.51-2.78-.46-6.48,2.74-9.06S74.75,257.46,76.28,259.57Z"/><path class="cls-30" d="M93,265.21c-.12,1,1.67,0,2.88,0,.5-1.27,4.66-19.78,4.88-20.51s-2-1.92-2.52-.24C96.34,250.83,93.27,263.06,93,265.21Z"/><path class="cls-31" d="M68.21,244.89c.62,2.26-3.16,6.2-6.73,7.18s-7,.13-7.39-2.29c-.39-2.82,1.67-5.61,5.18-6.79S67.59,242.62,68.21,244.89Z"/><path class="cls-4" d="M55.37,253.73c6.11,7.27,14,1.22,14.23-7,3.9-.59,15.31-3.21,20.54-4.43a22.6,22.6,0,0,0,4.38-1.48c-5.23.71-17.7,3.3-26.12,4.8C66.87,255.74,58.64,255.65,55.37,253.73Z"/><path class="cls-4" d="M94.47,248.16c1.07-1.26,2.68-2.21,3.57-4-2.42,1.32-15.84,12.94-19.64,16.5,2,11.46-6.6,16.91-13.58,13.53.57,2,6,5.19,11.77,1.05,6.31-4.53,4.39-12.73,4-13.46C82.58,259.65,90.34,252.13,94.47,248.16Z"/><path class="cls-4" d="M142.77,255.47c-2.45,4.23-12.45,6.33-17.83-3.71-8.39-3-18.11-6.3-20.76-5.18-3,1.28-4.54,10.07-7.2,19.89,3.74,11.06-1.08,16.86-8.51,16.48,3,1.45,6.4,1.92,10.08-2.2s2.77-10,.19-14.2c2.41-8.29,3.49-15.57,6.61-18.22,4.23.44,17.3,4.45,18.44,5.21,2.3,4.81,6.26,8.57,12.38,8.2a7.31,7.31,0,0,0,7-6.51Z"/><path class="cls-4" d="M110,164.34c-.71,8.06-5.08,15.14-10.82,17.72a25.13,25.13,0,0,1,3.25,4.07C105.69,183,111,177.13,110,164.34Z"/><path class="cls-8" d="M91.44,284.4a9.12,9.12,0,0,1-3-.51,7.65,7.65,0,0,1-5.17-7.07c-.3-5.44,2.54-9.22,8.66-11.54a114.23,114.23,0,0,1,4.16-18.12c-3.36,3.24-12.51,12.07-15,14.67.58,1.8,1.75,9.41-4.28,13.72a9.68,9.68,0,0,1-10.4.91,9.46,9.46,0,0,1-4.93-8.78c.26-6.15,6.2-10.83,13.85-10.94,1.1-1,9.15-8.59,15.76-14.23-4.57,1.07-16.65,3.86-21.11,4.59-.21,4-1.68,7.17-4.16,8.93a7.82,7.82,0,0,1-6.93,1,8.38,8.38,0,0,1-5.43-4.77,7.69,7.69,0,0,1,.37-6.5,8.72,8.72,0,0,1,5.43-3.94,11.93,11.93,0,0,1,8.56.71c1.68-.69,13.64-5.62,21.18-7.26a84.12,84.12,0,0,1-14-35.26c-1.8-12.08-.51-23.09,3.52-30.21a31.49,31.49,0,0,1,8.1-9.37,34.85,34.85,0,0,1,6.13-3.81A25.87,25.87,0,0,1,104.93,154c-.17,0-17.1,1.32-25.59,16.3-4,7-5.19,17.76-3.42,29.65a83,83,0,0,0,14.22,35.42l.39.56-.66.13C82,237.59,68.15,243.4,68,243.45l-.2.09-.19-.11a10.93,10.93,0,0,0-8.08-.73,7.8,7.8,0,0,0-4.9,3.51,6.8,6.8,0,0,0-.32,5.75,7.44,7.44,0,0,0,4.88,4.26,7,7,0,0,0,6.15-.91c2.33-1.64,3.68-4.7,3.81-8.61v-.36l.36-.06c5.06-.76,23-5,23.18-5.05l1.81-.42L93.1,242c-7.26,6.06-17.15,15.4-17.25,15.5l-.13.12h-.17c-7.25,0-12.91,4.37-13.15,10.1a8.58,8.58,0,0,0,4.47,8,8.83,8.83,0,0,0,9.47-.86c6-4.24,4.27-12.14,3.89-12.91l-.14-.27.21-.22c2.67-2.84,16.33-16,16.47-16.1L98,244.11l-.55,1.67a112.13,112.13,0,0,0-4.68,19.86l0,.27-.26.1c-5.88,2.16-8.61,5.68-8.34,10.76a6.73,6.73,0,0,0,4.59,6.29,8.91,8.91,0,0,0,9.46-2.6c3.5-3.91,2.52-9.83.14-13.68l-.11-.16.06-.19c.78-2.68,1.43-5,2-7.08,2.13-7.65,3-10.82,4.87-11.35,2.38-.7,17.74,4.44,18.85,5.18l.1.06,0,.11c1.83,3.85,5.4,8.36,11.95,8a6.89,6.89,0,0,0,6.3-4.72,7.29,7.29,0,0,0-2.49-8c-3.74-3.13-9.9-2-11.85-1l-.17.08-.18-.06c-3.48-1.32-18.39-8.14-18.69-10.62a22.52,22.52,0,0,1,.13-2.73c.59-8.17,2.37-33-7.15-47.9l-.22-.34.32-.24c8.41-6.56,7.84-21.3,7.84-21.45A28.82,28.82,0,0,1,109,177a20.19,20.19,0,0,1-6,9.27c9.44,15.15,7.66,39.92,7.08,48.1-.09,1.3-.17,2.32-.14,2.57.18,1.45,11.89,7.5,17.95,9.83,2.28-1,8.69-2.09,12.64,1.21a8.2,8.2,0,0,1,2.76,8.92,7.76,7.76,0,0,1-7.08,5.32c-7,.42-10.78-4.27-12.75-8.33-1.93-1.11-16.23-5.52-18-5-1.38.4-2.4,4.08-4.26,10.75-.56,2-1.2,4.29-2,6.9,2.47,4.11,3.41,10.36-.34,14.56A10,10,0,0,1,91.44,284.4Z"/><path class="cls-2" d="M203.34,154.26s17.25.83,25.87,16.25c8,14.31,4.51,43.73-11.23,65.48,8,1.65,21.9,7.59,21.9,7.59,4.22-2.36,11.28-1.17,13.56,3,1.92,3.54.66,8.9-4.88,10.61-4.84,1.49-10.25-1.75-10.47-10-5.12-.81-23.18-5.2-23.18-5.2,7.31,6.19,17.17,15.62,17.17,15.62,7.57.09,13.31,4.79,13.52,10.61.26,7.28-7.8,12.37-14.68,7.4-6.29-4.55-4.31-12.76-3.94-13.49C224.3,259.3,210.62,246,210.62,246a111.19,111.19,0,0,1,4.58,20c6.4,2.4,8.86,6.22,8.56,11.25-.46,7.68-9.94,9.41-14.83,3.87-3.54-4-2.71-10.07-.1-14.21-3.44-12.1-4.38-17.55-6.46-18.17s-17.23,4.16-18.51,5c-2.33,4.79-6.32,8.53-12.43,8.12-6.89-.46-9.62-8.82-4-13.48,3.91-3.24,10.32-2.05,12.34-1,4.89-1.82,18.22-8.19,18.47-10.14s-4-33.25,7.4-50.78c-8.66-6.82-7.43-21.84-7.43-21.84Z"/><path class="cls-32" d="M212.47,267.22c-2,1.56-1.23,7.37,1.22,10.49s6,4.61,7.83,2.74c2.14-2.18,2.15-5.9-.13-9.15S214.45,265.67,212.47,267.22Z"/><path class="cls-33" d="M231.33,260.05c-1.54,2.1.82,7.68,4.13,10.11s7.26,2.93,8.57.55c1.52-2.77.49-6.48-2.68-9.08S232.87,258,231.33,260.05Z"/><path class="cls-34" d="M214.57,265.58c.11,1-1.67-.05-2.88-.06-.49-1.28-4.54-19.81-4.76-20.54s2-1.91,2.53-.22C211.32,251.19,214.32,263.44,214.57,265.58Z"/><path class="cls-35" d="M239.49,245.42c-.63,2.26,3.12,6.22,6.69,7.23s7,.17,7.4-2.25c.41-2.82-1.63-5.63-5.13-6.82S240.13,243.16,239.49,245.42Z"/><path class="cls-4" d="M252.28,254.34c-6.16,7.23-14,1.14-14.19-7.1-3.9-.61-15.29-3.31-20.51-4.56a21.93,21.93,0,0,1-4.37-1.5c5.22.74,17.68,3.41,26.09,5C240.77,256.28,249,256.24,252.28,254.34Z"/><path class="cls-4" d="M213.21,248.52c-1.06-1.26-2.67-2.22-3.54-4.06,2.41,1.33,15.76,13,19.54,16.61-2.07,11.45,6.49,17,13.49,13.62-.58,2-6,5.16-11.78,1-6.28-4.57-4.31-12.76-3.94-13.49C225,260.1,217.31,252.53,213.21,248.52Z"/><path class="cls-4" d="M164.86,255.54c2.43,4.25,12.42,6.4,17.87-3.6,8.4-3,18.14-6.19,20.79-5.05,3,1.3,4.47,10.1,7.07,19.93-3.81,11,1,16.87,8.41,16.54-3,1.42-6.42,1.88-10.07-2.26s-2.71-10.07-.1-14.21c-2.36-8.3-3.4-15.59-6.5-18.25-4.23.4-17.33,4.33-18.47,5.09-2.33,4.79-6.32,8.53-12.43,8.12a7.31,7.31,0,0,1-7-6.56A3.89,3.89,0,0,0,164.86,255.54Z"/><path class="cls-4" d="M198.23,164.61c.66,8.07,5,15.18,10.7,17.79a24.7,24.7,0,0,0-3.27,4C202.4,183.29,197.09,177.4,198.23,164.61Z"/><path class="cls-8" d="M216,284.78a8.84,8.84,0,0,0,3-.48,7.66,7.66,0,0,0,5.22-7c.33-5.44-2.49-9.24-8.59-11.6a114.71,114.71,0,0,0-4.05-18.14c3.34,3.26,12.43,12.15,14.91,14.76-.59,1.8-1.82,9.4,4.2,13.75a9.65,9.65,0,0,0,10.38,1,9.45,9.45,0,0,0,5-8.75c-.23-6.15-6.14-10.87-13.78-11-1.1-1-9.09-8.65-15.68-14.33,4.57,1.09,16.63,4,21.09,4.72.18,4,1.63,7.18,4.1,8.95a7.82,7.82,0,0,0,6.92,1.08,8.34,8.34,0,0,0,5.46-4.74,7.69,7.69,0,0,0-.32-6.5,8.72,8.72,0,0,0-5.41-4,11.92,11.92,0,0,0-8.57.66c-1.67-.71-13.6-5.71-21.12-7.4a84.13,84.13,0,0,0,14.2-35.17c1.87-12.07.66-23.09-3.33-30.23a31.42,31.42,0,0,0-8-9.42,34.09,34.09,0,0,0-6.11-3.85,25.9,25.9,0,0,0-12.11-2.77c.17,0,17.09,1.43,25.49,16.46,3.9,7,5.08,17.79,3.23,29.67a83,83,0,0,1-14.44,35.34l-.39.55.66.14c7.9,1.62,21.67,7.51,21.81,7.57l.2.08.19-.1a10.92,10.92,0,0,1,8.09-.69,7.81,7.81,0,0,1,4.87,3.55,6.8,6.8,0,0,1,.29,5.75,7.5,7.5,0,0,1-4.91,4.23,7,7,0,0,1-6.15-.95c-2.31-1.66-3.64-4.72-3.75-8.63v-.37l-.36-.05c-5-.8-23-5.15-23.15-5.2l-1.8-.43,1.42,1.2c7.21,6.11,17.05,15.51,17.14,15.6l.13.12h.17c7.26.08,12.88,4.46,13.09,10.18a8.58,8.58,0,0,1-4.52,8,8.82,8.82,0,0,1-9.46-.92c-5.92-4.28-4.19-12.17-3.81-12.93l.14-.27-.21-.23c-2.66-2.85-16.23-16.06-16.37-16.2l-1.26-1.22.53,1.67A111.21,111.21,0,0,1,214.76,266l0,.27.26.1c5.87,2.2,8.58,5.74,8.27,10.81a6.73,6.73,0,0,1-4.62,6.27,8.91,8.91,0,0,1-9.44-2.66c-3.48-3.94-2.47-9.85-.06-13.68l.1-.17-.05-.19c-.76-2.68-1.4-5-2-7.08-2.08-7.67-2.94-10.84-4.79-11.39-2.38-.71-17.78,4.33-18.89,5.06l-.1.07,0,.11c-1.86,3.83-5.45,8.32-12,7.87a6.88,6.88,0,0,1-6.27-4.76,7.31,7.31,0,0,1,2.54-7.95c3.76-3.1,9.92-1.95,11.85-.94l.18.09.18-.07c3.49-1.3,18.43-8,18.75-10.5a22.65,22.65,0,0,0-.11-2.74c-.54-8.17-2.16-33,7.45-47.85l.21-.33-.31-.25c-8.37-6.61-7.71-21.35-7.7-21.5a28.69,28.69,0,0,0,.88,12.63,20.2,20.2,0,0,0,6,9.31c-9.53,15.09-7.91,39.87-7.38,48,.08,1.3.15,2.32.12,2.57-.19,1.45-11.93,7.43-18,9.72-2.27-1.06-8.67-2.14-12.64,1.14a8.17,8.17,0,0,0-2.82,8.89,7.76,7.76,0,0,0,7.05,5.37c7,.46,10.8-4.2,12.79-8.25,1.94-1.1,16.28-5.43,18.06-4.9,1.38.41,2.38,4.09,4.19,10.78.55,2,1.17,4.3,1.91,6.91-2.5,4.1-3.48,10.34.25,14.56A10,10,0,0,0,216,284.78Z"/><path class="cls-8" d="M93.69,176.59c.06.06,5.63,6.36,6.84,8.68l.65-.34C98.75,180.19,93.69,176.59,93.69,176.59Z"/><path class="cls-24" d="M149.54,138.88a29.34,29.34,0,0,1-15.94-5.26s5.24,6.25,15.92,6.28,14.82-4.24,14.82-4.24-4.93,3.25-14.78,3.22Z"/><path class="cls-36" d="M154.43,66.41c-2,.55-2.83,3.74-1.79,7.14s3.53,5.69,5.56,5.14S161,75,160,71.56,156.47,65.86,154.43,66.41Z"/><path class="cls-37" d="M155.84,67.55c-1.56.45-2.18,3-1.38,5.82s2.71,4.64,4.26,4.19,2.18-3,1.38-5.82S157.4,67.1,155.84,67.55Z"/><path class="cls-8" d="M156.32,67a2.35,2.35,0,0,0-.6.08,3,3,0,0,0-1.88,2.37,8,8,0,0,0,.2,4c.76,2.65,2.53,4.57,4.2,4.58a2,2,0,0,0,.6-.09,2.92,2.92,0,0,0,1.88-2.36,8.11,8.11,0,0,0-.19-4C159.76,69,158,67.05,156.32,67Zm3.55,8.38c-.23.94-.67,1.55-1.27,1.72a1.34,1.34,0,0,1-.35,0c-1.28,0-2.72-1.7-3.37-4a7.14,7.14,0,0,1-.18-3.55A2.12,2.12,0,0,1,156,68a1.49,1.49,0,0,1,.36,0c1.27,0,2.71,1.7,3.36,3.94A7.31,7.31,0,0,1,159.87,75.42Z"/><path class="cls-38" d="M141.58,67.5c-1.55-.46-3.47,1.41-4.28,4.17s-.22,5.37,1.34,5.83,3.47-1.41,4.29-4.17S143.14,68,141.58,67.5Z"/><path class="cls-8" d="M141.71,67.08a2.08,2.08,0,0,0-.6-.09c-1.68,0-3.46,1.91-4.24,4.56a8.13,8.13,0,0,0-.22,4,2.94,2.94,0,0,0,1.86,2.37,2.1,2.1,0,0,0,.61.09c1.67,0,3.45-1.91,4.23-4.56a8.13,8.13,0,0,0,.22-4A2.94,2.94,0,0,0,141.71,67.08Zm.79,6.13c-.66,2.24-2.11,3.92-3.38,3.92a1.49,1.49,0,0,1-.36,0,2.12,2.12,0,0,1-1.25-1.73,7.17,7.17,0,0,1,.21-3.55c.66-2.24,2.11-3.93,3.38-3.93a1,1,0,0,1,.36.06,2.09,2.09,0,0,1,1.25,1.72A7.1,7.1,0,0,1,142.5,73.21Z"/><path class="cls-8" d="M215.12,72.52c-3.89-1.61-4.73-3.35-4.74-3.36s-.21,1.28,1.44,2.43a15.74,15.74,0,0,0,3,1.61,17.33,17.33,0,0,0,6.54,1.27,6.68,6.68,0,0,0,3.76-1.14A17.32,17.32,0,0,1,215.12,72.52Z"/><path class="cls-39" d="M74.33,66a2.68,2.68,0,1,0,2.1,2.62A2.39,2.39,0,0,0,74.33,66Z"/><path class="cls-40" d="M66,60.89c-1.82,0-3.3,2.31-3.31,5.16s1.46,5.18,3.28,5.18,3.3-2.3,3.31-5.16S67.77,60.9,66,60.89Z"/><path class="cls-41" d="M63.35,76.41c-1.35.58-1.59,3-.54,5.47s3,4,4.34,3.38,1.59-3,.54-5.47S64.7,75.83,63.35,76.41Z"/><path class="cls-42" d="M227.37,66.49a2.69,2.69,0,1,0,2.09,2.63A2.42,2.42,0,0,0,227.37,66.49Z"/><path class="cls-43" d="M235.78,61.42c-1.82,0-3.31,2.31-3.32,5.16s1.46,5.18,3.29,5.18,3.3-2.3,3.31-5.16S237.6,61.43,235.78,61.42Z"/><path class="cls-44" d="M238.28,77c-1.34-.58-3.29.92-4.36,3.35s-.83,4.89.51,5.48,3.3-.92,4.36-3.35S239.63,77.54,238.28,77Z"/><path class="cls-45" d="M277.42,145.39A2.63,2.63,0,1,0,280,148,2.61,2.61,0,0,0,277.42,145.39Z"/><path class="cls-46" d="M287.69,140.33c-2.22,0-4,2.3-4,5.16s1.78,5.17,4,5.18,4-2.3,4-5.16S289.91,140.34,287.69,140.33Z"/><path class="cls-47" d="M290.76,155.87c-1.64-.59-4,.9-5.32,3.34s-1,4.89.62,5.47,4-.91,5.32-3.34S292.4,156.45,290.76,155.87Z"/><path class="cls-48" d="M31.07,142.73a2.63,2.63,0,1,1-2.86,2.61A2.74,2.74,0,0,1,31.07,142.73Z"/><path class="cls-49" d="M19.7,137.6c2.47,0,4.46,2.33,4.45,5.18s-2,5.17-4.48,5.16-4.47-2.33-4.46-5.19S17.23,137.59,19.7,137.6Z"/><path class="cls-49" d="M16.18,153.11c1.83-.58,4.47.94,5.9,3.38s1.1,4.89-.73,5.47-4.47-.93-5.89-3.38S14.36,153.69,16.18,153.11Z"/><path class="cls-17" d="M108.13,85.45c.25.39,39.51,12,86.6.07C192.37,85.25,151,114.92,108.13,85.45Z"/></g></g></svg>