<svg id="Layer_1" data-name="Layer 1" xmlns="http://www.w3.org/2000/svg" viewBox="0 0 202 64"><defs><style>.cls-1{fill:#72331d;}</style></defs><path class="cls-1" d="M67.37,36.69a16.4,16.4,0,0,1-1,5.75,12.1,12.1,0,0,1-7,7.23,15,15,0,0,1-5.57,1,28.92,28.92,0,0,1-5.54-.58,26.21,26.21,0,0,1-5.21-1.57V12.61h7.38V29.09A8.7,8.7,0,0,1,53.61,27a11,11,0,0,1,4-.71,10.43,10.43,0,0,1,4,.74A8.59,8.59,0,0,1,64.7,29.1a9.7,9.7,0,0,1,2,3.3A12.38,12.38,0,0,1,67.37,36.69ZM60,38a4.88,4.88,0,0,0-1.11-3.39,4,4,0,0,0-3.14-1.23,5.33,5.33,0,0,0-2.24.45,5.16,5.16,0,0,0-2.75,3A6.2,6.2,0,0,0,50.39,39V43.2a6.77,6.77,0,0,0,1.75.66,10.88,10.88,0,0,0,2,.15,5.76,5.76,0,0,0,4.28-1.58A6,6,0,0,0,60,38Z"/><path class="cls-1" d="M98.56,38.38a14.24,14.24,0,0,1-.91,5.26,10.66,10.66,0,0,1-2.6,3.84,11.28,11.28,0,0,1-4,2.38,17.26,17.26,0,0,1-10.45,0,11.37,11.37,0,0,1-4-2.38,10.84,10.84,0,0,1-2.62-3.84A13.64,13.64,0,0,1,73,38.38a13.47,13.47,0,0,1,.91-5.12,10.52,10.52,0,0,1,6.6-6.2A17.73,17.73,0,0,1,91,27a11,11,0,0,1,4,2.32,10.33,10.33,0,0,1,2.6,3.82A14.06,14.06,0,0,1,98.56,38.38Zm-7.38,0a5.53,5.53,0,0,0-1.49-4.12,5.46,5.46,0,0,0-4-1.47,5.15,5.15,0,0,0-4,1.47,5.82,5.82,0,0,0-1.37,4.12,6.12,6.12,0,0,0,1.34,4.23,5.09,5.09,0,0,0,4,1.5,5.43,5.43,0,0,0,4.07-1.47A5.88,5.88,0,0,0,91.18,38.39Z"/><path class="cls-1" d="M121.42,50.67V36.81a5.59,5.59,0,0,0-.36-2.24,3.22,3.22,0,0,0-.86-1.21,2.13,2.13,0,0,0-1-.48,7.41,7.41,0,0,0-1-.08A5.59,5.59,0,0,0,117,33a4.18,4.18,0,0,0-1.7,1,7,7,0,0,0-1.52,2.35,10.7,10.7,0,0,0-.67,4.18V50.67h-7.38V34.53a27.83,27.83,0,0,0-.33-4.21,13.49,13.49,0,0,0-.89-3.4h7.38a10.76,10.76,0,0,1,.47,1.27,14.12,14.12,0,0,1,.31,1.45,11.64,11.64,0,0,1,3.8-2.56,11.12,11.12,0,0,1,4.14-.83,8.07,8.07,0,0,1,3.23.65,7.48,7.48,0,0,1,2.58,1.81,8.3,8.3,0,0,1,1.72,2.86,11.19,11.19,0,0,1,.62,3.81V50.67Z"/><path class="cls-1" d="M158.93,33a6.37,6.37,0,0,1-1,3.44A8.32,8.32,0,0,1,155.16,39a15.21,15.21,0,0,1-4.32,1.69,24,24,0,0,1-5.66.61c-.19,0-.41,0-.66,0s-.56,0-.9,0a5.1,5.1,0,0,0,1.66,3.3,5.24,5.24,0,0,0,3.59,1.19A16.42,16.42,0,0,0,157,43.29v5.82a15.64,15.64,0,0,1-4,1.75,16.83,16.83,0,0,1-4.35.53,14.54,14.54,0,0,1-5-.83,10.32,10.32,0,0,1-3.8-2.42,10.72,10.72,0,0,1-2.38-3.77,13.81,13.81,0,0,1-.84-5,15.33,15.33,0,0,1,1-5.57,12.86,12.86,0,0,1,2.71-4.36,12.17,12.17,0,0,1,4.19-2.83,14.06,14.06,0,0,1,5.39-1,10.14,10.14,0,0,1,6.57,2A6.5,6.5,0,0,1,158.93,33Zm-7.38.55a1.94,1.94,0,0,0-.76-1.53,2.92,2.92,0,0,0-1.92-.63,4.37,4.37,0,0,0-3.16,1.3A6.26,6.26,0,0,0,144,36.24a5.06,5.06,0,0,0,.89.11h.82Q151.54,36.35,151.55,33.52Z"/></svg>