<?xml version="1.0" encoding="utf-8"?>
<!-- Generator: Adobe Illustrator 22.0.0, SVG Export Plug-In . SVG Version: 6.00 Build 0)  -->
<svg version="1.1" id="Layer_1" xmlns="http://www.w3.org/2000/svg" xmlns:xlink="http://www.w3.org/1999/xlink" x="0px" y="0px"
	 viewBox="0 0 202 64" style="enable-background:new 0 0 202 64;" xml:space="preserve">
<style type="text/css">
	.st0{fill:#72331D;}
</style>
<path class="st0" d="M79.9,21.2c-1.1-0.9-2.3-1.7-3.6-2.3c-1.1-0.4-2.3-0.7-3.4-0.6c-0.8,0-1.6,0.1-2.3,0.3c-0.8,0.2-1.5,0.5-2,1.1
	c-0.6,0.7-1.1,1.6-1.3,2.5c-0.4,1.4-0.6,2.9-0.6,4.4h5.7v5.3h-5.7v19.1h-7.4V31.8h-4.6v-5.3h4.5c-0.1-2.4,0.2-4.9,0.9-7.2
	c0.4-1.6,1.3-3.1,2.4-4.3c1.1-1,2.4-1.8,3.8-2.1c1.7-0.4,3.4-0.6,5.1-0.6c1.6,0,3.3,0.2,4.8,0.7c1.6,0.5,3.1,1.3,4.6,2.2L79.9,21.2z
	"/>
<path class="st0" d="M117.1,44.1c0.1,2.1-0.8,4.1-2.3,5.5c-1.9,1.5-4.2,2.2-6.6,2.1c-1.9,0-3.8-0.2-5.6-0.6c-1.5-0.3-3-0.8-4.4-1.5
	L99,44c2.6,1.5,5.5,2.3,8.4,2.5c0.6,0.1,1.3-0.1,1.8-0.5c0.3-0.3,0.5-0.7,0.5-1.2c0-0.5-0.1-1-0.4-1.4c-0.6-0.6-1.3-1-2-1.3
	c-1.3-0.6-2.7-1.2-3.9-2c-1-0.6-1.9-1.3-2.7-2.1c-0.6-0.7-1.2-1.4-1.5-2.3c-0.3-0.9-0.5-1.8-0.5-2.7c-0.1-2.1,0.9-4.2,2.7-5.4
	c2.1-1.4,4.5-2,7-1.9c1.4,0,2.8,0.1,4.1,0.4c1.4,0.3,2.8,0.8,4.2,1.4l-0.9,5.5c-1.2-0.7-2.5-1.2-3.8-1.5c-1.2-0.3-2.4-0.4-3.7-0.4
	c-0.6-0.1-1.3,0.1-1.8,0.5c-0.3,0.3-0.5,0.8-0.5,1.2c0,0.6,0.3,1.2,0.8,1.5c0.9,0.6,1.9,1.1,2.9,1.5c1.2,0.6,2.3,1.2,3.4,1.9
	c0.8,0.5,1.6,1.2,2.3,1.9c0.6,0.6,1,1.3,1.3,2C117,42.5,117.1,43.3,117.1,44.1z"/>
<path class="st0" d="M137.7,50.9V37.1c0-0.7-0.1-1.4-0.3-2.1c-0.1-0.5-0.4-0.9-0.7-1.2c-0.3-0.3-0.6-0.5-1-0.6
	c-0.4-0.1-0.8-0.1-1.2-0.1c-0.7,0-1.3,0.2-1.9,0.6c-0.6,0.4-1.1,0.9-1.6,1.5c-0.5,0.7-0.9,1.5-1.2,2.3c-0.3,0.9-0.4,1.8-0.4,2.8
	v10.8h-7.4v-38h7.3v16.3c0.8-0.9,1.9-1.7,3.1-2.1c1.2-0.4,2.5-0.7,3.7-0.6c1.1,0,2.2,0.1,3.2,0.4c1,0.3,2,0.7,2.8,1.4
	c0.9,0.7,1.5,1.5,2,2.5c0.5,1.2,0.8,2.5,0.8,3.8v16.3H137.7z"/>
<g>
	<rect x="84" y="26.5" class="st0" width="7.4" height="24.4"/>
	<rect x="84" y="15.1" class="st0" width="7.4" height="7.2"/>
</g>
</svg>
