<svg id="Layer_1" data-name="Layer 1" xmlns="http://www.w3.org/2000/svg" viewBox="0 0 202 64"><defs><style>.cls-1{fill:#72331d;}</style></defs><path class="cls-1" d="M72.42,46.93V34.86c0-2.18-.31-3.69-.93-4.54A3,3,0,0,0,69,29.06a3.83,3.83,0,0,0-1.65.39,4.36,4.36,0,0,0-1.52,1.3,6.73,6.73,0,0,0-1.1,2.42,14.66,14.66,0,0,0-.41,3.8v10H56.88V34.86a8.57,8.57,0,0,0-.86-4.4,3.06,3.06,0,0,0-2.85-1.4,4,4,0,0,0-3.28,1.87q-1.38,1.88-1.38,6v10H41.12V31.6c0-.9,0-1.72,0-2.45s-.1-1.43-.19-2.07a18.58,18.58,0,0,0-.39-1.89c-.17-.61-.36-1.25-.59-1.93h7.39l.41,1.29c.09.29.2.7.31,1.24a16.54,16.54,0,0,1,3.84-2.36,12.43,12.43,0,0,1,5.06-.92,8.74,8.74,0,0,1,3.79.8,5.61,5.61,0,0,1,2.5,2.25,8.21,8.21,0,0,1,3.72-2.27,15.33,15.33,0,0,1,4.78-.78,7.89,7.89,0,0,1,6,2.21q2.11,2.21,2.11,6.41v15.8Z"/><path class="cls-1" d="M109.77,29.23a6.3,6.3,0,0,1-1,3.44A8.29,8.29,0,0,1,106,35.3,15.17,15.17,0,0,1,101.67,37,23.87,23.87,0,0,1,96,37.6c-.2,0-.42,0-.67,0s-.55,0-.9,0a5.11,5.11,0,0,0,1.67,3.3A5.24,5.24,0,0,0,99.71,42a16.44,16.44,0,0,0,8.17-2.49v5.82a15.79,15.79,0,0,1-4,1.75,17,17,0,0,1-4.36.53,14.48,14.48,0,0,1-5-.83,10.16,10.16,0,0,1-3.8-2.42,10.74,10.74,0,0,1-2.39-3.77,14,14,0,0,1-.83-5,15.33,15.33,0,0,1,1-5.57,13,13,0,0,1,2.72-4.36,12.08,12.08,0,0,1,4.19-2.83,14,14,0,0,1,5.38-1,10.17,10.17,0,0,1,6.58,2A6.53,6.53,0,0,1,109.77,29.23Zm-7.38.55a2,2,0,0,0-.76-1.53,2.92,2.92,0,0,0-1.92-.63,4.4,4.4,0,0,0-3.17,1.3,6.19,6.19,0,0,0-1.7,3.58,5.07,5.07,0,0,0,.88.11h.82Q102.39,32.61,102.39,29.78Z"/><path class="cls-1" d="M132.9,46.93c0-.26,0-.58-.05-1s-.07-.64-.09-1,0-.83-.09-1.28a8.78,8.78,0,0,1-3.61,2.86,11.67,11.67,0,0,1-4.73,1,8.78,8.78,0,0,1-7.09-3q-2.53-3-2.53-8.55,0-6.72,4.08-10.35C121.5,23.17,125.38,22,130.4,22c.83,0,1.58,0,2.25.05s1.35.1,2,.2,1.37.21,2.08.36,1.5.35,2.36.61V38.94c0,.85,0,1.74.06,2.69s.09,1.8.16,2.58.15,1.83.23,2.72Zm-1.16-18.09a11.46,11.46,0,0,0-1.75-.28q-.8-.06-1.47-.06a5.93,5.93,0,0,0-4.74,2,8.14,8.14,0,0,0-1.69,5.47,5.41,5.41,0,0,0,1,3.55A3.53,3.53,0,0,0,126,40.71a5,5,0,0,0,2.23-.5,5.56,5.56,0,0,0,1.84-1.41,6.69,6.69,0,0,0,1.24-2.17,8.18,8.18,0,0,0,.45-2.8Z"/><path class="cls-1" d="M148.56,46.93V27.78h-4.89V22.51h4.89V16.35h7.27v6.16h6.27v5.27h-6.27V46.93Z"/></svg>