<svg id="Layer_1" data-name="Layer 1" xmlns="http://www.w3.org/2000/svg" viewBox="0 0 206.3 56.17"><defs><style>.cls-1{fill:#1b3ac2;}</style></defs><path class="cls-1" d="M47.73,32.55a14.34,14.34,0,0,1-.85,5.07A10.63,10.63,0,0,1,40.68,44a13.1,13.1,0,0,1-4.92.89,25.09,25.09,0,0,1-4.89-.51A23.28,23.28,0,0,1,26.27,43V11.28h6.52V25.84A7.59,7.59,0,0,1,35.58,24a9.81,9.81,0,0,1,3.56-.62,9.05,9.05,0,0,1,3.5.65,7.45,7.45,0,0,1,2.73,1.86,8.48,8.48,0,0,1,1.74,2.91A11.14,11.14,0,0,1,47.73,32.55Zm-6.52,1.18a4.31,4.31,0,0,0-1-3,3.55,3.55,0,0,0-2.77-1.09,4.55,4.55,0,0,0-4.41,3.06,5.5,5.5,0,0,0-.31,1.86V38.3a6.15,6.15,0,0,0,1.54.57,9.34,9.34,0,0,0,1.78.14,5.08,5.08,0,0,0,3.78-1.4A5.27,5.27,0,0,0,41.21,33.73Z"/><path class="cls-1" d="M68.51,44.3a8.43,8.43,0,0,1-.42-1.13c-.08-.29-.17-.72-.27-1.27a9.62,9.62,0,0,1-6.91,3,7,7,0,0,1-2.91-.6,7.36,7.36,0,0,1-2.36-1.64,7.2,7.2,0,0,1-1.54-2.53,9.58,9.58,0,0,1-.54-3.29c0-1.34,0-2.58.1-3.72s.11-2.25.15-3.3,0-2.09,0-3.14-.12-2.17-.25-3.34h6.52c.1,1.07.15,2.1.17,3.09s0,2,0,2.95,0,2-.1,3-.07,2.08-.07,3.21a5.45,5.45,0,0,0,.3,2,2.36,2.36,0,0,0,.79,1.06,2.29,2.29,0,0,0,1,.4,6.22,6.22,0,0,0,.87.08,5.4,5.4,0,0,0,1-.19,3.42,3.42,0,0,0,1.48-.9,6,6,0,0,0,1.31-2.08,10,10,0,0,0,.56-3.68V23.33H74V37.58a23.86,23.86,0,0,0,.29,3.72,12.12,12.12,0,0,0,.78,3Z"/><path class="cls-1" d="M96.73,29.35c-.46-.09-.82-.16-1.08-.19a7.61,7.61,0,0,0-.88-.05A5,5,0,0,0,90.53,31a9.41,9.41,0,0,0-1.45,5.69v8.18H82.57V30.74c0-.8,0-1.5,0-2.09A14.23,14.23,0,0,0,82.42,27a12.91,12.91,0,0,0-.27-1.51c-.11-.49-.27-1.06-.46-1.7h6.18c.1.4.2.75.28,1a7.4,7.4,0,0,1,.18.8c0,.26.06.52.1.81a9.84,9.84,0,0,1,0,1,11,11,0,0,1,2.79-3.19,5.31,5.31,0,0,1,3.11-.93,4.72,4.72,0,0,1,1.15.12c.31.09.74.25,1.3.48Z"/><path class="cls-1" d="M115.69,29.35c-.46-.09-.81-.16-1.08-.19a7.61,7.61,0,0,0-.88-.05A5,5,0,0,0,109.49,31a9.42,9.42,0,0,0-1.44,5.69v8.18h-6.52V30.74c0-.8,0-1.5,0-2.09s-.06-1.14-.13-1.66-.15-1-.26-1.51-.27-1.06-.47-1.7h6.19c.1.4.19.75.27,1a4.5,4.5,0,0,1,.18.8c0,.26.07.52.1.81a9.84,9.84,0,0,1,0,1,11,11,0,0,1,2.79-3.19,5.33,5.33,0,0,1,3.11-.93,4.66,4.66,0,0,1,1.15.12c.31.09.74.25,1.3.48Z"/><path class="cls-1" d="M140.09,34a12.36,12.36,0,0,1-.8,4.64A9.29,9.29,0,0,1,137,42.07a10,10,0,0,1-3.57,2.1,15.12,15.12,0,0,1-9.22,0,10,10,0,0,1-3.56-2.1,9.61,9.61,0,0,1-2.32-3.39,12.16,12.16,0,0,1-.82-4.64,12,12,0,0,1,.8-4.53A9.28,9.28,0,0,1,124.14,24a15.76,15.76,0,0,1,9.29,0A9.91,9.91,0,0,1,137,26.07a9.21,9.21,0,0,1,2.29,3.37A12.26,12.26,0,0,1,140.09,34Zm-6.51,0a4.86,4.86,0,0,0-1.32-3.63,4.78,4.78,0,0,0-3.54-1.3,4.5,4.5,0,0,0-3.48,1.3A5.11,5.11,0,0,0,124,34a5.38,5.38,0,0,0,1.19,3.74,4.45,4.45,0,0,0,3.51,1.33,4.8,4.8,0,0,0,3.59-1.3A5.16,5.16,0,0,0,133.58,34Z"/><path class="cls-1" d="M172.92,42.49a3.8,3.8,0,0,1-1.29,1.85,4,4,0,0,1-2.23.55,3.66,3.66,0,0,1-2.26-.6,4.13,4.13,0,0,1-1.27-2L161.7,29.59l-4.36,13a3.18,3.18,0,0,1-1.25,1.8,4.3,4.3,0,0,1-2.32.55,8.34,8.34,0,0,1-1-.07,3.15,3.15,0,0,1-.94-.31,2.69,2.69,0,0,1-.83-.77,4.86,4.86,0,0,1-.68-1.39l-6.86-19H150l2.84,8.7c.1.32.21.69.32,1.12s.24.85.37,1.27.28,1,.44,1.53a10.38,10.38,0,0,1,.29-1.2c.1-.35.21-.72.32-1.12s.22-.77.32-1.12l2.75-9.18h7.93l2.94,9.61q.1.42.27.93c.12.33.22.66.32,1a6.6,6.6,0,0,1,.3,1.1l.29-1c.16-.63.34-1.24.54-1.81l2.89-9.8H180Z"/></svg>