<svg id="Layer_1" data-name="Layer 1" xmlns="http://www.w3.org/2000/svg" viewBox="0 0 206.3 56.17"><defs><style>.cls-1{fill:#1b3ac2;}</style></defs><path class="cls-1" d="M83.19,44.84c0-.19-.07-.42-.11-.68s-.06-.49-.1-.79-.07-.65-.1-1.08a9,9,0,0,1-3.24,2.43,10.16,10.16,0,0,1-3.88.71,9.64,9.64,0,0,1-3.91-.76,8.69,8.69,0,0,1-3-2.11A9.52,9.52,0,0,1,67,39.31,12.79,12.79,0,0,1,66.28,35a14.6,14.6,0,0,1,.81-4.95,11.59,11.59,0,0,1,2.25-3.89,9.89,9.89,0,0,1,3.45-2.55,10.67,10.67,0,0,1,4.41-.91,15.05,15.05,0,0,1,2.16.15,12.37,12.37,0,0,1,2.4.64V10.69h6.52v26.7c0,.56,0,1.26.07,2.11s.11,1.67.17,2.45.15,1.88.25,2.89ZM81.76,29.11A7.34,7.34,0,0,0,80,28.62a16.44,16.44,0,0,0-1.76-.09,4.9,4.9,0,0,0-3.94,1.69,6.85,6.85,0,0,0-1.46,4.63,5,5,0,0,0,1,3.35,3.49,3.49,0,0,0,2.8,1.2,5.83,5.83,0,0,0,2-.34,3.75,3.75,0,0,0,1.63-1.18,6.1,6.1,0,0,0,1.09-2.18,11.73,11.73,0,0,0,.41-3.35Z"/><path class="cls-1" d="M114.25,29.21a5.55,5.55,0,0,1-.87,3,7.36,7.36,0,0,1-2.46,2.33,13.78,13.78,0,0,1-3.82,1.49,21.2,21.2,0,0,1-5,.54l-.59,0c-.22,0-.49,0-.8,0a4.56,4.56,0,0,0,1.47,2.92,4.68,4.68,0,0,0,3.17,1.05,14.49,14.49,0,0,0,7.22-2.2v5.14A14.06,14.06,0,0,1,109,45a14.87,14.87,0,0,1-3.85.47,12.44,12.44,0,0,1-4.43-.74,9.11,9.11,0,0,1-3.36-2.13,9.56,9.56,0,0,1-2.11-3.33,12.27,12.27,0,0,1-.73-4.38A13.68,13.68,0,0,1,95.41,30a11.51,11.51,0,0,1,2.4-3.85,10.55,10.55,0,0,1,3.7-2.49,12.37,12.37,0,0,1,4.75-.89,9,9,0,0,1,5.81,1.77A5.74,5.74,0,0,1,114.25,29.21Zm-6.52.49a1.71,1.71,0,0,0-.67-1.35,2.58,2.58,0,0,0-1.7-.56,3.9,3.9,0,0,0-2.79,1.15,5.44,5.44,0,0,0-1.5,3.16,3.76,3.76,0,0,0,.78.1h.72Q107.73,32.2,107.73,29.7Z"/><path class="cls-1" d="M133.5,44.84V32.61a5.09,5.09,0,0,0-.31-2,3,3,0,0,0-.76-1.06,1.85,1.85,0,0,0-.93-.42,5.66,5.66,0,0,0-.84-.07,5.21,5.21,0,0,0-1,.18,3.63,3.63,0,0,0-1.49.9,6,6,0,0,0-1.35,2.08,9.52,9.52,0,0,0-.59,3.68v8.93h-6.51V30.59a23.9,23.9,0,0,0-.3-3.72,11.69,11.69,0,0,0-.78-3h6.52a9.74,9.74,0,0,1,.41,1.13c.08.29.17.72.27,1.27A10.33,10.33,0,0,1,129.17,24a9.71,9.71,0,0,1,3.65-.74,7,7,0,0,1,2.86.58A6.79,6.79,0,0,1,138,25.45,7.47,7.47,0,0,1,139.47,28a9.63,9.63,0,0,1,.55,3.36v13.5Z"/></svg>