<svg id="Layer_1" data-name="Layer 1" xmlns="http://www.w3.org/2000/svg" viewBox="0 0 206.3 56.17"><defs><style>.cls-1{fill:#1b3ac2;}</style></defs><path class="cls-1" d="M54,44.79c0-.19-.06-.42-.1-.68s-.07-.49-.1-.79-.07-.65-.1-1.07a9,9,0,0,1-3.24,2.42,10.18,10.18,0,0,1-3.89.71,9.59,9.59,0,0,1-3.9-.76,8.66,8.66,0,0,1-3-2.1,9.67,9.67,0,0,1-1.92-3.26A12.54,12.54,0,0,1,37.07,35a14.5,14.5,0,0,1,.81-4.94,11.73,11.73,0,0,1,2.26-3.9,10.14,10.14,0,0,1,3.45-2.55A10.67,10.67,0,0,1,48,22.69a15.05,15.05,0,0,1,2.16.15,12.75,12.75,0,0,1,2.4.64V10.64h6.51V37.35c0,.55,0,1.25.08,2.1s.1,1.67.17,2.45.15,1.88.24,2.89ZM52.56,29.07a7,7,0,0,0-1.81-.5A16.58,16.58,0,0,0,49,28.48a4.94,4.94,0,0,0-4,1.69,6.85,6.85,0,0,0-1.45,4.63,5,5,0,0,0,1,3.35,3.45,3.45,0,0,0,2.8,1.21,5.82,5.82,0,0,0,2-.35,3.74,3.74,0,0,0,1.63-1.17,6.28,6.28,0,0,0,1.1-2.18,11.85,11.85,0,0,0,.41-3.36Z"/><path class="cls-1" d="M85,29.16a5.55,5.55,0,0,1-.87,3,7.27,7.27,0,0,1-2.46,2.33A13.4,13.4,0,0,1,77.9,36a21.28,21.28,0,0,1-5,.54l-.59,0c-.22,0-.48,0-.79,0A4.49,4.49,0,0,0,73,39.43a4.66,4.66,0,0,0,3.17,1,14.52,14.52,0,0,0,7.22-2.2v5.14A14.26,14.26,0,0,1,79.83,45a14.94,14.94,0,0,1-3.85.46,12.77,12.77,0,0,1-4.44-.73,8.89,8.89,0,0,1-3.35-2.14,9.42,9.42,0,0,1-2.11-3.33,12.27,12.27,0,0,1-.73-4.38,13.68,13.68,0,0,1,.85-4.93,11.52,11.52,0,0,1,2.4-3.84,10.67,10.67,0,0,1,3.7-2.5,12.45,12.45,0,0,1,4.76-.89,8.92,8.92,0,0,1,5.8,1.77A5.71,5.71,0,0,1,85,29.16Zm-6.51.49a1.69,1.69,0,0,0-.68-1.34,2.51,2.51,0,0,0-1.69-.57,3.9,3.9,0,0,0-2.79,1.15,5.5,5.5,0,0,0-1.51,3.16,3.92,3.92,0,0,0,.78.1h.73Q78.53,32.15,78.53,29.65Z"/><path class="cls-1" d="M105.92,38.82a6.17,6.17,0,0,1-2.08,4.9A8.63,8.63,0,0,1,98,45.53,24.29,24.29,0,0,1,93,45a15.08,15.08,0,0,1-3.92-1.32l.83-5a16.76,16.76,0,0,0,7.45,2.2,2.16,2.16,0,0,0,1.55-.46,1.45,1.45,0,0,0,.46-1.06A1.85,1.85,0,0,0,99,38.2a5.62,5.62,0,0,0-1.78-1.15,29.06,29.06,0,0,1-3.46-1.76,11.37,11.37,0,0,1-2.35-1.84,6,6,0,0,1-1.32-2A6.73,6.73,0,0,1,89.7,29a5.53,5.53,0,0,1,2.37-4.78,10.4,10.4,0,0,1,6.19-1.69,19.22,19.22,0,0,1,3.65.32,16.72,16.72,0,0,1,3.66,1.25L104.78,29a11.28,11.28,0,0,0-3.36-1.35,14.88,14.88,0,0,0-3.22-.37,2.21,2.21,0,0,0-1.56.42,1.48,1.48,0,0,0-.42,1.1,1.62,1.62,0,0,0,.67,1.35,14.44,14.44,0,0,0,2.61,1.35,29.07,29.07,0,0,1,3,1.69,10.22,10.22,0,0,1,2,1.66,5.28,5.28,0,0,1,1.11,1.81A6.54,6.54,0,0,1,105.92,38.82Z"/><path class="cls-1" d="M130.86,29.16a5.55,5.55,0,0,1-.87,3,7.27,7.27,0,0,1-2.46,2.33A13.47,13.47,0,0,1,123.71,36a21.2,21.2,0,0,1-5,.54l-.59,0c-.22,0-.49,0-.8,0a4.59,4.59,0,0,0,1.47,2.92,4.68,4.68,0,0,0,3.17,1,14.49,14.49,0,0,0,7.22-2.2v5.14A14.1,14.1,0,0,1,125.64,45a14.89,14.89,0,0,1-3.85.46,12.67,12.67,0,0,1-4.43-.73A9,9,0,0,1,114,42.56a9.54,9.54,0,0,1-2.1-3.33,12.26,12.26,0,0,1-.74-4.38,13.68,13.68,0,0,1,.86-4.93,11.36,11.36,0,0,1,2.4-3.84,10.58,10.58,0,0,1,3.7-2.5,12.4,12.4,0,0,1,4.75-.89,9,9,0,0,1,5.81,1.77A5.74,5.74,0,0,1,130.86,29.16Zm-6.52.49a1.68,1.68,0,0,0-.67-1.34,2.52,2.52,0,0,0-1.69-.57,3.91,3.91,0,0,0-2.8,1.15,5.44,5.44,0,0,0-1.5,3.16,3.76,3.76,0,0,0,.78.1h.72Q124.34,32.15,124.34,29.65Z"/><path class="cls-1" d="M151,29.26c-.46-.1-.82-.16-1.08-.19A6,6,0,0,0,149,29a5,5,0,0,0-4.24,1.91,9.37,9.37,0,0,0-1.45,5.69v8.17h-6.51V30.64c0-.8,0-1.49,0-2.08a13.91,13.91,0,0,0-.12-1.66c-.07-.51-.16-1-.27-1.51s-.27-1.06-.46-1.7h6.18c.1.4.2.74.28,1a6.91,6.91,0,0,1,.18.8c0,.25.06.52.1.81a9.84,9.84,0,0,1,0,1,11.2,11.2,0,0,1,2.78-3.2,5.37,5.37,0,0,1,3.12-.93,4.67,4.67,0,0,1,1.15.13,9.84,9.84,0,0,1,1.3.48Z"/><path class="cls-1" d="M157.27,44.79V27.89H153V23.23h4.31V17.8h6.42v5.43h5.53v4.66h-5.53v16.9Z"/></svg>