<svg id="Layer_1" data-name="Layer 1" xmlns="http://www.w3.org/2000/svg" viewBox="0 0 206.3 56.17"><defs><style>.cls-1{fill:#1b3ac2;}</style></defs><path class="cls-1" d="M47,32.1,57.48,44.84H48.86L40.72,34.21V44.84H34.21V10.69h6.51v19.7l7.94-7.11H58Z"/><path class="cls-1" d="M79.48,29.21a5.55,5.55,0,0,1-.87,3,7.36,7.36,0,0,1-2.46,2.33,13.83,13.83,0,0,1-3.81,1.49,21.28,21.28,0,0,1-5,.54l-.59,0c-.22,0-.48,0-.79,0a4.52,4.52,0,0,0,1.47,2.92,4.66,4.66,0,0,0,3.17,1.05,14.52,14.52,0,0,0,7.22-2.2v5.14A14.11,14.11,0,0,1,74.26,45a14.85,14.85,0,0,1-3.84.47A12.5,12.5,0,0,1,66,44.74a8.87,8.87,0,0,1-3.35-2.13,9.42,9.42,0,0,1-2.11-3.33,12.26,12.26,0,0,1-.74-4.38A13.68,13.68,0,0,1,60.64,30,11.36,11.36,0,0,1,63,26.13a10.44,10.44,0,0,1,3.7-2.5,12.42,12.42,0,0,1,4.76-.89,8.92,8.92,0,0,1,5.8,1.77A5.71,5.71,0,0,1,79.48,29.21ZM73,29.7a1.72,1.72,0,0,0-.68-1.35,2.55,2.55,0,0,0-1.69-.56,3.87,3.87,0,0,0-2.79,1.15A5.5,5.5,0,0,0,66.3,32.1a3.76,3.76,0,0,0,.78.1h.73Q73,32.2,73,29.7Z"/><path class="cls-1" d="M98.74,44.84V32.61a5.06,5.06,0,0,0-.32-2,2.76,2.76,0,0,0-.76-1.06,1.86,1.86,0,0,0-.93-.42,5.54,5.54,0,0,0-.83-.07,5.09,5.09,0,0,0-1,.18,3.66,3.66,0,0,0-1.5.9A6.18,6.18,0,0,0,92,32.23a9.36,9.36,0,0,0-.59,3.69v8.92H84.92V30.59a25.15,25.15,0,0,0-.29-3.72,12.07,12.07,0,0,0-.79-3h6.52A10.1,10.1,0,0,1,90.78,25c.08.29.17.72.27,1.27A10.13,10.13,0,0,1,94.41,24a9.68,9.68,0,0,1,3.65-.74,7,7,0,0,1,2.85.58,6.79,6.79,0,0,1,2.28,1.59A7.31,7.31,0,0,1,104.7,28a9.63,9.63,0,0,1,.56,3.36v13.5Z"/><path class="cls-1" d="M127.06,44.84V32.61a5.06,5.06,0,0,0-.32-2,2.76,2.76,0,0,0-.76-1.06,1.86,1.86,0,0,0-.93-.42,5.54,5.54,0,0,0-.83-.07,5.09,5.09,0,0,0-1,.18,3.66,3.66,0,0,0-1.5.9,6.18,6.18,0,0,0-1.34,2.08,9.54,9.54,0,0,0-.59,3.69v8.92h-6.52V30.59a25.15,25.15,0,0,0-.29-3.72,12.07,12.07,0,0,0-.79-3h6.52A8.43,8.43,0,0,1,119.1,25c.08.29.17.72.27,1.27A10.13,10.13,0,0,1,122.73,24a9.68,9.68,0,0,1,3.65-.74,7,7,0,0,1,2.85.58,6.79,6.79,0,0,1,2.28,1.59A7.49,7.49,0,0,1,133,28a9.87,9.87,0,0,1,.55,3.36v13.5Z"/><path class="cls-1" d="M160.18,29.21a5.55,5.55,0,0,1-.87,3,7.36,7.36,0,0,1-2.46,2.33A13.71,13.71,0,0,1,153,36.07a21.28,21.28,0,0,1-5,.54l-.59,0c-.22,0-.48,0-.79,0a4.52,4.52,0,0,0,1.47,2.92,4.66,4.66,0,0,0,3.17,1.05,14.52,14.52,0,0,0,7.22-2.2v5.14A14.21,14.21,0,0,1,155,45a14.93,14.93,0,0,1-3.85.47,12.44,12.44,0,0,1-4.43-.74,8.83,8.83,0,0,1-3.36-2.13,9.42,9.42,0,0,1-2.11-3.33,12.27,12.27,0,0,1-.73-4.38,13.68,13.68,0,0,1,.85-4.93,11.52,11.52,0,0,1,2.4-3.84,10.53,10.53,0,0,1,3.7-2.5,12.45,12.45,0,0,1,4.76-.89,8.92,8.92,0,0,1,5.8,1.77A5.71,5.71,0,0,1,160.18,29.21Zm-6.51.49a1.72,1.72,0,0,0-.68-1.35,2.55,2.55,0,0,0-1.69-.56,3.9,3.9,0,0,0-2.79,1.15A5.5,5.5,0,0,0,147,32.1a3.92,3.92,0,0,0,.78.1h.73Q153.67,32.2,153.67,29.7Z"/><path class="cls-1" d="M165.57,44.84V10.69h6.52V44.84Z"/></svg>