<svg id="Layer_1" data-name="Layer 1" xmlns="http://www.w3.org/2000/svg" viewBox="0 0 206.3 56.17"><defs><style>.cls-1{fill:#1b3ac2;}</style></defs><path class="cls-1" d="M88.55,19.78a16.44,16.44,0,0,1-.69,4.9,11.78,11.78,0,0,1-1.93,3.81A8.79,8.79,0,0,1,83,31a8.3,8.3,0,0,1-3.8.87,8.12,8.12,0,0,1-2.57-.34,7.17,7.17,0,0,1-2.19-1.26V46.44H67.53V16.74c0-.36,0-.77-.08-1.26s-.11-1-.19-1.51-.18-1.06-.3-1.59a11.15,11.15,0,0,0-.41-1.47h6.64a4.57,4.57,0,0,1,.35,1,10.91,10.91,0,0,1,.21,1.34,10.66,10.66,0,0,1,3-2.25,7.79,7.79,0,0,1,3.38-.69,8.48,8.48,0,0,1,3.46.69,7.57,7.57,0,0,1,2.67,1.93,8.78,8.78,0,0,1,1.72,3A11.74,11.74,0,0,1,88.55,19.78ZM82,20.87a4.66,4.66,0,0,0-1-3.15,3.38,3.38,0,0,0-2.69-1.13A3.85,3.85,0,0,0,75.21,18,6,6,0,0,0,74,21.91v2.84a5.18,5.18,0,0,0,3.47,1.3,4.2,4.2,0,0,0,3.31-1.37A5.55,5.55,0,0,0,82,20.87Z"/><path class="cls-1" d="M114,16.2a5.55,5.55,0,0,1-.87,3,7.27,7.27,0,0,1-2.46,2.33,13.47,13.47,0,0,1-3.82,1.49,21.2,21.2,0,0,1-5,.54l-.59,0c-.22,0-.49,0-.8,0a4.59,4.59,0,0,0,1.47,2.92,4.68,4.68,0,0,0,3.17,1.05,14.49,14.49,0,0,0,7.22-2.2v5.14A14.1,14.1,0,0,1,108.76,32a14.89,14.89,0,0,1-3.85.46,12.67,12.67,0,0,1-4.43-.73,9,9,0,0,1-3.36-2.14A9.56,9.56,0,0,1,95,26.27a12.27,12.27,0,0,1-.73-4.38A13.68,13.68,0,0,1,95.14,17a11.36,11.36,0,0,1,2.4-3.84,10.58,10.58,0,0,1,3.7-2.5A12.37,12.37,0,0,1,106,9.73a9,9,0,0,1,5.81,1.77A5.74,5.74,0,0,1,114,16.2Zm-6.52.49a1.68,1.68,0,0,0-.67-1.34,2.52,2.52,0,0,0-1.69-.57,3.91,3.91,0,0,0-2.8,1.15,5.47,5.47,0,0,0-1.5,3.16,3.76,3.76,0,0,0,.78.1h.72Q107.46,19.19,107.46,16.69Z"/><path class="cls-1" d="M133.23,31.83V19.6a5,5,0,0,0-.31-2,2.94,2.94,0,0,0-.76-1.07,1.94,1.94,0,0,0-.93-.42,5.66,5.66,0,0,0-.84-.07,4.74,4.74,0,0,0-1,.19,3.49,3.49,0,0,0-1.49.89,6.14,6.14,0,0,0-1.35,2.08,9.54,9.54,0,0,0-.59,3.69v8.92h-6.51V17.58a24.09,24.09,0,0,0-.3-3.72,11.69,11.69,0,0,0-.78-3h6.52a9.74,9.74,0,0,1,.41,1.13c.08.29.17.72.27,1.27A10.33,10.33,0,0,1,128.9,11a9.71,9.71,0,0,1,3.65-.74,7,7,0,0,1,2.86.58,6.79,6.79,0,0,1,2.28,1.59A7.47,7.47,0,0,1,139.2,15a9.65,9.65,0,0,1,.55,3.37V31.83Z"/></svg>