<svg id="Layer_1" data-name="Layer 1" xmlns="http://www.w3.org/2000/svg" viewBox="0 0 206.3 56.17"><defs><style>.cls-1{fill:#1b3ac2;}</style></defs><path class="cls-1" d="M60.57,24.07a16.44,16.44,0,0,1-.69,4.9A11.78,11.78,0,0,1,58,32.78a8.79,8.79,0,0,1-3,2.47,9.15,9.15,0,0,1-6.37.53,7.75,7.75,0,0,1-2.19-1.26v16.2H39.55V21a12.5,12.5,0,0,0-.08-1.25c0-.48-.11-1-.19-1.51s-.18-1.06-.3-1.59a11.15,11.15,0,0,0-.41-1.47h6.64a5.55,5.55,0,0,1,.36.95c.06.28.13.73.2,1.35a10.66,10.66,0,0,1,2.95-2.25,7.8,7.8,0,0,1,3.39-.69,8.6,8.6,0,0,1,3.45.68,7.7,7.7,0,0,1,2.67,1.93,8.93,8.93,0,0,1,1.72,3A11.69,11.69,0,0,1,60.57,24.07Zm-6.52,1.09a4.66,4.66,0,0,0-1-3.15,3.38,3.38,0,0,0-2.69-1.13,3.85,3.85,0,0,0-3.16,1.44,6,6,0,0,0-1.17,3.88V29a5.19,5.19,0,0,0,3.47,1.31A4.18,4.18,0,0,0,52.84,29,5.52,5.52,0,0,0,54.05,25.16Z"/><path class="cls-1" d="M74.88,8.64a2.69,2.69,0,0,1-1.13,2.18,4.52,4.52,0,0,1-5.44,0,2.94,2.94,0,0,1-1.18-2.24,2.67,2.67,0,0,1,1.08-2.25,4.36,4.36,0,0,1,2.84-.91,4.3,4.3,0,0,1,1.45.25,3.71,3.71,0,0,1,1.22.68,3.5,3.5,0,0,1,.84,1A2.75,2.75,0,0,1,74.88,8.64ZM67.53,36.12V14.56H74V36.12Z"/><path class="cls-1" d="M102,36.81a22.86,22.86,0,0,1-.82,6.64A11.46,11.46,0,0,1,99,47.73a8.15,8.15,0,0,1-3.38,2.33,12.19,12.19,0,0,1-4.25.71A36.22,36.22,0,0,1,87,50.5a15.84,15.84,0,0,1-4.13-1v-5a25.86,25.86,0,0,0,3.75,1,16,16,0,0,0,3.16.37,5.42,5.42,0,0,0,2.34-.49,4.62,4.62,0,0,0,1.83-1.57A8.32,8.32,0,0,0,95.09,41a19.27,19.27,0,0,0,.41-4.26V34.6a7.38,7.38,0,0,1-2.79,1.64,11.15,11.15,0,0,1-3,.37,9.6,9.6,0,0,1-3.82-.73,8.33,8.33,0,0,1-2.91-2.06,9.4,9.4,0,0,1-1.87-3.21,12.61,12.61,0,0,1-.66-4.19,12.42,12.42,0,0,1,1-5.12,11,11,0,0,1,2.91-3.9,13.12,13.12,0,0,1,4.57-2.47A19.93,19.93,0,0,1,95,14.07c.69,0,1.3,0,1.84,0a13.31,13.31,0,0,1,1.56.12c.51.06,1.06.15,1.64.27s1.25.27,2,.46ZM95.5,20.44c-.57-.1-1-.16-1.28-.19a9,9,0,0,0-1.14-.05,6.21,6.21,0,0,0-4.51,1.59,5.83,5.83,0,0,0-1.64,4.38A4.18,4.18,0,0,0,88,29.26a3.7,3.7,0,0,0,2.7,1.08,7.94,7.94,0,0,0,1.77-.2A3.14,3.14,0,0,0,94,29.26a4.88,4.88,0,0,0,1.08-2,12.26,12.26,0,0,0,.4-3.51Z"/><path class="cls-1" d="M124.61,30.14a6.14,6.14,0,0,1-2.08,4.9,8.57,8.57,0,0,1-5.83,1.82,24.86,24.86,0,0,1-5-.49A14.66,14.66,0,0,1,107.8,35l.84-5a16.68,16.68,0,0,0,7.44,2.2,2.14,2.14,0,0,0,1.55-.46,1.48,1.48,0,0,0,.46-1.06,1.9,1.9,0,0,0-.36-1.2,5.83,5.83,0,0,0-1.79-1.15,31.52,31.52,0,0,1-3.46-1.76,11.72,11.72,0,0,1-2.35-1.84,6.36,6.36,0,0,1-1.32-2,6.66,6.66,0,0,1-.42-2.45,5.51,5.51,0,0,1,2.37-4.77A10.4,10.4,0,0,1,117,13.83a19.26,19.26,0,0,1,3.65.31,17.26,17.26,0,0,1,3.66,1.25l-.78,4.95A11.68,11.68,0,0,0,120.11,19a14.81,14.81,0,0,0-3.22-.37,2.21,2.21,0,0,0-1.56.42,1.46,1.46,0,0,0-.42,1.1,1.6,1.6,0,0,0,.67,1.34,13.23,13.23,0,0,0,2.61,1.35,31.36,31.36,0,0,1,3,1.69,10.84,10.84,0,0,1,2,1.67A5.28,5.28,0,0,1,124.28,28,6.52,6.52,0,0,1,124.61,30.14Z"/><path class="cls-1" d="M132,36.12V19.22h-4.31V14.56H132V9.12h6.42v5.44h5.54v4.66h-5.54v16.9Z"/><path class="cls-1" d="M167,43.17a10.72,10.72,0,0,1-2.14,4.51A7.72,7.72,0,0,1,161.18,50a18.7,18.7,0,0,1-5.41.68,16.19,16.19,0,0,1-3.16-.31c-1.05-.22-2.14-.5-3.29-.86V44.66c1.08.08,2.1.15,3.07.2s1.92.08,2.88.08a6.9,6.9,0,0,0,2.62-.45A4,4,0,0,0,159.71,43a7.15,7.15,0,0,0,1-2.73,23.06,23.06,0,0,0,.32-4.16V33.47a8.41,8.41,0,0,1-6.13,2.65,7.18,7.18,0,0,1-2.82-.57,6.63,6.63,0,0,1-2.32-1.66,8.15,8.15,0,0,1-1.57-2.58,9.45,9.45,0,0,1-.59-3.43c0-1.15,0-2.25.05-3.31s.05-2.1.05-3.16,0-2.14,0-3.26-.07-2.31-.17-3.59h6.52c.1,1.3.15,2.5.17,3.61s0,2.16,0,3.14,0,1.92,0,2.83,0,1.8,0,2.68a4.08,4.08,0,0,0,.72,2.69,2.64,2.64,0,0,0,2.08.83A3.91,3.91,0,0,0,160,29a5.1,5.1,0,0,0,1.25-3.63V14.56h6.52V36.12A30.28,30.28,0,0,1,167,43.17Z"/></svg>