<svg id="Layer_1" data-name="Layer 1" xmlns="http://www.w3.org/2000/svg" viewBox="0 0 206.3 56.17"><defs><style>.cls-1{fill:#1b3ac2;}</style></defs><path class="cls-1" d="M12.48,44.84V27.94H8.16V23.28h4.32V17.84h6.41v5.44h5.54v4.66H18.89v16.9Z"/><path class="cls-1" d="M43.1,29.31c-.46-.1-.82-.16-1.08-.2a7.78,7.78,0,0,0-.88,0A5,5,0,0,0,36.9,31a9.38,9.38,0,0,0-1.44,5.69v8.17H28.94V30.69c0-.8,0-1.49,0-2.08A16.24,16.24,0,0,0,28.79,27a12.54,12.54,0,0,0-.27-1.51c-.11-.5-.27-1.06-.46-1.7h6.18c.1.4.2.74.28,1a4.32,4.32,0,0,1,.18.8c0,.25.07.52.1.8a10,10,0,0,1,.05,1,11.06,11.06,0,0,1,2.79-3.2,5.33,5.33,0,0,1,3.11-.93,4.19,4.19,0,0,1,1.15.13,9.84,9.84,0,0,1,1.3.48Z"/><path class="cls-1" d="M64.81,29.21a5.55,5.55,0,0,1-.87,3,7.36,7.36,0,0,1-2.46,2.33,13.78,13.78,0,0,1-3.82,1.49,21.2,21.2,0,0,1-5,.54l-.59,0c-.22,0-.49,0-.8,0a4.61,4.61,0,0,0,1.47,2.92,4.68,4.68,0,0,0,3.17,1.05,14.49,14.49,0,0,0,7.22-2.2v5.14A14.06,14.06,0,0,1,59.59,45a14.87,14.87,0,0,1-3.85.47,12.44,12.44,0,0,1-4.43-.74A9,9,0,0,1,48,42.61a9.56,9.56,0,0,1-2.11-3.33,12.27,12.27,0,0,1-.73-4.38A13.68,13.68,0,0,1,46,30a11.51,11.51,0,0,1,2.4-3.85,10.55,10.55,0,0,1,3.7-2.49,12.37,12.37,0,0,1,4.75-.89,9,9,0,0,1,5.81,1.77A5.74,5.74,0,0,1,64.81,29.21Zm-6.52.49a1.68,1.68,0,0,0-.67-1.34,2.52,2.52,0,0,0-1.69-.57,3.91,3.91,0,0,0-2.8,1.15,5.44,5.44,0,0,0-1.5,3.16,3.76,3.76,0,0,0,.78.1h.72Q58.29,32.2,58.29,29.7Z"/><path class="cls-1" d="M88.87,29.21a5.55,5.55,0,0,1-.87,3,7.46,7.46,0,0,1-2.46,2.33,13.78,13.78,0,0,1-3.82,1.49,21.26,21.26,0,0,1-5,.54l-.59,0c-.23,0-.49,0-.8,0a4.52,4.52,0,0,0,1.47,2.92A4.68,4.68,0,0,0,80,40.53a14.49,14.49,0,0,0,7.22-2.2v5.14A14.06,14.06,0,0,1,83.65,45a14.87,14.87,0,0,1-3.85.47,12.44,12.44,0,0,1-4.43-.74A8.83,8.83,0,0,1,72,42.61a9.56,9.56,0,0,1-2.11-3.33,12.27,12.27,0,0,1-.73-4.38A13.47,13.47,0,0,1,70,30a11.51,11.51,0,0,1,2.4-3.85,10.55,10.55,0,0,1,3.7-2.49,12.37,12.37,0,0,1,4.75-.89,9,9,0,0,1,5.81,1.77A5.74,5.74,0,0,1,88.87,29.21Zm-6.52.49a1.68,1.68,0,0,0-.67-1.34,2.53,2.53,0,0,0-1.7-.57,3.9,3.9,0,0,0-2.79,1.15,5.44,5.44,0,0,0-1.5,3.16,3.76,3.76,0,0,0,.77.1h.73Q82.35,32.2,82.35,29.7Z"/><path class="cls-1" d="M123.17,44.84V32.65a6.36,6.36,0,0,0-.23-1.88,2.52,2.52,0,0,0-.62-1.09,2,2,0,0,0-.9-.5,5.22,5.22,0,0,0-1.06-.11,3,3,0,0,0-1.62.49,4.91,4.91,0,0,0-1.38,1.35,7.23,7.23,0,0,0-1,2,7.82,7.82,0,0,0-.38,2.43v9.49H109.5V11.28H116V25.73a7.43,7.43,0,0,1,2.71-1.88,8.88,8.88,0,0,1,3.28-.57,10.34,10.34,0,0,1,2.83.39,6.9,6.9,0,0,1,2.46,1.21A6.25,6.25,0,0,1,129,27.1a7.67,7.67,0,0,1,.67,3.39V44.84Z"/><path class="cls-1" d="M159,34a12.29,12.29,0,0,1-.8,4.64,9.41,9.41,0,0,1-2.29,3.4,10,10,0,0,1-3.57,2.1,15.32,15.32,0,0,1-9.22,0,10,10,0,0,1-3.56-2.1,9.74,9.74,0,0,1-2.32-3.4A12.09,12.09,0,0,1,136.4,34a11.87,11.87,0,0,1,.8-4.52,9.46,9.46,0,0,1,2.27-3.37A9.64,9.64,0,0,1,143,24a15.55,15.55,0,0,1,9.29,0A9.77,9.77,0,0,1,155.89,26a9.13,9.13,0,0,1,2.29,3.37A12.2,12.2,0,0,1,159,34Zm-6.51,0a4.88,4.88,0,0,0-1.32-3.64,4.82,4.82,0,0,0-3.54-1.29,4.54,4.54,0,0,0-3.48,1.29A5.13,5.13,0,0,0,142.91,34a5.42,5.42,0,0,0,1.19,3.74,4.48,4.48,0,0,0,3.51,1.32,4.76,4.76,0,0,0,3.59-1.3A5.18,5.18,0,0,0,152.47,34Z"/><path class="cls-1" d="M165.3,44.84V10.69h6.52V44.84Z"/><path class="cls-1" d="M198.13,29.21a5.55,5.55,0,0,1-.87,3,7.36,7.36,0,0,1-2.46,2.33A13.71,13.71,0,0,1,191,36.07a21.28,21.28,0,0,1-5,.54l-.59,0c-.22,0-.48,0-.79,0a4.52,4.52,0,0,0,1.47,2.92,4.66,4.66,0,0,0,3.17,1.05,14.52,14.52,0,0,0,7.22-2.2v5.14A14.21,14.21,0,0,1,192.92,45a14.93,14.93,0,0,1-3.85.47,12.54,12.54,0,0,1-4.44-.74,8.87,8.87,0,0,1-3.35-2.13,9.42,9.42,0,0,1-2.11-3.33,12.27,12.27,0,0,1-.73-4.38,13.68,13.68,0,0,1,.85-4.93,11.67,11.67,0,0,1,2.4-3.85,10.64,10.64,0,0,1,3.7-2.49,12.45,12.45,0,0,1,4.76-.89,8.92,8.92,0,0,1,5.8,1.77A5.71,5.71,0,0,1,198.13,29.21Zm-6.51.49a1.69,1.69,0,0,0-.68-1.34,2.51,2.51,0,0,0-1.69-.57,3.9,3.9,0,0,0-2.79,1.15A5.5,5.5,0,0,0,185,32.1a3.92,3.92,0,0,0,.78.1h.73Q191.62,32.2,191.62,29.7Z"/></svg>