<svg xmlns="http://www.w3.org/2000/svg" xmlns:xlink="http://www.w3.org/1999/xlink" width="1920" height="900" viewBox="0 0 1920 900">
  <defs>
    <style>
      .cls-1, .cls-7, .cls-74, .cls-76, .cls-87 {
        fill: none;
      }

      .cls-2 {
        fill: #f29a57;
      }

      .cls-3 {
        fill: #ce7c3e;
      }

      .cls-4 {
        isolation: isolate;
      }

      .cls-5 {
        clip-path: url(#clip-path);
      }

      .cls-6 {
        fill: #932216;
        opacity: 0.29;
      }

      .cls-7, .cls-76 {
        stroke: #f4f2f2;
      }

      .cls-17, .cls-18, .cls-19, .cls-7, .cls-74, .cls-76, .cls-87 {
        stroke-miterlimit: 10;
      }

      .cls-17, .cls-18, .cls-19, .cls-7, .cls-74, .cls-76 {
        stroke-width: 0.5px;
      }

      .cls-62, .cls-8 {
        fill: #161b23;
      }

      .cls-11, .cls-41, .cls-8 {
        opacity: 0.3;
      }

      .cls-9 {
        fill: #964c27;
      }

      .cls-10 {
        fill: #a06137;
      }

      .cls-12 {
        fill: #62d739;
      }

      .cls-13 {
        fill: url(#linear-gradient);
      }

      .cls-14 {
        fill: url(#linear-gradient-2);
      }

      .cls-15 {
        fill: url(#linear-gradient-3);
      }

      .cls-16 {
        fill: #74c38a;
      }

      .cls-17 {
        fill: url(#linear-gradient-4);
        stroke: url(#linear-gradient-5);
      }

      .cls-18 {
        fill: url(#linear-gradient-6);
        stroke: url(#linear-gradient-7);
      }

      .cls-19 {
        fill: url(#linear-gradient-8);
        stroke: url(#linear-gradient-9);
      }

      .cls-20 {
        fill: #80e559;
      }

      .cls-21 {
        fill: url(#linear-gradient-10);
      }

      .cls-22 {
        fill: #c28a73;
        opacity: 0.56;
      }

      .cls-23 {
        fill: #ce856b;
      }

      .cls-24 {
        fill: #3beaa2;
      }

      .cls-25 {
        fill: url(#linear-gradient-11);
      }

      .cls-26 {
        fill: url(#linear-gradient-12);
      }

      .cls-27 {
        fill: url(#linear-gradient-13);
      }

      .cls-28 {
        fill: url(#linear-gradient-14);
      }

      .cls-29 {
        fill: url(#linear-gradient-15);
      }

      .cls-30 {
        fill: url(#linear-gradient-16);
      }

      .cls-31 {
        fill: url(#linear-gradient-17);
      }

      .cls-32 {
        fill: url(#linear-gradient-18);
      }

      .cls-33 {
        fill: url(#linear-gradient-19);
      }

      .cls-34 {
        fill: url(#linear-gradient-20);
      }

      .cls-35 {
        fill: url(#linear-gradient-21);
      }

      .cls-36 {
        fill: url(#linear-gradient-22);
      }

      .cls-37 {
        fill: url(#linear-gradient-23);
      }

      .cls-38 {
        fill: url(#linear-gradient-24);
      }

      .cls-39, .cls-48 {
        opacity: 0.5;
      }

      .cls-39 {
        mix-blend-mode: screen;
        fill: url(#linear-gradient-25);
      }

      .cls-40 {
        fill: #73dd47;
      }

      .cls-42 {
        fill: #84e75a;
      }

      .cls-42, .cls-44, .cls-48 {
        mix-blend-mode: multiply;
      }

      .cls-43 {
        opacity: 0.43;
      }

      .cls-44 {
        opacity: 0.31;
      }

      .cls-45, .cls-48 {
        fill: #5f8337;
      }

      .cls-46 {
        fill: #c9a983;
      }

      .cls-47 {
        fill: #a5896a;
      }

      .cls-49 {
        fill: url(#linear-gradient-26);
      }

      .cls-50 {
        fill: url(#linear-gradient-27);
      }

      .cls-51 {
        fill: #1c8e16;
      }

      .cls-52 {
        fill: #5e2106;
      }

      .cls-53 {
        fill: #e68851;
      }

      .cls-54 {
        fill: #843812;
      }

      .cls-55 {
        fill: #301102;
      }

      .cls-56 {
        fill: #683521;
      }

      .cls-57 {
        fill: #934d2e;
      }

      .cls-58 {
        clip-path: url(#clip-path-2);
      }

      .cls-59 {
        fill: #bf7643;
      }

      .cls-60 {
        fill: #3d2819;
      }

      .cls-61 {
        clip-path: url(#clip-path-3);
      }

      .cls-63 {
        fill: #ef6343;
      }

      .cls-64 {
        fill: #7f502f;
      }

      .cls-65, .cls-75, .cls-86 {
        fill: #633e25;
      }

      .cls-66 {
        fill: #b7663d;
      }

      .cls-67 {
        fill: #40210e;
        opacity: 0.18;
      }

      .cls-68 {
        fill: #773a1f;
      }

      .cls-69 {
        fill: #442b1a;
      }

      .cls-70 {
        fill: #e29149;
      }

      .cls-71 {
        fill: #96592f;
      }

      .cls-72 {
        fill: #f79959;
      }

      .cls-73 {
        fill: #f3a256;
      }

      .cls-74, .cls-87 {
        stroke: #000;
      }

      .cls-74, .cls-75 {
        opacity: 0.83;
      }

      .cls-76 {
        opacity: 0.51;
      }

      .cls-77 {
        fill: #024e20;
      }

      .cls-78 {
        fill: #2bb51c;
      }

      .cls-79 {
        fill: #0c4c0d;
      }

      .cls-80 {
        fill: #3d8723;
      }

      .cls-81 {
        fill: #308c1f;
      }

      .cls-82 {
        fill: #ad2727;
      }

      .cls-83 {
        fill: #d8372b;
      }

      .cls-84 {
        fill: #e53c38;
      }

      .cls-85 {
        fill: #c92f2b;
      }

      .cls-86 {
        opacity: 0.19;
      }

      .cls-87 {
        stroke-width: 0.25px;
      }

      .cls-88 {
        fill: url(#linear-gradient-28);
      }

      .cls-89 {
        fill: url(#linear-gradient-29);
      }

      .cls-90 {
        fill: url(#linear-gradient-30);
      }
    </style>
    <clipPath id="clip-path">
      <rect class="cls-1" width="1920" height="900"/>
    </clipPath>
    <linearGradient id="linear-gradient" x1="787.66" y1="1100.47" x2="1036.24" y2="-128.37" gradientUnits="userSpaceOnUse">
      <stop offset="0.2" stop-color="#c5f7fd"/>
      <stop offset="0.34" stop-color="#b3f0fd"/>
      <stop offset="0.66" stop-color="#8ee1fd"/>
      <stop offset="0.83" stop-color="#80dbfd"/>
    </linearGradient>
    <linearGradient id="linear-gradient-2" x1="938.21" y1="126.53" x2="1030.68" y2="33.99" gradientUnits="userSpaceOnUse">
      <stop offset="0.11" stop-color="#85ddfd"/>
      <stop offset="0.82" stop-color="#d7eef4"/>
    </linearGradient>
    <linearGradient id="linear-gradient-3" x1="1596.16" y1="285.84" x2="1687.85" y2="194.08" gradientUnits="userSpaceOnUse">
      <stop offset="0.17" stop-color="#83dcfd"/>
      <stop offset="0.9" stop-color="#d7eef4"/>
    </linearGradient>
    <linearGradient id="linear-gradient-4" x1="189.11" y1="592.89" x2="1363.33" y2="592.89" gradientUnits="userSpaceOnUse">
      <stop offset="0" stop-color="#2db24b"/>
      <stop offset="0.2" stop-color="#2dae4a"/>
      <stop offset="0.4" stop-color="#2ca248"/>
      <stop offset="0.56" stop-color="#2c9245"/>
      <stop offset="1" stop-color="#67bc45"/>
    </linearGradient>
    <linearGradient id="linear-gradient-5" x1="358.45" y1="906.18" x2="1188.96" y2="337.39" gradientUnits="userSpaceOnUse">
      <stop offset="0" stop-color="#76ccd2"/>
      <stop offset="0" stop-color="#6fc4c0"/>
      <stop offset="0" stop-color="#5db193"/>
      <stop offset="0" stop-color="#40914a"/>
      <stop offset="0" stop-color="#3d8e42"/>
      <stop offset="0" stop-color="#348740"/>
      <stop offset="0" stop-color="#20793c"/>
      <stop offset="0" stop-color="#147039"/>
      <stop offset="0" stop-color="#106d38"/>
      <stop offset="0.01" stop-color="#106d3e"/>
      <stop offset="0.02" stop-color="#0f6d49"/>
      <stop offset="0.05" stop-color="#0e6d50"/>
      <stop offset="0.12" stop-color="#0e6d52"/>
      <stop offset="0.32" stop-color="#106e52"/>
      <stop offset="0.39" stop-color="#177250"/>
      <stop offset="0.45" stop-color="#23794d"/>
      <stop offset="0.49" stop-color="#348249"/>
      <stop offset="0.52" stop-color="#4a8f44"/>
      <stop offset="0.56" stop-color="#659e3e"/>
      <stop offset="0.59" stop-color="#85b036"/>
      <stop offset="0.61" stop-color="#aac52d"/>
      <stop offset="0.63" stop-color="#d3dc24"/>
      <stop offset="0.64" stop-color="#d6de23"/>
      <stop offset="0.81" stop-color="#d6de23"/>
      <stop offset="0.84" stop-color="#d6de23"/>
      <stop offset="0.86" stop-color="#d7df27"/>
      <stop offset="0.88" stop-color="#d9e134"/>
      <stop offset="0.9" stop-color="#dde44a"/>
      <stop offset="0.93" stop-color="#e3e869"/>
      <stop offset="0.95" stop-color="#eaee90"/>
      <stop offset="0.97" stop-color="#f3f5c0"/>
      <stop offset="1" stop-color="#fefef7"/>
      <stop offset="1" stop-color="#fff"/>
    </linearGradient>
    <linearGradient id="linear-gradient-6" x1="633.27" y1="567.91" x2="1936.03" y2="567.91" gradientUnits="userSpaceOnUse">
      <stop offset="0" stop-color="#159e49"/>
      <stop offset="0.17" stop-color="#19a04a"/>
      <stop offset="0.34" stop-color="#25a74c"/>
      <stop offset="0.52" stop-color="#3ab351"/>
      <stop offset="0.68" stop-color="#53c156"/>
      <stop offset="1" stop-color="#81c462"/>
    </linearGradient>
    <linearGradient id="linear-gradient-7" x1="828.92" y1="937.76" x2="1790.21" y2="279.41" xlink:href="#linear-gradient-5"/>
    <linearGradient id="linear-gradient-8" x1="-18.49" y1="550.05" x2="1226.64" y2="550.05" gradientUnits="userSpaceOnUse">
      <stop offset="0.01" stop-color="#30b34a"/>
      <stop offset="0.14" stop-color="#34b44a"/>
      <stop offset="0.27" stop-color="#40b549"/>
      <stop offset="0.4" stop-color="#55b847"/>
      <stop offset="0.43" stop-color="#5ab947"/>
      <stop offset="1" stop-color="#67bc45"/>
    </linearGradient>
    <linearGradient id="linear-gradient-9" x1="131.85" y1="868.75" x2="1001.78" y2="272.97" xlink:href="#linear-gradient-5"/>
    <linearGradient id="linear-gradient-10" x1="-4478.16" y1="585.96" x2="-4482.61" y2="357.84" gradientTransform="matrix(-1, 0, 0, 1, -4232.73, 0)" gradientUnits="userSpaceOnUse">
      <stop offset="0" stop-color="#907d61"/>
      <stop offset="0.36" stop-color="#6d6b4d"/>
      <stop offset="0.58" stop-color="#5e6345"/>
    </linearGradient>
    <linearGradient id="linear-gradient-11" x1="-4403.21" y1="406.22" x2="-4533.37" y2="97.81" gradientTransform="matrix(-1, 0, 0, 1, -4232.73, 0)" gradientUnits="userSpaceOnUse">
      <stop offset="0.26" stop-color="#55b093"/>
      <stop offset="0.39" stop-color="#61c489"/>
      <stop offset="0.56" stop-color="#6ddb7d"/>
      <stop offset="0.68" stop-color="#72e379"/>
    </linearGradient>
    <linearGradient id="linear-gradient-12" x1="-4176.77" y1="476.5" x2="-4324.6" y2="331.73" gradientTransform="matrix(-1, 0, 0, 1, -4232.73, 0)" gradientUnits="userSpaceOnUse">
      <stop offset="0.23" stop-color="#2fac76"/>
      <stop offset="0.54" stop-color="#31ad79"/>
      <stop offset="0.74" stop-color="#36b281"/>
      <stop offset="0.88" stop-color="#3db98e"/>
    </linearGradient>
    <linearGradient id="linear-gradient-13" x1="-4579.32" y1="410.07" x2="-4619.28" y2="266.5" xlink:href="#linear-gradient-11"/>
    <linearGradient id="linear-gradient-14" x1="-4413.06" y1="449.94" x2="-4474.23" y2="239.39" gradientTransform="matrix(-1, 0, 0, 1, -4232.73, 0)" gradientUnits="userSpaceOnUse">
      <stop offset="0.07" stop-color="#39a57e"/>
      <stop offset="0.67" stop-color="#72e379"/>
    </linearGradient>
    <linearGradient id="linear-gradient-15" x1="692.51" y1="615.96" x2="688.06" y2="387.84" gradientTransform="translate(127.04)" xlink:href="#linear-gradient-10"/>
    <linearGradient id="linear-gradient-16" x1="767.47" y1="436.22" x2="637.3" y2="127.81" gradientTransform="translate(127.04)" xlink:href="#linear-gradient-11"/>
    <linearGradient id="linear-gradient-17" x1="993.9" y1="506.5" x2="846.08" y2="361.73" gradientTransform="translate(127.04)" xlink:href="#linear-gradient-12"/>
    <linearGradient id="linear-gradient-18" x1="591.35" y1="440.07" x2="551.39" y2="296.5" gradientTransform="translate(127.04)" xlink:href="#linear-gradient-11"/>
    <linearGradient id="linear-gradient-19" x1="757.62" y1="479.94" x2="696.44" y2="269.39" gradientTransform="translate(127.04)" xlink:href="#linear-gradient-14"/>
    <linearGradient id="linear-gradient-20" x1="1378.42" y1="630.96" x2="1373.96" y2="402.84" gradientTransform="translate(127.04)" xlink:href="#linear-gradient-10"/>
    <linearGradient id="linear-gradient-21" x1="1453.37" y1="451.22" x2="1323.2" y2="142.81" gradientTransform="translate(127.04)" xlink:href="#linear-gradient-11"/>
    <linearGradient id="linear-gradient-22" x1="1679.81" y1="521.5" x2="1531.98" y2="376.73" gradientTransform="translate(127.04)" xlink:href="#linear-gradient-12"/>
    <linearGradient id="linear-gradient-23" x1="1277.26" y1="455.07" x2="1237.29" y2="311.5" gradientTransform="translate(127.04)" xlink:href="#linear-gradient-11"/>
    <linearGradient id="linear-gradient-24" x1="1443.52" y1="494.94" x2="1382.34" y2="284.39" gradientTransform="translate(127.04)" xlink:href="#linear-gradient-14"/>
    <linearGradient id="linear-gradient-25" x1="542.75" y1="592.4" x2="542.75" y2="561.02" gradientUnits="userSpaceOnUse">
      <stop offset="0" stop-color="#09170a"/>
      <stop offset="0.58" stop-color="#2d550c"/>
      <stop offset="1" stop-color="#16623e"/>
    </linearGradient>
    <linearGradient id="linear-gradient-26" x1="1644.38" y1="655.19" x2="1677.15" y2="539.95" gradientUnits="userSpaceOnUse">
      <stop offset="0.3" stop-color="#37971a"/>
      <stop offset="0.37" stop-color="#3b9d1b"/>
      <stop offset="0.47" stop-color="#47af1f"/>
      <stop offset="0.58" stop-color="#5acc24"/>
      <stop offset="0.66" stop-color="#6be629"/>
    </linearGradient>
    <linearGradient id="linear-gradient-27" x1="728.36" y1="644.87" x2="769.01" y2="501.89" xlink:href="#linear-gradient-26"/>
    <clipPath id="clip-path-2">
      <path class="cls-2" d="M949.73,401.15Q967.79,517.6,985.65,632.8l277.66,32.68q21.24-120.36,42.8-242.47L1107.9,217.65Z"/>
    </clipPath>
    <clipPath id="clip-path-3">
      <path class="cls-3" d="M1538.81,412.15l-232.61,1.91-46.11,253.67,242.58-18.51Q1520.75,530.69,1538.81,412.15Z"/>
    </clipPath>
    <linearGradient id="linear-gradient-28" x1="359.72" y1="133.97" x2="455.74" y2="92.39" gradientUnits="userSpaceOnUse">
      <stop offset="0.2" stop-color="#96e4fd"/>
      <stop offset="0.47" stop-color="#b8edfe"/>
      <stop offset="0.69" stop-color="#cff4ff"/>
      <stop offset="0.84" stop-color="#d7f6ff"/>
    </linearGradient>
    <linearGradient id="linear-gradient-29" x1="275.95" y1="149.75" x2="402.23" y2="98.92" gradientUnits="userSpaceOnUse">
      <stop offset="0.2" stop-color="#91e2fd"/>
      <stop offset="0.39" stop-color="#95e3fd"/>
      <stop offset="0.57" stop-color="#a0e6fd"/>
      <stop offset="0.74" stop-color="#b3ecfe"/>
      <stop offset="0.91" stop-color="#cdf3ff"/>
      <stop offset="0.96" stop-color="#d7f6ff"/>
    </linearGradient>
    <linearGradient id="linear-gradient-30" x1="511.6" y1="212.96" x2="682.07" y2="42.37" gradientUnits="userSpaceOnUse">
      <stop offset="0.2" stop-color="#96e4fd"/>
      <stop offset="0.61" stop-color="#d7f6ff"/>
    </linearGradient>
  </defs>
  <g class="cls-4">
    <g id="Layer_1" data-name="Layer 1">
      <g class="cls-5">
        <g>
          <path class="cls-6" d="M1140,258s179,48.4,257,95.2S1578,438,1578,438l-266-1.57Z"/>
          <g>
            <line class="cls-7" x1="1352.93" y1="567.65" x2="1456.57" y2="567.65"/>
            <line class="cls-7" x1="1351.93" y1="569.65" x2="1455.57" y2="569.65"/>
            <line class="cls-7" x1="1351" y1="571.65" x2="1454.57" y2="571.65"/>
            <line class="cls-7" x1="1350.93" y1="573.65" x2="1454.57" y2="573.65"/>
            <line class="cls-7" x1="1349.93" y1="575.65" x2="1453.57" y2="575.65"/>
            <line class="cls-7" x1="1348.93" y1="577.65" x2="1452.57" y2="577.65"/>
            <line class="cls-7" x1="1348.93" y1="579.65" x2="1452.57" y2="579.65"/>
            <line class="cls-7" x1="1347.93" y1="581.65" x2="1451.57" y2="581.65"/>
          </g>
          <ellipse class="cls-8" cx="462.5" cy="755" rx="39.5" ry="8"/>
          <line class="cls-9" x1="1305.26" y1="497.66" x2="1516.69" y2="495.95"/>
          <line class="cls-1" x1="1287.87" y1="597.3" x2="1506.07" y2="587.93"/>
          <polygon class="cls-10" points="1122.06 425.23 1122.06 588.51 1125.41 588.92 1125.41 425.23 1122.06 425.23"/>
          <ellipse class="cls-11" cx="585.5" cy="798" rx="18.5" ry="5"/>
          <ellipse class="cls-11" cx="645.5" cy="702" rx="16.5" ry="4"/>
          <path class="cls-12" d="M1484,694.19s13,1.81,2,7.81l6-2h0s6.07-2.62,6-5.81S1484,694.19,1484,694.19Z"/>
          <g>
            <rect class="cls-13" x="-33.71" y="-3" width="1981.69" height="531.35"/>
            <g>
              <path class="cls-14" d="M937.37,87.16s1.38-10.4,18.91-17.51,32.28-10.94,47.5-2.74,12,26.82,8.76,29c-6.26,4.25-19.77,9.84-55.8,4.38C935.06,97,937.37,87.16,937.37,87.16Z"/>
              <path class="cls-15" d="M1593.75,233.58s1.88-12.34,25.71-20.79,43.89-13,64.59-3.25,16.3,31.84,11.91,34.43c-8.52,5.05-26.88,11.68-75.87,5.2C1590.62,245.27,1593.75,233.58,1593.75,233.58Z"/>
            </g>
          </g>
          <path class="cls-16" d="M65.77,523.77c32.17-29.11,64.24-48.47,82.94-62.21,34.91-25.63,90.82,12.85,181.77,29.56,168.68,31,231-54.62,392.66-17.39,29,6.67,58.59,16.7,102.44,13,56.31-4.7,72.44-26.68,134.57-31.29,25.15-1.87,58.51-4.34,94.4,8.69,61.79,22.45,68,69.3,125.08,78.4,25.21,4,44.76-2.59,59.24-3.64,74.35-5.4,501.31-42.52,525.05-39.29,0,0,17.16,2.33,34.53,3.39h.19c.09,0-15.57,148.35-15.57,148.35L-23.09,647.85C-45.5,603.41,26.7,550.57,65.77,523.77Z"/>
          <path class="cls-17" d="M189.11,569.58s850.11-125.74,1158.52,0l15.7,100.92-1164.8,1.59Z"/>
          <path class="cls-18" d="M643.8,589.82c484.27-49.57,650.18-65.21,669.58-65.48,14.75-.19,25.15-.83,45.95-1.55,190.3-6.63,286.17-10.08,321.66-17.15,91.45-18.21,222.76-34.71,248.61-21.7,12.39,6.23,3.06,172.59,3.06,172.59L633.27,651.39Z"/>
          <path class="cls-19" d="M-18.49,448.7s493.79,83.44,598.5,85,542.85,29,609.36,42.54,23.71,75.15,23.71,75.15L-18.49,648.62Z"/>
          <polygon class="cls-20" points="162.42 607.88 1797.25 573.29 1797.25 892.39 162.42 892.39 162.42 607.88"/>
          <g>
            <path class="cls-21" d="M140.76,571.05c-.19-.5,1.26-.93,2.59-2.82a21.77,21.77,0,0,0,2.73-4.34c1.18-4.55,4.76-10,6.26-12,4.75-6.45,7-16.11,10.7-32.15a239.22,239.22,0,0,0,4.69-27.56c.27-16-1.94-28.05-6.48-35a189,189,0,0,1-13-23.74s-26.68,1.2-29,0-8.77-6.95-7.62-21.79L111.3,408l6.87,1.92s2.11,13.3,10.9,14.33c10.48,1.45,22.46-5,20.7-14.33h7.61S155,437.27,166.56,443c8.6,2.27,13.67-1.32,13.28-17.31l-.39-16,13.68,0s-.79,17,0,18,6.83,11.54,13.28-10.1c5.46-15.26,2.34-7.91,2.34-7.91l7.42.17s-3.32,16.81-14.26,27.32c-7.22,10.1-7.42,27-1.95,33,5.86,6,15.82,9.28,23.44-26.18,5.08-23.5,6.44-34.12,6.44-34.12l10.55-.12s-4.3,28.06-3.52,33c1,5.56,1.37,22.67,24.42,15.46,55.26-15.8-8.3-38.66-.4-51.75,2.26-3.73,37.82,37.13,41.15,27.13C307.26,418,310.11,409,310.11,409l8.59-.23s.4,9.22-1.36,11.69c2.75.2,25.64-1.74,35.81-6.71,9.07-4.44,20.94-10.88,21.9-13.32,2.3-.1,9.31.09,11.61,0-1.79,4.54-4.74,6.35-6.93,8-8.42,6.43-26.35,14.93-57.1,19.18a61.17,61.17,0,0,0-7.27,1.06c0,.06-.13.94-.13.94s-1.21,23.07-28.75,34.2c-24.61,9.69-35.35,14.64-41.6,18.56s-10.55,8-9.57,21.44a110.65,110.65,0,0,1-1.76,32,108.18,108.18,0,0,1-13.47,34.53c-21.15.7-34.73.77-43.44.69-17.46-.17-27.4-1.08-32.63.2C144,571.34,141,571.72,140.76,571.05Z"/>
            <path class="cls-22" d="M164.54,512.73c5.41,2.29,15.08,6.43,20.14,11.54,18.69,18.91,6,43.78,4.53,46.48l-49.35.66a34.55,34.55,0,0,0,7.43-10.9C154.44,544.6,163.17,525.35,164.54,512.73Z"/>
            <path class="cls-23" d="M225,437.58s-9.14,35.75-16.31,35.49C216.08,476.72,229.93,466.81,225,437.58Z"/>
            <path class="cls-24" d="M362.25,330.2c-2.13-15.41-7.72-38.69-24.54-57.7C292.26,221.14,205.23,245,177.39,252.71,108.66,271.65,64.12,317.05,42.3,343.48L31.47,352a896.67,896.67,0,0,0,172.72,14.48,895.33,895.33,0,0,0,150.29-14.73Z"/>
            <path class="cls-25" d="M361.63,329.34c-2.1-14.84-7.63-37.25-24.28-55.55-45-49.44-131.08-26.43-158.63-19.05C110.7,273,66.62,316.68,45,342.12l-10.71,8.17a911.29,911.29,0,0,0,170.91,13.94A911.34,911.34,0,0,0,354,350.05Z"/>
            <path class="cls-24" d="M80.64,338S17.7,323.57-10.19,367.41c-18.17,34-21.41,45.06,90.83,38.89C99.61,351.82,80.64,338,80.64,338Z"/>
            <path class="cls-26" d="M79,339.24S17.88,324.61-9.22,369.17C-26.86,403.76-30,415,79,408.7,97.44,353.32,79,339.24,79,339.24Z"/>
            <path class="cls-24" d="M348.5,400.46c1.89,0,56.91-3.86,56.91-3.86s34.15-7.07,14.54-24.42a32.7,32.7,0,0,1-12.39-10.53c-3.91-5.68-2.86-8.47-5.35-13.7-7.9-16.57-34.36-22.21-34.36-22.21h0s-35.9-7.32-62.61,7c-3,1.6-4.44,2.47-5.57,4-12.36,16.24,26.06,63.73,26.06,63.73Z"/>
            <path class="cls-27" d="M321,402.49c1.84,0,103.8-2,103.8-2s18.48-2.79,8.16-19.9c-6-8.56-10.39-15.12-14.05-20.66-3.77-5.7-13.94-14.36-20.76-19.15-16.76-13.26-48.93-14.13-48.93-14.13h0s-34.67-7.34-60.47,7.06c-2.88,1.6-4.29,2.47-5.39,4-11.93,16.29,25.18,63.93,25.18,63.93Z"/>
            <path class="cls-24" d="M345.55,356.62s-31.31-26-64.14-36.16c-35.85-15.27-83.32-49.39-140.89-33.61C96.07,301.62,62.74,322,43.05,359.68c-9.6,21.89-11.11,48.38,62.11,44.81l204,.33S389,398.89,345.55,356.62Z"/>
            <path class="cls-28" d="M348.54,362.23s-31.67-26.41-64.88-36.76c-36.27-15.53-84.3-50.22-142.54-34.17-44.95,15-78.67,35.72-98.6,74-9.7,22.26-11.23,49.18,62.84,45.56l206.4.33S392.48,405.2,348.54,362.23Z"/>
            <path class="cls-23" d="M111.26,410.9s-.93,14.87,5.93,20.86c2,2.09,3.67,2,6.12,2.09a14.2,14.2,0,0,1-8.53-10.2,79,79,0,0,1-1.86-12.75h-1.66Z"/>
            <path class="cls-23" d="M179.39,411c.28,2.7.47,10.86.36,12.68-.47,8-1,17.14-5.93,19.5a6.49,6.49,0,0,1-3.7.49l-1.87-.22c2.3,3,4.35,3.24,5,3.27,4.07.2,8.84-5.38,10-14.37a57.7,57.7,0,0,0,.82-12.93c-.19-3.58-.74-8.48-.74-8.48h0Z"/>
          </g>
          <g>
            <path class="cls-29" d="M924.23,601.05c.19-.5-1.26-.93-2.59-2.82a22.42,22.42,0,0,1-2.74-4.34c-1.17-4.55-4.75-10-6.25-12-4.75-6.45-7-16.11-10.7-32.15a239.22,239.22,0,0,1-4.69-27.56c-.27-16,1.94-28.05,6.48-35a188.14,188.14,0,0,0,13-23.74s26.69,1.2,29,0,8.77-6.95,7.62-21.79l.39-3.57L946.82,440s-2.11,13.3-10.9,14.33c-10.48,1.45-22.46-5-20.7-14.33H907.6S910,467.27,898.43,473c-8.6,2.27-13.68-1.32-13.29-17.31l.39-16-13.67,0s.79,17,0,18-6.83,11.54-13.28-10.1c-5.47-15.26-2.34-7.91-2.34-7.91l-7.42.17s3.32,16.81,14.26,27.32c7.22,10.1,7.42,27,1.95,33-5.86,6-15.82,9.28-23.44-26.18-5.08-23.5-6.44-34.12-6.44-34.12l-10.55-.12s4.3,28.06,3.52,33c-1,5.56-1.37,22.67-24.42,15.46-55.26-15.8,8.3-38.66.4-51.75-2.26-3.73-37.82,37.13-41.15,27.13C757.73,448,754.88,439,754.88,439l-8.59-.23s-.4,9.22,1.36,11.69c-2.75.2-25.64-1.74-35.81-6.71-9.07-4.44-20.94-10.88-21.91-13.32-2.29-.1-9.3.09-11.6,0,1.79,4.54,4.74,6.35,6.93,8,8.42,6.43,26.35,14.93,57.1,19.18a61.17,61.17,0,0,1,7.27,1.06c0,.06.13.94.13.94s1.21,23.07,28.75,34.2c24.61,9.69,35.35,14.64,41.6,18.56s10.54,8,9.57,21.44a110.65,110.65,0,0,0,1.76,32,108.18,108.18,0,0,0,13.47,34.53c21.15.7,34.73.77,43.44.69,17.46-.17,27.4-1.08,32.63.2C921,601.34,924,601.72,924.23,601.05Z"/>
            <path class="cls-22" d="M900.44,542.73c-5.4,2.29-15.07,6.43-20.13,11.54-18.69,18.91-6,43.78-4.53,46.48l49.35.66a34.55,34.55,0,0,1-7.43-10.9C910.55,574.6,901.82,555.35,900.44,542.73Z"/>
            <path class="cls-23" d="M840,467.58s9.15,35.75,16.32,35.49C848.9,506.72,835.06,496.81,840,467.58Z"/>
            <path class="cls-24" d="M702.74,360.2c2.13-15.41,7.72-38.69,24.54-57.7C772.73,251.14,859.75,275,887.6,282.71c68.73,18.94,113.27,64.34,135.09,90.77l10.83,8.48A896.67,896.67,0,0,1,860.8,396.44a895.57,895.57,0,0,1-150.3-14.73Z"/>
            <path class="cls-30" d="M703.35,359.34c2.11-14.84,7.64-37.25,24.29-55.55,45-49.44,131.08-26.43,158.63-19.05,68,18.23,112.09,61.94,133.69,87.38l10.71,8.17a911.29,911.29,0,0,1-170.91,13.94A911.58,911.58,0,0,1,711,380.05Z"/>
            <path class="cls-24" d="M984.35,368s62.94-14.39,90.83,29.45c18.17,34,21.41,45.06-90.83,38.89C965.38,381.82,984.35,368,984.35,368Z"/>
            <path class="cls-31" d="M986,369.24s61.12-14.63,88.22,29.93C1091.85,433.76,1095,445,986,438.7,967.55,383.32,986,369.24,986,369.24Z"/>
            <path class="cls-24" d="M716.49,430.46c-1.89,0-56.91-3.86-56.91-3.86s-34.15-7.07-14.55-24.42a32.65,32.65,0,0,0,12.4-10.53c3.91-5.68,2.86-8.47,5.35-13.7,7.89-16.57,34.36-22.21,34.36-22.21h0s35.9-7.32,62.61,7c3,1.6,4.44,2.47,5.57,4,12.36,16.24-26.06,63.73-26.06,63.73Z"/>
            <path class="cls-32" d="M744,432.49c-1.84,0-103.8-2-103.8-2s-18.48-2.79-8.16-19.9c6-8.56,10.39-15.12,14-20.66,3.77-5.7,13.94-14.36,20.76-19.15,16.76-13.26,48.93-14.13,48.93-14.13h0s34.67-7.34,60.47,7.06c2.88,1.6,4.29,2.47,5.39,4,11.93,16.29-25.18,63.93-25.18,63.93Z"/>
            <path class="cls-24" d="M719.44,386.62s31.31-26,64.13-36.16c35.86-15.27,83.33-49.39,140.9-33.61,44.44,14.77,77.78,35.14,97.47,72.83,9.6,21.89,11.11,48.38-62.12,44.81l-204,.33S676,428.89,719.44,386.62Z"/>
            <path class="cls-33" d="M716.45,392.23s31.67-26.41,64.88-36.76c36.27-15.53,84.29-50.22,142.53-34.17,45,15,78.68,35.72,98.6,74,9.71,22.26,11.24,49.18-62.83,45.56l-206.4.33S672.51,435.2,716.45,392.23Z"/>
            <path class="cls-23" d="M953.73,440.9s.93,14.87-5.93,20.86c-2,2.09-3.68,2-6.12,2.09a14.2,14.2,0,0,0,8.53-10.2,79,79,0,0,0,1.86-12.75h1.66Z"/>
            <path class="cls-23" d="M885.6,441c-.28,2.7-.47,10.86-.36,12.68.47,8,1,17.14,5.93,19.5a6.48,6.48,0,0,0,3.7.49l1.87-.22c-2.3,3-4.35,3.24-5,3.27-4.07.2-8.84-5.38-10-14.37a57.7,57.7,0,0,1-.82-12.93c.19-3.58.74-8.48.74-8.48h0Z"/>
          </g>
          <g>
            <path class="cls-34" d="M1610.13,616.05c.19-.5-1.26-.93-2.59-2.82a21.77,21.77,0,0,1-2.73-4.34c-1.17-4.55-4.76-10-6.25-12-4.75-6.45-7-16.11-10.71-32.15a239.22,239.22,0,0,1-4.69-27.56c-.27-16,1.94-28.05,6.48-35a189,189,0,0,0,13-23.74s26.68,1.2,29,0,8.77-6.95,7.63-21.79l.38-3.57-6.86,1.92s-2.11,13.3-10.9,14.33c-10.48,1.45-22.46-5-20.71-14.33h-7.61s2.34,27.32-9.18,33.09c-8.6,2.27-13.67-1.32-13.28-17.31l.39-16-13.67,0s.78,17,0,18-6.84,11.54-13.28-10.1c-5.47-15.26-2.35-7.91-2.35-7.91l-7.42.17s3.32,16.81,14.26,27.32c7.22,10.1,7.42,27,2,33-5.86,6-15.82,9.28-23.44-26.18-5.07-23.5-6.44-34.12-6.44-34.12l-10.55-.12s4.3,28.06,3.52,33c-1,5.56-1.37,22.67-24.41,15.46-55.27-15.8,8.29-38.66.39-51.75-2.26-3.73-37.82,37.13-41.15,27.13-5.22-15.66-8.07-24.65-8.07-24.65l-8.59-.23s-.4,9.22,1.36,11.69c-2.75.2-25.64-1.74-35.81-6.71-9.07-4.44-20.94-10.88-21.9-13.32-2.3-.1-9.31.09-11.61,0,1.79,4.54,4.74,6.35,6.93,8,8.42,6.43,26.36,14.93,57.1,19.18a61.57,61.57,0,0,1,7.28,1.06c0,.06.12.94.12.94s1.21,23.07,28.75,34.2c24.61,9.69,35.35,14.64,41.6,18.56s10.55,8,9.57,21.44a110.65,110.65,0,0,0,1.76,32,108.42,108.42,0,0,0,13.47,34.53c21.15.7,34.73.77,43.44.69,17.46-.17,27.4-1.08,32.63.2C1606.91,616.34,1609.87,616.72,1610.13,616.05Z"/>
            <path class="cls-22" d="M1586.35,557.73c-5.41,2.29-15.08,6.43-20.14,11.54-18.69,18.91-6,43.78-4.52,46.48l49.34.66a34.72,34.72,0,0,1-7.43-10.9C1596.45,589.6,1587.73,570.35,1586.35,557.73Z"/>
            <path class="cls-23" d="M1525.91,482.58s9.14,35.75,16.31,35.49C1534.81,521.72,1521,511.81,1525.91,482.58Z"/>
            <path class="cls-24" d="M1388.65,375.2c2.12-15.41,7.71-38.69,24.53-57.7,45.45-51.36,132.48-27.46,160.32-19.79,68.73,18.94,113.28,64.34,135.1,90.77l10.82,8.48a896.6,896.6,0,0,1-172.72,14.48,895.33,895.33,0,0,1-150.29-14.73Z"/>
            <path class="cls-35" d="M1389.26,374.34c2.1-14.84,7.63-37.25,24.28-55.55,45-49.44,131.09-26.43,158.64-19.05,68,18.23,112.09,61.94,133.68,87.38l10.71,8.17a911.29,911.29,0,0,1-170.91,13.94,911.45,911.45,0,0,1-148.72-14.18Z"/>
            <path class="cls-24" d="M1670.25,383s62.94-14.39,90.84,29.45c18.16,34,21.41,45.06-90.84,38.89C1651.28,396.82,1670.25,383,1670.25,383Z"/>
            <path class="cls-36" d="M1671.89,384.24s61.12-14.63,88.22,29.93c17.65,34.59,20.8,45.81-88.22,39.53C1653.46,398.32,1671.89,384.24,1671.89,384.24Z"/>
            <path class="cls-24" d="M1402.4,445.46c-1.9,0-56.92-3.86-56.92-3.86s-34.15-7.07-14.54-24.42a32.7,32.7,0,0,0,12.39-10.53c3.91-5.68,2.86-8.47,5.36-13.7,7.89-16.57,34.35-22.21,34.35-22.21h0s35.9-7.32,62.61,7c3,1.6,4.44,2.47,5.58,4,12.35,16.24-26.07,63.73-26.07,63.73Z"/>
            <path class="cls-37" d="M1429.94,447.49c-1.83,0-103.8-2-103.8-2s-18.48-2.79-8.16-19.9c6-8.56,10.39-15.12,14-20.66,3.78-5.7,13.94-14.36,20.76-19.15,16.76-13.26,48.93-14.13,48.93-14.13h0s34.67-7.34,60.47,7.06c2.88,1.6,4.3,2.47,5.39,4,11.93,16.29-25.17,63.93-25.17,63.93Z"/>
            <path class="cls-24" d="M1405.34,401.62s31.31-26,64.14-36.16c35.85-15.27,83.32-49.39,140.9-33.61,44.44,14.77,77.77,35.14,97.46,72.83,9.6,21.89,11.11,48.38-62.11,44.81l-204,.33S1361.91,443.89,1405.34,401.62Z"/>
            <path class="cls-38" d="M1402.35,407.23s31.68-26.41,64.88-36.76c36.27-15.53,84.3-50.22,142.54-34.17,45,15,78.67,35.72,98.6,74,9.7,22.26,11.24,49.18-62.84,45.56l-206.4.33S1358.41,450.2,1402.35,407.23Z"/>
            <path class="cls-23" d="M1639.64,455.9s.93,14.87-5.94,20.86c-2,2.09-3.67,2-6.12,2.09a14.2,14.2,0,0,0,8.53-10.2A79,79,0,0,0,1638,455.9h1.67Z"/>
            <path class="cls-23" d="M1571.5,456c-.27,2.7-.47,10.86-.36,12.68.47,8,1,17.14,5.94,19.5a6.46,6.46,0,0,0,3.69.49l1.87-.22c-2.29,3-4.35,3.24-5,3.27-4.07.2-8.83-5.38-10-14.37a57.7,57.7,0,0,1-.82-12.93c.19-3.58.74-8.48.74-8.48h0Z"/>
          </g>
          <path class="cls-39" d="M188.31,570.62c27.29.33,54.39,2,81.69,2.18,33.74.27,67.09-2.17,100.87-1.12,19.05.58,38.08,1.32,57.17,1.69,17.25.32,34.49.17,51.66.94,35.27,1.57,69.53,5.58,104.35,8.14,74.09,5.46,149.33,6.21,224.53,7.4,27.09.44,53.44.11,80.16-.76a145.68,145.68,0,0,1,14.84-1.28c8.39-.41,16.82-.6,25.23-.64-4.62-.1-8.63-.14-11.76-.14-28.47,0-90.11,2.38-123.31,1.19s-47.42,0-94.85-1.8S596.14,579.86,563,578.67s-71.14-6-101.17-6.59-53.75,1.2-96.44-1.19-82.19,1.79-126.45-.6c-30-1.62-62.11-3.24-82.21-4.11v4.89C167.25,570.54,178.06,570.5,188.31,570.62Z"/>
          <path class="cls-40" d="M1516.69,589.52c-54.81,6.32-111.16,16.53-166.44,18.18-72.43,2.13-144.1,9.57-216.67,11.3-74.41,1.79-146.39,1.38-220.7-2.44-64.34-3.32-128.8-.32-193.12-3.57C653.83,609.65,589,598.2,523,595.2c-47.6-2.15-93.73-5.3-141-9.8-39-3.71-76.32-13.33-115-17-36.79-3.5-254.5-28.7-291.6-29.3l11.49,368.42,1949.87,3.83-6.12-384.51c-46.53,6.34-203.31,29.72-248.49,39.77C1628.66,578.52,1571.68,583.2,1516.69,589.52Z"/>
          <g class="cls-41">
            <path class="cls-42" d="M1649.19,562c-5.62,2.26-11.3,4.52-17.07,6.7a435.5,435.5,0,0,1-74.27,21.1c-55.17,10.48-116.3,10.59-169.67,23.8,32.33,2.7,65.4,1.39,97.82-.21,22.64-1.12,45.3-1.88,67.93-3,17.57-.86,35.16-1.81,52.8-1.9,13-.07,31.43-.54,42.62,3.75,8.94,3.45,5.79,8.85-.14,12.82-9.63,6.4-23.81,11-37.25,14.92a520.55,520.55,0,0,1-56.24,12.85c-18.4,3.2-37.58,5.81-57,6.54-12.83.48-28.36.49-39.08-3.81-.6-.26-.73-.61-.21-.92,12-7.44,34.91-7.44,45.13-15.64-25.21-5.36-55.28-2.45-81.41-1.11-32.85,1.66-65.92,3.87-98.93,4.4-70.21,1.18-139.19-9.17-209.42-8.46-36.51.37-73,1.29-109.52,1.53-36.18.23-72.34.17-108.52-.41-26.63-.45-53.46-.18-80-1.19-23.37-.89-49.18-2.55-68.53-10.08-.75-.3-.72-.92.28-1.08,2.18-.35,4.43-.71,6.7-.9,15.36-1.41,30.91-.39,46.33,0,17.44.4,35-.66,52.26-1.71,17.6-1.06,35.21-2.3,52.87-3,8.47-.33,16.88-.44,25.3-.49q-22.12-.75-44.44-1.89c-62.19-3.22-124.49-.31-186.65-3.47-63.73-3.26-126.44-14.42-190.17-17.34-46-2.1-90.59-5.16-136.27-9.54-37.68-3.62-73.78-13-111.19-16.58-35.56-3.41-72.65-9.29-108.5-9.88v7.75q11,.46,21.87,1.29c68.89,5.09,134.72,17.7,201.57,27.29,16.64,2.4,33.42,4.62,50.44,6.15,16,1.48,31.88,2.13,48.09,2.52,26.24.66,55.2,1.45,78.07,9,.66.21.78.78,0,1-13.49,3.56-28.67,4.84-43.6,5.31-28.33.87-56.64-.81-84.95-.81-32.24,0-63.79,4-95,7.78-17.59,2.14-35.18,4.73-53,6.43-11.48,1.1-23.17,1.58-34.71,2.5-12.41,1-25.56,2.21-36.71,5.4a55.54,55.54,0,0,0-8.51,3c-2.23,1.06-2.42,1.08-.37,2.3a38.8,38.8,0,0,0,8.4,3.65c16.89,5.16,38.45,5.94,57.58,6.41,21.3.5,42.6.09,63.93,0,18.77-.07,37.42.93,56.19,1.27,22.79.34,50,.19,69.75,7.06.51.19.69.5.39.8-5.16,5-13.14,5.78-23.2,6.27-9.16.44-18.24,1.83-27.32,2.64-7.82.69-15.7,1.3-23.59,1.81-17.81,1.16-35.7,1.93-53.59,2.7-36.49,1.55-72.38,4.1-108.55,7.14-21,1.77-42,3.4-63.18,4.43V886L1925,903.68l2-385C1888.3,524,1687.1,554,1649.19,562Z"/>
          </g>
          <path class="cls-43" d="M1502.88,697.64,1268.45,731l-141.07-21.44L969.19,685.84l228.75-27.09Z"/>
          <path class="cls-43" d="M1116.45,707.92,949.73,797.74S852.52,785,852.6,785s175.75-86.5,179.31-89.74S1116.45,707.92,1116.45,707.92Z"/>
          <g class="cls-44">
            <path class="cls-45" d="M1772.32,687.36c-15.25,3.43-32,6.93-45,12.53-3,1.29-7.86,3.36-7.42,5.67.77,4.08,10.88,7.12,16.6,9.13,12.09,4.25,33.78,10.42,27.94,19.85-3,4.84-12.28,7-21.06,8.16-13.33,1.77-27.13,3.06-40.65,4.38-70.56,6.82-142.44,7.4-214,7.4H1377.55c-16.24,0-32.58.26-48.82,0-13.84-.22-27.91-.93-40.57-4.11-.78-.19-.71-.84,0-1,39.51-11.4,87.51-12.39,131.54-13.22,14.5-.26,29-.44,43.49-.8,16.43-.41,32.76-1.38,49.13-2.16,18.44-.9,36.87-1.72,55.33-2.59,16.92-.83,33.89-2,50.88-2.48,13-.36,27.41-.38,39.26-3.54a42.82,42.82,0,0,0,9.07-3.34c3.08-1.69,2.19-2.5-1.91-3.16a89.92,89.92,0,0,0-17.86-.79c-12.74.51-25.21,2-37.88,2.72-18.55,1-37.17,1.5-55.8,1.5-37.31,0-74.57-1.35-111.86-1.46-33.79-.13-67.56.28-101.33.89-19.09,1-38.1,2.44-56.75,4.76-17.68,2.21-35,5.22-52.61,7.51-16.91,2.19-34,4.08-51.32,5.22-34.35,2.3-69.7,1.91-104.21.85-26.24-.8-52.43-2.34-78.13-5.16-74.24-2.28-148.62-6.34-222.72-2.42C803.75,737,835,738.88,865.77,740c29.2,1.12,58.62,2.1,87.89,2.53,28.74.42,57.54-.15,86.27.92,25.94,1,52.82,3,75.74,9.87.82.25.69.78,0,1.06-16.61,6.35-39.79,7.3-59.66,7.6-23.86.44-47.71-.54-71.49-1.38-30.34-1.07-60.86-.89-91.25-1.16-35.63-.3-71.24-.7-106.83-1.57-37.62-.92-74.84-2.79-112.24-5.06-36.89-2.24-73.84-4.34-111-4.72s-74,0-111-.46c-15.62-.17-31.32-.12-46.93-.44-11.61-.24-23.92-1-33.18-5-.5-.21-.41-.63,0-.85,12.72-6.85,33.36-8.56,50.7-9.46,23.92-1.24,48-.79,72-.45,29,.38,57.93.16,86.89.33,18.9.08,37.8.14,56.72,0,14.3-.1,28.62-.54,42.92-.23,12.87.26,25.8.73,38.69.31,11.95-.39,24.73-1.38,34.6-5.17-40.28-6.66-82.33-9.22-124.37-10.5-41.87-1.25-83.78-1.8-125.59-3.4-37.81-1.44-75.44-5-113.31-5.86-17.67-.41-35.54.6-53.18,1-21.41.49-43.25,1-64.58-.39-11.36-.76-28.84-2-33.94-8.36-.15-.17,0-.47.29-.59,22.18-9.31,54.8-10.18,81.89-11.61,37.88-2,75-6.5,112.9-8.75,16.38-1,32-2.09,47.12-5.71,12.12-2.9,23.3-6.21,36.29-8S547,661.74,557.4,657c1.7-.78,1.23-.71-.4-1.44-1.11-.47-2.22-.95-3.41-1.36a59.78,59.78,0,0,0-6-1.79,101.57,101.57,0,0,0-14.43-2.23c-23-1.92-46.49.62-69.52,1.07-19.79.41-41.54-.29-56.26-8.1-.55-.31-.36-.74.23-.95,12.1-4.52,27.58-6.25,42-7.49,16.17-1.38,32.49-2,48.76-3,15-.9,29.92-2.1,44.94-3,18-1,36.19-2,53.87-4.19,13-1.57,26.16-3.64,37.7-7.22,7.8-2.43,22.13-7.16,21.37-12.81a4.31,4.31,0,0,0-1.18-2.28c-44-4.67-87.78-10.54-132.06-12.57-47.6-2.18-93.73-5.36-141-9.9-39-3.74-76.32-13.46-115-17.17-36.79-3.54-75.15-9.62-112.25-10.24v8c7.56.32,15.09.78,22.62,1.33C248.64,567,316.74,580.1,385.91,590c17.21,2.49,34.57,4.79,52.18,6.38,16.55,1.53,33,2.21,49.75,2.61,27.15.68,57.11,1.5,80.78,9.34.68.21.8.81,0,1-14,3.68-29.66,5-45.11,5.5-29.31.9-58.6-.84-87.9-.84-33.34,0-66,4.13-98.32,8.07-18.2,2.21-36.4,4.9-54.8,6.65-11.87,1.14-24,1.64-35.91,2.59-12.83,1-26.44,2.29-38,5.6a57.88,57.88,0,0,0-8.8,3.1c-2.31,1.1-2.51,1.12-.38,2.38a39.77,39.77,0,0,0,8.68,3.78c17.48,5.35,39.79,6.16,59.58,6.65,22,.51,44.08.08,66.14,0,19.42-.08,38.72,1,58.14,1.3,23.58.37,51.73.21,72.16,7.33.53.19.72.51.4.82-5.33,5.2-13.58,6-24,6.5-9.47.45-18.87,1.9-28.26,2.74q-12.15,1.06-24.41,1.87c-18.43,1.2-36.93,2-55.45,2.8-37.75,1.61-74.88,4.25-112.3,7.4-21.71,1.83-223.59-.1-245.48,1L-19.26,909,1923,903.68l-.51-244.08C1906.36,662.74,1788.12,683.81,1772.32,687.36Z"/>
          </g>
          <path class="cls-46" d="M-5.47,706.06s173.11,77.44,231,30.44-168.61-76-.34-97,550-22.21,595.13,11.9-138.72,64.54-65.79,75.33,143.78-12.27,285.36,16.76,164.57,16.8,227.07,13.91,354.5,25.11,164.5,56.11-557,12-483,24-254.86,16-308.93,0-37.07-38-131.07-26-326.18-4.88-346.08-10.36C84.15,779.6-5.47,706.06-5.47,706.06Z"/>
          <g>
            <ellipse class="cls-47" cx="307.5" cy="670.5" rx="98.5" ry="9.5"/>
            <path class="cls-47" d="M795.08,733.64c24.45.05,61.61.08,107,0,109.62-.2,167.92-.93,168,.6s-61.53,4.81-66.1,5c-38.79,2-68,2.46-68,4,0,.6,3,1.17,9.93,1.64,36.35,2.45,144.48-1.2,168.88,0s117.45,9.43,1.77,10.94-299.66-1-219.64,5.23,225.76.65,252.19,4.4,189.64,11,63.7,19.22-430.54,7.13-381.08,10.2,371.29-5.61,303.47,7.16-359.31,15.51-370.94,12.27-25.66-11.25,11.5-19.43,40.71-10.06,83.27-15,89.39-10.6-10.28-12.49-149.1-6.77-72.07-11.51c65.8-4.05,142-9.07,141.85-11.28,0-.54-6-.81-7.2-.86C890.14,742.71,855.27,740,795.08,733.64Z"/>
            <path class="cls-47" d="M441.58,780.22c-51.3-9.38-76.95-14.09-108.28-14.71-46.33-.91-82.93,5.92-108.78,10.42-23.9,4.17-64.78,11.28-64.71,15.73.07,4.73,51.35.88,173-1,77.86-1.21,130-.78,130.13-4.82C463,784.45,457,783,441.58,780.22Z"/>
            <path class="cls-47" d="M208.91,707s30.87-3.82,47.91-1.58,57.48,7.21,29.24,8.94,34.08,2.81,82.39.16,99.3,9.67,51.24,11.47-153.21,1-174.08,0-7.7-10.1-7.7-10.1C269.86,712.76,216.14,706.77,208.91,707Z"/>
          </g>
          <g>
            <path class="cls-48" d="M997,615.61c-1.77,0-4.13,0-6.49.17-4.57.19-8.69.73-9.75,1.82-.13.14-.09.25.16.37,4.46,2,13.43,1.46,19.53,1.18,2.22-.09,14.69-.29,14-2.1S1000.57,615.53,997,615.61Z"/>
            <path class="cls-48" d="M1070.91,608.49c-1.51-1.42-10.63-.83-13.58-.73-1.24,0-4.12,0-6.51.23l-2,.09c-1.27,0-5.37.79-3.19,1.49,2.43.79,6.45.76,9.41.8,3.21,0,6.4-.13,9.54-.38a28.27,28.27,0,0,0,5.56-.72C1070.72,609.08,1071.23,608.8,1070.91,608.49Z"/>
            <path class="cls-48" d="M563,669.14c-1.76,0-4.13.06-6.48.18-4.57.18-8.68.72-9.75,1.82-.14.13-.1.26.15.38,4.46,2,13.45,1.44,19.54,1.17,2.21-.09,14.69-.29,14-2.1S566.53,669.07,563,669.14Z"/>
            <path class="cls-48" d="M637.35,674.8c-1.52-1.42-10.64-.82-13.59-.73-1.24,0-4.1,0-6.49.23l-2,.1c-1.28.05-5.38.78-3.19,1.48,2.41.77,6.44.75,9.41.78,3.21,0,6.42-.11,9.54-.36a28,28,0,0,0,5.54-.72C637.17,675.39,637.67,675.12,637.35,674.8Z"/>
            <path class="cls-48" d="M1037,680c-1.22,0-2.87,0-4.51.12-3.21.15-6.07.51-6.81,1.28-.09.08-.07.17.1.25,3.12,1.42,9.4,1,13.64.84,1.55-.08,10.28-.22,9.77-1.49S1039.51,679.93,1037,680Z"/>
            <path class="cls-48" d="M1088.94,683.93c-1-1-7.41-.58-9.48-.51-.87,0-2.87,0-4.53.16l-1.39.07c-.9,0-3.77.53-2.24,1a27.43,27.43,0,0,0,6.59.55c2.23,0,4.45-.08,6.62-.26a21.85,21.85,0,0,0,3.91-.49C1088.82,684.34,1089.16,684.15,1088.94,683.93Z"/>
          </g>
          <path class="cls-48" d="M1313.63,686.57c0,1.84-25.74,3.34-57.43,3.34s-57.42-1.5-57.42-3.34,25.71-3.34,57.42-3.34S1313.63,684.73,1313.63,686.57Z"/>
          <path class="cls-49" d="M1711.54,607.77c-6.91-14.89-19.93-5.71-19.93-5.71-5.24-15.66-14.07-7.08-14.07-7.08-10.67-19.07-18.77-.55-18.77-.55s-2.54-13.92-10.64-18.88-15,2.91-15,2.91c-15.64-18.1-23.23,5.18-23.23,5.18-6-4.52-10-.32-10-.32-6.49,6.93-2.87,17.37-2.87,17.37-19.9,5.07-7.8,15.42-7.8,15.42l2.88,1.94,130.15,3,2.12-1.19c6-3.4,4.1-13.66-2.62-14A28.91,28.91,0,0,0,1711.54,607.77Z"/>
          <path class="cls-50" d="M843.28,581.72c-12-13.45-34.58-5.16-34.58-5.16-9.08-14.14-24.4-6.4-24.4-6.4-18.51-17.21-32.56-.49-32.56-.49a30,30,0,0,0-18.46-17c-14-4.48-26,2.63-26,2.63-27.14-16.34-40.31,4.68-40.31,4.68-10.32-4.09-17.4-.29-17.4-.29-11.26,6.26-5,15.69-5,15.69-34.52,4.57-13.53,13.92-13.53,13.92l5,1.75,219.16-1.61,10.53-3.08C871.72,580.15,843.28,581.72,843.28,581.72Z"/>
          <path class="cls-51" d="M118.62,527.6s25.27-23.75,42.36-4c41.34-12.8,65.32-1.19,63.28,14.28,42.36-2.68,54.1,25,37.77,31.23,0,0,35.21-12.19,67.87,4.76C362.56,559,440.13,580.4,460,591.41c-289.33,2.06-414.18-3.3-414.18-3.3Z"/>
          <path class="cls-51" d="M1928.06,524.79s-32.68-27.07-57.55,5.08c-55.06-18.13-87-1.69-84.29,20.23-56.42-3.8-72,35.4-50.3,44.25,0,0-46.9-17.28-90.4,6.74C1602,580,1498.7,610.37,1472.19,626c376.72,1.47,455.87,7.59,455.87,7.59Z"/>
          <path class="cls-51" d="M1033.44,611.21q-9,15.51-18.08,31c1.15-9.88,3-37.14-13.05-65-25.95-45.12-75.59-51.57-79.34-52-40.09-4.51-69.07,15.93-75.72,20.89-56.42-3.8-72,35.4-50.3,44.25a200.26,200.26,0,0,0-95.9-2.35,228.78,228.78,0,0,0-198.84,12l433.55,22.8Z"/>
          <g>
            <polygon class="cls-52" points="120.51 527.84 463.38 539.75 462.33 547.91 120.51 537.88 120.51 527.84"/>
            <polygon class="cls-53" points="131.37 519.51 150.62 519.86 152.93 523.07 151.78 586.28 130.1 588.67 131.37 519.51"/>
            <polygon class="cls-53" points="175.32 518.18 196.6 518.57 193.57 592.28 173.97 591.93 175.32 518.18"/>
            <polygon class="cls-53" points="215.11 522.61 232 522.91 234.41 557.55 233.72 595.49 212.48 592.62 215.11 522.61"/>
            <path class="cls-53" d="M253.31,521.72s-5.8,2.89-2,37.81L255,594.46l18.91.34-4.38-74.92Z"/>
            <path class="cls-53" d="M286.42,522.32,281,594.93l17.22.31,8.24-62.63s1.13-6-3.53-10Z"/>
            <polygon class="cls-53" points="313.82 520.68 336.11 521.09 337.11 595.94 317.49 597 313.82 520.68"/>
            <polygon class="cls-53" points="353.39 523.8 375.6 524.2 372.22 599.04 351.96 602.19 353.39 523.8"/>
            <path class="cls-53" d="M399,524.32l21.68-2.8q-.94,41-1.9,82L397.58,603Z"/>
            <path class="cls-53" d="M437.35,524.15s7.57-7.4,19.62-1.15c0,0,5.13,52.09,4.64,78.83L442,604.49S435.77,536.55,437.35,524.15Z"/>
            <polygon class="cls-54" points="131.37 519.51 148.45 521.4 150.86 525.13 149.08 586.58 151.78 586.28 152.93 523.07 150.62 519.86 131.37 519.51"/>
            <polygon class="cls-54" points="175.32 518.18 193.47 520.64 190.02 592.22 193.57 592.28 196.6 518.57 175.32 518.18"/>
            <polygon class="cls-54" points="215.11 522.61 228.49 524.44 231.71 556.62 231 595.44 233.72 595.49 234.31 556.13 232 522.91 215.11 522.61"/>
            <polygon class="cls-54" points="253.31 521.72 267.25 521.97 272.21 594.77 273.94 594.8 269.56 519.88 253.31 521.72"/>
            <path class="cls-54" d="M286.42,522.32l15.38,1.86a14.76,14.76,0,0,1,2.64,9.11c-.26,5.38-7.74,61.92-7.74,61.92l1.56,0,8.13-61.75s1.47-7.71-3.42-10.87Z"/>
            <polygon class="cls-54" points="313.82 520.68 333.59 523.17 334.91 595.9 337.11 595.94 336.11 521.09 313.82 520.68"/>
            <polygon class="cls-54" points="355.41 522.48 375.1 525.3 371.35 598.49 374.31 598.03 377.7 522.88 355.41 522.48"/>
            <polygon class="cls-54" points="398.71 524.55 419.99 521.8 418.8 603.55 421.81 602.55 422.7 518.52 398.71 524.55"/>
            <path class="cls-54" d="M439.27,521.86s11.27-3.31,17.58,1.55c0,0,4.54,73.4,4.12,79.14l3-2s-.54-39.55-1.66-52.64c-.93-10.8-3.44-27.11-3.44-27.11S448.79,514.08,439.27,521.86Z"/>
            <ellipse class="cls-55" cx="141.87" cy="536.54" rx="3.36" ry="3.2" transform="translate(-397.37 667.78) rotate(-88.87)"/>
            <ellipse class="cls-55" cx="183.08" cy="537.29" rx="3.36" ry="3.2" transform="translate(-357.72 709.72) rotate(-88.87)"/>
            <ellipse class="cls-55" cx="221.61" cy="537.03" rx="3.36" ry="3.2" transform="translate(-319.68 747.99) rotate(-88.87)"/>
            <ellipse class="cls-55" cx="258.45" cy="536.54" rx="3.36" ry="3.2" transform="translate(-283.1 784.34) rotate(-88.87)"/>
            <ellipse class="cls-55" cx="295.66" cy="535.96" rx="3.36" ry="3.2" transform="translate(-246.04 820.97) rotate(-88.87)"/>
            <ellipse class="cls-55" cx="323.93" cy="535.51" rx="3.36" ry="3.2" transform="translate(-217.88 848.8) rotate(-88.87)"/>
            <ellipse class="cls-55" cx="362.89" cy="539.8" rx="3.36" ry="3.2" transform="translate(-183.97 891.95) rotate(-88.87)"/>
            <ellipse class="cls-55" cx="406.97" cy="538.29" rx="3.36" ry="3.2" transform="translate(-139.25 934.54) rotate(-88.87)"/>
            <ellipse class="cls-55" cx="447.14" cy="539.29" rx="3.36" ry="3.2" transform="translate(-100.88 975.68) rotate(-88.87)"/>
          </g>
          <g>
            <polygon class="cls-52" points="814.47 545.46 1171.37 558.82 1170.29 567.99 814.47 556.73 814.47 545.46"/>
            <polygon class="cls-53" points="839.36 533.13 858.62 533.52 860.92 537.12 859.77 608.1 838.1 610.79 839.36 533.13"/>
            <polygon class="cls-53" points="883.32 531.63 904.6 532.07 901.56 614.84 881.97 614.44 883.32 531.63"/>
            <polygon class="cls-53" points="923.11 536.61 940 536.95 942.41 575.84 941.72 618.44 920.48 615.23 923.11 536.61"/>
            <path class="cls-53" d="M961.31,535.61s-5.8,3.25-2,42.46L963,617.28l18.92.39-4.38-84.12Z"/>
            <path class="cls-53" d="M994.41,536.28,989,617.81l17.23.35,8.24-70.32s1.12-6.75-3.54-11.22Z"/>
            <polygon class="cls-53" points="1021.81 534.45 1044.11 534.9 1045.11 618.95 1025.49 620.15 1021.81 534.45"/>
            <polygon class="cls-53" points="1061.39 537.94 1083.6 538.39 1080.21 622.44 1059.96 625.97 1061.39 537.94"/>
            <path class="cls-53" d="M1107,538.53l21.68-3.14q-1,46.05-1.9,92.11l-21.22-.58Z"/>
            <path class="cls-53" d="M1145.34,538.34s7.57-8.31,19.62-1.3c0,0,5.13,58.49,4.65,88.52l-19.65,3S1143.76,552.27,1145.34,538.34Z"/>
            <polygon class="cls-54" points="839.36 533.13 856.45 535.25 858.86 539.43 857.08 608.43 859.77 608.1 860.92 537.12 858.62 533.52 839.36 533.13"/>
            <polygon class="cls-54" points="883.32 531.63 901.47 534.39 898.01 614.77 901.56 614.84 904.6 532.07 883.32 531.63"/>
            <polygon class="cls-54" points="923.11 536.61 936.48 538.67 939.7 574.79 938.99 618.39 941.72 618.44 942.31 574.25 940 536.95 923.11 536.61"/>
            <polygon class="cls-54" points="961.31 535.61 975.25 535.89 980.21 617.63 981.94 617.67 977.56 533.55 961.31 535.61"/>
            <path class="cls-54" d="M994.41,536.28l15.38,2.09a18,18,0,0,1,2.65,10.23c-.26,6-7.75,69.53-7.75,69.53l1.57,0,8.12-69.33s1.47-8.66-3.42-12.21Z"/>
            <polygon class="cls-54" points="1021.81 534.45 1041.58 537.24 1042.9 618.91 1045.11 618.95 1044.11 534.9 1021.81 534.45"/>
            <polygon class="cls-54" points="1063.4 536.47 1083.09 539.63 1079.35 621.81 1082.3 621.3 1085.7 536.92 1063.4 536.47"/>
            <polygon class="cls-54" points="1106.71 538.79 1127.98 535.7 1126.79 627.5 1129.8 626.37 1130.69 532.02 1106.71 538.79"/>
            <path class="cls-54" d="M1147.27,535.77s11.27-3.72,17.58,1.74c0,0,4.53,82.42,4.12,88.86l3-2.24s-.53-44.41-1.65-59.11c-.93-12.13-3.45-30.45-3.45-30.45S1156.79,527,1147.27,535.77Z"/>
            <ellipse class="cls-55" cx="849.86" cy="552.25" rx="3.77" ry="3.2" transform="translate(292.7 1398.9) rotate(-89.67)"/>
            <ellipse class="cls-55" cx="891.08" cy="553.09" rx="3.77" ry="3.2" transform="translate(332.83 1440.94) rotate(-89.67)"/>
            <ellipse class="cls-55" cx="929.61" cy="552.8" rx="3.77" ry="3.2" transform="matrix(0.01, -1, 1, 0.01, 371.44, 1479.19)"/>
            <ellipse class="cls-55" cx="966.44" cy="559.19" rx="3.77" ry="3.2" transform="translate(401.66 1522.37) rotate(-89.67)"/>
            <ellipse class="cls-55" cx="1003.65" cy="558.53" rx="3.77" ry="3.2" transform="translate(439.31 1558.93) rotate(-89.67)"/>
            <ellipse class="cls-55" cx="1031.92" cy="558.03" rx="3.77" ry="3.2" transform="translate(467.92 1586.7) rotate(-89.67)"/>
            <ellipse class="cls-55" cx="1070.89" cy="562.84" rx="3.77" ry="3.2" transform="translate(501.85 1630.45) rotate(-89.67)"/>
            <ellipse class="cls-55" cx="1114.96" cy="561.14" rx="3.77" ry="3.2" transform="translate(547.37 1672.84) rotate(-89.67)"/>
            <ellipse class="cls-55" cx="1155.13" cy="562.27" rx="3.77" ry="3.2" transform="translate(586.18 1714.12) rotate(-89.67)"/>
          </g>
          <g>
            <polygon class="cls-52" points="469.01 537.03 816.87 549.83 815.81 558.62 469.01 547.82 469.01 537.03"/>
            <polygon class="cls-53" points="484.86 528.07 504.12 528.44 506.42 531.89 505.27 599.9 483.6 602.47 484.86 528.07"/>
            <polygon class="cls-53" points="528.82 526.63 550.1 527.05 547.06 606.35 527.47 605.97 528.82 526.63"/>
            <polygon class="cls-53" points="568.61 531.4 585.5 531.72 587.91 568.99 587.22 609.81 565.98 606.72 568.61 531.4"/>
            <path class="cls-53" d="M606.81,530.44s-5.8,3.11-2,40.68l3.75,37.57,18.92.37-4.38-80.59Z"/>
            <path class="cls-53" d="M639.91,531.08l-5.38,78.12,17.23.34L660,542.16s1.12-6.47-3.54-10.76Z"/>
            <polygon class="cls-53" points="667.31 529.33 689.61 529.76 690.61 610.29 670.99 611.44 667.31 529.33"/>
            <polygon class="cls-53" points="706.89 532.67 729.1 533.11 725.71 613.63 705.46 617.02 706.89 532.67"/>
            <path class="cls-53" d="M752.51,533.24l21.68-3q-1,44.13-1.9,88.25l-21.22-.56Z"/>
            <path class="cls-53" d="M790.84,533.05s7.57-8,19.62-1.24c0,0,5.13,56.05,4.65,84.82l-19.65,2.86S789.26,546.4,790.84,533.05Z"/>
            <polygon class="cls-54" points="484.86 528.07 501.95 530.1 504.36 534.1 502.58 600.22 505.27 599.9 506.42 531.89 504.12 528.44 484.86 528.07"/>
            <polygon class="cls-54" points="528.82 526.63 546.97 529.27 543.51 606.28 547.06 606.35 550.1 527.05 528.82 526.63"/>
            <polygon class="cls-54" points="568.61 531.4 581.98 533.37 585.2 567.99 584.49 609.75 587.22 609.81 587.81 567.46 585.5 531.72 568.61 531.4"/>
            <polygon class="cls-54" points="606.81 530.44 620.75 530.71 625.71 609.03 627.44 609.06 623.06 528.47 606.81 530.44"/>
            <path class="cls-54" d="M639.91,531.08l15.38,2a16.74,16.74,0,0,1,2.65,9.8c-.26,5.79-7.75,66.63-7.75,66.63l1.57,0,8.12-66.44s1.47-8.29-3.42-11.7Z"/>
            <polygon class="cls-54" points="667.31 529.33 687.08 532 688.4 610.25 690.61 610.29 689.61 529.76 667.31 529.33"/>
            <polygon class="cls-54" points="708.9 531.26 728.59 534.29 724.85 613.03 727.8 612.54 731.2 531.69 708.9 531.26"/>
            <polygon class="cls-54" points="752.21 533.49 773.48 530.53 772.29 618.48 775.3 617.4 776.2 527 752.21 533.49"/>
            <path class="cls-54" d="M792.76,530.59S804,527,810.35,532.26c0,0,4.53,79,4.12,85.14l3-2.15s-.53-42.55-1.65-56.63c-.93-11.62-3.45-29.17-3.45-29.17S802.29,522.22,792.76,530.59Z"/>
            <ellipse class="cls-55" cx="495.36" cy="546.38" rx="3.62" ry="3.2" transform="translate(-54.89 1037.44) rotate(-89.55)"/>
            <ellipse class="cls-55" cx="536.58" cy="547.19" rx="3.62" ry="3.2" transform="matrix(0.01, -1, 1, 0.01, -14.81, 1079.45)"/>
            <ellipse class="cls-55" cx="575.11" cy="546.91" rx="3.62" ry="3.2" transform="translate(23.71 1117.71) rotate(-89.55)"/>
            <ellipse class="cls-55" cx="611.94" cy="546.39" rx="3.62" ry="3.2" transform="translate(60.77 1154.02) rotate(-89.55)"/>
            <ellipse class="cls-55" cx="649.15" cy="545.76" rx="3.62" ry="3.2" transform="translate(98.31 1190.61) rotate(-89.55)"/>
            <ellipse class="cls-55" cx="677.42" cy="545.28" rx="3.62" ry="3.2" transform="translate(126.84 1218.4) rotate(-89.55)"/>
            <ellipse class="cls-55" cx="716.39" cy="549.89" rx="3.62" ry="3.2" transform="translate(160.89 1261.93) rotate(-89.55)"/>
            <ellipse class="cls-55" cx="760.46" cy="548.26" rx="3.62" ry="3.2" transform="translate(206.25 1304.4) rotate(-89.55)"/>
            <ellipse class="cls-55" cx="800.63" cy="549.34" rx="3.62" ry="3.2" transform="translate(245.03 1345.63) rotate(-89.55)"/>
          </g>
          <g>
            <polygon class="cls-52" points="1528.49 571.61 1871.36 586.34 1870.31 596.45 1528.49 584.03 1528.49 571.61"/>
            <polygon class="cls-53" points="1552.38 544.29 1571.63 544.73 1573.94 548.69 1572.79 626.95 1551.12 629.91 1552.38 544.29"/>
            <polygon class="cls-53" points="1596.33 542.64 1617.61 543.12 1614.58 634.38 1594.99 633.94 1596.33 542.64"/>
            <polygon class="cls-53" points="1636.13 548.13 1653.02 548.5 1655.42 591.38 1654.73 638.35 1633.5 634.8 1636.13 548.13"/>
            <path class="cls-53" d="M1674.33,547s-5.8,3.59-2,46.82l3.76,43.23,18.92.42-4.38-92.74Z"/>
            <path class="cls-53" d="M1707.43,547.77l-5.38,89.88,17.23.39,8.24-77.53s1.12-7.44-3.54-12.37Z"/>
            <polygon class="cls-53" points="1734.83 545.74 1757.13 546.24 1758.13 638.91 1738.51 640.22 1734.83 545.74"/>
            <polygon class="cls-53" points="1774.41 549.6 1796.61 550.09 1793.23 642.75 1772.98 646.64 1774.41 549.6"/>
            <path class="cls-53" d="M1820,550.25l21.67-3.47-1.89,101.55-21.22-.64Z"/>
            <path class="cls-53" d="M1858.36,550s7.57-9.16,19.62-1.42c0,0,5.13,64.48,4.64,97.59L1863,649.49S1856.78,565.39,1858.36,550Z"/>
            <polygon class="cls-54" points="1552.38 544.29 1569.46 546.63 1571.88 551.24 1570.1 627.31 1572.79 626.95 1573.94 548.69 1571.63 544.73 1552.38 544.29"/>
            <polygon class="cls-54" points="1596.33 542.64 1614.49 545.68 1611.03 634.3 1614.58 634.38 1617.61 543.12 1596.33 542.64"/>
            <polygon class="cls-54" points="1636.13 548.13 1649.5 550.4 1652.72 590.23 1652.01 638.29 1654.73 638.35 1655.33 589.63 1653.02 548.5 1636.13 548.13"/>
            <polygon class="cls-54" points="1674.33 547.02 1688.27 547.34 1693.23 637.45 1694.96 637.49 1690.58 544.75 1674.33 547.02"/>
            <path class="cls-54" d="M1707.43,547.77l15.38,2.3a21.29,21.29,0,0,1,2.65,11.27c-.27,6.66-7.75,76.66-7.75,76.66l1.57,0,8.12-76.44s1.47-9.54-3.42-13.46Z"/>
            <polygon class="cls-54" points="1734.83 545.74 1754.6 548.82 1755.92 638.86 1758.13 638.91 1757.13 546.24 1734.83 545.74"/>
            <polygon class="cls-54" points="1776.42 547.97 1796.11 551.46 1792.37 642.06 1795.32 641.5 1798.72 548.47 1776.42 547.97"/>
            <polygon class="cls-54" points="1819.72 550.53 1841 547.13 1839.81 648.33 1842.82 647.09 1843.71 543.07 1819.72 550.53"/>
            <path class="cls-54" d="M1860.28,547.2s11.28-4.1,17.58,1.92c0,0,4.54,90.87,4.13,98l3-2.48s-.53-49-1.65-65.16c-.93-13.37-3.45-33.57-3.45-33.57S1869.81,537.57,1860.28,547.2Z"/>
            <ellipse class="cls-55" cx="1562.88" cy="579.37" rx="4.16" ry="3.2" transform="translate(977.87 2140.15) rotate(-89.79)"/>
            <ellipse class="cls-55" cx="1604.09" cy="580.3" rx="4.16" ry="3.2" transform="translate(1018.01 2182.28) rotate(-89.79)"/>
            <ellipse class="cls-55" cx="1642.63" cy="579.97" rx="4.16" ry="3.2" transform="translate(1056.73 2220.5) rotate(-89.79)"/>
            <ellipse class="cls-55" cx="1679.46" cy="583.38" rx="4.16" ry="3.2" transform="translate(1090.02 2260.72) rotate(-89.79)"/>
            <ellipse class="cls-55" cx="1714.66" cy="586.65" rx="4.16" ry="3.2" transform="translate(1121.82 2299.19) rotate(-89.79)"/>
            <ellipse class="cls-55" cx="1744.94" cy="586.1" rx="4.16" ry="3.2" transform="translate(1152.54 2328.92) rotate(-89.79)"/>
            <ellipse class="cls-55" cx="1783.9" cy="583.4" rx="4.16" ry="3.2" transform="translate(1194.06 2365.19) rotate(-89.79)"/>
            <ellipse class="cls-55" cx="1827.98" cy="581.53" rx="4.16" ry="3.2" transform="translate(1239.85 2407.4) rotate(-89.79)"/>
            <ellipse class="cls-55" cx="1868.15" cy="582.77" rx="4.16" ry="3.2" transform="translate(1278.64 2448.81) rotate(-89.79)"/>
          </g>
          <g>
            <g>
              <g>
                <path class="cls-56" d="M997.65,695.41l12.86-3.43q4.11-36.4,8.2-72.79l-28.34.62Z"/>
                <path class="cls-57" d="M969,617.05l13.11,75.1,15.46,3.22Q995,653.3,992.4,611.22Z"/>
              </g>
              <g>
                <path class="cls-56" d="M1272.2,724.45l12.86-3.43,8.19-72.78-28.33.62Z"/>
                <path class="cls-57" d="M1243.53,646.1l13.11,75.1,15.45,3.22q-2.58-42.07-5.15-84.15Z"/>
              </g>
              <g>
                <path class="cls-56" d="M1476.41,700.84l12.07-4.61q3.82-35.67,7.65-71.27l-26.58,3Z"/>
                <path class="cls-57" d="M1449.27,627.06q6.23,36.15,12.45,72.16l14.59,1.6q-2.43-40.68-4.85-81.41Z"/>
              </g>
              <g>
                <path class="cls-2" d="M949.73,401.15Q967.79,517.6,985.65,632.8l277.66,32.68q21.24-120.36,42.8-242.47L1107.9,217.65Z"/>
                <g class="cls-58">
                  <g>
                    <polygon class="cls-59" points="1587.22 124.42 1587.19 127.54 765.84 115.69 765.69 112.76 1587.22 124.42"/>
                    <polygon class="cls-59" points="1586.8 163.54 1586.76 167.23 767.4 149.87 767.26 146.67 1586.8 163.54"/>
                    <polygon class="cls-59" points="1586.38 203.04 1586.34 206.7 768.97 184.17 768.83 180.98 1586.38 203.04"/>
                    <polygon class="cls-59" points="1585.95 242.31 1585.92 245.96 770.53 218.31 770.38 215.14 1585.95 242.31"/>
                    <polygon class="cls-59" points="1585.54 281.38 1585.5 285 772.08 252.29 771.93 249.14 1585.54 281.38"/>
                    <polygon class="cls-59" points="1585.12 320.23 1585.08 323.84 773.62 286.11 773.48 282.97 1585.12 320.23"/>
                    <polygon class="cls-59" points="1584.7 358.88 1584.67 362.46 775.16 319.78 775.01 316.65 1584.7 358.88"/>
                    <polygon class="cls-59" points="1584.29 397.32 1584.26 400.88 776.68 353.28 776.54 350.17 1584.29 397.32"/>
                    <polygon class="cls-59" points="1583.88 435.55 1583.85 439.1 778.21 386.63 778.07 383.54 1583.88 435.55"/>
                    <polygon class="cls-59" points="1583.47 473.58 1583.44 477.11 779.72 419.83 779.58 416.75 1583.47 473.58"/>
                    <polygon class="cls-59" points="1583.07 511.4 1583.03 514.91 781.23 452.87 781.09 449.81 1583.07 511.4"/>
                    <polygon class="cls-59" points="1582.67 549.03 1582.63 552.52 782.73 485.76 782.59 482.71 1582.67 549.03"/>
                    <polygon class="cls-59" points="1582.27 586.46 1582.23 589.93 784.22 518.5 784.09 515.46 1582.27 586.46"/>
                    <polygon class="cls-59" points="1581.87 623.68 1581.83 627.14 785.71 551.09 785.58 548.07 1581.87 623.68"/>
                    <polygon class="cls-59" points="1581.47 660.72 1581.43 664.15 787.19 583.53 787.06 580.52 1581.47 660.72"/>
                    <polygon class="cls-59" points="1581.07 697.56 1581.04 700.97 788.66 615.82 788.53 612.82 1581.07 697.56"/>
                    <polygon class="cls-59" points="1580.68 734.2 1580.64 737.6 790.13 647.96 790 644.98 1580.68 734.2"/>
                    <polygon class="cls-59" points="1580.29 770.66 1580.25 774.04 791.59 679.96 791.46 676.99 1580.29 770.66"/>
                    <polygon class="cls-59" points="1579.9 806.92 1579.87 810.28 793.04 711.81 792.91 708.85 1579.9 806.92"/>
                    <polygon class="cls-59" points="1579.51 843 1579.48 846.34 794.49 743.51 794.36 740.57 1579.51 843"/>
                    <polygon class="cls-59" points="1579.13 878.89 1579.09 882.21 795.93 775.08 795.8 772.15 1579.13 878.89"/>
                  </g>
                </g>
              </g>
              <polygon class="cls-60" points="1050.7 399.95 1146.94 402 1146.94 417.21 1050.7 410.51 1050.7 399.95"/>
              <g>
                <path class="cls-3" d="M1538.81,412.15l-232.61,1.91-46.11,253.67,242.58-18.51Q1520.75,530.69,1538.81,412.15Z"/>
                <g class="cls-61">
                  <g>
                    <polygon class="cls-10" points="1961.3 -0.63 1961.23 2.59 1140.81 -70.87 1140.63 -74.74 1961.3 -0.63"/>
                    <polygon class="cls-10" points="1960.61 33.85 1960.55 37.05 1142.78 -29.38 1142.6 -33.23 1960.61 33.85"/>
                    <polygon class="cls-10" points="1959.92 68.14 1959.86 71.32 1144.73 11.82 1144.55 8 1959.92 68.14"/>
                    <polygon class="cls-10" points="1959.25 102.23 1959.18 105.39 1146.66 52.74 1146.49 48.95 1959.25 102.23"/>
                    <polygon class="cls-10" points="1958.57 136.13 1958.51 139.28 1148.59 93.39 1148.41 89.63 1958.57 136.13"/>
                    <polygon class="cls-10" points="1957.9 169.84 1957.84 172.97 1150.49 133.77 1150.32 130.03 1957.9 169.84"/>
                    <polygon class="cls-10" points="1957.23 203.36 1957.17 206.47 1152.39 173.88 1152.22 170.16 1957.23 203.36"/>
                    <polygon class="cls-10" points="1956.57 236.7 1956.51 239.79 1154.28 213.72 1154.11 210.03 1956.57 236.7"/>
                    <polygon class="cls-10" points="1955.91 269.85 1955.85 272.92 1156.15 253.3 1155.98 249.63 1955.91 269.85"/>
                    <polygon class="cls-10" points="1955.25 302.81 1955.19 305.87 1158.01 292.62 1157.84 288.97 1955.25 302.81"/>
                    <polygon class="cls-10" points="1954.6 335.59 1954.54 338.63 1159.86 331.67 1159.69 328.05 1954.6 335.59"/>
                    <polygon class="cls-10" points="1953.95 368.19 1953.89 371.22 1161.69 370.47 1161.53 366.88 1953.95 368.19"/>
                    <polygon class="cls-10" points="1953.3 400.62 1953.24 403.62 1163.52 409.02 1163.35 405.44 1953.3 400.62"/>
                    <polygon class="cls-10" points="1952.66 432.86 1952.6 435.85 1165.33 447.31 1165.17 443.76 1952.66 432.86"/>
                    <polygon class="cls-10" points="1952.02 464.93 1951.96 467.9 1167.13 485.36 1166.97 481.83 1952.02 464.93"/>
                    <polygon class="cls-10" points="1951.38 496.82 1951.33 499.78 1168.92 523.16 1168.76 519.66 1951.38 496.82"/>
                    <polygon class="cls-10" points="1950.75 528.54 1950.69 531.48 1170.7 560.72 1170.53 557.23 1950.75 528.54"/>
                    <polygon class="cls-10" points="1950.13 560.09 1950.07 563.01 1172.46 598.03 1172.3 594.57 1950.13 560.09"/>
                    <polygon class="cls-10" points="1949.5 591.46 1949.44 594.37 1174.22 635.11 1174.06 631.67 1949.5 591.46"/>
                  </g>
                </g>
              </g>
              <path class="cls-9" d="M1554.79,416.58q-20.3,117-40.85,235.43l-19.41,1.41L1520.21,498q8.05-48.75,16.1-97.51Z"/>
              <g>
                <polygon class="cls-62" points="1141.92 608.76 1044.79 597.2 1043.37 408.19 1137.4 410.91 1141.92 608.76"/>
                <polygon class="cls-10" points="1141.5 592.47 1141.89 610.3 1044.15 598.61 1044.03 581.59 1141.5 592.47"/>
                <g>
                  <polygon class="cls-10" points="1058.04 598.78 1044.79 597.2 1043.37 408.19 1056.21 408.56 1058.04 598.78"/>
                  <polygon class="cls-10" points="1141.92 608.76 1127.6 607.06 1123.56 410.51 1137.4 410.91 1141.92 608.76"/>
                  <polygon class="cls-10" points="1137.4 410.91 1137.75 427.74 1042.87 424.26 1042.75 408.17 1137.4 410.91"/>
                </g>
              </g>
              <path class="cls-63" d="M1054.27,402.5c-27,14.27-54,27.88-80.93,41.76l87.48,4.29c27-14.63,54.08-28.85,81.23-44Z"/>
              <polygon class="cls-64" points="975.13 443.14 975.25 453.28 1061.55 457.9 1061.46 447.78 975.13 443.14"/>
              <path class="cls-65" d="M1143.08,403.75c-27.25,14.72-54.35,29.4-81.62,44l.09,10.16,81.23-43.38C1142.87,411,1143,407.36,1143.08,403.75Z"/>
              <path class="cls-9" d="M949.73,401.17a.85.85,0,0,0-.65-.36l-12.34-.29q14,72.28,25.79,148.82,6.48,42.4,11.78,83.36l11.34.12Z"/>
              <path class="cls-66" d="M957.77,630.93l18.82,1.8Q957.33,517,937.87,400L923.53,426.4Q940.74,529.14,957.77,630.93Z"/>
              <path class="cls-67" d="M932.93,473.72,1135.28,275l-32-38.34Q1013.6,331.9,923.93,427.13Z"/>
              <polygon class="cls-66" points="1302.91 414.88 1258.4 671.81 1237.28 668.77 1282.66 396.46 1302.91 414.88"/>
              <polygon class="cls-9" points="1258.05 671.35 1277.79 671.35 1290.42 599.3 1322.72 415.03 1300.28 414.09 1258.05 671.35"/>
              <path class="cls-67" d="M1544.73,474.81l-256,10q3.77-22.35,7.54-44.71l253,7.3Z"/>
              <path class="cls-63" d="M1371.67,214l-282.27-6.47q52.83,55.37,105.94,110.47,58.2,60.39,116.69,120.47L1581.78,440c-6.65-7.15-55.26-59.51-110.56-119C1421.46,267.47,1377.06,219.75,1371.67,214Z"/>
              <path class="cls-66" d="M1094.11,218.17,890.78,426.74q-1.23-6.63-2.47-13.27l202.31-206.41Z"/>
              <path class="cls-68" d="M890.68,426.19l33.25.94,183.58-185.85-18-19.45Z"/>
              <path class="cls-66" d="M1085.06,222.32,1307.28,455.5q3.69-8.53,7.36-17.07-112-115.68-224-231.37Q1087.85,214.7,1085.06,222.32Z"/>
              <path class="cls-69" d="M1581.78,440l-12,16.39-262.51-.89,7.36-17.07Z"/>
              <polygon class="cls-65" points="982.24 616 1241.34 645 1238.32 663 985.25 631 982.24 616"/>
              <polygon class="cls-9" points="981.94 617.67 1241.34 646 1238.32 662.54 985.65 632.82 981.94 617.67"/>
              <polygon class="cls-65" points="1025.62 591.22 1144.93 604.65 1144.93 627.07 1025.62 612.58 1025.62 591.22"/>
              <polygon class="cls-64" points="1029.66 597.19 1138.08 607.77 1138.08 625.46 1029.66 614.03 1029.66 597.19"/>
              <path class="cls-70" d="M1039.35,601.05,850.58,776.14l98.27,11.46,182.63-177.81Z"/>
              <g>
                <path class="cls-71" d="M1038,627l-13.27,4.17q-.27,3.86-.52,7.71l55.55,6.27,14.84-12.7q-.21-3.78-.41-7.55Z"/>
                <path class="cls-72" d="M1038.09,619.05l-13.8,11.88,55.56,6.26,14.83-12.7Z"/>
              </g>
              <g>
                <path class="cls-71" d="M998,661.14l-13.28,4.17q-.26,3.86-.52,7.71l55.56,6.26,14.83-12.7c-.13-2.51-.27-5-.41-7.54Z"/>
                <path class="cls-72" d="M998.05,653.2l-13.79,11.89,55.55,6.26,14.84-12.7Z"/>
              </g>
              <g>
                <path class="cls-71" d="M957.05,701.46l-13.27,4.17c-.18,2.57-.35,5.15-.52,7.72l55.55,6.26,14.84-12.7c-.14-2.52-.28-5-.41-7.55Z"/>
                <path class="cls-72" d="M957.1,693.53l-13.8,11.88,55.56,6.26,14.83-12.7Z"/>
              </g>
              <g>
                <path class="cls-71" d="M913.85,741.48l-13.25,4.25q-.24,3.85-.47,7.71l55.58,5.95,14.77-12.78-.45-7.55Z"/>
                <path class="cls-72" d="M913.85,733.55l-13.72,12,55.58,6,14.77-12.79Z"/>
              </g>
              <g>
                <g>
                  <path class="cls-73" d="M769.76,870.19c1.8.33,2,1.46.68,1.78a7.58,7.58,0,0,1-3.73-.36c-.07,0-1.37-.57-.67-1.07A6.64,6.64,0,0,1,769.76,870.19Z"/>
                  <path class="cls-73" d="M749.62,869.69c1.4.26,1.52,1.14.53,1.39a6,6,0,0,1-2.89-.28c-.06,0-1.07-.45-.53-.83A5.18,5.18,0,0,1,749.62,869.69Z"/>
                  <path class="cls-73" d="M760.62,865.66c.9.16,1,.73.34.89a3.82,3.82,0,0,1-1.86-.18s-.69-.29-.34-.54A3.33,3.33,0,0,1,760.62,865.66Z"/>
                </g>
                <g>
                  <path class="cls-73" d="M764.31,879.94c1.81.33,2,1.46.68,1.78a7.53,7.53,0,0,1-3.72-.36c-.07,0-1.38-.58-.68-1.07A6.56,6.56,0,0,1,764.31,879.94Z"/>
                  <path class="cls-73" d="M744.18,879.44c1.4.26,1.51,1.14.52,1.39a6,6,0,0,1-2.89-.28s-1.07-.45-.52-.83A5.09,5.09,0,0,1,744.18,879.44Z"/>
                  <path class="cls-73" d="M755.17,875.4c.91.17,1,.73.34.89a3.82,3.82,0,0,1-1.86-.17s-.69-.29-.34-.54A3.41,3.41,0,0,1,755.17,875.4Z"/>
                </g>
                <g>
                  <path class="cls-73" d="M737.9,875c1.8.33,2,1.46.67,1.78a7.53,7.53,0,0,1-3.72-.36c-.07,0-1.38-.57-.68-1.06A6.58,6.58,0,0,1,737.9,875Z"/>
                  <path class="cls-73" d="M717.76,874.48c1.4.25,1.52,1.13.52,1.38a6,6,0,0,1-2.89-.28s-1.07-.45-.52-.83A5.18,5.18,0,0,1,717.76,874.48Z"/>
                  <path class="cls-73" d="M728.76,870.44c.9.16,1,.73.33.89a3.83,3.83,0,0,1-1.86-.18s-.69-.29-.34-.53A3.26,3.26,0,0,1,728.76,870.44Z"/>
                </g>
                <g>
                  <path class="cls-73" d="M662.72,800.74c1.8.33,2,1.46.68,1.78a7.58,7.58,0,0,1-3.73-.36c-.07,0-1.37-.57-.67-1.06A6.54,6.54,0,0,1,662.72,800.74Z"/>
                  <path class="cls-73" d="M642.58,800.25c1.4.25,1.52,1.13.53,1.38a5.73,5.73,0,0,1-2.89-.28c-.06,0-1.07-.44-.53-.83A5.19,5.19,0,0,1,642.58,800.25Z"/>
                  <path class="cls-73" d="M653.58,796.21c.9.16,1,.73.34.89a3.7,3.7,0,0,1-1.86-.18s-.69-.29-.34-.53A3.23,3.23,0,0,1,653.58,796.21Z"/>
                </g>
                <g>
                  <path class="cls-73" d="M783,857.57c1.81.33,2,1.46.68,1.78a7.53,7.53,0,0,1-3.72-.36c-.07,0-1.38-.57-.68-1.06A6.56,6.56,0,0,1,783,857.57Z"/>
                  <path class="cls-73" d="M762.83,857.08c1.4.25,1.51,1.13.52,1.38a5.85,5.85,0,0,1-2.89-.28c-.05,0-1.07-.44-.52-.83A5.18,5.18,0,0,1,762.83,857.08Z"/>
                  <path class="cls-73" d="M773.83,853c.9.16,1,.73.33.89a3.71,3.71,0,0,1-1.86-.18s-.69-.29-.34-.53A3.26,3.26,0,0,1,773.83,853Z"/>
                </g>
                <g>
                  <path class="cls-73" d="M761.63,846.6c1.81.33,2,1.46.68,1.78a7.53,7.53,0,0,1-3.72-.36c-.08,0-1.38-.58-.68-1.07A6.56,6.56,0,0,1,761.63,846.6Z"/>
                  <path class="cls-73" d="M741.49,846.1c1.4.26,1.52,1.14.53,1.39a6,6,0,0,1-2.89-.28c-.06,0-1.07-.45-.52-.83A5.15,5.15,0,0,1,741.49,846.1Z"/>
                  <path class="cls-73" d="M752.49,842.06c.91.17,1,.74.34.9a3.83,3.83,0,0,1-1.86-.18s-.69-.29-.34-.54A3.41,3.41,0,0,1,752.49,842.06Z"/>
                </g>
                <g>
                  <path class="cls-73" d="M889.22,801.33c1.81.33,2,1.47.68,1.78a7.53,7.53,0,0,1-3.72-.35c-.07,0-1.38-.58-.68-1.07A6.64,6.64,0,0,1,889.22,801.33Z"/>
                  <path class="cls-73" d="M869.08,800.84c1.4.26,1.52,1.14.53,1.38a5.84,5.84,0,0,1-2.89-.27c-.05,0-1.07-.45-.52-.83A5.06,5.06,0,0,1,869.08,800.84Z"/>
                  <path class="cls-73" d="M880.08,796.8c.91.17,1,.73.34.89a3.71,3.71,0,0,1-1.86-.18s-.69-.28-.34-.53A3.32,3.32,0,0,1,880.08,796.8Z"/>
                </g>
                <g>
                  <path class="cls-73" d="M861,817.74c1.8.33,2,1.46.67,1.78a7.53,7.53,0,0,1-3.72-.36c-.07,0-1.38-.58-.68-1.07A6.59,6.59,0,0,1,861,817.74Z"/>
                  <path class="cls-73" d="M840.82,802.53c1.39.25,1.51,1.13.52,1.38a6,6,0,0,1-2.89-.28c-.05,0-1.07-.45-.52-.83A5.18,5.18,0,0,1,840.82,802.53Z"/>
                  <path class="cls-73" d="M854.57,806.27c.9.17,1,.73.34.89a3.81,3.81,0,0,1-1.86-.17s-.69-.29-.34-.54A3.41,3.41,0,0,1,854.57,806.27Z"/>
                </g>
                <g>
                  <path class="cls-73" d="M683.23,799.49c1.8.33,2,1.47.68,1.78a7.58,7.58,0,0,1-3.73-.35c-.07,0-1.37-.58-.67-1.07A6.63,6.63,0,0,1,683.23,799.49Z"/>
                  <path class="cls-73" d="M663.06,784.29c1.4.25,1.52,1.13.52,1.38a5.93,5.93,0,0,1-2.88-.28c-.06,0-1.07-.45-.53-.83A5.09,5.09,0,0,1,663.06,784.29Z"/>
                  <path class="cls-73" d="M676.81,788c.9.17,1,.73.34.89a3.71,3.71,0,0,1-1.86-.18s-.69-.28-.34-.53A3.32,3.32,0,0,1,676.81,788Z"/>
                </g>
              </g>
              <polygon class="cls-65" points="1131.53 609.84 948.81 787.55 949.68 797.7 1131.52 619.46 1131.53 609.84"/>
              <polygon class="cls-64" points="850.58 776.14 948.85 787.6 949.73 797.74 852.6 784.98 850.58 776.14"/>
              <line class="cls-74" x1="1141.95" y1="260.08" x2="1415.97" y2="260.08"/>
              <path class="cls-74" d="M1462.79,311.93l-265.14,5.57"/>
              <line class="cls-74" x1="1243.53" y1="364.98" x2="1503" y2="355.2"/>
              <line class="cls-74" x1="1285.35" y1="408.19" x2="1544.84" y2="399.95"/>
              <polygon class="cls-75" points="1090.62 207.06 1371.67 213.96 1378.99 221.83 1099.1 217.65 1090.62 207.06"/>
              <line class="cls-74" x1="1161.48" y1="217.69" x2="1377.92" y2="437.86"/>
              <line class="cls-74" x1="1237.72" y1="218.02" x2="1442.7" y2="438.08"/>
              <polygon class="cls-62" points="1379.68 521.69 1452.06 519.51 1443.33 571.74 1370.59 576.62 1379.68 521.69"/>
            </g>
            <g>
              <line class="cls-7" x1="1442.06" y1="515" x2="1427.46" y2="570.04"/>
              <line class="cls-7" x1="1447.43" y1="514.23" x2="1432.82" y2="569.28"/>
              <line class="cls-7" x1="1452.57" y1="516.21" x2="1437.96" y2="571.25"/>
              <line class="cls-7" x1="1460.83" y1="512.31" x2="1446.22" y2="567.36"/>
              <line class="cls-7" x1="1428.61" y1="517.33" x2="1414.43" y2="573.39"/>
              <line class="cls-7" x1="1385.71" y1="523.47" x2="1371.53" y2="579.53"/>
              <line class="cls-7" x1="1380.48" y1="524.94" x2="1366.3" y2="581"/>
              <line class="cls-7" x1="1421.46" y1="518.35" x2="1407.28" y2="574.41"/>
              <line class="cls-7" x1="1390.18" y1="522.83" x2="1376" y2="578.89"/>
              <line class="cls-7" x1="1395.55" y1="522.06" x2="1381.36" y2="578.12"/>
              <line class="cls-7" x1="1401.8" y1="521.17" x2="1387.62" y2="577.23"/>
              <line class="cls-7" x1="1408.06" y1="520.27" x2="1393.88" y2="576.33"/>
              <line class="cls-7" x1="1414.31" y1="519.37" x2="1400.13" y2="575.43"/>
              <line class="cls-7" x1="1435.81" y1="515.89" x2="1421.2" y2="570.94"/>
            </g>
            <path class="cls-69" d="M1372.32,514.65l-12.48,63.78,89.09-2.81,11.19-63S1373.9,515,1372.32,514.65Zm69,56.09L1369.64,573l10-51.31c1.27.28,70.64-1.61,70.64-1.61Z"/>
            <g>
              <line class="cls-76" x1="1378.47" y1="520.65" x2="1461.27" y2="517.65"/>
              <line class="cls-76" x1="1375.86" y1="529.65" x2="1458.57" y2="526.93"/>
              <line class="cls-76" x1="1372.97" y1="539.65" x2="1454.22" y2="537.65"/>
              <line class="cls-76" x1="1370.08" y1="549.65" x2="1451.77" y2="546.73"/>
              <line class="cls-76" x1="1367.39" y1="561.65" x2="1447.81" y2="558.15"/>
              <line class="cls-76" x1="1364.22" y1="571.61" x2="1445.44" y2="567.65"/>
              <line class="cls-76" x1="1361.85" y1="579.65" x2="1443.07" y2="575.65"/>
            </g>
            <path class="cls-9" d="M1374.33,515.65l-12.48,63.78,89.09-2.81,11.19-63S1375.91,516,1374.33,515.65Zm69,56.09L1371.65,574l10-51.31c1.27.28,70.64-1.61,70.64-1.61Z"/>
            <line class="cls-74" x1="1318.58" y1="221.83" x2="1512.45" y2="441.57"/>
          </g>
          <g>
            <path class="cls-45" d="M1699.71,756.34s27.26-18.17,32.78-21.42c6.78-4-5.69-9.74-25.89,4.15C1706.6,739.07,1694.2,749.12,1699.71,756.34Z"/>
            <path class="cls-45" d="M1686.89,755.2s-5.5-16.83-35.66-16.34S1686.89,755.2,1686.89,755.2Z"/>
            <path class="cls-45" d="M1695.11,757.66s9.19-37.72,22.59-48.07c11.48-8.86-12.84-11.29-26.51,9.87S1695.11,757.66,1695.11,757.66Z"/>
          </g>
          <g>
            <path class="cls-77" d="M1280.54,733.5s26-3.94,25.28-14.76S1280.54,733.5,1280.54,733.5Z"/>
            <path class="cls-77" d="M1275.48,737.87s14.45-27,25.28-33.93-18.78-7.44-25.28,20.87Z"/>
            <path class="cls-77" d="M1274.4,734.22s7.29-21-19.87-22.12C1242.25,711.61,1274.4,734.22,1274.4,734.22Z"/>
          </g>
          <g>
            <path class="cls-78" d="M263.47,683.25s12.17-8.2,35.63-10.23-25.2-10.77-42.58,10.23C256.52,683.25,248.7,692.59,263.47,683.25Z"/>
            <path class="cls-78" d="M230.45,684.42s35.63-26.26,56.49-33.26-20-7.59-47.8,14.3C239.14,665.46,225.23,678.59,230.45,684.42Z"/>
            <path class="cls-78" d="M220,684.42s23.67-42.6,34.43-47.85-17-8.17-34.43,26.55C220,663.12,213.06,681.5,220,684.42Z"/>
            <path class="cls-78" d="M207.41,684.42s9.13-39.1,17.82-44.93S192.21,645.91,207.41,684.42Z"/>
            <path class="cls-78" d="M202.2,684.42s.44-32.57-18.25-37.58S194.81,668.08,202.2,684.42Z"/>
            <path class="cls-78" d="M196.12,684.42s-11.74-37.32-40.42-38.21S178.3,659.91,196.12,684.42Z"/>
            <path class="cls-78" d="M193.65,684.42s-15.35-15.17-41.42-14S187.28,679.75,193.65,684.42Z"/>
          </g>
          <g>
            <path class="cls-79" d="M1507.82,697.64s8.64-5.83,25.31-7.27-17.9-7.66-30.25,7.27C1502.88,697.64,1497.32,704.27,1507.82,697.64Z"/>
            <path class="cls-79" d="M1484.35,698.47s25.32-18.66,40.14-23.64-14.2-5.39-34,10.16C1490.53,685,1480.65,694.32,1484.35,698.47Z"/>
            <path class="cls-79" d="M1476.94,698.47s16.82-30.27,24.47-34-12.12-5.81-24.47,18.86C1476.94,683.33,1472,696.4,1476.94,698.47Z"/>
            <path class="cls-79" d="M1468,698.47s6.48-27.78,12.66-31.93S1457.18,671.1,1468,698.47Z"/>
            <path class="cls-79" d="M1464.28,698.47s.31-23.15-13-26.71S1459,686.86,1464.28,698.47Z"/>
            <path class="cls-79" d="M1460,698.47s-8.34-26.52-28.71-27.15S1447.3,681.05,1460,698.47Z"/>
            <path class="cls-79" d="M1458.21,698.47s-10.91-10.78-29.43-10S1453.68,695.15,1458.21,698.47Z"/>
          </g>
          <g>
            <path class="cls-80" d="M851.82,681.64s8.64-5.83,25.31-7.27-17.9-7.66-30.25,7.27C846.88,681.64,841.32,688.27,851.82,681.64Z"/>
            <path class="cls-80" d="M828.35,682.47s25.32-18.66,40.14-23.64-14.2-5.39-34,10.16C834.53,669,824.65,678.32,828.35,682.47Z"/>
            <path class="cls-80" d="M820.94,682.47s16.82-30.27,24.47-34-12.12-5.81-24.47,18.86C820.94,667.33,816,680.4,820.94,682.47Z"/>
            <path class="cls-80" d="M812,682.47s6.48-27.78,12.66-31.93S801.18,655.1,812,682.47Z"/>
            <path class="cls-80" d="M808.28,682.47s.31-23.15-13-26.71S803,670.86,808.28,682.47Z"/>
            <path class="cls-80" d="M804,682.47s-8.34-26.52-28.71-27.15S791.3,665.05,804,682.47Z"/>
            <path class="cls-80" d="M802.21,682.47s-10.91-10.78-29.43-10S797.68,679.15,802.21,682.47Z"/>
          </g>
          <g>
            <path class="cls-81" d="M1736.79,650.64s8.64-5.83,25.31-7.27-17.9-7.66-30.26,7.27C1731.84,650.64,1726.29,657.27,1736.79,650.64Z"/>
            <path class="cls-81" d="M1713.32,651.47s25.32-18.66,40.14-23.64-14.2-5.39-34,10.16C1719.49,638,1709.61,647.32,1713.32,651.47Z"/>
            <path class="cls-81" d="M1705.91,651.47s16.82-30.27,24.47-34-12.12-5.81-24.47,18.86C1705.91,636.33,1701,649.4,1705.91,651.47Z"/>
            <path class="cls-81" d="M1697,651.47s6.48-27.78,12.65-31.93S1686.15,624.1,1697,651.47Z"/>
            <path class="cls-81" d="M1693.25,651.47s.31-23.15-13-26.71S1688,639.86,1693.25,651.47Z"/>
            <path class="cls-81" d="M1688.93,651.47s-8.34-26.52-28.72-27.15S1676.27,634.05,1688.93,651.47Z"/>
            <path class="cls-81" d="M1687.18,651.47s-10.91-10.78-29.44-10S1682.65,648.15,1687.18,651.47Z"/>
          </g>
          <g>
            <path class="cls-78" d="M823.65,618.8s7.26-5.53,21.28-6.89-15-7.25-25.44,6.89C819.49,618.8,814.82,625.08,823.65,618.8Z"/>
            <path class="cls-78" d="M803.92,619.58s21.28-17.67,33.74-22.39-11.94-5.1-28.55,9.63C809.11,606.82,800.81,615.65,803.92,619.58Z"/>
            <path class="cls-78" d="M797.69,619.58s14.14-28.67,20.57-32.21-10.18-5.5-20.57,17.87C797.69,605.24,793.54,617.62,797.69,619.58Z"/>
            <path class="cls-78" d="M790.17,619.58s5.45-26.32,10.64-30.24S781.08,593.66,790.17,619.58Z"/>
            <path class="cls-78" d="M787.05,619.58s.26-21.92-10.9-25.3S782.64,608.58,787.05,619.58Z"/>
            <path class="cls-78" d="M783.42,619.58s-9-9-26.13-9.58S772.78,603.08,783.42,619.58Z"/>
            <path class="cls-78" d="M782,619.58a32.77,32.77,0,0,0-24.74-9.43C741.63,610.94,778.14,616.44,782,619.58Z"/>
          </g>
          <g>
            <polygon class="cls-82" points="1100.74 217 1161.48 217.69 1203.18 260 1141.92 260 1100.74 217"/>
            <polygon class="cls-83" points="1258.05 316.9 1305.11 363.79 1371.82 361.98 1330.22 314.72 1258.05 316.9"/>
            <polyline class="cls-83" points="1477.9 402.08 1512.45 440.08 1581.28 440.5 1544.84 400.52 1474.89 400.52"/>
            <polygon class="cls-82" points="1347.09 406.5 1409.98 404.55 1443.13 439.19 1378.2 439.19 1347.09 406.5"/>
            <polygon class="cls-84" points="1399 313 1438.17 357 1503 355.2 1462.84 311.93 1399 313"/>
            <polygon class="cls-82" points="1238.37 218.65 1277.49 260 1351.81 260 1318.66 221 1238.37 218.65"/>
            <polygon class="cls-85" points="1243.53 364.99 1303.86 362.55 1347.09 406.5 1285.36 408.19 1243.53 364.99"/>
            <polygon class="cls-82" points="1351.81 260 1399 313 1462.84 311.93 1415.51 261.09 1351.81 260"/>
            <path class="cls-86" d="M1100.74,218.64l213.9,219.44,267.14,3.49S1462.14,365.4,1412,355.2s-131.18-49.64-134.5-53C1245.35,270,1156,216.29,1100.74,218.64Z"/>
            <line class="cls-87" x1="1109.72" y1="403.75" x2="1036.47" y2="447.21"/>
            <line class="cls-87" x1="1081.47" y1="403.12" x2="1003.65" y2="444.67"/>
            <line class="cls-87" x1="1038.97" y1="410.51" x2="1123.56" y2="414.73"/>
            <line class="cls-87" x1="1013.03" y1="423.9" x2="1098.69" y2="427.74"/>
            <line class="cls-87" x1="994.41" y1="433.43" x2="1079.51" y2="438.08"/>
            <polygon class="cls-83" points="1065.59 412 1040.49 425 1070.97 426.74 1093.71 413 1065.59 412"/>
            <polygon class="cls-82" points="1003.65 444.67 1021.41 435 1054.24 436.45 1036.96 446.92 1003.65 444.67"/>
            <polygon class="cls-82" points="1038.97 410.51 1065.59 412 1081.47 403.12 1054.27 402.5 1038.97 410.51"/>
            <polygon class="cls-83" points="994.41 433.43 1021.41 435 1040.49 425 1013.03 423.9 994.41 433.43"/>
            <polygon class="cls-82" points="1093.71 413 1109.72 403.75 1143.08 403.75 1122.83 414.69 1093.71 413"/>
            <polygon class="cls-83" points="1054.24 436.45 1070.97 426.74 1098.69 427.74 1080.26 438.08 1054.24 436.45"/>
            <polygon class="cls-82" points="1203.18 260 1277.49 260 1327.79 314.72 1257.09 314.95 1203.18 260"/>
          </g>
          <polygon class="cls-60" points="1141.88 416.86 1144.93 604.65 1142.05 604.65 1137.54 417.36 1141.88 416.86"/>
          <polygon class="cls-65" points="1279.09 666.52 1494.54 651.42 1497.16 635.49 1281.27 649.47 1279.09 666.52"/>
          <polygon class="cls-9" points="1279.09 668.52 1494.54 653.42 1497.16 637.49 1281.27 651.47 1279.09 668.52"/>
          <g>
            <path class="cls-81" d="M-20,852.36c52.4-2.51,289.31-6.18,382.27-3.42,137.77,4.07,239,17,260.51,19.55,129.16,15.41,588.1,17.5,1307.35-8.72,1.36,15.66,2.72,43.06,4.08,58.72-526.3,16.69-1203.36,9.78-1728.66-5.57-21.85-.64-189.91,21.33-211.76,20.63C-6.23,913.56-20,872.36-20,852.36Z"/>
            <g>
              <path class="cls-81" d="M1283.33,904.47s27.81-18.16,33.44-21.42c6.91-4-5.81-9.74-26.41,4.15C1290.36,887.2,1277.7,897.24,1283.33,904.47Z"/>
              <path class="cls-81" d="M1270.25,903.33s-5.6-16.83-36.37-16.34S1270.25,903.33,1270.25,903.33Z"/>
              <path class="cls-81" d="M1278.63,905.78s9.38-37.7,23-48c11.71-8.86-13.09-11.28-27,9.87S1278.63,905.78,1278.63,905.78Z"/>
            </g>
            <g>
              <path class="cls-81" d="M586.71,875s36.87-5.4,35.85-20.23S586.71,875,586.71,875Z"/>
              <path class="cls-81" d="M579.54,881s20.48-37.07,35.85-46.51-26.63-10.2-35.85,28.6Z"/>
              <path class="cls-81" d="M578,876s10.34-28.85-28.17-30.34C532.42,845,578,876,578,876Z"/>
            </g>
            <g>
              <path class="cls-81" d="M413.41,848s14.34-9.48,42-11.82S425.7,823.68,405.22,848C405.22,848,396,858.74,413.41,848Z"/>
              <path class="cls-81" d="M374.49,849.3s42-30.33,66.58-38.42-23.56-8.77-56.34,16.51C384.73,827.39,368.34,842.56,374.49,849.3Z"/>
              <path class="cls-81" d="M362.2,849.3s27.9-49.21,40.58-55.28-20.1-9.43-40.58,30.68C362.2,824.7,354,845.93,362.2,849.3Z"/>
              <path class="cls-81" d="M347.34,849.3s10.76-45.16,21-51.91S329.42,804.81,347.34,849.3Z"/>
              <path class="cls-81" d="M341.2,849.3s.51-37.63-21.51-43.42S332.49,830.43,341.2,849.3Z"/>
              <path class="cls-81" d="M334,849.3s-13.83-43.12-47.63-44.14S313,821,334,849.3Z"/>
              <path class="cls-81" d="M331.13,849.3S313,831.77,282.3,833.12,323.61,843.91,331.13,849.3Z"/>
            </g>
            <g>
              <path class="cls-81" d="M1622.07,886.94s14.34-9.48,42-11.82-29.7-12.45-50.19,11.82C1613.87,886.94,1604.65,897.73,1622.07,886.94Z"/>
              <path class="cls-81" d="M1583.14,888.29s42-30.34,66.58-38.43-23.56-8.76-56.33,16.52C1593.39,866.38,1577,881.55,1583.14,888.29Z"/>
              <path class="cls-81" d="M1570.85,888.29s27.9-49.21,40.58-55.28-20.09-9.44-40.58,30.67C1570.85,863.68,1562.66,884.92,1570.85,888.29Z"/>
              <path class="cls-81" d="M1556,888.29s10.76-45.17,21-51.91S1538.08,843.8,1556,888.29Z"/>
              <path class="cls-81" d="M1549.85,888.29s.52-37.63-21.51-43.42S1541.15,869.41,1549.85,888.29Z"/>
              <path class="cls-81" d="M1542.68,888.29s-13.82-43.12-47.62-44.14S1521.69,860,1542.68,888.29Z"/>
              <path class="cls-81" d="M1539.78,888.29s-18.09-17.53-48.82-16.18S1532.27,882.9,1539.78,888.29Z"/>
            </g>
          </g>
          <path class="cls-78" d="M-13.89,581.21C80.52,585.82,322.44,597.5,372.66,599c172.24,5.15,182.39,1.56,278.18,8,62.58,4.21,125.31,6.45,187.79,12a904.67,904.67,0,0,0,103.09,3.44c6.19-.14,11.25-.32,14.41-.44q.82,6.46,1.64,12.93L-9.3,608Z"/>
          <g>
            <path class="cls-78" d="M293,597.66s6.8-3.83,19.93-4.77-14.1-5-23.82,4.77C289.09,597.66,284.71,602,293,597.66Z"/>
            <path class="cls-78" d="M274.5,598.2s19.94-12.23,31.61-15.5-11.19-3.53-26.75,6.66C279.36,589.36,271.58,595.48,274.5,598.2Z"/>
            <path class="cls-78" d="M268.66,598.2s13.25-19.85,19.27-22.29-9.54-3.81-19.27,12.37C268.66,588.28,264.77,596.84,268.66,598.2Z"/>
            <path class="cls-78" d="M261.61,598.2s5.11-18.21,10-20.93S253.1,580.26,261.61,598.2Z"/>
            <path class="cls-78" d="M258.7,598.2s.24-15.18-10.22-17.51S254.56,590.59,258.7,598.2Z"/>
            <path class="cls-78" d="M255.29,598.2s-6.56-17.39-22.61-17.8S245.32,586.78,255.29,598.2Z"/>
            <path class="cls-78" d="M253.91,598.2s-8.59-7.07-23.17-6.53S250.35,596,253.91,598.2Z"/>
          </g>
          <ellipse class="cls-48" cx="756.79" cy="673.5" rx="27.62" ry="3.5"/>
          <ellipse class="cls-48" cx="1081.16" cy="795.5" rx="27.62" ry="3.5"/>
          <ellipse class="cls-48" cx="1171.54" cy="769.5" rx="27.62" ry="3.5"/>
          <g>
            <path class="cls-88" d="M360.33,123.78s.86-6.86,11.68-11.56,19.94-7.22,29.34-1.8,7.4,17.69,5.41,19.14c-3.87,2.8-12.21,6.49-34.47,2.89C358.91,130.28,360.33,123.78,360.33,123.78Z"/>
            <path class="cls-89" d="M310.67,119s3-10.34,23.93-16.4,34.57-9,46.26.92,5.85,26.66-2.38,28.74-42.54,3.77-63.22-2.93C315.26,129.37,307.88,126.28,310.67,119Z"/>
            <path class="cls-90" d="M517.81,158.91s1.64-11.54,22.49-19.44,38.4-12.15,56.51-3,14.26,29.77,10.42,32.2c-7.46,4.71-23.51,10.91-66.38,4.86C515.07,169.84,517.81,158.91,517.81,158.91Z"/>
          </g>
          <ellipse class="cls-11" cx="626.5" cy="776.5" rx="19.5" ry="3.5"/>
          <ellipse class="cls-11" cx="702.5" cy="796.5" rx="19.5" ry="3.5"/>
          <ellipse class="cls-8" cx="642.5" cy="698.5" rx="11.5" ry="1.5"/>
          <ellipse class="cls-8" cx="717" cy="737.03" rx="21" ry="3.97"/>
          <ellipse class="cls-11" cx="565.5" cy="700.03" rx="37.5" ry="9.03"/>
          <ellipse class="cls-11" cx="466.5" cy="758" rx="39.5" ry="11"/>
        </g>
      </g>
    </g>
  </g>
</svg>
