<svg id="Layer_1" data-name="Layer 1" xmlns="http://www.w3.org/2000/svg" xmlns:xlink="http://www.w3.org/1999/xlink" width="1920" height="900" viewBox="0 0 1920 900">
  <defs>
    <style>
      .cls-1 {
        fill: none;
      }

      .cls-2 {
        fill: url(#linear-gradient);
      }

      .cls-3 {
        clip-path: url(#clip-path);
      }

      .cls-4 {
        fill: url(#linear-gradient-2);
      }

      .cls-5 {
        fill: #bfd9f1;
        opacity: 0.56;
      }

      .cls-6 {
        fill: #207d78;
        opacity: 0.36;
      }

      .cls-7 {
        fill: url(#linear-gradient-3);
      }

      .cls-8 {
        fill: #6c8a3b;
      }

      .cls-9 {
        fill: url(#linear-gradient-4);
      }

      .cls-10 {
        fill: url(#linear-gradient-5);
      }

      .cls-11 {
        fill: url(#linear-gradient-6);
      }

      .cls-12 {
        fill: #c4926c;
      }

      .cls-13, .cls-18 {
        fill: #7c451d;
      }

      .cls-13 {
        opacity: 0.89;
      }

      .cls-14 {
        fill: url(#linear-gradient-7);
      }

      .cls-15 {
        fill: url(#linear-gradient-8);
      }

      .cls-16 {
        fill: #b6885e;
      }

      .cls-17 {
        fill: #8b522b;
      }

      .cls-19 {
        fill: #5c2d1f;
      }

      .cls-20 {
        fill: #3a1a0b;
      }

      .cls-21 {
        fill: #220c00;
      }

      .cls-22 {
        fill: #f05a2b;
      }

      .cls-23 {
        fill: url(#linear-gradient-9);
      }

      .cls-24 {
        fill: #8a96a1;
      }

      .cls-25 {
        fill: #2e3d49;
      }

      .cls-26 {
        clip-path: url(#clip-path-2);
      }

      .cls-27 {
        fill: url(#linear-gradient-11);
      }

      .cls-28 {
        fill: url(#linear-gradient-12);
      }

      .cls-29 {
        fill: #1c3f1d;
      }

      .cls-30 {
        fill: #152c1a;
      }

      .cls-31 {
        fill: #0b1e14;
      }

      .cls-32 {
        fill: #122416;
      }

      .cls-33 {
        fill: #184226;
      }

      .cls-34 {
        opacity: 0.62;
      }

      .cls-35 {
        clip-path: url(#clip-path-3);
      }

      .cls-36 {
        opacity: 0.59;
      }

      .cls-37 {
        clip-path: url(#clip-path-4);
      }

      .cls-38 {
        fill: #2a7b44;
      }

      .cls-39 {
        clip-path: url(#clip-path-5);
      }

      .cls-40 {
        clip-path: url(#clip-path-6);
      }
    </style>
    <linearGradient id="linear-gradient" x1="2567.66" y1="76.86" x2="3564.61" y2="76.86" gradientTransform="matrix(0.62, 0.02, -0.01, 0.83, -762.73, 674.61)" gradientUnits="userSpaceOnUse">
      <stop offset="0" stop-color="#103145"/>
      <stop offset="0.2" stop-color="#234a40"/>
      <stop offset="0.46" stop-color="#36633c"/>
      <stop offset="0.7" stop-color="#427239"/>
      <stop offset="0.89" stop-color="#467738"/>
    </linearGradient>
    <clipPath id="clip-path">
      <rect class="cls-1" width="1920" height="900"/>
    </clipPath>
    <linearGradient id="linear-gradient-2" x1="-5004.92" y1="-209.76" x2="-5004.92" y2="1109.11" gradientTransform="matrix(1, 0, 0, -1, 5927.83, 899.34)" gradientUnits="userSpaceOnUse">
      <stop offset="0" stop-color="#9fb6de"/>
      <stop offset="0.23" stop-color="#bbcae7"/>
      <stop offset="0.43" stop-color="#d7def0"/>
    </linearGradient>
    <linearGradient id="linear-gradient-3" x1="1198.42" y1="-20.76" x2="2554.69" y2="-20.76" gradientUnits="userSpaceOnUse">
      <stop offset="0" stop-color="#a2b8df"/>
      <stop offset="0.03" stop-color="#a6bbe0"/>
      <stop offset="0.21" stop-color="#bbcae7"/>
      <stop offset="0.42" stop-color="#cbd5ec"/>
      <stop offset="0.66" stop-color="#d4dcef"/>
      <stop offset="1" stop-color="#d7def0"/>
    </linearGradient>
    <linearGradient id="linear-gradient-4" x1="-5132.25" y1="54.44" x2="-5058.51" y2="54.44" gradientTransform="matrix(-1, 0, 0, 1, -4082, 0)" gradientUnits="userSpaceOnUse">
      <stop offset="0" stop-color="#b4c5e5"/>
      <stop offset="0.93" stop-color="#d7def0"/>
    </linearGradient>
    <linearGradient id="linear-gradient-5" x1="-5095.38" y1="36.8" x2="-4981.86" y2="36.8" gradientTransform="matrix(-1, 0, 0, 1, -4082, 0)" gradientUnits="userSpaceOnUse">
      <stop offset="0" stop-color="#a2b8df"/>
      <stop offset="1" stop-color="#d7def0"/>
    </linearGradient>
    <linearGradient id="linear-gradient-6" x1="-5017.38" y1="54.44" x2="-4971.82" y2="54.44" gradientTransform="matrix(-1, 0, 0, 1, -4082, 0)" gradientUnits="userSpaceOnUse">
      <stop offset="0.01" stop-color="#89a4d5"/>
      <stop offset="1" stop-color="#d7def0"/>
    </linearGradient>
    <linearGradient id="linear-gradient-7" x1="-5857.98" y1="88.93" x2="-5746.8" y2="88.93" xlink:href="#linear-gradient-5"/>
    <linearGradient id="linear-gradient-8" x1="-5781.59" y1="103.74" x2="-5736.96" y2="103.74" xlink:href="#linear-gradient-6"/>
    <linearGradient id="linear-gradient-9" x1="-418.57" y1="46.91" x2="934.52" y2="46.91" gradientTransform="matrix(1, 0, 0, 1, 0, 0)" xlink:href="#linear-gradient-5"/>
    <clipPath id="clip-path-2">
      <path class="cls-2" d="M1116,824.68l2.31-1.15,4.23,1.6.37.18a2.53,2.53,0,0,1-.82.12,38.51,38.51,0,0,1-6.09-.75m-31.89-1.34q2.81,1,5.47,1.85c-3.21,1.39-6.35,2.82-9.36,4.29.2-1,1.54-3.11,3.89-6.14m115.62-5.21.38-.3.73.34h-.24a5.5,5.5,0,0,1-.87,0m-72.58,1.25.81-.37,1,.8a8.83,8.83,0,0,1-1.8-.43m-60.1-2,4,1.39c-1.67,1.83-3.23,3.63-4.61,5.4a23.79,23.79,0,0,1,.61-6.79M1286.88,815c1.59-1.05,3.19-2.07,4.78-3,3.93,1.24,7,2.13,9.19,2.76l-3.62,1.05c-2.68-.09-6.19-.37-10.35-.77m-199,3.73c1.53-1.8,3.27-3.78,5.22-5.92,5,2.31,9.35,4.26,13.16,5.89-2.34.83-4.67,1.7-7,2.59-3.57-.79-7.39-1.65-11.39-2.56M1211.23,810l.66-.43.59.6-.21,0a3.33,3.33,0,0,1-1-.19m-28.56,2.63c1.11-1.59,2.27-3.12,3.46-4.59,1.6,1.34,3.14,2.59,4.62,3.73-1.29.82-2.55,1.66-3.82,2.5-1.34-.5-2.76-1-4.26-1.64M1151,809.05c.7-.32,1.39-.63,2.06-.95l.61.4a35.24,35.24,0,0,0-.56,3.5,18.24,18.24,0,0,1-2.11-3m232.72-5.72,1.45,1.36-1.72,1.16-.7.07c.3-.88.62-1.75,1-2.59m-111.42,1.9,3,1.1c-1.64.75-3.27,1.51-4.85,2.28a11.81,11.81,0,0,1,1.86-3.38m30.83.18,2.35-1.22,3.24,2.35-.15,0a31.92,31.92,0,0,1-5.44-1.15m-153.81.25.36.24-.23.05c0-.1-.09-.2-.13-.29m71.85-2.34,1.53-1.11.94,3a10.16,10.16,0,0,1-2.47-1.92m35.64-4.15,2.47,1c-.92,1.06-1.8,2.12-2.61,3.16a19.87,19.87,0,0,1,.14-4.16m-189,15A114.22,114.22,0,0,1,1072,802.3q5.52,2.88,10.49,5.34c-3,2.63-5.79,5.28-8.39,7.92l-6.28-1.42m29.3-5.71c2.92-3.11,6.18-6.48,9.76-10.07a116.05,116.05,0,0,0,14.52,15.24q-2.73.85-5.54,1.77c-5-1.87-11.39-4.24-18.74-6.94m96.6-8.65c1.68-1.66,3.37-3.23,5-4.73,2.76,3.31,5.19,6.07,7.25,8.33-1.32.6-2.6,1.22-3.82,1.84-2.5-1.54-5.34-3.38-8.46-5.44m141-8.77.37-.15c0,.19,0,.39,0,.58l-.39-.43m-168.37,14.82a123.86,123.86,0,0,1,2.84-13.18c3.36,3.21,6.61,6.27,9.7,9.09-2.63,2-5.19,4.11-7.6,6.23-1.6-.68-3.24-1.39-4.94-2.14M1369,788.78l.76.18,2.53,2.71c-2.12,2.33-4.27,4.69-6.51,7.11a100.86,100.86,0,0,1,3.22-10m-91.24,9.5c2.41-2.85,5.39-6.19,8.88-9.93,3.69,3.64,7.13,6.67,10.32,9.29q-4.67,1.65-9.28,3.47l-9.92-2.83m-47.66-10.78q5,2.31,9.71,4.4a97.4,97.4,0,0,1-6.32,9.54,66.33,66.33,0,0,1-1.87-6.73l.25-.23-.28.08c-.49-2.07-1-4.44-1.49-7.06m-102.13,22.25c-4.37-4-10-9.51-16.34-16.07q4.25-4.17,9-8.65,6.86,5.31,13.09,9.8c.29,5.68.71,10.93.87,14.9l-3.52,1-3.09-1m130.25-16.94c2.1-7.31,6-16.27,10.18-25.53,3.93,5.21,7.66,9.72,11.2,13.67a196.8,196.8,0,0,0-15.1,13.6l-6.28-1.74M1293,781.64c4.54-4.66,9.71-9.78,15.42-15.22,1.75,9.9,3.76,19.21,4.9,25.78-2,.61-3.95,1.23-6,1.88-3.93-3.2-8.8-7.42-14.36-12.44m-121.54,3.05c1.66-5.46,3.72-11.52,6.19-18,6.49,9.68,12.37,17.56,17.4,23.85-2.47,1.56-5,3.24-7.64,5-5-3.34-10.35-7-16-10.87m-25.16,12c-2.9-10.69-4.89-23.94-8.49-33.92,8.5,7.76,16.83,15.84,24.67,23.4a103,103,0,0,0-6.75,14.88q-4.57-2.08-9.43-4.36M1331.7,787c-4.67-7.24-8.63-18.6-12.6-30.54l4.53-4.11c-.82,0-2.66.66-5.24,2-3.64-11-7.33-22.27-11.6-31.11-2.83,8.94-1.55,23.39.69,37.47-6.28,4-13.71,9.16-21.12,14.86-4.74-4.4-9.85-9.24-15.2-14.45,4.23-9.39,8.36-18.78,10.78-26.8-6,4.3-12.13,11.5-18.06,19.65-4.41-4.37-8.94-8.94-13.53-13.67,3.81,6.36,7.48,12.06,11,17.21-7.31,10.49-14.11,22-19.46,30.91-4-1-8.07-2.12-12.26-3.2a387.9,387.9,0,0,1-6.36-48.64c-7.72,38.77-5.58,47.76-2,61-1.59.5-3.1,1-4.56,1.53-2.76-2.78-6.28-6.39-10.45-10.65a62.11,62.11,0,0,0,8.58-8.6c-1.46.39-5.76,2.48-11.41,5.7-9.72-9.92-22.43-22.75-37.08-36.52q5.56,9.19,10.69,16.84c-2.46,1.86-7,7.6-11.42,14.91-9.45-6.44-19.19-13-28.08-18.58l-.22-.6c-.07.11-.12.23-.18.34l-1.18-.74,1.06,1c-3.52,6.61-3.93,17.9-3.56,28.54q-6.07-2.92-12.43-6.07c3.89-3.65,8-7.44,12.33-11.33-2.41-.16-13.64,6.21-26.66,15.37-6-6.33-12.51-13.43-19.15-21A193.78,193.78,0,0,0,1102.08,792c-5.29,3.87-10.73,8.11-15.89,12.48-4.17-1.5-8.56-3.07-13.14-4.69,6.08-14.5,14.68-31.4,18.66-44.57-10.71,7.75-22.18,24.85-31.57,40.08l-3.3-1.13,3,1.65c-3.25,5.3-6.24,10.34-8.86,14.68-3.82-.81-7.54-1.59-11.09-2.28,3.46,1.12,6.93,2.28,10.38,3.45a111.88,111.88,0,0,1-7,10.69c-3.32-9.36-8.32-39.65-11.11-75.85-9.39,47.15-2.82,66.49,1.27,79.65-2.61-.75-25.33-26.29-57.23-56.28,23.32,38.55,41.31,56.28,46.08,61.25-4.68,1-46.09-30.1-76.48-49.07,26.16,23.61,50.92,51,64.82,57-6.07.58-41.1-14.39-82.7-35.06,37.52,29.38,61.78,40.33,69,45.71-9,0-18.52-6.92-71.82-23,19,9.91,39.24,19.74,54.15,26.76l-20,.68c-8.73-2.7-19-6.06-31-10.16,7.5,3.77,14.48,7.26,21,10.5l-52.86,1.79c-27.06-7.35-45.7-7.22-65.83-6.8l.45,17,618.69-10.72"/>
    </clipPath>
    <linearGradient id="linear-gradient-11" x1="-2773.65" y1="3777.88" x2="-2772.23" y2="3777.88" gradientTransform="matrix(-2.87, 190.42, 123.68, 8.03, -474077.17, 498561.85)" xlink:href="#linear-gradient"/>
    <linearGradient id="linear-gradient-12" x1="1208.29" y1="-159.43" x2="1208.29" y2="164.48" gradientTransform="matrix(0.99, -0.06, -0.06, 0.74, 200.13, 890.12)" gradientUnits="userSpaceOnUse">
      <stop offset="0" stop-color="#103145"/>
      <stop offset="0.19" stop-color="#153744"/>
      <stop offset="0.44" stop-color="#224941"/>
      <stop offset="0.74" stop-color="#39663b"/>
      <stop offset="0.89" stop-color="#467738"/>
    </linearGradient>
    <clipPath id="clip-path-3">
      <rect class="cls-1" x="1671" y="684.84" width="310.53" height="43.1" transform="translate(781.33 2362.39) rotate(-78.89)"/>
    </clipPath>
    <clipPath id="clip-path-4">
      <rect class="cls-1" x="1752.13" y="740.82" width="161.53" height="30.75" transform="translate(737.8 2409.11) rotate(-78.89)"/>
    </clipPath>
    <clipPath id="clip-path-5">
      <rect class="cls-1" x="59.54" y="543.34" width="55.03" height="315.43" transform="translate(-314.29 119.7) rotate(-27.54)"/>
    </clipPath>
    <clipPath id="clip-path-6">
      <rect class="cls-1" x="71.55" y="671.39" width="39.26" height="164.08" transform="translate(-338.04 127.54) rotate(-27.54)"/>
    </clipPath>
  </defs>
  <g class="cls-3">
    <rect class="cls-4" x="-249.49" y="-209.76" width="2344.81" height="1318.87" transform="translate(1845.83 899.34) rotate(-180)"/>
    <path class="cls-5" d="M991.28,75.78C1332,155.15,1986.41-47.38,2343.77,33.39L2347,114C2092.09-45.45,1434.76,177.9,991.28,75.78Z"/>
    <path class="cls-6" d="M-460.72,215.18s238.31,74.85,609.8-42.24a84,84,0,0,1,42.63-2c47.14,10,156.55,35.36,202.51,63.81l136.49-10.3a158.36,158.36,0,0,1,58.08,6.43l75,22.91L1240,197.42a282,282,0,0,1,85.51,4.73c59.68,12.6,162.48,33.92,170.65,33,11.57-1.26,154.21-17.85,198.94-21.21,42.14-3.16,509.07,73.29,509.07,73.29L2201,527.63-471.36,365.84Z"/>
    <path class="cls-7" d="M1198.42,19.85c343.18,68,990.49-156.14,1350.33-87.29L2554.69,13C2294.6-137.87,1645,107.19,1198.42,19.85Z"/>
    <path class="cls-8" d="M2113.87,328.66v765.51h-2370V301.9s640.83-36.78,1189.83-30.82S2113.87,328.66,2113.87,328.66Z"/>
    <path class="cls-5" d="M1068.37,23.92C731.13-69.18,69.07,106.68-284.72,11.5V-69.18C-36.45,100.47,629.4-96.08,1068.37,23.92Z"/>
    <path class="cls-9" d="M976.79,54.4c2-11,15.58-20.3,34.81-20.3s40.3,19.51,38.55,30.57c-1.86,11.81-21.24,9.41-38.55,10C985,75.67,974.63,66.23,976.79,54.4Z"/>
    <g>
      <path class="cls-10" d="M900.29,36.75c3.09-16.08,24-29.64,53.6-29.64s62,28.49,59.34,44.63c-2.88,17.23-32.71,13.73-59.34,14.65C912.92,67.79,897,54,900.29,36.75Z"/>
      <path class="cls-11" d="M890,54.41c1.24-7.78,9.63-14.35,21.51-14.35s24.9,13.8,23.82,21.61c-1.15,8.34-13.13,6.65-23.82,7.09C895.06,69.44,888.66,62.77,890,54.41Z"/>
    </g>
    <path class="cls-12" d="M2119.68,421.71a469.35,469.35,0,0,0-90.15-33c-93.77-24.07-194.44-25.37-293.28-26.45L966.4,353.93l-380.17-4.12c-117.39-1.28-248.12-15.27-364.18-1.07C111.65,362.25-9.33,362.88-115.8,390.33c-49,12.63-96.26,32.8-134.56,59.47V717.25a173.3,173.3,0,0,0,39.19,13.27c70.92,15,152.59-8.27,217.19,18.8,28.68,12,49.5,32.38,73.25,49.62,75.19,54.59,181.53,77.91,284.85,79.83s205.4-15.52,306.27-32.86c45.06,50.64,118.53,83,195.12,100.07s157.06,20.28,236.7,23.19c83.25,3,172,4.84,243.49-28.12C1375.6,927.26,1401,908,1432,895.76c73-28.71,160.4-13.08,241.62-4.45s178.21,4.3,224.9-47.59c20.48-22.76,28.06-52,52.76-72.1,41.15-33.53,109.51-28.6,168.42-40Z"/>
    <path class="cls-13" d="M418.84,545.17a520.75,520.75,0,0,0-133.24,87.9c-8,7.23-16.27,15.93-16.5,26.74-.31,14.45,13.56,24.65,26.27,31.27A322.36,322.36,0,0,0,452,727.32c8.87,26.6,33.39,45.34,59.6,54.58s54.4,10.51,82.09,12.56a1340.14,1340.14,0,0,1,264.09,46.47c51.67,14.55,105.93,32.34,157.8,18.53,30-8,56.73-26.11,87-32.83,29.57-6.56,60.28-1.81,90.4,1.37a861.38,861.38,0,0,0,300.51-21.35c68.61,27.41,151.88,6,205-45.77a328.88,328.88,0,0,0,151.53-23.74c23.32-9.63,49.16-28.81,44.86-53.9-3.17-18.56-21.56-29.78-38.25-38.15-174.17-87.43-366-134.49-558.92-159S909.88,458.83,715.44,456.2c-59.79,7.45-117.55,16.51-176.74,27.8-20.84,4-41.85,8.27-61.1,17.25S428,525.82,418.84,545.17Z"/>
    <g>
      <path class="cls-14" d="M1665.22,88.88c3-13.49,23.5-24.88,52.49-24.88s60.76,23.92,58.12,37.48c-2.81,14.46-32,11.53-58.12,12.29C1677.59,115,1662,103.38,1665.22,88.88Z"/>
      <path class="cls-15" d="M1655.13,103.72c1.21-6.54,9.43-12,21.07-12s24.38,11.58,23.33,18.15c-1.13,7-12.86,5.58-23.33,6C1660.09,116.34,1653.82,110.74,1655.13,103.72Z"/>
    </g>
    <g>
      <ellipse class="cls-16" cx="1450.63" cy="415.44" rx="41.27" ry="13.31"/>
      <ellipse class="cls-16" cx="1546.24" cy="423.07" rx="25.11" ry="9.9"/>
      <ellipse class="cls-16" cx="1850.65" cy="416.81" rx="31.05" ry="14.68"/>
      <ellipse class="cls-16" cx="1292.45" cy="383.82" rx="14.92" ry="9.56"/>
    </g>
    <ellipse class="cls-17" cx="1462.1" cy="505.97" rx="38.85" ry="11.93"/>
    <ellipse class="cls-18" cx="1391.7" cy="478.27" rx="40.06" ry="13.91"/>
    <ellipse class="cls-18" cx="1396.14" cy="501.03" rx="40.06" ry="13.91"/>
    <ellipse class="cls-17" cx="1557" cy="515.65" rx="38.85" ry="11.93"/>
    <ellipse class="cls-18" cx="1486.6" cy="487.94" rx="40.06" ry="13.91"/>
    <g>
      <path class="cls-19" d="M1348.88,457.42c-9.9-3.11-22.47-.95-29.37,5,5.43-7.06,2.77-16.82-6-21.87s-22.52-4.82-30.91.53c5-11-4.09-24.39-19.31-28.22s-33.89,2.52-39.47,13.43c-9.16-10.11-31.46-13.54-46.48-8.5a17.78,17.78,0,0,0,.25-6c-.72-5-4.78-10.12-11.43-11.69s-15.24,2-15,7c-10.17-12.67-34.48-18.25-52.93-12.14-6.31,2.09-12.53,5.42-19.4,4.73-4.8-.47-8.74-2.84-12.83-4.71-21.22-9.72-52.38-5.66-67.54,8.8-11.14-8.31-28.42-12.06-44.07-9.57a57.44,57.44,0,0,0-13.88,4,36.94,36.94,0,0,0-10.29-2,63.17,63.17,0,0,0-31.56,6.23c-3.63-2.67-9.69-1.48-13.9.64A28.7,28.7,0,0,0,880,406c-1.07.13-2.13.29-3.19.49-15.39,2.86-28,12.4-31.22,23.62-10.19-7.09-25.85-9.78-39.37-6.78S781.86,434.94,779,444.93c-16.16-3.1-34.27-.39-47.38,7.1s-20.93,19.57-20.45,31.63c9.82,4.49,20.24,8.28,30.86,4.86s32.65,9.21,42.13,4.36c38.3-19.58,72.41-45.51,118.25-52.81,36.65-5.83,74-11.69,111.38-9.39,19.35,1.19,38.33,4.56,57.65,6,32.93,2.4,66.8-.89,98.83,5.14,47.14,8.86,83.26,36.47,128.65,49.23,12.22,3.43,25.58,5.77,38.42,3.82s24.82-9.11,26.49-18.48C1365.16,468.63,1358.78,460.52,1348.88,457.42Z"/>
      <path class="cls-20" d="M1380.93,528.78c-1.2-18.3-19.56-33.18-36.85-46.32-8.46-6.43-17.32-13-28.66-16.19s-25.93-1.7-32.72,5.7c8.84-14.18-7.1-31.45-27.09-36.53s-41.84-1.58-62.37,1.95c-12.68-11.63-26.17-23.72-44.81-29.4s-43.91-2.3-52.59,11.14c-8.55-12.21-26.66-20.41-45.18-20.47s-36.6,8-45.13,20.22c-21.29-11-49-14.74-74.11-10.05s-47,17.75-58.56,34.88c-18.19-9-42.85-7.63-62.53-.74s-35.46,18.52-50.84,29.94a3.07,3.07,0,0,1-.4.26c-2.44.47-4.86,1-7.25,1.55-12.93,2.95-26.09,6.48-36,13.27-10.29,6.83-14.92,17-11.82,27-15.88,1.9-33.17,8.41-38.43,20.71-6,14,13.26,37.08,35,28.56a68.22,68.22,0,0,0,14-7.82c13.88,11.53,37.1,17.85,57.87,21.78,86.68,16.38,176.73,19.26,266,22.06,108.81,3.41,219,6.73,325.32-10.45,21.1-3.41,44.67-9.29,53-24C1426.26,549.05,1405.33,527.46,1380.93,528.78Z"/>
      <path class="cls-21" d="M1363.5,504.49c-14.13-10.58-34.11-16.84-54.2-17-11.85-.08-24.2,1.81-35.26-1.4-8.23-2.39-14.71-7.36-22.93-9.76s-20.16-.51-21.48,5.86c-13.72-17.17-47.93-23.41-70.67-12.9-1.67-8.92-11.81-16.69-23.9-18.34s-25.18,3-30.87,10.88c-9.44-11.75-26.75-19.95-45.18-21.42s-37.54,3.83-49.87,13.84c-6.76-8.67-21-13.92-34.45-12.69S949.4,450.43,946.05,460c-8.21-8.49-24-12.6-37.59-9.75s-23.79,12.44-24.33,22.77a109.08,109.08,0,0,0-36.59,5l2.93-2.6c-8.84-5.59-22-7.25-32.71-4.13S799.1,482.15,798,490.61c-16.61-1.34-30.59,11.66-28.84,23.82s15.34,22.12,30.76,26.94,32.52,5.46,49.2,5.91c90.09,2.47,180.23,1.9,270.33,1.33l204.13-1.29c10.44-.06,21.1-.15,30.93-2.65s18.86-7.87,21.48-15.25C1379.19,520.51,1372.37,511.13,1363.5,504.49Z"/>
      <path class="cls-19" d="M1063.52,409.36a7.59,7.59,0,0,1,4.15,0,3.43,3.43,0,0,1,2,3.84c-.8,5.46-12.27,11.59-18.36,7.09C1043.05,414.19,1057.89,410.48,1063.52,409.36Z"/>
      <path class="cls-19" d="M941.54,417.76c2.41-.53,5.35-.78,7.12.6,2,1.55,1.25,4.21-.22,6.09-2.29,2.92-5.87,5.08-9.37,7.17-4.35,2.59-20.19,10.18-18.77.39C921.34,424.84,933.58,419.53,941.54,417.76Z"/>
      <path class="cls-19" d="M991.15,417.16c1.32.47,2.78,1.43,2.53,2.45a1,1,0,0,1-.11.28c-.6,1.08-2.58,1-4.05.73C982.55,419.27,984.34,414.73,991.15,417.16Z"/>
    </g>
    <g>
      <path class="cls-8" d="M1635.18,459.57c-2.58,9.1-7.64,9.4-13.71,9.17s-10.88-.91-8-10c1.43-4.54,7.17-14.34,12.31-23l9.81-16.23S1637.74,450.47,1635.18,459.57Z"/>
      <path class="cls-8" d="M1612.23,453.5c2.76,9.1.92,14.88-5.22,15.11s-5.08-3.95-7.15-13.07c-4.86-21.06-20-29.14-19.95-29.15s7.2,4.55,14.94,10.19S1610.85,449,1612.23,453.5Z"/>
      <path class="cls-8" d="M1621.66,451.35c0,16.67,16.46,17.5,4.87,17.52s-21.15-.89-20.81-17.55c.18-8.33,5.63-26.49,10.59-42.58s9.6-30.1,9.6-30.1l-2.05,30.1C1622.8,424.84,1621.65,443,1621.66,451.35Z"/>
    </g>
    <path class="cls-22" d="M1604,494.78s-16.75-28.17,12.45-29.34,12.61,29.67,12.61,29.67-3.78-8.65-9.83-.33C1619.22,494.78,1612.11,485.05,1604,494.78Z"/>
    <g>
      <path class="cls-8" d="M1538,418.45c-2.58,9.1-7.64,9.39-13.71,9.16s-10.88-.9-8-10c1.43-4.54,7.16-14.34,12.31-23l9.81-16.24S1540.54,409.35,1538,418.45Z"/>
      <path class="cls-8" d="M1515,412.38c2.76,9.09.92,14.88-5.22,15.1s-5.08-4-7.16-13.06c-4.85-21.06-20-29.14-19.94-29.15s7.2,4.54,14.94,10.18S1513.65,407.84,1515,412.38Z"/>
      <path class="cls-8" d="M1524.46,410.23c0,16.67,16.46,17.5,4.87,17.52s-21.15-.89-20.81-17.55c.18-8.33,5.63-26.49,10.59-42.58s9.6-30.11,9.6-30.11l-2,30.11C1525.6,383.72,1524.45,401.89,1524.46,410.23Z"/>
    </g>
    <path class="cls-22" d="M1506.78,453.66s-16.74-28.17,12.46-29.35S1531.85,454,1531.85,454s-3.78-8.65-9.83-.33C1522,453.66,1514.91,443.93,1506.78,453.66Z"/>
    <path class="cls-23" d="M934.52,85.05C597.28-8-64.78,167.81-418.57,72.63V-8C-170.3,161.6,495.55-34.95,934.52,85.05Z"/>
    <g>
      <ellipse class="cls-16" cx="439.36" cy="401.35" rx="41.27" ry="13.31"/>
      <ellipse class="cls-16" cx="534.97" cy="408.98" rx="25.11" ry="9.9"/>
      <ellipse class="cls-16" cx="839.39" cy="402.72" rx="31.05" ry="14.68"/>
      <ellipse class="cls-16" cx="957.95" cy="392.14" rx="20.74" ry="9.22"/>
      <ellipse class="cls-16" cx="281.19" cy="369.74" rx="14.92" ry="9.56"/>
    </g>
    <ellipse class="cls-18" cx="1774.18" cy="718.36" rx="89.2" ry="23.12"/>
    <g>
      <ellipse class="cls-17" cx="824.21" cy="740.59" rx="67.79" ry="20.15"/>
      <ellipse class="cls-17" cx="1571.97" cy="767.04" rx="38.85" ry="11.93"/>
      <ellipse class="cls-18" cx="543.18" cy="457.47" rx="40.06" ry="13.91"/>
    </g>
    <g>
      <ellipse class="cls-17" cx="974.68" cy="727.64" rx="67.79" ry="20.15"/>
      <ellipse class="cls-17" cx="1722.44" cy="754.09" rx="38.85" ry="11.93"/>
      <ellipse class="cls-18" cx="693.65" cy="444.52" rx="40.06" ry="13.91"/>
    </g>
    <g>
      <ellipse class="cls-17" cx="800.65" cy="773.73" rx="67.79" ry="20.15"/>
      <ellipse class="cls-17" cx="1548.4" cy="800.18" rx="38.85" ry="11.93"/>
      <ellipse class="cls-18" cx="519.61" cy="490.61" rx="40.06" ry="13.91"/>
    </g>
    <g>
      <ellipse class="cls-17" cx="914.89" cy="754.17" rx="67.79" ry="20.15"/>
      <ellipse class="cls-17" cx="1662.65" cy="780.61" rx="38.85" ry="11.93"/>
      <ellipse class="cls-18" cx="633.86" cy="471.05" rx="40.06" ry="13.91"/>
    </g>
    <ellipse class="cls-17" cx="1672.73" cy="761.39" rx="67.79" ry="20.15"/>
    <ellipse class="cls-17" cx="1677.17" cy="784.15" rx="67.79" ry="20.15"/>
    <ellipse class="cls-17" cx="1466.54" cy="528.74" rx="38.85" ry="11.93"/>
    <ellipse class="cls-17" cx="1767.63" cy="771.06" rx="67.79" ry="20.15"/>
    <path class="cls-19" d="M1309,592.25c0,5.83-11.09,6.71-16.46,7.49-4.24.61-10.18,2.06-12.62-1.62-3.41-5.13,2.72-12.72,9.53-13.57C1295.38,583.81,1309,586.09,1309,592.25Z"/>
    <path class="cls-19" d="M1329.9,597.73a2.84,2.84,0,0,1,.85,3.21c-2.22,4.64-14.77,1.74-15.78-2.34C1313.35,592,1326.94,594.81,1329.9,597.73Z"/>
    <path class="cls-19" d="M1380.52,598.42c2.52-.26,5.28.17,7.06,1.57s2.17,3.89.41,5.31a6.83,6.83,0,0,1-5.14,1,19.71,19.71,0,0,1-5-1.75c-1.83-.84-9-3-6.43-5C1371.83,599.25,1379.58,598.51,1380.52,598.42Z"/>
    <path class="cls-19" d="M1137.59,448.17c-.67-.94.34-2.18,1.66-2.51a8.31,8.31,0,0,1,4.07.32c2.43.65,5,1.63,6,3.48.8,1.61,0,3.58-1.83,4.6a7.27,7.27,0,0,1-6.31.15,4.85,4.85,0,0,1-3-4.36l-1,.78"/>
    <path class="cls-20" d="M1605.33,619.53c-.76,1.08-1.57,2.16-2.44,3.22A10.77,10.77,0,0,1,1605.33,619.53Z"/>
    <path class="cls-19" d="M1230.24,638.48a4.84,4.84,0,0,1,2.53,3.62,2.67,2.67,0,0,1-.63,1.86c-3.05,3.64-8.91,1.57-9.11-2.15S1226.13,636.05,1230.24,638.48Z"/>
    <path class="cls-19" d="M1209.51,649.24c-.48-1.42,1.12-2.93,3-3.12a5.44,5.44,0,0,1,4.72,2,3.77,3.77,0,0,1-.89,5.45c-1.88,1.34-5.23,1.28-6.85-.25s-.84-4.25,1.56-4.94"/>
    <g>
      <ellipse class="cls-16" cx="909.41" cy="736.37" rx="23.29" ry="7.26"/>
      <ellipse class="cls-16" cx="1110.71" cy="705.56" rx="34" ry="12.32"/>
      <ellipse class="cls-16" cx="805.11" cy="720.69" rx="26.23" ry="9.5"/>
      <ellipse class="cls-16" cx="1115.9" cy="740" rx="13.72" ry="3.63"/>
      <ellipse class="cls-16" cx="1523.06" cy="628.03" rx="34.48" ry="12.47"/>
      <ellipse class="cls-16" cx="437.38" cy="608.66" rx="19.58" ry="6.89"/>
      <ellipse class="cls-16" cx="550.86" cy="542.07" rx="13.52" ry="6.32"/>
      <ellipse class="cls-16" cx="1416.43" cy="699.56" rx="13.52" ry="6.32"/>
    </g>
    <g>
      <path class="cls-8" d="M408,478.71c-2.58,10.44-7.64,10.79-13.71,10.52s-10.88-1-8-11.47c1.43-5.22,7.16-16.47,12.31-26.44l9.81-18.64S410.56,468.26,408,478.71Z"/>
      <path class="cls-8" d="M385.05,471.74c2.76,10.44.92,17.09-5.22,17.34s-5.08-4.53-7.16-15c-4.85-24.18-19.95-33.45-19.94-33.47s7.2,5.22,14.94,11.69S383.67,466.52,385.05,471.74Z"/>
      <path class="cls-8" d="M394.48,469.27c0,19.14,16.46,20.09,4.87,20.12s-21.15-1-20.81-20.16c.18-9.56,5.63-30.41,10.59-48.88s9.6-34.57,9.6-34.57l-2.05,34.57C395.62,438.83,394.46,459.7,394.48,469.27Z"/>
    </g>
    <path class="cls-22" d="M376.8,519.14s-16.74-32.35,12.46-33.7,12.61,34.08,12.61,34.08-3.78-9.93-9.83-.38C392,519.14,384.92,508,376.8,519.14Z"/>
    <g>
      <path class="cls-8" d="M504.11,408.37c-2,6.74-5.94,7-10.67,6.79s-8.46-.67-6.24-7.4c1.11-3.37,5.57-10.64,9.57-17.08l7.63-12S506.1,401.62,504.11,408.37Z"/>
      <path class="cls-8" d="M486.26,403.87c2.15,6.74.72,11-4.06,11.2s-3.95-2.93-5.56-9.69c-3.78-15.62-15.52-21.61-15.51-21.61s5.59,3.37,11.61,7.55S485.18,400.5,486.26,403.87Z"/>
      <path class="cls-8" d="M493.59,402.27c0,12.36,12.8,13,3.79,13s-16.45-.66-16.18-13c.14-6.18,4.38-19.64,8.23-31.57s7.47-22.33,7.47-22.33l-1.6,22.33C494.48,382.61,493.58,396.09,493.59,402.27Z"/>
    </g>
    <path class="cls-22" d="M479.85,434.48s-13-20.89,9.69-21.76,9.8,22,9.8,22-2.94-6.41-7.65-.24C491.69,434.48,486.16,427.26,479.85,434.48Z"/>
    <path class="cls-24" d="M760.2,556.2c-.26-.38-.51-.75-.77-1.11l1.1.19Z"/>
    <path class="cls-25" d="M769.28,454.05a9,9,0,0,1-7.27,3.66,10.19,10.19,0,0,1-8-3.52C762.31,460,769,454.31,769.28,454.05Z"/>
    <g>
      <path class="cls-2" d="M1116,824.68l2.31-1.15,4.23,1.6.37.18a2.53,2.53,0,0,1-.82.12,38.51,38.51,0,0,1-6.09-.75m-31.89-1.34q2.81,1,5.47,1.85c-3.21,1.39-6.35,2.82-9.36,4.29.2-1,1.54-3.11,3.89-6.14m115.62-5.21.38-.3.73.34h-.24a5.5,5.5,0,0,1-.87,0m-72.58,1.25.81-.37,1,.8a8.83,8.83,0,0,1-1.8-.43m-60.1-2,4,1.39c-1.67,1.83-3.23,3.63-4.61,5.4a23.79,23.79,0,0,1,.61-6.79M1286.88,815c1.59-1.05,3.19-2.07,4.78-3,3.93,1.24,7,2.13,9.19,2.76l-3.62,1.05c-2.68-.09-6.19-.37-10.35-.77m-199,3.73c1.53-1.8,3.27-3.78,5.22-5.92,5,2.31,9.35,4.26,13.16,5.89-2.34.83-4.67,1.7-7,2.59-3.57-.79-7.39-1.65-11.39-2.56M1211.23,810l.66-.43.59.6-.21,0a3.33,3.33,0,0,1-1-.19m-28.56,2.63c1.11-1.59,2.27-3.12,3.46-4.59,1.6,1.34,3.14,2.59,4.62,3.73-1.29.82-2.55,1.66-3.82,2.5-1.34-.5-2.76-1-4.26-1.64M1151,809.05c.7-.32,1.39-.63,2.06-.95l.61.4a35.24,35.24,0,0,0-.56,3.5,18.24,18.24,0,0,1-2.11-3m232.72-5.72,1.45,1.36-1.72,1.16-.7.07c.3-.88.62-1.75,1-2.59m-111.42,1.9,3,1.1c-1.64.75-3.27,1.51-4.85,2.28a11.81,11.81,0,0,1,1.86-3.38m30.83.18,2.35-1.22,3.24,2.35-.15,0a31.92,31.92,0,0,1-5.44-1.15m-153.81.25.36.24-.23.05c0-.1-.09-.2-.13-.29m71.85-2.34,1.53-1.11.94,3a10.16,10.16,0,0,1-2.47-1.92m35.64-4.15,2.47,1c-.92,1.06-1.8,2.12-2.61,3.16a19.87,19.87,0,0,1,.14-4.16m-189,15A114.22,114.22,0,0,1,1072,802.3q5.52,2.88,10.49,5.34c-3,2.63-5.79,5.28-8.39,7.92l-6.28-1.42m29.3-5.71c2.92-3.11,6.18-6.48,9.76-10.07a116.05,116.05,0,0,0,14.52,15.24q-2.73.85-5.54,1.77c-5-1.87-11.39-4.24-18.74-6.94m96.6-8.65c1.68-1.66,3.37-3.23,5-4.73,2.76,3.31,5.19,6.07,7.25,8.33-1.32.6-2.6,1.22-3.82,1.84-2.5-1.54-5.34-3.38-8.46-5.44m141-8.77.37-.15c0,.19,0,.39,0,.58l-.39-.43m-168.37,14.82a123.86,123.86,0,0,1,2.84-13.18c3.36,3.21,6.61,6.27,9.7,9.09-2.63,2-5.19,4.11-7.6,6.23-1.6-.68-3.24-1.39-4.94-2.14M1369,788.78l.76.18,2.53,2.71c-2.12,2.33-4.27,4.69-6.51,7.11a100.86,100.86,0,0,1,3.22-10m-91.24,9.5c2.41-2.85,5.39-6.19,8.88-9.93,3.69,3.64,7.13,6.67,10.32,9.29q-4.67,1.65-9.28,3.47l-9.92-2.83m-47.66-10.78q5,2.31,9.71,4.4a97.4,97.4,0,0,1-6.32,9.54,66.33,66.33,0,0,1-1.87-6.73l.25-.23-.28.08c-.49-2.07-1-4.44-1.49-7.06m-102.13,22.25c-4.37-4-10-9.51-16.34-16.07q4.25-4.17,9-8.65,6.86,5.31,13.09,9.8c.29,5.68.71,10.93.87,14.9l-3.52,1-3.09-1m130.25-16.94c2.1-7.31,6-16.27,10.18-25.53,3.93,5.21,7.66,9.72,11.2,13.67a196.8,196.8,0,0,0-15.1,13.6l-6.28-1.74M1293,781.64c4.54-4.66,9.71-9.78,15.42-15.22,1.75,9.9,3.76,19.21,4.9,25.78-2,.61-3.95,1.23-6,1.88-3.93-3.2-8.8-7.42-14.36-12.44m-121.54,3.05c1.66-5.46,3.72-11.52,6.19-18,6.49,9.68,12.37,17.56,17.4,23.85-2.47,1.56-5,3.24-7.64,5-5-3.34-10.35-7-16-10.87m-25.16,12c-2.9-10.69-4.89-23.94-8.49-33.92,8.5,7.76,16.83,15.84,24.67,23.4a103,103,0,0,0-6.75,14.88q-4.57-2.08-9.43-4.36M1331.7,787c-4.67-7.24-8.63-18.6-12.6-30.54l4.53-4.11c-.82,0-2.66.66-5.24,2-3.64-11-7.33-22.27-11.6-31.11-2.83,8.94-1.55,23.39.69,37.47-6.28,4-13.71,9.16-21.12,14.86-4.74-4.4-9.85-9.24-15.2-14.45,4.23-9.39,8.36-18.78,10.78-26.8-6,4.3-12.13,11.5-18.06,19.65-4.41-4.37-8.94-8.94-13.53-13.67,3.81,6.36,7.48,12.06,11,17.21-7.31,10.49-14.11,22-19.46,30.91-4-1-8.07-2.12-12.26-3.2a387.9,387.9,0,0,1-6.36-48.64c-7.72,38.77-5.58,47.76-2,61-1.59.5-3.1,1-4.56,1.53-2.76-2.78-6.28-6.39-10.45-10.65a62.11,62.11,0,0,0,8.58-8.6c-1.46.39-5.76,2.48-11.41,5.7-9.72-9.92-22.43-22.75-37.08-36.52q5.56,9.19,10.69,16.84c-2.46,1.86-7,7.6-11.42,14.91-9.45-6.44-19.19-13-28.08-18.58l-.22-.6c-.07.11-.12.23-.18.34l-1.18-.74,1.06,1c-3.52,6.61-3.93,17.9-3.56,28.54q-6.07-2.92-12.43-6.07c3.89-3.65,8-7.44,12.33-11.33-2.41-.16-13.64,6.21-26.66,15.37-6-6.33-12.51-13.43-19.15-21A193.78,193.78,0,0,0,1102.08,792c-5.29,3.87-10.73,8.11-15.89,12.48-4.17-1.5-8.56-3.07-13.14-4.69,6.08-14.5,14.68-31.4,18.66-44.57-10.71,7.75-22.18,24.85-31.57,40.08l-3.3-1.13,3,1.65c-3.25,5.3-6.24,10.34-8.86,14.68-3.82-.81-7.54-1.59-11.09-2.28,3.46,1.12,6.93,2.28,10.38,3.45a111.88,111.88,0,0,1-7,10.69c-3.32-9.36-8.32-39.65-11.11-75.85-9.39,47.15-2.82,66.49,1.27,79.65-2.61-.75-25.33-26.29-57.23-56.28,23.32,38.55,41.31,56.28,46.08,61.25-4.68,1-46.09-30.1-76.48-49.07,26.16,23.61,50.92,51,64.82,57-6.07.58-41.1-14.39-82.7-35.06,37.52,29.38,61.78,40.33,69,45.71-9,0-18.52-6.92-71.82-23,19,9.91,39.24,19.74,54.15,26.76l-20,.68c-8.73-2.7-19-6.06-31-10.16,7.5,3.77,14.48,7.26,21,10.5l-52.86,1.79c-27.06-7.35-45.7-7.22-65.83-6.8l.45,17,618.69-10.72"/>
      <g class="cls-26">
        <polygon class="cls-27" points="1452.81 630.45 1449.12 904.61 822.14 865.89 825.84 591.73 1452.81 630.45"/>
      </g>
    </g>
    <path class="cls-28" d="M1498.13,833.56c30.33-9.8,63.65-23.17,72.38-28.83-18.5,2-52.48,11.68-80.63,20.8l6.35-2.91c16-6.26,28.93-11.93,30.22-13.72,19.17-8.64,34.92-15.57,37.39-16.26-10.62,1.92-37.68,10.88-62.95,21.23q-4,1.07-8,2.19c34.28-18.37,72.35-39.27,75.76-43.31-7.35,1.13-35.8,14-65.07,28.64,15.35-10.34,29.61-20.56,36.62-26.35-7.21,2.82-15.77,6.5-24.73,10.66,7.58-6.38,15.14-12.78,22.42-18.86-2.16-1-9.54,2.46-19.42,8.31,13.1-12.52,22.18-22.65,21.34-25.41-13.33,10-27.74,20.61-41.48,30.94,9.06-8.49,17.59-17,24.36-23.92-5.84,3.07-14.7,8.6-24.5,15.14,16.1-19.58,29.22-36.9,31.18-42.27-3.77,1.89-21.54,20.71-41,42,2.89-4.28,5.66-8.52,8.25-12.6,7.38-7.67,13.6-14.09,17.78-18.26q-5.65,3.6-11,7.22a156.81,156.81,0,0,0,9.71-18.29c-1,1.79-8.21,11.43-17.87,24q-8.91,6.36-16.81,12.67c3.92-8.91,7.4-17.61,10-25.36q3.6-3.78,7.36-7.56c-2.19,1.57-4.33,3.13-6.43,4.71a99.75,99.75,0,0,0,3.08-12.06c-2.79,3.41-7.57,10.66-13.14,19.88q-9.94,8-18.43,16a54.34,54.34,0,0,0-1-7.64s-.85,1.31-2.25,3.53q.76-5.48,1.36-10.91c5.61-13.45,10.55-26.16,14.18-36.76-4.33,4.85-8.57,10-12.68,15.42.15-5.06.12-10-.12-14.68-2.87,7.88-5.91,17.19-8.94,27.2-6.87,10-13.31,20.44-19.18,30.86a397.06,397.06,0,0,0-5.83-41.68c-.34-8.34-1.06-14.84-2.12-18.22-.4,1-.79,2-1.18,3.11q-1.18-5-2.54-9.81c.25,5.07.49,10.23.71,15.43-5.61,18.71-9.73,46.91-12.09,71.09-.17-2.17-.35-4.38-.53-6.6.1-16.38-.63-29.77-2.37-31.42-1.41-19.91-2.36-36.23-2-38.69-3.08,10.31-5.47,37.6-5,63.58-.47,2.64-.92,5.31-1.35,8-6.48-36.35-14.36-76.84-18-81-2.42,7.08-.19,36.66,3.86,67.43-5.77-16.82-12-32.59-16-40.54,0,7.38.34,16.22,1.17,25.57-4.59-8.63-9.2-17.24-13.52-25.51-2.32,1.64-1.87,8.47.34,18,0,.36-.1.72-.14,1.08-9.67-14.78-18.24-25.28-22.36-25.21,6.4,14.86,13,30.88,19.66,46.2-6.64-10.53-13.56-20.57-19.33-28.59a150.33,150.33,0,0,0,4.73,18.35c0,1.74-.06,3.47,0,5.17-16.84-18.5-32-33.55-37.86-36.57.53,4,16.49,25.17,35,48.58-17.36-15.34-34.87-28.76-43.52-33.51,1.49,1,7.41,6.85,15.56,15.11a168.82,168.82,0,0,0,8.4,22.13c-14.63-8.32-28.78-15.33-40-19,6,6.67,27.63,23.88,51,40.25.57,1,1.15,2,1.73,2.93q-6-1.93-12.29-3.32c-17.65-10.91-34.93-20-42-22,4.84,6,13.36,13.67,23.31,21.58-10.72-3.16-21.57-6-32.25-8.45a11.6,11.6,0,0,1-1.2-.75l.64.63c-9.09-2.05-18.06-3.77-26.69-5.07,15,7.62,34.87,16.61,55.79,25.48,5.61,3.41,11.59,6.88,17.64,10.16,1.8,1.44,3.64,2.88,5.49,4.31-33-12.69-70.16-26.46-75.77-26.32,3.86,4.23,26.2,15.12,51.36,26q-3-.35-6.08-.66c-12.93-3.12-24.6-5.6-31.59-6.62,2.53,1.44,5.32,3,8.33,4.52-19-1.45-38.72-2.29-58.11-2.25,14.28,2.15,29,4.45,43.72,6.79,2.54,1.83,7.81,4,14.78,6.27-18.42-1.37-32.72-1.39-35.31.95,15.86,3.12,32.78,6.63,49.14,9.84-12.56-1.06-24.92-1.73-34.93-2.14a251.88,251.88,0,0,0,25.71,7.79c-27.07,1-50.58,2.62-57,4.63,3.49,1.49,30.42,2.18,60.69,2.48-23.16,2.7-44.88,6.33-54.12,9,4.19-.84,45.16-3.38,80.38-5.35-27.9,6.28-58.68,14.5-76,22.31,10-.39,41.77-5.36,72.09-11.68a123.74,123.74,0,0,0-29.35,16.92s1.7-.22,4.62-.64c-18.16,8.7-35.84,18.19-50.68,27.75,27.38-8.53,67.84-23.62,101.32-37.06,1.7-.42,3.38-.85,5-1.28-29.71,17.6-67.62,44-99.58,71.95,60-38.62,132.76-83.11,146.82-91.69q.73.51,1.41.9c.66-1.16,3.22-5.2,3.9-6.35h0c.55-.89,1.14-1.83,1.45-2.35a16.7,16.7,0,0,0-2.16,0c-.17-.25-.34-.52-.53-.82,9.93,1.73,17.26,3,21.15,3.71-.06.67-.1,1.29-.11,1.86,1.69-.5,7.74-2.09,9.43-2.58h0c1.32-.35,2.73-.73,3.48-.95a11,11,0,0,0-1.29-1.69c.49-.95,1.12-2.17,1.9-3.65q1.62-2.68,3.47-6c2.89-2.4,6.25-5.38,10-8.81.08,4.95.13,8.66.16,10.87-.67.22-1.28.43-1.84.65.8.93,3.45,4.34,4.23,5.28h0c.58.74,1.21,1.54,1.56,2a15.05,15.05,0,0,0,1.42-1.51c1,0,2.32-.1,3.9-.15,1.94,0,4.1,0,6.44,0,24.17,8.4,94.58,22.74,115.75,27.88a283.2,283.2,0,0,0-78.18-27.09,486.67,486.67,0,0,1,82,11.87,246.37,246.37,0,0,0-51.62-16.37c25.24-2.06,51.16-4.78,70.19-7.69C1554.52,833.32,1525.16,832.49,1498.13,833.56Zm-30-45-.25.32.06-.12Zm2.66-28.07c-3.9,6.85-7.89,14.15-11.67,21.4a84.07,84.07,0,0,0,1.44-9.13Q1465.45,766.71,1470.8,760.48Zm-142.7,19.15c4.19,4.34,8.48,8.8,12.73,13.24.2,1.06.41,2.1.62,3.14l-1.79-1.14C1335.85,789.72,1332,784.59,1328.1,779.63Z"/>
    <path class="cls-29" d="M1364.33,814c-78.36-3.1-252.87,13.52-414.67,31.85C586.18,758.52,31.1,697.19,31.1,697.19L55,905.7l668.23-5,46,4.8H1933.71l11.23-142.74C1539.16,758,1364.33,814,1364.33,814Z"/>
    <path class="cls-30" d="M1044.31,951c40.82-3.12,86.31-9.76,98.78-14.17-23.92-2.94-69.31-1.12-107.19,1.81l8.76-1.71c21.81-3,39.58-6.17,41.66-8,26.41-5,48.08-8.88,51.37-9-13.91-.76-50.39,2.29-84.94,7.58q-5.32.12-10.7.32c48-12.52,101.36-27.05,106.69-31-9.58-.78-48.81,6.75-89.5,16.09,22-8.23,42.62-16.62,52.94-21.69-9.83,1.34-21.57,3.35-34,5.84,11.19-5.64,22.36-11.31,33.09-16.65-2.48-1.85-12.68.21-26.64,4.5,19.71-11.57,33.73-21.39,33.37-25-19.37,8.4-40.27,17.23-60.24,25.91,13.59-7.79,26.52-15.75,36.82-22.32-8.16,2.07-20.75,6.27-34.79,11.45,25.28-19.41,46.23-36.91,50.06-43-5.25,1.2-32.45,19.18-62.44,39.77,4.73-4.43,9.31-8.85,13.61-13.12,11.26-7.28,20.74-13.37,27.07-17.28q-8.06,2.78-15.7,5.66c7.82-8.26,13.85-15.27,16.87-19.7-1.65,1.92-13.25,11.68-28.62,24.31q-12.87,5.22-24.44,10.67c7.19-9.84,13.79-19.55,19-28.36q5.49-3.58,11.2-7.15c-3.16,1.28-6.26,2.59-9.32,3.9a118.2,118.2,0,0,0,6.93-14c-4.38,3.38-12.24,10.93-21.61,20.66-9.73,4.63-18.84,9.42-27.33,14.29a67.62,67.62,0,0,0,.64-9.74s-1.4,1.36-3.73,3.68q2.36-6.51,4.46-13.06c10.48-15,19.93-29.18,27.17-41.19-6.69,4.7-13.34,9.83-19.9,15.28,1.45-6.21,2.65-12.29,3.54-18.16-5.62,8.88-11.8,19.48-18.15,30.94-11.2,10.29-22,21.29-32,32.43a492,492,0,0,0,3.1-53.2c1.67-10.4,2.4-18.63,1.9-23.12-.75,1.1-1.51,2.26-2.27,3.48-.18-4.3-.42-8.6-.74-12.86-1,6.33-2,12.78-3,19.27-11.79,21.43-24.09,55-33.15,84.2q.5-4.11,1-8.31c4.25-20.2,6.68-37,4.9-39.5,3.22-25,6.13-45.44,7.24-48.36-6.5,11.81-16.38,44.8-22.34,77-1.26,3.12-2.49,6.29-3.7,9.46.93-46.81,1.14-99.15-2.41-105.38-4.84,8-9.45,45.22-12.06,84.41-3.08-22.48-6.93-43.79-10.1-54.81-1.92,9.1-3.65,20.13-5,31.91-3.63-12-7.3-24-10.69-35.5-3.34,1.33-4.49,9.9-4.1,22.36-.15.43-.3.86-.44,1.28-8.52-21.12-16.72-36.62-21.94-37.74,4.36,20.24,8.72,42,13.25,62.86-5.75-15-12-29.41-17.27-41a190.05,190.05,0,0,0,1.38,24.06q-.74,3.21-1.37,6.37c-16.64-27.84-32-50.9-38.68-56.37-.34,5.05,14.53,36,32,70.34-18.1-24.09-36.87-45.85-46.62-54.28,1.62,1.73,7.65,10.66,15.88,23.28A216.08,216.08,0,0,0,827,831.45c-16.41-14.61-32.54-27.46-45.77-35.35,6,10,28.94,37.67,54.38,64.81.47,1.38,1,2.76,1.45,4.13q-7.1-4.17-14.71-7.74c-19.58-18.71-39.14-35-47.65-39.59,4.62,8.88,13.48,20.84,24.07,33.56-12.77-7.08-25.77-13.84-38.67-20-.64-.58-1.1-1-1.33-1.28.21.31.42.63.66,1-11-5.22-21.89-10-32.49-14.17,17,13.85,39.93,30.84,64.16,48,6.23,5.88,12.93,11.93,19.75,17.78q2.88,3.47,5.87,7c-38.53-25.44-82.08-53.46-89.22-55,3.82,6.37,29.34,26.44,58.41,47.33l-7.51-2.61c-15.58-7.69-29.71-14.2-38.29-17.54,2.83,2.53,6,5.23,9.4,8-23.71-7.43-48.39-14.29-72.93-20,17.53,6.89,35.6,14.09,53.59,21.33,2.75,3,8.87,7.25,17.11,12.13-22.95-7.14-41-11.41-44.89-9.29,19.27,8.56,39.78,17.9,59.67,26.71-15.62-5-31.07-9.52-43.64-13,6.48,4.36,17.61,10.56,30.56,17.23-34.48-6.81-64.62-11.74-73.28-11.17,4,2.87,37.92,11.7,76.12,21-30-3.53-58.34-5.48-70.69-4.95,5.5.2,58,9.2,103,17.2-36.87-.51-77.87.53-101.74,5,12.72,2.48,54.16,5.76,94.11,6.93-14.46,2.37-28.69,6.21-41.37,12.2,0,0,2.2.23,6,.59C716,957.14,691.25,963.63,670.08,971c36.76-2.41,91.73-9.07,137.45-15.75q3.39,0,6.65-.1c-42,12.93-96.58,34.28-144,59.36,85.62-29.91,188.78-63.3,208.71-69.73.54.55,1.06,1.07,1.56,1.52,1.13-1.23,5.39-5.46,6.54-6.68h0c.91-.93,1.9-1.93,2.41-2.47a24.23,24.23,0,0,0-2.72-.7l-.46-1.17c12.12,5.08,21.08,8.85,25.81,10.85-.24.81-.45,1.57-.6,2.27,2.26-.13,10.31-.29,12.58-.39h0c1.76,0,3.64-.1,4.65-.15a17.21,17.21,0,0,0-1.2-2.47c.85-1,1.95-2.35,3.31-3.94,1.82-1.89,3.79-4,5.88-6.33,4.27-2.11,9.26-4.8,14.8-7.93-1.14,6.13-2,10.73-2.53,13.47-.89.07-1.73.15-2.49.25.78,1.39,3.28,6.39,4,7.78h0c.55,1.09,1.15,2.26,1.48,2.88a20.54,20.54,0,0,0,2.18-1.45c1.29.24,2.95.57,5,1,2.45.61,5.17,1.26,8.14,1.92,28.46,17.53,113.89,56.09,139.38,68.71a385.82,385.82,0,0,0-92.06-56.61,659,659,0,0,1,100.65,38.93,335.19,335.19,0,0,0-61.17-35.5c32.44,4.94,65.9,9.25,90.7,11.29C1115.69,967.42,1078.77,957.7,1044.31,951Zm-26.62-64.47-.4.32.11-.13Zm10.42-33.88c-6.65,7.31-13.53,15.14-20.13,23a103.17,103.17,0,0,0,4.11-10.85Q1019.79,858.79,1028.11,852.67ZM842.83,834.06c4.21,6.6,8.51,13.38,12.77,20.11,0,1.37,0,2.72,0,4.06l-2-1.94C850.09,848.8,846.47,841.32,842.83,834.06Z"/>
    <path class="cls-31" d="M1358.78,910.34c25.85-15,53.48-34.25,60.07-41.67-16.95,4.84-46.32,20.12-70.31,34l5.15-4.07c13.32-9.09,23.89-17.1,24.58-19.24,15.61-12.13,28.48-21.92,30.62-23-9.51,3.59-32.51,17.18-53.4,32q-3.48,1.73-7,3.52c27-24.89,56.92-53.07,58.94-58-6.64,2.27-29.77,20.38-53.19,40.43,11.47-13.46,22-26.63,26.86-33.94-6,4.09-13,9.31-20.28,15.12,5.29-8.05,10.55-16.11,15.63-23.77-2.34-.76-8.32,4-15.94,11.8,8.68-15.52,14.26-27.87,12.63-30.78-9.65,12.81-20.16,26.43-30.1,39.65,6.06-10.55,11.61-21,16-29.57a248.63,248.63,0,0,0-18.71,20c9.41-23.67,16.67-44.45,16.92-50.6-3,2.59-14.24,25.66-26.33,51.73,1.46-5.09,2.83-10.11,4.06-14.94,4.71-9.41,8.68-17.31,11.4-22.46q-4.29,4.74-8.26,9.44a165.57,165.57,0,0,0,3.73-21.36c-.37,2.09-4.36,13.65-9.77,28.72-4.36,5.47-8.41,10.89-12.15,16.21,1-10.29,1.74-20.29,1.87-29.13q2.28-4.63,4.72-9.3c-1.61,2-3.17,4-4.7,6a120.29,120.29,0,0,0-.69-13.62c-1.62,4.12-4,12.72-6.51,23.59-4.69,6.77-8.92,13.48-12.7,20.07a75.47,75.47,0,0,0-3.25-8.22s-.42,1.55-1.08,4.17c-.61-4.06-1.27-8.11-2-12.12,1.29-15.5,2.17-30.1,2.43-42.19-2.66,5.9-5.12,12.15-7.41,18.63-1.38-5.55-2.88-10.93-4.51-16-.37,9-.46,19.64-.34,31-3.53,11.88-6.5,24.22-9,36.44-5.12-14.49-11.19-29.74-18-44.78-2.83-9.07-5.46-16.08-7.48-19.63-.09,1.14-.15,2.33-.19,3.56q-2.62-5.24-5.36-10.37c1.76,5.51,3.53,11.12,5.3,16.78.29,21.25,4.84,52.67,9.86,79.46l-2.49-7.16c-4.82-17.93-9.53-32.47-11.68-34-7.31-21.58-13.1-39.3-13.47-42,.16,11.71,6.08,41.89,14.3,70.25.35,3,.72,5.94,1.12,8.92-17.06-38.85-36.7-82-41.4-86.1-.18,8.09,10.82,40.13,23.9,73.21-10.53-17.58-21.14-34-27.4-42.09,2.17,8.08,5.19,17.69,8.78,27.8-6.94-8.8-13.9-17.57-20.49-26-1.71,2.11.77,9.52,5.73,19.67.06.4.13.79.19,1.19-13.62-14.81-24.9-25.1-28.79-24.44,10.54,15.36,21.64,32,32.53,47.78-9.46-10.59-19-20.6-26.94-28.56a217.1,217.1,0,0,0,10,19.4c.49,1.92,1,3.8,1.51,5.67-21.54-17.89-40.4-32.24-46.92-34.71,1.69,4.27,23.21,25.22,47.77,48.24-21.09-14.35-41.74-26.58-51.38-30.56,1.72.93,9.09,6.46,19.31,14.36a239.63,239.63,0,0,0,14.61,23c-16.39-7-31.92-12.74-43.67-15.22,7.75,6.44,33.4,22.25,60.5,36.89l2.52,3a125.54,125.54,0,0,0-12.66-1.92c-20-9.46-39.17-17-46.51-18.14,6.41,5.91,16.79,13.07,28.61,20.34-11.13-2-22.3-3.58-33.16-4.73a13.71,13.71,0,0,1-1.36-.66c.25.2.51.4.8.6-9.26-1-18.28-1.6-26.87-1.81,16.49,6.24,38.09,13.29,60.62,20.06,6.34,3,13.07,5.91,19.8,8.65,2.14,1.32,4.31,2.64,6.5,3.94-35.13-9.26-74.55-19.12-79.84-18.18,4.94,4.09,29.41,12.87,56.57,21.26l-6,.13c-13.22-1.6-25-2.68-32-2.82,2.83,1.22,5.94,2.49,9.26,3.77-18.51,1.08-37.44,2.92-55.85,5.68,14.21.35,28.9.8,43.55,1.31,3,1.64,8.61,3.27,15.92,4.79-17.9,1.08-31.49,3-33.24,6,16,1.2,33.11,2.67,49.61,3.89-12.25.6-24.18,1.59-33.81,2.54,5.94,1.63,15.65,3.36,26.74,4.92-25.41,4.86-47.23,10-52.75,13.05,3.76,1.14,29.53-1.87,58.36-5.78-21.17,6.19-40.71,13.21-48.69,17.39,3.73-1.51,41.87-10,74.72-17.11-24.61,10.78-51.37,24.08-65.48,35,9.36-1.82,38-11.7,64.94-22.86a98.22,98.22,0,0,0-22.79,22.61s1.55-.48,4.19-1.34c-14.63,12.05-28.56,24.91-39.79,37.44,23.44-13.15,57.33-35.33,85.08-54.71,1.5-.7,3-1.4,4.37-2.1a578.86,578.86,0,0,0-73,92.64c45.41-50.65,101.11-109.48,111.89-120.84.56.3,1.1.56,1.61.78.28-1.35,1.5-6.13,1.8-7.49h0c.25-1,.53-2.16.66-2.76a15.38,15.38,0,0,0-2.06.24c-.23-.24-.48-.52-.75-.82,9.95.51,17.3.9,21.2,1.11.14.73.29,1.42.45,2,1.45-.79,6.72-3.37,8.19-4.14h0c1.14-.57,2.37-1.18,3-1.52a16.45,16.45,0,0,0-1.73-1.68c.17-1.1.41-2.53.71-4.25.49-2.11,1-4.45,1.5-7,2-3,4.32-6.77,6.81-11,1.56,5.4,2.72,9.46,3.41,11.87-.57.32-1.09.65-1.55,1,1,.9,4.58,4.27,5.6,5.19h0c.78.73,1.61,1.51,2.07,1.91a13.35,13.35,0,0,0,.89-1.85l3.66-.71c1.85-.24,3.9-.54,6.12-.89,25.46,5.8,96.62,11.64,118.27,14.29A278.42,278.42,0,0,0,1344.4,931a427.59,427.59,0,0,1,81.36,1.52,238.23,238.23,0,0,0-53.92-10.68c23.35-5.78,47.14-12.39,64.33-18.24C1412.25,902.18,1384.12,905.38,1358.78,910.34Zm-42-45c0,.13-.09.26-.14.39l0-.15Zm-5.89-31.08c-1.64,8-3.24,16.59-4.65,25-.3-3.41-.76-6.82-1.38-10.19Q1307.69,841.79,1310.9,834.22Zm-129.74,40.92c5.28,4.16,10.69,8.44,16,12.7.51,1.13,1,2.24,1.54,3.34l-2-1C1191.54,885.09,1186.31,880,1181.16,875.14Z"/>
    <g>
      <path class="cls-30" d="M1728.74,815.6c34.76,18.91,69.07,38.21,100,64.56,20.67-62.71-58.09-147.89-97.54-183.12-26-23.18-55.18-41.25-86.64-51.57A192.53,192.53,0,0,0,1597,636c-8-.52-39.41,7.08-45.17,2.69,35,26.64,56.15,65.61,83.16,101.2,26.7,35.17,57.4,56,93.72,75.72"/>
      <path class="cls-32" d="M1557.34,641.5c94.39,11,157.91,132.41,226.51,195.84,13.21,12.21,27.24,22.26,37.94,37.29,10.4-26.88-7.42-64.35-21-88.15A394.05,394.05,0,0,0,1735.46,701c-48.86-48.07-115.45-85.38-178.12-59.49"/>
      <path class="cls-30" d="M1776.91,860.35c19.47,3.85,35.59,14.65,52.07,22.47-2.8-51.65-80.08-80.48-112.26-106.29-44.87-36-90.54-52.64-142.59-36-21.61,6.91-42.71,12.84-64.27,19.05,47.71,24.91,97.07,43.69,143.78,70,42.24,23.8,78.38,21.9,123.27,30.77"/>
      <path class="cls-30" d="M1801.62,834.62c13.06,13,22.85,21.23,31.27,38.46,33.32-109.33-45.91-240.47-130.45-292.66-18.57-11.46-37.55-20.87-58.35-24.25,21.52,98.07,90,211.29,157.53,278.45"/>
      <path class="cls-32" d="M1702.44,580.43c-18.55-11.46-36-21.35-57-20.9C1713.17,628,1740.21,727.65,1798.77,805c12.4,16.38,24.8,32.71,36.51,49.61,30.07-98.7-58.53-228.31-132.84-274.18"/>
      <path class="cls-30" d="M1821.57,879.63a12.47,12.47,0,0,1-4.47-.6c-11.72-3.66-40.67-91.64-47.19-106.46C1736,695.45,1708.62,608.46,1726.8,524c9.89-45.93,12.22-58.09-.29-102.79,18.89,15.38,31.81,34.41,40.24,58.59,14.24,40.82,17.2,86.8,30.91,128.2,27.33,82.51,70.9,135.27,46.56,222.28-4,14.26-7.35,48.36-22.65,49.33"/>
      <path class="cls-32" d="M1819.11,850c-60.84-109.48-59.58-237.4-72.18-358.59-2.58-24.8-5-53.46-19.85-73.6,14.19,20.74,31.75,39.32,39.67,62,13.41,38.45,16.07,79.74,27.72,118.66,10.06,33.62,29.79,60.35,42.25,93,15.76,41.28,2.67,69.09-7,109.75-3.85,16.26-6.18,32.75-10.65,48.76"/>
      <path class="cls-30" d="M1845,844c-7.23,16.29-16,30.21-25.35,31.91-25.64,4.64-25.81-80.34-30.25-105.2-20.58-115.18,26.65-259.33,141.54-262.54-34,44.55-48,104.18-51.49,163.11-2.49,41.51-4.82,83.2-16.81,122.37-3.11,10.13-9.4,31.78-17.64,50.35"/>
      <path class="cls-32" d="M1813.9,881.05c-23.38-63-16.28-122.31-5.17-185.16,10.65-60.19,52.54-151.17,105-175a470.21,470.21,0,0,0-34.24,150.38c-2.87,47.73-7.7,124.27-33.7,173.26-8.26,15.57-18.67,28.36-31.84,36.55"/>
      <path class="cls-33" d="M1808.23,876.92c.28-.2-1.51-4.08-6.06-10.16a118.78,118.78,0,0,0-22.63-22.24c-10.55-8.18-24.09-16.35-39.49-24.38s-32.59-16-49.85-26c-17.46-9.78-34.41-18.76-50.58-25.21a218.69,218.69,0,0,0-23.36-7.93c-7.45-2.08-14.51-3.45-20.88-4.7-12.77-2.59-23.45-3.67-30.83-3.25s-11.36,1.61-11.31,2,4.07,0,11.25.35,17.44,2,30,5.06c6.32,1.51,13.2,3.09,20.42,5.34a233.08,233.08,0,0,1,22.73,8.28c15.76,6.61,32.42,15.61,49.85,25.37,17.4,10.07,34.86,17.92,50.21,25.66s28.9,15.34,39.51,22.9a141.37,141.37,0,0,1,23.29,20.33c5,5.47,7.35,8.88,7.71,8.61"/>
      <path class="cls-33" d="M1794.92,835.62c.34-.25-1.75-3.93-5.07-10.82s-7.72-17.06-12.69-29.92c-2.51-6.42-5.21-13.49-8.28-21s-6.55-15.44-10-23.9c-6.88-16.86-14.14-35.6-22.25-55.08S1720.28,657,1711.73,641a302.35,302.35,0,0,0-25.57-40.81,175.57,175.57,0,0,0-21.43-23.89c-5.57-5.07-9-7.36-9.24-7.07-.63.74,12.09,11.46,27.53,33.58a346.1,346.1,0,0,1,24.19,40.93c8.2,16,16.28,34.28,24.35,53.69s15.48,38.07,22.65,54.88c3.55,8.41,7.21,16.34,10.44,23.68l8.89,20.71C1779,809.34,1784,819.39,1788,826s6.67,9.87,7,9.64"/>
      <path class="cls-33" d="M1698.43,671c-.31.29,3.23,5.07,8.61,13s12.54,19.19,20.34,31.72,15,23.75,20.69,31.54,9.56,12.26,9.84,12-3-5.17-8.23-13.27-12.16-19.42-20-32-15.23-23.67-21.09-31.34-9.91-12-10.19-11.73"/>
      <path class="cls-33" d="M1791.75,794.15c.39-.16-.74-4.56-2.41-12.58s-3.73-19.71-6.08-34.28c-4.65-29.3-14.6-68.66-22-112.92-1.83-11.06-3.38-21.89-4.58-32.39q-.42-4-.93-7.86c-.3-2.55-.57-5.1-.81-7.62-.47-5-.8-10-1.07-14.86-1-19.43-1.26-37.1-2.29-51.9a244.87,244.87,0,0,0-4.37-34.8c-1.72-8.09-3.35-12.34-3.67-12.23s.49,4.58,1.53,12.7a347,347,0,0,1,2.57,34.65c.51,14.72.33,32.33,1.09,52,.2,4.91.48,10,.9,15.11.22,2.57.46,5.17.75,7.8s.61,5.2.87,7.83c1.13,10.63,2.66,21.59,4.51,32.74,7.44,44.6,18,83.88,23.6,112.65,2.84,14.45,5.47,26.14,7.86,34s4.18,12.06,4.51,11.93"/>
      <g class="cls-34">
        <g class="cls-35">
          <path class="cls-33" d="M1803,860.05c.39-.15-.74-4.49-2.49-12.35a175.84,175.84,0,0,1-4.38-33.7c-.1-3.59-.07-7.36.09-11.29s.59-8,1-12.28c.76-8.53,1.72-17.64,2.92-27.19a495.38,495.38,0,0,1,11.44-61.46,297.3,297.3,0,0,1,9.69-30.69c3.87-9.81,7.2-19.44,10.46-28.49,6.48-18.13,12.71-34.24,19-47.18s12.65-22.66,17.87-28.55,8.92-8.26,8.69-8.67-4.31,1.37-10.2,7-13,15.27-19.82,28.26-13.58,29.12-20.34,47.22c-3.42,9.06-6.82,18.55-10.72,28.26a283.07,283.07,0,0,0-10,31.35A448.86,448.86,0,0,0,1795,762.68c-1.08,9.66-1.87,18.86-2.44,27.47-.25,4.31-.58,8.43-.64,12.54s0,7.92.28,11.61a145.3,145.3,0,0,0,6.23,34.08c2.42,7.74,4.24,11.8,4.58,11.67"/>
        </g>
      </g>
      <g class="cls-36">
        <g class="cls-37">
          <path class="cls-38" d="M1802.68,832.57c.46.1,2.08-9.08,7.49-23,2.69-6.94,6.34-15,10.79-23.77s9.65-18.26,15-28.31,10.34-19.74,14.25-28.88a157.66,157.66,0,0,0,8.55-25c3.52-14.75,2.8-24.2,2.54-24.15-.5,0-.5,9.31-4.45,23.64a173,173,0,0,1-9,24.43c-4,9-9,18.56-14.33,28.58s-10.55,19.57-14.89,28.48a226,226,0,0,0-10.35,24.28c-5,14.27-6,23.67-5.66,23.69"/>
        </g>
      </g>
    </g>
    <g>
      <path class="cls-31" d="M1596.09,941.71c-22.13-126.55,23.85-177.52,23.85-177.52s-15.64,66.4,11.24,170.35Z"/>
      <path class="cls-31" d="M1545.7,952c-47.54-130.59,27.87-213.07,27.87-213.07s-30.65,91.09-4,208.19Z"/>
      <path class="cls-31" d="M1881.27,883.42c-16.33-71.95-14.39-135.49-14.39-135.49-21.21,17.72-37.17,60.71-35.12,145.61Z"/>
      <path class="cls-31" d="M1810.58,897.87c-24.76-87.19-5.69-142.93-5.69-142.93-17.33,19.42-49.47,58.38-47.17,153.74Z"/>
      <path class="cls-31" d="M1797.44,900.56c-69-89.68-36.89-168.78-36.89-168.78-35.86,46.75-26.46,122.31-8.66,178.09Z"/>
      <path class="cls-31" d="M1591.59,942.63c-14.33-102.8,32.33-151.29,32.33-151.29s-90,31.6-67.64,158.51Z"/>
      <path class="cls-31" d="M1819.64,896c-35.32-58.66,3-113.92,9.9-130.13,0,0,12.49,39.48,15.59,124.92Z"/>
      <path class="cls-31" d="M1687.09,923.11c-14.71-137.72,22.67-170.36,22.67-170.36s-70.58,21.22-60.41,178.07Z"/>
      <path class="cls-31" d="M1867.43,886.25C1836.74,743,1924.62,705,1924.62,705s-71.91,53.19-13.72,172.34Z"/>
      <path class="cls-31" d="M1933,872.84c-25.43-93.16,34.64-132.4,34.64-132.4s-99,47.89-67.48,139.12Z"/>
      <path class="cls-31" d="M1763.45,907.5c-33.14-133.32,15.81-179.58,15.81-179.58s-58.43,42.81-60.74,188.77Z"/>
      <path class="cls-31" d="M1800,900c15-44.32,28.45-111.55,28.45-111.55s-39.29,56.42-64.7,119Z"/>
      <path class="cls-31" d="M1687.34,923.06c-57.41-133.18-14.75-192.2-14.75-192.2s-74.5,62.76-11.83,197.63Z"/>
      <path class="cls-31" d="M1711.18,918.19c-42.71-184.26,48.67-208.93,48.67-208.93s-63.68,24.12-12.43,201.52Z"/>
      <path class="cls-31" d="M1547.6,951.62c-22.64-146.39,47.14-192.73,47.14-192.73s-34,38.31-16.31,186.43Z"/>
      <path class="cls-31" d="M1616.09,937.62c-32.3-151.25,66.61-168.48,66.61-168.48s-68.71,32-34.28,161.87Z"/>
      <path class="cls-31" d="M1686.2,923.29c-26-152.85,56.69-161,56.69-161s-59.55,19.75-24.36,154.39Z"/>
      <path class="cls-31" d="M1569.07,947.23c44.07-198.11,146.69-160.3,146.69-160.3s-98.37,6.07-104.31,151.64Z"/>
      <path class="cls-31" d="M1997.51,889.69c-8.45-28-33.52-28.63-33.52-28.63s-113.89-16.3-127.7,32.48Z"/>
      <path class="cls-31" d="M1392.27,983.36c13-92.29-58.3-150.93-58.3-150.93s59.08,14.1,102.6,141.88Z"/>
      <path class="cls-31" d="M1470.83,967.31c-13.49-86.12-83.76-172.51-83.76-172.51S1410,879.13,1433.2,975Z"/>
      <path class="cls-31" d="M1557.79,949.54c-37-58.89-42.64-142.45-42.64-142.45-26.24,51.52-22,103-5.89,152.37Z"/>
      <path class="cls-31" d="M1476.78,966.09c-56.54-121.32,22.38-188,22.38-188s-40.94,103.43,9.08,181.52Z"/>
      <path class="cls-31" d="M1504.48,733.54c-16.83,16.56-68.6,81.89-25.79,232.16l-36.09,7.38S1387,796.94,1504.48,733.54Z"/>
      <path class="cls-31" d="M1502.93,960.75c10.91-45.91-63.72-110.77-63.72-110.77s61.27,12.39,110.9,101.13Z"/>
    </g>
    <g>
      <path class="cls-30" d="M230.75,770.41c-37.17,33-73.71,66.15-104.54,105C86.15,821.26,160.11,704.31,199,653.16c25.56-33.66,56.27-63.54,91.57-86.61a308.71,308.71,0,0,1,54.88-28.77c9.53-3.78,49.06-8.93,54.92-15.65C364.79,562.9,348.79,610.37,325,656.84,301.43,702.76,269.6,736,230.75,770.41"/>
      <path class="cls-32" d="M394.43,527.17C283.69,576.48,236.84,723.35,169.82,814.46c-12.91,17.55-27.33,33.26-36.54,52.6-19-22.59-6.71-67.2,3.79-96.44a486.7,486.7,0,0,1,57.78-111.81c47-67.78,118-132,199.58-131.64"/>
      <path class="cls-30" d="M183.74,834.6c-22.47,11.74-39.21,29.06-57.11,43.55-9.18-52.66,76.68-112.79,109.07-151.59,45.19-54.13,96-89.27,162.59-93.8,27.64-1.88,54.44-4.54,81.86-7.09-51.28,44.22-106,83-155.78,128.2-45,40.88-88.85,53.66-140.63,80.73"/>
      <path class="cls-30" d="M147.8,819c-12.54,18.25-22.31,30.44-28.23,51C53,774.49,116.35,611.51,205.26,525.14c19.53-19,40.05-36.06,64.21-47.88-2,106.57-56.8,247.29-121.67,341.71"/>
      <path class="cls-32" d="M205.25,525.14c19.51-18.95,38.06-35.9,63.48-44C203.91,577,195.62,687.33,144,788.25c-10.93,21.38-21.87,42.7-31.83,64.31-60.09-86.25,14.9-251.49,93-327.42"/>
      <path class="cls-30" d="M134.75,872a20,20,0,0,0,5.23-2.41c13.19-8.41,26.62-107.92,30.86-125.35,22.06-90.71,33.79-188.59-8.55-265.43-23-41.81-28.78-53-24.6-102.66-19,23-29.87,47.24-34.13,74.78-7.2,46.49.41,93.56-6,140.42C84.74,684.71,45.2,755,95.56,832c8.26,12.6,20.58,45.25,39.19,40"/>
      <path class="cls-32" d="M130.51,841.38c46.53-133.91,14-261-.33-387-2.92-25.77-6.94-55.36,6-81.47-12,26.45-28.6,52.11-32.6,78-6.78,43.8.06,86.07-4.49,129.61-3.94,37.63-21.15,72.3-28.2,109.9-8.91,47.58,13.56,70,35,106.66,8.57,14.66,15.38,30.15,24.63,44.32"/>
      <path class="cls-30" d="M98,845.89c12.63,13.31,26.5,23.65,38.2,21.53,31.93-5.77,11.51-90.61,10.81-117.21C143.74,627,52,502.34-86.84,545.77c51.72,30.62,82.91,84.46,101.47,141.81,13.07,40.39,26,81,49.91,115.24,6.19,8.84,19,27.89,33.42,43.07"/>
      <path class="cls-32" d="M144.31,870.26c12.8-72.35-10.12-128.61-38.74-186.79C78.17,627.74,5.75,554-63,551.47A381.58,381.58,0,0,1,14.63,687.58c15,46.44,39.42,120.84,82.55,159.14,13.72,12.19,29.33,20.71,47.13,23.54"/>
      <path class="cls-33" d="M150.13,863.84c-.39-.08.82-4.68,4.81-12.59s11-19,21.79-31.38,25-26.08,41.54-40.34,35.27-29.18,53.58-46.16c18.6-16.84,36.79-32.68,54.65-45.68,8.92-6.5,17.7-12.32,26.15-17.39s16.6-9.33,23.94-13.16c14.72-7.77,27.29-13.18,36.26-15.77s14-3,14.06-2.63-4.89,1.63-13.43,4.91S393,652.7,378.64,660.89c-7.23,4.08-15.11,8.44-23.24,13.61s-16.65,11-25.3,17.5c-17.34,13-35.16,28.72-53.74,45.53-18.45,17.11-37.53,32-54.1,46s-31,27-41.91,38.88a196,196,0,0,0-23,29.74c-4.63,7.46-6.67,11.83-7.17,11.71"/>
      <path class="cls-33" d="M156.1,817.24c-.48-.11,1.14-4.63,3.46-12.85s5.13-20.15,8-35c1.46-7.42,3-15.57,4.84-24.35s4.12-18.06,6.16-27.88c4.19-19.61,8.35-41.24,13.36-64s10.52-44.37,16.9-63.89a348.62,348.62,0,0,1,20.8-51.09,228.84,228.84,0,0,1,20-32.53c5.46-7.32,9.05-11,9.39-10.81.93.49-11.75,16.35-24.92,44.67a393.51,393.51,0,0,0-19.13,50.66c-6,19.33-11.25,40.8-16.23,63.43s-9.35,44.27-13.89,63.94c-2.22,9.83-4.7,19.23-6.79,27.86l-5.65,24.27c-3.48,14.87-7,26.92-10.21,35.11s-5.62,12.55-6,12.44"/>
      <path class="cls-33" d="M232.05,613.82c.45.16-2.64,6.37-7.18,16.5s-10.41,24.23-16.73,39.89-12.3,29.8-17.21,39.87-8.5,16.11-8.9,16,2.39-6.39,6.66-16.57,9.9-24.32,16.23-40,12.56-29.79,17.74-39.81,9-16,9.39-15.85"/>
      <path class="cls-33" d="M149.84,774.58c-.52,0-.22-4.84-.16-13.52s-.3-21.18-1-36.66c-1.53-31.11.88-74.42-1-121.56-.48-11.78-1.24-23.21-2.36-34.18q-.47-4.14-.78-8.21c-.26-2.67-.56-5.32-.88-7.93-.67-5.22-1.47-10.31-2.32-15.26-3.48-19.8-7.49-37.52-9.85-52.7s-3.36-27.73-3.2-36.49,1-13.66,1.44-13.69.53,4.77,1.25,13.29a296.76,296.76,0,0,0,5.32,35.61c3,14.89,7.45,32.39,11.31,52.31.95,5,1.84,10.13,2.59,15.44.36,2.65.7,5.35,1,8.08s.53,5.44.86,8.17c1.22,11.07,2,22.62,2.53,34.49,1.89,47.51-1.29,91-1,122,.09,15.57-.23,28.3-1.18,37.13s-2.09,13.73-2.52,13.73"/>
      <g class="cls-34">
        <g class="cls-39">
          <path class="cls-33" d="M152.29,844.9c-.51,0-.21-4.77,0-13.33a155.3,155.3,0,0,0-2.91-35.39q-1.14-5.45-2.85-11.23c-1.13-3.78-2.66-7.75-4.12-11.86-3-8.21-6.35-16.9-10.12-25.94-7.57-18-16.77-37.54-28.67-56.66a240.11,240.11,0,0,0-19.09-26.68c-7-8.22-13.36-16.47-19.48-24.17-12.19-15.47-23.59-29-34.31-39.35S10,582.82,2.32,579.06s-12.73-4.61-12.55-5.12c.07-.35,5.52-.38,14,2.89S23.07,586.78,34.41,597s23.39,23.54,35.91,38.85c6.3,7.64,12.69,15.74,19.74,23.83a232.26,232.26,0,0,1,19.65,27.21c12.11,19.47,21.24,39.3,28.56,57.66,3.64,9.2,6.82,18.05,9.59,26.41,1.36,4.2,2.75,8.18,3.82,12.26s1.86,7.92,2.49,11.69A131.76,131.76,0,0,1,155,831.4c-1,8.7-2.23,13.5-2.66,13.5"/>
        </g>
      </g>
      <g class="cls-36">
        <g class="cls-40">
          <path class="cls-38" d="M146,817.35c-.52.28-4.7-8.22-14.57-19.86a225.79,225.79,0,0,0-18.74-19.34c-7.45-7-16-14.29-24.93-22.13a320.35,320.35,0,0,1-24.13-23,128.86,128.86,0,0,1-16.35-21.5c-7.82-13.28-9.25-23-8.91-23,.59-.24,2.85,9.07,11.07,21.77a143.54,143.54,0,0,0,16.71,20.73c7,7.32,15.28,14.87,24.17,22.69s17.42,15.24,24.8,22.37a188.91,188.91,0,0,1,18.33,20c9.49,12.19,12.91,21.19,12.55,21.33"/>
        </g>
      </g>
    </g>
    <g>
      <path class="cls-31" d="M324.67,975.82c20.55-196.91,96.72-254.29,96.72-254.29S376.91,814,370.79,979.18Z"/>
      <path class="cls-31" d="M258.45,971c-9.34-213,115.15-305.5,115.15-305.5S301.2,788.6,289.83,973.28Z"/>
      <path class="cls-31" d="M699.44,1003.13C706.5,889.67,733,796,733,796c-33,17.87-69,75.38-98.59,202.38Z"/>
      <path class="cls-31" d="M606.54,996.36c2.4-139.47,47.09-214.68,47.09-214.68-28.79,21.93-83.29,67-116.55,209.62Z"/>
      <path class="cls-31" d="M589.28,995.1c-51.43-160.85,18.28-265.55,18.28-265.55-62,55.13-79,171.19-78.14,261.19Z"/>
      <path class="cls-31" d="M836.87,1013.14c-13.41-89.74,26.59-151.51,26.59-151.51-49.1,11.51-88.25,60.21-86.84,147.12Z"/>
      <path class="cls-31" d="M318.76,975.39C340,816.89,416,763.47,416,763.47S292.8,774.49,272.35,972Z"/>
      <path class="cls-31" d="M618.46,997.23C597,895.94,665.33,829.13,680,807.79c0,0,.49,63.66-28,191.88Z"/>
      <path class="cls-31" d="M809.65,1011.16c37.74-145.49,97.89-141.4,97.89-141.4S801.86,869.37,766.26,1008Z"/>
      <path class="cls-31" d="M444.26,984.53c34-210.54,92.55-244.12,92.55-244.12s-95.32,3.34-142.15,240.51Z"/>
      <path class="cls-31" d="M681.26,1001.8c16.27-225.11,139.35-246.47,139.35-246.47S711.52,805.66,738.38,1006Z"/>
      <path class="cls-31" d="M767.47,1008.09c3.83-148.62,93-182.93,93-182.93s-140.61,31.61-136.13,179.78Z"/>
      <path class="cls-31" d="M544.61,991.85c9.49-211.37,87.55-260.57,87.55-260.57s-88.47,40.27-146.6,256.26Z"/>
      <path class="cls-31" d="M592.6,995.34C627.87,935.46,670,840.93,670,840.93s-70,68.14-125.07,150.94Z"/>
      <path class="cls-31" d="M444.59,984.56C424,763.71,499.13,693,499.13,693s-115.9,63.5-89.47,289Z"/>
      <path class="cls-31" d="M475.92,986.84c16.95-290.89,139.31-291,139.31-291s-87.9,10.4-91.69,294.51Z"/>
      <path class="cls-31" d="M261,971.17c27.44-226.58,131.29-267.58,131.29-267.58s-56.61,43.33-90.78,270.54Z"/>
      <path class="cls-31" d="M351,977.73C368.28,740.05,497.14,754,497.14,754s-97.1,20.1-103.7,226.87Z"/>
      <path class="cls-31" d="M443.09,984.45c25.66-237.56,131.08-216.62,131.08-216.62S493,773.39,485.58,987.54Z"/>
      <path class="cls-31" d="M289.16,973.23C418.68,696.42,531.29,793.61,531.29,793.61s-124-30.27-186.43,183.68Z"/>
      <path class="cls-31" d="M56.82,956.3c51-132-15-247.59-15-247.59S109.6,753.26,115,960.54Z"/>
      <path class="cls-31" d="M160.06,963.82C176,830.45,121.8,674,121.8,674s-3.65,134.46-11.18,286.22Z"/>
      <path class="cls-31" d="M274.35,972.15c-23.45-102.29,1.19-228.73,1.19-228.73-52,66.09-66.21,144.29-65,224.08Z"/>
      <path class="cls-31" d="M167.88,964.39C143.89,761.51,266.74,694,266.74,694s-89.81,137.35-57.52,273.39Z"/>
      <path class="cls-31" d="M290.21,629.86c-27.1,17.88-115.86,94.29-119.82,334.72L123,961.12S120.84,677.14,290.21,629.86Z"/>
      <path class="cls-31" d="M202.24,966.9c30.88-63.88-36.86-190.07-36.86-190.07s71.09,42.88,98.86,194.58Z"/>
    </g>
  </g>
</svg>
