<svg id="Layer_1" data-name="Layer 1" xmlns="http://www.w3.org/2000/svg" xmlns:xlink="http://www.w3.org/1999/xlink" width="1600" height="900" viewBox="0 0 1600 900">
  <defs>
    <style>
      .cls-1 {
        fill: none;
      }

      .cls-2 {
        fill: #ce7c3e;
      }

      .cls-3 {
        clip-path: url(#clip-path);
      }

      .cls-4 {
        clip-path: url(#clip-path-2);
      }

      .cls-5 {
        fill: #1c8e16;
      }

      .cls-6 {
        fill: #5e2106;
      }

      .cls-7 {
        fill: #e68851;
      }

      .cls-8 {
        fill: #843812;
      }

      .cls-9 {
        fill: #301102;
      }

      .cls-10 {
        clip-path: url(#clip-path-3);
      }

      .cls-11 {
        fill: #a06137;
      }

      .cls-12 {
        clip-path: url(#clip-path-4);
      }

      .cls-13 {
        clip-path: url(#clip-path-5);
      }

      .cls-14 {
        fill: url(#linear-gradient);
      }

      .cls-15 {
        fill: #207d78;
        opacity: 0.36;
      }

      .cls-16 {
        fill: url(#linear-gradient-2);
      }

      .cls-17 {
        fill: url(#linear-gradient-3);
      }

      .cls-18 {
        fill: #77491e;
        stroke: #382110;
        stroke-miterlimit: 10;
        stroke-width: 0.75px;
      }

      .cls-19 {
        fill: #825024;
      }

      .cls-20 {
        fill: #2a5026;
      }

      .cls-21 {
        fill: #2e6633;
      }

      .cls-22 {
        clip-path: url(#clip-path-6);
      }

      .cls-23 {
        fill: url(#linear-gradient-4);
      }

      .cls-24 {
        fill: url(#linear-gradient-5);
      }

      .cls-25 {
        fill: url(#linear-gradient-6);
      }

      .cls-26 {
        fill: url(#linear-gradient-7);
      }

      .cls-27 {
        fill: url(#linear-gradient-8);
      }

      .cls-28 {
        fill: #73d35f;
      }

      .cls-29 {
        fill: #a5eb98;
        opacity: 0.49;
      }

      .cls-30 {
        opacity: 0.53;
        fill: url(#linear-gradient-9);
      }

      .cls-31 {
        fill: url(#linear-gradient-10);
      }

      .cls-32 {
        fill: url(#linear-gradient-11);
      }

      .cls-33 {
        fill: #3eaf77;
      }

      .cls-34 {
        fill: url(#linear-gradient-12);
      }

      .cls-35 {
        fill: url(#linear-gradient-13);
      }

      .cls-36 {
        fill: url(#linear-gradient-14);
      }

      .cls-37 {
        fill: url(#linear-gradient-15);
      }

      .cls-38 {
        fill: url(#linear-gradient-16);
      }

      .cls-39 {
        fill: url(#linear-gradient-17);
      }

      .cls-40 {
        fill: url(#linear-gradient-18);
      }

      .cls-41 {
        fill: url(#linear-gradient-19);
      }

      .cls-42 {
        fill: #68bc45;
      }

      .cls-43 {
        fill: url(#linear-gradient-20);
      }

      .cls-44 {
        fill: #71c14c;
      }

      .cls-45 {
        fill: url(#linear-gradient-21);
      }

      .cls-46 {
        fill: url(#linear-gradient-22);
      }

      .cls-47 {
        fill: url(#linear-gradient-23);
      }

      .cls-48 {
        fill: url(#linear-gradient-24);
      }

      .cls-49 {
        fill: url(#linear-gradient-25);
      }

      .cls-50 {
        fill: #09a53f;
      }

      .cls-51 {
        fill: #7be57f;
      }

      .cls-52 {
        fill: #3dbf47;
      }

      .cls-53 {
        fill: #cc9860;
      }

      .cls-54 {
        fill: #3a3937;
      }

      .cls-55, .cls-80 {
        fill: #565551;
      }

      .cls-56 {
        fill: #141412;
      }

      .cls-57, .cls-87 {
        fill: #11100c;
      }

      .cls-58 {
        fill: #0a0a0a;
      }

      .cls-59 {
        fill: #111110;
      }

      .cls-60 {
        fill: #2d2d2d;
      }

      .cls-61 {
        fill: #44433e;
      }

      .cls-62 {
        fill: #7c7c7b;
      }

      .cls-63 {
        fill: #9c9f9a;
      }

      .cls-64 {
        fill: #abafa9;
      }

      .cls-65 {
        fill: #5b5b5a;
      }

      .cls-66 {
        fill: #4f4f4e;
      }

      .cls-67 {
        fill: #594a4c;
      }

      .cls-68 {
        fill: #727272;
      }

      .cls-69 {
        fill: #838482;
      }

      .cls-70 {
        fill: #474746;
      }

      .cls-71 {
        fill: #929292;
      }

      .cls-72 {
        fill: #989a98;
      }

      .cls-73 {
        fill: #878986;
      }

      .cls-74 {
        fill: #6d6d6d;
      }

      .cls-75 {
        fill: #3f3f3f;
      }

      .cls-76 {
        fill: #b5b5b4;
      }

      .cls-77 {
        fill: #8f918f;
      }

      .cls-78 {
        fill: #191919;
      }

      .cls-79 {
        fill: #232323;
      }

      .cls-80 {
        opacity: 0.31;
      }

      .cls-81 {
        fill: #262626;
      }

      .cls-82 {
        fill: #454441;
      }

      .cls-83 {
        fill: #d1d0bd;
      }

      .cls-84 {
        fill: #888988;
      }

      .cls-85 {
        fill: #a7aaa5;
      }

      .cls-86 {
        fill: #b58454;
      }

      .cls-87 {
        opacity: 0.57;
      }

      .cls-88 {
        fill: #c8bcb0;
      }

      .cls-89 {
        fill: #7789af;
        opacity: 0.3;
      }
    </style>
    <clipPath id="clip-path">
      <rect class="cls-1" x="-1050" width="800" height="900"/>
    </clipPath>
    <clipPath id="clip-path-2">
      <rect class="cls-1" x="-1688.12" width="1600" height="900"/>
    </clipPath>
    <clipPath id="clip-path-3">
      <path class="cls-2" d="M-309.3,412.15l-232.61,1.91Q-565,540.9-588,667.73l242.59-18.51Q-327.38,530.69-309.3,412.15Z"/>
    </clipPath>
    <clipPath id="clip-path-4">
      <rect class="cls-1" x="1850" width="800" height="900"/>
    </clipPath>
    <clipPath id="clip-path-5">
      <rect class="cls-1" x="1510" y="3" width="1600.17" height="900"/>
    </clipPath>
    <linearGradient id="linear-gradient" x1="-546.13" y1="-1975.26" x2="-545.66" y2="-1975.22" gradientTransform="matrix(334.04, -1651.37, -1651.37, -334.04, -3077177.29, -1560789.45)" gradientUnits="userSpaceOnUse">
      <stop offset="0.2" stop-color="#f0f6fb"/>
      <stop offset="0.46" stop-color="#cde3f5"/>
      <stop offset="0.7" stop-color="#b3d5f0"/>
    </linearGradient>
    <linearGradient id="linear-gradient-2" x1="2133.2" y1="411.31" x2="2614.34" y2="1244.67" gradientUnits="userSpaceOnUse">
      <stop offset="0.01" stop-color="#26476f"/>
      <stop offset="0.02" stop-color="#2b4e71"/>
      <stop offset="0.1" stop-color="#426e79"/>
      <stop offset="0.18" stop-color="#54867f"/>
      <stop offset="0.26" stop-color="#609784"/>
      <stop offset="0.35" stop-color="#68a286"/>
      <stop offset="0.46" stop-color="#6aa587"/>
      <stop offset="1" stop-color="#427c83"/>
    </linearGradient>
    <linearGradient id="linear-gradient-3" x1="2068.94" y1="386.65" x2="2650.96" y2="1394.74" gradientUnits="userSpaceOnUse">
      <stop offset="0.02" stop-color="#6aa587"/>
      <stop offset="0.59" stop-color="#4c7d7d"/>
      <stop offset="0.7" stop-color="#49797c"/>
      <stop offset="0.82" stop-color="#406c79"/>
      <stop offset="0.93" stop-color="#315673"/>
      <stop offset="1" stop-color="#26476f"/>
    </linearGradient>
    <clipPath id="clip-path-6">
      <rect class="cls-1" width="1600" height="900"/>
    </clipPath>
    <linearGradient id="linear-gradient-4" x1="653.72" y1="951.39" x2="866.08" y2="-98.41" gradientUnits="userSpaceOnUse">
      <stop offset="0.2" stop-color="#d9fafc"/>
      <stop offset="0.74" stop-color="#b0e9f9"/>
      <stop offset="0.82" stop-color="#aae6f9"/>
    </linearGradient>
    <linearGradient id="linear-gradient-5" x1="1095.32" y1="229.27" x2="1151.93" y2="172.63" gradientUnits="userSpaceOnUse">
      <stop offset="0.15" stop-color="#82cdd9"/>
      <stop offset="0.82" stop-color="#d7eef4"/>
    </linearGradient>
    <linearGradient id="linear-gradient-6" x1="702.51" y1="168.92" x2="769.92" y2="101.46" xlink:href="#linear-gradient-5"/>
    <linearGradient id="linear-gradient-7" x1="751.86" y1="1026.3" x2="803.7" y2="974.42" gradientTransform="matrix(0.97, -0.09, 0.07, 0.77, 200.01, -540.05)" gradientUnits="userSpaceOnUse">
      <stop offset="0.4" stop-color="#adcff1"/>
      <stop offset="0.51" stop-color="#b9d9f5"/>
      <stop offset="0.8" stop-color="#d2f0fc"/>
      <stop offset="0.98" stop-color="#dbf8ff"/>
    </linearGradient>
    <linearGradient id="linear-gradient-8" x1="1357.3" y1="311.51" x2="1446.54" y2="222.21" gradientUnits="userSpaceOnUse">
      <stop offset="0.15" stop-color="#82cdd9"/>
      <stop offset="0.9" stop-color="#d7eef4"/>
    </linearGradient>
    <linearGradient id="linear-gradient-9" x1="846.26" y1="706.25" x2="1453.03" y2="73.41" gradientUnits="userSpaceOnUse">
      <stop offset="0.03" stop-color="#77c4f9"/>
      <stop offset="0.33" stop-color="#8acbf7"/>
      <stop offset="0.87" stop-color="#b4daf3"/>
    </linearGradient>
    <linearGradient id="linear-gradient-10" x1="754.32" y1="577.35" x2="1160.2" y2="154.02" gradientUnits="userSpaceOnUse">
      <stop offset="0.01" stop-color="#987ce4"/>
      <stop offset="0.23" stop-color="#919fdf"/>
      <stop offset="0.45" stop-color="#8bbcdb"/>
      <stop offset="0.64" stop-color="#87cdd9"/>
      <stop offset="0.78" stop-color="#86d3d8"/>
    </linearGradient>
    <linearGradient id="linear-gradient-11" x1="-48.2" y1="700.09" x2="764.87" y2="25" gradientUnits="userSpaceOnUse">
      <stop offset="0.17" stop-color="#25ae74"/>
      <stop offset="0.19" stop-color="#31b581"/>
      <stop offset="0.25" stop-color="#49c39c"/>
      <stop offset="0.31" stop-color="#5ccfb2"/>
      <stop offset="0.38" stop-color="#6cd8c3"/>
      <stop offset="0.47" stop-color="#76decf"/>
      <stop offset="0.6" stop-color="#7ce2d6"/>
      <stop offset="0.94" stop-color="#7ee3d8"/>
    </linearGradient>
    <linearGradient id="linear-gradient-12" x1="358.75" y1="541.5" x2="715.35" y2="431.15" gradientUnits="userSpaceOnUse">
      <stop offset="0.03" stop-color="#219f68"/>
      <stop offset="0.84" stop-color="#3fe28c"/>
      <stop offset="0.94" stop-color="#43ea90"/>
    </linearGradient>
    <linearGradient id="linear-gradient-13" x1="725.59" y1="507.85" x2="1592.01" y2="437.66" gradientUnits="userSpaceOnUse">
      <stop offset="0.01" stop-color="#987ce4"/>
      <stop offset="0.17" stop-color="#919fdf"/>
      <stop offset="0.32" stop-color="#8bbcdb"/>
      <stop offset="0.46" stop-color="#87cdd9"/>
      <stop offset="0.56" stop-color="#86d3d8"/>
    </linearGradient>
    <linearGradient id="linear-gradient-14" x1="-40.6" y1="536.09" x2="360.14" y2="412.08" xlink:href="#linear-gradient-12"/>
    <linearGradient id="linear-gradient-15" x1="139.49" y1="585.03" x2="261.3" y2="370.84" gradientUnits="userSpaceOnUse">
      <stop offset="0" stop-color="#21607b"/>
      <stop offset="0.23" stop-color="#238c77"/>
      <stop offset="0.45" stop-color="#25af74"/>
      <stop offset="0.62" stop-color="#27c472"/>
      <stop offset="0.74" stop-color="#27cc71"/>
    </linearGradient>
    <linearGradient id="linear-gradient-16" x1="714.54" y1="660.81" x2="1012.05" y2="361.48" gradientUnits="userSpaceOnUse">
      <stop offset="0.03" stop-color="#2eb691"/>
      <stop offset="0.85" stop-color="#42d984"/>
    </linearGradient>
    <linearGradient id="linear-gradient-17" x1="529.52" y1="641.88" x2="571.67" y2="405.82" gradientUnits="userSpaceOnUse">
      <stop offset="0.55" stop-color="#5fc687"/>
      <stop offset="0.62" stop-color="#67ca89"/>
      <stop offset="0.73" stop-color="#7dd68d"/>
      <stop offset="0.85" stop-color="#9ee793"/>
    </linearGradient>
    <linearGradient id="linear-gradient-18" x1="-110.99" y1="606.99" x2="36.02" y2="1.71" gradientUnits="userSpaceOnUse">
      <stop offset="0" stop-color="#a3513f"/>
      <stop offset="0.08" stop-color="#9f513f"/>
      <stop offset="0.18" stop-color="#915040"/>
      <stop offset="0.27" stop-color="#7b4f40"/>
      <stop offset="0.37" stop-color="#5d4e41"/>
      <stop offset="0.47" stop-color="#364c43"/>
      <stop offset="0.49" stop-color="#2d4c43"/>
    </linearGradient>
    <linearGradient id="linear-gradient-19" x1="151.91" y1="122.3" x2="327.08" y2="-59.57" gradientUnits="userSpaceOnUse">
      <stop offset="0" stop-color="#0d5f3f"/>
      <stop offset="0.16" stop-color="#07724a"/>
      <stop offset="0.28" stop-color="#018455"/>
      <stop offset="0.41" stop-color="#24995c"/>
      <stop offset="0.56" stop-color="#43ac62"/>
      <stop offset="0.68" stop-color="#56b766"/>
      <stop offset="0.76" stop-color="#5dbb67"/>
    </linearGradient>
    <linearGradient id="linear-gradient-20" x1="-164.78" y1="233.19" x2="158.92" y2="-277.77" gradientUnits="userSpaceOnUse">
      <stop offset="0" stop-color="#0d5f3f"/>
      <stop offset="0.26" stop-color="#157d66"/>
      <stop offset="0.41" stop-color="#198a77"/>
      <stop offset="0.89" stop-color="#66b232"/>
    </linearGradient>
    <linearGradient id="linear-gradient-21" x1="3959.57" y1="125.13" x2="3829.54" y2="-138.45" gradientTransform="matrix(-1, 0, 0, 1, 4182.86, 0)" gradientUnits="userSpaceOnUse">
      <stop offset="0" stop-color="#0d5f3f"/>
      <stop offset="0.12" stop-color="#07724a"/>
      <stop offset="0.22" stop-color="#018455"/>
      <stop offset="0.34" stop-color="#24995c"/>
      <stop offset="0.48" stop-color="#43ac62"/>
      <stop offset="0.59" stop-color="#56b766"/>
      <stop offset="0.67" stop-color="#5dbb67"/>
    </linearGradient>
    <linearGradient id="linear-gradient-22" x1="3.19" y1="243.29" x2="127.85" y2="-160.53" gradientUnits="userSpaceOnUse">
      <stop offset="0.06" stop-color="#0d453f"/>
      <stop offset="0.22" stop-color="#095846"/>
      <stop offset="0.52" stop-color="#018455"/>
      <stop offset="0.64" stop-color="#31a05e"/>
      <stop offset="0.76" stop-color="#5dbb67"/>
    </linearGradient>
    <linearGradient id="linear-gradient-23" x1="406.92" y1="636.64" x2="624.82" y2="336.37" gradientUnits="userSpaceOnUse">
      <stop offset="0.02" stop-color="#10a159"/>
      <stop offset="0.23" stop-color="#12a45a"/>
      <stop offset="0.35" stop-color="#17ac5e"/>
      <stop offset="0.46" stop-color="#20bb64"/>
      <stop offset="0.55" stop-color="#2ccf6d"/>
      <stop offset="0.59" stop-color="#33da71"/>
    </linearGradient>
    <linearGradient id="linear-gradient-24" x1="463.15" y1="710.71" x2="642.95" y2="394.54" xlink:href="#linear-gradient-15"/>
    <linearGradient id="linear-gradient-25" x1="48.96" y1="729.09" x2="351.08" y2="483.19" gradientUnits="userSpaceOnUse">
      <stop offset="0.15" stop-color="#108937"/>
      <stop offset="0.33" stop-color="#1c9c45"/>
      <stop offset="0.69" stop-color="#3bcc67"/>
      <stop offset="0.73" stop-color="#3fd26c"/>
    </linearGradient>
  </defs>
  <g id="SC_25">
    <g class="cls-3">
      <g class="cls-4">
        <g>
          <path class="cls-5" d="M31.91,509.21s-19.71,4.22-9.52,20.66c-55.06-18.13-87-1.69-84.28,20.23-56.42-3.8-72.06,35.4-50.3,44.25,0,0-46.91-17.28-90.41,6.74C-246.1,580-349.42,610.37-375.93,626l402.55.84Z"/>
          <g>
            <polygon class="cls-6" points="-319.63 571.61 23.24 586.34 22.19 596.45 -319.63 584.03 -319.63 571.61"/>
            <path class="cls-7" d="M10.24,550s7.57-9.16,19.62-1.42c0,0,5.14,64.48,4.65,97.59l-19.65,3.29S8.67,565.39,10.24,550Z"/>
            <path class="cls-8" d="M12.17,547.2s11.27-4.1,17.58,1.92c0,0,4.54,90.87,4.12,98l3-2.48s-.53-49-1.65-65.16c-.93-13.37-3.45-33.57-3.45-33.57S21.69,537.57,12.17,547.2Z"/>
            <ellipse class="cls-9" cx="20.03" cy="582.77" rx="4.16" ry="3.2" transform="translate(-562.81 600.7) rotate(-89.79)"/>
          </g>
          <g>
            <path class="cls-2" d="M-309.3,412.15l-232.61,1.91Q-565,540.9-588,667.73l242.59-18.51Q-327.38,530.69-309.3,412.15Z"/>
            <g class="cls-10">
              <g>
                <polygon class="cls-11" points="113.18 -0.63 113.11 2.59 -707.3 -70.87 -707.48 -74.74 113.18 -0.63"/>
                <polygon class="cls-11" points="112.49 33.85 112.43 37.05 -705.34 -29.38 -705.52 -33.23 112.49 33.85"/>
                <polygon class="cls-11" points="111.81 68.14 111.75 71.32 -703.39 11.82 -703.57 8 111.81 68.14"/>
                <polygon class="cls-11" points="111.13 102.23 111.07 105.39 -701.45 52.74 -701.63 48.95 111.13 102.23"/>
                <polygon class="cls-11" points="110.45 136.13 110.39 139.28 -699.53 93.39 -699.71 89.63 110.45 136.13"/>
                <polygon class="cls-11" points="109.78 169.84 109.72 172.97 -697.62 133.77 -697.79 130.03 109.78 169.84"/>
                <polygon class="cls-11" points="109.12 203.36 109.05 206.47 -695.72 173.88 -695.9 170.16 109.12 203.36"/>
                <polygon class="cls-11" points="108.45 236.7 108.39 239.79 -693.84 213.72 -694.01 210.03 108.45 236.7"/>
                <polygon class="cls-11" points="107.79 269.85 107.73 272.92 -691.97 253.3 -692.13 249.63 107.79 269.85"/>
                <polygon class="cls-11" points="107.13 302.81 107.07 305.87 -690.11 292.62 -690.27 288.97 107.13 302.81"/>
                <polygon class="cls-11" points="106.48 335.59 106.42 338.63 -688.26 331.67 -688.42 328.05 106.48 335.59"/>
                <polygon class="cls-11" points="105.83 368.19 105.77 371.22 -686.42 370.47 -686.59 366.88 105.83 368.19"/>
                <polygon class="cls-11" points="105.19 400.62 105.13 403.62 -684.6 409.02 -684.76 405.44 105.19 400.62"/>
                <polygon class="cls-11" points="104.54 432.86 104.48 435.85 -682.78 447.31 -682.95 443.76 104.54 432.86"/>
                <polygon class="cls-11" points="103.91 464.93 103.84 467.9 -680.99 485.36 -681.15 481.83 103.91 464.93"/>
                <polygon class="cls-11" points="103.27 496.82 103.21 499.78 -679.2 523.16 -679.36 519.66 103.27 496.82"/>
                <polygon class="cls-11" points="102.64 528.54 102.58 531.48 -677.42 560.72 -677.58 557.23 102.64 528.54"/>
                <polygon class="cls-11" points="102.01 560.09 101.95 563.01 -675.65 598.03 -675.82 594.57 102.01 560.09"/>
                <polygon class="cls-11" points="101.38 591.46 101.33 594.37 -673.9 635.11 -674.06 631.67 101.38 591.46"/>
              </g>
            </g>
          </g>
        </g>
      </g>
    </g>
  </g>
  <g id="SC_05">
    <g class="cls-12">
      <g class="cls-13">
        <path class="cls-14" d="M3154.49,798.41c.16-82.71,1.25-165.42,1.79-248.13.54-82.12-.63-164.27.89-246.38.74-40.07,2.28-80.14,5.37-120.1,3.91-50.64,10.92-100.89,19.26-151L3188-4,1510,3l0,925.19,1645.38-15.26C3155.94,874.78,3154.42,836.55,3154.49,798.41Z"/>
        <g>
          <path class="cls-15" d="M3156.28,550.28c.32-47.8,0-95.62.07-143.43-68.14-7.34-124.42-12.12-136.72-9.48-37.49,8-156.73,40.85-166.4,43.4-6.83,1.81-94.75-15.5-145.8-25.82a164.21,164.21,0,0,0-72.34,1.61L2152.8,536l-64.56-21.68a92.73,92.73,0,0,0-49.34-2.87L1924.48,536c-40.42-31-134.14-52.71-174.47-60.94-12.15-2.48-24.55-.28-35.81,6.21-306.13,176.45-511.43,105-511.43,105V772.7l1952-28.65C3155.11,679.46,3155.86,614.87,3156.28,550.28Z"/>
          <path class="cls-16" d="M3154.49,798.41c.1-51.22.56-102.44,1-153.67-271.34-98.18-603.15-78.41-945.08,26.41-404.61,124-716.34,109.15-716.34,109.15l4.72,69.46H3155C3154.75,832.64,3154.46,815.52,3154.49,798.41Z"/>
          <path class="cls-17" d="M3154.49,798.41q.09-45.51.48-91c-365.84-3.12-360,97.59-898.8,117.81-654,38.77-775.88-98.68-775.88-98.68V927.4H3155.13C3156.36,884.44,3154.41,841.38,3154.49,798.41Z"/>
        </g>
        <g>
          <g>
            <path class="cls-18" d="M2896.49,424.54c-7.43-6.49-14.88-13-22.27-19.52-70.6,34.64-120.83,56.56-93,33.91,17.34-14.14,33.59-42.7,48.22-77.66-11.83-13.26-22.84-27.14-33.84-41.64A161.21,161.21,0,0,1,2781.49,298c-1.35-2.56-2.7-5.14-4-7.75C2712.83,428,2598,585.71,2405.8,611.66c-265.64,35.87-771,63.13-954.82,125.48.76,9.45,1.17,18.93,1.34,28.41.89,49.61-4.86,99.27-1.62,148.86q.43,6.65.77,13.31c3.85-.66,7.7-1.31,11.57-1.91,17.67-2.74,35.71-6.25,53.69-6.51,7-.1,14-.48,20.92-.81,20-1,40.17-1.87,60.12.09,8.31.81,16.64,1.71,24.93,2.86a195.39,195.39,0,0,1,12.66-16.88c61.18-70.17,819.87-172.07,882.49-199.75S2707.12,536.9,2760,518.29c19.7-6.93,81.59-40.82,151.5-80.63C2906.53,433.23,2901.48,428.89,2896.49,424.54Z"/>
            <path class="cls-19" d="M1517.61,919.28l4.36-.1c10.12-13.12,20.48-26.08,30.83-39q-14.64,19-27.89,38.9c4.25-.17,8.5-.38,12.74-.58l9.35-.43c13.24-21.82,28.61-34,54.58-56-7.95,12.45-14,26.25-19.84,40.21,10.83-19.44,15.66-30.31,20.71-40.94,13.32-11.31,29.4-25.21,49.36-44.27a406.17,406.17,0,0,0-71,41.47C1557,873,1535.91,894.2,1517.61,919.28ZM1623,837.12a104.85,104.85,0,0,0-19.49,22c2.2-4.59,4.52-9.25,7.47-14.64h0Z"/>
            <path class="cls-19" d="M1450.7,914.41c0,.06,0,.13,0,.2,18.17-18.77,38.26-37.45,51-49.47,42-39.57,42.94-67.24,101.39-78.57l-72.26,4.92a390.61,390.61,0,0,0-81,73.8C1449.55,881.67,1449.63,898,1450.7,914.41Z"/>
            <path class="cls-19" d="M1451.52,816.46c26.7-20.91,61.26-36.54,86.73-50.49,42.77-23.43,97.11-29.66,97.11-29.66-86.3-8.63-143.11,11.47-183,42.63C1452.35,791.44,1452,804,1451.52,816.46Z"/>
          </g>
          <path class="cls-19" d="M2781.49,298q-1.83-3.45-3.61-7c-34.26,64.79-74.55,140.46-88.46,164.47-25.87,44.61-143,194.24-352.34,216.41s-415.21,11.65-559.77,21.92-303.68,53.29-142,81.27c0,0,299.38-43.41,573.26-56.67s386.57-95.44,406.9-136.56,127.57-126.57,148.77-197.45c6.42-21.49,15.2-48,24.31-74.56C2786.05,306,2783.66,302.05,2781.49,298Z"/>
        </g>
        <path class="cls-20" d="M1676.39,700.29s-82.57.3-76.22,45c0,0,12.47,14.92,46.45-11.34,0,0-22.27,55.91,36.29-2.19,0,0-4,37,35.06,21.69,0,0,43.68,22.39,21.43-20.17,0,0,37,14.54,27.68-13,0,0,35-16-10.77-28.08S1676.39,700.29,1676.39,700.29Z"/>
        <g>
          <path class="cls-20" d="M1638.59,694.69s-77,30-92.16-22.53c0,0,4.56-21.38,48.58-4.33,0,0-47.12-54.72,34.81-10.89,0,0-21.15-40.16,22.38-37.3,0,0,30.07-41.27,29.46,14.8,0,0,27.53-30,31.88,4.39,0,0,40.11,5.15,3.24,35.55S1638.59,694.69,1638.59,694.69Z"/>
          <path class="cls-21" d="M1642.12,694.78s-60.36,23.56-72.27-17.68c0,0,3.58-16.76,38.1-3.39,0,0-37-42.91,27.3-8.54,0,0-16.59-31.49,17.54-29.25,0,0,23.59-32.36,23.11,11.6,0,0,21.59-23.48,25,3.45,0,0,31.45,4,2.53,27.88S1642.12,694.78,1642.12,694.78Z"/>
        </g>
      </g>
    </g>
  </g>
  <g id="SC_37">
    <g class="cls-22">
      <g>
        <g>
          <rect class="cls-23" x="-5" width="1607" height="471.32"/>
          <g>
            <path class="cls-24" d="M1094,197s1.16-7.74,15.8-13,27-8.15,39.7-2,10,20,7.33,21.6c-5.24,3.17-16.52,7.33-46.64,3.26C1092,204.38,1094,197,1094,197Z"/>
            <path class="cls-25" d="M700.88,130.54s1.37-9.23,18.81-15.54,32.13-9.7,47.28-2.42,11.93,23.78,8.72,25.72c-6.24,3.77-19.67,8.72-55.54,3.88C698.58,139.27,700.88,130.54,700.88,130.54Z"/>
            <path class="cls-26" d="M998.09,156.18s2.28-6.6,18.31-10.47,26.47-5.77,35.41.59,4.48,17-1.82,18.34-32.56,2.41-48.39-1.87C1001.6,162.77,996,160.8,998.09,156.18Z"/>
            <path class="cls-27" d="M1354.08,260.41s1.87-11,25.58-18.44,43.68-11.52,64.27-2.88,16.23,28.24,11.86,30.54c-8.48,4.48-26.75,10.36-75.5,4.61C1351,270.78,1354.08,260.41,1354.08,260.41Z"/>
          </g>
        </g>
        <path class="cls-28" d="M-3,483s637.34-16.26,1067.34.76c306.38,12.13,537.08-10,537.08-10L1600,687l-1,168H-3Z"/>
        <path class="cls-29" d="M572.15,490.76s191,48.89,620,47.4S1601,540,1601,540l-1-38-464.57-7.68-102.64-.65Z"/>
        <g>
          <path class="cls-30" d="M645.72,333.52s359.49,79.37,546.39-5.37C1370.49,247.26,1228,484.24,1604,412l-4,90-954.28-9.95Z"/>
          <path class="cls-31" d="M625.08,377.65S750.6,426.07,857,206.32c0,0,42.92-81.19,108.17-77.33,52.4,3.09,157.31,74.77,190.12,292,0,0,4.74,46.29.53,72.14L620,488.19Z"/>
          <path class="cls-32" d="M450-13.3l10-1.82c33.59-3.22,60.3,12.08,67.3,18.27C555.31,27.84,635,114.05,672.23,263c27.38,109.64,28.13,220,28.13,220H-273.93S58.68,429.1,150.76,300C237.08,178.91,352.13,31.74,429.05-5.47A96.65,96.65,0,0,1,450-13.3Z"/>
        </g>
        <path class="cls-33" d="M60.67,391.73s.64-43.11,30.19-48.68S139.05,359,139.05,359s7.07-21.49,28.27-24.27,37.86,20.17,37.86,20.17,43.73-11.83,46.94,22.25c0,0,38.55-14.6,45.62,27.82,0,0,27.63-4.87,31.48,24.34,0,0,51.4-8.35,43.69,23.64,0,0,40.48-6.95,27,22.95H103.07Z"/>
        <path class="cls-34" d="M351.61,504.77s-41.19-29.18,28.65-41c0,0-23.28-21.3,0-39.44,0,0,17-15,46.57-5.52,0,0,34-31.56,81.49-11.83,0,0,42.09-11.84,69.85,2.36s17.91,43.3,17.91,43.3,45.67-13.32,65.37,3.24c0,0,43.87-.78,48.35,20.51,0,0,69.85-11.83,69,17.36,0,0,57.32-3.16,44.78,15L802,517.39l-440.58-7.1Z"/>
        <path class="cls-35" d="M639,449.89c130,19.79,378,17.2,442.51,15.45S1419.27,445.85,1475,439.2s-89.29-19.46,125,10.8v52L636.22,491.61"/>
        <path class="cls-36" d="M-47.55,500.57s-46.37-37.68,32.25-52.95c0,0-26.21-27.5,0-50.92,0,0,19.16-19.34,52.42-7.12,0,0,38.31-40.74,91.73-15.28,0,0,47.38-15.27,78.63,3.06s20.16,55.89,20.16,55.89,45.74-17.76,64.86,21.46c0,0,60.58-13.31,60.59,26.43,0,0,46.05-11.6,80.73,27.28,0,0,64-26.18,49.86-2.76l-24.19,11.21-496-9.17Z"/>
        <path class="cls-37" d="M18.23,519.58s-35-45.35,6.46-89c31.25-32.86,68.53-25.3,68.53-25.3s24.11-20.44,50.71-22.14S196,404.38,196,404.38s43.64-8.29,63.76,8.4c28.61,23.73,22,39.22,22,39.22S304,445,329,497.56c0,0,46.95-13.56,53.21,22L310.57,530.1l-292.34.17Z"/>
        <path class="cls-38" d="M612.46,500.9s-5.71-69.28,58.53-96.33c27.63-11.63,39.39,4.78,39.39,4.78s19.29-21.7,43.4-19.22,46.63,27.2,46.63,27.2,50.64-14.35,66.71,5.58c0,0,8,7.62,3.22,18.16,0,0,69.13-19.76,76.36,29.67,0,0,41-5,48.23,29.41,0,0,58.21-17.82,81.78,19.32,0,0,54.28-1.43,68.57,18.57l-17.42.13L623.8,533.65Z"/>
        <path class="cls-39" d="M336.13,531.43S326.06,504,360.06,492.34c0,0-19.44-20.3,0-37.59,0,0,14.2-14.28,38.88-5.26,0,0,22.82-33.17,68-11.27,0,0,35.15-11.28,58.32,2.25s19.31,35.85,19.31,35.85,30.71-15.71,50.23,8.5c0,0,36.19-7.79,40.38,19.55,0,0,41.52-17.34,57.57,16.53,0,0,53.41-8.41,72.38,14.44H719.88l-362-1.44Z"/>
        <g>
          <path class="cls-40" d="M-87,172.4S-48.51,195-49.24,227.71c-.13,5.76.36,23.36-12.64,31-9.05,5.35-20,3.22-21.65,2.88-20.42-4.25-32.58-26.86-44.49-49-9.75-18.12-14.22-32.26-25.79-33.82-1.38-.19-5.89-.8-8.66,1.58-8.62,7.38,6.27,37.82,23,59.32C-126.4,256.58-115,264.28-118,274.54c-2.29,8-11.67,12-12.56,12.38-7.51,3.12-15.87,2.1-27.62-2.07A137.31,137.31,0,0,1-203,258.39c-29.24-27.14-52.62-56.15-67.08-75.42l-10.05,9,18.66,28.37c-2.37-3.54-13.28-19-34.45-23.21a56.36,56.36,0,0,0-21.53,0c11,3.79,26.88,10.85,40.19,24.5,14.53,14.91,15.21,26.6,30.14,47.72C-236,285.1-222.68,298-212.7,305.48c34.69,25.94,81.37,25.27,104.77,23.22,9.77,1.06,22.82,4.05,33,12.89,20.39,17.7,16,47.27,10.21,82.64-9.51,58-39.17,128.54-53.09,143.09-13,13.56,154.05,32.21,199,19.78,29.4-.2,42-8.5,48.19-15.33,37-41.07-69.47-130.51-39.22-232.76,3.25-11,14.06-47.53,44.49-58,18-6.19,26.19,2.39,51.67,0,49.56-4.65,81.94-43.07,84.68-46.42,25.23-30.84,32.49-75.22,32.49-75.23h0l-21.38,2.81c-1,7.78-7,48.82-41.25,64.68-4.07,1.88-22.82,10.55-34.3,3.5-16.14-9.91-6.24-43.55-4.43-46.7,6.91-12.06,23-35,23-35l-53.21,6c2.52,29.08-8.85,54.65-30.57,65.34-2.89,1.42-19.46,9.57-32.63,3.49C92.8,216.08,86,189.81,98.45,159.33l-19.59-6.42s-12,102-29.94,112.43c-31.1,18.14-54.14-43.63-46.08-106h-23s15,68.22-3.45,43.85S-60.51,172.4-60.51,172.4h0"/>
          <path class="cls-41" d="M119.61,25.9s39-17.54,100.28-17.28,129.92,39,111,63.63-30.51,38.82-115.44,38.61S33.81,73,119.61,25.9Z"/>
          <path class="cls-42" d="M104.25-99.88C267.76-55.84,284-3.18,280.66,20.94c0,0,.35,41.3-168.46,83h0s-99,34.12-281.84,16.22c-55.48-5.43-147-27-159.68-75.23-9.32-35.48,28.77-71.61,42.54-84.68C-174.55-146.22,49.25-109.95,104.25-99.88Z"/>
          <path class="cls-43" d="M99.1-98.88C262.62-55,278.89-2.5,275.56,21.51c0,0,.37,41.14-168.41,82.61h0s-99,33.95-281.82,16c-55.49-5.43-147-27-159.72-75-9.33-35.33,28.74-71.31,42.5-84.32C-179.71-145.14,44.09-108.94,99.1-98.88Z"/>
          <path class="cls-44" d="M364.42,113.22S322,123.6,133,124.88l.31-137c4.45-1.27,36.84-8,118.89,15,99.67,27.87,187,87.39,122.48,107.59"/>
          <path class="cls-45" d="M363.81,118.75s-43.22,10.5-235.78,11.8L128.34-8C132.87-9.26,165.88-16,249.48,7.15,351,35.34,440,95.54,374.27,116"/>
          <path class="cls-42" d="M-119.49,188.27c18.13,2.28,21.18,1.41,91.76,1.35,15,0,78.87,0,207.25-3.66,54-1.52,135.33-12.6,157.46-21.77,7.4-3.06,22.13-10.4,22.66-30.5,1.2-45.81-43.41-72.18-57.46-85-13.12-12-46.29-26.47-55.1-29.67C139.84-19.93,52.66-31.77,52.66-31.77c-20.86-4.31-185.26-36.08-279,52.64-8.62,8.15-61.61,57.74-46.1,100.8C-254.56,171.26-156.16,183.65-119.49,188.27Z"/>
          <path class="cls-46" d="M-121.63,192.6c18.22,2.3,21.28,1.43,92.22,1.36,15.1,0,79.27,0,208.3-3.67,54.27-1.53,136-12.67,158.27-21.88,7.43-3.07,22.24-10.44,22.77-30.64,1.21-46-43.63-72.51-57.75-85.41-13.19-12-46.53-26.59-55.38-29.8C139-16.56,51.39-28.46,51.39-28.46,30.43-32.79-134.81-64.7-229,24.42c-8.66,8.2-61.92,58-46.33,101.27C-257.39,175.51-158.49,188-121.63,192.6Z"/>
        </g>
        <path class="cls-47" d="M287.91,538.54s22.84-18.31,66.85-12.11c0,0,8,2.48,5.6-7.44-2.06-8.53.7-20.23,24.81-13.63,13.6,3.72,24.81,12.39,24.81,12.39s3.2,1.86,0-5.57.8-13.64,12.8-13.64,23.21,6.2,23.21,6.2,8-11.16,28.81-12.4,30.4,3.72,30.4,3.72,4.8-15.57,30.41-16.74c13.61-.62,25.61,8.68,25.61,8.68s32-4.34,56.82,14.26c0,0,5.6-7.44,19.2-6.2s25.61,18,31.21,33.47l1.44,6.82Z"/>
        <g>
          <path class="cls-48" d="M216.51,583s-47.35-35.59,8.74-69.84c42.23-25.79,92.61-19.85,92.61-19.85s32.57-16.05,68.52-17.37,70.38,16.66,70.38,16.66,59-6.5,86.17,6.59c38.66,18.62,29.7,30.78,29.7,30.78s47.43,0,81.26,41.22c0,0,224.91,10.73,234.89,26l-277.21-6-395.06.13Z"/>
          <path class="cls-49" d="M-36.74,588.24S37,500.67,118.41,526c0,0,65.54-45.22,113.9,11.62,0,0,84.46-5,100.8,28.2,0,0,78.59-6.64,101,31.51l21.95,14.91-500.9,1.67Z"/>
        </g>
        <g>
          <path class="cls-50" d="M591.35,582.93a220.72,220.72,0,0,0-24.66,3.91c-22.6,4.82-54.82,15.08-70.4,35.93-24.7-10.85-3.61-94.31,71-62,11.2,2.59,6.16-9.52-10.57-12.3s-56.64-7.17-64.49-4.66,55.22-67.69,87.13-33.23c14.1,13.63,23.28,35.53,21.18,41.94,4.32-.53,9.31-26.53-3.52-41.94s2.15-33.85,10-22.11c5.24,7.86,6.42,16.95,6.62,22.11a38.26,38.26,0,0,1,0,4.16L618,634s-9.63-19.57-17.43-15.78-41.34,31.56-43.82,18.94,16.78-44.2,36-40.41,1.43-6,1.43-6-37.49,8.76-48.69,32c-16.18-7.69,1.76-31.72,18.09-32A56.53,56.53,0,0,0,591.35,582.93Z"/>
          <path class="cls-50" d="M588,572.16c-1.89,0-92.36-20.43-91.72,50.61"/>
          <path class="cls-50" d="M597.45,567.56s-15.48-86.94-97.88-28"/>
        </g>
        <g>
          <path class="cls-28" d="M436.67,613.27s-26,.12-39.11-8.79,18.53-4.68,43.91-.4c0,0-2.35-2.1-22-12.33s-14.07-18.41,1.46-11,31,19,31,19-28.25-23.06-28.54-27.57,5.1-4.68,31.22,24.28c0,0-24.07-24.22-18.91-36.05s23.27,33.5,23.27,33.5-15.88-48.61-4.86-50.71,8.73,48.54,8.73,48.54,10.91-28.05,27.85-27.58-21.93,30.16-25.56,30.57c0,0,1.52,2,7,.94s21.11-16,30-16.57c9-.59,21.92,10.07-29.55,33.61Z"/>
          <g>
            <path class="cls-51" d="M756.33,538.27s-11.66-8-14.81-7.22,3.2-7,12.61,1.72C757.91,536.28,756.33,538.27,756.33,538.27Z"/>
            <path class="cls-51" d="M758.85,538.27s-4.9-18.15-10.17-20,8.38-4.66,11.12,7.58C761.69,534.29,758.85,538.27,758.85,538.27Z"/>
            <path class="cls-51" d="M760.45,538.27s5.65-12.93,17-13.43-17,14.18-17,14.18"/>
          </g>
          <g>
            <path class="cls-51" d="M344.72,613.88s-11.66-8-14.81-7.21,3.2-7,12.6,1.71C346.29,611.89,344.72,613.88,344.72,613.88Z"/>
            <path class="cls-51" d="M344.69,614.78s-4.91-18.15-10.17-20,8.37-4.66,11.11,7.58C347.52,610.8,344.69,614.78,344.69,614.78Z"/>
            <path class="cls-51" d="M345,613.14s5.66-12.93,17-13.43-17,14.17-17,14.17"/>
          </g>
          <g>
            <path class="cls-51" d="M617.4,592.78s-11.66-8-14.81-7.22,3.2-7,12.61,1.71C619,590.79,617.4,592.78,617.4,592.78Z"/>
            <path class="cls-51" d="M619.92,592.78s-4.9-18.15-10.17-20,8.38-4.66,11.12,7.59C622.76,588.8,619.92,592.78,619.92,592.78Z"/>
            <path class="cls-51" d="M621.52,592.78s5.65-12.93,17-13.43-17,14.17-17,14.17"/>
          </g>
          <g>
            <path class="cls-51" d="M626,538.09s-9.45-6.94-12-6.29,2.59-6.12,10.21,1.49C627.32,536.36,626,538.09,626,538.09Z"/>
            <path class="cls-51" d="M628.08,538.09s-4-15.81-8.24-17.44,6.79-4.06,9,6.61C630.38,534.62,628.08,538.09,628.08,538.09Z"/>
            <path class="cls-51" d="M629.38,538.09s4.58-11.26,13.77-11.7-13.77,12.35-13.77,12.35"/>
          </g>
        </g>
        <g>
          <path class="cls-50" d="M32.56,632.81S9.8,582.86,20.35,558.45s38.84,26.31,38.29,63.38c.55,16,7.21,4.32,11.65-10.67s20.54-35,40-41.62,20,15.54-12.77,43.29-24.41,35-8.32,20c18.31-16.65,13.32-11.6,21.64-15.24s42.12,1.36,2.75,34.11L95.82,660H13.13L9.8,640.9s17.76,1.9,9.44-2.54S-21.83,609.21-7.95,606,9.8,602.29,32.56,632.81Z"/>
          <path class="cls-50" d="M54.65,650.74s41.93-67,61.19-74"/>
          <line class="cls-50" x1="50.54" y1="650.74" x2="27.85" y2="564.67"/>
          <line class="cls-50" x1="73.72" y1="653.65" x2="122.06" y2="625.54"/>
        </g>
        <g>
          <path class="cls-52" d="M521.48,669.29c281,56.15,500.72,48.63,650,31.18,137.11-16,401.83-62.3,430.67,8.53,3.51,8.6,1.3,13.46,0,76-1,49-.55,89,0,115H0V657Z"/>
          <g>
            <path class="cls-52" d="M1426.7,699.78s5.42-5.58,15.88-6.95-11.24-7.33-19,6.95C1423.6,699.78,1420.11,706.12,1426.7,699.78Z"/>
            <path class="cls-52" d="M1412,700.57s15.88-17.84,25.17-22.6-8.91-5.16-21.3,9.71C1415.85,687.68,1409.65,696.61,1412,700.57Z"/>
            <path class="cls-52" d="M1407.33,700.57s10.55-29,15.34-32.52-7.6-5.55-15.34,18.05C1407.33,686.1,1404.23,698.59,1407.33,700.57Z"/>
            <path class="cls-52" d="M1401.71,700.57s4.07-26.57,7.94-30.53S1394.93,674.4,1401.71,700.57Z"/>
            <path class="cls-52" d="M1399.39,700.57s.19-22.13-8.14-25.54S1396.1,689.47,1399.39,700.57Z"/>
            <path class="cls-52" d="M1396.68,700.57s-5.23-25.36-18-26S1388.74,683.92,1396.68,700.57Z"/>
            <path class="cls-52" d="M1395.58,700.57s-6.84-10.31-18.46-9.52S1392.74,697.4,1395.58,700.57Z"/>
          </g>
        </g>
        <path class="cls-53" d="M942.83,582.75s-49.7-1.72-101.66,15.76-51.65,30.59-115.8,36.54-187.12,22.68-101.64,28.82,272.72,78,487.11,52.54C1256.7,699.12,1273.75,683.92,1313,676s69.84-6.37,85.75-5.9c47,1.38,108.75,1.31,192.22,0,1-2.31,24.89-58.58-.63-90s-98-34.39-154.87,20.8l-7.76-9.33Z"/>
        <g>
          <path class="cls-54" d="M673.3,629,651.19,464.15l16.29-9.85,9.67-46.53L778.1,281l40.22-61.72,29.82-72.09,83.78-25.69L978.25,100l67.42,5.44,98.68-71.32L1306-34.65l72.69-45.44,122.82-70.09L1697.06-267q-8.86,330.48-3.76,660.69,1.38,88.92,3.76,177.83l-3.76,62.31-133.19-73.68s-153.3-9.38-161.26,5.52-115.69,47.15-115.69,47.15l-409.69-6.65Z"/>
          <path class="cls-55" d="M1580,158.93l120.56,54.32q-3.63,138.26-7.25,276.5L1593,276.66Z"/>
          <path class="cls-56" d="M1021.84,250.42s103.69,30.5,117.15,43.73a100.17,100.17,0,0,1,19.51,26.33l41.77,13.15,24.54,45.53-76.58-44.59-97.29,80.18s-31.7,5.6-22.74,56.44-5.91,131.08-5.91,131.08l-59.21-1.13s-73.15,26.18-122.29-31.35-114.35-169.28-24.5-233.72S1021.84,250.42,1021.84,250.42Z"/>
          <path class="cls-57" d="M1098.08,484.23s67.17,35.21,77.37-51.68,49.36-53.39,49.36-53.39l-24.54-45.53-47.56-23s-130.91,86-137.36,132.22-2.77,159.24-2.77,159.24l98.19,1.83s31.12-49.33,33.89-63.93Z"/>
          <polygon class="cls-58" points="1224.81 379.16 1266.52 459.79 1265.17 537.65 1301.65 594.48 1308.56 614.29 1249.35 613.18 1104.57 610.48 1048.51 518.35 1078.73 415.27 1162.99 366 1199.9 354.91 1224.81 379.16"/>
          <path class="cls-59" d="M967.82,329.3c-1.71,7.95-9.94,42.2-40.57,60.58A77.78,77.78,0,0,1,898.89,400q2.83,17.58,5.66,35.16l-16.36,3.59q8.26,21.35,16.54,42.71l-18.05,44.14,21.3.4,55.1,75.12s74.78,24.77-38.84-.72-112.18-21.15-112.18-21.15l-40.38-144,56-87.32,124.39-52.76,31.54,11Z"/>
          <path class="cls-60" d="M941.78,600.75l-210.7-3.94s-25.14-57.59-25-68,.09-5.38.09-5.38L824.49,534S928,601.79,941.78,600.75Z"/>
          <path class="cls-55" d="M824.49,534s-17.31-50-11-55.1S707.4,455.05,707.4,455.05l-1.19,68.41Z"/>
          <path class="cls-61" d="M813.54,478.92s-6.43-27,6.94-56.81,42.23-31.85,51.5-60.24,29-82.55,68-92.21,81.82-19.24,81.82-19.24l16.6-17.87,73-15.51,39.43-33-30.23,8.53-66.44-10.33-10.34,28.37-36.41,3.21L948.1,237.55l-35-3.44,57.34-53.46-96.3,59.22,9.53,28.74s-49.94,60.83-106.44,65.89l-26.91-7.36S698,418.71,707.4,455.05Z"/>
          <path class="cls-62" d="M750.28,327.14,829.39,252s34.67-11,54.24,16.59C883.63,268.61,801.58,363.15,750.28,327.14Z"/>
          <polygon class="cls-55" points="874.1 239.87 846.54 239.36 914.01 179.6 991.98 165.48 992.48 136.56 1045.67 105.46 1193.22 126.39 1166.43 153.16 1061.24 147.3 1031.76 174.01 989.87 173.23 970.4 180.65 874.1 239.87"/>
          <polygon class="cls-63" points="970.4 180.65 913.06 234.11 948.1 237.54 1007.43 213.8 1026.79 181.71 1061.24 147.3 970.4 180.65"/>
          <polygon class="cls-54" points="1007.43 213.8 1054.18 182.22 1115.54 175.57 1150.85 184.02 1130.85 200.77 1227.97 197.79 1228.18 185.47 1141.16 164.37 1045.93 162.59 1026.79 181.71 1007.43 213.8"/>
          <path class="cls-63" d="M1045.67,105.46s75.57-20.66,89.42-24.29,114,15.11,114,15.11l-55.86,30.11Z"/>
          <polyline class="cls-63" points="1028.95 242.76 1038.44 232.56 1103.56 215.59 1227.33 234.41 1333.59 271.82 1379.24 385.62 1373.82 408.88 1345.12 401.86 1305.13 301.8 1227.06 250.36 1136.72 255.27 1077.29 243.67 1021.84 250.42"/>
          <polygon class="cls-55" points="1166.43 153.16 1193.22 126.39 1249.08 96.28 1268.73 145.33 1228.73 154.32 1166.43 153.16"/>
          <polygon class="cls-64" points="1228.73 154.32 1247.65 178.04 1288.54 167.12 1331.84 179.61 1363.46 168.52 1296.67 128.32 1228.73 154.32"/>
          <polygon class="cls-63" points="1045.93 162.59 1141.16 164.37 1228.18 185.47 1236.24 185.62 1217.49 154.11 1061.24 147.3 1045.93 162.59"/>
          <polygon class="cls-63" points="1228.18 185.47 1399.38 236.7 1463.62 247.17 1453.55 200.8 1373.99 188.19 1330.38 193.86 1247.65 178.04 1228.18 185.47"/>
          <polygon class="cls-63" points="1121.92 208.24 1227.62 217.91 1227.97 197.79 1136.44 196.09 1121.92 208.24"/>
          <polygon class="cls-61" points="1111.42 217.04 1222.14 233.62 1246.81 226.82 1227.97 197.79 1227.62 217.91 1121.92 208.24 1111.42 217.04"/>
          <polygon class="cls-55" points="1228.73 154.32 1288.54 167.12 1331.84 179.61 1363.46 168.52 1373.99 188.19 1330.38 193.86 1236.24 185.62 1217.49 154.11 1228.73 154.32"/>
          <polyline class="cls-60" points="1216.11 233.51 1345.23 254.97 1392.7 332.64 1515.13 428.4 1433.48 438.56 1379.15 390.81 1333.59 271.82 1211.23 233.42"/>
          <path class="cls-55" d="M1228.18,185.47l171.2,51.23L1425.3,332l90.42,62.66-.59,33.79L1392.7,332.64,1345.23,255l-50.64-7.25-67-29.81Z"/>
          <polygon class="cls-63" points="1399.33 236.77 1463.58 247.17 1524.92 339.69 1467.28 316.5 1425.35 331.99 1399.33 236.77"/>
          <polygon class="cls-55" points="1021.84 250.42 1072.05 243.57 1127.45 255.1 1223.68 249 1223.2 276.48 1149.14 282.39 1021.84 250.42"/>
          <path class="cls-55" d="M1223.2,276.48l63.9,73.66,19.72,86.05L1318.53,561,1367,589.63,1352.6,476l-7.46-75.44-40-98.76L1223.68,249S1223.19,276.71,1223.2,276.48Z"/>
          <path class="cls-60" d="M1345.14,400.56s16,26.26,25,8.25l9-18,22.31,25.05L1367,589.63Z"/>
          <path class="cls-65" d="M1021.84,250.42l-54,78.88-68.25,31.78L882.44,337.3s12.1-48.24,39.25-59.16S1021.84,250.42,1021.84,250.42Z"/>
          <path class="cls-66" d="M899.57,361.08,867,428l-29-.54,23.85,13.43L867,496.42l-25.13,10.8,24.93.46,75,93.07-122.6-67.21L808.11,477.7s-5-45.3,19.18-67.13,40-38.53,40-38.53l15.19-34.74Z"/>
          <path class="cls-63" d="M1021.84,250.42s109.86,35.8,117.15,43.73,13.72,16.48,13.72,16.48l70.49-34.15-74.06,5.91L1029.8,249.33Z"/>
          <polygon class="cls-61" points="1152.71 310.63 1200.27 333.63 1232.61 394.23 1287.1 350.14 1253.33 311.21 1223.2 276.48 1152.71 310.63"/>
          <path class="cls-55" d="M1149.14,282.39l24.06,20.84L1214.68,316,1256,375.34l25.82,64.28q3.84,46.76,7.66,93.52l35,51.38L1339,614.86l-30.41-.57-43.39-76.64,1.35-77.86L1199.9,354.91l-17.22-26.82-30-17.46Z"/>
          <polygon class="cls-60" points="1255.95 375.34 1287.1 350.14 1305.65 431.07 1318.53 561.04 1289.44 533.14 1285.38 449.15 1255.95 375.34"/>
          <polygon class="cls-67" points="1289.44 533.14 1324.39 584.52 1338.97 614.86 1367.01 589.63 1316.8 557.39 1289.44 533.14"/>
          <polygon class="cls-67" points="648.91 595.28 706.21 523.46 731.08 596.81 648.91 595.28"/>
          <path class="cls-68" d="M750.28,327.14l-56.34,42.53-42.47,78.64q-1.28,73.49-2.56,147l57.3-71.82,1.19-68.41S726.6,350.07,750.28,327.14Z"/>
          <path class="cls-69" d="M750.28,327.14,829.39,252,914,179.6,855.8,190.85,774.86,252.3l-.68,15.8-23,5.54-57.27,96Z"/>
          <path class="cls-63" d="M847.27,197.32l.87-50.11,83.78-25.69L978.25,100q6.87,32.73,13.73,65.46L855.8,190.85"/>
          <path class="cls-64" d="M1523.38,428.55l17.34,42.05,41.89.79,29.94,38.95,97.62,40.21,67.83-8.29L1681.07,473l-43.86-.82-28.3-30.39Z"/>
          <polygon class="cls-55" points="1540.72 470.6 1538.08 622.26 1578.36 623.01 1569.05 509.52 1582.61 471.39 1540.72 470.6"/>
          <polygon class="cls-55" points="1582.61 471.39 1612.55 510.34 1710.17 550.55 1674.44 637.79 1597.69 623.38 1582.61 471.39"/>
          <polygon class="cls-64" points="1524.66 354.58 1617.46 413.43 1745.5 444.38 1719.17 403.32 1570.35 342.45 1524.66 354.58"/>
          <polygon class="cls-55" points="1524.66 354.58 1617.46 413.43 1608.91 441.83 1584.51 454.98 1546.28 428.98 1515.13 428.4 1524.66 354.58"/>
          <polygon class="cls-64" points="1401.46 415.86 1383.58 506.06 1467.05 536.46 1540.72 470.6 1523.38 428.55 1433.48 438.56 1379.15 390.81 1401.46 415.86"/>
          <polygon class="cls-66" points="1383.58 506.06 1367.01 589.63 1366.49 619.06 1476.86 621.12 1467.05 536.46 1383.58 506.06"/>
          <polygon class="cls-60" points="1467.05 536.46 1540.72 470.42 1538.08 622.26 1476.86 621.12 1467.05 536.46"/>
          <polygon class="cls-61" points="1582.08 471.19 1569.05 509.52 1578.36 623.01 1597.69 623.38 1582.08 471.19"/>
          <polygon class="cls-64" points="1425.35 331.99 1467.28 316.5 1524.92 339.69 1570.35 342.45 1524.66 354.58 1515.72 394.61 1425.35 331.99"/>
          <polygon class="cls-55" points="1463.58 247.17 1572.93 276.29 1570.35 342.45 1524.92 339.69 1463.58 247.17"/>
          <polygon class="cls-61" points="1572.93 276.29 1649.99 303.69 1649.16 351.61 1719.17 403.32 1570.35 342.45 1572.93 276.29"/>
          <polygon class="cls-63" points="1453.55 200.8 1572.54 216.65 1649.99 303.69 1572.93 276.29 1463.58 247.17 1453.55 200.8"/>
          <polygon class="cls-55" points="1572.54 216.65 1572.93 276.29 1649.99 303.69 1572.54 216.65"/>
          <polygon class="cls-64" points="1373.99 188.19 1419.31 153.98 1501.28 143.97 1579.99 158.93 1536.05 183.42 1500.18 207.01 1373.99 188.19"/>
          <path class="cls-70" d="M1580,158.93l13.68,81.47-21.13-23.75L1500.18,207S1567.38,163.24,1580,158.93Z"/>
          <g>
            <path class="cls-61" d="M1455,558.19l37.56,17.91q10.5,38.94,21,77.86c-.18-.06-15.68-4.59-31-10.26-11.18-4.14-16.77-6.21-18.56-7.88-2.86-2.67-8.2-9-9.69-40A288.08,288.08,0,0,1,1455,558.19Z"/>
            <path class="cls-55" d="M1487.93,576s1.17-7.51,28.07-1.63,43.45,10.49,43.45,10.49l52.8,10.29-6.3,63.74L1513.58,654Z"/>
            <path class="cls-71" d="M1456,559.28A168,168,0,0,1,1518.68,540c14.41-1.44,45.1-4.16,77,10.64l46,28.24h0l-29.37,16.28c-14.22-1.88-29.47-4.46-45.57-8-14.33-3.15-27.74-6.7-40.17-10.43-21-1.82-36.44-2.86-36.94-2.69-1.07.36-1,.4-1.62.6C1481.92,576.63,1472.26,574.66,1456,559.28Z"/>
          </g>
          <g>
            <path class="cls-61" d="M1282.37,548.45a76.49,76.49,0,0,1,29.16,27.27c18.8,30.61,9,64.14,7.39,69.45l-34.21-11.53a257.08,257.08,0,0,1-4.77-55.54A253.64,253.64,0,0,1,1282.37,548.45Z"/>
            <polygon class="cls-61" points="1284.85 625.72 1283.16 612.82 1303.42 582.04 1284.85 625.72"/>
            <path class="cls-55" d="M1317.18,580.78l73.62-.61,23.3-3.52q6.53,28.83,13,57.66l-.33,18.81c-5.67.34-13.94.85-23.93,1.53-21.51,1.48-32.27,2.22-45,3.61-9.62,1.06-23.08,2.79-39.29,5.71"/>
            <path class="cls-63" d="M1297.23,542.44q-11.43,1.68-12.9,6.59-2.91,9.66,32.85,31.75l6.69.12,23-.56,44,.82,44.25-16-5.71-1.1-81.62-34.2Z"/>
            <path class="cls-61" d="M1413.8,576.64,1435,565.16l-4.75,53.37-4.38,32q-.83-7.12-1.66-14.26Z"/>
            <path class="cls-61" d="M1283.31,631.64,1318.6,664q.15-10.38.29-20.76Z"/>
          </g>
          <g>
            <path class="cls-61" d="M659.19,551.93l2.6,52.54,35.32,25c-12.14-6.6-37.3-22.6-54.09-54.08a133.71,133.71,0,0,1-13.47-38.85Z"/>
            <path class="cls-55" d="M659.19,551.93a592.54,592.54,0,0,1,122.67-16.75c-3.56,13.05-7,26.83-10.11,41.3-2.81,12.91-5.19,25.39-7.22,37.41l-67.42,15.6-35.32-25Q660.48,578.21,659.19,551.93Z"/>
            <path class="cls-61" d="M781.1,534.12s37.66-8.78,46-15c14.75,22.17,14.62,49.7.9,67.06-11.88,15-29.76,17.14-34.3,17.53l-30.2,9q3-15.49,6.46-31.51Q775.27,557,781.1,534.12Z"/>
            <path class="cls-72" d="M629.45,536.41c18.1-16.13,34.72-23.41,45.33-27,28.94-9.77,54.64-6.1,103.75,1.47,20.89,3.22,37.79,6.83,48.67,9.34a171,171,0,0,1-45.34,14.95c-19.31,3.45-32,2.17-46.26,2.34-18.47.22-44.59,2.93-76.82,14.33Z"/>
          </g>
          <polygon class="cls-63" points="1249.68 125.5 1326.59 97.72 1501.28 143.97 1419.31 153.98 1373.99 188.19 1363.46 168.52 1306.78 134.41 1268.73 145.33 1249.68 125.5"/>
          <path class="cls-63" d="M1442.24,151.18s68.13-56.38,112.38-62.76S1640,116.56,1640,116.56l-60,42.37Z"/>
          <polygon class="cls-61" points="1640.01 116.56 1700.55 213.25 1579.99 158.93 1640.01 116.56"/>
          <polygon class="cls-66" points="774.86 252.3 774.17 268.1 751.21 273.64 774.86 252.3"/>
          <polygon class="cls-66" points="651.47 448.31 667.48 454.31 651.19 464.15 651.47 448.31"/>
          <polygon class="cls-73" points="1021.84 250.42 1138.99 294.15 1152.71 310.63 1149.14 282.39 1038.17 245.53 1021.84 250.42"/>
          <path class="cls-55" d="M967.82,329.3s54.93-33.42,62.29-37.18,65.87-14,65.87-14l-74.14-27.67Z"/>
          <path class="cls-66" d="M1021.72,256.91,962.85,329.2l-50.62-47.15S1013.47,258,1021.72,256.91Z"/>
          <polygon class="cls-60" points="666.33 531.06 651.26 551.71 648.85 582.75 664.73 549.3 666.33 531.06"/>
          <polygon class="cls-60" points="724.79 517.26 758.05 534.74 750.71 560.74 752.54 533.65 724.79 517.26"/>
          <path class="cls-60" d="M706.46,514.15s-41.56,7.06-46.65,11-19.1,16.71-19.1,16.71,18-14.86,21.67-15.63S706.46,514.15,706.46,514.15Z"/>
          <polygon class="cls-74" points="884.35 392.33 866.98 427.98 837.98 427.44 860.95 422.03 884.35 392.33"/>
          <polygon class="cls-63" points="846.54 239.36 864.08 242.28 879.6 254.26 887.14 231.86 874.1 239.87 846.54 239.36"/>
          <polygon class="cls-55" points="1045.67 105.46 992.48 136.56 978.25 100.02 1045.67 105.46"/>
          <polygon class="cls-55" points="991.98 165.48 949.99 129.09 981.94 165.81 991.98 165.48"/>
          <polygon class="cls-55" points="1305.13 301.8 1333.59 271.82 1308.16 309.39 1305.13 301.8"/>
          <polygon class="cls-61" points="1308.36 440.39 1345.14 400.56 1305.65 431.07 1308.36 440.39"/>
          <polygon class="cls-61" points="1223.2 276.48 1223.68 249 1234.52 289.54 1223.2 276.48"/>
          <path class="cls-75" d="M1323.87,580.9l-6,20.88,29-21.44Z"/>
          <polygon class="cls-75" points="1381.13 565.34 1413.8 576.64 1417.71 598.99 1418.14 574.29 1381.13 565.34"/>
          <polygon class="cls-75" points="1524.69 558.25 1489.58 574.05 1497.51 605.13 1497.79 576.2 1524.69 558.25"/>
          <polygon class="cls-75" points="1578.32 566.36 1612.25 595.17 1608.52 632.94 1604.27 594.06 1578.32 566.36"/>
          <polygon class="cls-55" points="1433.48 438.56 1383.58 506.06 1401.46 415.86 1433.48 438.56"/>
          <polygon class="cls-71" points="1433.48 438.56 1540.72 470.42 1523.38 428.55 1433.48 438.56"/>
          <path class="cls-71" d="M1584.51,455q14,27.67,28,55.36l34.4-31.45-38-37.06Z"/>
          <polygon class="cls-70" points="1072.05 243.57 1103.56 215.59 1087.56 243.58 1072.05 243.57"/>
          <path class="cls-70" d="M750.28,327.14l117,44.9-46.77,50.07L808.11,477.7,707.4,455.05S730.4,347.54,750.28,327.14Z"/>
          <polygon class="cls-76" points="1353.04 222.83 1399.33 236.77 1405.09 256.32 1412.62 237.18 1353.04 222.83"/>
          <polygon class="cls-55" points="1407.78 514.88 1445.49 478.98 1414.88 515.01 1414.47 538.01 1407.78 514.88"/>
          <polygon class="cls-55" points="1463.58 247.17 1467.28 316.5 1451.44 322.36 1463.58 247.17"/>
          <polygon class="cls-54" points="1249.68 125.5 1268.73 145.33 1241.91 149.27 1249.68 125.5"/>
          <path class="cls-55" d="M1364.81,535.13s-44,1-36.39,14.89,30.69,14.9,30.69,14.9-27.4-10.46-24.45-14.78S1351.82,530.19,1364.81,535.13Z"/>
          <polygon class="cls-55" points="1321.28 176.56 1310.32 162.52 1339.55 176.91 1333.8 187.44 1321.28 176.56"/>
          <path class="cls-74" d="M808.11,477.7l-53.39,32.74,35.19,5.34,14.54,17.86,14.73-.1Z"/>
          <path class="cls-77" d="M808.11,477.7l-53.39,32.74-42.55-14.09-4.77-41.3Z"/>
          <polygon class="cls-63" points="747.86 465.96 777.19 385.73 820.48 422.11 808.11 477.7 747.86 465.96"/>
          <polygon class="cls-73" points="777.19 385.73 816.29 336.07 867.25 372.04 820.48 422.11 777.19 385.73"/>
          <path class="cls-73" d="M733.13,358l44.06,27.75L747.86,466,707.4,455.05S711.85,369.26,733.13,358Z"/>
          <path class="cls-66" d="M733.13,358l44.06,27.75,39.1-49.66-66-8.93Z"/>
          <path class="cls-74" d="M883.63,268.61l-67.17,57.94-.17,9.52,51,36s17.41-38.87,20.91-49.65,19-39.59,33.53-44.25S883.63,268.61,883.63,268.61Z"/>
          <path class="cls-55" d="M948.1,237.55l9.83,29.06-36.24,11.53-38.06-9.53,29.43-34.5Z"/>
          <path class="cls-66" d="M860.18,367.05l-6.68-23.7,13.83,23.84-.08,4.85,1.46,23.15Z"/>
          <path class="cls-66" d="M754.72,510.44s-7-35.25,4.74-42.22,20-18.56,20.55-28.26c0,0,7.71,9.91-16.51,32.83C757.1,480.46,754.61,482.05,754.72,510.44Z"/>
          <polygon class="cls-78" points="1015.35 442.86 934.96 411.26 1012.65 453.87 1015.35 442.86"/>
          <path d="M1048.51,518.35l-34.87,28,0-.1-.91,55.83v.21l-.21,0a57.85,57.85,0,0,1-12.63-3.23,62.18,62.18,0,0,1-6-2.59,56.72,56.72,0,0,1-5.7-3.18,58.71,58.71,0,0,1-18.43-18.22A62.92,62.92,0,0,1,964,563.39c-1.53-4.07-2.81-8.23-4-12.41-2.33-8.37-4.09-16.88-5.74-25.4S951.15,508.5,949.4,500s-3.76-17-7.25-24.92c-.44-1-.94-1.95-1.42-2.92s-1-1.9-1.66-2.78a24.6,24.6,0,0,0-4.12-5c-.78-.74-1.63-1.41-2.48-2.09l-2.54-2-5.1-4c-3.42-2.66-6.87-5.3-10.46-7.73A56.28,56.28,0,0,0,903,442.26a56.3,56.3,0,0,1,11.42,6.19c3.62,2.41,7.08,5,10.52,7.67l5.13,4,2.55,2c.85.67,1.7,1.34,2.51,2.09a24.36,24.36,0,0,1,4.17,5c.63.89,1.13,1.87,1.68,2.8s1,1.94,1.43,2.93c3.53,8,5.51,16.49,7.32,25S953,517,954.65,525.5s3.44,17,5.78,25.36c1.18,4.17,2.47,8.31,4,12.36a62.55,62.55,0,0,0,5.79,11.57c9.22,14.69,25.3,24.59,42.37,27.11l-.21.18,1-55.82v-.06l.05,0Z"/>
          <path d="M1143.86,316.61l-20.17,5-20.21,4.86c-13.45,3.26-27,6.32-40.4,9.62a31,31,0,0,0-9.25,4.25,37.18,37.18,0,0,0-7.54,6.91c-4.45,5.25-7.74,11.38-11.15,17.39s-6.85,12.14-11.7,17.2a31.72,31.72,0,0,1-8.31,6.25,30.54,30.54,0,0,1-9.9,3.05,30.63,30.63,0,0,0,9.79-3.26,32,32,0,0,0,8.07-6.38c4.71-5.06,8.06-11.18,11.38-17.23s6.63-12.23,11.12-17.61a38.24,38.24,0,0,1,7.7-7.11,32,32,0,0,1,9.52-4.42l1.27-.36,1.26-.29,2.53-.59,5.07-1.17,10.12-2.34,20.25-4.65,20.27-4.59Z"/>
          <polygon class="cls-78" points="1011.55 517.25 981.37 522.61 1011.55 529.16 1011.55 517.25"/>
          <polygon class="cls-78" points="927.25 389.88 898.89 400.02 909.97 412.12 927.25 389.88"/>
          <polygon class="cls-79" points="967.82 329.3 940.06 370.74 976.69 339.06 1031.95 300.59 1030.11 292.12 967.82 329.3"/>
          <path class="cls-79" d="M841.87,507.22,867,496.42"/>
          <polygon class="cls-79" points="967.82 329.3 921.69 278.14 974.54 313.45 967.82 329.3"/>
          <polygon class="cls-78" points="1057.08 386.05 1078.73 415.27 1090.76 408.23 1057.08 386.05"/>
          <polygon class="cls-78" points="1048.51 518.35 1013.55 546.26 1048.31 529.85 1048.51 518.35"/>
          <polygon class="cls-60" points="1224.81 379.16 1255.95 375.34 1224.76 382.51 1224.81 379.16"/>
          <polygon class="cls-60" points="1261.02 449.15 1285.38 449.15 1266.52 459.79 1261.02 449.15"/>
          <polygon class="cls-60" points="1182.68 328.09 1214.68 315.96 1186.07 333.37 1182.68 328.09"/>
          <polygon class="cls-60" points="1265.17 537.65 1289.44 533.14 1269.54 544.47 1265.17 537.65"/>
          <polygon class="cls-60" points="1287.1 350.14 1297.47 297.11 1305.13 301.8 1308.16 309.39 1287.1 350.14"/>
          <polygon class="cls-60" points="1136.72 255.27 1139.25 279.65 1149.14 282.39 1136.72 255.27"/>
          <path class="cls-80" d="M1613.38,410.84s6.7-25.92-14.45-39.3-27.43-12.67-27.43-12.67,35.78,5.41,43.29,19.64,7,32.41,2.67,34.92S1613.38,410.84,1613.38,410.84Z"/>
          <path class="cls-80" d="M1374,188.19s89.21,34.49,89.59,59Z"/>
          <polygon class="cls-55" points="1419.31 153.98 1326.59 97.72 1414 157.78 1419.31 153.98"/>
          <polygon class="cls-81" points="909.34 448.39 925.97 463.3 918.12 483.46 907.98 526.02 886.68 525.63 904.73 481.48 909.34 448.39"/>
          <path class="cls-55" d="M1496.88,154.25s-20.12-21.27,44.57-39.53l65.15-3s-113.5,8.36-96.64,42.53C1497.25,154.24,1496.88,154.25,1496.88,154.25Z"/>
          <path class="cls-55" d="M667.48,454.3c-.17-.18,41-62.1,41-62.1l-32.16,62.27"/>
          <polygon class="cls-61" points="1401.46 415.86 1433.48 438.56 1379.15 390.81 1401.46 415.86"/>
          <polygon class="cls-76" points="924.96 234.33 950.39 244.31 969.56 228.96 948.1 237.54 924.96 234.33"/>
          <polygon class="cls-76" points="801.64 408.78 818.45 431.25 830.65 411.22 820.48 422.11 801.64 408.78"/>
          <polygon class="cls-78" points="1030.11 292.12 1026.14 265.48 1035.24 290.38 1030.11 292.12"/>
          <polygon class="cls-55" points="1017.7 164.01 1038.15 123.5 1032.79 157.34 1017.7 164.01"/>
          <path class="cls-55" d="M1345.33,664s-25.72-20.87-41.91-12.53-38.75,15.36-23.71,16.4S1345.33,664,1345.33,664Z"/>
          <path class="cls-73" d="M1273.2,667.84s15.3-29,22.81-23.06,21.17,3.94,21.17,3.94Z"/>
          <path class="cls-82" d="M1268.93,621.82s9.9-15.36,15.35-2.33l5.45,13Z"/>
          <path class="cls-76" d="M708.5,437.73l-2,35.72"/>
          <path class="cls-76" d="M772.8,305.75l-33.4,37.6"/>
          <polygon class="cls-76" points="1246.93 362.37 1260.66 387.16 1257.82 376.63 1265.47 367.87 1256.2 372.46 1246.93 362.37"/>
          <polygon class="cls-76" points="881.42 335.78 899.57 361.08 967.82 329.3 903.52 356.14 881.42 335.78"/>
          <path class="cls-76" d="M1138.72,118.66l37.59,24.62q27.38-18.9,54.73-37.82Z"/>
          <path class="cls-83" d="M1441.87,527.29q11.36-2,23.33-3.8,9.79-1.44,19.24-2.58"/>
          <polygon class="cls-84" points="1345.23 254.97 1399.33 236.77 1425.35 331.99 1392.7 332.64 1345.23 254.97"/>
          <path class="cls-84" d="M1272.93,227.84l18.42-23.47,14.49,45Z"/>
          <polygon class="cls-64" points="1291.35 204.37 1305.84 249.33 1345.23 254.97 1399.33 236.77 1291.35 204.37"/>
          <path class="cls-55" d="M1054.18,182.22q-7.86,25.17-15.74,50.33l65.12-17L1150.85,184Z"/>
          <path class="cls-63" d="M1045.93,162.59l8.25,19.63,66.44,10.33L1182.08,168l-40.92-3.66Z"/>
          <polygon class="cls-60" points="1174.95 172.67 1184.88 193.86 1136.44 196.09 1174.95 172.67"/>
          <polygon class="cls-55" points="1266.52 459.79 1244.05 533.64 1265.17 537.65 1289.44 533.14 1285.38 449.15 1266.52 459.79"/>
          <polygon class="cls-60" points="1244.05 533.64 1276.96 623.75 1279.71 565.99 1265.17 537.65 1244.05 533.64"/>
          <polygon class="cls-55" points="1224.76 382.51 1219.9 433.36 1261.02 449.15 1224.76 382.51"/>
          <polygon class="cls-60" points="1219.9 433.36 1255.95 493.4 1266.52 459.79 1261.02 449.15 1219.9 433.36"/>
          <polygon class="cls-58" points="1103.56 600.75 1048.51 518.35 1013.55 546.26 1010.25 607.87 1103.56 600.75"/>
          <polygon class="cls-54" points="1249.08 96.28 1310.32 -37.44 1463.15 -139.37 1524.37 -257.91 1697.53 -266.4 1697.53 197.79 1640.01 116.56 1554.62 88.42 1465.58 134.52 1249.08 96.28"/>
          <polygon class="cls-73" points="1135.09 81.17 1310.32 -37.44 1249.08 96.28 1135.09 81.17"/>
          <path class="cls-63" d="M1310.32-37.44,1441.87-15.5l-40.41,132.06-93.3-18.84-59.08-1.44Z"/>
          <polygon class="cls-54" points="1441.87 -15.49 1554.62 88.42 1465.58 134.52 1401.46 116.56 1441.87 -15.49"/>
          <polygon class="cls-85" points="1045.67 105.46 1098.21 40.6 1203.26 34.14 1135.09 81.17 1045.67 105.46"/>
          <polygon class="cls-73" points="1401.46 116.56 1516.49 33.47 1441.87 -15.49 1401.46 116.56"/>
          <path class="cls-84" d="M1696.22,5.66,1538.08-65,1441.87-15.5l127.18,99.68-91.32,43.42-94.9-5.39Z"/>
          <polygon class="cls-73" points="1554.62 88.42 1640.01 116.56 1700.55 213.25 1696.22 5.67 1599.65 29.25 1554.62 88.42"/>
          <polygon class="cls-54" points="1516.49 33.47 1382.83 122.21 1465.58 134.52 1569.05 84.18 1599.65 29.25 1696.22 5.67 1516.49 33.47"/>
          <polygon class="cls-55" points="1538.08 -65.03 1700.55 -105.45 1696.22 5.67 1538.08 -65.03"/>
          <polygon class="cls-64" points="1310.32 -37.44 1330.88 55.73 1441.87 -15.49 1310.32 -37.44"/>
          <polygon class="cls-64" points="1315.34 -37.44 1103.22 40.6 1203.69 34.37 1315.34 -37.44"/>
        </g>
        <g>
          <path class="cls-50" d="M0,830c68.06-3.07,119.56-3.43,228-1,30.68.69,81.72,2.18,153.72,6.38,186.23,10.87,330.62,29.2,354.67,32.15C862.91,883,1125.49,892.88,1595,873c-2.4,32.1.22-.41,4.62,18.57a7,7,0,0,1-6.88,8.44C1064.1,901,528.58,899,0,900-1.67,849.33,1.67,880.67,0,830Z"/>
          <g>
            <path class="cls-50" d="M771.5,879.54s4.29-26,0-28.42-16.4,5.62-9.64,16.85A44.5,44.5,0,0,0,771.5,879.54Z"/>
            <path class="cls-50" d="M759.85,877.11s-1.92-23.47-10.85-26.42S759.85,877.11,759.85,877.11Z"/>
            <path class="cls-50" d="M641.13,860.89s13.93-7.84,6.78-12.18S630.77,860.55,641.13,860.89Z"/>
            <path class="cls-50" d="M627.91,858.83s14.29-17.34,4.29-26S622.2,854.49,627.91,858.83Z"/>
          </g>
          <g>
            <path class="cls-50" d="M244.43,829.84s.34-36.9-6.1-39.31-21.48,11.3-9.72,25.38C236.69,825.59,244.43,829.84,244.43,829.84Z"/>
            <path class="cls-50" d="M227.79,829s-7.7-32.05-20.68-34.21S227.79,829,227.79,829Z"/>
            <path class="cls-50" d="M243.59,828.9s22-11.14,18.89-19S245.43,815.48,243.59,828.9Z"/>
            <path class="cls-50" d="M135.8,827.76s.91-42.67-38.7-55.62c-11.85-3.87,6.72,6.63,21.41,38.16,0,0,2.7,7.33,2.11,9.37S95.7,781.53,78.8,778.8c0,0,31.58,34.47,34.6,46C113.4,824.83,123.85,850.21,135.8,827.76Z"/>
            <path class="cls-50" d="M55.66,823.92s17.58-13.85,6.77-18.31S41.26,825.67,55.66,823.92Z"/>
            <path class="cls-50" d="M41.37,832.05s16-27.06.33-36.9S32.53,827.28,41.37,832.05Z"/>
          </g>
        </g>
        <g>
          <g>
            <path class="cls-52" d="M1438.09,695.54s41.58-5.4,40.43-20.23S1438.09,695.54,1438.09,695.54Z"/>
            <path class="cls-52" d="M1430,701.54s23.1-37.09,40.43-46.53-30-10.21-40.43,28.61Z"/>
            <path class="cls-52" d="M1428.27,696.54s11.65-28.85-31.77-30.35C1376.86,665.52,1428.27,696.54,1428.27,696.54Z"/>
          </g>
          <g>
            <path class="cls-52" d="M1074.09,777.54s41.58-5.4,40.43-20.23S1074.09,777.54,1074.09,777.54Z"/>
            <path class="cls-52" d="M1066,783.54s23.1-37.09,40.43-46.53-30-10.21-40.43,28.61Z"/>
            <path class="cls-52" d="M1064.27,778.54s11.65-28.85-31.77-30.35C1012.86,747.52,1064.27,778.54,1064.27,778.54Z"/>
          </g>
          <g>
            <path class="cls-52" d="M1381.68,700.9s10.93-6.4,32-8-22.62-8.41-38.23,8C1375.44,700.9,1368.42,708.19,1381.68,700.9Z"/>
            <path class="cls-52" d="M1352,701.81s32-20.49,50.71-25.95-18-5.92-42.91,11.15C1359.84,687,1347.36,697.26,1352,701.81Z"/>
            <path class="cls-52" d="M1342.68,701.81s21.25-33.24,30.91-37.34-15.31-6.37-30.91,20.72C1342.68,685.19,1336.44,699.54,1342.68,701.81Z"/>
            <path class="cls-52" d="M1331.37,701.81s8.19-30.51,16-35.06S1317.72,671.76,1331.37,701.81Z"/>
            <path class="cls-52" d="M1326.69,701.81s.39-25.41-16.38-29.33S1320.06,689.06,1326.69,701.81Z"/>
            <path class="cls-52" d="M1321.23,701.81S1310.7,672.69,1285,672,1305.24,682.69,1321.23,701.81Z"/>
            <path class="cls-52" d="M1319,701.81s-13.78-11.84-37.19-10.93S1313.3,698.17,1319,701.81Z"/>
          </g>
        </g>
        <path class="cls-86" d="M753.16,614.94l122.42-11.39,61.9,4.42L972,608l90,3,125,1,4.52,18.44,18.5,13.07a333.18,333.18,0,0,0-54,3.49c-29.58,4.34-34.75,9.17-52,8-28.63-1.94-29.3-16.24-59-21-22.45-3.59-29,3.46-70,7a391.67,391.67,0,0,1-53,1c-50.26,12.91-63.83,13.16-65,10-1.49-4,17.62-12.44,16-18-2.11-7.26-37.32-2.12-67,0a534.5,534.5,0,0,1-108.41-3.56C700.21,628.15,703.23,625.88,753.16,614.94Z"/>
        <path class="cls-87" d="M1040.4,602.85,928.79,608s95,17.45,144.12,10.24S1187,612,1187,612Z"/>
        <path class="cls-53" d="M1581,656c-146.52-8.08-245.12.82-303.11,9-87.3,12.28-203.08,37.76-253.75,43.43-40.92,4.59,91.61,1.24,182.84,19.42,122.58,24.41,153.52-9.92,248.68,1A818.87,818.87,0,0,1,1584,754Z"/>
        <g>
          <path class="cls-52" d="M1324.1,796s31.36-18.17,37.71-21.42c7.79-4-6.55-9.74-29.78,4.15C1332,778.74,1317.75,788.78,1324.1,796Z"/>
          <path class="cls-52" d="M1309.35,794.87s-6.32-16.84-41-16.34S1309.35,794.87,1309.35,794.87Z"/>
          <path class="cls-52" d="M1318.8,797.33s10.58-37.72,26-48.07C1358,740.4,1330,738,1314.3,759.13S1318.8,797.33,1318.8,797.33Z"/>
        </g>
        <path class="cls-52" d="M832.59,677.44s-187,28.87-178.81,27.22,61.37-2.23,100.29,11.56,23.84,18.93-14.12,18.85,26.82,12.91,98.43,15.42,96.72-.39,116.17,5.56,31.23,12.62-18.16,12.79,67.94-1.22,115.27-.53,56.38,7.81,56.38,7.81-56.94,21.57-120,16.23-161.22-24.48-231.63-26.92S625.32,746,561.66,747s-156.33-16.91-67-26,134.66-5.77,67-21.41-130.83-15.89-143.24-17.26,110.29-8.87,182.94-13.63,72.74,13.72,112.69,2.49S832.59,677.44,832.59,677.44Z"/>
        <path class="cls-52" d="M1161.61,798.69s58.57-23,93.48-17.85,37.78,32.75,91.35,6c18.21-9.11,46.37-11.34,101.88-17.51,84.52-9.4,173.55,1.17,200.68,4.71l-41.87,52.92-523.87-20.38Z"/>
        <g>
          <path class="cls-52" d="M635.56,604.81s-22.76-49.95-12.21-74.36,38.84,26.31,38.29,63.38c.55,16,7.21,4.32,11.65-10.67s20.54-35,40-41.62,20,15.54-12.77,43.29-24.41,35-8.32,20c18.31-16.65,13.32-11.6,21.64-15.24s42.12,1.36,2.75,34.11L698.82,632H616.13l-3.33-19.1s17.76,1.9,9.44-2.54S581.17,581.21,595.05,578,612.8,574.29,635.56,604.81Z"/>
          <path class="cls-52" d="M657.65,622.74s41.93-67,61.19-74"/>
          <line class="cls-52" x1="653.54" y1="622.74" x2="630.85" y2="536.67"/>
          <line class="cls-52" x1="676.72" y1="625.65" x2="725.06" y2="597.54"/>
        </g>
        <g>
          <g>
            <path class="cls-63" d="M351.28,692.18s-30.47-1.46-32.74-1.83-17.83-3.29-21.07-3.29S280,692.55,279,692.18s-12,5.12-12,5.12v16.83l-1.94,25.61s18.8,17.19,19.12,18.29,29.5,10.25,34.36,10.25,33.39-7,52.19-9.52,44.4-3.29,44.4-3.29l11.67-31.83S369.75,691.08,351.28,692.18Z"/>
            <path class="cls-66" d="M265.06,739.74s18.8,17.19,19.12,18.29,29.5,10.25,34.36,10.25,33.39-7,52.19-9.52,44.4-3.29,44.4-3.29l11.67-31.83s-44.73,9.52-59.64,7.71-23.34-5.51-26.9-5.15-18.16,5.49-26.26,5.13-22.69-7.32-26.26-7.69S267,697.3,267,697.3v16.83Z"/>
            <path class="cls-66" d="M316,731.31h0c-.7,0-1.37,0-2,0-8.1-.37-22.69-7.32-26.26-7.69S267,697.3,267,697.3v16.83l-1.94,25.61s18.8,17.19,19.12,18.29,27.13,9.5,33.62,10.19Z"/>
            <path class="cls-76" d="M426.8,723.64h0s-47.33-27-69.73-31c-14.53,1.71-38.87,4.4-40.8,4.65-2.76.37,19.93,4.21,23.34,4.94s5.83,2.56,1.94,2.93-11.34-1.83-6.16,1.1,42,15.73,60.46,15.91S426.8,723.64,426.8,723.64Z"/>
          </g>
          <g>
            <path class="cls-63" d="M1236.89,734.75s-33.22-1.13-35.7-1.41-19.43-2.53-23-2.53-19.08,4.22-20.14,3.94-13.08,3.93-13.08,3.93V751.6l-2.12,19.66s20.5,13.2,20.85,14,32.16,7.86,37.46,7.86,36.41-5.33,56.91-7.3,48.42-2.53,48.42-2.53l12.72-24.43S1257,733.9,1236.89,734.75Z"/>
            <path class="cls-55" d="M1142.88,771.26s20.5,13.2,20.85,14,32.16,7.86,37.46,7.86,36.41-5.33,56.91-7.3,48.42-2.53,48.42-2.53l12.72-24.43s-48.77,7.3-65,5.91-25.45-4.23-29.34-3.95-19.79,4.22-28.62,3.94-24.74-5.62-28.63-5.9S1145,738.68,1145,738.68V751.6Z"/>
            <path class="cls-61" d="M1198.42,764.78h0c-.76,0-1.5,0-2.18,0-8.84-.28-24.74-5.62-28.63-5.9S1145,738.68,1145,738.68V751.6l-2.12,19.66s20.5,13.2,20.85,14,29.58,7.29,36.66,7.82Z"/>
            <path class="cls-88" d="M1319.24,758.9h0s-51.61-20.74-76-23.79c-15.84,1.31-42.38,3.37-44.49,3.57-3,.28,21.74,3.23,25.45,3.79s6.36,2,2.12,2.25-12.37-1.41-6.72.84,45.77,12.07,65.92,12.21S1319.24,758.9,1319.24,758.9Z"/>
          </g>
          <g>
            <path class="cls-52" d="M1238.85,795.25s7.24-5.53,21.19-6.89-15-7.25-25.32,6.89C1234.72,795.25,1230.06,801.53,1238.85,795.25Z"/>
            <path class="cls-52" d="M1219.21,796s21.19-17.67,33.6-22.39-11.89-5.1-28.43,9.63C1224.38,783.27,1216.11,792.1,1219.21,796Z"/>
            <path class="cls-52" d="M1213,796s14.08-28.67,20.48-32.21-10.15-5.49-20.48,17.88C1213,781.7,1208.87,794.07,1213,796Z"/>
            <path class="cls-52" d="M1205.51,796s5.43-26.31,10.6-30.24S1196.47,770.11,1205.51,796Z"/>
            <path class="cls-52" d="M1202.41,796s.26-21.92-10.85-25.3S1198,785,1202.41,796Z"/>
            <path class="cls-52" d="M1198.79,796s-9-9-26-9.58S1188.2,779.54,1198.79,796Z"/>
            <path class="cls-52" d="M1197.33,796a32.54,32.54,0,0,0-24.64-9.42C1157.19,787.39,1193.54,792.89,1197.33,796Z"/>
          </g>
          <g>
            <path class="cls-52" d="M349.85,769.25s7.24-5.53,21.19-6.89-15-7.25-25.32,6.89C345.72,769.25,341.06,775.53,349.85,769.25Z"/>
            <path class="cls-52" d="M330.21,770s21.19-17.67,33.6-22.39-11.89-5.1-28.43,9.63C335.38,757.27,327.11,766.1,330.21,770Z"/>
            <path class="cls-52" d="M324,770s14.08-28.67,20.48-32.21S334.34,732.33,324,755.7C324,755.7,319.87,768.07,324,770Z"/>
            <path class="cls-52" d="M316.51,770s5.43-26.31,10.6-30.24S307.47,744.11,316.51,770Z"/>
            <path class="cls-52" d="M313.41,770s.26-21.92-10.85-25.3S309,759,313.41,770Z"/>
            <path class="cls-52" d="M309.79,770s-9-9-26-9.58S299.2,753.54,309.79,770Z"/>
            <path class="cls-52" d="M308.33,770a32.54,32.54,0,0,0-24.64-9.42C268.19,761.39,304.54,766.89,308.33,770Z"/>
          </g>
          <g>
            <path class="cls-52" d="M285.85,739.25s7.24-5.53,21.19-6.89-15-7.25-25.32,6.89C281.72,739.25,277.06,745.53,285.85,739.25Z"/>
            <path class="cls-52" d="M266.21,740s21.19-17.67,33.6-22.39-11.89-5.1-28.43,9.63C271.38,727.27,263.11,736.1,266.21,740Z"/>
            <path class="cls-52" d="M260,740s14.08-28.67,20.48-32.21S270.34,702.33,260,725.7C260,725.7,255.87,738.07,260,740Z"/>
            <path class="cls-52" d="M252.51,740s5.43-26.31,10.6-30.24S243.47,714.11,252.51,740Z"/>
            <path class="cls-52" d="M249.41,740s.26-21.92-10.85-25.3S245,729,249.41,740Z"/>
            <path class="cls-52" d="M245.79,740s-9-9-26-9.58S235.2,723.54,245.79,740Z"/>
            <path class="cls-52" d="M244.33,740a32.54,32.54,0,0,0-24.64-9.42C204.19,731.39,240.54,736.89,244.33,740Z"/>
          </g>
        </g>
        <rect class="cls-89" x="-1" width="1605" height="898"/>
      </g>
    </g>
  </g>
</svg>
