<svg xmlns="http://www.w3.org/2000/svg" xmlns:xlink="http://www.w3.org/1999/xlink" width="1600" height="900" viewBox="0 0 1600 900">
  <defs>
    <style>
      .cls-1 {
        fill: none;
      }

      .cls-2 {
        isolation: isolate;
      }

      .cls-3 {
        clip-path: url(#clip-path);
      }

      .cls-4 {
        clip-path: url(#clip-path-2);
      }

      .cls-5 {
        fill: url(#linear-gradient);
      }

      .cls-6, .cls-7 {
        fill: #fff;
      }

      .cls-6 {
        opacity: 0.54;
      }

      .cls-63, .cls-7 {
        opacity: 0.31;
      }

      .cls-8 {
        fill: #a4c93d;
      }

      .cls-9 {
        fill: #1f7c77;
        opacity: 0.36;
      }

      .cls-10 {
        fill: url(#linear-gradient-2);
      }

      .cls-11, .cls-23 {
        opacity: 0.5;
      }

      .cls-12 {
        fill: url(#linear-gradient-3);
      }

      .cls-13 {
        fill: url(#linear-gradient-4);
      }

      .cls-14 {
        opacity: 0.22;
      }

      .cls-15 {
        fill: url(#linear-gradient-5);
      }

      .cls-16 {
        clip-path: url(#clip-path-3);
      }

      .cls-17 {
        clip-path: url(#clip-path-4);
      }

      .cls-18 {
        fill: url(#linear-gradient-6);
      }

      .cls-19 {
        fill: url(#linear-gradient-7);
      }

      .cls-20 {
        fill: #86e3d0;
      }

      .cls-21 {
        fill: url(#linear-gradient-8);
      }

      .cls-22 {
        fill: #44c24a;
      }

      .cls-23 {
        fill: #5f8337;
        mix-blend-mode: multiply;
      }

      .cls-24 {
        fill: #73d35f;
      }

      .cls-25 {
        fill: #3d823a;
      }

      .cls-26 {
        fill: #3dbf47;
      }

      .cls-27 {
        fill: url(#linear-gradient-9);
      }

      .cls-28 {
        fill: #c28a73;
        opacity: 0.56;
      }

      .cls-29 {
        fill: #ce856b;
      }

      .cls-30 {
        fill: #3beaa2;
      }

      .cls-31 {
        fill: url(#linear-gradient-10);
      }

      .cls-32 {
        fill: url(#linear-gradient-11);
      }

      .cls-33 {
        fill: url(#linear-gradient-12);
      }

      .cls-34 {
        fill: #0c8e34;
      }

      .cls-35 {
        fill: #878986;
      }

      .cls-36 {
        fill: #cc9860;
      }

      .cls-37 {
        fill: #3a3937;
      }

      .cls-38, .cls-63 {
        fill: #565551;
      }

      .cls-39 {
        fill: #141412;
      }

      .cls-40, .cls-73 {
        fill: #11100c;
      }

      .cls-41, .cls-74 {
        fill: #0a0a0a;
      }

      .cls-42 {
        fill: #111110;
      }

      .cls-43 {
        fill: #2d2d2d;
      }

      .cls-44 {
        fill: #44433e;
      }

      .cls-45 {
        fill: #7c7c7b;
      }

      .cls-46 {
        fill: #9c9f9a;
      }

      .cls-47 {
        fill: #4c4a47;
      }

      .cls-48 {
        fill: #abafa9;
      }

      .cls-49 {
        fill: #5b5b5a;
      }

      .cls-50, .cls-75 {
        fill: #4f4f4e;
      }

      .cls-51 {
        fill: #7f7f7e;
      }

      .cls-52 {
        fill: #594a4c;
      }

      .cls-53 {
        fill: #727272;
      }

      .cls-54 {
        fill: #838482;
      }

      .cls-55 {
        fill: #444442;
      }

      .cls-56 {
        fill: #474746;
      }

      .cls-57 {
        fill: #929292;
      }

      .cls-58 {
        fill: #6d6d6d;
      }

      .cls-59 {
        fill: #3f3f3f;
      }

      .cls-60 {
        fill: #8f918f;
      }

      .cls-61 {
        fill: #191919;
      }

      .cls-62 {
        fill: #232323;
      }

      .cls-64 {
        fill: #b5b5b4;
      }

      .cls-65 {
        fill: #454441;
      }

      .cls-66 {
        fill: #85816e;
      }

      .cls-67 {
        fill: #d1d0bd;
      }

      .cls-68 {
        fill: #888988;
      }

      .cls-69 {
        fill: #70706f;
      }

      .cls-70 {
        fill: #a7aaa5;
      }

      .cls-71 {
        fill: #09a53f;
      }

      .cls-72 {
        fill: #b58454;
      }

      .cls-73 {
        opacity: 0.57;
      }

      .cls-74 {
        opacity: 0.25;
      }

      .cls-75 {
        opacity: 0.4;
      }

      .cls-76 {
        fill: #368931;
      }
    </style>
    <clipPath id="clip-path">
      <rect class="cls-1" x="-1050" width="800" height="900" transform="translate(-1300 900) rotate(180)"/>
    </clipPath>
    <clipPath id="clip-path-2">
      <rect class="cls-1" x="-1460" width="1600" height="900"/>
    </clipPath>
    <linearGradient id="linear-gradient" x1="-662.33" y1="-99.5" x2="-662.33" y2="369.32" gradientUnits="userSpaceOnUse">
      <stop offset="0.01" stop-color="#81a9ff"/>
      <stop offset="0.06" stop-color="#8eb1ff"/>
      <stop offset="0.19" stop-color="#a8c2ff"/>
      <stop offset="0.33" stop-color="#bdd0ff"/>
      <stop offset="0.49" stop-color="#cbd9ff"/>
      <stop offset="0.68" stop-color="#d3deff"/>
      <stop offset="1" stop-color="#d6e0ff"/>
    </linearGradient>
    <linearGradient id="linear-gradient-2" x1="-901.88" y1="-20.32" x2="-452.26" y2="758.43" gradientUnits="userSpaceOnUse">
      <stop offset="0.02" stop-color="#6ba688"/>
      <stop offset="0.59" stop-color="#4c7d7d"/>
      <stop offset="0.7" stop-color="#49797c"/>
      <stop offset="0.82" stop-color="#406c79"/>
      <stop offset="0.93" stop-color="#305673"/>
      <stop offset="1" stop-color="#25476f"/>
    </linearGradient>
    <linearGradient id="linear-gradient-3" x1="103.11" y1="668.28" x2="103.13" y2="668.28" gradientUnits="userSpaceOnUse">
      <stop offset="0.03" stop-color="#8bc259"/>
      <stop offset="0.21" stop-color="#77b055"/>
      <stop offset="0.53" stop-color="#5a944e"/>
      <stop offset="0.8" stop-color="#478349"/>
      <stop offset="1" stop-color="#417d48"/>
    </linearGradient>
    <linearGradient id="linear-gradient-4" x1="-575.4" y1="682" x2="434.64" y2="682" xlink:href="#linear-gradient-3"/>
    <linearGradient id="linear-gradient-5" x1="-1250.05" y1="1459.82" x2="-240.01" y2="1459.82" gradientTransform="matrix(1.58, 0, 0, 1.23, 569.82, -1283.32)" xlink:href="#linear-gradient-3"/>
    <clipPath id="clip-path-3">
      <rect class="cls-1" width="1600" height="900"/>
    </clipPath>
    <clipPath id="clip-path-4">
      <rect class="cls-1" y="-0.31" width="1600" height="900.62"/>
    </clipPath>
    <linearGradient id="linear-gradient-6" x1="-669.35" y1="465.98" x2="955.06" y2="465.98" gradientUnits="userSpaceOnUse">
      <stop offset="0.15" stop-color="#9af460"/>
      <stop offset="0.39" stop-color="#8aea6b"/>
      <stop offset="0.86" stop-color="#61d088"/>
      <stop offset="0.9" stop-color="#5dce8b"/>
    </linearGradient>
    <linearGradient id="linear-gradient-7" x1="792.25" y1="913.49" x2="787.93" y2="-476.96" gradientUnits="userSpaceOnUse">
      <stop offset="0.32" stop-color="#bdfffd"/>
      <stop offset="0.44" stop-color="#b7fafb"/>
      <stop offset="0.59" stop-color="#a7edf7"/>
      <stop offset="0.76" stop-color="#8cd7ef"/>
      <stop offset="0.93" stop-color="#68bae5"/>
    </linearGradient>
    <linearGradient id="linear-gradient-8" x1="-4939.85" y1="371.16" x2="-4921.53" y2="320.81" gradientTransform="matrix(-1, 0, 0, 1, -4915.44, 0)" gradientUnits="userSpaceOnUse">
      <stop offset="0.16" stop-color="#129ea2"/>
      <stop offset="0.16" stop-color="#149fa3"/>
      <stop offset="0.25" stop-color="#37b4b1"/>
      <stop offset="0.34" stop-color="#54c5bc"/>
      <stop offset="0.43" stop-color="#6ad2c5"/>
      <stop offset="0.53" stop-color="#7adccb"/>
      <stop offset="0.65" stop-color="#83e1cf"/>
      <stop offset="0.81" stop-color="#86e3d0"/>
    </linearGradient>
    <linearGradient id="linear-gradient-9" x1="-6361.47" y1="628.15" x2="-6370.35" y2="173.61" gradientTransform="matrix(-1, 0, 0, 1, -6112.73, 0)" gradientUnits="userSpaceOnUse">
      <stop offset="0" stop-color="#907d61"/>
      <stop offset="0.36" stop-color="#6d6b4d"/>
      <stop offset="0.58" stop-color="#5e6345"/>
    </linearGradient>
    <linearGradient id="linear-gradient-10" x1="-6212.8" y1="268.24" x2="-6476.84" y2="-357.37" gradientTransform="matrix(-1, 0, 0, 1, -6112.73, 0)" gradientUnits="userSpaceOnUse">
      <stop offset="0.26" stop-color="#55b093"/>
      <stop offset="0.39" stop-color="#61c489"/>
      <stop offset="0.56" stop-color="#6ddb7d"/>
      <stop offset="0.68" stop-color="#72e379"/>
    </linearGradient>
    <linearGradient id="linear-gradient-11" x1="-6562.16" y1="277.56" x2="-6641.73" y2="-8.28" xlink:href="#linear-gradient-10"/>
    <linearGradient id="linear-gradient-12" x1="-6232.25" y1="356.78" x2="-6354.01" y2="-62.29" gradientTransform="matrix(-1, 0, 0, 1, -6112.73, 0)" gradientUnits="userSpaceOnUse">
      <stop offset="0.07" stop-color="#39a57e"/>
      <stop offset="0.67" stop-color="#72e379"/>
    </linearGradient>
  </defs>
  <g class="cls-2">
    <g id="Layer_1" data-name="Layer 1">
      <g id="SC_05">
        <g class="cls-3">
          <g class="cls-4">
            <rect class="cls-5" x="-1468.99" y="-99.5" width="1613.31" height="468.82"/>
            <path class="cls-6" d="M-387.93,208c227.79-60.24,675,53.54,913.93-8V147.76C358.31,257.52-91.43,130.36-387.93,208Z"/>
            <path class="cls-7" d="M-571.93,128.31c227.79-60.23,675,53.54,913.93-8V68.08C174.31,177.84-275.43,50.68-571.93,128.31Z"/>
            <rect class="cls-8" x="-1474.8" y="366.03" width="1618.8" height="543.17"/>
            <path class="cls-9" d="M-1709.65,332.66s169.17,17.15,421.41-25.22a133.62,133.62,0,0,1,29.51-1.49c33.23,2,110.45,7.18,143.76,14.63l94.28-5.89a256.2,256.2,0,0,1,40.65.69l53.2,5.2,397.4-28.68a459.47,459.47,0,0,1,59.61-.39c42.07,2.48,114.51,6.64,120.14,6.2,8-.61,106.22-8.49,137.11-10.42,29.11-1.81,357.13,11,357.13,11l9.56,71.12-1863.76,8Z"/>
            <path class="cls-10" d="M-1494.94,322.08s100.67,64.28,640.94,46.15c543.12-11.54,416.3-79.11,994.8-46.15V416H-1494.94Z"/>
            <g class="cls-11">
              <path class="cls-12" d="M103.13,668.28h0Z"/>
              <path class="cls-13" d="M-547.91,691.9c46.74,3.37,62.23,9.42,61,10.18s17.28,10.44,87.95,3.27c18-1.83,31.08-2.59,40.76-2.71,24,3.17,32.49,6.71,31.54,7.28-1.26.76,17.28,10.44,87.95,3.27s64.76,2,79.79,2.54,55.19-2.64,55.19-2.64l-.11-2.14c73.41-7.31,65.46,1.89,81.09,2.41,15,.49,55.2-2.64,55.2-2.64l-.67-13.3c10.16,2.1,13.94,3.89,13.29,4.28-1.27.75,17.27,10.44,88,3.27,27.42-2.79,43.31-3.1,53.37-2.42,11.79,2.29,16.14,4.3,15.44,4.71-1.26.76,17.28,10.45,87.95,3.27s64.76,2.05,79.79,2.54,55.19-2.63,55.19-2.63l-1.46-29.09s5.89-14,10.26-14-4.58-2.64-19,9.11c0,0-6.05-10.82-14.57-13.62,0,0,10.75,8.7,1.08,15.9,0,0-3.52-15.86-25.86-25,0,0,20.84,17,13.23,23.83,0,0-4.83-5.68-7.94-7.57,0,0,5.3,9.46.33,11.36,0,0-16.55-16.92-18.95-20.2,0,0,10.29,16.42,6.81,20.21,0,0-9.64-7.57-12.64-10.6,0,0,3.72,10,1.89,9.09-3.22-1.51-8.67-11.47-23.56-14.56,0,0,15.76,7.37,13.64,12.67,0,0-8.76-6.81-13.72-8.7,0,0,7.39,5.3,4.85,7.57,0,0-18.49-16.89-32.45-18.84,0,0,18.25,10.42,16.28,15.78l-3.21,4.59s-3.67-3.78-6.11-6.81c0,0-2-.71-1.38,3.81,1.63,12.44.62-3.66-13.29-12.79,0,0,11.44,14.66,5.12,18.83,0,0-16-12.48-23.32-21.19,0,0,7.71,9.2,3,17.45-1.31-2.3-9.48-9.45-9.92-14.28a4.63,4.63,0,0,1,3-1.66c4.37,0-4.58-2.64-19,9.11,0,0-6.05-10.82-14.56-13.62,0,0,8,6.49,4,12.9-8.55-7.71-2.48-5.57-2.79,2.93-.4.3-3.06-15.56-26-24.88,0,0,20.84,17,13.23,23.83,0,0-4.83-5.68-7.94-7.57a24.35,24.35,0,0,1,2.09,5.21c-.41,1.52-1,3.74-1.83,6.08-.58-.59-4.9-5-9.29-9.63.71-5.26,1.8-10.45,3.17-12.24,0,0-3.21,4.1-6.57,8.66-9.73-10.36-6.27-8.57-1.41,1.91-1.62,2.24-3.19,4.47-4.33,6.26-7.12-5.87-6.44-6-6.12-5.05a11.14,11.14,0,0,0-3.57-3.83s4.34,5,2.87,10.51c-3.55-3.47-9.42-10.15-21.13-12.58,0,0,15.48,7.24,13.69,12.53-.37-.28-9.45-6.91-13.77-8.55a22,22,0,0,1,4.75,4.63,12.89,12.89,0,0,1,.16,2.88c-.15.14-18.35-16.81-32.51-18.79,0,0,18.26,10.42,16.28,15.78l-3.21,4.6s-3.67-3.79-6.11-6.82c0,0-2-.71-1.38,3.81,1.64,12.44.62-3.66-13.29-12.78,0,0,11.44,14.66,5.12,18.83,0,0-16-12.49-23.31-21.2,0,0,7.71,9.2,3,17.45-1.32-2.3-10.08-10-9.94-14.69,0,0-4,10.51-.35,18.46,0,0-1.77-3.88-13.54-7.61.22.08,1.87.91,2.33,7.62,0,0-14.18-9.08-19.67-16.08,0,0,4.26,5.86-.31,16.09,0,0-15.57-1.48-16-13.8,0,0-4.06,16.47-7.85,18.74,0,0-.47-8.05.24-12.55s-3.45,4.6-4.6,5.74.53-21.55,3.74-25.74c0,0-13.42,17.15-14.13,20.2,0,0-4.17-10.36-7.87-12.25,0,0,4.65,5.4,2.68,11.1a17.51,17.51,0,0,0-5.24,1c-1.91-1.8-5.42-4.31-11.89-7.47,0,0,2.47,1.39-.25,12.75,0,0-9.31-2.66-11.63-11.74-1.85,5.11.92,3.13-5.1,1.15a17.93,17.93,0,0,1,3.77,4.5,15.78,15.78,0,0,0,.57,7.75,9.61,9.61,0,0,1-.63,1l-3.47.14c-2-4.82-8.11-15.59-25-22.48,0,0,19.4,15.83,13.93,23.07l-1.29.09c-1.38-1.56-4.9-5.41-7.35-6.9a21.26,21.26,0,0,1,2.44,7.25c-1.89.15-3.79.32-5.63.5-5-5.16-13.73-14.27-15.42-16.58,0,0,7.26,11.58,7.52,17.53-1.21.19-2.33.38-3.34.59-3.08-2.47-8-6.5-10-8.51,0,0,3.71,9.94,1.89,9.08-3.22-1.51-8.68-11.47-23.57-14.56,0,0,15.77,7.37,13.64,12.68,0,0-8.76-6.81-13.72-8.7,0,0,7.39,5.29,4.85,7.57,0,0-18.49-16.9-32.45-18.85,0,0,18.26,10.42,16.28,15.78l-3.21,4.6s-3.67-3.79-6.11-6.82c0,0-2-.71-1.38,3.81,1.64,12.44.62-3.66-13.29-12.78,0,0,11.44,14.66,5.12,18.83,0,0-5-3.91-10.71-8.88,1.35-1.69,2.75-2.87,4-2.87,2.79,0,.15-1.07-5.89,1.21-21.39-19.08-4.15-9.17-6.41,3.15-.89.53-1.82,1.13-2.77,1.78-1.89-2.17-8.62-8.86-8.5-12.83a34.09,34.09,0,0,0-1.71,7.69,22.09,22.09,0,0,0-8.32-5.51s7.33,5.94,4.44,12.06a43.5,43.5,0,0,0-6.26-2.71c-3.24-5.42-9.87-13.07-23-18.4,0,0,14.21,11.6,14.87,19.48-21.92-16.48-3.71-12-11.56,5.78-27.73-28.58-13.55-17.56-9.61-3.14-10.91-6.74-3-19.11-9-1.65-6.66-5.65-3-4.35-1.54,4.07-.21.5-.43,1-.65,1.45a19.12,19.12,0,0,1-3.16-2.81c.11-6.46,1.77-10-2.51-2.43-.62-.57-1.28-1.16-2-1.75.33-6.59,1.82-18.36,4-21.26,0,0-8,10.24-12,16.3a37.2,37.2,0,0,0-4.83-1.77c-1.49-2.75-3.4-5.66-5.19-6.58a15.22,15.22,0,0,1,2.93,6c-.85-.19-.76-.21,0,.18a9.44,9.44,0,0,1,0,4c-1-.47-.78-.37,0,.2a9.09,9.09,0,0,1-1.11,2.63c-6.52-5.16-17.84-13.1-27.14-14.4a84.54,84.54,0,0,1,11.8,8.26c.26,1.69.21,4.64-.95,9.76-1.21-1.31-2.7-3-3.89-4.45,0,0-1.62-.59-1.48,2.67a16,16,0,0,1-6.46-9.12c-1.66,4.6,1.23,2.69-6.73-2.53a50.93,50.93,0,0,1,5.33,8.7c-.31,2.73-.23,5.86,1.12,8.23l-3.54.14c-4.65-3.75-15.46-12.71-21.11-19.43,0,0,7.71,9.19,3,17.44-1.31-2.29-10.08-10-9.93-14.69,0,0-4,10.51-.36,18.46,0,0-1.44-3.15-10.34-6.51l-.08-1.43s5.89-14,10.26-14-4.57-2.63-19,9.12c0,0-6.05-10.83-14.56-13.63,0,0,7.41,6,4.39,12.17-2.56-2.75-1.27-2.07-.39.69a11.31,11.31,0,0,1-2.92,3s-3.53-15.86-25.86-25c0,0,20.84,17,13.22,23.83-1.59-1.87-5.49-6.08-7.93-7.57,0,0,5.3,9.47.32,11.37,0,0-2.67-2.74-6-6.23.7-5.65,1.86-11.51,3.33-13.45,0,0-3.59,4.6-7.16,9.46-16.2-17-6.85-9.81-2.46,3.4-1.12,1.59-2.14,3.09-2.93,4.34-1.52-1.22-3.38-2.73-5.11-4.19-1.33-2.23-2.87-4.31-4.34-5.06a14.92,14.92,0,0,1,1.85,2.93c-.77-.68-1.43-1.3-1.92-1.79,0,0,3.72,9.95,1.89,9.09-3.22-1.51-8.67-11.47-23.57-14.57,0,0,15.38,7.19,13.71,12.48-3.2-1.94-9.26-6.78-13.78-8.5,0,0,7.39,5.3,4.84,7.57,0,0-18.49-16.9-32.45-18.85,0,0,18.26,10.43,16.28,15.78l-3.2,4.6s-3.68-3.78-6.12-6.81c0,0-2-.72-1.37,3.81,1.63,12.44.62-3.67-13.3-12.79,0,0,11.44,14.66,5.12,18.83,0,0-16-12.48-23.31-21.19,0,0,7.71,9.2,3,17.44-1.31-2.29-10.08-10-9.93-14.69,0,0-4,10.51-.36,18.46,0,0-1.77-3.88-13.54-7.6.23.08,1.88.9,2.33,7.61,0,0-14.18-9.08-19.66-16.08,0,0,4.25,5.87-.31,16.1,0,0-15.58-1.49-16-13.81,0,0-4.06,16.47-7.85,18.75,0,0-.47-8.06.24-12.55s-3.45,4.6-4.6,5.73.54-21.55,3.74-25.73c0,0-13.41,17.15-14.12,20.2,0,0-4.17-10.36-7.88-12.25,0,0,7.33,8.5-.3,15.43,0,0,.08-3.82-14.15-10.75,0,0,2.47,1.38-.24,12.75,0,0-9.31-2.67-11.64-11.74,0,0-3.29,9.1-.27,14.4,0,0-36.85,1.16-43.16,4.57S-594.66,688.52-547.91,691.9Zm814.44-15.5c-.06-1.3,4-9.46,7-12.73-.8,2.44-3.2,11-.13,17.79C273.43,681.46,272.38,679.16,266.53,676.4ZM38.75,671.68a3.57,3.57,0,0,0-1-1.9c1.17-1.31,2.35-2.18,3.44-2.18h.43A10.59,10.59,0,0,1,38.75,671.68Zm-226.09.12a11.6,11.6,0,0,0-1.29,2.55s-.85-2.11-2.12-4.6C-189.71,670.33-188.52,671-187.34,671.8Z"/>
            </g>
            <g class="cls-14">
              <path class="cls-15" d="M-1368,535.4c73.82,3.94,98.25,11.33,96.25,12.27s27.24,12.8,138.89,3.62c28.49-2.34,49.1-3.34,64.39-3.53,37.91,3.79,51.28,8.12,49.78,8.83-2,.94,27.24,12.8,138.89,3.62s102.27,2.21,126,2.75,87.18-3.51,87.18-3.51l-.16-2.64c116-9.36,103.37,2,128.06,2.59,23.73.54,87.18-3.52,87.18-3.52l-1-16.4c16.05,2.54,22,4.73,21,5.21-2,.94,27.24,12.8,138.89,3.62,43.32-3.56,68.42-4,84.3-3.23,18.61,2.77,25.47,5.22,24.38,5.74-2,.94,27.23,12.8,138.88,3.62s102.27,2.22,126,2.76,87.17-3.52,87.17-3.52l-2.17-35.87s9.36-17.34,16.26-17.36-7.21-3.23-30.09,11.34c0,0-9.51-13.33-22.94-16.74,0,0,16.93,10.68,1.63,19.62,0,0-5.49-19.56-40.73-30.67,0,0,32.84,20.88,20.78,29.33,0,0-7.6-7-12.5-9.29,0,0,8.33,11.65.46,14,0,0-26.05-20.8-29.82-24.82,0,0,16.18,20.2,10.65,24.89,0,0-15.18-9.29-19.9-13,0,0,5.82,12.25,2.94,11.2C57.58,514.46,49,502.2,25.51,498.45c0,0,24.87,9,21.48,15.58,0,0-13.8-8.36-21.62-10.67,0,0,11.64,6.5,7.62,9.32,0,0-29.13-20.76-51.17-23.1,0,0,28.79,12.77,25.65,19.39l-5.09,5.68s-5.79-4.65-9.62-8.37c0,0-3.12-.87-2.2,4.7,2.53,15.34,1-4.52-20.93-15.71,0,0,18,18,8,23.21,0,0-25.19-15.33-36.71-26,0,0,12.13,11.31,4.63,21.5-2.06-2.82-14.93-11.6-15.59-17.56a8,8,0,0,1,4.67-2.06c6.9,0-7.21-3.24-30.1,11.33,0,0-9.5-13.33-22.93-16.74,0,0,12.62,8,6.22,15.89-13.47-9.46-3.9-6.86-4.43,3.63-.63.38-4.76-19.17-40.89-30.57,0,0,32.83,20.88,20.78,29.34,0,0-7.61-7-12.5-9.3a27,27,0,0,1,3.28,6.41c-.67,1.88-1.68,4.62-2.93,7.52-.91-.74-7.72-6.18-14.63-11.84,1.15-6.49,2.9-12.9,5.07-15.12,0,0-5.09,5.08-10.42,10.71-15.31-12.73-9.86-10.54-2.23,2.37-2.58,2.77-5.06,5.53-6.88,7.74-11.21-7.2-10.14-7.31-9.63-6.2-1.78-2.13-3.74-4-5.62-4.71,0,0,6.83,6.2,4.47,13-5.57-4.27-14.82-12.48-33.3-15.43,0,0,24.41,8.86,21.56,15.4-.59-.35-14.89-8.48-21.7-10.49,0,0,5.23,2.92,7.47,5.7a12.65,12.65,0,0,1,.24,3.55c-.24.17-28.9-20.66-51.26-23,0,0,28.79,12.77,25.64,19.39l-5.09,5.68s-5.78-4.65-9.62-8.37c0,0-3.11-.87-2.19,4.71,2.52,15.33,1-4.53-20.93-15.72,0,0,18,18,8,23.21,0,0-25.19-15.33-36.72-26,0,0,12.14,11.31,4.64,21.5-2.07-2.83-15.87-12.33-15.62-18.08,0,0-6.32,13-.64,22.78,0,0-2.78-4.78-21.35-9.32.35.1,3,1.11,3.64,9.38,0,0-22.36-11.13-31-19.74,0,0,6.69,7.22-.57,19.86,0,0-24.59-1.76-25.14-17,0,0-6.5,20.33-12.49,23.15,0,0-.71-9.93.44-15.48s-5.48,5.69-7.3,7.1.95-26.59,6-31.77c0,0-21.26,21.22-22.4,25,0,0-6.54-12.76-12.38-15.08,0,0,7.32,6.65,4.18,13.68a34.64,34.64,0,0,0-8.28,1.32c-3-2.21-8.53-5.29-18.74-9.15,0,0,3.89,1.69-.45,15.73,0,0-14.69-3.25-18.32-14.43-2.94,6.31,1.44,3.85-8.06,1.44a24.38,24.38,0,0,1,5.93,5.53c-.55,3.07-.62,6.63.87,9.55a10.41,10.41,0,0,1-1,1.3l-5.48.18c-3.1-5.93-12.72-19.19-39.41-27.61,0,0,30.56,19.44,21.88,28.4l-2,.11c-2.17-1.92-7.72-6.65-11.58-8.48,0,0,3.47,4.86,3.82,8.94-3,.19-6,.4-8.89.63-7.86-6.34-21.62-17.53-24.28-20.37,0,0,11.41,14.25,11.79,21.59-1.91.23-3.68.48-5.28.74-4.85-3-12.63-8-15.77-10.45,0,0,5.82,12.25,2.94,11.2-5.07-1.85-13.64-14.11-37.15-17.86,0,0,24.87,9,21.48,15.58,0,0-13.8-8.36-21.62-10.67,0,0,11.65,6.5,7.62,9.32,0,0-29.12-20.76-51.16-23.1,0,0,28.79,12.77,25.64,19.39l-5.09,5.68s-5.78-4.65-9.62-8.37c0,0-3.11-.87-2.2,4.7,2.53,15.34,1-4.52-20.93-15.71,0,0,18,18,8,23.21,0,0-7.9-4.8-16.87-10.91,2.13-2.08,4.35-3.55,6.35-3.55,4.41,0,.24-1.32-9.3,1.52-33.69-23.43-6.52-11.3-10.14,3.91-1.41.67-2.87,1.4-4.39,2.22-3-2.68-13.56-10.9-13.35-15.8a35.13,35.13,0,0,0-2.75,9.5,36.3,36.3,0,0,0-13.1-6.76s11.54,7.29,6.95,14.86a79.53,79.53,0,0,0-9.87-3.31c-5.1-6.68-15.54-16.08-36.18-22.59,0,0,22.38,14.23,23.4,24-34.55-20.23-5.82-14.73-18.29,7.19-43.67-35.12-21.32-21.6-15.17-3.83-17.2-8.26-4.7-23.55-14.25-2-10.5-6.94-4.77-5.36-2.45,5-.34.62-.68,1.22-1,1.8a29.32,29.32,0,0,1-5-3.46c.21-8,2.85-12.34-3.94-3-1-.7-2-1.42-3.16-2.15.54-8.13,3-22.65,6.46-26.24,0,0-12.69,12.67-19,20.16a69.23,69.23,0,0,0-7.63-2.16c-2.34-3.39-5.33-7-8.17-8.09a17.55,17.55,0,0,1,4.61,7.39c-1.35-.23-1.2-.26.05.22a9.3,9.3,0,0,1,0,4.88c-1.66-.57-1.23-.45-.07.25a10.36,10.36,0,0,1-1.78,3.24c-10.26-6.32-28.1-16.07-42.8-17.63,0,0,11,4.86,18.61,10.14.4,2.07.3,5.72-1.55,12-1.91-1.61-4.25-3.65-6.13-5.48,0,0-2.55-.71-2.35,3.3-4-2.22-8.39-5.78-10.15-11.21-2.65,5.68,1.93,3.31-10.62-3.09a62.15,62.15,0,0,1,8.38,10.71c-.51,3.37-.39,7.23,1.73,10.15l-5.6.18c-7.31-4.6-24.34-15.61-33.24-23.87,0,0,12.14,11.31,4.64,21.51-2.06-2.83-15.87-12.34-15.62-18.08,0,0-6.32,13-.64,22.78,0,0-2.27-3.89-16.32-8l-.1-1.78s9.36-17.34,16.26-17.35-7.21-3.24-30.1,11.33c0,0-9.5-13.32-22.93-16.74,0,0,11.68,7.37,6.87,15-4-3.38-2-2.55-.61.85a16.52,16.52,0,0,1-4.63,3.78s-5.5-19.56-40.73-30.67c0,0,32.83,20.88,20.78,29.34-2.52-2.31-8.65-7.48-12.5-9.3,0,0,8.33,11.65.46,14,0,0-4.21-3.36-9.5-7.65,1.14-7,3-14.21,5.33-16.6,0,0-5.7,5.68-11.35,11.69-25.52-20.92-10.79-12.07-3.9,4.21-1.78,2-3.4,3.82-4.66,5.37-2.39-1.49-5.33-3.36-8.06-5.14-2.08-2.75-4.5-5.31-6.81-6.22a18.67,18.67,0,0,1,2.91,3.6c-1.22-.84-2.26-1.59-3-2.2,0,0,5.82,12.25,2.94,11.2-5.08-1.85-13.64-14.11-37.15-17.85,0,0,24.25,8.79,21.59,15.32-5-2.38-14.6-8.31-21.73-10.42,0,0,11.64,6.5,7.62,9.32,0,0-29.13-20.76-51.17-23.1,0,0,28.79,12.77,25.64,19.39l-5.09,5.69s-5.78-4.66-9.62-8.38c0,0-3.11-.87-2.19,4.71,2.52,15.33,1-4.52-20.93-15.71,0,0,18,18,8,23.2,0,0-25.19-15.33-36.72-26,0,0,12.14,11.31,4.64,21.5-2.06-2.82-15.87-12.34-15.61-18.07,0,0-6.33,13-.65,22.77,0,0-2.78-4.78-21.35-9.32.35.1,3,1.11,3.64,9.39,0,0-22.36-11.14-31-19.75,0,0,6.69,7.22-.57,19.86,0,0-24.59-1.76-25.14-16.95,0,0-6.5,20.33-12.49,23.15,0,0-.7-9.93.44-15.48s-5.48,5.69-7.29,7.1.94-26.58,6-31.77c0,0-21.26,21.22-22.4,25,0,0-6.53-12.76-12.38-15.08,0,0,11.53,10.47-.55,19,0,0,.14-4.71-22.29-13.19,0,0,3.89,1.7-.45,15.73,0,0-14.69-3.25-18.32-14.43,0,0-5.25,11.24-.5,17.76,0,0-58.21,1.61-68.19,5.85S-1441.79,531.46-1368,535.4Zm1286.37-23c-.1-1.6,6.32-11.68,11.16-15.73-1.27,3-5.1,13.63-.28,21.94C-70.72,518.65-72.37,515.82-81.6,512.44Zm-359.73-4.74s0-.81-1.53-2.35c1.84-1.61,3.72-2.69,5.44-2.7h.68A13.66,13.66,0,0,1-441.33,507.7Zm-357.06,1.21a12.84,12.84,0,0,0-2.05,3.16s-1.34-2.61-3.34-5.67C-802.14,507.11-800.27,508-798.39,508.91Z"/>
            </g>
          </g>
        </g>
      </g>
      <g class="cls-16">
        <g class="cls-17">
          <path class="cls-18" d="M954.86,382.7c-17.29-1.22-34.38-3.9-34.38-3.9-23.64-3.71-448.79,39-522.82,45.21-92.78,7.78-36.83,6.53-359.15-18.71-16.16-1.27-30-2.21-42.39-2.91,1.63,50.37,1.21,100.82-3.39,151H939.55s15.59-170.67,15.51-170.68Z"/>
          <path class="cls-19" d="M1529.24-9.61c-164.1,2.11-328.13,6.89-492.3,6.93a282.47,282.47,0,0,1-65.46-7.54Q894-8.69,816.47-7.65c-164.39,2.24-328.81,3.22-493.21,5A282.75,282.75,0,0,1,258.57-10c-44.76,2.92-89.49,6-134.32,8.28C81.42.42,38.45,2-4.54,2.09q-.25,6-.6,11.93c-1,17.27-2.54,34.53-4.45,51.77A53.46,53.46,0,0,1-3.74,93.68c0,23.46,1.31,46.91,2.84,70.35,2.79,42.91,6.39,85.84,5.5,128.8A461.3,461.3,0,0,1-.88,357.18c-.5,3.11-1,6.22-1.57,9.33.6,7.46,1.17,14.91,1.65,22.37H1588.59V-10.23Q1558.91-10,1529.24-9.61Z"/>
          <g>
            <path class="cls-20" d="M25.74,349.15a7.71,7.71,0,0,1-1.5,4.34,8.23,8.23,0,0,1-6.69,3l.13-6.95-2.41.1v3.85a5.07,5.07,0,0,1-3.08-.39,5.37,5.37,0,0,1-2.76-3.25l-1,0L9,351.79a3.73,3.73,0,0,1-2.77.4A4,4,0,0,1,3.73,350H3s.49,4.39,6.39,2.93c1.07,1.54,3.58,3.17,5.9,2.35-.13,4.78-.91,23.46-.91,23.46h2.72q.24-10.25.47-20.49A9.58,9.58,0,0,0,24,355.31,9.9,9.9,0,0,0,26.68,349Z"/>
            <path class="cls-21" d="M29,339.23S9.87,332-2.81,338.29q-.36,5.52-.82,11A23.27,23.27,0,0,0,3,350c11.11-.11,24.72-1,24.72-1S42.78,346.64,29,339.23Z"/>
            <path class="cls-20" d="M373.34,345.91q-6.84,1-11.49,17.37c-2.41-4.78-8.09-8-14.51-8.35a19.21,19.21,0,0,0-14.88,5.84,14.76,14.76,0,0,0-6.95-12.35c-6.77-4.36-17.35-4.47-25.65.09-2.24-8.09-10.51-14.18-20.31-15.17-11.58-1.17-23.22,5-26.45,14.66-10.83-8.79-27.17-9.83-37.13-3.75-10.71,6.53-9.2,18.35-9.1,19-7.66-7.38-20.18-10.44-31.53-7.75C165,358,157.17,364.86,155,373.32c-6.32-4.38-15.08-4.81-20.69-1.52a11.58,11.58,0,0,0-5.77,9.68A23.78,23.78,0,0,0,117,383.23a16.18,16.18,0,0,0-9,8.84c.51-14.09-14.44-14.26-23-9.87,6.14-9.41-16-33.27-37.41-10.88a20.41,20.41,0,0,0-13.43-7.74c-9.06-1.13-19.08,3.86-22.91,12.46a48,48,0,0,0-16.49-6.4Q-4.08,393-3.48,416.37l280.59,11.2,110,1,29-6Q389,343.7,373.34,345.91Z"/>
            <path class="cls-20" d="M816.11,385.57c1.19-10.05,2.08-29.59-8.05-44.14a45.65,45.65,0,0,0-3.95-4.86c-1.42-1.52-18.44-19.34-31.77-13.66-8.32,3.55-10.88,14.41-11.49,17.37-2.41-4.78-8.09-8-14.51-8.35a19.21,19.21,0,0,0-14.88,5.84,14.76,14.76,0,0,0-7-12.35c-6.77-4.36-17.35-4.47-25.65.09-2.24-8.09-10.51-14.18-20.31-15.17-11.58-1.17-23.22,5-26.45,14.66-10.83-8.79-27.17-9.83-37.13-3.75-10.71,6.53-9.2,18.35-9.1,19-7.66-7.38-20.18-10.44-31.53-7.75C564,335,556.17,341.86,554,350.32c-6.32-4.38-15.08-4.81-20.69-1.52a11.58,11.58,0,0,0-5.77,9.68A23.78,23.78,0,0,0,516,360.23a16.18,16.18,0,0,0-9,8.84c.51-14.09-14.44-14.26-23-9.87,6.14-9.41-16-33.27-37.41-10.88a20.41,20.41,0,0,0-13.43-7.74c-9.06-1.13-19.08,3.86-22.91,12.46a48.22,48.22,0,0,0-21.91-7.11c-2-.15-21.21-1.38-28.59,7.53a16.29,16.29,0,0,0-3.21,7.32c-3.73,16.77-.25,39.72,1.54,49.79l3,17c96.74-3.06,192.57-19.23,289-27q67-5.4,134-10Z"/>
            <path class="cls-20" d="M1169.11,377.57c1.08-8.35,4.78-41.09-7-58.14a49.27,49.27,0,0,0-4-4.86c-1.42-1.52-18.44-19.34-31.77-13.66-8.32,3.55-10.88,14.41-11.49,17.37-2.41-4.78-8.09-8-14.51-8.35a19.21,19.21,0,0,0-14.88,5.84,14.76,14.76,0,0,0-7-12.35c-6.77-4.36-17.35-4.47-25.65.09-2.24-8.09-10.51-14.18-20.31-15.17-11.58-1.17-23.22,5-26.45,14.66-10.83-8.79-27.17-9.83-37.13-3.75-10.71,6.53-9.2,18.35-9.1,19-7.66-7.38-20.18-10.44-31.53-7.75C918,313,910.17,319.86,908,328.32c-6.32-4.38-15.08-4.81-20.69-1.52a11.58,11.58,0,0,0-5.77,9.68A23.78,23.78,0,0,0,870,338.23a16.18,16.18,0,0,0-9,8.84c.51-14.09-14.44-14.26-23-9.87,6.14-9.41-16-33.27-37.41-10.88a20.41,20.41,0,0,0-13.43-7.74c-9.06-1.13-19.08,3.86-22.91,12.46a48.22,48.22,0,0,0-21.91-7.11c-2-.15-21.21-1.38-28.59,7.53a16.29,16.29,0,0,0-3.21,7.32c-3.73,16.77-.25,39.72,1.54,49.79l-4,7c102.35-7.91,211.82-6.61,324-7,37.23-.13,71.9-5.78,108-5Z"/>
          </g>
          <path class="cls-22" d="M820.92,483s-3.71-39.91,18-44.85C839,438.19,836.15,475.84,820.92,483Z"/>
          <path class="cls-23" d="M449.09,637.57c0,1.84-25.63,3.34-57.18,3.34s-57.18-1.5-57.18-3.34,25.6-3.34,57.18-3.34S449.09,635.73,449.09,637.57Z"/>
          <path class="cls-24" d="M1048.34,489.76C657.87,474.3,96.46,486.29-3.49,488.63c-.84,30.14-2.85,60.24-6.48,90.23a105.91,105.91,0,0,1-9,42.9V861H1583l1-168,1.42-213.28S1354.72,501.89,1048.34,489.76Z"/>
          <path class="cls-25" d="M360.91,452.9c-39.92-4.52-68.78,15.92-75.4,20.88C229.33,470,213.76,509.19,235.42,518c0,0-46.7-17.28-90,6.74a65.25,65.25,0,0,0-15.82-5.08c-2.64,10.11-5.39,20.19-8.15,30.26l252.21.53,78.76-9.38a103.4,103.4,0,0,0-12.49-36.21C414.07,459.78,364.64,453.32,360.91,452.9Z"/>
          <path class="cls-26" d="M521.79,627.8c280.62,65.75,500.06,56.94,649.1,36.51,136.94-18.77,401.3-73,430.11,10,3.5,10.08,1.3,15.76,0,89-1,57.45-.55,104.21,0,134.69-533.33,0-1070.67,2-1604,2,0-94.87,4-191.73,4-286.6Z"/>
          <g>
            <path class="cls-27" d="M41.08,598.45c-.39-1,2.5-1.84,5.14-5.62,2.46-3.51,5-6.92,5.42-8.65,2.33-9,9.44-19.95,12.4-24,9.43-12.84,13.87-32.11,21.25-64.06a475.65,475.65,0,0,0,9.3-54.92c.53-31.88-3.84-55.91-12.86-69.77A376.83,376.83,0,0,1,56,324.13s-53,2.4-57.5,0-17.4-13.85-15.13-43.41l-.76-7.11,13.62,3.81S.43,303.93,17.87,306c20.8,2.87,44.57-9.89,41.08-28.57H74.06s-4.65,54.45,18.22,65.95c17,4.52,27.12-2.63,26.35-34.51L117.86,277,145,277s-1.55,33.89,0,35.94,13.57,23,26.35-20.13c10.86-30.4,4.66-15.76,4.66-15.76l14.72.34s-6.59,33.5-28.29,54.45c-14.34,20.13-14.73,53.81-3.87,65.73,11.62,11.91,31.39,18.48,46.5-52.18,10.08-46.83,12.79-68,12.79-68l20.93-.23s-8.53,55.91-7,65.77c1.94,11.09,2.71,45.19,48.44,30.81,109.66-31.47-16.47-77-.78-103.11,4.48-7.45,75.05,74,81.66,54,10.34-31.21,16-49.12,16-49.12l17-.45s.79,18.36-2.7,23.29c5.46.39,50.88-3.47,71.05-13.38,18-8.85,41.56-21.67,43.47-26.54,4.56-.19,18.47.19,23,0-3.55,9.06-9.41,12.66-13.76,16C498.55,287.31,463,304.24,402,312.71c-2,.28-9.86.89-14.44,2.12,0,.12-.24,1.88-.24,1.88s-2.41,46-57,68.15c-48.83,19.31-70.15,29.17-82.55,37s-20.93,16-19,42.73a221.4,221.4,0,0,1-3.49,63.88,216.39,216.39,0,0,1-26.74,68.81c-42,1.39-68.9,1.52-86.18,1.35-34.66-.33-54.38-2.13-64.75.41C47.47,599,41.59,599.79,41.08,598.45Z"/>
            <path class="cls-28" d="M88.27,482.23c10.73,4.57,29.91,12.82,40,23,37.09,37.68,11.85,87.23,9,92.62l-97.92,1.31A69.12,69.12,0,0,0,54,577.45C68.23,545.74,85.53,507.38,88.27,482.23Z"/>
            <path class="cls-29" d="M208.2,332.49s-18.15,71.23-32.38,70.71C190.54,410.48,218,390.73,208.2,332.49Z"/>
            <path class="cls-30" d="M480.57,113.14c-4.22-33-15.32-82.82-48.7-123.52C341.7-120.32,169-69.16,113.77-52.74-22.62-12.2-111,85-154.31,141.56l-21.47,18.15a1652.27,1652.27,0,0,0,342.71,31,1654.54,1654.54,0,0,0,298.23-31.53Z"/>
            <path class="cls-31" d="M479.35,113.74C475.18,82.87,464.2,36.26,431.17-1.81c-89.23-102.84-260.11-55-314.78-39.62C-18.57-3.51-106,87.41-148.87,140.33l-21.26,17a1727.44,1727.44,0,0,0,339.13,29,1727,1727,0,0,0,295.11-29.5Z"/>
            <path class="cls-30" d="M453.28,258.51c3.76,0,112.93-7.69,112.93-7.69s67.76-14.09,28.86-48.67a64.87,64.87,0,0,1-24.59-21c-7.75-11.32-5.68-16.88-10.62-27.3-15.66-33-68.18-44.27-68.18-44.27h0s-71.22-14.57-124.22,14c-5.91,3.19-8.82,4.91-11.07,7.88-24.52,32.36,51.72,127,51.72,127Z"/>
            <path class="cls-32" d="M398.63,262.56c3.64,0,206-4.05,206-4.05s36.67-5.55,16.2-39.66c-11.94-17.06-20.62-30.13-27.89-41.16-7.48-11.36-27.65-28.62-41.19-38.15-33.26-26.44-97.1-28.17-97.1-28.17h0s-68.79-14.62-120,14.07c-5.71,3.19-8.52,4.92-10.7,7.9-23.67,32.46,50,127.39,50,127.39Z"/>
            <path class="cls-30" d="M447.44,171.16s-62.13-51.76-127.27-72C249,68.66,154.83.67,40.59,32.13c-88.18,29.43-154.32,70-193.4,145.11-19,43.64-22.05,96.41,123.25,89.31l404.85.64S533.62,255.38,447.44,171.16Z"/>
            <path class="cls-33" d="M453.37,182.33s-62.85-52.62-128.74-73.25C252.65,78.13,157.36,9,41.8,41c-89.21,29.92-156.12,71.18-195.65,147.53-19.26,44.36-22.3,98,124.69,90.78l409.54.66S540.55,268,453.37,182.33Z"/>
            <path class="cls-29" d="M-17.47,279.32S-19.31,309-5.69,320.89c4.07,4.17,7.29,4.06,12.14,4.17a28.27,28.27,0,0,1-16.93-20.34c-3.37-15.65-3.69-25.4-3.69-25.4l-2.2,0Z"/>
            <path class="cls-29" d="M117.73,279.45c.54,5.39.93,21.64.71,25.28-.93,16-2,34.15-11.77,38.85a12.85,12.85,0,0,1-7.34,1l-3.7-.44c4.55,5.95,8.62,6.46,9.93,6.52,8.08.4,17.54-10.72,19.84-28.64A115,115,0,0,0,127,296.24c-.37-7.15-1.47-16.89-1.47-16.89h0Z"/>
          </g>
          <path class="cls-34" d="M126,622l-11,2L66,642c73,0,92,8,170,7,22.56-.29,37.32-14.82,56-20,114,21,242,37,352.3,48.09L767,676,581.53,656.36,430.12,627.64l-129-21.37L102.61,631.21"/>
          <polyline class="cls-35" points="552.68 483.04 691.49 286.29 828.39 286.29 863.39 354.28 872.81 381.16 806.28 398.92 757.55 477.82 675.57 488.86 691.49 456.19 552.68 483.04"/>
          <path class="cls-36" d="M955.83,641.75s-49.7-1.72-101.66,15.76-51.65,30.59-115.8,36.54-187.12,22.68-101.64,28.82,272.72,78,487.11,52.54C1269.7,758.12,1286.75,742.92,1326,735s69.84-6.37,85.75-5.9c47,1.38,108.75,1.31,192.22,0,1-2.31,24.89-58.58-.63-90s-98-34.39-154.87,20.8l-7.76-9.33Z"/>
          <g>
            <path class="cls-37" d="M1635.12,445.13q-4.83-329.94,3.2-660.13L1458-98.35l-113.3,70L1277.62,17,1128.47,85.68l-91,71.23-62.2-5.47-42.75,21.47L855.2,198.55l-27.48,72-37.08,61.64-93.1,126.62-8.9,46.49-15,9.83,20.46,164.76,184.69-22.78,378,6.79s99.39-32.18,106.73-47.06,148.79-5.45,148.79-5.45l122.92,73.66,3.45-62.25Q1636.42,534,1635.12,445.13Z"/>
            <path class="cls-38" d="M1530.3,220.26l111.23,55.52q-3.33,141.27-6.68,282.55-46.26-108.87-92.51-217.75Z"/>
            <path class="cls-39" d="M1015.3,313.76s95.67,31.17,108.1,44.69a103.25,103.25,0,0,1,18,26.91l38.53,13.44,22.65,46.53-70.66-45.58-89.77,81.94s-29.25,5.72-21,57.68-5.45,134-5.45,134l-54.63-1.15s-67.51,26.75-112.85-32-105.5-173-22.6-238.84S1015.3,313.76,1015.3,313.76Z"/>
            <path class="cls-40" d="M1085.65,552.69s62,36,71.38-52.81,45.55-54.55,45.55-54.55l-22.65-46.53-43.88-23.5s-120.79,87.9-126.74,135.11-2.55,162.73-2.55,162.73l90.6,1.87s28.71-50.41,31.26-65.33Z"/>
            <polygon class="cls-41" points="1202.58 445.33 1241.07 527.72 1239.82 607.29 1273.48 665.37 1279.85 685.61 1225.22 684.48 1091.63 681.72 1039.91 587.57 1067.79 482.22 1145.54 431.88 1179.59 420.55 1202.58 445.33"/>
            <path class="cls-42" d="M1016.45,308.37c-1.57,8.13-9.16,43.13-37.43,61.91a67.32,67.32,0,0,1-26.16,10.36l5.22,35.93L943,420.24q7.63,21.81,15.26,43.64L941.59,509l19.66.41,50.84,76.76s69,25.31-35.85-.74-103.5-21.61-103.5-21.61L835.48,416.69l51.71-89.24L1002,273.54l29.1,11.2Z"/>
            <path class="cls-43" d="M941.43,671.77l-194.41-4s-23.2-58.86-23-69.47.08-5.49.08-5.49L833.2,603.57S928.69,672.83,941.43,671.77Z"/>
            <path class="cls-38" d="M833.2,603.57s-16-51.12-10.1-56.3-97.93-24.39-97.93-24.39l-1.1,69.91Z"/>
            <path class="cls-44" d="M823.1,547.27s-5.93-27.61,6.41-58.06,39-32.55,47.52-61.56,26.77-84.35,62.78-94.22,75.49-19.67,75.49-19.67l15.32-18.25L1098,279.65l36.39-33.74-27.9,8.71-61.3-10.56-9.54,29-33.6,3.29-54.74,24.27-32.33-3.52,52.91-54.62L879,303l8.79,29.37s-46.09,62.16-98.22,67.34l-24.83-7.53s-48.23,93.58-39.56,130.72Z"/>
            <path class="cls-45" d="M764.73,392.16l73-76.76s32-11.28,50,17C887.78,332.35,812.07,429,764.73,392.16Z"/>
            <polygon class="cls-38" points="878.99 302.98 853.55 302.46 915.81 241.39 987.74 226.96 988.21 197.4 1037.29 165.63 1173.43 187.02 1148.71 214.37 1051.65 208.38 1024.45 235.68 985.8 234.88 967.84 242.47 878.99 302.98"/>
            <polygon class="cls-46" points="967.84 242.47 914.93 297.09 947.26 300.61 1002 276.34 1019.87 243.54 1051.65 208.38 967.84 242.47"/>
            <polygon class="cls-37" points="1002 276.34 1045.14 244.06 1101.76 237.28 1134.34 245.91 1115.88 263.02 1205.49 259.98 1205.69 247.38 1125.4 225.82 1037.53 224.01 1019.87 243.54 1002 276.34"/>
            <path class="cls-47" d="M1037.29,165.63s69.72-21.11,82.5-24.83S1225,156.24,1225,156.24L1173.43,187Z"/>
            <polyline class="cls-46" points="1021.86 305.94 1030.62 295.5 1090.7 278.17 1204.9 297.4 1302.95 335.63 1345.07 451.92 1340.07 475.7 1313.58 468.52 1276.69 366.27 1204.65 313.7 1121.3 318.72 1066.46 306.86 1015.29 313.76"/>
            <polygon class="cls-38" points="1148.71 214.37 1173.43 187.02 1224.97 156.24 1243.1 206.37 1206.19 215.55 1148.71 214.37"/>
            <polygon class="cls-48" points="1206.19 215.55 1223.65 239.79 1261.38 228.63 1301.33 241.4 1330.51 230.06 1268.88 188.99 1206.19 215.55"/>
            <polygon class="cls-46" points="1037.53 224.01 1125.4 225.82 1205.69 247.38 1213.12 247.54 1195.83 215.34 1051.65 208.38 1037.53 224.01"/>
            <polygon class="cls-46" points="1205.69 247.38 1363.65 299.74 1422.93 310.44 1413.63 263.05 1340.23 250.16 1299.98 255.97 1223.65 239.79 1205.69 247.38"/>
            <polygon class="cls-46" points="1107.65 270.66 1205.17 280.54 1205.49 259.98 1121.04 258.24 1107.65 270.66"/>
            <polygon class="cls-44" points="1097.95 279.65 1200.12 296.6 1222.87 289.65 1205.49 259.98 1205.17 280.54 1107.65 270.66 1097.95 279.65"/>
            <polygon class="cls-38" points="1206.19 215.55 1261.38 228.63 1301.33 241.4 1330.51 230.06 1340.23 250.16 1299.98 255.97 1213.12 247.54 1195.83 215.34 1206.19 215.55"/>
            <polyline class="cls-43" points="1194.55 296.48 1313.69 318.42 1357.49 397.78 1470.45 495.64 1395.11 506.02 1344.99 457.23 1302.95 335.63 1190.05 296.39"/>
            <path class="cls-38" d="M1205.69,247.38l158,52.36,23.92,97.34,83.43,64-.55,34.53-113-97.86-43.8-79.37L1267,311l-61.79-30.46Z"/>
            <polygon class="cls-46" points="1363.6 299.81 1422.89 310.44 1479.49 404.99 1426.3 381.29 1387.62 397.12 1363.6 299.81"/>
            <polygon class="cls-38" points="1015.29 313.76 1061.63 306.76 1112.75 318.54 1201.53 312.31 1201.09 340.39 1132.76 346.43 1015.29 313.76"/>
            <path class="cls-38" d="M1201.09,340.39l59,75.28,18.2,87.94,10.8,127.58,44.73,29.21-13.29-116.12-6.89-77.09-36.91-100.92-75.16-54S1201.09,340.63,1201.09,340.39Z"/>
            <path class="cls-43" d="M1313.6,467.19s14.78,26.84,23.08,8.44l8.31-18.4,20.58,25.59L1333.78,660.4Z"/>
            <path class="cls-49" d="M1015.3,313.76l-49.85,80.61-63,32.48-15.81-24.3s11.17-49.3,36.22-60.46S1015.3,313.76,1015.3,313.76Z"/>
            <path class="cls-50" d="M902.48,426.85l-30.07,68.37-26.76-.56,22,13.73,4.77,56.76-23.18,11,23,.47,69.18,95.11L828.31,603.09,818.1,546s-4.61-46.29,17.69-68.59,36.87-39.38,36.87-39.38l14-35.5Z"/>
            <path class="cls-51" d="M1015.3,313.76s101.37,36.59,108.1,44.69,12.65,16.85,12.65,16.85l65-34.91-68.33,6-110.11-33.78Z"/>
            <polygon class="cls-44" points="1136.05 375.3 1179.93 398.8 1209.78 460.73 1260.05 415.67 1228.89 375.89 1201.09 340.39 1136.05 375.3"/>
            <path class="cls-38" d="M1132.76,346.43l22.2,21.3,38.27,13,38.08,60.68,23.83,65.69q3.54,47.79,7.07,95.57l32.25,52.51,13.45,31-28.06-.58-40-78.32,1.25-79.57q-30.75-53.58-61.48-107.17l-15.89-27.41-27.65-17.84Z"/>
            <polygon class="cls-43" points="1231.32 441.42 1260.05 415.67 1277.17 498.37 1289.05 631.19 1262.21 602.68 1258.46 516.85 1231.32 441.42"/>
            <polygon class="cls-52" points="1262.21 602.68 1294.46 655.18 1307.91 686.19 1333.78 660.4 1287.46 627.47 1262.21 602.68"/>
            <polygon class="cls-52" points="671.2 666.18 724.07 592.79 747.02 667.75 671.2 666.18"/>
            <path class="cls-53" d="M764.73,392.16l-52,43.47L673.56,516q-1.17,75.1-2.36,150.19l52.87-73.39,1.1-69.91S742.88,415.59,764.73,392.16Z"/>
            <path class="cls-54" d="M764.73,392.16l73-76.76,78.08-74-53.72,11.49-74.68,62.8-.63,16.15-21.19,5.66-52.84,98.14Z"/>
            <path class="cls-48" d="M1478.06,495.8l16,43,38.66.8,27.62,39.81,90.07,41.09L1713,612l-89.43-70.74-40.47-.84-26.12-31Z"/>
            <polygon class="cls-38" points="1494.07 538.77 1491.63 693.76 1528.79 694.52 1520.21 578.54 1532.72 539.57 1494.07 538.77"/>
            <polygon class="cls-38" points="1532.72 539.57 1560.35 579.38 1650.41 620.47 1617.45 709.62 1546.63 694.89 1532.72 539.57"/>
            <polygon class="cls-48" points="1479.25 420.2 1564.88 480.35 1683.01 511.98 1658.72 470.01 1521.4 407.81 1479.25 420.2"/>
            <polygon class="cls-38" points="1479.25 420.2 1564.88 480.35 1556.98 509.37 1534.47 522.8 1499.19 496.24 1470.45 495.64 1479.25 420.2"/>
            <path class="cls-55" d="M1564.88,480.35l28.13,7.53q-.37,29.69-.77,59.37l-9.14-6.83-26.12-31Z"/>
            <polygon class="cls-44" points="1593.01 487.88 1683.01 511.98 1657.54 561.92 1623.57 541.26 1592.08 547.24 1593.01 487.88"/>
            <polygon class="cls-51" points="1365.57 482.82 1349.07 575.01 1426.09 606.07 1494.07 538.77 1478.06 495.8 1395.11 506.02 1344.99 457.23 1365.57 482.82"/>
            <polygon class="cls-50" points="1349.07 575.01 1333.78 660.4 1333.31 690.48 1435.14 692.59 1426.09 606.07 1349.07 575.01"/>
            <polygon class="cls-43" points="1426.09 606.07 1494.07 538.58 1491.63 693.76 1435.14 692.59 1426.09 606.07"/>
            <polygon class="cls-44" points="1532.22 539.37 1520.21 578.54 1528.79 694.52 1546.63 694.89 1532.22 539.37"/>
            <polygon class="cls-48" points="1387.62 397.12 1426.3 381.29 1479.49 404.99 1521.4 407.81 1479.25 420.2 1471 461.11 1387.62 397.12"/>
            <polygon class="cls-38" points="1422.89 310.44 1523.79 340.19 1521.4 407.81 1479.49 404.99 1422.89 310.44"/>
            <polygon class="cls-44" points="1523.79 340.19 1594.89 368.2 1594.12 417.17 1658.72 470.01 1521.4 407.81 1523.79 340.19"/>
            <polygon class="cls-46" points="1413.63 263.05 1523.42 279.25 1594.89 368.2 1523.79 340.19 1422.89 310.44 1413.63 263.05"/>
            <polygon class="cls-38" points="1523.42 279.25 1523.79 340.19 1594.89 368.2 1523.42 279.25"/>
            <polygon class="cls-48" points="1340.23 250.16 1382.04 215.21 1457.67 204.97 1530.3 220.26 1489.75 245.3 1456.66 269.4 1340.23 250.16"/>
            <path class="cls-56" d="M1530.3,220.26l12.62,83.26-19.5-24.27-66.76-9.85S1518.66,224.67,1530.3,220.26Z"/>
            <g>
              <path class="cls-44" d="M1415,628.28l34.65,18.31q9.7,39.78,19.4,79.56c-.16-.06-14.47-4.7-28.59-10.49-10.32-4.23-15.48-6.34-17.12-8-2.65-2.73-7.58-9.22-9-40.86A327.6,327.6,0,0,1,1415,628.28Z"/>
              <path class="cls-38" d="M1445.35,646.5s1.08-7.68,25.91-1.67,40.09,10.73,40.09,10.73l48.72,10.51-5.82,65.14L1469,726.15Z"/>
              <path class="cls-44" d="M1560.07,666.07l27.1-16.64-10.36,49.26-5.26,13.09q-8.65,9.71-17.3,19.43Z"/>
              <path class="cls-57" d="M1415.91,629.4a144.46,144.46,0,0,1,57.82-19.7c13.29-1.48,41.61-4.25,71,10.88l42.43,28.85h0l-27.1,16.64c-13.12-1.92-27.2-4.56-42-8.18-13.22-3.21-25.6-6.84-37.07-10.66-19.42-1.86-33.62-2.92-34.08-2.75-1,.37-.93.42-1.49.62C1439.81,647.12,1430.9,645.11,1415.91,629.4Z"/>
            </g>
            <g>
              <path class="cls-44" d="M1255.69,618.32a73.74,73.74,0,0,1,26.9,27.88c17.35,31.27,8.34,65.54,6.83,71l-31.57-11.78a289.19,289.19,0,0,1-2.16-87.06Z"/>
              <polygon class="cls-44" points="1257.97 697.29 1256.42 684.1 1275.11 652.65 1257.97 697.29"/>
              <path class="cls-38" d="M1287.8,651.36l67.93-.62,21.5-3.6,12,58.93-.3,19.22c-5.23.34-12.86.87-22.07,1.57-19.86,1.5-29.78,2.26-41.52,3.68-8.88,1.08-21.3,2.85-36.26,5.84"/>
              <path class="cls-46" d="M1269.4,612.18q-10.55,1.73-11.91,6.74-2.67,9.87,30.31,32.44l6.18.13,21.17-.57,40.57.83,40.83-16.35-5.28-1.12L1316,599.33Z"/>
              <path class="cls-44" d="M1377,647.13l19.59-11.73-4.39,54.54q-2,16.34-4,32.68L1386.59,708Z"/>
              <path class="cls-44" d="M1256.56,703.34l32.55,33q.15-10.61.28-21.21Z"/>
            </g>
            <polygon class="cls-46" points="1225.52 186.1 1296.49 157.72 1457.67 204.97 1382.04 215.21 1340.23 250.16 1330.51 230.06 1278.21 195.21 1243.1 206.37 1225.52 186.1"/>
            <path class="cls-46" d="M1403.2,212.35s62.86-57.62,103.69-64.14S1585.67,177,1585.67,177l-55.37,43.3Z"/>
            <polygon class="cls-44" points="1585.67 176.97 1641.53 275.78 1530.3 220.26 1585.67 176.97"/>
            <polygon class="cls-50" points="787.41 315.69 786.78 331.83 765.59 337.49 787.41 315.69"/>
            <polygon class="cls-50" points="673.56 515.99 688.34 522.12 673.31 532.18 673.56 515.99"/>
            <polygon class="cls-35" points="1015.29 313.76 1123.4 358.45 1136.05 375.3 1132.76 346.43 1030.37 308.77 1015.29 313.76"/>
            <path class="cls-38" d="M965.45,394.37s50.69-34.16,57.48-38S1083.7,342,1083.7,342l-68.4-28.28Z"/>
            <path class="cls-50" d="M1015.19,320.39l-54.32,73.88-46.71-48.18S1007.58,321.46,1015.19,320.39Z"/>
            <polygon class="cls-43" points="687.27 600.56 673.37 621.66 671.15 653.38 685.8 619.2 687.27 600.56"/>
            <polygon class="cls-43" points="741.21 586.45 771.9 604.31 765.13 630.88 766.82 603.2 741.21 586.45"/>
            <path class="cls-43" d="M724.3,583.27s-38.35,7.22-43,11.29-17.63,17.07-17.63,17.07,16.6-15.18,20-16S724.3,583.27,724.3,583.27Z"/>
            <polygon class="cls-58" points="888.44 458.79 872.41 495.22 845.65 494.67 866.85 489.13 888.44 458.79"/>
            <polygon class="cls-46" points="853.55 302.46 869.74 305.45 884.05 317.68 891.01 294.79 878.99 302.98 853.55 302.46"/>
            <polygon class="cls-38" points="1037.29 165.63 988.21 197.4 975.08 160.06 1037.29 165.63"/>
            <polygon class="cls-38" points="987.74 226.96 949 189.77 978.49 227.29 987.74 226.96"/>
            <polygon class="cls-38" points="1276.69 366.27 1302.95 335.63 1279.49 374.02 1276.69 366.27"/>
            <polygon class="cls-44" points="1279.67 507.9 1313.6 467.19 1277.17 498.37 1279.67 507.9"/>
            <polygon class="cls-44" points="1201.09 340.39 1201.53 312.31 1211.54 353.73 1201.09 340.39"/>
            <path class="cls-59" d="M1294,651.49l-5.58,21.33,26.75-21.9Z"/>
            <polygon class="cls-59" points="1346.81 635.58 1376.96 647.13 1380.57 669.97 1380.97 644.73 1346.81 635.58"/>
            <polygon class="cls-59" points="1479.27 628.34 1446.87 644.48 1454.19 676.25 1454.45 646.68 1479.27 628.34"/>
            <polygon class="cls-59" points="1528.76 636.62 1560.07 666.07 1556.62 704.67 1552.7 664.93 1528.76 636.62"/>
            <polygon class="cls-38" points="1395.11 506.02 1349.07 575.01 1365.57 482.82 1395.11 506.02"/>
            <polygon class="cls-57" points="1395.11 506.02 1494.07 538.58 1478.06 495.8 1395.11 506.02"/>
            <path class="cls-57" d="M1534.47,522.8l25.87,56.58,31.74-32.14L1557,509.37Z"/>
            <polygon class="cls-56" points="1061.63 306.76 1090.7 278.17 1075.94 306.77 1061.63 306.76"/>
            <path class="cls-56" d="M764.73,392.16l107.93,45.89-43.15,51.16L818.1,546l-92.93-23.14S746.39,413,764.73,392.16Z"/>
            <polygon class="cls-51" points="1320.89 285.56 1363.6 299.81 1368.92 319.79 1375.87 300.23 1320.89 285.56"/>
            <polygon class="cls-38" points="1371.41 584.02 1406.19 547.33 1377.95 584.15 1377.58 607.65 1371.41 584.02"/>
            <polygon class="cls-38" points="1422.89 310.44 1426.3 381.29 1411.68 387.27 1422.89 310.44"/>
            <polygon class="cls-37" points="1225.52 186.1 1243.1 206.37 1218.36 210.4 1225.52 186.1"/>
            <path class="cls-38" d="M1331.76,604.72s-40.59,1-33.58,15.21,28.31,15.23,28.31,15.23-25.27-10.69-22.56-15.11S1319.77,599.66,1331.76,604.72Z"/>
            <polygon class="cls-38" points="1291.59 238.29 1281.48 223.93 1308.44 238.64 1303.14 249.4 1291.59 238.29"/>
            <path class="cls-58" d="M818.1,546l-49.27,33.47,32.47,5.45q6.72,9.12,13.42,18.25l13.59-.1Z"/>
            <path class="cls-60" d="M818.1,546l-49.27,33.47-39.26-14.41q-2.19-21.09-4.4-42.2Z"/>
            <polygon class="cls-46" points="762.5 534.02 789.57 452.04 829.51 489.21 818.1 546.02 762.5 534.02"/>
            <polygon class="cls-35" points="789.57 452.04 825.64 401.29 872.66 438.05 829.51 489.21 789.57 452.04"/>
            <path class="cls-35" d="M748.91,423.68,789.57,452,762.5,534l-37.33-11.14S729.28,435.21,748.91,423.68Z"/>
            <path class="cls-50" d="M748.91,423.68,789.57,452l36.07-50.75-60.91-9.13Z"/>
            <path class="cls-58" d="M887.78,332.35l-62,59.21-.15,9.73,47,36.76s16.06-39.72,19.29-50.74,17.56-40.46,30.94-45.22S887.78,332.35,887.78,332.35Z"/>
            <path class="cls-38" d="M947.26,300.61l9.07,29.69-33.44,11.79-35.11-9.74,27.15-35.26Z"/>
            <path class="cls-50" d="M866.14,433,860,408.73l12.77,24.36-.08,5L874,461.7Z"/>
            <path class="cls-50" d="M768.83,579.49s-6.47-36,4.38-43.16,18.47-19,19-28.87c0,0,7.11,10.13-15.24,33.54C771,548.84,768.73,550.47,768.83,579.49Z"/>
            <polygon class="cls-61" points="1009.31 510.42 935.14 478.13 1006.82 521.67 1009.31 510.42"/>
            <path d="M1039.91,587.57l-32.17,28.62,0-.1-.83,57v.22l-.21,0a49.55,49.55,0,0,1-12.36-3.6,57.55,57.55,0,0,1-11.19-6.36,58.41,58.41,0,0,1-9.46-8.73A61,61,0,0,1,966.45,644c-4.16-7.57-6.42-15.95-8.5-24.24s-3.62-16.76-5.08-25.2-2.78-16.91-4.34-25.33-3.31-16.83-6.35-24.83a37,37,0,0,0-6.24-11.11,58.78,58.78,0,0,0-4.66-4.39l-4.82-4.24c-3.23-2.81-6.5-5.58-9.9-8.18a52.33,52.33,0,0,0-10.92-6.7,52.25,52.25,0,0,1,11,6.64c3.42,2.57,6.71,5.32,10,8.11l4.85,4.22a55.63,55.63,0,0,1,4.71,4.38,37.17,37.17,0,0,1,6.31,11.17c3.07,8,4.8,16.47,6.42,24.87s2.92,16.89,4.39,25.32,3.07,16.85,5.13,25.16,4.38,16.61,8.5,24.11a61.06,61.06,0,0,0,7.2,10.55,58.32,58.32,0,0,0,9.37,8.67,56.69,56.69,0,0,0,11.09,6.34,49.16,49.16,0,0,0,12.24,3.6l-.21.18.95-57V616l0,0Z"/>
            <path d="M1127.89,381.41l-19.05,5.17-19.08,5.08-19.1,5-9.55,2.5-4.77,1.24c-1.61.4-3.15.87-4.67,1.41a27.67,27.67,0,0,0-8.3,4.95,39.69,39.69,0,0,0-6.49,7.25c-3.78,5.33-6.62,11.29-9.64,17.13s-6.06,11.77-10.4,16.81a30,30,0,0,1-7.56,6.36,26.18,26.18,0,0,1-9.3,3.2,25.88,25.88,0,0,0,9.17-3.41,29.94,29.94,0,0,0,7.32-6.47c4.2-5,7.16-11,10.08-16.84s5.78-11.86,9.59-17.31a40.7,40.7,0,0,1,6.61-7.45,28.62,28.62,0,0,1,8.56-5.15,47.29,47.29,0,0,1,4.78-1.42l4.78-1.23,9.56-2.45,19.14-4.87,19.15-4.81Z"/>
            <polygon class="cls-61" points="1005.81 586.44 977.96 591.92 1005.8 598.61 1005.81 586.44"/>
            <polygon class="cls-40" points="928.02 456.28 901.86 466.64 912.07 479 928.02 456.28"/>
            <polygon class="cls-62" points="965.45 394.37 939.84 436.72 973.64 404.35 1024.63 365.03 1022.93 356.37 965.45 394.37"/>
            <path class="cls-42" d="M900,535l41.43,136.77-198.92,7.86L751,612s95.73-44.68,88-41l34-41"/>
            <polygon class="cls-62" points="965.45 394.37 922.89 342.09 971.65 378.18 965.45 394.37"/>
            <polygon class="cls-61" points="1047.82 452.36 1067.79 482.22 1078.89 475.04 1047.82 452.36"/>
            <polygon class="cls-61" points="1039.91 587.57 1007.65 616.09 1039.72 599.32 1039.91 587.57"/>
            <polygon class="cls-43" points="1202.58 445.33 1231.32 441.42 1202.53 448.75 1202.58 445.33"/>
            <polygon class="cls-43" points="1235.99 516.85 1258.46 516.85 1241.07 527.72 1235.99 516.85"/>
            <polygon class="cls-43" points="1163.7 393.14 1193.23 380.74 1166.83 398.53 1163.7 393.14"/>
            <polygon class="cls-43" points="1239.82 607.29 1262.21 602.68 1243.85 614.25 1239.82 607.29"/>
            <polygon class="cls-43" points="1260.05 415.67 1269.62 361.47 1276.69 366.27 1279.49 374.02 1260.05 415.67"/>
            <polygon class="cls-43" points="1121.3 318.72 1123.63 343.63 1132.76 346.43 1121.3 318.72"/>
            <path class="cls-63" d="M1561.1,477.7s6.19-26.49-13.33-40.16-25.31-13-25.31-13,33,5.53,40,20.07,6.47,33.12,2.47,35.69S1561.1,477.7,1561.1,477.7Z"/>
            <path class="cls-63" d="M1340.23,250.17s82.3,35.24,82.66,60.27Z"/>
            <polygon class="cls-38" points="1382.03 215.84 1279 167 1376.17 219.07 1382.03 215.84"/>
            <polygon class="cls-39" points="911.49 516.07 926.84 531.31 919.6 551.91 910.25 595.41 890.59 595 907.24 549.88 911.49 516.07"/>
            <path class="cls-38" d="M1453.61,215.49s-18.56-21.74,41.13-40.41l60.11-3s-104.73,8.54-89.16,43.46C1454,215.47,1453.61,215.49,1453.61,215.49Z"/>
            <path class="cls-38" d="M688.34,522.12c-.17-.2,37.84-63.47,37.84-63.47l-29.67,63.63"/>
            <polygon class="cls-44" points="1365.57 482.82 1395.11 506.02 1344.99 457.23 1365.57 482.82"/>
            <polygon class="cls-64" points="925.9 297.32 949.37 307.51 967.06 291.83 947.26 300.61 925.9 297.32"/>
            <polygon class="cls-64" points="812.12 475.59 827.63 498.56 838.89 478.08 829.51 489.21 812.12 475.59"/>
            <polygon class="cls-61" points="1022.93 356.37 1019.27 329.15 1027.67 354.6 1022.93 356.37"/>
            <polygon class="cls-38" points="1011.48 225.46 1030.35 184.06 1025.4 218.64 1011.48 225.46"/>
            <path class="cls-38" d="M1313.78,736.38s-23.73-21.33-38.67-12.8-35.76,15.69-21.88,16.75S1313.78,736.38,1313.78,736.38Z"/>
            <path class="cls-35" d="M1247.22,740.33s14.13-29.61,21.06-23.56,19.52,4,19.52,4Z"/>
            <path class="cls-65" d="M1243.28,693.31s9.14-15.7,14.17-2.38l5,13.32Z"/>
            <path class="cls-64" d="M785.52,370.31,754.7,408.73"/>
            <polygon class="cls-40" points="1222.99 428.17 1235.66 453.5 1233.04 442.74 1240.1 433.79 1231.55 438.48 1222.99 428.17"/>
            <polygon class="cls-51" points="885.74 401 902.48 426.85 965.45 394.37 906.13 421.8 885.74 401"/>
            <path class="cls-66" d="M1123.15,179.12l34.68,25.16,50.5-38.65Z"/>
            <path class="cls-67" d="M1402.86,596.7q10.47-2.07,21.52-3.88,9-1.47,17.75-2.63"/>
            <polygon class="cls-68" points="1313.69 318.42 1363.6 299.81 1387.62 397.12 1357.49 397.78 1313.69 318.42"/>
            <path class="cls-68" d="M1247,290.69l17-24,13.37,45.95Z"/>
            <polygon class="cls-69" points="1263.97 266.7 1277.35 312.65 1313.69 318.42 1363.6 299.81 1263.97 266.7"/>
            <path class="cls-38" d="M1045.14,244.06l-14.52,51.45,60.08-17.34,43.64-32.26Z"/>
            <path class="cls-69" d="M1037.52,224l7.62,20.05,61.3,10.56,56.72-25.05-37.76-3.75Z"/>
            <polygon class="cls-43" points="1156.57 234.31 1165.74 255.97 1121.04 258.24 1156.57 234.31"/>
            <polygon class="cls-38" points="1241.07 527.72 1220.33 603.19 1239.82 607.29 1262.21 602.68 1258.46 516.85 1241.07 527.72"/>
            <polygon class="cls-43" points="1220.33 603.19 1250.69 695.27 1253.23 636.25 1239.82 607.29 1220.33 603.19"/>
            <polygon class="cls-38" points="1202.53 448.75 1198.05 500.71 1235.99 516.85 1202.53 448.75"/>
            <polygon class="cls-43" points="1198.05 500.71 1231.32 562.07 1241.07 527.72 1235.99 516.85 1198.05 500.71"/>
            <polygon class="cls-41" points="1090.7 671.77 1039.91 587.57 1007.65 616.09 1004.6 679.04 1090.7 671.77"/>
            <polygon class="cls-37" points="1224.97 156.24 1281.48 19.59 1422.5 -84.57 1478.98 -205.72 1638.75 -214.38 1638.75 259.98 1585.67 176.97 1506.89 148.21 1424.74 195.32 1224.97 156.24"/>
            <polygon class="cls-35" points="1119.79 140.8 1281.48 19.59 1224.97 156.24 1119.79 140.8"/>
            <path class="cls-38" d="M1281.48,19.59,1402.86,42,1365.57,177l-86.08-19.24L1225,156.24Z"/>
            <polygon class="cls-37" points="1402.86 42.02 1506.89 148.21 1424.74 195.32 1365.57 176.97 1402.86 42.02"/>
            <path class="cls-70" d="M1281.48,19.59C1281,19.79,1402.86,42,1402.86,42L1491.63-8.6l-69.13-76Z"/>
            <polygon class="cls-35" points="1037.29 165.63 1085.76 99.34 1182.69 92.74 1119.79 140.8 1037.29 165.63"/>
            <polygon class="cls-35" points="1365.57 176.97 1471.71 92.06 1402.86 42.02 1365.57 176.97"/>
            <path class="cls-68" d="M1637.55,63.64,1491.63-8.6,1402.86,42l117.35,101.86L1436,188.25l-87.57-5.51Z"/>
            <polygon class="cls-35" points="1506.89 148.21 1585.67 176.97 1641.53 275.78 1637.55 63.64 1548.44 87.75 1506.89 148.21"/>
            <polygon class="cls-37" points="1471.71 92.06 1348.38 182.74 1424.74 195.32 1520.21 143.88 1548.44 87.75 1637.55 63.64 1471.71 92.06"/>
            <polygon class="cls-38" points="1491.63 -8.6 1641.53 -49.91 1637.55 63.64 1491.63 -8.6"/>
            <polygon class="cls-66" points="1281.48 19.59 1300.45 114.81 1402.86 42.02 1281.48 19.59"/>
            <polygon class="cls-66" points="1286.1 19.59 1090.39 99.34 1183.09 92.97 1286.1 19.59"/>
            <polygon class="cls-38" points="1414.38 6.42 1471 -34.8 1491.63 -8.6 1402.86 42.02 1414.38 6.42"/>
            <path class="cls-35" d="M1345-24.29l69.4,30.7L1402.86,42,1281.48,19.59l58.75-43.88"/>
            <polygon class="cls-42" points="743.01 533.77 660 684 749.55 662.82 792 646 853 541 820.39 471.29 743.01 533.77"/>
            <path class="cls-69" d="M691.49,286.29C691,286,751,348.77,751,348.77l77.38-62.48Z"/>
            <g>
              <path class="cls-71" d="M-2.36,834.3c68.05-3.28,121.92-4,230.36-1.41,30.68.74,81.72,2.34,153.72,6.82C568,851.31,712.34,870.88,736.39,874c126.52,16.55,397.22,25,866.74,3.75,9.44,13.14,5.54,21.22-2.3,23.1-4.6,1.11-3.64,7.83-8.09,7.84-528.64,1-1064.16-1.08-1592.74,0C-1.67,854.6-.7,888.39-2.36,834.3Z"/>
              <g>
                <path class="cls-71" d="M771.5,886.85s4.29-27.77,0-30.34-16.4,6-9.64,18A46.71,46.71,0,0,0,771.5,886.85Z"/>
                <path class="cls-71" d="M759.85,884.25s-1.92-25-10.85-28.2S759.85,884.25,759.85,884.25Z"/>
                <path class="cls-71" d="M641.13,866.94s13.93-8.37,6.78-13S630.77,866.58,641.13,866.94Z"/>
                <path class="cls-71" d="M627.91,864.74S642.2,846.23,632.2,837,622.2,860.11,627.91,864.74Z"/>
              </g>
              <g>
                <path class="cls-71" d="M244.43,833.79s.34-39.39-6.1-42-21.48,12.07-9.72,27.1C236.69,829.25,244.43,833.79,244.43,833.79Z"/>
                <path class="cls-71" d="M227.79,832.87s-7.7-34.22-20.68-36.52S227.79,832.87,227.79,832.87Z"/>
                <path class="cls-71" d="M243.59,832.79s22-11.9,18.89-20.26S245.43,818.46,243.59,832.79Z"/>
                <path class="cls-71" d="M135.8,831.57s.91-45.56-38.7-59.38c-11.85-4.13,6.72,7.08,21.41,40.74,0,0,2.7,7.83,2.11,10S95.7,782.22,78.8,779.3c0,0,31.58,36.8,34.6,49.14C113.4,828.44,123.85,855.53,135.8,831.57Z"/>
                <path class="cls-71" d="M55.66,827.47s17.58-14.78,6.77-19.54S41.26,829.34,55.66,827.47Z"/>
                <path class="cls-71" d="M41.37,836.15s16-28.89.33-39.4S32.53,831.06,41.37,836.15Z"/>
              </g>
            </g>
            <path class="cls-72" d="M833.34,673.94l116.2-11.39L1008.3,667l32.77,0,85.43,3,118.65,1,4.29,18.44L1268,717c-11.86-.22-30.75-14.33-52.28-11-28.08,4.34-33,9.17-49.36,8-27.17-1.94-27.81-16.24-56-21-21.31-3.59-27.57,3.46-66.45,7a352.84,352.84,0,0,1-50.3,1c-47.71,12.91-60.6,13.16-61.7,10-1.42-4,16.72-12.44,15.18-18-2-7.26-35.42-2.12-63.59,0a481.83,481.83,0,0,1-102.91-3.56C783.08,687.15,785.94,684.88,833.34,673.94Z"/>
            <path class="cls-73" d="M1123.4,661.85,1011.79,667s95,17.45,144.12,10.24S1270,671,1270,671Z"/>
            <path class="cls-36" d="M1604,718.52c-146.52-8.94-245.12.91-303.11,9.94-87.3,13.59-203.08,41.8-253.75,48.08-40.92,5.08,91.61,1.37,182.84,21.49,122.58,27,153.52-11,248.68,1.08A748.53,748.53,0,0,1,1607,827Z"/>
            <g>
              <path class="cls-26" d="M1324.1,796s31.36-18.17,37.71-21.42c7.79-4-6.55-9.74-29.78,4.15C1332,778.74,1317.75,788.78,1324.1,796Z"/>
              <path class="cls-26" d="M1309.35,794.87s-6.32-16.84-41-16.34S1309.35,794.87,1309.35,794.87Z"/>
              <path class="cls-26" d="M1318.8,797.33s10.58-37.72,26-48.07C1358,740.4,1330,738,1314.3,759.13S1318.8,797.33,1318.8,797.33Z"/>
            </g>
            <path class="cls-26" d="M832.59,677.44s-187,28.87-178.81,27.22,61.37-2.23,100.29,11.56,23.84,18.93-14.12,18.85,26.82,12.91,98.43,15.42,96.72-.39,116.17,5.56,31.23,12.62-18.16,12.79,67.94-1.22,115.27-.53,56.38,7.81,56.38,7.81-56.94,21.57-120,16.23-161.22-24.48-231.63-26.92S625.32,746,561.66,747s-156.33-16.91-67-26,134.66-5.77,67-21.41-130.83-15.89-143.24-17.26,110.29-8.87,182.94-13.63,72.74,13.72,112.69,2.49S832.59,677.44,832.59,677.44Z"/>
            <path class="cls-26" d="M1161.61,798.69s58.57-23,93.48-17.85,37.78,32.75,91.35,6c18.21-9.11,46.37-11.34,101.88-17.51,84.52-9.4,173.55,1.17,200.68,4.71l-41.87,52.92-523.87-20.38Z"/>
            <polyline class="cls-47" points="70.29 611.16 89.16 632.81 236.19 639.95 287.91 621.44 402.65 639.95 498.12 647.88 620.04 657 763.57 667.24 691.49 456.19 70.29 611.16"/>
            <polygon class="cls-35" points="724.3 285.56 811.43 74.51 890.59 98.28 855.03 208.29 828.39 286.29 724.3 285.56"/>
            <polygon class="cls-47" points="891 98 1004 104 975.08 160.06 932.33 182.03 855.03 208.29 891 98"/>
            <g>
              <g>
                <path class="cls-26" d="M1444.09,729.54s41.58-5.4,40.43-20.23S1444.09,729.54,1444.09,729.54Z"/>
                <path class="cls-26" d="M1436,735.54s23.1-37.09,40.43-46.53-30-10.21-40.43,28.61Z"/>
                <path class="cls-26" d="M1434.27,730.54s11.65-28.85-31.77-30.35C1382.86,699.52,1434.27,730.54,1434.27,730.54Z"/>
              </g>
              <g>
                <path class="cls-26" d="M1080.09,811.54s41.58-5.4,40.43-20.23S1080.09,811.54,1080.09,811.54Z"/>
                <path class="cls-26" d="M1072,817.54s23.1-37.09,40.43-46.53-30-10.21-40.43,28.61Z"/>
                <path class="cls-26" d="M1070.27,812.54s11.65-28.85-31.77-30.35C1018.86,781.52,1070.27,812.54,1070.27,812.54Z"/>
              </g>
              <g>
                <path class="cls-26" d="M1387.68,734.9s10.93-6.4,32-8-22.62-8.41-38.23,8C1381.44,734.9,1374.42,742.19,1387.68,734.9Z"/>
                <path class="cls-26" d="M1358,735.81s32-20.49,50.71-25.95-18-5.92-42.91,11.15C1365.84,721,1353.36,731.26,1358,735.81Z"/>
                <path class="cls-26" d="M1348.68,735.81s21.25-33.24,30.91-37.34-15.31-6.37-30.91,20.72C1348.68,719.19,1342.44,733.54,1348.68,735.81Z"/>
                <path class="cls-26" d="M1337.37,735.81s8.19-30.51,16-35.06S1323.72,705.76,1337.37,735.81Z"/>
                <path class="cls-26" d="M1332.69,735.81s.39-25.41-16.38-29.33S1326.06,723.06,1332.69,735.81Z"/>
                <path class="cls-26" d="M1327.23,735.81S1316.7,706.69,1291,706,1311.24,716.69,1327.23,735.81Z"/>
                <path class="cls-26" d="M1325,735.81s-13.78-11.84-37.19-10.93S1319.3,732.17,1325,735.81Z"/>
              </g>
            </g>
            <polygon class="cls-47" points="1045 0 1002 108.47 970 160 1037.29 165.63 1090.39 99.34 1282 23 1304.84 0 1045 0"/>
            <polygon class="cls-48" points="811.43 74.51 890.59 98.28 987 0 914.16 0 811.43 74.51"/>
            <polygon class="cls-38" points="891 98 890.59 98.28 1004 110 1054 -2 987 0 891 98"/>
            <polygon class="cls-35" points="975.08 160.06 988.21 197.4 987.74 226.96 915.81 241.39 862.09 252.88 828.39 286.29 855.03 208.29 897.36 165.82 975.08 160.06"/>
            <path class="cls-50" d="M826.25,92.74s-8,7.63-.61,36.44S823,210.61,800,234.31s-40.6,42.27-45.3,44c0,0,35.19-15.68,52.75-44s36.5-57,28-92.16S826.51,92.48,826.25,92.74Z"/>
            <path class="cls-38" d="M855,250.17S849.56,238,872.28,224s48.53-32.2,53.62-43.61,9-6.54,9-6.54-30.44,39.5-49.18,49.32C872,228,859.06,240.35,855,250.17Z"/>
            <polygon class="cls-38" points="1053 1 1042 92.74 1086.36 54.23 1108.19 74.51 1160.41 14.43 1230.73 1 1053 1"/>
            <path class="cls-74" d="M928.52,108.47C983,62,996,44.6,1002,22.8s-1.65,58.31-37.32,82.25S874,154.94,928.52,108.47Z"/>
            <path class="cls-75" d="M582.43,456.19s-24.74,14.15,37.41-40.52S690,340.3,691.49,329.15s-1.86,56.07-48.18,81.46S582.43,456.19,582.43,456.19Z"/>
            <path class="cls-75" d="M676.07,430.74s25.15-28.88,33-64.81S691.14,405.48,676.07,430.74Z"/>
            <path class="cls-47" d="M132.23,592.31s16.64-38.55,112.21-42.43,152.63-16.48,177.1-30.68c0,0-32.11,26.84-56.82,26.82s-151.07,4.31-171.39,18.65S132.23,592.31,132.23,592.31Z"/>
            <path class="cls-37" d="M823,361.47l2.79,30.09s-5.56-38.77,5.32-51.17,23.34-26.63,23.34-26.63S816,342,823,361.47Z"/>
            <path class="cls-37" d="M835.48,410.61s-15.38,8,24.57-29.32,35.81-37.42,32.38-34.86S836,404.22,835.48,410.61Z"/>
            <path class="cls-38" d="M1198.05,147.4s-26,2.94,0-28.73,39-47.27,33.5-51.47L1226,63s5.25,12.83-12.88,24.91C1201,108,1156.1,156.8,1198.05,147.4Z"/>
            <polygon class="cls-37" points="975.08 259.98 1002 276.34 1015.29 313.76 1005.58 269.79 975.08 259.98"/>
          </g>
          <path class="cls-76" d="M174.68,586.29c.11-.38.24-.75.35-1.13A119.9,119.9,0,0,0,142.29,591c21.66-8.85,6.1-48-50.08-44.26-6.63-5-35.48-25.4-75.41-20.88-3.73.42-53.16,6.88-79,52a103.4,103.4,0,0,0-12.49,36.21l78.76,9.38,174.55-.37C173.48,611.35,169.52,598.81,174.68,586.29Z"/>
          <ellipse class="cls-71" cx="452" cy="754.5" rx="166" ry="30.5"/>
          <path class="cls-37" d="M253.19,581.05l116.65-14.47s228.41-76.69,254.28-70.14c2.76,50.12,13.23,170.8,13.23,170.8L431,642.77s78.05,5.76-13.49,0-129.63-21.33-129.63-21.33Z"/>
          <polygon class="cls-51" points="70.29 611.16 190.88 605.79 253.19 581.05 369.84 566.58 521.29 519.2 618.87 495.43 691.49 456.19 649.95 440.75 552.68 483.04 346.28 514.77 149.71 536.57 70.29 611.16"/>
          <polygon class="cls-37" points="190.88 605.79 236.19 639.95 89.16 632.81 70.29 611.16 190.88 605.79"/>
          <polygon class="cls-47" points="369.84 566.58 402.65 639.95 543 656 521.29 519.2 369.84 566.58"/>
          <g>
            <path class="cls-48" d="M516,584c3-1,55,6,55,6l81-28,25-32H596.5Z"/>
            <polygon class="cls-37" points="516 584 542 640 604 659 571 590 516 584"/>
            <polygon class="cls-47" points="571 590 652 562 677 530 687 642 656 648 604 659 571 590"/>
            <polygon class="cls-51" points="710 567 669.14 584 624.14 621.5 710 638.86 770 611 807 581 760.43 560 710 567"/>
            <polygon class="cls-37" points="710 638.86 724 688 635 668 624.14 621.5 710 638.86"/>
            <polygon class="cls-47" points="710 638.86 770 611 785 674 724 688 710 638.86"/>
            <polygon class="cls-37" points="770 611 807 581 819.57 652.25 785 674 770 611"/>
            <polygon class="cls-66" points="728 471.07 665 504 733 542 802.21 542 823 486 798 461 728 471.07"/>
            <polygon class="cls-37" points="665 504 665 530 677 530 681.37 578.91 710 567 760.43 560 807 581 802.21 542 733 542 665 504"/>
            <polyline class="cls-47" points="733 542 733 563.81 760.43 560 807 581 802.21 542 733 543"/>
            <polygon class="cls-47" points="823 486 827 518.64 817 553 817 574.57 807.53 584 802.21 542 823 486"/>
          </g>
          <g>
            <path class="cls-26" d="M802,676.29s23.69-3.51,23-13.19S802,676.29,802,676.29Z"/>
            <path class="cls-26" d="M797.35,680.21s13.16-24.2,23-30.35-17.11-6.66-23,18.66Z"/>
            <path class="cls-26" d="M796.36,677s6.64-18.83-18.1-19.8C767.08,656.71,796.36,677,796.36,677Z"/>
          </g>
          <g>
            <path class="cls-26" d="M420.68,643.9s10.93-6.4,32-8-22.62-8.41-38.23,8C414.44,643.9,407.42,651.19,420.68,643.9Z"/>
            <path class="cls-26" d="M391,644.81s32-20.49,50.71-25.95S423.8,612.94,398.84,630C398.84,630,386.36,640.26,391,644.81Z"/>
            <path class="cls-26" d="M381.68,644.81s21.25-33.24,30.91-37.34-15.31-6.37-30.91,20.72C381.68,628.19,375.44,642.54,381.68,644.81Z"/>
            <path class="cls-26" d="M370.37,644.81s8.19-30.51,16-35.06S356.72,614.76,370.37,644.81Z"/>
            <path class="cls-26" d="M365.69,644.81s.39-25.41-16.38-29.33S359.06,632.06,365.69,644.81Z"/>
            <path class="cls-26" d="M360.23,644.81S349.7,615.69,324,615,344.24,625.69,360.23,644.81Z"/>
            <path class="cls-26" d="M358,644.81S344.24,633,320.83,633.88,352.3,641.17,358,644.81Z"/>
          </g>
          <path class="cls-75" d="M738.26,572.4s-45.93,10-39.59,18.79,13,27.42-10.33,30.61c0,0,19.68,1,23.17-7.92s-17-20.74-4.25-26.31C717,582,725.52,573.8,738.26,572.4Z"/>
          <path class="cls-75" d="M132.23,592.31s22.42-11,61.1-27.64,79.55-21.92,125.61-20.3S392,532.92,407,526s-27.17,9.83-49.1,7.94-115.34,3.86-145.63,16S132.23,592.31,132.23,592.31Z"/>
          <polygon class="cls-42" points="596.5 563.23 591.01 583.08 604 609.04 596.5 581.94 596.5 563.23"/>
          <path class="cls-75" d="M539.42,579.49S537,579.13,556,568.07s23-12,31.5-22.05-1.21,15.11-21.86,22.05S539.42,579.49,539.42,579.49Z"/>
          <polygon class="cls-37" points="760.45 509.46 766.91 542 798.92 576.61 776.93 543 760.45 509.46"/>
        </g>
      </g>
    </g>
  </g>
</svg>
