<svg xmlns="http://www.w3.org/2000/svg" xmlns:xlink="http://www.w3.org/1999/xlink" width="1920" height="900" viewBox="0 0 1920 900">
  <defs>
    <style>
      .cls-1 {
        fill: none;
      }

      .cls-2 {
        isolation: isolate;
      }

      .cls-3 {
        clip-path: url(#clip-path);
      }

      .cls-4 {
        fill: url(#linear-gradient);
      }

      .cls-5 {
        fill: url(#linear-gradient-2);
      }

      .cls-6, .cls-8, .cls-9 {
        stroke-miterlimit: 10;
      }

      .cls-6, .cls-8 {
        stroke-width: 0.5px;
      }

      .cls-6 {
        fill: url(#linear-gradient-3);
        stroke: url(#linear-gradient-4);
      }

      .cls-7 {
        fill: url(#linear-gradient-5);
      }

      .cls-8 {
        fill: url(#linear-gradient-6);
        stroke: url(#linear-gradient-7);
      }

      .cls-9 {
        stroke-width: 0.25px;
        fill: url(#linear-gradient-8);
        stroke: url(#linear-gradient-9);
      }

      .cls-10 {
        fill: url(#linear-gradient-10);
      }

      .cls-11 {
        fill: url(#linear-gradient-11);
      }

      .cls-12 {
        fill: url(#linear-gradient-12);
      }

      .cls-13, .cls-17 {
        opacity: 0.5;
      }

      .cls-13, .cls-15 {
        mix-blend-mode: screen;
      }

      .cls-13 {
        fill: url(#linear-gradient-13);
      }

      .cls-14 {
        fill: #b8945f;
      }

      .cls-15, .cls-16 {
        fill: #239921;
      }

      .cls-105, .cls-15 {
        opacity: 0.4;
      }

      .cls-17 {
        fill: #5f8337;
        mix-blend-mode: multiply;
      }

      .cls-18 {
        fill: url(#linear-gradient-14);
      }

      .cls-19 {
        fill: url(#linear-gradient-15);
      }

      .cls-20 {
        fill: url(#linear-gradient-16);
      }

      .cls-21 {
        fill: url(#linear-gradient-17);
      }

      .cls-22 {
        fill: #86e3d0;
      }

      .cls-23 {
        fill: url(#linear-gradient-18);
      }

      .cls-24 {
        fill: url(#linear-gradient-19);
      }

      .cls-25 {
        fill: url(#linear-gradient-20);
      }

      .cls-26 {
        fill: url(#linear-gradient-21);
      }

      .cls-27 {
        fill: url(#linear-gradient-22);
      }

      .cls-28 {
        fill: url(#linear-gradient-23);
      }

      .cls-29 {
        fill: url(#linear-gradient-24);
      }

      .cls-30 {
        fill: #3d823a;
      }

      .cls-31 {
        fill: url(#linear-gradient-25);
      }

      .cls-32 {
        fill: #44c24a;
      }

      .cls-33 {
        fill: #1c9e18;
      }

      .cls-34 {
        fill: #73d35f;
      }

      .cls-35 {
        fill: #a5eb98;
        opacity: 0.49;
      }

      .cls-36 {
        fill: url(#linear-gradient-26);
      }

      .cls-37 {
        fill: url(#linear-gradient-27);
      }

      .cls-38 {
        fill: url(#linear-gradient-28);
      }

      .cls-39 {
        fill: #7be57f;
      }

      .cls-40 {
        fill: #3dbf47;
      }

      .cls-41 {
        fill: url(#linear-gradient-29);
      }

      .cls-42, .cls-55 {
        fill: #c28a73;
      }

      .cls-42 {
        opacity: 0.56;
      }

      .cls-43 {
        fill: #ce856b;
      }

      .cls-44 {
        fill: #3beaa2;
      }

      .cls-45 {
        fill: url(#linear-gradient-30);
      }

      .cls-46 {
        fill: url(#linear-gradient-31);
      }

      .cls-47 {
        fill: url(#linear-gradient-32);
      }

      .cls-48 {
        fill: url(#linear-gradient-33);
      }

      .cls-49 {
        fill: url(#linear-gradient-34);
      }

      .cls-50 {
        fill: url(#linear-gradient-35);
      }

      .cls-51 {
        fill: url(#linear-gradient-36);
      }

      .cls-52 {
        fill: url(#linear-gradient-37);
      }

      .cls-53 {
        fill: url(#linear-gradient-38);
      }

      .cls-54 {
        fill: url(#linear-gradient-39);
      }

      .cls-55 {
        opacity: 0.75;
      }

      .cls-56 {
        fill: #754d32;
      }

      .cls-57 {
        fill: url(#linear-gradient-40);
      }

      .cls-58 {
        fill: url(#linear-gradient-41);
      }

      .cls-59 {
        fill: url(#linear-gradient-42);
      }

      .cls-60 {
        fill: url(#linear-gradient-43);
      }

      .cls-61 {
        fill: url(#linear-gradient-44);
      }

      .cls-62 {
        fill: #0c8e34;
      }

      .cls-63 {
        fill: #878986;
      }

      .cls-64 {
        fill: #cc9860;
      }

      .cls-65 {
        fill: #3a3937;
      }

      .cls-66, .cls-91 {
        fill: #565551;
      }

      .cls-67 {
        fill: #141412;
      }

      .cls-101, .cls-68 {
        fill: #11100c;
      }

      .cls-104, .cls-69 {
        fill: #0a0a0a;
      }

      .cls-70 {
        fill: #111110;
      }

      .cls-71 {
        fill: #2d2d2d;
      }

      .cls-72 {
        fill: #44433e;
      }

      .cls-73 {
        fill: #7c7c7b;
      }

      .cls-74 {
        fill: #9c9f9a;
      }

      .cls-75 {
        fill: #4c4a47;
      }

      .cls-76 {
        fill: #abafa9;
      }

      .cls-77 {
        fill: #5b5b5a;
      }

      .cls-105, .cls-78 {
        fill: #4f4f4e;
      }

      .cls-79 {
        fill: #7f7f7e;
      }

      .cls-80 {
        fill: #594a4c;
      }

      .cls-81 {
        fill: #727272;
      }

      .cls-82 {
        fill: #838482;
      }

      .cls-83 {
        fill: #444442;
      }

      .cls-84 {
        fill: #474746;
      }

      .cls-85 {
        fill: #929292;
      }

      .cls-86 {
        fill: #6d6d6d;
      }

      .cls-87 {
        fill: #3f3f3f;
      }

      .cls-88 {
        fill: #8f918f;
      }

      .cls-89 {
        fill: #191919;
      }

      .cls-90 {
        fill: #232323;
      }

      .cls-91 {
        opacity: 0.31;
      }

      .cls-92 {
        fill: #b5b5b4;
      }

      .cls-93 {
        fill: #454441;
      }

      .cls-94 {
        fill: #85816e;
      }

      .cls-95 {
        fill: #d1d0bd;
      }

      .cls-96 {
        fill: #888988;
      }

      .cls-97 {
        fill: #70706f;
      }

      .cls-98 {
        fill: #a7aaa5;
      }

      .cls-99 {
        fill: #09a53f;
      }

      .cls-100 {
        fill: #b58454;
      }

      .cls-101 {
        opacity: 0.57;
      }

      .cls-102 {
        fill: #176e14;
      }

      .cls-103 {
        fill: #368931;
      }

      .cls-104 {
        opacity: 0.25;
      }

      .cls-106 {
        fill: #e8d6ca;
        opacity: 0.17;
      }
    </style>
    <clipPath id="clip-path">
      <rect class="cls-1" width="1920" height="900"/>
    </clipPath>
    <linearGradient id="linear-gradient" x1="499.07" y1="-509.98" x2="549.66" y2="827.86" gradientUnits="userSpaceOnUse">
      <stop offset="0.21" stop-color="#a2d9d8"/>
      <stop offset="0.22" stop-color="#9ad7d7"/>
      <stop offset="0.24" stop-color="#86d1d4"/>
      <stop offset="0.26" stop-color="#7acdd3"/>
      <stop offset="0.27" stop-color="#76ccd2"/>
      <stop offset="0.32" stop-color="#7acdd2"/>
      <stop offset="0.36" stop-color="#86d1d2"/>
      <stop offset="0.4" stop-color="#9ad6d2"/>
      <stop offset="0.43" stop-color="#addcd2"/>
      <stop offset="0.49" stop-color="#c5e6df"/>
      <stop offset="0.59" stop-color="#eff8f6"/>
      <stop offset="0.64" stop-color="#fff"/>
      <stop offset="1" stop-color="#c8e5d2"/>
    </linearGradient>
    <linearGradient id="linear-gradient-2" x1="-509.35" y1="465.98" x2="1115.06" y2="465.98" gradientUnits="userSpaceOnUse">
      <stop offset="0.15" stop-color="#9af460"/>
      <stop offset="0.39" stop-color="#8aea6b"/>
      <stop offset="0.86" stop-color="#61d088"/>
      <stop offset="0.9" stop-color="#5dce8b"/>
    </linearGradient>
    <linearGradient id="linear-gradient-3" x1="-886.33" y1="505.77" x2="678.58" y2="505.77" gradientUnits="userSpaceOnUse">
      <stop offset="0" stop-color="#2db24b"/>
      <stop offset="0.17" stop-color="#2eb24f"/>
      <stop offset="0.35" stop-color="#32b45b"/>
      <stop offset="0.52" stop-color="#37b670"/>
      <stop offset="0.56" stop-color="#39b775"/>
      <stop offset="1" stop-color="#62c479"/>
    </linearGradient>
    <linearGradient id="linear-gradient-4" x1="-557.26" y1="1089.67" x2="563.69" y2="321.97" gradientUnits="userSpaceOnUse">
      <stop offset="0" stop-color="#76ccd2"/>
      <stop offset="0" stop-color="#6fc4c0"/>
      <stop offset="0" stop-color="#5db193"/>
      <stop offset="0" stop-color="#40914a"/>
      <stop offset="0" stop-color="#3d8e42"/>
      <stop offset="0" stop-color="#348740"/>
      <stop offset="0" stop-color="#20793c"/>
      <stop offset="0" stop-color="#147039"/>
      <stop offset="0" stop-color="#106d38"/>
      <stop offset="0.01" stop-color="#106d3e"/>
      <stop offset="0.02" stop-color="#0f6d49"/>
      <stop offset="0.05" stop-color="#0e6d50"/>
      <stop offset="0.12" stop-color="#0e6d52"/>
      <stop offset="0.32" stop-color="#106e52"/>
      <stop offset="0.39" stop-color="#177250"/>
      <stop offset="0.45" stop-color="#23794d"/>
      <stop offset="0.49" stop-color="#348249"/>
      <stop offset="0.52" stop-color="#4a8f44"/>
      <stop offset="0.56" stop-color="#659e3e"/>
      <stop offset="0.59" stop-color="#85b036"/>
      <stop offset="0.61" stop-color="#aac52d"/>
      <stop offset="0.63" stop-color="#d3dc24"/>
      <stop offset="0.64" stop-color="#d6de23"/>
      <stop offset="0.81" stop-color="#d6de23"/>
      <stop offset="0.84" stop-color="#d6de23"/>
      <stop offset="0.86" stop-color="#d7df27"/>
      <stop offset="0.88" stop-color="#d9e134"/>
      <stop offset="0.9" stop-color="#dde44a"/>
      <stop offset="0.93" stop-color="#e3e869"/>
      <stop offset="0.95" stop-color="#eaee90"/>
      <stop offset="0.97" stop-color="#f3f5c0"/>
      <stop offset="1" stop-color="#fefef7"/>
      <stop offset="1" stop-color="#fff"/>
    </linearGradient>
    <linearGradient id="linear-gradient-5" x1="70.01" y1="605.73" x2="1308.87" y2="403.69" gradientUnits="userSpaceOnUse">
      <stop offset="0" stop-color="#80e0a0"/>
      <stop offset="0.12" stop-color="#7edf97"/>
      <stop offset="0.32" stop-color="#77dd7d"/>
      <stop offset="0.57" stop-color="#6cd954"/>
      <stop offset="0.87" stop-color="#85d866"/>
      <stop offset="0.99" stop-color="#005b97"/>
    </linearGradient>
    <linearGradient id="linear-gradient-6" x1="-531.3" y1="500.91" x2="545.47" y2="500.91" gradientUnits="userSpaceOnUse">
      <stop offset="0.01" stop-color="#30b34a"/>
      <stop offset="0.14" stop-color="#34b44a"/>
      <stop offset="0.27" stop-color="#40b549"/>
      <stop offset="0.4" stop-color="#55b847"/>
      <stop offset="0.43" stop-color="#5ab947"/>
      <stop offset="1" stop-color="#67bc45"/>
    </linearGradient>
    <linearGradient id="linear-gradient-7" x1="-263.59" y1="917.3" x2="480.18" y2="407.92" xlink:href="#linear-gradient-4"/>
    <linearGradient id="linear-gradient-8" x1="671.99" y1="2273.41" x2="566.59" y2="-785.7" gradientUnits="userSpaceOnUse">
      <stop offset="0.02" stop-color="#4a8e41"/>
      <stop offset="0.28" stop-color="#488d40"/>
      <stop offset="0.37" stop-color="#41883b"/>
      <stop offset="0.44" stop-color="#368133"/>
      <stop offset="0.49" stop-color="#257628"/>
      <stop offset="0.54" stop-color="#0f6819"/>
      <stop offset="0.54" stop-color="#116919"/>
      <stop offset="0.54" stop-color="#358120"/>
      <stop offset="0.55" stop-color="#549626"/>
      <stop offset="0.55" stop-color="#70a82c"/>
      <stop offset="0.56" stop-color="#86b630"/>
      <stop offset="0.56" stop-color="#97c133"/>
      <stop offset="0.57" stop-color="#a2c935"/>
      <stop offset="0.58" stop-color="#a9ce37"/>
      <stop offset="0.61" stop-color="#abcf37"/>
    </linearGradient>
    <linearGradient id="linear-gradient-9" x1="234.5" y1="931.23" x2="1016.2" y2="395.88" xlink:href="#linear-gradient-4"/>
    <linearGradient id="linear-gradient-10" x1="826.05" y1="69.89" x2="871.69" y2="69.89" gradientUnits="userSpaceOnUse">
      <stop offset="0" stop-color="#1e6c36"/>
      <stop offset="0" stop-color="#246f3e"/>
      <stop offset="0" stop-color="#337855"/>
      <stop offset="0" stop-color="#4c8679"/>
      <stop offset="0" stop-color="#6f9aac"/>
      <stop offset="0" stop-color="#8dabd8"/>
      <stop offset="0.08" stop-color="#95b1da"/>
      <stop offset="0.21" stop-color="#abc1e1"/>
      <stop offset="0.25" stop-color="#b4c7e3"/>
      <stop offset="0.98" stop-color="#fff"/>
    </linearGradient>
    <linearGradient id="linear-gradient-11" x1="727.6" y1="65.8" x2="842.08" y2="65.8" gradientUnits="userSpaceOnUse">
      <stop offset="0" stop-color="#1e6c36"/>
      <stop offset="0" stop-color="#246f3e"/>
      <stop offset="0" stop-color="#337855"/>
      <stop offset="0" stop-color="#4c8679"/>
      <stop offset="0" stop-color="#6f9aac"/>
      <stop offset="0" stop-color="#8dabd8"/>
      <stop offset="0.14" stop-color="#95b1db"/>
      <stop offset="0.37" stop-color="#acc2e2"/>
      <stop offset="0.65" stop-color="#d0ddef"/>
      <stop offset="0.95" stop-color="#fff"/>
    </linearGradient>
    <linearGradient id="linear-gradient-12" x1="700.62" y1="74.98" x2="756.03" y2="74.98" xlink:href="#linear-gradient-10"/>
    <linearGradient id="linear-gradient-13" x1="202.66" y1="494.4" x2="202.66" y2="463.02" gradientUnits="userSpaceOnUse">
      <stop offset="0" stop-color="#09170a"/>
      <stop offset="0.58" stop-color="#2d550c"/>
      <stop offset="1" stop-color="#16623e"/>
    </linearGradient>
    <linearGradient id="linear-gradient-14" x1="538.66" y1="965.04" x2="534.11" y2="-498.07" gradientUnits="userSpaceOnUse">
      <stop offset="0.32" stop-color="#bdfffd"/>
      <stop offset="0.44" stop-color="#b7fafb"/>
      <stop offset="0.59" stop-color="#a7edf7"/>
      <stop offset="0.76" stop-color="#8cd7ef"/>
      <stop offset="0.93" stop-color="#68bae5"/>
    </linearGradient>
    <linearGradient id="linear-gradient-15" x1="414.27" y1="117.11" x2="494.43" y2="82.4" gradientUnits="userSpaceOnUse">
      <stop offset="0.2" stop-color="#a8eef7"/>
      <stop offset="0.37" stop-color="#b8f1fa"/>
      <stop offset="0.66" stop-color="#cff5fe"/>
      <stop offset="0.84" stop-color="#d7f6ff"/>
    </linearGradient>
    <linearGradient id="linear-gradient-16" x1="345.38" y1="129.48" x2="450.37" y2="87.22" gradientUnits="userSpaceOnUse">
      <stop offset="0.2" stop-color="#a8eef7"/>
      <stop offset="0.43" stop-color="#aceff8"/>
      <stop offset="0.64" stop-color="#b7f1fa"/>
      <stop offset="0.85" stop-color="#caf4fd"/>
      <stop offset="0.96" stop-color="#d7f6ff"/>
    </linearGradient>
    <linearGradient id="linear-gradient-17" x1="535.85" y1="192.49" x2="653.82" y2="74.44" gradientUnits="userSpaceOnUse">
      <stop offset="0.2" stop-color="#a8eef7"/>
      <stop offset="0.38" stop-color="#aaeef7"/>
      <stop offset="0.47" stop-color="#b2f0f9"/>
      <stop offset="0.54" stop-color="#c0f2fb"/>
      <stop offset="0.6" stop-color="#d3f5fe"/>
      <stop offset="0.61" stop-color="#d7f6ff"/>
    </linearGradient>
    <linearGradient id="linear-gradient-18" x1="-9643.7" y1="317.13" x2="-9628.02" y2="274.03" gradientTransform="matrix(-1, 0, 0, 1, -8875.44, 0)" gradientUnits="userSpaceOnUse">
      <stop offset="0.15" stop-color="#50baad"/>
      <stop offset="0.23" stop-color="#55c3b8"/>
      <stop offset="0.4" stop-color="#5cd1c8"/>
      <stop offset="0.59" stop-color="#60d8d2"/>
      <stop offset="0.83" stop-color="#61dbd5"/>
    </linearGradient>
    <linearGradient id="linear-gradient-19" x1="-9608.07" y1="321.06" x2="-9596.34" y2="288.79" gradientTransform="matrix(-1, 0, 0, 1, -8875.44, 0)" gradientUnits="userSpaceOnUse">
      <stop offset="0.15" stop-color="#61cdc1"/>
      <stop offset="0.32" stop-color="#61d2c7"/>
      <stop offset="0.79" stop-color="#61dcd6"/>
    </linearGradient>
    <linearGradient id="linear-gradient-20" x1="-9629.11" y1="351.93" x2="-9609.41" y2="297.76" gradientTransform="matrix(-1, 0, 0, 1, -8875.44, 0)" gradientUnits="userSpaceOnUse">
      <stop offset="0.15" stop-color="#4bc0b9"/>
      <stop offset="0.51" stop-color="#64cfc3"/>
      <stop offset="0.79" stop-color="#73d8c8"/>
    </linearGradient>
    <linearGradient id="linear-gradient-21" x1="-9923.7" y1="310.13" x2="-9908.02" y2="267.03" xlink:href="#linear-gradient-18"/>
    <linearGradient id="linear-gradient-22" x1="-9888.07" y1="314.06" x2="-9876.34" y2="281.79" xlink:href="#linear-gradient-19"/>
    <linearGradient id="linear-gradient-23" x1="-9909.11" y1="344.93" x2="-9889.41" y2="290.76" xlink:href="#linear-gradient-20"/>
    <linearGradient id="linear-gradient-24" x1="-9059.85" y1="371.16" x2="-9041.53" y2="320.81" gradientTransform="matrix(-1, 0, 0, 1, -8875.44, 0)" gradientUnits="userSpaceOnUse">
      <stop offset="0.16" stop-color="#129ea2"/>
      <stop offset="0.16" stop-color="#149fa3"/>
      <stop offset="0.25" stop-color="#37b4b1"/>
      <stop offset="0.34" stop-color="#54c5bc"/>
      <stop offset="0.43" stop-color="#6ad2c5"/>
      <stop offset="0.53" stop-color="#7adccb"/>
      <stop offset="0.65" stop-color="#83e1cf"/>
      <stop offset="0.81" stop-color="#86e3d0"/>
    </linearGradient>
    <linearGradient id="linear-gradient-25" x1="-916.73" y1="499.09" x2="1149.95" y2="499.09" gradientUnits="userSpaceOnUse">
      <stop offset="0.43" stop-color="#6ec94c"/>
      <stop offset="0.52" stop-color="#6ecc50"/>
      <stop offset="1" stop-color="#44c24a"/>
    </linearGradient>
    <linearGradient id="linear-gradient-26" x1="885.59" y1="507.85" x2="1752.01" y2="437.66" gradientUnits="userSpaceOnUse">
      <stop offset="0.01" stop-color="#987ce4"/>
      <stop offset="0.17" stop-color="#919fdf"/>
      <stop offset="0.32" stop-color="#8bbcdb"/>
      <stop offset="0.46" stop-color="#87cdd9"/>
      <stop offset="0.56" stop-color="#86d3d8"/>
    </linearGradient>
    <linearGradient id="linear-gradient-27" x1="874.54" y1="660.81" x2="1172.05" y2="361.48" gradientUnits="userSpaceOnUse">
      <stop offset="0.03" stop-color="#2eb691"/>
      <stop offset="0.85" stop-color="#42d984"/>
    </linearGradient>
    <linearGradient id="linear-gradient-28" x1="566.92" y1="636.64" x2="784.82" y2="336.37" gradientUnits="userSpaceOnUse">
      <stop offset="0.02" stop-color="#10a159"/>
      <stop offset="0.23" stop-color="#12a45a"/>
      <stop offset="0.35" stop-color="#17ac5e"/>
      <stop offset="0.46" stop-color="#20bb64"/>
      <stop offset="0.55" stop-color="#2ccf6d"/>
      <stop offset="0.59" stop-color="#33da71"/>
    </linearGradient>
    <linearGradient id="linear-gradient-29" x1="698.92" y1="561.76" x2="691.41" y2="176.99" gradientTransform="translate(127.04)" gradientUnits="userSpaceOnUse">
      <stop offset="0" stop-color="#907d61"/>
      <stop offset="0.36" stop-color="#6d6b4d"/>
      <stop offset="0.58" stop-color="#5e6345"/>
    </linearGradient>
    <linearGradient id="linear-gradient-30" x1="825.54" y1="258.75" x2="605.83" y2="-261.83" gradientTransform="translate(127.04)" gradientUnits="userSpaceOnUse">
      <stop offset="0.26" stop-color="#55b093"/>
      <stop offset="0.39" stop-color="#61c489"/>
      <stop offset="0.56" stop-color="#6ddb7d"/>
      <stop offset="0.68" stop-color="#72e379"/>
    </linearGradient>
    <linearGradient id="linear-gradient-31" x1="1207.95" y1="377.3" x2="958.39" y2="132.89" gradientTransform="translate(127.04)" gradientUnits="userSpaceOnUse">
      <stop offset="0.23" stop-color="#2fac76"/>
      <stop offset="0.54" stop-color="#31ad79"/>
      <stop offset="0.74" stop-color="#36b281"/>
      <stop offset="0.88" stop-color="#3db98e"/>
    </linearGradient>
    <linearGradient id="linear-gradient-32" x1="528.03" y1="265.13" x2="460.61" y2="22.91" xlink:href="#linear-gradient-30"/>
    <linearGradient id="linear-gradient-33" x1="808.88" y1="332.44" x2="705.66" y2="-22.82" gradientTransform="translate(127.04)" gradientUnits="userSpaceOnUse">
      <stop offset="0.07" stop-color="#39a57e"/>
      <stop offset="0.67" stop-color="#72e379"/>
    </linearGradient>
    <linearGradient id="linear-gradient-34" x1="-10481.47" y1="628.15" x2="-10490.35" y2="173.61" gradientTransform="matrix(-1, 0, 0, 1, -10072.73, 0)" xlink:href="#linear-gradient-29"/>
    <linearGradient id="linear-gradient-35" x1="-10332.8" y1="268.24" x2="-10596.84" y2="-357.37" gradientTransform="matrix(-1, 0, 0, 1, -10072.73, 0)" xlink:href="#linear-gradient-30"/>
    <linearGradient id="linear-gradient-36" x1="-9883.19" y1="409.52" x2="-10177.01" y2="121.77" gradientTransform="matrix(-1, 0, 0, 1, -10072.73, 0)" xlink:href="#linear-gradient-31"/>
    <linearGradient id="linear-gradient-37" x1="-10682.16" y1="277.56" x2="-10761.73" y2="-8.28" gradientTransform="matrix(-1, 0, 0, 1, -10072.73, 0)" xlink:href="#linear-gradient-30"/>
    <linearGradient id="linear-gradient-38" x1="-10352.25" y1="356.78" x2="-10474.01" y2="-62.29" gradientTransform="matrix(-1, 0, 0, 1, -10072.73, 0)" xlink:href="#linear-gradient-33"/>
    <linearGradient id="linear-gradient-39" x1="616.07" y1="464.45" x2="614.21" y2="369.1" gradientUnits="userSpaceOnUse">
      <stop offset="0" stop-color="#907d61"/>
      <stop offset="0.06" stop-color="#8b7660"/>
      <stop offset="0.47" stop-color="#6e4f57"/>
      <stop offset="0.69" stop-color="#634054"/>
    </linearGradient>
    <linearGradient id="linear-gradient-40" x1="611.68" y1="400.81" x2="664.63" y2="270.49" gradientTransform="matrix(1, 0, 0, 1, 0, 0)" xlink:href="#linear-gradient-30"/>
    <linearGradient id="linear-gradient-41" x1="719.38" y1="345.1" x2="680.86" y2="397.99" gradientUnits="userSpaceOnUse">
      <stop offset="0.3" stop-color="#72e379"/>
      <stop offset="0.87" stop-color="#57b479"/>
    </linearGradient>
    <linearGradient id="linear-gradient-42" x1="543.27" y1="390.28" x2="580.57" y2="354.96" gradientTransform="matrix(1, 0, 0, 1, 0, 0)" xlink:href="#linear-gradient-31"/>
    <linearGradient id="linear-gradient-43" x1="565.32" y1="368.83" x2="564.31" y2="317.03" gradientUnits="userSpaceOnUse">
      <stop offset="0.18" stop-color="#63c28e"/>
      <stop offset="0.6" stop-color="#63c091"/>
    </linearGradient>
    <linearGradient id="linear-gradient-44" x1="609.64" y1="403.87" x2="664.7" y2="329.87" gradientUnits="userSpaceOnUse">
      <stop offset="0.07" stop-color="#39a57e"/>
      <stop offset="0.77" stop-color="#72e379"/>
    </linearGradient>
  </defs>
  <g class="cls-2">
    <g id="Layer_1" data-name="Layer 1">
      <g class="cls-3">
        <polygon class="cls-4" points="-52.96 -6.45 -53.98 451.08 1100.11 444.96 1107.21 -13.94 -52.96 -6.45"/>
        <path class="cls-5" d="M1114.86,382.7c-17.29-1.22-34.38-3.9-34.38-3.9-23.64-3.71-448.79,39-522.82,45.21-92.78,7.78-36.83,6.53-359.15-18.71-16.16-1.27-30-2.21-42.39-2.91,1.63,50.37,1.21,100.82-3.39,151h946.82s15.59-170.67,15.51-170.68Z"/>
        <path class="cls-6" d="M663,467.42c-116.43-40-487.53-57.53-683.49-54.12,1,43.87-.63,141.67-4.6,185.36l703.71-46.6Z"/>
        <path class="cls-7" d="M1139.18,382.7c-25.74-13-50.22,6.73-141.27,24.94-35.35,7.07-130.82,10.52-320.3,17.15-20.72.72-31.07,1.36-45.76,1.55-16.49.23-139.36,11.67-475,45.85-.39,27.11-1.66,54.19-4.13,81.2h970.19S1151.52,388.93,1139.18,382.7Z"/>
        <path class="cls-8" d="M508.36,478.24C470,470.38,307.29,457.86,157,448.42c.13,35.05-1,70.07-4.25,105H532S574.6,491.82,508.36,478.24Z"/>
        <path class="cls-9" d="M154.13,536.44q-1.56,21.24-4.1,42.42a105.91,105.91,0,0,1-9,42.9V794.39h950.11V505.57Z"/>
        <g>
          <path class="cls-10" d="M830.45,61.93s30.59-7.41,41.23,8.45c.84,9.1-45.63,9.2-45.63,9.2Z"/>
          <path class="cls-11" d="M728.21,69.58S759.51,41.23,807,49.33s40.12,31.77,17.12,33.21-68,1.71-77.78,0S724.79,81.28,728.21,69.58Z"/>
          <path class="cls-12" d="M700.82,76.78s26.9-5.85,33.75-6.3,26.91.22,20.06,8.43c-10.76,1.47-36.69-.11-42.56,0S699.35,81.28,700.82,76.78Z"/>
        </g>
        <path class="cls-13" d="M237.19,489c-18.52,0-51.13,1-80.73,1.39,0,.54,0,1.08-.05,1.62,17.58,0,35-.38,52.6-1a144.29,144.29,0,0,1,14.77-1.28c8.36-.41,16.75-.6,25.13-.64C244.31,489.07,240.31,489,237.19,489Z"/>
        <path class="cls-14" d="M163.74,550.55s86.79,2.22,137.37-3,155.53-8.08,200-4,178,4,242.7,10c71.58,6.63,97.3,15,185.86,11.5,21.12-.84,41.93,1.24,61.22,1.82,57.81,1.76,101.94,3.27,99.92,4.31-2.7,1.38-259.7,6.38-346.7-3.62-74.08-8.51-286.67-13-336-16s-246,12-246,12Z"/>
        <g>
          <path class="cls-15" d="M557.48,542.08c-11.23-.86-22.67-1.18-34.11-1.34-10-.14-20-.13-30-.35-14.94-.33-29.89-.94-44.76-1.56q-11.77-.5-23.54-1c-38.65,1.82-77.25,3.87-116.14,4.56-36.45.64-72.26.84-108.1.45-10.25.82-20.44,1.79-30.73,2.47-5.55.36-11.13.55-16.71.74-.13,1.56-.26,3.13-.4,4.69,3.6,0,7.19-.07,10.77-.16,15.6-.41,31-1.47,46.56-2.07,13.59-.52,27.66-.16,41.3-.2,16.49,0,33-.11,49.45-.08,33,0,65.69.8,98.58,1.85,16.4.52,32.8,1,49.24,1s32.58-.51,48.85-1.23c15.68-.71,31.4-1.54,47.21-1.83,12.67-.22,26.53.62,38.28-1.64C576.12,544,566.64,542.79,557.48,542.08Z"/>
          <path class="cls-16" d="M878.89,535.91c-40.71,1-81.71,2.89-122.52,2.74-14.76,0-30.22-.38-44.72.82-6.33.53-12.74,1.23-17.09,3.17s-6.95,4.45-.13,6.14c13,3.17,30.2,3.46,45,4.47,30.14,2.1,62,1.82,92.52,2,29.49.16,59.28,0,88.51,1.76,28.67,1.72,56.63,4.67,84.7,7.56,36,3.68,71.84,6,108.44,6.71V528.94c-32.25.43-64.44,1.51-96.53,2.72C971,533.38,925.07,534.82,878.89,535.91Z"/>
        </g>
        <g>
          <path class="cls-17" d="M293.8,566.61c-1.76,0-4.12,0-6.47.17-4.55.19-8.65.73-9.71,1.82-.12.14-.08.25.16.37,4.44,2,13.38,1.46,19.46,1.18,2.2-.09,14.62-.29,13.9-2.1S297.36,566.53,293.8,566.61Z"/>
          <path class="cls-17" d="M367.4,559.49c-1.5-1.42-10.59-.83-13.52-.73-1.23,0-4.1,0-6.48.23l-2,.09c-1.27,0-5.35.79-3.17,1.49,2.41.79,6.41.76,9.37.8,3.19,0,6.37-.13,9.49-.38a28.06,28.06,0,0,0,5.54-.72C367.21,560.08,367.73,559.8,367.4,559.49Z"/>
          <path class="cls-17" d="M333.63,631c-1.21,0-2.86,0-4.49.12-3.2.15-6.05.51-6.79,1.28-.08.08-.07.17.1.25,3.11,1.42,9.36,1,13.58.84,1.55-.08,10.24-.22,9.74-1.49S336.14,630.93,333.63,631Z"/>
          <path class="cls-17" d="M385.36,634.93c-1.05-1-7.38-.58-9.44-.51-.87,0-2.86,0-4.51.16l-1.39.07c-.9,0-3.75.53-2.23,1a27.18,27.18,0,0,0,6.56.55c2.23,0,4.44-.08,6.6-.26a21.74,21.74,0,0,0,3.89-.49C385.24,635.34,385.58,635.15,385.36,634.93Z"/>
        </g>
        <path class="cls-18" d="M-25.38-4.4l-2.56,421.78,1128.46-28.5V-10.23C1088.76-10.07-25.38-4.4-25.38-4.4Z"/>
        <g>
          <path class="cls-19" d="M415.31,109.2s.69-7.2,9.5-12.13,16.23-7.58,23.88-1.89,6,18.57,4.41,20.08c-3.15,2.95-9.94,6.82-28.06,3C414.15,116,415.31,109.2,415.31,109.2Z"/>
          <path class="cls-20" d="M374.89,104.23S377.31,93.37,394.36,87,422.5,77.53,432,88s4.76,28-1.94,30.16-34.63,4-51.46-3.08C378.62,115.06,372.61,111.83,374.89,104.23Z"/>
          <path class="cls-21" d="M543.48,146.06s1.34-12.11,18.31-20.39,31.26-12.75,46-3.19,11.61,31.23,8.49,33.78c-6.07,5-19.14,11.46-54,5.1C541.25,157.54,543.48,146.06,543.48,146.06Z"/>
        </g>
        <g>
          <path class="cls-22" d="M755.46,318.8a9.58,9.58,0,0,1-1.83,5.31c-2.88,3.83-7.68,3.71-8.19,3.69l.16-8.5-3,.13v4.7a6.21,6.21,0,0,1-3.77-.47,6.63,6.63,0,0,1-3.37-4l-1.24,0L735,322a4.6,4.6,0,0,1-3.38.49,4.82,4.82,0,0,1-3.1-2.68h-.92s.6,5.37,7.81,3.58c1.32,1.88,4.39,3.88,7.22,2.88-.16,5.84-1.11,28.68-1.11,28.68h3.33l.57-25.05a11.74,11.74,0,0,0,7.93-3.6,12.16,12.16,0,0,0,3.24-7.73Z"/>
          <path class="cls-22" d="M719.3,302.58a3.58,3.58,0,0,0,2,3.74c1.9-.49,1.27-1,1.27-1s-3.06-2.43-2.17-2.7S719.3,302.58,719.3,302.58Z"/>
          <path class="cls-23" d="M775.53,294.09s-17.66-7.92-28.31,0c-9,7.73.24,11,6.33,10.72,9.41-.11,20.92-1,20.92-1S787.23,301.47,775.53,294.09Z"/>
          <path class="cls-24" d="M734.1,296.84s-11.6-5.16-18.6,0c-6,5,.15,7.19,4.16,7,6.18-.08,13.75-.63,13.75-.63S741.8,301.65,734.1,296.84Z"/>
          <path class="cls-22" d="M762,304.56a3.61,3.61,0,0,1-2,3.75c-1.9-.5-1.26-1-1.26-1s3.06-2.43,2.16-2.71S762,304.56,762,304.56Z"/>
          <path class="cls-25" d="M759.38,306.67s-25.52-9.72-40.91,0c-13.08,9.5.35,13.55,9.15,13.17,13.59-.14,30.23-1.18,30.23-1.18S776.29,315.73,759.38,306.67Z"/>
        </g>
        <g>
          <path class="cls-22" d="M1035.46,311.8a9.58,9.58,0,0,1-1.83,5.31c-2.88,3.83-7.68,3.71-8.19,3.69l.16-8.5-2.95.13v4.7a6.21,6.21,0,0,1-3.77-.47,6.63,6.63,0,0,1-3.37-4l-1.24,0L1015,315a4.6,4.6,0,0,1-3.38.49,4.82,4.82,0,0,1-3.1-2.68h-.92s.6,5.37,7.81,3.58c1.32,1.88,4.39,3.88,7.22,2.88-.16,5.84-1.11,28.68-1.11,28.68h3.33l.57-25.05a11.74,11.74,0,0,0,7.93-3.6,12.16,12.16,0,0,0,3.24-7.73Z"/>
          <path class="cls-22" d="M999.3,295.58a3.58,3.58,0,0,0,2,3.74c1.9-.49,1.27-1,1.27-1s-3.06-2.43-2.17-2.7S999.3,295.58,999.3,295.58Z"/>
          <path class="cls-26" d="M1055.53,287.09s-17.66-7.92-28.31,0c-9,7.73.24,11,6.33,10.72,9.41-.11,20.92-1,20.92-1S1067.23,294.47,1055.53,287.09Z"/>
          <path class="cls-27" d="M1014.1,289.84s-11.6-5.16-18.6,0c-6,5,.15,7.19,4.16,7,6.18-.08,13.75-.63,13.75-.63S1021.8,294.65,1014.1,289.84Z"/>
          <path class="cls-22" d="M1042,297.56a3.61,3.61,0,0,1-2,3.75c-1.9-.5-1.26-1-1.26-1s3.06-2.43,2.16-2.71S1042,297.56,1042,297.56Z"/>
          <path class="cls-28" d="M1039.38,299.67s-25.52-9.72-40.91,0c-13.08,9.5.35,13.55,9.15,13.17,13.59-.14,30.23-1.18,30.23-1.18S1056.29,308.73,1039.38,299.67Z"/>
        </g>
        <g>
          <path class="cls-22" d="M185.74,349.15a7.71,7.71,0,0,1-1.5,4.34,8.23,8.23,0,0,1-6.69,3l.13-6.95-2.41.1v3.85a5.07,5.07,0,0,1-3.08-.39,5.37,5.37,0,0,1-2.76-3.25l-1,0,.61,1.89a3.73,3.73,0,0,1-2.77.4,4,4,0,0,1-2.53-2.19H163s.49,4.39,6.39,2.93c1.07,1.54,3.58,3.17,5.9,2.35-.13,4.78-.91,23.46-.91,23.46h2.72q.24-10.25.47-20.49a9.58,9.58,0,0,0,6.48-2.94,9.9,9.9,0,0,0,2.65-6.32Z"/>
          <path class="cls-29" d="M189,339.23s-19.08-7.26-31.76-.94q-.36,5.52-.82,11A23.27,23.27,0,0,0,163,350c11.11-.11,24.72-1,24.72-1S202.78,346.64,189,339.23Z"/>
          <path class="cls-22" d="M533.34,345.91q-6.84,1-11.49,17.37c-2.41-4.78-8.09-8-14.51-8.35a19.21,19.21,0,0,0-14.88,5.84,14.76,14.76,0,0,0-6.95-12.35c-6.77-4.36-17.35-4.47-25.65.09-2.24-8.09-10.51-14.18-20.31-15.17-11.58-1.17-23.22,5-26.45,14.66-10.83-8.79-27.17-9.83-37.13-3.75-10.71,6.53-9.2,18.35-9.1,19-7.66-7.38-20.18-10.44-31.53-7.75C325,358,317.17,364.86,315,373.32c-6.32-4.38-15.08-4.81-20.69-1.52a11.58,11.58,0,0,0-5.77,9.68A23.78,23.78,0,0,0,277,383.23a16.18,16.18,0,0,0-9,8.84c.51-14.09-14.44-14.26-23-9.87,6.14-9.41-16-33.27-37.41-10.88a20.41,20.41,0,0,0-13.43-7.74c-9.06-1.13-19.08,3.86-22.91,12.46a48,48,0,0,0-16.49-6.4C34.87,358.15-8.53,416.36-8.53,416.36s352.11,7.48,445.64,11.21l110,1,29-6Q549,343.7,533.34,345.91Z"/>
          <path class="cls-22" d="M976.11,385.57c1.19-10.05,2.08-29.59-8.05-44.14a45.65,45.65,0,0,0-3.95-4.86c-1.42-1.52-18.44-19.34-31.77-13.66-8.32,3.55-10.88,14.41-11.49,17.37-2.41-4.78-8.09-8-14.51-8.35a19.21,19.21,0,0,0-14.88,5.84,14.76,14.76,0,0,0-7-12.35c-6.77-4.36-17.35-4.47-25.65.09-2.24-8.09-10.51-14.18-20.31-15.17-11.58-1.17-23.22,5-26.45,14.66-10.83-8.79-27.17-9.83-37.13-3.75-10.71,6.53-9.2,18.35-9.1,19-7.66-7.38-20.18-10.44-31.53-7.75C724,335,716.17,341.86,714,350.32c-6.32-4.38-15.08-4.81-20.69-1.52a11.58,11.58,0,0,0-5.77,9.68A23.78,23.78,0,0,0,676,360.23a16.18,16.18,0,0,0-9,8.84c.51-14.09-14.44-14.26-23-9.87,6.14-9.41-16-33.27-37.41-10.88a20.41,20.41,0,0,0-13.43-7.74c-9.06-1.13-19.08,3.86-22.91,12.46a48.22,48.22,0,0,0-21.91-7.11c-2-.15-21.21-1.38-28.59,7.53a16.29,16.29,0,0,0-3.21,7.32c-3.73,16.77-.25,39.72,1.54,49.79l3,17c96.74-3.06,192.57-19.23,289-27q67-5.4,134-10Z"/>
          <path class="cls-22" d="M1329.11,377.57c1.08-8.35,4.78-41.09-7-58.14a49.27,49.27,0,0,0-4-4.86c-1.42-1.52-18.44-19.34-31.77-13.66-8.32,3.55-10.88,14.41-11.49,17.37-2.41-4.78-8.09-8-14.51-8.35a19.21,19.21,0,0,0-14.88,5.84,14.76,14.76,0,0,0-7-12.35c-6.77-4.36-17.35-4.47-25.65.09-2.24-8.09-10.51-14.18-20.31-15.17-11.58-1.17-23.22,5-26.45,14.66-10.83-8.79-27.17-9.83-37.13-3.75-10.71,6.53-9.2,18.35-9.1,19-7.66-7.38-20.18-10.44-31.53-7.75-10.35,2.46-18.17,9.33-20.3,17.79-6.32-4.38-15.08-4.81-20.69-1.52a11.58,11.58,0,0,0-5.77,9.68,23.78,23.78,0,0,0-11.61,1.75,16.18,16.18,0,0,0-9,8.84c.51-14.09-14.44-14.26-23-9.87,6.14-9.41-16-33.27-37.41-10.88a20.41,20.41,0,0,0-13.43-7.74c-9.06-1.13-19.08,3.86-22.91,12.46a48.22,48.22,0,0,0-21.91-7.11c-2-.15-21.21-1.38-28.59,7.53a16.29,16.29,0,0,0-3.21,7.32c-3.73,16.77-.25,39.72,1.54,49.79l-4,7c102.35-7.91,211.82-6.61,324-7,37.23-.13,71.9-5.78,108-5Z"/>
        </g>
        <path class="cls-30" d="M817.91,363.9c-39.92-4.52-68.78,15.92-75.4,20.88C686.33,381,670.76,420.19,692.42,429c0,0-46.7-17.28-90,6.74-4.64-2.26-29.76-7.93-35.7-7.42-26.55,2.3-42.42,19.29-45.19,29.36,252.2.53,309.13,3.77,309.13,3.77l78.76-9.38a103.4,103.4,0,0,0-12.49-36.21C871.07,370.78,821.64,364.32,817.91,363.9Z"/>
        <path class="cls-31" d="M1146.58,454.78c-4.62-4.5-12.9-2.95-14.83-2.63-320.94,52.17-819-2.12-1145.39-20.47.28,28.48-.55,106.4-2.3,134.81l1147.69-53.92S1159.35,467.23,1146.58,454.78Z"/>
        <path class="cls-32" d="M980.92,483s-3.71-39.91,18-44.85C999,438.19,996.15,475.84,980.92,483Z"/>
        <path class="cls-32" d="M999,481.51s11.3-39.85,37-47.06C1036,434.45,1010.21,480.76,999,481.51Z"/>
        <path class="cls-17" d="M609.09,637.57c0,1.84-25.63,3.34-57.18,3.34s-57.18-1.5-57.18-3.34,25.6-3.34,57.18-3.34S609.09,635.73,609.09,637.57Z"/>
        <path class="cls-33" d="M1094.11,423.57s-19.63,4.22-9.48,20.65c-54.82-18.12-86.63-1.68-83.92,20.23-56.18-3.79-71.75,35.41-50.09,44.26,0,0-46.7-17.28-90,6.74-43.32-21.07-146.2,9.27-172.6,24.87l400.84.84Z"/>
        <path class="cls-33" d="M862.11,533.57h0l-18,31c1.14-9.88,2.95-37.14-13-65-25.84-45.12-75.27-51.58-79-52-39.92-4.51-68.78,15.92-75.4,20.88-56.18-3.79-71.75,35.41-50.09,44.26,0,0-46.7-17.28-90,6.74-43.32-21.07-146.2,9.27-172.6,24.87l400.84.84Z"/>
        <path class="cls-1" d="M1065.24-.31C967.68,1.75,870.17,6.42,772.57,6.46A106.08,106.08,0,0,1,733.66-.91Q687.58.59,641.5,1.6C543.77,3.79,446,4.75,348.29,6.46A106.21,106.21,0,0,1,309.83-.72C283.22,2.14,256.62,5.14,230,7.36c-25.46,2.13-51,3.69-76.56,3.76q-.15,5.83-.35,11.65-.9,25.31-2.65,50.56a81.41,81.41,0,0,1,3.47,27.24c0,22.91.79,45.82,1.69,68.71,1.67,41.91,3.8,83.84,3.27,125.8-.26,21-1.19,41.95-3.25,62.84q-.45,4.51-.93,9.05c3.48,70.63,3.89,141.59-4.63,211.89a106,106,0,0,1-14.54,53.73l-12.78,16.54a81.93,81.93,0,0,1,8.09,21q1.89,14.14,3.8,28.3c1.76,24-3,49.35-6.4,72.79-.46,3.12-1,6.24-1.52,9.35h964.43V-.78Q1078.18-.58,1065.24-.31Z"/>
        <path class="cls-34" d="M1208.34,489.76C817.87,474.3,84.77,475.3-15.17,477.64c-.84,30.14-9.19,432-9.19,432L1743,861l1-168,1.42-213.28S1514.72,501.89,1208.34,489.76Z"/>
        <path class="cls-30" d="M520.91,452.9c-39.92-4.52-68.78,15.92-75.4,20.88C389.33,470,373.76,509.19,395.42,518c0,0-46.7-17.28-90,6.74a65.25,65.25,0,0,0-15.82-5.08c-2.64,10.11-5.39,20.19-8.15,30.26l252.21.53,78.76-9.38a103.4,103.4,0,0,0-12.49-36.21C574.07,459.78,524.64,453.32,520.91,452.9Z"/>
        <path class="cls-35" d="M732.15,490.76s191,48.89,620,47.4S1761,540,1761,540l-1-38-464.57-7.68-102.64-.65Z"/>
        <path class="cls-36" d="M799,449.89c130,19.79,378,17.2,442.51,15.45S1579.27,445.85,1635,439.2s-89.29-19.46,125,10.8v52L796.22,491.61"/>
        <path class="cls-37" d="M772.46,500.9s-5.71-69.28,58.53-96.33c27.63-11.63,39.39,4.78,39.39,4.78s19.29-21.7,43.4-19.22,46.63,27.2,46.63,27.2,50.64-14.35,66.71,5.58c0,0,8,7.62,3.22,18.16,0,0,69.13-19.76,76.36,29.67,0,0,41-5,48.23,29.41,0,0,58.21-17.82,81.78,19.32,0,0,54.28-1.43,68.57,18.57l-17.42.13L783.8,533.65Z"/>
        <path class="cls-38" d="M447.91,538.54s22.84-18.31,66.85-12.11c0,0,8,2.48,5.6-7.44-2.06-8.53.7-20.23,24.81-13.63,13.6,3.72,24.81,12.39,24.81,12.39s3.2,1.86,0-5.57.8-13.64,12.8-13.64,23.21,6.2,23.21,6.2,8-11.16,28.81-12.4,30.4,3.72,30.4,3.72,4.8-15.57,30.41-16.74c13.61-.62,25.61,8.68,25.61,8.68s32-4.34,56.82,14.26c0,0,5.6-7.44,19.2-6.2s25.61,18,31.21,33.47l1.44,6.82Z"/>
        <g>
          <path class="cls-34" d="M596.67,613.27s-26,.12-39.11-8.79,18.53-4.68,43.91-.4c0,0-2.35-2.1-22-12.33s-14.07-18.41,1.46-11,31,19,31,19-28.25-23.06-28.54-27.57,5.1-4.68,31.22,24.28c0,0-24.07-24.22-18.91-36.05s23.27,33.5,23.27,33.5-15.88-48.61-4.86-50.71,8.73,48.54,8.73,48.54,10.91-28.05,27.85-27.58-21.93,30.16-25.56,30.57c0,0,1.52,2,7,.94s21.11-16,30-16.57c9-.59,21.92,10.07-29.55,33.61Z"/>
          <g>
            <path class="cls-39" d="M916.33,538.27s-11.66-8-14.81-7.22,3.2-7,12.61,1.72C917.91,536.28,916.33,538.27,916.33,538.27Z"/>
            <path class="cls-39" d="M918.85,538.27s-4.9-18.15-10.17-20,8.38-4.66,11.12,7.58C921.69,534.29,918.85,538.27,918.85,538.27Z"/>
            <path class="cls-39" d="M920.45,538.27s5.65-12.93,17-13.43-17,14.18-17,14.18"/>
          </g>
          <g>
            <path class="cls-39" d="M504.72,613.88s-11.66-8-14.81-7.21,3.2-7,12.6,1.71C506.29,611.89,504.72,613.88,504.72,613.88Z"/>
            <path class="cls-39" d="M504.69,614.78s-4.91-18.15-10.17-20,8.37-4.66,11.11,7.58C507.52,610.8,504.69,614.78,504.69,614.78Z"/>
            <path class="cls-39" d="M505,613.14s5.66-12.93,17-13.43-17,14.17-17,14.17"/>
          </g>
          <g>
            <path class="cls-39" d="M777.4,592.78s-11.66-8-14.81-7.22,3.2-7,12.61,1.71C779,590.79,777.4,592.78,777.4,592.78Z"/>
            <path class="cls-39" d="M779.92,592.78s-4.9-18.15-10.17-20,8.38-4.66,11.12,7.59C782.76,588.8,779.92,592.78,779.92,592.78Z"/>
            <path class="cls-39" d="M781.52,593.52s28.33-14.67,17-14.17-17,13.43-17,13.43"/>
          </g>
          <g>
            <path class="cls-39" d="M786,538.09s-9.45-6.94-12-6.29,2.59-6.12,10.21,1.49C787.32,536.36,786,538.09,786,538.09Z"/>
            <path class="cls-39" d="M788.08,538.09s-4-15.81-8.24-17.44,6.79-4.06,9,6.61C790.38,534.62,788.08,538.09,788.08,538.09Z"/>
            <path class="cls-39" d="M789.38,538.09s4.58-11.26,13.77-11.7-13.77,12.35-13.77,12.35"/>
          </g>
        </g>
        <g>
          <path class="cls-40" d="M681.79,627.8c280.62,65.75,500.06,56.94,649.1,36.51,136.94-18.77,572.2-90.4,601-7.44,3.5,10.08,1.3,29.39,0,102.64-1,57.44,1,116.59,1.54,147.06-533.34,0-1948.6-.76-1948.6-.76l-4.6-294.9S508.19,623,681.79,627.8Z"/>
          <g>
            <path class="cls-40" d="M1587.7,663.5a27,27,0,0,1,15.88-8.14c10.45-1.61-11.24-8.58-19,8.14C1584.6,663.5,1581.11,670.93,1587.7,663.5Z"/>
            <path class="cls-40" d="M1573,664.43s15.88-20.9,25.17-26.47-8.91-6-21.3,11.38C1576.85,649.34,1570.65,659.79,1573,664.43Z"/>
            <path class="cls-40" d="M1568.33,664.43s10.55-33.91,15.34-38.09-7.6-6.5-15.34,21.14C1568.33,647.48,1565.23,662.11,1568.33,664.43Z"/>
            <path class="cls-40" d="M1562.71,664.43s4.07-31.12,7.94-35.76S1555.93,633.77,1562.71,664.43Z"/>
            <path class="cls-40" d="M1560.39,664.43s.19-25.93-8.14-29.92S1557.1,651.43,1560.39,664.43Z"/>
            <path class="cls-40" d="M1557.68,664.43s-5.23-29.71-18-30.41S1549.74,644.92,1557.68,664.43Z"/>
            <path class="cls-40" d="M1556.58,664.43s-6.84-12.08-18.46-11.15S1553.74,660.71,1556.58,664.43Z"/>
          </g>
          <g>
            <path class="cls-40" d="M754.7,623.68a27,27,0,0,1,15.88-8.14c10.45-1.61-11.24-8.58-19,8.14C751.6,623.68,748.11,631.11,754.7,623.68Z"/>
            <path class="cls-40" d="M740,624.61s15.88-20.9,25.17-26.48-8.91-6-21.3,11.38C743.85,609.51,737.65,620,740,624.61Z"/>
            <path class="cls-40" d="M735.33,624.61s10.55-33.91,15.34-38.09-7.6-6.5-15.34,21.14C735.33,607.66,732.23,622.29,735.33,624.61Z"/>
            <path class="cls-40" d="M729.71,624.61s4.07-31.12,7.94-35.77S722.93,594,729.71,624.61Z"/>
            <path class="cls-40" d="M727.39,624.61s.19-25.93-8.14-29.92S724.1,611.6,727.39,624.61Z"/>
            <path class="cls-40" d="M724.68,624.61s-5.23-29.71-18-30.42S716.74,605.1,724.68,624.61Z"/>
            <path class="cls-40" d="M723.58,624.61s-6.84-12.08-18.46-11.15S720.74,620.89,723.58,624.61Z"/>
          </g>
        </g>
        <g>
          <path class="cls-41" d="M1002.78,536.6c.33-.84-2.12-1.56-4.37-4.76-2.1-3-4.24-5.85-4.62-7.32-2-7.66-8-16.88-10.56-20.3-8-10.87-11.8-27.18-18.08-54.23a400.43,400.43,0,0,1-7.92-46.48c-.45-27,3.27-47.31,10.95-59.05a318.93,318.93,0,0,0,21.9-40s45.07,2,48.94,0,14.81-11.72,12.88-36.74l.64-6L1041,264.89s-3.56,22.44-18.41,24.18c-17.7,2.43-37.94-8.38-35-24.18H974.7s4,46.08-15.5,55.81c-14.52,3.83-23.09-2.22-22.43-29.2l.65-27-23.09,0s1.32,28.68,0,30.42-11.54,19.47-22.43-17c-9.24-25.73-4-13.34-4-13.34l-12.54.29S881,293.24,899.49,311c12.2,17,12.53,45.55,3.3,55.63-9.9,10.08-26.73,15.65-39.59-44.16-8.58-39.63-10.89-57.55-10.89-57.55l-17.82-.2s7.26,47.32,5.94,55.67c-1.65,9.38-2.31,38.24-41.23,26.07-93.35-26.63,14-65.19.66-87.27-3.81-6.3-63.88,62.62-69.51,45.75-8.81-26.41-13.63-41.57-13.63-41.57L702.21,263s-.67,15.54,2.3,19.71c-4.65.33-43.31-2.93-60.48-11.33-15.33-7.48-35.39-18.33-37-22.46-3.88-.16-15.72.16-19.6,0,3,7.67,8,10.71,11.71,13.53,14.22,10.85,44.51,25.17,96.44,32.35,1.71.23,8.4.75,12.29,1.79,0,.1.21,1.59.21,1.59s2,38.91,48.57,57.68c41.57,16.34,59.71,24.69,70.27,31.29s17.81,13.56,16.16,36.16a186.62,186.62,0,0,0,3,54.07,182.78,182.78,0,0,0,22.76,58.24c35.72,1.17,58.66,1.29,73.37,1.15,29.5-.29,46.29-1.81,55.12.34C997.34,537.08,1002.34,537.73,1002.78,536.6Z"/>
          <path class="cls-42" d="M962.61,438.24c-9.13,3.86-25.47,10.84-34,19.47C897,489.6,918.51,531.54,921,536.1l83.36,1.11a58.42,58.42,0,0,1-12.55-18.39C979.67,492,964.94,459.52,962.61,438.24Z"/>
          <path class="cls-43" d="M860.52,311.49s15.45,60.3,27.56,59.86C875.55,377.51,852.16,360.78,860.52,311.49Z"/>
          <path class="cls-44" d="M628.66,130.39c3.59-26,13-65.26,41.45-97.32C746.87-53.56,893.88-13.25,940.91-.31c116.1,31.94,191.34,108.52,228.2,153.1l18.28,14.3a1516.59,1516.59,0,0,1-291.75,24.42,1516.06,1516.06,0,0,1-253.87-24.84Z"/>
          <path class="cls-45" d="M629.69,128.94c3.55-25,12.9-62.82,41-93.69,76-83.39,221.42-44.58,268-32.13C1053.56,33.87,1128,107.59,1164.49,150.5l18.09,13.77a1541.91,1541.91,0,0,1-288.7,23.51,1539.86,1539.86,0,0,1-251.22-23.92Z"/>
          <path class="cls-44" d="M1104.34,143.48s106.31-24.28,153.43,49.67c30.69,57.38,36.17,76-153.43,65.59C1072.29,166.85,1104.34,143.48,1104.34,143.48Z"/>
          <path class="cls-46" d="M1107.1,145.63s103.26-24.68,149,50.49c29.8,58.33,35.12,77.25-149,66.67C1076,169.39,1107.1,145.63,1107.1,145.63Z"/>
          <path class="cls-44" d="M651.88,248.88c-3.2,0-96.13-6.5-96.13-6.5s-57.69-11.93-24.57-41.2a55.16,55.16,0,0,0,20.94-17.75c6.59-9.58,4.83-14.28,9-23.11,13.33-27.95,58-37.46,58-37.46h0s60.64-12.33,105.75,11.87c5,2.69,7.51,4.15,9.43,6.67,20.86,27.38-44,107.48-44,107.48Z"/>
          <path class="cls-47" d="M698.41,252.31c-3.1,0-175.33-3.43-175.33-3.43s-31.22-4.69-13.79-33.57c10.16-14.43,17.55-25.49,23.74-34.83,6.37-9.61,23.54-24.22,35.06-32.29,28.32-22.38,82.66-23.84,82.66-23.84h0s58.56-12.37,102.14,11.9c4.86,2.71,7.25,4.17,9.1,6.69,20.16,27.47-42.52,107.82-42.52,107.82Z"/>
          <path class="cls-44" d="M656.86,175s52.89-43.81,108.34-61C825.76,88.2,906,30.66,1003.2,57.28c75.07,24.91,131.37,59.26,164.64,122.82,16.21,36.93,18.77,81.6-104.93,75.58l-344.63.55S583.49,246.24,656.86,175Z"/>
          <path class="cls-48" d="M651.81,184.4s53.5-44.53,109.59-62c61.27-26.2,142.39-84.7,240.77-57.63,75.94,25.32,132.9,60.25,166.55,124.86,16.4,37.55,19,82.95-106.14,76.84L713.94,267S577.59,256.87,651.81,184.4Z"/>
          <path class="cls-43" d="M1052.62,266.49s1.57,25.08-10,35.18c-3.46,3.54-6.2,3.44-10.33,3.54A24,24,0,0,0,1046.67,288a132.63,132.63,0,0,0,3.15-21.5l1.87,0Z"/>
          <path class="cls-43" d="M937.53,266.61c-.46,4.55-.79,18.31-.61,21.39.8,13.52,1.71,28.91,10,32.88a10.93,10.93,0,0,0,6.25.83l3.15-.37c-3.88,5-7.34,5.46-8.46,5.52C941,327.2,933,317.78,931,302.62a96.87,96.87,0,0,1-1.39-21.8c.32-6.05,1.25-14.3,1.25-14.3h0Z"/>
        </g>
        <g>
          <path class="cls-49" d="M201.08,598.45c-.39-1,2.5-1.84,5.14-5.62,2.46-3.51,5-6.92,5.42-8.65,2.33-9,9.44-19.95,12.4-24,9.43-12.84,13.87-32.11,21.25-64.06a475.65,475.65,0,0,0,9.3-54.92c.53-31.88-3.84-55.91-12.86-69.77A376.83,376.83,0,0,1,216,324.13s-53,2.4-57.5,0-17.4-13.85-15.13-43.41l-.76-7.11,13.62,3.81s4.19,26.51,21.63,28.57c20.8,2.87,44.57-9.89,41.08-28.57h15.11s-4.65,54.45,18.22,65.95c17,4.52,27.12-2.63,26.35-34.51L277.86,277,305,277s-1.55,33.89,0,35.94,13.57,23,26.35-20.13c10.86-30.4,4.66-15.76,4.66-15.76l14.72.34s-6.59,33.5-28.29,54.45c-14.34,20.13-14.73,53.81-3.87,65.73,11.62,11.91,31.39,18.48,46.5-52.18,10.08-46.83,12.79-68,12.79-68l20.93-.23s-8.53,55.91-7,65.77c1.94,11.09,2.71,45.19,48.44,30.81,109.66-31.47-16.47-77-.78-103.11,4.48-7.45,75.05,74,81.66,54,10.34-31.21,16-49.12,16-49.12l17-.45s.79,18.36-2.7,23.29c5.46.39,50.88-3.47,71-13.38,18-8.85,41.56-21.67,43.47-26.54,4.56-.19,18.47.19,23,0-3.55,9.06-9.41,12.66-13.76,16C658.55,287.31,623,304.24,562,312.71c-2,.28-9.86.89-14.44,2.12,0,.12-.24,1.88-.24,1.88s-2.41,46-57,68.15c-48.83,19.31-70.15,29.17-82.55,37s-20.93,16-19,42.73a221.4,221.4,0,0,1-3.49,63.88,216.39,216.39,0,0,1-26.74,68.81c-42,1.39-68.9,1.52-86.18,1.35-34.66-.33-54.38-2.13-64.75.41C207.47,599,201.59,599.79,201.08,598.45Z"/>
          <path class="cls-42" d="M248.27,482.23c10.73,4.57,29.91,12.82,40,23,37.09,37.68,11.85,87.23,9,92.62l-97.92,1.31A69.12,69.12,0,0,0,214,577.45C228.23,545.74,245.53,507.38,248.27,482.23Z"/>
          <path class="cls-43" d="M368.2,332.49s-18.15,71.23-32.38,70.71C350.54,410.48,378,390.73,368.2,332.49Z"/>
          <path class="cls-44" d="M640.57,113.14c-4.22-33-15.32-82.82-48.7-123.52C501.7-120.32,329-69.16,273.77-52.74,137.38-12.2,49,85,5.69,141.56l-21.47,18.15a1652.27,1652.27,0,0,0,342.71,31,1654.54,1654.54,0,0,0,298.23-31.53Z"/>
          <path class="cls-50" d="M639.35,113.74C635.18,82.87,624.2,36.26,591.17-1.81c-89.23-102.84-260.11-55-314.78-39.62C141.43-3.51,54,87.41,11.13,140.33l-21.26,17a1727.44,1727.44,0,0,0,339.13,29,1727,1727,0,0,0,295.11-29.5Z"/>
          <path class="cls-44" d="M81.77,134S-43.1,105.29-98.46,192.66c-36,67.8-42.49,89.79,180.23,77.49C119.43,161.59,81.77,134,81.77,134Z"/>
          <path class="cls-51" d="M78.53,136.52S-42.76,107.36-96.53,196.17c-35,68.92-41.26,91.27,175.06,78.77C115.11,164.59,78.53,136.52,78.53,136.52Z"/>
          <path class="cls-44" d="M613.28,258.51c3.76,0,112.93-7.69,112.93-7.69s67.76-14.09,28.86-48.67a64.87,64.87,0,0,1-24.59-21c-7.75-11.32-5.68-16.88-10.62-27.3-15.66-33-68.18-44.27-68.18-44.27h0s-71.22-14.57-124.22,14c-5.91,3.19-8.82,4.91-11.07,7.88-24.52,32.36,51.72,127,51.72,127Z"/>
          <path class="cls-52" d="M558.63,262.56c3.64,0,206-4.05,206-4.05s36.67-5.55,16.2-39.66c-11.94-17.06-20.62-30.13-27.89-41.16-7.48-11.36-27.65-28.62-41.19-38.15-33.26-26.44-97.1-28.17-97.1-28.17h0s-68.79-14.62-120,14.07c-5.71,3.19-8.52,4.92-10.7,7.9-23.67,32.46,50,127.39,50,127.39Z"/>
          <path class="cls-44" d="M607.44,171.16s-62.13-51.76-127.27-72C409,68.66,314.83.67,200.59,32.13c-88.18,29.43-154.32,70-193.4,145.11-19,43.64-22,96.41,123.25,89.31l404.85.64S693.62,255.38,607.44,171.16Z"/>
          <path class="cls-53" d="M613.37,182.33s-62.85-52.62-128.74-73.25C412.65,78.13,317.36,9,201.8,41,112.59,70.91,45.68,112.17,6.15,188.52c-19.26,44.36-22.3,98,124.69,90.78l409.54.66S700.55,268,613.37,182.33Z"/>
          <path class="cls-43" d="M142.53,279.32s-1.84,29.63,11.78,41.57c4.07,4.17,7.29,4.06,12.14,4.17a28.27,28.27,0,0,1-16.93-20.34c-3.37-15.65-3.69-25.4-3.69-25.4l-2.2,0Z"/>
          <path class="cls-43" d="M277.73,279.45c.54,5.39.93,21.64.71,25.28-.93,16-2,34.15-11.77,38.85a12.85,12.85,0,0,1-7.34,1l-3.7-.44c4.55,5.95,8.62,6.46,9.93,6.52,8.08.4,17.54-10.72,19.84-28.64A115,115,0,0,0,287,296.24c-.37-7.15-1.47-16.89-1.47-16.89h0Z"/>
        </g>
        <g>
          <path class="cls-54" d="M652.82,458.4c.08-.21-.57-.55-1.13-1.34a5.08,5.08,0,0,1-.75-1.82c-.49-1.91-2.39-4.23-3-5.08-2-2.72-2.93-6.79-4.49-13.54a101.67,101.67,0,0,1-2-11.61c-.11-6.74.81-11.82,2.72-14.75a80,80,0,0,0,5.43-10s11.2.51,12.15,0,3.68-2.92,3.2-9.17l.16-1.5-2.88.8s-.88,5.61-4.57,6c-4.39.61-9.42-2.09-8.68-6h-3.19s1,11.51-3.85,13.94c-3.61,1-5.74-.55-5.57-7.29l.16-6.74h-5.73s.33,7.16,0,7.6-2.87,4.86-5.57-4.26c-2.3-6.42-1-3.33-1-3.33l-3.11.07s1.39,7.08,6,11.51c3,4.25,3.11,11.37.82,13.89-2.46,2.52-6.63,3.91-9.83-11-2.13-9.9-2.7-14.38-2.7-14.38l-4.42-.05s1.8,11.82,1.47,13.9c-.41,2.35-.57,9.56-10.24,6.52-5-.74-15.07-3.4-19.25-11.38-1.55-6.77-1.23-9.37-1.23-9.37l-3.6-.1s.08,3.92.82,5a11.61,11.61,0,0,1-6.43-1.42,12.92,12.92,0,0,1-5.61-6.55l-2.89-.12a17.16,17.16,0,0,0,2.91,5.11,16.87,16.87,0,0,0,9.73,5.76,28,28,0,0,1,2.86.49s-.16,0-.16,0,.74,10.24,12.28,14.93c10.33,4.08,14.83,6.17,17.45,7.82s4.42,3.38,4,9a47.16,47.16,0,0,0,.74,13.5A45.76,45.76,0,0,0,619.51,458c8.87.29,14.57.32,18.22.29,7.32-.07,11.49-.45,13.69.08C651.43,458.37,652.71,458.68,652.82,458.4Z"/>
          <path class="cls-55" d="M641.31,423.54a22.76,22.76,0,0,0-6.95,6.52c-7.84,11.36-2.51,26.32-1.9,27.94l20.7.4a67.56,67.56,0,0,1-4-6.67A72.81,72.81,0,0,1,641.31,423.54Z"/>
          <path class="cls-55" d="M617.46,402s3.83,15.06,6.84,15C621.19,418.52,615.38,414.34,617.46,402Z"/>
          <path class="cls-56" d="M638.92,441.65a3.74,3.74,0,0,1-2.25.08,1.14,1.14,0,0,1-.73-1,1.79,1.79,0,0,1,.06-.62,2.23,2.23,0,0,1,.18-.57,7.89,7.89,0,0,1,3-3.53,3,3,0,0,1,1.23-.45,1.78,1.78,0,0,1,.78.11,2,2,0,0,1,.61.47,4.3,4.3,0,0,1,.82,2.37,13.28,13.28,0,0,1-.55,4.59l0,.07,0,.06a12.7,12.7,0,0,1-3.24,3.86,4.6,4.6,0,0,1-1.2.65,2.1,2.1,0,0,1-2.68-1,4.66,4.66,0,0,1-.53-1.22,14.29,14.29,0,0,1-.38-4.94c.15-1.6.26-3.21.45-4.82.09,1.62.1,3.23.14,4.84a13.92,13.92,0,0,0,.67,4.63c.26.68.66,1.38,1.14,1.52a2.22,2.22,0,0,0,1.72-.61,12.22,12.22,0,0,0,2.9-3.53l-.05.13a13.07,13.07,0,0,0,.58-4.18,3.51,3.51,0,0,0-.5-1.81.67.67,0,0,0-.56-.28,2,2,0,0,0-.86.26,7.44,7.44,0,0,0-2.88,3c-.33.59-.53,1.37.11,1.68A4,4,0,0,0,638.92,441.65Z"/>
          <path class="cls-44" d="M559.89,356.81c.89-6.5,3.24-16.3,10.29-24.31,19.06-21.63,55.56-11.56,67.24-8.33,28.82,8,47.5,27.1,56.65,38.23l4.54,3.57a374.38,374.38,0,0,1-72.43,6.1,374.85,374.85,0,0,1-63-6.2Z"/>
          <path class="cls-57" d="M560.15,356.44c.88-6.25,3.2-15.68,10.18-23.39,18.86-20.83,55-11.14,66.53-8,28.52,7.68,47,26.09,56.07,36.81l4.49,3.43a380.43,380.43,0,0,1-71.68,5.88,380.47,380.47,0,0,1-62.37-6Z"/>
          <path class="cls-44" d="M678,360.08s26.4-6.07,38.1,12.4c7.62,14.33,9,19-38.1,16.38C670,365.91,678,360.08,678,360.08Z"/>
          <path class="cls-58" d="M678.68,360.61s25.64-6.16,37,12.61c7.4,14.57,8.72,19.29-37,16.65C671,366.54,678.68,360.61,678.68,360.61Z"/>
          <path class="cls-44" d="M565.66,386.4c-.8,0-23.87-1.63-23.87-1.63s-14.32-3-6.1-10.29a13.73,13.73,0,0,0,5.2-4.43c1.63-2.39,1.2-3.57,2.24-5.77,3.31-7,14.41-9.36,14.41-9.36h0s15.05-3.08,26.26,3a6.76,6.76,0,0,1,2.34,1.66c5.18,6.84-10.94,26.85-10.94,26.85Z"/>
          <path class="cls-59" d="M565.46,386.86c-.77,0-23.05-1.63-23.05-1.63s-13.84-3-5.89-10.31a13.57,13.57,0,0,0,5-4.45c1.58-2.4,1.16-3.58,2.17-5.79,3.19-7,13.91-9.38,13.91-9.38h0s14.54-3.09,25.36,3a6.39,6.39,0,0,1,2.26,1.67c5,6.86-10.56,26.92-10.56,26.92Z"/>
          <path class="cls-44" d="M554,346.37s2.18-5.1,17.18-2.51c13.91,3.17,3.27,11.25-8.59,9.52S552,348.15,554,346.37Z"/>
          <path class="cls-60" d="M554,346.71s2.12-5,16.65-2.45c13.48,3.09,3.18,10.93-8.32,9.25S552.11,348.43,554,346.71Z"/>
          <path class="cls-44" d="M566.89,367.93S580,357,593.79,352.7c15-6.43,35-20.8,59.09-14.15,18.64,6.22,32.62,14.8,40.88,30.67,4,9.22,4.66,20.38-26,18.87l-85.57.14S548.68,385.73,566.89,367.93Z"/>
          <path class="cls-61" d="M565.64,369.57s13.28-11.12,27.21-15.48c15.21-6.54,35.35-21.15,59.78-14.39,18.85,6.32,33,15.05,41.35,31.18,4.07,9.38,4.71,20.72-26.36,19.19l-86.56.14S547.21,387.67,565.64,369.57Z"/>
          <path class="cls-43" d="M665.13,390.57s.41,6.49-2.47,9a3,3,0,0,1-2.56.88,6,6,0,0,0,3.58-4.3,32.44,32.44,0,0,0,.74-5.8h.71Z"/>
          <path class="cls-55" d="M636.55,390.3c-.11,1.14-.17,5.1-.12,5.87.19,3.37.42,7.21,2.49,8.21a2.67,2.67,0,0,0,1.55.2l.78-.09a2.9,2.9,0,0,1-2.1,1.38c-1.71.08-3.71-2.27-4.19-6.06a24.14,24.14,0,0,1-.35-5.44c.08-1.51.37-4.07.37-4.07h1.57Z"/>
        </g>
        <path class="cls-62" d="M286,622l-11,2-49,18c73,0,92,8,170,7,22.56-.29,37.32-14.82,56-20,114,21,242,37,352.3,48.09L927,676,741.53,656.36,590.12,627.64l-129-21.37L262.61,631.21"/>
        <polyline class="cls-63" points="712.68 483.04 851.49 286.29 988.39 286.29 1023.39 354.28 1032.81 381.16 966.28 398.92 917.55 477.82 835.57 488.86 851.49 456.19 712.68 483.04"/>
        <path class="cls-64" d="M1115.83,641.75s-49.7-1.72-101.66,15.76-51.65,30.59-115.8,36.54-187.12,22.68-101.64,28.82,272.72,78,487.11,52.54C1429.7,758.12,1446.75,742.92,1486,735s69.84-6.37,85.75-5.9c47,1.38,288.13-9.54,371.6-10.9,1-2.32-26-69.7-180-79.18-40.59-2.5-98-34.39-154.87,20.8l-7.76-9.33Z"/>
        <g>
          <path class="cls-65" d="M1795.12,445.13q-4.83-329.94,3.2-660.13L1618-98.35l-113.3,70L1437.62,17,1288.47,85.68l-91,71.23-62.2-5.47-42.75,21.47-77.29,25.64-27.48,72-37.08,61.64-93.1,126.62-8.9,46.49-15,9.83,20.46,164.76,184.69-22.78,378,6.79s99.39-32.18,106.73-47.06,148.79-5.45,148.79-5.45l122.92,73.66,3.45-62.25Q1796.42,534,1795.12,445.13Z"/>
          <path class="cls-66" d="M1690.3,220.26l111.23,55.52,124-137.21-.25,345.2-130.41,74.56s-61.67-145.17-92.51-217.75Z"/>
          <path class="cls-67" d="M1175.3,313.76s95.67,31.17,108.1,44.69a103.25,103.25,0,0,1,18,26.91l38.53,13.44,22.65,46.53-70.66-45.58-89.77,81.94s-29.25,5.72-21,57.68-5.45,134-5.45,134l-54.63-1.15s-67.51,26.75-112.85-32-105.5-173-22.6-238.84S1175.3,313.76,1175.3,313.76Z"/>
          <path class="cls-68" d="M1245.65,552.69s62,36,71.38-52.81,45.55-54.55,45.55-54.55l-22.65-46.53-43.88-23.5s-120.79,87.9-126.74,135.11-2.55,162.73-2.55,162.73l90.6,1.87s28.71-50.41,31.26-65.33Z"/>
          <polygon class="cls-69" points="1362.58 445.33 1401.07 527.72 1399.82 607.29 1433.48 665.37 1439.85 685.61 1385.22 684.48 1251.63 681.72 1199.91 587.57 1227.79 482.22 1305.54 431.88 1339.59 420.55 1362.58 445.33"/>
          <path class="cls-70" d="M1176.45,308.37c-1.57,8.13-9.16,43.13-37.43,61.91a67.32,67.32,0,0,1-26.16,10.36l5.22,35.93-15.1,3.67q7.63,21.81,15.26,43.64L1101.59,509l19.66.41,50.84,76.76s69,25.31-35.85-.74-103.5-21.61-103.5-21.61L995.48,416.69l51.71-89.24L1162,273.54l29.1,11.2Z"/>
          <path class="cls-71" d="M1101.43,671.77l-194.41-4s-23.2-58.86-23-69.47.08-5.49.08-5.49L993.2,603.57S1088.69,672.83,1101.43,671.77Z"/>
          <path class="cls-66" d="M993.2,603.57s-16-51.12-10.1-56.3-97.93-24.39-97.93-24.39l-1.1,69.91Z"/>
          <path class="cls-72" d="M983.1,547.27s-5.93-27.61,6.41-58.06,39-32.55,47.52-61.56,26.77-84.35,62.78-94.22,75.49-19.67,75.49-19.67l15.32-18.25L1258,279.65l36.39-33.74-27.9,8.71-61.3-10.56-9.54,29-33.6,3.29-54.74,24.27-32.33-3.52,52.91-54.62L1039,303l8.79,29.37s-46.09,62.16-98.22,67.34l-24.83-7.53s-48.23,93.58-39.56,130.72Z"/>
          <path class="cls-73" d="M924.73,392.16l73-76.76s32-11.28,50,17C1047.78,332.35,972.07,429,924.73,392.16Z"/>
          <polygon class="cls-66" points="1038.98 302.98 1013.55 302.46 1075.81 241.39 1147.74 226.96 1148.21 197.4 1197.29 165.63 1333.43 187.02 1308.71 214.37 1211.65 208.38 1184.45 235.68 1145.8 234.88 1127.84 242.47 1038.98 302.98"/>
          <polygon class="cls-74" points="1127.84 242.47 1074.93 297.09 1107.26 300.61 1162 276.34 1179.87 243.54 1211.65 208.38 1127.84 242.47"/>
          <polygon class="cls-65" points="1162 276.34 1205.14 244.06 1261.76 237.28 1294.34 245.91 1275.88 263.02 1365.49 259.98 1365.69 247.38 1285.4 225.82 1197.53 224.01 1179.87 243.54 1162 276.34"/>
          <path class="cls-75" d="M1197.29,165.63s69.72-21.11,82.5-24.83S1385,156.24,1385,156.24L1333.43,187Z"/>
          <polyline class="cls-74" points="1181.86 305.94 1190.62 295.5 1250.7 278.17 1364.9 297.4 1462.95 335.63 1505.07 451.92 1500.07 475.7 1473.58 468.52 1436.69 366.27 1364.65 313.7 1281.3 318.72 1226.46 306.86 1175.3 313.76"/>
          <polygon class="cls-66" points="1308.71 214.37 1333.43 187.02 1384.97 156.24 1403.1 206.37 1366.19 215.55 1308.71 214.37"/>
          <polygon class="cls-76" points="1366.19 215.55 1383.65 239.79 1421.38 228.63 1461.33 241.4 1490.51 230.06 1428.88 188.99 1366.19 215.55"/>
          <polygon class="cls-74" points="1197.53 224.01 1285.4 225.82 1365.69 247.38 1373.12 247.54 1355.83 215.34 1211.65 208.38 1197.53 224.01"/>
          <polygon class="cls-74" points="1365.69 247.38 1523.65 299.74 1582.93 310.44 1573.63 263.05 1500.23 250.16 1459.98 255.97 1383.65 239.79 1365.69 247.38"/>
          <polygon class="cls-74" points="1267.65 270.66 1365.17 280.54 1365.49 259.98 1281.04 258.24 1267.65 270.66"/>
          <polygon class="cls-72" points="1257.95 279.65 1360.12 296.6 1382.87 289.65 1365.49 259.98 1365.17 280.54 1267.65 270.66 1257.95 279.65"/>
          <polygon class="cls-66" points="1366.19 215.55 1421.38 228.63 1461.33 241.4 1490.51 230.06 1500.23 250.16 1459.98 255.97 1373.12 247.54 1355.83 215.34 1366.19 215.55"/>
          <polyline class="cls-71" points="1354.55 296.48 1473.69 318.42 1517.49 397.78 1630.45 495.64 1555.11 506.02 1504.99 457.23 1462.95 335.63 1350.05 296.39"/>
          <path class="cls-66" d="M1365.69,247.38l158,52.36,23.92,97.34,83.43,64-.55,34.53-113-97.86-43.8-79.37L1427,311l-61.79-30.46Z"/>
          <polygon class="cls-74" points="1523.6 299.81 1582.89 310.44 1639.49 404.99 1586.3 381.29 1547.62 397.12 1523.6 299.81"/>
          <polygon class="cls-66" points="1175.3 313.76 1221.63 306.76 1272.75 318.54 1361.53 312.31 1361.09 340.39 1292.76 346.43 1175.3 313.76"/>
          <path class="cls-66" d="M1361.09,340.39l59,75.28,18.2,87.94,10.8,127.58,44.73,29.21-13.29-116.12-6.89-77.09-36.91-100.92-75.16-54S1361.09,340.63,1361.09,340.39Z"/>
          <path class="cls-71" d="M1473.6,467.19s14.78,26.84,23.08,8.44l8.31-18.4,20.58,25.59L1493.78,660.4Z"/>
          <path class="cls-77" d="M1175.3,313.76l-49.85,80.61-63,32.48-15.81-24.3s11.17-49.3,36.22-60.46S1175.3,313.76,1175.3,313.76Z"/>
          <path class="cls-78" d="M1062.48,426.85l-30.07,68.37-26.76-.56,22,13.73,4.77,56.76-23.18,11,23,.47,69.18,95.11L988.31,603.09,978.1,546s-4.61-46.29,17.69-68.59,36.87-39.38,36.87-39.38l14-35.5Z"/>
          <path class="cls-79" d="M1175.3,313.76s101.37,36.59,108.1,44.69,12.65,16.85,12.65,16.85l65-34.91-68.33,6-110.11-33.78Z"/>
          <polygon class="cls-72" points="1296.05 375.3 1339.93 398.8 1369.78 460.73 1420.05 415.67 1388.89 375.89 1361.09 340.39 1296.05 375.3"/>
          <path class="cls-66" d="M1292.76,346.43l22.2,21.3,38.27,13,38.08,60.68,23.83,65.69q3.54,47.79,7.07,95.57l32.25,52.51,13.45,31-28.06-.58-40-78.32,1.25-79.57q-30.75-53.58-61.48-107.17l-15.89-27.41-27.65-17.84Z"/>
          <polygon class="cls-71" points="1391.32 441.42 1420.05 415.67 1437.17 498.37 1449.05 631.19 1422.21 602.68 1418.46 516.85 1391.32 441.42"/>
          <polygon class="cls-80" points="1422.21 602.68 1454.46 655.18 1467.91 686.19 1493.78 660.4 1447.46 627.47 1422.21 602.68"/>
          <polygon class="cls-80" points="831.2 666.18 884.07 592.79 907.02 667.75 831.2 666.18"/>
          <path class="cls-81" d="M924.73,392.16l-52,43.47L833.56,516q-1.17,75.1-2.36,150.19l52.87-73.39,1.1-69.91S902.88,415.59,924.73,392.16Z"/>
          <path class="cls-82" d="M924.73,392.16l73-76.76,78.08-74-53.72,11.49-74.68,62.8-.63,16.15-21.19,5.66-52.84,98.14Z"/>
          <path class="cls-76" d="M1638.06,495.8l16,43,38.66.8,27.62,39.81,90.07,41.09L1873,612l-89.43-70.74-40.47-.84-26.12-31Z"/>
          <polygon class="cls-66" points="1654.07 538.77 1651.63 693.76 1688.79 694.52 1680.21 578.54 1692.72 539.57 1654.07 538.77"/>
          <polygon class="cls-66" points="1692.72 539.57 1720.35 579.38 1810.41 620.47 1777.45 709.62 1706.63 694.89 1692.72 539.57"/>
          <path class="cls-72" d="M1810.41,620.47c-.32-.39,62.59-8.47,62.59-8.47l56.6,43.85-89.12,38-63,15.73Z"/>
          <polygon class="cls-76" points="1639.25 420.2 1724.88 480.35 1843.01 511.98 1818.72 470.01 1681.4 407.81 1639.25 420.2"/>
          <polygon class="cls-66" points="1639.25 420.2 1724.88 480.35 1716.98 509.37 1694.47 522.8 1659.19 496.24 1630.45 495.64 1639.25 420.2"/>
          <path class="cls-83" d="M1724.88,480.35l28.13,7.53q-.37,29.69-.77,59.37l-9.14-6.83-26.12-31Z"/>
          <polygon class="cls-72" points="1753.01 487.88 1843.01 511.98 1925 484.53 1927.13 655.17 1783.57 541.26 1752.08 547.24 1753.01 487.88"/>
          <polygon class="cls-79" points="1525.57 482.82 1509.07 575.01 1586.09 606.07 1654.07 538.77 1638.06 495.8 1555.11 506.02 1504.99 457.23 1525.57 482.82"/>
          <polygon class="cls-78" points="1509.07 575.01 1493.78 660.4 1493.31 690.48 1595.14 692.59 1586.09 606.07 1509.07 575.01"/>
          <polygon class="cls-71" points="1586.09 606.07 1654.07 538.58 1651.63 693.76 1595.14 692.59 1586.09 606.07"/>
          <polygon class="cls-72" points="1692.22 539.37 1680.21 578.54 1688.79 694.52 1706.63 694.89 1692.22 539.37"/>
          <polygon class="cls-76" points="1547.62 397.12 1586.3 381.29 1639.49 404.99 1681.4 407.81 1639.25 420.2 1631 461.11 1547.62 397.12"/>
          <polygon class="cls-66" points="1582.89 310.44 1683.79 340.19 1681.4 407.81 1639.49 404.99 1582.89 310.44"/>
          <polygon class="cls-72" points="1683.79 340.19 1754.89 368.2 1754.12 417.17 1818.72 470.01 1681.4 407.81 1683.79 340.19"/>
          <polygon class="cls-74" points="1573.63 263.05 1683.42 279.25 1754.89 368.2 1683.79 340.19 1582.89 310.44 1573.63 263.05"/>
          <polygon class="cls-66" points="1683.42 279.25 1683.79 340.19 1754.89 368.2 1683.42 279.25"/>
          <polygon class="cls-76" points="1500.23 250.16 1542.04 215.21 1617.67 204.97 1690.3 220.26 1649.75 245.3 1616.66 269.4 1500.23 250.16"/>
          <path class="cls-84" d="M1690.3,220.26l12.62,83.26-19.5-24.27-66.76-9.85S1678.66,224.67,1690.3,220.26Z"/>
          <g>
            <path class="cls-72" d="M1575,628.28l34.65,18.31q9.7,39.78,19.4,79.56c-.16-.06-14.47-4.7-28.59-10.49-10.32-4.23-15.48-6.34-17.12-8-2.65-2.73-7.58-9.22-9-40.86A327.6,327.6,0,0,1,1575,628.28Z"/>
            <path class="cls-66" d="M1605.35,646.5s1.08-7.68,25.91-1.67,40.09,10.73,40.09,10.73l48.72,10.51-5.82,65.14L1629,726.15Z"/>
            <path class="cls-72" d="M1720.07,666.07l27.1-16.64-10.36,49.26-5.26,13.09q-8.65,9.71-17.3,19.43Z"/>
            <path class="cls-85" d="M1575.91,629.4a144.46,144.46,0,0,1,57.82-19.7c13.29-1.48,41.61-4.25,71,10.88l42.43,28.85h0l-27.1,16.64c-13.12-1.92-27.2-4.56-42-8.18-13.22-3.21-25.6-6.84-37.07-10.66-19.42-1.86-33.62-2.92-34.08-2.75-1,.37-.93.42-1.49.62C1599.81,647.12,1590.9,645.11,1575.91,629.4Z"/>
          </g>
          <g>
            <path class="cls-72" d="M1415.69,618.32a73.74,73.74,0,0,1,26.9,27.88c17.35,31.27,8.34,65.54,6.83,71l-31.57-11.78a289.19,289.19,0,0,1-2.16-87.06Z"/>
            <polygon class="cls-72" points="1417.97 697.29 1416.42 684.1 1435.11 652.65 1417.97 697.29"/>
            <path class="cls-66" d="M1447.8,651.36l67.93-.62,21.5-3.6,12,58.93-.3,19.22c-5.23.34-12.86.87-22.07,1.57-19.86,1.5-29.78,2.26-41.52,3.68-8.88,1.08-21.3,2.85-36.26,5.84"/>
            <path class="cls-74" d="M1429.4,612.18q-10.55,1.73-11.91,6.74-2.67,9.87,30.31,32.44l6.18.13,21.17-.57,40.57.83,40.83-16.35-5.28-1.12L1476,599.33Z"/>
            <path class="cls-72" d="M1537,647.13l19.59-11.73-4.39,54.54q-2,16.34-4,32.68L1546.59,708Z"/>
            <path class="cls-72" d="M1416.56,703.34l32.55,33q.15-10.61.28-21.21Z"/>
          </g>
          <polygon class="cls-74" points="1385.52 186.1 1456.49 157.72 1617.67 204.97 1542.04 215.21 1500.23 250.16 1490.51 230.06 1438.21 195.21 1403.1 206.37 1385.52 186.1"/>
          <path class="cls-74" d="M1563.2,212.35s62.86-57.62,103.69-64.14S1745.67,177,1745.67,177l-55.37,43.3Z"/>
          <polygon class="cls-72" points="1745.67 176.97 1801.53 275.78 1690.3 220.26 1745.67 176.97"/>
          <polygon class="cls-78" points="947.41 315.69 946.78 331.83 925.59 337.49 947.41 315.69"/>
          <polygon class="cls-78" points="833.56 515.99 848.34 522.12 833.31 532.18 833.56 515.99"/>
          <polygon class="cls-63" points="1175.3 313.76 1283.4 358.45 1296.05 375.3 1292.76 346.43 1190.37 308.77 1175.3 313.76"/>
          <path class="cls-66" d="M1125.45,394.37s50.69-34.16,57.48-38S1243.7,342,1243.7,342l-68.4-28.28Z"/>
          <path class="cls-78" d="M1175.19,320.39l-54.32,73.88-46.71-48.18S1167.58,321.46,1175.19,320.39Z"/>
          <polygon class="cls-71" points="847.27 600.56 833.37 621.66 831.15 653.38 845.8 619.2 847.27 600.56"/>
          <polygon class="cls-71" points="901.21 586.45 931.9 604.31 925.13 630.88 926.82 603.2 901.21 586.45"/>
          <path class="cls-71" d="M884.3,583.27s-38.35,7.22-43,11.29-17.63,17.07-17.63,17.07,16.6-15.18,20-16S884.3,583.27,884.3,583.27Z"/>
          <polygon class="cls-86" points="1048.44 458.79 1032.41 495.22 1005.65 494.67 1026.85 489.13 1048.44 458.79"/>
          <polygon class="cls-74" points="1013.55 302.46 1029.74 305.45 1044.05 317.68 1051.01 294.79 1038.98 302.98 1013.55 302.46"/>
          <polygon class="cls-66" points="1197.29 165.63 1148.21 197.4 1135.08 160.06 1197.29 165.63"/>
          <polygon class="cls-66" points="1147.74 226.96 1109 189.77 1138.49 227.29 1147.74 226.96"/>
          <polygon class="cls-66" points="1436.69 366.27 1462.95 335.63 1439.49 374.02 1436.69 366.27"/>
          <polygon class="cls-72" points="1439.67 507.9 1473.6 467.19 1437.17 498.37 1439.67 507.9"/>
          <polygon class="cls-72" points="1361.09 340.39 1361.53 312.31 1371.54 353.73 1361.09 340.39"/>
          <path class="cls-87" d="M1454,651.49l-5.58,21.33,26.75-21.9Z"/>
          <polygon class="cls-87" points="1506.81 635.58 1536.96 647.13 1540.57 669.97 1540.97 644.73 1506.81 635.58"/>
          <polygon class="cls-87" points="1639.27 628.34 1606.87 644.48 1614.19 676.25 1614.45 646.68 1639.27 628.34"/>
          <polygon class="cls-87" points="1688.76 636.62 1720.07 666.07 1716.62 704.67 1712.7 664.93 1688.76 636.62"/>
          <polygon class="cls-66" points="1555.11 506.02 1509.07 575.01 1525.57 482.82 1555.11 506.02"/>
          <polygon class="cls-85" points="1555.11 506.02 1654.07 538.58 1638.06 495.8 1555.11 506.02"/>
          <path class="cls-85" d="M1694.47,522.8l25.87,56.58,31.74-32.14L1717,509.37Z"/>
          <polygon class="cls-84" points="1221.63 306.76 1250.7 278.17 1235.94 306.77 1221.63 306.76"/>
          <path class="cls-84" d="M924.73,392.16l107.93,45.89-43.15,51.16L978.1,546l-92.93-23.14S906.39,413,924.73,392.16Z"/>
          <polygon class="cls-79" points="1480.89 285.56 1523.6 299.81 1528.92 319.79 1535.87 300.23 1480.89 285.56"/>
          <polygon class="cls-66" points="1531.41 584.02 1566.19 547.33 1537.95 584.15 1537.58 607.65 1531.41 584.02"/>
          <polygon class="cls-66" points="1582.89 310.44 1586.3 381.29 1571.68 387.27 1582.89 310.44"/>
          <polygon class="cls-65" points="1385.52 186.1 1403.1 206.37 1378.36 210.4 1385.52 186.1"/>
          <path class="cls-66" d="M1491.76,604.72s-40.59,1-33.58,15.21,28.31,15.23,28.31,15.23-25.27-10.69-22.56-15.11S1479.77,599.66,1491.76,604.72Z"/>
          <polygon class="cls-66" points="1451.59 238.29 1441.48 223.93 1468.44 238.64 1463.14 249.4 1451.59 238.29"/>
          <path class="cls-86" d="M978.1,546l-49.27,33.47,32.47,5.45q6.72,9.12,13.42,18.25l13.59-.1Z"/>
          <path class="cls-88" d="M978.1,546l-49.27,33.47-39.26-14.41q-2.19-21.09-4.4-42.2Z"/>
          <polygon class="cls-74" points="922.5 534.02 949.57 452.04 989.51 489.21 978.1 546.02 922.5 534.02"/>
          <polygon class="cls-63" points="949.57 452.04 985.64 401.29 1032.66 438.05 989.51 489.21 949.57 452.04"/>
          <path class="cls-63" d="M908.91,423.68,949.57,452,922.5,534l-37.33-11.14S889.28,435.21,908.91,423.68Z"/>
          <path class="cls-78" d="M908.91,423.68,949.57,452l36.07-50.75-60.91-9.13Z"/>
          <path class="cls-86" d="M1047.78,332.35l-62,59.21-.15,9.73,47,36.76s16.06-39.72,19.29-50.74,17.56-40.46,30.94-45.22S1047.78,332.35,1047.78,332.35Z"/>
          <path class="cls-66" d="M1107.26,300.61l9.07,29.69-33.44,11.79-35.11-9.74,27.15-35.26Z"/>
          <path class="cls-78" d="M1026.14,433,1020,408.73l12.77,24.36-.08,5L1034,461.7Z"/>
          <path class="cls-78" d="M928.83,579.49s-6.47-36,4.38-43.16,18.47-19,19-28.87c0,0,7.11,10.13-15.24,33.54C931,548.84,928.73,550.47,928.83,579.49Z"/>
          <polygon class="cls-89" points="1169.31 510.42 1095.14 478.13 1166.82 521.67 1169.31 510.42"/>
          <path d="M1199.91,587.57l-32.17,28.62,0-.1-.83,57v.22l-.21,0a49.55,49.55,0,0,1-12.36-3.6,57.55,57.55,0,0,1-11.19-6.36,58.41,58.41,0,0,1-9.46-8.73,61,61,0,0,1-7.28-10.61c-4.16-7.57-6.42-15.95-8.5-24.24s-3.62-16.76-5.08-25.2-2.78-16.91-4.34-25.33-3.31-16.83-6.35-24.83a37,37,0,0,0-6.24-11.11,58.78,58.78,0,0,0-4.66-4.39l-4.82-4.24c-3.23-2.81-6.5-5.58-9.9-8.18a52.33,52.33,0,0,0-10.92-6.7,52.25,52.25,0,0,1,11,6.64c3.42,2.57,6.71,5.32,10,8.11l4.85,4.22a55.63,55.63,0,0,1,4.71,4.38,37.17,37.17,0,0,1,6.31,11.17c3.07,8,4.8,16.47,6.42,24.87s2.92,16.89,4.39,25.32,3.07,16.85,5.13,25.16,4.38,16.61,8.5,24.11a61.06,61.06,0,0,0,7.2,10.55,58.32,58.32,0,0,0,9.37,8.67,56.69,56.69,0,0,0,11.09,6.34,49.16,49.16,0,0,0,12.24,3.6l-.21.18,1-57V616l0,0Z"/>
          <path d="M1287.89,381.41l-19.05,5.17-19.08,5.08-19.1,5-9.55,2.5-4.77,1.24c-1.61.4-3.15.87-4.67,1.41a27.67,27.67,0,0,0-8.3,4.95,39.69,39.69,0,0,0-6.49,7.25c-3.78,5.33-6.62,11.29-9.64,17.13s-6.06,11.77-10.4,16.81a30,30,0,0,1-7.56,6.36,26.18,26.18,0,0,1-9.3,3.2,25.88,25.88,0,0,0,9.17-3.41,29.94,29.94,0,0,0,7.32-6.47c4.2-5,7.16-11,10.08-16.84s5.78-11.86,9.59-17.31a40.7,40.7,0,0,1,6.61-7.45,28.62,28.62,0,0,1,8.56-5.15,47.29,47.29,0,0,1,4.78-1.42l4.78-1.23,9.56-2.45,19.14-4.87,19.15-4.81Z"/>
          <polygon class="cls-89" points="1165.81 586.44 1137.96 591.92 1165.8 598.61 1165.81 586.44"/>
          <polygon class="cls-68" points="1088.02 456.28 1061.86 466.64 1072.07 479 1088.02 456.28"/>
          <polygon class="cls-90" points="1125.45 394.37 1099.84 436.72 1133.64 404.35 1184.63 365.03 1182.93 356.37 1125.45 394.37"/>
          <path class="cls-70" d="M1060,535l41.43,136.77-198.92,7.86L911,612s95.73-44.68,88-41l34-41"/>
          <polygon class="cls-90" points="1125.45 394.37 1082.89 342.09 1131.65 378.18 1125.45 394.37"/>
          <polygon class="cls-89" points="1207.82 452.36 1227.79 482.22 1238.89 475.04 1207.82 452.36"/>
          <polygon class="cls-89" points="1199.91 587.57 1167.65 616.09 1199.72 599.32 1199.91 587.57"/>
          <polygon class="cls-71" points="1362.58 445.33 1391.32 441.42 1362.53 448.75 1362.58 445.33"/>
          <polygon class="cls-71" points="1395.99 516.85 1418.46 516.85 1401.07 527.72 1395.99 516.85"/>
          <polygon class="cls-71" points="1323.7 393.14 1353.23 380.74 1326.83 398.53 1323.7 393.14"/>
          <polygon class="cls-71" points="1399.82 607.29 1422.21 602.68 1403.85 614.25 1399.82 607.29"/>
          <polygon class="cls-71" points="1420.05 415.67 1429.62 361.47 1436.69 366.27 1439.49 374.02 1420.05 415.67"/>
          <polygon class="cls-71" points="1281.3 318.72 1283.63 343.63 1292.76 346.43 1281.3 318.72"/>
          <path class="cls-91" d="M1721.1,477.7s6.19-26.49-13.33-40.16-25.31-13-25.31-13,33,5.53,40,20.07,6.47,33.12,2.47,35.69S1721.1,477.7,1721.1,477.7Z"/>
          <path class="cls-91" d="M1500.23,250.17s82.3,35.24,82.66,60.27Z"/>
          <polygon class="cls-66" points="1542.03 215.84 1439 167 1536.17 219.07 1542.03 215.84"/>
          <polygon class="cls-67" points="1071.49 516.07 1086.84 531.31 1079.6 551.91 1070.24 595.41 1050.59 595 1067.24 549.88 1071.49 516.07"/>
          <path class="cls-66" d="M1613.61,215.49s-18.56-21.74,41.13-40.41l60.11-3s-104.73,8.54-89.16,43.46C1614,215.47,1613.61,215.49,1613.61,215.49Z"/>
          <path class="cls-66" d="M848.34,522.12c-.17-.2,37.84-63.47,37.84-63.47l-29.67,63.63"/>
          <polygon class="cls-72" points="1525.57 482.82 1555.11 506.02 1504.99 457.23 1525.57 482.82"/>
          <polygon class="cls-92" points="1085.9 297.32 1109.37 307.51 1127.06 291.83 1107.26 300.61 1085.9 297.32"/>
          <polygon class="cls-92" points="972.12 475.59 987.63 498.56 998.89 478.08 989.51 489.21 972.12 475.59"/>
          <polygon class="cls-89" points="1182.93 356.37 1179.27 329.15 1187.67 354.6 1182.93 356.37"/>
          <polygon class="cls-66" points="1171.48 225.46 1190.35 184.06 1185.4 218.64 1171.48 225.46"/>
          <path class="cls-66" d="M1473.78,736.38s-23.73-21.33-38.67-12.8-35.76,15.69-21.88,16.75S1473.78,736.38,1473.78,736.38Z"/>
          <path class="cls-63" d="M1407.22,740.33s14.13-29.61,21.06-23.56,19.52,4,19.52,4Z"/>
          <path class="cls-93" d="M1403.28,693.31s9.14-15.7,14.17-2.38l5,13.32Z"/>
          <path class="cls-92" d="M945.52,370.31,914.7,408.73"/>
          <polygon class="cls-68" points="1382.99 428.17 1395.66 453.5 1393.04 442.74 1400.1 433.79 1391.55 438.48 1382.99 428.17"/>
          <polygon class="cls-79" points="1045.74 401 1062.48 426.85 1125.45 394.37 1066.13 421.8 1045.74 401"/>
          <path class="cls-94" d="M1283.15,179.12l34.68,25.16,50.5-38.65Z"/>
          <path class="cls-95" d="M1562.86,596.7q10.47-2.07,21.52-3.88,9-1.47,17.75-2.63"/>
          <polygon class="cls-96" points="1473.69 318.42 1523.6 299.81 1547.62 397.12 1517.49 397.78 1473.69 318.42"/>
          <path class="cls-96" d="M1407,290.69l17-24,13.37,45.95Z"/>
          <polygon class="cls-97" points="1423.97 266.7 1437.35 312.65 1473.69 318.42 1523.6 299.81 1423.97 266.7"/>
          <path class="cls-66" d="M1205.14,244.06l-14.52,51.45,60.08-17.34,43.64-32.26Z"/>
          <path class="cls-97" d="M1197.52,224l7.62,20.05,61.3,10.56,56.72-25.05-37.76-3.75Z"/>
          <polygon class="cls-71" points="1316.57 234.31 1325.74 255.97 1281.04 258.24 1316.57 234.31"/>
          <polygon class="cls-66" points="1401.07 527.72 1380.33 603.19 1399.82 607.29 1422.21 602.68 1418.46 516.85 1401.07 527.72"/>
          <polygon class="cls-71" points="1380.33 603.19 1410.69 695.27 1413.23 636.25 1399.82 607.29 1380.33 603.19"/>
          <polygon class="cls-66" points="1362.53 448.75 1358.05 500.71 1395.99 516.85 1362.53 448.75"/>
          <polygon class="cls-71" points="1358.05 500.71 1391.32 562.07 1401.07 527.72 1395.99 516.85 1358.05 500.71"/>
          <polygon class="cls-69" points="1250.7 671.77 1199.91 587.57 1167.65 616.09 1164.6 679.04 1250.7 671.77"/>
          <polygon class="cls-65" points="1384.97 156.24 1441.48 19.59 1582.5 -84.57 1638.98 -205.72 1798.75 -214.38 1798.75 259.98 1745.67 176.97 1666.89 148.21 1584.74 195.32 1384.97 156.24"/>
          <polygon class="cls-63" points="1279.79 140.8 1441.48 19.59 1384.97 156.24 1279.79 140.8"/>
          <path class="cls-66" d="M1441.48,19.59,1562.86,42,1525.57,177l-86.08-19.24L1385,156.24Z"/>
          <polygon class="cls-65" points="1562.86 42.02 1666.89 148.21 1584.74 195.32 1525.57 176.97 1562.86 42.02"/>
          <path class="cls-98" d="M1441.48,19.59C1441,19.79,1562.86,42,1562.86,42L1651.63-8.6l-69.13-76Z"/>
          <polygon class="cls-63" points="1197.29 165.63 1245.76 99.34 1342.69 92.74 1279.79 140.8 1197.29 165.63"/>
          <polygon class="cls-63" points="1525.57 176.97 1631.71 92.06 1562.86 42.02 1525.57 176.97"/>
          <path class="cls-96" d="M1797.55,63.64,1651.63-8.6,1562.86,42l117.35,101.86L1596,188.25l-87.57-5.51Z"/>
          <polygon class="cls-63" points="1666.89 148.21 1745.67 176.97 1801.53 275.78 1934.96 127.85 1798.96 62.66 1708.44 87.75 1666.89 148.21"/>
          <polygon class="cls-65" points="1631.71 92.06 1508.38 182.74 1584.74 195.32 1680.21 143.88 1708.44 87.75 1797.55 63.64 1631.71 92.06"/>
          <polygon class="cls-66" points="1651.63 -8.6 1925.26 -49.34 1928.32 125.3 1651.63 -8.6"/>
          <polygon class="cls-94" points="1441.48 19.59 1460.45 114.81 1562.86 42.02 1441.48 19.59"/>
          <polygon class="cls-94" points="1446.1 19.59 1250.39 99.34 1343.09 92.97 1446.1 19.59"/>
          <polygon class="cls-66" points="1574.38 6.42 1631 -34.8 1651.63 -8.6 1562.86 42.02 1574.38 6.42"/>
          <path class="cls-63" d="M1505-24.29l69.4,30.7L1562.86,42,1441.48,19.59l58.75-43.88"/>
          <polygon class="cls-70" points="903.01 533.77 820 684 909.55 662.82 952 646 1013 541 980.39 471.29 903.01 533.77"/>
          <path class="cls-97" d="M851.49,286.29C851,286,911,348.77,911,348.77l77.38-62.48Z"/>
          <g>
            <path class="cls-99" d="M-19.77,823.85s299.33,6.45,407.77,9c30.68.74,81.72,2.34,153.72,6.82C728,851.31,872.34,870.88,896.39,874c126.52,16.55,569.82,9.35,1039.33-11.87,9.45,13.15,2.49,43.31-5.36,45.19-4.6,1.1-173.17,1.36-177.62,1.37-528.64,1-1767.91-1.37-1767.91-1.37Z"/>
            <g>
              <path class="cls-99" d="M931.5,886.85s4.29-27.77,0-30.34-16.4,6-9.64,18A46.71,46.71,0,0,0,931.5,886.85Z"/>
              <path class="cls-99" d="M919.85,884.25s-1.92-25-10.85-28.2S919.85,884.25,919.85,884.25Z"/>
              <path class="cls-99" d="M801.13,866.94s13.93-8.37,6.78-13S790.77,866.58,801.13,866.94Z"/>
              <path class="cls-99" d="M787.91,864.74S802.2,846.23,792.2,837,782.2,860.11,787.91,864.74Z"/>
            </g>
            <g>
              <path class="cls-99" d="M404.43,833.79s.34-39.39-6.1-42-21.48,12.07-9.72,27.1C396.69,829.25,404.43,833.79,404.43,833.79Z"/>
              <path class="cls-99" d="M387.79,832.87s-7.7-34.22-20.68-36.52S387.79,832.87,387.79,832.87Z"/>
              <path class="cls-99" d="M403.59,832.79s22-11.9,18.89-20.26S405.43,818.46,403.59,832.79Z"/>
              <path class="cls-99" d="M295.8,831.57s.91-45.56-38.7-59.38c-11.85-4.13,6.72,7.08,21.41,40.74,0,0,2.7,7.83,2.11,10S255.7,782.22,238.8,779.3c0,0,31.58,36.8,34.6,49.14C273.4,828.44,283.85,855.53,295.8,831.57Z"/>
              <path class="cls-99" d="M215.66,827.47s17.58-14.78,6.77-19.54S201.26,829.34,215.66,827.47Z"/>
              <path class="cls-99" d="M201.37,836.15s16-28.89.33-39.4S192.53,831.06,201.37,836.15Z"/>
            </g>
          </g>
          <path class="cls-100" d="M993.34,673.94l116.2-11.39L1168.3,667l32.77,0,85.43,3,118.65,1,4.29,18.44L1428,717c-11.86-.22-30.75-14.33-52.28-11-28.08,4.34-33,9.17-49.36,8-27.17-1.94-27.81-16.24-56-21-21.31-3.59-27.57,3.46-66.45,7a352.84,352.84,0,0,1-50.3,1c-47.71,12.91-60.6,13.16-61.7,10-1.42-4,16.72-12.44,15.18-18-2-7.26-35.42-2.12-63.59,0a481.83,481.83,0,0,1-102.91-3.56C943.08,687.15,945.94,684.88,993.34,673.94Z"/>
          <path class="cls-101" d="M1283.4,661.85,1171.79,667s95,17.45,144.12,10.24S1430,671,1430,671Z"/>
          <path class="cls-64" d="M1935,713.55c-146.52-8.94-416.08,5.88-474.07,14.91-87.3,13.59-203.08,41.8-253.75,48.08-40.92,5.08,91.61,1.37,182.84,21.49,122.58,27,153.52-11,248.68,1.08A748.53,748.53,0,0,1,1767,827C1766,790.84,1936,749.71,1935,713.55Z"/>
          <g>
            <path class="cls-40" d="M1484.1,796s31.36-18.17,37.71-21.42c7.79-4-6.55-9.74-29.78,4.15C1492,778.74,1477.75,788.78,1484.1,796Z"/>
            <path class="cls-40" d="M1469.35,794.87s-6.32-16.84-41-16.34S1469.35,794.87,1469.35,794.87Z"/>
            <path class="cls-40" d="M1478.8,797.33s10.58-37.72,26-48.07C1518,740.4,1490,738,1474.3,759.13S1478.8,797.33,1478.8,797.33Z"/>
          </g>
          <path class="cls-102" d="M137.72,610s6.58-33.61,50.42-24.11c-2.92-26.3,37.26-28.47,50.41-18.25-2.92-28.51,34.34-17.18,41.65-5.68,13.15-19.18,48.22,6.39,33.61,22.47,31.42-16.81,44.57,13.88,44.57,13.88C384,583.7,406.6,610,406.6,610Z"/>
          <path class="cls-40" d="M992.59,677.44s-187,28.87-178.81,27.22,61.37-2.23,100.29,11.56,23.84,18.93-14.12,18.85,26.82,12.91,98.43,15.42,96.72-.39,116.17,5.56,31.23,12.62-18.16,12.79,67.94-1.22,115.27-.53,56.38,7.81,56.38,7.81-56.94,21.57-120,16.23-161.22-24.48-231.63-26.92S785.32,746,721.66,747s-156.33-16.91-67-26,134.66-5.77,67-21.41-130.83-15.89-143.24-17.26,110.29-8.87,182.94-13.63,72.74,13.72,112.69,2.49S992.59,677.44,992.59,677.44Z"/>
          <path class="cls-40" d="M1321.61,798.69s58.57-23,93.48-17.85,37.78,32.75,91.35,6c18.21-9.11,46.37-11.34,101.88-17.51,84.52-9.4,307.17-5.66,334.3-2.12-14,17.64,4.76,65.08-9.19,82.72l-690.17-43.35Z"/>
          <polygon class="cls-63" points="884.3 285.56 971.43 74.51 1050.59 98.28 1015.03 208.29 988.39 286.29 884.3 285.56"/>
          <polygon class="cls-75" points="1051 98 1164 104 1135.08 160.06 1092.33 182.03 1015.03 208.29 1051 98"/>
          <path class="cls-103" d="M-8,618.91s-4-52.2,2-41.87c-1.14-9.88,85.79,24.29,101.74-3.56,25.84-45.13,75.27-51.58,79-52,39.92-4.52,68.78,15.92,75.41,20.88,56.17-3.8,71.74,35.4,50.08,44.25,0,0,46.7-17.28,90,6.75,43.32-21.08,146.2,9.27,172.6,24.86L162,619.07C129.61,615.2,24.4,622.78-8,618.91Z"/>
          <g>
            <g>
              <path class="cls-40" d="M1604.09,729.54s41.58-5.4,40.43-20.23S1604.09,729.54,1604.09,729.54Z"/>
              <path class="cls-40" d="M1596,735.54s23.1-37.09,40.43-46.53-30-10.21-40.43,28.61Z"/>
              <path class="cls-40" d="M1594.27,730.54s11.65-28.85-31.77-30.35C1542.86,699.52,1594.27,730.54,1594.27,730.54Z"/>
            </g>
            <g>
              <path class="cls-40" d="M1240.09,811.54s41.58-5.4,40.43-20.23S1240.09,811.54,1240.09,811.54Z"/>
              <path class="cls-40" d="M1232,817.54s23.1-37.09,40.43-46.53-30-10.21-40.43,28.61Z"/>
              <path class="cls-40" d="M1230.27,812.54s11.65-28.85-31.77-30.35C1178.86,781.52,1230.27,812.54,1230.27,812.54Z"/>
            </g>
            <g>
              <path class="cls-40" d="M1547.68,734.9s10.93-6.4,32-8-22.62-8.41-38.23,8C1541.44,734.9,1534.42,742.19,1547.68,734.9Z"/>
              <path class="cls-40" d="M1518,735.81s32-20.49,50.71-25.95-18-5.92-42.91,11.15C1525.84,721,1513.36,731.26,1518,735.81Z"/>
              <path class="cls-40" d="M1508.68,735.81s21.25-33.24,30.91-37.34-15.31-6.37-30.91,20.72C1508.68,719.19,1502.44,733.54,1508.68,735.81Z"/>
              <path class="cls-40" d="M1497.37,735.81s8.19-30.51,16-35.06S1483.72,705.76,1497.37,735.81Z"/>
              <path class="cls-40" d="M1492.69,735.81s.39-25.41-16.38-29.33S1486.06,723.06,1492.69,735.81Z"/>
              <path class="cls-40" d="M1487.23,735.81S1476.7,706.69,1451,706,1471.24,716.69,1487.23,735.81Z"/>
              <path class="cls-40" d="M1485,735.81s-13.78-11.84-37.19-10.93S1479.3,732.17,1485,735.81Z"/>
            </g>
          </g>
          <polyline class="cls-75" points="230.29 611.16 249.16 632.81 396.19 639.95 447.91 621.44 562.65 639.95 658.12 647.88 780.04 657 923.57 667.24 851.49 456.19 230.29 611.16"/>
          <polygon class="cls-75" points="1205 0 1162 108.47 1130 160 1197.29 165.63 1250.39 99.34 1442 23 1464.84 0 1205 0"/>
          <polygon class="cls-76" points="971.43 74.51 1050.59 98.28 1147 0 1074.16 0 971.43 74.51"/>
          <polygon class="cls-66" points="1051 98 1050.59 98.28 1164 110 1214 -2 1147 0 1051 98"/>
          <polygon class="cls-63" points="1135.08 160.06 1148.21 197.4 1147.74 226.96 1075.81 241.39 1022.09 252.88 988.39 286.29 1015.03 208.29 1057.36 165.82 1135.08 160.06"/>
          <path class="cls-78" d="M986.25,92.74s-8,7.63-.61,36.44S983,210.61,960,234.31s-40.6,42.27-45.3,44c0,0,35.19-15.68,52.75-44s36.5-57,28-92.16S986.51,92.48,986.25,92.74Z"/>
          <path class="cls-66" d="M1015,250.17S1009.56,238,1032.28,224s48.53-32.2,53.62-43.61,9-6.54,9-6.54-30.44,39.5-49.18,49.32C1032,228,1019.06,240.35,1015,250.17Z"/>
          <polygon class="cls-66" points="1213 1 1202 92.74 1246.36 54.23 1268.19 74.51 1320.41 14.43 1390.73 1 1213 1"/>
          <path class="cls-104" d="M1088.52,108.47C1143,62,1156,44.6,1162,22.8s-1.65,58.31-37.32,82.25S1034,154.94,1088.52,108.47Z"/>
          <path class="cls-105" d="M742.43,456.19s-24.74,14.15,37.41-40.52S850,340.3,851.49,329.15s-1.86,56.07-48.18,81.46S742.43,456.19,742.43,456.19Z"/>
          <path class="cls-105" d="M836.07,430.74s25.15-28.88,33-64.81S851.14,405.48,836.07,430.74Z"/>
          <path class="cls-75" d="M292.23,592.31s16.64-38.55,112.21-42.43,152.63-16.48,177.1-30.68c0,0-32.11,26.84-56.82,26.82s-151.07,4.31-171.39,18.65S292.23,592.31,292.23,592.31Z"/>
          <path class="cls-65" d="M983,361.47l2.79,30.09s-5.56-38.77,5.32-51.17,23.34-26.63,23.34-26.63S976,342,983,361.47Z"/>
          <path class="cls-65" d="M995.48,410.61s-15.38,8,24.57-29.32,35.81-37.42,32.38-34.86S996,404.22,995.48,410.61Z"/>
          <path class="cls-66" d="M1358.05,147.4s-26,2.94,0-28.73,39-47.27,33.5-51.47L1386,63s5.25,12.83-12.88,24.91C1361,108,1316.1,156.8,1358.05,147.4Z"/>
          <polygon class="cls-65" points="1135.08 259.98 1162 276.34 1175.3 313.76 1165.58 269.79 1135.08 259.98"/>
        </g>
        <ellipse class="cls-99" cx="612" cy="754.5" rx="166" ry="30.5"/>
        <path class="cls-65" d="M413.19,581.05l116.65-14.47s228.41-76.69,254.28-70.14c2.76,50.12,13.23,170.8,13.23,170.8L591,642.77s78.05,5.76-13.49,0-129.63-21.33-129.63-21.33Z"/>
        <polygon class="cls-79" points="230.29 611.16 350.88 605.79 413.19 581.05 529.84 566.58 681.29 519.2 778.87 495.43 851.49 456.19 809.95 440.75 712.68 483.04 506.28 514.77 309.71 536.57 230.29 611.16"/>
        <polygon class="cls-65" points="350.88 605.79 396.19 639.95 249.16 632.81 230.29 611.16 350.88 605.79"/>
        <polygon class="cls-75" points="529.84 566.58 562.65 639.95 703 656 681.29 519.2 529.84 566.58"/>
        <g>
          <path class="cls-76" d="M676,584c3-1,55,6,55,6l81-28,25-32H756.5Z"/>
          <polygon class="cls-65" points="676 584 702 640 764 659 731 590 676 584"/>
          <polygon class="cls-75" points="731 590 812 562 837 530 847 642 816 648 764 659 731 590"/>
          <polygon class="cls-79" points="870 567 829.14 584 784.14 621.5 870 638.86 930 611 967 581 920.43 560 870 567"/>
          <polygon class="cls-65" points="870 638.86 884 688 795 668 784.14 621.5 870 638.86"/>
          <polygon class="cls-75" points="870 638.86 930 611 945 674 884 688 870 638.86"/>
          <polygon class="cls-65" points="930 611 967 581 979.57 652.25 945 674 930 611"/>
          <polygon class="cls-94" points="888 471.07 825 504 893 542 962.21 542 983 486 958 461 888 471.07"/>
          <polygon class="cls-65" points="825 504 825 530 837 530 841.37 578.91 870 567 920.43 560 967 581 962.21 542 893 542 825 504"/>
          <polyline class="cls-75" points="893 542 893 563.81 920.43 560 967 581 962.21 542 893 543"/>
          <polygon class="cls-75" points="983 486 987 518.64 977 553 977 574.57 967.53 584 962.21 542 983 486"/>
        </g>
        <g>
          <path class="cls-40" d="M962,676.29s23.69-3.51,23-13.19S962,676.29,962,676.29Z"/>
          <path class="cls-40" d="M957.35,680.21s13.16-24.2,23-30.35-17.11-6.66-23,18.66Z"/>
          <path class="cls-40" d="M956.36,677s6.64-18.83-18.1-19.8C927.08,656.71,956.36,677,956.36,677Z"/>
        </g>
        <g>
          <path class="cls-40" d="M305,637.85s29.79-3.86,29-14.47S305,637.85,305,637.85Z"/>
          <path class="cls-40" d="M299.22,642.14s16.56-26.52,29-33.27-21.52-7.3-29,20.46Z"/>
          <path class="cls-40" d="M298,638.57s8.35-20.64-22.76-21.71C261.15,616.38,298,638.57,298,638.57Z"/>
        </g>
        <g>
          <path class="cls-40" d="M580.68,643.9s10.93-6.4,32-8-22.62-8.41-38.23,8C574.44,643.9,567.42,651.19,580.68,643.9Z"/>
          <path class="cls-40" d="M551,644.81s32-20.49,50.71-25.95-18-5.92-42.91,11.15C558.84,630,546.36,640.26,551,644.81Z"/>
          <path class="cls-40" d="M541.68,644.81s21.25-33.24,30.91-37.34-15.31-6.37-30.91,20.72C541.68,628.19,535.44,642.54,541.68,644.81Z"/>
          <path class="cls-40" d="M530.37,644.81s8.19-30.51,16-35.06S516.72,614.76,530.37,644.81Z"/>
          <path class="cls-40" d="M525.69,644.81s.39-25.41-16.38-29.33S519.06,632.06,525.69,644.81Z"/>
          <path class="cls-40" d="M520.23,644.81S509.7,615.69,484,615,504.24,625.69,520.23,644.81Z"/>
          <path class="cls-40" d="M518,644.81S504.24,633,480.83,633.88,512.3,641.17,518,644.81Z"/>
        </g>
        <g>
          <path class="cls-40" d="M770.28,662.06s7.47-6.1,21.87-7.61-15.47-8-26.14,7.61C766,662.06,761.21,669,770.28,662.06Z"/>
          <path class="cls-40" d="M750,662.92s21.87-19.52,34.67-24.72-12.27-5.64-29.33,10.63C755.35,648.83,746.81,658.59,750,662.92Z"/>
          <path class="cls-40" d="M743.61,662.92s14.53-31.66,21.13-35.56-10.46-6.08-21.13,19.73C743.61,647.09,739.34,660.76,743.61,662.92Z"/>
          <path class="cls-40" d="M735.88,662.92s5.6-29.06,10.93-33.4S726.54,634.3,735.88,662.92Z"/>
          <path class="cls-40" d="M732.68,662.92s.26-24.21-11.21-27.93S728.14,650.78,732.68,662.92Z"/>
          <path class="cls-40" d="M728.94,662.92s-7.2-27.74-24.8-28.4S718,644.71,728.94,662.92Z"/>
          <path class="cls-40" d="M727.43,662.92A32.68,32.68,0,0,0,702,652.51C686,653.38,723.52,659.45,727.43,662.92Z"/>
        </g>
        <g>
          <path class="cls-40" d="M893.28,685.06s7.47-6.1,21.87-7.61-15.47-8-26.14,7.61C889,685.06,884.21,692,893.28,685.06Z"/>
          <path class="cls-40" d="M873,685.92s21.87-19.52,34.67-24.72-12.27-5.64-29.33,10.63C878.35,671.83,869.81,681.59,873,685.92Z"/>
          <path class="cls-40" d="M866.61,685.92s14.53-31.66,21.13-35.56-10.46-6.08-21.13,19.73C866.61,670.09,862.34,683.76,866.61,685.92Z"/>
          <path class="cls-40" d="M858.88,685.92s5.6-29.06,10.93-33.4S849.54,657.3,858.88,685.92Z"/>
          <path class="cls-40" d="M855.68,685.92s.26-24.21-11.21-27.93S851.14,673.78,855.68,685.92Z"/>
          <path class="cls-40" d="M851.94,685.92s-7.2-27.74-24.8-28.4S841,667.71,851.94,685.92Z"/>
          <path class="cls-40" d="M850.43,685.92A32.68,32.68,0,0,0,825,675.51C809,676.38,846.52,682.45,850.43,685.92Z"/>
        </g>
        <path class="cls-105" d="M898.26,572.4s-45.93,10-39.59,18.79,13,27.42-10.33,30.61c0,0,19.68,1,23.17-7.92s-17-20.74-4.25-26.31C877,582,885.52,573.8,898.26,572.4Z"/>
        <path class="cls-105" d="M292.23,592.31s22.42-11,61.1-27.64,79.55-21.92,125.61-20.3S552,532.92,567,526s-27.17,9.83-49.1,7.94-115.34,3.86-145.63,16S292.23,592.31,292.23,592.31Z"/>
        <polygon class="cls-70" points="756.5 563.23 751.01 583.08 764 609.04 756.5 581.94 756.5 563.23"/>
        <path class="cls-105" d="M645.71,515.38s24.66-9.94,67-20.16,44.69-20.45,37-19.34S645.71,515.38,645.71,515.38Z"/>
        <path class="cls-105" d="M699.42,579.49S697,579.13,716,568.07s23-12,31.5-22.05-1.21,15.11-21.86,22.05S699.42,579.49,699.42,579.49Z"/>
        <polygon class="cls-65" points="920.45 509.46 926.91 542 958.92 576.61 936.93 543 920.45 509.46"/>
        <path class="cls-1" d="M857,505c-.82,1.82,0-15,25-20s37.71,11,50.86,1S959,483.76,960,493.38s-11.76,22.38-19.88,22c0,0,17.45-10.94,17.17-20.16s-11.58-17.51-22.93-6.36c-14.72,5.28-27.84-.71-36.1-1.79S866,485,857,505Z"/>
        <rect class="cls-106" width="1920" height="900"/>
      </g>
    </g>
  </g>
</svg>
