<svg xmlns="http://www.w3.org/2000/svg" xmlns:xlink="http://www.w3.org/1999/xlink" width="1920" height="900" viewBox="0 0 1920 900">
  <defs>
    <style>
      .cls-1 {
        fill: none;
      }

      .cls-2 {
        isolation: isolate;
      }

      .cls-3 {
        clip-path: url(#clip-path);
      }

      .cls-4 {
        fill: url(#linear-gradient);
      }

      .cls-5 {
        fill: #74c38a;
      }

      .cls-6, .cls-7, .cls-8, .cls-9 {
        stroke-miterlimit: 10;
      }

      .cls-6, .cls-7, .cls-8 {
        stroke-width: 0.5px;
      }

      .cls-6 {
        fill: url(#linear-gradient-2);
        stroke: url(#linear-gradient-3);
      }

      .cls-7 {
        fill: url(#linear-gradient-4);
        stroke: url(#linear-gradient-5);
      }

      .cls-8 {
        fill: url(#linear-gradient-6);
        stroke: url(#linear-gradient-7);
      }

      .cls-9 {
        stroke-width: 0.25px;
        fill: url(#linear-gradient-8);
        stroke: url(#linear-gradient-9);
      }

      .cls-10 {
        fill: #cadee0;
      }

      .cls-11, .cls-20, .cls-35 {
        opacity: 0.5;
      }

      .cls-11, .cls-13, .cls-14 {
        mix-blend-mode: screen;
      }

      .cls-11 {
        fill: url(#linear-gradient-10);
      }

      .cls-12, .cls-17 {
        fill: #95be1d;
      }

      .cls-13, .cls-14, .cls-49, .cls-52, .cls-58 {
        opacity: 0.4;
      }

      .cls-13 {
        fill: url(#linear-gradient-11);
      }

      .cls-14 {
        fill: url(#linear-gradient-12);
      }

      .cls-15 {
        fill: url(#linear-gradient-13);
      }

      .cls-16 {
        opacity: 0.3;
      }

      .cls-17, .cls-18, .cls-20, .cls-47, .cls-48, .cls-49, .cls-50, .cls-52, .cls-58 {
        mix-blend-mode: multiply;
      }

      .cls-18 {
        opacity: 0.31;
      }

      .cls-19, .cls-20 {
        fill: #5f8337;
      }

      .cls-21 {
        fill: url(#linear-gradient-14);
      }

      .cls-22 {
        fill: #8e442b;
        opacity: 0.68;
      }

      .cls-23 {
        fill: #b46747;
      }

      .cls-24 {
        fill: #602d0b;
      }

      .cls-25 {
        fill: url(#linear-gradient-15);
      }

      .cls-26 {
        fill: url(#linear-gradient-16);
      }

      .cls-27 {
        fill: url(#linear-gradient-17);
      }

      .cls-28 {
        fill: #036801;
      }

      .cls-29 {
        fill: url(#linear-gradient-18);
      }

      .cls-30 {
        fill: url(#linear-gradient-19);
      }

      .cls-31 {
        fill: #5e2106;
      }

      .cls-32 {
        fill: #e68851;
      }

      .cls-33 {
        fill: #843812;
      }

      .cls-34 {
        fill: #301102;
      }

      .cls-35, .cls-36 {
        fill: #301600;
      }

      .cls-37 {
        fill: #2b0000;
      }

      .cls-38 {
        fill: #7f4e18;
      }

      .cls-39 {
        fill: #b27238;
      }

      .cls-40 {
        fill: #727272;
      }

      .cls-41 {
        fill: #512c08;
      }

      .cls-42 {
        fill: #2d1501;
      }

      .cls-43 {
        fill: #724212;
      }

      .cls-44 {
        fill: url(#linear-gradient-20);
      }

      .cls-45 {
        fill: #755b1a;
      }

      .cls-46 {
        fill: #e8ab5b;
      }

      .cls-47, .cls-50 {
        opacity: 0.6;
      }

      .cls-47 {
        fill: url(#radial-gradient);
      }

      .cls-48 {
        opacity: 0.8;
      }

      .cls-49 {
        fill: url(#radial-gradient-2);
      }

      .cls-51 {
        fill: url(#radial-gradient-3);
      }

      .cls-53 {
        fill: url(#radial-gradient-4);
      }

      .cls-54 {
        fill: url(#radial-gradient-5);
      }

      .cls-55 {
        fill: url(#radial-gradient-6);
      }

      .cls-56 {
        fill: url(#radial-gradient-7);
      }

      .cls-57 {
        fill: url(#radial-gradient-8);
      }

      .cls-58 {
        fill: url(#radial-gradient-9);
      }

      .cls-59 {
        fill: #53702d;
      }

      .cls-60 {
        fill: #985b12;
      }

      .cls-61 {
        fill: #804805;
      }

      .cls-62 {
        fill: #663600;
      }

      .cls-63 {
        fill: #b16f21;
      }

      .cls-64 {
        fill: #e2bc5b;
      }

      .cls-65 {
        fill: #bb7f2d;
      }

      .cls-66 {
        fill: #e9cf79;
      }
    </style>
    <clipPath id="clip-path">
      <rect class="cls-1" width="1920" height="900"/>
    </clipPath>
    <linearGradient id="linear-gradient" x1="936.08" y1="-358.62" x2="985.56" y2="949.73" gradientUnits="userSpaceOnUse">
      <stop offset="0.21" stop-color="#a2d9d8"/>
      <stop offset="0.22" stop-color="#9ad7d7"/>
      <stop offset="0.24" stop-color="#86d1d4"/>
      <stop offset="0.26" stop-color="#7acdd3"/>
      <stop offset="0.27" stop-color="#76ccd2"/>
      <stop offset="0.32" stop-color="#7acdd2"/>
      <stop offset="0.36" stop-color="#86d1d2"/>
      <stop offset="0.4" stop-color="#9ad6d2"/>
      <stop offset="0.43" stop-color="#addcd2"/>
      <stop offset="0.49" stop-color="#c5e6df"/>
      <stop offset="0.59" stop-color="#eff8f6"/>
      <stop offset="0.64" stop-color="#fff"/>
      <stop offset="1" stop-color="#c8e5d2"/>
    </linearGradient>
    <linearGradient id="linear-gradient-2" x1="180.71" y1="602.3" x2="1349.96" y2="602.3" gradientUnits="userSpaceOnUse">
      <stop offset="0" stop-color="#2db24b"/>
      <stop offset="0.2" stop-color="#2dae4a"/>
      <stop offset="0.4" stop-color="#2ca248"/>
      <stop offset="0.56" stop-color="#2c9245"/>
      <stop offset="1" stop-color="#67bc45"/>
    </linearGradient>
    <linearGradient id="linear-gradient-3" x1="353.15" y1="907.39" x2="1172.64" y2="346.15" gradientUnits="userSpaceOnUse">
      <stop offset="0" stop-color="#76ccd2"/>
      <stop offset="0" stop-color="#6fc4c0"/>
      <stop offset="0" stop-color="#5db193"/>
      <stop offset="0" stop-color="#40914a"/>
      <stop offset="0" stop-color="#3d8e42"/>
      <stop offset="0" stop-color="#348740"/>
      <stop offset="0" stop-color="#20793c"/>
      <stop offset="0" stop-color="#147039"/>
      <stop offset="0" stop-color="#106d38"/>
      <stop offset="0.01" stop-color="#106d3e"/>
      <stop offset="0.02" stop-color="#0f6d49"/>
      <stop offset="0.05" stop-color="#0e6d50"/>
      <stop offset="0.12" stop-color="#0e6d52"/>
      <stop offset="0.32" stop-color="#106e52"/>
      <stop offset="0.39" stop-color="#177250"/>
      <stop offset="0.45" stop-color="#23794d"/>
      <stop offset="0.49" stop-color="#348249"/>
      <stop offset="0.52" stop-color="#4a8f44"/>
      <stop offset="0.56" stop-color="#659e3e"/>
      <stop offset="0.59" stop-color="#85b036"/>
      <stop offset="0.61" stop-color="#aac52d"/>
      <stop offset="0.63" stop-color="#d3dc24"/>
      <stop offset="0.64" stop-color="#d6de23"/>
      <stop offset="0.81" stop-color="#d6de23"/>
      <stop offset="0.84" stop-color="#d6de23"/>
      <stop offset="0.86" stop-color="#d7df27"/>
      <stop offset="0.88" stop-color="#d9e134"/>
      <stop offset="0.9" stop-color="#dde44a"/>
      <stop offset="0.93" stop-color="#e3e869"/>
      <stop offset="0.95" stop-color="#eaee90"/>
      <stop offset="0.97" stop-color="#f3f5c0"/>
      <stop offset="1" stop-color="#fefef7"/>
      <stop offset="1" stop-color="#fff"/>
    </linearGradient>
    <linearGradient id="linear-gradient-4" x1="625.99" y1="587.34" x2="1933.94" y2="587.34" gradientUnits="userSpaceOnUse">
      <stop offset="0" stop-color="#159e49"/>
      <stop offset="0.2" stop-color="#19a049"/>
      <stop offset="0.4" stop-color="#25a649"/>
      <stop offset="0.6" stop-color="#3ab149"/>
      <stop offset="0.67" stop-color="#42b549"/>
      <stop offset="1" stop-color="#67bc45"/>
    </linearGradient>
    <linearGradient id="linear-gradient-5" x1="823.96" y1="958.48" x2="1759.89" y2="317.5" xlink:href="#linear-gradient-3"/>
    <linearGradient id="linear-gradient-6" x1="-32.28" y1="583.33" x2="1216.85" y2="583.33" gradientUnits="userSpaceOnUse">
      <stop offset="0.01" stop-color="#30b34a"/>
      <stop offset="0.14" stop-color="#34b44a"/>
      <stop offset="0.27" stop-color="#40b549"/>
      <stop offset="0.4" stop-color="#55b847"/>
      <stop offset="0.43" stop-color="#5ab947"/>
      <stop offset="1" stop-color="#67bc45"/>
    </linearGradient>
    <linearGradient id="linear-gradient-7" x1="129.79" y1="901.57" x2="1001.69" y2="304.44" xlink:href="#linear-gradient-3"/>
    <linearGradient id="linear-gradient-8" x1="1033.37" y1="2748.76" x2="903.63" y2="-1016.63" gradientUnits="userSpaceOnUse">
      <stop offset="0.02" stop-color="#4a8e41"/>
      <stop offset="0.28" stop-color="#4c9041"/>
      <stop offset="0.37" stop-color="#539541"/>
      <stop offset="0.44" stop-color="#5e9f40"/>
      <stop offset="0.49" stop-color="#6fac40"/>
      <stop offset="0.54" stop-color="#85be3f"/>
      <stop offset="0.56" stop-color="#8fc63f"/>
      <stop offset="0.56" stop-color="#97c83d"/>
      <stop offset="0.57" stop-color="#a2cc39"/>
      <stop offset="0.58" stop-color="#a9ce38"/>
      <stop offset="0.61" stop-color="#abcf37"/>
    </linearGradient>
    <linearGradient id="linear-gradient-9" x1="227.24" y1="1275.12" x2="1724.23" y2="249.88" xlink:href="#linear-gradient-3"/>
    <linearGradient id="linear-gradient-10" x1="535.85" y1="609.73" x2="535.85" y2="578.35" gradientUnits="userSpaceOnUse">
      <stop offset="0" stop-color="#09170a"/>
      <stop offset="0.58" stop-color="#2d550c"/>
      <stop offset="1" stop-color="#16623e"/>
    </linearGradient>
    <linearGradient id="linear-gradient-11" x1="170.49" y1="608.82" x2="170.49" y2="840.67" gradientUnits="userSpaceOnUse">
      <stop offset="0" stop-color="#e68247"/>
      <stop offset="0.64" stop-color="#763521"/>
      <stop offset="0.89" stop-color="#3b1c01"/>
    </linearGradient>
    <linearGradient id="linear-gradient-12" x1="1048.05" y1="608.98" x2="1048.05" y2="816.66" xlink:href="#linear-gradient-11"/>
    <linearGradient id="linear-gradient-13" x1="1654.42" y1="601.99" x2="1654.42" y2="1010.11" xlink:href="#linear-gradient-11"/>
    <linearGradient id="linear-gradient-14" x1="985.5" y1="601.13" x2="979.7" y2="303.78" gradientUnits="userSpaceOnUse">
      <stop offset="0.06" stop-color="#7f2f0b"/>
      <stop offset="0.27" stop-color="#4a1f30"/>
      <stop offset="0.42" stop-color="#2c1545"/>
    </linearGradient>
    <linearGradient id="linear-gradient-15" x1="950.77" y1="510.33" x2="1063.61" y2="232.65" gradientUnits="userSpaceOnUse">
      <stop offset="0.39" stop-color="#0b5a59"/>
      <stop offset="0.5" stop-color="#0f5e57"/>
      <stop offset="0.61" stop-color="#1a6952"/>
      <stop offset="0.72" stop-color="#2c7d4a"/>
      <stop offset="0.82" stop-color="#47983d"/>
      <stop offset="0.93" stop-color="#68ba2e"/>
      <stop offset="1" stop-color="#84d721"/>
    </linearGradient>
    <linearGradient id="linear-gradient-16" x1="1227.26" y1="306.86" x2="1112.61" y2="464.3" gradientUnits="userSpaceOnUse">
      <stop offset="0.37" stop-color="#9dec27"/>
      <stop offset="0.46" stop-color="#87d23b"/>
      <stop offset="0.62" stop-color="#64ab5a"/>
      <stop offset="0.75" stop-color="#4f926d"/>
      <stop offset="0.83" stop-color="#478974"/>
    </linearGradient>
    <linearGradient id="linear-gradient-17" x1="828.53" y1="427.2" x2="909.15" y2="350.84" gradientUnits="userSpaceOnUse">
      <stop offset="0.12" stop-color="#2a6868"/>
      <stop offset="0.62" stop-color="#2b7d48"/>
      <stop offset="1" stop-color="#2b8a34"/>
    </linearGradient>
    <linearGradient id="linear-gradient-18" x1="973.45" y1="502.28" x2="1091.74" y2="200.36" gradientUnits="userSpaceOnUse">
      <stop offset="0.08" stop-color="#11686f"/>
      <stop offset="0.2" stop-color="#156c6d"/>
      <stop offset="0.32" stop-color="#217767"/>
      <stop offset="0.44" stop-color="#358a5c"/>
      <stop offset="0.56" stop-color="#51a54e"/>
      <stop offset="0.68" stop-color="#76c73b"/>
      <stop offset="0.8" stop-color="#a2f124"/>
      <stop offset="0.81" stop-color="#a6f522"/>
    </linearGradient>
    <linearGradient id="linear-gradient-19" x1="978.8" y1="631.43" x2="1011.53" y2="516.31" gradientUnits="userSpaceOnUse">
      <stop offset="0.3" stop-color="#37971a"/>
      <stop offset="0.37" stop-color="#3b9d1b"/>
      <stop offset="0.47" stop-color="#47af1f"/>
      <stop offset="0.58" stop-color="#5acc24"/>
      <stop offset="0.66" stop-color="#6be629"/>
    </linearGradient>
    <linearGradient id="linear-gradient-20" x1="881.66" y1="685.05" x2="922.16" y2="542.61" xlink:href="#linear-gradient-19"/>
    <radialGradient id="radial-gradient" cx="332.69" cy="523.06" r="246.97" gradientTransform="translate(1118.6)" gradientUnits="userSpaceOnUse">
      <stop offset="0" stop-color="#fff"/>
      <stop offset="0.13" stop-color="#fffefb"/>
      <stop offset="0.26" stop-color="#fdf9f0"/>
      <stop offset="0.38" stop-color="#fbf2dc"/>
      <stop offset="0.5" stop-color="#f9e8c1"/>
      <stop offset="0.62" stop-color="#f5da9e"/>
      <stop offset="0.74" stop-color="#f1ca74"/>
      <stop offset="0.86" stop-color="#ecb741"/>
      <stop offset="0.98" stop-color="#e6a108"/>
      <stop offset="1" stop-color="#e59e00"/>
    </radialGradient>
    <radialGradient id="radial-gradient-2" cx="329.68" cy="518.2" r="283.63" xlink:href="#radial-gradient"/>
    <radialGradient id="radial-gradient-3" cx="386.32" cy="-128.82" r="246.96" gradientTransform="translate(1026.87 662.09) scale(1.1 1.27)" xlink:href="#radial-gradient"/>
    <radialGradient id="radial-gradient-4" cx="364.77" cy="-146.69" r="246.97" gradientTransform="translate(1043.66 675.17) scale(1.08 1.28)" xlink:href="#radial-gradient"/>
    <radialGradient id="radial-gradient-5" cx="382.69" cy="142.74" r="246.95" gradientTransform="translate(1028.59 335.98) scale(1.1 1.14)" xlink:href="#radial-gradient"/>
    <radialGradient id="radial-gradient-6" cx="326.58" cy="5.01" r="246.95" gradientTransform="translate(1118.6 486.21) scale(1 1.2)" xlink:href="#radial-gradient"/>
    <radialGradient id="radial-gradient-7" cx="312.48" cy="491.01" r="286.48" xlink:href="#radial-gradient"/>
    <radialGradient id="radial-gradient-8" cx="251.55" cy="478.73" r="301.93" gradientTransform="translate(1192.86) scale(0.93 1)" xlink:href="#radial-gradient"/>
    <radialGradient id="radial-gradient-9" cx="315.73" cy="517.8" r="283.19" xlink:href="#radial-gradient"/>
  </defs>
  <g class="cls-2">
    <g id="Layer_1" data-name="Layer 1">
      <g id="SC_03">
        <g class="cls-3">
          <rect class="cls-4" y="-12.62" width="1920" height="572.9"/>
          <path class="cls-5" d="M162,498c73.58,4.46,197.71,10.63,339.18,14.81,257.74,7.6,242.42-2.1,368.68,7.79,322.32,25.24,266.38,26.49,359.15,18.71,74-6.22,499.18-48.92,522.83-45.21,0,0,25,.67,42.33,1.89l141.28,22.13V678.49l-1942-11.23-.51-169Z"/>
          <path class="cls-6" d="M180.71,582.75s846.51-105.45,1153.62,0L1350,667.39,190.09,668.72Z"/>
          <path class="cls-7" d="M636.47,607.15c482.22-49.57,647.44-65.21,666.75-65.48,14.69-.19,25-.83,45.76-1.55,189.49-6.63,285-10.08,320.3-17.15,91.06-18.21,113-30.43,141.27-24.94,93.26,18.08,116.75,64.71,116.75,64.71L1933.94,678,626,668.72Z"/>
          <path class="cls-8" d="M140.07,498C249,502.64,468.68,549.47,573,551s540.55,29,606.79,42.54,23.61,75.15,23.61,75.15l-1232.56.07-3.07-158.56S96.92,496.2,140.07,498Z"/>
          <polygon class="cls-9" points="-21.55 625.13 1951.81 582.49 1951.81 914.4 -23.09 909.3 -21.55 625.13"/>
          <g>
            <path class="cls-10" d="M1501.83,177.26s30.59-7.41,41.22,8.45c.85,9.1-45.63,9.2-45.63,9.2Z"/>
            <path class="cls-10" d="M1399.59,184.91s31.3-28.35,78.75-20.25,40.12,31.77,17.13,33.21-68,1.71-77.78,0S1396.16,196.61,1399.59,184.91Z"/>
            <path class="cls-10" d="M1372.19,192.11s26.91-5.85,33.76-6.3,26.9.22,20,8.43c-10.76,1.47-36.69-.11-42.56,0S1370.72,196.61,1372.19,192.11Z"/>
          </g>
          <g>
            <path class="cls-10" d="M403.7,196.41s59.67-16.78,81.77,0c6.07,10.16-29.17,13.39-70.17,12.64S403.7,196.41,403.7,196.41Z"/>
            <path class="cls-10" d="M354,202.36s52.49-15.25,76.79-5.09C434.06,204.9,397,205.91,354,202.36Z"/>
          </g>
          <path class="cls-11" d="M182.92,588c27.17.33,54.16,2,81.34,2.18,33.6.27,66.81-2.17,100.44-1.12,19,.58,37.92,1.32,56.93,1.69,17.17.32,34.34.17,51.45.94,35.11,1.57,69.23,5.58,103.9,8.14,73.77,5.46,148.7,6.21,223.58,7.4,27,.44,53.22.11,79.82-.76a144.49,144.49,0,0,1,14.78-1.28c8.35-.41,16.74-.6,25.12-.64-4.6-.1-8.59-.14-11.71-.14-28.35,0-89.73,2.38-122.79,1.19s-47.22,0-94.44-1.8S589,597.19,556,596s-70.83-6-100.73-6.59-53.53,1.2-96-1.19-81.84,1.79-125.91-.6c-29.86-1.62-61.85-3.24-81.86-4.11v4.89C161.94,587.87,172.71,587.83,182.92,588Z"/>
          <g>
            <path class="cls-12" d="M1505.67,589.78c-54.58,4.05-110.69,10.6-165.73,11.66-72.13,1.36-143.49,6.14-215.76,7.25-74.09,1.14-145.77.88-219.76-1.57-64.07-2.12-128.26-.2-192.3-2.29-65.66-2.14-130.26-9.48-195.92-11.41-47.39-1.38-93.33-3.4-140.39-6.28-38.82-2.38-76-8.55-114.56-10.91C224.62,574,31,563-6,562.57V786.74l1933.79-.51.51-239c-46.33,4.06-212.92,21.37-257.9,27.82C1617.17,582.72,1560.43,585.73,1505.67,589.78Z"/>
            <g>
              <path class="cls-13" d="M269.34,606.73c6.67-.22,13.33-.39,20-.59,15.81-.5,32.27-.92,47.58-2.64,3.36-.38,11.39-1.09,12-2.78.88-2.18-12.34-2.93-15.94-3.22-9.29-.75-18.74-1.19-28.18-1.57-8.9-.34-17.59-.86-26.44-1.32-15.43-.8-30.58-1.75-45.72-3.15s-30.32-3.06-45.49-4.57c-12.57-1.25-25-2.51-37.71-3C110.12,582.35-8,580.79-8,580.79l2.72,16s115.91,14.12,154.77,15.52c31.75,1.14,63.41-2.14,94.85-4.12C252.67,607.66,260.89,607,269.34,606.73Z"/>
              <path class="cls-14" d="M864.45,611.61c-15.33,1-31,.7-45.93,2.53,3.29,1.76,9.83,2.34,15.17,2.61,8.07.42,16.3.33,24.42.13,15.61-.41,31-1.47,46.56-2.07,13.59-.52,27.66-.16,41.3-.2,16.49-.05,33-.11,49.45-.08,33,0,65.69.8,98.58,1.85,16.4.52,32.81,1,49.25,1s32.58-.51,48.84-1.23c15.68-.71,31.4-1.54,47.21-1.83,12.68-.22,26.54.62,38.29-1.64-7.1-2.4-16.58-3.57-25.74-4.28-11.22-.86-22.66-1.18-34.1-1.34-10-.14-20-.13-30-.35-14.93-.33-29.88-.94-44.76-1.56q-11.76-.49-23.54-1c-38.64,1.82-77.25,3.87-116.13,4.56-36.46.64-72.26.84-108.1.45C884.94,610,874.74,610.93,864.45,611.61Z"/>
              <path class="cls-15" d="M1573.27,602.24c-40.72,1-81.71,2.89-122.52,2.74-14.77-.05-30.22-.38-44.72.82-6.33.53-12.74,1.23-17.09,3.17s-7,4.45-.14,6.14c13,3.17,30.2,3.46,45,4.47,30.15,2.1,62,1.82,92.52,2,29.5.16,59.29,0,88.52,1.76,28.67,1.72,56.62,4.67,84.69,7.56,36,3.68,71.89,8.65,108.44,6.71,29.26-1.56,116.25-14.76,116.25-14.76l-.51-25s-86.8-2.41-115.74-2.54c-32.25-.13-64.43,1.51-96.53,2.72C1665.39,599.71,1619.45,601.15,1573.27,602.24Z"/>
            </g>
            <g class="cls-16">
              <path class="cls-17" d="M1689.13,572.48c-5.79,1.49-11.64,3-17.58,4.41A652.48,652.48,0,0,1,1595,590.78c-56.84,6.9-119.82,7-174.8,15.67,33.3,1.78,67.37.91,100.77-.14,23.33-.74,46.67-1.24,70-1.95,18.1-.56,36.22-1.19,54.4-1.25,13.43,0,32.38-.35,43.91,2.47,9.21,2.27,6,5.82-.15,8.44-9.92,4.21-24.53,7.25-38.38,9.82-18.41,3.42-38,6.24-57.94,8.46-18.95,2.1-38.71,3.82-58.69,4.3-13.22.32-29.21.33-40.27-2.51-.61-.17-.74-.4-.21-.6,12.31-4.9,36-4.9,46.49-10.3-26-3.53-56.94-1.61-83.86-.73-33.84,1.1-67.92,2.55-101.92,2.9-72.33.77-143.4-6-215.76-5.57-37.61.24-75.21.85-112.84,1q-55.89.23-111.79-.27c-27.44-.3-55.08-.12-82.48-.78-24.07-.59-50.66-1.69-70.6-6.64-.77-.2-.74-.61.29-.71,2.25-.23,4.56-.47,6.91-.59,15.82-.93,31.84-.26,47.72,0,18,.27,36-.43,53.84-1.12,18.14-.7,36.28-1.52,54.48-2,8.72-.21,17.38-.29,26.06-.32q-22.79-.5-45.78-1.24c-64.07-2.12-128.26-.2-192.3-2.29-65.66-2.14-130.26-9.48-195.92-11.41-47.39-1.38-93.33-3.4-140.39-6.28-38.82-2.38-76-8.55-114.56-10.91C224.62,574,33,562.45-3.94,562.06l.51,9.2c7.53.2,167.93,4.06,175.43,4.41,71,3.35,138.8,11.66,207.67,18,17.15,1.58,34.43,3,52,4.05,16.48,1,32.84,1.4,49.54,1.66,27,.43,56.87.95,80.43,5.93.68.14.8.51,0,.66-13.89,2.34-29.53,3.19-44.92,3.5-29.19.57-58.34-.54-87.52-.54-33.2,0-65.71,2.63-97.9,5.13-18.13,1.4-36.25,3.11-54.57,4.23-11.83.72-23.87,1-35.76,1.64-12.78.66-26.33,1.45-37.82,3.56a80.37,80.37,0,0,0-8.77,2c-2.29.7-2.49.7-.38,1.51a54,54,0,0,0,8.65,2.4c17.41,3.4,39.62,3.91,59.32,4.22,21.95.33,43.9.06,65.87,0,19.34-.05,38.55.61,57.89.83,23.48.23,51.51.13,71.86,4.65.52.13.71.33.4.52-5.31,3.31-13.53,3.81-23.9,4.14-9.44.28-18.79,1.2-28.15,1.73q-12.09.69-24.3,1.19c-18.35.76-36.78,1.27-55.21,1.78-37.59,1-74.57,2.7-111.83,4.7C193,654.27,7.15,655.35-14.66,656l-1.53,131.24H1935.47l-3.58-241C1892,549.74,1728.18,567.19,1689.13,572.48Z"/>
            </g>
            <g class="cls-18">
              <path class="cls-19" d="M1760.22,704.69c-15.19,3.43-31.9,6.93-44.82,12.53-3,1.29-7.83,3.36-7.39,5.67.76,4.08,10.84,7.12,16.53,9.13,12,4.25,33.64,10.42,27.82,19.85-3,4.84-12.22,7-21,8.16-13.27,1.77-27,3.06-40.47,4.38-70.26,6.82-141.85,7.4-213.08,7.4H1367.12c-16.17,0-32.44.26-48.61,0-13.79-.22-27.79-.93-40.41-4.11-.77-.19-.7-.84,0-1,39.35-11.4,87.15-12.39,131-13.22,14.44-.26,28.87-.44,43.31-.8,16.35-.41,32.62-1.38,48.92-2.16,18.36-.9,36.72-1.72,55.09-2.59,16.86-.83,33.75-2,50.67-2.48,12.92-.36,27.3-.38,39.1-3.54a42.65,42.65,0,0,0,9-3.34c3.06-1.69,2.18-2.5-1.91-3.16a89.08,89.08,0,0,0-17.78-.79c-12.68.51-25.1,2-37.72,2.72-18.47,1-37,1.5-55.56,1.5-37.16,0-74.26-1.35-111.39-1.46-33.65-.13-67.28.28-100.9.89-19,1-37.94,2.44-56.51,4.76-17.61,2.21-34.83,5.22-52.39,7.51-16.84,2.19-33.87,4.08-51.1,5.22-34.2,2.3-69.4,1.91-103.77.85-26.12-.8-52.2-2.34-77.8-5.16-73.93-2.28-148-6.34-221.78-2.42,29.14,5.36,60.27,7.22,90.91,8.37,29.07,1.12,58.37,2.1,87.52,2.53,28.61.42,57.29-.15,85.9.92,25.83,1,52.59,3,75.42,9.87.81.25.68.78,0,1.06-16.54,6.35-39.62,7.3-59.41,7.6-23.76.44-47.51-.54-71.19-1.38-30.21-1.07-60.6-.89-90.86-1.16-35.48-.3-70.94-.7-106.38-1.57-37.46-.92-74.52-2.79-111.77-5.06-36.72-2.24-73.52-4.34-110.51-4.72s-73.72,0-110.57-.46c-15.56-.17-31.19-.12-46.74-.44-11.56-.24-23.81-1-33-5-.5-.21-.41-.63,0-.85,12.67-6.85,33.22-8.56,50.48-9.46,23.82-1.24,47.81-.79,71.69-.45,28.83.38,57.68.16,86.52.33,18.82.08,37.64.14,56.48,0,14.24-.1,28.5-.54,42.74-.23,12.81.26,25.69.73,38.52.31,11.9-.39,24.63-1.38,34.46-5.17-40.11-6.66-82-9.22-123.85-10.5-41.69-1.25-83.42-1.8-125-3.4-37.66-1.44-75.12-5-112.84-5.86-17.59-.41-35.38.6-53,1.05-21.32.49-43.07,1-64.31-.39-11.31-.76-28.72-2-33.79-8.36-.15-.17,0-.47.28-.59,22.09-9.31,54.57-10.18,81.55-11.61,37.72-2,74.71-6.5,112.42-8.75,16.32-1,31.85-2.09,46.93-5.71,12.06-2.9,23.2-6.21,36.12-8s28.74-2.85,39.15-7.6c1.69-.78,1.23-.71-.4-1.44-1.1-.47-2.21-1-3.39-1.36a60.18,60.18,0,0,0-6-1.79,100.73,100.73,0,0,0-14.37-2.23c-22.9-1.92-46.29.62-69.22,1.07-19.71.41-41.37-.29-56-8.1-.55-.31-.37-.74.22-1,12.05-4.52,27.47-6.25,41.81-7.49,16.11-1.38,32.36-2,48.56-3,14.93-.9,29.8-2.1,44.76-2.95,18-1,36-2.05,53.63-4.19,12.93-1.57,26.05-3.64,37.54-7.22,7.77-2.43,22-7.16,21.28-12.81a4.36,4.36,0,0,0-1.17-2.28C603.94,614.93,560.3,609.06,516.2,607c-47.39-2.18-93.33-5.36-140.39-9.9-38.82-3.74-76-13.46-114.56-17.17C224.62,576.42,15.13,561.65-21.81,561l8.17,11.75c7.53.32,178.14,5.75,185.64,6.3,71,5.27,138.8,18.34,207.67,28.27,17.15,2.49,34.43,4.79,52,6.38,16.48,1.53,32.84,2.21,49.54,2.61,27,.68,56.87,1.5,80.43,9.34.68.21.8.81,0,1-13.89,3.68-29.53,5-44.92,5.5-29.19.9-58.34-.84-87.52-.84-33.2,0-65.71,4.13-97.9,8.07-18.13,2.21-36.25,4.9-54.57,6.65-11.83,1.14-23.87,1.64-35.76,2.59-12.78,1-26.33,2.29-37.82,5.6a57.49,57.49,0,0,0-8.77,3.1c-2.29,1.1-2.49,1.12-.38,2.38a39.94,39.94,0,0,0,8.65,3.78c17.41,5.35,39.62,6.16,59.32,6.65,21.95.51,43.9.08,65.87,0,19.34-.08,38.55,1,57.89,1.3,23.48.37,51.51.21,71.86,7.33.52.19.71.51.4.82-5.31,5.2-13.53,6-23.9,6.5-9.44.45-18.79,1.9-28.15,2.74q-12.09,1.07-24.3,1.87c-18.35,1.2-36.78,2-55.21,2.8-37.59,1.61-74.57,4.25-111.83,7.4C193,702.81,14.29,718.28-7.51,719.34L-7,908.79l1934,4.34V680.28C1911,683.42,1776,701.14,1760.22,704.69Z"/>
            </g>
            <g>
              <path class="cls-20" d="M988.18,632.94c-1.77,0-4.12,0-6.47.17-4.56.19-8.65.73-9.71,1.82-.13.14-.09.25.16.37,4.44,2,13.38,1.46,19.45,1.18,2.2-.09,14.62-.29,13.91-2.1S991.74,632.86,988.18,632.94Z"/>
              <path class="cls-20" d="M1061.77,625.82c-1.5-1.42-10.58-.83-13.51-.73-1.24,0-4.11,0-6.49.23l-2,.09c-1.27.05-5.36.79-3.18,1.49,2.42.79,6.42.76,9.37.8,3.2,0,6.37-.13,9.49-.38a28.06,28.06,0,0,0,5.54-.72C1061.59,626.41,1062.1,626.13,1061.77,625.82Z"/>
              <path class="cls-20" d="M556,686.47c-1.76,0-4.11.06-6.45.18-4.55.18-8.65.72-9.71,1.82-.14.13-.1.26.14.38,4.44,2,13.4,1.44,19.46,1.17,2.2-.09,14.63-.29,13.92-2.1S559.53,686.4,556,686.47Z"/>
              <path class="cls-20" d="M630.05,692.13c-1.51-1.42-10.59-.82-13.53-.73-1.23.05-4.08,0-6.46.23l-2,.1c-1.28,0-5.36.78-3.18,1.48,2.4.77,6.41.75,9.37.78,3.2,0,6.39-.11,9.5-.36a27.66,27.66,0,0,0,5.52-.72C629.87,692.72,630.37,692.45,630.05,692.13Z"/>
              <path class="cls-20" d="M1028,697.31c-1.21,0-2.86,0-4.49.12-3.19.15-6,.51-6.78,1.28-.09.08-.07.17.1.25,3.11,1.42,9.36,1,13.58.84,1.55-.08,10.23-.22,9.73-1.49S1030.51,697.26,1028,697.31Z"/>
              <path class="cls-20" d="M1079.73,701.26c-1-1-7.38-.58-9.44-.51-.87,0-2.86,0-4.51.16l-1.38.07c-.9,0-3.76.53-2.24,1a27.31,27.31,0,0,0,6.57.55c2.22,0,4.43-.08,6.59-.26a20.62,20.62,0,0,0,3.89-.5C1079.61,701.67,1080,701.48,1079.73,701.26Z"/>
            </g>
            <path class="cls-20" d="M1303.47,703.9c0,1.84-25.63,3.34-57.19,3.34s-57.17-1.5-57.17-3.34,25.6-3.34,57.17-3.34S1303.47,702.06,1303.47,703.9Z"/>
          </g>
          <g>
            <path class="cls-21" d="M1065.53,585.93c.17-.49-1.25-1.25-2.47-3.08a11.68,11.68,0,0,1-1.63-4.17c-1.08-4.38-5.22-9.68-6.59-11.64-4.35-6.22-6.4-15.55-9.8-31a238,238,0,0,1-4.29-26.6c-.25-15.44,1.77-27.08,5.93-33.79a186.2,186.2,0,0,0,11.87-22.91s24.43,1.16,26.52,0,8-6.71,7-21l.35-3.44-6.28,1.85s-1.93,12.84-10,13.83c-9.59,1.39-20.56-4.79-19-13.83h-7s2.14,26.37-8.41,31.94c-7.87,2.18-12.51-1.28-12.16-16.72l.36-15.43-12.52,0s.72,16.41,0,17.4-6.25,11.14-12.15-9.75c-5-14.72-2.15-7.63-2.15-7.63l-6.79.17s3,16.22,13.05,26.37c6.61,9.74,6.79,26.06,1.79,31.83-5.37,5.77-14.49,8.95-21.46-25.27-4.65-22.68-5.9-32.93-5.9-32.93l-9.65-.12s3.93,27.08,3.21,31.86c-.89,5.37-1.25,21.88-22.35,14.92-11-1.7-32.88-7.78-42-26.06-3.4-15.52-2.69-21.49-2.69-21.49l-7.86-.22s.18,9,1.78,11.36a24.22,24.22,0,0,1-14-3.24c-8.1-4.7-11.37-12.66-12.25-15l-6.31-.27a40,40,0,0,0,6.37,11.7c6.22,7.83,14.87,12.15,21.22,13.2,1.26.2,6.27.91,6.25,1.13,0,.06-.35.06-.35.06s1.61,23.48,26.82,34.22c22.53,9.35,32.36,14.13,38.08,17.91s9.66,7.75,8.76,20.69a112.7,112.7,0,0,0,1.61,30.93A108,108,0,0,0,992.82,585c19.36.67,31.79.74,39.76.66,16-.17,25.09-1,29.88.19C1062.48,585.85,1065.29,586.57,1065.53,585.93Z"/>
            <path class="cls-22" d="M1040.41,506.05A50.59,50.59,0,0,0,1025.23,521c-17.11,26-5.47,60.31-4.15,64l45.18.91a157.1,157.1,0,0,1-8.69-15.27C1045.7,546.77,1041.67,523.44,1040.41,506.05Z"/>
            <path class="cls-23" d="M988.33,456.77s8.37,34.5,14.94,34.24C996.48,494.54,983.8,485,988.33,456.77Z"/>
            <path class="cls-24" d="M1035.18,547.55a12.19,12.19,0,0,1-2.48.38,5.35,5.35,0,0,1-2.51-.44,2.22,2.22,0,0,1-1-.9,2.73,2.73,0,0,1-.32-1.31,7.11,7.11,0,0,1,.6-2.51,18.31,18.31,0,0,1,2.67-4.32A15.83,15.83,0,0,1,1036,535a5.45,5.45,0,0,1,2.59-.85,2.9,2.9,0,0,1,1.45.37,2.46,2.46,0,0,1,.59.46,2.64,2.64,0,0,1,.47.54,10.32,10.32,0,0,1,1.43,5,31.69,31.69,0,0,1-1.22,10.08l0,.06,0,.07a35.05,35.05,0,0,1-3,4.66,21.87,21.87,0,0,1-3.92,4,10,10,0,0,1-2.52,1.42,4,4,0,0,1-3.08,0,5.13,5.13,0,0,1-2.11-2.15,12.9,12.9,0,0,1-1.06-2.64,34.94,34.94,0,0,1-.9-11c.21-3.64.39-7.28.65-10.92,0,3.64,0,7.29,0,10.94a34.46,34.46,0,0,0,1.22,10.69,14,14,0,0,0,1,2.41,4.16,4.16,0,0,0,1.66,1.69,2.93,2.93,0,0,0,2.25,0,8.8,8.8,0,0,0,2.2-1.29,28,28,0,0,0,6.57-8.35l0,.13a30.42,30.42,0,0,0,1.28-9.68,9.19,9.19,0,0,0-1.18-4.5,2,2,0,0,0-1.65-1,4.66,4.66,0,0,0-2.13.65,14.66,14.66,0,0,0-3.7,3.12A18.08,18.08,0,0,0,1030,543a6.31,6.31,0,0,0-.68,2.28,2,2,0,0,0,1,1.93,5.08,5.08,0,0,0,2.36.53A12.21,12.21,0,0,0,1035.18,547.55Z"/>
            <path class="cls-25" d="M863.23,352.31c1.92-14.33,7-35.95,22.23-53.61,41.16-47.72,120-25.52,145.23-18.39,62.26,17.59,102.61,59.78,122.38,84.33l9.81,7.88A793.06,793.06,0,0,1,1006.41,386a793.94,793.94,0,0,1-136.15-13.69Z"/>
            <path class="cls-26" d="M1122,361.86s56-14.12,80.77,28.88c16.15,33.38,19,44.21-80.77,38.16C1105.1,375.45,1122,361.86,1122,361.86Z"/>
            <path class="cls-27" d="M874.83,422c-1.67,0-50.32-3.73-50.32-3.73s-19.47-5-12.87-23.65c1.45-2.31,2.56-5.52,5.91-10.86,3.46-5.5,7-8.24,9.79-12.59,17.92-20.09,30.38-21.5,30.38-21.5h0s31.74-7.08,55.36,6.81c2.63,1.55,3.93,2.39,4.93,3.83C928.94,376,895,422,895,422Z"/>
            <path class="cls-28" d="M849.89,330s4.61-11.37,36.34-5.59c29.42,7.06,6.92,25-18.17,21.18C848.17,343.43,848,334.44,849.89,330Z"/>
            <path class="cls-29" d="M875.21,383.07s29-25.49,59.4-35.48c33.21-15,77.17-48.46,130.49-33,41.16,14.49,72,34.47,90.27,71.44,8.88,21.49,10.29,47.47-57.53,44l-188.95.32S835,424.54,875.21,383.07Z"/>
            <path class="cls-23" d="M1092.4,430.49s.9,14.88-5.39,20.66c-1.88,2-3.36,2-5.6,2a13.47,13.47,0,0,0,7.81-9.85,77.91,77.91,0,0,0,1.63-13.3h1.55Z"/>
            <path class="cls-23" d="M1030,429.89c-.25,2.6-.37,11.67-.27,13.43.43,7.74.92,16.54,5.43,18.82a5.68,5.68,0,0,0,3.39.47l1.71-.21c-2.1,2.88-4,3.13-4.59,3.16-3.73.19-8.09-5.2-9.15-13.87a58.39,58.39,0,0,1-.75-12.48c.17-3.46.79-9.32.79-9.32H1030Z"/>
          </g>
          <path class="cls-30" d="M1045.7,584.1c-6.88-14.89-19.85-5.71-19.85-5.71-5.22-15.66-14-7.08-14-7.08-10.62-19.07-18.69-.55-18.69-.55s-2.53-13.92-10.6-18.88-14.9,2.91-14.9,2.91c-15.58-18.1-23.14,5.18-23.14,5.18-5.92-4.52-10-.32-10-.32-6.47,6.93-2.86,17.37-2.86,17.37-19.81,5.07-7.76,15.42-7.76,15.42l2.86,1.94,129.61,3,2.1-1.19c6-3.4,4.08-13.66-2.6-14A28.65,28.65,0,0,0,1045.7,584.1Z"/>
          <g>
            <path class="cls-31" d="M1523.2,568.16c58.4,0,153.78,1.79,188.25,1.56,13.15-.09,189.43-3.4,212-2.81,3.41.09.76,5.88.76,5.88l-274,5.17-126.57,2S1521.42,568.16,1523.2,568.16Z"/>
            <g>
              <polygon class="cls-32" points="1547.47 556.76 1565.51 557.09 1567.67 560.29 1566.52 623.51 1546.21 625.92 1547.47 556.76"/>
              <polygon class="cls-32" points="1588.65 555.38 1608.59 555.75 1605.66 629.46 1587.31 629.13 1588.65 555.38"/>
              <polygon class="cls-32" points="1625.92 559.77 1641.75 560.06 1643.97 594.69 1643.28 632.63 1623.39 629.78 1625.92 559.77"/>
              <path class="cls-32" d="M1661.71,558.84s-5.43,2.9-2,37.82l3.48,34.91,17.72.33-4-74.91Z"/>
              <path class="cls-32" d="M1692.73,559.4,1687.61,632l16.14.29,7.78-62.64s1.06-6-3.3-10Z"/>
              <polygon class="cls-32" points="1718.4 557.74 1739.28 558.12 1740.14 632.97 1721.76 634.05 1718.4 557.74"/>
              <polygon class="cls-33" points="1547.47 556.76 1563.47 558.63 1565.73 562.36 1563.99 623.81 1566.52 623.51 1567.67 560.29 1565.51 557.09 1547.47 556.76"/>
              <polygon class="cls-33" points="1588.65 555.38 1605.65 557.82 1602.34 629.4 1605.66 629.46 1608.59 555.75 1588.65 555.38"/>
              <polygon class="cls-33" points="1625.92 559.77 1638.45 561.59 1641.43 593.76 1640.73 632.58 1643.28 632.63 1643.88 593.27 1641.75 560.06 1625.92 559.77"/>
              <polygon class="cls-33" points="1661.71 558.84 1674.77 559.08 1679.34 631.87 1680.96 631.89 1676.94 556.99 1661.71 558.84"/>
              <path class="cls-33" d="M1692.73,559.4l14.4,1.84a15.37,15.37,0,0,1,2.47,9.11c-.25,5.38-7.32,61.93-7.32,61.93l1.47,0,7.67-61.76s1.39-7.71-3.19-10.87Z"/>
              <polygon class="cls-33" points="1718.4 557.74 1736.92 560.2 1738.08 632.93 1740.14 632.97 1739.28 558.12 1718.4 557.74"/>
              <ellipse class="cls-34" cx="1557.29" cy="573.78" rx="3.36" ry="3" transform="translate(955.33 2120.4) rotate(-88.96)"/>
              <ellipse class="cls-34" cx="1595.9" cy="574.48" rx="3.36" ry="3" transform="translate(992.53 2159.69) rotate(-88.96)"/>
              <ellipse class="cls-34" cx="1632" cy="574.18" rx="3.36" ry="3" transform="translate(1028.28 2195.48) rotate(-88.96)"/>
              <ellipse class="cls-34" cx="1666.51" cy="573.66" rx="3.36" ry="3" transform="matrix(0.02, -1, 1, 0.02, 1062.68, 2229.47)"/>
              <ellipse class="cls-34" cx="1701.37" cy="573.03" rx="3.36" ry="3" transform="translate(1097.53 2263.72) rotate(-88.96)"/>
              <ellipse class="cls-34" cx="1727.85" cy="572.56" rx="3.36" ry="3" transform="translate(1124.01 2289.73) rotate(-88.96)"/>
            </g>
            <g>
              <polygon class="cls-32" points="1761.13 553.43 1779.16 553.76 1781.31 557.46 1779.99 630.48 1759.68 633.32 1761.13 553.43"/>
              <polygon class="cls-32" points="1802.31 551.73 1822.25 552.09 1819.12 637.25 1800.76 636.91 1802.31 551.73"/>
              <polygon class="cls-32" points="1839.58 556.69 1855.4 556.97 1857.52 596.97 1856.72 640.8 1836.84 637.57 1839.58 556.69"/>
              <path class="cls-32" d="M1875.37,555.51s-5.44,3.37-2.06,43.69l3.38,40.32,17.72.33-3.81-86.52Z"/>
              <path class="cls-32" d="M1906.38,556.07l-5.32,83.9,16.14.29,8-72.37s1.08-6.95-3.27-11.54Z"/>
              <polygon class="cls-33" points="1761.13 553.43 1777.13 555.55 1779.37 559.84 1777.46 630.83 1779.99 630.48 1781.31 557.46 1779.16 553.76 1761.13 553.43"/>
              <polygon class="cls-33" points="1802.31 551.73 1819.31 554.49 1815.79 637.19 1819.12 637.25 1822.25 552.09 1802.31 551.73"/>
              <polygon class="cls-33" points="1839.58 556.69 1852.1 558.75 1854.99 595.9 1854.17 640.75 1856.72 640.8 1857.43 595.34 1855.4 556.97 1839.58 556.69"/>
              <polygon class="cls-33" points="1875.37 555.51 1888.43 555.75 1892.79 639.82 1894.41 639.85 1890.6 553.33 1875.37 555.51"/>
              <path class="cls-33" d="M1906.38,556.07l14.4,2.09a19.63,19.63,0,0,1,2.45,10.51c-.27,6.22-7.5,71.56-7.5,71.56l1.47,0,7.85-71.36s1.41-8.91-3.16-12.55Z"/>
              <ellipse class="cls-34" cx="1770.9" cy="573.06" rx="3.88" ry="3" transform="translate(1165.77 2333.26) rotate(-88.96)"/>
              <ellipse class="cls-34" cx="1809.51" cy="573.76" rx="3.88" ry="3" transform="translate(1202.98 2372.55) rotate(-88.96)"/>
              <ellipse class="cls-34" cx="1845.61" cy="573.31" rx="3.88" ry="3" transform="translate(1238.88 2408.21) rotate(-88.96)"/>
              <ellipse class="cls-34" cx="1880.12" cy="572.61" rx="3.88" ry="3" transform="matrix(0.02, -1, 1, 0.02, 1273.46, 2442.03)"/>
              <ellipse class="cls-34" cx="1914.98" cy="571.8" rx="3.88" ry="3" transform="translate(1308.51 2476.08) rotate(-88.96)"/>
            </g>
          </g>
          <g>
            <path class="cls-31" d="M1022.51,571.93c50,0,131.65,1.53,161.17,1.33,11.25-.07,162.17-2.9,181.51-2.4,2.91.08.65,5,.65,5l-234.55,4.43L1022.93,582S1021,571.93,1022.51,571.93Z"/>
            <g>
              <polygon class="cls-32" points="1043.29 562.17 1058.74 562.45 1060.58 565.19 1059.6 619.31 1042.22 621.38 1043.29 562.17"/>
              <polygon class="cls-32" points="1078.55 560.99 1095.61 561.3 1093.11 624.41 1077.4 624.13 1078.55 560.99"/>
              <polygon class="cls-32" points="1110.46 564.74 1124 564.99 1125.9 594.64 1125.31 627.12 1108.29 624.69 1110.46 564.74"/>
              <path class="cls-32" d="M1141.1,564s-4.66,2.48-1.68,32.37l3,29.9,15.18.27-3.45-64.13Z"/>
              <path class="cls-32" d="M1167.65,564.43l-4.38,62.17,13.81.25,6.67-53.63s.9-5.14-2.83-8.55Z"/>
              <polygon class="cls-32" points="1189.63 563.01 1207.51 563.33 1208.24 627.41 1192.5 628.34 1189.63 563.01"/>
              <polygon class="cls-33" points="1043.29 562.17 1056.99 563.77 1058.93 566.96 1057.44 619.57 1059.6 619.31 1060.58 565.19 1058.74 562.45 1043.29 562.17"/>
              <polygon class="cls-33" points="1078.55 560.99 1093.11 563.08 1090.27 624.36 1093.11 624.41 1095.61 561.3 1078.55 560.99"/>
              <polygon class="cls-33" points="1110.46 564.74 1121.18 566.3 1123.73 593.84 1123.13 627.08 1125.31 627.12 1125.83 593.43 1124 564.99 1110.46 564.74"/>
              <polygon class="cls-33" points="1141.1 563.95 1152.28 564.15 1156.19 626.47 1157.58 626.49 1154.13 562.36 1141.1 563.95"/>
              <path class="cls-33" d="M1167.65,564.43,1180,566a13.22,13.22,0,0,1,2.12,7.79c-.22,4.61-6.28,53-6.28,53l1.26,0,6.57-52.87s1.19-6.6-2.73-9.31Z"/>
              <polygon class="cls-33" points="1189.63 563.01 1205.48 565.12 1206.47 627.38 1208.24 627.41 1207.51 563.33 1189.63 563.01"/>
              <ellipse class="cls-34" cx="1051.7" cy="576.74" rx="2.88" ry="2.57" transform="translate(455.96 1617.79) rotate(-88.96)"/>
              <ellipse class="cls-34" cx="1084.75" cy="577.34" rx="2.88" ry="2.57" transform="translate(487.81 1651.43) rotate(-88.96)"/>
              <ellipse class="cls-34" cx="1115.66" cy="577.08" rx="2.88" ry="2.57" transform="translate(518.41 1682.08) rotate(-88.96)"/>
              <ellipse class="cls-34" cx="1145.2" cy="576.63" rx="2.88" ry="2.57" transform="translate(547.87 1711.18) rotate(-88.96)"/>
              <ellipse class="cls-34" cx="1175.05" cy="576.1" rx="2.88" ry="2.57" transform="translate(577.7 1740.49) rotate(-88.96)"/>
              <ellipse class="cls-34" cx="1197.72" cy="575.69" rx="2.88" ry="2.57" transform="matrix(0.02, -1, 1, 0.02, 600.37, 1762.76)"/>
            </g>
            <g>
              <polygon class="cls-32" points="1226.21 559.32 1241.65 559.6 1243.49 562.76 1242.35 625.28 1224.96 627.72 1226.21 559.32"/>
              <polygon class="cls-32" points="1261.46 557.86 1278.53 558.17 1275.85 631.08 1260.14 630.79 1261.46 557.86"/>
              <polygon class="cls-32" points="1293.37 562.1 1306.91 562.35 1308.73 596.59 1308.05 634.12 1291.03 631.35 1293.37 562.1"/>
              <path class="cls-32" d="M1324,561.1s-4.66,2.88-1.76,37.4l2.89,34.52,15.17.28-3.26-74.07Z"/>
              <path class="cls-32" d="M1350.56,561.58,1346,633.4l13.82.25,6.82-62s.92-5.94-2.81-9.87Z"/>
              <polygon class="cls-32" points="1372.54 559.87 1390.42 560.2 1390.98 634.22 1375.24 635.34 1372.54 559.87"/>
              <polygon class="cls-33" points="1226.21 559.32 1239.9 561.13 1241.83 564.81 1240.19 625.58 1242.35 625.28 1243.49 562.76 1241.65 559.6 1226.21 559.32"/>
              <polygon class="cls-33" points="1261.46 557.86 1276.02 560.23 1273.01 631.02 1275.85 631.08 1278.53 558.17 1261.46 557.86"/>
              <polygon class="cls-33" points="1293.37 562.1 1304.09 563.88 1306.56 595.68 1305.87 634.08 1308.05 634.12 1308.65 595.19 1306.91 562.35 1293.37 562.1"/>
              <polygon class="cls-33" points="1324.01 561.1 1335.19 561.3 1338.93 633.27 1340.31 633.3 1337.05 559.23 1324.01 561.1"/>
              <path class="cls-33" d="M1350.56,561.58l12.33,1.79a16.86,16.86,0,0,1,2.09,9c-.23,5.32-6.42,61.26-6.42,61.26l1.26,0,6.72-61.09s1.21-7.62-2.71-10.74Z"/>
              <polygon class="cls-33" points="1372.54 559.87 1388.39 562.27 1389.21 634.19 1390.98 634.22 1390.42 560.2 1372.54 559.87"/>
              <ellipse class="cls-34" cx="1234.57" cy="576.12" rx="3.32" ry="2.57" transform="translate(636.12 1800.03) rotate(-88.96)"/>
              <ellipse class="cls-34" cx="1267.63" cy="576.72" rx="3.32" ry="2.57" transform="translate(667.98 1833.67) rotate(-88.96)"/>
              <ellipse class="cls-34" cx="1298.53" cy="576.34" rx="3.32" ry="2.57" transform="translate(698.71 1864.19) rotate(-88.96)"/>
              <ellipse class="cls-34" cx="1328.08" cy="575.74" rx="3.32" ry="2.57" transform="translate(728.32 1893.15) rotate(-88.96)"/>
              <ellipse class="cls-34" cx="1357.93" cy="575.04" rx="3.32" ry="2.57" transform="translate(758.32 1922.3) rotate(-88.96)"/>
              <ellipse class="cls-34" cx="1380.6" cy="574.51" rx="3.32" ry="2.57" transform="translate(781.12 1944.45) rotate(-88.96)"/>
            </g>
          </g>
          <g>
            <path class="cls-31" d="M-3.94,572.62c64.55-5.93,335.88-.42,372.52-.61s194.1-10.74,227.15-15.08,177.45-1.6,245.62,9.55S1025.49,572,1025.49,572l-.18,9.84s-144.1,0-178.71-2.39S742.67,564.26,663.13,565s-154.22,9.61-154.22,9.61l-205.36,5.61L-3.6,580.11S-12.64,573.42-3.94,572.62Z"/>
            <polygon class="cls-32" points="194.27 558.86 213.44 559.21 215.74 562.42 214.59 625.63 193.02 628.02 194.27 558.86"/>
            <polygon class="cls-32" points="238.04 557.53 259.23 557.92 256.21 631.63 236.7 631.28 238.04 557.53"/>
            <path class="cls-32" d="M348.67,561.67l-5.36,72.61,17.15.31L368.67,572s1.12-6-3.52-10Z"/>
            <polygon class="cls-32" points="375.95 560.04 398.15 560.44 399.15 635.29 379.61 636.36 375.95 560.04"/>
            <polygon class="cls-32" points="460.79 557.67 482.37 554.88 484.98 633.32 459.36 636.39 460.79 557.67"/>
            <polygon class="cls-32" points="533.96 549.07 551.52 545.49 564.84 627.31 539.59 628.27 533.96 549.07"/>
            <polygon class="cls-32" points="580.84 542.83 578.21 613.72 581.99 627.62 613.64 626.42 604.39 543.26 580.84 542.83"/>
            <polygon class="cls-32" points="621.65 541.29 660.17 539.68 653.06 622.67 629.6 622.24 621.65 541.29"/>
            <polygon class="cls-32" points="682.9 543.01 711.28 543.52 702.97 625.97 681.44 623.18 682.9 543.01"/>
            <polygon class="cls-32" points="734.34 545.62 757.04 546.03 758.54 588.44 757.84 626.97 730.64 624.08 734.34 545.62"/>
            <path class="cls-32" d="M779.4,544.76l24.22.44s7.56.54,6.94,13.69-7.2,63.32-7.2,63.32l-23.84-.44Z"/>
            <polygon class="cls-32" points="837.13 555.38 859.41 558.1 858.23 623.2 827.96 622.65 837.13 555.38"/>
            <polygon class="cls-32" points="888.44 543.82 878.66 603.04 880.18 623.6 913.1 624.2 909.74 544.21 888.44 543.82"/>
            <path class="cls-32" d="M931.2,544.6,956.13,548s6.46-1.24,6.59,12-6.5,66.6-6.5,66.6l-22.33-.41Z"/>
            <polygon class="cls-32" points="987.37 558.11 1008.9 560.5 1009.23 625.95 980.43 627.02 987.37 558.11"/>
            <polygon class="cls-33" points="194.27 558.86 211.28 560.75 213.69 564.48 211.91 625.93 214.59 625.63 215.74 562.42 213.44 559.21 194.27 558.86"/>
            <polygon class="cls-33" points="238.04 557.53 256.12 559.99 252.68 631.57 256.21 631.63 259.23 557.92 238.04 557.53"/>
            <path class="cls-33" d="M348.67,561.67,364,563.53a14.83,14.83,0,0,1,2.64,9.11c-.26,5.38-7.72,61.92-7.72,61.92l1.56,0,8.09-61.75s1.47-7.71-3.4-10.87Z"/>
            <polygon class="cls-33" points="375.95 560.04 395.64 562.52 396.95 635.25 399.15 635.29 398.15 560.44 375.95 560.04"/>
            <polygon class="cls-33" points="460.79 557.67 479.67 558.02 482.18 633.78 484.98 633.32 482.37 554.88 460.79 557.67"/>
            <polygon class="cls-33" points="533.96 549.07 548.51 548.47 561.06 627.45 564.84 627.31 551.52 545.49 533.96 549.07"/>
            <polygon class="cls-33" points="580.84 542.83 600.92 545.49 610.01 626.56 613.64 626.42 604.39 543.26 580.84 542.83"/>
            <polygon class="cls-33" points="621.65 541.29 656.9 542.53 650.63 622.63 653.06 622.67 660.17 539.68 621.65 541.29"/>
            <polygon class="cls-33" points="682.9 543.01 707.5 545.13 699.96 625.58 702.97 625.97 711.28 543.52 682.9 543.01"/>
            <polygon class="cls-33" points="734.34 545.62 753.56 547.89 756.38 582.85 755.59 626.92 757.84 626.97 758.45 585.68 757.04 546.03 734.34 545.62"/>
            <path class="cls-33" d="M779.4,544.76l24.08,3.08s4.9,1.24,5.09,11-7.17,63.3-7.17,63.3l2,0,6.64-56s4-18.44-6.38-21Z"/>
            <polygon class="cls-33" points="837.13 555.38 856.64 560.32 855.5 623.15 858.23 623.2 859.41 558.1 837.13 555.38"/>
            <polygon class="cls-33" points="888.44 543.82 906.44 547.07 909.78 624.14 913.1 624.2 909.74 544.21 888.44 543.82"/>
            <path class="cls-33" d="M931.2,544.6l24.38,5.61s6.32,2.81,4.55,20.06L954,626.54l2.21,0,5.47-49.76s4.93-25.37-4.09-28.74Z"/>
            <polygon class="cls-33" points="987.37 558.11 1006.19 562.46 1006.72 625.9 1009.23 625.95 1008.9 560.5 987.37 558.11"/>
            <ellipse class="cls-34" cx="204.73" cy="575.89" rx="3.36" ry="3.19" transform="translate(-374.78 770.13) rotate(-88.96)"/>
            <ellipse class="cls-34" cx="245.77" cy="576.64" rx="3.36" ry="3.19" transform="translate(-335.24 811.89) rotate(-88.96)"/>
            <g>
              <polygon class="cls-32" points="277.66 561.96 294.48 562.26 296.88 596.9 296.19 634.84 275.05 631.97 277.66 561.96"/>
              <polygon class="cls-33" points="277.66 561.96 290.98 563.8 294.19 595.97 293.48 634.79 296.19 634.84 296.78 595.48 294.48 562.26 277.66 561.96"/>
              <ellipse class="cls-34" cx="284.14" cy="576.38" rx="3.36" ry="3.19" transform="translate(-297.3 850) rotate(-88.96)"/>
            </g>
            <g>
              <polygon class="cls-32" points="18.51 561.79 35.33 562.1 37.73 596.73 37.04 634.67 15.9 631.8 18.51 561.79"/>
              <polygon class="cls-33" points="18.51 561.79 31.83 563.63 35.04 595.8 34.33 634.62 37.04 634.67 37.63 595.31 35.33 562.1 18.51 561.79"/>
              <ellipse class="cls-34" cx="24.99" cy="576.21" rx="3.36" ry="3.19" transform="translate(-551.58 590.73) rotate(-88.96)"/>
            </g>
            <g>
              <path class="cls-32" d="M315.7,561.07s-5.77,2.89-2,37.82l3.74,34.92,18.84.34-4.36-74.91Z"/>
              <polygon class="cls-33" points="315.7 561.07 329.58 561.32 334.52 634.12 336.25 634.15 331.89 559.24 315.7 561.07"/>
              <ellipse class="cls-34" cx="320.82" cy="575.89" rx="3.36" ry="3.19" transform="translate(-260.81 886.2) rotate(-88.96)"/>
            </g>
            <g>
              <path class="cls-32" d="M154.68,559.71s-5.77,2.89-2,37.81l3.74,34.93,18.83.34-4.36-74.92Z"/>
              <polygon class="cls-33" points="154.68 559.71 168.56 559.96 173.5 632.76 175.22 632.79 170.86 557.87 154.68 559.71"/>
              <ellipse class="cls-34" cx="159.79" cy="574.53" rx="3.36" ry="3.19" transform="translate(-417.55 723.87) rotate(-88.96)"/>
            </g>
            <ellipse class="cls-34" cx="357.87" cy="575.31" rx="3.36" ry="3.19" transform="translate(-223.85 922.67) rotate(-88.96)"/>
            <ellipse class="cls-34" cx="386.02" cy="574.87" rx="3.36" ry="3.19" transform="translate(-195.76 950.38) rotate(-88.96)"/>
            <g>
              <polygon class="cls-32" points="414.37 556.83 436.57 557.24 433.18 632.38 412.94 635.54 414.37 556.83"/>
              <polygon class="cls-33" points="414.37 556.83 433.97 559.65 430.24 632.84 433.18 632.38 436.57 557.24 414.37 556.83"/>
              <ellipse class="cls-34" cx="423.82" cy="573.15" rx="3.36" ry="3.19" transform="translate(-156.93 986.49) rotate(-88.96)"/>
            </g>
            <g>
              <polygon class="cls-32" points="108.5 558.88 130.69 559.28 127.31 634.43 107.06 637.59 108.5 558.88"/>
              <polygon class="cls-33" points="108.5 558.88 128.1 561.7 124.37 634.88 127.31 634.43 130.69 559.28 108.5 558.88"/>
              <ellipse class="cls-34" cx="117.94" cy="575.19" rx="3.36" ry="3.19" transform="translate(-459.29 682.67) rotate(-88.96)"/>
            </g>
            <ellipse class="cls-34" cx="470.71" cy="570.64" rx="3.36" ry="3.19" transform="translate(-108.39 1030.9) rotate(-88.96)"/>
            <g>
              <path class="cls-32" d="M500.87,555.21s7.53-7,19.54-1.06c0,0,5.16,49,4.71,74.21l-19.57,2.48S499.31,566.89,500.87,555.21Z"/>
              <path class="cls-33" d="M500.87,555.21s11.23-3.31,17.51,1.56c0,0,4.38,66.2,4,71.94l2.77-.35s-.17-34-1.28-47.1c-.93-10.8-3.43-27.11-3.43-27.11S510.35,547.43,500.87,555.21Z"/>
              <ellipse class="cls-34" cx="508.68" cy="569.41" rx="3.36" ry="3.19" transform="translate(-69.88 1067.67) rotate(-88.96)"/>
            </g>
            <g>
              <path class="cls-32" d="M58.74,561.85s7.53-7,19.54-1.06c0,0,5.17,49,4.71,74.21l-19.56,2.48S57.19,573.53,58.74,561.85Z"/>
              <path class="cls-33" d="M58.74,561.85S70,558.54,76.25,563.4c0,0,4.39,66.21,4,72L83,635s-.16-34-1.28-47.1c-.92-10.8-3.43-27.11-3.43-27.11S68.23,554.07,58.74,561.85Z"/>
              <ellipse class="cls-34" cx="66.55" cy="576.05" rx="3.36" ry="3.19" transform="translate(-510.62 632.13) rotate(-88.96)"/>
            </g>
            <ellipse class="cls-34" cx="543.98" cy="565.22" rx="3.36" ry="3.19" transform="matrix(0.02, -1, 1, 0.02, -31.02, 1098.84)"/>
            <ellipse class="cls-34" cx="591.78" cy="562.72" rx="3.36" ry="3.19" transform="translate(18.4 1144.18) rotate(-88.96)"/>
            <ellipse class="cls-34" cx="640.55" cy="560.25" rx="3.36" ry="3.19" transform="translate(68.77 1190.52) rotate(-88.96)"/>
            <ellipse class="cls-34" cx="693.59" cy="560.44" rx="3.36" ry="3.19" transform="translate(120.64 1243.74) rotate(-88.96)"/>
            <ellipse class="cls-34" cx="745.36" cy="563.87" rx="3.36" ry="3.19" transform="translate(168.05 1298.87) rotate(-88.96)"/>
            <ellipse class="cls-34" cx="793.93" cy="568.12" rx="3.36" ry="3.19" transform="translate(211.49 1351.6) rotate(-88.96)"/>
            <ellipse class="cls-34" cx="847.15" cy="575.02" rx="3.36" ry="3.19" transform="translate(256.85 1411.59) rotate(-88.96)"/>
            <ellipse class="cls-34" cx="896.55" cy="576.87" rx="3.36" ry="3.19" transform="translate(303.49 1462.79) rotate(-88.96)"/>
            <ellipse class="cls-34" cx="947.62" cy="578.61" rx="3.36" ry="3.19" transform="translate(351.9 1515.57) rotate(-88.96)"/>
            <ellipse class="cls-34" cx="997.19" cy="578.7" rx="3.36" ry="3.19" transform="translate(400.48 1565.21) rotate(-88.96)"/>
          </g>
          <g>
            <path class="cls-35" d="M1220.94,640.48,1209,644.72l61.79,3.93,3.36,2.09-3.36,1.47,10.44,3.4,40.93-7.18,31,1,296.75,1.2-33.35-22.69S1235.21,624.49,1220.94,640.48Z"/>
            <g>
              <g>
                <rect class="cls-36" x="1216.47" y="431.81" width="14.67" height="17.54" transform="translate(780.52 1663.42) rotate(-89.87)"/>
                <path class="cls-37" d="M1233,448.29l-18.34-.05,0-15.36,18.34,0Zm-17.54-.73,16.74,0,0-14-16.74,0Z"/>
              </g>
              <g>
                <rect class="cls-36" x="1645.43" y="432.7" width="14.67" height="17.54" transform="translate(1207.65 2093.26) rotate(-89.87)"/>
                <path class="cls-37" d="M1661.92,449.17l-18.35,0,0-15.37,18.34,0Zm-17.54-.72,16.74,0,0-14-16.75,0Z"/>
              </g>
              <g>
                <polygon class="cls-38" points="1640.74 634.11 1234.71 633.27 1235.31 422.82 1302.04 366.96 1438.63 311.44 1572.02 366.01 1641.33 423.67 1640.74 634.11"/>
                <rect class="cls-39" x="1143.75" y="515.06" width="233.78" height="2.85" transform="matrix(0, -1, 1, 0, 742.72, 1776.54)"/>
                <rect class="cls-39" x="1160.31" y="504.63" width="254.76" height="2.85" transform="translate(780.12 1793.15) rotate(-89.93)"/>
                <rect class="cls-39" x="1313.3" y="357.22" width="2.85" height="276.27"/>
                <rect class="cls-39" x="1198.99" y="489.35" width="285.54" height="2.85" transform="translate(848.07 1831.46) rotate(-89.88)"/>
                <rect class="cls-39" x="1220.69" y="484.08" width="296.19" height="2.85" transform="translate(881.67 1853.72) rotate(-89.93)"/>
                <rect class="cls-39" x="1240.82" y="477.23" width="310" height="2.85" transform="translate(914.13 1873.43) rotate(-89.88)"/>
                <rect class="cls-39" x="1261.83" y="471.26" width="322.04" height="2.85" transform="translate(947.08 1894.51) rotate(-89.88)"/>
                <rect class="cls-39" x="1288.84" y="471.32" width="322.05" height="2.85" transform="translate(973.98 1921.58) rotate(-89.88)"/>
                <rect class="cls-39" x="1321.86" y="477.4" width="310" height="2.85" transform="translate(994.83 1954.65) rotate(-89.88)"/>
                <rect class="cls-39" x="1354.08" y="482.67" width="299.56" height="2.86" transform="translate(1016.61 1986.94) rotate(-89.88)"/>
                <rect class="cls-39" x="1386.53" y="488.18" width="288.66" height="2.85" transform="translate(1037.99 2019.42) rotate(-89.88)"/>
                <rect class="cls-39" x="1420.7" y="495.41" width="274.31" height="2.85" transform="translate(1057.69 2053.63) rotate(-89.88)"/>
                <rect class="cls-39" x="1455.92" y="503.7" width="257.84" height="2.85" transform="translate(1076.34 2088.89) rotate(-89.88)"/>
                <rect class="cls-39" x="1492.77" y="513.62" width="238.12" height="2.85" transform="translate(1093.29 2125.76) rotate(-89.88)"/>
                <rect class="cls-37" x="1147" y="512.87" width="230.96" height="0.8" transform="translate(741.97 1772.78) rotate(-89.67)"/>
                <rect class="cls-37" x="1289.12" y="377.29" width="0.8" height="251.77" transform="translate(-0.61 1.57) rotate(-0.07)"/>
                <rect class="cls-37" x="1182.22" y="494.62" width="268.67" height="0.8" transform="matrix(0, -1, 1, 0, 818.28, 1810.35)"/>
                <rect class="cls-37" x="1343.19" y="346.99" width="0.8" height="282.67" transform="translate(-0.65 1.79) rotate(-0.08)"/>
                <rect class="cls-37" x="1223.88" y="482.83" width="293.47" height="0.8" transform="translate(879.53 1851.05) rotate(-89.67)"/>
                <rect class="cls-37" x="1246.37" y="478.59" width="302.55" height="0.8" transform="translate(910.64 1873.86) rotate(-89.67)"/>
                <rect class="cls-37" x="1265.56" y="471.05" width="318.23" height="0.8" transform="translate(950.08 1895.09) rotate(-89.87)"/>
                <polygon class="cls-37" points="1451.64 630.87 1450.84 630.87 1451.74 312.39 1452.54 312.39 1451.64 630.87"/>
                <rect class="cls-37" x="1325.04" y="477.13" width="307.29" height="0.8" transform="translate(997.9 1955.16) rotate(-89.87)"/>
                <polygon class="cls-37" points="1505.67 631.48 1504.87 631.47 1505.69 339.66 1506.49 339.66 1505.67 631.48"/>
                <polygon class="cls-37" points="1532.69 631.78 1531.88 631.77 1532.67 348.4 1533.48 348.4 1532.69 631.78"/>
                <rect class="cls-37" x="1423.5" y="495.51" width="272.35" height="0.8" transform="translate(1060.34 2054.49) rotate(-89.87)"/>
                <rect class="cls-37" x="1458.63" y="503.94" width="256.08" height="0.8" transform="translate(1078.63 2089.82) rotate(-89.87)"/>
                <rect class="cls-37" x="1495.33" y="513.96" width="236.66" height="0.8" transform="translate(1095.74 2126.87) rotate(-89.87)"/>
                <path class="cls-40" d="M1641.15,634.45l-406.84-.84.6-210.94.12-.1,66.84-55.92,136.76-55.59,133.67,54.71,69.44,57.75Zm-406-1.53,405.23.84.59-209.95-69.15-57.51-133.16-54.47-136.36,55.41L1235.7,423Z"/>
              </g>
              <rect class="cls-36" x="1314.57" y="506.78" width="149.39" height="117.77" transform="translate(820.71 1953.75) rotate(-89.88)"/>
              <g>
                <rect class="cls-41" x="1128.66" y="523.18" width="211.75" height="9.67" transform="translate(703.04 1761.06) rotate(-89.84)"/>
                <path class="cls-42" d="M1239.47,634.24H1229l.6-212.45,10.47,0Zm-9.67-.7,8.88,0,.59-211.07-8.87,0Z"/>
              </g>
              <g>
                <rect class="cls-41" x="1539.99" y="525.15" width="211.75" height="9.67" transform="translate(1111.27 2174.36) rotate(-89.84)"/>
                <path class="cls-37" d="M1650.81,636.09l-10.47,0,.59-212.44,10.48,0Zm-9.67-.71,8.87,0,.59-211.06-8.86,0Z"/>
              </g>
              <g>
                <polygon class="cls-41" points="1574 363.67 1438.65 303.65 1438.18 309.61 1438.62 316.18 1567.52 369.51 1573.55 366.5 1574 363.67"/>
                <polygon class="cls-41" points="1574.61 364.13 1567.52 369.51 1661.91 448.71 1673.22 440.73 1574.61 364.13"/>
                <polygon class="cls-41" points="1299.81 361.61 1438.65 303.65 1439.33 309.51 1438.62 316.18 1309.42 368.98 1303.41 365.94 1299.81 361.61"/>
                <polygon class="cls-41" points="1299.81 361.61 1309.42 368.98 1214.6 447.78 1203.33 439.75 1299.81 361.61"/>
                <path class="cls-42" d="M1661.88,449.18l-.26-.22-94.33-79.17-128.67-53.23-129,52.7-95,79-11.89-8.48.33-.26,96.59-78.21,139-58,.17.07L1574,363.66l99.82,77.09ZM1438.62,315.8l.17.07,129,53.4,94.13,79,10.68-7.54-99.06-75.78L1438.66,304,1300,361.89l-96.11,77.85,10.64,7.58,94.68-78.65Z"/>
              </g>
              <g>
                <path class="cls-41" d="M1223,630.6l0,8.78,116.53.24c0-2.9,0-5.79,0-8.78Z"/>
                <path class="cls-41" d="M1652.47,631.49l-210.58-.44c0,2.84,0,5.81,0,8.78l210.58.44Z"/>
                <path class="cls-42" d="M1652.87,631.14l-211-.43v.69l210.17.43,0,8.09-210.17-.44c0,.24,0,.46,0,.7l211,.43Z"/>
                <path class="cls-41" d="M1223.39,639l0-8.09,116.13.24c0-.22,0-.46,0-.69l-116.92-.24,0,9.47,116.92.24v-.69Z"/>
              </g>
            </g>
            <g>
              <g>
                <g>
                  <rect class="cls-41" x="1356.1" y="393.9" width="47.16" height="107.91" transform="translate(927.99 1826.28) rotate(-89.84)"/>
                  <path class="cls-37" d="M1434,471.89l-108.71-.23.13-47.84,108.71.22ZM1326.06,471l107.11.22.13-46.47-107.1-.23Z"/>
                </g>
                <g>
                  <rect class="cls-36" x="1361.89" y="400.48" width="35.58" height="94.75" transform="translate(927.92 1826.26) rotate(-89.84)"/>
                  <path class="cls-37" d="M1427.41,466.09l-95.55-.2.1-36.27,95.55.2Zm-94.75-.89,93.95.2.09-34.9-94-.19Z"/>
                </g>
              </g>
              <g>
                <g>
                  <rect class="cls-41" x="1473.24" y="394.14" width="47.16" height="107.91" transform="translate(1044.55 1943.66) rotate(-89.84)"/>
                  <path class="cls-37" d="M1551.11,472.14l-108.71-.23.13-47.85,108.71.22Zm-107.91-.92,107.11.22.13-46.47-107.11-.22Z"/>
                </g>
                <g>
                  <rect class="cls-36" x="1479.03" y="400.72" width="35.58" height="94.75" transform="translate(1044.5 1943.65) rotate(-89.84)"/>
                  <path class="cls-37" d="M1544.55,466.33l-95.56-.2.1-36.27,95.56.2Zm-94.76-.89,94,.2.1-34.89-94-.2Z"/>
                </g>
              </g>
            </g>
            <g>
              <g>
                <rect class="cls-36" x="1432.78" y="374.91" width="10.71" height="231.05" transform="translate(944.71 1927.55) rotate(-89.88)"/>
                <path class="cls-37" d="M1554,496.38l-231.85-.48,0-11.4,231.86.48Zm-231-1.17,230.25.48,0-10L1323,485.18Z"/>
              </g>
              <g>
                <g>
                  <rect class="cls-41" x="1420.85" y="513.58" width="144.03" height="109.97" transform="translate(921.16 2060.23) rotate(-89.88)"/>
                  <path class="cls-37" d="M1548.05,641l-110.77-.23.4-144.72,110.78.23Zm-110-.92,109.17.23.41-143.34-109.17-.23Z"/>
                </g>
                <g>
                  <rect class="cls-43" x="1429.63" y="524.03" width="126.47" height="89.07" transform="translate(921.21 2060.25) rotate(-89.88)"/>
                  <path class="cls-37" d="M1537.63,632.23l-89.87-.18.35-127.16,89.87.18Zm-89.07-.87,88.27.19.35-125.79-88.27-.18Z"/>
                </g>
                <g>
                  <polygon class="cls-39" points="1451.41 631.72 1537.56 514.01 1537.58 505.42 1535.15 505.42 1448.17 624.27 1448.15 631.71 1451.41 631.72"/>
                  <path class="cls-37" d="M1451.64,632.06h-3.88v-7.88l.06-.08,87.1-119h3l0,9-.07.08Zm-3.08-.7h2.64l86-117.46,0-8.15h-1.81l-86.8,118.61Z"/>
                </g>
                <g>
                  <polygon class="cls-39" points="1533.96 631.88 1448.48 513.83 1448.51 505.23 1450.94 505.24 1537.24 624.46 1537.22 631.89 1533.96 631.88"/>
                  <path class="cls-37" d="M1537.63,632.23h-3.89l-.12-.16-85.53-118.15,0-9h3.05l.11.16,86.38,119.3Zm-3.45-.69h2.65l0-7-86.14-119h-1.8l0,8.14Z"/>
                </g>
              </g>
              <g>
                <g>
                  <polygon class="cls-41" points="1342.75 496.84 1278.6 484.36 1278.13 652.21 1342.35 640.18 1342.75 496.84"/>
                  <path class="cls-37" d="M1277.73,652.63l.47-168.7,65,12.63-.4,143.9ZM1279,484.79l-.47,167L1342,639.91l.4-142.79Z"/>
                </g>
                <g>
                  <polygon class="cls-43" points="1334.49 505.22 1286.44 498.46 1286.05 638.15 1334.14 631.68 1334.49 505.22"/>
                  <path class="cls-37" d="M1285.65,638.55l.39-140.5,48.86,6.88L1334.54,632l-.34,0Zm1.19-139.69-.39,138.88,47.29-6.35.35-125.88Z"/>
                </g>
                <g>
                  <polygon class="cls-39" points="1334.49 505.22 1331.85 504.85 1286.07 630.26 1286.05 638.15 1289.19 637.82 1334.47 512.79 1334.49 505.22"/>
                  <path class="cls-37" d="M1285.65,638.53l0-8.37,45.88-125.7,3.33.47,0,8-45.37,125.24Zm.82-8.22,0,7.45,2.43-.26,45.19-124.76,0-7.23-2-.27Z"/>
                </g>
                <g>
                  <polygon class="cls-39" points="1334.16 625.07 1289.09 498.74 1286.44 498.46 1286.42 507.91 1331.54 632.02 1334.14 631.68 1334.16 625.07"/>
                  <path class="cls-37" d="M1331.26,632.41l-.11-.29L1286,507.9l0-9.83,3.35.35.08.22,45.09,126.43,0,6.91Zm-44.44-124.56,45,123.79,1.93-.25,0-6.27-45-126.07-1.94-.21Z"/>
                </g>
                <g>
                  <polygon class="cls-36" points="1271.7 484.23 1278.6 484.36 1278.13 652.21 1271.23 651.88 1271.7 484.23"/>
                  <path class="cls-42" d="M1278.53,652.57l-7.71-.36.48-168.33,7.7.15Zm-6.9-1,6.1.28.47-167.14-6.11-.12Z"/>
                </g>
              </g>
              <polygon class="cls-35" points="1229.9 455.15 1312.91 383 1439.33 332.48 1564.06 383.27 1650.52 455.15 1650.52 438.68 1567.8 369.26 1438.79 315.87 1309.25 368.67 1229 435.33 1229.9 455.15"/>
            </g>
          </g>
          <path class="cls-44" d="M996.11,622.12c-11.93-13.45-34.44-5.16-34.44-5.16-9-14.14-24.29-6.4-24.29-6.4C919,593.35,905,610.07,905,610.07A29.92,29.92,0,0,0,886.57,593c-14-4.48-25.85,2.63-25.85,2.63-27-16.34-40.13,4.68-40.13,4.68-10.27-4.09-17.33-.29-17.33-.29-11.21,6.26-4.94,15.69-4.94,15.69-34.37,4.57-13.47,13.92-13.47,13.92l5,1.75,218.23-1.61,10.49-3.08C1024.43,620.55,996.11,622.12,996.11,622.12Z"/>
          <g>
            <path class="cls-45" d="M1472.65,533.43c-.08-.13-8.33-13.74-36-7.06,0,0,21.1-9.47,37.36,6.3Z"/>
            <path class="cls-45" d="M1476,533.38c-.28-.6-7.24-14.61-29-12.88,0,0,18.89-5.12,30.34,12.22Z"/>
            <path class="cls-45" d="M1479.57,533.45c-.09-.15-9.14-14.84-17.93-16.55,0,0,9.63-.66,19.24,15.75Z"/>
            <path class="cls-45" d="M1392.54,663.76c26.33-13.92,35.66-37.78,35.75-38l1.44.55C1420.36,654.25,1392.54,663.76,1392.54,663.76Z"/>
            <path class="cls-45" d="M1388.4,672.94c22.89-8.64,35.21-30.37,35.32-30.59l1.35.75C1413.2,667.3,1388.4,672.94,1388.4,672.94Z"/>
            <path class="cls-45" d="M1381.67,682.11c23.95-2.62,41.91-29.35,42.08-29.63l1.29.85C1406.73,682.11,1381.67,682.11,1381.67,682.11Z"/>
            <path class="cls-45" d="M1579.86,576l1.43-.55c.1.24,9.45,24.1,35.76,38C1617.05,613.45,1594,607.34,1579.86,576Z"/>
            <path class="cls-45" d="M1584.52,592.79l1.34-.74c.12.22,12.44,22,35.33,30.58C1621.19,622.63,1599.58,619.48,1584.52,592.79Z"/>
            <path class="cls-45" d="M1584.55,603l1.28-.85c.17.27,18.14,27,42.09,29.62C1627.92,631.8,1606.05,634,1584.55,603Z"/>
            <g>
              <path class="cls-46" d="M1671.74,744.73a106.39,106.39,0,0,1-36.11-11.14c6.68,2.28,19.6,1.53,19.6,1.53s-18.7-3.59-25.36-11.78a88.74,88.74,0,0,0,12.67,0c-10.55-3.44-14.46-4.35-18-8.45a32.69,32.69,0,0,0,5.38,0c-6.92-3.33-15.11-7.43-19.21-17.93a85,85,0,0,0,9,1.79c-10.5-4.86-17.67-17.41-18.95-34.57a22.94,22.94,0,0,0,10,5.63c-8.71-7.42-12.29-27.4-12-44a87.7,87.7,0,0,1,6.66,8.2c0-14.6-.51-34.07-10.24-45.59a9.67,9.67,0,0,1,6.66,2.82c-2-11.27-15.63-27.92-22.54-32.53,0-1.79,8.19,1.54,8.19,1.54-5.37-10.5-14.92-21.31-23.63-23.1,1.53-2.82,10.06-1,10.06-1-7-5.72-34.9-26.53-64.71-7.66-39.52-16-57.56,1.8-64.7,7.66,0,0,8.53-1.84,10.07,1-8.71,1.79-18.26,12.6-23.64,23.1,0,0,8.2-3.33,8.2-1.54-6.92,4.61-20.49,21.26-22.54,32.53a9.64,9.64,0,0,1,6.66-2.82c-9.74,11.52-10.25,31-10.25,45.59a89.63,89.63,0,0,1,6.66-8.2c.26,16.65-3.33,36.63-12,44a22.94,22.94,0,0,0,10-5.63c-1.28,17.16-8.45,29.71-19,34.57a84.54,84.54,0,0,0,9-1.79c-4.09,10.5-12.29,14.6-19.21,17.93a32.69,32.69,0,0,0,5.38,0c-3.59,4.1-7.5,5-18.05,8.45a88.79,88.79,0,0,0,12.67,0c-6.65,8.19-25.35,11.78-25.35,11.78s12.92.75,19.59-1.53a106.39,106.39,0,0,1-36.11,11.14c15,.77,36.5-5.77,44.95-6.92a79.36,79.36,0,0,0-10.76,8.64s20.75-5.56,30.35-12.1c0,0-4.23,7.3-7.3,10,0,0,27.66-10.75,38.42-17.67A123.78,123.78,0,0,1,1418.63,744s17.29-5.76,26.9-11.91c0,0-5.77,6.91-11.91,10.76,12.67-2.31,26.5-12.3,26.5-12.3l-.38,8.07,11.53-8.84s1.53,7.3-5.38,13.45a75.72,75.72,0,0,0,18.82-6.92s.39,4.62-7.68,10.18c0,0,21.64-3.39,32-11.07,10.47,2.17,32,11.07,32,11.07-7-7.47-7.68-10.18-7.68-10.18a75.71,75.71,0,0,0,18.83,6.92c-6.92-6.15-5.38-13.45-5.38-13.45l11.52,8.84-.38-8.07s13.83,10,26.5,12.3c-6.14-3.85-11.9-10.76-11.9-10.76,9.6,6.15,26.89,11.91,26.89,11.91a123.48,123.48,0,0,1-23.43-17.29c10.75,6.92,38.41,17.67,38.41,17.67-3.07-2.69-7.3-10-7.3-10,9.61,6.54,30.35,12.1,30.35,12.1a79.65,79.65,0,0,0-10.75-8.64C1635.25,739,1656.76,745.5,1671.74,744.73Z"/>
              <path class="cls-47" d="M1671.74,744.73a106.39,106.39,0,0,1-36.11-11.14c6.68,2.28,19.6,1.53,19.6,1.53s-18.7-3.59-25.36-11.78a88.74,88.74,0,0,0,12.67,0c-10.55-3.44-14.46-4.35-18-8.45a32.69,32.69,0,0,0,5.38,0c-6.92-3.33-15.11-7.43-19.21-17.93a85,85,0,0,0,9,1.79c-10.5-4.86-17.67-17.41-18.95-34.57a22.94,22.94,0,0,0,10,5.63c-8.71-7.42-12.29-27.4-12-44a87.7,87.7,0,0,1,6.66,8.2c0-14.6-.51-34.07-10.24-45.59a9.67,9.67,0,0,1,6.66,2.82c-2-11.27-15.63-27.92-22.54-32.53,0-1.79,8.19,1.54,8.19,1.54l-.1-.2c-7.2-4.53-13.31-4.68-15.33-3.76,12.81,8.34,18.44,18.3,21.19,27.11,0,0-9.66-3.69-13.25-1.9,9.73,5.89,14.59,18.44,18.59,33.32a59.85,59.85,0,0,1-8.69-7.43c-1.89,17.17,4.18,36.6,7.77,46.08l-2.82-.94c-2.31,10.08-2.24,26.74,6.61,37.5a57.21,57.21,0,0,0-6.93-3.57c1,9.3,15,21.43,28.43,33.73l-9-3.84a136.61,136.61,0,0,1,11.53,9.22s-4,.19-12.68-2.72a38.07,38.07,0,0,0,14.41,10.4c-17.85.12-31.5-10.4-31.5-10.4l2.88,9.44-34.58-15.18,8.07,11.91-9.8-5.18,4.81,8.26-13.07-9.25s-1-.16,0,7.69a52.05,52.05,0,0,1-9.6-6.7s-2.69,4.8,0,12.29c0,0-1.54,0-17.17-7.11l-1.08,5.38s-5.19-.57-17.93-5.38c0,0-3,4.62-19.14,8.46,0,0,3.64-6.54,4.22-17.68,0,0-8.64,13.26-18.05,16.72,2.3-2.5,2.83-18.25,2.83-18.25l-13,10.75,3.46-8.06s-1.74-1.35-18.45,12.29c0,0,7.49-12.29,15.75-27.66,0,0-4.22,4.81-13.82,15.37,0,0,3.07-6,3.45-11.34a221.86,221.86,0,0,1-36.69,24.59,26.93,26.93,0,0,1,1-9,121.8,121.8,0,0,1-19.78,11.13s.77-2.88,4.8-5.78c-24.41,8.75-41.13,12.7-52.53,14.21,14.31-.7,31.84-5.88,39.28-6.89a79.36,79.36,0,0,0-10.76,8.64s20.75-5.56,30.35-12.1c0,0-4.23,7.3-7.3,10,0,0,27.66-10.75,38.42-17.67A123.78,123.78,0,0,1,1418.63,744s17.29-5.76,26.9-11.91c0,0-5.77,6.91-11.91,10.76,12.67-2.31,26.5-12.3,26.5-12.3l-.38,8.07,11.53-8.84s1.53,7.3-5.38,13.45a75.72,75.72,0,0,0,18.82-6.92s.39,4.62-7.68,10.18c0,0,21.64-3.39,32-11.07,10.47,2.17,32,11.07,32,11.07-7-7.47-7.68-10.18-7.68-10.18a75.71,75.71,0,0,0,18.83,6.92c-6.92-6.15-5.38-13.45-5.38-13.45l11.52,8.84-.38-8.07s13.83,10,26.5,12.3c-6.14-3.85-11.9-10.76-11.9-10.76,9.6,6.15,26.89,11.91,26.89,11.91a123.48,123.48,0,0,1-23.43-17.29c10.75,6.92,38.41,17.67,38.41,17.67-3.07-2.69-7.3-10-7.3-10,9.61,6.54,30.35,12.1,30.35,12.1a79.65,79.65,0,0,0-10.75-8.64C1635.25,739,1656.76,745.5,1671.74,744.73Z"/>
              <path class="cls-45" d="M1544.11,748.52l-3.28-1.36c-.21-.08-21.18-8.71-31.58-11-10.53,7.56-31.22,10.88-32.1,11l-3.33.52,2.77-1.91c5-3.45,6.6-6.49,7.12-8.15a77.86,77.86,0,0,1-17.67,6.27l-2.78.56,2.11-1.88a14.61,14.61,0,0,0,5.26-11.42l-11.74,9,.39-8.16c-3.74,2.53-14.93,9.6-25.52,11.53l-4,.72,3.4-2.13a49.07,49.07,0,0,0,8.33-6.92,177.51,177.51,0,0,1-22.66,9.45l-7.16,2.39,6.53-3.78a134.89,134.89,0,0,0,17.84-12.36c-12.58,6.49-31.93,14-32.16,14.13l-4.07,1.58,3.29-2.88a38.07,38.07,0,0,0,5.46-7.07c-10.23,5.75-27,10.3-27.81,10.5l-2.88.78,2.15-2.07a81.63,81.63,0,0,1,8-6.74c-2,.4-4.42.93-7,1.52-10,2.23-24.06,5.36-34.69,4.82l-8.28.12c12.92-1.46,32.3-7.28,38.59-10.06a79.81,79.81,0,0,1-8.87.45c-2.84,0-4.91-.12-4.91-.12l-6.18-.36,6.07-1.16c.17,0,16.36-3.22,23.62-10.14-1.41.07-2.87.11-4.37.11-3.75,0-6.39-.22-6.5-.24l-3.77-.31,6.75-2.2c7-2.24,10.43-3.36,13.2-5.83h-.7c-1.62,0-2.76-.11-2.81-.12l-2.72-.27,2.46-1.19c6.28-3,14-6.74,18.23-16.09-3.39.82-7.35,1.39-7.54,1.42l-5.18.73,4.75-2.2c10-4.61,16.72-16.49,18.33-32a23.84,23.84,0,0,1-8.87,4.5l-3.05.69,2.37-2c8.14-6.94,11.74-25.49,11.78-41.49-2.92,3.34-5.25,6.63-5.27,6.66l-1.4,2V634c0-15.65.74-33.17,9.27-44.63a9.13,9.13,0,0,0-4.33,2.35l-1.81,2,.47-2.61c2-11.17,14.47-26.53,21.56-32.08a35.82,35.82,0,0,0-6.17,1.94l-1.92.77.95-1.83c4.83-9.45,13.83-20.36,22.68-23.12a8.65,8.65,0,0,0-3-.43,29.52,29.52,0,0,0-5.22.57l-3.1.67,2.44-2,1.16-1c5.55-4.67,15.9-13.37,34.32-13.37,9.05,0,19,2.15,29.64,6.4a48.34,48.34,0,0,1,25.86-7.65c17.78,0,32.32,9.76,39.41,15.58l2.45,2-3.1-.67a29.25,29.25,0,0,0-5.23-.57,8.65,8.65,0,0,0-3,.43c8.86,2.76,17.85,13.67,22.69,23.12l.94,1.83-1.91-.77a36.23,36.23,0,0,0-6.18-1.94c7.09,5.55,19.53,20.91,21.56,32.08l.47,2.61-1.79-2a9.14,9.14,0,0,0-4.35-2.37c8.53,11.46,9.27,29,9.27,44.63v2.42l-1.39-2s-2.36-3.32-5.28-6.66c0,16,3.64,34.55,11.77,41.49l2.39,2-3-.69a23.84,23.84,0,0,1-8.88-4.5c1.61,15.5,8.39,27.39,18.33,32l4.75,2.2-5.17-.73c-.19,0-4.15-.6-7.55-1.42,4.23,9.35,12,13.08,18.23,16.09l2.46,1.19-2.72.27a28,28,0,0,1-2.8.12h-.71c2.78,2.47,6.24,3.59,13.2,5.83l6.76,2.2-3.78.31c-.11,0-2.75.24-6.49.24-1.51,0-3,0-4.38-.11,7.27,6.93,23.45,10.11,23.63,10.14l6.07,1.16-6.17.36s-2.09.12-4.93.12a79.81,79.81,0,0,1-8.87-.45,107,107,0,0,0,30.36,8.4l6.25,1.28a159.78,159.78,0,0,1-41-4.56c-2.61-.59-5-1.12-7-1.52a80.52,80.52,0,0,1,8,6.74l2.15,2.07-2.88-.78c-.78-.2-17.57-4.75-27.81-10.5a38.94,38.94,0,0,0,5.46,7.07l3.3,2.88-4.08-1.58c-.23-.09-19.58-7.64-32.15-14.13a134,134,0,0,0,17.83,12.36l6.53,3.78-7.15-2.39a176.73,176.73,0,0,1-22.67-9.45,49.07,49.07,0,0,0,8.33,6.92l3.4,2.13-3.94-.72c-10.6-1.93-21.78-9-25.53-11.53l.39,8.16-11.75-9a14.47,14.47,0,0,0,5.27,11.43l2.11,1.88-2.78-.56a77.66,77.66,0,0,1-16.85-5.87,57.31,57.31,0,0,0,6.43,7.86ZM1485.38,735l.1,1.17c0,.18.26,4-5.45,8.91,6.35-1.25,20.79-4.6,28.59-10.36l.28-.21.33.08c8.14,1.69,22.69,7.31,29.07,9.85-4.87-5.55-5.54-7.76-5.6-8l-.44-1.7,1.55.84a75.14,75.14,0,0,0,16,6.22,15.13,15.13,0,0,1-3.72-12.23l.25-1.2,11.19,8.57-.38-8,1.29.93c.12.09,11.19,8,22.39,11.26a66.57,66.57,0,0,1-8.83-8.61l-3.19-3.82,4.19,2.68c5.57,3.57,13.85,7,19.7,9.28a118.14,118.14,0,0,1-17.2-13.47l-5.06-5.05,6,3.86c8.44,5.43,27.65,13.35,35.17,16.37a71.9,71.9,0,0,1-5.13-7.65l-1.69-2.91,2.78,1.89c7.18,4.88,20.87,9.27,27,11.1a76.84,76.84,0,0,0-8.26-6.36l-2.92-1.88,3.44.47c2.54.35,6.24,1.17,10.52,2.13,6.47,1.44,14.64,3.26,22.41,4.21a106.31,106.31,0,0,1-24.58-9.14l-5.84-2.46c3.61,1.23,15.57,2.63,19.89,2.68-6.15-1.75-15.58-5.17-20-10.64l-1.13-1.39,1.78.13c1.95.15,4,.23,6.2.23l2.18,0c-7.8-2.52-11.16-3.7-14.39-7.39l-1.26-1.44,1.91.17c.7.06,1.45.1,2.22.11-6-3-13.14-7.51-16.84-17l-.56-1.44,1.49.42c1.4.4,3.09.77,4.62,1-8.84-6.09-14.45-17.84-15.59-33l-.15-2.06,1.47,1.46a21.13,21.13,0,0,0,6.66,4.41c-7.22-8.85-10.26-27-10-42.29l0-1.91,1.29,1.4c2.12,2.27,4.07,4.73,5.33,6.38-.1-15.44-1.22-32.29-10.06-42.76l-1.06-1.26H1595a10.14,10.14,0,0,1,5.4,1.6c-3.21-11.16-15.71-25.9-21.71-29.9l-.34-.23v-.41c0-.3.12-1.3,1.72-1.3a21.57,21.57,0,0,1,5.6,1.39c-5.13-9.2-13.87-19.19-22.14-20.9l-1-.21.5-.91c.72-1.3,2.51-2,5.35-2a23.91,23.91,0,0,1,2.61.16c-6.76-5.1-20.26-13.44-36.14-13.44a46.9,46.9,0,0,0-25.37,7.63l-.34.21-.36-.15c-10.58-4.27-20.48-6.43-29.43-6.43-16.84,0-26.75,7.53-32.36,12.19a26.21,26.21,0,0,1,2.76-.17c2.84,0,4.64.67,5.35,2l.49.91-1,.21c-8.28,1.71-17,11.7-22.15,20.9a21.54,21.54,0,0,1,5.61-1.39c1.59,0,1.71,1,1.71,1.3v.41l-.34.23c-6,4-18.5,18.74-21.71,29.9a10.15,10.15,0,0,1,5.41-1.6h1.65l-1.07,1.26c-8.84,10.47-10,27.32-10.06,42.76,1.26-1.65,3.21-4.11,5.33-6.38l1.3-1.4,0,1.91c.23,15.26-2.81,33.43-10,42.28a21.37,21.37,0,0,0,6.66-4.4l1.46-1.46-.15,2.06c-1.14,15.19-6.75,26.95-15.59,33,1.53-.28,3.22-.65,4.62-1l1.49-.42-.56,1.44c-3.7,9.48-10.81,14-16.83,17,.77,0,1.51-.05,2.21-.11l1.91-.17-1.26,1.44c-3.22,3.69-6.58,4.87-14.38,7.39l2.18,0c2.16,0,4.24-.08,6.18-.23l1.79-.13-1.13,1.39c-4.44,5.47-13.88,8.89-20,10.64,4.33-.05,15.32-1.32,18.92-2.55l-4.87,2.33a106.31,106.31,0,0,1-24.58,9.14c7.77-.95,15.94-2.77,22.41-4.21,4.28-1,8-1.78,10.53-2.13l3.43-.47-2.92,1.88a79.22,79.22,0,0,0-8.26,6.36c6.14-1.83,19.83-6.22,27-11.1l2.78-1.89-1.68,2.91a74.47,74.47,0,0,1-5.14,7.65c7.53-3,26.73-10.94,35.18-16.37l6-3.86-5.06,5.05a118.14,118.14,0,0,1-17.2,13.47c5.86-2.25,14.13-5.72,19.7-9.28l4.19-2.68-3.18,3.82a67,67,0,0,1-8.84,8.61c11.2-3.25,22.27-11.17,22.39-11.26l1.3-.93-.38,8,11.18-8.57.25,1.2a15.15,15.15,0,0,1-3.71,12.23,74.9,74.9,0,0,0,16-6.22Z"/>
            </g>
            <g>
              <g class="cls-48">
                <path class="cls-49" d="M1464.6,553.7s-11.53,5.45-10.63,12.57c4.45-1.19,6.23-3.26,6.23-3.26-5.94,7.71-4.16,27.89-4.16,27.89,2.08-4.45,11-16.61,11-16.61-3,13.65,0,22.55,0,22.55,3-4.46,12.17-11,12.17-11l4.75,12.71c7.12-8,3.25-25.56,3.25-25.56Z"/>
              </g>
              <path class="cls-46" d="M1464.6,553.7s-9,4.7-8.19,10.85a11.15,11.15,0,0,0,5.38-2.82c-5.12,6.67-3.58,24.07-3.58,24.07,1.79-3.83,9.47-14.34,9.47-14.34-2.56,11.79,0,19.47,0,19.47,2.56-3.84,10.5-9.48,10.5-9.48l4.1,11c6.15-6.87,4.91-19.41,4.91-19.41Z"/>
              <path class="cls-45" d="M1482,593.88l-4.19-11.21c-2.06,1.53-7.51,5.72-9.49,8.69l-.87,1.3-.5-1.49c-.09-.29-2.13-6.57-.65-16.48-2.39,3.38-6.22,8.92-7.4,11.45l-1.21,2.59-.26-2.86c0-.63-1.16-13.81,2.09-21.65a16.21,16.21,0,0,1-2.91,1.07l-.85.23-.11-.87c-.82-6.56,9.37-11.23,9.37-11.23s-7.64,4.87-7.88,10.11a9.87,9.87,0,0,0,4.06-2.29l2.44-1.81c-5.24,8.34-5,18.6-4.82,23.67,2.77-4.61,8-11.73,8.24-12.09l2.14-2.93-.77,3.55a42.7,42.7,0,0,0-.4,17.57c3.19-3.73,9.41-8.16,9.71-8.37l.81-.58,4,10.64c5-6.75,4.62-18.14,4.62-18.26s2,13.28-4.3,20.31Z"/>
            </g>
            <g>
              <g class="cls-50">
                <path class="cls-51" d="M1440.16,615.59s-3.09,12.53-.83,18.08a67.66,67.66,0,0,1,4-8c-2,16.79,4,23.32,4,23.32-.28-4.9,2.82-9.48,2.82-9.48,2.54,12.09,8.19,14,12.42,14.33a40.52,40.52,0,0,1-4.29-11.38c8.24,8.49,15.86,5.22,15.86,5.22-6.49-4.57-5.92-10.25-5.92-10.25,9.59,2.42,14.67,0,14.67,0-2.82-6.07.92-21.86-11.22-22.7Z"/>
              </g>
              <path class="cls-46" d="M1440,615.42s-2.8,9.82-.75,14.18a50.7,50.7,0,0,1,3.59-6.25c-1.79,13.17,3.58,18.29,3.58,18.29-.25-3.84,2.56-7.43,2.56-7.43,2.31,9.48,7.43,10.94,11.27,11.23a29.19,29.19,0,0,1-3.89-8.92c7.48,6.65,14.39,4.09,14.39,4.09-5.89-3.58-5.38-8-5.38-8,8.72,1.9,13.32,0,13.32,0-2.56-4.76.83-17.14-10.18-17.8Z"/>
              <path class="cls-45" d="M1461.73,646.33l-1.54-.12c-3.73-.29-8.88-1.68-11.49-10.14a10.4,10.4,0,0,0-1.51,5.52l.13,2-1.43-1.36c-.21-.2-4.74-4.67-4.13-15.66-.53.92-1.15,2.06-1.82,3.4l-.71,1.42-.67-1.44c-2.57-6.14,1.44-14.5,1.44-14.5s-1.53,7.6-.58,12.18a45.61,45.61,0,0,1,2.79-4.7l1.81-2.53-.42,3.08c-1.17,8.59.81,13.67,2.2,16a14.35,14.35,0,0,1,2.58-5.74l1-1.24.37,1.54c1.88,7.71,5.61,9.84,9,10.46a28.7,28.7,0,0,1-3.17-7.82l-.45-2.25,1.71,1.52c5,4.44,9.62,4.62,12,4.31-4.67-3.58-4.27-7.58-4.25-7.77l.1-.84.83.18c6.36,1.38,10.48.69,12.1.27a24.7,24.7,0,0,1-1-5.35c-.68-5.62-1.39-11.42-8.47-11.85,0,0,8.68-2.21,10,11.66a17.82,17.82,0,0,0,1.23,5.65l.4.75-.78.33c-.19.08-4.6,1.83-12.81.24.18,1.35,1.07,4.06,5,6.44l1.36.83-1.49.55c-.28.1-6.29,2.23-13.24-2.71a31.91,31.91,0,0,0,3.12,6.4Z"/>
            </g>
            <g>
              <g class="cls-52">
                <path class="cls-53" d="M1540.59,629.37s-3.32,14.36-.81,20.72a79.07,79.07,0,0,1,4.4-9.12c-2.2,19.21,4.39,26.69,4.39,26.69-.31-5.61,3.14-10.85,3.14-10.85,2.83,13.83,9.11,16,13.82,16.39a47.14,47.14,0,0,1-4.77-13c9.17,9.72,17.65,6,17.65,6-7.22-5.23-6.6-11.74-6.6-11.74,10.68,2.78,16.34,0,16.34,0-3.14-6.94,0-25.91-12.93-25.91Z"/>
              </g>
              <path class="cls-46" d="M1540.47,629.18s-3.09,11.2-.76,16.17a58.83,58.83,0,0,1,4.09-7.11c-2,15,4.07,20.82,4.07,20.82-.29-4.37,2.92-8.46,2.92-8.46,2.63,10.79,8.46,12.45,12.83,12.79a33.12,33.12,0,0,1-4.43-10.16c8.51,7.58,16.39,4.66,16.39,4.66-6.71-4.08-6.13-9.16-6.13-9.16,9.92,2.16,15.16,0,15.16,0-2.91-5.42,0-20.22-12-20.22Z"/>
              <path class="cls-45" d="M1565.1,664.27l-1.53-.12c-4.27-.32-10.14-1.92-13.07-11.71a12.08,12.08,0,0,0-1.85,6.57l.12,2-1.42-1.35c-.24-.24-5.49-5.4-4.65-18.19-.65,1.1-1.44,2.53-2.3,4.26l-.71,1.42-.67-1.44c-2.42-5.13,1.45-16.49,1.45-16.49s-1.82,9-.61,14.2a50.91,50.91,0,0,1,3.31-5.59l1.81-2.54-.43,3.09c-1.38,10.18,1.08,16,2.66,18.57a16.21,16.21,0,0,1,3-6.79l1-1.24.38,1.53c2.19,9,6.6,11.38,10.61,12a32.51,32.51,0,0,1-3.71-9.06l-.45-2.25,1.72,1.53c5.88,5.23,11.35,5.29,14,4.88-5.48-4.07-5-8.69-5-8.89l.1-.85.82.18c7.46,1.63,12.19.76,14,.28a26.77,26.77,0,0,1-1.2-6.18c-.74-6.14-1.59-13.09-9.74-13.57,0,0,9.85-2.33,11.26,13.38.31,2.56.61,5,1.41,6.47l.4.76-.78.32c-.22.09-5.25,2.1-14.67.24.17,1.51,1.11,4.74,5.74,7.56l1.35.82-1.49.56c-.31.11-7.26,2.57-15.24-3.27a35.1,35.1,0,0,0,3.67,7.62Z"/>
            </g>
            <g>
              <g class="cls-52">
                <path class="cls-54" d="M1429.41,686.57s-5.34,17.18-17.19,20.91c8.67,1.31,18-8.11,18-8.11a77.62,77.62,0,0,1-5.71,12.27c5.08,0,15.45-5.48,15.66-10.3a87,87,0,0,1,6.14,7.67c3.18-2.63,1.7-16.43,0-18.41,10.37,3.95,13.12,6.36,13.12,6.36.43-5,2.12-21.48-5.92-22.35,7-2.42,12.7,4.81,12.7,4.81,0-6.79-7.82-23.66-24.42-20.17Z"/>
              </g>
              <path class="cls-46" d="M1427.82,683.13s-4.85,15.06-15.6,18.33c7.87,1.15,16.32-7.11,16.32-7.11a67,67,0,0,1-5.19,10.76c4.61,0,14-4.8,14.22-9a77.47,77.47,0,0,1,5.57,6.73c2.88-2.31,1.54-14.41,0-16.14,9.41,3.46,11.91,5.57,11.91,5.57.38-4.41,1.92-18.82-5.38-19.59,6.33-2.11,11.53,4.23,11.53,4.23,0-6-7.1-20.75-22.17-17.69Z"/>
              <path class="cls-45" d="M1423.35,705.88H1422l.74-1.18a65.65,65.65,0,0,0,3.94-7.73c-3.16,2.45-8.92,6.08-14.55,5.25l-3.4-.5,3.29-1c10.26-3.11,15.77-17.44,15.83-17.59s-3.12,12.43-11.65,17.42c6.14-1.25,11.76-6.68,11.83-6.75l2.47-2.4-1.21,3.22a68.91,68.91,0,0,1-4.49,9.59c4.61-.77,11.88-4.81,12-8.16l.08-1.82,1.25,1.33a73.25,73.25,0,0,1,5,6,9.38,9.38,0,0,0,.82-3.48c.37-4.37-.61-10-1.41-10.89l-2-2.29,2.87,1.06a64.8,64.8,0,0,1,11,4.93c.42-5,1.14-16.84-4.81-17.47l-3.53-.36,3.37-1.13c4.63-1.55,8.62,1,10.74,2.84a22.48,22.48,0,0,0-7.1-11.61,17,17,0,0,0-14-4s6.48-3.19,15,2.8c4.94,4.23,7.89,10.89,7.89,14.89V679l-1.36-1.66s-3.49-4.17-8-4.36c4.62,3.55,3.65,14.36,3.26,18.83l-.18,1.95-1.13-1s-2.26-1.83-10-4.78a31.13,31.13,0,0,1,.94,10.15c-.23,2.63-.87,4.39-1.9,5.21l-.63.51-.48-.66s-2-2.75-4.55-5.61C1436.1,701.87,1427.89,705.88,1423.35,705.88Z"/>
            </g>
            <path class="cls-45" d="M1538.22,556.24c-.13-.22-13.66-22.18-29.37-27l.45-1.46C1525.57,532.77,1538.22,556.24,1538.22,556.24Z"/>
            <g>
              <g class="cls-50">
                <path class="cls-55" d="M1480.32,659.1l-6.52,13.7,10-4.95c-.51,8.32,2.82,18.18,2.82,18.18,4.1-19.72,4.6-22.18,4.6-22.18a83.66,83.66,0,0,0,3.08,16.63,121.64,121.64,0,0,1,5.37-19.41c2.06,9.55,3.61,11.4,3.61,11.4,1.23-12,2.1-15.61,2.1-15.61,9.82,7.4,8.58,4.26,8.58,4.26l-1.48-12.3h5.38s.77-12-11.43-13.63Z"/>
              </g>
              <path class="cls-46" d="M1480.32,655.06l-6.52,11.39,10-4.11c-.51,6.91,2.82,15.11,2.82,15.11,4.1-16.39,4.6-18.44,4.6-18.44a59.54,59.54,0,0,0,3.08,13.83,88.58,88.58,0,0,1,5.37-16.14c2.06,7.94,3.61,9.48,3.61,9.48,1.23-9.95,2.1-13,2.1-13,9.82,6.16,8.58,3.54,8.58,3.54l-1.48-10.22h5.38s.77-9.94-11.43-11.33Z"/>
              <path class="cls-45" d="M1486.78,679.92l-.88-2.18c-.14-.32-3-7.53-2.93-14.23l-11.14,4.59,8.75-13.61-4.81,10.32,8.88-3.66-.1,1.25c-.32,4.43,1,9.49,1.93,12.38l5-20,.49,4.17a69.68,69.68,0,0,0,2.18,11.06,95,95,0,0,1,4.81-13.6l.9-2,.55,2.1a46.39,46.39,0,0,0,2.38,7.28,87.86,87.86,0,0,1,1.83-10.79l.28-1,.86.55c4.67,2.91,6.61,3.7,7.36,3.9l-1.54-10.7h5.51c0-2.26-1-9.15-10.68-10.57,0,0,11.45-.76,12.2,11.4l-.06.7h-5.2l1.34,9.25a1.11,1.11,0,0,1-.28,1.22c-.47.43-1.26,1.13-8.55-3.34-.34,1.56-1,5.12-1.84,11.85l-.19,1.55-1.11-1.09c-.16-.16-1.47-1.59-3.23-7.7a83.15,83.15,0,0,0-4.46,14l-.5,2.53-1-2.4A51.82,51.82,0,0,1,1491,663Z"/>
            </g>
            <g>
              <g class="cls-52">
                <path class="cls-56" d="M1512.17,694.3l-8.83,17.48a47.11,47.11,0,0,0,9.22-8.34c-2,11.42-10.08,20.93-10.08,20.93,5.56-1.18,18-14.78,18-14.78-.6,10.54,1.45,16.68,1.45,16.68,3.8-4.39,5.85-19.9,5.85-19.9a94.69,94.69,0,0,0,9.06,14.93c3.53-6.44,0-22.24,0-22.24a116.35,116.35,0,0,0,14.06,7.9c-.59-9.66-7.59-21-18.59-19.15Z"/>
              </g>
              <path class="cls-46" d="M1512.47,693.56l-6.35,13.54a16,16,0,0,0,5.64-5.63,49.55,49.55,0,0,1-5.64,16.13c4.87-1,12.57-10.75,12.57-10.75-.53,9.22,1.26,14.59,1.26,14.59,3.33-3.84,5.12-17.41,5.12-17.41a83.07,83.07,0,0,0,7.94,13.06c3.08-5.63,0-19.46,0-19.46a101.61,101.61,0,0,0,12.3,6.91c-.51-8.45-6.64-18.34-16.27-16.76Z"/>
              <path class="cls-45" d="M1519.65,723l-.42-1.28c-.07-.21-1.55-4.75-1.39-12.62-2.52,2.91-7.75,8.48-11.56,9.29l-1.76.37,1-1.53a46.89,46.89,0,0,0,4.82-12.5,19.06,19.06,0,0,1-3.76,3.06l-2,1.25,8-15.45-4.62,11.33a13.87,13.87,0,0,0,3.22-3.77l2.37-4.67-.92,5.15a54.14,54.14,0,0,1-4.7,14.5c3.71-2.07,8.49-7.48,10.27-9.73l1.51-1.91-.14,2.43a47.8,47.8,0,0,0,.81,12.7c2.58-4.79,4-15.54,4-15.66l.32-2.49,1.12,2.25a90.65,90.65,0,0,0,7.08,11.88c2-5.88-.55-17.65-.58-17.78l-.41-1.86,1.59,1.06a102,102,0,0,0,11,6.27,20.69,20.69,0,0,0-6.75-12.67,11.41,11.41,0,0,0-8.89-2.7,10.3,10.3,0,0,1,9.86,1.51,22,22,0,0,1,7.45,15.1l.08,1.27-1.17-.53a103.51,103.51,0,0,1-10.87-6c.73,4,2.1,13.57-.44,18.2l-.55,1-.72-.91a80,80,0,0,1-6.93-11.08c-.68,4.13-2.34,12.45-5,15.46Z"/>
            </g>
            <g>
              <g class="cls-52">
                <path class="cls-57" d="M1563.37,693.94s-4.25,11.38-4.4,14.82c2.75-.63,7.41-4.38,7.41-4.38-3.35,5.32-1.46,12.83-1.46,12.83,1.44-3.76,6.78-9.23,6.78-9.23-.26,8,6.26,12.83,6.26,12.83-1-5,0-14.08,0-14.08,3.62,6.57,11.59,7,11.59,7-5.37-7.52-6.09-9.55-6.09-9.55,9,4.07,12,.78,12,.78-8.84-4.54-14.2-7.36-14.2-7.36,7.82,1.57,8.69.32,8.69.32-3.91-3.13-6.71-5.45-12.65-6.17Z"/>
              </g>
              <path class="cls-46" d="M1563.52,693.55s-3.76,9.3-3.89,12.12c2.44-.51,6.55-3.59,6.55-3.59-3,4.36-1.3,10.5-1.3,10.5,1.28-3.07,6-7.55,6-7.55-.24,6.53,5.52,10.5,5.52,10.5-.89-4.1,0-11.52,0-11.52,3.21,5.37,10.25,5.76,10.25,5.76-4.74-6.15-5.37-7.81-5.37-7.81,7.93,3.33,10.62.64,10.62.64-7.81-3.72-12.55-6-12.55-6,6.91,1.28,7.68.25,7.68.25-3.45-2.56-5.93-4.46-11.18-5Z"/>
              <path class="cls-45" d="M1577.57,717.27l-1.6-1.11c-.23-.15-5.08-3.57-5.78-9.34-1.46,1.51-3.79,4.12-4.6,6.06l-.86,2.07-.59-2.16a16.63,16.63,0,0,1,.12-8.47,16.1,16.1,0,0,1-4.47,2.11l-1,.2,0-1c.13-2.9,4.2-11.16,4.66-12.09,0,0-2.31,7.55-2.92,11a30.74,30.74,0,0,0,5.12-3.08l3.67-2.74-2.58,3.79c-1.71,2.52-1.75,5.74-1.54,7.8a42.16,42.16,0,0,1,5.08-5.85l1.36-1.29-.07,1.88a11.8,11.8,0,0,0,3.71,8.54,53.82,53.82,0,0,1,.3-9.68l.27-2.25,1.15,1.94c2,3.35,5.62,4.63,7.81,5.11-3.64-4.84-4.27-6.32-4.33-6.49l-.64-1.68,1.66.7c4.5,1.89,7.18,1.74,8.57,1.36-7-3.31-11.13-5.34-11.13-5.34l-5.09-2.48,5.57,1a29.16,29.16,0,0,0,5.67.63c-2.28-3-9.31-4.66-9.31-4.66,5.11.57,7.83,1.61,11.64,4.43l.62.46-.46.62c-.42.55-1.66.78-3.65.67l8.23,3.94,1,.46-.77.77c-.11.11-2.65,2.53-9.43.3.77,1.16,2.06,3,4.25,5.86l1,1.32-1.67-.09c-.27,0-6-.37-9.63-4.45a37.2,37.2,0,0,0,.17,9.29Z"/>
            </g>
            <g>
              <g class="cls-50">
                <path class="cls-58" d="M1554.25,554.66s17.44,3.27,20.38,15.86c-6.74-1.47-11,0-11,0,10.09,4.69,13.89,23.43,13.89,23.43-12.3-10.25-19.27-7-19.27-7,10.78,7,7.63,19.61,7.63,19.61l-4.17-3.8c-.59,10.84-5.57,13.48-5.57,13.48-2.63-9.68-8.2-10.26-8.2-10.26.3,8.79-4.69,12.89-4.69,12.89-6.14-15.23-8.19-21.72-8.19-21.72-4.69,10.89-8.73,12.15-8.73,12.15-1.52-11.22-2.4-19.42-2.4-19.42a42.29,42.29,0,0,1-7.62,10.12c.29-8.36-3-25.23,7.27-30.5Z"/>
              </g>
              <path class="cls-46" d="M1554.25,554.66s10.5,2.86,13.06,13.87c-5.89-1.28-9.59,0-9.59,0,8.82,4.1,12.15,20.49,12.15,20.49-10.76-9-16.86-6.15-16.86-6.15,9.43,6.15,6.68,17.15,6.68,17.15L1556,596.7c-.51,9.48-4.87,11.79-4.87,11.79-2.3-8.47-7.17-9-7.17-9,.26,7.7-4.1,11.28-4.1,11.28-5.37-13.32-7.17-19-7.17-19-4.1,9.52-7.62,10.63-7.62,10.63-1.34-9.81-2.11-17-2.11-17a37,37,0,0,1-6.66,8.86c.26-7.32-1.7-20.21,7.27-24.82Z"/>
              <path class="cls-45" d="M1539.58,612.05l-.39-1c-3.63-9-5.64-14.53-6.56-17.18-3.77,8-6.93,9.14-7.29,9.26l-.88.27-.11-.9c-.89-6.48-1.53-11.86-1.86-14.73a34.75,34.75,0,0,1-5.64,7.07l-1.34,1.2.06-1.8c0-1.29,0-2.8,0-4.4-1.44-18.35,8.07-20.39,8.07-20.39-6.93,3.57-6.71,12.87-6.53,20.36,0,.88.05,1.74.05,2.55a41.65,41.65,0,0,0,5.2-7.33l1.18-2.08.26,2.39c0,.06.72,6.7,1.94,15.8,1.22-.95,3.63-3.43,6.32-9.67l.81-1.9.62,2c0,.06,1.75,5.5,6.72,17.85a14.21,14.21,0,0,0,3-9.87l0-.88.87.09c.22,0,5,.61,7.51,8.42,1.18-1.15,3.33-4.11,3.68-10.51l.09-1.61,3.82,3.47c.38-3,.48-10.4-6.59-15l-1.16-.76,1.26-.59c.25-.11,6-2.61,15.89,4.85-1.23-4.51-4.69-14.78-11.18-17.79l-1.73-.8,1.8-.63a19.21,19.21,0,0,1,8.78-.25c-2.86-9.59-11.91-12.86-12-12.89s11.18,2.4,13.81,13.7l.27,1.18-1.19-.26a21.43,21.43,0,0,0-7.29-.4c7.72,5.34,10.64,19.35,10.77,20l.44,2.14-1.68-1.4c-7.23-6-12.22-6.57-14.54-6.36,8.09,6.5,5.62,16.85,5.6,17l-.32,1.24-3.44-3.12c-.9,8.49-5,10.74-5.14,10.83l-.86.46-.25-.93c-1.56-5.74-4.27-7.58-5.65-8.16-.14,7.26-4.2,10.7-4.39,10.85Z"/>
            </g>
          </g>
          <g>
            <path class="cls-59" d="M1337.68,779.51s-12.52.51-1.69,5,107.24,38,124.64,26.82C1469.71,805.44,1347.15,776.57,1337.68,779.51Z"/>
            <g>
              <path class="cls-60" d="M1336.3,768.1c0,.22-.1.44-.14.66v0A13.86,13.86,0,0,0,1336,771a11.55,11.55,0,0,0,2.53,7.53c1.52,2,4.57,2.44,7.24,3.24,6.41,1.9,13.14,3.22,19.42,5.42,8.53,3,17.77,3.68,26.39,6.49l1.51.47,1.16.34c.77.22,1.55.44,2.33.64l1.17.31c1.87.49,3.75.95,5.63,1.43l1.63.42,1,.27,1,.27,1,.29c4.76,1.34,9.36,3.08,14.1,4.47,3.74,1.08,7.64,1.55,11.44,2.37,1,.21,2,.46,3,.73l.59.17.59.16.59.18.87.26.53.17c.29.08.57.17.86.27l.14,0,1,.32,1.31.43.08,0,.6.19q.71.24,1.44.45l.53.16.45.12.51.15.76.2,1.52.38h0l.09,0,1.24.3.45.11,1.26.3h0l1.53.36,1.39.35.81.21.27.07.57-2.55,6.62-29.35.27-1.17c-10.33-2.17-21.51-3.39-31.8-6l-.23-.06c1.59-.61,3.92-.21,5.37-.92,1.17-.57.1-1.42-.75-2.61-.69-1-1.91-.92-3.16-.93-2.32,0-4.57.27-6.87.38l-.3,0-1.45,0a132.36,132.36,0,0,1-25.23-1.92c-7.21-1.19-14.4-2.25-21.58-3.47-1.61-.27-3.22-.56-4.83-.85l-.22,0c-2.53-.46-5-.79-7.55-1.12-4.72-.6-9.4-1.5-14.1-2.23l-.62-.1-1.32-.25-.63-.11-.39-.06-.38-.05c-.26,0-.53-.06-.78-.07H1346c-.12,0-.24,0-.35,0l-.18,0-.16,0-.17,0-.16,0-.15,0a12.34,12.34,0,0,0-7,6.38c-.11.2-.21.4-.31.61s-.28.6-.41.9-.14.35-.2.52-.07.2-.1.3-.1.29-.15.44C1336.48,767.39,1336.38,767.75,1336.3,768.1Z"/>
              <path class="cls-61" d="M1423.84,768.13l.49-.14a132.36,132.36,0,0,1-25.23-1.92c-7.21-1.19-14.4-2.25-21.58-3.47,7.55,1.48,14.94,3.56,22.51,5S1417,770.38,1423.84,768.13Z"/>
              <path class="cls-61" d="M1336.17,768.7s0,0,0,.06v0A13.86,13.86,0,0,0,1336,771a11.55,11.55,0,0,0,2.53,7.53c1.52,2,4.57,2.44,7.24,3.24,6.41,1.9,13.14,3.22,19.42,5.42,8.53,3,17.77,3.68,26.39,6.49l1.51.47,1.16.34c.77.22,1.55.44,2.33.64l1.17.31c1.87.49,3.75.95,5.63,1.43l1.63.42,1,.27,1,.27,1,.29c4.76,1.34,9.36,3.08,14.1,4.47,3.74,1.08,7.64,1.55,11.44,2.37,1,.21,2,.46,3,.73l.59.17.59.16.59.18.87.26.53.17c.29.08.57.17.86.27l.14,0,1,.32,1.31.43.08,0,.6.19q.71.24,1.44.45l.53.16.45.12.51.15.76.2,1.52.38h0l.09,0,1.24.3.45.11,1.26.3h0l1.53.36,1.39.35.81.21.31-1.3h0a33.06,33.06,0,0,1-3.66-1.4l-.16-.07-.49-.21-.5-.2c-2.53-1-5-2.1-7.59-3.08-9.42-3.61-19.5-5.79-29.36-8-3.32-.74-7.94-1.4-11-2.9-2.79-1.39,1.23-2,2.82-2.17.91-.07,2.81.18,3.24-.61.78-1.43-2.7-2.39-3.85-2.89a100.89,100.89,0,0,0-19.34-6.34c-5.4-1.15-10.81-2.16-16.15-3.56-3-.78-5.88-1.93-8.77-2.94s-6.25-1.68-8.57-3.33c-1.22-.87-2.36-2.21-1.11-3.23,1.42-1.14,4.55.08,6.26.4,6,1.12,11.92,3.75,18,4.16,1.32.09,3.54.4,2.91-1-.38-.88-2.72-1.68-3.52-2.09a46.3,46.3,0,0,0-5.75-2.43c-2.39-.83-4.75-1.81-7.17-2.52-2.84-.84-3-2.88-.46-3.67,3.14-1,7.13-.46,10.49,0l.25,0-.22,0c-2.53-.46-5-.79-7.55-1.12-4.72-.6-9.4-1.5-14.1-2.23l-.62-.1-1.32-.25-.63-.11-.39-.06-.38-.05c-.26,0-.53-.06-.78-.07H1346c-.12,0-.24,0-.35,0l-.18,0-.16,0-.17,0-.16,0-.15,0a12.34,12.34,0,0,0-7,6.38c-.11.2-.21.4-.31.61s-.28.6-.41.9-.14.35-.2.52-.07.2-.1.3-.1.29-.15.44c-.11.35-.21.71-.29,1.06C1336.25,768.3,1336.21,768.5,1336.17,768.7Z"/>
              <path class="cls-61" d="M1430.53,772.65c5.6,1.45,11.39,2.54,17.07,3.74,4.14.87,8,2,12.25,2.49,1.13.14,2.27.25,3.4.36l.27-1.17c-10.33-2.17-21.74-3.45-32-6.07A1.55,1.55,0,0,0,1430.53,772.65Z"/>
              <path class="cls-62" d="M1336.17,768.7s0,0,0,.06v0A13.86,13.86,0,0,0,1336,771a19.29,19.29,0,0,0,1.69,8.48c1.12,2.23,4.69,2.51,7.33,3.08,6.55,1.42,13.48,3.08,19.8,4.92,8.71,2.52,18.14,3.39,26.76,6.2l1.51.47,1.16.34c.77.22,1.55.44,2.33.64l1.17.31c1.87.49,3.75.95,5.63,1.43l1.63.42,1,.27,1,.27,1,.29c4.76,1.34,9.36,3.08,14.1,4.47,3.74,1.08,7.64,1.55,11.44,2.37,1,.21,2,.46,3,.73l.59.17.59.16.59.18.87.26.53.17c.29.08.57.17.86.27l.14,0,1,.32a10,10,0,0,1,1.1.41l.28.14a7.77,7.77,0,0,0,.85.35,36.45,36.45,0,0,0,5,1.36l.27.09a7.5,7.5,0,0,0,.88.29c2.27.54,3.55.53,5.69,1.13l.31-1.29.15-.6a33,33,0,0,1-3.69-1.39,5.42,5.42,0,0,1-1.23.11h0a24.13,24.13,0,0,1-3.17-.31c-4-.68-7.63-2.28-11.53-3.18-4.39-1-9.23-2.13-14.75-3.51-5-1.25-9.76-3.21-14.81-4.38a61.82,61.82,0,0,1-7-1.89c-2.8-1-5.69-1.45-8.54-2.23-4.84-1.33-9.54-2.78-14.26-4.4-1.74-.6-3.5-1.15-5.24-1.75-1.43-.49-5.29-1.14-6.16-2.29-.71-.94.57-.84,1.67-.77,2.11.13,4.19.69,6.27,1,4.23.67,8.48.93,12.72,1.73,6.27,1.18,12.6,1.5,18.73,3.45-5-1.71-9.84-3.24-15-4.54-4.37-1.11-8.79-1.88-13.2-2.81-7.65-1.62-15-3.75-22.5-5.88-3-.86-12.42-2.59-10.71-6.37.7-1.53,2.69-2.11,4.63-2.39,6.38-.91,13.68,1.35,20,2.63-3.27-2.28-8.26-3.33-12.19-4.47-3.57-1-11.9-2.91-11.64-6.77a1.76,1.76,0,0,1,.32-.93l-.15,0a12.34,12.34,0,0,0-7,6.38c-.11.2-.21.4-.31.61s-.28.6-.41.9-.14.35-.2.52-.07.2-.1.3-.1.29-.15.44c-.11.35-.21.71-.29,1.06C1336.25,768.3,1336.21,768.5,1336.17,768.7Z"/>
              <path class="cls-63" d="M1451.39,781.13c-.56-.08-1.12-.18-1.42-.21-1.14-.11-2.29-.24-3.43-.45-2-.38-4-.7-6.06-1.12-7.52-1.58-15.12-3.12-22.6-4.93-6.73-1.63-13.39-3.63-20.18-5-5.1-1.06-10.49-2.36-15.65-2.14,1.14,0,3.06.71,4.21,1,1.56.37,3.11.75,4.64,1.21,2.91.86,5.5,2.19,8.32,3.22-.88.45-2.56.06-3.6,0a37.61,37.61,0,0,1-9-2.1c-3.26-1.16-6.29-2.67-9.68-3.54-2.84-.73-7-1.92-9.87-1.78a11.83,11.83,0,0,1,3.28,1.09c1.08.4,2.14.85,3.18,1.31,2.09.92,4.12,1.94,6.18,2.91a69.72,69.72,0,0,0,12.53,4.75,36.23,36.23,0,0,0,6.86.9c3.78.16,7.58.46,11.36.9,4.2.49,8.39,1.25,12.53,2.12s8.36,2.08,12.55,3.09a48.66,48.66,0,0,1,5.56,1.66c1,.36,4.67,1.39,5.12,2.17-1.26-2.2-5.65-4.21-8.48-4.88a42.57,42.57,0,0,0,4.85.69c3.3.36,7.53.44,10.35-.76A4,4,0,0,1,1451.39,781.13Z"/>
              <path class="cls-63" d="M1357,772.12c6.12,1.77,12.6,2.5,18.84,3.79,8,1.68,16.09,2.32,24.18,3.53,8.46,1.27,17,1.68,25.46,3.38,6.35,1.29,11.92,3.78,17.73,6.28a183.09,183.09,0,0,0-18.43-3.23c-3.77-.48-7.48-1.38-11.25-1.85-3.28-.41-6.57-.62-9.86-1-6.64-.87-13.19-2-19.79-3.14a157.88,157.88,0,0,1-15.69-3.32A45.2,45.2,0,0,1,1357,772.12Z"/>
              <path class="cls-61" d="M1404.66,786.56a81.39,81.39,0,0,0,9.65,1.16,88,88,0,0,1,14.33,2.77c2.14.59,4.34,1.22,6.54,1.6a63.84,63.84,0,0,0,7.08.61,68.6,68.6,0,0,1,10.93,2c.07.79-.83,1.42-.7,2.3a12.89,12.89,0,0,0,1.21,2.79c.48,1,1.39,1.86,1.36,2.88-2-.72-3.79-2-5.76-2.79a46.35,46.35,0,0,0-7.31-2.4c-2.81-.67-5.67-1.2-8.48-1.89a69.05,69.05,0,0,1-8.83-3c-2.29-.9-4.47-1.87-6.89-2.62-1.94-.6-3.94-1.09-5.9-1.66C1409.46,787.53,1407.06,787.27,1404.66,786.56Z"/>
              <path class="cls-61" d="M1433.89,767.61a.61.61,0,0,1,.35-.12,3.8,3.8,0,0,1,2.7,1.16,2.18,2.18,0,0,1,.6,1.88c-.48,1.58-3.3-.77-3.69-1.57C1433.69,768.6,1433.53,767.9,1433.89,767.61Z"/>
              <path class="cls-64" d="M1436,768.42c.21.13.39.27.53.37.53.42,1,1,.73,1.54s-2-.58-2.36-.88-1.12-1.21-.43-1.46A1.94,1.94,0,0,1,1436,768.42Z"/>
              <path class="cls-62" d="M1448.42,792.6a22.61,22.61,0,0,0-1.07,4.21c-.36,2.62.38,5.59,1.22,8.25,1.15,3.65,6.31,6.75,10.89,6.4,2.86-.21,4.73-.52,6.53-2.2.69-.64.94-1.5,1.6-2.1s1.21-.85,1.58-1.55c.93-1.81,1-3.91,2-5.68a14,14,0,0,0,1.77-6c.22-2.5.37-5.33-.84-7.82a14.45,14.45,0,0,0-2.41-3.14c-.75-.87-.83-1.92-1.84-2.67-.63-.47-.86-1-1.61-1.42a9.1,9.1,0,0,0-2.74-.84,9.68,9.68,0,0,0-6.25,1,13.76,13.76,0,0,0-4.23,4.52,35.2,35.2,0,0,0-3.4,5.9C1449.21,790.48,1448.79,791.53,1448.42,792.6Z"/>
              <path class="cls-65" d="M1448.89,799.48a10.45,10.45,0,0,0,.53,2.6c.29.79.23,1.61.55,2.4a11.68,11.68,0,0,0,3.79,4.47c2.27,1.82,6.38,1.7,8.87.79a8.22,8.22,0,0,0,3.89-3,9.68,9.68,0,0,0,1.8-2.27c.29-.73.56-1.44.91-2.14a15.1,15.1,0,0,0,.84-2.51c.24-.82.79-1.51,1.1-2.3a12.19,12.19,0,0,0,.79-4.76,23.41,23.41,0,0,0-.34-4.79,8.82,8.82,0,0,0-2.31-3.71,6.91,6.91,0,0,1-1.58-2.45c-.63-1.54-2.68-2.46-4.86-2.5a14.51,14.51,0,0,0-3.58.2,5.34,5.34,0,0,0-2.77,2c-.38.45-.61,1-1,1.44s-.92.84-1.27,1.33c-.76,1-1.27,2.34-2,3.43a21.46,21.46,0,0,0-2.59,7.17c-.21,1-.5,1.95-.7,2.95A4.48,4.48,0,0,0,1448.89,799.48Z"/>
              <path class="cls-66" d="M1468.4,785.88a7.33,7.33,0,0,1,1.47,4.36c-.11,1.42.13,2.94-.09,4.35-.38,2.34-1.58,4.52-2.53,6.69a11.91,11.91,0,0,1-3.69,5.3,14.86,14.86,0,0,1-2.47,1.42c-1.28.64-2.65.3-4.18-.18a5.21,5.21,0,0,1-3-1.77,10.86,10.86,0,0,1-1.53-4c-.3-1.4-.84-2.57-.56-3.94s.8-2.58,1-3.92a19.87,19.87,0,0,1,2.2-5.8,13.18,13.18,0,0,1,1.34-2.91,23.67,23.67,0,0,1,2.56-2.29c1.72-1.49,4.17-1.73,6.69-.44.75.38,1.75,1,1.94,1.72Z"/>
              <path class="cls-64" d="M1465,786.16a9,9,0,0,1,2,3.82c1.13,3.38-.25,7-1.57,10-.8,1.85-3.2,6.08-7,5.08-3.68-1-3.53-5.76-3.31-7.69.39-3.34.87-6.94,3.2-9.75a7.06,7.06,0,0,1,3.75-2.23A3.19,3.19,0,0,1,1465,786.16Z"/>
              <path class="cls-66" d="M1463.53,788.64c1.9,1.42,1.63,4.12,1.47,5.65a9.63,9.63,0,0,1-1.18,4.31c-.91,1.46-.81,3.65-3.75,3.89-1.49.12-1.79-.56-2.22-1.46a4.73,4.73,0,0,1-.25-3,22.71,22.71,0,0,1,2-7C1459.84,790.55,1462.15,787.33,1463.53,788.64Z"/>
              <path class="cls-64" d="M1462.92,792.15c.53.7.17,1.91.13,2.65a10.7,10.7,0,0,1-.38,2.18,5.52,5.52,0,0,1-.73,1.53c-.16.27-.33.76-.74.86s-1-.4-1.14-.74a4.54,4.54,0,0,1-.19-1.82,8.47,8.47,0,0,1,1.3-3.76,2,2,0,0,1,1-1.09C1462.55,791.81,1462.89,791.92,1462.92,792.15Z"/>
              <g>
                <path class="cls-62" d="M1467,781.23c-.12.06-1.53,2.45-2.37,4,0,0,1.47-3.55,1.84-4.83S1467,781.23,1467,781.23Z"/>
                <path class="cls-62" d="M1457.71,779.59l.89,7s-1-5.57-1.63-6.7Z"/>
                <path class="cls-62" d="M1472.56,790.82l.18.88a10.33,10.33,0,0,1-3.16,1.15,18,18,0,0,0-3.44.73A31.66,31.66,0,0,1,1472.56,790.82Z"/>
                <path class="cls-60" d="M1454,789.58a10,10,0,0,1,3.27,3A7.43,7.43,0,0,1,1454,789.58Z"/>
                <path class="cls-62" d="M1452.88,809.66c1.4-3.11,4.88-8.86,4.88-8.86a39.74,39.74,0,0,1-2.7,3.36c-1.13,1.2-3.39,4.26-3.39,4.26Z"/>
                <path class="cls-62" d="M1449.13,804.07c0-.05,1.44-1.52,1.44-1.52l-1.84,1.16Z"/>
                <path class="cls-62" d="M1450.94,806.91a9.47,9.47,0,0,1,1.28-1.09l-1.11,1.68Z"/>
                <path class="cls-62" d="M1471.6,797.46l-.35,1.25a11.18,11.18,0,0,0-2.23-1.34A6.6,6.6,0,0,0,1471.6,797.46Z"/>
                <path class="cls-60" d="M1464.65,804.87a24.53,24.53,0,0,0-2.35-7.3A16.52,16.52,0,0,0,1464.65,804.87Z"/>
                <path class="cls-60" d="M1461.57,792.27a18.79,18.79,0,0,1,.32,3.13s1.25,1.19,1.5,1.33-2.28-.6-2.28-.6l-2.15.5,2.14-1.52Z"/>
                <path class="cls-60" d="M1465.17,787.13a11.42,11.42,0,0,1-2,3.72A10.34,10.34,0,0,1,1465.17,787.13Z"/>
                <polygon class="cls-62" points="1448.99 796.24 1452.26 796.62 1448.67 797.08 1448.99 796.24"/>
                <path class="cls-62" d="M1452.77,785.23a23.23,23.23,0,0,1,1.89,2.21l-2.53-1.57Z"/>
                <polygon class="cls-62" points="1463.44 778.34 1462.66 782.08 1462.76 778.19 1463.44 778.34"/>
                <path class="cls-62" d="M1471.2,785.69l.1.83-1.26.77S1471.2,785.69,1471.2,785.69Z"/>
                <path class="cls-62" d="M1461.37,811.24l-.74,0,.54-3.58S1461.32,810.94,1461.37,811.24Z"/>
                <path class="cls-62" d="M1469.18,804.68l-.4.94-1.49-1.89S1469,804.66,1469.18,804.68Z"/>
                <path class="cls-60" d="M1458.94,803.67a14.32,14.32,0,0,1-1.15,4.68S1457.67,807.17,1458.94,803.67Z"/>
                <path class="cls-60" d="M1465.66,799.43a5.2,5.2,0,0,1,2.78,2A7.87,7.87,0,0,1,1465.66,799.43Z"/>
              </g>
            </g>
          </g>
        </g>
      </g>
    </g>
  </g>
</svg>
