<svg id="Layer_1" data-name="Layer 1" xmlns="http://www.w3.org/2000/svg" xmlns:xlink="http://www.w3.org/1999/xlink" width="1600" height="900" viewBox="0 0 1600 900">
  <defs>
    <style>
      .cls-1 {
        fill: none;
      }

      .cls-2 {
        clip-path: url(#clip-path);
      }

      .cls-3 {
        fill: #3a3937;
      }

      .cls-4 {
        fill: #878986;
      }

      .cls-5 {
        fill: #abafa9;
      }

      .cls-6 {
        clip-path: url(#clip-path-2);
      }

      .cls-7 {
        clip-path: url(#clip-path-3);
      }

      .cls-8 {
        fill: url(#linear-gradient);
      }

      .cls-9 {
        clip-path: url(#clip-path-4);
      }

      .cls-10 {
        fill: #75c289;
      }

      .cls-11 {
        clip-path: url(#clip-path-5);
      }

      .cls-12 {
        fill: url(#linear-gradient-2);
      }

      .cls-13 {
        fill: #94bd3d;
      }

      .cls-14 {
        fill: #c9dddf;
      }

      .cls-15 {
        fill: #64b946;
      }

      .cls-16 {
        fill: #399044;
      }

      .cls-17 {
        fill: #217a3d;
      }

      .cls-18 {
        fill: #3f9a46;
      }

      .cls-19 {
        fill: #1b6734;
      }

      .cls-20 {
        fill: #20793d;
      }

      .cls-21 {
        fill: #6abc45;
      }

      .cls-22 {
        fill: #2c8f44;
      }

      .cls-23 {
        fill: #28743a;
      }

      .cls-24 {
        fill: #85c667;
      }

      .cls-25 {
        fill: #29743b;
      }

      .cls-26 {
        fill: #80b16d;
      }

      .cls-27 {
        fill: #a6ce4a;
      }

      .cls-28 {
        fill: #399144;
      }

      .cls-29 {
        fill: #6fbd45;
      }

      .cls-30 {
        fill: #1b6634;
      }

      .cls-31 {
        fill: #1a6634;
      }

      .cls-32 {
        fill: #388f44;
      }

      .cls-33 {
        fill: #389044;
      }

      .cls-34 {
        fill: #63b946;
      }

      .cls-35 {
        fill: #6dbc46;
      }

      .cls-36 {
        fill: #1e6a35;
      }

      .cls-37 {
        fill: #d5dfac;
      }

      .cls-38 {
        fill: #5c240d;
      }

      .cls-39 {
        fill: #e58751;
      }

      .cls-40 {
        fill: #83391c;
      }

      .cls-41 {
        fill: #2f160c;
      }

      .cls-42 {
        opacity: 0.5;
      }

      .cls-43 {
        clip-path: url(#clip-path-6);
      }

      .cls-44 {
        fill: #2f1b0e;
      }

      .cls-45 {
        fill: #2a0f0f;
      }

      .cls-46 {
        fill: #7f4f20;
      }

      .cls-47 {
        fill: #737373;
      }

      .cls-48 {
        fill: #502e12;
      }

      .cls-49 {
        fill: #2c190d;
      }

      .cls-50 {
        fill: #72441b;
      }

      .cls-51 {
        fill: #b17236;
      }

      .cls-52 {
        clip-path: url(#clip-path-7);
      }
    </style>
    <clipPath id="clip-path">
      <rect class="cls-1" y="1150" width="1600" height="900"/>
    </clipPath>
    <clipPath id="clip-path-2">
      <rect class="cls-1" width="1600" height="900"/>
    </clipPath>
    <clipPath id="clip-path-3">
      <rect class="cls-1" x="-92.66" y="-3.35" width="1705.9" height="663.58"/>
    </clipPath>
    <linearGradient id="linear-gradient" x1="2.28" y1="-824.09" x2="3.48" y2="-824.09" gradientTransform="matrix(48.64, 1286.24, 1286.24, -48.64, 1060597.66, -43436.59)" gradientUnits="userSpaceOnUse">
      <stop offset="0" stop-color="#a2d9d8"/>
      <stop offset="0.21" stop-color="#a2d9d8"/>
      <stop offset="0.22" stop-color="#9ad7d7"/>
      <stop offset="0.24" stop-color="#86d1d4"/>
      <stop offset="0.26" stop-color="#7acdd2"/>
      <stop offset="0.27" stop-color="#76ccd1"/>
      <stop offset="0.32" stop-color="#7acdd1"/>
      <stop offset="0.36" stop-color="#86d1d1"/>
      <stop offset="0.4" stop-color="#9ad6d1"/>
      <stop offset="0.43" stop-color="#addcd1"/>
      <stop offset="0.49" stop-color="#c8e7e0"/>
      <stop offset="0.59" stop-color="#f0f8f6"/>
      <stop offset="0.64" stop-color="#fff"/>
      <stop offset="1" stop-color="#c7e5d2"/>
      <stop offset="1" stop-color="#c7e5d2"/>
    </linearGradient>
    <clipPath id="clip-path-4">
      <rect class="cls-1" x="-212.08" y="117.58" width="1914.41" height="613.48"/>
    </clipPath>
    <clipPath id="clip-path-5">
      <path class="cls-1" d="M1218.6,568.6l-12.93,107.52-1597.93-1.67,21.53-105.85C-229.68,524.64-6.13,510,229.36,510c470.89,0,989.24,58.61,989.24,58.61"/>
    </clipPath>
    <linearGradient id="linear-gradient-2" x1="-4.03" y1="-825.47" x2="-2.66" y2="-825.47" gradientTransform="translate(-3497.67 -964584.2) rotate(180) scale(1169.25)" gradientUnits="userSpaceOnUse">
      <stop offset="0" stop-color="#30b14b"/>
      <stop offset="0.2" stop-color="#2fad4a"/>
      <stop offset="0.4" stop-color="#2ea148"/>
      <stop offset="0.56" stop-color="#2c9245"/>
      <stop offset="1" stop-color="#68bc46"/>
    </linearGradient>
    <clipPath id="clip-path-6">
      <rect class="cls-1" x="1145.14" y="587.91" width="439.1" height="27.91"/>
    </clipPath>
    <clipPath id="clip-path-7">
      <rect class="cls-1" x="1162.81" y="282.77" width="419.56" height="138.61"/>
    </clipPath>
  </defs>
  <g id="SC_37">
    <g class="cls-2">
      <g>
        <path class="cls-3" d="M673.3,1779l-22.11-164.89,16.29-9.85,9.67-46.53L778.1,1431l40.22-61.72,29.82-72.09,83.78-25.69,46.33-21.5,67.42,5.44,98.68-71.32L1306,1115.35l72.69-45.44,122.82-70.09L1697.06,883q-8.86,330.48-3.76,660.69,1.38,88.92,3.76,177.83l-3.76,62.31-133.19-73.68s-153.3-9.38-161.26,5.52-115.69,47.15-115.69,47.15l-409.69-6.65Z"/>
        <polygon class="cls-3" points="1249.08 1246.28 1310.32 1112.56 1463.15 1010.63 1524.37 892.09 1697.53 883.6 1697.53 1347.8 1640.01 1266.56 1554.62 1238.41 1465.58 1284.52 1249.08 1246.28"/>
        <polygon class="cls-4" points="1538.08 1084.97 1700.55 1044.55 1697.53 883.6 1569.05 952.28 1595.29 1004.3 1538.08 1084.97"/>
        <polygon class="cls-5" points="1697.53 883.6 1569.05 952.28 1595.29 1004.3 1538.08 1084.97 1463.15 1010.63 1524.37 892.09 1697.53 883.6"/>
      </g>
    </g>
  </g>
  <g class="cls-6">
    <rect class="cls-1" x="226.24" y="148.61" width="1066.82" height="600.08"/>
    <g class="cls-7">
      <polygon class="cls-8" points="1610.8 -74.95 1635.79 659.62 -90.23 732.15 -115.22 -2.41 1610.8 -74.95"/>
    </g>
    <g class="cls-9">
      <path class="cls-10" d="M1108.09,489.66c-111,5.3-44.06,4.45-429.72-12.76-151.08-6.74-132.75-.12-441.13-5.31-90-1.51-174.17-3.41-246.47-5.31V577.85H1601.1V463.66C1436.13,471.64,1169.88,486.7,1108.09,489.66Z"/>
    </g>
    <g class="cls-11">
      <rect class="cls-12" x="-392.32" y="509.78" width="1610.51" height="166.34"/>
    </g>
    <path class="cls-13" d="M1472.22,567.31c-71.61,8.16-161,18.3-204.9,22.21-221.65,19.76-258.81-24.41-529.34-15.94-87.31,2.73-111.24,8.2-248.07,11.86-148.93,4-209.72-.11-242.48-2.86-68.48-5.75-147.11-16.79-172.11-20.3C36.72,556.86,4.48,551.76-18.54,548V940.6H1644.92V545.47C1588.32,555.67,1529.4,560.79,1472.22,567.31Z"/>
    <g>
      <g>
        <path class="cls-14" d="M1238.63,249.31s25.5-6.18,34.36,7c.71,7.59-38,7.67-38,7.67Z"/>
        <path class="cls-14" d="M1153.42,255.68s26.09-23.63,65.64-16.88,33.43,26.48,14.27,27.68-56.67,1.42-64.83,0S1150.56,265.43,1153.42,255.68Z"/>
        <path class="cls-14" d="M1130.59,261.68s22.42-4.87,28.13-5.25,22.42.18,16.72,7c-9,1.22-30.58-.1-35.48,0S1129.36,265.43,1130.59,261.68Z"/>
      </g>
      <g>
        <path class="cls-14" d="M323.4,265.26s49.73-14,68.15,0c5.06,8.47-24.32,11.17-58.48,10.54S323.4,265.26,323.4,265.26Z"/>
        <path class="cls-14" d="M281.93,270.22s43.75-12.71,64-4.24C348.7,272.34,317.85,273.18,281.93,270.22Z"/>
      </g>
    </g>
    <g>
      <g>
        <path class="cls-15" d="M766.44,656c-.37.36-.83.18-1.24.18l-22.26,0a1.77,1.77,0,0,1-.48-.15c.63-1.17.46-2.48.64-3.73.44-2-.07-3.91-.26-5.84a27,27,0,0,0-6.67-15.5.58.58,0,0,1-.12-.36c.44-.56-.24-.66-.42-.86A29,29,0,0,0,725.49,623l-.71-.32s0-.08,0-.23a22.15,22.15,0,0,1,9.94,2.27,26.31,26.31,0,0,1,10.82,10l.85,1.32c2,2.14,2.65,5,3.67,7.6a11.76,11.76,0,0,1,.37,1.41c.22-1.52.33-2.92.61-4.29.2-2,.34-4.07.51-6.11a78.56,78.56,0,0,0-.38-16.79c-.1-.75-.44-1.54.1-2.27a38.45,38.45,0,0,0-5.47-14.89c-4.29-6.57-10.46-10.22-18.09-11.57-.42-.08-.88,0-1.23-.36,8.06-.76,16.62,1.8,22.57,9,4.85,5.9,7.23,12.87,8.82,20.2.47,2.16.56,4.4,1.24,6.52.78,1.66.52,3.47.77,5.21a13.73,13.73,0,0,1,0,2.72,25.51,25.51,0,0,0,.19,4.94c.35,2.65-.15,5.31-.32,8a55.84,55.84,0,0,1-1.19,9.19c-.17.75.06,1.05.83,1,1.75,0,3.49,0,5.24,0A2.29,2.29,0,0,1,766.44,656Z"/>
        <path class="cls-16" d="M751.24,615.58a68.58,68.58,0,0,1,1,14c-.1,3.68-.5,7.36-.78,11a1.46,1.46,0,0,1-.21.46c-.51-1.09-1.72-1.67-2.13-2.84.62-.46.24-1,.16-1.54-1.53-10.14-6.93-17.74-15.4-23.29-6.76-4.42-14.27-6.89-22.1-8.54-2.09-.44-4.2-.74-6.31-1.12a1.58,1.58,0,0,1-.68-.3,98,98,0,0,1,11.86-.37,74.14,74.14,0,0,1,17.21,2.45A37.74,37.74,0,0,1,751.24,615.58Z"/>
        <path class="cls-17" d="M736.05,630.67c1.17.33,1.59,1.43,2.19,2.28a28.24,28.24,0,0,1,5.17,15.33c.05,1.37.55,2.75,0,4.12-2.1-3.86-5.55-6.41-8.85-9.11a60.12,60.12,0,0,0-7.61-5.1,2.81,2.81,0,0,0-1.74-.44c-.47,0-1,.09-1.31-.38l1.58-.35a94.63,94.63,0,0,0-29-9.51C702.68,625,725.92,626.86,736.05,630.67Z"/>
        <path class="cls-18" d="M766.44,656c-2.61,0-5.23,0-7.84,0-.7,0-.9-.12-.72-.87,1-4.15,1.18-8.4,1.6-12.63.33-3.41-.29-6.77,0-10.15.76.22.61.86.6,1.39s-.16,1.07-.15,1.37a24.08,24.08,0,0,1,1.77-6.37,51.54,51.54,0,0,1,7.5-13.56c.29-.36.49-.83,1-.93,1.28-1.24,2.53-2.51,3.85-3.7a27,27,0,0,1,16.71-7.33c-.94.47-1.89.91-2.82,1.4-11.54,6.05-18.11,15.7-20.72,28.34A69.52,69.52,0,0,0,766,650.32C766.06,652.24,766.59,654.11,766.44,656Z"/>
        <path class="cls-19" d="M770.19,614.29c-1.17,1.72-2.38,3.43-3.49,5.18A55.07,55.07,0,0,0,760,635.41c0,.2-.1.41-.21.81-.33-1.4.13-2.66-.36-3.83a44.65,44.65,0,0,0-.47-6.74,3.15,3.15,0,0,1,.11-1.15,224.23,224.23,0,0,0,7-24.49,123.54,123.54,0,0,0,2.54-37.62c-.13-1.37-.23-2.73-.25-4.12a47.47,47.47,0,0,1,2.29,9.07c1.84,11.15,1.7,22.35.88,33.58-.27,3.66-.6,7.31-1.09,10.94A9.45,9.45,0,0,0,770.19,614.29Z"/>
        <path class="cls-19" d="M723.92,637.37c2.24-.48,3.9.82,5.6,1.9a59.42,59.42,0,0,1,13.42,11.33c.52.61.36,1.2.49,1.8,0,.92-.07,1.84-.15,2.75,0,.47-.16,1-.82,1-4-5.81-9.88-8.36-16.44-9.76-7.89-1.68-15.8-1.14-23.7.11-2.48.39-5,.93-7.52,1.22,1.81-.95,3.6-1.93,5.44-2.83a75.39,75.39,0,0,1,21.86-7.3C722.7,637.45,723.31,637.43,723.92,637.37Z"/>
        <path class="cls-20" d="M749.16,638.25c.8.88,2.24,1.28,2.13,2.84l-.63,5a77.15,77.15,0,0,0-4.3-10A13,13,0,0,1,749.16,638.25Z"/>
      </g>
      <g>
        <path class="cls-21" d="M826.06,640.64c.38-.3.23-.73.21-1.1-.6-11.57-2.77-22.75-8.21-33.12a48.44,48.44,0,0,0-9.44-12.64,6.33,6.33,0,0,1-1-1.14,13,13,0,0,1,3.29,1.85c8.41,5.91,14,14,17.73,23.42a79.22,79.22,0,0,1,5.31,24c0,.2-.29.72.36.58a.81.81,0,0,1,.28.74c-.1,4.6.22,9.21-.56,13.78-.12.72-.08,1.53-.88,2-2.52,0-5,.09-7.55,0a1.46,1.46,0,0,1-.33-1.43A103.59,103.59,0,0,0,825.8,642C825.8,641.53,825.67,641,826.06,640.64Z"/>
        <path class="cls-22" d="M833.17,658.86a32.43,32.43,0,0,0,.89-7.07c.11-2.19,0-4.4,0-6.6a11.45,11.45,0,0,1,.19-2.68c.52-4.06,1.19-8.1,1.58-12.18a131.75,131.75,0,0,0,.44-21,73.49,73.49,0,0,0-3.55-19,46.44,46.44,0,0,0-6-12c-.11-.25,0-.27.21-.21,7.34,7.87,11.47,17.34,13.76,27.72a88.24,88.24,0,0,1,2,15.35c0,.55-.18,1.2.35,1.65a1.15,1.15,0,0,1,.25.89c0,4.17-.07,8.34-.39,12.51-.21,2.78-.45,5.56-.81,8.33a2.48,2.48,0,0,1-.67,1.35,19.32,19.32,0,0,0-3.63,10.1c-.24,3-.21,3-3.14,3C834.16,659,833.63,659.18,833.17,658.86Z"/>
        <path class="cls-18" d="M826.06,640.64a10.2,10.2,0,0,1,.22,2.34,109.47,109.47,0,0,1-.49,13.79c-.09.7-.17,1.4-.25,2.1a14.07,14.07,0,0,1-4.44,0,72.34,72.34,0,0,0,0-10.41c-.64-8-2.27-15.76-6.35-22.81a28.7,28.7,0,0,0-17.87-14c-.3-.08-.59-.19-.89-.3,0,0,0-.06-.11-.19a30.58,30.58,0,0,1,12.81,3.56c7,3.77,11.46,9.73,14.53,16.87A42.35,42.35,0,0,1,826.06,640.64Z"/>
        <path class="cls-23" d="M841.85,644.67c-.42-.77,0-1.55.09-2.29a154.39,154.39,0,0,0,.91-18.49,6.52,6.52,0,0,1,.19-1,37.8,37.8,0,0,1,5.78-8.6,42.78,42.78,0,0,1,13.58-10.48l.65-.28s.06,0,.19.09a57.23,57.23,0,0,0-5,4.33c-7,7.15-10.93,15.89-12.82,25.61a56.68,56.68,0,0,0-1.14,9A3.51,3.51,0,0,1,841.85,644.67Z"/>
        <path class="cls-24" d="M841.85,644.67l2.48-2.16c.81-.09,1.4-.67,2.15-.93,4.65-1.6,8.82-.39,12.77,2.14.33.21.64.45,1,.69,0,0,0,.13.08.31a35.47,35.47,0,0,0-5-1.11,10,10,0,0,0-10.73,5.78,7.07,7.07,0,0,0-.34,1.24,52.44,52.44,0,0,0-1,6.23c-.07.93,0,1.75,1.24,1.77a.6.6,0,0,1,.46.33,8.5,8.5,0,0,1-3.14.11q-9.75.06-19.51.06c-.4,0-.88.21-1.2-.23l4.44,0h7.63c1,0,2.05,0,3.07.07.72,0,.92-.24,1-.95a23.59,23.59,0,0,1,2.54-10.21A34.5,34.5,0,0,1,841.85,644.67Z"/>
        <path class="cls-25" d="M845,659c-2.18-.08-2.27-.09-2.06-2.35.18-2,.26-4.13,1.35-6C844.48,653.41,844.72,656.18,845,659Z"/>
        <path class="cls-26" d="M827,578.13l-.21.21-.93-1.12A1.66,1.66,0,0,1,827,578.13Z"/>
      </g>
      <g>
        <path class="cls-27" d="M811.79,661.22c-.33.29-.72.16-1.08.16l-26.77,0c-.26,0-.53.05-.74-.16.51-.53.22-1-.05-1.53a30,30,0,0,1-3.36-9.88,13.84,13.84,0,0,1,.37-6.36,12.78,12.78,0,0,1,6.3-7.35c1.35-.57,2.61-1.43,4.17-1.36.67,0,1.28-.07,1.48-.86,1.73,0,3.42-.57,5.16-.34,1.26.09,2.52-.08,3.79-.09a18.58,18.58,0,0,1,3,.3,23.82,23.82,0,0,1,4,.47,21.3,21.3,0,0,1,3.93,1c.48.62,1.3.43,2,.85-.88.26-1.77-.24-2.55.23a21.84,21.84,0,0,1-4.71.19,57.68,57.68,0,0,0-6,.6,19.15,19.15,0,0,0-2.49.36c-.46.23-1,.26-1.45.45a14.83,14.83,0,0,0-6.87,4.1c-2.1,2.71-2.37,5.76-1.67,9a28,28,0,0,0,3.83,8.72,2,2,0,0,0,2,1.08,13.52,13.52,0,0,1,1.8,0,20.8,20.8,0,0,1,3.44,0c2-.13,4-.07,6,0,1.76-.11,3.51,0,5.27,0A1.47,1.47,0,0,1,811.79,661.22Z"/>
        <path class="cls-28" d="M780.47,643.4c-1.54,6.47.89,12.11,3.71,17.64-.32.33-.68.13-1,.22-5.39-3.16-8.62-8-10.62-13.75-1.81-5.17-2.3-10.43-.49-15.74.15-.42.34-.83.51-1.25a4.74,4.74,0,0,1,1.06-2.55,16.56,16.56,0,0,1,4.42-4.13,3.92,3.92,0,0,1,1.69-.49l1.12-.52c1.11-1,2.57-.92,3.88-1.31.25.42.65.27,1,.25a40.72,40.72,0,0,1,5.06,0c-1.61.49-3,.89-4.41,1.35-.39.12-.94.2-.81.85a9.22,9.22,0,0,0-4.2,2.83c-2.52,3.23-2.89,6.91-2.25,10.79a29.47,29.47,0,0,0,1.06,4.26A3.57,3.57,0,0,1,780.47,643.4Z"/>
        <path class="cls-15" d="M779.77,623.35a14,14,0,0,0-7.17,7.17c-.5-2.22-1.07-4.44-1.49-6.68-1.25-6.74-1.34-13.43,1-20,1.88-5.25,6.37-10.86,10.9-13.5-1.24,1.93-2.35,3.68-3.3,5.52-4.62,9-4.29,18-.43,27.06A.58.58,0,0,0,779.77,623.35Z"/>
        <path class="cls-16" d="M792.9,629.85a128.42,128.42,0,0,1,8.75-47.14q-.48,4-.94,8c-.55,4.7-.87,9.42-1,14.15-.12,3.42-.33,6.83-.2,10.26.17.51-.16.85-.43,1.2-2.84,3.66-4.32,7.93-5.52,12.33C793.41,629.11,793.55,629.7,792.9,629.85Z"/>
        <path class="cls-15" d="M805.2,661.19h-6a2.19,2.19,0,0,1-.31-1.92,11.48,11.48,0,0,0,.25-2.34,17.61,17.61,0,0,1,1.81-5.89c.7-1.29.59-2.7.78-4.07a22.18,22.18,0,0,1,1.37-5.56c.17-.4.24-.9.79-1,.53.39.28,1,.45,1.5-.17,1.42.21,2.79.19,4.45a26,26,0,0,1,4.76-2.67c0,.46.13.64.64.53a12.21,12.21,0,0,1,1.61-.2,3.94,3.94,0,0,1,4.13.49,18,18,0,0,1,5.54,3.11,30.64,30.64,0,0,0-6.23-1.06,3.44,3.44,0,0,1-1.48.48,8.56,8.56,0,0,0-4.8,2.3,9.45,9.45,0,0,0-2.92,4.9,2.82,2.82,0,0,0,.35,1.93C805.69,657.83,805.85,659.58,805.2,661.19Z"/>
        <path class="cls-19" d="M792.9,629.85a43.11,43.11,0,0,1,3.77-10.51,45.53,45.53,0,0,1,2.81-4.18A20.27,20.27,0,0,1,809,608.8a24.37,24.37,0,0,1,7.68-.92.66.66,0,0,1,.64.23,21.21,21.21,0,0,0-17.69,14.31,34.18,34.18,0,0,1-1,4.6,63.34,63.34,0,0,0-1.06,6.55.85.85,0,0,1-.45.34,19.77,19.77,0,0,0-4,.41c-.38.07-.93.34-1-.4C792.37,632.56,792.64,631.21,792.9,629.85Z"/>
        <path class="cls-29" d="M797.12,633.91l.24-.23a2.36,2.36,0,0,0,1.61-2.29,22,22,0,0,0,.29-2.68c0-.48-.06-1,.41-1.34.25.35,0,.83.32,1.22a36.47,36.47,0,0,1,4.69-11.17c4.23-6.45,10.25-9.57,17.92-9.57a2.41,2.41,0,0,1,1.46.26,21,21,0,0,0-13.77,7.45,28,28,0,0,0-5.44,12.33c-.27,1.29-.46,2.59-.63,3.89-.05.41-.28.88.11,1.28.07.38-.27.69-.17,1.07A57,57,0,0,0,797.12,633.91Z"/>
        <path class="cls-27" d="M805.2,661.19a15.51,15.51,0,0,1,.72-5.2.88.88,0,0,1-.15-.85c.6-2.09,1.16-4.19,2.66-5.87,1.69-2.08,4.05-2.55,6.54-2.7a44.86,44.86,0,0,0-2.46,9.33c-.34,1.76-.27,3.57-.72,5.32Z"/>
        <path class="cls-30" d="M781.35,626.47a10.43,10.43,0,0,1,3.42-2.61c.31-.2.61-.23.84.12a75.08,75.08,0,0,0,5,10.8c-1.35.57-2.77,1-4.07,1.67-.51,0-.71-.33-.92-.68-1.38-2.24-2.66-4.53-3.88-6.85A2.77,2.77,0,0,1,781.35,626.47Z"/>
        <path class="cls-19" d="M809.28,643.7a1.31,1.31,0,0,1-1,.93,9.54,9.54,0,0,0-3.4,1.91c-.24.21-.68.58-.68,0,0-1.49-.52-3-.15-4.47a7.73,7.73,0,0,1,.91-3.8c.35-.83.65-1.71,1.65-2,1.59.06,3.2-.31,4.78.18A27.52,27.52,0,0,0,809.28,643.7Z"/>
        <path class="cls-31" d="M784.77,621.52c-.06.46-.44.42-.75.5l-3.13.81c-.6-5.9-.55-11.76,1.18-17.51a2.08,2.08,0,0,1,.59-1.27c.06,2.43,0,4.76.22,7.1A52.67,52.67,0,0,0,784.7,621,3.43,3.43,0,0,1,784.77,621.52Z"/>
        <path class="cls-16" d="M804.16,634.13c-1.19-.56,0-.73.17-1.07a17.51,17.51,0,0,1,5.6-3.19,5.86,5.86,0,0,0,1.66-.87,17.94,17.94,0,0,1,5.68-.89,2.28,2.28,0,0,1,1.1.13c.87.39,1.84,0,2.81.37a30.94,30.94,0,0,0-5.28,1.51c-1.85,1.11-3.89,1.89-5.66,3.15-.66.47-1.16,1.18-2,1.34Z"/>
        <path class="cls-30" d="M818.37,628.24c-1.32.53-2.73.26-4.09.45-.89.12-1.73.85-2.69.31a19.93,19.93,0,0,1,12.5-5,30.26,30.26,0,0,1,4.14.09A30.3,30.3,0,0,0,818.37,628.24Z"/>
        <path class="cls-27" d="M815.66,644.52a16.91,16.91,0,0,0-4.13-.49c2.71-3.73,5.78-7.07,10-9.14A36.87,36.87,0,0,0,815.66,644.52Z"/>
        <path class="cls-32" d="M799.67,627.37a21.48,21.48,0,0,1-.47,4.86c-.33,1.5-.27,1.51-1.84,1.45a35.29,35.29,0,0,1,2.24-11.26Z"/>
        <path class="cls-30" d="M808.21,634.61a18.15,18.15,0,0,1,7.69-4.49,23.53,23.53,0,0,0-3.9,5.19A13.22,13.22,0,0,1,808.21,634.61Z"/>
        <path class="cls-19" d="M799.21,659.2c0,.67,0,1.34,0,2a17,17,0,0,1-3.56,0,1.73,1.73,0,0,1-.38-1.15c-.14-5.15-1.93-9.8-4.18-14.33l-1.24-2.39a1.6,1.6,0,0,1-.14-1.5,14.17,14.17,0,0,1,7-4.09c.58-.22.64.21.67.58a19,19,0,0,1,.22,2.13A76.85,76.85,0,0,0,799,654.86,15.4,15.4,0,0,1,799.21,659.2Z"/>
        <path class="cls-33" d="M799.21,659.2c-.09-2.73-.86-5.37-1.21-8.07a74.85,74.85,0,0,1-.86-9.69c0-1.16-.09-2.31-.16-3.46,0-.09-.21-.17-.32-.25l1.4-.44c.53-.22.57.15.57.5a10.33,10.33,0,0,1-.08,2,7.22,7.22,0,0,1,2-2.91,31.78,31.78,0,0,1,6.07-.67,5.87,5.87,0,0,0-1.34,2,6,6,0,0,0-.77,1.46c-.15.31-.16.75-.65.8a22.24,22.24,0,0,0-2,8.67c0,1.17-.75,2-1.12,3a17.65,17.65,0,0,0-1.4,6.41A2.52,2.52,0,0,1,799.21,659.2Z"/>
        <path class="cls-15" d="M789.69,641.82a12.9,12.9,0,0,0,1.62,3.54,40,40,0,0,1,4.15,12.48,19.75,19.75,0,0,1,.17,3.35c-3.6,0-2.82.55-4.67-2.51a21.94,21.94,0,0,1-3.46-10.1A9.27,9.27,0,0,1,789.69,641.82Z"/>
        <path class="cls-34" d="M781.35,626.47c1,3.72,3.22,6.79,5.21,10a13.05,13.05,0,0,0-6.09,6.95,23.91,23.91,0,0,1-1.86-7.46,12.87,12.87,0,0,1,1.53-7.89A3.84,3.84,0,0,1,781.35,626.47Z"/>
        <path class="cls-35" d="M800.57,636.88c-.71,1.39-1.7,2.61-2.33,4.08.11-1,0-2.05.07-3.05,0-.26.14-.54-.25-.62A6.72,6.72,0,0,1,800.57,636.88Z"/>
        <path class="cls-36" d="M808.43,649.27a27.92,27.92,0,0,0-2.51,6.72,1.42,1.42,0,0,1-.49-1.73,11,11,0,0,1,2.81-5S808.37,649.25,808.43,649.27Z"/>
        <path class="cls-37" d="M803.88,640.47c.47-.75.63-1.71,1.42-2.26a29.64,29.64,0,0,0-1.22,3.81C803.7,641.55,803.92,641,803.88,640.47Z"/>
      </g>
      <path class="cls-30" d="M832.61,661.94H713c4.66-6.89,29.65-12.14,59.79-12.14,18.32,0,34.75,1.94,45.85,5C825.84,656.79,830.79,659.24,832.61,661.94Z"/>
      <path class="cls-30" d="M856.51,660.61a7.62,7.62,0,0,1-.14,1.43H817.48a7.62,7.62,0,0,1-.14-1.43,8.76,8.76,0,0,1,2.26-5.69c3.28-3.87,9.81-6.5,17.32-6.5C847.74,648.42,856.51,653.88,856.51,660.61Z"/>
    </g>
    <g>
      <g>
        <path class="cls-38" d="M-19.35,541.5c88.57-6.25,233.58,1.48,283.86,1.28s266.37-11.33,311.73-15.9S819.76,525.19,913.31,537,1166,542.73,1166,542.73l-.25,10.37s-197.75-.05-245.26-2.52-142.62-16-251.78-15.24S457.1,545.48,457.1,545.48L175.27,551.4l-197.89,2.07s-8.67-11.13,3.27-12Z"/>
        <g>
          <polygon class="cls-39" points="334.1 527.57 356.87 524.62 359.63 607.35 332.6 610.58 334.1 527.57"/>
          <polygon class="cls-40" points="334.1 527.57 354.02 527.93 356.67 607.84 359.63 607.35 356.87 524.62 334.1 527.57"/>
          <path class="cls-41" d="M347.93,541.3a3.37,3.37,0,1,1-3.3-3.6,3.47,3.47,0,0,1,3.3,3.6Z"/>
        </g>
        <g>
          <polygon class="cls-39" points="694.53 509.72 724.46 510.26 715.7 597.21 693 594.28 694.53 509.72"/>
          <polygon class="cls-40" points="694.53 509.72 720.47 511.96 712.52 596.8 715.7 597.21 724.46 510.26 694.53 509.72"/>
          <path class="cls-41" d="M709.17,528.17a3.37,3.37,0,1,1-3.3-3.6,3.45,3.45,0,0,1,3.3,3.6Z"/>
        </g>
        <g>
          <polygon class="cls-39" points="515.73 522.48 545.66 523.02 536.89 609.97 514.19 607.04 515.73 522.48"/>
          <polygon class="cls-40" points="515.73 522.48 541.66 524.72 533.72 609.56 536.89 609.97 545.66 523.02 515.73 522.48"/>
          <path class="cls-41" d="M530.36,540.93a3.37,3.37,0,1,1-3.3-3.6,3.46,3.46,0,0,1,3.3,3.6Z"/>
        </g>
        <g>
          <polygon class="cls-39" points="871.04 512.23 894.54 515.1 893.29 583.75 861.37 583.17 871.04 512.23"/>
          <polygon class="cls-40" points="871.04 512.23 891.62 517.44 890.41 583.7 893.29 583.75 894.54 515.1 871.04 512.23"/>
          <path class="cls-41" d="M885,533a3.37,3.37,0,1,1-3.29-3.6A3.44,3.44,0,0,1,885,533Z"/>
        </g>
        <g>
          <path class="cls-39" d="M1038.42,514.06l26.28,3.56s6.81-1.31,7,12.66-6.87,70.24-6.87,70.24l-23.54-.43Z"/>
          <path class="cls-40" d="M1038.42,514.06l25.7,5.92s6.67,3,4.8,21.15l-6.46,59.35,2.33,0,5.78-52.48s5.2-26.75-4.32-30.31Z"/>
          <path class="cls-41" d="M1059.09,550a3.37,3.37,0,1,1-3.3-3.61,3.44,3.44,0,0,1,3.3,3.61Z"/>
        </g>
      </g>
      <g>
        <polygon class="cls-39" points="179.9 534.72 201.93 535.12 202.83 614.06 183.45 615.2 179.9 534.72"/>
        <polygon class="cls-40" points="181.64 534.72 199.82 537.32 200.96 614.02 202.98 614.06 202.14 535.12 181.64 534.72"/>
        <path class="cls-41" d="M193.34,550.41a3.19,3.19,0,1,1-3.1-3.61,3.38,3.38,0,0,1,3.1,3.61Z"/>
      </g>
      <g>
        <polygon class="cls-39" points="35.16 534.72 57.18 535.12 58.09 614.06 38.7 615.2 35.16 534.72"/>
        <polygon class="cls-40" points="36.89 534.72 55.07 537.32 56.21 614.02 58.24 614.06 57.4 535.12 36.89 534.72"/>
        <path class="cls-41" d="M48.59,550.41a3.19,3.19,0,1,1-3.1-3.61,3.37,3.37,0,0,1,3.1,3.61Z"/>
      </g>
    </g>
    <g>
      <g class="cls-42">
        <g class="cls-43">
          <path class="cls-44" d="M1156.82,600.43,1145,604.64l61.57,3.92,3.34,2.08-3.34,1.46,10.39,3.4,40.79-7.16,30.85,1,295.67,1.2,0-6.07s-413.21-19.94-427.42-4"/>
        </g>
      </g>
      <rect class="cls-44" x="1150.27" y="398.61" width="14.85" height="17.63" transform="translate(747.67 1564.21) rotate(-89.87)"/>
      <path class="cls-45" d="M1167.42,414.87l-18.56,0,0-14.84,18.57,0Zm-17.67-.93,16.79,0,0-14-16.78,0Z"/>
      <rect class="cls-44" x="1578.21" y="399.54" width="14.85" height="17.64" transform="translate(1173.79 1993.09) rotate(-89.87)"/>
      <path class="cls-45" d="M1594.43,415.8l-18.56,0,0-14.84,18.56,0Zm-17.67-.93,16.78,0,0-14-16.78,0Z"/>
      <polygon class="cls-46" points="1573.42 600 1169.33 599.16 1169.91 389.48 1236.33 333.83 1372.27 278.51 1505.03 332.88 1574.01 390.32 1573.42 600"/>
      <rect class="cls-45" x="1195.37" y="364.64" width="1.86" height="229.78"/>
      <rect class="cls-45" x="1222.35" y="344.17" width="1.86" height="251.18"/>
      <rect class="cls-45" x="1249.33" y="327.42" width="1.86" height="267.92"/>
      <rect class="cls-45" x="1276.31" y="313.47" width="1.86" height="281.88"/>
      <rect class="cls-45" x="1303.29" y="303.24" width="1.86" height="292.11"/>
      <rect class="cls-45" x="1330.27" y="294.86" width="1.86" height="301.42"/>
      <rect class="cls-45" x="1357.25" y="279.05" width="1.86" height="317.23"/>
      <rect class="cls-45" x="1384.22" y="279.98" width="1.86" height="317.23"/>
      <rect class="cls-45" x="1411.2" y="291.14" width="1.86" height="306.07"/>
      <rect class="cls-45" x="1438.18" y="306.03" width="1.86" height="291.18"/>
      <rect class="cls-45" x="1464.23" y="315.33" width="1.86" height="281.88"/>
      <rect class="cls-45" x="1491.21" y="326.49" width="1.86" height="271.65"/>
      <rect class="cls-45" x="1518.19" y="343.24" width="1.86" height="254.9"/>
      <rect class="cls-45" x="1545.17" y="362.77" width="1.86" height="235.36"/>
      <path class="cls-47" d="M1573.42,600l-405-.84L1169,389l.12-.1,66.54-55.72,136.16-55.38,133.07,54.5L1574,389.83Zm-403.75-.93,403.4.83.59-209.19-68.83-57.29-132.56-54.28-135.75,55.21-66.26,55.52Z"/>
      <rect class="cls-44" x="1248.06" y="473.22" width="148.6" height="117.73" transform="translate(787.55 1853.35) rotate(-89.88)"/>
      <rect class="cls-48" x="1063.28" y="489.59" width="211.16" height="9.64" transform="translate(671.16 1661.87) rotate(-89.84)"/>
      <path class="cls-49" d="M1173.38,600l-10.57,0,.6-212.09,10.57,0Zm-9.3-.93,9,0,.59-210.27-9,0Z"/>
      <rect class="cls-48" x="1472.61" y="491.45" width="211.16" height="9.64" transform="translate(1077.49 2073.06) rotate(-89.84)"/>
      <path class="cls-45" d="M1583.63,601.86l-10.56,0,.6-212.09,10.57.78Zm-10.22-.93,9,0,.6-210.27-9,0Z"/>
      <polygon class="cls-48" points="1506.73 330.57 1371.87 270.77 1371.4 276.72 1371.84 283.26 1500.27 336.39 1506.27 333.4 1506.73 330.57"/>
      <polygon class="cls-48" points="1507.33 331.04 1500.27 336.39 1594.31 415.31 1605.58 407.35 1507.33 331.04"/>
      <polygon class="cls-48" points="1233.54 328.52 1371.87 270.77 1372.54 276.62 1371.84 283.26 1243.11 335.86 1237.12 332.83 1233.54 328.52"/>
      <polygon class="cls-48" points="1233.54 328.52 1243.11 335.86 1148.63 414.38 1137.41 406.38 1233.54 328.52"/>
      <path class="cls-49" d="M1594.28,415.77l-.25-.22-94-78.87-128.2-53-128.5,52.51-94.69,78.69-11.85-8.44.33-.26,96.24-77.92,138.51-57.82.17.07,134.68,60.1,99.45,76.8ZM1371.84,282.88l.17.07,128.54,53.2,93.78,78.7,10.65-7.52-98.7-75.5-134.4-60.68-138.11,57.66L1138,406.36l10.6,7.56,94.33-78.36Z"/>
      <path class="cls-48" d="M1157.23,597l0,8.6,114.19.23c0-2.83,0-5.67,0-8.6Z"/>
      <path class="cls-48" d="M1585.19,597.21l-211.29-.44c0,2.85,0,6.74,0,9.73l211.29-.48Z"/>
      <path class="cls-49" d="M1585.17,596.28H1373.91c0,.59,0,.88,0,1l210.34,0v8.37h.93Z"/>
      <path class="cls-48" d="M1157.43,605.58V597h-.93v8.37h116.78c0,1,0,.75,0,.93Z"/>
      <g>
        <rect class="cls-48" x="1299.22" y="361.8" width="47.22" height="107.78" transform="translate(903.45 1737.35) rotate(-89.84)"/>
        <path class="cls-45" d="M1376.65,439.41l-108.71-.22.13-47.22,108.71.22Zm-107.91,0,107.11.23.13-46.74-107.11-.23Z"/>
        <rect class="cls-44" x="1305.25" y="368.76" width="35.16" height="94.79" transform="translate(902.88 1737.78) rotate(-89.84)"/>
        <path class="cls-45" d="M1370.17,433.83l-94.79-.2.1-36.08,94.79.19Zm-94.89-.93,94.06.19.1-34.61-94.06-.19Z"/>
      </g>
      <g>
        <rect class="cls-48" x="1428.23" y="455.98" width="47.22" height="107.78" transform="translate(937.93 1960.29) rotate(-89.84)"/>
        <path class="cls-45" d="M1506.59,533.6l-108.71-.23.14-47.22,108.71.22Zm-107.91,0,107.12.22.12-46.74-107.11-.22Z"/>
        <rect class="cls-44" x="1434.26" y="462.94" width="35.16" height="94.79" transform="translate(937.34 1960.71) rotate(-89.84)"/>
        <path class="cls-45" d="M1499.18,528l-94.79-.2.1-36.09,94.79.21Zm-94-.94,94.06.2.1-34.62-94.06-.19Z"/>
      </g>
      <polygon class="cls-44" points="1390.69 462.32 1256.77 461.84 1256.79 451.15 1390.7 451.63 1390.69 462.32"/>
      <polygon class="cls-48" points="1275.78 463.55 1212.12 451.16 1211.65 617.73 1275.38 605.79 1275.78 463.55"/>
      <path class="cls-45" d="M1211.19,618.4l.47-167.92,64.65,12.57-.4,143.23Zm1.86-166.63-.46,165.35,62.79-11.76.4-141.39Z"/>
      <polygon class="cls-50" points="1268.29 471.71 1220.49 464.98 1220.1 603.94 1267.94 597.51 1268.29 471.71"/>
      <path class="cls-45" d="M1219.56,604.79l.39-140.67,48.92,6.89-.36,127.2-.34,0Zm.93-139.21-.38,137.76L1267,597l.35-124.86Z"/>
      <polygon class="cls-51" points="1267.96 471.4 1265.32 471.04 1219.56 596.38 1219.54 604.26 1222.68 603.93 1267.94 478.97 1267.96 471.4"/>
      <path class="cls-45" d="M1219.56,604.76l0-8.38,45.94-125.85,3.33.46,0,8-45.42,125.39Zm.93-8.49,0,7.42,2.42-.26,45-124.35,0-7.21-2-.27Z"/>
      <polygon class="cls-51" points="1267.96 590.93 1223.13 465.26 1220.49 464.98 1220.47 474.38 1265.35 597.84 1267.94 597.51 1267.96 590.93"/>
      <path class="cls-45" d="M1264.65,598.34l-.11-.28-45-123.79,0-9.8,3.34.36.08.21,44.93,126,0,6.89Zm-44.18-123.85,44.63,122.78L1267,597V590.8l-44.6-125-1.93-.21Z"/>
      <polygon class="cls-44" points="1205.15 449.61 1212.12 449.74 1212.57 618.42 1204.68 618.82 1205.15 449.61"/>
      <path class="cls-49" d="M1212.57,618.42l-7.89-.36.48-167.71,7.89.14Zm-7.42-1.54,6,.28.46-165.46-6-.11Z"/>
      <g class="cls-42">
        <g class="cls-52">
          <polygon class="cls-44" points="1164.23 421.72 1246.94 349.84 1372.89 299.5 1497.16 350.1 1583.31 421.72 1583.31 405.31 1500.89 336.15 1372.36 282.95 1243.28 335.56 1163.33 401.98 1164.23 421.72"/>
        </g>
      </g>
    </g>
  </g>
</svg>
