<svg id="Layer_1" data-name="Layer 1" xmlns="http://www.w3.org/2000/svg" xmlns:xlink="http://www.w3.org/1999/xlink" width="1600" height="900" viewBox="0 0 1600 900">
  <defs>
    <style>
      .cls-1 {
        fill: none;
      }

      .cls-2 {
        clip-path: url(#clip-path);
      }

      .cls-3 {
        clip-path: url(#clip-path-2);
      }

      .cls-4 {
        fill: url(#linear-gradient);
      }

      .cls-36, .cls-5 {
        fill: #bfd9f1;
      }

      .cls-5 {
        opacity: 0.56;
      }

      .cls-6 {
        fill: #207d78;
        opacity: 0.36;
      }

      .cls-7 {
        fill: url(#linear-gradient-2);
      }

      .cls-8 {
        fill: url(#linear-gradient-3);
      }

      .cls-9 {
        fill: #6c8a3b;
      }

      .cls-10 {
        fill: #c4926c;
      }

      .cls-11 {
        fill: #7c451d;
        opacity: 0.89;
      }

      .cls-12 {
        fill: #b6885e;
      }

      .cls-13 {
        fill: #8b522b;
      }

      .cls-14 {
        fill: #5c2d1f;
      }

      .cls-15 {
        fill: #3a1a0b;
      }

      .cls-16 {
        fill: #220c00;
      }

      .cls-17 {
        fill: #f05a2b;
      }

      .cls-18 {
        fill: url(#linear-gradient-4);
      }

      .cls-19 {
        fill: url(#linear-gradient-5);
      }

      .cls-20 {
        fill: #8a96a1;
      }

      .cls-21 {
        fill: #2e3d49;
      }

      .cls-22 {
        fill: #1c3f1d;
      }

      .cls-23 {
        fill: #0b1e14;
      }

      .cls-24 {
        fill: #152c1a;
      }

      .cls-25 {
        fill: #122416;
      }

      .cls-26 {
        fill: #184226;
      }

      .cls-27 {
        opacity: 0.62;
      }

      .cls-28 {
        clip-path: url(#clip-path-3);
      }

      .cls-29 {
        opacity: 0.59;
      }

      .cls-30 {
        clip-path: url(#clip-path-4);
      }

      .cls-31 {
        fill: #2a7b44;
      }

      .cls-32 {
        fill: #733c2d;
      }

      .cls-33 {
        clip-path: url(#clip-path-5);
      }

      .cls-34 {
        clip-path: url(#clip-path-6);
      }

      .cls-35 {
        fill: url(#linear-gradient-6);
      }

      .cls-37 {
        fill: url(#linear-gradient-7);
      }

      .cls-38 {
        fill: url(#linear-gradient-8);
      }

      .cls-39 {
        fill: url(#linear-gradient-9);
      }

      .cls-40 {
        fill: #392512;
      }

      .cls-41 {
        fill: #1c0e2c;
      }

      .cls-42 {
        fill: url(#linear-gradient-10);
      }

      .cls-43 {
        fill: #895c3a;
      }

      .cls-44 {
        fill: url(#linear-gradient-11);
      }

      .cls-45 {
        fill: url(#linear-gradient-12);
      }

      .cls-46 {
        fill: url(#linear-gradient-13);
      }

      .cls-47, .cls-80 {
        opacity: 0.65;
      }

      .cls-48 {
        fill: url(#linear-gradient-14);
      }

      .cls-49 {
        fill: url(#linear-gradient-15);
      }

      .cls-50 {
        fill: url(#linear-gradient-16);
      }

      .cls-51 {
        fill: #2a6b2a;
      }

      .cls-52 {
        fill: #512c10;
      }

      .cls-53 {
        fill: #229f49;
      }

      .cls-54, .cls-55 {
        fill: #267f5f;
      }

      .cls-54, .cls-58 {
        opacity: 0.17;
      }

      .cls-56 {
        fill: #182d25;
      }

      .cls-56, .cls-64 {
        opacity: 0.31;
      }

      .cls-57 {
        fill: #fbf5b6;
      }

      .cls-59 {
        fill: url(#linear-gradient-17);
      }

      .cls-60 {
        fill: #aa1a55;
      }

      .cls-61 {
        opacity: 0.12;
        fill: url(#linear-gradient-18);
      }

      .cls-62 {
        fill: #a32547;
      }

      .cls-63 {
        fill: #d82364;
      }

      .cls-65 {
        fill: url(#linear-gradient-19);
      }

      .cls-66 {
        fill: url(#linear-gradient-20);
      }

      .cls-67 {
        fill: url(#linear-gradient-21);
      }

      .cls-68 {
        fill: #166c83;
      }

      .cls-69 {
        opacity: 0.21;
      }

      .cls-70 {
        fill: url(#linear-gradient-22);
      }

      .cls-71 {
        fill: url(#linear-gradient-23);
      }

      .cls-72 {
        fill: url(#linear-gradient-24);
      }

      .cls-73 {
        fill: url(#linear-gradient-25);
      }

      .cls-74 {
        fill: url(#linear-gradient-26);
      }

      .cls-75 {
        fill: url(#linear-gradient-27);
      }

      .cls-76 {
        fill: url(#linear-gradient-28);
      }

      .cls-77 {
        fill: url(#linear-gradient-29);
      }

      .cls-78 {
        fill: #218bb1;
      }

      .cls-79 {
        fill: #1ebad0;
      }

      .cls-80 {
        fill: #999093;
        stroke: #383436;
      }

      .cls-80, .cls-82 {
        stroke-miterlimit: 10;
      }

      .cls-81 {
        fill: url(#linear-gradient-30);
      }

      .cls-82 {
        fill: #eaeaea;
        stroke: #333232;
        stroke-width: 0.25px;
      }

      .cls-83 {
        fill: #d1d1d1;
      }

      .cls-84 {
        fill: #fff;
      }

      .cls-85 {
        fill: #17405e;
      }

      .cls-86 {
        clip-path: url(#clip-path-7);
      }

      .cls-87 {
        fill: #6cbd46;
      }

      .cls-88 {
        fill: url(#linear-gradient-31);
      }

      .cls-89 {
        fill: url(#linear-gradient-32);
      }

      .cls-90 {
        fill: url(#linear-gradient-33);
      }
    </style>
    <clipPath id="clip-path">
      <rect class="cls-1" x="800" width="800" height="900"/>
    </clipPath>
    <clipPath id="clip-path-2">
      <rect class="cls-1" x="369.73" y="-0.15" width="1600.54" height="900.3"/>
    </clipPath>
    <linearGradient id="linear-gradient" x1="-3394.92" y1="-33.5" x2="-3394.92" y2="932.84" gradientTransform="matrix(-1, 0, 0, 1, -2262, 0)" gradientUnits="userSpaceOnUse">
      <stop offset="0" stop-color="#9fb6de"/>
      <stop offset="0.23" stop-color="#bbcae7"/>
      <stop offset="0.43" stop-color="#d7def0"/>
    </linearGradient>
    <linearGradient id="linear-gradient-2" x1="1355.42" y1="48.68" x2="2711.69" y2="48.68" gradientUnits="userSpaceOnUse">
      <stop offset="0" stop-color="#a2b8df"/>
      <stop offset="0.03" stop-color="#a6bbe0"/>
      <stop offset="0.21" stop-color="#bbcae7"/>
      <stop offset="0.42" stop-color="#cbd5ec"/>
      <stop offset="0.66" stop-color="#d4dcef"/>
      <stop offset="1" stop-color="#d7def0"/>
    </linearGradient>
    <linearGradient id="linear-gradient-3" x1="1355.42" y1="36.7" x2="2711.69" y2="36.7" xlink:href="#linear-gradient-2"/>
    <linearGradient id="linear-gradient-4" x1="-206" y1="125.89" x2="1147.09" y2="125.89" gradientUnits="userSpaceOnUse">
      <stop offset="0" stop-color="#a2b8df"/>
      <stop offset="1" stop-color="#d7def0"/>
    </linearGradient>
    <linearGradient id="linear-gradient-5" x1="-206" y1="142.9" x2="1147.09" y2="142.9" xlink:href="#linear-gradient-4"/>
    <clipPath id="clip-path-3">
      <rect class="cls-1" x="269.54" y="543.34" width="55.03" height="315.43" transform="translate(-290.49 216.8) rotate(-27.54)"/>
    </clipPath>
    <clipPath id="clip-path-4">
      <rect class="cls-1" x="281.55" y="671.39" width="39.26" height="164.08" transform="translate(-314.24 224.64) rotate(-27.54)"/>
    </clipPath>
    <clipPath id="clip-path-5">
      <rect class="cls-1" width="800" height="900"/>
    </clipPath>
    <clipPath id="clip-path-6">
      <rect class="cls-1" x="-190" width="1600" height="900"/>
    </clipPath>
    <linearGradient id="linear-gradient-6" x1="616.99" y1="-185.44" x2="616.99" y2="309.04" gradientUnits="userSpaceOnUse">
      <stop offset="0.01" stop-color="#89a4d5"/>
      <stop offset="1" stop-color="#d7def0"/>
    </linearGradient>
    <linearGradient id="linear-gradient-7" x1="617.36" y1="912.79" x2="617.36" y2="305.57" gradientUnits="userSpaceOnUse">
      <stop offset="0.32" stop-color="#89c159"/>
      <stop offset="0.48" stop-color="#85bd58"/>
      <stop offset="0.64" stop-color="#7ab355"/>
      <stop offset="0.8" stop-color="#67a151"/>
      <stop offset="0.95" stop-color="#4c884b"/>
      <stop offset="1" stop-color="#417e48"/>
    </linearGradient>
    <linearGradient id="linear-gradient-8" x1="398" y1="-158.12" x2="854.11" y2="631.89" gradientUnits="userSpaceOnUse">
      <stop offset="0.02" stop-color="#6aa587"/>
      <stop offset="0.59" stop-color="#4c7d7d"/>
      <stop offset="0.7" stop-color="#49797c"/>
      <stop offset="0.82" stop-color="#406c79"/>
      <stop offset="0.93" stop-color="#315673"/>
      <stop offset="1" stop-color="#26476f"/>
    </linearGradient>
    <linearGradient id="linear-gradient-9" x1="509.32" y1="54.84" x2="509.32" y2="-483.22" gradientUnits="userSpaceOnUse">
      <stop offset="0" stop-color="#3db049"/>
      <stop offset="1" stop-color="#a1c23a"/>
    </linearGradient>
    <linearGradient id="linear-gradient-10" x1="632.13" y1="442.7" x2="632.13" y2="220.25" gradientUnits="userSpaceOnUse">
      <stop offset="0" stop-color="#8a5f3c"/>
      <stop offset="1" stop-color="#a87c51"/>
    </linearGradient>
    <linearGradient id="linear-gradient-11" x1="1118.4" y1="427.55" x2="1118.43" y2="427.55" gradientUnits="userSpaceOnUse">
      <stop offset="0.03" stop-color="#89c159"/>
      <stop offset="0.2" stop-color="#77b155"/>
      <stop offset="0.52" stop-color="#5a954e"/>
      <stop offset="0.8" stop-color="#47844a"/>
      <stop offset="1" stop-color="#417e48"/>
    </linearGradient>
    <linearGradient id="linear-gradient-12" x1="532.21" y1="427.63" x2="532.24" y2="427.63" xlink:href="#linear-gradient-11"/>
    <linearGradient id="linear-gradient-13" x1="370.76" y1="444.01" x2="1483.72" y2="444.01" xlink:href="#linear-gradient-11"/>
    <linearGradient id="linear-gradient-14" x1="848.12" y1="1737.82" x2="848.14" y2="1737.82" gradientTransform="matrix(1.28, 0, 0, 1.5, -25.33, -1869)" xlink:href="#linear-gradient-11"/>
    <linearGradient id="linear-gradient-15" x1="310.69" y1="1738.23" x2="310.71" y2="1738.23" gradientTransform="matrix(1.28, 0, 0, 1.5, -25.33, -1869)" xlink:href="#linear-gradient-11"/>
    <linearGradient id="linear-gradient-16" x1="162.66" y1="1752.3" x2="1183.05" y2="1752.3" gradientTransform="matrix(1.28, 0, 0, 1.5, -25.33, -1869)" xlink:href="#linear-gradient-11"/>
    <linearGradient id="linear-gradient-17" x1="-101.25" y1="526.49" x2="642.09" y2="526.49" gradientUnits="userSpaceOnUse">
      <stop offset="0" stop-color="#3c2417"/>
      <stop offset="1" stop-color="#3c2417"/>
    </linearGradient>
    <linearGradient id="linear-gradient-18" x1="49.94" y1="504.05" x2="499.81" y2="504.05" xlink:href="#linear-gradient-17"/>
    <linearGradient id="linear-gradient-19" x1="432.35" y1="385.28" x2="660.93" y2="385.28" xlink:href="#linear-gradient-17"/>
    <linearGradient id="linear-gradient-20" x1="525.53" y1="449.13" x2="701.85" y2="449.13" xlink:href="#linear-gradient-17"/>
    <linearGradient id="linear-gradient-21" x1="358.35" y1="471.42" x2="642.09" y2="471.42" xlink:href="#linear-gradient-17"/>
    <linearGradient id="linear-gradient-22" x1="128.75" y1="637.45" x2="128.79" y2="637.45" xlink:href="#linear-gradient-17"/>
    <linearGradient id="linear-gradient-23" x1="118.37" y1="680.54" x2="147.57" y2="680.54" xlink:href="#linear-gradient-17"/>
    <linearGradient id="linear-gradient-24" x1="49.94" y1="572.13" x2="499.81" y2="572.13" xlink:href="#linear-gradient-17"/>
    <linearGradient id="linear-gradient-25" x1="118.37" y1="574.85" x2="148.18" y2="574.85" xlink:href="#linear-gradient-17"/>
    <linearGradient id="linear-gradient-26" x1="49.94" y1="585.9" x2="499.81" y2="585.9" xlink:href="#linear-gradient-17"/>
    <linearGradient id="linear-gradient-27" x1="192.83" y1="595.58" x2="217.03" y2="595.58" xlink:href="#linear-gradient-17"/>
    <linearGradient id="linear-gradient-28" x1="49.94" y1="597.18" x2="499.81" y2="597.18" xlink:href="#linear-gradient-17"/>
    <linearGradient id="linear-gradient-29" x1="265.15" y1="612.44" x2="287.13" y2="612.44" xlink:href="#linear-gradient-17"/>
    <linearGradient id="linear-gradient-30" x1="890.74" y1="514.9" x2="936.88" y2="514.9" gradientTransform="translate(-416.74 -328.26) scale(1 1.41)" xlink:href="#linear-gradient-17"/>
    <clipPath id="clip-path-7">
      <rect class="cls-1" x="-1850" width="1600" height="900"/>
    </clipPath>
    <linearGradient id="linear-gradient-31" x1="140.99" y1="408.83" x2="7.33" y2="137.91" gradientTransform="matrix(-0.98, 0.17, 0.17, 0.98, -67.93, -357.39)" gradientUnits="userSpaceOnUse">
      <stop offset="0" stop-color="#0d5f3f"/>
      <stop offset="0.03" stop-color="#127251"/>
      <stop offset="0.08" stop-color="#1fa37f"/>
      <stop offset="0.1" stop-color="#24b792"/>
      <stop offset="0.67" stop-color="#24b792"/>
    </linearGradient>
    <linearGradient id="linear-gradient-32" x1="-661.07" y1="37.63" x2="5.76" y2="37.63" gradientUnits="userSpaceOnUse">
      <stop offset="0.09" stop-color="#106e5b"/>
      <stop offset="0.3" stop-color="#0e8168"/>
      <stop offset="0.4" stop-color="#0d8c6f"/>
      <stop offset="0.5" stop-color="#139673"/>
      <stop offset="0.67" stop-color="#22b27d"/>
      <stop offset="0.68" stop-color="#23b37e"/>
    </linearGradient>
    <linearGradient id="linear-gradient-33" x1="-711.1" y1="68.91" x2="79" y2="14.23" gradientUnits="userSpaceOnUse">
      <stop offset="0.21" stop-color="#0b6848"/>
      <stop offset="0.36" stop-color="#127b57"/>
      <stop offset="0.55" stop-color="#1c986d"/>
      <stop offset="0.6" stop-color="#279e6e"/>
      <stop offset="0.7" stop-color="#44ad71"/>
      <stop offset="0.8" stop-color="#66be75"/>
    </linearGradient>
  </defs>
  <g>
    <g id="SC_06">
      <g class="cls-2">
        <g class="cls-3">
          <path class="cls-4" d="M1805.42,861.82c-1-9.24-1.8-18.47-2.84-27.69q-2.19-14.75-4.64-29.44c-4.14-25-8.58-49.92-12-75-4.38-32.14-8.67-64.21-8.73-96.7a83.84,83.84,0,0,1,11.5-42.51q6.58-8.54,13.18-17.05a84.24,84.24,0,0,1,37.17-21.67l22.39-3a63.61,63.61,0,0,1,27.21,4.79l9.41-7.26a62.6,62.6,0,0,1,31.31-10,42.36,42.36,0,0,1,22.4,0,62.67,62.67,0,0,1,31.32,10l8.83,6.83V-33.5h-1718V932.84H1802.55l6.63-39.79C1807.8,882.66,1806.52,872.24,1805.42,861.82Z"/>
          <path class="cls-5" d="M1214,113.72c-2.9-.63-5.8-1.27-8.69-1.94Q1209.59,112.79,1214,113.72Z"/>
          <path class="cls-5" d="M2016.39,103.8q-.37-3-.76-5.9c-1.05-7.75-2.3-15.5-2.84-23.32,0-.29,0-.58,0-.87-290.44,32.86-597,83.54-798.77,40C1452.82,166.14,1751.79,126.63,2016.39,103.8Z"/>
          <path class="cls-6" d="M1637,195c-35.38,4-148.34,22.71-157.5,24.14-6.47,1-87.38-18.76-134.35-30.46a176.14,176.14,0,0,0-67.49-3.47L821.53,250.06l-58.91-21.78a99.32,99.32,0,0,0-45.8-5.56L608.82,235c-35.89-27.73-122-51.43-159.06-60.74A53.53,53.53,0,0,0,416,177a1038.52,1038.52,0,0,1-98.14,35.17q.75,13.06,1.26,26.14c2.13,54.51,1.39,109-.14,163.5l1713,99.1,6.1-240.17S1670.35,191.25,1637,195Z"/>
          <path class="cls-7" d="M1364.16,49.51c-2.92-.54-5.84-1.09-8.74-1.66C1358.31,48.43,1361.23,49,1364.16,49.51Z"/>
          <path class="cls-8" d="M2011.88,32.18c0-.3,0-.61,0-.92q-1.26-9.42-2.39-18.94c0-2.06.08-4.1.18-6.14-240.48,37.49-477.69,73.74-645.47,43.33C1558.77,85.48,1790.72,60,2011.88,32.18Z"/>
          <path class="cls-9" d="M1171.93,270.93C779.77,266.38,322,294.46,322,294.46v605H1818.89l4.69-30.06q-2-16.26-3.67-32.56c-1-9.62-1.76-19.25-2.78-28.85-1.41-10.25-2.94-20.47-4.52-30.69-4-26-8.36-52-11.69-78.18-4.26-33.5-8.45-66.92-8.5-100.79a92,92,0,0,1,11.21-44.31l12.84-17.77a81.07,81.07,0,0,1,36.24-22.58l21.83-3.13a58.44,58.44,0,0,1,26.53,5l9.17-7.57a58.35,58.35,0,0,1,30.53-10.42,38.79,38.79,0,0,1,21.83,0A58.42,58.42,0,0,1,1993.14,508l16.62,13.73a67,67,0,0,1,5.24,5.85V314.9S1564.1,275.48,1171.93,270.93Z"/>
          <path class="cls-5" d="M1221.49,57.62c2.87.76,5.75,1.52,8.6,2.3C1227.25,59.13,1224.38,58.37,1221.49,57.62Z"/>
          <path class="cls-5" d="M336.32,38.23V70.87c315.23-18.3,665.71-70,885.17-13.25C959.89-11,620.29,29.74,336.32,38.23Z"/>
          <path class="cls-10" d="M2038.08,373.25c-65.71-9.31-133.57-10.2-200.53-11l-727.73-8.35L750.45,349.8c-111-1.27-234.54-15.26-344.25-1.06-37.82,4.9-77,8.11-116.28,11.51-2.29,27-5.05,54-8.1,80.93a87,87,0,0,1,6.5,37q0,62.06.46,124.11.86,105.75,3.73,211.49c69.09,44,159.7,63.22,248,65,97.67,1.93,194.17-15.52,289.52-32.86,42.59,50.64,112,83,184.44,100.07s148.47,20.28,223.75,23.19c78.69,3,162.58,4.84,230.17-28.12,28.26-13.79,52.22-33.09,81.55-45.29,69-28.71,151.63-13.08,228.4-4.45,46,5.18,97.36,5.68,140.64-5.91-2.78-17.82-5.45-35.67-7.75-53.57-5.64-43.87-11.18-87.63-11.25-132a119.52,119.52,0,0,1,14.83-58l17-23.27a107.35,107.35,0,0,1,48-29.56l28.89-4.11a78,78,0,0,1,35.11,6.55q2.25-1.85,4.51-3.68C2042,516.42,2039.06,444.85,2038.08,373.25Z"/>
          <path class="cls-11" d="M1792.67,603.84C1664.16,543.36,1524.16,510,1383.38,492,1234.08,473,1083.25,471,932.79,469c-46.27,5.76-91,12.77-136.76,21.51-16.12,3.08-32.38,6.4-47.28,13.35s-38.39,19-45.46,34a403,403,0,0,0-103.11,68c-6.16,5.6-12.59,12.32-12.77,20.69-.23,11.18,10.5,19.07,20.33,24.2a249.55,249.55,0,0,0,121.21,28c6.86,20.58,25.84,35.08,46.12,42.23s42.09,8.13,63.52,9.72a1037.23,1037.23,0,0,1,204.35,36c40,11.26,82,25,122.11,14.34,23.2-6.18,43.89-20.2,67.33-25.4,22.88-5.08,46.64-1.41,69.95,1.06a666.35,666.35,0,0,0,232.53-16.53c53.09,21.22,117.52,4.64,158.63-35.41a254.13,254.13,0,0,0,82.18-6.82C1915,661.5,1790.42,606.76,1792.67,603.84Z"/>
          <g>
            <ellipse class="cls-12" cx="1461.67" cy="447.41" rx="31.93" ry="10.3"/>
            <ellipse class="cls-12" cx="1535.65" cy="453.31" rx="19.43" ry="7.66"/>
            <ellipse class="cls-12" cx="1339.28" cy="422.95" rx="11.54" ry="7.4"/>
          </g>
          <ellipse class="cls-13" cx="1132.55" cy="645.46" rx="30.06" ry="9.23"/>
          <g>
            <path class="cls-14" d="M1422.94,469.89c-7.66-2.4-17.39-.73-22.72,3.9,4.2-5.46,2.14-13-4.62-16.92s-17.42-3.73-23.91.41c3.9-8.54-3.17-18.87-15-21.84s-26.22,2-30.54,10.39c-7.09-7.81-24.34-10.47-36-6.57a13.59,13.59,0,0,0,.2-4.67,11.28,11.28,0,0,0-8.84-9c-5.15-1.21-11.8,1.53-11.63,5.43-7.87-9.81-26.67-14.12-41-9.39-4.88,1.62-9.69,4.19-15,3.66-3.71-.37-6.76-2.2-9.92-3.65-16.42-7.52-40.54-4.38-52.27,6.82-8.61-6.43-22-9.34-34.1-7.41a44.54,44.54,0,0,0-10.73,3.11,28.76,28.76,0,0,0-8-1.57,48.87,48.87,0,0,0-24.42,4.82c-2.81-2.07-7.5-1.14-10.75.49a22.56,22.56,0,0,0-3.7,2.28c-.82.1-1.65.22-2.46.37-11.91,2.22-21.66,9.6-24.17,18.29-7.88-5.49-20-7.58-30.46-5.25s-18.86,9-21.1,16.69c-12.5-2.4-26.51-.3-36.66,5.49s-16.2,15.15-15.82,24.48c7.6,3.47,15.66,6.4,23.87,3.75s25.27,7.13,32.61,3.38c29.63-15.15,56-35.21,91.5-40.86,28.36-4.51,57.25-9.05,86.18-7.27,15,.92,29.66,3.53,44.61,4.62,25.48,1.85,51.69-.69,76.47,4,36.48,6.86,64.43,28.22,99.55,38.09,9.46,2.66,19.8,4.47,29.73,3s19.21-7,20.5-14.3C1435.54,478.56,1430.6,472.29,1422.94,469.89Z"/>
            <path class="cls-15" d="M1447.74,525.11c-.93-14.16-15.14-25.67-28.52-35.84-6.54-5-13.39-10.1-22.17-12.53s-20.07-1.31-25.32,4.41c6.84-11-5.49-24.33-21-28.27s-32.37-1.22-48.26,1.52c-9.81-9-20.25-18.36-34.68-22.76s-34-1.77-40.69,8.63c-6.62-9.45-20.63-15.8-35-15.84s-28.32,6.23-34.92,15.64c-16.48-8.49-38-11.41-57.34-7.78s-36.37,13.74-45.32,27c-14.07-6.94-33.16-5.9-48.38-.57s-27.44,14.34-39.34,23.17a3.28,3.28,0,0,1-.31.2c-1.89.36-3.76.77-5.61,1.2-10,2.28-20.19,5-27.88,10.27-8,5.29-11.54,13.16-9.15,20.86-12.29,1.47-25.66,6.51-29.74,16-4.65,10.86,10.27,28.69,27.08,22.09a52.63,52.63,0,0,0,10.82-6c10.74,8.92,28.71,13.8,44.78,16.84,67.07,12.68,136.75,14.91,205.84,17.07,84.19,2.64,169.49,5.22,251.73-8.08,16.32-2.64,34.56-7.18,41-18.6C1482.82,540.8,1466.62,524.09,1447.74,525.11Z"/>
            <path class="cls-16" d="M1434.25,506.31c-10.93-8.18-26.39-13-41.93-13.14-9.18-.06-18.73,1.4-27.29-1.09-6.37-1.85-11.38-5.69-17.74-7.55s-15.6-.39-16.62,4.54c-10.62-13.28-37.09-18.12-54.69-10-1.29-6.89-9.13-12.91-18.49-14.19s-19.49,2.3-23.89,8.42c-7.3-9.09-20.7-15.44-35-16.57s-29.05,3-38.59,10.71c-5.23-6.71-16.25-10.77-26.66-9.82s-19.57,6.85-22.16,14.28c-6.35-6.57-18.6-9.74-29.08-7.54S1063.74,474,1063.32,482a84.41,84.41,0,0,0-28.32,3.84l2.28-2c-6.84-4.32-17-5.6-25.32-3.19s-14.44,8.4-15.25,14.94c-12.86-1-23.68,9-22.32,18.44s11.87,17.11,23.8,20.85,25.16,4.21,38.07,4.57c69.71,1.9,139.46,1.46,209.18,1l158-1c8.08-.05,16.32-.12,23.93-2.05s14.59-6.09,16.62-11.8C1446.4,518.71,1441.11,511.45,1434.25,506.31Z"/>
            <path class="cls-14" d="M1202.13,432.71a5.93,5.93,0,0,1,3.21,0,2.67,2.67,0,0,1,1.57,3c-.62,4.23-9.5,9-14.21,5.49C1186.29,436.44,1197.78,433.57,1202.13,432.71Z"/>
            <path class="cls-14" d="M1107.75,439.21c1.86-.41,4.13-.6,5.5.46,1.55,1.2,1,3.26-.16,4.71-1.77,2.26-4.55,3.93-7.25,5.55-3.37,2-15.63,7.88-14.53.3C1092.11,444.68,1101.59,440.57,1107.75,439.21Z"/>
            <path class="cls-14" d="M1146.13,438.74c1,.37,2.16,1.11,2,1.9a.74.74,0,0,1-.08.22c-.47.83-2,.78-3.14.56C1139.48,440.37,1140.86,436.86,1146.13,438.74Z"/>
          </g>
          <g>
            <path class="cls-9" d="M1569.26,439.74c-2,7-5.91,7.27-10.61,7.09s-8.41-.7-6.21-7.73c1.11-3.52,5.55-11.1,9.53-17.82l7.59-12.56S1571.25,432.7,1569.26,439.74Z"/>
            <path class="cls-9" d="M1551.51,435c2.13,7,.71,11.52-4,11.69s-3.93-3.06-5.54-10.11c-3.76-16.3-15.44-22.55-15.43-22.56s5.57,3.52,11.56,7.88S1550.43,431.53,1551.51,435Z"/>
            <path class="cls-9" d="M1558.8,433.38c0,12.89,12.74,13.54,3.77,13.56s-16.37-.69-16.1-13.59c.14-6.44,4.36-20.5,8.19-32.94s7.43-23.3,7.43-23.3l-1.59,23.3C1559.68,412.86,1558.79,426.93,1558.8,433.38Z"/>
          </g>
          <path class="cls-17" d="M1542.78,470.66s-16.74-28.17,12.46-29.35S1567.85,471,1567.85,471s-3.78-8.65-9.83-.33C1558,470.66,1550.91,460.93,1542.78,470.66Z"/>
          <path class="cls-18" d="M338.34,119.08c1.25,10,2.54,20,3.81,30.06,290.52-21.13,597.31-58.85,796.34-7.39C902.55,79.87,603.15,106.94,338.34,119.08Z"/>
          <path class="cls-19" d="M1138.49,141.75c2.87.76,5.75,1.52,8.6,2.3C1144.25,143.26,1141.38,142.5,1138.49,141.75Z"/>
          <g>
            <ellipse class="cls-12" cx="575.16" cy="430.51" rx="31.93" ry="10.3"/>
            <ellipse class="cls-12" cx="649.14" cy="436.41" rx="19.43" ry="7.66"/>
            <ellipse class="cls-12" cx="884.7" cy="431.57" rx="24.03" ry="11.36"/>
            <ellipse class="cls-12" cx="976.44" cy="423.38" rx="16.05" ry="7.13"/>
            <ellipse class="cls-12" cx="452.77" cy="406.04" rx="11.54" ry="7.4"/>
          </g>
          <ellipse class="cls-13" cx="805.98" cy="631.08" rx="30.06" ry="9.23"/>
          <path class="cls-14" d="M1519,592.25c0,5.83-11.09,6.71-16.46,7.49-4.24.61-10.18,2.06-12.62-1.62-3.41-5.13,2.72-12.72,9.53-13.57C1505.38,583.81,1519,586.09,1519,592.25Z"/>
          <path class="cls-14" d="M1539.9,597.73a2.84,2.84,0,0,1,.85,3.21c-2.22,4.64-14.77,1.74-15.78-2.34C1523.35,592,1536.94,594.81,1539.9,597.73Z"/>
          <path class="cls-14" d="M1590.52,598.42c2.52-.26,5.28.17,7.06,1.57s2.17,3.89.41,5.31a6.83,6.83,0,0,1-5.14,1,19.71,19.71,0,0,1-5-1.75c-1.83-.84-9-3-6.43-5C1581.83,599.25,1589.58,598.51,1590.52,598.42Z"/>
          <path class="cls-14" d="M1347.59,448.17c-.67-.94.34-2.18,1.66-2.51a8.31,8.31,0,0,1,4.07.32c2.43.65,5,1.63,6,3.48.8,1.61,0,3.58-1.83,4.6a7.27,7.27,0,0,1-6.31.15,4.85,4.85,0,0,1-3-4.36l-1,.78"/>
          <path class="cls-14" d="M1440.24,638.48a4.84,4.84,0,0,1,2.53,3.62,2.67,2.67,0,0,1-.63,1.86c-3.05,3.64-8.91,1.57-9.11-2.15S1436.13,636.05,1440.24,638.48Z"/>
          <path class="cls-14" d="M1419.51,649.24c-.48-1.42,1.12-2.93,3-3.12a5.44,5.44,0,0,1,4.72,2,3.77,3.77,0,0,1-.89,5.45c-1.88,1.34-5.23,1.28-6.85-.25s-.84-4.25,1.56-4.94"/>
          <g>
            <path class="cls-9" d="M694.89,486.36c-2,8.09-5.91,8.35-10.6,8.15s-8.42-.81-6.21-8.88c1.1-4,5.54-12.74,9.52-20.46l7.59-14.42S696.88,478.28,694.89,486.36Z"/>
            <path class="cls-9" d="M677.14,481c2.14,8.07.71,13.22-4,13.41s-3.93-3.51-5.54-11.6c-3.76-18.72-15.44-25.89-15.43-25.9s5.57,4,11.56,9.05S676.07,476.94,677.14,481Z"/>
            <path class="cls-9" d="M684.43,479.06c0,14.81,12.74,15.55,3.78,15.57s-16.37-.79-16.11-15.59c.14-7.41,4.36-23.54,8.19-37.83s7.43-26.75,7.44-26.75l-1.6,26.75C685.31,455.51,684.42,471.66,684.43,479.06Z"/>
          </g>
          <path class="cls-17" d="M670.76,517.65s-13-25,9.64-26.07,9.75,26.36,9.75,26.36-2.92-7.68-7.61-.29C682.54,517.65,677,509,670.76,517.65Z"/>
          <g>
            <path class="cls-9" d="M769.26,431.94c-1.55,5.22-4.59,5.39-8.25,5.26s-6.54-.52-4.83-5.74c.86-2.6,4.31-8.23,7.41-13.21l5.9-9.31S770.81,426.72,769.26,431.94Z"/>
            <path class="cls-9" d="M755.45,428.46c1.67,5.21.56,8.53-3.14,8.66s-3-2.26-4.3-7.5a26.2,26.2,0,0,0-12-16.72s4.34,2.61,9,5.84S754.62,425.85,755.45,428.46Z"/>
            <path class="cls-9" d="M761.13,427.22c0,9.56,9.9,10,2.93,10s-12.73-.5-12.52-10.07c.1-4.78,3.39-15.2,6.37-24.43s5.78-17.27,5.78-17.27l-1.24,17.27C761.81,412,761.12,422.44,761.13,427.22Z"/>
          </g>
          <path class="cls-17" d="M750.49,452.14S740.41,436,758,435.3s7.59,17,7.59,17-2.28-5-5.92-.19C759.66,452.14,755.38,446.56,750.49,452.14Z"/>
          <path class="cls-20" d="M970.2,556.2c-.26-.38-.51-.75-.77-1.11l1.1.19Z"/>
          <path class="cls-21" d="M979.28,454.05a9,9,0,0,1-7.27,3.66,10.19,10.19,0,0,1-8-3.52C972.31,460,979,454.31,979.28,454.05Z"/>
          <path class="cls-22" d="M2024.17,831.83c-3.09-22.76-6.15-45.5-8.4-68.3C1708.85,770.87,1574.33,814,1574.33,814c-78.36-3.1-252.87,13.52-414.67,31.85C796.18,758.52,241.1,697.19,241.1,697.19L265,905.7l668.23-5,46,4.8H2035.73C2031.61,881,2027.53,856.47,2024.17,831.83Z"/>
          <g>
            <path class="cls-23" d="M1545.45,949c-63.65-138.75,70.36-206.38,70.36-206.38s-61,84.67-30.36,206.06Z"/>
            <path class="cls-23" d="M1622.35,948.39c-12-104.85,70.68-144.16,70.68-144.16s-152.26,14.31-129.86,144.63Z"/>
            <path class="cls-23" d="M1548.64,949c-20.7-149.73,99.88-182.53,99.88-182.53s-60.61,31.6-48.23,182.12Z"/>
            <path class="cls-23" d="M1584.6,948.69c95.42-188.46,260.68-131.42,260.68-131.42s-163.23-12.63-189.66,130.86Z"/>
            <path class="cls-23" d="M1288.36,951c32-89.23-79.12-161-79.12-161s96,25.22,153.35,160.42Z"/>
            <path class="cls-23" d="M1420,950c-12.46-88.12-118.71-187.27-118.71-187.27s28.17,88.11,55.66,187.77Z"/>
            <path class="cls-23" d="M1565.71,948.84c-54.39-65.52-54.21-149.61-54.21-149.61-49.23,46.21-48.1,98.16-27.12,150.26Z"/>
            <path class="cls-23" d="M1430,949.92c-79.58-131.26,58.44-182.48,58.44-182.48s-79.46,95-5.72,182.06Z"/>
            <path class="cls-23" d="M1502.27,724.14c-29.7,13.26-122.69,68.34-69.1,225.75l-60.48.48S1300.84,764.83,1502.27,724.14Z"/>
            <path class="cls-23" d="M1473.78,949.57c23.26-43.54-92.64-122.13-92.64-122.13s99.81,23.93,171.69,121.5Z"/>
          </g>
          <g>
            <path class="cls-24" d="M440.75,770.41c-37.17,33-73.71,66.15-104.54,105-40.06-54.16,33.9-171.11,72.75-222.26,25.56-33.66,56.27-63.54,91.57-86.61a308.71,308.71,0,0,1,54.88-28.77c9.53-3.78,49.06-8.93,54.92-15.65C574.79,562.9,558.79,610.37,535,656.84,511.43,702.76,479.6,736,440.75,770.41"/>
            <path class="cls-25" d="M604.43,527.17C493.69,576.48,446.84,723.35,379.82,814.46c-12.91,17.55-27.33,33.26-36.54,52.6-19-22.59-6.71-67.2,3.79-96.44a486.7,486.7,0,0,1,57.78-111.81c47-67.78,118-132,199.58-131.64"/>
            <path class="cls-24" d="M393.74,834.6c-22.47,11.74-39.21,29.06-57.11,43.55-9.18-52.66,76.68-112.79,109.07-151.59,45.19-54.13,96-89.27,162.59-93.8,27.64-1.88,54.44-4.54,81.86-7.09-51.28,44.22-106,83-155.78,128.2-45,40.88-88.85,53.66-140.63,80.73"/>
            <path class="cls-24" d="M357.8,819c-12.54,18.25-22.31,30.44-28.23,51-66.58-95.53-3.22-258.51,85.69-344.88,19.53-19,40.05-36.06,64.21-47.88-2,106.57-56.8,247.29-121.67,341.71"/>
            <path class="cls-25" d="M415.25,525.14c19.51-18.95,38.06-35.9,63.48-44C413.91,577,405.62,687.33,354,788.25c-10.93,21.38-21.87,42.7-31.83,64.31-60.09-86.25,14.9-251.49,93-327.42"/>
            <path class="cls-24" d="M344.75,872a20,20,0,0,0,5.23-2.41c13.19-8.41,26.62-107.92,30.86-125.35,22.06-90.71,33.79-188.59-8.55-265.43-23-41.81-28.78-53-24.6-102.66-19,23-29.87,47.24-34.13,74.78-7.2,46.49.41,93.56-6,140.42-12.8,93.4-52.34,163.73-2,240.64,8.26,12.6,20.58,45.25,39.19,40"/>
            <path class="cls-25" d="M340.51,841.38c46.53-133.91,14-261-.33-387-2.92-25.77-6.94-55.36,6-81.47-12,26.45-28.6,52.11-32.6,78-6.78,43.8.06,86.07-4.49,129.61-3.94,37.63-21.15,72.3-28.2,109.9-8.91,47.58,13.56,70,35,106.66,8.57,14.66,15.38,30.15,24.63,44.32"/>
            <path class="cls-24" d="M308,845.89c12.63,13.31,26.5,23.65,38.2,21.53,31.93-5.77,11.51-90.61,10.81-117.21C353.74,627,262,502.34,123.16,545.77c51.72,30.62,82.91,84.46,101.47,141.81,13.07,40.39,26,81,49.91,115.24,6.19,8.84,19,27.89,33.42,43.07"/>
            <path class="cls-25" d="M354.31,870.26c12.8-72.35-10.12-128.61-38.74-186.79C288.17,627.74,215.75,554,147,551.47a381.58,381.58,0,0,1,77.65,136.11c15,46.44,39.42,120.84,82.55,159.14,13.72,12.19,29.33,20.71,47.13,23.54"/>
            <path class="cls-26" d="M360.13,863.84c-.39-.08.82-4.68,4.81-12.59s11-19,21.79-31.38,25-26.08,41.54-40.34,35.27-29.18,53.58-46.16c18.6-16.84,36.79-32.68,54.65-45.68,8.92-6.5,17.7-12.32,26.15-17.39s16.6-9.33,23.94-13.16c14.72-7.77,27.29-13.18,36.26-15.77s14-3,14.06-2.63-4.89,1.63-13.43,4.91S603,652.7,588.64,660.89c-7.23,4.08-15.11,8.44-23.24,13.61s-16.65,11-25.3,17.5c-17.34,13-35.16,28.72-53.74,45.53-18.45,17.11-37.53,32-54.1,46s-31,27-41.91,38.88a196,196,0,0,0-23.05,29.74c-4.63,7.46-6.67,11.83-7.17,11.71"/>
            <path class="cls-26" d="M366.1,817.24c-.48-.11,1.14-4.63,3.46-12.85s5.13-20.15,8-35c1.46-7.42,3-15.57,4.84-24.35s4.12-18.06,6.16-27.88c4.19-19.61,8.35-41.24,13.36-64s10.52-44.37,16.9-63.89a348.62,348.62,0,0,1,20.8-51.09,228.84,228.84,0,0,1,19.95-32.53c5.46-7.32,9.05-11,9.39-10.81.93.49-11.75,16.35-24.92,44.67a393.51,393.51,0,0,0-19.13,50.66c-6,19.33-11.25,40.8-16.23,63.43s-9.35,44.27-13.89,63.94c-2.22,9.83-4.7,19.23-6.79,27.86l-5.65,24.27c-3.48,14.87-7,26.92-10.21,35.11s-5.62,12.55-6,12.44"/>
            <path class="cls-26" d="M442.05,613.82c.45.16-2.64,6.37-7.18,16.5s-10.41,24.23-16.73,39.89-12.3,29.8-17.21,39.87-8.5,16.11-8.9,16,2.39-6.39,6.66-16.57,9.9-24.32,16.23-40,12.56-29.79,17.74-39.81,9-16,9.39-15.85"/>
            <path class="cls-26" d="M359.84,774.58c-.52,0-.22-4.84-.16-13.52s-.3-21.18-1-36.66c-1.53-31.11.88-74.42-1-121.56-.48-11.78-1.24-23.21-2.36-34.18q-.46-4.14-.78-8.21c-.26-2.67-.56-5.32-.88-7.93-.67-5.22-1.47-10.31-2.32-15.26-3.48-19.8-7.49-37.52-9.85-52.7s-3.36-27.73-3.2-36.49,1-13.66,1.44-13.69.53,4.77,1.25,13.29a296.76,296.76,0,0,0,5.32,35.61c3,14.89,7.45,32.39,11.31,52.31.95,5,1.84,10.13,2.59,15.44.36,2.65.7,5.35,1,8.08s.53,5.44.86,8.17c1.22,11.07,2,22.62,2.53,34.49,1.89,47.51-1.29,91-1,122,.09,15.57-.23,28.3-1.18,37.13s-2.09,13.73-2.52,13.73"/>
            <g class="cls-27">
              <g class="cls-28">
                <path class="cls-26" d="M362.29,844.9c-.51,0-.21-4.77,0-13.33a155.3,155.3,0,0,0-2.91-35.39q-1.14-5.45-2.85-11.23c-1.13-3.78-2.66-7.75-4.12-11.86-3-8.21-6.35-16.9-10.12-25.94-7.57-18-16.77-37.54-28.67-56.66a240.11,240.11,0,0,0-19.09-26.68c-7-8.22-13.36-16.47-19.48-24.17-12.19-15.47-23.59-29-34.31-39.35s-20.69-17.47-28.4-21.23-12.73-4.61-12.55-5.12c.07-.35,5.52-.38,14,2.89s19.33,9.95,30.67,20.14,23.39,23.54,35.91,38.85c6.3,7.64,12.69,15.74,19.74,23.83a232.26,232.26,0,0,1,19.65,27.21c12.11,19.47,21.24,39.3,28.56,57.66,3.64,9.2,6.82,18.05,9.59,26.41,1.36,4.2,2.75,8.18,3.82,12.26s1.86,7.92,2.49,11.69A131.76,131.76,0,0,1,365,831.4c-1,8.7-2.23,13.5-2.66,13.5"/>
              </g>
            </g>
            <g class="cls-29">
              <g class="cls-30">
                <path class="cls-31" d="M356,817.35c-.52.28-4.7-8.22-14.57-19.86a225.79,225.79,0,0,0-18.74-19.34c-7.45-7-16-14.29-24.93-22.13a320.35,320.35,0,0,1-24.13-23,128.86,128.86,0,0,1-16.35-21.5c-7.82-13.28-9.25-23-8.91-23,.59-.24,2.85,9.07,11.07,21.77a143.54,143.54,0,0,0,16.71,20.73c7,7.32,15.28,14.87,24.17,22.69s17.42,15.24,24.8,22.37a188.91,188.91,0,0,1,18.33,20c9.49,12.19,12.91,21.19,12.55,21.33"/>
              </g>
            </g>
          </g>
          <g>
            <path class="cls-23" d="M534.67,975.82c20.55-196.91,96.72-254.29,96.72-254.29S586.91,814,580.79,979.18Z"/>
            <path class="cls-23" d="M468.45,971c-9.34-213,115.15-305.5,115.15-305.5S511.2,788.6,499.83,973.28Z"/>
            <path class="cls-23" d="M909.44,1003.13C916.5,889.67,943,796,943,796c-33,17.87-69,75.38-98.59,202.38Z"/>
            <path class="cls-23" d="M816.54,996.36c2.4-139.47,47.09-214.68,47.09-214.68-28.79,21.93-83.29,67-116.55,209.62Z"/>
            <path class="cls-23" d="M799.28,995.1c-51.43-160.85,18.28-265.55,18.28-265.55-62,55.13-79,171.19-78.14,261.19Z"/>
            <path class="cls-23" d="M1046.87,1013.14c-13.41-89.74,26.59-151.51,26.59-151.51-49.1,11.51-88.25,60.21-86.84,147.12Z"/>
            <path class="cls-23" d="M528.76,975.39C550,816.89,626,763.47,626,763.47S502.8,774.49,482.35,972Z"/>
            <path class="cls-23" d="M828.46,997.23C807,895.94,875.33,829.13,890,807.79c0,0,.49,63.66-28,191.88Z"/>
            <path class="cls-23" d="M1019.65,1011.16c37.74-145.49,97.89-141.4,97.89-141.4s-105.68-.39-141.28,138.24Z"/>
            <path class="cls-23" d="M654.26,984.53c34-210.54,92.55-244.12,92.55-244.12s-95.32,3.34-142.15,240.51Z"/>
            <path class="cls-23" d="M891.26,1001.8c16.27-225.11,139.35-246.47,139.35-246.47S921.52,805.66,948.38,1006Z"/>
            <path class="cls-23" d="M977.47,1008.09c3.83-148.62,93-182.93,93-182.93s-140.61,31.61-136.13,179.78Z"/>
            <path class="cls-23" d="M754.61,991.85c9.49-211.37,87.55-260.57,87.55-260.57s-88.47,40.27-146.6,256.26Z"/>
            <path class="cls-23" d="M802.6,995.34C837.87,935.46,880,840.93,880,840.93s-70,68.14-125.07,150.94Z"/>
            <path class="cls-23" d="M654.59,984.56C634,763.71,709.13,693,709.13,693s-115.9,63.5-89.47,289Z"/>
            <path class="cls-23" d="M685.92,986.84c17-290.89,139.31-291,139.31-291s-87.9,10.4-91.69,294.51Z"/>
            <path class="cls-23" d="M471,971.17c27.44-226.58,131.29-267.58,131.29-267.58s-56.61,43.33-90.78,270.54Z"/>
            <path class="cls-23" d="M561,977.73C578.28,740.05,707.14,754,707.14,754s-97.1,20.1-103.7,226.87Z"/>
            <path class="cls-23" d="M653.09,984.45c25.66-237.56,131.08-216.62,131.08-216.62S703,773.39,695.58,987.54Z"/>
            <path class="cls-23" d="M499.16,973.23C628.68,696.42,741.29,793.61,741.29,793.61s-124-30.27-186.43,183.68Z"/>
            <path class="cls-23" d="M266.82,956.3c51-132-14.95-247.59-14.95-247.59S319.6,753.26,325,960.54Z"/>
            <path class="cls-23" d="M370.06,963.82C386,830.45,331.8,674,331.8,674s-3.65,134.46-11.18,286.22Z"/>
            <path class="cls-23" d="M484.35,972.15c-23.45-102.29,1.19-228.73,1.19-228.73-52,66.09-66.21,144.29-65,224.08Z"/>
            <path class="cls-23" d="M377.88,964.39C353.89,761.51,476.74,694,476.74,694s-89.81,137.35-57.52,273.39Z"/>
            <path class="cls-23" d="M500.21,629.86c-27.1,17.88-115.86,94.29-119.82,334.72L333,961.12S330.84,677.14,500.21,629.86Z"/>
            <path class="cls-23" d="M412.24,966.9c30.88-63.88-36.86-190.07-36.86-190.07s71.09,42.88,98.86,194.58Z"/>
          </g>
          <g>
            <path class="cls-14" d="M1485.59,555.5c-4,4.39-10.65,6.85-17.36,8.15-10,1.94-21.43,1.91-29.31,7.1-5,3.28-8.89,8.67-15.41,8.6-3.8,0-7.17-2.06-11-2.2-7.54-.27-12.2,6.59-19.39,8.35-4.85,1.19-10.05-.11-15.12-.5-19.42-1.51-37.31,10.48-56.78,9.35-4.75-.28-9.58-1.43-13-4a11.88,11.88,0,0,1-1.41-1.22L1284,592.54c-7.81,1.16-16.12,2.28-23.52,0-5.7-1.73-10.39-5.33-16.39-6.27-11.26-1.76-20.83,6.3-31.85,8.83-14.48,3.32-29.73-3.24-44.81-2.59-9.51.42-18.35,3.66-27.4,5.93s-19.34,3.53-27.79.13c-4.2-1.68-7.67-4.43-12.14-5.64-7.51-2-15.63.7-23.56,1.29-12.48.93-25.32-4.17-31.85-12.4a22.71,22.71,0,0,1-1.42-2c-1.09.35-2.2.65-3.33.91l-.32.07a7.09,7.09,0,0,1,.88,3c.21,5.16-6.76,9.22-13.45,9.2s-12.74-3-17.63-6.56c-2.39-1.72-4.75-3.66-7.88-4.38-5.76-1.34-11.59,1.87-17.59,2.22-8.06.48-15.81-5.2-15.62-11.44-5.87,1.32-12.45,1.35-17.86-.85a16.18,16.18,0,0,1-5.72-3.84,22.68,22.68,0,0,1-15.39,2.23c-5.64-1.37-10-6.11-8.55-10.55-2.33,5-10.09,7.92-16.6,6.35s-10.7-7.43-9-12.52c1.07-3.13,4.27-5.66,8.13-6.89a16.61,16.61,0,0,1,7.65-.59,9.85,9.85,0,0,1-.38-13.92c3.74-4.05,11.06-5.86,17.15-4.25-.77-4.6,2-9.45,6.93-12.1a21.14,21.14,0,0,1,17.09-.82c-2.92-4.14-1.68-9.76,2.85-12.91s11.89-3.51,16.91-.84c-1.34-4.55,1.58-9.65,6.84-11.94s12.42-1.59,16.77,1.64c1.66-3.45,3.42-7,6.77-9.62s8.75-4.05,13-2.38a41.18,41.18,0,0,1,7.07,4.77c5.52-1.37,13.6-2.51,17.78.37a15.24,15.24,0,0,1,2.55,2.66,36.17,36.17,0,0,0,3.3,3,25.89,25.89,0,0,1,11.25-2.85,17.31,17.31,0,0,1,10.42,3.27q2.42-.92,4.86-1.78a12.55,12.55,0,0,1,6.69-3.87,17.54,17.54,0,0,1,7.18,0,29.3,29.3,0,0,1,5.7-.3c5.68.27,11.55,3,12.92,7.24,3.72-8.19,14.61-14.11,25.85-14s22,6.11,25.56,14.35c3.44-6.9,13.89-11.23,23.23-9.62,8,1.36,14.29,6.88,15.58,13,.71-4,4.72-7.64,9.88-8.4,6.57-1,13.66,3,14.56,8.09,1.3-7.72,14.09-11.57,23.67-9.16s16.34,8.91,22.24,15.22c2.44-6.44,10.81-11.23,19.48-11.16s16.91,5,19.18,11.47c.95-4.8,7-8.65,13.31-8.44s11.91,4.44,12.33,9.29c.47-2.87,3.25-5.06,6.72-6.25a20.29,20.29,0,0,1-4.76-.94c-2.56-.87-4.8-2.57-5.27-4.7-1.27-5.75,11.33-8.65,16.51-6.93,3.74,1.25,6.25,4.41,6,7.55,1.32-2.27,4.62-3.15,7.86-2.86a11.6,11.6,0,0,1,5.42,1.81c3.86,2.66,5.14,6.86,6.09,10.79a21.2,21.2,0,0,1,15.19-3.17c5.33.88,10,3.86,12.15,7.73,1.14,2.08,1.74,4.53,4.06,5.9,1.53.92,3.53,1.17,5.33,1.73a14.21,14.21,0,0,1,7.51,5.66,11.91,11.91,0,0,1,2,6.14,18.67,18.67,0,0,1,2.13.09c6.51.69,12.26,4.6,14,9.51,2.64-6.11,13.63-7.83,21.11-5,.54.21,1.06.42,1.56.65h0a32.41,32.41,0,0,1,10.38,7.92c.5.54,1,1.09,1.45,1.65,1.07,1.24,2.09,2.52,3.08,3.78l.1.12a4.4,4.4,0,0,1,.21-.5,5.6,5.6,0,0,1,1.28-1.68c3.48-3.24,11.26-3.59,15.38-.44C1489.9,544.51,1489.55,551.12,1485.59,555.5Z"/>
            <path class="cls-14" d="M978.34,518.87c.37-5,6-10.06,12.46-9.28-1.87-4.06-.66-8.86,3-12.08s9.74-4.7,15.16-3.74c3-7.83,12.84-13.79,23.4-14.23a8.41,8.41,0,0,1,4.39.69c1.24.69,1.78,2.21.74,3.07.91-3.35,5.34-5.77,9.77-5.73a13.4,13.4,0,0,1,10.66,5.3,10.85,10.85,0,0,1,1.1,10c.92-2.08,5.44-1.81,6.71.17s0,4.43-2.14,5.93-4.81,2.34-7.26,3.47c-7.9,3.61-12.78,10-18.27,15.71s-12.85,11.23-22,11.58c2.64,3.65-.55,8.52-5.35,10.47s-10.53,1.7-15.91,1.2c-7.83-.73-10-3.08-11.48-8.65C982.08,528,978,524,978.34,518.87Z"/>
            <path class="cls-32" d="M1038.24,510.09c6.83-10.92,28.8-13.6,39.65-4.83,2.29-5.61,9.14-9.93,16.71-10.55s15.43,2.49,19.2,7.6c15.34-9,39.88-6.64,51.81,5.08,8.73-4.69,20.34-6,30.45-3.46s18.46,8.94,21.89,16.71c7.67-4.66,15.87-9.49,25.55-10.37s20.93,4,21.3,11.55c15.51-10.36,42.68-7.19,53.53,6.24,4.16-4.82,12-7.54,19.46-6.73s14,5.12,16.28,10.64c5.9-5.68,19.49-2.91,22.76,3.93s-2.37,14.86-10.79,18.15-18.61,2.65-27.53.27c-2.51,6.31-9.81,11.33-18.21,12.54s-17.54-1.44-22.84-6.63c-3.21,7.82-14.33,12.38-24.93,12.74s-20.87-2.6-30.79-5.51c-.32,4.32-6.41,7.2-12,7.25s-10.85-1.85-16.14-3.26-11.34-2.3-16.3-.3c-3.07,1.23-5.29,3.4-7.87,5.19-9.5,6.57-24.87,7.36-35.43,1.84-6.91,1.32-14.58-3.43-14.43-8.93-7,3.74-17.54,2.75-23.18-2.18-11.37,9.78-33.87,9.79-45.26,0-6.34,5.58-16.15,8.69-25.73,8.15s-18.71-4.71-23.93-10.94c-9.78,4.75-24.81,0-27.39-8.75-8.35-.11-16.2-5-18.1-11.28a11.66,11.66,0,0,1,1.37-9.4c1.93-3.24,6.07-4.35,8.22-7s2.64-6.79,4.78-9.69a31.16,31.16,0,0,1,4.86-5.4C1006.39,503.19,1027.12,495.94,1038.24,510.09Z"/>
            <path class="cls-32" d="M1246.92,494.58a7.07,7.07,0,0,0-6-1.78,4.42,4.42,0,0,0-3.33,2.46c-.84-3.88-11.27-2.63-11.64,2.27-.38,5.16,7.93,8.73,13.65,8.78a11.59,11.59,0,0,0,6-1.37,4,4,0,0,0,2.17-3.92.93.93,0,0,0,.26-.15,1.87,1.87,0,0,0,.59-1.38A6.16,6.16,0,0,0,1246.92,494.58Z"/>
            <path class="cls-32" d="M1161.25,489.72a10.12,10.12,0,0,1,5.48-2.78,4.81,4.81,0,0,1,3,.24,3.63,3.63,0,0,1,1.49,2c.35.82.67,1.78.06,2.5a4.08,4.08,0,0,1-2.58,1C1166.24,492.94,1157.42,493.73,1161.25,489.72Z"/>
            <g>
              <path class="cls-32" d="M1179,489.61l.72,1a.83.83,0,0,1,0-.44A2.29,2.29,0,0,0,1179,489.61Z"/>
              <path class="cls-32" d="M1184.62,490.34a3.32,3.32,0,0,0-1.69-1,3.83,3.83,0,0,0-2.12-.05,1.62,1.62,0,0,0-1,.88c.35.4.6.88.94,1.29a3.19,3.19,0,0,0,1.88,1.09,2.31,2.31,0,0,0,2.11-.63A1.27,1.27,0,0,0,1184.62,490.34Z"/>
            </g>
            <path class="cls-32" d="M1123.57,482.66a3.41,3.41,0,0,1,2.15.67c.78.8.08,1.95-.79,2.69-1.77,1.5-11.64,6.39-12.65,2.64C1111.15,484.47,1119.64,482.43,1123.57,482.66Z"/>
            <path class="cls-32" d="M1144.8,485.09c.51.71.8,1.67.13,2.3s-2.37.56-3.48.1c-1.48-.61-6-3.68-3.87-5.14S1143.88,483.81,1144.8,485.09Z"/>
            <path class="cls-32" d="M1007.94,495.62a5.63,5.63,0,0,1,4.29.63c1.35,1,1.13,2.76.51,4.15a8,8,0,0,1-3,3.58c-2.77,1.78-8.28,1.26-8.57-2.05C1001,499.14,1004.68,496.24,1007.94,495.62Z"/>
            <path class="cls-32" d="M1030.32,492.49c-.42-1.06-2.08-1.62-3.5-1.41a6,6,0,0,0-3.45,1.89,1.82,1.82,0,0,0,1.22.12l-1.73.61c-.39.56,0,1.3.69,1.66a4.87,4.87,0,0,0,2.39.38,6.94,6.94,0,0,0,3.27-.85A2.06,2.06,0,0,0,1030.32,492.49Z"/>
            <path class="cls-32" d="M959.81,521.94c-1.52-2.43-.25-5.47,2.19-7.41s5.82-3,9.15-3.78c2.81-.69,6-1.24,8.59-.11,3.29,1.45,3.89,5,3,7.84-2.11,6.68-10.88,11.71-19.76,11.32.65,0-3.44,5.46-4,5.9a16.59,16.59,0,0,1-8.48,3.35c-5.12.56-11.67-1-13.8-5C931.75,524.73,951.15,519.42,959.81,521.94Z"/>
            <path class="cls-14" d="M1029.77,516.46c1.78.67,2.64,2.75,1.19,3.78a9.78,9.78,0,0,1,5.82-4.22,9.94,9.94,0,0,1,7.72,1c2.08,1.37,3,3.8,1.83,5.73s-4.11,3.08-6.8,3.95l-9.74,3.13a26.83,26.83,0,0,1-7.8,1.67c-6,.1-9.68-4.75-6.92-8.84C1017.12,519.61,1025.39,514.82,1029.77,516.46Z"/>
            <path class="cls-14" d="M1079.05,505.86c1.53.18,3.24.71,3.72,1.85s-.5,2.35-1.66,3.14c-2.9,2-10.84,3.44-12.87-.18C1065.78,506.28,1075.68,505.45,1079.05,505.86Z"/>
            <path class="cls-14" d="M1071.58,561.33c.52,1.17,2.09,1.92,3.67,2.13a17.43,17.43,0,0,0,4.78-.27,14,14,0,0,0,3.48-.82,3.18,3.18,0,0,0,2.08-2.19c.21-1.68-2-2.92-4-3.49-8.29-2.3-16.76,1.28-24.63,3.17-9,2.16-.43,7.39,5.65,6.67a14.37,14.37,0,0,0,5.51-1.79C1068.82,564.3,1072,562.2,1071.58,561.33Z"/>
            <path class="cls-14" d="M1110.16,568.27a10.77,10.77,0,0,0,3.86-.4c1.2-.42,2.19-1.33,2.13-2.35-.19-3.52-8.4-4.34-11.53-3-1.65.69-2.4,1.75-1.62,3.14C1104.15,567.71,1107.58,568.18,1110.16,568.27Z"/>
            <path class="cls-14" d="M1168.89,571.82c.06.67,1,1,1.84,1.26a30.45,30.45,0,0,0,15.66-.24,6.24,6.24,0,0,0,2-.84,1.62,1.62,0,0,0,.8-1.55c-.49-2.27-8.12-2.74-10.53-2.67S1168.68,569.63,1168.89,571.82Z"/>
            <path class="cls-14" d="M1203.13,567a6.19,6.19,0,0,0-1.88.69,1.28,1.28,0,0,0-.69,1.44c.27.71,1.38,1,2.34,1a13.27,13.27,0,0,0,4.31-.44,2.81,2.81,0,0,0,1.23-.58c.62-.63.22-1.57-.48-2.14a5,5,0,0,0-3.37-1,4.63,4.63,0,0,0-3.12,1.39"/>
            <path class="cls-32" d="M1359.46,503.56a14.77,14.77,0,0,1,6.17-1.32,17.72,17.72,0,0,1,8.35,1.28c2.44,1.19,4.1,3.55,3.3,5.69s-4.57,3.43-6.83,2.05c.78.48-3.84,4-4.3,4.23a15.59,15.59,0,0,1-7.1,2.06c-4,.19-7.14-1.16-9.17-3.8-1.27-1.66-2.62-4.52-1.38-6.41,1.76-2.7,6.36-1.65,8.38.39C1356.59,506.07,1357.7,504.48,1359.46,503.56Z"/>
            <path class="cls-14" d="M1174.09,522.38a15.2,15.2,0,0,1-10.63,4.28c1.85,0,5.31-4.28,6.21-5.36,1.93-2.3,2.75-4.7,4-7.22,1.31-2.67,2.36-1.86,2.86.73A8.74,8.74,0,0,1,1174.09,522.38Z"/>
            <path class="cls-14" d="M1212.81,534.81c-1.93,5-24.3,11.09-28.41,9.32,1.81,2,5.24,3,8.45,2.9a36.47,36.47,0,0,0,9.3-1.79l12.64-3.62c4-1.15,8.32-2.37,11.55-4.66,2-1.45,6.45-6.47,3.85-8.72-2.23-1.92-5.52,1-7,2.22a18.09,18.09,0,0,1-4.77,3.22A52.57,52.57,0,0,1,1212.81,534.81Z"/>
            <path class="cls-15" d="M1039.61,580.91a7.09,7.09,0,0,1,.88,3c.21,5.17-6.76,9.22-13.45,9.21s-12.74-3-17.63-6.57c-2.39-1.72-4.75-3.65-7.88-4.38-5.76-1.34-11.59,1.87-17.59,2.22-8.06.48-15.81-5.2-15.62-11.44-5.87,1.32-12.45,1.35-17.86-.85a16.18,16.18,0,0,1-5.72-3.84,22.68,22.68,0,0,1-15.39,2.23c-5.64-1.37-10-6.11-8.55-10.55-2.33,4.95-10.09,7.92-16.6,6.35s-10.7-7.42-9-12.52c1.07-3.13,4.27-5.66,8.13-6.88,8.92,7.12,23.2,10.51,35.35,7,6.11,9.85,24.63,13.45,36,7,7.08,15.07,33.25,22.56,51.33,14.68a70.57,70.57,0,0,0,13.84,5.22Z"/>
            <path class="cls-15" d="M1485.59,555.57c-4,4.39-10.65,6.85-17.36,8.15-10,1.94-21.43,1.91-29.31,7.11-5,3.27-8.89,8.66-15.41,8.6-3.8,0-7.17-2.07-11-2.2-7.54-.28-12.2,6.59-19.39,8.35-4.85,1.19-10.05-.12-15.12-.51-19.42-1.51-37.31,10.49-56.78,9.35-4.75-.28-9.58-1.43-13-4a11.8,11.8,0,0,1-1.41-1.21L1284,592.62c-7.81,1.15-16.12,2.27-23.52,0-5.7-1.72-10.39-5.33-16.39-6.27-11.26-1.76-20.83,6.3-31.85,8.83-14.48,3.32-29.73-3.23-44.81-2.58-9.51.41-18.35,3.65-27.4,5.92s-19.34,3.53-27.79.14c-4.2-1.69-7.67-4.44-12.14-5.65-7.51-2-15.63.7-23.56,1.29-12.48.93-25.32-4.17-31.85-12.4,16.44,3.28,34.6,1.59,49.22-5.13,14.81,10.88,38.16,9.38,58.4,7.17,54.65-.48,109.26-3.32,163.49-8.5,11.89,7.91,31.41,7.77,43.1-.31,12.65,3.6,28.27-.84,34.88-9.91,19.71,5.34,43.94-5.24,48.2-21,7.7,3.15,17.81.56,23-4.67,1.1,1.29,2.15,2.6,3.18,3.9,1.85-5.15,12-6.38,16.87-2.61S1489.55,551.19,1485.59,555.57Z"/>
            <path class="cls-15" d="M1464.94,539.47c1.07,1.24,2.09,2.52,3.08,3.78-6.85,8.25-19.06,15.57-29,20.54-16,8-37.67,7.25-52.86,16.13a32.11,32.11,0,0,0,12.46-16c.81-2.45.92-5.56-1.81-6.95,5-2.46,8.66-6.4,10.13-10.81.79-2.39.91-5-.6-7.21a7.82,7.82,0,0,0-8-2.82,7.6,7.6,0,0,0-.55-9c-2.11-2.66-6.07-4.38-10.11-4.41-.22-6-4.64-11.85-11.32-14.95a29.92,29.92,0,0,0-22.4-.66,17.31,17.31,0,0,0,2.67-19,11.6,11.6,0,0,1,5.42,1.81c3.86,2.66,5.14,6.86,6.09,10.8a21.16,21.16,0,0,1,15.19-3.18c5.33.89,10,3.86,12.15,7.73,1.14,2.08,1.74,4.53,4.06,5.91,1.53.91,3.53,1.16,5.33,1.72a14.26,14.26,0,0,1,7.51,5.66,11.91,11.91,0,0,1,2,6.14,18.67,18.67,0,0,1,2.13.09c6.51.69,12.26,4.6,14,9.51,2.64-6.11,13.63-7.82,21.11-5l1.56.57h0a32.41,32.41,0,0,1,10.38,7.92C1464,538.36,1464.47,538.91,1464.94,539.47Z"/>
            <path class="cls-14" d="M1235.24,550a19.84,19.84,0,0,1,5.77-1.13,7.56,7.56,0,0,1,3.08.13,3.23,3.23,0,0,1,2.21,3c.08,2.58-2.66,5-6,5.34C1235.22,557.82,1229.13,552.62,1235.24,550Z"/>
          </g>
        </g>
      </g>
    </g>
    <g id="SC_05">
      <g class="cls-33">
        <g class="cls-34">
          <rect class="cls-35" x="-210" y="-185.44" width="1653.98" height="494.47"/>
          <path class="cls-36" d="M555.81,154.64c-232.5,54.16-679-84-922.88-28.93l-2.23,55C-195.34,71.92,253.2,224.33,555.81,154.64Z"/>
          <path class="cls-36" d="M729.75,135.72c230.12-63.53,681.88,56.47,923.29-8.47V72.19C1483.63,188,1029.29,53.84,729.75,135.72Z"/>
          <path class="cls-5" d="M524.21,30.24c230.12-63.53,681.89,56.47,923.3-8.47V-33.29C1278.1,82.48,823.75-51.64,524.21,30.24Z"/>
          <path class="cls-36" d="M686.92,82.69C452.75,129.1,11.05-23.85-234.49,23.13L-238.55,78C-61.07-24.93,382.16,142.29,686.92,82.69Z"/>
          <rect class="cls-37" x="-210" y="305.57" width="1654.72" height="607.22"/>
          <path class="cls-6" d="M-393.45,200.18s168,18.09,418.6-26.6A125,125,0,0,1,54.46,172c33,2.08,109.72,7.58,142.8,15.43l93.65-6.21a239.5,239.5,0,0,1,40.38.72l52.85,5.49,394.74-30.25a428.62,428.62,0,0,1,59.22-.41c41.78,2.62,113.73,7,119.33,6.54,7.92-.64,105.51-9,136.19-11,28.92-1.92,354.75,11.64,354.75,11.64l9.5,75-1851.32,8.41Z"/>
          <path class="cls-38" d="M-207.13,191.26s127.5,66.73,665,47.61C998.16,226.7,872,155.43,1447.51,190.2v99.09L-194.8,284.62Z"/>
          <path class="cls-39" d="M505.15,42.05l-.93.16c2.62,1.32,5.19,2.75,7.7,4.26,1.68-.81,2.65-1.78,2.46-2.68C514,42.14,509.9,41.36,505.15,42.05Z"/>
          <rect class="cls-40" x="608.33" y="285.62" width="851.13" height="54.04"/>
          <g>
            <polygon class="cls-41" points="658.5 442.7 609.22 442.7 609.22 246.32 633.86 220.25 658.5 246.32 658.5 442.7"/>
            <polygon class="cls-41" points="720.26 442.7 670.97 442.7 670.97 246.32 695.62 220.25 720.26 246.32 720.26 442.7"/>
            <polygon class="cls-41" points="782.01 442.7 732.73 442.7 732.73 246.32 757.37 220.25 782.01 246.32 782.01 442.7"/>
            <polygon class="cls-41" points="843.77 442.7 794.48 442.7 794.48 246.32 819.13 220.25 843.77 246.32 843.77 442.7"/>
            <polygon class="cls-41" points="905.53 442.7 856.24 442.7 856.24 246.32 880.88 220.25 905.53 246.32 905.53 442.7"/>
            <polygon class="cls-41" points="967.28 442.7 917.99 442.7 917.99 246.32 942.64 220.25 967.28 246.32 967.28 442.7"/>
            <polygon class="cls-41" points="1029.04 442.7 979.75 442.7 979.75 246.32 1004.39 220.25 1029.04 246.32 1029.04 442.7"/>
            <polygon class="cls-41" points="1090.79 442.7 1041.51 442.7 1041.51 246.32 1066.15 220.25 1090.79 246.32 1090.79 442.7"/>
            <polygon class="cls-41" points="1152.55 442.7 1103.26 442.7 1103.26 246.32 1127.91 220.25 1152.55 246.32 1152.55 442.7"/>
            <polygon class="cls-41" points="1214.31 442.7 1165.02 442.7 1165.02 246.32 1189.66 220.25 1214.31 246.32 1214.31 442.7"/>
            <polygon class="cls-41" points="1276.06 442.7 1226.77 442.7 1226.77 246.32 1251.41 220.25 1276.06 246.32 1276.06 442.7"/>
            <polygon class="cls-41" points="1337.82 442.7 1288.53 442.7 1288.53 246.32 1313.17 220.25 1337.82 246.32 1337.82 442.7"/>
            <polygon class="cls-41" points="1399.57 442.7 1350.28 442.7 1350.28 246.32 1374.93 220.25 1399.57 246.32 1399.57 442.7"/>
            <polygon class="cls-41" points="1461.19 442.7 1411.9 442.7 1411.9 246.32 1436.54 220.25 1461.19 246.32 1461.19 442.7"/>
          </g>
          <polygon class="cls-42" points="656.78 442.7 607.49 442.7 607.49 246.32 632.13 220.25 656.78 246.32 656.78 442.7"/>
          <rect class="cls-40" x="-194.8" y="284.62" width="851.13" height="54.04"/>
          <g>
            <polygon class="cls-41" points="40.65 441.7 -8.64 441.7 -8.64 245.32 16 219.25 40.65 245.32 40.65 441.7"/>
            <polygon class="cls-41" points="102.4 441.7 53.12 441.7 53.12 245.32 77.76 219.25 102.4 245.32 102.4 441.7"/>
            <polygon class="cls-41" points="164.16 441.7 114.87 441.7 114.87 245.32 139.52 219.25 164.16 245.32 164.16 441.7"/>
            <polygon class="cls-41" points="225.92 441.7 176.63 441.7 176.63 245.32 201.27 219.25 225.92 245.32 225.92 441.7"/>
            <polygon class="cls-41" points="287.67 441.7 238.38 441.7 238.38 245.32 263.03 219.25 287.67 245.32 287.67 441.7"/>
            <polygon class="cls-41" points="349.43 441.7 300.14 441.7 300.14 245.32 324.78 219.25 349.43 245.32 349.43 441.7"/>
            <polygon class="cls-41" points="411.18 441.7 361.89 441.7 361.89 245.32 386.54 219.25 411.18 245.32 411.18 441.7"/>
            <polygon class="cls-41" points="472.94 441.7 423.65 441.7 423.65 245.32 448.29 219.25 472.94 245.32 472.94 441.7"/>
            <polygon class="cls-41" points="534.69 441.7 485.4 441.7 485.4 245.32 510.05 219.25 534.69 245.32 534.69 441.7"/>
            <polygon class="cls-41" points="596.45 441.7 547.16 441.7 547.16 245.32 571.8 219.25 596.45 245.32 596.45 441.7"/>
            <polygon class="cls-41" points="658.07 441.7 608.78 441.7 608.78 245.32 633.42 219.25 658.07 245.32 658.07 441.7"/>
          </g>
          <g>
            <polygon class="cls-43" points="718.53 442.7 669.24 442.7 669.24 246.32 693.89 220.25 718.53 246.32 718.53 442.7"/>
            <polygon class="cls-43" points="780.29 442.7 731 442.7 731 246.32 755.64 220.25 780.29 246.32 780.29 442.7"/>
            <polygon class="cls-43" points="842.04 442.7 792.75 442.7 792.75 246.32 817.4 220.25 842.04 246.32 842.04 442.7"/>
            <polygon class="cls-43" points="903.8 442.7 854.51 442.7 854.51 246.32 879.15 220.25 903.8 246.32 903.8 442.7"/>
            <polygon class="cls-43" points="965.55 442.7 916.26 442.7 916.26 246.32 940.91 220.25 965.55 246.32 965.55 442.7"/>
            <polygon class="cls-43" points="1027.31 442.7 978.02 442.7 978.02 246.32 1002.66 220.25 1027.31 246.32 1027.31 442.7"/>
            <polygon class="cls-43" points="1089.07 442.7 1039.78 442.7 1039.78 246.32 1064.42 220.25 1089.07 246.32 1089.07 442.7"/>
            <polygon class="cls-43" points="1150.82 442.7 1101.53 442.7 1101.53 246.32 1126.18 220.25 1150.82 246.32 1150.82 442.7"/>
            <polygon class="cls-43" points="1212.58 442.7 1163.29 442.7 1163.29 246.32 1187.93 220.25 1212.58 246.32 1212.58 442.7"/>
            <polygon class="cls-43" points="1274.33 442.7 1225.04 442.7 1225.04 246.32 1249.69 220.25 1274.33 246.32 1274.33 442.7"/>
            <polygon class="cls-43" points="1336.09 442.7 1286.8 442.7 1286.8 246.32 1311.44 220.25 1336.09 246.32 1336.09 442.7"/>
            <polygon class="cls-43" points="1397.84 442.7 1348.55 442.7 1348.55 246.32 1373.2 220.25 1397.84 246.32 1397.84 442.7"/>
            <polygon class="cls-43" points="1459.46 442.7 1410.17 442.7 1410.17 246.32 1434.82 220.25 1459.46 246.32 1459.46 442.7"/>
            <g>
              <polygon class="cls-43" points="38.92 441.7 -10.37 441.7 -10.37 245.32 14.28 219.25 38.92 245.32 38.92 441.7"/>
              <polygon class="cls-43" points="100.67 441.7 51.38 441.7 51.38 245.32 76.03 219.25 100.67 245.32 100.67 441.7"/>
              <polygon class="cls-43" points="162.43 441.7 113.14 441.7 113.14 245.32 137.79 219.25 162.43 245.32 162.43 441.7"/>
              <polygon class="cls-43" points="224.19 441.7 174.9 441.7 174.9 245.32 199.54 219.25 224.19 245.32 224.19 441.7"/>
              <polygon class="cls-43" points="285.94 441.7 236.65 441.7 236.65 245.32 261.3 219.25 285.94 245.32 285.94 441.7"/>
              <polygon class="cls-43" points="347.7 441.7 298.41 441.7 298.41 245.32 323.05 219.25 347.7 245.32 347.7 441.7"/>
              <polygon class="cls-43" points="409.45 441.7 360.16 441.7 360.16 245.32 384.81 219.25 409.45 245.32 409.45 441.7"/>
              <polygon class="cls-43" points="471.21 441.7 421.92 441.7 421.92 245.32 446.56 219.25 471.21 245.32 471.21 441.7"/>
              <polygon class="cls-43" points="532.96 441.7 483.67 441.7 483.67 245.32 508.32 219.25 532.96 245.32 532.96 441.7"/>
              <polygon class="cls-43" points="594.72 441.7 545.43 441.7 545.43 245.32 570.07 219.25 594.72 245.32 594.72 441.7"/>
              <polygon class="cls-43" points="656.34 441.7 607.05 441.7 607.05 245.32 631.69 219.25 656.34 245.32 656.34 441.7"/>
            </g>
          </g>
          <g>
            <path class="cls-44" d="M1118.43,427.55h0Z"/>
            <path class="cls-45" d="M532.24,427.64h0Z"/>
            <path class="cls-46" d="M401.05,455.54c51.52,4.1,68.59,11.39,67.2,12.31s19,12.59,96.91,4c19.87-2.19,34.25-3.1,44.91-3.23,26.47,3.82,35.81,8.1,34.77,8.78-1.39.91,19,12.59,96.91,4s71.36,2.51,87.92,3.12,60.82-3.14,60.82-3.14l-.12-2.58c80.88-8.75,72.13,2.33,89.35,3,16.56.61,60.82-3.14,60.82-3.14l-.75-16c11.2,2.54,15.36,4.69,14.65,5.16-1.39.91,19,12.59,96.91,4,30.21-3.33,47.72-3.7,58.81-2.87,13,2.76,17.79,5.19,17,5.69-1.39.91,19,12.59,96.92,4s71.36,2.51,87.92,3.11,60.81-3.13,60.81-3.13l-1.63-35s6.48-16.91,11.29-16.9-5-3.18-21,11c0,0-6.68-13-16.06-16.42,0,0,11.85,10.49,1.2,19.16,0,0-3.9-19.12-28.51-30.09,0,0,23,20.51,14.59,28.72,0,0-5.33-6.84-8.75-9.12,0,0,5.84,11.4.36,13.68,0,0-18.24-20.39-20.88-24.34,0,0,11.35,19.78,7.51,24.35,0,0-10.62-9.13-13.93-12.78,0,0,4.1,12,2.09,10.95-3.55-1.82-9.56-13.82-26-17.56,0,0,17.38,8.9,15,15.28,0,0-9.66-8.21-15.12-10.49,0,0,8.14,6.39,5.35,9.13,0,0-20.39-20.37-35.78-22.73,0,0,20.13,12.57,18,19l-3.54,5.53s-4-4.56-6.74-8.21c0,0-2.17-.86-1.51,4.59,1.81,15,.68-4.41-14.66-15.41,0,0,12.62,17.67,5.66,22.69,0,0-17.63-15.06-25.71-25.55,0,0,8.5,11.09,3.31,21-1.45-2.77-10.46-11.38-10.94-17.2,1.11-1.23,2.22-2,3.25-2,4.82,0-5-3.18-21,11,0,0-6.67-13-16-16.42,0,0,8.83,7.82,4.38,15.54-9.42-9.29-2.73-6.72-3.07,3.52-.44.37-3.39-18.73-28.63-30,0,0,23,20.5,14.59,28.71,0,0-5.33-6.84-8.75-9.12a31.59,31.59,0,0,1,2.31,6.28c-.46,1.82-1.16,4.5-2,7.32-.64-.72-5.4-6.05-10.25-11.6.78-6.34,2-12.59,3.49-14.75,0,0-3.53,4.94-7.23,10.42-10.73-12.48-6.92-10.32-1.55,2.31-1.79,2.7-3.51,5.38-4.77,7.53-7.85-7.06-7.1-7.17-6.74-6.08-1.26-2.09-2.62-3.88-3.94-4.62,0,0,4.78,6.07,3.16,12.67-3.9-4.19-10.38-12.24-23.29-15.18,0,0,17.07,8.74,15.1,15.11-.42-.34-10.42-8.33-15.18-10.31a25,25,0,0,1,5.23,5.58,17.36,17.36,0,0,1,.19,3.47c-.17.17-20.24-20.27-35.84-22.66,0,0,20.12,12.57,17.95,19l-3.53,5.54s-4-4.56-6.74-8.21c0,0-2.18-.87-1.52,4.58,1.81,15,.68-4.41-14.65-15.41,0,0,12.61,17.67,5.65,22.69,0,0-17.63-15.05-25.7-25.55,0,0,8.5,11.09,3.3,21-1.45-2.77-11.11-12.09-11-17.71,0,0-4.37,12.66-.38,22.24,0,0-2-4.67-14.92-9.17.24.1,2.06,1.09,2.57,9.18,0,0-15.64-11-21.68-19.39,0,0,4.69,7.07-.33,19.39,0,0-17.17-1.8-17.61-16.64,0,0-4.46,19.84-8.63,22.57,0,0-.53-9.7.25-15.11s-3.8,5.53-5.06,6.9.57-25.95,4.1-31c0,0-14.77,20.65-15.55,24.33,0,0-4.6-12.49-8.69-14.77,0,0,5.13,6.52,3,13.38a17.59,17.59,0,0,0-5.78,1.25c-2.1-2.17-6-5.19-13.1-9,0,0,2.72,1.67-.26,15.36,0,0-10.27-3.21-12.83-14.15-2,6.15,1,3.77-5.62,1.38a21,21,0,0,1,4.15,5.42A20.7,20.7,0,0,0,1018,436a8.81,8.81,0,0,1-.7,1.26l-3.82.17c-2.18-5.81-8.94-18.79-27.59-27.1,0,0,21.38,19.08,15.36,27.8l-1.42.1c-1.52-1.88-5.4-6.51-8.1-8.31,0,0,2.44,4.76,2.69,8.74-2.09.18-4.17.37-6.2.59-5.51-6.22-15.14-17.2-17-20,0,0,8,14,8.3,21.13-1.33.22-2.57.45-3.68.7-3.39-3-8.84-7.83-11-10.26,0,0,4.1,12,2.09,10.95-3.55-1.83-9.56-13.83-26-17.56,0,0,17.38,8.89,15,15.28,0,0-9.65-8.21-15.12-10.49,0,0,8.15,6.38,5.35,9.12,0,0-20.39-20.37-35.78-22.73,0,0,20.13,12.57,18,19L924.79,440s-4-4.56-6.74-8.21c0,0-2.18-.86-1.52,4.59,1.81,15,.68-4.42-14.65-15.42,0,0,12.61,17.67,5.65,22.69,0,0-5.52-4.71-11.8-10.71,1.48-2,3-3.45,4.42-3.44,3.07,0,.16-1.29-6.49,1.45-23.58-23-4.58-11-7.06,3.79-1,.64-2,1.35-3.06,2.14-2.08-2.62-9.5-10.68-9.36-15.46a44.49,44.49,0,0,0-1.89,9.26,24.22,24.22,0,0,0-9.16-6.64s8.07,7.15,4.89,14.53a45.26,45.26,0,0,0-6.89-3.26c-3.58-6.54-10.9-15.76-25.32-22.19,0,0,15.66,14,16.41,23.47-24.18-19.87-4.11-14.4-12.74,7-30.58-34.44-15-21.17-10.6-3.79-12-8.13-3.35-23-10-2-7.35-6.81-3.35-5.24-1.69,4.9-.24.61-.47,1.19-.71,1.76A21.54,21.54,0,0,1,813,441c.11-7.77,1.94-12-2.76-2.93-.69-.68-1.42-1.39-2.22-2.1.35-7.94,2-22.11,4.43-25.6,0,0-8.82,12.32-13.19,19.62a37.57,37.57,0,0,0-5.32-2.14c-1.64-3.31-3.75-6.82-5.73-7.92a18.68,18.68,0,0,1,3.24,7.22c-.94-.23-.84-.26,0,.22a12.75,12.75,0,0,1,0,4.77c-1.17-.56-.87-.45-.06.24a11.17,11.17,0,0,1-1.23,3.16c-7.18-6.21-19.66-15.78-29.91-17.36a93.75,93.75,0,0,1,13,10c.29,2,.23,5.59-1,11.76-1.33-1.58-3-3.59-4.29-5.37,0,0-1.79-.71-1.63,3.21a19.23,19.23,0,0,1-7.12-11c-1.83,5.54,1.35,3.24-7.42-3.06a62.23,62.23,0,0,1,5.88,10.49c-.35,3.29-.25,7.06,1.24,9.92,0,0-1.47.05-3.91.16-5.11-4.52-17-15.33-23.26-23.42,0,0,8.5,11.08,3.3,21-1.45-2.76-11.11-12.1-11-17.7,0,0-4.37,12.66-.38,22.24,0,0-1.59-3.81-11.41-7.85l-.08-1.73s6.48-16.91,11.29-16.9-5-3.18-21,11c0,0-6.67-13.05-16.05-16.42,0,0,8.17,7.23,4.84,14.65-2.82-3.31-1.4-2.49-.43.84a13.26,13.26,0,0,1-3.21,3.67s-3.9-19.12-28.52-30.09c0,0,23,20.51,14.59,28.72-1.76-2.26-6.06-7.33-8.75-9.12,0,0,5.85,11.4.37,13.68,0,0-2.95-3.3-6.65-7.5.77-6.8,2-13.87,3.66-16.2,0,0-4,5.54-7.88,11.39-17.87-20.52-7.57-11.82-2.71,4.1-1.23,1.91-2.36,3.71-3.23,5.23-1.67-1.48-3.73-3.3-5.64-5.06-1.46-2.69-3.16-5.19-4.78-6.09a17.91,17.91,0,0,1,2,3.52c-.85-.82-1.59-1.56-2.13-2.16,0,0,4.11,12,2.09,11-3.55-1.82-9.56-13.82-26-17.56,0,0,16.95,8.68,15.12,15-3.53-2.34-10.21-8.17-15.2-10.25,0,0,8.15,6.39,5.35,9.13,0,0-20.39-20.37-35.77-22.73,0,0,20.12,12.57,17.95,19l-3.53,5.53s-4-4.56-6.74-8.21c0,0-2.18-.86-1.52,4.59,1.81,15,.68-4.41-14.65-15.41,0,0,12.61,17.67,5.65,22.69,0,0-17.63-15.06-25.7-25.55,0,0,8.5,11.09,3.3,21-1.44-2.76-11.11-12.11-11-17.71,0,0-4.37,12.66-.38,22.24,0,0-1.95-4.68-14.92-9.17.24.09,2.06,1.09,2.57,9.17,0,0-15.64-10.94-21.68-19.38,0,0,4.69,7.07-.33,19.39,0,0-17.17-1.8-17.6-16.64,0,0-4.47,19.83-8.64,22.57,0,0-.53-9.7.25-15.12s-3.8,5.54-5.06,6.91.57-26,4.1-31c0,0-14.77,20.65-15.55,24.33,0,0-4.6-12.49-8.69-14.77,0,0,8.08,10.26-.31,18.59,0,0,.07-4.6-15.6-13,0,0,2.72,1.67-.26,15.36,0,0-10.27-3.22-12.83-14.15,0,0-3.63,11-.3,17.34,0,0-40.6,1.38-47.55,5.49S349.53,451.44,401.05,455.54Zm897.44-18.1c-.08-1.56,4.36-11.39,7.73-15.32-.88,2.94-3.51,13.29-.12,21.42C1306.1,443.54,1304.94,440.77,1298.49,437.44Zm-251-5.84a4.53,4.53,0,0,0-1.08-2.29c1.28-1.58,2.58-2.63,3.78-2.62h.48A12.82,12.82,0,0,1,1047.49,431.6Zm-249.13,0a14,14,0,0,0-1.42,3.07s-.94-2.55-2.34-5.55C795.75,429.81,797.05,430.65,798.36,431.59Z"/>
          </g>
          <g class="cls-47">
            <path class="cls-48" d="M1069.09,744.93l0,0Z"/>
            <path class="cls-49" d="M378.89,743.94l0,0Z"/>
            <path class="cls-50" d="M224.47,780.4c60.67,5.49,80.78,15.12,79.15,16.32s22.44,16.6,114.12,5.45c23.39-2.85,40.31-4,52.87-4.17,31.17,5.08,42.18,10.73,40.95,11.62-1.64,1.2,22.45,16.61,114.12,5.45s84,3.44,103.53,4.27,71.6-4,71.6-4l-.15-3.39c95.22-11.36,84.93,3.2,105.22,4.06,19.5.83,71.6-4,71.6-4l-.92-21.09c13.2,3.36,18.1,6.21,17.26,6.82-1.63,1.2,22.45,16.6,114.12,5.45,35.57-4.33,56.19-4.78,69.24-3.67,15.3,3.66,21,6.86,20,7.52-1.63,1.19,22.45,16.6,114.12,5.44s84,3.44,103.53,4.27,71.6-4,71.6-4l-2-46.11s7.6-22.23,13.26-22.21-5.94-4.19-24.66,14.39c0,0-7.88-17.17-18.93-21.64,0,0,14,13.83,1.45,25.22,0,0-4.63-25.16-33.64-39.64,0,0,27.09,27,17.24,37.81,0,0-6.29-9-10.32-12,0,0,6.9,15,.46,18,0,0-21.52-26.87-24.64-32.06,0,0,13.4,26,8.89,32,0,0-12.53-12-16.43-16.83,0,0,4.85,15.77,2.48,14.41-4.18-2.41-11.28-18.21-30.62-23.16,0,0,20.48,11.74,17.74,20.14,0,0-11.39-10.82-17.83-13.83,0,0,9.61,8.41,6.32,12,0,0-24-26.84-42.17-30,0,0,23.72,16.58,21.18,25.06l-4.15,7.28s-4.78-6-7.95-10.82c0,0-2.56-1.14-1.78,6,2.16,19.72.79-5.8-17.28-20.3,0,0,14.89,23.27,6.7,29.86,0,0-20.79-19.84-30.32-33.66,0,0,10,14.6,3.94,27.66-1.71-3.64-12.34-15-12.92-22.65,1.31-1.61,2.61-2.64,3.83-2.63,5.67,0-5.94-4.2-24.66,14.38,0,0-7.88-17.17-18.93-21.63,0,0,10.41,10.31,5.19,20.45-11.11-12.24-3.24-8.84-3.61,4.64-.52.48-4-24.66-33.77-39.51,0,0,27.09,27,17.24,37.81,0,0-6.29-9-10.33-12a44,44,0,0,1,2.73,8.26c-.53,2.4-1.35,5.93-2.35,9.64-.76-1-6.38-8-12.09-15.3.9-8.33,2.3-16.55,4.08-19.39,0,0-4.15,6.5-8.5,13.7-12.65-16.44-8.16-13.6-1.82,3-2.11,3.55-4.13,7.07-5.61,9.9-9.25-9.31-8.37-9.44-7.94-8-1.48-2.76-3.1-5.12-4.65-6.09,0,0,5.64,8,3.75,16.68-4.61-5.53-12.25-16.12-27.45-20,0,0,20.11,11.52,17.8,19.9-.49-.45-12.28-11-17.89-13.6,0,0,4.32,3.78,6.17,7.36a25,25,0,0,1,.22,4.56c-.19.23-23.86-26.7-42.24-29.88,0,0,23.72,16.58,21.18,25.06l-4.15,7.28s-4.78-6-8-10.82c0,0-2.57-1.13-1.78,6,2.16,19.72.79-5.81-17.28-20.31,0,0,14.88,23.27,6.69,29.86,0,0-20.78-19.84-30.31-33.66,0,0,10,14.6,3.93,27.66-1.71-3.65-13.1-15.93-12.93-23.32,0,0-5.12,16.65-.4,29.27,0,0-2.31-6.16-17.59-12.1.29.12,2.43,1.44,3,12.07,0,0-18.43-14.43-25.56-25.54,0,0,5.54,9.31-.35,25.51,0,0-20.22-2.4-20.76-21.93,0,0-5.22,26.09-10.13,29.69,0,0-.63-12.77.28-19.89s-4.47,7.28-6,9.07.63-34.15,4.77-40.78c0,0-17.35,27.14-18.26,32,0,0-5.45-16.43-10.26-19.44,0,0,6.05,8.58,3.51,17.6a18.87,18.87,0,0,0-6.79,1.64c-2.48-2.86-7-6.84-15.45-11.87,0,0,3.21,2.21-.28,20.21a25.58,25.58,0,0,1-15.13-18.64c-2.38,8.09,1.2,5-6.62,1.8a27.65,27.65,0,0,1,4.91,7.15c-.43,3.94-.47,8.52.76,12.27a12.08,12.08,0,0,1-.81,1.66c-1,0-2.58.11-4.51.21C942.92,750.06,934.94,733,913,722c0,0,25.21,25.15,18.14,36.61l-1.67.13c-1.8-2.47-6.38-8.58-9.56-11,0,0,2.88,6.26,3.18,11.5-2.45.23-4.91.49-7.29.77-6.5-8.19-17.87-22.66-20.07-26.32,0,0,9.46,18.38,9.81,27.81-1.57.29-3,.59-4.33.92-4-3.93-10.42-10.32-13-13.52,0,0,4.85,15.77,2.48,14.41-4.19-2.41-11.29-18.21-30.63-23.16,0,0,20.48,11.74,17.74,20.14,0,0-11.38-10.82-17.82-13.83,0,0,9.6,8.41,6.31,12,0,0-24-26.84-42.16-30,0,0,23.72,16.58,21.17,25.06l-4.15,7.28s-4.77-6-8-10.82c0,0-2.56-1.14-1.77,6,2.16,19.73.79-5.8-17.29-20.3,0,0,14.89,23.27,6.7,29.86,0,0-6.51-6.22-13.92-14.11,1.74-2.66,3.55-4.54,5.2-4.53,3.62,0,.19-1.7-7.63,1.9-27.81-30.3-5.42-14.55-8.31,5q-1.73,1.26-3.59,2.82c-2.46-3.46-11.21-14.08-11.06-20.37a64.38,64.38,0,0,0-2.21,12.18c-3-3.65-6.67-7.08-10.8-8.75,0,0,9.53,9.43,5.8,19.13a52.7,52.7,0,0,0-8.13-4.31c-4.23-8.61-12.86-20.76-29.85-29.24,0,0,18.47,18.42,19.36,30.92-28.5-26.19-4.86-19-15,9.12-36.08-45.37-17.64-27.87-12.49-5-14.18-10.72-4-30.29-11.72-2.65-8.66-9-4-6.9-2,6.45-.28.79-.56,1.57-.84,2.3a27.28,27.28,0,0,1-4.11-4.47c.12-10.23,2.26-15.83-3.26-3.86-.8-.9-1.67-1.83-2.61-2.77.4-10.44,2.29-29.09,5.16-33.68,0,0-10.35,16.2-15.48,25.8a42.13,42.13,0,0,0-6.28-2.83c-1.94-4.36-4.42-9-6.76-10.44a26.28,26.28,0,0,1,3.83,9.52c-1.11-.3-1-.34.05.28a18.85,18.85,0,0,1,0,6.27c-1.37-.73-1-.58-.06.33a16.28,16.28,0,0,1-1.44,4.15c-8.47-8.18-23.18-20.8-35.26-22.89A111.35,111.35,0,0,1,662.76,745c.34,2.67.28,7.35-1.2,15.46-1.58-2.08-3.51-4.72-5.07-7.07,0,0-2.1-.94-1.91,4.23a25.86,25.86,0,0,1-8.4-14.47c-2.15,7.28,1.6,4.26-8.75-4a85.4,85.4,0,0,1,7,13.81c-.4,4.34-.28,9.3,1.48,13.06,0,0-1.74.06-4.6.2-6-6-20.09-20.2-27.44-30.86,0,0,10,14.6,3.93,27.66-1.71-3.65-13.11-16-12.93-23.32,0,0-5.12,16.65-.4,29.26,0,0-1.88-5-13.45-10.35l-.1-2.28s7.6-22.23,13.27-22.2-5.95-4.2-24.67,14.38c0,0-7.88-17.17-18.93-21.63,0,0,9.63,9.54,5.73,19.29-3.33-4.37-1.65-3.28-.5,1.1a17,17,0,0,1-3.78,4.82s-4.63-25.15-33.63-39.63c0,0,27.09,27,17.23,37.81-2.08-3-7.15-9.66-10.32-12,0,0,6.91,15,.46,18,0,0-3.48-4.35-7.85-9.89.89-9,2.37-18.24,4.28-21.3,0,0-4.65,7.27-9.26,15-21.07-27-8.92-15.57-3.18,5.39-1.45,2.51-2.77,4.89-3.79,6.87-2-1.94-4.4-4.35-6.65-6.66-1.72-3.54-3.73-6.84-5.63-8a25.3,25.3,0,0,1,2.41,4.64c-1-1.08-1.87-2.05-2.5-2.84,0,0,4.85,15.78,2.47,14.41-4.18-2.41-11.28-18.21-30.62-23.15,0,0,20,11.44,17.83,19.82-4.16-3.09-12-10.77-17.91-13.52,0,0,9.6,8.42,6.31,12,0,0-24-26.84-42.16-30,0,0,23.72,16.58,21.17,25.06l-4.15,7.28s-4.78-6-7.95-10.82c0,0-2.56-1.13-1.78,6,2.17,19.72.8-5.81-17.28-20.31,0,0,14.89,23.27,6.7,29.86,0,0-20.79-19.84-30.31-33.66,0,0,10,14.6,3.93,27.66-1.71-3.64-13.11-15.94-12.93-23.32,0,0-5.12,16.65-.41,29.27,0,0-2.31-6.16-17.58-12.1.28.13,2.43,1.44,3,12.08,0,0-18.43-14.44-25.57-25.55,0,0,5.54,9.31-.35,25.51,0,0-20.21-2.4-20.75-21.93,0,0-5.22,26.09-10.13,29.69,0,0-.64-12.77.27-19.89s-4.46,7.28-5.95,9.07.63-34.15,4.77-40.78c0,0-17.35,27.14-18.26,32,0,0-5.44-16.43-10.26-19.44,0,0,9.53,13.51-.34,24.45,0,0,.09-6-18.39-17.08,0,0,3.21,2.21-.28,20.21a25.58,25.58,0,0,1-15.13-18.64s-4.24,14.41-.31,22.82c0,0-47.81,1.73-56,7.13S163.81,774.91,224.47,780.4Zm1056.65-22.12c-.09-2.06,5.12-15,9.07-20.15-1,3.87-4.1,17.48-.1,28.19C1290.09,766.32,1288.72,762.67,1281.12,758.28Zm-295.55-8.16a6.4,6.4,0,0,0-1.27-3c1.5-2.07,3-3.44,4.45-3.44h.56A17.21,17.21,0,0,1,985.57,750.12Zm-293.33-.49a19.91,19.91,0,0,0-1.67,4s-1.11-3.36-2.77-7.31C689.16,747.29,690.69,748.4,692.24,749.63Z"/>
          </g>
          <path class="cls-51" d="M1601.89-152.48l-1.42-.1c0-.31,0-.62,0-.93a142.51,142.51,0,0,0-1.66-21.77c1.85-.53,3.74-1.17,5.65-1.91,16.22-6.34,27.58-18.15,25.38-26.38s-17.14-9.77-33.36-3.43q-2.91,1.14-5.58,2.49c-13.3-33.45-39.26-58.16-70.38-65a108.08,108.08,0,0,0,10.51-47c0-31.57-13-59.48-32.83-76.37,7.08-14,9.08-27.36,4.23-31.82-5.47-5-17.69,3.11-27.8,18.29a65,65,0,0,0-20.85-3.44c-23.86,0-45.2,13.07-59.37,33.61-10-20.13-28.27-33.61-49.13-33.61a48.29,48.29,0,0,0-16.4,2.88c-19.2-51.46-53.91-92.65-96.94-114.87,1.84-9.56.87-17.67-2.56-19s-7.91,4.16-11.09,12.74a159,159,0,0,0-30.14-8.95q1-3,1.92-6.3c5.3-19.57,4.08-37.62-2.73-40.31s-16.62,11-21.91,30.58a98.73,98.73,0,0,0-2.66,13.28c-1.37,0-2.74-.06-4.11-.06a156.47,156.47,0,0,0-21.19,1.44c-.39-10.85-3.58-19.32-7.45-19.32-4.14,0-7.49,9.65-7.49,21.55v.56c-54.45,12.91-100.41,54.42-126.72,111.06a49,49,0,0,0-23.77-6.22c-29.71,0-54.14,27.33-57,62.32a63.39,63.39,0,0,0-36.74-12,61.89,61.89,0,0,0-26.4,5.95c-3.07-12.8-8.92-21.8-13.53-20.42-4.89,1.46-6.51,14-3.64,28.1.23,1.08.47,2.14.73,3.18a80.28,80.28,0,0,0-10.67,11.45c-.29-.59-.6-1.18-.91-1.77-6.55-12.13-15.27-19.27-19.49-15.95s-2.33,15.85,4.21,28a58.4,58.4,0,0,0,5.32,8.2,102.61,102.61,0,0,0-8.53,41.37,102.43,102.43,0,0,0,8.68,41.71c-15.64,11.87-26,32.9-26,56.86,0,.45,0,.88,0,1.32a57,57,0,0,0-12.16-1.32c-13.88,0-26.79,5.06-37.53,13.72-.73-.78-1.5-1.55-2.32-2.3-7.83-7.21-16.21-9.84-18.72-5.86s1.72,12.85,9.39,20a83,83,0,0,0-9.32,15c-6.6-4.79-12.86-6.11-15-2.77-2.42,3.84,1.52,12.42,8.85,19.5a97.11,97.11,0,0,0-3.08,24.46c0,45.18,30.31,81.8,67.7,81.8a55.71,55.71,0,0,0,5.66-.29c9.56,54,49.25,94.41,96.76,94.41a83.51,83.51,0,0,0,31.26-6.09c25.45,54.43,73.78,91.17,129.21,91.17,27.43,0,53.11-9,75.15-24.68,15.85,61.75,63.5,106.61,119.82,106.61,52.83,0,98-39.46,116.51-95.31a86.27,86.27,0,0,0,38.86,9.31c46.19,0,85.18-37.26,97.5-88.26,1.34.11,2.69.17,4.06.17,33.31,0,60.32-32.63,60.32-72.88a85.35,85.35,0,0,0-5.75-31.09c19.8-11.56,35.88-30.95,45.48-54.86q4.07.67,8.34,1c28,2.24,51.3-7.46,52.08-21.66S1629.87-150.24,1601.89-152.48Z"/>
          <path class="cls-52" d="M1126.6-15.66c40.74,55.19,52.16,117.52,52,175.8-.06,22.64.12,57.63-.31,92.19.88,26.38,1.3,52.76,1.1,79.15-.35,46.12-2.24,92.58-7.37,138.43a152.62,152.62,0,0,1-14.22,49.88c-7.78,16-18.3,30.63-29.7,44.24-13.9,16.6-29.78,31.6-46.09,45.8a121.29,121.29,0,0,1-34.1,21.23c1.22,1.35,4,1.92,5.64,2.31,17.06,4,35.14,3.21,52.4,1.21,19.41-2.26,38.72-5.52,58-8.49,18.12-2.78,36.24-4.43,54.32-.46,9.2,2,18.14,5,27.18,7.59a230.71,230.71,0,0,0,27.54,5.92c40.06,6.35,80.74,6.4,121.2,7,14.51.22,29.07.5,43.59,0-21.29-8.36-57.89-23.8-91.45-43.21-58.5-33.81-69.59-35.35-91.3-137.19-25.87-121.34-2.51-228.95,5-283.12S1332.17,7.84,1332.17,7.84l152.29-94-20.69-26.58s-103.4,65.41-114.68,60.31,26.32-81.76,26.32-81.76l-23.81-30.67s-84.82,237-88.37,243.24-12.54,26.58-25.08,16.36-9.39-328.08-9.39-328.08l-65.18,22.49s5.64,137-1.26,145.12-86.48-60.29-91.5-73.59,7.53-106.28,7.53-106.28l-16.3-9.2s-4.4,85.86-11.28,94-57.66-46-57.66-46L979.32-170S1085.86-70.85,1126.6-15.66Z"/>
          <path class="cls-53" d="M1872-6.55a53.63,53.63,0,0,0-2-12.09,29.61,29.61,0,0,0,5.91-1.69c-31.7-22.45-69.28-34.25-109-21.07-1.27.42-2.45-1.45-1.36-2.34,5.86-4.75,9-11.22,12.81-17.46-7.76-4.55-16.83-3.42-25.19-.82-1.43.44-2.16-1.33-1.34-2.32,6.28-7.62,13.9-14.16,19.47-22.35-11.87-3.9-24-.68-35.31,4-1.09.45-2.16-1.08-1.53-2,9.65-13.88,28.81-22.43,33.79-39.22-12.34.07-21.23,6.48-29.79,15.08-6.94,7-13.62,14.1-23.1,17.49a1.3,1.3,0,0,1-1.59-1.6,96,96,0,0,0,4.27-12.9c.73-3.11,3-11.65.51-14.53-2.67-3.12-11.5-2-15.13-1.11a32,32,0,0,0-11.82,5.92c-1.11.84-2.15-.72-1.7-1.71,4.27-9.49,7.42-23.69-1.31-31.84-9.82-9.17-24.34-.94-32.84,5.83a1.2,1.2,0,0,1-1.87-.24c-7.55-13.91-16.5-46.13-37.79-32.06a1.37,1.37,0,0,1-2-1.17c-.51-6.11-5.28-10.2-7.93-15.39-9.46,3.77-16.79,10.95-22.14,19.53a1.4,1.4,0,0,1-2.55-1.08c3.07-14.33,6.09-28.77,6.74-43.45.61-13.77-.39-30.72-11.91-40.06-19.82,31.6-4.67,68.64-11.09,103.13-.27,1.47-2.13,1.07-2.58,0-5.66-13.42-20.25-9.12-28.66-1.11a1.37,1.37,0,0,1-2.27-1.32c.95-3.86.43-7.82,1.16-11.64-11.38,2.48-20.86,9-29.79,16.41-1.16,1-3-.25-2.17-1.67,5.14-8.88,11.19-17.48,14.55-27.26a47.28,47.28,0,0,0,1.61-5.73c.65-3.13,2-5.8-1.28-7-3.79-1.32-9.23.1-12.7,1.69-13.4,6.13-21,21.19-30.9,31.36a1.43,1.43,0,0,1-2.37-.63,144.06,144.06,0,0,1-3-22.94c-.32-5.69-.26-11.54-1.54-17.12-3.51-15.36-20.67-20.35-34-24.22a1.42,1.42,0,0,1-.83-2.07c3.71-4.84,6.92-10.05,7.27-16.31a26.34,26.34,0,0,0-.07-3.44q-.58-3.11-3.54-2.48c-3.08-1-7.69-.48-10.67.25a1.42,1.42,0,0,1-1.58-2.06c5.38-8.39,25-21.94,16.15-33-7.47-9.28-26.45-2.61-34.86,2.22-1.42.82-2.61-1-1.66-2.15,6.61-7.95,15.67-14.34,19.82-24-15.07-5.83-30.92-4.2-45.67,2.09a1.31,1.31,0,0,1-1.59-2.05c5.33-5.8,7.91-13.6,11.18-20.68-15.75-5.24-31.14,6.06-44,14.1-1.28.8-2.41-.95-1.53-2,10.07-11.73,20.76-23.86,25-39-12.07.88-22.32,7.65-30.15,16.7-.92,1.06-2.53-.31-1.88-1.45a53.84,53.84,0,0,0,6.64-24.31,63.29,63.29,0,0,0-14.87,18.65,1.22,1.22,0,0,1-2.2-.29c-5-13.68-6.62-28.75-14.48-41.22-20,22.7-4,55.78-.54,81.84h0l0,.27c.16,1.2-1.7,1.33-2,.27-3.55-11.67-18.61-17.46-29.31-20-10.42-2.46-26.42-4.27-34.18,5.05a1.11,1.11,0,0,1-1.85-.49c-.88-3.9-2.15-10.33-6.81-11.4-3.13-.71-6.44,1.66-8.71,3.47-5.23,4.17-9.39,9.74-13.25,15.13-.66.92-2.39.71-2.32-.63,1-18.91,4-37.68,4.21-56.63.26-19.16-2.1-39.7-15-54.73-32,37.5-12.65,88.64-5.77,131.67a1.15,1.15,0,0,1-2.22.61c-4.58-13.86-11.23-32.8-29.51-26.72a1.13,1.13,0,0,1-1.25-.51c-7.77-12.07-22.27-2.4-29.08,5.47-.78.9-2.53-.06-2.07-1.2,2.36-5.88.63-11.16,0-17A47.1,47.1,0,0,0,1101-316.65c-1,1.16-2.59-.33-2-1.53,8.53-16.75,19.57-32.31,26-50.07,2.92-8,6.44-19.44,3.87-28.05-.86-2.87-1.42-2-4.16-1-2,.74-4,1.56-5.91,2.46a81.08,81.08,0,0,0-10.74,6.09c-27.56,18.4-42.46,49.52-61.93,75.25a1.19,1.19,0,0,1-2.16-.91c.72-4.08,1.58-10.25-2.61-12.86-2.82-1.75-6.71-1.06-9.72-.27-7.3,1.9-14.25,6.07-20,10.89a1.26,1.26,0,0,1-2.09-1.21c1.59-6.14.26-12.78,0-19.07-12.57-.34-22,11.22-26.83,21.78-.56,1.22-2.44.56-2.44-.67.15-25.44,4.84-52.45-5.79-76.45-18.2,26.2-27.3,58.33-24.22,90.19.11,1.23-1.47,1.58-2.23.93-13.53-11.5-34.37-17.54-46-.27a1.32,1.32,0,0,1-2,.27c-8.85-9.77-19.38-5-25.43,4.89a1.33,1.33,0,0,1-2.26,0c-2.25-3.66-5.88-6.27-9.07-9.11-6.7,7.74-9.43,18.14-12.59,27.69a1.31,1.31,0,0,1-2.51,0c-3.53-15.46-4.69-31.33-7.22-47-2.38-14.7-5.74-30.4-15.39-42.17-19.31,33.76-5,79.25,9.53,112.17a1.3,1.3,0,0,1-2,1.57,52,52,0,0,0-11.86-7.57c-2.16,13.32,4,25.55,10.46,36.91a1.3,1.3,0,0,1-2,1.57c-4.84-4.18-17.65-14.3-22.39-4.72-3.58,7.22-.84,17.93,3,24.43,8.65,14.53,25.13,24.09,39.82,31.51,1.41.71.33,2.57-1,2.35-7.93-1.32-16.54-1.29-23.69,2.88-7.49,4.37-11,12.05-12.52,20.26a1.29,1.29,0,0,1-2.33.31c-1.82-4.1-5.58-5.24-8.91-7.46-5.74,8.2-7.5,17.45-7.61,27.42a1.27,1.27,0,0,1-2.49.34c-4.75-13.43-6.81-27.66-11.26-41.2-2-6.22-4.49-12.53-8.31-17.91-.87-1.23-4.75-6.74-6.5-6.45-1.58.27-3.86,5.18-4.63,6.61-6,11.27-6.57,24.91-5.23,37.37,2.73,25.27,13.11,53.48,31.11,71.93a1.18,1.18,0,0,1-1.42,1.86c-11.48-6.22-25.56-4.58-29.26,9.58a1.12,1.12,0,0,1-2,.26c-2.59-3.48-6.19-8-10.8-8.79-6.09-1-8.37,5.55-9.56,10.23-.32,1.23-1.92.81-2.05-.28-1.44-11.75-2.5-24.37-8.07-35-.58-1.12-1.31-3.16-2.44-3.76-1.41-.75-1.47,0-2.55,1.57a29.43,29.43,0,0,0-3.28,6.23,45.68,45.68,0,0,0-2.74,13.08c-1.43,18.66,4.08,38.64,12.23,55.31a.81.81,0,0,1-1.1,1.1c-7-4.1-16.59-6.43-18.43,4a21.45,21.45,0,0,0-.14,6.2,43.66,43.66,0,0,0,24.28,7.34c1,0,2,0,2.95-.1a73.8,73.8,0,0,0,70.82,53.06,73.61,73.61,0,0,0,28.23-5.59A91.15,91.15,0,0,0,1003,35a107.22,107.22,0,0,0,54.59,14.84,107.35,107.35,0,0,0,72.82-28.36,151.69,151.69,0,0,0,42.93,6.17A150.87,150.87,0,0,0,1261.78-.87a59.45,59.45,0,0,0,32.87-16.93,69.94,69.94,0,0,0,27.18,25,70,70,0,0,0,50.67,5.4,99.14,99.14,0,0,0,23,16.44,98.88,98.88,0,0,0,115.8-18.37,116.3,116.3,0,0,0,45.19,41.5,116.85,116.85,0,0,0,117.75-6,77.85,77.85,0,0,0,20,14.84,78,78,0,0,0,96-19.65q1.88,1.17,3.87,2.21a53.34,53.34,0,0,0,71.89-22.86,53.38,53.38,0,0,0,5.18-15.29c7.24-1.45,12.58-5,12-8.09C1882.81-5.44,1878-6.94,1872-6.55Z"/>
          <path class="cls-54" d="M1414.92,652.61c.38,31.31-109.68,59.86-247.77,52.88-136.69-6.91-247.77-23.67-247.77-52.88s110.93-52.87,247.77-52.87S1414.57,623.42,1414.92,652.61Z"/>
          <path class="cls-55" d="M1329.07,607.38c16.86-5.51,15.7-25.63-4.47-24.69,12.9-15.58.89-36.07-17.55-25.12-5.21-13.35-19.51-14.77-21.27.68-4.88-9.31-13.12-15-21.83-12.14,31.82-20.18-12.68-40.89-31.91-37.19,5.72-32.55-26-47.91-48.74-29.31-7.56-33.52-50.43-1.23-60,14.58-18.17-22.92-50.13-2.88-51.34,24.54-24.47-22.58-36.49,19.68-33.33,39.35-17.11-8.13-17.24,14.95-12,26.93-13.58-4-22.16,4.2-15.53,18.56-14.07-3.67-24.17,7.26-15.53,21-12.17-.47-32.63,2.1-17,15.8-7.54-1.35-11.28,2.67-16.74,3.91,1.73,6.06,4.54,4.32,9.15,5.89l-14.28,3.69c8,13.65,28.87,11.31,39,1.29,7,5.16,3.07,5.14,12.25-.82,7.7,16.57,19.76,7.93,19.14-8.24,7.93,7.86,22.43,8.34,32.14.49-16.6,15,20.91,24.85,32.2,7.79,1,16.41,21.48,10.74,26-.14,5.82,12.18,18.83,13.08,29.4,7.3,18.09,25.83,31-8,45.53-16,3,13.19,17.12,13.76,27.49,8.11-.23,2.63.2,6,0,8.73,15.5,2.81,32.82,4.89,45.19-7.62,8.44,10.21,24.62,4.9,25.67-9.59,10.12,4.92,24.25,6.94,24.5-8.32,8.22-.51,17.21-1.15,24.59-3.13-3-1.49-6.22-4.29-9.53-5.93a74,74,0,0,0,23-5.2C1349.42,612.76,1339.4,608.92,1329.07,607.38Z"/>
          <path class="cls-56" d="M1348.15,615.17a108.42,108.42,0,0,0-27.3-5c-14.46-.88-30,.42-43.34,6.83-.77.36-1.75-.69-1-1.36,3.53-3.07,7.53-5.5,10.88-8.8-4.72-6.53-13.88-6.05-20.71-4.6a54.15,54.15,0,0,0-18.59,7.54c-.67.5-1.36,1-2,1.45s-1.55-.81-.76-1.4,1.35-1,2-1.45a67.26,67.26,0,0,0,19-22c-17.76,1.19-36.5,9.46-48.23,24-.59.73-1.65-.22-1.22-1,2.55-4.64,7.38-10,6.72-15.84a27.27,27.27,0,0,0-18.79,11.65c-.55.81-1.64.13-1.26-.79,1.94-4.66,4.7-8.92,6.28-13.74-9.11,1.28-15.9,8.38-21.84,15.41-.55.65-1.32-.07-1.23-.77.68-5.29,2.28-10.38,3.11-15.64-8.08,4.3-12,14.75-15,23.23-.3.83-1.68.8-1.57-.23a107.38,107.38,0,0,0,.35-20.44c-.56-6.53-1.84-13.66-5.6-19-4.65,6.13-5,14.95-4.63,22.51a123.93,123.93,0,0,0,4,23.93.67.67,0,0,1-1.22.55c-1.45-2.68-3.94-4.76-6.89-3.37-2.67,1.26-3.84,4.36-3.93,7.3a.64.64,0,0,1-1.26.19c-2-7.66-9.77-7.88-14.3-2.57-.45.52-1.23,0-1.07-.66.84-3.47,1.36-7.54.54-11.07-1.29-5.53-5.52-.77-7.49,1.73-.47.6-1.47-.23-1-.85,2-2.74,3.1-5.52,2.69-8.94-3.88.28-7.32,2.24-10.36,4.77a.67.67,0,0,1-1-.84,25.73,25.73,0,0,0,1.89-9.45,39.09,39.09,0,0,0-13.59,8.12c-.42.37-1.29,0-1-.64a37.7,37.7,0,0,0,2.59-10.19c-6.45,3.46-10.7,10.79-13.35,17.72-.35.91-1.49.57-1.36-.4,1.93-14.36,4.4-28.73,4-43.29-11.47,11-12.65,28.74-13.37,44.21a.68.68,0,0,1-1.27.37c-1.55-3.09-4.23-8.63-8.31-7.52-3.65,1-6.48,5.4-8.68,8.37-.35.48-1.19.08-1.14-.51.22-2.37,1-8.12-1.54-9.57-1.77-1-4.22,1-5.56,2A56,56,0,0,0,1050.33,618a.62.62,0,0,1-1.06-.66,123.87,123.87,0,0,0,7.21-19.27c1.66-6.07,3.18-13,1.68-19.31-13.49,12.36-20.39,29.61-29.25,45.67-.35.64-1.15.18-1.06-.48a38.5,38.5,0,0,0,.17-11.29c-6.67,2.66-9.9,11-13.86,16.75-.36.53-1.06.2-1-.44.44-3-.35-5.84-1.09-8.71a23.16,23.16,0,0,0-4.61,11.15.49.49,0,0,1-.91.13c-1.87-4.51-3.69-9.06-5.87-13.41-1.62-3.23-3.61-7.37-6.65-9.47-2.44,4-2.39,9.67,1.54,16-12.17-.47-32.63,2.1-17,15.8-7.54-1.35-11.28,2.67-16.74,3.91,1.73,6.06,4.54,4.32,9.15,5.89l-14.28,3.69c8,13.65,28.87,11.31,39,1.29,7,5.16,3.07,5.14,12.25-.82,7.7,16.57,19.76,7.93,19.14-8.24,7.93,7.86,22.43,8.34,32.14.49-16.6,15,20.91,24.85,32.2,7.79,1,16.41,21.48,10.74,26-.14,5.82,12.18,18.83,13.08,29.4,7.3,18.09,25.82,31-8,45.53-16,3,13.19,17.12,13.76,27.49,8.11-.23,2.63.2,6,0,8.73,15.5,2.81,32.82,4.89,45.19-7.62,8.44,10.21,24.62,4.9,25.67-9.59,10.12,4.92,24.25,6.94,24.5-8.32,8.22-.51,17.21-1.15,24.59-3.13-3-1.49-6.22-4.29-9.53-5.93a74,74,0,0,0,23-5.2A19.77,19.77,0,0,0,1348.15,615.17Z"/>
          <g>
            <path class="cls-57" d="M798.56,554.13A4.59,4.59,0,0,1,794,552.9s-3.1,1.22-5.35-.51.52-3.17.52-3.17-2.81-.57-1.71-2.31c1.38-2.13,5.14-.18,5.14-.18s.31-2.89,3.92-2,2.09,2.85,2.09,2.85,4.55-.36,4.63,2-3.11,1.66-3.11,1.66S801.38,553.31,798.56,554.13Z"/>
            <path class="cls-57" d="M599,547.87a4.33,4.33,0,0,1-4.38,0,5.43,5.43,0,0,1-4.82.85c-2.53-.94-.64-2.87-.64-2.87s-2.65.18-2.28-1.59c.45-2.17,4.4-1.39,4.4-1.39s-.74-2.6,2.71-2.67,2.8,2,2.8,2,3.83-1.4,4.7.59-2.13,2.16-2.13,2.16S601.15,546.47,599,547.87Z"/>
            <path class="cls-57" d="M777,537.75a3.58,3.58,0,0,1-3.57-1.2s-2.59.82-4.24-.65.66-2.5.66-2.5-2.2-.6-1.19-1.91c1.26-1.63,4.12.1,4.12.1s.48-2.29,3.27-1.4,1.45,2.38,1.45,2.38,3.68-.06,3.55,1.79-2.58,1.17-2.58,1.17S779.32,537.24,777,537.75Z"/>
            <path class="cls-57" d="M953.46,549.14a4.1,4.1,0,0,1-4.17.39,5.17,5.17,0,0,1-4.56,1.21c-2.48-.73-.85-2.75-.85-2.75s-2.49.39-2.27-1.35c.27-2.14,4.08-1.7,4.08-1.7s-.89-2.46,2.4-2.83,2.81,1.72,2.81,1.72,3.56-1.69,4.54.18-1.84,2.3-1.84,2.3S955.44,547.62,953.46,549.14Z"/>
            <path class="cls-57" d="M664.73,536.66a5.08,5.08,0,0,1-5.16-.6s-3,1.8-5.8.29-.22-3.49-.22-3.49-3.12-.19-2.35-2.21c.87-2.52,5.38-1,5.38-1s-.39-3.18,3.65-2.77,2.9,2.76,2.9,2.76,4.76-1.09,5.44,1.4-2.88,2.25-2.88,2.25S667.53,535.35,664.73,536.66Z"/>
            <path class="cls-57" d="M634.51,531.31a3.18,3.18,0,0,1-3.2-1.15s-2.37.69-3.82-.7.66-2.25.66-2.25-2-.59-1-1.77c1.19-1.46,3.72.19,3.72.19s.52-2.08,3-1.21,1.24,2.18,1.24,2.18,3.32,0,3.18,1.71-2.4,1-2.4,1S636.63,530.88,634.51,531.31Z"/>
            <path class="cls-57" d="M923.9,537a3,3,0,0,1-3-1.57s-2.52.39-3.74-1.17,1.2-2.15,1.2-2.15-1.88-.85-.65-1.89c1.54-1.28,3.76.67,3.76.67a2.27,2.27,0,0,1,3.31-.8c2.34,1.2.77,2.33.77,2.33s3.37.46,2.84,2.09-2.64.7-2.64.7S926.14,536.91,923.9,537Z"/>
            <path class="cls-57" d="M716,556.61a4.72,4.72,0,0,1-4.79-1.31s-3.3,1.29-5.64-.49.62-3.3.62-3.3-2.92-.61-1.7-2.39c1.47-2.24,5.4-.22,5.4-.22s.41-3,4.17-2.07,2.1,3,2.1,3,4.81-.38,4.83,2.05-3.26,1.71-3.26,1.71S719,555.74,716,556.61Z"/>
            <path class="cls-57" d="M902.7,535.9a2.82,2.82,0,0,1-2.85-.37,3.62,3.62,0,0,1-3.22.1c-1.49-.83,0-1.91,0-1.91s-1.74-.13-1.24-1.24c.62-1.34,3.05-.48,3.05-.48s-.07-1.76,2.15-1.47,1.5,1.53,1.5,1.53,2.7-.55,2.95.8-1.67,1.22-1.67,1.22S904.29,535.22,902.7,535.9Z"/>
            <path class="cls-57" d="M747,549.09a3.16,3.16,0,0,1-3.17-1.46s-2.53.51-3.88-1,1-2.26,1-2.26-2-.76-.8-1.89c1.42-1.41,3.86.47,3.86.47s.8-2.07,3.31-1,1,2.35,1,2.35,3.46.3,3,2-2.6.83-2.6.83S749.23,548.84,747,549.09Z"/>
            <path class="cls-57" d="M915.76,499.12A4.12,4.12,0,0,1,911.6,498s-2.83,1.11-4.87-.47.48-2.88.48-2.88-2.57-.52-1.57-2.1c1.26-1.94,4.69-.16,4.69-.16s.27-2.64,3.54-1.8,1.91,2.6,1.91,2.6,4.13-.32,4.23,1.78-2.84,1.5-2.84,1.5S918.34,498.38,915.76,499.12Z"/>
            <path class="cls-57" d="M743.55,506a4,4,0,0,1-4,0,4.89,4.89,0,0,1-4.37.79c-2.29-.86-.59-2.61-.59-2.61s-2.4.17-2.06-1.44c.41-2,4-1.27,4-1.27s-.65-2.37,2.47-2.43,2.55,1.8,2.55,1.8,3.47-1.28,4.28.54-1.94,1.95-1.94,1.95A1.52,1.52,0,0,1,743.55,506Z"/>
            <path class="cls-57" d="M895.86,489a3.27,3.27,0,0,1-3.26-1.08s-2.35.73-3.85-.61.61-2.28.61-2.28-2-.53-1.08-1.72c1.14-1.49,3.75.09,3.75.09s.43-2.08,3-1.27,1.32,2.16,1.32,2.16,3.35,0,3.24,1.63S897.2,487,897.2,487,898,488.55,895.86,489Z"/>
            <path class="cls-57" d="M972.9,513.25a3.75,3.75,0,0,1-3.81.34A4.65,4.65,0,0,1,965,514.7c-2.25-.66-.77-2.49-.77-2.49s-2.28.35-2.06-1.25c.24-1.94,3.71-1.54,3.71-1.54s-.8-2.24,2.17-2.55,2.56,1.56,2.56,1.56,3.23-1.54,4.14.15-1.69,2.09-1.69,2.09A1.48,1.48,0,0,1,972.9,513.25Z"/>
            <path class="cls-57" d="M808.81,507.34a4.69,4.69,0,0,1-4.74-.54,5.86,5.86,0,0,1-5.32.26c-2.56-1.35-.21-3.2-.21-3.2s-2.86-.18-2.15-2c.8-2.32,4.94-.91,4.94-.91s-.36-2.92,3.35-2.55,2.68,2.54,2.68,2.54,4.37-1,5,1.27-2.66,2.08-2.66,2.08S811.39,506.13,808.81,507.34Z"/>
            <path class="cls-57" d="M778.11,489.69a2.93,2.93,0,0,1-2.92-1.05s-2.16.63-3.48-.64.61-2.05.61-2.05-1.81-.54-.91-1.6c1.08-1.33,3.39.16,3.39.16s.46-1.89,2.75-1.09,1.15,2,1.15,2,3,0,2.88,1.55-2.18.91-2.18.91S780,489.29,778.11,489.69Z"/>
            <path class="cls-57" d="M1026.65,509.12a2.92,2.92,0,0,1-3-1s-2.17.72-3.59-.5.6-2.08.6-2.08-1.86-.47-1-1.59c1.09-1.36,3.5.05,3.5.05s.41-1.93,2.78-1.23,1.19,2,1.19,2,3.11-.09,3,1.44-2.2,1-2.2,1S1028.61,508.65,1026.65,509.12Z"/>
            <path class="cls-57" d="M846.86,496.2a2.5,2.5,0,0,1-2.56-.7,3.4,3.4,0,0,1-3-.26c-1.23-.94.33-1.75.33-1.75s-1.56-.32-.92-1.27c.79-1.2,2.88-.12,2.88-.12s.21-1.61,2.2-1.11,1.12,1.59,1.12,1.59,2.57-.19,2.57,1.1-1.74.9-1.74.9S848.44,495.73,846.86,496.2Z"/>
            <path class="cls-57" d="M1004.74,500.35a2.54,2.54,0,0,1-2.59-.35,3.24,3.24,0,0,1-2.92.1c-1.35-.75,0-1.74,0-1.74s-1.59-.11-1.13-1.11c.57-1.23,2.78-.46,2.78-.46s-.08-1.58,2-1.33,1.36,1.39,1.36,1.39,2.44-.51,2.68.75-1.52,1.1-1.52,1.1S1006.21,499.71,1004.74,500.35Z"/>
            <path class="cls-57" d="M871.24,501.23a3.13,3.13,0,0,1-3.21-.64,4.17,4.17,0,0,1-3.7-.09c-1.61-1.06.2-2.18.2-2.18s-2-.27-1.27-1.5c.83-1.5,3.51-.37,3.51-.37s.08-2,2.61-1.52,1.56,1.86,1.56,1.86,3.12-.46,3.26,1.12-2,1.26-2,1.26S873.14,500.54,871.24,501.23Z"/>
          </g>
          <g>
            <path class="cls-57" d="M1046.09,7.75c-3.24,1.74-5.26-2.67-5.26-2.67s-3.55,2.65-6.13-1.12.61-6.88.61-6.88-3.23-1.25-2-5c1.58-4.63,5.89-.38,5.89-.38s.36-6.28,4.5-4.3,2.39,6.22,2.39,6.22,5.21-.79,5.3,4.25-3.56,3.61-3.56,3.61S1049.33,6,1046.09,7.75Z"/>
            <path class="cls-57" d="M1223.6-3.09c-2.26,3.3-4.79.84-4.79.84s-2.36,4.19-5.22,2.64-1-6-1-6-2.85.85-2.6-2.93a3.73,3.73,0,0,1,4.67-3.71s-1-5.35,2.75-6.14,3.23,3.74,3.23,3.74,4.08-3.67,5.21.38-2.11,5-2.11,5A5.4,5.4,0,0,1,1223.6-3.09Z"/>
            <path class="cls-57" d="M951.54,13.13C948.11,15,946,10.3,946,10.3s-3.78,2.78-6.45-1.07S940.3,2,940.3,2s-3.35-1.31-2-5.2c1.69-4.85,6.19-.45,6.19-.45s.47-6.58,4.79-4.52,2.4,6.48,2.4,6.48,5.51-.82,5.54,4.46-3.74,3.73-3.74,3.73S954.93,11.24,951.54,13.13Z"/>
          </g>
          <path class="cls-58" d="M-10.81,655.31c7.4,2.47,381.12,97.45,381.12,97.45l377.41-65.69L301.24,628.19Z"/>
          <polygon class="cls-59" points="635.51 696.77 274.88 652.64 257.19 356.21 566.14 404.45 642.09 492.64 635.51 696.77"/>
          <path class="cls-60" d="M499.81,330.23,191.4,277.35,49.94,451.53,80.28,670l291.08,71.18-13-236.8Zm-371,307.24s0,0,0,0S128.79,637.47,128.77,637.47Z"/>
          <path class="cls-61" d="M176.29,659.82a.68.68,0,0,1-.66-.65c-.36-4.94-5.81-137.65,7.75-140.82,5.43-1.26,11.24-.66,16.7.13,5.69.82,11.29,2.15,16.93,3.21,8.36,1.57,16.83,2.58,25.21,4,9.12,1.58,18.21,3.26,27.31,4.9,17.73,3.18,35.54,6.37,53.5,7.82,13.08,1,26.94,1.28,39.73-2.27l-4.41-31.76L499.81,330.23,191.4,277.35,49.94,451.53,55.57,492c.83.29,24.69,175.65,24.71,178l248.34,60.73C331.39,721.68,182.18,660.51,176.29,659.82Z"/>
          <path class="cls-62" d="M526.67,371.15q-11.37,13.37-22.38,27-8.94,11.15-17.54,22.56-2.61,3.47-5.15,7a41.71,41.71,0,0,1,18-4.2c46.9,0,84.92,83.4,84.92,186.28,0,31.7-5,65.86-11.37,92l10.78,2.6,38-11.94,6.58-207.34Z"/>
          <path class="cls-63" d="M499.81,330.23,358.35,504.41s12.19,233.51,13,236.8l73.05-14.52c-9-29.52-16.15-74.45-16.15-112.57,0-102.88,38-186.28,84.91-186.28s84.92,83.4,84.92,186.28c0,31.7-7.79,64.14-14.16,90.27l51.58-7.62,6.58-207.34Z"/>
          <g class="cls-64">
            <path class="cls-65" d="M495.06,356.72a132.27,132.27,0,0,1-.85-19.6L485,348.46c.2,5.13.56,10.25,1,15.36,2,23.22,4.26,46.42,6.43,69.62a47.54,47.54,0,0,1,8-3.49c-.87-14.73-1.65-29.46-2.52-44.19C497.28,376,496,366.41,495.06,356.72Z"/>
            <path class="cls-66" d="M577.09,416.7l-11-12.25c.28,5.16.7,10.32,1,15.46,1.2,18.25,1.71,36.56,2.35,54.85A197,197,0,0,1,578,493.82C577.49,468.11,577.1,442.4,577.09,416.7Z"/>
            <path class="cls-67" d="M423.7,423.94c3.63,34.2,10.34,68,14.64,102.09q2-8.34,4.45-16.15c-4.29-31.05-9.56-61.95-13.3-93.07Z"/>
          </g>
          <polygon class="cls-68" points="494.52 330.23 642.09 500.13 651.83 500.13 514.26 307.32 494.52 330.23"/>
          <g class="cls-69">
            <g>
              <path class="cls-70" d="M128.77,637.43s0,0,0,0S128.79,637.43,128.77,637.43Z"/>
              <path class="cls-71" d="M141.08,680.54l1,.09-1-.18Z"/>
              <path class="cls-72" d="M123.78,467.5l-5.41-4.33c0,1.6,22.2,212.52,22.7,217.28l1,.18,5.47.45Z"/>
              <path class="cls-73" d="M123.78,467.5l-5.41-4.33c0,1.6,22.2,212.52,22.7,217.28l.51,4.18,6.6,1.91Z"/>
              <path class="cls-74" d="M191.82,478.55c0,1.49,14.88,183.31,17.37,213.58l6.48,1.11L197.12,483Z"/>
              <path class="cls-75" d="M192.83,488.24c0,1.48,14.89,183.3,17.37,213.58l6.49,1.11L198.14,492.69Z"/>
              <path class="cls-76" d="M263.89,489.11c-.05,1.51,13.42,189,15.29,215l6.48,1.11L269.15,493.61Z"/>
              <path class="cls-77" d="M265.16,504.37c-.05,1.51,13.41,189,15.28,215l6.48,1.11-16.5-211.63Z"/>
            </g>
          </g>
          <path class="cls-78" d="M20.76,458.45l3.7,12.34,148,29.34,4.94-4.05v8l167.86,24L511.8,316.57S651.21,498,651.83,500.13s3.7-20.09,3.7-20.09L514.26,283.26,340.92,512.12s-179.51-43.18-181.36-43.18S20.76,458.45,20.76,458.45Z"/>
          <path class="cls-79" d="M188.55,260.43c-1.85.62-167.79,198-167.79,198l151.75,27.76,11.11-4.93-3.09,9.25,160.39,21.59L514.26,283.26Z"/>
          <path class="cls-78" d="M362.72,478.65c-35.46-6.79-71.26-12.82-105.61-24.24-8.82-2.93-17.45-6.38-26.23-9.42-9.06-3.14-18.18-6.1-27.3-9.08-4-1.31-8.07-2.54-12-4-2.76-1-5.43-2.28-8.14-3.43a63.78,63.78,0,0,0-9.39-3.4c-2.68-.67-5.72-1.15-8.34-.06.73,1.37,1.43,3.24.05,4.36s-3.89.7-5.54.42c-5.16-.89-10.12-2.88-15-4.69-7.48-2.78-15.19-5-22.89-7.09-17.92-4.9-36.45-8.94-53.4-16.76l-4.19,5c22.71,5.05,44.15,14.43,66.16,21.8,5.07,1.7,10.24,3,15.3,4.7,4.8,1.59,9.47,3.66,14.42,4.7a18.87,18.87,0,0,0,7.63.21,37.9,37.9,0,0,1,6.18-.9,39.27,39.27,0,0,1,7.77,1.06c2.57.5,5.12,1.1,7.65,1.77,10.53,2.77,20.69,6.75,30.95,10.35a320.93,320.93,0,0,0,32.67,9.15C290,467.69,327.23,473.31,363.77,482l2.05-2.71Z"/>
          <path class="cls-78" d="M364.41,409.84c-12.29-3.17-24.61-6.52-37-9.1-9.63-2-20.27-3.38-28.22-9.66-.39-.31,0-.85.36-.88a13,13,0,0,0,4-1.31c-3.7-3.87-9.81-5.88-14.68-7.51-5-1.69-10.49-3.35-15.84-3.58,2.19,3.39,6.95,5.82,6.05,10.37a.59.59,0,0,1-.58.43c-13.47-1.3-26.77-3.87-40-6.64-12-2.52-24.21-4.77-36.16-7.71s-23.86-6.61-35.88-9.57c-9.82-2.42-19.94-3.49-29.88-5.29-8.79-1.58-17.77-3.56-25.7-7.8l-5.24,6.2,3.89,1.24c21.3,6.61,43.28,10.5,64.92,15.76,22.75,5.53,45.34,11.62,68.37,15.95,11.5,2.16,23.11,3.61,34.65,5.51,11.3,1.86,22.53,4.31,33.7,6.81,5.51,1.23,11,2.57,16.43,4.12s11,3.38,16.58,4.87c11,2.92,22.13,5.31,33.35,7.25,10.13,1.75,20.32,3.13,30.54,4.29l1.19-1.58Q386.88,415.61,364.41,409.84Z"/>
          <path class="cls-78" d="M387.55,337.2c-13.05-3.15-26.1-6.27-39.14-9.46-12.16-3-24.21-6.3-36.3-9.55s-24.31-6.13-36.84-6.36c-5.69-.1-11.35.19-17,.18-6.17,0-11.92-1.21-17.88-2.71-25.45-6.43-50.82-13.25-75.86-21.11l-4.5,5.28c23.4,5.74,46.3,13.26,69.46,19.85a146,146,0,0,0,17,4.17c5.87.92,11.81,1.24,17.74,1.58A234.58,234.58,0,0,1,298,323.64c11.27,2.31,22.43,5.11,33.73,7.28s22.6,3.05,33.75,5.61,22.17,5.8,33.35,8.34q17.42,4,34.92,7.49c8.16,1.66,16.33,3.28,24.5,4.92l1.38-1.83C435.7,348.88,411.63,343,387.55,337.2Z"/>
          <g>
            <rect class="cls-80" x="466.48" y="385.82" width="58.72" height="24.34" transform="translate(-102.06 181.74) rotate(-18.87)"/>
            <g>
              <ellipse class="cls-81" cx="497.07" cy="399.95" rx="23.07" ry="1.58" transform="translate(-110.76 206.1) rotate(-21.13)"/>
              <path class="cls-82" d="M515.65,385.2c-.66-1.73-2.23-2.73-3.5-2.24s-1,1.92-1.84,2.76a11.49,11.49,0,0,1-2.7,1.32l-29.42,11.37c-1.4.54-2.77-1.25-4.2-.7-1.26.49-1.75,2.29-1.08,4,.28.73.88,1.28,1.23,2s.14,1.56.42,2.29c.67,1.73,2.24,2.74,3.51,2.25,1.42-.55,1.23-2.8,2.64-3.35l29.42-11.37a11.61,11.61,0,0,1,2.88-.83c1.15.09,2.09,1.24,3.22.8s1.75-2.29,1.08-4c-.28-.73-.88-1.28-1.22-2S515.94,385.94,515.65,385.2Z"/>
              <path class="cls-83" d="M474.42,405.48s.68,2.68,2.75,2.89c1.27.05,1.78-.77,2.17-1.67a2.94,2.94,0,0,1,2.1-2.07c1.32-.59,22.68-8.76,22.68-8.76l7.27-2.78a3.16,3.16,0,0,1,3.24.22c1,.37,2.32.46,2.88-1.39a4.33,4.33,0,0,0,0-1.83c-.2-.65-.31-.64-.41-1,0,0,.1,4.5-3.15,2.81a6.2,6.2,0,0,0-4.63.5C506.54,393.6,481,402.94,481,402.94a4.61,4.61,0,0,0-2.29,2.53C478.28,407.1,476.17,408,474.42,405.48Z"/>
              <ellipse class="cls-84" cx="492.73" cy="393.41" rx="11.36" ry="0.17" transform="translate(-108.7 204.1) rotate(-21.13)"/>
            </g>
          </g>
        </g>
      </g>
    </g>
    <rect class="cls-85" x="784.25" width="31.51" height="900"/>
  </g>
  <g class="cls-86">
    <g>
      <path class="cls-87" d="M-10.73,41.05S-45.94,60.21-210.47,95.36L-233.6-57.52C-229.94-59.74-202.85-73-127.4-62-35.76-48.73,50.55,2.1-2.25,36.16"/>
      <path class="cls-88" d="M-10.8,43.94S-46,63.1-210.53,98.25L-233.67-54.63c3.66-2.21,30.75-15.48,106.2-4.52C-35.83-45.84,50.48,5-2.31,39.05"/>
      <path class="cls-89" d="M-497.48,191.29c19,3.08,22.24,1.91,96.37,1.82,15.78,0,82.83,0,217.67-4.93,56.71-2.06,142.13-17,165.38-29.41,7.76-4.14,23.24-14.05,23.79-41.2C7,55.69-39.85,20.08-54.62,2.73-68.39-13.45-103.23-33-112.48-37.33c-112.64-52.61-204.2-68.6-204.2-68.6-21.9-5.82-194.57-48.73-293,71.1-9,11-64.71,78-48.41,136.16C-639.34,168.31-536,185.05-497.48,191.29Z"/>
      <path class="cls-90" d="M-500.54,197.13c19,3.08,22.24,1.91,96.36,1.82,15.78,0,82.84,0,217.67-4.94,56.71-2,142.13-17,165.38-29.4,7.76-4.14,23.24-14.05,23.79-41.2C3.92,61.53-42.92,25.92-57.69,8.57-71.46-7.61-106.3-27.18-115.55-31.49c-112.64-52.61-204.2-68.6-204.2-68.6-21.9-5.83-194.56-48.73-293,71.1-9,11-64.71,78-48.41,136.16C-642.4,174.15-539.06,190.89-500.54,197.13Z"/>
    </g>
  </g>
</svg>
