<svg id="Layer_1" data-name="Layer 1" xmlns="http://www.w3.org/2000/svg" xmlns:xlink="http://www.w3.org/1999/xlink" width="1920" height="900" viewBox="0 0 1920 900">
  <defs>
    <style>
      .cls-1 {
        fill: none;
      }

      .cls-2 {
        clip-path: url(#clip-path);
      }

      .cls-3 {
        fill: url(#linear-gradient);
      }

      .cls-4, .cls-5 {
        fill: #bfd9f1;
      }

      .cls-5 {
        opacity: 0.56;
      }

      .cls-6 {
        fill: url(#linear-gradient-2);
      }

      .cls-7 {
        fill: url(#linear-gradient-3);
      }

      .cls-8 {
        fill: url(#linear-gradient-4);
      }

      .cls-9 {
        fill: url(#linear-gradient-5);
      }

      .cls-10 {
        fill: url(#linear-gradient-6);
      }

      .cls-11 {
        fill: url(#linear-gradient-7);
      }

      .cls-12 {
        fill: url(#linear-gradient-8);
      }

      .cls-13 {
        fill: #207d78;
        opacity: 0.36;
      }

      .cls-14 {
        fill: url(#linear-gradient-9);
      }

      .cls-15 {
        fill: #487939;
      }

      .cls-16 {
        fill: url(#linear-gradient-10);
      }

      .cls-17 {
        fill: #229f49;
      }

      .cls-18 {
        fill: #392512;
      }

      .cls-19 {
        fill: #1c0e2c;
      }

      .cls-20 {
        fill: url(#linear-gradient-11);
      }

      .cls-21 {
        fill: url(#linear-gradient-12);
      }

      .cls-22 {
        fill: url(#linear-gradient-13);
      }

      .cls-23 {
        fill: url(#linear-gradient-14);
      }

      .cls-24 {
        fill: url(#linear-gradient-15);
      }

      .cls-25 {
        fill: url(#linear-gradient-16);
      }

      .cls-26 {
        fill: url(#linear-gradient-17);
      }

      .cls-27 {
        fill: url(#linear-gradient-18);
      }

      .cls-28 {
        fill: url(#linear-gradient-19);
      }

      .cls-29 {
        fill: url(#linear-gradient-20);
      }

      .cls-30 {
        fill: url(#linear-gradient-21);
      }

      .cls-31 {
        fill: url(#linear-gradient-22);
      }

      .cls-32 {
        fill: url(#linear-gradient-23);
      }

      .cls-33 {
        fill: url(#linear-gradient-24);
      }

      .cls-34 {
        fill: url(#linear-gradient-25);
      }

      .cls-35 {
        fill: url(#linear-gradient-26);
      }

      .cls-36 {
        fill: url(#linear-gradient-27);
      }

      .cls-37 {
        fill: url(#linear-gradient-28);
      }

      .cls-38 {
        fill: url(#linear-gradient-29);
      }

      .cls-39 {
        fill: url(#linear-gradient-30);
      }

      .cls-40 {
        fill: url(#linear-gradient-31);
      }

      .cls-41 {
        fill: url(#linear-gradient-32);
      }

      .cls-42 {
        fill: url(#linear-gradient-33);
      }

      .cls-43 {
        fill: url(#linear-gradient-34);
      }

      .cls-44 {
        fill: url(#linear-gradient-35);
      }

      .cls-45 {
        fill: url(#linear-gradient-36);
      }

      .cls-46 {
        fill: url(#linear-gradient-37);
      }

      .cls-47 {
        fill: url(#linear-gradient-38);
      }

      .cls-48 {
        fill: url(#linear-gradient-39);
      }

      .cls-49 {
        fill: url(#linear-gradient-40);
      }

      .cls-50 {
        fill: url(#linear-gradient-41);
      }

      .cls-51 {
        fill: url(#linear-gradient-42);
      }

      .cls-52 {
        fill: url(#linear-gradient-43);
      }

      .cls-53 {
        fill: url(#linear-gradient-44);
      }

      .cls-54 {
        fill: url(#linear-gradient-45);
      }

      .cls-55 {
        fill: url(#linear-gradient-46);
      }

      .cls-56 {
        opacity: 0.57;
      }

      .cls-57 {
        fill: url(#linear-gradient-47);
      }

      .cls-58 {
        fill: url(#linear-gradient-48);
      }

      .cls-59 {
        fill: url(#linear-gradient-49);
      }

      .cls-60 {
        fill: url(#linear-gradient-50);
      }

      .cls-61 {
        fill: url(#linear-gradient-51);
      }

      .cls-62 {
        fill: url(#linear-gradient-52);
      }

      .cls-63 {
        fill: url(#linear-gradient-53);
      }

      .cls-64 {
        fill: url(#linear-gradient-54);
      }

      .cls-65 {
        fill: url(#linear-gradient-55);
      }

      .cls-66 {
        fill: url(#linear-gradient-56);
      }

      .cls-67, .cls-68 {
        fill: #267f5f;
      }

      .cls-67, .cls-71 {
        opacity: 0.17;
      }

      .cls-69 {
        fill: #182d25;
      }

      .cls-69, .cls-77 {
        opacity: 0.31;
      }

      .cls-70 {
        fill: #fbf5b6;
      }

      .cls-72 {
        fill: url(#linear-gradient-57);
      }

      .cls-73 {
        fill: url(#linear-gradient-58);
      }

      .cls-74 {
        opacity: 0.12;
        fill: url(#linear-gradient-59);
      }

      .cls-75 {
        fill: #a32547;
      }

      .cls-76 {
        fill: url(#linear-gradient-60);
      }

      .cls-78 {
        fill: url(#linear-gradient-61);
      }

      .cls-79 {
        fill: url(#linear-gradient-62);
      }

      .cls-80 {
        fill: url(#linear-gradient-63);
      }

      .cls-81 {
        fill: #166c83;
      }

      .cls-82 {
        opacity: 0.21;
      }

      .cls-83 {
        fill: url(#linear-gradient-64);
      }

      .cls-84 {
        fill: url(#linear-gradient-65);
      }

      .cls-85 {
        fill: url(#linear-gradient-66);
      }

      .cls-86 {
        fill: url(#linear-gradient-67);
      }

      .cls-87 {
        fill: url(#linear-gradient-68);
      }

      .cls-88 {
        fill: url(#linear-gradient-69);
      }

      .cls-89 {
        fill: url(#linear-gradient-70);
      }

      .cls-90 {
        fill: url(#linear-gradient-71);
      }

      .cls-91 {
        fill: #218bb1;
      }

      .cls-92 {
        fill: #1ebad0;
      }
    </style>
    <clipPath id="clip-path">
      <rect class="cls-1" width="1920" height="900"/>
    </clipPath>
    <linearGradient id="linear-gradient" x1="960" y1="-185.44" x2="960" y2="309.04" gradientUnits="userSpaceOnUse">
      <stop offset="0.01" stop-color="#89a4d5"/>
      <stop offset="1" stop-color="#d7def0"/>
    </linearGradient>
    <linearGradient id="linear-gradient-2" x1="210.01" y1="73.07" x2="335.38" y2="73.07" gradientUnits="userSpaceOnUse">
      <stop offset="0" stop-color="#a2b8df"/>
      <stop offset="1" stop-color="#d7def0"/>
    </linearGradient>
    <linearGradient id="linear-gradient-3" x1="296.16" y1="92.55" x2="346.48" y2="92.55" xlink:href="#linear-gradient"/>
    <linearGradient id="linear-gradient-4" x1="1148.91" y1="76.67" x2="1238.63" y2="76.67" gradientUnits="userSpaceOnUse">
      <stop offset="0" stop-color="#b4c5e5"/>
      <stop offset="0.93" stop-color="#d7def0"/>
    </linearGradient>
    <linearGradient id="linear-gradient-5" x1="581.28" y1="108.42" x2="671.01" y2="108.42" xlink:href="#linear-gradient-4"/>
    <linearGradient id="linear-gradient-6" x1="909.46" y1="50.73" x2="986.92" y2="50.73" xlink:href="#linear-gradient-2"/>
    <linearGradient id="linear-gradient-7" x1="962.69" y1="62.77" x2="993.78" y2="62.77" xlink:href="#linear-gradient"/>
    <linearGradient id="linear-gradient-8" x1="960" y1="912.79" x2="960" y2="305.57" gradientUnits="userSpaceOnUse">
      <stop offset="0.32" stop-color="#89c159"/>
      <stop offset="0.48" stop-color="#85bd58"/>
      <stop offset="0.64" stop-color="#7ab355"/>
      <stop offset="0.8" stop-color="#67a151"/>
      <stop offset="0.95" stop-color="#4c884b"/>
      <stop offset="1" stop-color="#417e48"/>
    </linearGradient>
    <linearGradient id="linear-gradient-9" x1="683.5" y1="-238.2" x2="1224.48" y2="698.81" gradientUnits="userSpaceOnUse">
      <stop offset="0.02" stop-color="#6aa587"/>
      <stop offset="0.59" stop-color="#4c7d7d"/>
      <stop offset="0.7" stop-color="#49797c"/>
      <stop offset="0.82" stop-color="#406c79"/>
      <stop offset="0.93" stop-color="#315673"/>
      <stop offset="1" stop-color="#26476f"/>
    </linearGradient>
    <linearGradient id="linear-gradient-10" x1="-8199.31" y1="158.34" x2="-7871.96" y2="158.34" gradientTransform="matrix(-1, 0, 0, 1, -7582.25, 0)" gradientUnits="userSpaceOnUse">
      <stop offset="0" stop-color="#3c2417"/>
      <stop offset="1" stop-color="#8a5f3c"/>
    </linearGradient>
    <linearGradient id="linear-gradient-11" x1="982.13" y1="442.7" x2="982.13" y2="220.25" gradientUnits="userSpaceOnUse">
      <stop offset="0" stop-color="#8a5f3c"/>
      <stop offset="1" stop-color="#a87c51"/>
    </linearGradient>
    <linearGradient id="linear-gradient-12" x1="1043.89" y1="442.7" x2="1043.89" y2="220.25" xlink:href="#linear-gradient-11"/>
    <linearGradient id="linear-gradient-13" x1="1105.64" y1="442.7" x2="1105.64" y2="220.25" xlink:href="#linear-gradient-11"/>
    <linearGradient id="linear-gradient-14" x1="1167.4" y1="442.7" x2="1167.4" y2="220.25" xlink:href="#linear-gradient-11"/>
    <linearGradient id="linear-gradient-15" x1="1229.15" y1="442.7" x2="1229.15" y2="220.25" xlink:href="#linear-gradient-11"/>
    <linearGradient id="linear-gradient-16" x1="1290.91" y1="442.7" x2="1290.91" y2="220.25" xlink:href="#linear-gradient-11"/>
    <linearGradient id="linear-gradient-17" x1="1352.67" y1="442.7" x2="1352.67" y2="220.25" xlink:href="#linear-gradient-11"/>
    <linearGradient id="linear-gradient-18" x1="1414.42" y1="442.7" x2="1414.42" y2="220.25" xlink:href="#linear-gradient-11"/>
    <linearGradient id="linear-gradient-19" x1="1476.18" y1="442.7" x2="1476.18" y2="220.25" xlink:href="#linear-gradient-11"/>
    <linearGradient id="linear-gradient-20" x1="1537.93" y1="442.7" x2="1537.93" y2="220.25" xlink:href="#linear-gradient-11"/>
    <linearGradient id="linear-gradient-21" x1="1599.69" y1="442.7" x2="1599.69" y2="220.25" xlink:href="#linear-gradient-11"/>
    <linearGradient id="linear-gradient-22" x1="1661.44" y1="442.7" x2="1661.44" y2="220.25" xlink:href="#linear-gradient-11"/>
    <linearGradient id="linear-gradient-23" x1="1723.2" y1="442.7" x2="1723.2" y2="220.25" xlink:href="#linear-gradient-11"/>
    <linearGradient id="linear-gradient-24" x1="1784.82" y1="442.7" x2="1784.82" y2="220.25" xlink:href="#linear-gradient-11"/>
    <linearGradient id="linear-gradient-25" x1="1844.82" y1="442.7" x2="1844.82" y2="220.25" xlink:href="#linear-gradient-11"/>
    <linearGradient id="linear-gradient-26" x1="1904.82" y1="442.7" x2="1904.82" y2="220.25" xlink:href="#linear-gradient-11"/>
    <linearGradient id="linear-gradient-27" x1="179.01" y1="441.7" x2="179.01" y2="219.25" xlink:href="#linear-gradient-11"/>
    <linearGradient id="linear-gradient-28" x1="119.01" y1="441.7" x2="119.01" y2="219.25" xlink:href="#linear-gradient-11"/>
    <linearGradient id="linear-gradient-29" x1="59.01" y1="441.7" x2="59.01" y2="219.25" xlink:href="#linear-gradient-11"/>
    <linearGradient id="linear-gradient-30" x1="-0.99" y1="441.7" x2="-0.99" y2="219.25" xlink:href="#linear-gradient-11"/>
    <linearGradient id="linear-gradient-31" x1="240.76" y1="441.7" x2="240.76" y2="219.25" xlink:href="#linear-gradient-11"/>
    <linearGradient id="linear-gradient-32" x1="302.52" y1="441.7" x2="302.52" y2="219.25" xlink:href="#linear-gradient-11"/>
    <linearGradient id="linear-gradient-33" x1="364.27" y1="441.7" x2="364.27" y2="219.25" xlink:href="#linear-gradient-11"/>
    <linearGradient id="linear-gradient-34" x1="426.03" y1="441.7" x2="426.03" y2="219.25" xlink:href="#linear-gradient-11"/>
    <linearGradient id="linear-gradient-35" x1="487.79" y1="441.7" x2="487.79" y2="219.25" xlink:href="#linear-gradient-11"/>
    <linearGradient id="linear-gradient-36" x1="549.54" y1="441.7" x2="549.54" y2="219.25" xlink:href="#linear-gradient-11"/>
    <linearGradient id="linear-gradient-37" x1="611.3" y1="441.7" x2="611.3" y2="219.25" xlink:href="#linear-gradient-11"/>
    <linearGradient id="linear-gradient-38" x1="673.05" y1="441.7" x2="673.05" y2="219.25" xlink:href="#linear-gradient-11"/>
    <linearGradient id="linear-gradient-39" x1="734.81" y1="441.7" x2="734.81" y2="219.25" xlink:href="#linear-gradient-11"/>
    <linearGradient id="linear-gradient-40" x1="796.56" y1="441.7" x2="796.56" y2="219.25" xlink:href="#linear-gradient-11"/>
    <linearGradient id="linear-gradient-41" x1="858.32" y1="441.7" x2="858.32" y2="219.25" xlink:href="#linear-gradient-11"/>
    <linearGradient id="linear-gradient-42" x1="920.07" y1="441.7" x2="920.07" y2="219.25" xlink:href="#linear-gradient-11"/>
    <linearGradient id="linear-gradient-43" x1="981.69" y1="441.7" x2="981.69" y2="219.25" xlink:href="#linear-gradient-11"/>
    <linearGradient id="linear-gradient-44" x1="1564.4" y1="429.59" x2="1564.43" y2="429.59" gradientUnits="userSpaceOnUse">
      <stop offset="0.03" stop-color="#89c159"/>
      <stop offset="0.2" stop-color="#77b155"/>
      <stop offset="0.52" stop-color="#5a954e"/>
      <stop offset="0.8" stop-color="#47844a"/>
      <stop offset="1" stop-color="#417e48"/>
    </linearGradient>
    <linearGradient id="linear-gradient-45" x1="978.21" y1="429.68" x2="978.24" y2="429.68" xlink:href="#linear-gradient-44"/>
    <linearGradient id="linear-gradient-46" x1="816.76" y1="446.05" x2="1929.72" y2="446.05" xlink:href="#linear-gradient-44"/>
    <linearGradient id="linear-gradient-47" x1="1614.33" y1="564.5" x2="1614.36" y2="564.5" xlink:href="#linear-gradient-44"/>
    <linearGradient id="linear-gradient-48" x1="1076.9" y1="564.91" x2="1076.93" y2="564.91" xlink:href="#linear-gradient-44"/>
    <linearGradient id="linear-gradient-49" x1="928.87" y1="578.98" x2="1949.26" y2="578.98" xlink:href="#linear-gradient-44"/>
    <linearGradient id="linear-gradient-50" x1="1723.59" y1="796.28" x2="1723.62" y2="796.28" xlink:href="#linear-gradient-44"/>
    <linearGradient id="linear-gradient-51" x1="1186.16" y1="796.68" x2="1186.19" y2="796.68" xlink:href="#linear-gradient-44"/>
    <linearGradient id="linear-gradient-52" x1="1038.13" y1="810.75" x2="2058.52" y2="810.75" xlink:href="#linear-gradient-44"/>
    <linearGradient id="linear-gradient-53" x1="454.18" y1="826.61" x2="454.2" y2="826.61" xlink:href="#linear-gradient-44"/>
    <linearGradient id="linear-gradient-54" x1="946.3" y1="833.87" x2="946.32" y2="833.87" xlink:href="#linear-gradient-44"/>
    <linearGradient id="linear-gradient-55" x1="-1.38" y1="847.77" x2="1081.24" y2="847.77" xlink:href="#linear-gradient-44"/>
    <linearGradient id="linear-gradient-56" x1="-9416.71" y1="195.8" x2="-8889.84" y2="195.8" xlink:href="#linear-gradient-10"/>
    <linearGradient id="linear-gradient-57" x1="248.75" y1="526.49" x2="992.09" y2="526.49" gradientUnits="userSpaceOnUse">
      <stop offset="0" stop-color="#3c2417"/>
      <stop offset="1" stop-color="#3c2417"/>
    </linearGradient>
    <linearGradient id="linear-gradient-58" x1="399.94" y1="509.28" x2="849.81" y2="509.28" gradientUnits="userSpaceOnUse">
      <stop offset="0" stop-color="#ef5876"/>
      <stop offset="1" stop-color="#8e4050"/>
    </linearGradient>
    <linearGradient id="linear-gradient-59" x1="399.94" y1="504.05" x2="849.81" y2="504.05" xlink:href="#linear-gradient-57"/>
    <linearGradient id="linear-gradient-60" x1="708.35" y1="535.72" x2="992.09" y2="535.72" gradientUnits="userSpaceOnUse">
      <stop offset="0" stop-color="#98293d"/>
      <stop offset="1" stop-color="#d55856"/>
    </linearGradient>
    <linearGradient id="linear-gradient-61" x1="782.35" y1="385.28" x2="1010.93" y2="385.28" xlink:href="#linear-gradient-57"/>
    <linearGradient id="linear-gradient-62" x1="875.53" y1="449.13" x2="1051.85" y2="449.13" xlink:href="#linear-gradient-57"/>
    <linearGradient id="linear-gradient-63" x1="708.35" y1="471.42" x2="992.09" y2="471.42" xlink:href="#linear-gradient-57"/>
    <linearGradient id="linear-gradient-64" x1="478.75" y1="637.45" x2="478.79" y2="637.45" xlink:href="#linear-gradient-57"/>
    <linearGradient id="linear-gradient-65" x1="468.37" y1="680.54" x2="497.57" y2="680.54" xlink:href="#linear-gradient-57"/>
    <linearGradient id="linear-gradient-66" x1="399.94" y1="572.13" x2="849.81" y2="572.13" xlink:href="#linear-gradient-57"/>
    <linearGradient id="linear-gradient-67" x1="468.37" y1="574.85" x2="498.18" y2="574.85" xlink:href="#linear-gradient-57"/>
    <linearGradient id="linear-gradient-68" x1="399.94" y1="585.9" x2="849.81" y2="585.9" xlink:href="#linear-gradient-57"/>
    <linearGradient id="linear-gradient-69" x1="542.83" y1="595.58" x2="567.03" y2="595.58" xlink:href="#linear-gradient-57"/>
    <linearGradient id="linear-gradient-70" x1="399.94" y1="597.18" x2="849.81" y2="597.18" xlink:href="#linear-gradient-57"/>
    <linearGradient id="linear-gradient-71" x1="615.15" y1="612.44" x2="637.13" y2="612.44" xlink:href="#linear-gradient-57"/>
  </defs>
  <g id="SC_11">
    <g class="cls-2">
      <rect class="cls-3" y="-185.44" width="1920" height="494.47"/>
      <path class="cls-4" d="M905.81,154.64c-232.5,54.16-679-84-922.88-28.93l-2.23,55C154.66,71.92,603.2,224.33,905.81,154.64Z"/>
      <path class="cls-4" d="M1079.75,135.72c230.12-63.53,681.88,56.47,923.29-8.47V72.19C1833.63,188,1379.29,53.84,1079.75,135.72Z"/>
      <path class="cls-5" d="M874.21,30.24c230.12-63.53,681.89,56.47,923.3-8.47V-33.29C1628.1,82.48,1173.75-51.64,874.21,30.24Z"/>
      <path class="cls-4" d="M915.13,86.52C681,132.93,239.26-20-6.28,27l-4,54.91C167.15-21.1,610.38,146.12,915.13,86.52Z"/>
      <g>
        <path class="cls-6" d="M334.91,73c-3.41-17.75-26.5-32.73-59.19-32.73s-68.51,31.46-65.53,49.29c3.17,19,36.12,15.17,65.53,16.18C321,107.3,338.58,92.08,334.91,73Z"/>
        <path class="cls-7" d="M346.29,92.52c-1.37-8.59-10.64-15.85-23.76-15.85S295,91.91,296.23,100.54c1.27,9.21,14.5,7.34,26.3,7.83C340.69,109.12,347.76,101.75,346.29,92.52Z"/>
      </g>
      <path class="cls-8" d="M1238.3,76.63c-2.44-12.35-19-22.77-42.36-22.77s-49,21.89-46.91,34.3c2.27,13.24,25.86,10.55,46.91,11.25C1228.32,100.49,1240.92,89.9,1238.3,76.63Z"/>
      <path class="cls-9" d="M670.67,108.39c-2.44-12.36-19-22.78-42.36-22.78s-49,21.89-46.9,34.3c2.27,13.24,25.85,10.55,46.9,11.25C660.69,132.24,673.3,121.65,670.67,108.39Z"/>
      <g>
        <path class="cls-10" d="M986.63,50.7c-2.11-11-16.37-20.23-36.57-20.23s-42.33,19.44-40.49,30.46c2,11.75,22.32,9.37,40.49,10C978,71.88,988.9,62.48,986.63,50.7Z"/>
        <path class="cls-11" d="M993.66,62.75C992.82,57.44,987.09,53,979,53s-17,9.41-16.25,14.74c.79,5.69,9,4.54,16.25,4.84C990.2,73,994.57,68.45,993.66,62.75Z"/>
      </g>
      <rect class="cls-12" y="305.57" width="1920" height="607.22"/>
      <path class="cls-13" d="M-43.45,200.18s168,18.09,418.6-26.6A125,125,0,0,1,404.46,172c33,2.08,109.72,7.58,142.8,15.43l93.65-6.21a239.5,239.5,0,0,1,40.38.72l52.85,5.49,394.74-30.25a428.62,428.62,0,0,1,59.22-.41c41.78,2.62,113.73,7,119.33,6.54,7.92-.64,105.51-9,136.19-11,28.92-1.92,480.1,15.52,480.1,15.52l.51,70.47L-43.45,247.39Z"/>
      <path class="cls-14" d="M-5.21,159.43S270.37,258,807.85,238.87c540.31-12.17,542.92-79.23,1118.43-44.47l2,98L-5.21,288.87Z"/>
      <path class="cls-15" d="M690-20.86l-.88-.05v-.48a60.76,60.76,0,0,0-1-11.2c1.15-.28,2.33-.6,3.51-1,10.08-3.26,17.14-9.34,15.77-13.57s-10.65-5-20.73-1.76c-1.2.39-2.36.82-3.46,1.28A60.78,60.78,0,0,0,639.47-81.1,47.81,47.81,0,0,0,646-105.3a48,48,0,0,0-20.4-39.29c4.4-7.2,5.65-14.08,2.63-16.37-3.4-2.6-11,1.6-17.27,9.41a48.16,48.16,0,0,0-13-1.77A47.87,47.87,0,0,0,561.12-136a35.57,35.57,0,0,0-30.53-17.29,35.59,35.59,0,0,0-10.18,1.48,116.39,116.39,0,0,0-60.24-59.1c1.15-4.92.54-9.1-1.59-9.8s-4.91,2.14-6.89,6.56A114.28,114.28,0,0,0,433-218.79c.42-1,.82-2.12,1.19-3.24,3.29-10.07,2.53-19.36-1.7-20.74s-10.32,5.66-13.61,15.73a42.84,42.84,0,0,0-1.65,6.84q-1.27,0-2.55,0a116.77,116.77,0,0,0-13.17.74c-.24-5.59-2.22-9.94-4.63-9.94-2.57,0-4.65,5-4.65,11.09v.28a116.14,116.14,0,0,0-78.74,57.15,35.3,35.3,0,0,0-14.76-3.2A35.61,35.61,0,0,0,263.28-132a45.05,45.05,0,0,0-22.82-6.17,45.15,45.15,0,0,0-16.41,3.06c-1.9-6.59-5.54-11.21-8.4-10.51-3,.76-4.05,7.23-2.26,14.46.14.56.29,1.1.45,1.64a45.27,45.27,0,0,0-6.63,5.89c-.18-.3-.37-.61-.57-.91-4.06-6.24-9.48-9.92-12.1-8.21s-1.45,8.16,2.61,14.4a30.6,30.6,0,0,0,3.3,4.22,45.14,45.14,0,0,0-5.29,21.28,45.15,45.15,0,0,0,5.39,21.47,34.48,34.48,0,0,0-16.18,29.26c0,.22,0,.45,0,.67a42.77,42.77,0,0,0-7.56-.67,41.83,41.83,0,0,0-23.32,7c-.45-.4-.93-.8-1.44-1.18-4.86-3.71-10.07-5.06-11.63-3S141.5-32.7,146.27-29a42.21,42.21,0,0,0-5.8,7.73c-4.1-2.47-8-3.15-9.3-1.43-1.5,2,1,6.39,5.5,10A42.15,42.15,0,0,0,134.76-.08,42.07,42.07,0,0,0,176.82,42c1.19,0,2.36,0,3.52-.15a61.54,61.54,0,0,0,79.54,45.45,92.1,92.1,0,0,0,80.28,46.9,91.64,91.64,0,0,0,46.69-12.69,77.94,77.94,0,0,0,146.83,5.81A63.14,63.14,0,0,0,618.4,86.71q1.26.09,2.52.09a37.53,37.53,0,0,0,33.91-53.5A61,61,0,0,0,683.09,5.07c1.68.23,3.41.41,5.18.53,17.38,1.15,31.87-3.84,32.35-11.14S707.4-19.71,690-20.86Z"/>
      <path class="cls-16" d="M394.72,49.54C420,77.94,427.13,110,427,140c0,11.66.07,29.66-.19,47.44.54,13.57.8,27.15.68,40.73-.22,23.72-1.39,47.63-4.58,71.22a68.59,68.59,0,0,1-8.84,25.67c-4.83,8.23-11.36,15.76-18.44,22.76A242.15,242.15,0,0,1,367,371.38a79.07,79.07,0,0,1-21.19,10.92c.76.7,2.49,1,3.5,1.19,10.6,2.06,21.84,1.65,32.56.62C394,383,406,381.27,418,379.74c11.26-1.43,22.51-2.28,33.74-.23,5.72,1,11.27,2.57,16.89,3.9a168.67,168.67,0,0,0,17.11,3c24.89,3.27,50.17,3.29,75.3,3.6,9,.12,18.07.26,27.09,0-13.23-4.3-36-12.24-56.82-22.23-36.35-17.4-43.24-18.19-56.72-70.59-16.08-62.43-1.56-117.8,3.11-145.68s44.78-89.92,44.78-89.92l94.62-48.38L604.21-.42S540,33.23,533,30.61s16.36-42.07,16.36-42.07l-14.8-15.78S481.82,94.7,479.61,97.92s-7.79,13.67-15.58,8.41-5.84-168.81-5.84-168.81L417.69-50.9s3.51,70.47-.78,74.67-53.73-31-56.84-37.87,4.67-54.69,4.67-54.69l-10.13-4.73s-2.73,44.18-7,48.38S311.78-48.8,311.78-48.8l-8.57,18.92S369.41,21.14,394.72,49.54Z"/>
      <path class="cls-17" d="M857.83,54.23A23.32,23.32,0,0,0,856.57,48a22.76,22.76,0,0,0,3.67-.87c-19.7-11.56-43-17.63-67.71-10.84-.79.21-1.52-.75-.84-1.21,3.64-2.44,5.56-5.77,7.95-9-4.82-2.34-10.45-1.76-15.65-.43a.74.74,0,0,1-.83-1.19c3.9-3.92,8.64-7.28,12.1-11.5-7.38-2-14.92-.35-21.94,2.07-.68.24-1.35-.55-1-1,6-7.14,17.9-11.54,21-20.18-7.66,0-13.19,3.34-18.51,7.76-4.31,3.59-8.46,7.25-14.35,9-.54.16-1.21-.36-1-.82a42.79,42.79,0,0,0,2.66-6.64c.45-1.6,1.83-6,.31-7.48s-7.14-1-9.4-.57a21.74,21.74,0,0,0-7.34,3.05.72.72,0,0,1-1.06-.88c2.66-4.88,4.61-12.19-.81-16.38-6.1-4.72-15.12-.49-20.41,3a.85.85,0,0,1-1.16-.13c-4.69-7.16-10.25-23.74-23.47-16.49a.87.87,0,0,1-1.27-.61c-.32-3.14-3.28-5.25-4.93-7.92A28.23,28.23,0,0,0,678.88-31.2c-.54.71-1.8.24-1.59-.55,1.91-7.38,3.79-14.8,4.19-22.36.38-7.08-.25-15.81-7.41-20.61-12.31,16.26-2.89,35.32-6.88,53.06-.17.76-1.33.55-1.61,0-3.51-6.9-12.57-4.69-17.8-.57-.62.48-1.62,0-1.41-.68.59-2,.26-4,.72-6-7.07,1.28-13,4.66-18.51,8.45-.72.49-1.86-.13-1.35-.86,3.2-4.57,6.95-9,9-14a20.91,20.91,0,0,0,1-2.95c.41-1.61,1.24-3-.8-3.57-2.35-.68-5.73,0-7.88.87-8.33,3.15-13,10.9-19.2,16.13a1,1,0,0,1-1.47-.32A61.65,61.65,0,0,1,606.06-37c-.2-2.92-.16-5.93-1-8.81-2.18-7.9-12.84-10.47-21.11-12.46-.48-.11-.88-.68-.52-1.06,2.31-2.49,4.3-5.17,4.52-8.39a10.47,10.47,0,0,0,0-1.77c-.23-1.07-1-1.49-2.19-1.28a16.26,16.26,0,0,0-6.63.13c-.71.14-1.41-.51-1-1.06,3.34-4.32,15.55-11.29,10-17-4.64-4.78-16.43-1.34-21.66,1.14-.88.42-1.62-.52-1-1.1,4.11-4.1,9.74-7.38,12.31-12.37-9.36-3-19.2-2.17-28.37,1.07-.82.3-1.65-.46-1-1.06,3.32-3,4.91-7,7-10.63-9.79-2.7-19.35,3.12-27.32,7.25-.79.42-1.49-.49-.94-1,6.25-6,12.89-12.28,15.54-20.08a29.69,29.69,0,0,0-18.73,8.6c-.57.54-1.58-.16-1.17-.75a24.1,24.1,0,0,0,4.12-12.51,34.91,34.91,0,0,0-9.24,9.6.82.82,0,0,1-1.36-.15c-3.08-7-4.11-14.79-9-21.21-12.46,11.68-2.47,28.7-.34,42.11h0l0,.15c.09.61-1.06.68-1.26.14-2.21-6-11.57-9-18.21-10.29-6.47-1.27-16.42-2.2-21.23,2.6a.77.77,0,0,1-1.16-.26c-.54-2-1.33-5.31-4.23-5.86-1.94-.37-4,.85-5.41,1.79a41.23,41.23,0,0,0-8.23,7.78c-.41.48-1.49.37-1.44-.32.59-9.74,2.46-19.39,2.61-29.14s-1.3-20.43-9.3-28.16c-19.9,19.29-7.86,45.61-3.59,67.74.14.75-1.08,1-1.38.32-2.85-7.13-7-16.88-18.33-13.75a.78.78,0,0,1-.78-.26c-4.83-6.21-13.84-1.24-18.07,2.81-.48.47-1.57,0-1.28-.62,1.46-3,.39-5.74,0-8.75a30.74,30.74,0,0,0-16.86,8.5c-.6.59-1.61-.17-1.23-.79,5.3-8.62,12.16-16.62,16.17-25.76,1.81-4.14,4-10,2.4-14.43-.53-1.48-.88-1-2.58-.52-1.24.38-2.47.8-3.67,1.26a54.4,54.4,0,0,0-6.68,3.14c-17.12,9.46-26.38,25.48-38.47,38.71-.51.56-1.5.24-1.35-.47.45-2.09,1-5.27-1.62-6.61-1.75-.9-4.16-.54-6-.14a35.4,35.4,0,0,0-12.43,5.6c-.58.4-1.5,0-1.3-.62,1-3.16.16-6.58,0-9.81-7.81-.17-13.67,5.77-16.67,11.2-.35.63-1.52.29-1.51-.34.09-13.09,3-27-3.6-39.33-11.31,13.48-17,30-15.05,46.4.07.63-.91.81-1.39.48-8.4-5.92-21.35-9-28.6-.14a.93.93,0,0,1-1.28.14c-5.49-5-12-2.58-15.8,2.51a.91.91,0,0,1-1.4,0c-1.4-1.88-3.65-3.22-5.63-4.68-4.17,4-5.86,9.33-7.82,14.24-.24.6-1.38.68-1.57,0-2.19-7.95-2.91-16.12-4.48-24.16-1.48-7.56-3.57-15.64-9.56-21.69-12,17.37-3.1,40.77,5.92,57.71.36.68-.56,1.34-1.27.81a33.39,33.39,0,0,0-7.37-3.9c-1.34,6.86,2.5,13.15,6.5,19,.47.68-.59,1.28-1.26.8-3-2.15-11-7.35-13.91-2.42-2.22,3.71-.53,9.22,1.88,12.56,5.38,7.48,15.61,12.4,24.74,16.21.87.37.21,1.33-.62,1.22-4.93-.69-10.27-.67-14.72,1.48-4.65,2.25-6.82,6.2-7.77,10.42a.88.88,0,0,1-1.46.16c-1.13-2.11-3.46-2.69-5.53-3.84-3.57,4.22-4.66,9-4.73,14.11,0,.77-1.26.85-1.55.18-2.94-6.91-4.23-14.24-7-21.2a32,32,0,0,0-5.16-9.22c-.55-.63-3-3.47-4-3.31s-2.4,2.66-2.88,3.4c-3.76,5.79-4.08,12.81-3.25,19.22,1.7,13,8.14,27.52,19.33,37,.59.5-.16,1.27-.89.95-7.13-3.2-15.88-2.36-18.17,4.93-.16.51-.92.5-1.26.13-1.61-1.79-3.85-4.12-6.71-4.52-3.78-.53-5.2,2.86-5.94,5.26-.2.64-1.19.42-1.27-.14-.9-6.05-1.55-12.54-5-18-.36-.58-.81-1.63-1.51-1.94-.88-.39-.92,0-1.59.81a14.93,14.93,0,0,0-2,3.2,20.28,20.28,0,0,0-1.7,6.73c-.88,9.6,2.54,19.89,7.6,28.46.21.36-.23.79-.68.57C140,43.57,134,42.37,132.89,47.74a9.23,9.23,0,0,0-.09,3.19,31.2,31.2,0,0,0,15.09,3.78c.61,0,1.22,0,1.83-.05,5.56,15.77,23.15,27.3,44,27.3a53.9,53.9,0,0,0,17.54-2.88c8.34,17.28,28.74,29.48,52.58,29.48,25.42,0,46.93-13.87,54.08-33a77.29,77.29,0,0,0,33.92,7.64c17.44,0,33.33-5.53,45.24-14.59a112.73,112.73,0,0,0,26.67,3.17,107.46,107.46,0,0,0,55-14.65,40.14,40.14,0,0,0,20.42-8.71A41.57,41.57,0,0,0,516,61.28a51.66,51.66,0,0,0,31.48,2.77,62.55,62.55,0,0,0,14.3,8.46c24.49,10.49,53.56,6,72-9.45a68.9,68.9,0,0,0,28.08,21.35c24.1,10.33,51.95,8.38,73.15-3.09A49,49,0,0,0,747.44,89c20.66,8.85,45.44,4.19,59.64-10.11.78.4,1.58.79,2.41,1.14,16.26,7,36.26,1.7,44.67-11.76a24.1,24.1,0,0,0,3.21-7.87c4.51-.74,7.82-2.57,7.48-4.16C864.56,54.8,861.59,54,857.83,54.23Z"/>
      <rect class="cls-18" x="958.33" y="285.62" width="978.16" height="54.04"/>
      <g>
        <polygon class="cls-19" points="1008.5 442.7 959.22 442.7 959.22 246.32 983.86 220.25 1008.5 246.32 1008.5 442.7"/>
        <polygon class="cls-19" points="1070.26 442.7 1020.97 442.7 1020.97 246.32 1045.62 220.25 1070.26 246.32 1070.26 442.7"/>
        <polygon class="cls-19" points="1132.02 442.7 1082.73 442.7 1082.73 246.32 1107.37 220.25 1132.02 246.32 1132.02 442.7"/>
        <polygon class="cls-19" points="1193.77 442.7 1144.48 442.7 1144.48 246.32 1169.13 220.25 1193.77 246.32 1193.77 442.7"/>
        <polygon class="cls-19" points="1255.53 442.7 1206.24 442.7 1206.24 246.32 1230.88 220.25 1255.53 246.32 1255.53 442.7"/>
        <polygon class="cls-19" points="1317.28 442.7 1267.99 442.7 1267.99 246.32 1292.64 220.25 1317.28 246.32 1317.28 442.7"/>
        <polygon class="cls-19" points="1379.04 442.7 1329.75 442.7 1329.75 246.32 1354.39 220.25 1379.04 246.32 1379.04 442.7"/>
        <polygon class="cls-19" points="1440.79 442.7 1391.51 442.7 1391.51 246.32 1416.15 220.25 1440.79 246.32 1440.79 442.7"/>
        <polygon class="cls-19" points="1502.55 442.7 1453.26 442.7 1453.26 246.32 1477.91 220.25 1502.55 246.32 1502.55 442.7"/>
        <polygon class="cls-19" points="1564.31 442.7 1515.02 442.7 1515.02 246.32 1539.66 220.25 1564.31 246.32 1564.31 442.7"/>
        <polygon class="cls-19" points="1626.06 442.7 1576.77 442.7 1576.77 246.32 1601.41 220.25 1626.06 246.32 1626.06 442.7"/>
        <polygon class="cls-19" points="1687.82 442.7 1638.53 442.7 1638.53 246.32 1663.17 220.25 1687.82 246.32 1687.82 442.7"/>
        <polygon class="cls-19" points="1749.57 442.7 1700.28 442.7 1700.28 246.32 1724.93 220.25 1749.57 246.32 1749.57 442.7"/>
        <polygon class="cls-19" points="1811.19 442.7 1761.9 442.7 1761.9 246.32 1786.54 220.25 1811.19 246.32 1811.19 442.7"/>
        <polygon class="cls-19" points="1871.19 442.7 1821.9 442.7 1821.9 246.32 1846.54 220.25 1871.19 246.32 1871.19 442.7"/>
        <polygon class="cls-19" points="1931.19 442.7 1881.9 442.7 1881.9 246.32 1906.54 220.25 1931.19 246.32 1931.19 442.7"/>
      </g>
      <polygon class="cls-20" points="1006.78 442.7 957.49 442.7 957.49 246.32 982.13 220.25 1006.78 246.32 1006.78 442.7"/>
      <polygon class="cls-21" points="1068.53 442.7 1019.24 442.7 1019.24 246.32 1043.89 220.25 1068.53 246.32 1068.53 442.7"/>
      <polygon class="cls-22" points="1130.29 442.7 1081 442.7 1081 246.32 1105.64 220.25 1130.29 246.32 1130.29 442.7"/>
      <polygon class="cls-23" points="1192.04 442.7 1142.75 442.7 1142.75 246.32 1167.4 220.25 1192.04 246.32 1192.04 442.7"/>
      <polygon class="cls-24" points="1253.8 442.7 1204.51 442.7 1204.51 246.32 1229.15 220.25 1253.8 246.32 1253.8 442.7"/>
      <polygon class="cls-25" points="1315.55 442.7 1266.27 442.7 1266.27 246.32 1290.91 220.25 1315.55 246.32 1315.55 442.7"/>
      <polygon class="cls-26" points="1377.31 442.7 1328.02 442.7 1328.02 246.32 1352.66 220.25 1377.31 246.32 1377.31 442.7"/>
      <polygon class="cls-27" points="1439.07 442.7 1389.78 442.7 1389.78 246.32 1414.42 220.25 1439.07 246.32 1439.07 442.7"/>
      <polygon class="cls-28" points="1500.82 442.7 1451.53 442.7 1451.53 246.32 1476.18 220.25 1500.82 246.32 1500.82 442.7"/>
      <polygon class="cls-29" points="1562.58 442.7 1513.29 442.7 1513.29 246.32 1537.93 220.25 1562.58 246.32 1562.58 442.7"/>
      <polygon class="cls-30" points="1624.33 442.7 1575.04 442.7 1575.04 246.32 1599.69 220.25 1624.33 246.32 1624.33 442.7"/>
      <polygon class="cls-31" points="1686.09 442.7 1636.8 442.7 1636.8 246.32 1661.44 220.25 1686.09 246.32 1686.09 442.7"/>
      <polygon class="cls-32" points="1747.84 442.7 1698.55 442.7 1698.55 246.32 1723.2 220.25 1747.84 246.32 1747.84 442.7"/>
      <polygon class="cls-33" points="1809.46 442.7 1760.17 442.7 1760.17 246.32 1784.82 220.25 1809.46 246.32 1809.46 442.7"/>
      <polygon class="cls-34" points="1869.46 442.7 1820.17 442.7 1820.17 246.32 1844.82 220.25 1869.46 246.32 1869.46 442.7"/>
      <polygon class="cls-35" points="1929.46 442.7 1880.17 442.7 1880.17 246.32 1904.82 220.25 1929.46 246.32 1929.46 442.7"/>
      <rect class="cls-18" x="-60.11" y="284.62" width="1066.44" height="54.04"/>
      <g>
        <polygon class="cls-19" points="205.38 441.7 156.09 441.7 156.09 245.32 180.74 219.25 205.38 245.32 205.38 441.7"/>
        <polygon class="cls-19" points="145.38 441.7 96.09 441.7 96.09 245.32 120.74 219.25 145.38 245.32 145.38 441.7"/>
        <polygon class="cls-19" points="85.38 441.7 36.09 441.7 36.09 245.32 60.74 219.25 85.38 245.32 85.38 441.7"/>
        <polygon class="cls-19" points="25.38 441.7 -23.91 441.7 -23.91 245.32 0.74 219.25 25.38 245.32 25.38 441.7"/>
        <polygon class="cls-19" points="267.14 441.7 217.85 441.7 217.85 245.32 242.49 219.25 267.14 245.32 267.14 441.7"/>
        <polygon class="cls-19" points="328.89 441.7 279.6 441.7 279.6 245.32 304.25 219.25 328.89 245.32 328.89 441.7"/>
        <polygon class="cls-19" points="390.65 441.7 341.36 441.7 341.36 245.32 366 219.25 390.65 245.32 390.65 441.7"/>
        <polygon class="cls-19" points="452.4 441.7 403.12 441.7 403.12 245.32 427.76 219.25 452.4 245.32 452.4 441.7"/>
        <polygon class="cls-19" points="514.16 441.7 464.87 441.7 464.87 245.32 489.52 219.25 514.16 245.32 514.16 441.7"/>
        <polygon class="cls-19" points="575.92 441.7 526.63 441.7 526.63 245.32 551.27 219.25 575.92 245.32 575.92 441.7"/>
        <polygon class="cls-19" points="637.67 441.7 588.38 441.7 588.38 245.32 613.03 219.25 637.67 245.32 637.67 441.7"/>
        <polygon class="cls-19" points="699.43 441.7 650.14 441.7 650.14 245.32 674.78 219.25 699.43 245.32 699.43 441.7"/>
        <polygon class="cls-19" points="761.18 441.7 711.89 441.7 711.89 245.32 736.54 219.25 761.18 245.32 761.18 441.7"/>
        <polygon class="cls-19" points="822.94 441.7 773.65 441.7 773.65 245.32 798.29 219.25 822.94 245.32 822.94 441.7"/>
        <polygon class="cls-19" points="884.69 441.7 835.4 441.7 835.4 245.32 860.05 219.25 884.69 245.32 884.69 441.7"/>
        <polygon class="cls-19" points="946.45 441.7 897.16 441.7 897.16 245.32 921.8 219.25 946.45 245.32 946.45 441.7"/>
        <polygon class="cls-19" points="1008.07 441.7 958.78 441.7 958.78 245.32 983.42 219.25 1008.07 245.32 1008.07 441.7"/>
      </g>
      <g>
        <polygon class="cls-36" points="203.65 441.7 154.36 441.7 154.36 245.32 179.01 219.25 203.65 245.32 203.65 441.7"/>
        <polygon class="cls-37" points="143.65 441.7 94.36 441.7 94.36 245.32 119.01 219.25 143.65 245.32 143.65 441.7"/>
        <polygon class="cls-38" points="83.65 441.7 34.36 441.7 34.36 245.32 59.01 219.25 83.65 245.32 83.65 441.7"/>
        <polygon class="cls-39" points="23.65 441.7 -25.64 441.7 -25.64 245.32 -0.99 219.25 23.65 245.32 23.65 441.7"/>
        <polygon class="cls-40" points="265.41 441.7 216.12 441.7 216.12 245.32 240.76 219.25 265.41 245.32 265.41 441.7"/>
        <polygon class="cls-41" points="327.16 441.7 277.87 441.7 277.87 245.32 302.52 219.25 327.16 245.32 327.16 441.7"/>
        <polygon class="cls-42" points="388.92 441.7 339.63 441.7 339.63 245.32 364.27 219.25 388.92 245.32 388.92 441.7"/>
        <polygon class="cls-43" points="450.67 441.7 401.38 441.7 401.38 245.32 426.03 219.25 450.67 245.32 450.67 441.7"/>
        <polygon class="cls-44" points="512.43 441.7 463.14 441.7 463.14 245.32 487.79 219.25 512.43 245.32 512.43 441.7"/>
        <polygon class="cls-45" points="574.19 441.7 524.9 441.7 524.9 245.32 549.54 219.25 574.19 245.32 574.19 441.7"/>
        <polygon class="cls-46" points="635.94 441.7 586.65 441.7 586.65 245.32 611.3 219.25 635.94 245.32 635.94 441.7"/>
        <polygon class="cls-47" points="697.7 441.7 648.41 441.7 648.41 245.32 673.05 219.25 697.7 245.32 697.7 441.7"/>
        <polygon class="cls-48" points="759.45 441.7 710.16 441.7 710.16 245.32 734.81 219.25 759.45 245.32 759.45 441.7"/>
        <polygon class="cls-49" points="821.21 441.7 771.92 441.7 771.92 245.32 796.56 219.25 821.21 245.32 821.21 441.7"/>
        <polygon class="cls-50" points="882.96 441.7 833.67 441.7 833.67 245.32 858.32 219.25 882.96 245.32 882.96 441.7"/>
        <polygon class="cls-51" points="944.72 441.7 895.43 441.7 895.43 245.32 920.07 219.25 944.72 245.32 944.72 441.7"/>
        <polygon class="cls-52" points="1006.34 441.7 957.05 441.7 957.05 245.32 981.69 219.25 1006.34 245.32 1006.34 441.7"/>
      </g>
      <g>
        <path class="cls-53" d="M1564.43,429.59h0Z"/>
        <path class="cls-54" d="M978.24,429.68h0Z"/>
        <path class="cls-55" d="M847.05,457.58c51.52,4.1,68.59,11.4,67.2,12.31s19,12.59,96.91,4c19.87-2.19,34.25-3.1,44.91-3.23,26.47,3.82,35.81,8.1,34.77,8.78-1.39.92,19,12.59,96.91,4s71.36,2.51,87.92,3.12,60.82-3.14,60.82-3.14l-.12-2.58c80.88-8.75,72.13,2.33,89.35,3,16.56.61,60.82-3.14,60.82-3.14l-.75-16c11.2,2.54,15.36,4.69,14.65,5.16-1.39.91,19,12.59,96.91,4,30.21-3.33,47.72-3.7,58.81-2.87,13,2.77,17.79,5.19,17,5.69-1.39.91,19,12.59,96.92,4s71.36,2.51,87.92,3.12,60.81-3.14,60.81-3.14l-1.63-35s6.48-16.91,11.29-16.89-5-3.19-21,11c0,0-6.68-13-16.06-16.42,0,0,11.85,10.49,1.2,19.16,0,0-3.9-19.11-28.51-30.08,0,0,23,20.5,14.59,28.71,0,0-5.33-6.84-8.75-9.12,0,0,5.84,11.4.36,13.69,0,0-18.24-20.4-20.88-24.34,0,0,11.35,19.78,7.51,24.34,0,0-10.62-9.12-13.93-12.77,0,0,4.1,12,2.09,10.95-3.55-1.83-9.56-13.83-26-17.57,0,0,17.38,8.9,15,15.29,0,0-9.66-8.21-15.12-10.49,0,0,8.14,6.38,5.35,9.12,0,0-20.39-20.37-35.78-22.73,0,0,20.13,12.57,18,19l-3.54,5.54s-4-4.56-6.74-8.21c0,0-2.17-.86-1.51,4.58,1.81,15,.68-4.41-14.66-15.41,0,0,12.62,17.67,5.66,22.69,0,0-17.63-15.05-25.71-25.55,0,0,8.5,11.09,3.31,21-1.45-2.76-10.46-11.38-10.94-17.2,1.11-1.22,2.22-2,3.25-2,4.82,0-5-3.18-21,11,0,0-6.67-13-16-16.42,0,0,8.83,7.82,4.38,15.54-9.42-9.29-2.73-6.71-3.07,3.53-.44.36-3.39-18.74-28.63-30,0,0,23,20.5,14.59,28.72,0,0-5.33-6.85-8.75-9.13a31.59,31.59,0,0,1,2.31,6.28c-.46,1.83-1.16,4.5-2,7.33-.64-.72-5.4-6.06-10.25-11.61.78-6.33,2-12.59,3.49-14.75,0,0-3.53,4.95-7.23,10.43-10.73-12.49-6.92-10.33-1.55,2.3-1.79,2.7-3.51,5.38-4.77,7.53-7.85-7.06-7.1-7.16-6.74-6.08-1.26-2.09-2.62-3.88-3.94-4.62,0,0,4.78,6.08,3.16,12.67-3.9-4.19-10.38-12.24-23.29-15.17,0,0,17.07,8.73,15.1,15.1-.42-.34-10.42-8.33-15.18-10.31a25.24,25.24,0,0,1,5.23,5.58,17.42,17.42,0,0,1,.19,3.47c-.17.17-20.24-20.26-35.84-22.66,0,0,20.12,12.57,17.95,19l-3.53,5.54s-4-4.56-6.74-8.21c0,0-2.18-.86-1.52,4.59,1.81,15,.68-4.41-14.65-15.42,0,0,12.61,17.67,5.65,22.69,0,0-17.63-15.05-25.7-25.54,0,0,8.5,11.08,3.3,21-1.45-2.77-11.11-12.09-11-17.7,0,0-4.37,12.66-.38,22.24,0,0-2-4.68-14.92-9.18.24.1,2.06,1.09,2.57,9.18,0,0-15.64-10.95-21.68-19.39,0,0,4.69,7.07-.33,19.39,0,0-17.17-1.8-17.61-16.64,0,0-4.46,19.84-8.63,22.58,0,0-.53-9.71.25-15.12s-3.8,5.54-5.06,6.91.57-26,4.1-31c0,0-14.77,20.64-15.55,24.32,0,0-4.6-12.48-8.69-14.76,0,0,5.13,6.51,3,13.37a17.86,17.86,0,0,0-5.78,1.25c-2.1-2.16-6-5.19-13.1-9,0,0,2.72,1.67-.26,15.35,0,0-10.27-3.21-12.83-14.15-2,6.16,1,3.77-5.62,1.38a21.13,21.13,0,0,1,4.15,5.43A20.72,20.72,0,0,0,1464,438a8.81,8.81,0,0,1-.7,1.26l-3.82.16c-2.18-5.81-8.94-18.79-27.59-27.1,0,0,21.38,19.09,15.36,27.81l-1.42.1c-1.52-1.88-5.4-6.52-8.1-8.32,0,0,2.44,4.76,2.69,8.74-2.09.18-4.17.38-6.2.59-5.51-6.22-15.14-17.19-17-20,0,0,8,14,8.3,21.13-1.33.22-2.57.45-3.68.7-3.39-3-8.84-7.83-11-10.26,0,0,4.1,12,2.09,10.95-3.55-1.82-9.56-13.82-26-17.56,0,0,17.38,8.89,15,15.28,0,0-9.65-8.21-15.12-10.49,0,0,8.15,6.39,5.35,9.12,0,0-20.39-20.37-35.78-22.72,0,0,20.13,12.57,18,19l-3.53,5.54s-4-4.56-6.74-8.21c0,0-2.18-.86-1.52,4.59,1.81,15,.68-4.41-14.65-15.41,0,0,12.61,17.66,5.65,22.68,0,0-5.52-4.71-11.8-10.7,1.48-2,3-3.45,4.42-3.45,3.07,0,.16-1.29-6.49,1.45-23.58-23-4.58-11.05-7.06,3.79-1,.64-2,1.35-3.06,2.15-2.08-2.63-9.5-10.69-9.36-15.47a44.49,44.49,0,0,0-1.89,9.26,24.22,24.22,0,0,0-9.16-6.64s8.07,7.16,4.89,14.53a46.24,46.24,0,0,0-6.89-3.26c-3.58-6.54-10.9-15.76-25.32-22.19,0,0,15.66,14,16.41,23.48-24.18-19.87-4.11-14.41-12.74,7-30.58-34.44-15-21.17-10.6-3.79-12-8.13-3.35-23-10-2-7.35-6.82-3.35-5.25-1.69,4.9-.24.6-.47,1.19-.71,1.75A21.12,21.12,0,0,1,1259,443c.11-7.77,1.94-12-2.76-2.92-.69-.69-1.42-1.4-2.22-2.11.35-7.93,2-22.11,4.43-25.6,0,0-8.82,12.32-13.19,19.62a38.79,38.79,0,0,0-5.32-2.14c-1.64-3.31-3.75-6.82-5.73-7.92a18.67,18.67,0,0,1,3.24,7.23c-.94-.23-.84-.26,0,.21a12.75,12.75,0,0,1,0,4.77c-1.17-.56-.87-.45-.06.25a11.23,11.23,0,0,1-1.23,3.15c-7.18-6.21-19.66-15.78-29.91-17.35a92.86,92.86,0,0,1,13,10c.29,2,.23,5.58-1,11.75-1.33-1.58-3-3.58-4.29-5.37,0,0-1.79-.71-1.63,3.22a19.3,19.3,0,0,1-7.12-11c-1.83,5.54,1.35,3.24-7.42-3a62.39,62.39,0,0,1,5.88,10.48c-.35,3.3-.25,7.07,1.24,9.92,0,0-1.47.05-3.91.16-5.11-4.51-17-15.32-23.26-23.42,0,0,8.5,11.08,3.3,21-1.45-2.76-11.11-12.1-10.95-17.7,0,0-4.37,12.66-.38,22.24,0,0-1.59-3.8-11.41-7.85l-.08-1.73s6.48-16.91,11.29-16.89-5-3.18-21,11c0,0-6.67-13-16-16.42,0,0,8.17,7.24,4.84,14.66-2.82-3.32-1.4-2.5-.43.83a13.12,13.12,0,0,1-3.21,3.67s-3.9-19.11-28.52-30.08c0,0,23,20.5,14.59,28.71-1.76-2.26-6.06-7.33-8.75-9.12,0,0,5.85,11.4.37,13.69,0,0-3-3.3-6.65-7.51.77-6.8,2-13.87,3.66-16.19,0,0-4,5.53-7.88,11.38-17.87-20.52-7.57-11.82-2.71,4.1-1.23,1.91-2.36,3.72-3.23,5.23-1.67-1.47-3.73-3.3-5.64-5.06-1.46-2.69-3.16-5.19-4.78-6.09a17.91,17.91,0,0,1,2,3.52c-.85-.82-1.59-1.56-2.13-2.15,0,0,4.11,12,2.09,10.95-3.55-1.83-9.56-13.83-26-17.56,0,0,17,8.67,15.12,15-3.53-2.35-10.21-8.18-15.2-10.25,0,0,8.15,6.38,5.35,9.12,0,0-20.39-20.37-35.77-22.73,0,0,20.12,12.57,18,19l-3.53,5.54s-4.05-4.56-6.74-8.21c0,0-2.18-.87-1.52,4.58,1.81,15,.68-4.41-14.65-15.41,0,0,12.61,17.67,5.65,22.69,0,0-17.63-15.05-25.7-25.55,0,0,8.5,11.09,3.3,21-1.44-2.76-11.11-12.1-11-17.71,0,0-4.37,12.66-.38,22.24,0,0-1.95-4.67-14.92-9.17.24.1,2.06,1.09,2.57,9.18,0,0-15.64-10.95-21.68-19.39,0,0,4.69,7.07-.33,19.39,0,0-17.17-1.8-17.6-16.64,0,0-4.47,19.84-8.64,22.57,0,0-.53-9.7.25-15.11s-3.8,5.53-5.06,6.9.57-25.95,4.1-31c0,0-14.77,20.65-15.55,24.33,0,0-4.6-12.49-8.69-14.77,0,0,8.08,10.26-.31,18.59,0,0,.07-4.59-15.6-13,0,0,2.72,1.68-.26,15.36,0,0-10.27-3.21-12.83-14.15,0,0-3.63,11-.3,17.35,0,0-40.6,1.37-47.55,5.48S795.53,453.48,847.05,457.58Zm897.44-18.1c-.08-1.56,4.36-11.38,7.73-15.32-.88,2.94-3.51,13.29-.12,21.42C1752.1,445.58,1750.94,442.81,1744.49,439.48Zm-251-5.84a4.53,4.53,0,0,0-1.08-2.29c1.28-1.58,2.58-2.62,3.78-2.62h.48A12.82,12.82,0,0,1,1493.49,433.64Zm-249.13,0a14.18,14.18,0,0,0-1.42,3.07s-.94-2.54-2.34-5.55C1241.75,431.85,1243.05,432.69,1244.36,433.63Z"/>
      </g>
      <g class="cls-56">
        <path class="cls-57" d="M1614.36,564.5h0Z"/>
        <path class="cls-58" d="M1076.93,564.91h0Z"/>
        <path class="cls-59" d="M956.64,589.41c47.22,3.56,62.87,9.94,61.6,10.74s17.45,11,88.85,3.45c18.22-1.93,31.39-2.73,41.17-2.85,24.27,3.33,32.83,7.07,31.87,7.67-1.27.8,17.46,11,88.85,3.45s65.43,2.15,80.61,2.68,55.76-2.78,55.76-2.78l-.11-2.26c74.16-7.71,66.12,2,81.92,2.54,15.18.52,55.76-2.78,55.76-2.78l-.68-14c10.27,2.22,14.08,4.11,13.43,4.52-1.28.8,17.45,11,88.85,3.45,27.7-2.94,43.75-3.27,53.91-2.55,11.91,2.41,16.31,4.53,15.61,5-1.28.8,17.45,11,88.85,3.45s65.42,2.15,80.61,2.68,55.75-2.78,55.75-2.78l-1.48-30.68s6-14.81,10.37-14.8-4.63-2.78-19.23,9.61c0,0-6.11-11.42-14.71-14.37,0,0,10.86,9.18,1.09,16.78,0,0-3.56-16.74-26.13-26.33,0,0,21.06,17.94,13.37,25.14,0,0-4.89-6-8-8,0,0,5.35,10,.33,12,0,0-16.72-17.85-19.14-21.3,0,0,10.4,17.31,6.88,21.31,0,0-9.74-8-12.77-11.18,0,0,3.75,10.49,1.91,9.59-3.25-1.6-8.76-12.1-23.81-15.36,0,0,15.93,7.77,13.78,13.37,0,0-8.85-7.18-13.86-9.18,0,0,7.47,5.59,4.9,8,0,0-18.68-17.83-32.78-19.88,0,0,18.44,11,16.45,16.64l-3.25,4.85s-3.71-4-6.17-7.19c0,0-2-.75-1.39,4,1.65,13.12.62-3.86-13.43-13.48,0,0,11.56,15.46,5.17,19.86,0,0-16.15-13.17-23.55-22.35,0,0,7.79,9.7,3,18.39-1.33-2.41-9.58-10-10-15a4.52,4.52,0,0,1,3-1.75c4.42,0-4.62-2.79-19.22,9.61,0,0-6.11-11.42-14.71-14.37,0,0,8.09,6.84,4,13.6-8.63-8.12-2.51-5.88-2.82,3.09-.4.32-3.09-16.4-26.23-26.24,0,0,21,17.94,13.36,25.14,0,0-4.88-6-8-8a27,27,0,0,1,2.12,5.5c-.42,1.6-1.07,3.94-1.85,6.41-.59-.63-5-5.3-9.4-10.15.72-5.55,1.83-11,3.21-12.92,0,0-3.24,4.33-6.64,9.13-9.82-10.92-6.33-9-1.42,2-1.64,2.37-3.22,4.72-4.38,6.6-7.19-6.18-6.5-6.27-6.17-5.32a11.78,11.78,0,0,0-3.61-4s4.38,5.31,2.89,11.09c-3.58-3.67-9.51-10.71-21.34-13.28,0,0,15.64,7.64,13.83,13.22-.38-.29-9.55-7.28-13.91-9a22.51,22.51,0,0,1,4.79,4.89,14.82,14.82,0,0,1,.17,3c-.15.15-18.54-17.73-32.85-19.81,0,0,18.45,11,16.45,16.64l-3.24,4.85s-3.71-4-6.17-7.19c0,0-2-.75-1.4,4,1.66,13.12.63-3.86-13.42-13.49,0,0,11.55,15.47,5.17,19.87,0,0-16.16-13.17-23.55-22.36,0,0,7.78,9.7,3,18.4-1.32-2.42-10.18-10.58-10-15.49,0,0-4,11.08-.36,19.47,0,0-1.79-4.1-13.67-8,.22.09,1.89,1,2.35,8,0,0-14.33-9.58-19.87-17,0,0,4.3,6.19-.31,17,0,0-15.74-1.56-16.13-14.56,0,0-4.1,17.37-7.93,19.77,0,0-.48-8.49.24-13.23s-3.49,4.85-4.65,6.05.54-22.73,3.78-27.15c0,0-13.55,18.09-14.27,21.31,0,0-4.21-10.93-8-12.92,0,0,4.7,5.7,2.72,11.7a16.91,16.91,0,0,0-5.3,1.11c-1.92-1.9-5.47-4.55-12-7.88,0,0,2.49,1.47-.25,13.45,0,0-9.41-2.81-11.75-12.38-1.87,5.39.92,3.3-5.16,1.21a18.52,18.52,0,0,1,3.81,4.75,17.38,17.38,0,0,0,.58,8.17,9.74,9.74,0,0,1-.64,1.1l-3.51.15c-2-5.09-8.18-16.45-25.28-23.72,0,0,19.6,16.7,14.07,24.34l-1.3.09c-1.39-1.65-4.95-5.7-7.42-7.28a23.09,23.09,0,0,1,2.46,7.65c-1.91.16-3.82.33-5.68.52-5-5.44-13.88-15-15.59-17.48,0,0,7.34,12.22,7.6,18.49-1.22.2-2.36.4-3.37.62-3.11-2.6-8.1-6.85-10.12-9,0,0,3.75,10.49,1.91,9.59-3.25-1.6-8.76-12.1-23.81-15.36,0,0,15.93,7.77,13.78,13.37,0,0-8.85-7.19-13.86-9.18,0,0,7.47,5.59,4.9,8,0,0-18.68-17.83-32.78-19.88,0,0,18.44,11,16.45,16.64l-3.25,4.85s-3.71-4-6.17-7.19c0,0-2-.75-1.39,4,1.65,13.12.62-3.86-13.43-13.49,0,0,11.56,15.47,5.17,19.87,0,0-5.06-4.13-10.81-9.37,1.36-1.77,2.77-3,4-3,2.82,0,.15-1.13-6,1.27-21.6-20.12-4.19-9.67-6.47,3.32-.9.57-1.84,1.19-2.8,1.89-1.91-2.3-8.71-9.36-8.58-13.54a37.34,37.34,0,0,0-1.74,8.11,22.11,22.11,0,0,0-8.4-5.81s7.4,6.26,4.49,12.72a42.83,42.83,0,0,0-6.33-2.85c-3.28-5.73-10-13.8-23.19-19.42,0,0,14.35,12.23,15,20.55-22.15-17.39-3.75-12.61-11.68,6.09-28-30.14-13.69-18.52-9.71-3.31-11-7.11-3.06-20.15-9.12-1.74-6.73-6-3.07-4.59-1.56,4.29-.21.53-.43,1-.65,1.54a20.14,20.14,0,0,1-3.2-3c.11-6.81,1.79-10.54-2.53-2.56-.62-.6-1.3-1.22-2-1.85.33-6.94,1.83-19.36,4.07-22.42,0,0-8.08,10.8-12.09,17.2a34.84,34.84,0,0,0-4.89-1.88c-1.5-2.9-3.43-6-5.24-6.93a16.09,16.09,0,0,1,3,6.32c-.86-.2-.76-.22,0,.19a10.89,10.89,0,0,1,0,4.18c-1.07-.49-.8-.39-.05.21a9.81,9.81,0,0,1-1.13,2.77c-6.58-5.43-18-13.81-27.42-15.18a84.82,84.82,0,0,1,11.92,8.71c.26,1.78.21,4.89-1,10.29-1.22-1.38-2.72-3.13-3.93-4.7,0,0-1.64-.61-1.5,2.82a16.88,16.88,0,0,1-6.52-9.61c-1.68,4.85,1.24,2.83-6.8-2.67a54,54,0,0,1,5.39,9.17c-.32,2.89-.23,6.19,1.13,8.69,0,0-1.35,0-3.58.14-4.69-4-15.61-13.41-21.32-20.49,0,0,7.79,9.7,3,18.39-1.33-2.42-10.18-10.59-10-15.49,0,0-4,11.09-.36,19.47,0,0-1.46-3.33-10.46-6.86l-.07-1.52s6-14.81,10.36-14.8-4.62-2.78-19.22,9.61c0,0-6.11-11.41-14.71-14.37,0,0,7.48,6.34,4.43,12.84-2.59-2.91-1.28-2.19-.39.73a11.86,11.86,0,0,1-3,3.21s-3.57-16.73-26.13-26.32c0,0,21.05,17.94,13.36,25.13-1.61-2-5.55-6.41-8-8,0,0,5.36,10,.33,12,0,0-2.7-2.89-6.09-6.56.71-6,1.87-12.15,3.37-14.19,0,0-3.64,4.85-7.24,10-16.37-18-6.93-10.34-2.48,3.6-1.13,1.67-2.17,3.25-3,4.58-1.53-1.29-3.41-2.89-5.16-4.43-1.34-2.35-2.9-4.54-4.38-5.33a15.85,15.85,0,0,1,1.87,3.08c-.78-.72-1.45-1.36-1.94-1.88,0,0,3.75,10.49,1.91,9.58-3.26-1.59-8.76-12.1-23.81-15.36,0,0,15.53,7.59,13.85,13.16-3.24-2.05-9.36-7.15-13.93-9,0,0,7.46,5.58,4.9,8,0,0-18.68-17.82-32.79-19.88,0,0,18.45,11,16.45,16.64l-3.24,4.85s-3.71-4-6.17-7.18c0,0-2-.76-1.4,4,1.66,13.12.63-3.87-13.42-13.49,0,0,11.55,15.46,5.17,19.86,0,0-16.16-13.17-23.55-22.35,0,0,7.78,9.7,3,18.4-1.32-2.42-10.18-10.59-10-15.5,0,0-4,11.09-.36,19.47,0,0-1.79-4.09-13.67-8,.22.08,1.89,1,2.34,8,0,0-14.32-9.57-19.86-17,0,0,4.3,6.19-.31,17,0,0-15.74-1.57-16.13-14.56,0,0-4.11,17.37-7.93,19.77,0,0-.48-8.5.24-13.24s-3.49,4.85-4.65,6.05.54-22.73,3.78-27.14c0,0-13.55,18.08-14.27,21.3,0,0-4.21-10.92-8-12.92,0,0,7.4,9-.3,16.28,0,0,.08-4-14.29-11.34,0,0,2.49,1.46-.25,13.45,0,0-9.41-2.81-11.75-12.39,0,0-3.33,9.6-.28,15.19,0,0-37.23,1.23-43.6,4.83S909.41,585.85,956.64,589.41Zm822.79-16.35c-.06-1.37,4-10,7.1-13.42-.8,2.58-3.23,11.64-.13,18.76C1786.4,578.4,1785.34,576,1779.43,573.06Zm-230.12-5a3.77,3.77,0,0,0-1-2c1.17-1.38,2.37-2.29,3.47-2.29h.44A11.22,11.22,0,0,1,1549.31,568.09Zm-228.4.13a11.88,11.88,0,0,0-1.3,2.69s-.86-2.23-2.15-4.86C1318.51,566.66,1319.71,567.4,1320.91,568.22Z"/>
      </g>
      <g>
        <path class="cls-60" d="M1723.62,796.28h0Z"/>
        <path class="cls-61" d="M1186.19,796.69h0Z"/>
        <path class="cls-62" d="M1065.9,821.19c47.23,3.56,62.87,9.94,61.6,10.74s17.45,11,88.85,3.45c18.22-1.93,31.4-2.74,41.18-2.86,24.26,3.34,32.82,7.08,31.86,7.68-1.27.8,17.46,11,88.85,3.45s65.43,2.15,80.61,2.67,55.76-2.78,55.76-2.78l-.11-2.26c74.16-7.7,66.13,2,81.92,2.54,15.19.53,55.76-2.78,55.76-2.78l-.68-14c10.27,2.22,14.08,4.1,13.43,4.51-1.28.8,17.45,11,88.85,3.45,27.7-2.93,43.75-3.26,53.92-2.54,11.91,2.41,16.3,4.53,15.6,5-1.27.8,17.46,11,88.85,3.45s65.43,2.15,80.61,2.67,55.76-2.78,55.76-2.78L2047,810.06s5.95-14.8,10.36-14.8-4.62-2.78-19.23,9.62c0,0-6.11-11.42-14.71-14.37,0,0,10.86,9.18,1.09,16.77,0,0-3.56-16.73-26.12-26.32,0,0,21,17.94,13.36,25.14,0,0-4.88-6-8-8,0,0,5.35,10,.33,12,0,0-16.71-17.85-19.14-21.3,0,0,10.4,17.31,6.88,21.31,0,0-9.74-8-12.77-11.18,0,0,3.76,10.49,1.91,9.59-3.25-1.6-8.76-12.1-23.81-15.37,0,0,15.93,7.78,13.78,13.38,0,0-8.85-7.19-13.85-9.18,0,0,7.46,5.59,4.89,8,0,0-18.68-17.82-32.78-19.88,0,0,18.44,11,16.45,16.65l-3.24,4.85s-3.71-4-6.18-7.19c0,0-2-.75-1.39,4,1.65,13.12.63-3.86-13.43-13.49,0,0,11.56,15.47,5.17,19.86,0,0-16.15-13.17-23.55-22.35,0,0,7.79,9.7,3,18.4-1.32-2.42-9.58-10-10-15.05a4.58,4.58,0,0,1,3-1.76c4.41,0-4.63-2.78-19.23,9.61,0,0-6.11-11.41-14.71-14.36,0,0,8.09,6.84,4,13.6-8.64-8.13-2.51-5.88-2.83,3.09-.4.32-3.09-16.41-26.23-26.24,0,0,21.06,17.94,13.36,25.13,0,0-4.88-6-8-8a26.6,26.6,0,0,1,2.11,5.5c-.42,1.6-1.07,3.94-1.85,6.41-.59-.63-5-5.3-9.39-10.16.72-5.54,1.82-11,3.21-12.91,0,0-3.25,4.33-6.65,9.13-9.82-10.92-6.33-9-1.41,2-1.65,2.37-3.23,4.71-4.39,6.6-7.19-6.18-6.5-6.27-6.17-5.32a11.68,11.68,0,0,0-3.61-4s4.38,5.31,2.89,11.09c-3.57-3.67-9.51-10.71-21.34-13.28,0,0,15.64,7.64,13.83,13.22-.38-.3-9.54-7.29-13.91-9a22.57,22.57,0,0,1,4.8,4.88,14.35,14.35,0,0,1,.16,3c-.15.15-18.54-17.73-32.84-19.82,0,0,18.44,11,16.45,16.64l-3.25,4.85s-3.71-4-6.17-7.18c0,0-2-.75-1.39,4,1.65,13.12.62-3.87-13.43-13.49,0,0,11.56,15.46,5.17,19.86,0,0-16.15-13.17-23.55-22.35,0,0,7.79,9.7,3,18.4-1.33-2.43-10.18-10.58-10-15.5,0,0-4,11.09-.36,19.48,0,0-1.79-4.1-13.67-8,.22.09,1.89,1,2.35,8,0,0-14.33-9.57-19.87-17,0,0,4.3,6.19-.31,17,0,0-15.74-1.57-16.13-14.56,0,0-4.1,17.37-7.93,19.77,0,0-.47-8.5.24-13.24s-3.48,4.85-4.64,6.05.54-22.72,3.77-27.14c0,0-13.55,18.09-14.26,21.3,0,0-4.22-10.92-8-12.92,0,0,4.7,5.7,2.71,11.71a17.2,17.2,0,0,0-5.3,1.1c-1.92-1.89-5.47-4.54-12-7.87,0,0,2.5,1.46-.25,13.45,0,0-9.4-2.81-11.75-12.39-1.87,5.39.93,3.3-5.15,1.22a18.44,18.44,0,0,1,3.8,4.74,17.5,17.5,0,0,0,.58,8.17,9,9,0,0,1-.64,1.11c-.8,0-2,.07-3.5.14-2-5.08-8.19-16.44-25.28-23.71,0,0,19.59,16.7,14.07,24.34l-1.3.08c-1.4-1.64-5-5.7-7.43-7.27a23,23,0,0,1,2.46,7.65c-1.91.16-3.82.33-5.68.52-5-5.44-13.88-15.05-15.59-17.48,0,0,7.34,12.21,7.6,18.49-1.22.19-2.35.4-3.37.61-3.11-2.6-8.1-6.84-10.12-9,0,0,3.76,10.49,1.91,9.58-3.25-1.59-8.76-12.09-23.8-15.36,0,0,15.92,7.78,13.78,13.38,0,0-8.85-7.19-13.86-9.18,0,0,7.46,5.58,4.9,8,0,0-18.69-17.82-32.79-19.88,0,0,18.45,11,16.45,16.65l-3.24,4.85s-3.71-4-6.18-7.19c0,0-2-.75-1.39,4,1.65,13.12.63-3.86-13.43-13.49,0,0,11.56,15.46,5.17,19.86,0,0-5.06-4.12-10.81-9.37,1.36-1.77,2.77-3,4-3,2.82,0,.15-1.13-5.94,1.28-21.61-20.12-4.2-9.67-6.48,3.32-.9.56-1.83,1.19-2.8,1.88-1.91-2.3-8.71-9.35-8.58-13.54a37.34,37.34,0,0,0-1.74,8.11,22.16,22.16,0,0,0-8.39-5.8s7.4,6.26,4.48,12.71a43.71,43.71,0,0,0-6.32-2.85c-3.28-5.72-10-13.79-23.2-19.41,0,0,14.35,12.23,15,20.54-22.16-17.38-3.76-12.61-11.68,6.1-28-30.14-13.7-18.52-9.72-3.31-11-7.11-3.06-20.15-9.12-1.74-6.73-6-3.07-4.59-1.56,4.29-.21.53-.43,1-.65,1.53a19.62,19.62,0,0,1-3.2-3c.11-6.8,1.79-10.54-2.53-2.56-.62-.6-1.3-1.22-2-1.84.33-6.95,1.84-19.36,4.08-22.42,0,0-8.09,10.8-12.1,17.19a35.18,35.18,0,0,0-4.88-1.87c-1.51-2.9-3.43-6-5.25-6.94a16.18,16.18,0,0,1,3,6.33c-.86-.2-.76-.23,0,.19a10.45,10.45,0,0,1,0,4.17c-1.07-.48-.79-.39-.05.22a9.93,9.93,0,0,1-1.13,2.77c-6.58-5.44-18-13.81-27.42-15.19a85.11,85.11,0,0,1,11.93,8.72c.26,1.77.21,4.89-1,10.29-1.23-1.38-2.73-3.14-3.93-4.7,0,0-1.64-.62-1.5,2.82a16.86,16.86,0,0,1-6.52-9.61c-1.69,4.84,1.24,2.83-6.81-2.68a53.87,53.87,0,0,1,5.39,9.18c-.32,2.89-.23,6.19,1.14,8.69,0,0-1.36,0-3.59.14-4.69-4-15.61-13.41-21.32-20.5,0,0,7.79,9.7,3,18.4-1.32-2.42-10.18-10.59-10-15.5,0,0-4,11.09-.36,19.48,0,0-1.46-3.33-10.45-6.87l-.08-1.51s6-14.81,10.37-14.8-4.63-2.78-19.23,9.61c0,0-6.11-11.42-14.71-14.37,0,0,7.49,6.33,4.43,12.83-2.58-2.9-1.28-2.18-.39.73a11.58,11.58,0,0,1-3,3.22s-3.56-16.73-26.13-26.33c0,0,21.06,17.94,13.36,25.14-1.61-2-5.55-6.41-8-8,0,0,5.35,10,.33,12,0,0-2.71-2.89-6.1-6.57.71-5.95,1.88-12.14,3.37-14.18,0,0-3.63,4.85-7.24,10-16.37-18-6.92-10.34-2.48,3.59-1.13,1.68-2.17,3.26-3,4.58-1.54-1.28-3.42-2.89-5.17-4.42-1.34-2.36-2.89-4.55-4.38-5.34a16.16,16.16,0,0,1,1.87,3.09c-.77-.72-1.45-1.37-1.94-1.89,0,0,3.75,10.49,1.91,9.59-3.25-1.6-8.76-12.1-23.81-15.36,0,0,15.53,7.58,13.85,13.16-3.23-2.05-9.36-7.15-13.93-9,0,0,7.47,5.59,4.9,8,0,0-18.68-17.83-32.79-19.88,0,0,18.45,11,16.45,16.64l-3.24,4.85s-3.71-4-6.17-7.19c0,0-2-.75-1.39,4,1.65,13.12.62-3.86-13.43-13.48,0,0,11.56,15.46,5.17,19.86,0,0-16.15-13.17-23.55-22.35,0,0,7.79,9.7,3,18.4-1.33-2.42-10.18-10.6-10-15.5,0,0-4,11.09-.36,19.47,0,0-1.79-4.09-13.67-8,.22.08,1.89.95,2.35,8,0,0-14.33-9.58-19.87-17,0,0,4.3,6.19-.31,17,0,0-15.74-1.57-16.13-14.56,0,0-4.1,17.37-7.93,19.77,0,0-.47-8.5.24-13.24s-3.48,4.85-4.64,6,.54-22.73,3.77-27.15c0,0-13.55,18.09-14.26,21.31,0,0-4.22-10.93-8-12.92,0,0,7.4,9-.3,16.27,0,0,.07-4-14.3-11.33,0,0,2.5,1.46-.25,13.45,0,0-9.4-2.82-11.75-12.39,0,0-3.33,9.6-.28,15.19,0,0-37.23,1.23-43.6,4.83S1018.67,817.63,1065.9,821.19Zm822.79-16.35c-.06-1.37,4-10,7.1-13.42-.8,2.58-3.22,11.64-.12,18.76C1895.67,810.18,1894.61,807.75,1888.69,804.84Zm-230.11-5a3.86,3.86,0,0,0-1-2c1.18-1.38,2.37-2.3,3.47-2.3h.44A11.33,11.33,0,0,1,1658.58,799.87Zm-228.41.12a12.36,12.36,0,0,0-1.3,2.7s-.86-2.23-2.15-4.86C1427.78,798.44,1429,799.18,1430.17,800Z"/>
      </g>
      <g>
        <path class="cls-63" d="M454.18,826.61h0Z"/>
        <path class="cls-64" d="M946.3,833.87h0Z"/>
        <path class="cls-65" d="M1055.65,868.26c-43.36,4.19-57.9,12.56-56.76,13.64s-16.34,14.57-81.47,3.52c-16.62-2.81-28.66-4.06-37.61-4.34-22.33,4.17-30.29,9.08-29.44,9.9,1.15,1.09-16.34,14.56-81.47,3.52s-60,2.07-73.9,2.59-51-4.43-51-4.43l.17-3c-67.65-11.26-60.61,1.86-75.1,2.39-13.92.51-51-4.43-51-4.43l1.08-18.82c-9.48,2.85-13,5.33-12.45,5.89,1.14,1.09-16.34,14.56-81.47,3.52-25.27-4.29-40-4.93-49.29-4.09-11,3.08-15.08,5.87-14.46,6.47,1.15,1.09-16.34,14.57-81.47,3.52s-60,2.08-73.9,2.59S-.62,887.85-.62,887.85L-1.38,845s154-23.83,149.94-23.88,4.33-3.67,17.29,13.14c0,0,6-15.24,13.94-19.1,0,0-10.24,12.19-1.54,22.5,0,0,3.81-22.41,24.78-35,0,0-19.86,23.81-13.05,33.57,0,0,4.66-8,7.6-10.62,0,0-5.23,13.33-.69,16.08,0,0,15.88-23.74,18.21-28.34,0,0-10.08,23.1-7,28.51,0,0,9.18-10.59,12.06-14.84,0,0-3.78,14-2.06,12.84,3-2.1,8.41-16.13,22.3-20.32,0,0-14.84,10.24-13.06,17.78,0,0,8.34-9.54,13-12.15,0,0-7,7.41-4.74,10.66,0,0,17.69-23.69,30.67-26.27,0,0-17.25,14.52-15.61,22.13l2.81,6.55s3.53-5.31,5.89-9.57c0,0,1.85-1,1.15,5.41-1.95,17.59-.45-5.19,12.73-17.93,0,0-11.09,20.61-5.38,26.59,0,0,15.22-17.47,22.29-29.71,0,0-7.44,12.93-3.36,24.66,1.29-3.23,9.1-13.25,9.67-20.08-.9-1.45-1.81-2.38-2.68-2.39-4,0,4.32-3.68,17.29,13.14,0,0,6-15.25,13.94-19.1,0,0-7.63,9.08-4.12,18.21,8.17-10.8,2.49-7.86,2.48,4.18.36.43,3.37-22,24.88-34.89,0,0-19.86,23.81-13.06,33.56,0,0,4.67-8,7.61-10.61a47.22,47.22,0,0,0-2.12,7.35c.33,2.15.85,5.31,1.49,8.63.56-.83,4.71-7,8.93-13.51-.48-7.45-1.31-14.82-2.52-17.37,0,0,2.83,5.85,5.79,12.33,9.35-14.53,6.09-12.05,1.23,2.73,1.43,3.2,2.8,6.37,3.8,8.91,6.78-8.2,6.16-8.33,5.83-7.06,1.11-2.45,2.31-4.54,3.43-5.38,0,0-4.18,7.08-3,14.85,3.4-4.88,9.06-14.26,20-17.55,0,0-14.57,10-13.1,17.57.36-.4,9-9.67,13-11.94a28.2,28.2,0,0,0-4.55,6.5,28.67,28.67,0,0,0-.25,4.07c.14.21,17.56-23.57,30.73-26.19,0,0-17.25,14.53-15.61,22.13l2.81,6.55s3.53-5.31,5.89-9.56c0,0,1.85-1,1.14,5.41-1.94,17.58-.44-5.2,12.74-17.94,0,0-11.09,20.61-5.38,26.6,0,0,15.22-17.48,22.29-29.71,0,0-7.45,12.92-3.36,24.66,1.29-3.24,9.66-14.08,9.69-20.68,0,0,3.31,14.93-.31,26.14,0,0,1.78-5.47,12.79-10.6-.21.12-1.76,1.26-2.41,10.76,0,0,13.43-12.68,18.74-22.52,0,0-4.14,8.25-.27,22.79,0,0,14.46-1.9,15.25-19.34,0,0,3.19,23.37,6.62,26.63,0,0,.71-11.39.2-17.76s3,6.55,4.06,8.17.25-30.51-2.57-36.48c0,0,11.82,24.45,12.37,28.78,0,0,4.21-14.62,7.71-17.25,0,0-4.49,7.59-2.87,15.68a11.27,11.27,0,0,1,4.82,1.55c1.82-2.52,5.16-6,11.25-10.42,0,0-2.33,1.94-.21,18.06,0,0,8.71-3.66,11.17-16.48,1.53,7.26-1,4.42,4.68,1.69a25.27,25.27,0,0,0-3.64,6.33,34,34,0,0,1-.8,11,12.82,12.82,0,0,0,.55,1.49l3.21.24c2-6.8,8-22,23.92-31.51,0,0-18.49,22.17-13.68,32.49l1.19.13c1.33-2.19,4.72-7.58,7-9.66A41.68,41.68,0,0,0,558,841.16c1.75.23,3.49.49,5.19.77,4.8-7.24,13.2-20,14.84-23.27,0,0-7.12,16.3-7.56,24.72,1.11.28,2.14.57,3.07.87,2.93-3.45,7.64-9.09,9.55-11.92,0,0-3.78,14-2.06,12.84,3-2.1,8.42-16.13,22.31-20.32,0,0-14.84,10.24-13.06,17.78,0,0,8.34-9.53,13-12.15,0,0-7,7.41-4.75,10.66,0,0,17.69-23.69,30.68-26.27,0,0-17.25,14.52-15.61,22.13l2.81,6.55s3.53-5.31,5.89-9.57c0,0,1.85-1,1.14,5.41-1.94,17.59-.45-5.19,12.74-17.93,0,0-11.09,20.61-5.38,26.59,0,0,4.76-5.47,10.2-12.44-1.18-2.39-2.43-4.09-3.61-4.1-2.58,0-.1-1.52,5.4,1.78,20.45-26.73,4.16-12.93,5.83,4.54.8.77,1.64,1.62,2.5,2.56,1.82-3.06,8.28-12.44,8.3-18.06a70.42,70.42,0,0,1,1.32,10.91c2.21-3.23,4.91-6.25,7.88-7.69,0,0-7,8.3-4.52,17a36.59,36.59,0,0,1,5.88-3.75,54.07,54.07,0,0,1,21.88-25.76s-13.54,16.23-14.43,27.38c20.85-23,3.85-16.88,10.5,8.33,26.64-40.1,13.14-24.69,9-4.32,10.33-9.41,3.46-27,8.41-2.23,6.36-7.91,3-6.12,1.28,5.78.18.72.37,1.41.55,2.07a23.18,23.18,0,0,0,3-3.95c.12-9.13-1.29-14.17,2.4-3.4.59-.8,1.23-1.62,1.92-2.45-.08-9.33-1-26-3-30.14,0,0,7,14.59,10.52,23.22a27.92,27.92,0,0,1,4.53-2.45c1.47-3.87,3.33-8,5-9.24a27,27,0,0,0-2.92,8.45c.79-.25.71-.29,0,.26a20.79,20.79,0,0,0-.13,5.6c1-.64.74-.52,0,.29a17.29,17.29,0,0,0,.94,3.73c6.21-7.21,16.95-18.31,25.61-20a88.58,88.58,0,0,0-11.21,11.55c-.29,2.38-.35,6.56.55,13.83,1.16-1.85,2.6-4.18,3.75-6.26,0,0,1.52-.81,1.28,3.79A24.87,24.87,0,0,0,755.75,830c1.38,6.52-1.23,3.78,6.31-3.51a84.58,84.58,0,0,0-5.23,12.25c.19,3.88,0,8.31-1.32,11.65,0,0,1.23.07,3.27.23,4.43-5.24,14.73-17.8,20.19-27.24,0,0-7.44,12.92-3.36,24.66,1.29-3.24,9.67-14.09,9.69-20.68,0,0,3.31,14.93-.3,26.14,0,0,1.44-4.45,9.79-9.08l.12-2s-5-19.95-9-20,4.33-3.68,17.29,13.14c0,0,6-15.25,13.94-19.1,0,0-7.06,8.4-4.47,17.16,2.46-3.86,1.24-2.91.33,1a15.23,15.23,0,0,0,2.6,4.35s3.81-22.41,24.78-35c0,0-19.86,23.82-13,33.57,1.54-2.63,5.29-8.54,7.6-10.61,0,0-5.23,13.33-.69,16.08,0,0,2.57-3.85,5.79-8.74-.45-8-1.32-16.32-2.62-19.08,0,0,3.17,6.55,6.3,13.47,15.58-23.89,6.68-13.79,2.16,4.86,1,2.26,1.88,4.39,2.56,6.18,1.45-1.71,3.23-3.83,4.88-5.87,1.3-3.15,2.8-6.06,4.18-7.11a24.54,24.54,0,0,0-1.81,4.12c.73-1,1.37-1.81,1.84-2.51,0,0-3.78,14-2.06,12.84,3-2.1,8.41-16.13,22.3-20.31,0,0-14.47,10-13.11,17.49,3-2.71,8.8-9.48,13-11.86,0,0-7,7.4-4.74,10.65,0,0,17.69-23.69,30.67-26.27,0,0-17.25,14.53-15.61,22.13l2.81,6.55s3.53-5.31,5.89-9.57c0,0,1.85-1,1.15,5.41-2,17.59-.45-5.19,12.73-17.93,0,0-11.09,20.61-5.38,26.59,0,0,15.22-17.47,22.29-29.7,0,0-7.44,12.92-3.36,24.65,1.29-3.22,9.67-14.08,9.69-20.67,0,0,3.32,14.93-.3,26.14,0,0,1.77-5.47,12.78-10.6-.2.11-1.76,1.26-2.41,10.75,0,0,13.43-12.67,18.74-22.51,0,0-4.14,8.25-.26,22.79,0,0,14.46-1.91,15.24-19.34,0,0,3.19,23.36,6.62,26.63,0,0,.71-11.4.21-17.77s3,6.56,4,8.18.25-30.51-2.57-36.48c0,0,11.82,24.45,12.37,28.78,0,0,4.22-14.62,7.71-17.25,0,0-7.07,12-.25,21.85,0,0,.06-5.4,13.46-15,0,0-2.34,1.93-.22,18,0,0,8.71-3.65,11.17-16.47,0,0,2.74,12.92-.24,20.39,0,0,34,2.11,39.77,7S1099,864.07,1055.65,868.26ZM302.74,836c.1-1.84-3.35-13.43-6.06-18.1.65,3.47,2.57,15.66-.5,25.18C296.18,843.12,297.23,839.87,302.74,836Zm210.88-3.8a6.59,6.59,0,0,1,1-2.68c-1-1.87-2.09-3.11-3.1-3.13a2.42,2.42,0,0,1-.4,0A16.33,16.33,0,0,0,513.62,832.24Zm209.15,3a20,20,0,0,1,1.11,3.63s.86-3,2.12-6.49C725,833.21,723.9,834.18,722.77,835.26Z"/>
      </g>
      <path class="cls-15" d="M1951.89-152.48l-1.42-.1c0-.31,0-.62,0-.93a142.51,142.51,0,0,0-1.66-21.77c1.85-.53,3.74-1.17,5.65-1.91,16.22-6.34,27.58-18.15,25.38-26.38s-17.14-9.77-33.36-3.43q-2.91,1.14-5.58,2.49c-13.3-33.45-39.26-58.16-70.38-65a108.08,108.08,0,0,0,10.51-47c0-31.57-13-59.48-32.83-76.37,7.08-14,9.08-27.36,4.23-31.82-5.47-5-17.69,3.11-27.8,18.29a65,65,0,0,0-20.85-3.44c-23.86,0-45.2,13.07-59.37,33.61-10-20.13-28.27-33.61-49.13-33.61a48.29,48.29,0,0,0-16.4,2.88c-19.2-51.46-53.91-92.65-96.94-114.87,1.84-9.56.87-17.67-2.56-19s-7.91,4.16-11.09,12.74a159,159,0,0,0-30.14-8.95q1-3,1.92-6.3c5.3-19.57,4.08-37.62-2.73-40.31s-16.62,11-21.91,30.58a98.73,98.73,0,0,0-2.66,13.28c-1.37,0-2.74-.06-4.11-.06a156.47,156.47,0,0,0-21.19,1.44c-.39-10.85-3.58-19.32-7.45-19.32-4.14,0-7.49,9.65-7.49,21.55v.56c-54.45,12.91-100.41,54.42-126.72,111.06a49,49,0,0,0-23.77-6.22c-29.71,0-54.14,27.33-57,62.32a63.39,63.39,0,0,0-36.74-12,61.89,61.89,0,0,0-26.4,5.95c-3.07-12.8-8.92-21.8-13.53-20.42-4.89,1.46-6.51,14-3.64,28.1.23,1.08.47,2.14.73,3.18a80.28,80.28,0,0,0-10.67,11.45c-.29-.59-.6-1.18-.91-1.77-6.55-12.13-15.27-19.27-19.49-15.95s-2.33,15.85,4.21,28a58.4,58.4,0,0,0,5.32,8.2,102.61,102.61,0,0,0-8.53,41.37,102.43,102.43,0,0,0,8.68,41.71c-15.64,11.87-26,32.9-26,56.86,0,.45,0,.88,0,1.32a57,57,0,0,0-12.16-1.32c-13.88,0-26.79,5.06-37.53,13.72-.73-.78-1.5-1.55-2.32-2.3-7.83-7.21-16.21-9.84-18.72-5.86s1.72,12.85,9.39,20a83,83,0,0,0-9.32,15c-6.6-4.79-12.86-6.11-15-2.77-2.42,3.84,1.52,12.42,8.85,19.5a97.11,97.11,0,0,0-3.08,24.46c0,45.18,30.31,81.8,67.7,81.8a55.71,55.71,0,0,0,5.66-.29c9.56,54,49.25,94.41,96.76,94.41a83.51,83.51,0,0,0,31.26-6.09c25.45,54.43,73.78,91.17,129.21,91.17,27.43,0,53.11-9,75.15-24.68,15.85,61.75,63.5,106.61,119.82,106.61,52.83,0,98-39.46,116.51-95.31a86.27,86.27,0,0,0,38.86,9.31c46.19,0,85.18-37.26,97.5-88.26,1.34.11,2.69.17,4.06.17,33.31,0,60.32-32.63,60.32-72.88a85.35,85.35,0,0,0-5.75-31.09c19.8-11.56,35.88-30.95,45.48-54.86q4.07.67,8.34,1c28,2.24,51.3-7.46,52.08-21.66S1979.87-150.24,1951.89-152.48Z"/>
      <path class="cls-66" d="M1476.6-15.66c40.74,55.19,52.16,117.52,52,175.8-.06,22.64.12,57.63-.31,92.19.88,26.38,1.3,52.76,1.1,79.15-.35,46.12-2.24,92.58-7.37,138.43a152.62,152.62,0,0,1-14.22,49.88c-7.78,16-18.3,30.63-29.7,44.24-13.9,16.6-29.78,31.6-46.09,45.8a121.29,121.29,0,0,1-34.1,21.23c1.22,1.35,4,1.92,5.64,2.31,17.06,4,35.14,3.21,52.4,1.21,19.41-2.26,38.72-5.52,58-8.49,18.12-2.78,36.24-4.43,54.32-.46,9.2,2,18.14,5,27.18,7.59a230.71,230.71,0,0,0,27.54,5.92c40.06,6.35,80.74,6.4,121.2,7,14.51.22,29.07.5,43.59,0-21.29-8.36-57.89-23.8-91.45-43.21-58.5-33.81-69.59-35.35-91.3-137.19-25.87-121.34-2.51-228.95,5-283.12S1682.17,7.84,1682.17,7.84l152.29-94-20.69-26.58s-103.4,65.41-114.68,60.31,26.32-81.76,26.32-81.76l-23.81-30.67s-84.82,237-88.37,243.24-12.54,26.58-25.08,16.36-9.39-328.08-9.39-328.08l-65.18,22.49s5.64,137-1.26,145.12-86.48-60.29-91.5-73.59,7.53-106.28,7.53-106.28l-16.3-9.2s-4.4,85.86-11.28,94-57.66-46-57.66-46L1329.32-170S1435.86-70.85,1476.6-15.66Z"/>
      <path class="cls-17" d="M2222-6.55a53.63,53.63,0,0,0-2-12.09,29.61,29.61,0,0,0,5.91-1.69c-31.7-22.45-69.28-34.25-109-21.07-1.27.42-2.45-1.45-1.36-2.34,5.86-4.75,8.95-11.22,12.81-17.46-7.76-4.55-16.83-3.42-25.19-.82-1.43.44-2.16-1.33-1.34-2.32,6.28-7.62,13.9-14.16,19.47-22.35-11.87-3.9-24-.68-35.31,4-1.09.45-2.16-1.08-1.53-2,9.65-13.88,28.81-22.43,33.79-39.22-12.34.07-21.23,6.48-29.79,15.08-6.94,7-13.62,14.1-23.1,17.49a1.3,1.3,0,0,1-1.59-1.6,96,96,0,0,0,4.27-12.9c.73-3.11,3-11.65.51-14.53-2.67-3.12-11.5-2-15.13-1.11a32,32,0,0,0-11.82,5.92c-1.11.84-2.15-.72-1.7-1.71,4.27-9.49,7.42-23.69-1.31-31.84-9.82-9.17-24.34-.94-32.84,5.83a1.2,1.2,0,0,1-1.87-.24c-7.55-13.91-16.5-46.13-37.79-32.06a1.37,1.37,0,0,1-2-1.17c-.51-6.11-5.28-10.2-7.93-15.39-9.46,3.77-16.79,10.95-22.14,19.53a1.4,1.4,0,0,1-2.55-1.08c3.07-14.33,6.09-28.77,6.74-43.45.61-13.77-.39-30.72-11.91-40.06-19.82,31.6-4.67,68.64-11.09,103.13-.27,1.47-2.13,1.07-2.58,0-5.66-13.42-20.25-9.12-28.66-1.11a1.37,1.37,0,0,1-2.27-1.32c.95-3.86.43-7.82,1.16-11.64-11.38,2.48-20.86,9-29.79,16.41-1.16,1-3-.25-2.17-1.67,5.14-8.88,11.19-17.48,14.55-27.26a47.28,47.28,0,0,0,1.61-5.73c.65-3.13,2-5.8-1.28-7-3.79-1.32-9.23.1-12.7,1.69-13.4,6.13-21,21.19-30.9,31.36a1.43,1.43,0,0,1-2.37-.63,144.06,144.06,0,0,1-3-22.94c-.32-5.69-.26-11.54-1.54-17.12-3.51-15.36-20.67-20.35-34-24.22a1.42,1.42,0,0,1-.83-2.07c3.71-4.84,6.92-10.05,7.27-16.31a26.34,26.34,0,0,0-.07-3.44q-.58-3.11-3.54-2.48c-3.08-1-7.69-.48-10.67.25a1.42,1.42,0,0,1-1.58-2.06c5.38-8.39,25-21.94,16.15-33-7.47-9.28-26.45-2.61-34.86,2.22-1.42.82-2.61-1-1.66-2.15,6.61-7.95,15.67-14.34,19.82-24-15.07-5.83-30.92-4.2-45.67,2.09a1.31,1.31,0,0,1-1.59-2.05c5.33-5.8,7.91-13.6,11.18-20.68-15.75-5.24-31.14,6.06-44,14.1-1.28.8-2.41-.95-1.53-2,10.07-11.73,20.76-23.86,25-39-12.07.88-22.32,7.65-30.15,16.7-.92,1.06-2.53-.31-1.88-1.45a53.84,53.84,0,0,0,6.64-24.31,63.29,63.29,0,0,0-14.87,18.65,1.22,1.22,0,0,1-2.2-.29c-5-13.68-6.62-28.75-14.48-41.22-20,22.7-4,55.78-.54,81.84h0l0,.27c.16,1.2-1.7,1.33-2,.27-3.55-11.67-18.61-17.46-29.31-20-10.42-2.46-26.42-4.27-34.18,5.05a1.11,1.11,0,0,1-1.85-.49c-.88-3.9-2.15-10.33-6.81-11.4-3.13-.71-6.44,1.66-8.71,3.47-5.23,4.17-9.39,9.74-13.25,15.13-.66.92-2.39.71-2.32-.63,1-18.91,4-37.68,4.21-56.63.26-19.16-2.1-39.7-15-54.73-32,37.5-12.65,88.64-5.77,131.67a1.15,1.15,0,0,1-2.22.61c-4.58-13.86-11.23-32.8-29.51-26.72a1.13,1.13,0,0,1-1.25-.51c-7.77-12.07-22.27-2.4-29.08,5.47-.78.9-2.53-.06-2.07-1.2,2.36-5.88.63-11.16,0-17A47.1,47.1,0,0,0,1451-316.65c-1,1.16-2.59-.33-2-1.53,8.53-16.75,19.57-32.31,26-50.07,2.92-8,6.44-19.44,3.87-28.05-.86-2.87-1.42-2-4.16-1-2,.74-4,1.56-5.91,2.46a81.08,81.08,0,0,0-10.74,6.09c-27.56,18.4-42.46,49.52-61.93,75.25a1.19,1.19,0,0,1-2.16-.91c.72-4.08,1.58-10.25-2.61-12.86-2.82-1.75-6.71-1.06-9.72-.27-7.3,1.9-14.25,6.07-20,10.89a1.26,1.26,0,0,1-2.09-1.21c1.59-6.14.26-12.78,0-19.07-12.57-.34-22,11.22-26.83,21.78-.56,1.22-2.44.56-2.44-.67.15-25.44,4.84-52.45-5.79-76.45-18.2,26.2-27.3,58.33-24.22,90.19.11,1.23-1.47,1.58-2.23.93-13.53-11.5-34.37-17.54-46-.27a1.32,1.32,0,0,1-2,.27c-8.85-9.77-19.38-5-25.43,4.89a1.33,1.33,0,0,1-2.26,0c-2.25-3.66-5.88-6.27-9.07-9.11-6.7,7.74-9.43,18.14-12.59,27.69a1.31,1.31,0,0,1-2.51,0c-3.53-15.46-4.69-31.33-7.22-47-2.38-14.7-5.74-30.4-15.39-42.17-19.31,33.76-5,79.25,9.53,112.17a1.3,1.3,0,0,1-2,1.57,52,52,0,0,0-11.86-7.57c-2.16,13.32,4,25.55,10.46,36.91a1.3,1.3,0,0,1-2,1.57c-4.84-4.18-17.65-14.3-22.39-4.72-3.58,7.22-.84,17.93,3,24.43,8.65,14.53,25.13,24.09,39.82,31.51,1.41.71.33,2.57-1,2.35-7.93-1.32-16.54-1.29-23.69,2.88-7.49,4.37-11,12.05-12.52,20.26a1.29,1.29,0,0,1-2.33.31c-1.82-4.1-5.58-5.24-8.91-7.46-5.74,8.2-7.5,17.45-7.61,27.42a1.27,1.27,0,0,1-2.49.34c-4.75-13.43-6.81-27.66-11.26-41.2-2-6.22-4.49-12.53-8.31-17.91-.87-1.23-4.75-6.74-6.5-6.45-1.58.27-3.86,5.18-4.63,6.61-6,11.27-6.57,24.91-5.23,37.37,2.73,25.27,13.11,53.48,31.11,71.93a1.18,1.18,0,0,1-1.42,1.86c-11.48-6.22-25.56-4.58-29.26,9.58a1.12,1.12,0,0,1-2,.26c-2.59-3.48-6.19-8-10.8-8.79-6.09-1-8.37,5.55-9.56,10.23-.32,1.23-1.92.81-2-.28-1.44-11.75-2.5-24.37-8.07-35-.58-1.12-1.31-3.16-2.44-3.76-1.41-.75-1.47,0-2.55,1.57a29.43,29.43,0,0,0-3.28,6.23,45.68,45.68,0,0,0-2.74,13.08c-1.43,18.66,4.08,38.64,12.23,55.31a.81.81,0,0,1-1.1,1.1c-7-4.1-16.59-6.43-18.43,4a21.45,21.45,0,0,0-.14,6.2,43.66,43.66,0,0,0,24.28,7.34c1,0,2,0,3-.1a73.8,73.8,0,0,0,70.82,53.06,73.61,73.61,0,0,0,28.23-5.59A91.15,91.15,0,0,0,1353,35a107.22,107.22,0,0,0,54.59,14.84,107.35,107.35,0,0,0,72.82-28.36,151.69,151.69,0,0,0,42.93,6.17A150.87,150.87,0,0,0,1611.78-.87a59.45,59.45,0,0,0,32.87-16.93,69.94,69.94,0,0,0,27.18,25,70,70,0,0,0,50.67,5.4,99.14,99.14,0,0,0,23,16.44,98.88,98.88,0,0,0,115.8-18.37,116.3,116.3,0,0,0,45.19,41.5,116.85,116.85,0,0,0,117.75-6,77.85,77.85,0,0,0,20,14.84,78,78,0,0,0,96-19.65q1.88,1.17,3.87,2.21a53.34,53.34,0,0,0,71.89-22.86,53.38,53.38,0,0,0,5.18-15.29c7.24-1.45,12.58-5,12-8.09C2232.81-5.44,2228-6.94,2222-6.55Z"/>
      <path class="cls-67" d="M1764.92,652.61c.38,31.31-109.68,59.86-247.77,52.88-136.69-6.91-247.77-23.67-247.77-52.88s110.93-52.87,247.77-52.87S1764.57,623.42,1764.92,652.61Z"/>
      <path class="cls-68" d="M1679.07,607.38c16.86-5.51,15.7-25.63-4.47-24.69,12.9-15.58.89-36.07-17.55-25.12-5.21-13.35-19.51-14.77-21.27.68-4.88-9.31-13.12-15-21.83-12.14,31.82-20.18-12.68-40.89-31.91-37.19,5.72-32.55-26-47.91-48.74-29.31-7.56-33.52-50.43-1.23-60,14.58-18.17-22.92-50.13-2.88-51.34,24.54-24.47-22.58-36.49,19.68-33.33,39.35-17.11-8.13-17.24,14.95-12,26.93-13.58-4-22.16,4.2-15.53,18.56-14.07-3.67-24.17,7.26-15.53,21-12.17-.47-32.63,2.1-17,15.8-7.54-1.35-11.28,2.67-16.74,3.91,1.73,6.06,4.54,4.32,9.15,5.89l-14.28,3.69c8,13.65,28.87,11.31,39,1.29,7,5.16,3.07,5.14,12.25-.82,7.7,16.57,19.76,7.93,19.14-8.24,7.93,7.86,22.43,8.34,32.14.49-16.6,15,20.91,24.85,32.2,7.79,1,16.41,21.48,10.74,26-.14,5.82,12.18,18.83,13.08,29.4,7.3,18.09,25.83,31-8,45.53-16,3,13.19,17.12,13.76,27.49,8.11-.23,2.63.2,6,0,8.73,15.5,2.81,32.82,4.89,45.19-7.62,8.44,10.21,24.62,4.9,25.67-9.59,10.12,4.92,24.25,6.94,24.5-8.32,8.22-.51,17.21-1.15,24.59-3.13-3-1.49-6.22-4.29-9.53-5.93a74,74,0,0,0,23-5.2C1699.42,612.76,1689.4,608.92,1679.07,607.38Z"/>
      <path class="cls-69" d="M1698.15,615.17a108.42,108.42,0,0,0-27.3-5c-14.46-.88-30,.42-43.34,6.83-.77.36-1.75-.69-1-1.36,3.53-3.07,7.53-5.5,10.88-8.8-4.72-6.53-13.88-6.05-20.71-4.6a54.15,54.15,0,0,0-18.59,7.54c-.67.5-1.36,1-2,1.45s-1.55-.81-.76-1.4,1.35-1,2-1.45a67.26,67.26,0,0,0,19-22c-17.76,1.19-36.5,9.46-48.23,24-.59.73-1.65-.22-1.22-1,2.55-4.64,7.38-10,6.72-15.84a27.27,27.27,0,0,0-18.79,11.65c-.55.81-1.64.13-1.26-.79,1.94-4.66,4.7-8.92,6.28-13.74-9.11,1.28-15.9,8.38-21.84,15.41-.55.65-1.32-.07-1.23-.77.68-5.29,2.28-10.38,3.11-15.64-8.08,4.3-12,14.75-15,23.23-.3.83-1.68.8-1.57-.23a107.38,107.38,0,0,0,.35-20.44c-.56-6.53-1.84-13.66-5.6-19-4.65,6.13-5,14.95-4.63,22.51a123.93,123.93,0,0,0,4,23.93.67.67,0,0,1-1.22.55c-1.45-2.68-3.94-4.76-6.89-3.37-2.67,1.26-3.84,4.36-3.93,7.3a.64.64,0,0,1-1.26.19c-2-7.66-9.77-7.88-14.3-2.57-.45.52-1.23,0-1.07-.66.84-3.47,1.36-7.54.54-11.07-1.29-5.53-5.52-.77-7.49,1.73-.47.6-1.47-.23-1-.85,2-2.74,3.1-5.52,2.69-8.94-3.88.28-7.32,2.24-10.36,4.77a.67.67,0,0,1-1-.84,25.73,25.73,0,0,0,1.89-9.45,39.09,39.09,0,0,0-13.59,8.12c-.42.37-1.29,0-1-.64a37.7,37.7,0,0,0,2.59-10.19c-6.45,3.46-10.7,10.79-13.35,17.72-.35.91-1.49.57-1.36-.4,1.93-14.36,4.4-28.73,4-43.29-11.47,11-12.65,28.74-13.37,44.21a.68.68,0,0,1-1.27.37c-1.55-3.09-4.23-8.63-8.31-7.52-3.65,1-6.48,5.4-8.68,8.37-.35.48-1.19.08-1.14-.51.22-2.37,1-8.12-1.54-9.57-1.77-1-4.22,1-5.56,2A56,56,0,0,0,1400.33,618a.62.62,0,0,1-1.06-.66,123.87,123.87,0,0,0,7.21-19.27c1.66-6.07,3.18-13,1.68-19.31-13.49,12.36-20.39,29.61-29.25,45.67-.35.64-1.15.18-1.06-.48a38.5,38.5,0,0,0,.17-11.29c-6.67,2.66-9.9,11-13.86,16.75-.36.53-1.06.2-1-.44.44-3-.35-5.84-1.09-8.71a23.16,23.16,0,0,0-4.61,11.15.49.49,0,0,1-.91.13c-1.87-4.51-3.69-9.06-5.87-13.41-1.62-3.23-3.61-7.37-6.65-9.47-2.44,4-2.39,9.67,1.54,16-12.17-.47-32.63,2.1-17,15.8-7.54-1.35-11.28,2.67-16.74,3.91,1.73,6.06,4.54,4.32,9.15,5.89l-14.28,3.69c8,13.65,28.87,11.31,39,1.29,7,5.16,3.07,5.14,12.25-.82,7.7,16.57,19.76,7.93,19.14-8.24,7.93,7.86,22.43,8.34,32.14.49-16.6,15,20.91,24.85,32.2,7.79,1,16.41,21.48,10.74,26-.14,5.82,12.18,18.83,13.08,29.4,7.3,18.09,25.82,31-8,45.53-16,3,13.19,17.12,13.76,27.49,8.11-.23,2.63.2,6,0,8.73,15.5,2.81,32.82,4.89,45.19-7.62,8.44,10.21,24.62,4.9,25.67-9.59,10.12,4.92,24.25,6.94,24.5-8.32,8.22-.51,17.21-1.15,24.59-3.13-3-1.49-6.22-4.29-9.53-5.93a74,74,0,0,0,23-5.2A19.77,19.77,0,0,0,1698.15,615.17Z"/>
      <g>
        <path class="cls-70" d="M1148.56,554.13a4.59,4.59,0,0,1-4.59-1.23s-3.1,1.22-5.35-.51.52-3.17.52-3.17-2.81-.57-1.71-2.31c1.38-2.13,5.14-.18,5.14-.18s.31-2.89,3.92-2,2.09,2.85,2.09,2.85,4.55-.36,4.63,2-3.11,1.66-3.11,1.66S1151.38,553.31,1148.56,554.13Z"/>
        <path class="cls-70" d="M949,547.87a4.33,4.33,0,0,1-4.38,0,5.43,5.43,0,0,1-4.82.85c-2.53-.94-.64-2.87-.64-2.87s-2.65.18-2.28-1.59c.45-2.17,4.4-1.39,4.4-1.39s-.74-2.6,2.71-2.67,2.8,2,2.8,2,3.83-1.4,4.7.59-2.13,2.16-2.13,2.16S951.15,546.47,949,547.87Z"/>
        <path class="cls-70" d="M1127,537.75a3.58,3.58,0,0,1-3.57-1.2s-2.59.82-4.24-.65.66-2.5.66-2.5-2.2-.6-1.19-1.91c1.26-1.63,4.12.1,4.12.1s.48-2.29,3.27-1.4,1.45,2.38,1.45,2.38,3.68-.06,3.55,1.79-2.58,1.17-2.58,1.17S1129.32,537.24,1127,537.75Z"/>
        <path class="cls-70" d="M1303.46,549.14a4.1,4.1,0,0,1-4.17.39,5.17,5.17,0,0,1-4.56,1.21c-2.48-.73-.85-2.75-.85-2.75s-2.49.39-2.27-1.35c.27-2.14,4.08-1.7,4.08-1.7s-.89-2.46,2.4-2.83,2.81,1.72,2.81,1.72,3.56-1.69,4.54.18-1.84,2.3-1.84,2.3S1305.44,547.62,1303.46,549.14Z"/>
        <path class="cls-70" d="M1014.73,536.66a5.08,5.08,0,0,1-5.16-.6s-3,1.8-5.8.29-.22-3.49-.22-3.49-3.12-.19-2.35-2.21c.87-2.52,5.38-1,5.38-1s-.39-3.18,3.65-2.77,2.9,2.76,2.9,2.76,4.76-1.09,5.44,1.4-2.88,2.25-2.88,2.25S1017.53,535.35,1014.73,536.66Z"/>
        <path class="cls-70" d="M984.51,531.31a3.18,3.18,0,0,1-3.2-1.15s-2.37.69-3.82-.7.66-2.25.66-2.25-2-.59-1-1.77c1.19-1.46,3.72.19,3.72.19s.52-2.08,3-1.21,1.24,2.18,1.24,2.18,3.32,0,3.18,1.71-2.4,1-2.4,1S986.63,530.88,984.51,531.31Z"/>
        <path class="cls-70" d="M1273.9,537a3,3,0,0,1-3-1.57s-2.52.39-3.74-1.17,1.2-2.15,1.2-2.15-1.88-.85-.65-1.89c1.54-1.28,3.76.67,3.76.67a2.27,2.27,0,0,1,3.31-.8c2.34,1.2.77,2.33.77,2.33s3.37.46,2.84,2.09-2.64.7-2.64.7S1276.14,536.91,1273.9,537Z"/>
        <path class="cls-70" d="M1066,556.61a4.72,4.72,0,0,1-4.79-1.31s-3.3,1.29-5.64-.49.62-3.3.62-3.3-2.92-.61-1.7-2.39c1.47-2.24,5.4-.22,5.4-.22s.41-3,4.17-2.07,2.1,3,2.1,3,4.81-.38,4.83,2.05-3.26,1.71-3.26,1.71S1069,555.74,1066,556.61Z"/>
        <path class="cls-70" d="M1252.7,535.9a2.82,2.82,0,0,1-2.85-.37,3.62,3.62,0,0,1-3.22.1c-1.49-.83,0-1.91,0-1.91s-1.74-.13-1.24-1.24c.62-1.34,3-.48,3-.48s-.07-1.76,2.15-1.47,1.5,1.53,1.5,1.53,2.7-.55,3,.8-1.67,1.22-1.67,1.22S1254.29,535.22,1252.7,535.9Z"/>
        <path class="cls-70" d="M1097,549.09a3.16,3.16,0,0,1-3.17-1.46s-2.53.51-3.88-1,1-2.26,1-2.26-2-.76-.8-1.89c1.42-1.41,3.86.47,3.86.47s.8-2.07,3.31-1,1,2.35,1,2.35,3.46.3,3,2-2.6.83-2.6.83S1099.23,548.84,1097,549.09Z"/>
        <path class="cls-70" d="M1265.76,499.12a4.12,4.12,0,0,1-4.16-1.11s-2.83,1.11-4.87-.47.48-2.88.48-2.88-2.57-.52-1.57-2.1c1.26-1.94,4.69-.16,4.69-.16s.27-2.64,3.54-1.8,1.91,2.6,1.91,2.6,4.13-.32,4.23,1.78-2.84,1.5-2.84,1.5S1268.34,498.38,1265.76,499.12Z"/>
        <path class="cls-70" d="M1093.55,506a4,4,0,0,1-4,0,4.89,4.89,0,0,1-4.37.79c-2.29-.86-.59-2.61-.59-2.61s-2.4.17-2.06-1.44c.41-2,4-1.27,4-1.27s-.65-2.37,2.47-2.43,2.55,1.8,2.55,1.8,3.47-1.28,4.28.54-1.94,1.95-1.94,1.95A1.52,1.52,0,0,1,1093.55,506Z"/>
        <path class="cls-70" d="M1245.86,489a3.27,3.27,0,0,1-3.26-1.08s-2.35.73-3.85-.61.61-2.28.61-2.28-2-.53-1.08-1.72c1.14-1.49,3.75.09,3.75.09s.43-2.08,3-1.27,1.32,2.16,1.32,2.16,3.35,0,3.24,1.63-2.35,1.05-2.35,1.05S1248,488.55,1245.86,489Z"/>
        <path class="cls-70" d="M1322.9,513.25a3.75,3.75,0,0,1-3.81.34,4.65,4.65,0,0,1-4.14,1.11c-2.25-.66-.77-2.49-.77-2.49s-2.28.35-2.06-1.25c.24-1.94,3.71-1.54,3.71-1.54s-.8-2.24,2.17-2.55,2.56,1.56,2.56,1.56,3.23-1.54,4.14.15-1.69,2.09-1.69,2.09A1.48,1.48,0,0,1,1322.9,513.25Z"/>
        <path class="cls-70" d="M1158.81,507.34a4.69,4.69,0,0,1-4.74-.54,5.86,5.86,0,0,1-5.32.26c-2.56-1.35-.21-3.2-.21-3.2s-2.86-.18-2.15-2c.8-2.32,4.94-.91,4.94-.91s-.36-2.92,3.35-2.55,2.68,2.54,2.68,2.54,4.37-1,5,1.27-2.66,2.08-2.66,2.08S1161.39,506.13,1158.81,507.34Z"/>
        <path class="cls-70" d="M1128.11,489.69a2.93,2.93,0,0,1-2.92-1.05s-2.16.63-3.48-.64.61-2.05.61-2.05-1.81-.54-.91-1.6c1.08-1.33,3.39.16,3.39.16s.46-1.89,2.75-1.09,1.15,2,1.15,2,3,0,2.88,1.55-2.18.91-2.18.91S1130,489.29,1128.11,489.69Z"/>
        <path class="cls-70" d="M1376.65,509.12a2.92,2.92,0,0,1-3-1s-2.17.72-3.59-.5.6-2.08.6-2.08-1.86-.47-1-1.59c1.09-1.36,3.5.05,3.5.05s.41-1.93,2.78-1.23,1.19,2,1.19,2,3.11-.09,3,1.44-2.2,1-2.2,1S1378.61,508.65,1376.65,509.12Z"/>
        <path class="cls-70" d="M1196.86,496.2a2.5,2.5,0,0,1-2.56-.7,3.4,3.4,0,0,1-3-.26c-1.23-.94.33-1.75.33-1.75s-1.56-.32-.92-1.27c.79-1.2,2.88-.12,2.88-.12s.21-1.61,2.2-1.11,1.12,1.59,1.12,1.59,2.57-.19,2.57,1.1-1.74.9-1.74.9S1198.44,495.73,1196.86,496.2Z"/>
        <path class="cls-70" d="M1354.74,500.35a2.54,2.54,0,0,1-2.59-.35,3.24,3.24,0,0,1-2.92.1c-1.35-.75,0-1.74,0-1.74s-1.59-.11-1.13-1.11c.57-1.23,2.78-.46,2.78-.46s-.08-1.58,2-1.33,1.36,1.39,1.36,1.39,2.44-.51,2.68.75-1.52,1.1-1.52,1.1S1356.21,499.71,1354.74,500.35Z"/>
        <path class="cls-70" d="M1221.24,501.23a3.13,3.13,0,0,1-3.21-.64,4.17,4.17,0,0,1-3.7-.09c-1.61-1.06.2-2.18.2-2.18s-2-.27-1.27-1.5c.83-1.5,3.51-.37,3.51-.37s.08-2,2.61-1.52,1.56,1.86,1.56,1.86,3.12-.46,3.26,1.12-2,1.26-2,1.26S1223.14,500.54,1221.24,501.23Z"/>
      </g>
      <g>
        <path class="cls-71" d="M339.19,655.31c7.4,2.47,381.12,97.45,381.12,97.45l377.41-65.69L651.24,628.19Z"/>
        <polygon class="cls-72" points="985.51 696.77 624.88 652.64 607.19 356.21 916.14 404.45 992.09 492.64 985.51 696.77"/>
        <path class="cls-73" d="M849.81,330.23,541.4,277.35,399.94,451.53,430.28,670l291.08,71.18-13-236.8Zm-371,307.24s0,0,0,0S478.79,637.47,478.77,637.47Z"/>
        <path class="cls-74" d="M526.29,659.82a.68.68,0,0,1-.66-.65c-.36-4.94-5.81-137.65,7.75-140.82,5.43-1.26,11.24-.66,16.7.13,5.69.82,11.29,2.15,16.93,3.21,8.36,1.57,16.83,2.58,25.21,4,9.12,1.58,18.21,3.26,27.31,4.9,17.73,3.18,35.54,6.37,53.5,7.82,13.08,1,26.94,1.28,39.73-2.27l-4.41-31.76L849.81,330.23,541.4,277.35,399.94,451.53,405.57,492c.83.29,24.69,175.65,24.71,178l248.34,60.73C681.39,721.68,532.18,660.51,526.29,659.82Z"/>
        <path class="cls-75" d="M876.67,371.15q-11.37,13.37-22.38,27-8.94,11.15-17.54,22.56-2.61,3.47-5.15,7a41.71,41.71,0,0,1,18-4.2c46.9,0,84.92,83.4,84.92,186.28,0,31.7-5,65.86-11.37,92l10.78,2.6,38-11.94,6.58-207.34Z"/>
        <path class="cls-76" d="M849.81,330.23,708.35,504.41s12.19,233.51,13,236.8l73-14.52c-9-29.52-16.15-74.45-16.15-112.57,0-102.88,38-186.28,84.91-186.28s84.92,83.4,84.92,186.28c0,31.7-7.79,64.14-14.16,90.27l51.58-7.62,6.58-207.34Z"/>
        <g class="cls-77">
          <path class="cls-78" d="M845.06,356.72a132.27,132.27,0,0,1-.85-19.6L835,348.46c.2,5.13.56,10.25,1,15.36,2,23.22,4.26,46.42,6.43,69.62a47.54,47.54,0,0,1,8-3.49c-.87-14.73-1.65-29.46-2.52-44.19C847.28,376,846,366.41,845.06,356.72Z"/>
          <path class="cls-79" d="M927.09,416.7l-11-12.25c.28,5.16.7,10.32,1,15.46,1.2,18.25,1.71,36.56,2.35,54.85A197,197,0,0,1,928,493.82C927.49,468.11,927.1,442.4,927.09,416.7Z"/>
          <path class="cls-80" d="M773.7,423.94c3.63,34.2,10.34,68,14.64,102.09q2-8.34,4.45-16.15c-4.29-31.05-9.56-61.95-13.3-93.07Z"/>
        </g>
        <polygon class="cls-81" points="844.52 330.23 992.09 500.13 1001.83 500.13 864.26 307.32 844.52 330.23"/>
        <g class="cls-82">
          <g>
            <path class="cls-83" d="M478.77,637.43s0,0,0,0S478.79,637.43,478.77,637.43Z"/>
            <path class="cls-84" d="M491.08,680.54l1,.09-1-.18Z"/>
            <path class="cls-85" d="M473.78,467.5l-5.41-4.33c0,1.6,22.2,212.52,22.7,217.28l1,.18,5.47.45Z"/>
            <path class="cls-86" d="M473.78,467.5l-5.41-4.33c0,1.6,22.2,212.52,22.7,217.28l.51,4.18,6.6,1.91Z"/>
            <path class="cls-87" d="M541.82,478.55c0,1.49,14.88,183.31,17.37,213.58l6.48,1.11L547.12,483Z"/>
            <path class="cls-88" d="M542.83,488.24c0,1.48,14.89,183.3,17.37,213.58l6.49,1.11L548.14,492.69Z"/>
            <path class="cls-89" d="M613.89,489.11c0,1.51,13.42,189,15.29,215l6.48,1.11L619.15,493.61Z"/>
            <path class="cls-90" d="M615.16,504.37c0,1.51,13.41,189,15.28,215l6.48,1.11-16.5-211.63Z"/>
          </g>
        </g>
        <path class="cls-91" d="M370.76,458.45l3.7,12.34,148.05,29.34,4.94-4.05v8l167.86,24L861.8,316.57s139.41,181.43,140,183.56,3.7-20.09,3.7-20.09L864.26,283.26,690.92,512.12s-179.51-43.18-181.36-43.18S370.76,458.45,370.76,458.45Z"/>
        <path class="cls-92" d="M538.55,260.43c-1.85.62-167.79,198-167.79,198l151.75,27.76,11.11-4.93-3.09,9.25,160.39,21.59L864.26,283.26Z"/>
        <path class="cls-91" d="M712.72,478.65c-35.46-6.79-71.26-12.82-105.61-24.24-8.82-2.93-17.45-6.38-26.23-9.42-9.06-3.14-18.18-6.1-27.3-9.08-4-1.31-8.07-2.54-12-4-2.76-1-5.43-2.28-8.14-3.43a63.78,63.78,0,0,0-9.39-3.4c-2.68-.67-5.72-1.15-8.34-.06.73,1.37,1.43,3.24.05,4.36s-3.89.7-5.54.42c-5.16-.89-10.12-2.88-15-4.69-7.48-2.78-15.19-5-22.89-7.09-17.92-4.9-36.45-8.94-53.4-16.76l-4.19,5c22.71,5.05,44.15,14.43,66.16,21.8,5.07,1.7,10.24,3,15.3,4.7,4.8,1.59,9.47,3.66,14.42,4.7a18.87,18.87,0,0,0,7.63.21,37.9,37.9,0,0,1,6.18-.9,39.27,39.27,0,0,1,7.77,1.06c2.57.5,5.12,1.1,7.65,1.77,10.53,2.77,20.69,6.75,31,10.35a320.93,320.93,0,0,0,32.67,9.15C640,467.69,677.23,473.31,713.77,482l2.05-2.71Z"/>
        <path class="cls-91" d="M714.41,409.84c-12.29-3.17-24.61-6.52-37-9.1-9.63-2-20.27-3.38-28.22-9.66-.39-.31,0-.85.36-.88a13,13,0,0,0,4-1.31c-3.7-3.87-9.81-5.88-14.68-7.51S628.3,378,623,377.8c2.19,3.39,6.95,5.82,6,10.37a.59.59,0,0,1-.58.43c-13.47-1.3-26.77-3.87-40-6.64-12-2.52-24.21-4.77-36.16-7.71s-23.86-6.61-35.88-9.57c-9.82-2.42-19.94-3.49-29.88-5.29-8.79-1.58-17.77-3.56-25.7-7.8l-5.24,6.2,3.89,1.24c21.3,6.61,43.28,10.5,64.92,15.76,22.75,5.53,45.34,11.62,68.37,15.95,11.5,2.16,23.11,3.61,34.65,5.51,11.3,1.86,22.53,4.31,33.7,6.81,5.51,1.23,11,2.57,16.43,4.12s11,3.38,16.58,4.87c11,2.92,22.13,5.31,33.35,7.25,10.13,1.75,20.32,3.13,30.54,4.29l1.19-1.58Q736.88,415.61,714.41,409.84Z"/>
        <path class="cls-91" d="M737.55,337.2c-13-3.15-26.1-6.27-39.14-9.46-12.16-3-24.21-6.3-36.3-9.55s-24.31-6.13-36.84-6.36c-5.69-.1-11.35.19-17,.18-6.17,0-11.92-1.21-17.88-2.71-25.45-6.43-50.82-13.25-75.86-21.11l-4.5,5.28c23.4,5.74,46.3,13.26,69.46,19.85a146,146,0,0,0,17,4.17c5.87.92,11.81,1.24,17.74,1.58A234.58,234.58,0,0,1,648,323.64c11.27,2.31,22.43,5.11,33.73,7.28s22.6,3.05,33.75,5.61,22.17,5.8,33.35,8.34q17.41,4,34.92,7.49c8.16,1.66,16.33,3.28,24.5,4.92l1.38-1.83C785.7,348.88,761.63,343,737.55,337.2Z"/>
      </g>
    </g>
  </g>
</svg>
