<svg xmlns="http://www.w3.org/2000/svg" xmlns:xlink="http://www.w3.org/1999/xlink" width="1920" height="900" viewBox="0 0 1920 900">
  <defs>
    <style>
      .cls-1 {
        fill: none;
      }

      .cls-2 {
        isolation: isolate;
      }

      .cls-3 {
        clip-path: url(#clip-path);
      }

      .cls-4 {
        fill: #b5d679;
      }

      .cls-5 {
        fill: url(#linear-gradient);
      }

      .cls-6, .cls-7 {
        fill: #bfd9f1;
      }

      .cls-6 {
        opacity: 0.56;
      }

      .cls-7 {
        opacity: 0.18;
      }

      .cls-8 {
        fill: url(#linear-gradient-2);
      }

      .cls-9 {
        fill: url(#linear-gradient-3);
      }

      .cls-10 {
        fill: url(#linear-gradient-4);
      }

      .cls-11 {
        fill: url(#linear-gradient-5);
      }

      .cls-12 {
        fill: url(#linear-gradient-6);
      }

      .cls-13 {
        fill: url(#linear-gradient-7);
      }

      .cls-14 {
        fill: url(#linear-gradient-8);
      }

      .cls-15 {
        fill: #207d78;
        opacity: 0.36;
      }

      .cls-16 {
        opacity: 0.49;
        fill: url(#linear-gradient-9);
      }

      .cls-17 {
        fill: #698037;
        opacity: 0.32;
      }

      .cls-18 {
        fill: #77a641;
      }

      .cls-19 {
        fill: #794b1f;
      }

      .cls-20 {
        fill: #68c1ed;
      }

      .cls-21 {
        fill: #39a1d2;
      }

      .cls-22 {
        fill: #5e2d12;
      }

      .cls-23 {
        fill: #3c3c3b;
      }

      .cls-23, .cls-26, .cls-29, .cls-30, .cls-35, .cls-38 {
        mix-blend-mode: screen;
      }

      .cls-24, .cls-29 {
        fill: #88cfef;
      }

      .cls-24, .cls-27, .cls-28, .cls-37, .cls-40, .cls-67 {
        mix-blend-mode: multiply;
      }

      .cls-25 {
        fill: #447738;
      }

      .cls-26 {
        fill: #1d1c1a;
      }

      .cls-27 {
        fill: #d8d8d7;
      }

      .cls-28 {
        fill: #d1ddb3;
      }

      .cls-30 {
        fill: #64b9d7;
      }

      .cls-31 {
        fill: #6b5d52;
      }

      .cls-32 {
        fill: #a59289;
      }

      .cls-33 {
        fill: #847068;
      }

      .cls-34 {
        fill: #938078;
      }

      .cls-35 {
        fill: #706f6e;
      }

      .cls-36, .cls-38 {
        fill: #948374;
      }

      .cls-37 {
        fill: #ebebeb;
      }

      .cls-39 {
        fill: #a28f80;
      }

      .cls-40 {
        fill: #f4f5f5;
      }

      .cls-41 {
        fill: #aec836;
      }

      .cls-42 {
        fill: #a9c738;
      }

      .cls-43 {
        fill: #ac9e8b;
      }

      .cls-44 {
        fill: #726658;
      }

      .cls-45 {
        fill: #8a7e6b;
      }

      .cls-46 {
        fill: #c8bcb0;
      }

      .cls-47 {
        fill: #a99e8b;
      }

      .cls-48 {
        fill: #a29279;
      }

      .cls-49 {
        fill: #c8bda9;
      }

      .cls-50 {
        fill: #579341;
      }

      .cls-51 {
        fill: url(#linear-gradient-10);
      }

      .cls-52 {
        fill: url(#linear-gradient-11);
      }

      .cls-53 {
        fill: #1c3f1d;
        opacity: 0.61;
      }

      .cls-54 {
        fill: url(#linear-gradient-12);
      }

      .cls-55 {
        fill: #0b1e14;
      }

      .cls-56 {
        fill: #152c1a;
      }

      .cls-57 {
        fill: #122416;
      }

      .cls-58 {
        fill: #184226;
      }

      .cls-59 {
        opacity: 0.62;
      }

      .cls-60 {
        clip-path: url(#clip-path-2);
      }

      .cls-61 {
        opacity: 0.59;
      }

      .cls-62 {
        clip-path: url(#clip-path-3);
      }

      .cls-63 {
        fill: #2a7b44;
      }

      .cls-64 {
        fill: #0d321c;
      }

      .cls-65 {
        clip-path: url(#clip-path-4);
      }

      .cls-66 {
        clip-path: url(#clip-path-5);
      }

      .cls-67 {
        fill: #3f6875;
        opacity: 0.11;
      }

      .cls-68 {
        opacity: 0.44;
      }
    </style>
    <clipPath id="clip-path">
      <rect class="cls-1" width="1920" height="900"/>
    </clipPath>
    <linearGradient id="linear-gradient" x1="960" y1="-92.14" x2="960" y2="344.22" gradientUnits="userSpaceOnUse">
      <stop offset="0" stop-color="#89a4d5"/>
      <stop offset="0.17" stop-color="#9cb2dc"/>
      <stop offset="0.52" stop-color="#bccae7"/>
      <stop offset="0.8" stop-color="#d0d9ee"/>
      <stop offset="1" stop-color="#d7def0"/>
    </linearGradient>
    <linearGradient id="linear-gradient-2" x1="194.6" y1="86.49" x2="319.97" y2="86.49" gradientUnits="userSpaceOnUse">
      <stop offset="0" stop-color="#a2b8df"/>
      <stop offset="1" stop-color="#d7def0"/>
    </linearGradient>
    <linearGradient id="linear-gradient-3" x1="280.74" y1="105.97" x2="331.07" y2="105.97" gradientUnits="userSpaceOnUse">
      <stop offset="0.01" stop-color="#89a4d5"/>
      <stop offset="1" stop-color="#d7def0"/>
    </linearGradient>
    <linearGradient id="linear-gradient-4" x1="1653.71" y1="51.55" x2="1743.61" y2="51.55" xlink:href="#linear-gradient-2"/>
    <linearGradient id="linear-gradient-5" x1="1715.48" y1="68.4" x2="1751.57" y2="68.4" xlink:href="#linear-gradient-3"/>
    <linearGradient id="linear-gradient-6" x1="928.45" y1="61.95" x2="978.77" y2="61.95" gradientUnits="userSpaceOnUse">
      <stop offset="0" stop-color="#b4c5e5"/>
      <stop offset="0.93" stop-color="#d7def0"/>
    </linearGradient>
    <linearGradient id="linear-gradient-7" x1="953.61" y1="49.91" x2="1031.07" y2="49.91" xlink:href="#linear-gradient-2"/>
    <linearGradient id="linear-gradient-8" x1="1006.84" y1="61.95" x2="1037.93" y2="61.95" xlink:href="#linear-gradient-3"/>
    <linearGradient id="linear-gradient-9" x1="664.52" y1="-240.8" x2="1233.7" y2="745.05" gradientUnits="userSpaceOnUse">
      <stop offset="0.01" stop-color="#26476f"/>
      <stop offset="0.02" stop-color="#2b4e71"/>
      <stop offset="0.1" stop-color="#426e79"/>
      <stop offset="0.18" stop-color="#54867f"/>
      <stop offset="0.26" stop-color="#609784"/>
      <stop offset="0.35" stop-color="#68a286"/>
      <stop offset="0.46" stop-color="#6aa587"/>
      <stop offset="1" stop-color="#427c83"/>
    </linearGradient>
    <linearGradient id="linear-gradient-10" x1="347.17" y1="844.57" x2="1959.98" y2="844.57" gradientUnits="userSpaceOnUse">
      <stop offset="0" stop-color="#39a34b"/>
      <stop offset="0.34" stop-color="#265a2c"/>
      <stop offset="1" stop-color="#1d2815"/>
    </linearGradient>
    <linearGradient id="linear-gradient-11" x1="-45.51" y1="562.31" x2="1017.22" y2="562.31" gradientTransform="translate(-56.6 262.7) rotate(-2.21)" gradientUnits="userSpaceOnUse">
      <stop offset="0.09" stop-color="#26572a"/>
      <stop offset="0.4" stop-color="#2e7637"/>
      <stop offset="0.79" stop-color="#369646"/>
      <stop offset="1" stop-color="#39a34b"/>
    </linearGradient>
    <linearGradient id="linear-gradient-12" x1="364.99" y1="594.61" x2="1858.13" y2="594.61" gradientTransform="translate(-56.6 262.7) rotate(-2.21)" gradientUnits="userSpaceOnUse">
      <stop offset="0.04" stop-color="#1d2815"/>
      <stop offset="0.35" stop-color="#26572a"/>
      <stop offset="0.64" stop-color="#2e7637"/>
      <stop offset="1" stop-color="#39a34b"/>
    </linearGradient>
    <clipPath id="clip-path-2">
      <polygon class="cls-1" points="115.76 837.64 149.17 824.41 60.99 582.44 27.58 595.66 115.76 837.64"/>
    </clipPath>
    <clipPath id="clip-path-3">
      <polygon class="cls-1" points="100.42 819.72 124.26 810.29 78.39 684.42 54.56 693.86 100.42 819.72"/>
    </clipPath>
    <clipPath id="clip-path-4">
      <polygon class="cls-1" points="1830.33 830.08 1789.22 823.34 1835.66 512.7 1876.77 519.45 1830.33 830.08"/>
    </clipPath>
    <clipPath id="clip-path-5">
      <polygon class="cls-1" points="1843.82 804.73 1814.49 799.91 1838.65 638.33 1867.97 643.14 1843.82 804.73"/>
    </clipPath>
  </defs>
  <g class="cls-2">
    <g id="Layer_1" data-name="Layer 1">
      <g id="SC_17">
        <g class="cls-3">
          <rect class="cls-4" y="339.54" width="1920" height="560.46"/>
          <rect class="cls-5" y="-92.14" width="1920" height="436.36"/>
          <path class="cls-6" d="M918.33,95.22c-232.5,54.15-679-84-922.88-28.93l-2.23,55C167.18,12.49,615.72,164.9,918.33,95.22Z"/>
          <path class="cls-7" d="M1085.46,78.76c230.12-63.52,681.89,56.48,923.3-8.47v-55C1839.35,131,1385-3.12,1085.46,78.76Z"/>
          <path class="cls-6" d="M1011.78,32.29c230.12-63.52,681.88,56.48,923.3-8.47v-55C1765.66,84.53,1311.32-49.59,1011.78,32.29Z"/>
          <path class="cls-7" d="M817.57,55.12C583.4,101.52,141.7-51.43-103.84-4.45l-4,54.91C69.58-52.51,512.81,114.71,817.57,55.12Z"/>
          <g>
            <path class="cls-8" d="M319.5,86.43C316.09,68.68,293,53.7,260.31,53.7S191.8,85.16,194.77,103c3.17,19,36.12,15.17,65.54,16.18C305.55,120.72,323.16,105.5,319.5,86.43Z"/>
            <path class="cls-9" d="M330.88,105.94c-1.37-8.59-10.64-15.85-23.76-15.85s-27.5,15.24-26.31,23.87c1.28,9.21,14.5,7.34,26.31,7.83C325.28,122.54,332.35,115.18,330.88,105.94Z"/>
          </g>
          <g>
            <path class="cls-10" d="M1743.27,51.5c-2.44-15.36-19-28.32-42.44-28.32s-49.13,27.22-47,42.65c2.27,16.46,25.9,13.12,47,14C1733.27,81.17,1745.9,68,1743.27,51.5Z"/>
            <path class="cls-11" d="M1751.43,68.38c-1-7.44-7.63-13.71-17-13.71s-19.71,13.18-18.86,20.65c.91,8,10.4,6.35,18.86,6.77C1747.42,82.75,1752.49,76.37,1751.43,68.38Z"/>
          </g>
          <g>
            <path class="cls-12" d="M978.59,61.92c-1.37-7.51-10.64-13.85-23.76-13.85s-27.5,13.31-26.31,20.86c1.27,8,14.5,6.42,26.31,6.85C973,76.43,980.06,70,978.59,61.92Z"/>
            <g>
              <path class="cls-13" d="M1030.78,49.88c-2.11-11-16.37-20.23-36.57-20.23s-42.33,19.44-40.49,30.46c2,11.75,22.32,9.37,40.49,10C1022.17,71.06,1033.05,61.66,1030.78,49.88Z"/>
              <path class="cls-14" d="M1037.81,61.93c-.84-5.31-6.57-9.79-14.68-9.79s-17,9.41-16.25,14.74c.79,5.69,9,4.54,16.25,4.84C1034.35,72.19,1038.72,67.63,1037.81,61.93Z"/>
            </g>
          </g>
          <path class="cls-15" d="M-63.57,228.12s168,52,418.6-76.45a45.9,45.9,0,0,1,29.31-4.53c33,6,109.72,21.78,142.8,44.36l93.65-17.87a85,85,0,0,1,40.38,2.09L714,191.5l394.74-86.95a150.81,150.81,0,0,1,59.22-1.17c41.78,7.52,113.74,20.11,119.33,18.8,7.92-1.86,105.51-25.76,136.2-31.6,28.92-5.5,502.77,50,502.77,50l5.1,203.23L-63.57,363.79Z"/>
          <path class="cls-16" d="M-5,145.72S236.79,295,772.1,267.3c538.13-17.63,601.67-176.73,1155.2-64.39l3.06,139.92-1934.3,2Z"/>
          <path class="cls-17" d="M959.71,390.84S648.8,396.27,513.85,410s-326.14,46.92-304.32,49.72,25.6,12.47,25.6,12.47l-89.86,13.52,54.86,3.3-39.73,5.67,23.33,1.94S157.25,501,161,501.29s20.54,1.57,20.54,1.57S31.13,517.74,57,521.45s216.93,15.78,202.74,17.88-1.89,5.51-1.89,5.51l-30.9,9.44H272s-21.13,4.62-19.87,5.06,24.42,1,24.42,1,33.28,34.32,93.51,50.32,134.31,33.58,106.88,37-92.53,9.44-75.75,11,37.92,7.08,32.24,7.34-9.77,1.05-.94,1.58,25.85,7.08,22.38,7.61,42.57,27.8,101.53,44.33,214.4,40.4,278.25,43.55,310.41,2.1,310.41,2.1l22.07,6.3-3.78-12.6,51.74,14.7-12.22-11.55,34.7,5.77-11.79-8.39s220.23-3.84,244.75-34.71,13.16-33,13.16-33l59.54-5.2L1489.11,681l22.35-4-22.35-2.51,18.65-5.77s270.62-100,288.19-142.34S1770.18,452,1685.28,444.1l17.31-9.68-31,3.73,32.64-14.48-71.33,11.38,87.35-27.86S1577,422,1549.3,422.83s-192.66-22.9-269-25.95S959.71,390.84,959.71,390.84Z"/>
          <path class="cls-18" d="M1429.4,450.8s-345.61-73.62-795.22-20.71c-167.67,19.73-263.07,89.46-74.68,160.58S669.23,655.49,644.59,666,606,707.81,803.87,735.55s581.95,1.06,510.62-49.32S1770.38,512.91,1429.4,450.8Z"/>
          <path class="cls-19" d="M1592,459s-456.26-79.39-1051-20.18c-221.21,22-346.2,82.26-97.22,151.55s145.36,66.27,112.8,76.51-48.75,35.28,212.76,62.32,766.51,3.36,672.24-45.72S2042.6,519.46,1592,459Z"/>
          <path class="cls-20" d="M1582.12,461s-448.91-70.5-1032.91-19.84C331.42,460,209,522,453.65,590.09s143.7,66.43,111.7,76.5-50,30.69,207,57.26,754.65,6,662-42.25S2025,520.45,1582.12,461Z"/>
          <path class="cls-20" d="M648.39,449.41c430.54-49.08,761.49,19.21,761.49,19.21,59.13,10.43,94.37,23.55,110,38.42-6.12-17.11-37.7-32.9-110-46.06,0,0-331-70.5-761.49-19.84-103.48,12.18-177.76,42.24-169.2,80.31C484.08,486.83,552.6,460.32,648.39,449.41Z"/>
          <path class="cls-21" d="M576.4,492.73c584-49.07,1032.92,19.21,1032.92,19.21,42,5.47,81.12,16,107.7,24.4,13-10,18.84-19.86,14.26-29.3-21.16-14.87-69-28-149.16-38.42,0,0-448.91-68.29-1032.91-19.21-129.94,10.91-222.88,37.42-229.52,72,2.92,9.6,13,19.7,31.35,30.15C378.36,525.23,466.91,501.93,576.4,492.73Z"/>
          <path class="cls-21" d="M647.06,678.9c-.43,6.88,12.56,15.56,56.27,25.62h0C661.3,694.53,647.66,685.87,647.06,678.9Z"/>
          <path class="cls-22" d="M577.51,464.35c584-50.66,1032.92,19.83,1032.92,19.83,59.51,8,98.66,16.95,122.12,26.59-3.68-18.56-45.33-35.68-150.43-49.79,0,0-448.91-70.5-1032.91-19.84-176,15.27-289.77,58.67-197.73,110.71C324,510.4,428.41,477.28,577.51,464.35Z"/>
          <path class="cls-23" d="M414.53,552.48c-31.91-37.29,323.7-64.09,445.75-62.37,0,0,338.72-8.45,610.27,12.08-270-23.91-632.67-14.85-632.67-14.85-119-1.69-465.82,24.46-434.7,60.82,7.69,9,30.66,19.61,59.82,30.89C439.32,569.39,421.24,560.32,414.53,552.48Z"/>
          <path class="cls-23" d="M672.51,684.45c31.06-10.88-4.67-29.1-58-49.29C657.17,652.32,682.05,667.5,655,677c-41.4,14.51-38,21.35-15,26.9C638.47,699.24,647.55,693.21,672.51,684.45Z"/>
          <path class="cls-23" d="M1275,507.59s-180.07,3.82-130.71,15,132.9,23.47,94.44,24.42-104,5.56-35.28,12.3,162.35,7.56,112.22,10.7-67.3,7.17-3.85,11.45,338.66-16.78,301.81-21.12-41.94,1.55,1.57-8.52,92.64-19.61,63.91-22.81C1646.08,525.36,1357.28,507.63,1275,507.59Z"/>
          <path class="cls-24" d="M1353.18,515.77c-35.28,0-44,10.09-57.76,16-.32.14-7.74,5.78-7.69,6.16,15.46.41,56.53-2.51,51.94,2s-19,6.67-26,13.68c-.84.84-1.53,3.5-.48,3.79a169,169,0,0,0,40.47,5.39c38.24,0,67.38-5.73,67.38-19.06S1388.46,515.77,1353.18,515.77Z"/>
          <g>
            <path class="cls-25" d="M1351.54,512.67c-35.29,0-63.89,10.81-63.89,24.14a8.74,8.74,0,0,0,.08,1.14c20.45-2.28,54.89-5.61,50.3-1.14s-17.34,9.77-24.34,16.78a1.75,1.75,0,0,0,.53,2.8,144.35,144.35,0,0,0,37.32,4.56c35.28,0,63.88-10.81,63.88-24.14S1386.82,512.67,1351.54,512.67Z"/>
            <path class="cls-26" d="M1345.26,514.29c-4.72,1.48-9.65,1.65-15.15,1.48a58.24,58.24,0,0,0-16.9,2.55c-3.39,1.21,8.41,2.31.9,4.54s-9.65,2.23-12.58,3.6-14.15,2.83.43,3.71,32.3.41,36.65.73,8.94-.56,7.15,2,1.5-.08-3.07,3.46-7.44,3.68-11.06,7.83c-3.31,3.79-6.81,4.67-4.45,6.85s16.44.49,16.44.49-.79,1.77,4.78-.65,6.58-1.93,20.8.48,13.43-2,15-2.58,7.86-.88,17.07-4,12.37-7.61,9.29-10.89-.07-4.84-6.28-8.22-13.15-5.33-16.65-6.37-10.79-2.83-16.08-4-7.29-1.93-13.65-1.93Z"/>
            <path class="cls-27" d="M1386.22,545.12a81.68,81.68,0,0,0-11.3-7.89,52.65,52.65,0,0,0-6.69-3.19,35.48,35.48,0,0,0-5.71-1.65,20.48,20.48,0,0,0-4.82-.44,3.09,3.09,0,0,1,.58-.53,5.23,5.23,0,0,1,1.4-.63c.58-.18,1.28-.33,2-.53a52.25,52.25,0,0,1,11.92-1.34c4.7,0,9,.41,12,.64s5,.33,5,.11-1.87-.69-4.94-1.23a70.8,70.8,0,0,0-12.14-1.12,38.69,38.69,0,0,0-12.12,1.84c-.76.28-1.43.49-2,.77a5,5,0,0,0-1.47,1,2.94,2.94,0,0,0-.56.78,11.87,11.87,0,0,0-1-3,22.43,22.43,0,0,0-4.41-6.28,17.42,17.42,0,0,0-5.92-3.91c-1.65-.61-2.72-.66-2.76-.46-.1.47,4,1.71,7.88,5.63,3.34,3.24,5.21,7.06,5.92,8q-.48-.33-1.53-1c-.62-.38-1.39-.81-2.31-1.26s-2-1-3.13-1.48-2.46-1.07-3.86-1.56-2.92-1-4.51-1.49a73.44,73.44,0,0,0-10.55-2.19,72.37,72.37,0,0,0-10.68-.49c-1.64.09-3.2.15-4.66.34s-2.81.35-4,.56-2.33.46-3.3.68a24.85,24.85,0,0,0-2.47.66c-1.35.41-2.08.69-2.06.8s3-.44,7.94-1c1.22-.14,2.56-.29,4-.36s3-.14,4.6-.19a85.81,85.81,0,0,1,10.53.6,87.47,87.47,0,0,1,10.42,2c1.58.45,3.09.84,4.48,1.33s2.69.91,3.87,1.35c3.83,1.46,6.42,2.68,7.29,2.95l0,0s0,0,0,.06c-.45.23-1.39.9-2.71,1.78-.91.62-2,1.35-3.18,2.25a21.35,21.35,0,0,0-3.65,3.44,15.2,15.2,0,0,0-2.64,4.77,17.37,17.37,0,0,0-.92,4.57c-.16,2.69.34,4.28.48,4.24s0-1.64.42-4.09a17.24,17.24,0,0,1,3.56-8.35,52.78,52.78,0,0,1,6.41-5.87,12.62,12.62,0,0,0,2.49-2.61c.68.23,2.44.54,4.9,1.23a50.7,50.7,0,0,1,5.51,2,67.69,67.69,0,0,1,6.53,3.23c4.54,2.59,8.49,5.39,11.36,7.4s4.66,3.25,4.76,3.06S1389,547.4,1386.22,545.12Z"/>
            <path class="cls-28" d="M1415.42,536.81c0-9-13.13-16.9-32.56-21a185,185,0,0,1,17.63,6.59c8.67,4.29,11.14,9.6,11.86,10.67s2.23,3.19,0,6.05c-2.08,2.66-2.15,3.55-5.72,4.8s-4.72,2.31-10.57,3.73-8.87,4.09-12.15,4.8-11.44,3.2-22,3.2-8.58,1.6-16.29,1.07-6-1.25-15.3-1.25-9.14-1.77-10.57-4.09a4.38,4.38,0,0,1-.63-2.22,42.45,42.45,0,0,0-5.42,4.47,1.75,1.75,0,0,0,.53,2.8,144.35,144.35,0,0,0,37.32,4.56C1386.82,561,1415.42,550.14,1415.42,536.81Z"/>
            <path class="cls-26" d="M1392,532.27a43.23,43.23,0,0,1-9.5-.56c-5.72-.89-4.54-1.49-11.15-1.78s-17.08-2.82-6.5.32,13.79,3.07,16.79,6,3,4.2,6.65,5.57,5.93,2.82,8.93,1.21,4.57-1.7,6.29-2.66,4.07.64,2.07-2.34-8.14-6.13-9.86-6.13A22.6,22.6,0,0,0,1392,532.27Z"/>
            <path class="cls-26" d="M1350.91,516.54c1.49.75,6.36,5.25,6.86,7.42s-2.38,4.52,2.56,3,4.58-3.15,8.65-2.91a68,68,0,0,1,11.94,1.62,55.76,55.76,0,0,0,9,1.29c3.07.32,4.63-2.34.78-4a121.41,121.41,0,0,0-14.43-4.94c-5.28-1.52-3.07-1.76-9.93-2.65S1343.76,513,1350.91,516.54Z"/>
          </g>
          <path class="cls-24" d="M814.8,555.06s-101.54,3.88-98.56,13.88c2.79,9.36,14.18,27.32,92.38,29.16,0,0-6.43,9.75,13,17.57,18.16,7.32,65.06,18.35,121.62,1.45,41.67-12.46-13.13-40.35-13.13-40.35S971,552.15,937.53,548,814.8,555.06,814.8,555.06Z"/>
          <path class="cls-29" d="M729.38,633.92c-120.41,0-218-30.21-218-67.46,0-21.19,31.57-40.09,80.95-52.46C528.62,525.78,486,547.32,486,571.94c0,37.26,97.61,67.46,218,67.46,51.94,0,99.62-5.62,137.07-15C808.4,630.44,770.2,633.92,729.38,633.92Z"/>
          <path class="cls-30" d="M1060.66,504.86A531.47,531.47,0,0,0,984.41,510c17.06-1.68,35.8-2.61,55.48-2.61,78.77,0,142.62,14.89,142.62,33.25,0,11.83-26.48,22.21-66.38,28.11,51.21-5,87.15-16.87,87.15-30.65C1203.28,519.75,1139.43,504.86,1060.66,504.86Z"/>
          <path class="cls-30" d="M982.4,510a531.47,531.47,0,0,0-76.25,5.15c17.06-1.68,35.8-2.61,55.48-2.61,78.77,0,142.62,14.89,142.62,33.25,0,11.83-26.49,22.21-66.38,28.11,51.21-5.05,87.15-16.87,87.15-30.64C1125,524.93,1061.17,510,982.4,510Z"/>
          <path class="cls-29" d="M699.7,627.78c-94-7-168.25-36.94-165.93-66.77,1.34-17.27,28.09-30.74,68.61-37.64-47.41,5.88-79.55,19.84-81,38.35-2.25,29.07,72.08,58.36,166,65.41q9.14.68,18.05,1C703.56,628.06,701.64,627.93,699.7,627.78Z"/>
          <g>
            <path class="cls-31" d="M593.14,565.92l74.43-104.18s113.64,5.52,170.46-6.12,158.79,27.9,158.79,27.9l61.22,52L1052.83,559,911.91,627.18s-223.47-7.07-254.5-18.3S593.14,565.92,593.14,565.92Z"/>
            <path class="cls-32" d="M869.37,523.75l127.45-40.23S894.84,444,838,455.62s-170.46,6.12-170.46,6.12L697.46,511Z"/>
            <path class="cls-33" d="M667.34,611.31c53.06,9.81,244.57,15.87,244.57,15.87L869.37,523.75,697.46,511Z"/>
            <polygon class="cls-34" points="1052.83 559.02 1058.04 535.51 996.83 483.52 869.37 523.75 911.91 627.18 1052.83 559.02"/>
          </g>
          <polygon class="cls-35" points="667.57 461.74 698.8 506.41 869.37 523.75 697.46 510.95 667.57 461.74"/>
          <g>
            <path class="cls-36" d="M1057.85,591.82l-17.21-32.27c-.47-2.58-19-6.23-19-6.23l-10.9-6.4s-146,2.08-149.28,6.2-85.91,73.78-84,78.94,21.24,23.74,21.24,23.74L912.94,677c10.39,0,38.24-7.74,48.62-6.71s70.8-1,70.8-1l46.26-30.44C1078.62,637.22,1063.58,604.32,1057.85,591.82Z"/>
            <path class="cls-37" d="M961.56,670.24c10.39,1,70.8-1,70.8-1l44.52-29.29h0s-44.45,19-46.44,18.09-17.52-57.51-17.52-58.86-3.18,10.33-6,14.38S798.72,655.8,798.72,655.8L912.94,677C923.33,677,951.18,669.21,961.56,670.24Z"/>
            <path class="cls-38" d="M1010.83,547.93s.06,57.88-4.66,64.47-131.13,29-131.13,29l129.13-30.54Z"/>
            <path class="cls-39" d="M1005,549.05c-6.62.36-134.56,2-140.53,7.19S812.68,594.88,825.22,594s38.62-11.23,30.85-2.47-24.08,13.93-5.57,15,52,.23,45,3.37S988,607,994,604.32,1009.56,548.8,1005,549.05Z"/>
            <path class="cls-40" d="M1057.85,591.82l-17.21-32.27c-.08-.43-.71-.9-1.65-1.38a23.2,23.2,0,0,0,1.3,4.58s25.28,53.58,19.71,61-26.08,17-21.3,16.4,28.66,0,18.61,2.69-20.16,5.74-6.57,4c9-1.12,19.68-4.61,26-6.87l1.9-1.25C1078.62,637.22,1063.58,604.32,1057.85,591.82Z"/>
            <path class="cls-26" d="M1019.89,553.82s19.62,3.54,18.1,5.9-20,41.28-16.61,37.74,9.11,52.07,6.57,42.13-14-41.53-14-41.53Z"/>
          </g>
          <path class="cls-23" d="M1125.23,504.73c-.09,4.73-16.81,8.17-37.34,7.67s-37.11-4.72-37-9.45,16.81-8.16,37.34-7.67S1125.32,500,1125.23,504.73Z"/>
          <path class="cls-23" d="M612.54,588.48c-.06,3.2-11.37,5.52-25.26,5.19s-25.1-3.2-25-6.39,11.37-5.53,25.26-5.19S612.6,585.28,612.54,588.48Z"/>
          <path class="cls-37" d="M597.72,530.36c0,6.24-25.66,11.31-57.31,11.31s-57.3-5.07-57.3-11.31S508.77,519,540.41,519,597.72,524.11,597.72,530.36Z"/>
          <path class="cls-23" d="M1408.7,522.49c13.44,4.89,21.46,11,21.46,17.7,0,15.85-45.25,28.72-101.4,29,1.92,0,3.85.05,5.79.05,55.34,0,100.19-12.51,100.19-27.94C1434.74,534,1424.88,527.45,1408.7,522.49Z"/>
          <path class="cls-23" d="M1277.55,536.81c0-14.66,36.38-26.54,81.26-26.54a236.52,236.52,0,0,1,27.06,1.51,219.35,219.35,0,0,0-35.26-2.73c-44,0-79.73,11.88-79.73,26.54,0,11,20,20.36,48.43,24.41C1294.41,555.47,1277.55,546.78,1277.55,536.81Z"/>
          <path class="cls-22" d="M613.3,650.73c-4,9.12-32.55,11.29-47.8,15.51-25.24,7-38.25,22.1,50.68,36.93Z"/>
          <path class="cls-41" d="M808.57,735.94c.44.45-1.88,10.08-31.14,15.26,0,0,23.85-2.33,29.26-5.18,0,0-9.15,11.8-18.59,14.66,0,0,34.13-8.87,35.54-15,0,0,7.33,12-7,20.76,0,0,29.67-13.84,27.81-20.61,0,0,1.24,11.28,11.84,14.89,0,0-3.4-12.41,2.17-14.66l28.31,16.16-9.36-16s8.91,4.21,24,5c0,0-19-4.93-19.37-15.23Z"/>
          <path class="cls-41" d="M1285.29,731.66c.16.3-3.21,8.38-7.59,12.48l8-4-1,14.89,9-14.76,17.67,16.31-9.47-17.47,19.49,11.94s-13.63-14.85-14-19.42Z"/>
          <path class="cls-42" d="M866.43,379.59s-2.09-18.37-9.53-23.09c0,0,8.37,2.36,9.53,6.3l-6.28-27.55,10.46,28.07s0-12.33,5.12-16.53c0,0-3,20.2,0,32.8Z"/>
          <g>
            <path class="cls-43" d="M480.14,564.51s-49.24-2.36-52.9-3-28.81-5.32-34.05-5.32-28.29,8.87-29.86,8.28S344,572.79,344,572.79V600l-3.14,41.38s30.38,27.79,30.9,29.56,47.67,16.56,55.53,16.56,53.95-11.24,84.33-15.38,71-13.63,71-13.63l19.62-43.12S510,562.74,480.14,564.51Z"/>
            <path class="cls-44" d="M340.81,641.36s30.38,27.79,30.9,29.56,47.67,16.55,55.53,16.55,53.95-11.23,84.33-15.37,71-13.63,71-13.63l19.62-43.12s-72.29,15.37-96.38,12.45-37.72-8.9-43.48-8.31-29.33,8.87-42.43,8.28-36.66-11.83-42.43-12.42S344,572.79,344,572.79V600Z"/>
            <path class="cls-45" d="M423.13,627.74h0c-1.12,0-2.22.07-3.23,0-13.09-.6-36.66-11.83-42.43-12.42S344,572.79,344,572.79V600l-3.14,41.38s30.38,27.79,30.9,29.56,43.84,15.35,54.34,16.47Z"/>
            <path class="cls-46" d="M602.19,615.35h0s-76.5-43.65-112.69-50.08c-23.47,2.76-62.81,7.1-65.93,7.52-4.45.59,32.21,6.79,37.71,8s9.43,4.14,3.15,4.73-18.34-3-10,1.77,67.84,25.42,97.69,25.72S602.19,615.35,602.19,615.35Z"/>
          </g>
          <g>
            <path class="cls-43" d="M1552.93,636.58s-39.75-1.34-42.71-1.68-23.25-3-27.48-3-22.84,5-24.1,4.7-15.65,4.7-15.65,4.7v15.46l-2.54,23.52s24.53,15.8,25,16.8,38.48,9.41,44.82,9.41,43.56-6.38,68.08-8.73,57.94-3,57.94-3l15.22-29.23S1577,635.57,1552.93,636.58Z"/>
            <path class="cls-44" d="M1440.45,680.26s24.53,15.8,25,16.8,38.48,9.41,44.82,9.41,43.56-6.38,68.08-8.73,57.94-3,57.94-3l15.22-29.23s-58.36,8.73-77.81,7.07-30.44-5.06-35.09-4.72-23.68,5-34.26,4.7-29.59-6.72-34.25-7-27.06-24.2-27.06-24.2v15.46Z"/>
            <path class="cls-45" d="M1506.91,672.52h0c-.91,0-1.79,0-2.61,0-10.57-.33-29.59-6.72-34.25-7s-27.06-24.2-27.06-24.2v15.46l-2.54,23.52s24.53,15.8,25,16.8,35.39,8.73,43.87,9.37Z"/>
            <path class="cls-46" d="M1651.46,665.48h0s-61.75-24.81-91-28.47c-19,1.57-50.7,4-53.23,4.27-3.59.34,26,3.87,30.45,4.54s7.61,2.35,2.54,2.69-14.8-1.68-8,1S1587,664,1611.08,664.13,1651.46,665.48,1651.46,665.48Z"/>
          </g>
          <g>
            <path class="cls-47" d="M1406.55,706.86s-10,3.47-12.92,9.2c-2.5,4.85-3.19,5.06-5.46,6.54-2.45,1.6-5.92,4.36-5.92,4.36l2.41,10s8.2,2.4,12.86,3.51,13.29,2.24,14.42,1.12S1422,731,1422,731s6.79-7.82,6.79-8.78-3.82-9.41-3.82-9.41Z"/>
            <path class="cls-44" d="M1421.55,727.84s-9.8,8.64-10.93,9.76-9.75,0-14.42-1.12c-4.07-1-10.83-2.92-12.49-3.4l1,3.93s8.2,2.4,12.86,3.51,13.29,2.24,14.42,1.12S1422,731,1422,731s6.79-7.82,6.79-8.78a6.11,6.11,0,0,0-.37-1.26C1426.32,723.34,1421.55,727.84,1421.55,727.84Z"/>
            <path class="cls-48" d="M1393.63,716.06c-2.49,4.85-3.19,5.06-5.46,6.54-2.45,1.6-5.92,4.36-5.92,4.36l1.46,6.12h0s13.41-7.93,14.31-8.6,8.53-17.62,8.53-17.62S1396.58,710.33,1393.63,716.06Z"/>
            <path class="cls-49" d="M1398,724.48l30.38-3.57h0c-1-2.62-3.45-8.15-3.45-8.15l-18.4-5.9Z"/>
          </g>
          <path class="cls-50" d="M1367.49,733c-.11-1.51-15.93-54.8-15.93-54.8s18.23,26.64,21.3,44.83c0,0,4-26.85,7.11-33.35,0,0,3.38,27,1.91,41.37S1368.07,741.05,1367.49,733Z"/>
          <path class="cls-51" d="M1943.13,909.64c-1-16.23,16.85-160.85,16.85-160.85S572.7,885.15,356.69,866.79l-9.52,73.55Z"/>
          <path class="cls-52" d="M-85.13,704.36c-.86-32.8,821.36-18.63,1068.41,127.12C799.6,922.54,319.15,973.82-25.38,921.89Z"/>
          <path class="cls-53" d="M-23.85,692.11s739.12,72.34,984.43,166.83L-10.83,908.11Z"/>
          <path class="cls-54" d="M333.6,910.3s810.32-125.93,955.85-125.46c0,0,151.77-56.74,508.85-65.81l26,100c-370.31.71-717.1,17.13-1015,66.23Z"/>
          <path class="cls-55" d="M1241.93,936.9c27.23-3.27,57.49-9.2,65.7-12.68-16.09-1.51-46.41,1-71.68,4l5.81-1.45c14.51-2.7,26.31-5.42,27.66-6.79,17.53-4.25,31.92-7.6,34.12-7.77-9.33-.2-33.66,2.91-56.63,7.59q-3.56.23-7.16.5c31.75-10.21,67.08-22,70.53-25-6.44-.32-32.47,6.08-59.44,13.81,14.5-6.46,28.05-13,34.81-16.91-6.54,1.22-14.34,2.95-22.56,5,7.33-4.33,14.65-8.68,21.68-12.79-1.72-1.26-8.48.47-17.7,3.91,12.86-8.81,22-16.22,21.62-18.84-12.73,6.53-26.46,13.39-39.58,20.14,8.88-6,17.3-12,24-17-5.41,1.69-13.71,5-23,9.1,16.37-14.58,29.89-27.68,32.28-32.12-3.48,1-21.17,14.6-40.66,30.14,3-3.3,6-6.59,8.74-9.76,7.33-5.51,13.5-10.13,17.63-13.1q-5.33,2.19-10.35,4.47a132.05,132.05,0,0,0,10.73-14.58c-1,1.42-8.54,8.72-18.46,18.18q-8.47,4.08-16.06,8.28c4.54-7.24,8.67-14.38,11.92-20.84q3.57-2.71,7.29-5.42-3.12,1.5-6.12,3a87.77,87.77,0,0,0,4.23-10.21c-2.83,2.54-7.88,8.15-13.87,15.38q-9.57,5.37-17.89,11a51.14,51.14,0,0,0,.16-7s-.9,1-2.4,2.74q1.39-4.75,2.62-9.5c6.58-11,12.51-21.46,17-30.27-4.34,3.55-8.65,7.41-12.88,11.48.79-4.49,1.42-8.89,1.85-13.13-3.51,6.52-7.34,14.29-11.27,22.68-7.2,7.67-14.1,15.85-20.5,24.09a380.55,380.55,0,0,0,.57-38.27c.81-7.51,1.07-13.44.61-16.65-.47.8-.95,1.66-1.42,2.56-.24-3.09-.53-6.17-.87-9.22-.46,4.57-1,9.22-1.45,13.91-7.28,15.69-14.56,40.13-19.79,61.3.13-2,.28-4,.42-6,2.27-14.61,3.42-26.7,2.16-28.49,1.44-18,2.81-32.78,3.47-34.91-4,8.65-9.69,32.59-12.76,55.88-.76,2.27-1.5,4.57-2.22,6.88-.7-33.63-2.05-71.22-4.6-75.61-3,5.89-5,32.71-5.67,60.92-2.7-16.06-5.89-31.27-8.32-39.1-1,6.58-1.87,14.55-2.4,23-2.78-8.53-5.57-17.06-8.17-25.22-2.2,1-2.72,7.22-2.11,16.15-.09.32-.17.63-.26.94-6.3-15-12.23-25.87-15.75-26.55,3.49,14.43,7,29.93,10.65,44.81-4.27-10.61-8.85-20.82-12.72-29a147.19,147.19,0,0,0,1.6,17.24c-.26,1.55-.51,3.08-.73,4.61-11.93-19.57-22.84-35.74-27.49-39.5-.08,3.64,10.74,25.45,23.42,49.7-12.8-16.84-26-32-32.75-37.8,1.14,1.2,5.43,7.47,11.29,16.32a165.94,165.94,0,0,0,4.24,21.27c-11.4-10.07-22.56-18.89-31.64-24.22,4.28,7,20.44,26.32,38.24,45.16.35,1,.71,2,1.08,2.93-3.24-1.87-6.6-3.61-10.06-5.19-13.64-12.93-27.19-24.17-33-27.21,3.34,6.26,9.61,14.61,17.06,23.48-8.74-4.76-17.64-9.28-26.44-13.37a10.85,10.85,0,0,1-.93-.89l.47.68c-7.5-3.48-14.94-6.64-22.15-9.36,11.78,9.52,27.6,21.14,44.3,32.84,4.34,4.06,9,8.24,13.73,12.26,1.35,1.62,2.73,3.23,4.12,4.84-26.51-17.29-56.45-36.3-61.27-37.19,2.74,4.48,20.39,18.24,40.44,32.5l-5.1-1.68c-10.65-5.12-20.29-9.44-26.13-11.62,2,1.74,4.16,3.6,6.52,5.54-16.07-4.74-32.79-9-49.38-12.51,11.93,4.5,24.23,9.22,36.48,14,1.92,2.1,6.14,5,11.79,8.28-15.56-4.55-27.78-7.16-30.3-5.53,13.14,5.65,27.13,11.84,40.69,17.66-10.6-3.21-21.07-6-29.57-8.22a225.91,225.91,0,0,0,20.94,11.6c-23.27-4-43.58-6.79-49.37-6.17,2.79,2,25.71,7.44,51.55,13.18-20.15-1.77-39.2-2.45-47.45-1.76,3.69,0,39,5.14,69.42,9.74-24.69.57-52.1,2.35-68,6.19,8.59,1.46,36.42,2.76,63.18,2.59a99.7,99.7,0,0,0-27.34,9.81s1.48.11,4,.27a379.09,379.09,0,0,0-47,15.62c24.53-2.67,61.13-8.84,91.54-14.79,1.51-.07,3-.15,4.45-.24A569,569,0,0,0,993.32,992c56.46-23.65,124.55-50.24,137.71-55.36.37.38.74.74,1.09,1,.72-.91,3.44-4.06,4.18-5h0c.59-.69,1.22-1.43,1.55-1.84a16.25,16.25,0,0,0-1.84-.43c-.11-.25-.22-.52-.35-.83,8.26,3.34,14.36,5.82,17.59,7.14-.14.58-.26,1.14-.34,1.65,1.51-.15,6.89-.47,8.41-.6h0c1.17-.07,2.43-.16,3.11-.22a12.38,12.38,0,0,0-.88-1.74c.54-.76,1.24-1.74,2.1-2.92,1.17-1.4,2.42-3,3.76-4.69,2.8-1.62,6.06-3.68,9.68-6.07-.59,4.43-1,7.76-1.31,9.74-.59.07-1.15.15-1.66.24.56,1,2.37,4.51,2.92,5.49h0c.41.76.84,1.59,1.08,2a12.25,12.25,0,0,0,1.41-1.09l3.36.57c1.65.38,3.5.77,5.51,1.17,19.53,11.87,77.81,37.39,95.23,45.81a256.48,256.48,0,0,0-63.22-38.32,423.47,423.47,0,0,1,68.46,25.41,221.8,221.8,0,0,0-41.94-24c21.85,2.73,44.37,5,61,5.81C1290.16,946.87,1265.18,940.82,1241.93,936.9Zm-19.65-45.62-.26.24.07-.1Zm6-24.59c-4.24,5.42-8.62,11.21-12.82,17a73.51,73.51,0,0,0,2.44-7.9Q1222.89,871.29,1228.29,866.69ZM1103.76,858c3,4.63,6.08,9.39,9.12,14.12q0,1.47.12,2.91l-1.38-1.34C1109,868.42,1106.4,863.14,1103.76,858Z"/>
          <path class="cls-55" d="M887.06,943c35.93-4.2,75.86-11.76,86.71-16.18-21.22-1.88-61.23,1.31-94.58,5.23l7.68-1.85c19.15-3.45,34.72-6.92,36.5-8.66,23.14-5.41,42.12-9.68,45-9.9-12.31-.23-44.41,3.76-74.73,9.72q-4.7.3-9.44.65c41.91-13,88.53-28,93.09-31.76-8.49-.4-42.85,7.76-78.44,17.61,19.14-8.22,37-16.53,46-21.48-8.63,1.55-18.93,3.77-29.77,6.44,9.68-5.5,19.34-11,28.62-16.23-2.26-1.6-11.19.61-23.36,5,17-11.18,29-20.57,28.56-23.89-16.8,8.29-34.93,17-52.25,25.57,11.72-7.54,22.84-15.2,31.7-21.51-7.13,2.14-18.09,6.38-30.3,11.56,21.62-18.49,39.49-35.09,42.65-40.72-4.59,1.28-28,18.52-53.7,38.23,4-4.18,7.9-8.35,11.55-12.37,9.68-7,17.82-12.85,23.28-16.61q-7,2.79-13.66,5.67c6.61-7.77,11.68-14.34,14.19-18.47-1.4,1.81-11.29,11.06-24.4,23.05q-11.18,5.17-21.19,10.51c6-9.18,11.46-18.22,15.75-26.4q4.72-3.45,9.64-6.88c-2.75,1.28-5.44,2.56-8.09,3.86a106.09,106.09,0,0,0,5.61-12.93c-3.74,3.23-10.41,10.34-18.33,19.5q-12.65,6.81-23.62,13.9a62.54,62.54,0,0,0,.22-8.87s-1.19,1.28-3.16,3.47c1.22-4,2.38-8,3.47-12,8.71-13.93,16.54-27.18,22.5-38.34-5.74,4.5-11.43,9.38-17,14.55,1.06-5.69,1.9-11.25,2.47-16.62-4.64,8.26-9.72,18.1-14.91,28.73-9.52,9.72-18.64,20.08-27.1,30.53a463.22,463.22,0,0,0,.83-48.44c1.09-9.51,1.44-17,.84-21.08-.62,1-1.25,2.11-1.88,3.25q-.47-5.87-1.12-11.67c-.62,5.79-1.27,11.68-2,17.61-9.63,19.87-19.29,50.82-26.24,77.63.19-2.5.38-5,.58-7.59,3-18.5,4.57-33.8,2.9-36.06,1.94-22.83,3.78-41.5,4.65-44.19-5.31,11-12.85,41.27-16.95,70.74-1,2.88-2,5.8-2.93,8.72-.86-42.57-2.56-90.13-5.92-95.68-4,7.46-6.71,41.41-7.61,77.11-3.53-20.32-7.7-39.56-10.89-49.47-1.37,8.33-2.5,18.41-3.22,29.17-3.64-10.8-7.31-21.58-10.72-31.9-2.9,1.31-3.6,9.14-2.81,20.44l-.35,1.19c-8.28-18.91-16.08-32.72-20.73-33.57,4.58,18.25,9.22,37.86,14,56.68-5.61-13.4-11.63-26.32-16.72-36.7A178.91,178.91,0,0,0,720,823.08c-.35,2-.68,3.91-1,5.83C703.32,804.18,689,783.73,682.83,779c-.11,4.61,14.12,32.2,30.79,62.85-16.85-21.28-34.2-40.43-43.12-47.76,1.5,1.52,7.14,9.43,14.87,20.62a200.06,200.06,0,0,0,5.53,26.92c-15-12.72-29.72-23.86-41.69-30.59,5.65,8.91,26.92,33.26,50.36,57.08.46,1.24.94,2.47,1.42,3.7-4.27-2.36-8.7-4.56-13.26-6.54-18-16.34-35.82-30.54-43.5-34.38,4.39,7.91,12.65,18.48,22.46,29.69-11.53-6-23.25-11.72-34.86-16.87a14.67,14.67,0,0,1-1.22-1.13c.19.28.39.56.61.86-9.89-4.38-19.69-8.36-29.19-11.79,15.52,12,36.36,26.69,58.37,41.46,5.72,5.14,11.85,10.41,18.09,15.5,1.77,2,3.59,4.08,5.42,6.11-34.93-21.82-74.4-45.82-80.75-47,3.6,5.67,26.85,23,53.28,41.06-2.22-.71-4.47-1.41-6.73-2.12-14-6.46-26.74-11.91-34.44-14.65,2.6,2.2,5.48,4.55,8.59,7-21.2-5.95-43.24-11.36-65.11-15.72,15.72,5.67,31.94,11.61,48.08,17.59,2.54,2.65,8.1,6.29,15.55,10.45-20.52-5.72-36.63-9-40-6.94,17.32,7.13,35.77,14.94,53.65,22.28-14-4.05-27.78-7.62-39-10.35,5.88,3.75,15.92,9,27.6,14.64-30.69-5-57.48-8.51-65.11-7.7,3.67,2.47,33.9,9.36,68,16.57-26.58-2.21-51.71-3-62.59-2.14,4.86,0,51.51,6.43,91.56,12.19-32.57.77-68.73,3.08-89.65,8,11.33,1.83,48,3.42,83.34,3.15-12.68,2.63-25.1,6.6-36.08,12.46,0,0,1.95.14,5.31.34-22,5.7-43.63,12.43-62.06,19.86,32.38-3.42,80.68-11.31,120.8-18.91q3-.12,5.87-.31c-36.62,13.16-84,34.38-125,58.76,74.53-30,164.41-63.84,181.78-70.35.49.49,1,.93,1.43,1.33.95-1.16,4.56-5.14,5.53-6.29h0c.78-.88,1.61-1.82,2-2.32a18.2,18.2,0,0,0-2.42-.55l-.46-1c10.89,4.21,18.93,7.34,23.19,9-.19.74-.34,1.44-.45,2.08,2-.19,9.09-.61,11.09-.77h0l4.1-.28a14.3,14.3,0,0,0-1.15-2.21c.71-1,1.64-2.2,2.78-3.69,1.54-1.78,3.2-3.77,5-6,3.69-2.06,8-4.67,12.78-7.7-.79,5.61-1.39,9.82-1.75,12.32-.78.1-1.52.2-2.19.32.74,1.23,3.12,5.69,3.84,6.93h0c.53,1,1.09,2,1.41,2.57a18.34,18.34,0,0,0,1.87-1.39c1.15.18,2.63.41,4.42.72,2.19.47,4.62,1,7.27,1.47,25.75,15,102.57,47.16,125.54,57.77a340.27,340.27,0,0,0-83.33-48.36,572.26,572.26,0,0,1,90.27,32,294.86,294.86,0,0,0-55.29-30.22c28.83,3.41,58.52,6.21,80.49,7.23C950.68,955.52,917.73,947.92,887.06,943Zm-25.82-57.69-.34.3.09-.13Zm8-31.14c-5.61,6.87-11.4,14.21-17,21.56a95.45,95.45,0,0,0,3.24-10Q862.1,860,869.22,854.17ZM705,843.45c3.95,5.86,8,11.88,12,17.85,0,1.25.08,2.47.14,3.69l-1.81-1.69C711.9,856.61,708.43,849.93,705,843.45Z"/>
          <g>
            <path class="cls-56" d="M182,785.27c-25.9,20.83-51.38,41.91-73.23,68.3C83.82,805,137,723,164.65,688c18.17-23,39.65-42.31,64-55.56a161.65,161.65,0,0,1,37.58-15c6.49-1.64,33.05-.12,37.18-4.61-25.07,27.23-37.3,62.53-54.73,95.93-17.22,33-39.56,54.77-66.63,76.53"/>
            <path class="cls-57" d="M299.27,616C223.73,639.3,187.63,748.89,139.9,811.5,130.7,823.56,120.56,834,113.78,848c-12-20.57-2.27-54.13,5.7-75.78a342,342,0,0,1,42.24-80.3c33.63-47,83.11-87.77,137.55-75.91"/>
            <path class="cls-56" d="M148.53,829.41c-15.38,6.11-27.13,17.44-39.55,26.37-4.4-43,54.89-78.39,77.79-104.51,31.94-36.43,67-57,111.61-51.2,18.52,2.43,36.49,4.12,54.88,6-35.68,27.73-73.51,50.65-108.2,79.39-31.36,26-61.08,29.88-96.53,44"/>
            <path class="cls-56" d="M125.05,812c-9,12.67-15.89,20.93-20.52,36.4-41.31-85,6.34-205,68.53-260.78,13.66-12.25,27.92-22.87,44.44-28.8-4.87,84.05-46,187.65-92.45,253.18"/>
            <path class="cls-57" d="M173.05,587.57c13.65-12.24,26.59-23,43.83-25.83-46.42,66.65-55.58,152.81-93.33,225.37-8,15.37-16,30.69-23.36,46.38-37.28-76.76,18.21-196.9,72.86-245.92"/>
            <path class="cls-56" d="M114.6,852a10.43,10.43,0,0,0,3.57-1.17c9.08-4.79,21.32-81.63,24.72-94.83,17.7-68.65,28.75-144.45,3-211.25-14-36.34-17.48-46-13.05-84.72-13.42,15.53-21.49,33.15-25.24,54.34-6.34,35.78-2.8,74.1-8.63,110.27-11.62,72.1-40.32,122.15-9.23,190.15C94.85,826,102,853.55,114.6,852"/>
            <path class="cls-57" d="M112.78,827.24c35.45-99.38,17.88-204.57,12.48-306.3-1.1-20.81-2.81-44.8,6.67-63.63-8.89,19.23-20.8,37.19-24.32,57.1-6,33.7-2.79,68.12-7.26,101.93-3.86,29.22-16.49,54.22-22.43,83-7.52,36.38,6.75,57.31,19.87,89.36,5.24,12.81,9.27,26,15,38.56"/>
            <path class="cls-56" d="M90.9,826.19c8,12.33,16.91,22.47,24.79,22.46,21.51,0,10.66-70.08,11.07-91.23,1.88-98-55.27-209.6-149.37-194.89C10.91,594.09,30,641.11,40.47,689.12c7.4,33.81,14.69,67.81,29.53,98.26,3.84,7.87,11.77,24.76,20.9,38.81"/>
            <path class="cls-57" d="M121,852.05c10.92-55.44-2.53-103.21-19.73-153.31C84.85,650.77,38.93,582.15-6.9,570.42a386.92,386.92,0,0,1,47.37,118.7C49,728,62.82,790.33,90.35,826.75c8.75,11.58,18.89,20.54,30.69,25.3"/>
            <path class="cls-58" d="M125.13,847.79c-.25-.12.7-3.59,3.63-9.28a102.7,102.7,0,0,1,15.58-21.75c7.54-8.33,17.52-17.1,29-26s24.5-18.1,37.28-29c13-10.69,25.63-20.64,38-28.4a183.79,183.79,0,0,1,18-10.06c5.8-2.84,11.39-5,16.42-7,10.08-4.06,18.65-6.56,24.72-7.34s9.47-.38,9.47-.09-3.32.6-9.12,2-14,4.26-23.83,8.7c-5,2.21-10.36,4.54-16,7.49a196.08,196.08,0,0,0-17.46,10.26c-12,7.82-24.42,17.75-37.37,28.42-12.88,10.93-26.11,20-37.63,28.73s-21.58,17-29.25,24.83a122.53,122.53,0,0,0-16.37,20.27c-3.33,5.25-4.84,8.42-5.17,8.25"/>
            <path class="cls-58" d="M130.65,811.76c-.32-.16.91-3.51,2.73-9.68s4.09-15.22,6.48-26.57c1.22-5.66,2.5-11.9,4-18.58s3.34-13.71,5-21.19c3.43-14.93,6.93-31.46,11-48.74s8.48-33.62,13.37-48.17a261.33,261.33,0,0,1,15.57-37.48,151.32,151.32,0,0,1,14.39-22.91c3.88-5,6.4-7.43,6.62-7.23.6.52-8.38,11.27-18.11,31.82a299.28,299.28,0,0,0-14.43,37.38c-4.62,14.45-8.85,30.69-12.92,47.9s-7.69,33.7-11.37,48.63c-1.8,7.46-3.77,14.55-5.45,21.09L143,776.42a222,222,0,0,1-8,26.35c-2.37,6-4.17,9.13-4.43,9"/>
            <path class="cls-58" d="M188,661.54c.29.19-2,4.66-5.33,12s-7.75,17.7-12.48,29.2-9.19,21.84-12.8,29.11-6.21,11.54-6.47,11.38,1.81-4.72,5-12.18,7.41-17.84,12.15-29.35,9.37-21.79,13.15-29,6.53-11.38,6.79-11.21"/>
            <path class="cls-58" d="M127.87,777.11c-.34-.06,0-3.86.34-10.72s.49-16.8.52-29.15c0-24.84,3-58.77,3.32-96.34.07-9.39-.07-18.55-.45-27.38-.12-2.23-.2-4.44-.25-6.61s-.2-4.29-.33-6.4c-.28-4.23-.64-8.37-1.05-12.41-1.67-16.16-3.77-30.75-4.85-43.09a206.14,206.14,0,0,1-.93-29.33c.36-6.92,1.13-10.67,1.41-10.63s.19,3.84.39,10.69.84,16.74,2.39,28.94,3.91,26.68,5.83,43c.47,4.08.9,8.28,1.22,12.58q.24,3.24.4,6.54c.07,2.19.17,4.38.31,6.59.44,8.93.61,18.19.55,27.65-.3,37.87-3.85,71.82-4.68,96.36-.45,12.33-1.08,22.36-2,29.22s-1.84,10.56-2.13,10.5"/>
            <g class="cls-59">
              <g class="cls-60">
                <path class="cls-58" d="M127.19,833.11c-.34-.07,0-3.81.43-10.55a148.35,148.35,0,0,0-.78-28.43q-.59-4.46-1.53-9.29c-.63-3.15-1.52-6.51-2.36-10-1.73-6.92-3.69-14.27-5.91-22A407.24,407.24,0,0,0,99.77,704,243.6,243.6,0,0,0,87.9,680.2c-4.42-7.49-8.38-14.92-12.21-21.88-7.63-14-14.8-26.29-21.62-36S40.84,605.57,35.81,601.5s-8.34-5.45-8.21-5.83,3.7.49,9.23,4.27,12.58,10.61,19.82,20.28,14.84,21.94,22.7,35.83c4,6.94,8,14.25,12.39,21.65A230,230,0,0,1,104,702a369.79,369.79,0,0,1,17.17,49.67c2.13,7.8,4,15.25,5.54,22.26.77,3.51,1.57,6.85,2.15,10.23s1,6.54,1.27,9.61a123.8,123.8,0,0,1-.67,29c-1,6.74-1.93,10.36-2.23,10.31"/>
              </g>
            </g>
            <g class="cls-61">
              <g class="cls-62">
                <path class="cls-63" d="M123.92,810.42c-.36.15-2.86-7.17-9.07-17.78a214.67,214.67,0,0,0-11.88-18c-4.74-6.56-10.23-13.58-15.91-21S76.08,738.93,71.7,732a127.43,127.43,0,0,1-10.2-19.32c-4.78-11.62-5.42-19.51-5.2-19.51.41-.1,1.61,7.59,6.68,18.8a141.07,141.07,0,0,0,10.48,18.77c4.41,6.79,9.71,13.93,15.38,21.38s11.13,14.53,15.82,21.21a183.87,183.87,0,0,1,11.59,18.44c5.93,11,7.92,18.6,7.67,18.66"/>
              </g>
            </g>
          </g>
          <g>
            <path class="cls-64" d="M229.09,901c13.59-115.68,79.28-151.74,79.28-151.74s-37,55.47-38.64,152.15Z"/>
            <path class="cls-64" d="M170.74,899.06c-13.07-123,94.32-180.63,94.32-180.63s-60.87,73.65-66.67,180.91Z"/>
            <path class="cls-64" d="M559.35,903c3.62-65.9,24.76-121,24.76-121C555.54,793.49,525.17,828,502,902.45Z"/>
            <path class="cls-64" d="M477.48,902.2C476.42,821.4,514,776.39,514,776.39c-24.82,13.65-71.73,41.53-97.74,125.18Z"/>
            <path class="cls-64" d="M462.27,902c-48.9-91.38,10-154.29,10-154.29-53.32,34-65.61,101.69-62.78,153.75Z"/>
            <path class="cls-64" d="M680.46,904.28c-13.84-51.5,19.93-88.57,19.93-88.57-42.92,8.28-76.25,37.77-73,88Z"/>
            <path class="cls-64" d="M223.89,899.6c15-92.43,80.73-125.87,80.73-125.87S196.48,784.19,183,899.18Z"/>
            <path class="cls-64" d="M488,902.31c-21.19-57.91,37.4-98.84,49.8-111.68,0,0,1.88,36.83-20.28,112Z"/>
            <path class="cls-64" d="M670.06,904.17c27-44.74,91-64.75,91-64.75s-74.8,5.52-111.66,64.54Z"/>
            <path class="cls-64" d="M656.47,904C686.35,818.58,739.35,819,739.35,819s-93,3.28-121.12,84.69Z"/>
            <path class="cls-64" d="M334.48,900.73c25.07-123,75.84-144.35,75.84-144.35s-83.77,5.09-119.55,143.91Z"/>
            <path class="cls-64" d="M543.33,902.87c9.18-130.82,116.95-147.26,116.95-147.26s-94.8,32.74-66.62,147.78Z"/>
            <path class="cls-64" d="M619.3,903.65c0-86.14,77.61-108.95,77.61-108.95S574,817.66,581.27,903.26Z"/>
            <path class="cls-64" d="M422.91,901.64C426.44,779,494,747.93,494,747.93s-76.9,26.24-123.1,153.18Z"/>
            <path class="cls-64" d="M465.2,902.07c29.66-35.83,64.59-91.93,64.59-91.93s-60,41.76-106.57,91.5Z"/>
            <path class="cls-64" d="M334.77,900.74C311.64,773.6,376.1,730.22,376.1,730.22S275.6,770.8,304,900.42Z"/>
            <path class="cls-64" d="M362.38,901C370.66,732.11,478.28,728,478.28,728s-77.08,8.93-73.94,173.49Z"/>
            <path class="cls-64" d="M172.93,901.28c19-133.86,109.39-161.42,109.39-161.42s-48.8,27.33-73.69,161.79Z"/>
            <path class="cls-64" d="M252.26,899.89c9.82-138.13,123.47-134.35,123.47-134.35-1.3,25.77-94.84,199.91-86,134.74Z"/>
            <path class="cls-64" d="M333.44,900.72C350.6,762.38,443.81,771,443.81,771s-71.24,5.91-72.92,130.1Z"/>
            <path class="cls-64" d="M197.8,900.38c107.62-165.93,208.88-113,208.88-113S297,773.9,246.88,900.89Z"/>
            <path class="cls-64" d="M699.91,904.47c-.91-26,34-35.25,34-35.25s-43.91-5.09-73.66,34.85Z"/>
            <path class="cls-64" d="M-5.41,904.13c41.83-78.07-18.79-142.8-18.79-142.8s60.59,23.54,70.09,143.33Z"/>
            <path class="cls-64" d="M81,908.89c11-77.71-40.26-166.46-40.26-166.46s-.14,77.94-3.31,166Z"/>
            <path class="cls-64" d="M184.75,899.2c-22.95-58.42-4.16-132.42-4.16-132.42-44.2,40-54.95,85.71-52.05,131.85Z"/>
            <path class="cls-64" d="M98.58,902.84c-25.72-116.62,80.8-159.76,80.8-159.76S103.51,825.55,135,903.21Z"/>
            <path class="cls-64" d="M196.26,702.87c-23.42,11.25-99.75,58.41-97.76,197.69l-41.79-.43S48.37,735.85,196.26,702.87Z"/>
            <path class="cls-64" d="M120.43,901.46c26.06-39.31-36-111.69-36-111.69s63.45,22.63,90.72,111.84Z"/>
          </g>
          <g>
            <path class="cls-56" d="M1743,785.7c34.23,17.77,68,36,98.91,61.41,17.62-64.26-61.52-147.36-100.88-181.47-25.9-22.43-54.75-39.57-85.49-48.78a178.26,178.26,0,0,0-46.26-7.73c-7.77-.21-37.75,8.71-43.47,4.49,34.71,25.59,56.59,64.18,84,99.13,27.06,34.55,57.44,54.38,93.22,73"/>
            <path class="cls-57" d="M1571.15,616.25c91.47,7.47,157.24,127.8,225.77,189.29,13.19,11.84,27.1,21.46,38,36.25,9-27.61-9.54-64.82-23.49-88.37a396,396,0,0,0-66.22-83.95c-48.92-46.71-114.54-81.86-174-53.22"/>
            <path class="cls-56" d="M1791.07,829.09c18.93,3.13,34.88,13.43,51.07,20.7-4.61-52.15-80.23-78.3-112.23-103.15-44.63-34.67-89.3-49.72-138.9-30.86-20.59,7.84-40.73,14.66-61.3,21.79,47,23.34,95.26,40.4,141.3,65.21,41.63,22.42,76.43,19.09,120.06,26.31"/>
            <path class="cls-56" d="M1814,802.09c13.08,12.63,22.83,20.58,31.59,37.69,28.1-111.91-53.19-241.5-136.68-291-18.34-10.88-37-19.65-57.18-22.26,24.38,98.39,94.61,210.26,162.27,275.56"/>
            <path class="cls-57" d="M1708.88,548.79c-18.32-10.86-35.51-20.19-55.82-18.91,67.93,66.63,97.7,166.39,157,242.35,12.57,16.09,25.14,32.13,37.06,48.77,25.36-101-64.91-228.7-138.29-272.21"/>
            <path class="cls-56" d="M1834.87,846.85a11.46,11.46,0,0,1-4.33-.43c-11.44-3.25-42.63-91.12-49.47-105.86-35.6-76.7-65.19-163.65-50.78-249.79,7.85-46.86,9.64-59.25-4.08-104,18.79,14.83,32,33.57,41,57.71,15.25,40.74,19.8,87.14,34.56,128.49,29.42,82.41,73.41,134.1,53.14,223.08-3.32,14.58-5.31,49.21-20,50.79"/>
            <path class="cls-57" d="M1831.4,816.94c-62.75-108.39-66.26-237.86-82.89-360-3.41-25-6.83-53.89-21.88-73.7,14.46,20.44,32.09,38.55,40.57,61.23,14.36,38.37,18.45,80,31.13,119,11,33.63,31,59.9,44.2,92.43,16.73,41.14,5.13,69.79-2.66,111.31-3.11,16.6-4.75,33.37-8.47,49.75"/>
            <path class="cls-56" d="M1856.15,809.85c-6.37,16.76-14.28,31.18-23.28,33.27-24.56,5.7-27.87-80.27-33.07-105.25-24.12-115.73,16.11-263.42,126.84-271.17-31.2,46.41-42.41,107.28-43.64,167.05-.87,42.09-1.58,84.37-11.7,124.47-2.62,10.36-7.89,32.52-15.15,51.63"/>
            <path class="cls-57" d="M1827.53,848.58c-24.89-62.84-20.24-123.1-11.84-187.12,8-61.32,45.1-155,94.78-181.19A496.62,496.62,0,0,0,1883,633.75c-1,48.4-2.84,126-26.11,176.61-7.39,16.08-17,29.42-29.36,38.22"/>
            <path class="cls-58" d="M1821.9,844.63c.27-.21-1.6-4.07-6.22-10A117.29,117.29,0,0,0,1793,813c-10.48-7.86-23.85-15.6-39-23.12s-32-14.91-49-24.35c-17.2-9.21-33.89-17.63-49.73-23.52a204.18,204.18,0,0,0-22.83-7.11c-7.26-1.82-14.13-2.93-20.31-3.94-12.42-2.12-22.76-2.8-29.87-2.09s-10.9,2.08-10.84,2.43,3.93-.18,10.86-.09,16.9,1.31,29.15,3.94c6.16,1.29,12.85,2.62,19.91,4.61a219.65,219.65,0,0,1,22.23,7.49c15.45,6.07,31.85,14.53,49,23.72,17.16,9.51,34.29,16.76,49.39,24s28.45,14.39,39,21.62a137.57,137.57,0,0,1,23.22,19.67c5,5.33,7.41,8.69,7.75,8.4"/>
            <path class="cls-58" d="M1807.53,803.37c.33-.28-1.83-3.92-5.29-10.75s-8.07-17-13.35-29.78c-2.66-6.4-5.52-13.45-8.76-21s-6.89-15.36-10.49-23.79c-7.27-16.78-15-35.46-23.51-54.85s-17.21-37.62-26.06-53.57a306.07,306.07,0,0,0-26.17-40.29A174.16,174.16,0,0,0,1672.34,546c-5.56-4.92-9-7.1-9.17-6.8-.58.78,12.08,11.13,27.79,32.9a351.42,351.42,0,0,1,24.86,40.47c8.5,15.92,17,34,25.47,53.36s16.34,37.92,23.89,54.65c3.73,8.37,7.56,16.25,10.94,23.55l9.34,20.6c5.74,12.63,10.92,22.61,15,29.12s6.8,9.72,7.07,9.48"/>
            <path class="cls-58" d="M1708.36,640.54c-.29.31,3.3,5,8.78,12.85s12.81,18.93,20.8,31.3,15.38,23.44,21.13,31.1,9.67,12,9.93,11.77-3.12-5.12-8.42-13.1-12.46-19.19-20.45-31.57-15.57-23.35-21.51-30.87-10-11.75-10.26-11.48"/>
            <path class="cls-58" d="M1802.94,761.53c.38-.17-.89-4.58-2.79-12.63s-4.33-19.8-7.13-34.44c-5.57-29.46-16.63-68.9-25.38-113.39-2.18-11.12-4.08-22-5.62-32.6q-.55-4-1.19-7.91c-.39-2.57-.74-5.14-1.06-7.68-.64-5.08-1.15-10.09-1.59-15-1.71-19.62-2.58-37.49-4.12-52.42a257.33,257.33,0,0,0-5.51-35c-2-8.11-3.68-12.35-4-12.23s.64,4.61,2,12.79,2.79,20.08,3.76,35,1.51,32.7,3,52.56c.38,5,.84,10.06,1.43,15.25q.45,3.9,1,7.86t1.13,7.9c1.49,10.71,3.37,21.74,5.57,33,8.82,44.83,20.48,84.15,26.93,113,3.28,14.5,6.25,26.23,8.84,34.12s4.47,12,4.79,11.89"/>
            <g class="cls-59">
              <g class="cls-65">
                <path class="cls-58" d="M1816.26,827.77c.37-.17-.88-4.51-2.86-12.4a186.12,186.12,0,0,1-5.47-33.93c-.22-3.63-.34-7.44-.33-11.43s.27-8.13.46-12.45c.42-8.67,1-17.92,1.81-27.63a523.68,523.68,0,0,1,8.77-62.63,311.79,311.79,0,0,1,8.21-31.43c3.37-10.07,6.23-20,9-29.23,5.58-18.6,11-35.14,16.61-48.48s11.35-23.42,16.18-29.59,8.3-8.7,8.06-9.11-4.11,1.57-9.58,7.53-12,16-18.08,29.36-12,30-17.88,48.58c-3,9.29-5.88,19-9.29,29a297.84,297.84,0,0,0-8.51,32.12,475.68,475.68,0,0,0-8.47,63.52c-.68,9.81-1.11,19.15-1.33,27.88-.09,4.37-.26,8.55-.16,12.72s.34,8,.7,11.73a153.06,153.06,0,0,0,7.27,34.24c2.62,7.73,4.53,11.77,4.85,11.63"/>
              </g>
            </g>
            <g class="cls-61">
              <g class="cls-66">
                <path class="cls-63" d="M1814.91,800c.44.08,1.66-9.27,6.37-23.53,2.34-7.12,5.56-15.43,9.53-24.47s8.64-18.85,13.46-29.22,9.24-20.39,12.68-29.79a165,165,0,0,0,7.32-25.65c2.85-15.06,1.81-24.6,1.56-24.53-.49,0-.14,9.43-3.42,24.09a181.45,181.45,0,0,1-7.75,25.07c-3.52,9.22-8,19.12-12.77,29.47s-9.45,20.21-13.31,29.4a234.21,234.21,0,0,0-9.09,25c-4.31,14.63-4.88,24.18-4.58,24.19"/>
              </g>
            </g>
          </g>
          <g>
            <path class="cls-64" d="M1441.92,919.16c-24-114.37,14.62-162.26,14.62-162.26s-11.37,60.92,16,154.58Z"/>
            <path class="cls-64" d="M1398,930.2c-46.49-117.2,16.89-194.72,16.89-194.72s-23.7,83.86,3.93,189.49Z"/>
            <path class="cls-64" d="M1690.67,856.69c-16.94-64.9-17.51-122.76-17.51-122.76-18,16.83-30.52,56.45-25.68,133.61Z"/>
            <path class="cls-64" d="M1629,872.18c-24.9-78.49-10.12-129.82-10.12-129.82-14.55,18.24-41.43,54.74-36,141.4Z"/>
            <path class="cls-64" d="M1617.55,875.06c-63.94-79.28-38.49-152.29-38.49-152.29-29.87,43.7-18.89,112.12-1.24,162.26Z"/>
            <path class="cls-64" d="M1781.89,833.79c-25.74-47.4-11.46-90.24-11.46-90.24-29.73,16.62-45.94,52-28.54,100.28Z"/>
            <path class="cls-64" d="M1438,920.15c-16.29-93,23-138.68,23-138.68s-78,31.72-53.83,146.41Z"/>
            <path class="cls-64" d="M1636.92,870.19c-33.18-52.18-1.43-103.72,4-118.69,0,0,12.4,35.5,18.19,113.11Z"/>
            <path class="cls-64" d="M1774.05,835.75c6.9-48.94,48.92-81.17,48.92-81.17s-54.47,20.27-64.51,85.09Z"/>
            <path class="cls-64" d="M1763.82,838.32c-3.07-89.18,36.8-99.37,36.8-99.37s-68.76,21.7-65.6,106.61Z"/>
            <path class="cls-64" d="M1521.3,899.23c-17.87-124.78,13.84-155.71,13.84-155.71s-61.32,21.64-46.76,164Z"/>
            <path class="cls-64" d="M1678.6,859.73C1646.47,730.47,1722.41,693,1722.41,693s-61.35,50.77-5.9,157.2Z"/>
            <path class="cls-64" d="M1735.82,845.35c-25.7-83.89,25.73-121.57,25.73-121.57s-85.39,46.84-54.37,128.77Z"/>
            <path class="cls-64" d="M1587.9,882.5c-33.93-120.16,7.48-163.86,7.48-163.86s-49.87,40.87-46.67,173.7Z"/>
            <path class="cls-64" d="M1619.75,874.5c11.57-40.8,21-102.4,21-102.4s-32.55,52.61-52.66,110.34Z"/>
            <path class="cls-64" d="M1521.51,899.17c-55.26-119.22-19.85-174.32-19.85-174.32s-63.28,59.55-3.33,180.15Z"/>
            <path class="cls-64" d="M1542.31,894c-44.16-166.17,35.33-191.64,35.33-191.64s-55.16,24.05-3.72,183.7Z"/>
            <path class="cls-64" d="M1399.63,929.78c-25.15-132.39,34.56-176.86,34.56-176.86s-28.57,36-7.67,170.11Z"/>
            <path class="cls-64" d="M1459.37,914.78c-33.83-136.5,52.55-155.45,52.55-155.45s-59.29,31.38-24.35,148.37Z"/>
            <path class="cls-64" d="M1520.52,899.43c-28.39-138.17,44.1-148.33,44.1-148.33s-51.68,19.95-15.9,141.24Z"/>
            <path class="cls-64" d="M1418.35,925.08c31.67-181.66,123.29-150.66,123.29-150.66s-86.31,8.78-86.32,141.38Z"/>
            <path class="cls-64" d="M1793.13,858.54c-8.43-25.15-30.5-24.93-30.5-24.93s-100.76-11.05-111.16,33.78Z"/>
            <path class="cls-64" d="M1264.14,963.81c8.1-84.37-56.68-135.35-56.68-135.35s52.47,10.86,95.32,125.65Z"/>
            <path class="cls-64" d="M1332.66,946.6c-14.94-77.89-79.84-154.13-79.84-154.13s23.14,75.95,47,162.37Z"/>
            <path class="cls-64" d="M1408.52,927.55c-34.64-52.34-42.61-128.15-42.61-128.15-21.24,47.74-15.66,94.42.27,138.78Z"/>
            <path class="cls-64" d="M1337.85,945.3c-54.07-108.47,13-171.7,13-171.7S1318.5,869,1365.29,938.41Z"/>
            <path class="cls-64" d="M1353.89,732.86c-14.21,15.62-57.4,76.75-14.37,212l-31.48,7.9S1252.79,794.43,1353.89,732.86Z"/>
            <path class="cls-64" d="M1360.66,939.57c7.95-42.12-60-98.64-60-98.64s54.33,9.24,101.16,88.31Z"/>
          </g>
          <path class="cls-67" d="M781.93,686.59s-79,15.74-51.48,25.18,539.56,20.43,438.67,2.35,193.82-33.52,137-41.81-170.31-25.1-62.94-29.75,365.63-20.53,265.56-24.91-460.65-7.73-431.64,5.68,42.25,47.3-69.37,47.41S781.93,681.86,781.93,686.59Z"/>
          <path class="cls-37" d="M1427.94,610.64c-.2,7.83-33.18,13.61-73.66,12.89s-73.14-7.65-72.94-15.49,33.18-13.61,73.67-12.89S1428.15,602.8,1427.94,610.64Z"/>
          <ellipse class="cls-68" cx="821" cy="488.5" rx="131.74" ry="28.5"/>
        </g>
      </g>
    </g>
  </g>
</svg>
