<svg xmlns="http://www.w3.org/2000/svg" xmlns:xlink="http://www.w3.org/1999/xlink" width="1600" height="900" viewBox="0 0 1600 900">
  <defs>
    <style>
      .cls-1 {
        fill: none;
      }

      .cls-2 {
        isolation: isolate;
      }

      .cls-3 {
        clip-path: url(#clip-path);
      }

      .cls-4 {
        clip-path: url(#clip-path-2);
      }

      .cls-5 {
        fill: url(#linear-gradient);
      }

      .cls-6 {
        fill: #207d78;
        opacity: 0.36;
      }

      .cls-7 {
        fill: url(#linear-gradient-2);
      }

      .cls-8 {
        fill: url(#linear-gradient-3);
      }

      .cls-9 {
        fill: #77491e;
        stroke: #382110;
        stroke-miterlimit: 10;
        stroke-width: 0.75px;
      }

      .cls-10 {
        fill: #825024;
      }

      .cls-11 {
        fill: #2a5026;
      }

      .cls-12 {
        clip-path: url(#clip-path-3);
      }

      .cls-13 {
        fill: #b5d679;
      }

      .cls-14 {
        fill: url(#linear-gradient-4);
      }

      .cls-15, .cls-16 {
        fill: #bfd9f1;
      }

      .cls-15 {
        opacity: 0.56;
      }

      .cls-16 {
        opacity: 0.18;
      }

      .cls-17 {
        opacity: 0.49;
        fill: url(#linear-gradient-5);
      }

      .cls-18 {
        fill: #278641;
      }

      .cls-19 {
        fill: #698037;
        opacity: 0.32;
      }

      .cls-20 {
        fill: #77a641;
      }

      .cls-21 {
        fill: #794b1f;
      }

      .cls-22 {
        fill: #68c1ed;
      }

      .cls-23 {
        fill: #39a1d2;
      }

      .cls-24 {
        fill: #5e2d12;
      }

      .cls-25 {
        fill: #3c3c3b;
      }

      .cls-25, .cls-28, .cls-31, .cls-32, .cls-38, .cls-41 {
        mix-blend-mode: screen;
      }

      .cls-26, .cls-31 {
        fill: #88cfef;
      }

      .cls-26, .cls-29, .cls-30, .cls-40, .cls-43 {
        mix-blend-mode: multiply;
      }

      .cls-27 {
        fill: #447738;
      }

      .cls-28 {
        fill: #1d1c1a;
      }

      .cls-29 {
        fill: #d8d8d7;
      }

      .cls-30 {
        fill: #d1ddb3;
      }

      .cls-32 {
        fill: #64b9d7;
      }

      .cls-33 {
        fill: #6b5d52;
      }

      .cls-34 {
        fill: #a59289;
      }

      .cls-35 {
        fill: #847068;
      }

      .cls-36 {
        fill: #938078;
      }

      .cls-37 {
        fill: #77a741;
      }

      .cls-38 {
        fill: #706f6e;
      }

      .cls-39, .cls-41 {
        fill: #948374;
      }

      .cls-40 {
        fill: #ebebeb;
      }

      .cls-42 {
        fill: #a28f80;
      }

      .cls-43 {
        fill: #f4f5f5;
      }

      .cls-44 {
        fill: #aec836;
      }

      .cls-45 {
        fill: #a9c738;
      }

      .cls-46 {
        fill: #a99e8b;
      }

      .cls-47 {
        fill: #726658;
      }

      .cls-48 {
        fill: #a29279;
      }

      .cls-49 {
        fill: #c8bda9;
      }

      .cls-50 {
        fill: #579341;
      }

      .cls-51 {
        fill: url(#linear-gradient-6);
      }

      .cls-52 {
        fill: #1c3f1d;
        opacity: 0.61;
      }

      .cls-53 {
        fill: url(#linear-gradient-7);
      }

      .cls-54 {
        fill: #152c1a;
      }

      .cls-55 {
        fill: #122416;
      }

      .cls-56 {
        fill: #184226;
      }

      .cls-57 {
        opacity: 0.62;
      }

      .cls-58 {
        clip-path: url(#clip-path-4);
      }

      .cls-59 {
        opacity: 0.59;
      }

      .cls-60 {
        clip-path: url(#clip-path-5);
      }

      .cls-61 {
        fill: #2a7b44;
      }

      .cls-62 {
        fill: #0b1e14;
      }
    </style>
    <clipPath id="clip-path">
      <rect class="cls-1" x="1850" width="800" height="900"/>
    </clipPath>
    <clipPath id="clip-path-2">
      <rect class="cls-1" x="1550" y="3" width="1600.17" height="900"/>
    </clipPath>
    <linearGradient id="linear-gradient" x1="3155.45" y1="1477.27" x2="3155.92" y2="1477.31" gradientTransform="matrix(334.04, -1651.37, -1651.37, -334.04, 1387794.48, 5705171.26)" gradientUnits="userSpaceOnUse">
      <stop offset="0.2" stop-color="#f0f6fb"/>
      <stop offset="0.46" stop-color="#cde3f5"/>
      <stop offset="0.7" stop-color="#b3d5f0"/>
    </linearGradient>
    <linearGradient id="linear-gradient-2" x1="2173.2" y1="411.31" x2="2654.34" y2="1244.67" gradientUnits="userSpaceOnUse">
      <stop offset="0.01" stop-color="#26476f"/>
      <stop offset="0.02" stop-color="#2b4e71"/>
      <stop offset="0.1" stop-color="#426e79"/>
      <stop offset="0.18" stop-color="#54867f"/>
      <stop offset="0.26" stop-color="#609784"/>
      <stop offset="0.35" stop-color="#68a286"/>
      <stop offset="0.46" stop-color="#6aa587"/>
      <stop offset="1" stop-color="#427c83"/>
    </linearGradient>
    <linearGradient id="linear-gradient-3" x1="2108.94" y1="386.65" x2="2690.96" y2="1394.74" gradientUnits="userSpaceOnUse">
      <stop offset="0.02" stop-color="#6aa587"/>
      <stop offset="0.59" stop-color="#4c7d7d"/>
      <stop offset="0.7" stop-color="#49797c"/>
      <stop offset="0.82" stop-color="#406c79"/>
      <stop offset="0.93" stop-color="#315673"/>
      <stop offset="1" stop-color="#26476f"/>
    </linearGradient>
    <clipPath id="clip-path-3">
      <rect class="cls-1" width="1600" height="900"/>
    </clipPath>
    <linearGradient id="linear-gradient-4" x1="800.7" y1="-0.5" x2="800.7" y2="337.5" gradientUnits="userSpaceOnUse">
      <stop offset="0" stop-color="#89a4d5"/>
      <stop offset="0.17" stop-color="#9cb2dc"/>
      <stop offset="0.52" stop-color="#bccae7"/>
      <stop offset="0.8" stop-color="#d0d9ee"/>
      <stop offset="1" stop-color="#d7def0"/>
    </linearGradient>
    <linearGradient id="linear-gradient-5" x1="580.43" y1="-81.38" x2="1017.09" y2="674.92" xlink:href="#linear-gradient-2"/>
    <linearGradient id="linear-gradient-6" x1="187.17" y1="849.17" x2="1639.92" y2="849.17" gradientUnits="userSpaceOnUse">
      <stop offset="0" stop-color="#39a34b"/>
      <stop offset="0.34" stop-color="#265a2c"/>
      <stop offset="1" stop-color="#1d2815"/>
    </linearGradient>
    <linearGradient id="linear-gradient-7" x1="188.96" y1="676.71" x2="1682.11" y2="676.71" gradientTransform="translate(-43.87 173.89) rotate(-2.21)" gradientUnits="userSpaceOnUse">
      <stop offset="0.04" stop-color="#1d2815"/>
      <stop offset="0.35" stop-color="#26572a"/>
      <stop offset="0.64" stop-color="#2e7637"/>
      <stop offset="1" stop-color="#39a34b"/>
    </linearGradient>
    <clipPath id="clip-path-4">
      <polygon class="cls-1" points="11.76 873.64 45.17 860.41 -43.01 618.44 -76.42 631.66 11.76 873.64"/>
    </clipPath>
    <clipPath id="clip-path-5">
      <polygon class="cls-1" points="-3.58 855.72 20.26 846.29 -25.61 720.42 -49.44 729.86 -3.58 855.72"/>
    </clipPath>
  </defs>
  <g class="cls-2">
    <g id="Layer_1" data-name="Layer 1">
      <g id="SC_05">
        <g class="cls-3">
          <g class="cls-4">
            <path class="cls-5" d="M3194.49,798.41c.16-82.71,1.25-165.42,1.79-248.13.54-82.12-.63-164.27.89-246.38.74-40.07,2.28-80.14,5.37-120.1,3.91-50.64,10.92-100.89,19.26-151L3228-4,1550,3l0,925.19,1645.38-15.26C3195.94,874.78,3194.42,836.55,3194.49,798.41Z"/>
            <g>
              <path class="cls-6" d="M3196.28,550.28c.32-47.8,0-95.62.07-143.43-68.14-7.34-124.42-12.12-136.72-9.48-37.49,8-156.73,40.85-166.4,43.4-6.83,1.81-94.75-15.5-145.8-25.82a164.21,164.21,0,0,0-72.34,1.61L2192.8,536l-64.56-21.68a92.73,92.73,0,0,0-49.34-2.87L1964.48,536c-40.42-31-134.14-52.71-174.47-60.94-12.15-2.48-24.55-.28-35.81,6.21-306.13,176.45-511.43,105-511.43,105V772.7l1952-28.65C3195.11,679.46,3195.86,614.87,3196.28,550.28Z"/>
              <path class="cls-7" d="M3194.49,798.41c.1-51.22.56-102.44,1-153.67-271.34-98.18-603.15-78.41-945.08,26.41-404.61,124-716.34,109.15-716.34,109.15l4.72,69.46H3195C3194.75,832.64,3194.46,815.52,3194.49,798.41Z"/>
              <path class="cls-8" d="M3194.49,798.41q.09-45.51.48-91c-365.84-3.12-360,97.59-898.8,117.81-654,38.77-775.88-98.68-775.88-98.68V927.4H3195.13C3196.36,884.44,3194.41,841.38,3194.49,798.41Z"/>
            </g>
            <g>
              <path class="cls-9" d="M2936.49,424.54c-7.43-6.49-14.88-13-22.27-19.52-70.6,34.64-120.83,56.56-93,33.91,17.34-14.14,33.59-42.7,48.22-77.66-11.83-13.26-22.84-27.14-33.84-41.64A161.21,161.21,0,0,1,2821.49,298c-1.35-2.56-2.7-5.14-4-7.75C2752.83,428,2638,585.71,2445.8,611.66c-265.64,35.87-771,63.13-954.82,125.48.76,9.45,1.17,18.93,1.34,28.41.89,49.61-4.86,99.27-1.62,148.86q.43,6.65.77,13.31c3.85-.66,7.7-1.31,11.57-1.91,17.67-2.74,35.71-6.25,53.69-6.51,7-.1,14-.48,20.92-.81,20-1,40.17-1.87,60.12.09,8.31.81,16.64,1.71,24.93,2.86a195.39,195.39,0,0,1,12.66-16.88c61.18-70.17,819.87-172.07,882.49-199.75S2747.12,536.9,2800,518.29c19.7-6.93,81.59-40.82,151.5-80.63C2946.53,433.23,2941.48,428.89,2936.49,424.54Z"/>
              <path class="cls-10" d="M1557.61,919.28l4.36-.1c10.12-13.12,20.48-26.08,30.83-39q-14.64,19-27.89,38.9c4.25-.17,8.5-.38,12.74-.58l9.35-.43c13.24-21.82,28.61-34,54.58-56-7.95,12.45-14,26.25-19.84,40.21,10.83-19.44,15.66-30.31,20.71-40.94,13.32-11.31,29.4-25.21,49.36-44.27a406.17,406.17,0,0,0-71,41.47C1597,873,1575.91,894.2,1557.61,919.28ZM1663,837.12a104.85,104.85,0,0,0-19.49,22c2.2-4.59,4.52-9.25,7.47-14.64h0Z"/>
              <path class="cls-10" d="M1490.7,914.41c0,.06,0,.13,0,.2,18.17-18.77,38.26-37.45,51-49.47,42-39.57,42.94-67.24,101.39-78.57l-72.26,4.92a390.61,390.61,0,0,0-81,73.8C1489.55,881.67,1489.63,898,1490.7,914.41Z"/>
              <path class="cls-10" d="M1491.52,816.46c26.7-20.91,61.26-36.54,86.73-50.49,42.77-23.43,97.11-29.66,97.11-29.66-86.3-8.63-143.11,11.47-183,42.63C1492.35,791.44,1492,804,1491.52,816.46Z"/>
            </g>
            <path class="cls-11" d="M1678.59,694.69s-77,30-92.16-22.53c0,0,4.56-21.38,48.58-4.33,0,0-47.12-54.72,34.81-10.89,0,0-21.15-40.16,22.38-37.3,0,0,30.07-41.27,29.46,14.8,0,0,27.53-30,31.88,4.39,0,0,40.11,5.15,3.24,35.55S1678.59,694.69,1678.59,694.69Z"/>
          </g>
        </g>
      </g>
      <g class="cls-12">
        <rect class="cls-13" x="0.13" y="326.96" width="1600" height="560.46"/>
        <rect class="cls-14" y="-0.5" width="1601.4" height="338"/>
        <path class="cls-15" d="M792,166.28c-232.5,54.16-679-84-922.88-28.93l-2.23,55C40.89,83.56,489.42,236,792,166.28Z"/>
        <path class="cls-16" d="M925.71,129.76c230.11-63.52,681.88,56.48,923.29-8.47V66.24C1679.59,182,1225.24,47.88,925.71,129.76Z"/>
        <path class="cls-15" d="M880.71,75.66c230.11-63.53,681.88,56.47,923.29-8.47V12.13C1634.59,127.89,1180.24-6.23,880.71,75.66Z"/>
        <path class="cls-16" d="M637.57,122.12C403.4,168.52-38.3,15.57-283.84,62.55l-4.05,54.91C-110.42,14.49,332.81,181.71,637.57,122.12Z"/>
        <path class="cls-6" d="M-227,260.91s168,35.71,418.6-52.5a64.88,64.88,0,0,1,29.31-3.11c33,4.12,109.71,15,142.8,30.47l93.65-12.27a122.42,122.42,0,0,1,40.38,1.43l52.84,10.84,394.75-59.72a218.62,218.62,0,0,1,59.21-.8c41.79,5.16,113.74,13.81,119.34,12.91,7.91-1.28,105.51-17.69,136.19-21.7,28.92-3.78,354.74,23,354.74,23l9.51,148.07H-227Z"/>
        <path class="cls-17" d="M-10,259.5s90.79,44.18,626.1,23.59c538.13-13.1,412.48-89.83,985.65-52.4V337.36H-18.95Z"/>
        <path class="cls-18" d="M415.77,349.18c2.62,2.38-7.1-7,0,0Z"/>
        <path class="cls-18" d="M379,404.86c-1.34-.64-1-.35,0,0Z"/>
        <path class="cls-18" d="M379.32,405.08c-.18,0-.24,0-.31-.22C379.08,405,379.14,405.11,379.32,405.08Z"/>
        <path class="cls-18" d="M381.89,406.55c.36.11.27.13,0,0Z"/>
        <path class="cls-18" d="M405.51,441.69c.5,2.26-.56-2.25,0,0Z"/>
        <path class="cls-19" d="M799.71,390.84S488.8,396.27,353.85,410,27.71,456.87,49.53,459.67s25.6,12.47,25.6,12.47l-89.86,13.52L40.13,489,.4,494.63l23.33,1.94S-2.75,501,1,501.29s20.54,1.57,20.54,1.57S-128.87,517.74-103,521.45s216.93,15.78,202.74,17.88-1.89,5.51-1.89,5.51l-30.9,9.44H112s-21.13,4.62-19.87,5.06,24.42,1,24.42,1,33.28,34.32,93.51,50.32,134.31,33.58,106.88,37-92.53,9.44-75.75,11,37.92,7.08,32.24,7.34-9.77,1.05-.94,1.58,25.85,7.08,22.38,7.61,42.57,27.8,101.53,44.33,214.4,40.4,278.25,43.55,310.41,2.1,310.41,2.1l22.07,6.3-3.78-12.6,51.74,14.7-12.22-11.55,34.7,5.77-11.79-8.39s220.23-3.84,244.75-34.71,13.16-33,13.16-33l59.54-5.2L1329.11,681l22.35-4-22.35-2.51,18.65-5.77s270.62-100,288.19-142.34S1610.18,452,1525.28,444.1l17.31-9.68-31,3.73,32.64-14.48-71.33,11.38,87.35-27.86S1417,422,1389.3,422.83s-192.66-22.9-269-25.95S799.71,390.84,799.71,390.84Z"/>
        <path class="cls-20" d="M1269.4,450.8s-345.61-73.62-795.22-20.71c-167.67,19.73-263.07,89.46-74.68,160.58S509.23,655.49,484.59,666,446,707.81,643.87,735.55s581.95,1.06,510.62-49.32S1610.38,512.91,1269.4,450.8Z"/>
        <path class="cls-21" d="M1432,459S975.71,379.56,381,438.77c-221.21,22-346.2,82.26-97.22,151.55s145.36,66.27,112.8,76.51-48.75,35.28,212.76,62.32,766.51,3.36,672.24-45.72S1882.6,519.46,1432,459Z"/>
        <path class="cls-22" d="M1422.12,461s-448.91-70.5-1032.91-19.84C171.42,460,49,522,293.65,590.09s143.7,66.43,111.7,76.5-50,30.69,207,57.26,754.65,6,662-42.25S1865,520.45,1422.12,461Z"/>
        <path class="cls-22" d="M488.39,449.41c430.54-49.08,761.49,19.21,761.49,19.21,59.13,10.43,94.37,23.55,110,38.42-6.12-17.11-37.7-32.9-110-46.06,0,0-331-70.5-761.49-19.84-103.48,12.18-177.76,42.24-169.2,80.31C324.08,486.83,392.6,460.32,488.39,449.41Z"/>
        <path class="cls-23" d="M416.4,492.73c584-49.07,1032.92,19.21,1032.92,19.21,42,5.47,81.12,16,107.7,24.4,13-10,18.84-19.86,14.26-29.3-21.16-14.87-69-28-149.16-38.42,0,0-448.91-68.29-1032.91-19.21-129.94,10.91-222.88,37.42-229.52,72,2.92,9.6,13,19.7,31.35,30.15C218.36,525.23,306.91,501.93,416.4,492.73Z"/>
        <path class="cls-24" d="M417.51,464.35c584-50.66,1032.92,19.83,1032.92,19.83,59.51,8,98.66,16.95,122.12,26.59-3.68-18.56-45.33-35.68-150.43-49.79,0,0-448.91-70.5-1032.91-19.84-176,15.27-289.77,58.67-197.73,110.71C164,510.4,268.41,477.28,417.51,464.35Z"/>
        <path class="cls-25" d="M254.53,552.48c-31.91-37.29,323.7-64.09,445.75-62.37,0,0,338.72-8.45,610.27,12.08-270-23.91-632.67-14.85-632.67-14.85-119-1.69-465.82,24.46-434.7,60.82,7.69,9,30.66,19.61,59.82,30.89C279.32,569.39,261.24,560.32,254.53,552.48Z"/>
        <path class="cls-26" d="M1193.18,515.77c-35.28,0-44,10.09-57.76,16-.32.14-7.74,5.78-7.69,6.16,15.46.41,56.53-2.51,51.94,2s-19,6.67-26,13.68c-.84.84-1.53,3.5-.48,3.79a169,169,0,0,0,40.47,5.39c38.24,0,67.38-5.73,67.38-19.06S1228.46,515.77,1193.18,515.77Z"/>
        <g>
          <path class="cls-27" d="M1191.54,512.67c-35.29,0-63.89,10.81-63.89,24.14a8.74,8.74,0,0,0,.08,1.14c20.45-2.28,54.89-5.61,50.3-1.14s-17.34,9.77-24.34,16.78a1.75,1.75,0,0,0,.53,2.8,144.35,144.35,0,0,0,37.32,4.56c35.28,0,63.88-10.81,63.88-24.14S1226.82,512.67,1191.54,512.67Z"/>
          <path class="cls-28" d="M1185.26,514.29c-4.72,1.48-9.65,1.65-15.15,1.48a58.24,58.24,0,0,0-16.9,2.55c-3.39,1.21,8.41,2.31.9,4.54s-9.65,2.23-12.58,3.6-14.15,2.83.43,3.71,32.3.41,36.65.73,8.94-.56,7.15,2,1.5-.08-3.07,3.46-7.44,3.68-11.06,7.83c-3.31,3.79-6.81,4.67-4.45,6.85s16.44.49,16.44.49-.79,1.77,4.78-.65,6.58-1.93,20.8.48,13.43-2,15-2.58,7.86-.88,17.07-4,12.37-7.61,9.29-10.89-.07-4.84-6.28-8.22-13.15-5.33-16.65-6.37-10.79-2.83-16.08-4-7.29-1.93-13.65-1.93Z"/>
          <path class="cls-29" d="M1226.22,545.12a81.68,81.68,0,0,0-11.3-7.89,52.65,52.65,0,0,0-6.69-3.19,35.48,35.48,0,0,0-5.71-1.65,20.48,20.48,0,0,0-4.82-.44,3.09,3.09,0,0,1,.58-.53,5.23,5.23,0,0,1,1.4-.63c.58-.18,1.28-.33,2-.53a52.25,52.25,0,0,1,11.92-1.34c4.7,0,9,.41,12,.64s5,.33,5,.11-1.87-.69-4.94-1.23a70.8,70.8,0,0,0-12.14-1.12,38.69,38.69,0,0,0-12.12,1.84c-.76.28-1.43.49-2,.77a5,5,0,0,0-1.47,1,2.94,2.94,0,0,0-.56.78,11.87,11.87,0,0,0-1-3,22.43,22.43,0,0,0-4.41-6.28,17.42,17.42,0,0,0-5.92-3.91c-1.65-.61-2.72-.66-2.76-.46-.1.47,4,1.71,7.88,5.63,3.34,3.24,5.21,7.06,5.92,8q-.48-.33-1.53-1c-.62-.38-1.39-.81-2.31-1.26s-2-1-3.13-1.48-2.46-1.07-3.86-1.56-2.92-1-4.51-1.49a73.44,73.44,0,0,0-10.55-2.19,72.37,72.37,0,0,0-10.68-.49c-1.64.09-3.2.15-4.66.34s-2.81.35-4,.56-2.33.46-3.3.68a24.85,24.85,0,0,0-2.47.66c-1.35.41-2.08.69-2.06.8s3-.44,7.94-1c1.22-.14,2.56-.29,4-.36s3-.14,4.6-.19a85.81,85.81,0,0,1,10.53.6,87.47,87.47,0,0,1,10.42,2c1.58.45,3.09.84,4.48,1.33s2.69.91,3.87,1.35c3.83,1.46,6.42,2.68,7.29,2.95l0,0s0,0,0,.06c-.45.23-1.39.9-2.71,1.78-.91.62-2,1.35-3.18,2.25a21.35,21.35,0,0,0-3.65,3.44,15.2,15.2,0,0,0-2.64,4.77,17.37,17.37,0,0,0-.92,4.57c-.16,2.69.34,4.28.48,4.24s0-1.64.42-4.09a17.24,17.24,0,0,1,3.56-8.35,52.78,52.78,0,0,1,6.41-5.87,12.62,12.62,0,0,0,2.49-2.61c.68.23,2.44.54,4.9,1.23a50.7,50.7,0,0,1,5.51,2,67.69,67.69,0,0,1,6.53,3.23c4.54,2.59,8.49,5.39,11.36,7.4s4.66,3.25,4.76,3.06S1229,547.4,1226.22,545.12Z"/>
          <path class="cls-30" d="M1255.42,536.81c0-9-13.13-16.9-32.56-21a185,185,0,0,1,17.63,6.59c8.67,4.29,11.14,9.6,11.86,10.67s2.23,3.19,0,6.05c-2.08,2.66-2.15,3.55-5.72,4.8s-4.72,2.31-10.57,3.73-8.87,4.09-12.15,4.8-11.44,3.2-22,3.2-8.58,1.6-16.29,1.07-6-1.25-15.3-1.25-9.14-1.77-10.57-4.09a4.38,4.38,0,0,1-.63-2.22,42.45,42.45,0,0,0-5.42,4.47,1.75,1.75,0,0,0,.53,2.8,144.35,144.35,0,0,0,37.32,4.56C1226.82,561,1255.42,550.14,1255.42,536.81Z"/>
          <path class="cls-28" d="M1232,532.27a43.23,43.23,0,0,1-9.5-.56c-5.72-.89-4.54-1.49-11.15-1.78s-17.08-2.82-6.5.32,13.79,3.07,16.79,6,3,4.2,6.65,5.57,5.93,2.82,8.93,1.21,4.57-1.7,6.29-2.66,4.07.64,2.07-2.34-8.14-6.13-9.86-6.13A22.6,22.6,0,0,0,1232,532.27Z"/>
          <path class="cls-28" d="M1190.91,516.54c1.49.75,6.36,5.25,6.86,7.42s-2.38,4.52,2.56,3,4.58-3.15,8.65-2.91a68,68,0,0,1,11.94,1.62,55.76,55.76,0,0,0,9,1.29c3.07.32,4.63-2.34.78-4a121.41,121.41,0,0,0-14.43-4.94c-5.28-1.52-3.07-1.76-9.93-2.65S1183.76,513,1190.91,516.54Z"/>
        </g>
        <path class="cls-26" d="M654.8,555.06s-101.54,3.88-98.56,13.88c2.79,9.36,14.18,27.32,92.38,29.16,0,0-6.43,9.75,13,17.57,18.16,7.32,65.06,18.35,121.62,1.45,41.67-12.46-13.13-40.35-13.13-40.35S811,552.15,777.53,548,654.8,555.06,654.8,555.06Z"/>
        <path class="cls-31" d="M569.38,633.92c-120.41,0-218-30.21-218-67.46,0-21.19,31.57-40.09,80.95-52.46C368.62,525.78,326,547.32,326,571.94c0,37.26,97.61,67.46,218,67.46,51.94,0,99.62-5.62,137.07-15C648.4,630.44,610.2,633.92,569.38,633.92Z"/>
        <path class="cls-32" d="M900.66,504.86A531.47,531.47,0,0,0,824.41,510c17.06-1.68,35.8-2.61,55.48-2.61,78.77,0,142.62,14.89,142.62,33.25,0,11.83-26.48,22.21-66.38,28.11,51.21-5,87.15-16.87,87.15-30.65C1043.28,519.75,979.43,504.86,900.66,504.86Z"/>
        <path class="cls-32" d="M822.4,510a531.47,531.47,0,0,0-76.25,5.15c17.06-1.68,35.8-2.61,55.48-2.61,78.77,0,142.62,14.89,142.62,33.25,0,11.83-26.49,22.21-66.38,28.11C929.08,568.89,965,557.07,965,543.3,965,524.93,901.17,510,822.4,510Z"/>
        <path class="cls-31" d="M539.7,627.78c-94-7-168.25-36.94-165.93-66.77,1.34-17.27,28.09-30.74,68.61-37.64-47.41,5.88-79.55,19.84-81,38.35-2.25,29.07,72.08,58.36,166,65.41q9.14.68,18.05,1C543.56,628.06,541.64,627.93,539.7,627.78Z"/>
        <g>
          <path class="cls-33" d="M433.14,565.92l74.43-104.18s113.64,5.52,170.46-6.12,158.79,27.9,158.79,27.9l61.22,52L892.83,559,751.91,627.18s-223.47-7.07-254.5-18.3S433.14,565.92,433.14,565.92Z"/>
          <path class="cls-34" d="M709.37,523.75l127.45-40.23S734.84,444,678,455.62s-170.46,6.12-170.46,6.12L537.46,511Z"/>
          <path class="cls-35" d="M507.34,611.31c53.06,9.81,244.57,15.87,244.57,15.87L709.37,523.75,537.46,511Z"/>
          <polygon class="cls-36" points="892.83 559.02 898.04 535.51 836.83 483.52 709.37 523.75 751.91 627.18 892.83 559.02"/>
        </g>
        <path class="cls-37" d="M726.72,460.82c0,.53-1.14.95-2.55.95s-2.54-.42-2.54-.95,1.14-.94,2.54-.94S726.72,460.3,726.72,460.82Z"/>
        <polygon class="cls-38" points="507.57 461.74 538.8 506.41 709.37 523.75 537.46 510.95 507.57 461.74"/>
        <g>
          <path class="cls-39" d="M897.85,591.82l-17.21-32.27c-.47-2.58-19-6.23-19-6.23l-10.9-6.4s-146,2.08-149.28,6.2-85.91,73.78-84,78.94,21.24,23.74,21.24,23.74L752.94,677c10.39,0,38.24-7.74,48.62-6.71s70.8-1,70.8-1l46.26-30.44C918.62,637.22,903.58,604.32,897.85,591.82Z"/>
          <path class="cls-40" d="M801.56,670.24c10.39,1,70.8-1,70.8-1l44.52-29.29h0s-44.45,19-46.44,18.09-17.52-57.51-17.52-58.86-3.18,10.33-6,14.38S638.72,655.8,638.72,655.8L752.94,677C763.33,677,791.18,669.21,801.56,670.24Z"/>
          <path class="cls-41" d="M850.83,547.93s.06,57.88-4.66,64.47-131.13,29-131.13,29l129.13-30.54Z"/>
          <path class="cls-42" d="M845,549.05c-6.62.36-134.56,2-140.53,7.19S652.68,594.88,665.22,594s38.62-11.23,30.85-2.47-24.08,13.93-5.57,15,52,.23,45,3.37S828,607,834,604.32,849.56,548.8,845,549.05Z"/>
          <path class="cls-43" d="M897.85,591.82l-17.21-32.27c-.08-.43-.71-.9-1.65-1.38a23.2,23.2,0,0,0,1.3,4.58s25.28,53.58,19.71,61-26.08,17-21.3,16.4,28.66,0,18.61,2.69-20.16,5.74-6.57,4c9-1.12,19.68-4.61,26-6.87l1.9-1.25C918.62,637.22,903.58,604.32,897.85,591.82Z"/>
          <path class="cls-28" d="M859.89,553.82s19.62,3.54,18.1,5.9S858,601,861.38,597.46s9.11,52.07,6.57,42.13-14-41.53-14-41.53Z"/>
        </g>
        <path class="cls-25" d="M1248.7,522.49c13.44,4.89,21.46,11,21.46,17.7,0,15.85-45.25,28.72-101.4,29,1.92,0,3.85.05,5.79.05,55.34,0,100.19-12.51,100.19-27.94C1274.74,534,1264.88,527.45,1248.7,522.49Z"/>
        <path class="cls-25" d="M1117.55,536.81c0-14.66,36.38-26.54,81.26-26.54a236.52,236.52,0,0,1,27.06,1.51,219.35,219.35,0,0,0-35.26-2.73c-44,0-79.73,11.88-79.73,26.54,0,11,20,20.36,48.43,24.41C1134.41,555.47,1117.55,546.78,1117.55,536.81Z"/>
        <path class="cls-24" d="M453.3,650.73c-4,9.12-32.55,11.29-47.8,15.51-25.24,7-38.25,22.1,50.68,36.93Z"/>
        <path class="cls-44" d="M648.57,735.94c.44.45-1.88,10.08-31.14,15.26,0,0,23.85-2.33,29.26-5.18,0,0-9.15,11.8-18.59,14.66,0,0,34.13-8.87,35.54-15,0,0,7.33,12-7,20.76,0,0,29.67-13.84,27.81-20.61,0,0,1.24,11.28,11.84,14.89,0,0-3.4-12.41,2.17-14.66l28.31,16.16-9.36-16s8.91,4.21,24,5c0,0-19-4.93-19.37-15.23Z"/>
        <path class="cls-44" d="M1125.29,731.66c.16.3-3.21,8.38-7.59,12.48l8-4-1,14.89,9-14.76,17.67,16.31-9.47-17.47,19.49,11.94s-13.63-14.85-14-19.42Z"/>
        <path class="cls-45" d="M706.43,379.59s-2.09-18.37-9.53-23.09c0,0,8.37,2.36,9.53,6.3l-6.28-27.55,10.46,28.07s0-12.33,5.12-16.53c0,0-3,20.2,0,32.8Z"/>
        <g>
          <path class="cls-46" d="M1246.55,706.86s-10,3.47-12.92,9.2c-2.5,4.85-3.19,5.06-5.46,6.54-2.45,1.6-5.92,4.36-5.92,4.36l2.41,10s8.2,2.4,12.86,3.51,13.29,2.24,14.42,1.12S1262,731,1262,731s6.79-7.82,6.79-8.78-3.82-9.41-3.82-9.41Z"/>
          <path class="cls-47" d="M1261.55,727.84s-9.8,8.64-10.93,9.76-9.75,0-14.42-1.12c-4.07-1-10.83-2.92-12.49-3.4l1,3.93s8.2,2.4,12.86,3.51,13.29,2.24,14.42,1.12S1262,731,1262,731s6.79-7.82,6.79-8.78a6.11,6.11,0,0,0-.37-1.26C1266.32,723.34,1261.55,727.84,1261.55,727.84Z"/>
          <path class="cls-48" d="M1233.63,716.06c-2.49,4.85-3.19,5.06-5.46,6.54-2.45,1.6-5.92,4.36-5.92,4.36l1.46,6.12h0s13.41-7.93,14.31-8.6,8.53-17.62,8.53-17.62S1236.58,710.33,1233.63,716.06Z"/>
          <path class="cls-49" d="M1238,724.48l30.38-3.57h0c-1-2.62-3.45-8.15-3.45-8.15l-18.4-5.9Z"/>
        </g>
        <path class="cls-50" d="M1207.49,733c-.11-1.51-15.93-54.8-15.93-54.8s18.23,26.64,21.3,44.83c0,0,4-26.85,7.11-33.35,0,0,3.38,27,1.91,41.37S1208.07,741.05,1207.49,733Z"/>
        <path class="cls-51" d="M1629.21,921.83c-1-16.23,10.71-163.83,10.71-163.83S412.7,885.15,196.69,866.79l-9.52,73.55Z"/>
        <path class="cls-52" d="M-48.79,708.33s604.06,56.12,849.37,150.61L-23,897.29Z"/>
        <path class="cls-53" d="M173.6,910.3s810.32-125.93,955.85-125.46c0,0,151.77-56.74,508.85-65.81l26,100c-370.31.71-717.1,17.13-1015,66.23Z"/>
        <g>
          <path class="cls-54" d="M78,821.27c-25.9,20.83-51.38,41.91-73.23,68.3C-20.18,841,33,759,60.65,724c18.17-23,39.65-42.31,64-55.56a161.65,161.65,0,0,1,37.58-15c6.49-1.64,33.05-.12,37.18-4.61-25.07,27.23-37.3,62.53-54.73,95.93-17.22,33-39.56,54.77-66.63,76.53"/>
          <path class="cls-55" d="M195.27,652C119.73,675.3,83.63,784.89,35.9,847.5,26.7,859.56,16.56,870,9.78,884c-12-20.57-2.27-54.13,5.7-75.78a342,342,0,0,1,42.24-80.3c33.63-47,83.11-87.77,137.55-75.91"/>
          <path class="cls-54" d="M44.53,865.41C29.15,871.52,17.4,882.85,5,891.78c-4.4-43,54.89-78.39,77.79-104.51,31.94-36.43,67-57,111.61-51.2,18.52,2.43,36.49,4.12,54.88,6-35.68,27.73-73.51,50.65-108.2,79.39-31.36,26-61.08,29.88-96.53,44"/>
          <path class="cls-54" d="M21.05,848c-9,12.67-15.89,20.93-20.52,36.4-41.31-85,6.34-205,68.53-260.78C82.72,611.32,97,600.7,113.5,594.77c-4.87,84.05-46,187.65-92.45,253.18"/>
          <path class="cls-55" d="M69.05,623.57c13.65-12.24,26.59-23,43.83-25.83C66.46,664.39,57.3,750.55,19.55,823.11c-8,15.37-16,30.69-23.36,46.38-37.28-76.76,18.21-196.9,72.86-245.92"/>
          <path class="cls-54" d="M10.6,888a10.43,10.43,0,0,0,3.57-1.17c9.08-4.79,21.32-81.63,24.72-94.83,17.7-68.65,28.75-144.45,3-211.25-14-36.34-17.48-46-13-84.72C15.43,511.6,7.36,529.22,3.61,550.41-2.73,586.19.81,624.51-5,660.68c-11.62,72.1-40.32,122.15-9.23,190.15C-9.15,862-2,889.55,10.6,888"/>
          <path class="cls-55" d="M8.78,863.24c35.45-99.38,17.88-204.57,12.48-306.3-1.1-20.81-2.81-44.8,6.67-63.63C19,512.54,7.13,530.5,3.61,550.41c-6,33.7-2.79,68.12-7.26,101.93-3.86,29.22-16.49,54.22-22.43,83-7.52,36.38,6.75,57.31,19.87,89.36,5.24,12.81,9.27,26,15,38.56"/>
          <path class="cls-54" d="M-13.1,862.19c8,12.33,16.91,22.47,24.79,22.46,21.51,0,10.66-70.08,11.07-91.23,1.88-98-55.27-209.6-149.37-194.89C-93.09,630.09-74,677.11-63.53,725.12c7.4,33.81,14.69,67.81,29.53,98.26,3.84,7.87,11.77,24.76,20.9,38.81"/>
          <path class="cls-55" d="M17,888.05C28,832.61,14.51,784.84-2.69,734.74c-16.46-48-62.38-116.59-108.21-128.32a386.92,386.92,0,0,1,47.37,118.7C-55,764-41.18,826.33-13.65,862.75-4.9,874.33,5.24,883.29,17,888.05"/>
          <path class="cls-56" d="M21.13,883.79c-.25-.12.7-3.59,3.63-9.28a102.7,102.7,0,0,1,15.58-21.75c7.54-8.33,17.52-17.1,29.05-26s24.5-18.1,37.28-29c13-10.69,25.63-20.64,38-28.4a183.79,183.79,0,0,1,18-10.06c5.8-2.84,11.39-5,16.42-7,10.08-4.06,18.65-6.56,24.72-7.34s9.47-.38,9.47-.09-3.32.6-9.12,2-14,4.26-23.83,8.7c-5,2.21-10.36,4.54-16,7.49a196.08,196.08,0,0,0-17.46,10.26c-12,7.82-24.42,17.75-37.37,28.42-12.88,10.93-26.11,20-37.63,28.73s-21.58,17-29.25,24.83A122.53,122.53,0,0,0,26.3,875.54c-3.33,5.25-4.84,8.42-5.17,8.25"/>
          <path class="cls-56" d="M26.65,847.76c-.32-.16.91-3.51,2.73-9.68s4.09-15.22,6.48-26.57c1.22-5.66,2.5-11.9,4-18.58s3.34-13.71,5-21.19c3.43-14.93,6.93-31.46,11-48.74s8.48-33.62,13.37-48.17a261.33,261.33,0,0,1,15.57-37.48,151.32,151.32,0,0,1,14.39-22.91c3.88-5,6.4-7.43,6.62-7.23.6.52-8.38,11.27-18.11,31.82a299.28,299.28,0,0,0-14.43,37.38c-4.62,14.45-8.85,30.69-12.92,47.9S52.74,758,49.06,772.94c-1.8,7.46-3.77,14.55-5.45,21.09L39,812.42a222,222,0,0,1-8,26.35c-2.37,6-4.17,9.13-4.43,9"/>
          <path class="cls-56" d="M84,697.54c.29.19-2,4.66-5.33,12s-7.75,17.7-12.48,29.2S57,760.62,53.42,767.89,47.21,779.43,47,779.27s1.81-4.72,5-12.18,7.41-17.84,12.15-29.35,9.37-21.79,13.15-29,6.53-11.38,6.79-11.21"/>
          <path class="cls-56" d="M23.87,813.11c-.34-.06,0-3.86.34-10.72s.49-16.8.52-29.15c0-24.84,3-58.77,3.32-96.34.07-9.39-.07-18.55-.45-27.38-.12-2.23-.2-4.44-.25-6.61s-.2-4.29-.33-6.4c-.28-4.23-.64-8.37-1.05-12.41C24.3,607.94,22.2,593.35,21.12,581a206.14,206.14,0,0,1-.93-29.33c.36-6.92,1.13-10.67,1.41-10.63s.19,3.84.39,10.69.84,16.74,2.39,28.94,3.91,26.68,5.83,43c.47,4.08.9,8.28,1.22,12.58q.24,3.24.4,6.54c.07,2.19.17,4.38.31,6.59.44,8.93.61,18.19.55,27.65-.3,37.87-3.85,71.82-4.68,96.36-.45,12.33-1.08,22.36-2,29.22s-1.84,10.56-2.13,10.5"/>
          <g class="cls-57">
            <g class="cls-58">
              <path class="cls-56" d="M23.19,869.11c-.34-.07,0-3.81.43-10.55a148.35,148.35,0,0,0-.78-28.43q-.59-4.46-1.53-9.29c-.63-3.15-1.52-6.51-2.36-10-1.73-6.92-3.69-14.27-5.91-22A407.24,407.24,0,0,0-4.23,740,243.6,243.6,0,0,0-16.1,716.2c-4.42-7.49-8.38-14.92-12.21-21.88-7.63-14-14.8-26.29-21.62-36s-13.23-16.75-18.26-20.82-8.34-5.45-8.21-5.83,3.7.49,9.23,4.27,12.58,10.61,19.82,20.28,14.84,21.94,22.7,35.83c3.95,6.94,8,14.25,12.39,21.65A230,230,0,0,1,0,738a369.79,369.79,0,0,1,17.17,49.67c2.13,7.8,4,15.25,5.54,22.26.77,3.51,1.57,6.85,2.15,10.23s1,6.54,1.27,9.61a123.8,123.8,0,0,1-.67,29c-1,6.74-1.93,10.36-2.23,10.31"/>
            </g>
          </g>
          <g class="cls-59">
            <g class="cls-60">
              <path class="cls-61" d="M19.92,846.42c-.36.15-2.86-7.17-9.07-17.78A214.67,214.67,0,0,0-1,810.68c-4.74-6.56-10.23-13.58-15.91-21s-11-14.71-15.36-21.65a127.43,127.43,0,0,1-10.2-19.32c-4.78-11.62-5.42-19.51-5.2-19.51.41-.1,1.61,7.59,6.68,18.8a141.07,141.07,0,0,0,10.48,18.77c4.41,6.79,9.71,13.93,15.38,21.38S-4,802.64.66,809.32a183.87,183.87,0,0,1,11.59,18.44c5.93,11,7.92,18.6,7.67,18.66"/>
            </g>
          </g>
        </g>
        <g>
          <path class="cls-54" d="M1553,896.7c34.23,17.77,68,36,98.91,61.41,17.62-64.26-61.52-147.36-100.88-181.47-25.9-22.43-54.75-39.57-85.49-48.78a178.26,178.26,0,0,0-46.26-7.73c-7.77-.21-37.75,8.71-43.47,4.49,34.71,25.59,56.59,64.18,84,99.13,27.06,34.55,57.44,54.38,93.22,73"/>
          <path class="cls-55" d="M1381.15,727.25c91.47,7.47,157.24,127.8,225.77,189.29,13.19,11.84,27.1,21.46,38,36.25,9-27.61-9.54-64.82-23.49-88.37a396,396,0,0,0-66.22-83.95c-48.92-46.71-114.54-81.86-174-53.22"/>
          <path class="cls-54" d="M1601.07,940.09c18.93,3.13,34.88,13.43,51.07,20.7-4.61-52.15-80.23-78.3-112.23-103.15-44.63-34.67-89.3-49.72-138.9-30.86-20.59,7.84-40.73,14.66-61.3,21.79,47,23.34,95.26,40.4,141.3,65.21,41.63,22.42,76.43,19.09,120.06,26.31"/>
          <path class="cls-54" d="M1624,913.09c13.08,12.63,22.83,20.58,31.59,37.69,28.1-111.91-53.19-241.5-136.68-291-18.34-10.88-37-19.65-57.18-22.26,24.38,98.39,94.61,210.26,162.27,275.56"/>
          <path class="cls-55" d="M1518.88,659.79c-18.32-10.86-35.51-20.19-55.82-18.91,67.93,66.63,97.7,166.39,157,242.35,12.57,16.09,25.14,32.13,37.06,48.77,25.36-101-64.91-228.7-138.29-272.21"/>
          <path class="cls-54" d="M1644.87,957.85a11.46,11.46,0,0,1-4.33-.43c-11.44-3.25-42.63-91.12-49.47-105.86-35.6-76.7-65.19-163.65-50.78-249.79,7.85-46.86,9.64-59.25-4.08-104,18.79,14.83,32,33.57,41,57.71,15.25,40.74,19.8,87.14,34.56,128.49,29.42,82.41,73.41,134.1,53.14,223.08-3.32,14.58-5.31,49.21-20,50.79"/>
          <path class="cls-55" d="M1641.4,927.94c-62.75-108.39-66.26-237.86-82.89-360-3.41-25-6.83-53.89-21.88-73.7,14.46,20.44,32.09,38.55,40.57,61.23,14.36,38.37,18.45,80,31.13,119,11,33.63,31,59.9,44.2,92.43,16.73,41.14,5.13,69.79-2.66,111.31-3.11,16.6-4.75,33.37-8.47,49.75"/>
          <path class="cls-56" d="M1631.9,955.63c.27-.21-1.6-4.07-6.22-10A117.29,117.29,0,0,0,1603,924c-10.48-7.86-23.85-15.6-39-23.12s-32-14.91-49-24.35c-17.2-9.21-33.89-17.63-49.73-23.52a204.18,204.18,0,0,0-22.83-7.11c-7.26-1.82-14.13-2.93-20.31-3.94-12.42-2.12-22.76-2.8-29.87-2.09s-10.9,2.08-10.84,2.43,3.93-.18,10.86-.09,16.9,1.31,29.15,3.94c6.16,1.29,12.85,2.62,19.91,4.61a219.65,219.65,0,0,1,22.23,7.49c15.45,6.07,31.85,14.53,49,23.72,17.16,9.51,34.29,16.76,49.39,24s28.45,14.39,39,21.62a137.57,137.57,0,0,1,23.22,19.67c5,5.33,7.41,8.69,7.75,8.4"/>
          <path class="cls-56" d="M1617.53,914.37c.33-.28-1.83-3.92-5.29-10.75s-8.07-17-13.35-29.78c-2.66-6.4-5.52-13.45-8.76-21s-6.89-15.36-10.49-23.79c-7.27-16.78-15-35.46-23.51-54.85s-17.21-37.62-26.06-53.57a306.07,306.07,0,0,0-26.17-40.29A174.16,174.16,0,0,0,1482.34,657c-5.56-4.92-9-7.1-9.17-6.8-.58.78,12.08,11.13,27.79,32.9a351.42,351.42,0,0,1,24.86,40.47c8.5,15.92,17,34,25.47,53.36s16.34,37.92,23.89,54.65c3.73,8.37,7.56,16.25,10.94,23.55l9.34,20.6c5.74,12.63,10.92,22.61,15,29.12s6.8,9.72,7.07,9.48"/>
          <path class="cls-56" d="M1518.36,751.54c-.29.31,3.3,5,8.78,12.85s12.81,18.93,20.8,31.3,15.38,23.44,21.13,31.1,9.67,12,9.93,11.77-3.12-5.12-8.42-13.1-12.46-19.19-20.45-31.57-15.57-23.35-21.51-30.87-10-11.75-10.26-11.48"/>
          <path class="cls-56" d="M1612.94,872.53c.38-.17-.89-4.58-2.79-12.63s-4.33-19.8-7.13-34.44c-5.57-29.46-16.63-68.9-25.38-113.39-2.18-11.12-4.08-22-5.62-32.6q-.55-4-1.19-7.91c-.39-2.57-.74-5.14-1.06-7.68-.64-5.08-1.15-10.09-1.59-15-1.71-19.62-2.58-37.49-4.12-52.42a257.33,257.33,0,0,0-5.51-35c-2-8.11-3.68-12.35-4-12.23s.64,4.61,2,12.79,2.79,20.08,3.76,35,1.51,32.7,3,52.56c.38,5,.84,10.06,1.43,15.25q.45,3.9,1,7.86t1.13,7.9c1.49,10.71,3.37,21.74,5.57,33,8.82,44.83,20.48,84.15,26.93,113,3.28,14.5,6.25,26.23,8.84,34.12s4.47,12,4.79,11.89"/>
        </g>
        <path class="cls-62" d="M318.89,942.09c50.92-6,107.5-16.69,122.87-23-30.07-2.67-86.77,1.84-134,7.41l10.87-2.62c27.14-4.91,49.21-9.84,51.72-12.3,32.79-7.7,59.7-13.76,63.82-14.08-17.45-.32-62.94,5.34-105.9,13.81-4.43.28-8.9.59-13.37.93,59.37-18.46,125.44-39.76,131.9-45.15-12-.56-60.72,11-111.15,25,27.12-11.67,52.48-23.48,65.12-30.53-12.23,2.21-26.81,5.36-42.18,9.16,13.72-7.82,27.4-15.67,40.55-23.08-3.2-2.26-15.85.87-33.1,7.08,24.07-15.89,41.11-29.24,40.47-34-23.8,11.77-49.5,24.17-74,36.33,16.61-10.71,32.37-21.6,44.92-30.57-10.1,3-25.63,9.07-42.93,16.43,30.63-26.28,55.95-49.88,60.43-57.88-6.51,1.81-39.62,26.33-76.09,54.34,5.69-6,11.19-11.87,16.35-17.59,13.72-9.93,25.26-18.26,33-23.61q-10,4-19.37,8.07c9.37-11.05,16.56-20.39,20.11-26.26-2,2.56-16,15.72-34.57,32.77q-15.82,7.35-30,14.93c8.5-13,16.24-25.9,22.33-37.53q6.69-4.9,13.65-9.77c-3.89,1.8-7.7,3.64-11.46,5.48a153.18,153.18,0,0,0,7.95-18.38c-5.31,4.58-14.76,14.7-26,27.72Q292.85,805,277.29,815a88.5,88.5,0,0,0,.31-12.61s-1.69,1.83-4.48,4.94c1.74-5.69,3.38-11.4,4.92-17.09,12.34-19.81,23.43-38.65,31.88-54.51-8.13,6.39-16.19,13.34-24.12,20.69,1.5-8.09,2.69-16,3.5-23.63-6.57,11.74-13.77,25.73-21.12,40.83-13.49,13.83-26.41,28.56-38.4,43.41A657,657,0,0,0,231,748.2c1.54-13.52,2-24.19,1.19-30-.89,1.45-1.77,3-2.66,4.61q-.67-8.34-1.6-16.59c-.87,8.23-1.8,16.6-2.75,25C211.47,759.55,197.8,803.55,188,841.66c.26-3.56.54-7.16.81-10.79,4.28-26.3,6.47-48,4.11-51.27,2.75-32.45,5.34-59,6.58-62.82-7.52,15.57-18.2,58.66-24,100.57-1.41,4.1-2.8,8.24-4.15,12.39-1.22-60.51-3.64-128.14-8.41-136-5.64,10.61-9.5,58.87-10.76,109.63-5-28.9-10.92-56.25-15.45-70.33-1.93,11.84-3.53,26.18-4.55,41.46-5.16-15.34-10.37-30.68-15.2-45.36-4.11,1.88-5.11,13-4,29.08-.17.56-.33,1.12-.49,1.68C100.72,733,89.67,713.35,83.08,712.14c6.49,26,13.06,53.83,19.79,80.59-8-19.06-16.49-37.43-23.7-52.18.06,7.58,1.15,18.45,3,31-.5,2.79-1,5.56-1.38,8.3-22.24-35.18-42.6-64.25-51.29-71-.15,6.55,20,45.77,43.64,89.36C49.22,768,24.62,740.74,12,730.32c2.12,2.15,10.12,13.41,21.07,29.32a285.81,285.81,0,0,0,7.86,38.27C19.62,779.82-1.21,764-18.18,754.41c8,12.67,38.14,47.3,71.36,81.16.67,1.76,1.34,3.51,2,5.26-6.06-3.36-12.33-6.48-18.8-9.3C11,808.29-14.36,788.1-25.23,782.65-19,793.9-7.31,808.92,6.59,824.86c-16.33-8.55-32.95-16.66-49.4-24-.83-.72-1.42-1.26-1.73-1.6.27.39.56.8.87,1.22-14-6.23-27.9-11.9-41.37-16.77,22,17.08,51.53,37.95,82.73,59,8.1,7.3,16.79,14.8,25.63,22,2.51,2.9,5.09,5.8,7.69,8.7-49.51-31-105.44-65.17-114.44-66.77,5.11,8.06,38.06,32.77,75.51,58.39-3.15-1-6.34-2-9.54-3-19.88-9.19-37.89-16.94-48.8-20.84,3.67,3.13,7.76,6.47,12.16,10-30-8.47-61.27-16.17-92.26-22.37,22.28,8.07,45.26,16.52,68.14,25,3.59,3.76,11.47,8.94,22,14.87-29.08-8.15-51.91-12.81-56.64-9.88,24.54,10.14,50.69,21.24,76,31.68-19.8-5.76-39.36-10.83-55.26-14.72,8.33,5.33,22.57,12.81,39.12,20.81-43.5-7.17-81.46-12.1-92.27-10.95,5.2,3.51,48.05,13.32,96.32,23.57-37.66-3.14-73.28-4.31-88.7-3,6.9,0,73,9.15,129.75,17.34-46.15,1.1-97.39,4.38-127,11.33,16,2.6,68.06,4.87,118.1,4.49-18,3.74-35.58,9.39-51.14,17.72,0,0,2.77.2,7.53.48-31.19,8.1-61.82,17.67-87.93,28.23,45.88-4.86,114.32-16.07,171.18-26.87,2.82-.12,5.6-.26,8.31-.44-51.89,18.7-119.08,48.86-177.16,83.52,105.6-42.7,233-90.73,257.57-100,.7.69,1.38,1.33,2,1.9,1.34-1.65,6.45-7.32,7.83-8.95h0c1.1-1.25,2.28-2.58,2.89-3.3a28.66,28.66,0,0,0-3.44-.78c-.19-.45-.41-.94-.64-1.49,15.43,6,26.83,10.44,32.86,12.8-.27,1-.49,2-.64,3,2.82-.27,12.89-.86,15.72-1.1h0c2.2-.14,4.55-.29,5.81-.4a20.68,20.68,0,0,0-1.63-3.14c1-1.37,2.32-3.13,3.94-5.25,2.18-2.52,4.53-5.35,7-8.45,5.22-2.93,11.34-6.64,18.11-11-1.12,8-2,14-2.48,17.52-1.11.13-2.15.28-3.1.45,1.05,1.75,4.42,8.09,5.44,9.86h0c.75,1.38,1.55,2.86,2,3.64a23.16,23.16,0,0,0,2.65-2c1.63.25,3.73.59,6.27,1,3.09.67,6.54,1.37,10.29,2.09,36.5,21.3,145.37,67.07,177.91,82.16a482.22,482.22,0,0,0-118.09-68.77c36.45,9.72,81.68,24.3,127.92,45.53a417.59,417.59,0,0,0-78.34-43c40.84,4.84,82.93,8.83,114.05,10.29C409,959.91,362.35,949.09,318.89,942.09Zm-36.61-82-.47.43.13-.18Zm11.31-44.27c-7.94,9.76-16.15,20.2-24,30.64a133.58,133.58,0,0,0,4.59-14.21Q283.49,824.1,293.59,815.8ZM60.82,800.53c5.6,8.33,11.34,16.89,17,25.38q.08,2.65.21,5.25l-2.58-2.41C70.66,819.24,65.74,809.74,60.82,800.53Z"/>
      </g>
    </g>
  </g>
</svg>
