<svg xmlns="http://www.w3.org/2000/svg" xmlns:xlink="http://www.w3.org/1999/xlink" width="1600" height="900" viewBox="0 0 1600 900">
  <defs>
    <style>
      .cls-1, .cls-30, .cls-79, .cls-81, .cls-91 {
        fill: none;
      }

      .cls-2 {
        fill: #ce7c3e;
      }

      .cls-3 {
        fill: #f29a57;
      }

      .cls-4 {
        isolation: isolate;
      }

      .cls-5 {
        clip-path: url(#clip-path);
      }

      .cls-6 {
        clip-path: url(#clip-path-2);
      }

      .cls-7 {
        fill: #74c38a;
      }

      .cls-8 {
        fill: #80e559;
      }

      .cls-9 {
        fill: #73dd47;
      }

      .cls-10, .cls-55, .cls-59 {
        mix-blend-mode: multiply;
      }

      .cls-10 {
        opacity: 0.31;
      }

      .cls-11, .cls-59 {
        fill: #5f8337;
      }

      .cls-12 {
        fill: #1c8e16;
      }

      .cls-13 {
        fill: #5e2106;
      }

      .cls-14 {
        fill: #e68851;
      }

      .cls-15 {
        fill: #843812;
      }

      .cls-16 {
        fill: #301102;
      }

      .cls-17 {
        clip-path: url(#clip-path-3);
      }

      .cls-18 {
        fill: #a06137;
      }

      .cls-19 {
        clip-path: url(#clip-path-4);
      }

      .cls-20 {
        fill: #36bf36;
      }

      .cls-21 {
        fill: #33a033;
      }

      .cls-22 {
        fill: #2c932c;
      }

      .cls-23 {
        clip-path: url(#clip-path-5);
      }

      .cls-24 {
        fill: #618d2c;
      }

      .cls-25 {
        fill: #8dc43f;
      }

      .cls-26 {
        fill: #aece37;
      }

      .cls-27 {
        clip-path: url(#clip-path-6);
      }

      .cls-28 {
        fill: url(#linear-gradient);
      }

      .cls-29 {
        fill: #932216;
        opacity: 0.29;
      }

      .cls-30, .cls-81 {
        stroke: #f4f2f2;
      }

      .cls-30, .cls-39, .cls-79, .cls-81, .cls-91 {
        stroke-miterlimit: 10;
      }

      .cls-30, .cls-39, .cls-79, .cls-81 {
        stroke-width: 0.5px;
      }

      .cls-31, .cls-67 {
        fill: #161b23;
      }

      .cls-31, .cls-33, .cls-54 {
        opacity: 0.3;
      }

      .cls-32 {
        fill: #964c27;
      }

      .cls-34 {
        fill: #62d739;
      }

      .cls-35 {
        fill: url(#linear-gradient-2);
      }

      .cls-36 {
        fill: url(#linear-gradient-3);
      }

      .cls-37 {
        fill: url(#linear-gradient-4);
      }

      .cls-38 {
        fill: url(#linear-gradient-5);
      }

      .cls-39 {
        fill: url(#linear-gradient-6);
        stroke: url(#linear-gradient-7);
      }

      .cls-40 {
        fill: url(#linear-gradient-8);
      }

      .cls-41 {
        fill: #c28a73;
        opacity: 0.56;
      }

      .cls-42 {
        fill: #ce856b;
      }

      .cls-43 {
        fill: #3beaa2;
      }

      .cls-44 {
        fill: url(#linear-gradient-9);
      }

      .cls-45 {
        fill: url(#linear-gradient-10);
      }

      .cls-46 {
        fill: url(#linear-gradient-11);
      }

      .cls-47 {
        fill: url(#linear-gradient-12);
      }

      .cls-48 {
        fill: url(#linear-gradient-13);
      }

      .cls-49 {
        fill: url(#linear-gradient-14);
      }

      .cls-50 {
        fill: url(#linear-gradient-15);
      }

      .cls-51 {
        fill: url(#linear-gradient-16);
      }

      .cls-52 {
        fill: url(#linear-gradient-17);
      }

      .cls-53 {
        mix-blend-mode: screen;
        fill: url(#linear-gradient-18);
      }

      .cls-53, .cls-59 {
        opacity: 0.5;
      }

      .cls-55 {
        fill: #84e75a;
      }

      .cls-56 {
        opacity: 0.43;
      }

      .cls-57 {
        fill: #c9a983;
      }

      .cls-58 {
        fill: #a5896a;
      }

      .cls-60 {
        fill: url(#linear-gradient-19);
      }

      .cls-61 {
        fill: #683521;
      }

      .cls-62 {
        fill: #934d2e;
      }

      .cls-63 {
        clip-path: url(#clip-path-7);
      }

      .cls-64 {
        fill: #bf7643;
      }

      .cls-65 {
        fill: #3d2819;
      }

      .cls-66 {
        clip-path: url(#clip-path-8);
      }

      .cls-68 {
        fill: #ef6343;
      }

      .cls-69 {
        fill: #7f502f;
      }

      .cls-70, .cls-80, .cls-90 {
        fill: #633e25;
      }

      .cls-71 {
        fill: #b7663d;
      }

      .cls-72 {
        fill: #40210e;
        opacity: 0.18;
      }

      .cls-73 {
        fill: #773a1f;
      }

      .cls-74 {
        fill: #442b1a;
      }

      .cls-75 {
        fill: #e29149;
      }

      .cls-76 {
        fill: #96592f;
      }

      .cls-77 {
        fill: #f79959;
      }

      .cls-78 {
        fill: #f3a256;
      }

      .cls-79, .cls-91 {
        stroke: #000;
      }

      .cls-79, .cls-80 {
        opacity: 0.83;
      }

      .cls-81 {
        opacity: 0.51;
      }

      .cls-82 {
        fill: #024e20;
      }

      .cls-83 {
        fill: #0c4c0d;
      }

      .cls-84 {
        fill: #3d8723;
      }

      .cls-85 {
        fill: #2bb51c;
      }

      .cls-86 {
        fill: #ad2727;
      }

      .cls-87 {
        fill: #d8372b;
      }

      .cls-88 {
        fill: #e53c38;
      }

      .cls-89 {
        fill: #c92f2b;
      }

      .cls-90 {
        opacity: 0.19;
      }

      .cls-91 {
        stroke-width: 0.25px;
      }

      .cls-92 {
        fill: #308c1f;
      }

      .cls-93 {
        fill: url(#linear-gradient-20);
      }
    </style>
    <clipPath id="clip-path">
      <rect class="cls-1" x="-1050" width="800" height="900"/>
    </clipPath>
    <clipPath id="clip-path-2">
      <rect class="cls-1" x="-1631.9" width="1600" height="900"/>
    </clipPath>
    <clipPath id="clip-path-3">
      <path class="cls-2" d="M-253.09,412.15l-232.61,1.91-46.11,253.67,242.58-18.51Q-271.15,530.69-253.09,412.15Z"/>
    </clipPath>
    <clipPath id="clip-path-4">
      <rect class="cls-1" x="1850" width="800" height="900"/>
    </clipPath>
    <clipPath id="clip-path-5">
      <rect class="cls-1" y="1150" width="800" height="900"/>
    </clipPath>
    <clipPath id="clip-path-6">
      <rect class="cls-1" width="1600" height="900"/>
    </clipPath>
    <linearGradient id="linear-gradient" x1="1484.38" y1="655.19" x2="1517.15" y2="539.95" gradientUnits="userSpaceOnUse">
      <stop offset="0.3" stop-color="#37971a"/>
      <stop offset="0.37" stop-color="#3b9d1b"/>
      <stop offset="0.47" stop-color="#47af1f"/>
      <stop offset="0.58" stop-color="#5acc24"/>
      <stop offset="0.66" stop-color="#6be629"/>
    </linearGradient>
    <linearGradient id="linear-gradient-2" x1="780.73" y1="-326.23" x2="827.13" y2="900.88" gradientUnits="userSpaceOnUse">
      <stop offset="0.21" stop-color="#a2d9d8"/>
      <stop offset="0.22" stop-color="#9ad7d7"/>
      <stop offset="0.24" stop-color="#86d1d4"/>
      <stop offset="0.26" stop-color="#7acdd3"/>
      <stop offset="0.27" stop-color="#76ccd2"/>
      <stop offset="0.32" stop-color="#7acdd2"/>
      <stop offset="0.36" stop-color="#86d1d2"/>
      <stop offset="0.4" stop-color="#9ad6d2"/>
      <stop offset="0.43" stop-color="#addcd2"/>
      <stop offset="0.49" stop-color="#c5e6df"/>
      <stop offset="0.59" stop-color="#eff8f6"/>
      <stop offset="0.64" stop-color="#fff"/>
      <stop offset="1" stop-color="#c8e5d2"/>
    </linearGradient>
    <linearGradient id="linear-gradient-3" x1="641.15" y1="1033.78" x2="869.94" y2="-97.24" gradientUnits="userSpaceOnUse">
      <stop offset="0.2" stop-color="#c5f7fd"/>
      <stop offset="0.34" stop-color="#b3f0fd"/>
      <stop offset="0.66" stop-color="#8ee1fd"/>
      <stop offset="0.83" stop-color="#80dbfd"/>
    </linearGradient>
    <linearGradient id="linear-gradient-4" x1="778.21" y1="126.53" x2="870.68" y2="33.99" gradientUnits="userSpaceOnUse">
      <stop offset="0.11" stop-color="#85ddfd"/>
      <stop offset="0.82" stop-color="#d7eef4"/>
    </linearGradient>
    <linearGradient id="linear-gradient-5" x1="1436.16" y1="285.84" x2="1527.85" y2="194.08" gradientUnits="userSpaceOnUse">
      <stop offset="0.17" stop-color="#83dcfd"/>
      <stop offset="0.9" stop-color="#d7eef4"/>
    </linearGradient>
    <linearGradient id="linear-gradient-6" x1="-23.25" y1="567.99" x2="1058.1" y2="567.99" gradientUnits="userSpaceOnUse">
      <stop offset="0.01" stop-color="#30b34a"/>
      <stop offset="0.14" stop-color="#34b44a"/>
      <stop offset="0.27" stop-color="#40b549"/>
      <stop offset="0.4" stop-color="#55b847"/>
      <stop offset="0.43" stop-color="#5ab947"/>
      <stop offset="1" stop-color="#67bc45"/>
    </linearGradient>
    <linearGradient id="linear-gradient-7" x1="120.03" y1="835.43" x2="866.83" y2="323.97" gradientUnits="userSpaceOnUse">
      <stop offset="0" stop-color="#76ccd2"/>
      <stop offset="0" stop-color="#6fc4c0"/>
      <stop offset="0" stop-color="#5db193"/>
      <stop offset="0" stop-color="#40914a"/>
      <stop offset="0" stop-color="#3d8e42"/>
      <stop offset="0" stop-color="#348740"/>
      <stop offset="0" stop-color="#20793c"/>
      <stop offset="0" stop-color="#147039"/>
      <stop offset="0" stop-color="#106d38"/>
      <stop offset="0.01" stop-color="#106d3e"/>
      <stop offset="0.02" stop-color="#0f6d49"/>
      <stop offset="0.05" stop-color="#0e6d50"/>
      <stop offset="0.12" stop-color="#0e6d52"/>
      <stop offset="0.32" stop-color="#106e52"/>
      <stop offset="0.39" stop-color="#177250"/>
      <stop offset="0.45" stop-color="#23794d"/>
      <stop offset="0.49" stop-color="#348249"/>
      <stop offset="0.52" stop-color="#4a8f44"/>
      <stop offset="0.56" stop-color="#659e3e"/>
      <stop offset="0.59" stop-color="#85b036"/>
      <stop offset="0.61" stop-color="#aac52d"/>
      <stop offset="0.63" stop-color="#d3dc24"/>
      <stop offset="0.64" stop-color="#d6de23"/>
      <stop offset="0.81" stop-color="#d6de23"/>
      <stop offset="0.84" stop-color="#d6de23"/>
      <stop offset="0.86" stop-color="#d7df27"/>
      <stop offset="0.88" stop-color="#d9e134"/>
      <stop offset="0.9" stop-color="#dde44a"/>
      <stop offset="0.93" stop-color="#e3e869"/>
      <stop offset="0.95" stop-color="#eaee90"/>
      <stop offset="0.97" stop-color="#f3f5c0"/>
      <stop offset="1" stop-color="#fefef7"/>
      <stop offset="1" stop-color="#fff"/>
    </linearGradient>
    <linearGradient id="linear-gradient-8" x1="532.51" y1="615.96" x2="528.06" y2="387.84" gradientTransform="translate(127.04)" gradientUnits="userSpaceOnUse">
      <stop offset="0" stop-color="#907d61"/>
      <stop offset="0.36" stop-color="#6d6b4d"/>
      <stop offset="0.58" stop-color="#5e6345"/>
    </linearGradient>
    <linearGradient id="linear-gradient-9" x1="607.47" y1="436.22" x2="477.3" y2="127.81" gradientTransform="translate(127.04)" gradientUnits="userSpaceOnUse">
      <stop offset="0.26" stop-color="#55b093"/>
      <stop offset="0.39" stop-color="#61c489"/>
      <stop offset="0.56" stop-color="#6ddb7d"/>
      <stop offset="0.68" stop-color="#72e379"/>
    </linearGradient>
    <linearGradient id="linear-gradient-10" x1="833.9" y1="506.5" x2="686.08" y2="361.73" gradientTransform="translate(127.04)" gradientUnits="userSpaceOnUse">
      <stop offset="0.23" stop-color="#2fac76"/>
      <stop offset="0.54" stop-color="#31ad79"/>
      <stop offset="0.74" stop-color="#36b281"/>
      <stop offset="0.88" stop-color="#3db98e"/>
    </linearGradient>
    <linearGradient id="linear-gradient-11" x1="431.35" y1="440.07" x2="391.39" y2="296.5" xlink:href="#linear-gradient-9"/>
    <linearGradient id="linear-gradient-12" x1="597.62" y1="479.94" x2="536.44" y2="269.39" gradientTransform="translate(127.04)" gradientUnits="userSpaceOnUse">
      <stop offset="0.07" stop-color="#39a57e"/>
      <stop offset="0.67" stop-color="#72e379"/>
    </linearGradient>
    <linearGradient id="linear-gradient-13" x1="1218.42" y1="630.96" x2="1213.96" y2="402.84" xlink:href="#linear-gradient-8"/>
    <linearGradient id="linear-gradient-14" x1="1293.37" y1="451.22" x2="1163.2" y2="142.81" xlink:href="#linear-gradient-9"/>
    <linearGradient id="linear-gradient-15" x1="1519.81" y1="521.5" x2="1371.98" y2="376.73" xlink:href="#linear-gradient-10"/>
    <linearGradient id="linear-gradient-16" x1="1117.26" y1="455.07" x2="1077.29" y2="311.5" xlink:href="#linear-gradient-9"/>
    <linearGradient id="linear-gradient-17" x1="1283.52" y1="494.94" x2="1222.34" y2="284.39" xlink:href="#linear-gradient-12"/>
    <linearGradient id="linear-gradient-18" x1="382.75" y1="592.4" x2="382.75" y2="561.02" gradientUnits="userSpaceOnUse">
      <stop offset="0" stop-color="#09170a"/>
      <stop offset="0.58" stop-color="#2d550c"/>
      <stop offset="1" stop-color="#16623e"/>
    </linearGradient>
    <linearGradient id="linear-gradient-19" x1="568.36" y1="644.87" x2="609.01" y2="501.89" xlink:href="#linear-gradient"/>
    <clipPath id="clip-path-7">
      <path class="cls-3" d="M789.73,401.15Q807.79,517.6,825.65,632.8l277.66,32.68q21.24-120.36,42.8-242.47L947.9,217.65Z"/>
    </clipPath>
    <clipPath id="clip-path-8">
      <path class="cls-2" d="M1378.81,412.15l-232.61,1.91-46.11,253.67,242.58-18.51Q1360.75,530.69,1378.81,412.15Z"/>
    </clipPath>
    <linearGradient id="linear-gradient-20" x1="351.6" y1="212.96" x2="522.07" y2="42.37" gradientUnits="userSpaceOnUse">
      <stop offset="0.2" stop-color="#96e4fd"/>
      <stop offset="0.61" stop-color="#d7f6ff"/>
    </linearGradient>
  </defs>
  <g class="cls-4">
    <g id="Layer_1" data-name="Layer 1">
      <g id="SC_25">
        <g class="cls-5">
          <g class="cls-6">
            <g>
              <path class="cls-7" d="M-1663.27,518.06c-.91-18.26,1.38-42.76,20.08-56.5,34.91-25.63,90.82,12.85,181.77,29.56,168.68,31,231-54.62,392.66-17.39,29,6.67,58.59,16.7,102.43,13,56.31-4.7,72.45-26.68,134.57-31.29,25.16-1.87,58.51-4.34,94.4,8.69,61.8,22.45,68.06,69.3,125.09,78.4,25.21,4,44.76-2.59,59.24-3.64,74.34-5.4,501.3-42.52,525.05-39.29,0,0,17.16,2.33,34.53,3.39h.19c.08,0-15.57,148.35-15.57,148.35H-1596Z"/>
              <polygon class="cls-8" points="-1629.48 607.88 5.35 573.29 5.35 892.39 -1629.48 892.39 -1629.48 607.88"/>
              <path class="cls-9" d="M-275.22,589.52c-54.8,6.32-111.16,16.53-166.43,18.18-72.43,2.13-144.1,9.57-216.67,11.3-74.41,1.79-146.39,1.38-220.7-2.44-64.34-3.32-128.8-.32-193.12-3.57-65.93-3.34-130.81-14.79-196.75-17.79-47.59-2.15-93.72-5.3-141-9.8-39-3.71-76.33-13.33-115-17-36.79-3.5-75.16-9.53-112.26-10.13V895H28.38V541.91c-46.53,6.34-93,14.64-138.15,24.69C-163.24,578.52-220.22,583.2-275.22,589.52Z"/>
              <g class="cls-10">
                <path class="cls-11" d="M-19.58,687.36c-15.26,3.43-32,6.93-45,12.53-3,1.29-7.86,3.36-7.42,5.67.76,4.08,10.88,7.12,16.6,9.13,12.08,4.25,33.78,10.42,27.93,19.85-3,4.84-12.27,7-21,8.16-13.33,1.77-27.14,3.06-40.65,4.38-70.56,6.82-142.45,7.4-214,7.4H-414.35c-16.24,0-32.59.26-48.82,0-13.85-.22-27.91-.93-40.58-4.11-.78-.19-.7-.84,0-1,39.52-11.4,87.52-12.39,131.55-13.22,14.5-.26,29-.44,43.48-.8,16.43-.41,32.77-1.38,49.14-2.16,18.44-.9,36.87-1.72,55.33-2.59,16.92-.83,33.89-2,50.88-2.48,13-.36,27.41-.38,39.26-3.54A42.82,42.82,0,0,0-125,721.2c3.07-1.69,2.19-2.5-1.92-3.16a89.85,89.85,0,0,0-17.86-.79c-12.73.51-25.2,2-37.87,2.72-18.56,1-37.17,1.5-55.8,1.5-37.32,0-74.58-1.35-111.86-1.46-33.8-.13-67.57.28-101.33.89-19.1,1-38.1,2.44-56.75,4.76-17.68,2.21-35,5.22-52.61,7.51-16.91,2.19-34,4.08-51.33,5.22-34.34,2.3-69.69,1.91-104.2.85-26.24-.8-52.43-2.34-78.13-5.16-74.24-2.28-148.63-6.34-222.72-2.42,29.26,5.36,60.52,7.22,91.29,8.37,29.2,1.12,58.62,2.1,87.89,2.53,28.74.42,57.54-.15,86.26.92,26,1,52.82,3,75.75,9.87.82.25.68.78,0,1.06a96.84,96.84,0,0,1-18.93,4.79c2.24,0,4.48,0,6.72-.05,16.93-.26,31,13.07,33.22,29.33a34.86,34.86,0,0,1-4,21.56c-3.55,6.73-12.61,14.12-20.21,15.54s-15.06,2.17-22.62,3c-1.09.2-2.19.42-3.28.67a35.21,35.21,0,0,1-25.71-3.54q-9.78-.59-19.56-1.42c-23.87-2-47.74-4.93-71.63-7.61-6.41,8.3-16.66,13.8-27.17,13.78-19.9,0-39.72-1.4-59.51-3.16q-22.05-1.17-44.1-2.39a39.2,39.2,0,0,1-13.22-3c-12.84-1.12-25.7-2-38.59-2.52a35.9,35.9,0,0,1-18.88-6.07c-6.26-.89-12.48-2-18.65-3.46-13.38-3.17-25.83-9-38.37-14.55-9.2-4-18.39-8.13-27.63-12.09-8.54-3.53-17.16-6.86-25.88-9.86-4.86,2.39-10.37,3.84-14.92,3.47a446.57,446.57,0,0,1-53.41-8.05,474.12,474.12,0,0,0-53.18.27c-22.63,1.26-45.47,3-68,5.76-22.2,3.44-43.87,10-65.94,14.15-26.42,5-57.09,9.64-83-.38-10.19-4-17.57-9.3-21.91-19.58-3.31-7.84-4-17.15-.81-25.2-.46-.89-.89-1.8-1.29-2.72a75.91,75.91,0,0,1-13-2.46c-16.75-4.81-29.58-16.47-45.36-23.15l2.14.9a36.62,36.62,0,0,1-15.84-13.65c-3.58-5.55-4.72-12.47-4.28-19-21.29,1.79-42.64,3.44-64.12,4.48V892.39H28.38V677.46C12.29,680.6-3.79,683.81-19.58,687.36Z"/>
              </g>
              <path class="cls-12" d="M88.12,509.21s-19.71,4.22-9.52,20.66c-55-18.13-87-1.69-84.28,20.23-56.42-3.8-72.05,35.4-50.3,44.25,0,0-46.9-17.28-90.4,6.74C-189.89,580-293.21,610.37-319.71,626l402.54.84Z"/>
              <g>
                <polygon class="cls-13" points="-263.41 571.61 79.45 586.34 78.41 596.45 -263.41 584.03 -263.41 571.61"/>
                <polygon class="cls-14" points="-17.49 549.6 4.71 550.09 1.33 642.75 -18.92 646.64 -17.49 549.6"/>
                <path class="cls-14" d="M28.12,550.25l21.68-3.47L47.91,648.33l-21.22-.64Z"/>
                <path class="cls-14" d="M66.46,550s7.57-9.16,19.62-1.42c0,0,5.13,64.48,4.64,97.59l-19.65,3.29S64.88,565.39,66.46,550Z"/>
                <polygon class="cls-15" points="-15.48 547.97 4.21 551.46 0.46 642.06 3.42 641.5 6.82 548.47 -15.48 547.97"/>
                <polygon class="cls-15" points="27.82 550.53 49.1 547.13 47.91 648.33 50.92 647.09 51.81 543.07 27.82 550.53"/>
                <path class="cls-15" d="M68.38,547.2s11.27-4.1,17.58,1.92c0,0,4.54,90.87,4.12,98l3-2.48s-.53-49-1.66-65.16C90.52,566.08,88,545.88,88,545.88S77.9,537.57,68.38,547.2Z"/>
                <ellipse class="cls-16" cx="36.08" cy="581.53" rx="4.16" ry="3.2" transform="translate(-545.58 615.51) rotate(-89.79)"/>
                <ellipse class="cls-16" cx="76.25" cy="582.77" rx="4.16" ry="3.2" transform="translate(-506.8 656.91) rotate(-89.79)"/>
              </g>
              <g>
                <path class="cls-2" d="M-253.09,412.15l-232.61,1.91-46.11,253.67,242.58-18.51Q-271.15,530.69-253.09,412.15Z"/>
                <g class="cls-17">
                  <g>
                    <polygon class="cls-18" points="169.39 -0.63 169.33 2.59 -651.09 -70.87 -651.27 -74.74 169.39 -0.63"/>
                    <polygon class="cls-18" points="168.71 33.85 168.64 37.05 -649.13 -29.38 -649.31 -33.23 168.71 33.85"/>
                    <polygon class="cls-18" points="168.02 68.14 167.96 71.32 -647.18 11.82 -647.36 8 168.02 68.14"/>
                    <polygon class="cls-18" points="167.34 102.23 167.28 105.39 -645.24 52.74 -645.42 48.95 167.34 102.23"/>
                    <polygon class="cls-18" points="166.67 136.13 166.6 139.28 -643.32 93.39 -643.49 89.63 166.67 136.13"/>
                    <polygon class="cls-18" points="166 169.84 165.93 172.97 -641.41 133.77 -641.58 130.03 166 169.84"/>
                    <polygon class="cls-18" points="165.33 203.36 165.27 206.47 -639.51 173.88 -639.68 170.16 165.33 203.36"/>
                    <polygon class="cls-18" points="164.66 236.7 164.6 239.79 -637.63 213.72 -637.8 210.03 164.66 236.7"/>
                    <polygon class="cls-18" points="164 269.85 163.94 272.92 -635.75 253.3 -635.92 249.63 164 269.85"/>
                    <polygon class="cls-18" points="163.35 302.81 163.29 305.87 -633.89 292.62 -634.06 288.97 163.35 302.81"/>
                    <polygon class="cls-18" points="162.69 335.59 162.63 338.63 -632.04 331.67 -632.21 328.05 162.69 335.59"/>
                    <polygon class="cls-18" points="162.04 368.19 161.98 371.22 -630.21 370.47 -630.38 366.88 162.04 368.19"/>
                    <polygon class="cls-18" points="161.4 400.62 161.34 403.62 -628.38 409.02 -628.55 405.44 161.4 400.62"/>
                    <polygon class="cls-18" points="160.76 432.86 160.7 435.85 -626.57 447.31 -626.74 443.76 160.76 432.86"/>
                    <polygon class="cls-18" points="160.12 464.93 160.06 467.9 -624.77 485.36 -624.94 481.83 160.12 464.93"/>
                    <polygon class="cls-18" points="159.48 496.82 159.42 499.78 -622.98 523.16 -623.15 519.66 159.48 496.82"/>
                    <polygon class="cls-18" points="158.85 528.54 158.79 531.48 -621.21 560.72 -621.37 557.23 158.85 528.54"/>
                    <polygon class="cls-18" points="158.22 560.09 158.16 563.01 -619.44 598.03 -619.6 594.57 158.22 560.09"/>
                    <polygon class="cls-18" points="157.6 591.46 157.54 594.37 -617.69 635.11 -617.85 631.67 157.6 591.46"/>
                  </g>
                </g>
              </g>
            </g>
          </g>
        </g>
      </g>
      <g id="SC_05">
        <g class="cls-19">
          <g>
            <rect class="cls-20" x="1450.01" y="-4.64" width="1600" height="900"/>
            <g>
              <path class="cls-21" d="M1569,188.36c50.16,182.29,32,306.45,4.71,387.46-16.18,47.93-36.18,91-18,136.36C1580.84,774.92,1664.45,802,1797,823.36c242.19,39,319.78,6,640,7.68,184.69,1,305.49,12.73,345-56.68,22.64-39.83,6.09-84.54,52-169,20.87-38.4,48.65-74,58.85-87,55.09-70.55,67.35-62.94,77.49-90.86,31.48-86.68-16.33-187.75-100.63-215.85-12.43-4.15-22.49-22.38-42.81-36.81-84.41-60-165-53.16-165.9-64.44-.92-11.64,83.79-33,388-74q1,432.5,2,865H1451l-3-726,144-49Q1580.51,157.37,1569,188.36Z"/>
              <path class="cls-22" d="M1613.86,58.63S1452,77.76,1475,240.56c-8,77.6-25,77.68-25,77.68V-4.64h223l-30.42,63.49Z"/>
              <path class="cls-21" d="M1592.45,297.89s-38.14-250.46,232.71-204.5,353.29-7.06,394.07-28.54,277.61-60.4,408.69,27.55,321.6-20,321.6-20l89.91,108.33L3051,1.36H1451V345.43Z"/>
            </g>
          </g>
        </g>
      </g>
      <g id="SC_32">
        <g id="SC_05-2" data-name="SC_05">
          <g class="cls-23">
            <g>
              <path class="cls-24" d="M1194.57,1032.53c-3-1.11-5.79-2.1-8.59-3,5.43-8.22,2.61-13.77-4.37-17.44,4.48-9.68-9.81-21.89-25.49-30,3.08-1,6.16-2.07,9.4-3.24,5.85-2.1,5.23-9.44,0-11.69-3.13-1.36-6-2.51-8.84-3.48,7.37-7.49,5.64-16.88-4.68-21.57a54.27,54.27,0,0,0,9.08-10c3.12-4.41-.75-10.69-7.52-10.44-3.39.11-6.58.18-9.71.24,3.33-5.63,5-11.66,5.06-19.3,0-4.43-5.69-8.13-11.13-6.75a62.35,62.35,0,0,0-19.39,8.1,76.92,76.92,0,0,0-4.08-18.56c-1.74-4.67-8-6.35-13.26-4.29-13.66,5.37-20.3,14.59-22.61,25.18a9.77,9.77,0,0,0-2.77-2.33,49.76,49.76,0,0,0-15.93-5.78,35.23,35.23,0,0,0,9.09-18.53c.76-4.69-6.54-8.53-11.77-7.12-2,.5-3.83,1-5.65,1.55a38.35,38.35,0,0,0-3.51-24c-2.43-4.84-8.34-7.13-14.41-4.67-12.41,5-18.62,13.39-19.74,22.6a59.64,59.64,0,0,0-23.31-4.67c2-5.34,2.76-10.68,1.09-15.51-2.79-8.09-9.39-9.18-16.66-7.33a94.65,94.65,0,0,0,6.86-20.12c1.1-5.31-6-12.12-13-8-3.57,2.11-7,4.2-10.25,6.29-.36-8.47-1.27-16.81-5.32-25-2.68-5.39-9.5-6.69-15.13-3.18a38.18,38.18,0,0,0-13.48,13.68c-1-1.53-1.88-3.06-3-4.57-2.48-3.35-8.11-4.64-12.38-2.59-11.49,5.55-15.35,13.57-16,22.48-9.93-10.47-21.59-16.57-31.32-5-10.66,12.67-.16,32.12,15,46.44a89.53,89.53,0,0,0-16.72,4.08,22.67,22.67,0,0,0-2.77-8.07c-6.93-12.21-22.64-10.14-36.55-5,5.35-13.92,11.28-27.58,9.86-42.57-.6-6.53-9.32-9.31-15.54-5.13A39.11,39.11,0,0,0,808,810.4a43.75,43.75,0,0,0-10.38-15.64c-3.08-3-10.39-3-13.49,0-7.35,7-11.15,14.58-12.71,22.49-9.88-10.12-21.52-16.88-31.15-6.79-10.83,11.39-7.47,24.3,1.74,36a65.09,65.09,0,0,0-12,2.84,47.91,47.91,0,0,0,2.79-18.54c-.39-6.43-9.58-9.47-15.57-5.13a65.64,65.64,0,0,0-10.16,9.15,54.67,54.67,0,0,0-6.46-19.81c-2.54-4.48-9.93-4.05-13.88-1.43-10.56,7-13.91,16.29-13.19,25.89A40,40,0,0,0,656,837.23c8-8.17,14.75-16.85,17-27.55,1.06-5-3.92-10.61-11-8.81a63.94,63.94,0,0,0-21.63,9.72,73.33,73.33,0,0,0-2-15.4c-1.36-5.39-10.34-6.6-14.85-3.12a56.53,56.53,0,0,0-8.59,8.18c-3-7.7-7.68-14.65-17.35-19.66a9.76,9.76,0,0,0-11.47,2.4,41.15,41.15,0,0,0-9.52,27.32,7.63,7.63,0,0,0-2.83.86c-1.55.88-3,1.78-4.33,2.72-.31-12.19-2.2-24.18-9.42-35.37-3-4.64-10.64-3.65-13.93,0A39,39,0,0,0,537,795c-7.46-7.26-16.29-11.59-24.46-4.33-7.43,6.59-5.49,16.77-.45,26.64-7.43-1.21-14.2.94-18,9.63-4.76,10.91,1,19.13,10.54,24.58a77.51,77.51,0,0,0-25.84,10.37c-4.07,2.62-3.67,8.46,0,11.14a56.8,56.8,0,0,0,12.87,7c-13.08,1.86-25.24,7.5-32.21,15.59a37.58,37.58,0,0,0-6.13-8.83c-3.81-4-9.28-4.59-14.24-1.47a31.15,31.15,0,0,0-7.28,6.42,47.36,47.36,0,0,0-4.83-4.9c-3.47-3.09-9.27-2.5-12.85,0a31.18,31.18,0,0,0-5.64,4.87,88.1,88.1,0,0,0-16.25-15.41c-4-2.87-11.06-2.76-13.81,1.41-8,12.2-4.75,25.41,4,36.31-10.35-8.06-25.62-13.18-37.91-17.59-7.07-2.53-15.39,1.56-13.32,8.14a41.24,41.24,0,0,0,11.63,17.84,57.33,57.33,0,0,0-25.25,5.44c-5.18,2.51-7.13,9.22-2,12.61a63.09,63.09,0,0,0,28.12,10.07,59.35,59.35,0,0,0-15.3,18.85c-2.6,5,3.78,9.91,9.66,10.11a90.32,90.32,0,0,0,24.25-2.67c-.33,1.09-.61,2.2-.88,3.35-1.17,4.88,2.64,9.62,9.23,9.67a65.9,65.9,0,0,0,22.89-4.09c-8.34,13.64-6.53,28.17,6.05,29.58-4.6,9.89-4.53,20.13,6.84,28.62s24.61,4.64,36.26-2c-3,14.43-2.84,29.21,13.47,36.84,17.6,8.21,32.52-11.91,42.53-28.73,9.19,13.34,25.73,18.23,39.83,8.08a24.68,24.68,0,0,0,16.68,11c-4.36,10.43,3.26,19.06,17.65,20.63-7.49,8.37-10.27,17.56,1.89,25.12,12.69,7.86,32.17-.62,48.17-9.7,5.5,9,30.91,5,50.21-2.63,7.34,20.92,25.39,35.41,41.43,19.25,15.84,14.33,40.92,16.72,43.75-2.63,14.92,2,27.57-1.86,34.64-12.29.08,9.64,3,19.16,9.25,28.92,3.33,5.17,12.1,4.21,15.73,0,7.82-9.1,12.39-18.74,15.73-28.74,5.52,8.9,14.07,15.26,26.81,12.26,12.57-2.93,18.14-10,20.17-18.46,10,8.44,23,14.69,38.21,18.61,5.75,1.48,12.05-2.47,11.9-7.21a48.74,48.74,0,0,0-1.64-10.87,42.29,42.29,0,0,0,24.84-1.9c5.39-2.18,8.67-4.76,10.45-7.51,7.25,1.14,14.58,0,20.81-5,7.62-6.08,8.83-13.1,6.82-20.19a62,62,0,0,0,18.59,2.24c-3.33,8-3.37,16.11,4.28,22.68,5.15,4.39,11.25,4.22,17.36,1.88-.54,7.63,2.18,14.21,12.18,16.39,13.74,3,23.77-6.22,30.69-16.92,4.46,5.18,11.16,8.72,20.78,8.77,14.43,0,17.26-9.55,16.1-19.86a104.83,104.83,0,0,0,29.31,10.17c6.05,1.16,12.46-2.28,12.37-7.47a44.52,44.52,0,0,0-3-15.28,65.89,65.89,0,0,0,14.93-2c4.44-1.08,8.53-5.35,6.56-9.21a74.49,74.49,0,0,0-5.66-9.3,81.54,81.54,0,0,0,25.87-3.16C1199,1043.78,1202.36,1035.41,1194.57,1032.53Z"/>
              <g>
                <path class="cls-25" d="M908.14,867.29c-17-10.8-37.37-4.8-54.84,1.43,12.15-16.69-17.07-10.15-26.46-6.83,2.73-21.61-23.32-8.09-34.38-.27.78-5.32,24.46-52.63-.36-49.66-20.21,2.44-1.16,49.23-9.23,57.68-.76-6.18,1.3-27-9.33-28.94-19.42-3.53-17.69,23.17-15,30.61-4.48-4.75-51.85-24.83-52.46-11.65-9.12-8.15-65.68-25.12-62.78-.59,1.65,13.73,61.18,15.48,64.27,4.63a48.62,48.62,0,0,0,9.65,10.72c-19.2-4-40.28,2.58-55.34,11.89C632.05,904.74,678,902,692.05,901.07c-7.18,3.76-71.89,12.63-53.32,33,6.17,6.75,21.75,0,28.81,4.05,9.09,5.27,32.13-8.64,39.5-12.33-19.53,43.64,26.9,15.78,44.65-.44,3.3,7.94,12.17,19.27,24.84,14.23,1.7,11.2-3.62,21.66.13,33.3,1.4,4.37,16.77,30,25.62,15.88,16.16-25.65-19.06-46-11.74-64.77,4.87,4.3,52.91,34.33,51.52,13.65,5.85,5,18.61,23,30,19.12,16.33-5.56,5.22-27.54-1.86-34.56,18.79-3.51,20.25-18.93,12.07-30.64,6.8-1.6,39.38-15.64,25.84-24.25C890.72,856.21,911,869.11,908.14,867.29Z"/>
                <path class="cls-25" d="M1150.41,975.93c10.1-11.57-5.21-37.83-22-41,16.72-14.52,24.68-42-11-24.56-.08-6.89-12.14-33.35-24.67-20.25a59.89,59.89,0,0,0-9.86,14.22c-6.05,11.7-13.67,7.13-25.23,14.94-4.15-15-16.14-17-28.22-3.09.91-23-36.29-61.45-37.38-19.4-12.21-15.49-64.26-29.47-40.75-.67-7.1-2.18-34.52-6.39-30.45,6.61,3.83,12.16,27.46,6.81,37.34,9,3.92.42,6.39-.89,7.34-3.94a45.29,45.29,0,0,0,19.16,5.64c9.45.45,10.19,1.77,14.06,10.5-11.2-4-23.92-6.91-36.33-5.82-16.7,1.51-26.92-5.67-44.29-5.46-44.88.52,21.88,26.41,32.74,29-21.3-.2-39.95.65-58.19,11-21.47,12.2,38.47,7.9,45.24,5.59-5.44,9.57,12.25,8.5,17.36,8.18-1.9,4.21-22,10.55-27.07,17.32-9.51,12.59,19,6.76,23.74,4.34-.81,14.73,35.91,1.32,42.08-1.65-8.8,46.23,29.41,9.08,38.12-11.68a29.09,29.09,0,0,0,13.65,6.41c-7,9.28-9.1,20.69-5.23,31.13.78,2.07,13.18,23,20.52,10.06,4.56-8,5-16.64,3.9-25.29-2-16.35-11.11-9.78,1.33-20.37-4.83,14.37,6.66,31.53,19.82,40.93,23.22,16.58,1.07-31-.43-33.74,20.17,7.78,26,25.37,48.29,30.95,30.43,7.61-13-39.26-13.77-34.34,13.45,4,12.71,10.05,25.25,15.15,17.83,7.23,10.3-15.09,4.91-19.65C1150.51,975.81,1154.93,979.74,1150.41,975.93Z"/>
                <g>
                  <path class="cls-25" d="M585.47,864.42a1.25,1.25,0,0,1-.16-.24C585.43,864.44,585.47,864.48,585.47,864.42Z"/>
                  <path class="cls-26" d="M633.47,892.39c7.31-13-17.76-10.47-23.78-9.73,8-11.71,4.81-21.56-12.82-16.57,21.38-13.35,24.68-68.19-8.87-35.16-5.35,5.28-12.19,37.63,3.8,36.82a70.46,70.46,0,0,0-20.64,11.79c1.07-5.27,9.36-40.49-10.87-29.54-.09-7.81-13.61-69.74-27-37-3.9,9.52-3.47,21.35,3.81,29.84,11.53,13.47,11.09,13,6.1,27.19-1.56-2.24-16.93-30.55-24.39-18.87s-3.58,25,6.39,34.82c-18.35-2.9-52.3,6.12-25.79,20.82-18.89,3.2-31.68,6.5-50.5,7.42,18.33-32.59-28.19-2.83-36.82,9-.91-6.38-1.16-29.09-12-30.94-13.82-2.35-8.79,27.16-6.75,31.22-23.5-8.36-56,0-21.43,16.44-37.12,10.92-23.81,25.67,9.92,22.62-6.83,6.58-17.91,25.79,3.26,19.14-26.34,25.31.13,37.12,25,16.91.79,29.12,23.08,13.86,25.3-6.79,7.59,26.46,47.71,25.92,28.08-6.26C475.91,988,474,968.52,474,964c3.19,2.09,9,39.5,28.36,23.74,14.18-11.57-19.52-37.55,3.37-45.08-5.89,25.22,15.73,29.69,29.27,9.54,12.1,21.09,28.49,14,27.8-7.31,16.79,8.33,42.55,7.24,24.32-11.14C606.23,938.53,639,934,609,919.5c8.48-.86,31.38-13.37,9.9-13.83a33.13,33.13,0,0,0,14.56-13.28ZM388.34,997c4.5-7.94,11.11-13.16,20.52-17.19C403.58,986.3,398,994,388.34,997,390.19,993.75,397.64,994.14,388.34,997Z"/>
                </g>
                <path class="cls-25" d="M956.45,861.42c-1.23-11.8-33.35-43-30.12-16.15-11.43-1.76-11.19-6.07-24.13-5.52-18.25.77.07,13.88,5.56,15.62,5.91,1.87,53.49,15.21,48.69,6Z"/>
              </g>
              <g>
                <path class="cls-25" d="M481.27,898c-11.51,0-95.29-10.43-52-22.84,13.29-3.8,28.58-2.7,41.3,1.95,5.09,1.85,32.37,20.94,10.74,20.89C477.37,897.92,488.84,898,481.27,898Z"/>
                <path class="cls-25" d="M489.69,877.92a92.53,92.53,0,0,1-33.42-16c-2.16-1.61-21.67-21-1.79-17.62,12.42,2.1,33.09,12.59,33.68,24.14,0-1.72,14.67,12.66,1.53,9.46C472.65,873.8,494.85,879.19,489.69,877.92Z"/>
                <path class="cls-25" d="M432.06,869c-10.41-1.32-44.19-2.28-44.11-17.39.16-32.28,67.36,20.32,44.11,17.39Z"/>
                <path class="cls-25" d="M482.37,847.69C470.58,843,445.66,809,465.83,817.44c11.08,4.65,27.88,34.79,16.54,30.25C469.87,842.67,488.71,850.22,482.37,847.69Z"/>
                <path class="cls-26" d="M724.2,908.59c29.68-6.22,6-28.71-12.42-31.83,13.39-12.73-9.42-18.69-21.77-18.37,24.6-26.42-.33-40.73-26.13-16.06-6.7-18-29.34-5.65-37.4,4-2.45-3.48-.5-7-1.47-11.53,18.87,10.94,16.65-38.46,13.78-44.58-8.07-17.23-21.31,11-21.31,16.27,0-4.35,3.58,24,4.38,18.9-11.93-26.9-41.42-34.14-25.82,2.26-8.6-.23-14.85,2.67-18.76,8.78-.35-7.26-27.4-42.87-31-24.79-2.65,13.12,2.79,26,12.15,36.68-8.65-2.7-41.82-47.71-56.75-29.77-19.11,23,40.86,39.26,46.1,51.16-33.41-15.77-58.81-6-23.84,18-2.77,0-40,6.07-24.48,12.24,17.07,6.73,35.34,11.74,54.42,13.06-15.61,7.41-28.47-4.63-51.36,1.73-16,4.46-28.82,19.65-26.55,34-4.2-5.5-23.27-26.59-34-21.31-13.15,6.45-2.7,34.93,1.65,43.17-22.07-11.75-45.88-13.56-30.37,13-11-3-8.68-14.07-15.85-21.85,36.8-1.64,5.89-27.88-16.19-27.19,11.55-14.41,8.84-33.32-15.9-18.78-4.74-32.74-34.83-17.88-32.32,6.5-38.89-21.48-54.09,9.82-14.87,20.86-15.35,5.82-26.62-5.76-43.4-.35-27.92,9,8.09,18.14,22.18,14.2-13.42,17.59,22,12.14,31.66,8.65-6.32,21.29,8,17.17,18.8,4.46,2.86,13,23.1,35.92,26.36,9.2,11.32,10.88,24.59,23.95,38.56,32.72-8.44.27-13-8.37-22.05-10.81-3.27-.89-38-1.64-24.47,6.71,21.1,13,37,31.18,65.49,36.2-11.53,3.93-29.4,11.47-28.69,23.55q1.69,9.49,11.58,15a34.91,34.91,0,0,0-7.85,15.83c-5.08,27.07,37.4-1.09,44-10.37.51,4.39,7.45,48.07,17.12,41.47,16.25-11.09,24.6-26.86,25.75-43.69,16.56,21.59,25-1.31,23.34-16.46,11.41,10.87,72.8,49.59,49.58,11.23,3,4.06,29.52,38.47,38.08,25.52,4.49-6.78-12-19.16-16.61-23.43,48.19,7,37.63-15,4.75-29.9,55.57-2.51,44.24-44.64-4.32-49.49,14-5.86,33.52,4.73,52.59-8,19.85-13.29-44.2-10.88-52.28-7.93C591.8,960.13,553,968,535.88,976.53c6.12-18-11.48-40.83-37.08-27.18a23.18,23.18,0,0,0-2.43-20.16c15.38,1.27,26.14-3.52,40.44-4.81-7.6,8.67,1,18.46,12.75,20.53,15,2.68,31.44-4.82,43.07-11.45.91,11.06-12.74,18.44-13.51,31.35-1.09,18.22,26.09-8.92,27.51-10.39,6.33,13.28,27,16,34.24,2.31,13.54,32.52,35.9,18.9,34.43-10.34,26.34,23.22,34.93,2.45,23.57-17.79,21.67,8.29,51.12-3.19,25.33-20C747.81,903.64,732,913.63,724.2,908.59Zm-149-61.3c.63,3,1.24,6,1.85,9-6.93-3.81-6.41-3.91-1.85-9C575.48,850.24,574.7,847.89,575.23,847.29Z"/>
                <path class="cls-25" d="M685.89,817.31c-11.28,18.42-31.94,20.84-26-3.24,6.73-27,44.73-27.32,26,3.24C682.26,823.26,689.67,811.19,685.89,817.31Z"/>
                <path class="cls-25" d="M662.88,791.55c-2,9.92-15-8-14.53-11.77,2.68-23,17.32-2.36,14.53,11.77C662.52,793.38,664.36,784.2,662.88,791.55Z"/>
                <path class="cls-25" d="M781.22,862c-3.78,6.52-26.05,25.29-36.59,22.66-4.79-1.2-7.08-16.86-8.76-21.58-4.28,12.69-16.14,4.17-11.73-6.45,4.53-10.86,21.36-8.43,25.06,1.47,12.56-15,47-21.8,32,3.9C775.86,871.27,784.74,856,781.22,862Z"/>
                <path class="cls-25" d="M801.44,897.31c-15,14.32-72.92,7.9-58.6-2.81,8.17-6.11,74.24-12.16,58.6,2.81C788.26,909.92,804.78,894.1,801.44,897.31Z"/>
                <path class="cls-26" d="M1826.09,972.93a114.13,114.13,0,0,0-19-15.67c26.32,3.49,13-15.17-1.76-21,27.56-17.62,3.3-23.07-18.5-20.42,4.18-5.71,5.39-26-5.21-28.64-13.21-3.24-13.47,14.74-19.29,17.48-1.11-8.64-2.93-32.25-16.32-35.42-14.07-3.33-20,16.43-19.22,23.54-5.53-1.68-4.11-17.1-15.28-14.21-9.61,2.47-6.22,15.5-3.3,20.53,3.45,6,18.53,21.29,15.67,22.4-5.13-8.16-13.82-14.85-23.48-19.56-13.39-6.54-8.84,9.55-17.47,8,9.86-8.4,12.78-22.54-4.85-26.55,23.63-13.34-9-49.49-21.16-7.39-9.59-15.4-8.13-2.59-2.85-16.92,2.1-5.7,2.29-25-10-25-17.34,0-4.81,27.42-14.3,34.23-7.35-15.42-29.7-28.46-33-3.5-19.78-15.89-55-24.09-37.53,9.13-14.8-4.22-25.09-10.24-39.42-14.36,16-7,33.6-15.36,48-24.48,11.33-7.19-15.7-11.77-21-10.53-4-12.43-33.91,2.31-39.92,6.35-10.15-7.17-23.09-3.39-31.86,3.11,3.56-31.55-26.22-24.22-29.29,2.49-11.24-12.58-21.63-7-30.9-18.77-4.57-5.78-23.18-22.5-33.9-15.24-9.8,6.62,14.71,25,20.83,28,20.59,10.3,0-5.08,17.44,14.58-12.69-2.75-55.69-2.65-35.94,14.82,9.36,8.3,23,11.35,36.4,12.57-5,1.73-31.69,8.9-31.16,14.48,1.15,11.71,39.61-1.73,44-5.35-2.82,10.31-13.62,47.09,10,22.87,1.34,12,16-9.09,16.89-12,9.75,9,47,9.6,37.51-8,2.65.32,39.59-1.85,37-5.4A135.64,135.64,0,0,0,1555,901.64c-6.94-.48-49.89,2.83-26.22,12.55-61.46-4.56,15.54,39,10.78,3.86a143,143,0,0,0,20.49,4.66c-44.48,16.68,22.46,24.76,42.82,11.88-11.76,22.3,8.19,30.17,24.65,13.95-6.14,32.51,24.33,43.25,25.93,3.68,24.64,20.74,23.2-9.31,12.58-23.36a292.23,292.23,0,0,0,35.31,5.9c-14,14.88,3,17.17,17.47,12.59-2.4,3.3-46.41,17.93-28.37,28.76,10.9,6.55,39.54-13.93,43.84-20.38,2,12,5.43,31.59-3.91,36.62,1.47-13.54-9.39-18.74-16.16-3.85-3.48,7.71.65,14.76-4.24,21.73-4.84-18.27-17.58-19.63-21.25.46.19-4.9-21.17-44.69-32.89-32.42-15,9.34,11.92,24.09,10.24,33-1.91-1.66-32.48-18.73-27.32-5.53,3.23,8.31,14.13,20.43,21.63,26.49-6.84-3.81-44.95-6.86-47.3,2.77-2.07,8.51,45.8,8.06,53.28,8-5.19,1.87-14.47,6.07-14.68,11.47a64.76,64.76,0,0,0-26.68-4.06c-6.46.58-27,5.19-26.54,12.41-4.41-1.32-13.37-29.4-20-35.29,44.21-4.76,59.32-35.56,2.19-26.1,4.64-2.72,21.74-19.77,1.37-16.6,5.69-23-22.8-24.48-38.37-11.42-.8-4.17-3-35.26-18.18-24.12-9.48,6.92-14.21,16.31-16.07,26.26-6.51-6.11-17.08-13-27.82-8.22,3.07-17.28-33-50.21-32-22.53.69,17.55,18,26.83,21.33,41.19-14.89-3.65-19-.69-31.4-7.27,19.29-6.41-23.77-38.46-35.65-39.69-26.07-2.76-14.58,18.65-5,28-46.33-4.65-9.16,24,15.49,26.3,18.15,1.72,14.72-5.6,23.81,2.44,9.35,8.28,14.15,16.69,25.84,22.6-11-2.86-54.4-11.87-61.22.94-6.68,12.53,27.11,20.71,36.43,21.11-13.7,8.82,21.62,11.42,25.36,11-37.6,32.85,18.91,22.8,32.78.69-16.27,44.73,23.07,31.27,33.83-1.26,6,11.66,23.25,29,28.21,7.31a57.15,57.15,0,0,0,18.45,10.63c-15.57,5.62-34.75,4.6-49.93,15.63-26.69,19.37,15.13,14.72,28.5,8.89-.91,4.13-8.19,30.39,7.44,26.39,10.65-2.76,11.75-24.1,15.47-31.16,5.62,11,34.58,43.45,34.5,11.49,2,2.12,37.45,31.83,35.84,14.34-1.14-12.36-10.6-24.86-23-32.19,8.81.69,27.74,3,29.21-7.73,2.47-18,9.54-5.94,28.2-12-2.73,25.26,14.87,27.08,28.38,6.1,8.56,12.2-12.9,26.39,8.38,39.9,14.19,9,11.2-24.81,10.68-27.36,10.58,2.21,27-1.52,23.39-13,7.28,1.24,25.8,1.59,17.88-9.71-4.28-6.13-29.58-7.88-37.72-11.09,41.55.21,24-25.09-2.62-32.78a81.39,81.39,0,0,0,14.78-16.1c-.57,19.41,37.62,27.15,33.81,18.39-.92-2-20.07-27.88-5.12-22.45,5.42,2,13.94,11.77,21.67,7,10.36-6.43-8.37-14.52-13.57-16.68,3.83-3.15,14.66-25.94-1.19-19.66-14.23,5.65-14.18,14.7-23.07,23.19-6.82-7.3.32-17-3.59-26.43,12.8,10.72,22.41,7.4,22.16-6.44a161.76,161.76,0,0,0,38.94,24.5c5,2.21,12.91-2.54,8.79-7C1820.58,967,1830.11,977.3,1826.09,972.93ZM1498.87,1041c2.42-1.4,4.85-2.78,7.27-4.17q-8.39,19.67-7.27,4.17C1501.3,1039.64,1500,1042.69,1498.87,1041Z"/>
                <path class="cls-25" d="M1444.75,819.41c-4.64,10.57-14.48-19.44-11.91-25.67,6.26-15.32,31.72,25.27,11.91,25.67C1444.41,820.15,1447.44,819.34,1444.75,819.41Z"/>
                <path class="cls-25" d="M1497.66,820.42c-9.17,9.92-16.47-15-10.34-21.44,17.93-19,19.41,11.63,10.34,21.44C1493.64,824.74,1504,813.55,1497.66,820.42Z"/>
              </g>
            </g>
          </g>
        </g>
      </g>
      <g class="cls-27">
        <path class="cls-28" d="M1551.54,607.77c-6.91-14.89-19.93-5.71-19.93-5.71-5.24-15.66-14.07-7.08-14.07-7.08-10.67-19.07-18.77-.55-18.77-.55s-2.54-13.92-10.64-18.88-15,2.91-15,2.91c-15.64-18.1-23.23,5.18-23.23,5.18-6-4.52-10-.32-10-.32-6.49,6.93-2.87,17.37-2.87,17.37-19.9,5.07-7.8,15.42-7.8,15.42l2.88,1.94,130.15,3,2.12-1.19c6-3.4,4.1-13.66-2.62-14A28.91,28.91,0,0,0,1551.54,607.77Z"/>
        <g>
          <path class="cls-29" d="M980,258s179,48.4,257,95.2S1418,438,1418,438l-266-1.57Z"/>
          <g>
            <line class="cls-30" x1="1192.93" y1="567.65" x2="1296.57" y2="567.65"/>
            <line class="cls-30" x1="1191.93" y1="569.65" x2="1295.57" y2="569.65"/>
            <line class="cls-30" x1="1191" y1="571.65" x2="1294.57" y2="571.65"/>
            <line class="cls-30" x1="1190.93" y1="573.65" x2="1294.57" y2="573.65"/>
            <line class="cls-30" x1="1189.93" y1="575.65" x2="1293.57" y2="575.65"/>
            <line class="cls-30" x1="1188.93" y1="577.65" x2="1292.57" y2="577.65"/>
            <line class="cls-30" x1="1188.93" y1="579.65" x2="1292.57" y2="579.65"/>
            <line class="cls-30" x1="1187.93" y1="581.65" x2="1291.57" y2="581.65"/>
          </g>
          <ellipse class="cls-31" cx="302.5" cy="755" rx="39.5" ry="8"/>
          <line class="cls-32" x1="1145.26" y1="497.66" x2="1356.69" y2="495.95"/>
          <line class="cls-1" x1="1127.87" y1="597.3" x2="1346.07" y2="587.93"/>
          <polygon class="cls-18" points="962.06 425.23 962.06 588.51 965.41 588.92 965.41 425.23 962.06 425.23"/>
          <ellipse class="cls-33" cx="425.5" cy="798" rx="18.5" ry="5"/>
          <ellipse class="cls-33" cx="485.5" cy="702" rx="16.5" ry="4"/>
          <path class="cls-34" d="M1324,694.19s13,1.81,2,7.81l6-2h0s6.07-2.62,6-5.81S1324,694.19,1324,694.19Z"/>
          <rect class="cls-35" x="-10.28" y="-5" width="1626.89" height="543.91"/>
          <rect class="cls-36" x="-10.28" y="-3" width="1614.83" height="531.35"/>
          <g>
            <path class="cls-37" d="M777.37,87.16s1.38-10.4,18.91-17.51,32.28-10.94,47.5-2.74,12,26.82,8.76,29c-6.26,4.25-19.77,9.84-55.8,4.38C775.06,97,777.37,87.16,777.37,87.16Z"/>
            <path class="cls-38" d="M1433.75,233.58s1.88-12.34,25.71-20.79,43.89-13,64.59-3.25,16.3,31.84,11.91,34.43c-8.52,5.05-26.88,11.68-75.87,5.2C1430.62,245.27,1433.75,233.58,1433.75,233.58Z"/>
          </g>
          <path class="cls-7" d="M-31.37,518.06c-.9-18.26,1.38-42.76,20.08-56.5,34.91-25.63,90.82,12.85,181.77,29.56,168.68,31,231-54.62,392.66-17.39,29,6.67,58.59,16.7,102.44,13,56.31-4.7,72.44-26.68,134.57-31.29,25.15-1.87,58.51-4.34,94.4,8.69,61.79,22.45,68.05,69.3,125.08,78.4,25.21,4,44.76-2.59,59.24-3.64,74.35-5.4,501.31-42.52,525.05-39.29,0,0,17.16,2.33,34.53,3.39h.19c.09,0-15.57,148.35-15.57,148.35H35.88Z"/>
          <path class="cls-39" d="M-23.25,482.65s330,51.44,434.72,53,542.85,29,609.36,42.54,23.71,75.15,23.71,75.15H-4.29Z"/>
          <polygon class="cls-8" points="2.42 607.88 1637.25 573.29 1637.25 892.39 2.42 892.39 2.42 607.88"/>
          <g>
            <path class="cls-40" d="M764.23,601.05c.19-.5-1.26-.93-2.59-2.82a22.42,22.42,0,0,1-2.74-4.34c-1.17-4.55-4.75-10-6.25-12-4.75-6.45-7-16.11-10.7-32.15a239.22,239.22,0,0,1-4.69-27.56c-.27-16,1.94-28.05,6.48-35a188.14,188.14,0,0,0,13-23.74s26.69,1.2,29,0,8.77-6.95,7.62-21.79l.39-3.57L786.82,440s-2.11,13.3-10.9,14.33c-10.48,1.45-22.46-5-20.7-14.33H747.6S750,467.27,738.43,473c-8.6,2.27-13.68-1.32-13.29-17.31l.39-16-13.67,0s.79,17,0,18-6.83,11.54-13.28-10.1c-5.47-15.26-2.34-7.91-2.34-7.91l-7.42.17s3.32,16.81,14.26,27.32c7.22,10.1,7.42,27,1.95,33-5.86,6-15.82,9.28-23.44-26.18-5.08-23.5-6.44-34.12-6.44-34.12l-10.55-.12s4.3,28.06,3.52,33c-1,5.56-1.37,22.67-24.42,15.46-55.26-15.8,8.3-38.66.4-51.75-2.26-3.73-37.82,37.13-41.15,27.13C597.73,448,594.88,439,594.88,439l-8.59-.23s-.4,9.22,1.36,11.69c-2.75.2-25.64-1.74-35.81-6.71-9.07-4.44-20.94-10.88-21.91-13.32-2.29-.1-9.3.09-11.6,0,1.79,4.54,4.74,6.35,6.93,8,8.42,6.43,26.35,14.93,57.1,19.18a61.17,61.17,0,0,1,7.27,1.06c0,.06.13.94.13.94s1.21,23.07,28.75,34.2c24.61,9.69,35.35,14.64,41.6,18.56s10.54,8,9.57,21.44a110.65,110.65,0,0,0,1.76,32,108.18,108.18,0,0,0,13.47,34.53c21.15.7,34.73.77,43.44.69,17.46-.17,27.4-1.08,32.63.2C761,601.34,764,601.72,764.23,601.05Z"/>
            <path class="cls-41" d="M740.44,542.73c-5.4,2.29-15.07,6.43-20.13,11.54-18.69,18.91-6,43.78-4.53,46.48l49.35.66a34.55,34.55,0,0,1-7.43-10.9C750.55,574.6,741.82,555.35,740.44,542.73Z"/>
            <path class="cls-42" d="M680,467.58s9.15,35.75,16.32,35.49C688.9,506.72,675.06,496.81,680,467.58Z"/>
            <path class="cls-43" d="M542.74,360.2c2.13-15.41,7.72-38.69,24.54-57.7C612.73,251.14,699.75,275,727.6,282.71c68.73,18.94,113.27,64.34,135.09,90.77L873.52,382A896.67,896.67,0,0,1,700.8,396.44a895.57,895.57,0,0,1-150.3-14.73Z"/>
            <path class="cls-44" d="M543.35,359.34c2.11-14.84,7.64-37.25,24.29-55.55,45-49.44,131.08-26.43,158.63-19.05,68,18.23,112.09,61.94,133.69,87.38l10.71,8.17a911.29,911.29,0,0,1-170.91,13.94A911.58,911.58,0,0,1,551,380.05Z"/>
            <path class="cls-43" d="M824.35,368s62.94-14.39,90.83,29.45c18.17,34,21.41,45.06-90.83,38.89C805.38,381.82,824.35,368,824.35,368Z"/>
            <path class="cls-45" d="M826,369.24s61.12-14.63,88.22,29.93C931.85,433.76,935,445,826,438.7,807.55,383.32,826,369.24,826,369.24Z"/>
            <path class="cls-43" d="M556.49,430.46c-1.89,0-56.91-3.86-56.91-3.86s-34.15-7.07-14.55-24.42a32.65,32.65,0,0,0,12.4-10.53c3.91-5.68,2.86-8.47,5.35-13.7,7.89-16.57,34.36-22.21,34.36-22.21h0s35.9-7.32,62.61,7c3,1.6,4.44,2.47,5.57,4,12.36,16.24-26.06,63.73-26.06,63.73Z"/>
            <path class="cls-46" d="M584,432.49c-1.84,0-103.8-2-103.8-2s-18.48-2.79-8.16-19.9c6-8.56,10.39-15.12,14.05-20.66,3.77-5.7,13.94-14.36,20.76-19.15,16.76-13.26,48.93-14.13,48.93-14.13h0s34.67-7.34,60.47,7.06c2.88,1.6,4.29,2.47,5.39,4,11.93,16.29-25.18,63.93-25.18,63.93Z"/>
            <path class="cls-43" d="M559.44,386.62s31.31-26,64.13-36.16c35.86-15.27,83.33-49.39,140.9-33.61,44.44,14.77,77.78,35.14,97.47,72.83,9.6,21.89,11.11,48.38-62.12,44.81l-204,.33S516,428.89,559.44,386.62Z"/>
            <path class="cls-47" d="M556.45,392.23s31.67-26.41,64.88-36.76c36.27-15.53,84.29-50.22,142.53-34.17,45,15,78.68,35.72,98.6,74,9.71,22.26,11.24,49.18-62.83,45.56l-206.4.33S512.51,435.2,556.45,392.23Z"/>
            <path class="cls-42" d="M793.73,440.9s.93,14.87-5.93,20.86c-2,2.09-3.68,2-6.12,2.09a14.2,14.2,0,0,0,8.53-10.2,79,79,0,0,0,1.86-12.75h1.66Z"/>
            <path class="cls-42" d="M725.6,441c-.28,2.7-.47,10.86-.36,12.68.47,8,1,17.14,5.93,19.5a6.48,6.48,0,0,0,3.7.49l1.87-.22c-2.3,3-4.35,3.24-5,3.27-4.07.2-8.84-5.38-10-14.37a57.7,57.7,0,0,1-.82-12.93c.19-3.58.74-8.48.74-8.48h0Z"/>
          </g>
          <g>
            <path class="cls-48" d="M1450.13,616.05c.19-.5-1.26-.93-2.59-2.82a21.77,21.77,0,0,1-2.73-4.34c-1.17-4.55-4.76-10-6.25-12-4.75-6.45-7-16.11-10.71-32.15a239.22,239.22,0,0,1-4.69-27.56c-.27-16,1.94-28.05,6.48-35a189,189,0,0,0,13-23.74s26.68,1.2,29,0,8.77-6.95,7.63-21.79l.38-3.57-6.86,1.92s-2.11,13.3-10.9,14.33c-10.48,1.45-22.46-5-20.71-14.33h-7.61s2.34,27.32-9.18,33.09c-8.6,2.27-13.67-1.32-13.28-17.31l.39-16-13.67,0s.78,17,0,18-6.84,11.54-13.28-10.1c-5.47-15.26-2.35-7.91-2.35-7.91l-7.42.17s3.32,16.81,14.26,27.32c7.22,10.1,7.42,27,2,33-5.86,6-15.82,9.28-23.44-26.18-5.07-23.5-6.44-34.12-6.44-34.12l-10.55-.12s4.3,28.06,3.52,33c-1,5.56-1.37,22.67-24.41,15.46-55.27-15.8,8.29-38.66.39-51.75-2.26-3.73-37.82,37.13-41.15,27.13-5.22-15.66-8.07-24.65-8.07-24.65l-8.59-.23s-.4,9.22,1.36,11.69c-2.75.2-25.64-1.74-35.81-6.71-9.07-4.44-20.94-10.88-21.9-13.32-2.3-.1-9.31.09-11.61,0,1.79,4.54,4.74,6.35,6.93,8,8.42,6.43,26.36,14.93,57.1,19.18a61.57,61.57,0,0,1,7.28,1.06c0,.06.12.94.12.94s1.21,23.07,28.75,34.2c24.61,9.69,35.35,14.64,41.6,18.56s10.55,8,9.57,21.44a110.65,110.65,0,0,0,1.76,32,108.42,108.42,0,0,0,13.47,34.53c21.15.7,34.73.77,43.44.69,17.46-.17,27.4-1.08,32.63.2C1446.91,616.34,1449.87,616.72,1450.13,616.05Z"/>
            <path class="cls-41" d="M1426.35,557.73c-5.41,2.29-15.08,6.43-20.14,11.54-18.69,18.91-6,43.78-4.52,46.48l49.34.66a34.72,34.72,0,0,1-7.43-10.9C1436.45,589.6,1427.73,570.35,1426.35,557.73Z"/>
            <path class="cls-42" d="M1365.91,482.58s9.14,35.75,16.31,35.49C1374.81,521.72,1361,511.81,1365.91,482.58Z"/>
            <path class="cls-43" d="M1228.65,375.2c2.12-15.41,7.71-38.69,24.53-57.7,45.45-51.36,132.48-27.46,160.32-19.79,68.73,18.94,113.28,64.34,135.1,90.77l10.82,8.48a896.6,896.6,0,0,1-172.72,14.48,895.33,895.33,0,0,1-150.29-14.73Z"/>
            <path class="cls-49" d="M1229.26,374.34c2.1-14.84,7.63-37.25,24.28-55.55,45-49.44,131.09-26.43,158.64-19.05,68,18.23,112.09,61.94,133.68,87.38l10.71,8.17a911.29,911.29,0,0,1-170.91,13.94,911.45,911.45,0,0,1-148.72-14.18Z"/>
            <path class="cls-43" d="M1510.25,383s62.94-14.39,90.84,29.45c18.16,34,21.41,45.06-90.84,38.89C1491.28,396.82,1510.25,383,1510.25,383Z"/>
            <path class="cls-50" d="M1511.89,384.24s61.12-14.63,88.22,29.93c17.65,34.59,20.8,45.81-88.22,39.53C1493.46,398.32,1511.89,384.24,1511.89,384.24Z"/>
            <path class="cls-43" d="M1242.4,445.46c-1.9,0-56.92-3.86-56.92-3.86s-34.15-7.07-14.54-24.42a32.7,32.7,0,0,0,12.39-10.53c3.91-5.68,2.86-8.47,5.36-13.7,7.89-16.57,34.35-22.21,34.35-22.21h0s35.9-7.32,62.61,7c3,1.6,4.44,2.47,5.58,4,12.35,16.24-26.07,63.73-26.07,63.73Z"/>
            <path class="cls-51" d="M1269.94,447.49c-1.83,0-103.8-2-103.8-2s-18.48-2.79-8.16-19.9c6-8.56,10.39-15.12,14-20.66,3.78-5.7,13.94-14.36,20.76-19.15,16.76-13.26,48.93-14.13,48.93-14.13h0s34.67-7.34,60.47,7.06c2.88,1.6,4.3,2.47,5.39,4,11.93,16.29-25.17,63.93-25.17,63.93Z"/>
            <path class="cls-43" d="M1245.34,401.62s31.31-26,64.14-36.16c35.85-15.27,83.32-49.39,140.9-33.61,44.44,14.77,77.77,35.14,97.46,72.83,9.6,21.89,11.11,48.38-62.11,44.81l-204,.33S1201.91,443.89,1245.34,401.62Z"/>
            <path class="cls-52" d="M1242.35,407.23s31.68-26.41,64.88-36.76c36.27-15.53,84.3-50.22,142.54-34.17,45,15,78.67,35.72,98.6,74,9.7,22.26,11.24,49.18-62.84,45.56l-206.4.33S1198.41,450.2,1242.35,407.23Z"/>
            <path class="cls-42" d="M1479.64,455.9s.93,14.87-5.94,20.86c-2,2.09-3.67,2-6.12,2.09a14.2,14.2,0,0,0,8.53-10.2A79,79,0,0,0,1478,455.9h1.67Z"/>
            <path class="cls-42" d="M1411.5,456c-.27,2.7-.47,10.86-.36,12.68.47,8,1,17.14,5.94,19.5a6.46,6.46,0,0,0,3.69.49l1.87-.22c-2.29,3-4.35,3.24-5,3.27-4.07.2-8.83-5.38-10-14.37a57.7,57.7,0,0,1-.82-12.93c.19-3.58.74-8.48.74-8.48h0Z"/>
          </g>
          <path class="cls-53" d="M28.31,570.62c27.29.33,54.39,2,81.69,2.18,33.74.27,67.09-2.17,100.87-1.12,19,.58,38.08,1.32,57.17,1.69,17.25.32,34.49.17,51.66.94,35.27,1.57,69.53,5.58,104.35,8.14,74.09,5.46,149.33,6.21,224.53,7.4,27.09.44,53.44.11,80.16-.76a145.68,145.68,0,0,1,14.84-1.28c8.39-.41,16.82-.6,25.23-.64-4.62-.1-8.63-.14-11.76-.14-28.47,0-90.11,2.38-123.31,1.19s-47.42,0-94.85-1.8S436.14,579.86,403,578.67s-71.14-6-101.17-6.59-53.75,1.2-96.44-1.19-82.19,1.79-126.45-.6c-30-1.62-62.11-3.24-82.21-4.11v4.89C7.25,570.54,18.06,570.5,28.31,570.62Z"/>
          <path class="cls-9" d="M1356.69,589.52c-54.81,6.32-111.16,16.53-166.44,18.18-72.43,2.13-144.1,9.57-216.67,11.3-74.41,1.79-146.39,1.38-220.7-2.44-64.34-3.32-128.8-.32-193.12-3.57C493.83,609.65,429,598.2,363,595.2c-47.6-2.15-93.73-5.3-141-9.8-39-3.71-76.32-13.33-115-17-36.79-3.5-75.15-9.53-112.25-10.13V895H1660.28V541.91c-46.53,6.34-93,14.64-138.15,24.69C1468.66,578.52,1411.68,583.2,1356.69,589.52Z"/>
          <g class="cls-54">
            <path class="cls-55" d="M1489.19,562c-5.62,2.26-11.3,4.52-17.07,6.7a435.5,435.5,0,0,1-74.27,21.1c-55.17,10.48-116.3,10.59-169.67,23.8,32.33,2.7,65.4,1.39,97.82-.21,22.64-1.12,45.3-1.88,67.93-3,17.57-.86,35.16-1.81,52.8-1.9,13-.07,31.43-.54,42.62,3.75,8.94,3.45,5.79,8.85-.14,12.82-9.63,6.4-23.81,11-37.25,14.92a520.55,520.55,0,0,1-56.24,12.85c-18.4,3.2-37.58,5.81-57,6.54-12.83.48-28.36.49-39.08-3.81-.6-.26-.73-.61-.21-.92,12-7.44,34.91-7.44,45.13-15.64-25.21-5.36-55.28-2.45-81.41-1.11-32.85,1.66-65.92,3.87-98.93,4.4-70.21,1.18-139.19-9.17-209.42-8.46-36.51.37-73,1.29-109.52,1.53-36.18.23-72.34.17-108.52-.41-26.63-.45-53.46-.18-80-1.19-23.37-.89-49.18-2.55-68.53-10.08-.75-.3-.72-.92.28-1.08,2.18-.35,4.43-.71,6.7-.9,15.36-1.41,30.91-.39,46.33,0,17.44.4,35-.66,52.26-1.71,17.6-1.06,35.21-2.3,52.87-3,8.47-.33,16.88-.44,25.3-.49q-22.12-.75-44.44-1.89c-62.19-3.22-124.49-.31-186.65-3.47-63.73-3.26-126.44-14.42-190.17-17.34-46-2.1-90.59-5.16-136.27-9.54-37.68-3.62-73.78-13-111.19-16.58-35.56-3.41-72.65-9.29-108.5-9.88v7.75q11,.46,21.87,1.29c68.89,5.09,134.72,17.7,201.57,27.29,16.64,2.4,33.42,4.62,50.44,6.15,16,1.48,31.88,2.13,48.09,2.52,26.24.66,55.2,1.45,78.07,9,.66.21.78.78,0,1-13.49,3.56-28.67,4.84-43.6,5.31-28.33.87-56.64-.81-84.95-.81-32.24,0-63.79,4-95,7.78-17.59,2.14-35.18,4.73-53,6.43-11.48,1.1-23.17,1.58-34.71,2.5-12.41,1-25.56,2.21-36.71,5.4a55.54,55.54,0,0,0-8.51,3c-2.23,1.06-2.42,1.08-.37,2.3a38.8,38.8,0,0,0,8.4,3.65c16.89,5.16,38.45,5.94,57.58,6.41,21.3.5,42.6.09,63.93,0,18.77-.07,37.42.93,56.19,1.27,22.79.34,50,.19,69.75,7.06.51.19.69.5.39.8-5.16,5-13.14,5.78-23.2,6.27-9.16.44-18.24,1.83-27.32,2.64-7.82.69-15.7,1.3-23.59,1.81-17.81,1.16-35.7,1.93-53.59,2.7-36.49,1.55-72.38,4.1-108.55,7.14-21,1.77-42,3.4-63.18,4.43V886H1604.55V541.91C1565.8,547.23,1527.1,554,1489.19,562Z"/>
          </g>
          <path class="cls-56" d="M1342.88,697.64,1108.45,731,967.38,709.56,809.19,685.84l228.75-27.09Z"/>
          <path class="cls-56" d="M956.45,707.92,789.73,797.74S692.52,785,692.6,785s175.75-86.5,179.31-89.74S956.45,707.92,956.45,707.92Z"/>
          <g class="cls-10">
            <g>
              <path class="cls-11" d="M572.51,731.17c7.9-.7,15.61-2,22.06-4.45-15.08-2.5-30.4-4.41-45.88-5.9C556.67,724.17,564.6,727.66,572.51,731.17Z"/>
              <path class="cls-11" d="M39.42,642.45a39.77,39.77,0,0,0,8.68,3.78c11.69,3.58,25.53,5.12,39.33,5.9a30.45,30.45,0,0,1,4.89-.29q14.66.3,29.33.71A35.67,35.67,0,0,1,126,639a33.59,33.59,0,0,1,12.06-11.89c-5.19.62-10.38,1.2-15.6,1.69-11.87,1.14-24,1.64-35.91,2.59-12.83,1-26.44,2.29-38,5.6a58.4,58.4,0,0,0-8.81,3.1C37.49,641.17,37.29,641.19,39.42,642.45Z"/>
              <path class="cls-11" d="M1612.32,687.36c-15.25,3.43-32,6.93-45,12.53-3,1.29-7.86,3.36-7.42,5.67.77,4.08,10.88,7.12,16.6,9.13,12.09,4.25,33.78,10.42,27.94,19.85-3,4.84-12.28,7-21.06,8.16-13.33,1.77-27.13,3.06-40.65,4.38-70.56,6.82-142.44,7.4-214,7.4H1217.55c-16.24,0-32.58.26-48.82,0-13.84-.22-27.91-.93-40.57-4.11-.78-.19-.71-.84,0-1,39.51-11.4,87.51-12.39,131.54-13.22,14.5-.26,29-.44,43.49-.8,16.43-.41,32.76-1.38,49.13-2.16,18.44-.9,36.87-1.72,55.33-2.59,16.92-.83,33.89-2,50.88-2.48,13-.36,27.41-.38,39.26-3.54a42.82,42.82,0,0,0,9.07-3.34c3.08-1.69,2.19-2.5-1.91-3.16a89.92,89.92,0,0,0-17.86-.79c-12.74.51-25.21,2-37.88,2.72-18.55,1-37.17,1.5-55.8,1.5-37.31,0-74.57-1.35-111.86-1.46-33.79-.13-67.56.28-101.33.89-19.09,1-38.1,2.44-56.75,4.76-17.68,2.21-35,5.22-52.61,7.51-16.91,2.19-34,4.08-51.32,5.22-34.35,2.3-69.7,1.91-104.21.85-26.24-.8-52.43-2.34-78.13-5.16-74.24-2.28-148.62-6.34-222.72-2.42C643.75,737,675,738.88,705.77,740c29.2,1.12,58.62,2.1,87.89,2.53,28.74.42,57.54-.15,86.27.92,25.94,1,52.82,3,75.74,9.87.82.25.69.78,0,1.06a96.65,96.65,0,0,1-18.93,4.79c2.24,0,4.48,0,6.72-.05,16.94-.26,31,13.07,33.22,29.33a34.92,34.92,0,0,1-4,21.56c-3.56,6.73-12.61,14.12-20.22,15.54s-15.05,2.17-22.61,3c-1.1.2-2.2.42-3.29.67a35.22,35.22,0,0,1-25.71-3.54q-9.78-.59-19.55-1.42c-23.88-2-47.75-4.93-71.63-7.61-6.42,8.3-16.66,13.8-27.17,13.78-19.91,0-39.73-1.4-59.52-3.16q-22.05-1.17-44.1-2.39a39.14,39.14,0,0,1-13.21-3c-12.85-1.12-25.71-2-38.6-2.52a35.93,35.93,0,0,1-18.88-6.07c-6.25-.89-12.48-2-18.64-3.46-13.38-3.17-25.83-9-38.37-14.55-9.21-4-18.4-8.13-27.64-12.09-8.53-3.53-17.15-6.86-25.88-9.86-4.86,2.39-10.36,3.84-14.91,3.47a446.43,446.43,0,0,1-53.42-8.05,473.93,473.93,0,0,0-53.17.27c-22.63,1.26-45.47,3-68,5.76-22.21,3.44-43.87,10-65.95,14.15-26.42,5-57.09,9.64-83-.38-10.19-4-17.57-9.3-21.91-19.58-3.31-7.84-4-17.15-.81-25.2-.46-.89-.89-1.8-1.28-2.72a75.73,75.73,0,0,1-13-2.46c-16.75-4.81-29.59-16.47-45.36-23.15l2.14.9a36.59,36.59,0,0,1-15.85-13.65c-3.58-5.55-4.72-12.47-4.27-19-21.3,1.79-42.65,3.44-64.12,4.48V892.39H1660.28V677.46C1644.2,680.6,1628.12,683.81,1612.32,687.36Z"/>
            </g>
          </g>
          <path class="cls-57" d="M-16.5,736.5s24.14,47,82.07,0-168.61-76-.34-97,550-22.21,595.13,11.9-138.72,64.54-65.79,75.33,143.78-12.27,285.36,16.76,164.57,16.8,227.07,13.91,354.5,25.11,164.5,56.11-557,12-483,24-254.86,16-308.93,0-37.07-38-131.07-26S2.34,821.79,2.42,801.14-16.5,736.5-16.5,736.5Z"/>
          <g>
            <ellipse class="cls-58" cx="147.5" cy="670.5" rx="98.5" ry="9.5"/>
            <path class="cls-58" d="M635.08,733.64c24.45.05,61.61.08,107,0,109.62-.2,167.92-.93,168,.6s-61.53,4.81-66.1,5c-38.79,2-68,2.46-68,4,0,.6,3,1.17,9.93,1.64,36.35,2.45,144.48-1.2,168.88,0s117.45,9.43,1.77,10.94-299.66-1-219.64,5.23,225.76.65,252.19,4.4,189.64,11,63.7,19.22-430.54,7.13-381.08,10.2,371.29-5.61,303.47,7.16-359.31,15.51-370.94,12.27-25.66-11.25,11.5-19.43,40.71-10.06,83.27-15,89.39-10.6-10.28-12.49-149.1-6.77-72.07-11.51c65.8-4.05,142-9.07,141.85-11.28,0-.54-6-.81-7.2-.86C730.14,742.71,695.27,740,635.08,733.64Z"/>
            <path class="cls-58" d="M281.58,780.22c-51.3-9.38-76.95-14.09-108.28-14.71-46.33-.91-82.93,5.92-108.78,10.42C40.62,780.1-.26,787.21-.19,791.66c.07,4.73,51.35.88,173-1,77.86-1.21,130-.78,130.13-4.82C303,784.45,297,783,281.58,780.22Z"/>
            <path class="cls-58" d="M48.91,707s30.87-3.82,47.91-1.58,57.48,7.21,29.24,8.94,34.08,2.81,82.39.16,99.3,9.67,51.24,11.47-153.21,1-174.08,0-7.7-10.1-7.7-10.1C109.86,712.76,56.14,706.77,48.91,707Z"/>
          </g>
          <g>
            <path class="cls-59" d="M837,615.61c-1.77,0-4.13,0-6.49.17-4.57.19-8.69.73-9.75,1.82-.13.14-.09.25.16.37,4.46,2,13.43,1.46,19.53,1.18,2.22-.09,14.69-.29,14-2.1S840.57,615.53,837,615.61Z"/>
            <path class="cls-59" d="M910.91,608.49c-1.51-1.42-10.63-.83-13.58-.73-1.24,0-4.12,0-6.51.23l-2,.09c-1.27,0-5.37.79-3.19,1.49,2.43.79,6.45.76,9.41.8,3.21,0,6.4-.13,9.54-.38a28.27,28.27,0,0,0,5.56-.72C910.72,609.08,911.23,608.8,910.91,608.49Z"/>
            <path class="cls-59" d="M403,669.14c-1.76,0-4.13.06-6.48.18-4.57.18-8.68.72-9.75,1.82-.14.13-.1.26.15.38,4.46,2,13.45,1.44,19.54,1.17,2.21-.09,14.69-.29,14-2.1S406.53,669.07,403,669.14Z"/>
            <path class="cls-59" d="M477.35,674.8c-1.52-1.42-10.64-.82-13.59-.73-1.24,0-4.1,0-6.49.23l-2,.1c-1.28.05-5.38.78-3.19,1.48,2.41.77,6.44.75,9.41.78,3.21,0,6.42-.11,9.54-.36a28,28,0,0,0,5.54-.72C477.17,675.39,477.67,675.12,477.35,674.8Z"/>
            <path class="cls-59" d="M877,680c-1.22,0-2.87,0-4.51.12-3.21.15-6.07.51-6.81,1.28-.09.08-.07.17.1.25,3.12,1.42,9.4,1,13.64.84,1.55-.08,10.28-.22,9.77-1.49S879.51,679.93,877,680Z"/>
            <path class="cls-59" d="M928.94,683.93c-1.05-1-7.41-.58-9.48-.51-.87,0-2.87,0-4.53.16l-1.39.07c-.9,0-3.77.53-2.24,1a27.43,27.43,0,0,0,6.59.55c2.23,0,4.45-.08,6.62-.26a21.85,21.85,0,0,0,3.91-.49C928.82,684.34,929.16,684.15,928.94,683.93Z"/>
          </g>
          <path class="cls-59" d="M1153.63,686.57c0,1.84-25.74,3.34-57.43,3.34s-57.42-1.5-57.42-3.34,25.71-3.34,57.42-3.34S1153.63,684.73,1153.63,686.57Z"/>
          <path class="cls-60" d="M683.28,581.72c-12-13.45-34.58-5.16-34.58-5.16-9.08-14.14-24.4-6.4-24.4-6.4-18.51-17.21-32.56-.49-32.56-.49a30,30,0,0,0-18.46-17c-14-4.48-26,2.63-26,2.63-27.14-16.34-40.31,4.68-40.31,4.68-10.32-4.09-17.4-.29-17.4-.29-11.26,6.26-5,15.69-5,15.69-34.52,4.57-13.53,13.92-13.53,13.92l5,1.75,219.16-1.61,10.53-3.08C711.72,580.15,683.28,581.72,683.28,581.72Z"/>
          <path class="cls-12" d="M-6.16,509S8.64,512,1,523.58c41.34-12.8,65.32-1.19,63.28,14.28,42.36-2.68,54.1,25,37.77,31.23,0,0,35.21-12.19,67.87,4.76C202.56,559,280.13,580.4,300,591.41L-2.19,592Z"/>
          <path class="cls-12" d="M1720,509.21s-19.71,4.22-9.51,20.66c-55.06-18.13-87-1.69-84.29,20.23-56.42-3.8-72,35.4-50.3,44.25,0,0-46.9-17.28-90.4,6.74C1442,580,1338.7,610.37,1312.19,626l402.54.84Z"/>
          <path class="cls-12" d="M873.44,611.21q-9,15.51-18.08,31c1.15-9.88,3-37.14-13.05-65-25.95-45.12-75.59-51.57-79.34-52-40.09-4.51-69.07,15.93-75.72,20.89-56.42-3.8-72,35.4-50.3,44.25a200.26,200.26,0,0,0-95.9-2.35,228.78,228.78,0,0,0-198.84,12l433.55,22.8Z"/>
          <g>
            <polygon class="cls-13" points="-39.49 527.84 313.52 537.2 313.07 548.23 -39.49 537.88 -39.49 527.84"/>
            <polygon class="cls-14" points="15.32 518.18 36.6 518.57 33.57 592.28 13.97 591.93 15.32 518.18"/>
            <path class="cls-14" d="M93.31,521.72s-5.8,2.89-2,37.81L95,594.46l18.91.34-4.38-74.92Z"/>
            <polygon class="cls-14" points="153.82 520.68 176.11 521.09 177.11 595.94 157.49 597 153.82 520.68"/>
            <path class="cls-14" d="M239,524.32l21.68-2.8q-.94,41-1.9,82L237.58,603Z"/>
            <polygon class="cls-15" points="15.32 518.18 33.47 520.64 30.02 592.22 33.57 592.28 36.6 518.57 15.32 518.18"/>
            <polygon class="cls-15" points="93.31 521.72 107.25 521.97 112.21 594.77 113.94 594.8 109.56 519.88 93.31 521.72"/>
            <polygon class="cls-15" points="153.82 520.68 173.59 523.17 174.91 595.9 177.11 595.94 176.11 521.09 153.82 520.68"/>
            <polygon class="cls-15" points="238.71 524.55 259.99 521.8 258.8 603.55 261.81 602.55 262.7 518.52 238.71 524.55"/>
            <ellipse class="cls-16" cx="23.08" cy="537.29" rx="3.36" ry="3.2" transform="translate(-514.56 549.75) rotate(-88.87)"/>
            <ellipse class="cls-16" cx="98.45" cy="536.54" rx="3.36" ry="3.2" transform="translate(-439.94 624.37) rotate(-88.87)"/>
            <ellipse class="cls-16" cx="163.93" cy="535.51" rx="3.36" ry="3.2" transform="translate(-374.72 688.83) rotate(-88.87)"/>
            <ellipse class="cls-16" cx="246.97" cy="538.29" rx="3.36" ry="3.2" transform="translate(-296.09 774.57) rotate(-88.87)"/>
          </g>
          <g>
            <polygon class="cls-13" points="654.47 545.46 1011.37 558.82 1010.28 567.99 654.47 556.73 654.47 545.46"/>
            <polygon class="cls-14" points="679.36 533.13 698.62 533.52 700.92 537.12 699.77 608.1 678.1 610.79 679.36 533.13"/>
            <polygon class="cls-14" points="763.11 536.61 780 536.95 782.41 575.84 781.72 618.44 760.48 615.23 763.11 536.61"/>
            <path class="cls-14" d="M801.31,535.61s-5.8,3.25-2,42.46L803,617.28l18.92.39-4.38-84.12Z"/>
            <path class="cls-14" d="M834.41,536.28,829,617.81l17.23.35,8.24-70.32s1.12-6.75-3.54-11.22Z"/>
            <polygon class="cls-14" points="861.81 534.45 884.11 534.9 885.11 618.95 865.49 620.15 861.81 534.45"/>
            <polygon class="cls-14" points="901.39 537.94 923.6 538.39 920.21 622.44 899.96 625.97 901.39 537.94"/>
            <path class="cls-14" d="M947,538.53l21.68-3.14q-1,46.05-1.9,92.11l-21.22-.58Z"/>
            <path class="cls-14" d="M985.34,538.34S992.91,530,1005,537c0,0,5.13,58.49,4.65,88.52l-19.65,3S983.76,552.27,985.34,538.34Z"/>
            <polygon class="cls-15" points="679.36 533.13 696.45 535.25 698.86 539.43 697.08 608.43 699.77 608.1 700.92 537.12 698.62 533.52 679.36 533.13"/>
            <polygon class="cls-15" points="763.11 536.61 776.48 538.67 779.7 574.79 778.99 618.39 781.72 618.44 782.31 574.25 780 536.95 763.11 536.61"/>
            <polygon class="cls-15" points="801.31 535.61 815.25 535.89 820.21 617.63 821.94 617.67 817.56 533.55 801.31 535.61"/>
            <path class="cls-15" d="M834.41,536.28l15.38,2.09a18,18,0,0,1,2.65,10.23c-.26,6-7.75,69.53-7.75,69.53l1.57,0,8.12-69.33s1.47-8.66-3.42-12.21Z"/>
            <polygon class="cls-15" points="861.81 534.45 881.58 537.24 882.9 618.91 885.11 618.95 884.11 534.9 861.81 534.45"/>
            <polygon class="cls-15" points="903.4 536.47 923.09 539.63 919.35 621.81 922.3 621.3 925.7 536.92 903.4 536.47"/>
            <polygon class="cls-15" points="946.71 538.79 967.98 535.7 966.79 627.5 969.8 626.37 970.7 532.02 946.71 538.79"/>
            <path class="cls-15" d="M987.27,535.77s11.27-3.72,17.58,1.74c0,0,4.53,82.42,4.12,88.86l3-2.24s-.53-44.41-1.65-59.11c-.93-12.13-3.45-30.45-3.45-30.45S996.79,527,987.27,535.77Z"/>
            <ellipse class="cls-16" cx="689.86" cy="552.25" rx="3.77" ry="3.2" transform="translate(133.63 1238.9) rotate(-89.67)"/>
            <ellipse class="cls-16" cx="769.61" cy="552.8" rx="3.77" ry="3.2" transform="matrix(0.01, -1, 1, 0.01, 212.36, 1319.19)"/>
            <ellipse class="cls-16" cx="806.44" cy="559.19" rx="3.77" ry="3.2" transform="translate(242.59 1362.38) rotate(-89.67)"/>
            <ellipse class="cls-16" cx="843.65" cy="558.53" rx="3.77" ry="3.2" transform="translate(280.24 1398.93) rotate(-89.67)"/>
            <ellipse class="cls-16" cx="871.92" cy="558.03" rx="3.77" ry="3.2" transform="translate(308.85 1426.71) rotate(-89.67)"/>
            <ellipse class="cls-16" cx="910.89" cy="562.84" rx="3.77" ry="3.2" transform="translate(342.78 1470.45) rotate(-89.67)"/>
            <ellipse class="cls-16" cx="954.96" cy="561.14" rx="3.77" ry="3.2" transform="translate(388.29 1512.84) rotate(-89.67)"/>
            <ellipse class="cls-16" cx="995.13" cy="562.27" rx="3.77" ry="3.2" transform="translate(427.11 1554.13) rotate(-89.67)"/>
          </g>
          <g>
            <polygon class="cls-13" points="309.01 537.03 656.87 549.83 655.81 558.62 309.01 547.82 309.01 537.03"/>
            <polygon class="cls-14" points="324.86 528.07 344.12 528.44 346.42 531.89 345.27 599.9 323.6 602.47 324.86 528.07"/>
            <polygon class="cls-14" points="408.61 531.4 425.5 531.72 427.91 568.99 427.21 609.81 405.98 606.72 408.61 531.4"/>
            <polygon class="cls-14" points="507.31 529.33 529.61 529.76 530.61 610.29 510.99 611.44 507.31 529.33"/>
            <path class="cls-14" d="M630.84,533.05s7.57-8,19.62-1.24c0,0,5.13,56.05,4.65,84.82l-19.65,2.86S629.26,546.4,630.84,533.05Z"/>
            <polygon class="cls-15" points="324.86 528.07 341.95 530.1 344.36 534.1 342.58 600.22 345.27 599.9 346.42 531.89 344.12 528.44 324.86 528.07"/>
            <polygon class="cls-15" points="408.61 531.4 421.98 533.37 425.2 567.99 424.49 609.75 427.21 609.81 427.81 567.46 425.5 531.72 408.61 531.4"/>
            <polygon class="cls-15" points="507.31 529.33 527.08 532 528.4 610.25 530.61 610.29 529.61 529.76 507.31 529.33"/>
            <path class="cls-15" d="M632.76,530.59S644,527,650.35,532.26c0,0,4.53,79,4.12,85.14l3-2.15s-.53-42.55-1.65-56.63c-.93-11.62-3.45-29.17-3.45-29.17S642.29,522.22,632.76,530.59Z"/>
            <ellipse class="cls-16" cx="335.36" cy="546.38" rx="3.62" ry="3.2" transform="translate(-213.64 877.45) rotate(-89.55)"/>
            <ellipse class="cls-16" cx="415.11" cy="546.91" rx="3.62" ry="3.2" transform="translate(-135.04 957.71) rotate(-89.55)"/>
            <ellipse class="cls-16" cx="517.42" cy="545.28" rx="3.62" ry="3.2" transform="translate(-31.9 1058.41) rotate(-89.55)"/>
            <ellipse class="cls-16" cx="640.63" cy="549.34" rx="3.62" ry="3.2" transform="translate(86.28 1185.64) rotate(-89.55)"/>
          </g>
          <g>
            <polygon class="cls-13" points="1368.49 571.61 1711.36 586.34 1710.31 596.45 1368.49 584.03 1368.49 571.61"/>
            <polygon class="cls-14" points="1392.38 544.29 1411.63 544.73 1413.94 548.69 1412.79 626.95 1391.12 629.91 1392.38 544.29"/>
            <polygon class="cls-14" points="1476.13 548.13 1493.02 548.5 1495.42 591.38 1494.73 638.35 1473.5 634.8 1476.13 548.13"/>
            <path class="cls-14" d="M1547.43,547.77l-5.38,89.88,17.23.39,8.24-77.53s1.12-7.44-3.54-12.37Z"/>
            <polygon class="cls-15" points="1392.38 544.29 1409.46 546.63 1411.88 551.24 1410.1 627.31 1412.79 626.95 1413.94 548.69 1411.63 544.73 1392.38 544.29"/>
            <polygon class="cls-15" points="1476.13 548.13 1489.5 550.4 1492.72 590.23 1492.01 638.29 1494.73 638.35 1495.33 589.63 1493.02 548.5 1476.13 548.13"/>
            <path class="cls-15" d="M1547.43,547.77l15.38,2.3a21.29,21.29,0,0,1,2.65,11.27c-.27,6.66-7.75,76.66-7.75,76.66l1.57,0,8.12-76.44s1.47-9.54-3.42-13.46Z"/>
            <ellipse class="cls-16" cx="1402.88" cy="579.37" rx="4.16" ry="3.2" transform="translate(818.45 1980.15) rotate(-89.79)"/>
            <ellipse class="cls-16" cx="1482.63" cy="579.97" rx="4.16" ry="3.2" transform="translate(897.3 2060.5) rotate(-89.79)"/>
            <ellipse class="cls-16" cx="1554.66" cy="586.65" rx="4.16" ry="3.2" transform="translate(962.4 2139.19) rotate(-89.79)"/>
          </g>
          <g>
            <g>
              <g>
                <path class="cls-61" d="M837.65,695.41,850.51,692q4.11-36.4,8.2-72.79l-28.34.62Z"/>
                <path class="cls-62" d="M809,617.05l13.11,75.1,15.46,3.22Q835,653.3,832.4,611.22Z"/>
              </g>
              <g>
                <path class="cls-61" d="M1112.2,724.45l12.86-3.43,8.19-72.78-28.33.62Z"/>
                <path class="cls-62" d="M1083.53,646.1l13.11,75.1,15.45,3.22q-2.58-42.07-5.15-84.15Z"/>
              </g>
              <g>
                <path class="cls-61" d="M1316.41,700.84l12.07-4.61q3.82-35.67,7.65-71.27l-26.58,3Z"/>
                <path class="cls-62" d="M1289.27,627.06q6.23,36.15,12.45,72.16l14.59,1.6q-2.43-40.68-4.85-81.41Z"/>
              </g>
              <g>
                <path class="cls-3" d="M789.73,401.15Q807.79,517.6,825.65,632.8l277.66,32.68q21.24-120.36,42.8-242.47L947.9,217.65Z"/>
                <g class="cls-63">
                  <g>
                    <polygon class="cls-64" points="1427.22 124.42 1427.19 127.54 605.84 115.69 605.69 112.76 1427.22 124.42"/>
                    <polygon class="cls-64" points="1426.8 163.54 1426.76 167.23 607.4 149.87 607.26 146.67 1426.8 163.54"/>
                    <polygon class="cls-64" points="1426.38 203.04 1426.34 206.7 608.97 184.17 608.83 180.98 1426.38 203.04"/>
                    <polygon class="cls-64" points="1425.95 242.31 1425.92 245.96 610.53 218.31 610.38 215.14 1425.95 242.31"/>
                    <polygon class="cls-64" points="1425.54 281.38 1425.5 285 612.08 252.29 611.93 249.14 1425.54 281.38"/>
                    <polygon class="cls-64" points="1425.12 320.23 1425.08 323.84 613.62 286.11 613.48 282.97 1425.12 320.23"/>
                    <polygon class="cls-64" points="1424.7 358.88 1424.67 362.46 615.16 319.78 615.01 316.65 1424.7 358.88"/>
                    <polygon class="cls-64" points="1424.29 397.32 1424.26 400.88 616.68 353.28 616.54 350.17 1424.29 397.32"/>
                    <polygon class="cls-64" points="1423.88 435.55 1423.85 439.1 618.21 386.63 618.07 383.54 1423.88 435.55"/>
                    <polygon class="cls-64" points="1423.47 473.58 1423.44 477.11 619.72 419.83 619.58 416.75 1423.47 473.58"/>
                    <polygon class="cls-64" points="1423.07 511.4 1423.03 514.91 621.23 452.87 621.09 449.81 1423.07 511.4"/>
                    <polygon class="cls-64" points="1422.67 549.03 1422.63 552.52 622.73 485.76 622.59 482.71 1422.67 549.03"/>
                    <polygon class="cls-64" points="1422.27 586.46 1422.23 589.93 624.22 518.5 624.09 515.46 1422.27 586.46"/>
                    <polygon class="cls-64" points="1421.87 623.68 1421.83 627.14 625.71 551.09 625.58 548.07 1421.87 623.68"/>
                    <polygon class="cls-64" points="1421.47 660.72 1421.43 664.15 627.19 583.53 627.06 580.52 1421.47 660.72"/>
                    <polygon class="cls-64" points="1421.07 697.56 1421.04 700.97 628.66 615.82 628.53 612.82 1421.07 697.56"/>
                    <polygon class="cls-64" points="1420.68 734.2 1420.64 737.6 630.13 647.96 630 644.98 1420.68 734.2"/>
                    <polygon class="cls-64" points="1420.29 770.66 1420.25 774.04 631.59 679.96 631.46 676.99 1420.29 770.66"/>
                    <polygon class="cls-64" points="1419.9 806.92 1419.87 810.28 633.04 711.81 632.91 708.85 1419.9 806.92"/>
                    <polygon class="cls-64" points="1419.51 843 1419.48 846.34 634.49 743.51 634.36 740.57 1419.51 843"/>
                    <polygon class="cls-64" points="1419.13 878.89 1419.09 882.21 635.93 775.08 635.8 772.15 1419.13 878.89"/>
                  </g>
                </g>
              </g>
              <polygon class="cls-65" points="890.7 399.95 986.94 402 986.94 417.21 890.7 410.51 890.7 399.95"/>
              <g>
                <path class="cls-2" d="M1378.81,412.15l-232.61,1.91-46.11,253.67,242.58-18.51Q1360.75,530.69,1378.81,412.15Z"/>
                <g class="cls-66">
                  <g>
                    <polygon class="cls-18" points="1801.3 -0.63 1801.23 2.59 980.81 -70.87 980.63 -74.74 1801.3 -0.63"/>
                    <polygon class="cls-18" points="1800.61 33.85 1800.55 37.05 982.78 -29.38 982.6 -33.23 1800.61 33.85"/>
                    <polygon class="cls-18" points="1799.92 68.14 1799.86 71.32 984.73 11.82 984.55 8 1799.92 68.14"/>
                    <polygon class="cls-18" points="1799.25 102.23 1799.18 105.39 986.66 52.74 986.49 48.95 1799.25 102.23"/>
                    <polygon class="cls-18" points="1798.57 136.13 1798.51 139.28 988.59 93.39 988.41 89.63 1798.57 136.13"/>
                    <polygon class="cls-18" points="1797.9 169.84 1797.84 172.97 990.5 133.77 990.32 130.03 1797.9 169.84"/>
                    <polygon class="cls-18" points="1797.23 203.36 1797.17 206.47 992.39 173.88 992.22 170.16 1797.23 203.36"/>
                    <polygon class="cls-18" points="1796.57 236.7 1796.51 239.79 994.28 213.72 994.11 210.03 1796.57 236.7"/>
                    <polygon class="cls-18" points="1795.91 269.85 1795.85 272.92 996.15 253.3 995.98 249.63 1795.91 269.85"/>
                    <polygon class="cls-18" points="1795.25 302.81 1795.19 305.87 998.01 292.62 997.84 288.97 1795.25 302.81"/>
                    <polygon class="cls-18" points="1794.6 335.59 1794.54 338.63 999.86 331.67 999.69 328.05 1794.6 335.59"/>
                    <polygon class="cls-18" points="1793.95 368.19 1793.89 371.22 1001.7 370.47 1001.53 366.88 1793.95 368.19"/>
                    <polygon class="cls-18" points="1793.3 400.62 1793.24 403.62 1003.52 409.02 1003.35 405.44 1793.3 400.62"/>
                    <polygon class="cls-18" points="1792.66 432.86 1792.6 435.85 1005.33 447.31 1005.17 443.76 1792.66 432.86"/>
                    <polygon class="cls-18" points="1792.02 464.93 1791.96 467.9 1007.13 485.36 1006.97 481.83 1792.02 464.93"/>
                    <polygon class="cls-18" points="1791.38 496.82 1791.33 499.78 1008.92 523.16 1008.76 519.66 1791.38 496.82"/>
                    <polygon class="cls-18" points="1790.75 528.54 1790.69 531.48 1010.7 560.72 1010.53 557.23 1790.75 528.54"/>
                    <polygon class="cls-18" points="1790.13 560.09 1790.07 563.01 1012.46 598.03 1012.3 594.57 1790.13 560.09"/>
                    <polygon class="cls-18" points="1789.5 591.46 1789.44 594.37 1014.22 635.11 1014.06 631.67 1789.5 591.46"/>
                  </g>
                </g>
              </g>
              <path class="cls-32" d="M1394.79,416.58q-20.3,117-40.85,235.43l-19.41,1.41L1360.21,498q8.05-48.75,16.1-97.51Z"/>
              <g>
                <polygon class="cls-67" points="981.92 608.76 884.79 597.2 883.37 408.19 977.4 410.91 981.92 608.76"/>
                <polygon class="cls-18" points="981.5 592.47 981.89 610.3 884.15 598.61 884.03 581.59 981.5 592.47"/>
                <g>
                  <polygon class="cls-18" points="898.04 598.78 884.79 597.2 883.37 408.19 896.22 408.56 898.04 598.78"/>
                  <polygon class="cls-18" points="981.92 608.76 967.6 607.06 963.56 410.51 977.4 410.91 981.92 608.76"/>
                  <polygon class="cls-18" points="977.4 410.91 977.75 427.74 882.87 424.26 882.75 408.17 977.4 410.91"/>
                </g>
              </g>
              <path class="cls-68" d="M894.27,402.5c-27,14.27-54,27.88-80.93,41.76l87.48,4.29c27-14.63,54.08-28.85,81.23-44Z"/>
              <polygon class="cls-69" points="815.13 443.14 815.25 453.28 901.55 457.9 901.46 447.78 815.13 443.14"/>
              <path class="cls-70" d="M983.08,403.75c-27.25,14.72-54.35,29.4-81.62,44l.09,10.16,81.23-43.38C982.87,411,983,407.36,983.08,403.75Z"/>
              <path class="cls-32" d="M789.73,401.17a.85.85,0,0,0-.65-.36l-12.34-.29q14,72.28,25.79,148.82,6.48,42.4,11.78,83.36l11.34.12Z"/>
              <path class="cls-71" d="M797.77,630.93l18.82,1.8Q797.33,517,777.87,400L763.53,426.4Q780.74,529.14,797.77,630.93Z"/>
              <path class="cls-72" d="M772.93,473.72,975.28,275l-32-38.34Q853.6,331.9,763.93,427.13Z"/>
              <polygon class="cls-71" points="1142.91 414.88 1098.4 671.81 1077.28 668.77 1122.66 396.46 1142.91 414.88"/>
              <polygon class="cls-32" points="1098.05 671.35 1117.79 671.35 1130.42 599.3 1162.72 415.03 1140.28 414.09 1098.05 671.35"/>
              <path class="cls-72" d="M1384.73,474.81l-256,10q3.77-22.35,7.54-44.71l253,7.3Z"/>
              <path class="cls-68" d="M1211.67,214,929.4,207.49Q982.23,262.86,1035.34,318q58.2,60.39,116.69,120.47L1421.78,440c-6.65-7.15-55.26-59.51-110.56-119C1261.46,267.47,1217.06,219.75,1211.67,214Z"/>
              <path class="cls-71" d="M934.11,218.17,730.78,426.74q-1.23-6.63-2.47-13.27L930.62,207.06Z"/>
              <path class="cls-73" d="M730.68,426.19l33.25.94L947.51,241.28l-18-19.45Z"/>
              <path class="cls-71" d="M925.06,222.32,1147.28,455.5q3.69-8.53,7.36-17.07-112-115.68-224-231.37Q927.85,214.7,925.06,222.32Z"/>
              <path class="cls-74" d="M1421.78,440l-12,16.39-262.51-.89,7.36-17.07Z"/>
              <polygon class="cls-70" points="822.24 616 1081.34 645 1078.32 663 825.25 631 822.24 616"/>
              <polygon class="cls-32" points="821.94 617.67 1081.34 646 1078.32 662.54 825.65 632.82 821.94 617.67"/>
              <polygon class="cls-70" points="865.62 591.22 984.93 604.65 984.93 627.07 865.62 612.58 865.62 591.22"/>
              <polygon class="cls-69" points="869.66 597.19 978.08 607.77 978.08 625.46 869.66 614.03 869.66 597.19"/>
              <path class="cls-75" d="M879.35,601.05,690.58,776.14l98.27,11.46L971.48,609.79Z"/>
              <g>
                <path class="cls-76" d="M878,627l-13.27,4.17q-.27,3.86-.52,7.71l55.55,6.27,14.84-12.7q-.21-3.78-.41-7.55Z"/>
                <path class="cls-77" d="M878.09,619.05l-13.8,11.88,55.56,6.26,14.83-12.7Z"/>
              </g>
              <g>
                <path class="cls-76" d="M838,661.14l-13.28,4.17q-.26,3.86-.52,7.71l55.56,6.26,14.83-12.7c-.13-2.51-.27-5-.41-7.54Z"/>
                <path class="cls-77" d="M838.05,653.2l-13.79,11.89,55.55,6.26,14.84-12.7Z"/>
              </g>
              <g>
                <path class="cls-76" d="M797.05,701.46l-13.27,4.17c-.18,2.57-.35,5.15-.52,7.72l55.55,6.26,14.84-12.7c-.14-2.52-.28-5-.41-7.55Z"/>
                <path class="cls-77" d="M797.1,693.53l-13.8,11.88,55.56,6.26L853.69,699Z"/>
              </g>
              <g>
                <path class="cls-76" d="M753.85,741.48l-13.25,4.25q-.24,3.85-.47,7.71l55.58,5.95,14.77-12.78-.45-7.55Z"/>
                <path class="cls-77" d="M753.85,733.55l-13.72,12,55.58,6,14.77-12.79Z"/>
              </g>
              <g>
                <g>
                  <path class="cls-78" d="M609.76,870.19c1.8.33,2,1.46.68,1.78a7.58,7.58,0,0,1-3.73-.36c-.07,0-1.37-.57-.67-1.07A6.64,6.64,0,0,1,609.76,870.19Z"/>
                  <path class="cls-78" d="M589.62,869.69c1.4.26,1.52,1.14.53,1.39a6,6,0,0,1-2.89-.28c-.06,0-1.07-.45-.53-.83A5.18,5.18,0,0,1,589.62,869.69Z"/>
                  <path class="cls-78" d="M600.62,865.66c.9.16,1,.73.34.89a3.82,3.82,0,0,1-1.86-.18s-.69-.29-.34-.54A3.33,3.33,0,0,1,600.62,865.66Z"/>
                </g>
                <g>
                  <path class="cls-78" d="M604.31,879.94c1.81.33,2,1.46.68,1.78a7.53,7.53,0,0,1-3.72-.36c-.07,0-1.38-.58-.68-1.07A6.56,6.56,0,0,1,604.31,879.94Z"/>
                  <path class="cls-78" d="M584.18,879.44c1.4.26,1.51,1.14.52,1.39a6,6,0,0,1-2.89-.28s-1.07-.45-.52-.83A5.09,5.09,0,0,1,584.18,879.44Z"/>
                  <path class="cls-78" d="M595.17,875.4c.91.17,1,.73.34.89a3.82,3.82,0,0,1-1.86-.17s-.69-.29-.34-.54A3.41,3.41,0,0,1,595.17,875.4Z"/>
                </g>
                <g>
                  <path class="cls-78" d="M577.9,875c1.8.33,2,1.46.67,1.78a7.53,7.53,0,0,1-3.72-.36c-.07,0-1.38-.57-.68-1.06A6.58,6.58,0,0,1,577.9,875Z"/>
                  <path class="cls-78" d="M557.76,874.48c1.4.25,1.52,1.13.52,1.38a6,6,0,0,1-2.89-.28s-1.07-.45-.52-.83A5.18,5.18,0,0,1,557.76,874.48Z"/>
                  <path class="cls-78" d="M568.76,870.44c.9.16,1,.73.33.89a3.83,3.83,0,0,1-1.86-.18s-.69-.29-.34-.53A3.26,3.26,0,0,1,568.76,870.44Z"/>
                </g>
                <g>
                  <path class="cls-78" d="M502.72,800.74c1.8.33,2,1.46.68,1.78a7.58,7.58,0,0,1-3.73-.36c-.07,0-1.37-.57-.67-1.06A6.54,6.54,0,0,1,502.72,800.74Z"/>
                  <path class="cls-78" d="M482.58,800.25c1.4.25,1.52,1.13.53,1.38a5.73,5.73,0,0,1-2.89-.28c-.06,0-1.07-.44-.53-.83A5.19,5.19,0,0,1,482.58,800.25Z"/>
                  <path class="cls-78" d="M493.58,796.21c.9.16,1,.73.34.89a3.7,3.7,0,0,1-1.86-.18s-.69-.29-.34-.53A3.23,3.23,0,0,1,493.58,796.21Z"/>
                </g>
                <g>
                  <path class="cls-78" d="M623,857.57c1.81.33,2,1.46.68,1.78a7.53,7.53,0,0,1-3.72-.36c-.07,0-1.38-.57-.68-1.06A6.56,6.56,0,0,1,623,857.57Z"/>
                  <path class="cls-78" d="M602.83,857.08c1.4.25,1.51,1.13.52,1.38a5.85,5.85,0,0,1-2.89-.28c-.05,0-1.07-.44-.52-.83A5.18,5.18,0,0,1,602.83,857.08Z"/>
                  <path class="cls-78" d="M613.83,853c.9.16,1,.73.33.89a3.71,3.71,0,0,1-1.86-.18s-.69-.29-.34-.53A3.26,3.26,0,0,1,613.83,853Z"/>
                </g>
                <g>
                  <path class="cls-78" d="M601.63,846.6c1.81.33,2,1.46.68,1.78a7.53,7.53,0,0,1-3.72-.36c-.08,0-1.38-.58-.68-1.07A6.56,6.56,0,0,1,601.63,846.6Z"/>
                  <path class="cls-78" d="M581.49,846.1c1.4.26,1.52,1.14.53,1.39a6,6,0,0,1-2.89-.28c-.06,0-1.07-.45-.52-.83A5.15,5.15,0,0,1,581.49,846.1Z"/>
                  <path class="cls-78" d="M592.49,842.06c.91.17,1,.74.34.9a3.83,3.83,0,0,1-1.86-.18s-.69-.29-.34-.54A3.41,3.41,0,0,1,592.49,842.06Z"/>
                </g>
                <g>
                  <path class="cls-78" d="M729.22,801.33c1.81.33,2,1.47.68,1.78a7.53,7.53,0,0,1-3.72-.35c-.07,0-1.38-.58-.68-1.07A6.64,6.64,0,0,1,729.22,801.33Z"/>
                  <path class="cls-78" d="M709.08,800.84c1.4.26,1.52,1.14.53,1.38a5.84,5.84,0,0,1-2.89-.27c-.05,0-1.07-.45-.52-.83A5.06,5.06,0,0,1,709.08,800.84Z"/>
                  <path class="cls-78" d="M720.08,796.8c.91.17,1,.73.34.89a3.71,3.71,0,0,1-1.86-.18s-.69-.28-.34-.53A3.32,3.32,0,0,1,720.08,796.8Z"/>
                </g>
                <g>
                  <path class="cls-78" d="M701,817.74c1.8.33,2,1.46.67,1.78a7.53,7.53,0,0,1-3.72-.36c-.07,0-1.38-.58-.68-1.07A6.59,6.59,0,0,1,701,817.74Z"/>
                  <path class="cls-78" d="M680.82,802.53c1.39.25,1.51,1.13.52,1.38a6,6,0,0,1-2.89-.28c-.05,0-1.07-.45-.52-.83A5.18,5.18,0,0,1,680.82,802.53Z"/>
                  <path class="cls-78" d="M694.57,806.27c.9.17,1,.73.34.89a3.81,3.81,0,0,1-1.86-.17s-.69-.29-.34-.54A3.41,3.41,0,0,1,694.57,806.27Z"/>
                </g>
                <g>
                  <path class="cls-78" d="M523.23,799.49c1.8.33,2,1.47.68,1.78a7.58,7.58,0,0,1-3.73-.35c-.07,0-1.37-.58-.67-1.07A6.63,6.63,0,0,1,523.23,799.49Z"/>
                  <path class="cls-78" d="M503.06,784.29c1.4.25,1.52,1.13.52,1.38a5.93,5.93,0,0,1-2.88-.28c-.06,0-1.07-.45-.53-.83A5.09,5.09,0,0,1,503.06,784.29Z"/>
                  <path class="cls-78" d="M516.81,788c.9.17,1,.73.34.89a3.71,3.71,0,0,1-1.86-.18s-.69-.28-.34-.53A3.32,3.32,0,0,1,516.81,788Z"/>
                </g>
              </g>
              <polygon class="cls-70" points="971.53 609.84 788.81 787.55 789.68 797.7 971.52 619.46 971.53 609.84"/>
              <polygon class="cls-69" points="690.58 776.14 788.85 787.6 789.73 797.74 692.6 784.98 690.58 776.14"/>
              <line class="cls-79" x1="981.95" y1="260.08" x2="1255.97" y2="260.08"/>
              <path class="cls-79" d="M1302.79,311.93l-265.14,5.57"/>
              <line class="cls-79" x1="1083.53" y1="364.98" x2="1343" y2="355.2"/>
              <line class="cls-79" x1="1125.35" y1="408.19" x2="1384.84" y2="399.95"/>
              <polygon class="cls-80" points="930.62 207.06 1211.67 213.96 1218.99 221.83 939.1 217.65 930.62 207.06"/>
              <line class="cls-79" x1="1001.48" y1="217.69" x2="1217.92" y2="437.86"/>
              <line class="cls-79" x1="1077.72" y1="218.02" x2="1282.7" y2="438.08"/>
              <polygon class="cls-67" points="1219.68 521.69 1292.06 519.51 1283.33 571.74 1210.59 576.62 1219.68 521.69"/>
            </g>
            <g>
              <path class="cls-30" d="M1282.06,515.18C1278,534,1273,552,1268.29,570.7"/>
              <path class="cls-30" d="M1287.43,514.36C1283,533,1278,552,1273.5,570.52"/>
              <path class="cls-30" d="M1292.57,516.48C1287,534,1284,552,1279.26,570.13"/>
              <path class="cls-30" d="M1300.83,512.31C1296,531,1292,551,1286.49,570.12"/>
              <path class="cls-30" d="M1268.61,517.68c-5.61,18.32-8.61,36.32-12.75,54"/>
              <path class="cls-30" d="M1225.71,524.25C1221,541,1218,559,1213.56,575.67"/>
              <path class="cls-30" d="M1220.48,525.82q-5.22,25.77-12,50.93"/>
              <path class="cls-30" d="M1261.46,518.77C1257,537,1253,554,1248.86,572.07"/>
              <path class="cls-30" d="M1230.18,523.57l-9.07,38.37L1218,575"/>
              <path class="cls-30" d="M1235.55,522.74C1231,540,1228,557,1223.33,574.41"/>
              <path class="cls-30" d="M1241.8,521.79l-9.19,38.86-3.08,13"/>
              <path class="cls-30" d="M1248.06,520.83C1244,538,1240,556,1235.67,573.21"/>
              <path class="cls-30" d="M1254.31,519.87C1251,538,1245,555,1241.82,572.72"/>
              <path class="cls-30" d="M1275.81,516.14c-4.81,17.86-8.81,36.86-13.64,55"/>
            </g>
            <path class="cls-74" d="M1212.32,514.65l-12.48,63.78,89.09-2.81,11.19-63S1213.9,515,1212.32,514.65Zm69,56.09L1209.64,573l10-51.31c1.27.28,70.64-1.61,70.64-1.61Z"/>
            <g>
              <line class="cls-81" x1="1218.47" y1="520.65" x2="1301.27" y2="517.65"/>
              <line class="cls-81" x1="1215.86" y1="529.65" x2="1298.57" y2="526.93"/>
              <line class="cls-81" x1="1212.97" y1="539.65" x2="1294.22" y2="537.65"/>
              <line class="cls-81" x1="1210.08" y1="549.65" x2="1291.77" y2="546.73"/>
              <line class="cls-81" x1="1207.39" y1="561.65" x2="1287.81" y2="558.15"/>
              <line class="cls-81" x1="1204.22" y1="571.61" x2="1285.44" y2="567.65"/>
            </g>
            <path class="cls-32" d="M1215,514.65l-12.49,63.78,89.1-2.81,11.19-63S1216.56,515,1215,514.65Zm69,56.09L1212.31,573l10-51.31c1.27.28,70.63-1.61,70.63-1.61Z"/>
            <line class="cls-79" x1="1158.58" y1="221.83" x2="1352.45" y2="441.57"/>
          </g>
          <g>
            <path class="cls-82" d="M1120.54,733.5s26-3.94,25.28-14.76S1120.54,733.5,1120.54,733.5Z"/>
            <path class="cls-82" d="M1115.48,737.87s14.45-27,25.28-33.93-18.78-7.44-25.28,20.87Z"/>
            <path class="cls-82" d="M1114.4,734.22s7.29-21-19.87-22.12C1082.25,711.61,1114.4,734.22,1114.4,734.22Z"/>
          </g>
          <g>
            <path class="cls-83" d="M1347.82,697.64s8.64-5.83,25.31-7.27-17.9-7.66-30.25,7.27C1342.88,697.64,1337.32,704.27,1347.82,697.64Z"/>
            <path class="cls-83" d="M1324.35,698.47s25.32-18.66,40.14-23.64-14.2-5.39-34,10.16C1330.53,685,1320.65,694.32,1324.35,698.47Z"/>
            <path class="cls-83" d="M1316.94,698.47s16.82-30.27,24.47-34-12.12-5.81-24.47,18.86C1316.94,683.33,1312,696.4,1316.94,698.47Z"/>
            <path class="cls-83" d="M1308,698.47s6.48-27.78,12.66-31.93S1297.18,671.1,1308,698.47Z"/>
            <path class="cls-83" d="M1304.28,698.47s.31-23.15-13-26.71S1299,686.86,1304.28,698.47Z"/>
            <path class="cls-83" d="M1300,698.47s-8.34-26.52-28.71-27.15S1287.3,681.05,1300,698.47Z"/>
            <path class="cls-83" d="M1298.21,698.47s-10.91-10.78-29.43-10S1293.68,695.15,1298.21,698.47Z"/>
          </g>
          <g>
            <path class="cls-84" d="M691.82,681.64s8.64-5.83,25.31-7.27-17.9-7.66-30.25,7.27C686.88,681.64,681.32,688.27,691.82,681.64Z"/>
            <path class="cls-84" d="M668.35,682.47s25.32-18.66,40.14-23.64-14.2-5.39-34,10.16C674.53,669,664.65,678.32,668.35,682.47Z"/>
            <path class="cls-84" d="M660.94,682.47s16.82-30.27,24.47-34-12.12-5.81-24.47,18.86C660.94,667.33,656,680.4,660.94,682.47Z"/>
            <path class="cls-84" d="M652,682.47s6.48-27.78,12.66-31.93S641.18,655.1,652,682.47Z"/>
            <path class="cls-84" d="M648.28,682.47s.31-23.15-13-26.71S643,670.86,648.28,682.47Z"/>
            <path class="cls-84" d="M644,682.47s-8.34-26.52-28.71-27.15S631.3,665.05,644,682.47Z"/>
            <path class="cls-84" d="M642.21,682.47s-10.91-10.78-29.43-10S637.68,679.15,642.21,682.47Z"/>
          </g>
          <g>
            <path class="cls-85" d="M663.65,618.8s7.26-5.53,21.28-6.89-15-7.25-25.44,6.89C659.49,618.8,654.82,625.08,663.65,618.8Z"/>
            <path class="cls-85" d="M643.92,619.58s21.28-17.67,33.74-22.39-11.94-5.1-28.55,9.63C649.11,606.82,640.81,615.65,643.92,619.58Z"/>
            <path class="cls-85" d="M637.69,619.58s14.14-28.67,20.57-32.21-10.18-5.5-20.57,17.87C637.69,605.24,633.54,617.62,637.69,619.58Z"/>
            <path class="cls-85" d="M630.17,619.58s5.45-26.32,10.64-30.24S621.08,593.66,630.17,619.58Z"/>
            <path class="cls-85" d="M627.05,619.58s.26-21.92-10.9-25.3S622.64,608.58,627.05,619.58Z"/>
            <path class="cls-85" d="M623.42,619.58s-9-9-26.13-9.58S612.78,603.08,623.42,619.58Z"/>
            <path class="cls-85" d="M622,619.58a32.77,32.77,0,0,0-24.74-9.43C581.63,610.94,618.14,616.44,622,619.58Z"/>
          </g>
          <g>
            <polygon class="cls-86" points="940.74 217 1001.49 217.69 1043.18 260 981.92 260 940.74 217"/>
            <polygon class="cls-87" points="1098.05 316.9 1145.11 363.79 1211.82 361.98 1170.22 314.72 1098.05 316.9"/>
            <polyline class="cls-87" points="1317.9 402.08 1352.45 440.08 1421.28 440.5 1384.84 400.52 1314.89 400.52"/>
            <polygon class="cls-86" points="1187.09 406.5 1249.98 404.55 1283.13 439.19 1218.2 439.19 1187.09 406.5"/>
            <polygon class="cls-88" points="1239 313 1278.17 357 1343 355.2 1302.84 311.93 1239 313"/>
            <polygon class="cls-86" points="1078.37 218.65 1117.49 260 1191.81 260 1158.66 221 1078.37 218.65"/>
            <polygon class="cls-89" points="1083.53 364.99 1143.86 362.55 1187.09 406.5 1125.36 408.19 1083.53 364.99"/>
            <polygon class="cls-86" points="1191.81 260 1239 313 1302.84 311.93 1255.51 261.09 1191.81 260"/>
            <path class="cls-90" d="M940.74,218.64l213.9,219.44,267.14,3.49S1302.14,365.4,1252,355.2s-131.18-49.64-134.5-53C1085.35,270,996,216.29,940.74,218.64Z"/>
            <line class="cls-91" x1="949.72" y1="403.75" x2="876.47" y2="447.21"/>
            <line class="cls-91" x1="921.47" y1="403.12" x2="843.65" y2="444.67"/>
            <line class="cls-91" x1="878.97" y1="410.51" x2="963.56" y2="414.73"/>
            <line class="cls-91" x1="853.03" y1="423.9" x2="938.69" y2="427.74"/>
            <line class="cls-91" x1="834.41" y1="433.43" x2="919.51" y2="438.08"/>
            <polygon class="cls-87" points="905.59 412 880.49 425 910.98 426.74 933.71 413 905.59 412"/>
            <polygon class="cls-86" points="843.65 444.67 861.41 435 894.24 436.45 876.96 446.92 843.65 444.67"/>
            <polygon class="cls-86" points="878.97 410.51 905.59 412 921.47 403.12 894.27 402.5 878.97 410.51"/>
            <polygon class="cls-87" points="834.41 433.43 861.41 435 880.49 425 853.03 423.9 834.41 433.43"/>
            <polygon class="cls-86" points="933.71 413 949.72 403.75 983.08 403.75 962.83 414.69 933.71 413"/>
            <polygon class="cls-87" points="894.24 436.45 910.98 426.74 938.69 427.74 920.26 438.08 894.24 436.45"/>
            <polygon class="cls-86" points="1043.18 260 1117.49 260 1167.79 314.72 1097.09 314.95 1043.18 260"/>
          </g>
          <polygon class="cls-65" points="981.88 416.86 984.93 604.65 982.05 604.65 977.54 417.36 981.88 416.86"/>
          <polygon class="cls-70" points="1119.09 666.52 1334.54 651.42 1337.16 635.49 1121.27 649.47 1119.09 666.52"/>
          <polygon class="cls-32" points="1119.09 668.52 1334.54 653.42 1337.16 637.49 1121.27 651.47 1119.09 668.52"/>
          <path class="cls-92" d="M-20,850.94c52.39-2.52,129.31-4.76,222.27-2C340,853,441.3,865.93,462.76,868.49c129.16,15.41,436.83,21.66,1156.07-4.56q2.06,23.49,4.1,47-789.45,25-1577.4,2c-21.85-.64-34.66,11.73-56.52,11C-11,904-20,870.93-20,850.94Z"/>
          <g>
            <path class="cls-92" d="M253.41,848s14.34-9.48,42-11.82S265.7,823.68,245.22,848C245.22,848,236,858.74,253.41,848Z"/>
            <path class="cls-92" d="M214.49,849.3s42-30.33,66.58-38.42-23.56-8.77-56.34,16.51C224.73,827.39,208.34,842.56,214.49,849.3Z"/>
            <path class="cls-92" d="M202.2,849.3s27.9-49.21,40.58-55.28-20.1-9.43-40.58,30.68C202.2,824.7,194,845.93,202.2,849.3Z"/>
            <path class="cls-92" d="M187.34,849.3s10.76-45.16,21-51.91S169.42,804.81,187.34,849.3Z"/>
            <path class="cls-92" d="M181.2,849.3s.51-37.63-21.51-43.42S172.49,830.43,181.2,849.3Z"/>
            <path class="cls-92" d="M174,849.3s-13.83-43.12-47.63-44.14S153,821,174,849.3Z"/>
            <path class="cls-92" d="M171.13,849.3S153,831.77,122.3,833.12,163.61,843.91,171.13,849.3Z"/>
          </g>
          <g>
            <path class="cls-92" d="M1462.07,886.94s14.34-9.48,42-11.82-29.7-12.45-50.19,11.82C1453.87,886.94,1444.65,897.73,1462.07,886.94Z"/>
            <path class="cls-92" d="M1423.14,888.29s42-30.34,66.58-38.43-23.56-8.76-56.33,16.52C1433.39,866.38,1417,881.55,1423.14,888.29Z"/>
            <path class="cls-92" d="M1410.85,888.29s27.9-49.21,40.58-55.28-20.09-9.44-40.58,30.67C1410.85,863.68,1402.66,884.92,1410.85,888.29Z"/>
            <path class="cls-92" d="M1396,888.29s10.76-45.17,21-51.91S1378.08,843.8,1396,888.29Z"/>
            <path class="cls-92" d="M1389.85,888.29s.52-37.63-21.51-43.42S1381.15,869.41,1389.85,888.29Z"/>
            <path class="cls-92" d="M1382.68,888.29s-13.82-43.12-47.62-44.14S1361.69,860,1382.68,888.29Z"/>
            <path class="cls-92" d="M1379.78,888.29s-18.09-17.53-48.82-16.18S1372.27,882.9,1379.78,888.29Z"/>
          </g>
          <path class="cls-85" d="M-8.23,590.28c94.42,4.61,170.67,7.22,220.89,8.72,172.24,5.15,182.39,1.56,278.18,8,62.58,4.21,125.31,6.45,187.79,12a904.67,904.67,0,0,0,103.09,3.44c6.19-.14,11.25-.32,14.41-.44q.82,6.46,1.64,12.93l-795.35-23Z"/>
          <g>
            <path class="cls-85" d="M133,597.66s6.8-3.83,19.93-4.77-14.1-5-23.82,4.77C129.09,597.66,124.71,602,133,597.66Z"/>
            <path class="cls-85" d="M114.5,598.2s19.94-12.23,31.61-15.5-11.19-3.53-26.75,6.66C119.36,589.36,111.58,595.48,114.5,598.2Z"/>
            <path class="cls-85" d="M108.66,598.2s13.25-19.85,19.27-22.29-9.54-3.81-19.27,12.37C108.66,588.28,104.77,596.84,108.66,598.2Z"/>
            <path class="cls-85" d="M101.61,598.2s5.11-18.21,10-20.93S93.1,580.26,101.61,598.2Z"/>
            <path class="cls-85" d="M98.7,598.2s.24-15.18-10.22-17.51S94.56,590.59,98.7,598.2Z"/>
            <path class="cls-85" d="M95.29,598.2s-6.56-17.39-22.61-17.8S85.32,586.78,95.29,598.2Z"/>
            <path class="cls-85" d="M93.91,598.2s-8.59-7.07-23.17-6.53S90.35,596,93.91,598.2Z"/>
          </g>
          <ellipse class="cls-59" cx="596.79" cy="673.5" rx="27.62" ry="3.5"/>
          <ellipse class="cls-59" cx="921.16" cy="795.5" rx="27.62" ry="3.5"/>
          <ellipse class="cls-59" cx="1011.54" cy="769.5" rx="27.62" ry="3.5"/>
          <path class="cls-93" d="M357.81,158.91s1.64-11.54,22.49-19.44,38.4-12.15,56.51-3,14.26,29.77,10.42,32.2c-7.46,4.71-23.51,10.91-66.38,4.86C355.07,169.84,357.81,158.91,357.81,158.91Z"/>
          <ellipse class="cls-33" cx="466.5" cy="776.5" rx="19.5" ry="3.5"/>
          <ellipse class="cls-33" cx="542.5" cy="796.5" rx="19.5" ry="3.5"/>
          <ellipse class="cls-31" cx="482.5" cy="698.5" rx="11.5" ry="1.5"/>
          <ellipse class="cls-31" cx="557" cy="737.03" rx="21" ry="3.97"/>
          <rect class="cls-1" width="1600" height="900"/>
        </g>
      </g>
    </g>
  </g>
</svg>
