<svg id="Layer_1" data-name="Layer 1" xmlns="http://www.w3.org/2000/svg" xmlns:xlink="http://www.w3.org/1999/xlink" width="1600" height="900" viewBox="0 0 1600 900">
  <defs>
    <style>
      .cls-1 {
        fill: none;
      }

      .cls-2 {
        clip-path: url(#clip-path);
      }

      .cls-3 {
        clip-path: url(#clip-path-2);
      }

      .cls-4 {
        fill: url(#Áåçûìÿííûé_ãðàäèåíò_6);
      }

      .cls-5 {
        fill: url(#Áåçûìÿííûé_ãðàäèåíò_55);
      }

      .cls-6 {
        fill: #e9cc74;
      }

      .cls-7 {
        fill: #e9c15d;
      }

      .cls-8 {
        fill: url(#Áåçûìÿííûé_ãðàäèåíò_21);
      }

      .cls-49, .cls-50, .cls-89, .cls-9 {
        fill: #542b0e;
      }

      .cls-10 {
        fill: url(#Áåçûìÿííûé_ãðàäèåíò_43);
      }

      .cls-11 {
        fill: url(#Áåçûìÿííûé_ãðàäèåíò_42);
      }

      .cls-12 {
        fill: url(#Áåçûìÿííûé_ãðàäèåíò_42-2);
      }

      .cls-13 {
        fill: url(#Áåçûìÿííûé_ãðàäèåíò_42-3);
      }

      .cls-14 {
        fill: url(#Áåçûìÿííûé_ãðàäèåíò_42-4);
      }

      .cls-15 {
        fill: url(#Áåçûìÿííûé_ãðàäèåíò_19);
      }

      .cls-16 {
        fill: #a3672b;
      }

      .cls-17 {
        fill: url(#Áåçûìÿííûé_ãðàäèåíò_12);
      }

      .cls-18, .cls-22, .cls-23 {
        fill: #fff;
      }

      .cls-18, .cls-49 {
        opacity: 0.3;
      }

      .cls-19 {
        clip-path: url(#clip-path-3);
      }

      .cls-20 {
        clip-path: url(#clip-path-4);
      }

      .cls-21 {
        fill: url(#linear-gradient);
      }

      .cls-22 {
        opacity: 0.31;
      }

      .cls-23 {
        opacity: 0.54;
      }

      .cls-24 {
        fill: #a4c93d;
      }

      .cls-25 {
        fill: #1f7c77;
        opacity: 0.36;
      }

      .cls-26 {
        fill: url(#linear-gradient-2);
      }

      .cls-27, .cls-62 {
        opacity: 0.22;
      }

      .cls-28 {
        fill: url(#linear-gradient-3);
      }

      .cls-29, .cls-86 {
        opacity: 0.5;
      }

      .cls-30 {
        fill: url(#linear-gradient-4);
      }

      .cls-31 {
        clip-path: url(#clip-path-5);
      }

      .cls-32 {
        clip-path: url(#clip-path-6);
      }

      .cls-33 {
        fill: #2a6b2a;
      }

      .cls-34 {
        fill: #229f49;
      }

      .cls-35 {
        clip-path: url(#clip-path-7);
      }

      .cls-36 {
        fill: url(#Áåçûìÿííûé_ãðàäèåíò_6-2);
      }

      .cls-37 {
        fill: url(#Áåçûìÿííûé_ãðàäèåíò_55-2);
      }

      .cls-38 {
        fill: url(#Áåçûìÿííûé_ãðàäèåíò_6-3);
      }

      .cls-39 {
        fill: url(#Áåçûìÿííûé_ãðàäèåíò_42-5);
      }

      .cls-40 {
        fill: url(#Áåçûìÿííûé_ãðàäèåíò_42-6);
      }

      .cls-41 {
        fill: url(#Áåçûìÿííûé_ãðàäèåíò_42-7);
      }

      .cls-42 {
        fill: url(#Áåçûìÿííûé_ãðàäèåíò_42-8);
      }

      .cls-43 {
        fill: url(#Áåçûìÿííûé_ãðàäèåíò_42-9);
      }

      .cls-44 {
        fill: url(#Áåçûìÿííûé_ãðàäèåíò_6-4);
      }

      .cls-45 {
        fill: url(#Áåçûìÿííûé_ãðàäèåíò_21-2);
      }

      .cls-46 {
        fill: url(#Áåçûìÿííûé_ãðàäèåíò_6-5);
      }

      .cls-47 {
        fill: #89572d;
      }

      .cls-48 {
        fill: #b77b43;
      }

      .cls-50 {
        opacity: 0.55;
      }

      .cls-51 {
        fill: url(#Áåçûìÿííûé_ãðàäèåíò_42-10);
      }

      .cls-52 {
        fill: url(#Áåçûìÿííûé_ãðàäèåíò_56);
      }

      .cls-53 {
        fill: #42808d;
      }

      .cls-54 {
        fill: #b46d34;
      }

      .cls-55 {
        fill: #eeb259;
      }

      .cls-56 {
        fill: url(#Áåçûìÿííûé_ãðàäèåíò_17);
      }

      .cls-57 {
        fill: #fffcf9;
        opacity: 0.08;
      }

      .cls-58 {
        fill: #8fb875;
      }

      .cls-59 {
        fill: #809256;
      }

      .cls-60 {
        fill: #627b36;
      }

      .cls-61 {
        fill: #70844c;
      }

      .cls-62 {
        fill: url(#Áåçûìÿííûé_ãðàäèåíò_25);
      }

      .cls-63 {
        fill: #a46c3c;
      }

      .cls-64 {
        fill: #864d20;
      }

      .cls-65 {
        fill: #945a25;
      }

      .cls-66 {
        fill: #ecbd59;
      }

      .cls-67 {
        fill: #b46e29;
      }

      .cls-68, .cls-85, .cls-86, .cls-91 {
        fill: #77421b;
      }

      .cls-69 {
        fill: #985825;
      }

      .cls-70 {
        fill: url(#Áåçûìÿííûé_ãðàäèåíò_43-2);
      }

      .cls-71 {
        fill: url(#Áåçûìÿííûé_ãðàäèåíò_42-11);
      }

      .cls-72 {
        fill: url(#Áåçûìÿííûé_ãðàäèåíò_42-12);
      }

      .cls-73 {
        fill: url(#Áåçûìÿííûé_ãðàäèåíò_42-13);
      }

      .cls-74 {
        fill: url(#Áåçûìÿííûé_ãðàäèåíò_42-14);
      }

      .cls-75 {
        fill: url(#Áåçûìÿííûé_ãðàäèåíò_19-2);
      }

      .cls-76 {
        fill: url(#Áåçûìÿííûé_ãðàäèåíò_12-2);
      }

      .cls-77 {
        fill: #a46427;
      }

      .cls-78 {
        fill: url(#Áåçûìÿííûé_ãðàäèåíò_43-3);
      }

      .cls-79 {
        fill: url(#Áåçûìÿííûé_ãðàäèåíò_19-3);
      }

      .cls-80 {
        fill: url(#Áåçûìÿííûé_ãðàäèåíò_12-3);
      }

      .cls-81 {
        fill: #da9440;
      }

      .cls-82 {
        fill: #eeb24b;
      }

      .cls-83 {
        fill: #ab6c29;
      }

      .cls-84 {
        fill: #e5a44b;
      }

      .cls-85 {
        opacity: 0.32;
      }

      .cls-87 {
        fill: #81481e;
      }

      .cls-88 {
        clip-path: url(#clip-path-8);
      }

      .cls-89 {
        opacity: 0.2;
      }

      .cls-90 {
        fill: #552d12;
      }

      .cls-91 {
        opacity: 0.8;
      }

      .cls-92 {
        fill: #d18839;
      }
    </style>
    <clipPath id="clip-path">
      <rect class="cls-1" x="-1050" width="800" height="900"/>
    </clipPath>
    <clipPath id="clip-path-2">
      <rect class="cls-1" x="-1580" width="1600" height="900"/>
    </clipPath>
    <linearGradient id="Áåçûìÿííûé_ãðàäèåíò_6" data-name="Áåçûìÿííûé ãðàäèåíò 6" x1="-487.33" y1="584.35" x2="137.85" y2="584.35" gradientUnits="userSpaceOnUse">
      <stop offset="0" stop-color="#89572d"/>
      <stop offset="1" stop-color="#5c3818"/>
    </linearGradient>
    <linearGradient id="Áåçûìÿííûé_ãðàäèåíò_55" data-name="Áåçûìÿííûé ãðàäèåíò 55" x1="-757.54" y1="573.26" x2="-755.36" y2="899.28" gradientUnits="userSpaceOnUse">
      <stop offset="0.03" stop-color="#e8e897"/>
      <stop offset="0.58" stop-color="#e3d77f"/>
      <stop offset="0.99" stop-color="#e8ca73"/>
    </linearGradient>
    <linearGradient id="Áåçûìÿííûé_ãðàäèåíò_21" data-name="Áåçûìÿííûé ãðàäèåíò 21" x1="-1610.2" y1="189.76" x2="91.33" y2="189.76" gradientUnits="userSpaceOnUse">
      <stop offset="0" stop-color="#5e391a"/>
      <stop offset="0.17" stop-color="#6c441e"/>
      <stop offset="0.53" stop-color="#80512f"/>
      <stop offset="0.83" stop-color="#724722"/>
      <stop offset="1" stop-color="#5c3818"/>
    </linearGradient>
    <linearGradient id="Áåçûìÿííûé_ãðàäèåíò_43" data-name="Áåçûìÿííûé ãðàäèåíò 43" x1="-435.37" y1="415.45" x2="-106.95" y2="277.21" gradientUnits="userSpaceOnUse">
      <stop offset="0" stop-color="#472815"/>
      <stop offset="1" stop-color="#573217"/>
    </linearGradient>
    <linearGradient id="Áåçûìÿííûé_ãðàäèåíò_42" data-name="Áåçûìÿííûé ãðàäèåíò 42" x1="-916.61" y1="1027.64" x2="-351.46" y2="1027.64" gradientTransform="translate(585.18 -487.15) rotate(9.55)" gradientUnits="userSpaceOnUse">
      <stop offset="0" stop-color="#724722"/>
      <stop offset="1" stop-color="#5c3818"/>
    </linearGradient>
    <linearGradient id="Áåçûìÿííûé_ãðàäèåíò_42-2" x1="-1112.64" y1="1493.81" x2="-547.49" y2="1493.81" gradientTransform="matrix(0.96, 0.27, -0.27, 0.96, 987.33, -737.76)" xlink:href="#Áåçûìÿííûé_ãðàäèåíò_42"/>
    <linearGradient id="Áåçûìÿííûé_ãðàäèåíò_42-3" x1="-1282.22" y1="2091.09" x2="-717.08" y2="2091.09" gradientTransform="translate(1531.92 -989.58) rotate(22.82)" xlink:href="#Áåçûìÿííûé_ãðàäèåíò_42"/>
    <linearGradient id="Áåçûìÿííûé_ãðàäèåíò_42-4" x1="-1369.91" y1="2685.48" x2="-804.76" y2="2685.48" gradientTransform="translate(2082.32 -1166.01) rotate(29.82)" xlink:href="#Áåçûìÿííûé_ãðàäèåíò_42"/>
    <linearGradient id="Áåçûìÿííûé_ãðàäèåíò_19" data-name="Áåçûìÿííûé ãðàäèåíò 19" x1="5510.24" y1="267.37" x2="5470.62" y2="338.13" gradientTransform="matrix(-1, 0, 0, 1, 5251.17, 0)" gradientUnits="userSpaceOnUse">
      <stop offset="0.01" stop-color="#a56c2b"/>
      <stop offset="0.97" stop-color="#945a25"/>
    </linearGradient>
    <linearGradient id="Áåçûìÿííûé_ãðàäèåíò_12" data-name="Áåçûìÿííûé ãðàäèåíò 12" x1="5218.18" y1="272.84" x2="5771.95" y2="272.84" gradientTransform="matrix(-1, 0, 0, 1, 5251.17, 0)" gradientUnits="userSpaceOnUse">
      <stop offset="0.01" stop-color="#d69d4c"/>
      <stop offset="1" stop-color="#eeb24b"/>
    </linearGradient>
    <clipPath id="clip-path-3">
      <rect class="cls-1" x="1850" width="800" height="900"/>
    </clipPath>
    <clipPath id="clip-path-4">
      <rect class="cls-1" x="1450" width="1600" height="900"/>
    </clipPath>
    <linearGradient id="linear-gradient" x1="2247.67" y1="-99.5" x2="2247.67" y2="369.32" gradientUnits="userSpaceOnUse">
      <stop offset="0.01" stop-color="#81a9ff"/>
      <stop offset="0.06" stop-color="#8eb1ff"/>
      <stop offset="0.19" stop-color="#a8c2ff"/>
      <stop offset="0.33" stop-color="#bdd0ff"/>
      <stop offset="0.49" stop-color="#cbd9ff"/>
      <stop offset="0.68" stop-color="#d3deff"/>
      <stop offset="1" stop-color="#d6e0ff"/>
    </linearGradient>
    <linearGradient id="linear-gradient-2" x1="2008.12" y1="-20.32" x2="2457.74" y2="758.43" gradientUnits="userSpaceOnUse">
      <stop offset="0.02" stop-color="#6ba688"/>
      <stop offset="0.59" stop-color="#4c7d7d"/>
      <stop offset="0.7" stop-color="#49797c"/>
      <stop offset="0.82" stop-color="#406c79"/>
      <stop offset="0.93" stop-color="#305673"/>
      <stop offset="1" stop-color="#25476f"/>
    </linearGradient>
    <linearGradient id="linear-gradient-3" x1="2625.58" y1="1671.15" x2="3635.61" y2="1671.15" gradientTransform="matrix(1.58, 0, 0, 1.23, -2640.16, -1525.74)" gradientUnits="userSpaceOnUse">
      <stop offset="0.03" stop-color="#8bc259"/>
      <stop offset="0.21" stop-color="#77b055"/>
      <stop offset="0.53" stop-color="#5a944e"/>
      <stop offset="0.8" stop-color="#478349"/>
      <stop offset="1" stop-color="#417d48"/>
    </linearGradient>
    <linearGradient id="linear-gradient-4" x1="1431.55" y1="879.4" x2="2810.95" y2="879.4" gradientTransform="matrix(1, 0, 0, 1, 0, 0)" xlink:href="#linear-gradient-3"/>
    <clipPath id="clip-path-5">
      <rect class="cls-1" x="800" y="1150" width="800" height="900"/>
    </clipPath>
    <clipPath id="clip-path-6">
      <rect class="cls-1" x="640" y="1150" width="1600" height="900"/>
    </clipPath>
    <clipPath id="clip-path-7">
      <rect class="cls-1" width="1600" height="900"/>
    </clipPath>
    <linearGradient id="Áåçûìÿííûé_ãðàäèåíò_6-2" x1="1092.67" y1="584.35" x2="1717.85" y2="584.35" xlink:href="#Áåçûìÿííûé_ãðàäèåíò_6"/>
    <linearGradient id="Áåçûìÿííûé_ãðàäèåíò_55-2" x1="822.46" y1="573.26" x2="824.64" y2="899.28" xlink:href="#Áåçûìÿííûé_ãðàäèåíò_55"/>
    <linearGradient id="Áåçûìÿííûé_ãðàäèåíò_6-3" x1="9347.82" y1="552.9" x2="9973" y2="552.9" gradientTransform="matrix(-1, 0, 0, 1, 9881.64, 0)" xlink:href="#Áåçûìÿííûé_ãðàäèåíò_6"/>
    <linearGradient id="Áåçûìÿííûé_ãðàäèåíò_42-5" x1="260.15" y1="743.75" x2="-275.55" y2="743.75" gradientTransform="matrix(1.08, 0.19, -0.18, 0.98, 385.22, -363.61)" xlink:href="#Áåçûìÿííûé_ãðàäèåíò_42"/>
    <linearGradient id="Áåçûìÿííûé_ãðàäèåíò_42-6" x1="473.03" y1="-273.1" x2="-62.67" y2="-273.1" gradientTransform="matrix(1.09, 0.1, -0.07, 0.75, -6.26, 615.95)" xlink:href="#Áåçûìÿííûé_ãðàäèåíò_42"/>
    <linearGradient id="Áåçûìÿííûé_ãðàäèåíò_42-7" x1="789.18" y1="-810.53" x2="253.47" y2="-810.53" gradientTransform="matrix(1.11, -0.03, 0.02, 0.69, -326.67, 1070.83)" xlink:href="#Áåçûìÿííûé_ãðàäèåíò_42"/>
    <linearGradient id="Áåçûìÿííûé_ãðàäèåíò_42-8" x1="1107.48" y1="-681.72" x2="571.77" y2="-681.72" gradientTransform="matrix(1.1, -0.16, 0.11, 0.75, -608.34, 1194.31)" xlink:href="#Áåçûìÿííûé_ãðàäèåíò_42"/>
    <linearGradient id="Áåçûìÿííûé_ãðàäèåíò_42-9" x1="1436.57" y1="-965.47" x2="900.86" y2="-965.47" gradientTransform="matrix(1.08, -0.29, 0.19, 0.7, -825.7, 1635.65)" xlink:href="#Áåçûìÿííûé_ãðàäèåíò_42"/>
    <linearGradient id="Áåçûìÿííûé_ãðàäèåíò_6-4" x1="804.26" y1="475.11" x2="804.65" y2="551.59" xlink:href="#Áåçûìÿííûé_ãðàäèåíò_6"/>
    <linearGradient id="Áåçûìÿííûé_ãðàäèåíò_21-2" x1="-30.2" y1="189.76" x2="1671.33" y2="189.76" xlink:href="#Áåçûìÿííûé_ãðàäèåíò_21"/>
    <linearGradient id="Áåçûìÿííûé_ãðàäèåíò_6-5" x1="803.11" y1="227.55" x2="803.67" y2="337.41" xlink:href="#Áåçûìÿííûé_ãðàäèåíò_6"/>
    <linearGradient id="Áåçûìÿííûé_ãðàäèåíò_42-10" x1="810.13" y1="591.88" x2="810.19" y2="577.03" gradientTransform="matrix(1, 0, 0, 1, 0, 0)" xlink:href="#Áåçûìÿííûé_ãðàäèåíò_42"/>
    <linearGradient id="Áåçûìÿííûé_ãðàäèåíò_56" data-name="Áåçûìÿííûé ãðàäèåíò 56" x1="794.67" y1="545.76" x2="801.88" y2="467.76" gradientUnits="userSpaceOnUse">
      <stop offset="0.62" stop-color="#b2c6e6"/>
      <stop offset="1" stop-color="#8ca7d6"/>
    </linearGradient>
    <linearGradient id="Áåçûìÿííûé_ãðàäèåíò_17" data-name="Áåçûìÿííûé ãðàäèåíò 17" x1="876.83" y1="586.41" x2="710.55" y2="522.04" gradientUnits="userSpaceOnUse">
      <stop offset="0" stop-color="#eeb259"/>
      <stop offset="0.49" stop-color="#b4b569"/>
      <stop offset="0.99" stop-color="#72ba7e"/>
    </linearGradient>
    <linearGradient id="Áåçûìÿííûé_ãðàäèåíò_25" data-name="Áåçûìÿííûé ãðàäèåíò 25" x1="685.84" y1="549.05" x2="811.7" y2="576.28" gradientUnits="userSpaceOnUse">
      <stop offset="0"/>
      <stop offset="1" stop-color="#9bb871"/>
    </linearGradient>
    <linearGradient id="Áåçûìÿííûé_ãðàäèåíò_43-2" x1="1144.63" y1="415.45" x2="1473.05" y2="277.21" xlink:href="#Áåçûìÿííûé_ãðàäèåíò_43"/>
    <linearGradient id="Áåçûìÿííûé_ãðàäèåíò_42-11" x1="641.49" y1="765.46" x2="1206.63" y2="765.46" xlink:href="#Áåçûìÿííûé_ãðàäèåíò_42"/>
    <linearGradient id="Áåçûìÿííûé_ãðàäèåíò_42-12" x1="410.3" y1="1073.02" x2="975.45" y2="1073.02" gradientTransform="matrix(0.96, 0.27, -0.27, 0.96, 987.33, -737.76)" xlink:href="#Áåçûìÿííûé_ãðàäèåíò_42"/>
    <linearGradient id="Áåçûìÿííûé_ãðàäèåíò_42-13" x1="174.07" y1="1478.22" x2="739.22" y2="1478.22" gradientTransform="translate(1531.92 -989.58) rotate(22.82)" xlink:href="#Áåçûìÿííûé_ãðàäèåíò_42"/>
    <linearGradient id="Áåçûìÿííûé_ãðàäèåíò_42-14" x1="0.84" y1="1899.69" x2="565.99" y2="1899.69" gradientTransform="translate(2082.32 -1166.01) rotate(29.82)" xlink:href="#Áåçûìÿííûé_ãðàäèåíò_42"/>
    <linearGradient id="Áåçûìÿííûé_ãðàäèåíò_19-2" x1="3930.24" y1="267.37" x2="3890.62" y2="338.13" xlink:href="#Áåçûìÿííûé_ãðàäèåíò_19"/>
    <linearGradient id="Áåçûìÿííûé_ãðàäèåíò_12-2" x1="3638.18" y1="272.84" x2="4191.95" y2="272.84" xlink:href="#Áåçûìÿííûé_ãðàäèåíò_12"/>
    <linearGradient id="Áåçûìÿííûé_ãðàäèåíò_43-3" x1="561.06" y1="443.08" x2="27.42" y2="240.67" xlink:href="#Áåçûìÿííûé_ãðàäèåíò_43"/>
    <linearGradient id="Áåçûìÿííûé_ãðàäèåíò_19-3" x1="281.7" y1="264.46" x2="242.07" y2="335.24" gradientTransform="matrix(1, 0, 0, 1, 0, 0)" xlink:href="#Áåçûìÿííûé_ãðàäèåíò_19"/>
    <linearGradient id="Áåçûìÿííûé_ãðàäèåíò_12-3" x1="-10.26" y1="269.95" x2="543.29" y2="269.95" gradientTransform="matrix(1, 0, 0, 1, 0, 0)" xlink:href="#Áåçûìÿííûé_ãðàäèåíò_12"/>
    <clipPath id="clip-path-8">
      <polygon class="cls-1" points="135.8 626.66 243.05 600.8 231.32 757.54 120.31 809.41 135.8 626.66"/>
    </clipPath>
  </defs>
  <g class="cls-2">
    <g class="cls-3">
      <polygon class="cls-4" points="48.05 256.54 -483.5 433.56 -487.33 626.03 137.85 912.17 48.05 256.54"/>
      <polygon class="cls-5" points="-1558.86 561.12 -503.9 594.1 85.31 902.5 -1596 902.5 -1558.86 561.12"/>
      <path class="cls-6" d="M-692.75,588.28l531.53,329.14,268.78-2.62L85.86,761.23-507.88,587.74Z"/>
      <polygon class="cls-7" points="-507.39 613.04 -557.45 620.87 85.73 921.03 112.35 920.48 113.74 901.58 -507.39 613.04"/>
      <path class="cls-8" d="M57.05-8.08l1.13,166.73L91.33,389l-1701.53-4.62,1.83-393.89q489,1.77,978,2,343.7.13,687.4-.53"/>
      <path class="cls-9" d="M-370.44,249.35,34.53-6.52l-9.59,0L-376.59,250.56Z"/>
      <path class="cls-9" d="M-314.77,250.19,149.73-6.72l-9.61,0L-321.17,251.39Z"/>
      <path class="cls-9" d="M258.23-6.91l-9.61,0-516.4,258.28,6.65-1.2"/>
      <path class="cls-10" d="M34.46,183.84Q39,226.58,43.58,270L-519.28,453.56q-.53-29.43-1.05-58.52Z"/>
      <path class="cls-11" d="M81.51,388-504,475.62l-.21-12.52,585.9-96.85Q81.6,377.13,81.51,388Z"/>
      <path class="cls-12" d="M83.36,478.21l-591.41,27,1.07-12.48L85.78,456.55Q84.57,467.37,83.36,478.21Z"/>
      <path class="cls-13" d="M91.28,585l-590-49.17,2.67-12.24L96.46,563.82Q93.88,574.38,91.28,585Z"/>
      <path class="cls-14" d="M88.85,693.29-490.74,572.58l4.14-11.82L96.57,672.92Q92.72,683.08,88.85,693.29Z"/>
      <g>
        <path class="cls-15" d="M-520.33,395q.15,18.63.28,37.38l555.26-233L29.55,151.7Z"/>
        <path class="cls-16" d="M34.65,194.69l.56,4.74L-520,432.42C-520.06,430.71-146.18,270.51,34.65,194.69Z"/>
      </g>
      <path class="cls-17" d="M-519.87,391q-.45,10.69-.91,21.43L33,180.72l-5.62-47.47Z"/>
      <path class="cls-18" d="M27.36,133.25l-136.5,64.29L-25,160.47l53-22.05Z"/>
    </g>
  </g>
  <g id="SC_05">
    <g class="cls-19">
      <g class="cls-20">
        <rect class="cls-21" x="1441.01" y="-99.5" width="1613.31" height="468.82"/>
        <path class="cls-22" d="M2093.62,179.93c-230.14,51.35-672.14-79.68-913.51-27.42l-2.21,52.16C1350.1,101.5,1794.08,246,2093.62,179.93Z"/>
        <path class="cls-23" d="M2200.4,76.72c-231.79,44-669-101-912.06-56.48l-4,52.06C1460-25.33,1898.74,133.22,2200.4,76.72Z"/>
        <rect class="cls-24" x="1435.2" y="366.03" width="1618.8" height="543.17"/>
        <path class="cls-25" d="M1200.35,332.66s169.17,17.15,421.41-25.22a133.62,133.62,0,0,1,29.51-1.49c33.23,2,110.45,7.18,143.76,14.63l94.28-5.89a256.2,256.2,0,0,1,40.65.69l53.2,5.2,397.4-28.68a459.47,459.47,0,0,1,59.61-.39c42.07,2.48,114.51,6.64,120.14,6.2,8-.61,106.22-8.49,137.11-10.42,29.11-1.81,357.13,11,357.13,11l9.56,71.12-1863.76,8Z"/>
        <path class="cls-26" d="M1415.06,322.08s100.67,64.28,640.94,46.15c543.12-11.54,416.3-79.11,994.8-46.15V416H1415.06Z"/>
        <g class="cls-27">
          <path class="cls-28" d="M1542,535.4c73.82,3.94,98.25,11.33,96.25,12.27s27.24,12.8,138.89,3.62c28.49-2.34,49.1-3.34,64.39-3.53,37.91,3.79,51.28,8.12,49.78,8.83-2,.94,27.24,12.8,138.89,3.62s102.27,2.21,126,2.75,87.18-3.51,87.18-3.51l-.16-2.64c116-9.36,103.37,2,128.06,2.59,23.73.54,87.18-3.52,87.18-3.52l-1-16.4c16.05,2.54,22,4.73,21,5.21-2,.94,27.24,12.8,138.89,3.62,43.32-3.56,68.42-4,84.3-3.23,18.61,2.77,25.47,5.22,24.38,5.74-2,.94,27.23,12.8,138.88,3.62s102.27,2.22,126,2.76,87.17-3.52,87.17-3.52l-2.17-35.87s9.36-17.34,16.26-17.36-7.21-3.23-30.09,11.34c0,0-9.51-13.33-22.94-16.74,0,0,16.93,10.68,1.63,19.62,0,0-5.49-19.56-40.73-30.67,0,0,32.84,20.88,20.78,29.33,0,0-7.6-7-12.5-9.29,0,0,8.33,11.65.46,14,0,0-26.05-20.8-29.82-24.82,0,0,16.18,20.2,10.65,24.89,0,0-15.18-9.29-19.9-13,0,0,5.82,12.25,2.94,11.2-5.08-1.85-13.64-14.11-37.15-17.86,0,0,24.87,9,21.48,15.58,0,0-13.8-8.36-21.62-10.67,0,0,11.64,6.5,7.62,9.32,0,0-29.13-20.76-51.17-23.1,0,0,28.79,12.77,25.65,19.39l-5.09,5.68s-5.79-4.65-9.62-8.37c0,0-3.12-.87-2.2,4.7,2.53,15.34,1-4.52-20.93-15.71,0,0,18,18,8,23.21,0,0-25.19-15.33-36.71-26,0,0,12.13,11.31,4.63,21.5-2.06-2.82-14.93-11.6-15.59-17.56a8,8,0,0,1,4.67-2.06c6.9,0-7.21-3.24-30.1,11.33,0,0-9.5-13.33-22.93-16.74,0,0,12.62,8,6.22,15.89-13.47-9.46-3.9-6.86-4.43,3.63-.63.38-4.76-19.17-40.89-30.57,0,0,32.83,20.88,20.78,29.34,0,0-7.61-7-12.5-9.3a27,27,0,0,1,3.28,6.41c-.67,1.88-1.68,4.62-2.93,7.52-.91-.74-7.72-6.18-14.63-11.84,1.15-6.49,2.9-12.9,5.07-15.12,0,0-5.09,5.08-10.42,10.71-15.31-12.73-9.86-10.54-2.23,2.37-2.58,2.77-5.06,5.53-6.88,7.74-11.21-7.2-10.14-7.31-9.63-6.2-1.78-2.13-3.74-4-5.62-4.71,0,0,6.83,6.2,4.47,13-5.57-4.27-14.82-12.48-33.3-15.43,0,0,24.41,8.86,21.56,15.4-.59-.35-14.89-8.48-21.7-10.49,0,0,5.23,2.92,7.47,5.7a12.65,12.65,0,0,1,.24,3.55c-.24.17-28.9-20.66-51.26-23,0,0,28.79,12.77,25.64,19.39l-5.09,5.68s-5.78-4.65-9.62-8.37c0,0-3.11-.87-2.19,4.71,2.52,15.33,1-4.53-20.93-15.72,0,0,18,18,8,23.21,0,0-25.19-15.33-36.72-26,0,0,12.14,11.31,4.64,21.5-2.07-2.83-15.87-12.33-15.62-18.08,0,0-6.32,13-.64,22.78,0,0-2.78-4.78-21.35-9.32.35.1,3,1.11,3.64,9.38,0,0-22.36-11.13-31-19.74,0,0,6.69,7.22-.57,19.86,0,0-24.59-1.76-25.14-17,0,0-6.5,20.33-12.49,23.15,0,0-.71-9.93.44-15.48s-5.48,5.69-7.3,7.1,1-26.59,6-31.77c0,0-21.26,21.22-22.4,25,0,0-6.54-12.76-12.38-15.08,0,0,7.32,6.65,4.18,13.68a34.64,34.64,0,0,0-8.28,1.32c-3-2.21-8.53-5.29-18.74-9.15,0,0,3.89,1.69-.45,15.73,0,0-14.69-3.25-18.32-14.43-2.94,6.31,1.44,3.85-8.06,1.44a24.38,24.38,0,0,1,5.93,5.53c-.55,3.07-.62,6.63.87,9.55a10.41,10.41,0,0,1-1,1.3l-5.48.18c-3.1-5.93-12.72-19.19-39.41-27.61,0,0,30.56,19.44,21.88,28.4l-2,.11c-2.17-1.92-7.72-6.65-11.58-8.48,0,0,3.47,4.86,3.82,8.94-3,.19-6,.4-8.89.63-7.86-6.34-21.62-17.53-24.28-20.37,0,0,11.41,14.25,11.79,21.59-1.91.23-3.68.48-5.28.74-4.85-3-12.63-8-15.77-10.45,0,0,5.82,12.25,2.94,11.2-5.07-1.85-13.64-14.11-37.15-17.86,0,0,24.87,9,21.48,15.58,0,0-13.8-8.36-21.62-10.67,0,0,11.65,6.5,7.62,9.32,0,0-29.12-20.76-51.16-23.1,0,0,28.79,12.77,25.64,19.39l-5.09,5.68s-5.78-4.65-9.62-8.37c0,0-3.11-.87-2.2,4.7,2.53,15.34,1-4.52-20.93-15.71,0,0,18,18,8,23.21,0,0-7.9-4.8-16.87-10.91,2.13-2.08,4.35-3.55,6.35-3.55,4.41,0,.24-1.32-9.3,1.52-33.69-23.43-6.52-11.3-10.14,3.91-1.41.67-2.87,1.4-4.39,2.22-3-2.68-13.56-10.9-13.35-15.8a35.13,35.13,0,0,0-2.75,9.5,36.3,36.3,0,0,0-13.1-6.76s11.54,7.29,7,14.86a79.53,79.53,0,0,0-9.87-3.31c-5.1-6.68-15.54-16.08-36.18-22.59,0,0,22.38,14.23,23.4,24-34.55-20.23-5.82-14.73-18.29,7.19-43.67-35.12-21.32-21.6-15.17-3.83-17.2-8.26-4.7-23.55-14.25-2-10.5-6.94-4.77-5.36-2.45,5-.34.62-.68,1.22-1,1.8a29.32,29.32,0,0,1-5-3.46c.21-8,2.85-12.34-3.94-3-1-.7-2-1.42-3.16-2.15.54-8.13,3-22.65,6.46-26.24,0,0-12.69,12.67-19,20.16a69.23,69.23,0,0,0-7.63-2.16c-2.34-3.39-5.33-7-8.17-8.09a17.55,17.55,0,0,1,4.61,7.39c-1.35-.23-1.2-.26,0,.22a9.3,9.3,0,0,1,0,4.88c-1.66-.57-1.23-.45-.07.25a10.36,10.36,0,0,1-1.78,3.24c-10.26-6.32-28.1-16.07-42.8-17.63,0,0,11,4.86,18.61,10.14.4,2.07.3,5.72-1.55,12-1.91-1.61-4.25-3.65-6.13-5.48,0,0-2.55-.71-2.35,3.3-4-2.22-8.39-5.78-10.15-11.21-2.65,5.68,1.93,3.31-10.62-3.09a62.15,62.15,0,0,1,8.38,10.71c-.51,3.37-.39,7.23,1.73,10.15l-5.6.18c-7.31-4.6-24.34-15.61-33.24-23.87,0,0,12.14,11.31,4.64,21.51-2.06-2.83-15.87-12.34-15.62-18.08,0,0-6.32,13-.64,22.78,0,0-2.27-3.89-16.32-8l-.1-1.78s9.36-17.34,16.26-17.35-7.21-3.24-30.1,11.33c0,0-9.5-13.32-22.93-16.74,0,0,11.68,7.37,6.87,15-4-3.38-2-2.55-.61.85a16.52,16.52,0,0,1-4.63,3.78s-5.5-19.56-40.73-30.67c0,0,32.83,20.88,20.78,29.34-2.52-2.31-8.65-7.48-12.5-9.3,0,0,8.33,11.65.46,14,0,0-4.21-3.36-9.5-7.65,1.14-7,3-14.21,5.33-16.6,0,0-5.7,5.68-11.35,11.69-25.52-20.92-10.79-12.07-3.9,4.21-1.78,2-3.4,3.82-4.66,5.37-2.39-1.49-5.33-3.36-8.06-5.14-2.08-2.75-4.5-5.31-6.81-6.22a18.67,18.67,0,0,1,2.91,3.6c-1.22-.84-2.26-1.59-3-2.2,0,0,5.82,12.25,2.94,11.2-5.08-1.85-13.64-14.11-37.15-17.85,0,0,24.25,8.79,21.59,15.32-5-2.38-14.6-8.31-21.73-10.42,0,0,11.64,6.5,7.62,9.32,0,0-29.13-20.76-51.17-23.1,0,0,28.79,12.77,25.64,19.39l-5.09,5.69s-5.78-4.66-9.62-8.38c0,0-3.11-.87-2.19,4.71,2.52,15.33,1-4.52-20.93-15.71,0,0,18,18,8,23.2,0,0-25.19-15.33-36.72-26,0,0,12.14,11.31,4.64,21.5-2.06-2.82-15.87-12.34-15.61-18.07,0,0-6.33,13-.65,22.77,0,0-2.78-4.78-21.35-9.32.35.1,3,1.11,3.64,9.39,0,0-22.36-11.14-31-19.75,0,0,6.69,7.22-.57,19.86,0,0-24.59-1.76-25.14-16.95,0,0-6.5,20.33-12.49,23.15,0,0-.7-9.93.44-15.48s-5.48,5.69-7.29,7.1.94-26.58,6-31.77c0,0-21.26,21.22-22.4,25,0,0-6.53-12.76-12.38-15.08,0,0,11.53,10.47-.55,19,0,0,.14-4.71-22.29-13.19,0,0,3.89,1.7-.45,15.73,0,0-14.69-3.25-18.32-14.43,0,0-5.25,11.24-.5,17.76,0,0-58.21,1.61-68.19,5.85S1468.21,531.46,1542,535.4Zm1286.37-23c-.1-1.6,6.32-11.68,11.16-15.73-1.27,3-5.1,13.63-.28,21.94C2839.28,518.65,2837.63,515.82,2828.4,512.44Zm-359.73-4.74s0-.81-1.53-2.35c1.84-1.61,3.72-2.69,5.44-2.7h.68A13.66,13.66,0,0,1,2468.67,507.7Zm-357.06,1.21a12.84,12.84,0,0,0-2.05,3.16s-1.34-2.61-3.34-5.67C2107.86,507.11,2109.73,508,2111.61,508.91Z"/>
        </g>
        <g class="cls-29">
          <path class="cls-30" d="M2773.14,908.4c-64.06,5.93-85.54,17.77-83.85,19.31s-24.14,20.61-120.36,5c-24.56-4-42.35-5.75-55.57-6.15-33,5.9-44.75,12.85-43.48,14,1.68,1.55-24.15,20.61-120.37,5s-88.61,2.93-109.18,3.66-75.29-6.27-75.29-6.27l.25-4.29c-99.95-15.94-89.55,2.62-110.94,3.38-20.57.72-75.3-6.27-75.3-6.27l1.59-26.64c-14,4-19.25,7.55-18.38,8.34,1.69,1.54-24.14,20.61-120.36,5-37.34-6.07-59-7-72.82-5.79-16.23,4.37-22.28,8.32-21.35,9.16,1.68,1.54-24.15,20.61-120.37,5s-88.61,2.94-109.18,3.66-75.29-6.26-75.29-6.26l3.48-58.24s-7.33-28.23-13.31-28.29,6.39-5.2,25.55,18.6c0,0,8.82-21.58,20.59-27,0,0-15.13,17.24-2.28,31.84,0,0,5.63-31.72,36.61-49.53,0,0-29.34,33.69-19.28,47.5,0,0,6.89-11.29,11.23-15,0,0-7.73,18.86-1,22.75,0,0,23.48-33.6,26.92-40.11,0,0-14.9,32.69-10.33,40.34,0,0,13.56-15,17.81-21,0,0-5.58,19.86-3,18.18,4.47-3,12.43-22.83,32.94-28.76,0,0-21.92,14.49-19.28,25.15,0,0,12.32-13.48,19.19-17.18,0,0-10.37,10.48-7,15.08,0,0,26.13-33.52,45.31-37.17,0,0-25.49,20.55-23.06,31.31l4.15,9.27s5.22-7.52,8.7-13.54c0,0,2.74-1.39,1.69,7.66-2.87,24.88-.66-7.35,18.82-25.38,0,0-16.38,29.16-8,37.63,0,0,22.48-24.73,32.93-42,0,0-11,18.28-5,34.89,1.91-4.58,13.44-18.75,14.28-28.42-1.32-2-2.67-3.37-4-3.38-6-.07,6.39-5.2,25.54,18.59,0,0,8.82-21.57,20.6-27,0,0-11.28,12.86-6.09,25.77,12.07-15.29,3.68-11.12,3.67,5.91.53.62,5-31.1,36.75-49.37,0,0-29.35,33.7-19.29,47.5,0,0,6.89-11.28,11.24-15a63.88,63.88,0,0,0-3.13,10.4c.49,3.05,1.25,7.51,2.2,12.22.82-1.19,7-10,13.19-19.13-.7-10.54-1.93-21-3.72-24.58,0,0,4.18,8.28,8.55,17.46,13.81-20.57,9-17,1.82,3.86,2.11,4.52,4.13,9,5.61,12.61,10-11.61,9.1-11.8,8.61-10,1.64-3.45,3.41-6.41,5.07-7.61,0,0-6.18,10-4.44,21,5-6.9,13.38-20.17,29.51-24.83,0,0-21.53,14.23-19.35,24.86.53-.56,13.27-13.67,19.25-16.89,0,0-4.66,4.71-6.72,9.2a38.4,38.4,0,0,0-.37,5.76c.2.29,25.94-33.35,45.39-37.06,0,0-25.48,20.56-23,31.32l4.15,9.27s5.21-7.52,8.7-13.54c0,0,2.73-1.4,1.69,7.65-2.87,24.89-.66-7.34,18.81-25.37,0,0-16.38,29.16-8,37.63,0,0,22.49-24.73,32.94-42,0,0-11,18.29-5,34.89,1.91-4.58,14.28-19.91,14.32-29.25,0,0,4.89,21.13-.45,37,0,0,2.61-7.75,18.88-15-.3.16-2.6,1.78-3.56,15.21,0,0,19.84-17.93,27.69-31.86,0,0-6.11,11.68-.39,32.25,0,0,21.36-2.69,22.51-27.36,0,0,4.72,33.06,9.78,37.68,0,0,1.05-16.13.31-25.14s4.49,9.27,6,11.57.36-43.17-3.8-51.62c0,0,17.45,34.59,18.27,40.72,0,0,6.23-20.68,11.39-24.4,0,0-6.63,10.74-4.23,22.18a17.24,17.24,0,0,1,7.11,2.19c2.69-3.57,7.62-8.53,16.63-14.74,0,0-3.45,2.74-.32,25.55,0,0,12.86-5.17,16.5-23.32,2.27,10.27-1.41,6.26,6.92,2.4a35.58,35.58,0,0,0-5.39,9c.34,5,.24,10.77-1.17,15.5a19,19,0,0,0,.81,2.11c1.09.07,2.71.18,4.74.34,2.94-9.62,11.86-31.09,35.34-44.59,0,0-27.32,31.37-20.21,46l1.76.19c2-3.1,7-10.74,10.39-13.68,0,0-3.22,7.86-3.7,14.48,2.58.33,5.16.7,7.67,1.09,7.09-10.25,19.49-28.33,21.92-32.93,0,0-10.51,23.07-11.16,35,1.64.39,3.16.8,4.53,1.23,4.33-4.89,11.28-12.87,14.11-16.87,0,0-5.58,19.85-3,18.17,4.48-3,12.43-22.82,33-28.75,0,0-21.93,14.49-19.29,25.15,0,0,12.32-13.49,19.19-17.19,0,0-10.37,10.48-7,15.08,0,0,26.13-33.52,45.31-37.17,0,0-25.48,20.55-23.06,31.31l4.16,9.27s5.21-7.51,8.7-13.54c0,0,2.73-1.39,1.69,7.66-2.87,24.89-.67-7.35,18.81-25.38,0,0-16.38,29.17-8,37.63,0,0,7-7.74,15.08-17.6-1.75-3.39-3.6-5.79-5.34-5.81-3.81,0-.15-2.14,8,2.53,30.19-37.83,6.14-18.3,8.6,6.42,1.19,1.09,2.42,2.29,3.7,3.63,2.69-4.33,12.22-17.61,12.26-25.56a95.79,95.79,0,0,1,1.95,15.43c3.27-4.57,7.25-8.84,11.64-10.88,0,0-10.31,11.75-6.67,24.07a53.54,53.54,0,0,1,8.68-5.3,77.5,77.5,0,0,1,32.32-36.46s-20,23-21.31,38.75c30.8-32.62,5.69-23.88,15.5,11.78,39.36-56.74,19.42-34.93,13.31-6.11,15.25-13.31,5.11-38.22,12.42-3.15,9.39-11.2,4.37-8.66,1.89,8.18.27,1,.54,2,.82,2.93a33.33,33.33,0,0,0,4.46-5.59c.18-12.93-1.9-20,3.55-4.82.87-1.13,1.82-2.29,2.83-3.46-.1-13.2-1.54-36.8-4.42-42.65,0,0,10.42,20.65,15.53,32.86a41.84,41.84,0,0,1,6.7-3.47c2.17-5.48,4.92-11.27,7.43-13.08a37,37,0,0,0-4.32,12c1.18-.37,1-.42-.05.36a27.75,27.75,0,0,0-.19,7.92c1.47-.91,1.09-.73.06.41a23,23,0,0,0,1.39,5.28c9.16-10.21,25-25.91,37.83-28.35a128.29,128.29,0,0,0-16.56,16.33c-.43,3.37-.52,9.29.81,19.57,1.72-2.6,3.84-5.91,5.54-8.86,0,0,2.25-1.14,1.89,5.38a34.76,34.76,0,0,0,9.29-18.14c2,9.24-1.82,5.36,9.33-5a118,118,0,0,0-7.74,17.34c.3,5.48,0,11.75-2,16.47,0,0,1.83.11,4.84.34,6.54-7.42,21.77-25.19,29.83-38.55,0,0-11,18.28-5,34.89,1.91-4.58,14.29-19.94,14.32-29.25,0,0,4.9,21.12-.45,37,0,0,2.13-6.29,14.47-12.85l.17-2.88s-7.33-28.22-13.3-28.28,6.39-5.21,25.54,18.59c0,0,8.82-21.57,20.6-27,0,0-10.44,11.9-6.61,24.29,3.63-5.46,1.83-4.12.49,1.4a21.25,21.25,0,0,0,3.83,6.15s5.63-31.71,36.62-49.53c0,0-29.35,33.7-19.29,47.5,2.28-3.73,7.82-12.08,11.24-15,0,0-7.73,18.87-1,22.75,0,0,3.8-5.43,8.56-12.36-.67-11.32-1.95-23.1-3.87-27,0,0,4.68,9.27,9.31,19.06,23-33.81,9.87-19.52,3.18,6.87,1.45,3.19,2.78,6.22,3.79,8.74,2.14-2.41,4.77-5.42,7.21-8.3,1.92-4.45,4.13-8.58,6.17-10.06a35.2,35.2,0,0,0-2.68,5.83c1.09-1.35,2-2.57,2.72-3.55,0,0-5.58,19.86-3,18.17,4.48-3,12.44-22.82,33-28.75,0,0-21.38,14.13-19.37,24.75,4.47-3.84,13-13.41,19.27-16.78,0,0-10.37,10.47-7,15.08,0,0,26.13-33.52,45.31-37.18,0,0-25.48,20.55-23.05,31.32l4.15,9.26s5.21-7.51,8.7-13.53c0,0,2.73-1.4,1.69,7.65-2.87,24.89-.66-7.35,18.81-25.37,0,0-16.38,29.16-8,37.63,0,0,22.49-24.73,32.94-42,0,0-11,18.29-5,34.89,1.91-4.57,14.28-19.93,14.32-29.25,0,0,4.89,21.12-.45,37,0,0,2.61-7.75,18.88-15-.3.16-2.6,1.78-3.56,15.21,0,0,19.84-17.93,27.69-31.86,0,0-6.11,11.68-.39,32.25,0,0,21.36-2.7,22.52-27.36,0,0,4.71,33.06,9.77,37.68,0,0,1.05-16.13.31-25.14s4.49,9.27,6,11.57.36-43.17-3.8-51.62c0,0,17.46,34.59,18.27,40.72,0,0,6.23-20.68,11.39-24.4,0,0-10.45,16.91-.38,30.91,0,0,.1-7.64,19.89-21.28,0,0-3.45,2.73-.32,25.55,0,0,12.86-5.17,16.5-23.32,0,0,4,18.29-.35,28.86,0,0,50.3,3,58.75,9.93S2837.21,902.48,2773.14,908.4ZM1660.83,862.81c.16-2.6-4.95-19-8.95-25.62,1,4.91,3.8,22.17-.74,35.63C1651.14,872.82,1652.69,868.23,1660.83,862.81Zm311.55-5.38a9.17,9.17,0,0,1,1.43-3.8c-1.52-2.64-3.09-4.4-4.58-4.42l-.6,0A22.9,22.9,0,0,0,1972.38,857.43Zm309,4.28a27.82,27.82,0,0,1,1.64,5.13s1.27-4.21,3.14-9.18C2284.68,858.8,2283,860.18,2281.36,861.71Z"/>
        </g>
      </g>
    </g>
  </g>
  <g id="SC_05-2" data-name="SC_05">
    <g class="cls-31">
      <g class="cls-32">
        <path class="cls-33" d="M2431.89,997.52l-1.42-.1c0-.31,0-.62,0-.93a142.51,142.51,0,0,0-1.66-21.77c1.85-.53,3.74-1.17,5.65-1.91,16.22-6.34,27.58-18.15,25.38-26.38s-17.14-9.77-33.36-3.43q-2.91,1.14-5.58,2.49c-13.3-33.45-39.26-58.16-70.38-65a108.08,108.08,0,0,0,10.51-47c0-31.57-13-59.48-32.83-76.37,7.08-14,9.08-27.36,4.23-31.82-5.47-5-17.69,3.11-27.8,18.29a65,65,0,0,0-20.85-3.44c-23.86,0-45.2,13.07-59.37,33.61-10-20.13-28.27-33.61-49.13-33.61a48.29,48.29,0,0,0-16.4,2.88c-19.2-51.46-53.91-92.65-96.94-114.87,1.84-9.56.87-17.67-2.56-19s-7.91,4.16-11.09,12.74a159,159,0,0,0-30.14-8.95q1-3,1.92-6.3c5.3-19.57,4.08-37.62-2.73-40.31s-16.62,11-21.91,30.58a98.73,98.73,0,0,0-2.66,13.28c-1.37,0-2.74-.06-4.11-.06a156.47,156.47,0,0,0-21.19,1.44c-.39-10.85-3.58-19.32-7.45-19.32-4.14,0-7.49,9.65-7.49,21.55v.56c-54.45,12.91-100.41,54.42-126.72,111.06a49,49,0,0,0-23.77-6.22c-29.71,0-54.14,27.33-57,62.32a63.39,63.39,0,0,0-36.74-12,61.89,61.89,0,0,0-26.4,5.95c-3.07-12.8-8.92-21.8-13.53-20.42-4.89,1.46-6.51,14-3.64,28.1.23,1.08.47,2.14.73,3.18a80.28,80.28,0,0,0-10.67,11.45c-.29-.59-.6-1.18-.91-1.77-6.55-12.13-15.27-19.27-19.49-16s-2.33,15.85,4.21,28a58.4,58.4,0,0,0,5.32,8.2,104.57,104.57,0,0,0,.15,83.08c-15.64,11.87-26,32.9-26,56.86,0,.45,0,.88,0,1.32a57,57,0,0,0-12.16-1.32c-13.88,0-26.79,5.06-37.53,13.72-.73-.78-1.5-1.55-2.32-2.3-7.83-7.21-16.21-9.84-18.72-5.86s1.72,12.85,9.39,20a83,83,0,0,0-9.32,15c-6.6-4.79-12.86-6.11-15-2.77-2.42,3.84,1.52,12.42,8.85,19.5a97.11,97.11,0,0,0-3.08,24.46c0,45.18,30.31,81.8,67.7,81.8a55.71,55.71,0,0,0,5.66-.29c9.56,54,49.25,94.41,96.76,94.41a83.51,83.51,0,0,0,31.26-6.09c25.45,54.43,73.78,91.17,129.21,91.17,27.43,0,53.11-9,75.15-24.68,15.85,61.75,63.5,106.61,119.82,106.61,52.83,0,98-39.46,116.51-95.31a86.27,86.27,0,0,0,38.86,9.31c46.19,0,85.18-37.26,97.5-88.26,1.34.11,2.69.17,4.06.17,33.31,0,60.32-32.63,60.32-72.88a85.35,85.35,0,0,0-5.75-31.09c19.8-11.56,35.88-31,45.48-54.86q4.07.67,8.34,1c28,2.24,51.3-7.46,52.08-21.66S2459.87,999.76,2431.89,997.52Z"/>
        <path class="cls-34" d="M2702,1143.45a53.63,53.63,0,0,0-2-12.09,29.61,29.61,0,0,0,5.91-1.69c-31.7-22.45-69.28-34.25-109-21.07-1.27.42-2.45-1.45-1.36-2.34,5.86-4.75,8.95-11.22,12.81-17.46-7.76-4.55-16.83-3.42-25.19-.82-1.43.44-2.16-1.33-1.34-2.32,6.28-7.62,13.9-14.16,19.47-22.35-11.87-3.9-24-.68-35.31,4-1.09.45-2.16-1.08-1.53-2,9.65-13.88,28.81-22.43,33.79-39.22-12.34.07-21.23,6.48-29.79,15.08-6.94,7-13.62,14.1-23.1,17.49a1.3,1.3,0,0,1-1.59-1.6,96,96,0,0,0,4.27-12.9c.73-3.11,3-11.65.51-14.53-2.67-3.12-11.5-2-15.13-1.11a32,32,0,0,0-11.82,5.92c-1.11.84-2.15-.72-1.7-1.71,4.27-9.49,7.42-23.69-1.31-31.84-9.82-9.17-24.34-.94-32.84,5.83a1.2,1.2,0,0,1-1.87-.24c-7.55-13.91-16.5-46.13-37.79-32.06a1.37,1.37,0,0,1-2-1.17c-.51-6.11-5.28-10.2-7.93-15.39-9.46,3.77-16.79,11-22.14,19.53a1.4,1.4,0,0,1-2.55-1.08c3.07-14.33,6.09-28.77,6.74-43.45.61-13.77-.39-30.72-11.91-40.06-19.82,31.6-4.67,68.64-11.09,103.13-.27,1.47-2.13,1.07-2.58,0-5.66-13.42-20.25-9.12-28.66-1.11a1.37,1.37,0,0,1-2.27-1.32c.95-3.86.43-7.82,1.16-11.64-11.38,2.48-20.86,9-29.79,16.41-1.16,1-3-.25-2.17-1.67,5.14-8.88,11.19-17.48,14.55-27.26a47.28,47.28,0,0,0,1.61-5.73c.65-3.13,2-5.8-1.28-6.95-3.79-1.32-9.23.1-12.7,1.69-13.4,6.13-21,21.19-30.9,31.36a1.43,1.43,0,0,1-2.37-.63,144.06,144.06,0,0,1-3-22.94c-.32-5.69-.26-11.54-1.54-17.12-3.51-15.36-20.67-20.35-34-24.22a1.42,1.42,0,0,1-.83-2.07c3.71-4.84,6.92-10,7.27-16.31a26.34,26.34,0,0,0-.07-3.44q-.58-3.1-3.54-2.48c-3.08-1-7.69-.48-10.67.25a1.42,1.42,0,0,1-1.58-2.06c5.38-8.39,25-21.94,16.15-33-7.47-9.28-26.45-2.61-34.86,2.22-1.42.82-2.61-1-1.66-2.15,6.61-8,15.67-14.34,19.82-24-15.07-5.83-30.92-4.2-45.67,2.09a1.31,1.31,0,0,1-1.59-2c5.33-5.8,7.91-13.6,11.18-20.68-15.75-5.24-31.14,6.06-44,14.1-1.28.8-2.41-1-1.53-2,10.07-11.73,20.76-23.86,25-39-12.07.88-22.32,7.65-30.15,16.7-.92,1.06-2.53-.31-1.88-1.45a53.84,53.84,0,0,0,6.64-24.31,63.29,63.29,0,0,0-14.87,18.65,1.22,1.22,0,0,1-2.2-.29c-5-13.68-6.62-28.75-14.48-41.22-20.05,22.7-4,55.78-.54,81.84h0l0,.27c.16,1.2-1.7,1.33-2,.27-3.55-11.67-18.61-17.46-29.31-20-10.42-2.46-26.42-4.27-34.18,5a1.11,1.11,0,0,1-1.85-.49c-.88-3.9-2.15-10.33-6.81-11.4-3.13-.71-6.44,1.66-8.71,3.47-5.23,4.17-9.39,9.74-13.25,15.13-.66.92-2.39.71-2.32-.63,1-18.91,4-37.68,4.21-56.63.26-19.16-2.1-39.7-15-54.73-32,37.5-12.65,88.64-5.77,131.67a1.15,1.15,0,0,1-2.22.61c-4.58-13.86-11.23-32.8-29.51-26.72a1.13,1.13,0,0,1-1.25-.51c-7.77-12.07-22.27-2.4-29.08,5.47-.78.9-2.53-.06-2.07-1.2,2.36-5.88.63-11.16,0-17A47.1,47.1,0,0,0,1931,833.35c-1,1.16-2.59-.33-2-1.53,8.53-16.75,19.57-32.31,26-50.07,2.92-8,6.44-19.44,3.87-28-.86-2.87-1.42-2-4.16-1-2,.74-4,1.56-5.91,2.46a81.08,81.08,0,0,0-10.74,6.09c-27.56,18.4-42.46,49.52-61.93,75.25a1.19,1.19,0,0,1-2.16-.91c.72-4.08,1.58-10.25-2.61-12.86-2.82-1.75-6.71-1.06-9.72-.27-7.3,1.9-14.25,6.07-20,10.89a1.26,1.26,0,0,1-2.09-1.21c1.59-6.14.26-12.78,0-19.07-12.57-.34-22,11.22-26.83,21.78-.56,1.22-2.44.56-2.44-.67.15-25.44,4.84-52.45-5.79-76.45-18.2,26.2-27.3,58.33-24.22,90.19.11,1.23-1.47,1.58-2.23.93-13.53-11.5-34.37-17.54-46-.27a1.32,1.32,0,0,1-2,.27c-8.85-9.77-19.38-5-25.43,4.89a1.33,1.33,0,0,1-2.26,0c-2.25-3.66-5.88-6.27-9.07-9.11-6.7,7.74-9.43,18.14-12.59,27.69a1.31,1.31,0,0,1-2.51,0c-3.53-15.46-4.69-31.33-7.22-47-2.38-14.7-5.74-30.4-15.39-42.17-19.31,33.76-5,79.25,9.53,112.17a1.3,1.3,0,0,1-2,1.57,52,52,0,0,0-11.86-7.57c-2.16,13.32,4,25.55,10.46,36.91a1.3,1.3,0,0,1-2,1.57c-4.84-4.18-17.65-14.3-22.39-4.72-3.58,7.22-.84,17.93,3,24.43,8.65,14.53,25.13,24.09,39.82,31.51,1.41.71.33,2.57-1,2.35-7.93-1.32-16.54-1.29-23.69,2.88-7.49,4.37-11,12.05-12.52,20.26a1.29,1.29,0,0,1-2.33.31c-1.82-4.1-5.58-5.24-8.91-7.46-5.74,8.2-7.5,17.45-7.61,27.42a1.27,1.27,0,0,1-2.49.34c-4.75-13.43-6.81-27.66-11.26-41.2-2-6.22-4.49-12.53-8.31-17.91-.87-1.23-4.75-6.74-6.5-6.45-1.58.27-3.86,5.18-4.63,6.61-6,11.27-6.57,24.91-5.23,37.37,2.73,25.27,13.11,53.48,31.11,71.93a1.18,1.18,0,0,1-1.42,1.86c-11.48-6.22-25.56-4.58-29.26,9.58a1.12,1.12,0,0,1-2,.26c-2.59-3.48-6.19-8-10.8-8.79-6.09-1-8.37,5.55-9.56,10.23-.32,1.23-1.92.81-2-.28-1.44-11.75-2.5-24.37-8.07-35-.58-1.12-1.31-3.16-2.44-3.76-1.41-.75-1.47,0-2.55,1.57a29.43,29.43,0,0,0-3.28,6.23,45.68,45.68,0,0,0-2.74,13.08c-1.43,18.66,4.08,38.64,12.23,55.31a.81.81,0,0,1-1.1,1.1c-7-4.1-16.59-6.43-18.43,4a21.45,21.45,0,0,0-.14,6.2,43.66,43.66,0,0,0,24.28,7.34c1,0,2,0,3-.1a73.85,73.85,0,0,0,99,47.47A91.15,91.15,0,0,0,1833,1185a107.73,107.73,0,0,0,127.41-13.52,151.85,151.85,0,0,0,131.38-22.31,59.45,59.45,0,0,0,32.87-16.93,70.29,70.29,0,0,0,77.85,30.35,99,99,0,0,0,138.82-1.93,116.92,116.92,0,0,0,162.94,35.48,78,78,0,0,0,116-4.81q1.88,1.17,3.87,2.21a53.39,53.39,0,0,0,77.07-38.15c7.24-1.45,12.58-5,12-8.09C2712.81,1144.56,2708,1143.06,2702,1143.45Z"/>
      </g>
    </g>
  </g>
  <g class="cls-35">
    <polygon class="cls-36" points="1628.05 256.54 1096.5 433.56 1092.67 626.03 1717.85 912.17 1628.05 256.54"/>
    <polygon class="cls-37" points="21.14 561.12 1076.1 594.1 1665.31 902.5 -16 902.5 21.14 561.12"/>
    <path class="cls-6" d="M887.25,588.28l531.53,329.14,268.78-2.62-21.7-153.57L1072.12,587.74Z"/>
    <polygon class="cls-38" points="-1.56 225.08 529.99 402.1 533.82 594.57 -91.36 880.71 -1.56 225.08"/>
    <polygon class="cls-39" points="531.95 430.85 -44.3 330.29 -41.58 299.53 532.74 420.87 531.95 430.85"/>
    <polygon class="cls-40" points="527.95 466.9 -54.94 417.77 -55.68 394.57 527.62 459.38 527.95 466.9"/>
    <polygon class="cls-41" points="537.69 492.72 -56.16 510.79 -59.56 489.5 536.49 485.83 537.69 492.72"/>
    <polygon class="cls-42" points="539.41 515.43 -48.06 604.1 -54.23 581.55 537.32 508.15 539.41 515.43"/>
    <polygon class="cls-43" points="537.04 544.77 -35.73 702.66 -44.34 681.73 534.15 538.02 537.04 544.77"/>
    <path class="cls-6" d="M653.51,593.66,111.62,923.5l-272.21-2.62,22.24-153.55L463.26,593.86Z"/>
    <path class="cls-7" d="M516.81,610.1l55.66,2.64L-68.89,913.32l-28.7,1.16,12.17-41.1Z"/>
    <polygon class="cls-7" points="1072.61 613.04 1022.55 620.87 1665.73 921.03 1692.35 920.48 1693.74 901.58 1072.61 613.04"/>
    <rect class="cls-44" x="537" y="372.78" width="534.57" height="213.72"/>
    <path class="cls-45" d="M1637.05-8.08l1.13,166.73L1671.33,389-30.2,384.39-28.37-9.5q489,1.77,978,2,343.7.13,687.4-.53"/>
    <path class="cls-9" d="M297,248.51-219.78-9.1l-9.7,0,524.7,258.87Z"/>
    <path class="cls-9" d="M351,248.51-110.34-8.64l-9.68,0L349,249.73Z"/>
    <path class="cls-9" d="M403.18,248.51-4.86-8.23l-9.64,0,415.37,258Z"/>
    <path class="cls-9" d="M456.84,250.19,98.67-7.91,89-7.94,454.29,251.39Z"/>
    <path class="cls-9" d="M510.48,250.19,207.44-7.57l-9.63,0,309.86,259Z"/>
    <path class="cls-9" d="M566.4,250.19,320.67-7.22l-9.6,0L563.33,251.39Z"/>
    <path class="cls-9" d="M620,250.19,429.06-7l-9.6,0L616.71,251.39Z"/>
    <path class="cls-9" d="M671.85,250.19,533.68-6.78l-9.59,0L668.28,251.39Z"/>
    <path class="cls-9" d="M726.4,247.66l-81-254.21-9.57,0,86.75,255.46Z"/>
    <path class="cls-9" d="M780.58,247.66c-5.15-48.17-13-122-27.14-254.09h-9.56l32.57,255.33Z"/>
    <path class="cls-9" d="M806.46,247.66c-.26-48.17-.67-122-1.39-254h-9.56l6.7,255.28Z"/>
    <path class="cls-9" d="M837.06,247.66c5.5-48.16,13.94-121.95,29-254h-9.55L832.66,248.89Z"/>
    <path class="cls-9" d="M891.24,247.66,974.08-6.21h-9.55l-77.95,255.1Z"/>
    <path class="cls-9" d="M943.57,247.66,1078.4-6.19h-9.54L938.66,248.89Z"/>
    <path class="cls-9" d="M993.83,249.35,1181.09-6.22h-9.56L988.71,250.56Z"/>
    <path class="cls-9" d="M1047.64,249.35,1289.13-6.25h-9.57L1042.27,250.56Z"/>
    <path class="cls-9" d="M1103.75,249.35l298-255.63h-9.57l-294.1,256.84Z"/>
    <path class="cls-9" d="M1157.57,249.35,1509.88-6.34l-9.59,0L1151.67,250.56Z"/>
    <path class="cls-9" d="M1209.56,249.35l405-255.87-9.59,0L1203.41,250.56Z"/>
    <path class="cls-9" d="M1265.23,250.19,1729.73-6.72l-9.61,0L1258.83,251.39Z"/>
    <path class="cls-9" d="M1838.23-6.91l-9.61,0-516.4,258.28,6.65-1.2"/>
    <path class="cls-46" d="M794,78.67,550.81,169l-3.12,216.73,512.45,2.43-14.55-217.54Z"/>
    <g>
      <path class="cls-47" d="M538.55,168.57,386.27,320.26l49.27.2L565.37,183.75Z"/>
      <path class="cls-48" d="M534.14,162.61,381.86,314.3l49.27.21L561,177.8Z"/>
    </g>
    <g>
      <path class="cls-47" d="M1067.66,168.93l158.26,157.65-51.21.21L1039.79,184.71Z"/>
      <path class="cls-48" d="M1072.24,162.74,1230.5,320.39l-51.21.21L1044.37,178.52Z"/>
    </g>
    <path class="cls-48" d="M785.77,88.24q-6.53-47-13.06-94.08l61.36.22q-5.48,47.57-10.94,95.13Z"/>
    <path class="cls-49" d="M802.44,105.37l222.11,87.49,2.15,124.89h21.87l-2.62-149-252-90L551.55,179.82V318.55l31,.4q-.54-63.69-1.09-127.37Z"/>
    <g>
      <path class="cls-47" d="M534.14,173.12,802.22,71.5V95.13L563.47,190.32Z"/>
      <path class="cls-47" d="M1070.29,173.12,802.22,71.5V95.13L1041,190.32Z"/>
    </g>
    <path class="cls-47" d="M1031.25,162.06l1,232.23h27.15l1.29-231.56Z"/>
    <path class="cls-47" d="M544.23,162.56l1,232.23h27.14Q573,279,573.63,163.23Z"/>
    <rect class="cls-50" x="534.14" y="381.71" width="536.15" height="26.43"/>
    <path class="cls-48" d="M534.14,162.56l1,232.23h27.15q.64-115.79,1.3-231.56Z"/>
    <path class="cls-48" d="M1041.61,162.06l1,232.23h27.15q.66-115.79,1.3-231.56Z"/>
    <g>
      <path class="cls-48" d="M534.14,162.61,802.22,61V84.63L563.47,179.82Z"/>
      <path class="cls-48" d="M1070.29,162.61,802.22,61V84.63L1041,179.82Z"/>
    </g>
    <rect class="cls-51" x="522.75" y="579.77" width="574.81" height="13.8"/>
    <path class="cls-49" d="M584.07,593.36q.34-76.22.68-152.45l99.61,2v-14l234.82,4.81,1.1,11.65h97.09L1023,593.06l-11.31,6.24-7.21-1.22-410.77-.25Z"/>
    <rect class="cls-52" x="689.47" y="443.46" width="215.43" height="150.26"/>
    <path class="cls-53" d="M709.11,540.16c-1.84-1-2.37-3-1.34-4.39s3.91-2.16,6.05-1.13c-1-2-.41-3.83.62-4.2s3.43.58,4.65,2.84c-1.36-2.91-.47-5.35.86-5.72s3.62.91,5.09,3.29c-.64-1.75-3.32-9.24-1.42-9.91,1.63-.58,5.91,4.16,7.52,6-.81-5.29-.12-6.25.42-6.38,1.25-.3,3.78,3.29,5.78,6.52.36-3.72,2.28-6.11,3.83-6.09,1.36,0,2.77,1.91,3.46,4.36a4,4,0,0,1,2.68-3.88,6.14,6.14,0,0,1,7.12,2.6c0-.15-.38-3.13,2-4.44s7-.59,9.57,2.66c-.34-2.15.36-4.23,2-5,2.35-1.1,7.16.15,9.56,4.14.39-2.17,2.46-3.9,5.08-4.28,3-.44,6.06.93,7.17,3.29a7.28,7.28,0,0,1,4.14-4.29c3.68-1.47,9-.3,12.36,3.25a5.48,5.48,0,0,1,3.17-3.36c3-1.13,7.57.16,10.18,3.65,0-2.08-.24-12.68,2.08-12.94s5.66,9.14,6.44,11.34c.49-5,1.66-13.79,4.05-13.92,2.63-.13,5.54,10.4,6.72,15.06.77-5.18,2.49-9.09,4.32-9.15s4.18,4,5.42,10c.76-3.83,2.34-6.84,4-6.9s4.11,3.34,5.19,8.48c.7-3.67,3.62-5.85,5.39-5.64s3.74,3,3,6.68a6.64,6.64,0,0,1,4.76-2.91,6.34,6.34,0,0,1,6.43,6.19,6.93,6.93,0,0,1,6.69-2.92,6.12,6.12,0,0,1,5.09,3.5c.9-4.47,3.94-7.53,6.3-7.48,2.54.06,5.79,3.78,5.5,9.31a5.42,5.42,0,0,1,4.81-2,3.88,3.88,0,0,1,2.31,5.85c1.27-1.44,4.56-4.92,6.83-4.39s3.06,5.14,2.08,11.48Z"/>
    <polygon class="cls-54" points="689.47 436.29 689.47 450.63 909.54 450.63 909.54 436.98 689.47 436.29"/>
    <path class="cls-55" d="M961.66,547.93a250.64,250.64,0,0,0-70.76-15.57,262.28,262.28,0,0,0-65.43,3.37l12.18,42.11Z"/>
    <g>
      <path class="cls-56" d="M887.29,564.75a213,213,0,0,0-56.93-27.83c-62-19.8-119.22-9-140.39-4l68.73,39.75Z"/>
      <path class="cls-57" d="M831.79,541.19A214.47,214.47,0,0,1,882.73,565l4.56-.28a213,213,0,0,0-56.93-27.83c-62-19.8-119.22-9-140.39-4l5.73,3.31C719.61,531,773.63,522.61,831.79,541.19Z"/>
    </g>
    <path class="cls-55" d="M805.79,565.91a227.89,227.89,0,0,0-64.64-27.36,259.09,259.09,0,0,0-64.77-8v43.17Z"/>
    <path class="cls-58" d="M904.9,593.72H689.47V559.48a1104.54,1104.54,0,0,1,126.38-5.11c32.13.55,61.93,2.45,89,5.11Z"/>
    <g>
      <path class="cls-59" d="M686.74,478.15c-.19-.15.86-1.53,2.67-1.94s3.53.23,3.5.44-1.2,0-3,.39C687.86,477.5,686.9,478.29,686.74,478.15Z"/>
      <path class="cls-59" d="M674.3,483.93c-.31-.06-.54-1.3.31-2.18a3.64,3.64,0,0,1,3-.94c.09.13-.54.35-1.42,1.11C674.8,483.07,674.58,484,674.3,483.93Z"/>
    </g>
    <g>
      <path class="cls-60" d="M679.26,553.41c-.46-.43-1.7-1.33-5.69-1.19l-.89,0c1.1-1,1.82-2.14,1.6-3.31a4.11,4.11,0,0,0-3.34-2.93,4.75,4.75,0,0,0-2.47.31,2.71,2.71,0,0,0-.23-1.33,2.88,2.88,0,0,0-.6-.73,4.61,4.61,0,0,0-2.28-.95,3.81,3.81,0,0,0-3.22,1.69,3,3,0,0,0-.81-.93,2.86,2.86,0,0,0-1.79-.62,2.71,2.71,0,0,0-1.78.89c0-5-2.21-8-3.29-8.54a3.81,3.81,0,0,0-3.6,0c-1.52.81-1.36,2.92-1.27,3.93a11.7,11.7,0,0,0,.3,1.77,4.4,4.4,0,0,0-1.09-.38,3.23,3.23,0,0,0-1.95.16c-1.17.6-1.06,2.17-1,2.85a4.46,4.46,0,0,0,.78,2,2.58,2.58,0,0,0-.47.06,3.61,3.61,0,0,0-2.88,2.63,2.94,2.94,0,0,0,1,2.43l-.21,0c-3.16-.57-4.31,0-4.76.3a2.77,2.77,0,0,0-1.1,3.35,2.35,2.35,0,0,0,.48.71,1.79,1.79,0,0,0-.24.22,2.65,2.65,0,0,0,0,3.46c2.23,2.64,9.82,1.17,10.73,1a20.81,20.81,0,0,0,6.35-2.38q-.69-.36-1.47-.72c.43-.11.81-.23,1.15-.33-.3-.26-.62-.53-1-.8a23.65,23.65,0,0,0,3.22.39,19.71,19.71,0,0,0-1.76-3.65,22.45,22.45,0,0,0,.9-2.1,22.73,22.73,0,0,0,1.86,4.57c-.1.62-.16,1.14-.21,1.54l.66-.28-.11.29-.32.19.21.1-.21.6,1.26-.12a26.64,26.64,0,0,0,6.81,1.93c1.14.17,10.65,1.49,13.11-1.91A3.29,3.29,0,0,0,679.26,553.41Z"/>
      <path class="cls-61" d="M668.18,558.88c2.74-2,3-5.72,2.06-6-.27-.1-.74,0-1.58.75a7.36,7.36,0,0,0-.5-3c-.34-.87-.89-2.27-1.74-2.3s-1.49.91-1.94,2.18c-.55-2.54-2.55-3.94-3.8-3.74-1,.15-1.83,1.4-2,2.89-.94-1.81-2-3-2.63-2.89s-.75,1.6-.37,3.52c-2.25-2.17-4.72-3.06-5.62-2.56s-.62,2.31.63,4.32c-1.86-1.09-3.91-1-4.48-.41s-.08,2.22,1.92,3.3c-.17,0-2.66,0-3.12,1s1.37,2.18,2,2.62c5.16,3.52,13.4,2.31,16.57,1.84C666.24,559.94,667.33,559.49,668.18,558.88Z"/>
    </g>
    <path class="cls-62" d="M808.68,559a929,929,0,0,0-123.81,0q-10.9.74-21.49,1.7c65.67,15.38,116.64,25,142,28.43,12,1.6,30.8,3.48,42.34-5a22.48,22.48,0,0,0,4.88-4.85h0c2-1.59-3.53-6.57-5.32-8.21C839.67,564.15,812.94,559.68,808.68,559Z"/>
    <rect class="cls-1" x="689.47" y="443.46" width="215.43" height="150.26"/>
    <rect class="cls-63" x="598.3" y="453.2" width="86.67" height="135.38"/>
    <g>
      <path class="cls-64" d="M611.83,457.86Q645,516,678.23,574.06v9l-11.75.07L602.11,465.31c-.21-2.77-.43-5.55-.65-8.32Z"/>
      <path class="cls-48" d="M613.51,457.23q33.19,58.11,66.4,116.2v9l-11.75.07L603.8,464.68l-.66-8.32Z"/>
    </g>
    <g>
      <path class="cls-64" d="M672.82,457.88q-33.5,58.61-67,117.21v9l11.85.07,64.93-118.79c.22-2.8.43-5.6.65-8.4Z"/>
      <path class="cls-48" d="M671.12,457.24l-67,117.21v9l11.86.08,64.92-118.79.66-8.4Z"/>
    </g>
    <polygon class="cls-64" points="592.2 454.7 592.2 592.06 604.4 592.06 604.4 454.92 592.2 454.7"/>
    <polygon class="cls-64" points="679.91 451.92 679.91 589.28 693.1 589.28 693.1 452.14 679.91 451.92"/>
    <polygon class="cls-48" points="589.96 456.14 589.96 593.5 603.14 593.5 603.14 456.36 589.96 456.14"/>
    <polygon class="cls-48" points="681.31 453.19 681.31 590.56 694.5 590.56 694.5 453.41 681.31 453.19"/>
    <path class="cls-64" d="M590,448.11c-1.4-.66,104.53-.88,104.53-.88v10.29L590,457.3Z"/>
    <path class="cls-64" d="M590,583.25c-1.4-.65,104.53-.87,104.53-.87v10.28L590,592.44Z"/>
    <path class="cls-48" d="M590,584.31c-1.4-.66,104.53-.87,104.53-.87v10.28L590,593.5Z"/>
    <path class="cls-48" d="M590,447c-1.4-.66,104.53-.88,104.53-.88v10.29L590,456.14Z"/>
    <rect class="cls-63" x="913.24" y="454.47" width="86.67" height="135.38"/>
    <g>
      <path class="cls-64" d="M926.77,459.14l66.4,116.2v8.94l-11.75.07L917.05,466.59c-.21-2.78-.43-5.55-.65-8.33Z"/>
      <path class="cls-48" d="M928.45,458.51l66.4,116.2v8.94l-11.75.08L918.73,466c-.21-2.77-.43-5.55-.65-8.32Z"/>
    </g>
    <g>
      <path class="cls-64" d="M987.75,459.15l-67,117.21v9l11.85.07,64.92-118.79.66-8.4Z"/>
      <path class="cls-48" d="M986.06,458.52l-67,117.21v9l11.86.07L995.86,466l.66-8.39Z"/>
    </g>
    <polygon class="cls-64" points="907.14 455.98 907.14 593.34 919.34 593.34 919.34 456.2 907.14 455.98"/>
    <polygon class="cls-64" points="994.85 453.2 994.85 590.56 1008.03 590.56 1008.03 453.42 994.85 453.2"/>
    <polygon class="cls-48" points="904.9 457.42 904.9 594.78 918.08 594.78 918.08 457.64 904.9 457.42"/>
    <polygon class="cls-48" points="996.25 454.47 996.25 591.83 1009.44 591.83 1009.44 454.69 996.25 454.47"/>
    <path class="cls-64" d="M904.91,449.38c-1.4-.65,104.53-.87,104.53-.87v10.28l-104.54-.22Z"/>
    <path class="cls-64" d="M904.91,584.53c-1.4-.66,104.53-.88,104.53-.88v10.29l-104.54-.22Z"/>
    <path class="cls-48" d="M904.91,585.59c-1.4-.66,104.53-.88,104.53-.88V595l-104.54-.22Z"/>
    <path class="cls-48" d="M904.91,448.23c-1.4-.66,104.53-.88,104.53-.88v10.29l-104.54-.22Z"/>
    <g>
      <g>
        <path class="cls-47" d="M1170-6.15l194.21,117.67q37.9,45.81,75.82,91.63l44.44-6.82L1384.64,81.16,1230-7.65Z"/>
        <path class="cls-48" d="M1189.38-6.15q93,55.72,185.93,111.46L1455,203.83l48.9-7.5L1404,81.16,1249.39-7.65Z"/>
      </g>
      <g>
        <path class="cls-47" d="M437.36-6.5,243.15,109.14q-37.9,45-75.82,90l-44.44-6.7L222.74,79.3,377.35-8Z"/>
        <path class="cls-48" d="M418-6.5,232.07,103l-79.65,96.83-48.9-7.38Q153.46,135.9,203.37,79.3L358-8Z"/>
      </g>
      <path class="cls-49" d="M1170-6.24l189.67,110.9q45.64,48.63,91.28,97.25l-18.71,13.4L1349.5,112.92,1151-5.75Z"/>
      <path class="cls-49" d="M834.07-5.62l-8.67,75.4,244.89,92.83L1230.5,320.39l18.56-8.29c-52.23-47.48-116.58-115.2-174.74-163.36L841.25,63q4.26-34.35,8.5-68.71Z"/>
      <path class="cls-49" d="M772.71-5.84,781.15,69l-247,93.63L385.54,311.09l-33.26.81L519.42,153.81l247.88-91L755.17-5.71Z"/>
      <path class="cls-49" d="M437.36-6.56,247.69,104.34l-85.48,97.5,25-2.89,75.15-88.15L460.67-6.28Z"/>
    </g>
    <path class="cls-65" d="M541.65,388.51l521.22,3.4q-.09,12.84-.19,25.73L541.78,415Z"/>
    <path class="cls-66" d="M545.87,388.51l513.38,2.75q-.18,10.35-.36,20.75l-512.7-2.15Z"/>
    <polygon class="cls-65" points="401.01 443.72 397.77 446.52 399.66 413.18 451.82 375.19 463.5 377.87 401.01 443.72"/>
    <path class="cls-67" d="M456.17,357.65l83.94,35.17L478,364.7Z"/>
    <path class="cls-67" d="M431.24,353.39,515,388.51l-62-28.08Z"/>
    <polygon class="cls-68" points="368.07 403.34 372.78 407.02 372.63 433.48 371.17 407.86 368.07 403.34"/>
    <path class="cls-69" d="M521.11,468.49q-2.31,78.88-4.71,160.13l-3.42,0Z"/>
    <path class="cls-70" d="M1614.46,183.84q4.51,42.74,9.12,86.19L1060.72,453.56q-.53-29.43-1-58.52Z"/>
    <path class="cls-71" d="M1661.51,388,1076,475.62l-.21-12.52,585.9-96.85Q1661.6,377.13,1661.51,388Z"/>
    <path class="cls-72" d="M1663.36,478.21l-591.41,27,1.07-12.48,592.76-36.18Q1664.57,467.37,1663.36,478.21Z"/>
    <path class="cls-73" d="M1671.28,585l-590-49.17,2.67-12.24,592.49,40.25Q1673.88,574.38,1671.28,585Z"/>
    <path class="cls-74" d="M1668.85,693.29,1089.26,572.58l4.14-11.82,583.17,112.16Q1672.72,683.08,1668.85,693.29Z"/>
    <g>
      <path class="cls-75" d="M1059.67,395q.15,18.63.28,37.38l555.26-233-5.66-47.73Z"/>
      <path class="cls-16" d="M1614.65,194.69l.56,4.74L1060,432.42C1059.94,430.71,1433.82,270.51,1614.65,194.69Z"/>
    </g>
    <path class="cls-76" d="M1060.13,391q-.45,10.69-.91,21.43L1613,180.72l-5.62-47.47Z"/>
    <path class="cls-18" d="M1607.36,133.25l-136.5,64.29L1555,160.47l53-22.05Z"/>
    <path class="cls-69" d="M1081.4,471.54q2.32,79,4.72,160.27l3.42,0Q1085.42,550.46,1081.4,471.54Z"/>
    <polygon class="cls-77" points="1222.1 344.38 1225.65 313.04 1221.11 314.45 1222.1 344.38"/>
    <path class="cls-78" d="M-11.72,181q-4.53,42.69-9.12,86.11L541.79,450.52q.53-29.38,1-58.46Z"/>
    <g>
      <path class="cls-79" d="M542.83,392.06q-.14,18.6-.27,37.35l-555-232.8,5.66-47.69Z"/>
      <path class="cls-16" d="M-11.91,191.87l-.57,4.74,555,232.8C542.57,427.7,168.84,267.63-11.91,191.87Z"/>
    </g>
    <path class="cls-80" d="M542.38,388q.45,10.69.91,21.41L-10.26,177.91l5.62-47.43Z"/>
    <polygon class="cls-65" points="156.43 386.04 151.52 390.09 155.94 342.02 234.34 287.51 251.34 291.36 156.43 386.04"/>
    <path class="cls-81" d="M156.43,386,276,301.32l-24.61-10L160,350.84Q158.24,368.38,156.43,386Z"/>
    <polygon class="cls-18" points="154.85 377.89 117.38 810.78 112.58 813.02 154.85 377.89"/>
    <polygon class="cls-67" points="104.68 741.53 97.74 805.96 104.34 759.4 104.68 741.53"/>
    <path class="cls-18" d="M-4.64,130.48,136.66,197l-89-39.31-52.93-22Z"/>
    <g>
      <polygon class="cls-82" points="543.21 411.69 535.61 620.08 516.4 628.62 523.03 403.34 543.21 411.69"/>
      <path class="cls-83" d="M523,403.34,508,414.9q-3.51,104.75-7.16,213.72H516.4Z"/>
      <path class="cls-82" d="M462.56,397.28l43.66,69.9h13.4q.28-8.62.58-17.21l-39.74-65.14-17-7Z"/>
      <path class="cls-67" d="M519.62,467.18,463.5,377.87q-.47,9.69-.94,19.41l43.66,69.9Z"/>
      <path class="cls-67" d="M541.79,450.52,598,410.67l12.64.13,1.62,5q-35.49,29.52-71.39,59.35Q541.34,462.83,541.79,450.52Z"/>
      <path class="cls-82" d="M593.49,411.09l17.17-.29-69.43,55.05q.28-7.68.56-15.33Z"/>
      <polygon class="cls-18" points="523.03 403.34 543.21 411.69 535.61 620.08 539.97 413.18 523.03 403.34"/>
      <path class="cls-69" d="M520.2,450l.91,18.52-14.87,6.58c0-2.63,0-5.26,0-7.89h13.4Z"/>
      <polygon class="cls-18" points="503.85 537.74 506.22 467.18 506.83 496.16 503.85 537.74"/>
      <polygon class="cls-18" points="523.11 414.27 516.4 628.62 521.54 626.31 524.72 457.49 523.11 414.27"/>
      <polygon class="cls-68" points="543.21 411.69 522.25 400.62 507.97 414.9 523.03 403.34 543.21 411.69"/>
      <path class="cls-18" d="M472.06,391.5l19.44,28.15,28.12,47.53Z"/>
      <polygon class="cls-18" points="480.46 384.83 520.2 449.97 486.88 398.6 480.46 384.83"/>
      <g>
        <path class="cls-82" d="M401,443.72l79.45-58.89-17-7L402.63,419.3Q401.82,431.48,401,443.72Z"/>
        <path class="cls-18" d="M472.06,391.5,401,443.72l16.45-14.86Z"/>
      </g>
    </g>
    <path class="cls-77" d="M135.16,238.67l1329,4.42-29.14,13.15L177.27,255.18Z"/>
    <polygon class="cls-77" points="380.48 341.44 376.93 310.12 381.46 311.54 380.48 341.44"/>
    <path class="cls-77" d="M380.48,341.44l841.61,2.94-25,9L410.24,353Z"/>
    <path class="cls-84" d="M380.53,341.81q.47-15.18.93-30.27l839.65,2.91q.5,14.93,1,29.93Z"/>
    <path class="cls-68" d="M30,194.76l29.42,12.31,19.29,8.07C54.25,205.08,46.46,204.91,44,206.78c-2.8,2.14.43,7.69,2.34,10.17,3.81,5,9.45,7,17,10.14,5.92,2.49,14.39,6.26,24.45,11.58L45.46,220.91Z"/>
    <path class="cls-68" d="M135.74,242.5l-22.06,7L135,238.67,171.86,254l49.37,20.73-56.7-19.89Z"/>
    <path class="cls-68" d="M379.53,340.76l44.15,18.64L407,351.22l-14.15-7.68Z"/>
    <polygon class="cls-68" points="379.53 340.76 354.31 350.45 359.71 352.71 379.53 340.76"/>
    <g>
      <g>
        <path class="cls-84" d="M404.82,351.3Q396,513,386.66,684.9L361,696.47q9.57-183.78,18.54-355.71Z"/>
        <path class="cls-77" d="M379.53,340.76l-18.95,10q-9.52,167.37-19.69,345.75H361Q370.56,512.69,379.53,340.76Z"/>
      </g>
      <g>
        <path class="cls-81" d="M278,317.51q38.24,57.35,77.3,116h17.31q-.72-12.84-1.46-25.62-33.43-48.69-66.28-96.48L279.4,301.13Z"/>
        <path class="cls-67" d="M372.63,433.48,279.4,301.13,278,317.51q38.24,57.35,77.3,116Z"/>
      </g>
      <g>
        <path class="cls-69" d="M387.93,402.55l-9.52,2.6-.71,35.32a4.94,4.94,0,0,1,2.22-4,8.11,8.11,0,0,1,3.46-1.1c5.27-.67,11.54-.84,14.06-.89Z"/>
        <g>
          <path class="cls-67" d="M380.77,407.66l95.51-60.27,25.57-.77,19,3.31-124.35,84.6-18.32-1.68Q379.47,420.22,380.77,407.66Z"/>
          <path class="cls-81" d="M466.39,346.61h35.46l-123.7,86.23q1.32-12.63,2.62-25.19Z"/>
        </g>
        <path class="cls-85" d="M504.28,347,382,433.2l-3.88-.35,123.7-86.23Z"/>
        <polygon class="cls-85" points="396.47 434.53 520.82 349.93 517.31 349.31 393.66 434.27 396.47 434.53"/>
        <polygon class="cls-18" points="378.15 432.85 501.86 346.62 470.97 366.68 378.25 431.17 378.15 432.85"/>
        <polygon class="cls-18" points="380.77 407.66 466.39 346.61 380.44 410.8 380.77 407.66"/>
      </g>
      <path class="cls-68" d="M374.45,438.22,361,696.47l-3.36,2.06q2.76-64.56,6.92-129.43Q368.87,501.88,374.45,438.22Z"/>
      <path class="cls-18" d="M374.45,438.22,361,696.47l2.75-1.07Q369.23,563.75,374.45,438.22Z"/>
      <polygon class="cls-18" points="355.71 436.21 355.67 498.3 351.17 570.64 347.5 570.4 355.71 436.21"/>
      <polygon class="cls-68" points="372.63 433.48 355.71 443.72 355.32 433.48 372.63 433.48"/>
      <polygon class="cls-18" points="304.89 311.38 371.17 407.86 371.38 411.4 304.89 311.38"/>
      <g>
        <polygon class="cls-18" points="400.78 434.53 386.66 684.9 381.34 687.3 400.78 434.53"/>
        <path class="cls-18" d="M379.53,340.76q10.47,5.58,21,11.17,1.06,19.83,2.13,39.82,1.11-20.31,2.2-40.45Z"/>
        <path class="cls-86" d="M358.62,387.5c.23,0,.79-8.79,3.54-20.73,1.55-6.76,3.41-14.83,5.6-14.88,1.86-.05,3.19,5.66,4.34,10.73a92,92,0,0,1,2.46,19.32c-.11,10.79.18,25.09.58,43.05q2.21-42.45,4.39-84.23l-19.82,11.95C358.51,380.89,358.42,387.5,358.62,387.5Z"/>
        <polygon class="cls-18" points="279.4 301.13 372.63 433.48 372.4 429.4 281.66 302.04 279.4 301.13"/>
      </g>
    </g>
    <path class="cls-18" d="M381.46,311.54l839.65,2.91.15,4.62L413.5,314Z"/>
    <polygon class="cls-18" points="384.78 341.44 1222.1 344.38 821.93 340.64 384.78 341.44"/>
    <polygon class="cls-82" points="1059.3 414.69 1066.9 623.26 1086.12 631.81 1079.49 406.33 1059.3 414.69"/>
    <path class="cls-83" d="M1079.49,406.33l15.06,11.57q3.51,104.85,7.17,213.91h-15.6Z"/>
    <path class="cls-82" d="M1140,400.27l-43.67,70H1082.9q-.3-8.61-.58-17.21l39.75-65.21,17-7Z"/>
    <path class="cls-67" d="M1082.9,470.22l56.15-89.38q.46,9.71.93,19.43l-43.67,70Z"/>
    <path class="cls-67" d="M1060.72,453.56l-56.26-39.89-12.64.13-1.62,5,71.42,59.39Q1061.17,465.86,1060.72,453.56Z"/>
    <path class="cls-82" d="M1009,414.09l-17.18-.29,69.46,55.09q-.29-7.68-.56-15.33Z"/>
    <polygon class="cls-18" points="1079.49 406.33 1059.3 414.69 1066.9 623.26 1062.54 416.18 1079.49 406.33"/>
    <path class="cls-69" d="M1082.32,453l-.92,18.53,14.88,6.59,0-7.91H1082.9Z"/>
    <polygon class="cls-18" points="1098.67 540.84 1096.31 470.22 1095.69 499.23 1098.67 540.84"/>
    <polygon class="cls-18" points="1079.41 417.27 1086.12 631.81 1080.97 629.5 1077.8 460.53 1079.41 417.27"/>
    <polygon class="cls-68" points="1059.3 414.69 1080.27 403.61 1094.55 417.9 1079.49 406.33 1059.3 414.69"/>
    <path class="cls-18" d="M1130.48,394.48q-9.69,14.06-19.45,28.18l-28.13,47.56Z"/>
    <polygon class="cls-18" points="1122.07 387.8 1082.32 453.01 1115.65 401.59 1122.07 387.8"/>
    <g>
      <path class="cls-81" d="M135.79,238.66q1.46-22.24,2.88-44.29L1463.53,201q1.52,21.12,3,42.4Z"/>
      <path class="cls-18" d="M135,238.67l12.83-40.94,1258.49,5.05,57.21-1.79-1325-6.62Z"/>
      <path class="cls-18" d="M135,238.67l1331.55,4.72L1395,236.54Z"/>
    </g>
    <g>
      <g>
        <path class="cls-81" d="M121.67,658.84q1.78-18.48,3.6-36.79l213.39-48.71,25.65-1.78q-3.4,62.7-6.88,127l-250,116.82Q114.19,736.22,121.67,658.84Z"/>
        <g>
          <g>
            <path class="cls-77" d="M274.46,602.36l-8.85,131,1.73-.76q4.64-66.37,9.16-131Z"/>
            <path class="cls-18" d="M272.63,602.83q-4.14,64.73-8.38,131.14l1.36-.58q4.49-66.37,8.85-131Z"/>
          </g>
          <g>
            <path class="cls-77" d="M290,596.26l-8.48,130.12,1.7-.74q4.46-65.92,8.8-130.12Z"/>
            <path class="cls-18" d="M288.18,596.72q-4,64.28-8,130.23l1.35-.57q4.29-65.91,8.48-130.12Z"/>
          </g>
          <g>
            <path class="cls-77" d="M306.18,593.81l-8.12,129.34,1.69-.74q4.26-65.5,8.43-129.33Z"/>
            <path class="cls-18" d="M304.39,594.27q-3.78,63.9-7.66,129.45l1.33-.57q4.13-65.5,8.12-129.34Z"/>
          </g>
          <g>
            <path class="cls-77" d="M322.9,588l-7.74,128.41,1.66-.73q4.08-65,8.06-128.4Z"/>
            <path class="cls-18" d="M321.13,588.46Q317.55,651.9,313.85,717l1.31-.56q3.93-65,7.74-128.41Z"/>
          </g>
          <g>
            <path class="cls-77" d="M339.44,581.8l-7.37,127.47,1.64-.72q3.9-64.54,7.69-127.46Z"/>
            <path class="cls-18" d="M337.7,582.25q-3.42,63-6.93,127.58l1.3-.56q3.74-64.54,7.37-127.47Z"/>
          </g>
        </g>
        <path class="cls-87" d="M107.62,815.34l12.69-5.93Q128.41,714,136.19,622h-10.7Z"/>
        <path class="cls-68" d="M347.5,570.4l17,1.11L135.8,626.66l-26.87-1.39Z"/>
        <path class="cls-77" d="M243.05,600.8,231.32,757.54l3.74-1.73q5.88-79.17,11.59-155.88Z"/>
        <path class="cls-77" d="M245.93,609.65l118.14-30.2c.07-1.45.15-2.9.23-4.36L246.37,603.68Q246.16,606.67,245.93,609.65Z"/>
        <polygon class="cls-84" points="246.04 608.12 364.4 578.87 364.5 571.51 246.65 599.93 246.04 608.12"/>
        <path class="cls-77" d="M261.62,605.38Q256,676.06,250.19,748.84L237,755l10.83-146Z"/>
        <polygon class="cls-84" points="259.37 606.22 249.03 749.27 235.06 755.81 245.93 609.65 259.37 606.22"/>
        <path class="cls-77" d="M235.1,755.26,357.66,698c.12-2.18.23-4.37.35-6.55L235.74,746.71Q235.41,751,235.1,755.26Z"/>
        <path class="cls-84" d="M235.06,755.81l122.57-57.28.36-6.44L235.66,747.78Z"/>
        <path class="cls-83" d="M363,580.2,356.9,692.26l-9.24,4.18q2.59-57.45,5.11-113.63Z"/>
        <path class="cls-84" d="M364.07,579.45l-6.06,112-9.23,4.17q2.58-57.42,5.09-113.56Z"/>
        <g class="cls-88">
          <g>
            <g>
              <path class="cls-77" d="M156.68,619.35,140.84,804l1.9-1q8.23-94,16.17-184.56Z"/>
              <path class="cls-18" d="M154.7,620q-7.55,90.71-15.36,184.78l1.5-.79q8.07-94,15.84-184.61Z"/>
            </g>
            <g>
              <path class="cls-77" d="M173.6,611.16,158.33,794.35l1.88-1q7.93-93.27,15.59-183.16Z"/>
              <path class="cls-18" d="M171.64,611.77,156.85,795.13l1.48-.78q7.78-93.27,15.27-183.19Z"/>
            </g>
            <g>
              <path class="cls-77" d="M191,608.11l-14.69,182,1.84-1q7.65-92.64,15-182Z"/>
              <path class="cls-18" d="M189.11,608.71q-7,89.44-14.23,182.18l1.47-.77q7.47-92.67,14.69-182Z"/>
            </g>
            <g>
              <path class="cls-77" d="M209.19,600.38l-14.1,180.55,1.82-1q7.35-91.9,14.42-180.52Z"/>
              <path class="cls-18" d="M207.28,601q-6.71,88.75-13.63,180.73l1.44-.77q7.17-91.9,14.1-180.55Z"/>
            </g>
            <g>
              <path class="cls-77" d="M227.14,592.09,213.63,771.17l1.8-1q7-91.14,13.83-179.05Z"/>
              <path class="cls-18" d="M225.26,592.67q-6.4,88.05-13,179.26l1.42-.76q6.88-91.15,13.51-179.08Z"/>
            </g>
          </g>
        </g>
        <polygon class="cls-89" points="259.37 606.22 250.3 740.34 255.84 737.82 263.1 605.26 259.37 606.22"/>
        <path class="cls-89" d="M259.37,606.22l94.5-24.16-.45,1.87-94.26,23.51Z"/>
        <path class="cls-90" d="M246.65,599.93l-20.9-1.76-4.87,1.23,22.17,1.4L231.32,757.54l3.74-1.73Z"/>
        <path class="cls-90" d="M207,602.57a.26.26,0,0,0-.15.07c-.14.28,3.68.78,8.08,1.34l9.59,1.21,3.64-.88Z"/>
        <path class="cls-90" d="M189.06,606.91a.26.26,0,0,0-.15.07c-.15.28,3.72.77,8.17,1.33l9.7,1.21,3.69-.89Z"/>
        <path class="cls-90" d="M171.1,611.21c-.06,0-.14,0-.15.07-.16.29,3.75.78,8.26,1.33l9.81,1.21,3.74-.9Z"/>
        <path class="cls-90" d="M153.25,615.44c-.06,0-.13,0-.15.08-.15.28,3.8.77,8.35,1.33l9.93,1.2,3.78-.91Z"/>
        <path class="cls-90" d="M136.68,619.43a.27.27,0,0,0-.16.07c-.16.29,3.84.78,8.44,1.33L155,622l3.82-.92Z"/>
        <polygon class="cls-18" points="246.1 607.33 246.65 599.93 364.5 571.51 248.43 600.39 246.1 607.33"/>
        <polygon class="cls-18" points="245.93 609.65 259.37 606.22 250.3 740.34 257.62 607.21 245.93 609.65"/>
        <polygon class="cls-18" points="235.66 747.78 357.99 692.09 357.63 698.53 356.82 693.69 235.66 747.78"/>
      </g>
      <path class="cls-18" d="M135.8,626.66,243.05,600.8,231.32,757.54l-4.82,2.53q6.81-79.12,13.44-156.05Z"/>
    </g>
    <g>
      <g>
        <g>
          <path class="cls-69" d="M135.74,242.5l-22.06,7q-25.93,273-54.76,576.24H83Q110.8,518.17,135.74,242.5Z"/>
          <path class="cls-81" d="M164.53,254.84q-22.38,263.85-47.15,555.94L83,825.76Q110.8,518.17,135.74,242.5Z"/>
        </g>
        <g>
          <polygon class="cls-18" points="135.74 242.5 82.96 825.76 88.26 823.45 135.74 242.5"/>
          <path class="cls-86" d="M135.74,242.5l-22.06,7q-3.09,32.57-6.23,65.55c.74-4.73,1.81-12.08,2.87-21.06,3.13-26.76,2.93-41.41,11.31-43.75a9,9,0,0,1,4.68,0c5.8,1.84,4.31,11.59,3.76,15.4-1.8,12.62-4.32,37.67-7.72,72.07-.95,17.64-1.85,37.7-.94,37.7.74,0,2.44-13.3,4.24-28.64C128.51,322.27,132.22,287.28,135.74,242.5Z"/>
          <polygon class="cls-90" points="121.41 375.39 82.96 825.76 75.88 826.67 93.73 630.34 121.41 375.39"/>
          <path class="cls-18" d="M164.53,254.84l-5.31,62.58q1.46-31.12,2.9-61.88l-26.38-13Z"/>
          <path class="cls-18" d="M154.85,377.89l-17.1,193.17q6.23-98.23,12.22-193Z"/>
          <path class="cls-91" d="M112.37,385.64a69.59,69.59,0,0,1,9-10.24l-19.88,2q-1.45,15.22-2.91,30.52S106.8,393.41,112.37,385.64Z"/>
          <path class="cls-18" d="M101.53,377.44,77.8,627a821.76,821.76,0,0,0,11.47-85.51c1.77-22.35,1.8-35.48,5.26-64.75,2.33-19.74,3.76-26,5.27-41.82A436.43,436.43,0,0,0,101.53,377.44Z"/>
        </g>
      </g>
      <g>
        <g>
          <path class="cls-92" d="M-10.28,205.83,101.53,377.44l19.88-2q.48-18.91.94-37.7L29.68,196.94-7.26,182.1Q-8.76,194-10.28,205.83Z"/>
          <path class="cls-67" d="M121.41,375.4-7.26,182.1q-1.5,11.85-3,23.73L101.53,377.44Z"/>
        </g>
        <polygon class="cls-86" points="-9.68 200.71 -10.28 205.84 101.53 377.44 107.68 376.81 -9.68 200.71"/>
        <polygon class="cls-18" points="-7.26 182.1 121.41 375.39 121.15 364.26 -7.26 182.1"/>
        <polygon class="cls-18" points="29.68 196.94 122.35 337.7 22.32 193.99 29.68 196.94"/>
      </g>
      <g>
        <polygon class="cls-91" points="251.01 254.22 263.13 238.66 392.89 238.66 344.37 247.31 323.08 242.51 268.03 242.5 251.01 254.22"/>
        <g>
          <path class="cls-69" d="M152.35,322.16,129.51,335q-2.94,27.84-5.9,56c1.44-9.27,4.9-12.2,7.87-13.11,2.8-.87,5.1.07,13.28.27,4.28.11,7.8-.05,10.09-.19Q153.59,349.87,152.35,322.16Z"/>
          <g>
            <path class="cls-67" d="M131.79,336.31,283.34,243.7l39.74-1.18,23.18,3.56L154.85,377.89l-28.54-2.6Q129.05,355.73,131.79,336.31Z"/>
            <path class="cls-92" d="M268,242.5l55.05,0L126.31,375.29q2.74-19.56,5.48-39Z"/>
          </g>
          <polygon class="cls-85" points="346.26 246.08 154.85 377.89 144.76 378.08 346.26 246.08"/>
          <polygon class="cls-85" points="126.31 375.29 323.08 242.51 130.88 375.7 126.31 375.29"/>
          <polygon class="cls-18" points="268.03 242.5 131.79 336.31 167.13 316.12 268.03 242.5"/>
        </g>
        <polygon class="cls-18" points="128.19 374.02 323.08 242.51 316.15 242.8 128.19 374.02"/>
      </g>
    </g>
    <path class="cls-81" d="M-38.7,692.59c2.34-18.55.35-5.7,2.7-24.09,75-21.18,37.61-11.65,105.52-30.84l25.36-1.12q-9.28,94.62-18.8,191.68C-4.27,878.71,19.92,860.37-71,917.5-61.53,837.93-48.49,770.29-38.7,692.59Z"/>
    <g>
      <g>
        <path class="cls-77" d="M3.71,677.6-17.4,875.2l1.76-1Q-4.78,774.08,5.79,676.6Z"/>
        <path class="cls-18" d="M1.87,678.2-18.8,876l1.4-.8Q-6.7,775.11,3.71,677.6Z"/>
      </g>
      <g>
        <path class="cls-77" d="M19.55,669.32-1.13,865.59l1.75-1q10.62-99.42,21-196.24Z"/>
        <path class="cls-18" d="M17.73,669.9q-10,97-20.24,196.47l1.38-.78Q9.36,766.17,19.55,669.32Z"/>
      </g>
      <g>
        <path class="cls-77" d="M35.68,666.62,15.44,861.72l1.72-1q10.41-98.82,20.56-195.08Z"/>
        <path class="cls-18" d="M33.88,667.2q-9.78,96.39-19.8,195.3l1.36-.78Q25.7,762.9,35.68,666.62Z"/>
      </g>
      <g>
        <path class="cls-77" d="M52.65,658.87,32.87,852.59l1.7-1q10.17-98.1,20.09-193.69Z"/>
        <path class="cls-18" d="M50.87,659.45q-9.54,95.71-19.34,193.91l1.34-.77q10-98.12,19.78-193.72Z"/>
      </g>
      <g>
        <path class="cls-77" d="M69.49,650.51,50.16,842.83l1.68-1q9.94-97.38,19.63-192.29Z"/>
        <path class="cls-18" d="M67.73,651.07,48.83,843.59l1.33-.76q9.78-97.4,19.33-192.32Z"/>
      </g>
    </g>
    <path class="cls-68" d="M78.49,633.76l16.58,2.73C22.5,658.37,46,653.44-34.77,677.8L-61,674C17.92,651.53-2.24,656.77,78.49,633.76Z"/>
    <path class="cls-77" d="M-25,686.87,93.9,648.47l.63-6.58L-24,677.86Q-24.5,682.36-25,686.87Z"/>
    <polygon class="cls-84" points="-24.74 684.55 94.27 647.61 95.07 636.49 -23.36 672.2 -24.74 684.55"/>
    <path class="cls-77" d="M-49.44,906.4l125.8-79,1-9.89L-48,893.51Q-48.73,899.95-49.44,906.4Z"/>
    <path class="cls-84" d="M-49.54,907.23,76.28,828.15q.48-4.86,1-9.72l-125.44,76.7Z"/>
    <path class="cls-83" d="M92.75,649.53,76.16,818.64l-9.47,5.74q8-86.71,15.79-171.53Z"/>
    <path class="cls-84" d="M93.9,648.47l-16.58,169-9.46,5.74q8-86.67,15.77-171.43Z"/>
    <path class="cls-89" d="M-11.47,682.5l95.1-30.72c-.2.93-.41,1.87-.62,2.8l-94.8,29.75C-11.68,683.72-11.57,683.11-11.47,682.5Z"/>
    <polygon class="cls-18" points="-24.6 683.36 -23.36 672.2 95.07 636.49 -21.66 673.01 -24.6 683.36"/>
    <polygon class="cls-18" points="-48.19 895.13 77.25 818.43 76.28 828.15 75.94 820.79 -48.19 895.13"/>
  </g>
</svg>
