<svg id="Layer_1" data-name="Layer 1" xmlns="http://www.w3.org/2000/svg" xmlns:xlink="http://www.w3.org/1999/xlink" width="1600" height="900" viewBox="0 0 1600 900">
  <defs>
    <style>
      .cls-1, .cls-94, .cls-95 {
        fill: none;
      }

      .cls-2 {
        clip-path: url(#clip-path);
      }

      .cls-3 {
        clip-path: url(#clip-path-2);
      }

      .cls-4 {
        fill: url(#linear-gradient);
      }

      .cls-25, .cls-5 {
        fill: #bfd9f1;
      }

      .cls-5 {
        opacity: 0.56;
      }

      .cls-6 {
        fill: #207d78;
        opacity: 0.36;
      }

      .cls-7 {
        fill: url(#linear-gradient-2);
      }

      .cls-8 {
        fill: #6c8a3b;
      }

      .cls-9 {
        fill: #c4926c;
      }

      .cls-10 {
        fill: #b6885e;
      }

      .cls-11 {
        fill: #7c451d;
      }

      .cls-12 {
        fill: #8b522b;
      }

      .cls-13 {
        fill: #1c3f1d;
      }

      .cls-14 {
        fill: #152c1a;
      }

      .cls-15 {
        fill: #122416;
      }

      .cls-16 {
        fill: #184226;
      }

      .cls-17 {
        opacity: 0.62;
      }

      .cls-18 {
        clip-path: url(#clip-path-3);
      }

      .cls-19 {
        opacity: 0.59;
      }

      .cls-20 {
        clip-path: url(#clip-path-4);
      }

      .cls-21 {
        fill: #2a7b44;
      }

      .cls-22 {
        fill: #0b1e14;
      }

      .cls-23 {
        clip-path: url(#clip-path-5);
      }

      .cls-24 {
        clip-path: url(#clip-path-6);
      }

      .cls-26 {
        clip-path: url(#clip-path-7);
      }

      .cls-27 {
        fill: url(#linear-gradient-3);
      }

      .cls-28 {
        fill: #61c94b;
      }

      .cls-29 {
        fill: #d8bea4;
      }

      .cls-30 {
        fill: url(#linear-gradient-4);
      }

      .cls-31 {
        fill: url(#linear-gradient-5);
      }

      .cls-32 {
        fill: url(#linear-gradient-6);
      }

      .cls-33 {
        fill: #c28a73;
        opacity: 0.75;
      }

      .cls-34 {
        fill: #754d32;
      }

      .cls-35 {
        fill: #3beaa2;
      }

      .cls-36 {
        fill: url(#linear-gradient-7);
      }

      .cls-37 {
        fill: url(#linear-gradient-8);
      }

      .cls-38 {
        fill: url(#linear-gradient-9);
      }

      .cls-39 {
        fill: url(#linear-gradient-10);
      }

      .cls-40 {
        fill: url(#linear-gradient-11);
      }

      .cls-41 {
        fill: #ce856b;
      }

      .cls-42 {
        fill: #443834;
      }

      .cls-43 {
        fill: #635347;
      }

      .cls-44 {
        fill: #191411;
      }

      .cls-45 {
        fill: #96806e;
      }

      .cls-46 {
        fill: #aa9481;
      }

      .cls-47 {
        fill: #a08973;
      }

      .cls-48 {
        fill: #bca08e;
      }

      .cls-49 {
        fill: #afa094;
      }

      .cls-50 {
        fill: #594a42;
      }

      .cls-51 {
        fill: #7f3932;
        fill-rule: evenodd;
      }

      .cls-52 {
        fill: #231d1a;
      }

      .cls-53 {
        fill: #1e1816;
      }

      .cls-134, .cls-54 {
        fill: #3f352d;
      }

      .cls-55, .cls-85 {
        fill: #565551;
      }

      .cls-56 {
        fill: #af9885;
      }

      .cls-57 {
        fill: #b2967f;
      }

      .cls-58 {
        fill: #685248;
      }

      .cls-59 {
        fill: #51453b;
      }

      .cls-60 {
        fill: #846f5e;
      }

      .cls-61 {
        fill: #473730;
      }

      .cls-62 {
        fill: #493e34;
      }

      .cls-63 {
        fill: #897466;
      }

      .cls-64 {
        fill: #3a312e;
      }

      .cls-65 {
        fill: #594a4c;
      }

      .cls-66 {
        fill: #594a40;
      }

      .cls-67 {
        fill: #af9784;
      }

      .cls-68 {
        fill: #6b5a51;
      }

      .cls-69 {
        fill: #2d2624;
      }

      .cls-70 {
        fill: #544440;
      }

      .cls-71 {
        fill: #4c3f37;
      }

      .cls-72 {
        fill: #2d2d2d;
      }

      .cls-73 {
        fill: #44433e;
      }

      .cls-74 {
        fill: #594941;
      }

      .cls-75 {
        fill: #4c3c31;
      }

      .cls-76 {
        fill: #3f3f3f;
      }

      .cls-77 {
        fill: #474746;
      }

      .cls-78 {
        fill: #302824;
      }

      .cls-79 {
        fill: #51423f;
      }

      .cls-80 {
        fill: #4f4f4e;
      }

      .cls-81 {
        fill: #191919;
      }

      .cls-82 {
        fill: #0c0704;
      }

      .cls-83 {
        fill: #110b07;
      }

      .cls-84 {
        fill: #232323;
      }

      .cls-85 {
        opacity: 0.31;
      }

      .cls-86 {
        fill: #454441;
      }

      .cls-87 {
        fill: #4c3d2c;
      }

      .cls-88 {
        fill: #b5b5b4;
      }

      .cls-89 {
        fill: #442d22;
      }

      .cls-90 {
        fill: #b79f8b;
      }

      .cls-91 {
        fill: #493e38;
      }

      .cls-92 {
        fill: #6b5b51;
      }

      .cls-93 {
        fill: #6b584b;
      }

      .cls-94, .cls-95 {
        stroke: #0c0704;
        stroke-miterlimit: 10;
        stroke-width: 0.75px;
      }

      .cls-94 {
        opacity: 0.22;
      }

      .cls-95 {
        opacity: 0.24;
      }

      .cls-96 {
        fill: #736357;
        opacity: 0.34;
      }

      .cls-97 {
        fill: #564845;
      }

      .cls-98 {
        fill: #51463c;
        opacity: 0.5;
      }

      .cls-99 {
        fill: #b29880;
      }

      .cls-100 {
        fill: url(#linear-gradient-12);
      }

      .cls-101 {
        fill: #515d30;
      }

      .cls-102 {
        fill: #633d35;
      }

      .cls-103 {
        fill: url(#linear-gradient-13);
      }

      .cls-104 {
        fill: #6cbd46;
      }

      .cls-105 {
        fill: url(#linear-gradient-14);
      }

      .cls-106 {
        fill: url(#linear-gradient-15);
      }

      .cls-107 {
        fill: url(#linear-gradient-16);
      }

      .cls-108 {
        fill: url(#linear-gradient-17);
      }

      .cls-109 {
        fill: url(#linear-gradient-18);
      }

      .cls-110 {
        fill: url(#linear-gradient-19);
      }

      .cls-111 {
        fill: url(#linear-gradient-20);
      }

      .cls-112 {
        fill: url(#linear-gradient-21);
      }

      .cls-113 {
        fill: url(#linear-gradient-22);
      }

      .cls-114 {
        fill: url(#linear-gradient-23);
      }

      .cls-115 {
        fill: url(#linear-gradient-24);
      }

      .cls-116 {
        fill: url(#linear-gradient-25);
      }

      .cls-117 {
        fill: url(#linear-gradient-26);
      }

      .cls-118 {
        fill: url(#linear-gradient-27);
      }

      .cls-119 {
        fill: #09a53f;
      }

      .cls-120 {
        fill: #514e47;
      }

      .cls-121 {
        fill: #706c63;
      }

      .cls-122 {
        fill: #7c7972;
      }

      .cls-123 {
        fill: #565450;
      }

      .cls-124 {
        fill: #3f3f3e;
      }

      .cls-125 {
        fill: #5e5b54;
      }

      .cls-126 {
        fill: #4c4943;
      }

      .cls-127 {
        fill: #b2b1ad;
      }

      .cls-128 {
        fill: #bcbbb7;
      }

      .cls-129 {
        fill: #a3a099;
      }

      .cls-130, .cls-131 {
        fill: #706e69;
      }

      .cls-130 {
        opacity: 0.42;
      }

      .cls-131 {
        opacity: 0.4;
      }

      .cls-132 {
        fill: #6dd861;
      }

      .cls-133 {
        fill: #897968;
      }

      .cls-134 {
        opacity: 0.3;
      }

      .cls-135 {
        fill: url(#linear-gradient-28);
      }

      .cls-136 {
        fill: #e8d6ca;
        opacity: 0.53;
      }
    </style>
    <clipPath id="clip-path">
      <rect class="cls-1" x="-1050" width="800" height="900"/>
    </clipPath>
    <clipPath id="clip-path-2">
      <rect class="cls-1" x="-1480.27" y="-0.15" width="1600.54" height="900.3"/>
    </clipPath>
    <linearGradient id="linear-gradient" x1="2155.08" y1="-33.5" x2="2155.08" y2="932.84" gradientTransform="matrix(-1, 0, 0, 1, 1438, 0)" gradientUnits="userSpaceOnUse">
      <stop offset="0" stop-color="#9fb6de"/>
      <stop offset="0.23" stop-color="#bbcae7"/>
      <stop offset="0.43" stop-color="#d7def0"/>
    </linearGradient>
    <linearGradient id="linear-gradient-2" x1="-494.58" y1="36.7" x2="861.69" y2="36.7" gradientUnits="userSpaceOnUse">
      <stop offset="0" stop-color="#a2b8df"/>
      <stop offset="0.03" stop-color="#a6bbe0"/>
      <stop offset="0.21" stop-color="#bbcae7"/>
      <stop offset="0.42" stop-color="#cbd5ec"/>
      <stop offset="0.66" stop-color="#d4dcef"/>
      <stop offset="1" stop-color="#d7def0"/>
    </linearGradient>
    <clipPath id="clip-path-3">
      <rect class="cls-1" x="31" y="684.84" width="310.53" height="43.1" transform="translate(-542.78 753.1) rotate(-78.89)"/>
    </clipPath>
    <clipPath id="clip-path-4">
      <rect class="cls-1" x="112.13" y="740.82" width="161.53" height="30.75" transform="translate(-586.3 799.82) rotate(-78.89)"/>
    </clipPath>
    <clipPath id="clip-path-5">
      <rect class="cls-1" x="1850" width="800" height="900"/>
    </clipPath>
    <clipPath id="clip-path-6">
      <rect class="cls-1" x="1660" width="1600" height="900"/>
    </clipPath>
    <clipPath id="clip-path-7">
      <rect class="cls-1" width="1600" height="900"/>
    </clipPath>
    <linearGradient id="linear-gradient-3" x1="642.2" y1="1048.27" x2="873.65" y2="-95.93" gradientUnits="userSpaceOnUse">
      <stop offset="0.2" stop-color="#c5f7fd"/>
      <stop offset="0.34" stop-color="#b3f0fd"/>
      <stop offset="0.66" stop-color="#8ee1fd"/>
      <stop offset="0.83" stop-color="#80dbfd"/>
    </linearGradient>
    <linearGradient id="linear-gradient-4" x1="813.44" y1="-289.67" x2="786.86" y2="550.44" gradientUnits="userSpaceOnUse">
      <stop offset="0.09" stop-color="#5ac1ad"/>
      <stop offset="0.24" stop-color="#5ac1ad"/>
      <stop offset="0.55" stop-color="#4ac6a8"/>
      <stop offset="0.62" stop-color="#48bea3"/>
      <stop offset="0.7" stop-color="#45af9a"/>
    </linearGradient>
    <linearGradient id="linear-gradient-5" x1="-48.76" y1="719.24" x2="2027.49" y2="-326.43" gradientUnits="userSpaceOnUse">
      <stop offset="0" stop-color="#fff"/>
      <stop offset="0.07" stop-color="#229d73"/>
      <stop offset="0.32" stop-color="#23a97a"/>
      <stop offset="0.39" stop-color="#23ad7c"/>
      <stop offset="0.4" stop-color="#23ad7c"/>
      <stop offset="0.72" stop-color="#23b477"/>
    </linearGradient>
    <linearGradient id="linear-gradient-6" x1="219.06" y1="353.6" x2="215.62" y2="177.52" gradientUnits="userSpaceOnUse">
      <stop offset="0" stop-color="#907d61"/>
      <stop offset="0.06" stop-color="#8b7660"/>
      <stop offset="0.47" stop-color="#6e4f57"/>
      <stop offset="0.69" stop-color="#634054"/>
    </linearGradient>
    <linearGradient id="linear-gradient-7" x1="210.93" y1="236.07" x2="308.73" y2="-4.58" gradientUnits="userSpaceOnUse">
      <stop offset="0.26" stop-color="#55b093"/>
      <stop offset="0.39" stop-color="#61c489"/>
      <stop offset="0.56" stop-color="#6ddb7d"/>
      <stop offset="0.68" stop-color="#72e379"/>
    </linearGradient>
    <linearGradient id="linear-gradient-8" x1="409.82" y1="133.2" x2="338.7" y2="230.86" gradientUnits="userSpaceOnUse">
      <stop offset="0.3" stop-color="#72e379"/>
      <stop offset="0.87" stop-color="#57b479"/>
    </linearGradient>
    <linearGradient id="linear-gradient-9" x1="84.62" y1="216.64" x2="153.49" y2="151.42" gradientUnits="userSpaceOnUse">
      <stop offset="0.23" stop-color="#2fac76"/>
      <stop offset="0.54" stop-color="#31ad79"/>
      <stop offset="0.74" stop-color="#36b281"/>
      <stop offset="0.88" stop-color="#3db98e"/>
    </linearGradient>
    <linearGradient id="linear-gradient-10" x1="125.33" y1="177.01" x2="123.46" y2="81.37" gradientUnits="userSpaceOnUse">
      <stop offset="0.18" stop-color="#63c28e"/>
      <stop offset="0.6" stop-color="#63c091"/>
    </linearGradient>
    <linearGradient id="linear-gradient-11" x1="207.17" y1="241.73" x2="308.85" y2="105.08" gradientUnits="userSpaceOnUse">
      <stop offset="0.07" stop-color="#39a57e"/>
      <stop offset="0.77" stop-color="#72e379"/>
    </linearGradient>
    <linearGradient id="linear-gradient-12" x1="-40.59" y1="675.09" x2="118.16" y2="21.48" gradientUnits="userSpaceOnUse">
      <stop offset="0" stop-color="#694722"/>
      <stop offset="0.55" stop-color="#4f4030"/>
    </linearGradient>
    <linearGradient id="linear-gradient-13" x1="240.79" y1="140.69" x2="431.66" y2="-57.49" gradientUnits="userSpaceOnUse">
      <stop offset="0" stop-color="#0d5f3f"/>
      <stop offset="0.16" stop-color="#06724b"/>
      <stop offset="0.28" stop-color="#008355"/>
      <stop offset="0.42" stop-color="#24975b"/>
      <stop offset="0.56" stop-color="#43a861"/>
      <stop offset="0.68" stop-color="#56b264"/>
      <stop offset="0.76" stop-color="#5db665"/>
    </linearGradient>
    <linearGradient id="linear-gradient-14" x1="-165.01" y1="392.12" x2="275.42" y2="-101.65" gradientTransform="matrix(1.08, 0, 0, 1.06, -6.32, -182.32)" gradientUnits="userSpaceOnUse">
      <stop offset="0" stop-color="#0d5f3f"/>
      <stop offset="0.27" stop-color="#157d66"/>
      <stop offset="0.43" stop-color="#198a77"/>
      <stop offset="0.76" stop-color="#1ca989"/>
    </linearGradient>
    <linearGradient id="linear-gradient-15" x1="3339.99" y1="181.03" x2="3192.81" y2="-117.28" gradientTransform="matrix(-0.98, 0.17, 0.17, 0.98, 3603.74, -679.91)" gradientUnits="userSpaceOnUse">
      <stop offset="0" stop-color="#0d5f3f"/>
      <stop offset="0.03" stop-color="#127251"/>
      <stop offset="0.08" stop-color="#1fa37f"/>
      <stop offset="0.1" stop-color="#24b792"/>
      <stop offset="0.67" stop-color="#24b792"/>
    </linearGradient>
    <linearGradient id="linear-gradient-16" x1="-304.19" y1="43.6" x2="517.03" y2="43.6" gradientUnits="userSpaceOnUse">
      <stop offset="0.09" stop-color="#106e5b"/>
      <stop offset="0.3" stop-color="#0e8168"/>
      <stop offset="0.4" stop-color="#0d8c6f"/>
      <stop offset="0.5" stop-color="#139673"/>
      <stop offset="0.67" stop-color="#22b27d"/>
      <stop offset="0.68" stop-color="#23b37e"/>
    </linearGradient>
    <linearGradient id="linear-gradient-17" x1="-365.25" y1="81.55" x2="608.1" y2="14.2" gradientUnits="userSpaceOnUse">
      <stop offset="0.21" stop-color="#0b6848"/>
      <stop offset="0.36" stop-color="#127b57"/>
      <stop offset="0.55" stop-color="#1c986d"/>
      <stop offset="0.6" stop-color="#279e6e"/>
      <stop offset="0.7" stop-color="#44ad71"/>
      <stop offset="0.8" stop-color="#66be75"/>
    </linearGradient>
    <linearGradient id="linear-gradient-18" x1="79.04" y1="705.67" x2="262.1" y2="458.65" gradientUnits="userSpaceOnUse">
      <stop offset="0" stop-color="#43b555"/>
      <stop offset="0.03" stop-color="#40b255"/>
      <stop offset="0.27" stop-color="#289b52"/>
      <stop offset="0.49" stop-color="#1a8e50"/>
      <stop offset="0.68" stop-color="#15894f"/>
    </linearGradient>
    <linearGradient id="linear-gradient-19" x1="1263.74" y1="660.04" x2="1400.37" y2="475.68" gradientUnits="userSpaceOnUse">
      <stop offset="0.2" stop-color="#218b4d"/>
      <stop offset="0.36" stop-color="#3ba362"/>
      <stop offset="0.52" stop-color="#4eb571"/>
      <stop offset="0.63" stop-color="#5b7"/>
    </linearGradient>
    <linearGradient id="linear-gradient-20" x1="1127.98" y1="640.02" x2="1162.55" y2="453.49" gradientUnits="userSpaceOnUse">
      <stop offset="0.18" stop-color="#45ac66"/>
      <stop offset="0.25" stop-color="#52b26f"/>
      <stop offset="0.4" stop-color="#6abd7e"/>
      <stop offset="0.54" stop-color="#78c488"/>
      <stop offset="0.65" stop-color="#7dc68b"/>
    </linearGradient>
    <linearGradient id="linear-gradient-21" x1="1389.99" y1="626.79" x2="1535.21" y2="28.88" xlink:href="#linear-gradient-12"/>
    <linearGradient id="linear-gradient-22" x1="1630.31" y1="122.05" x2="1789.61" y2="-43.34" xlink:href="#linear-gradient-13"/>
    <linearGradient id="linear-gradient-23" x1="1184.39" y1="349.97" x2="1553.71" y2="-64.09" xlink:href="#linear-gradient-14"/>
    <linearGradient id="linear-gradient-24" x1="1172.57" y1="271.6" x2="1346.21" y2="55.05" gradientUnits="userSpaceOnUse">
      <stop offset="0" stop-color="#0d5f3f"/>
      <stop offset="0.33" stop-color="#0b7251"/>
      <stop offset="0.33" stop-color="#0b7251"/>
      <stop offset="0.43" stop-color="#087353"/>
      <stop offset="0.76" stop-color="#017458"/>
    </linearGradient>
    <linearGradient id="linear-gradient-25" x1="1172.57" y1="274.25" x2="1346.21" y2="57.7" gradientUnits="userSpaceOnUse">
      <stop offset="0.03" stop-color="#106a56"/>
      <stop offset="0.42" stop-color="#116e59"/>
      <stop offset="0.62" stop-color="#0d745b"/>
      <stop offset="0.75" stop-color="#077b5e"/>
    </linearGradient>
    <linearGradient id="linear-gradient-26" x1="1188.93" y1="37.63" x2="1855.76" y2="37.63" xlink:href="#linear-gradient-16"/>
    <linearGradient id="linear-gradient-27" x1="1138.9" y1="68.91" x2="1929" y2="14.23" xlink:href="#linear-gradient-17"/>
    <linearGradient id="linear-gradient-28" x1="888.66" y1="400.89" x2="886.73" y2="398.97" xlink:href="#linear-gradient-18"/>
  </defs>
  <g id="SC_06">
    <g id="SC_06-2" data-name="SC_06">
      <g class="cls-2">
        <g class="cls-3">
          <path class="cls-4" d="M-44.58,861.82c-1-9.24-1.8-18.47-2.84-27.69q-2.19-14.75-4.64-29.44c-4.14-25-8.58-49.92-12-75-4.38-32.14-8.67-64.21-8.73-96.7a83.84,83.84,0,0,1,11.5-42.51q6.59-8.54,13.18-17.05a84.24,84.24,0,0,1,37.17-21.67l22.39-3a63.61,63.61,0,0,1,27.21,4.79l9.41-7.26a62.6,62.6,0,0,1,31.31-10,42.36,42.36,0,0,1,22.4,0,62.67,62.67,0,0,1,31.32,10l8.83,6.83V-33.5h-1718V932.84H-47.45l6.63-39.79C-42.2,882.66-43.48,872.24-44.58,861.82Z"/>
          <path class="cls-5" d="M166.39,103.8q-.37-3-.76-5.9c-1-7.75-2.3-15.5-2.84-23.32,0-.29,0-.58,0-.87-290.44,32.86-597,83.54-798.77,40C-397.18,166.14-98.21,126.63,166.39,103.8Z"/>
          <path class="cls-6" d="M-213,195c-35.38,4-148.34,22.71-157.5,24.14-6.47,1-87.38-18.76-134.35-30.46a176.14,176.14,0,0,0-67.49-3.47l-456.13,64.82-58.91-21.78a99.32,99.32,0,0,0-45.8-5.56l-108,12.31c-35.89-27.73-122-51.43-159.06-60.74A53.53,53.53,0,0,0-1434,177a1038.52,1038.52,0,0,1-98.14,35.17q.75,13.06,1.26,26.14c2.13,54.51,1.39,109-.14,163.5l1713,99.1,6.1-240.17S-179.65,191.25-213,195Z"/>
          <path class="cls-7" d="M161.88,32.18c0-.3,0-.61,0-.92q-1.26-9.42-2.39-18.94c0-2.06.08-4.1.18-6.14C-80.85,43.67-318.06,79.92-485.84,49.51-291.23,85.48-59.28,60,161.88,32.18Z"/>
          <path class="cls-8" d="M-678.07,270.93c-392.16-4.55-849.93,23.53-849.93,23.53v605H-31.11l4.69-30.06q-2-16.26-3.67-32.56c-.95-9.62-1.76-19.25-2.78-28.85-1.41-10.25-2.94-20.47-4.52-30.69-4-26-8.36-52-11.69-78.18-4.26-33.5-8.45-66.92-8.5-100.79a92,92,0,0,1,11.21-44.31l12.84-17.77A81.07,81.07,0,0,1,2.71,513.71l21.83-3.13a58.44,58.44,0,0,1,26.53,5L60.24,508a58.35,58.35,0,0,1,30.53-10.42,38.79,38.79,0,0,1,21.83,0A58.42,58.42,0,0,1,143.14,508l16.62,13.73a67,67,0,0,1,5.24,5.85V314.9S-285.9,275.48-678.07,270.93Z"/>
          <path class="cls-9" d="M188.08,373.25c-65.71-9.31-133.57-10.2-200.53-11l-727.73-8.35-359.37-4.13c-111-1.27-234.54-15.26-344.25-1.06-37.82,4.9-77,8.11-116.28,11.51-2.29,27-5.05,54-8.1,80.93a87,87,0,0,1,6.5,37q0,62.06.46,124.11.85,105.75,3.73,211.49c69.09,44,159.7,63.22,248,65,97.67,1.93,194.17-15.52,289.52-32.86,42.59,50.64,112,83,184.44,100.07s148.47,20.28,223.75,23.19c78.69,3,162.58,4.84,230.17-28.12,28.26-13.79,52.22-33.09,81.55-45.29,69-28.71,151.63-13.08,228.4-4.45,46,5.18,97.36,5.68,140.64-5.91-2.78-17.82-5.45-35.67-7.75-53.57C55.57,788,50,744.2,50,699.85a119.52,119.52,0,0,1,14.83-58l17-23.27a107.35,107.35,0,0,1,48-29.56l28.89-4.11a78,78,0,0,1,35.11,6.55q2.25-1.85,4.51-3.68C192,516.42,189.06,444.85,188.08,373.25Z"/>
          <ellipse class="cls-10" cx="12.95" cy="440.28" rx="16.05" ry="7.13"/>
          <path class="cls-11" d="M162.27,699.85c0-1.15,0-2.29.07-3.43-8.86-.76-18.32-1.18-28.16-1.18C84.91,695.24,45,705.59,45,718.36s39.94,23.11,89.21,23.11c10.38,0,20.34-.46,29.61-1.3C162.86,726.77,162.29,713.34,162.27,699.85Z"/>
          <ellipse class="cls-12" cx="32.73" cy="761.39" rx="67.79" ry="20.15"/>
          <ellipse class="cls-12" cx="37.17" cy="784.15" rx="67.79" ry="20.15"/>
          <path class="cls-12" d="M164.91,754.23a197.23,197.23,0,0,0-37.28-3.32c-37.44,0-67.79,9-67.79,20.15s30.35,20.15,67.79,20.15a191.74,191.74,0,0,0,40.73-4Q166.4,770.72,164.91,754.23Z"/>
          <path class="cls-13" d="M174.17,831.83c-3.09-22.76-6.15-45.5-8.4-68.3C-141.15,770.87-275.67,814-275.67,814c-78.36-3.1-252.87,13.52-414.67,31.85-363.48-87.29-918.56-148.62-918.56-148.62L-1585,905.7l668.23-5,46,4.8H185.73C181.61,881,177.53,856.47,174.17,831.83Z"/>
          <g>
            <path class="cls-14" d="M174.17,831.83c-2-14.75-4-29.49-5.76-44.24C146,750.37,112.78,716.27,91.25,697c-26-23.18-55.18-41.25-86.64-51.57A192.53,192.53,0,0,0-43,636c-8-.52-39.41,7.08-45.17,2.69C-53.18,665.32-32,704.29-5,739.88c26.7,35.17,57.4,56,93.72,75.72,31.65,17.22,62.92,34.79,91.66,57.68C178.18,859.49,176.06,845.67,174.17,831.83Z"/>
            <path class="cls-15" d="M174.17,831.83q-1.81-13.38-3.57-26.73c-3.22-6.75-6.61-13.06-9.78-18.62A394.05,394.05,0,0,0,95.46,701C46.6,652.92-20,615.61-82.66,641.5c94.39,11,157.91,132.41,226.51,195.84,12.6,11.65,25.94,21.34,36.44,35.26C178.11,859,176,845.45,174.17,831.83Z"/>
            <path class="cls-14" d="M176.92,850.9c-23.55-32.68-75.33-54.43-100.2-74.37-44.87-36-90.54-52.64-142.59-36-21.61,6.91-42.71,12.84-64.27,19.05,47.71,24.91,97.07,43.69,143.78,70,42.24,23.8,78.38,21.9,123.27,30.77,16.45,3.25,30.51,11.46,44.42,18.65Q179,865,176.92,850.9Z"/>
            <path class="cls-14" d="M174.17,831.83c-6-43.87-11.82-87.63-11.9-132q0-5.79.58-11.44c-26.08-45.74-62.71-84.72-100.41-108C43.87,569,24.89,559.55,4.09,556.17c21.52,98.07,90,211.29,157.53,278.45,5.59,5.56,10.59,10.26,15.13,15.16Q175.42,840.81,174.17,831.83Z"/>
            <path class="cls-15" d="M162.27,699.85q0-5.69.56-11.24C135.4,642,97.34,602,62.44,580.43c-18.55-11.46-36-21.35-57-20.9C73.17,628,100.21,727.65,158.77,805c4.79,6.33,9.59,12.66,14.34,19C167.53,782.76,162.35,741.57,162.27,699.85Z"/>
            <path class="cls-14" d="M174.17,831.83c-6-43.87-11.82-87.63-11.9-132a114.29,114.29,0,0,1,11.29-49.67c-5.5-13.34-11-27.26-15.9-42.16C144,566.62,141,520.64,126.75,479.82c-8.43-24.18-21.35-43.21-40.24-58.59C99,465.93,96.69,478.09,86.8,524,68.62,608.46,96,695.45,129.91,772.57c6.52,14.82,35.47,102.8,47.19,106.46a12.59,12.59,0,0,0,4.33.6C178.83,863.72,176.35,847.8,174.17,831.83Z"/>
            <path class="cls-15" d="M175.9,844.06q-.89-6.1-1.73-12.23c-6-43.87-11.82-87.63-11.9-132a114.2,114.2,0,0,1,13.08-53.24c-8-15.38-15.71-30.85-20.88-48.13-11.65-38.92-14.31-80.21-27.72-118.66-7.62-21.85-24.14-39.87-38-59.67,13.35,20,15.71,47.39,18.19,71.23C119.3,610.39,118.31,735.9,175.9,844.06Z"/>
            <path class="cls-14" d="M174.17,831.83c-6-43.87-11.82-87.63-11.9-132a114.47,114.47,0,0,1,15.7-58l18-23.27A114.87,114.87,0,0,1,246.67,589l6-.81c8.19-29.31,20.48-56.75,38.29-80.06C176,511.34,128.81,655.49,149.39,770.67c4.44,24.86,4.61,109.84,30.25,105.2a11,11,0,0,0,1.13-.28C178.42,861,176.16,846.45,174.17,831.83Z"/>
            <path class="cls-15" d="M195.94,618.56A114.87,114.87,0,0,1,246.67,589l5.2-.7a473.17,473.17,0,0,1,21.81-67.44c-34.08,15.52-63.7,59.4-83.18,104.75Z"/>
            <path class="cls-15" d="M174.17,831.83c-4.6-33.83-9.12-67.58-11-101.6-7.14,50.43-8.36,99.39,10.72,150.82a71.44,71.44,0,0,0,7-4.95C178.47,861.36,176.19,846.62,174.17,831.83Z"/>
            <path class="cls-16" d="M168.23,876.92c.28-.2-1.51-4.08-6.06-10.16a118.78,118.78,0,0,0-22.63-22.24c-10.55-8.18-24.09-16.35-39.49-24.38s-32.59-16-49.85-26c-17.46-9.78-34.41-18.76-50.58-25.21A218.69,218.69,0,0,0-23.74,761c-7.45-2.08-14.51-3.45-20.88-4.7-12.77-2.59-23.45-3.67-30.83-3.25s-11.36,1.61-11.31,2,4.07,0,11.25.35,17.44,2,30,5.06c6.32,1.51,13.2,3.09,20.42,5.34a233.08,233.08,0,0,1,22.73,8.28c15.76,6.61,32.42,15.61,49.85,25.37,17.4,10.07,34.86,17.92,50.21,25.66s28.9,15.34,39.51,22.9a141.37,141.37,0,0,1,23.29,20.33c5,5.47,7.35,8.88,7.71,8.61"/>
            <path class="cls-16" d="M154.92,835.62c.34-.25-1.75-3.93-5.07-10.82s-7.72-17.06-12.69-29.92c-2.51-6.42-5.21-13.49-8.28-21s-6.55-15.44-10-23.9c-6.88-16.86-14.14-35.6-22.25-55.08S80.28,657,71.73,641a302.35,302.35,0,0,0-25.57-40.81,175.57,175.57,0,0,0-21.43-23.89c-5.57-5.07-9-7.36-9.24-7.07-.63.74,12.09,11.46,27.53,33.58a346.1,346.1,0,0,1,24.19,40.93c8.2,16,16.28,34.28,24.35,53.69s15.48,38.07,22.65,54.88c3.55,8.41,7.21,16.34,10.44,23.68l8.89,20.71C139,809.34,144,819.39,148,826s6.67,9.87,7,9.64"/>
            <path class="cls-16" d="M58.43,671c-.31.29,3.23,5.07,8.61,13s12.54,19.19,20.34,31.72,15,23.75,20.69,31.54,9.56,12.26,9.84,12-3-5.17-8.23-13.27-12.16-19.42-20-32-15.23-23.67-21.09-31.34-9.91-12-10.19-11.73"/>
            <path class="cls-16" d="M151.75,794.15c.39-.16-.74-4.56-2.41-12.58s-3.73-19.71-6.08-34.28c-4.65-29.3-14.6-68.66-22-112.92-1.83-11.06-3.38-21.89-4.58-32.39q-.42-4-.93-7.86c-.3-2.55-.57-5.1-.81-7.62-.47-5-.8-10-1.07-14.86-1-19.43-1.26-37.1-2.29-51.9a244.87,244.87,0,0,0-4.37-34.8c-1.72-8.09-3.35-12.34-3.67-12.23s.49,4.58,1.53,12.7a347,347,0,0,1,2.57,34.65c.51,14.72.33,32.33,1.09,52,.2,4.91.48,10,.9,15.11.22,2.57.46,5.17.75,7.8s.61,5.2.87,7.83c1.13,10.63,2.66,21.59,4.51,32.74,7.44,44.6,18,83.88,23.6,112.65,2.84,14.45,5.47,26.14,7.86,34s4.18,12.06,4.51,11.93"/>
            <g class="cls-17">
              <g class="cls-18">
                <path class="cls-16" d="M156.16,814c-.1-3.59-.07-7.36.09-11.29s.59-8,.95-12.28c.76-8.53,1.72-17.64,2.92-27.19,1-7.82,2.18-16,3.59-24.29-.52-7.72-.93-15.45-1.17-23.2C159,732.12,156.69,748,155,762.68c-1.08,9.66-1.87,18.86-2.44,27.47-.25,4.31-.58,8.43-.64,12.54s.05,7.92.28,11.61a145.3,145.3,0,0,0,6.23,34.08c2.42,7.74,4.24,11.8,4.58,11.67s-.74-4.49-2.49-12.35A175.84,175.84,0,0,1,156.16,814Z"/>
                <path class="cls-16" d="M195.94,618.56q3.65-3.62,7.52-6.85c2.43-5.86,4.84-11.31,7.27-16.29,6.25-13,12.65-22.66,17.87-28.55s8.92-8.26,8.69-8.67-4.31,1.37-10.2,7-13,15.27-19.82,28.26c-4.05,7.61-8,16.35-12,25.94C195.49,619.14,195.72,618.85,195.94,618.56Z"/>
              </g>
            </g>
            <g class="cls-19">
              <g class="cls-20">
                <path class="cls-21" d="M170.38,803.37c-.74,1.9-1.43,3.74-2,5.51-5,14.27-6,23.67-5.66,23.69.46.1,2.08-9.08,7.49-23,.24-.63.51-1.28.77-1.93C170.75,806.24,170.56,804.8,170.38,803.37Z"/>
              </g>
            </g>
          </g>
          <g>
            <path class="cls-22" d="M139.28,945.48c-30.95-91.32,6.91-143.07,6.91-143.07-30.84,16-88.4,48.6-95.48,143.77Z"/>
            <path class="cls-22" d="M117.27,945.66C13.43,843.47,75.58,771,75.58,771,11,810.62,17.91,887.47,41,946.26Z"/>
            <path class="cls-22" d="M152.76,880.55c-.89-8.23-1.78-16.45-2.6-24.67-15.67,22.72-24.35,53.43,4.32,89.48l7.28-.06C158.34,923.71,155.11,902.12,152.76,880.55Z"/>
            <path class="cls-22" d="M60.32,946.11C20.76,807.37,106.93,770.7,106.93,770.7S5.5,802.14-15,946.71Z"/>
            <path class="cls-22" d="M152.76,880.55c-.64-6-1.29-11.95-1.91-17.92-25.21,19.58-61.43,50-90.09,83.47l60.75-.48c11.44-15.83,22.9-35,32.69-52.74C153.7,888.77,153.21,884.66,152.76,880.55Z"/>
            <path class="cls-22" d="M-27.27,946.8C-76.81,755.65,77,748.48,77,748.48S-31,760.36,33.45,946.32Z"/>
            <path class="cls-22" d="M-69.13,947.14c-25.6-156.8,112.05-149.2,112.05-149.2s-100.66,8.33-57.87,148.77Z"/>
          </g>
        </g>
      </g>
    </g>
  </g>
  <g id="SC_05">
    <g class="cls-23">
      <g class="cls-24">
        <path class="cls-25" d="M2405.81,154.64c-232.5,54.16-679-84-922.88-28.93l-2.23,55C1654.66,71.92,2103.2,224.33,2405.81,154.64Z"/>
        <path class="cls-6" d="M1456.55,200.18s168,18.09,418.6-26.6a125,125,0,0,1,29.31-1.57c33,2.08,109.72,7.58,142.8,15.43l93.65-6.21a239.5,239.5,0,0,1,40.38.72l52.85,5.49,394.74-30.25a428.62,428.62,0,0,1,59.22-.41c41.78,2.62,113.73,7,119.33,6.54,7.92-.64,105.51-9,136.19-11,28.92-1.92,354.75,11.64,354.75,11.64l9.5,75-1851.32,8.41Z"/>
      </g>
    </g>
  </g>
  <g>
    <g class="cls-26">
      <rect class="cls-27" y="-4" width="1600" height="544.35"/>
      <rect class="cls-28" y="518" width="1604" height="384"/>
      <path class="cls-29" d="M613.86,551.92,484.35,538.17l-43.3,15.46-53,12.84L359.87,547.2S253.27,596,303.63,606,469,604.58,441.5,646.29s-173.63,57.28-60.07,93S622,744.86,642.51,798.43s122.56,51,207.53,46.28,114.17-36.28,215.07-18,231.29,20.86,220.09-15.42-98.31-56.86-149.75-74.58S1050,710,1125,682s115.28-66,5.14-61-205.73-32.46-94.94-35.73,219.74,14.46,147.77-15.91-77.8-33.21-169.88-33.29S898,593.3,820.5,567.65,763.29,531,701.14,538,648.72,548.83,613.86,551.92Z"/>
      <path class="cls-30" d="M31.2,315.55C102.09,268.62,194,220.38,305.89,190.11c335.29-90.72,618.87,42.56,727.63,101.95,170-13.2,363.85-23.76,466.84-13.71,52.37,5.11,57.3,13.21,57.63,16.88,1.09,12.27-44.53,27.58-83.25,38.59Z"/>
      <path class="cls-31" d="M-24,261.31s282.1-101.24,445.66-22.64c142.56,72.07,154.56,85.38,339.13,31.12,163.56-23.74,259.21,42.9,339.68,40.95,0,0,328.07-51.73,481.88-20.91l4.52,51.17-1610.75-.38Z"/>
      <g>
        <path class="cls-32" d="M286.92,342.43c.15-.39-1.06-1-2.09-2.48a9.13,9.13,0,0,1-1.38-3.36c-.91-3.53-4.42-7.81-5.58-9.38-3.68-5-5.41-12.54-8.29-25A186.64,186.64,0,0,1,266,280.77c-.21-12.45,1.5-21.82,5-27.23a146.77,146.77,0,0,0,10-18.47s20.67.94,22.44,0,6.79-5.4,5.91-16.94l.29-2.78-5.31,1.49s-1.64,10.35-8.45,11.15c-8.11,1.12-17.39-3.86-16-11.15H274s1.82,21.25-7.11,25.74c-6.65,1.76-10.58-1-10.28-13.47l.3-12.44-10.59,0s.61,13.22,0,14-5.29,9-10.28-7.85c-4.24-11.87-1.82-6.15-1.82-6.15l-5.75.13s2.57,13.07,11,21.25c5.6,7.86,5.75,21,1.52,25.65-4.54,4.65-12.25,7.22-18.15-20.36-3.94-18.28-5-26.54-5-26.54l-8.16-.09s3.32,21.82,2.72,25.67c-.76,4.33-1.06,17.64-18.91,12-9.26-1.36-27.82-6.26-35.54-21-2.88-12.51-2.27-17.32-2.27-17.32L149,216s.15,7.23,1.51,9.15a21.36,21.36,0,0,1-11.87-2.61,23.91,23.91,0,0,1-10.36-12.1l-5.34-.22a31.82,31.82,0,0,0,5.39,9.43,31.08,31.08,0,0,0,18,10.63,48.26,48.26,0,0,1,5.29.92s-.3,0-.3,0,1.36,18.92,22.69,27.57c19.06,7.54,27.38,11.39,32.22,14.43s8.17,6.26,7.41,16.68A86.49,86.49,0,0,0,215,314.81a84.61,84.61,0,0,0,10.44,26.86c16.37.54,26.89.59,33.64.53,13.52-.13,21.22-.84,25.27.16C284.34,342.36,286.71,343,286.92,342.43Z"/>
        <path class="cls-33" d="M265.67,278.06a41.84,41.84,0,0,0-12.85,12c-14.47,21-4.62,48.61-3.5,51.61l38.22.73a123,123,0,0,1-7.36-12.3A134.4,134.4,0,0,1,265.67,278.06Z"/>
        <path class="cls-33" d="M221.61,238.33s7.08,27.81,12.63,27.6C228.5,268.77,217.78,261.06,221.61,238.33Z"/>
        <path class="cls-34" d="M261.24,311.5a7.1,7.1,0,0,1-4.11,0,1.9,1.9,0,0,1-1.22-1.74,4.78,4.78,0,0,1,.47-2.09,14.69,14.69,0,0,1,2.25-3.53,13.44,13.44,0,0,1,3.18-2.77,5.16,5.16,0,0,1,2.12-.74,2.64,2.64,0,0,1,1.23.18,3.08,3.08,0,0,1,.55.33,5.7,5.7,0,0,1,.43.42,5.35,5.35,0,0,1,1,2,11.06,11.06,0,0,1,.36,2.12,24.19,24.19,0,0,1-1,8.3l0,.06,0,.07a23,23,0,0,1-5.85,7,8.06,8.06,0,0,1-2.08,1.14,3.86,3.86,0,0,1-2.54.11,3.91,3.91,0,0,1-1.9-1.65,9,9,0,0,1-1-2.15,26.3,26.3,0,0,1-.82-9c.2-3,.35-5.95.59-8.92,0,3,0,6,0,8.94A25.47,25.47,0,0,0,254,318.3a9.17,9.17,0,0,0,.91,1.89,2.91,2.91,0,0,0,1.41,1.23c1.13.37,2.52-.33,3.63-1.16a23.29,23.29,0,0,0,5.49-6.67l-.06.13a23.46,23.46,0,0,0,1.08-7.9,10.23,10.23,0,0,0-.31-1.93,4.26,4.26,0,0,0-.77-1.65c-.67-.95-2-.7-3.13-.08a14.09,14.09,0,0,0-5.36,5.77,4.33,4.33,0,0,0-.54,1.85,1.52,1.52,0,0,0,.92,1.48,4.83,4.83,0,0,0,1.94.38A10.77,10.77,0,0,0,261.24,311.5Z"/>
        <path class="cls-35" d="M115.3,154.81c1.65-12,6-30.09,19-44.88C169.5,70,236.9,88.58,258.47,94.54c53.23,14.73,87.73,50.05,104.63,70.6l8.38,6.6A691.41,691.41,0,0,1,237.71,183a691,691,0,0,1-116.4-11.46Z"/>
        <path class="cls-36" d="M115.77,154.15c1.63-11.55,5.92-29,18.81-43.21C169.41,72.48,236.1,90.38,257.44,96.12c52.68,14.18,86.81,48.18,103.54,68l8.29,6.35a702.66,702.66,0,0,1-132.36,10.84,702.55,702.55,0,0,1-115.19-11Z"/>
        <path class="cls-35" d="M333.4,160.85s48.74-11.19,70.35,22.9c14.07,26.47,16.58,35.05-70.35,30.25C318.7,171.63,333.4,160.85,333.4,160.85Z"/>
        <path class="cls-37" d="M334.67,161.84S382,150.46,403,185.12c13.67,26.91,16.11,35.63-68.32,30.75C320.39,172.8,334.67,161.84,334.67,161.84Z"/>
        <path class="cls-35" d="M126,209.46c-1.47,0-44.08-3-44.08-3s-26.45-5.5-11.26-19a25.38,25.38,0,0,0,9.6-8.18c3-4.42,2.21-6.59,4.14-10.66C90.46,155.73,111,151.34,111,151.34h0s27.8-5.69,48.49,5.47c2.3,1.25,3.44,1.92,4.32,3.08,9.57,12.63-20.19,49.57-20.19,49.57Z"/>
        <path class="cls-38" d="M125.59,210.32c-1.42,0-42.57-3-42.57-3s-25.55-5.51-10.88-19.05a24.82,24.82,0,0,0,9.27-8.21c2.92-4.44,2.14-6.61,4-10.69C91.32,156.43,111.12,152,111.12,152h0S138,146.32,158,157.52c2.23,1.25,3.32,1.92,4.17,3.08,9.24,12.67-19.5,49.72-19.5,49.72Z"/>
        <path class="cls-35" d="M104.33,135.55s4-9.43,31.73-4.64c25.68,5.86,6,20.76-15.86,17.57S100.67,138.83,104.33,135.55Z"/>
        <path class="cls-39" d="M104.49,136.16s3.9-9.16,30.75-4.51c24.89,5.7,5.85,20.18-15.38,17.08S100.94,139.35,104.49,136.16Z"/>
        <path class="cls-35" d="M128.23,175.36s24.25-20.2,49.67-28.12c27.77-11.88,64.54-38.42,109.13-26.14,34.42,11.49,60.23,27.33,75.48,56.64,7.44,17,8.61,37.63-48.1,34.85l-158,.26S94.59,208.24,128.23,175.36Z"/>
        <path class="cls-40" d="M125.91,178.39s24.54-20.54,50.25-28.59c28.1-12.08,65.29-39.06,110.4-26.57,34.81,11.67,60.93,27.78,76.36,57.58,7.52,17.31,8.7,38.25-48.67,35.43l-159.85.26S91.89,211.81,125.91,178.39Z"/>
        <path class="cls-41" d="M309.65,217.16s.76,12-4.56,16.64c-1.59,1.63-2.84,1.59-4.74,1.63a11,11,0,0,0,6.61-7.94,59.84,59.84,0,0,0,1.38-10.71h1.31Z"/>
        <path class="cls-33" d="M256.87,216.67c-.21,2.1-.31,9.41-.23,10.83.37,6.23.78,13.33,4.6,15.16a5,5,0,0,0,2.86.38l1.44-.17c-1.77,2.33-3.36,2.52-3.87,2.55-3.16.15-6.85-4.19-7.75-11.18a45,45,0,0,1-.63-10.05c.14-2.8.67-7.52.67-7.52h2.91Z"/>
      </g>
      <g>
        <path class="cls-42" d="M0,568,435.55,252.51l231.61-47.85,135.42-4s156,29.65,168.71,27.5S1076.73,307,1076.73,307s60.71,122.42,77,126.71,183.61-10.65,187-5.68,29.2,72.92,36.76,80,33,33.54,33,33.54Z"/>
        <path class="cls-43" d="M0,502.68c0,.32,154.86-17.82,154.86-17.82l57.71,28.53-1.34,28.16L219,572.36l-82.11-13-27.38-25.66L0,551.73Z"/>
        <polygon class="cls-44" points="719.35 572.33 675.43 508.86 647.54 530.36 644.9 577.82 719.35 572.33"/>
        <path class="cls-45" d="M162.57,420.23l55.29-59.14,93.77-2.25-35.92,62.52-39.14,16,26,61.15-50,14.85-57.71-28.53S162.14,414.46,162.57,420.23Z"/>
        <polyline class="cls-46" points="441.02 314.04 366.52 440.81 347.98 430.74 300.98 425.43 275.71 421.36 311.63 358.84 397.04 322.37 435.55 252.51 515.56 222.93 514.86 261.53 515.56 222.93 582.4 203.13 619.37 186.57 630.72 214.72 630.32 237 521.67 256.55"/>
        <polygon class="cls-47" points="0 502.68 77.71 401.44 162.57 420.23 154.86 484.86 0 502.68"/>
        <polygon class="cls-47" points="77.71 401.44 109.48 348.83 217.86 361.09 162.57 420.23 77.71 401.44"/>
        <polygon class="cls-48" points="287.63 307.44 397.04 322.37 311.63 358.84 287.63 307.44"/>
        <polyline class="cls-48" points="311.63 358.84 217.86 361.09 109.48 348.83 210.56 303.85 287.63 307.44"/>
        <polygon class="cls-43" points="328.11 312.11 435.55 252.51 397.04 322.37 328.11 312.11"/>
        <path class="cls-43" d="M0,338.41c10-3.41,109.48,10.42,109.48,10.42L77.71,401.44,0,502.68Z"/>
        <polygon class="cls-43" points="0 231.07 122.71 263.34 91.86 302 0 284.28 0 231.07"/>
        <polygon class="cls-47" points="122.71 263.34 165.83 323.75 109.48 348.83 91.86 302 122.71 263.34"/>
        <polygon class="cls-47" points="0 284.28 91.86 302 109.48 348.83 0 338.41 0 284.28"/>
        <polyline class="cls-49" points="1110.4 294.72 1257.48 361.09 1155.35 343.48 1113.62 281.18"/>
        <polyline class="cls-49" points="1418.31 303.89 1447 231.07 1481.47 333.91"/>
        <path class="cls-50" d="M1155.35,343.48s-1,37.32-.67,36.92,63.35,63,63.35,63l86-2.64,36.69,21.75-13.51,47s64.17,32.49,64.51,32S1600,543.71,1600,543.71V219.65l-153,11.42-28.69,72.82L1312.2,273.31,1191,307l-77.36-25.81-3.21,13.54Z"/>
        <path class="cls-51" d="M988.58,394c-60.81,49.32-16.24,81.73-18.63,123.29-1,17.31-1.58,39.79,10.6,39.58l240.64-4.12c9.09-.16,10.47-11.77,1.48-30-4.48-9.09-15.23-24.27-17.43-19-9.56,22.9-127.45,43.22-144.55-19.29C1040.62,411,975.18,427.61,988.58,394Z"/>
        <path class="cls-52" d="M654.15,302.44s82.73,23.49,93.48,33.69a77.48,77.48,0,0,1,15.56,20.28l33.32,10.14,19.59,35.07L755,367.27,677.37,429s-25.3,4.31-18.15,43.48-4.71,101-4.71,101l-47.24-.87s-58.37,20.16-97.58-24.16-91.24-130.41-19.55-180.06S654.15,302.44,654.15,302.44Z"/>
        <path class="cls-53" d="M715,482.57s53.59,27.12,61.73-39.82,39.39-41.13,39.39-41.13l-19.59-35.07-37.94-17.72S654.12,415.1,649,450.69s-2.21,122.68-2.21,122.68l78.35,1.41s24.83-38,27-49.25Z"/>
        <path class="cls-44" d="M816.1,401.62l33.28,62.12-1.08,60Q853.64,535.87,859,548q-.5,17-1,34l-22.32-.08-115.52-2.09-44.73-71,24.11-79.42,67.23-38,29.45-8.54Z"/>
        <path class="cls-54" d="M611,363.21l-32.37,46.67-22.62,7.81,8.84,9.32-4.32,17.77-13.06,2.76L564.38,455l-3.67,25.5-14.4,34,17,.31,44,57.87s59.67,19.08-31-.56-89.5-16.29-89.5-16.29L454.55,444.87l44.72-67.28L598.52,337l25.16,8.45Z"/>
        <path class="cls-42" d="M590.27,572.33l-168.11-3s-20.06-44.37-19.92-52.36.07-4.15.07-4.15l94.37,8.13S579.26,573.13,590.27,572.33Z"/>
        <path class="cls-55" d="M496.68,520.92s-13.8-38.54-8.73-42.45-84.69-18.38-84.69-18.38l-.95,52.7Z"/>
        <path class="cls-43" d="M488,478.47s-5.13-20.81,5.54-43.76,33.69-24.54,41.09-46.41,23.15-63.59,54.29-71,65.28-14.83,65.28-14.83l13.25-13.76,58.22-12,31.46-25.43L733,257.85l-53-8-8.25,21.85-29.05,2.48-47.33,18.29-28-2.65,45.75-41.18-76.84,45.62,7.61,22.15S504,363.32,459,367.22l-21.48-5.67s-41.7,70.54-34.21,98.54Z"/>
        <path class="cls-47" d="M437.47,361.55l63.13-57.88s27.66-8.5,43.28,12.79C543.88,316.46,478.41,389.29,437.47,361.55Z"/>
        <polygon class="cls-43" points="536.27 294.31 514.28 293.92 568.12 247.88 630.32 237 630.72 214.72 673.16 190.76 790.89 206.89 769.51 227.51 685.58 222.99 662.07 243.57 628.64 242.97 613.11 248.69 536.27 294.31"/>
        <polygon class="cls-47" points="613.11 248.69 567.36 289.87 595.32 292.52 642.65 274.23 658.1 249.5 685.58 222.99 613.11 248.69"/>
        <polygon class="cls-43" points="642.65 274.23 679.95 249.9 728.91 244.78 757.09 251.29 741.13 264.19 818.62 261.9 818.79 252.4 749.36 236.15 673.37 234.78 658.1 249.5 642.65 274.23"/>
        <path class="cls-56" d="M673.16,190.76s60.3-15.91,71.35-18.71,91,11.64,91,11.64l-44.57,23.2Z"/>
        <polyline class="cls-47" points="659.83 296.54 667.4 288.68 719.35 275.61 818.11 290.11 902.89 318.93 939.32 406.6 934.99 424.52 912.09 419.11 880.18 342.02 817.89 302.39 745.81 306.18 698.39 297.24 654.15 302.44"/>
        <polygon class="cls-43" points="769.51 227.51 790.89 206.89 835.46 183.69 851.14 221.48 819.22 228.4 769.51 227.51"/>
        <polygon class="cls-48" points="819.22 228.4 834.32 246.68 866.94 238.26 901.49 247.89 926.72 239.34 873.43 208.38 819.22 228.4"/>
        <polygon class="cls-57" points="673.37 234.78 749.36 236.15 818.79 252.4 825.22 252.51 810.26 228.24 685.58 222.99 673.37 234.78"/>
        <polygon class="cls-48" points="818.79 252.4 955.39 291.87 1006.64 299.93 998.61 264.21 935.13 254.5 900.33 258.87 834.32 246.68 818.79 252.4"/>
        <polygon class="cls-48" points="734.01 269.94 818.34 277.39 818.62 261.9 745.59 260.58 734.01 269.94"/>
        <polygon class="cls-43" points="725.62 276.72 813.97 289.5 833.65 284.26 818.62 261.9 818.34 277.39 734.01 269.94 725.62 276.72"/>
        <polygon class="cls-43" points="819.22 228.4 866.94 238.26 901.49 247.89 926.72 239.34 935.13 254.5 900.33 258.87 825.22 252.51 810.26 228.24 819.22 228.4"/>
        <polyline class="cls-58" points="809.16 289.41 912.18 305.95 950.05 365.78 1047.74 439.56 982.59 447.38 939.24 410.6 902.89 318.93 805.26 289.34"/>
        <polygon class="cls-59" points="818.79 252.4 955.39 291.87 976.07 365.25 1048.21 413.52 1047.74 439.56 950.05 365.78 912.18 305.95 871.77 300.36 854.49 285.05 833.65 284.26 818.34 277.39 818.79 252.4"/>
        <polygon class="cls-60" points="955.34 291.92 1006.61 299.93 1055.55 371.22 1009.56 353.35 976.11 365.29 955.34 291.92"/>
        <polygon class="cls-61" points="654.15 302.44 694.21 297.16 738.42 306.04 815.19 301.34 814.81 322.52 755.72 327.07 654.15 302.44"/>
        <path class="cls-43" d="M814.81,322.52l51,56.75,15.73,66.29,9.34,96.18,38.68,22-11.49-87.55-6-58.11L880.18,342l-65-40.68S814.81,322.7,814.81,322.52Z"/>
        <path class="cls-62" d="M912.1,418.11s12.78,20.23,20,6.36l7.18-13.88,17.8,19.3L929.55,563.77Z"/>
        <path class="cls-43" d="M654.15,302.44,611,363.21,556.59,387.7l-13.67-18.33s9.66-37.16,31.32-45.57S654.15,302.44,654.15,302.44Z"/>
        <path class="cls-43" d="M556.59,387.7l-26,51.54-23.14-.42,19,10.34L530.6,492l-20,8.32,19.89.36,59.82,71.69-97.82-51.77-8.83-43s-4-34.89,15.3-51.71,31.88-29.68,31.88-29.68l12.12-26.77Z"/>
        <path class="cls-47" d="M654.15,302.44s87.66,27.58,93.48,33.69,10.94,12.7,10.94,12.7l56.24-26.31-59.09,4.55L660.5,301.6Z"/>
        <polygon class="cls-63" points="758.57 348.83 796.51 366.55 822.32 413.24 865.8 379.27 838.85 349.28 814.81 322.52 758.57 348.83"/>
        <path class="cls-64" d="M835.87,401,859,379.58l20,60.88,18.64,98.92L866,534q-1-39.15-2-78.3Z"/>
        <polygon class="cls-65" points="356.6 568.12 402.31 512.79 422.16 569.3 356.6 568.12"/>
        <path class="cls-50" d="M437.47,361.55l-45,32.76L358.64,454.9l12.77,4.61-13,7.59,4.33,45-6.15,56,45.71-55.33.95-52.7S418.58,379.21,437.47,361.55Z"/>
        <polygon class="cls-47" points="437.47 361.55 500.6 303.67 514.28 293.92 568.12 247.88 521.67 256.55 457.09 303.89 456.54 316.06 438.22 320.33 392.52 394.31 437.47 361.55"/>
        <polygon class="cls-47" points="1054.32 439.67 1068.16 472.07 1101.58 472.67 1125.47 502.68 1203.35 533.66 1257.48 527.28 1248.5 510.18 1180.14 473.95 1145.15 473.31 1122.57 449.9 1103.09 460.03 1072.59 440 1054.32 439.67"/>
        <polygon class="cls-50" points="1068.16 472.07 1066.05 588.91 1098.19 589.49 1090.76 502.05 1101.58 472.67 1068.16 472.07"/>
        <polygon class="cls-64" points="1101.58 472.67 1125.47 502.68 1203.35 533.66 1174.85 600.87 1113.62 589.77 1101.58 472.67"/>
        <path class="cls-42" d="M1203.35,533.66c-.28-.29,54.13-6.38,54.13-6.38L1229.36,589l-54.51,11.86Z"/>
        <polygon class="cls-47" points="1055.35 382.68 1129.39 428.02 1231.55 451.87 1210.54 420.23 1091.8 373.34 1055.35 382.68"/>
        <polygon class="cls-50" points="1055.35 382.68 1129.39 428.02 1122.57 449.9 1103.09 460.03 1072.59 440 1047.74 439.56 1055.35 382.68"/>
        <path class="cls-42" d="M1129.39,428l24.33,5.68-.66,44.76-7.91-5.14-22.59-23.42Z"/>
        <polygon class="cls-62" points="1153.72 433.7 1231.55 451.87 1209.52 489.52 1180.14 473.95 1152.91 478.46 1153.72 433.7"/>
        <polygon class="cls-47" points="957.04 429.89 942.77 499.39 1009.38 522.8 1068.16 472.07 1054.32 439.67 982.59 447.38 939.24 410.6 957.04 429.89"/>
        <polygon class="cls-42" points="942.77 499.39 929.55 563.77 929.14 586.44 1017.2 588.03 1009.38 522.8 942.77 499.39"/>
        <polygon class="cls-62" points="1009.38 522.8 1068.16 471.93 1066.05 588.91 1017.2 588.03 1009.38 522.8"/>
        <polygon class="cls-42" points="1101.15 472.52 1090.76 502.05 1098.19 589.49 1113.62 589.77 1101.15 472.52"/>
        <polygon class="cls-47" points="976.11 365.29 1009.56 353.35 1055.55 371.22 1091.8 373.34 1055.35 382.68 1048.21 413.52 976.11 365.29"/>
        <polygon class="cls-43" points="1006.61 299.93 1093.86 322.37 1091.8 373.34 1055.55 371.22 1006.61 299.93"/>
        <polygon class="cls-66" points="1093.86 322.37 1155.35 343.48 1154.68 380.4 1210.54 420.23 1091.8 373.34 1093.86 322.37"/>
        <polygon class="cls-47" points="998.61 264.21 1093.54 276.43 1155.35 343.48 1093.86 322.37 1006.61 299.93 998.61 264.21"/>
        <polygon class="cls-66" points="1100.62 276.55 1100.81 322.49 1155.35 343.48 1100.62 276.55"/>
        <polygon class="cls-67" points="935.13 254.5 971.29 228.14 1036.69 220.43 1099.49 231.95 1064.43 250.82 1035.81 269 935.13 254.5"/>
        <path class="cls-68" d="M1099.49,232l10.91,62.77-16.86-18.3L1035.81,269S1089.43,235.27,1099.49,232Z"/>
        <g>
          <path class="cls-42" d="M999.72,539.55l27.92,13.76q7.78,30,15.56,60h0c-.13,0-11.65-3.53-23-7.87-8.31-3.18-12.47-4.77-13.8-6.06-2.13-2.05-6.09-6.94-7.17-30.79A232.51,232.51,0,0,1,999.72,539.55Z"/>
          <path class="cls-50" d="M1024.2,553.25s.88-5.79,20.88-1.28,32.3,8,32.3,8l39.26,7.88q-2.37,24.55-4.75,49.1-11.66,0-23.94-.43c-15.66-.58-30.59-1.73-44.75-3.29Q1033.71,583.26,1024.2,553.25Z"/>
          <path class="cls-69" d="M1116.64,567.89l21.86-12.58-8.4,37.15-4.25,9.87q-7,7.33-14,14.66Q1114.28,592.43,1116.64,567.89Z"/>
          <path class="cls-47" d="M1000.48,540.39c8.82-5.78,25.21-14.57,46.62-14.91a81.27,81.27,0,0,1,19.28,2c-2.61.08-5.81.29-5.85.86s2.57,1.22,3.47,1.35c8.5,1.21,32.09.9,40.33,3.9s34.17,21.71,34.17,21.71l-21.86,12.58c-10.57-1.44-21.91-3.42-33.88-6.13-10.66-2.41-20.63-5.13-29.87-8-15.65-1.39-27.1-2.17-27.46-2-.8.28-.75.31-1.21.47C1019.73,553.72,1012.55,552.22,1000.48,540.39Z"/>
        </g>
        <g>
          <path class="cls-70" d="M254.76,437.55l30,13.8,16.77,60h0c-.14,0-12.51-3.54-24.72-7.91-8.92-3.19-13.39-4.78-14.81-6.06-2.29-2.07-6.55-7-7.74-30.81A216.48,216.48,0,0,1,254.76,437.55Z"/>
          <path class="cls-50" d="M281,451.28s.94-5.78,22.41-1.25,34.66,8.08,34.66,8.08L380.23,466q-2.5,24.56-5,49.1-12.51,0-25.68-.46c-16.8-.6-32.83-1.78-48-3.35Q291.27,481.3,281,451.28Z"/>
          <path class="cls-42" d="M380.23,466l23.44-12.55-9,37.14-4.55,9.86-15,14.65Q377.72,490.6,380.23,466Z"/>
          <path class="cls-47" d="M255.57,438.39c9.45-5.77,27-14.53,50-14.85a94.48,94.48,0,0,1,20.69,2c-2.81.08-6.23.29-6.28.86s2.75,1.23,3.73,1.36c9.11,1.22,34.42.94,43.27,3.95s36.69,21.75,36.69,21.75L380.23,466c-11.34-1.45-23.51-3.44-36.36-6.17-11.43-2.42-22.13-5.15-32.05-8-16.8-1.41-29.08-2.21-29.47-2.08-.86.28-.81.31-1.3.47C276.24,451.75,268.53,450.24,255.57,438.39Z"/>
        </g>
        <g>
          <path class="cls-42" d="M1229.76,523.55l30,13.8,16.77,60h0c-.14,0-12.51-3.54-24.72-7.91-8.92-3.19-13.39-4.78-14.81-6.06-2.29-2.07-6.55-7-7.74-30.81A216.48,216.48,0,0,1,1229.76,523.55Z"/>
          <path class="cls-50" d="M1256,537.28s.94-5.78,22.41-1.25,34.66,8.08,34.66,8.08l42.13,7.93q-2.51,24.56-5,49.1-12.51,0-25.68-.46c-16.8-.6-32.83-1.78-48-3.35Q1266.27,567.3,1256,537.28Z"/>
          <path class="cls-71" d="M1355.23,552l23.44-12.55-9,37.14-4.55,9.86-15,14.65Q1352.72,576.6,1355.23,552Z"/>
          <path class="cls-47" d="M1230.57,524.39c9.45-5.77,27-14.53,50-14.85a94.48,94.48,0,0,1,20.69,2c-2.81.08-6.23.29-6.28.86s2.75,1.23,3.73,1.36c9.11,1.22,34.42.94,43.27,4s36.69,21.75,36.69,21.75L1355.23,552c-11.34-1.45-23.51-3.44-36.36-6.17-11.43-2.42-22.13-5.15-32-8-16.8-1.41-29.08-2.21-29.47-2.08-.86.28-.81.31-1.3.47C1251.24,537.75,1243.53,536.24,1230.57,524.39Z"/>
        </g>
        <g>
          <path class="cls-42" d="M1202.76,440.55l30,13.8,16.77,60h0c-.14,0-12.51-3.54-24.72-7.91-8.92-3.19-13.39-4.78-14.81-6.06-2.29-2.07-6.55-7-7.74-30.81A216.48,216.48,0,0,1,1202.76,440.55Z"/>
          <path class="cls-50" d="M1229,454.28s.94-5.78,22.41-1.25,34.66,8.08,34.66,8.08l42.13,7.93q-2.51,24.56-5,49.1-12.51,0-25.68-.46c-16.8-.6-32.83-1.78-48-3.35Q1239.27,484.3,1229,454.28Z"/>
          <path class="cls-71" d="M1328.23,469l23.44-12.55-9,37.14-4.55,9.86-15,14.65Q1325.72,493.6,1328.23,469Z"/>
          <path class="cls-47" d="M1203.57,441.39c9.45-5.77,27-14.53,50-14.85a94.48,94.48,0,0,1,20.69,2c-2.81.08-6.23.29-6.28.86s2.75,1.23,3.73,1.36c9.11,1.22,34.42.94,43.27,3.95s36.69,21.75,36.69,21.75L1328.23,469c-11.34-1.45-23.51-3.44-36.36-6.17-11.43-2.42-22.13-5.15-32-8-16.8-1.41-29.08-2.21-29.47-2.08-.86.28-.81.31-1.3.47C1224.24,454.75,1216.53,453.24,1203.57,441.39Z"/>
        </g>
        <polygon class="cls-67" points="835.94 206.2 897.3 184.8 1036.69 220.43 971.29 228.14 935.13 254.5 926.72 239.34 881.5 213.06 851.14 221.48 835.94 206.2"/>
        <g>
          <path class="cls-42" d="M214.92,501.89a7,7,0,0,1,2.16,1c2.54,1.78,1.81,5.12,3.29,6.74,4.92,5.38,9.69,7.38,18.92,13.31,2.12,1.36,3.8,2.5,4.73,3.13.12,8.46.29,15.5.43,20.61.18,6.37,1.06,29.76,1.06,29.76l-28.58-8.9q-3.08-6.93-6.14-13.84.93-14.3,2.12-29Q213.84,513.2,214.92,501.89Z"/>
          <polygon class="cls-72" points="217.04 561.43 215.62 551.49 232.52 527.79 217.04 561.43"/>
          <path class="cls-50" d="M244,526.83c3.4-.23,6.86-.43,10.39-.58,7.45-.32,14.64-.43,21.57-.37l29.53.53,19.46-2.7q5.46,22.21,10.93,44.44l-.27,14.48c-4.73.26-11.64.65-20,1.17-18,1.12-26.95,1.68-37.57,2.75-8,.81-19.28,2.13-32.82,4.37"/>
          <path class="cls-47" d="M227.33,497.27s-9.62.73-10.78,5.08c-.55,2.06,1,4.14,2.29,5.62,6.75,7.89,18.69,15.18,25.17,18.86l5.59.1,19.17-.42,36.71.66,19.23-3.47,17.72-8.83-4.77-.85-53.89-22.33-14.3-4.07s-5.38-2.38-14.69-.26S227.33,497.27,227.33,497.27Z"/>
          <path class="cls-42" d="M324.71,523.7l17.72-8.83L338.5,556q-1.81,12.32-3.64,24.63-.69-5.5-1.4-11Z"/>
          <path class="cls-73" d="M215.76,566l29.49,24.93q.12-8,.23-16Z"/>
        </g>
        <polygon class="cls-74" points="457.09 303.89 456.54 316.06 438.22 320.33 457.09 303.89"/>
        <polygon class="cls-43" points="654.15 302.44 747.63 336.13 758.57 348.83 755.72 327.07 667.18 298.67 654.15 302.44"/>
        <path class="cls-43" d="M611,363.21s43.83-25.75,49.71-28.65,52.55-10.8,52.55-10.8l-59.15-21.32Z"/>
        <path class="cls-43" d="M654.06,307.44l-47,55.69-40.4-36.32S647.47,308.24,654.06,307.44Z"/>
        <polygon class="cls-50" points="370.49 518.65 358.47 534.56 356.55 558.47 369.22 532.7 370.49 518.65"/>
        <polygon class="cls-72" points="417.14 508.01 443.67 521.48 437.81 541.51 439.28 520.64 417.14 508.01"/>
        <path class="cls-43" d="M402.52,505.62s-33.17,5.44-37.23,8.51S350.05,527,350.05,527s14.35-11.45,17.29-12S402.52,505.62,402.52,505.62Z"/>
        <polygon class="cls-50" points="544.45 411.77 530.59 439.24 507.45 438.82 525.78 434.65 544.45 411.77"/>
        <polygon class="cls-62" points="514.28 293.92 528.28 296.17 540.66 305.39 546.67 288.14 536.27 294.31 514.28 293.92"/>
        <polygon class="cls-48" points="673.16 190.76 630.72 214.72 619.37 186.57 673.16 190.76"/>
        <polygon class="cls-74" points="630.32 237 596.82 208.96 622.32 237.25 630.32 237"/>
        <polygon class="cls-75" points="880.18 342.02 902.89 318.93 882.6 347.87 880.18 342.02"/>
        <polygon class="cls-75" points="883.14 448.81 912.1 418.11 881.01 441.62 883.14 448.81"/>
        <polygon class="cls-73" points="814.81 322.52 815.19 301.34 823.85 332.57 814.81 322.52"/>
        <polygon class="cls-76" points="895.13 557.04 890.31 573.13 885.29 553.05 876.47 548.05 894.13 553.14 913.45 556.61 895.13 557.04"/>
        <polygon class="cls-76" points="940.82 545.05 966.89 553.76 970.01 570.98 970.36 551.95 940.82 545.05"/>
        <polygon class="cls-76" points="1055.37 539.59 1027.35 551.76 1033.68 575.71 1033.9 553.42 1055.37 539.59"/>
        <polygon class="cls-44" points="1098.15 545.84 1125.23 568.04 1122.25 597.14 1118.86 567.18 1098.15 545.84"/>
        <polygon class="cls-50" points="982.59 447.38 942.77 499.39 957.04 429.89 982.59 447.38"/>
        <polygon class="cls-67" points="982.59 447.38 1068.16 471.93 1054.32 439.67 982.59 447.38"/>
        <polygon class="cls-47" points="1103.09 460.03 1101.15 472.52 1125.47 502.68 1152.91 478.46 1122.57 449.9 1103.09 460.03"/>
        <polygon class="cls-74" points="694.21 297.16 719.35 275.61 706.59 297.17 694.21 297.16"/>
        <path class="cls-77" d="M437.47,361.55l93.33,34.59-37.31,38.57-9.87,42.82-80.36-17.44S421.62,377.26,437.47,361.55Z"/>
        <polygon class="cls-43" points="918.41 281.18 955.34 291.92 959.94 306.99 965.95 292.24 918.41 281.18"/>
        <polygon class="cls-43" points="968 506.29 992.17 478.52 972.52 506.37 972.2 524.08 968 506.29"/>
        <polygon class="cls-43" points="1006.61 299.93 1009.56 353.35 996.92 357.86 1006.61 299.93"/>
        <polygon class="cls-62" points="835.94 206.2 851.14 221.48 829.74 224.51 835.94 206.2"/>
        <path class="cls-55" d="M927.8,521.78s-35.1.74-29,11.48,24.48,11.48,24.48,11.48-21.86-8.07-19.51-11.39S917.44,518,927.8,521.78Z"/>
        <polygon class="cls-62" points="893.07 245.54 884.33 234.72 907.64 245.8 903.05 253.92 893.07 245.54"/>
        <polygon class="cls-42" points="483.62 477.53 441.02 502.76 469.1 506.87 479.85 509.96 480.7 520.64 492.45 520.56 483.62 477.53"/>
        <polygon class="cls-47" points="483.62 477.53 441.02 502.76 407.07 491.91 401.34 496.53 403.26 460.09 483.62 477.53"/>
        <polygon class="cls-47" points="435.55 468.49 458.95 406.69 493.49 434.71 483.62 477.53 435.55 468.49"/>
        <polygon class="cls-47" points="458.95 406.69 490.14 368.42 530.8 396.14 493.49 434.71 458.95 406.69"/>
        <g>
          <path class="cls-78" d="M365.8,534.72l2.07,40.48,28.18,19.27c-21.6-5.57-30.61-15.84-34.51-21.72-1.53-2.31-3.07-5.14-8.58-19.64-4.82-12.69-8.45-23.17-10.82-30.23Z"/>
          <path class="cls-50" d="M365.8,534.72l48.54-8.92c8.65-2,16.11-3.46,22-4.47,7.84-1.34,12.33-1.83,17.89-1.3a52.62,52.62,0,0,1,9.45,1.79c-2.84,10-5.56,20.67-8.07,31.82q-3.35,14.91-5.76,28.82l-53.79,12L367.87,575.2S360.3,542.79,365.8,534.72Z"/>
          <path class="cls-71" d="M463.07,521s30-6.76,36.72-11.51A228.8,228.8,0,0,1,501,534.67c-.07,9.32-.73,9.23-.26,14.61.51,5.85,1.54,8.81-.26,11.87-1.68,2.84-4.61,3.74-8.16,5a157.11,157.11,0,0,0-19.2,8.49l-24.1,7q3.22-16.18,7.19-33.15Q459.54,534.4,463.07,521Z"/>
          <path class="cls-47" d="M342.06,522.77s24.78-19,36.18-20.8,39-1.77,43.1-5.1l5.73-4.62s18.51,11.39,33.95,10.86,38.83,7.19,38.83,7.19-27.55,14.11-36.18,11.52-12.26-3.41-36.91,1.8-61.29,11-61.29,11Z"/>
        </g>
        <path class="cls-47" d="M423.8,385.3,459,406.69l-23.4,61.8-32.29-8.4S406.82,394,423.8,385.3Z"/>
        <path class="cls-50" d="M423.8,385.3,459,406.69l31.19-38.27.14-7.33-24.22,5.15-28.59-4.69S426.15,375.34,423.8,385.3Z"/>
        <path class="cls-47" d="M543.88,316.46l-53.6,44.63-.14,7.33,40.66,27.72s13.89-29.95,16.69-38.26,15.18-30.49,26.75-34.08S543.88,316.46,543.88,316.46Z"/>
        <path class="cls-79" d="M595.32,292.52l7.83,22.39-28.91,8.89a266.23,266.23,0,0,0-30.36-7.34l23.48-26.59Z"/>
        <polygon class="cls-80" points="525.17 392.29 519.83 374.03 530.87 392.4 530.8 396.14 531.97 413.97 528.52 399.27 525.17 392.29"/>
        <path class="cls-43" d="M441,502.76s-5.6-27.16,3.78-32.53,16-14.3,16.4-21.77c0,0,6.15,7.64-13.17,25.29C442.92,479.66,440.93,480.89,441,502.76Z"/>
        <polygon class="cls-81" points="648.97 450.69 584.83 426.36 646.82 459.18 648.97 450.69"/>
        <path class="cls-82" d="M675.43,508.86l-.12,8.85v0h0l-27.69,12.74.08-.12-.71,43v.22l-.21,0a51.23,51.23,0,0,1-19.1-6.73A46.33,46.33,0,0,1,612.87,553a48.08,48.08,0,0,1-4.75-9c-1.26-3.16-2.3-6.38-3.26-9.64-1.88-6.51-3.32-13.14-4.64-19.77s-2.5-13.31-3.92-19.92-3-13.22-5.87-19.36a32.6,32.6,0,0,0-2.5-4.38c-.46-.72-1-1.35-1.54-2a20,20,0,0,0-1.8-1.76c-2.61-2.13-5.36-4.12-8.1-6.09a177.56,177.56,0,0,0-17.17-10.82,178.93,178.93,0,0,1,17.26,10.69c2.77,1.95,5.52,3.91,8.17,6a16.18,16.18,0,0,1,1.83,1.78,23.6,23.6,0,0,1,1.56,2,32.12,32.12,0,0,1,2.54,4.41c2.87,6.17,4.47,12.81,5.94,19.41s2.64,13.28,4,19.91,2.8,13.24,4.69,19.73c1,3.24,2,6.46,3.26,9.58a47.71,47.71,0,0,0,4.73,8.9c7.5,11.26,20.22,18.56,33.5,20.47l-.21.19.83-43v-.09l.08,0,27.78-12.55,0,0Z"/>
        <path class="cls-83" d="M751.51,353.44c-10.64,2.61-21.3,5.11-32,7.59l-32,7.36a25,25,0,0,0-7.4,3.1,28.9,28.9,0,0,0-6.13,5.24c-3.63,4-6.31,8.83-9.08,13.54s-5.58,9.52-9.49,13.44a25.4,25.4,0,0,1-6.68,4.82,24.4,24.4,0,0,1-7.87,2.29,25.37,25.37,0,0,0,7.75-2.53,25,25,0,0,0,6.45-4.93c3.78-3.92,6.48-8.73,9.17-13.48s5.39-9.6,9.07-13.76a30.09,30.09,0,0,1,6.3-5.44,25.81,25.81,0,0,1,7.66-3.26q16.05-3.63,32.08-7.13C730.08,358,740.78,355.64,751.51,353.44Z"/>
        <polygon class="cls-81" points="645.94 508.01 621.86 512.14 645.94 517.18 645.94 508.01"/>
        <polygon class="cls-81" points="578.67 409.88 556.05 417.69 564.89 427.01 578.67 409.88"/>
        <polyline class="cls-81" points="547.51 447.54 564.38 454.95 560.57 444.78"/>
        <polygon class="cls-52" points="611.04 363.21 588.9 395.14 618.12 370.73 662.22 341.09 660.75 334.56 611.04 363.21"/>
        <polygon class="cls-84" points="510.56 500.28 530.6 491.96 530.45 500.64 510.56 500.28"/>
        <polygon class="cls-42" points="611.04 363.21 574.24 323.8 616.41 351 611.04 363.21"/>
        <polygon class="cls-81" points="682.27 406.93 699.54 429.44 709.14 424.02 682.27 406.93"/>
        <polygon class="cls-81" points="675.43 508.86 647.54 530.36 675.27 517.71 675.43 508.86"/>
        <polygon class="cls-72" points="816.1 401.62 840.95 398.68 816.05 404.2 816.1 401.62"/>
        <polygon class="cls-72" points="844.99 455.55 864.42 455.54 849.38 463.74 844.99 455.55"/>
        <polygon class="cls-72" points="782.48 362.28 808.01 352.94 785.18 366.34 782.48 362.28"/>
        <polygon class="cls-72" points="848.3 523.72 867.67 520.25 851.79 528.97 848.3 523.72"/>
        <polygon class="cls-75" points="865.8 379.27 874.07 338.41 880.18 342.02 882.6 347.87 865.8 379.27"/>
        <polygon class="cls-44" points="745.81 306.18 747.83 324.96 755.72 327.07 745.81 306.18"/>
        <path class="cls-85" d="M1126.13,426s5.34-20-11.53-30.28-21.89-9.76-21.89-9.76,28.55,4.17,34.55,15.13,5.59,25,2.13,26.9S1126.13,426,1126.13,426Z"/>
        <path class="cls-85" d="M996.54,379s1.2-20.32,13-25.6c0,0-13,23.27-7.45,28.37Z"/>
        <path class="cls-43" d="M935.13,254.5s71.17,26.57,71.48,45.43L998,297.64S981.88,272.34,935.13,254.5Z"/>
        <polygon class="cls-43" points="971.29 228.14 897.3 184.8 967.05 231.07 971.29 228.14"/>
        <polygon class="cls-54" points="564.38 454.95 577.65 466.44 571.39 481.98 563.3 514.76 546.31 514.46 560.71 480.45 564.38 454.95"/>
        <polygon class="cls-47" points="957.04 429.89 982.59 447.38 939.24 410.6 957.04 429.89"/>
        <polygon class="cls-43" points="576.85 290.05 597.14 297.73 612.44 285.9 595.32 292.52 576.85 290.05"/>
        <polygon class="cls-80" points="478.45 424.44 491.86 441.75 501.6 426.32 493.49 434.71 478.45 424.44"/>
        <polygon class="cls-81" points="660.75 334.56 657.58 314.04 664.84 333.23 660.75 334.56"/>
        <polygon class="cls-74" points="650.85 235.87 667.16 204.66 662.89 230.73 650.85 235.87"/>
        <path class="cls-72" d="M540.54,560.59s20.79,1.24,27.58,10.23-6.14,9.1-6.14,9.1l-19.06-5.17Z"/>
        <path class="cls-55" d="M854.7,583.2s-46.6,11.29-26.2,12.45,26.2-1.6,26.2-1.6C854.9,586.82,854.51,583.59,854.7,583.2Z"/>
        <path class="cls-55" d="M844,596.87s3.56-12.58,13.75-6.82,12.2,10.65,5.2,12.21S844,596.87,844,596.87Z"/>
        <path class="cls-86" d="M851.3,588.57s7.9-11.84,12.25-1.79l4.35,10Z"/>
        <ellipse class="cls-87" cx="586.4" cy="578.82" rx="12.5" ry="4"/>
        <ellipse class="cls-87" cx="533.9" cy="576.82" rx="14" ry="4"/>
        <polygon class="cls-43" points="404.14 446.74 402.51 474.26 406.09 461.8 414.58 462.55 406.09 458.95 404.14 446.74"/>
        <polygon class="cls-80" points="437.47 361.55 455.45 345.07 442.48 361.55 428.8 374.03 437.47 361.55"/>
        <path class="cls-43" d="M542.11,368.2c-3.29-4.7-15.76-22.05-21.53-23.13,0,0,9.93,4.08,12.62,7.41S542.63,369,542.11,368.2Z"/>
        <polygon class="cls-88" points="833.75 388.69 844.7 407.78 842.43 399.67 848.54 392.92 841.15 396.46 833.75 388.69"/>
        <polygon class="cls-72" points="542.11 368.2 556.59 387.7 611.04 363.21 559.75 383.89 542.11 368.2"/>
        <polygon class="cls-62" points="747.41 200.93 779.65 208.1 777.4 219.9 790.89 206.89 821.07 190.76 784.24 204.49 747.41 200.93"/>
        <polygon class="cls-89" points="989.29 515.74 1009.38 525.53 1010.48 532.04 1012.62 521.05 1023.25 510.83 1009.38 521.43 989.29 515.74"/>
        <polygon class="cls-47" points="912.18 305.95 955.34 291.92 976.11 365.29 950.05 365.78 912.18 305.95"/>
        <polygon class="cls-43" points="854.49 285.05 869.19 266.96 880.75 301.6 871.77 300.36 854.49 285.05"/>
        <polygon class="cls-47" points="869.19 266.96 880.75 301.6 912.18 305.95 955.34 291.92 869.19 266.96"/>
        <polygon class="cls-43" points="679.95 249.9 671.7 271.75 667.4 288.68 719.35 275.61 725.62 276.72 757.09 251.29 732.96 257.85 679.95 249.9"/>
        <polygon class="cls-90" points="673.37 234.78 679.95 249.9 732.96 257.85 757.09 251.29 782.01 238.97 749.36 236.15 673.37 234.78"/>
        <polygon class="cls-42" points="776.31 242.54 784.24 258.87 745.59 260.58 776.31 242.54"/>
        <path class="cls-80" d="M543.88,316.46l-47.2,38.89-11.95,6.2s6.34-4.85,8.76-7.29S543.88,316.46,543.88,316.46Z"/>
        <polygon class="cls-48" points="1257.48 361.09 1418.31 303.89 1312.2 273.31 1190.97 306.99 1257.48 361.09"/>
        <polygon class="cls-47" points="1257.48 361.09 1253.57 426.54 1274.26 428.57 1314.98 434.74 1351.67 456.49 1338.16 503.49 1341.98 517.74 1378.67 539.49 1493.29 541.05 1418.31 303.89 1257.48 361.09"/>
        <polygon class="cls-91" points="1418.31 303.89 1456.73 273.6 1493.29 294.08 1453.34 313.69 1521.57 545.84 1493.29 541.05 1418.31 303.89"/>
        <polygon class="cls-85" points="1493.29 294.08 1453.34 313.69 1491.45 443.38 1570.43 413.97 1600 422.47 1619.9 234.78 1600 219.65 1493.29 294.08"/>
        <polyline class="cls-47" points="1456.73 273.6 1600 219.65 1447 231.07 1422.99 292.01 1418.31 303.89 1312.2 273.31 1434.14 231.07"/>
        <polygon class="cls-43" points="1341.98 517.74 1390.43 435.65 1466.07 454.95 1493.29 541.05 1378.67 539.49 1341.98 517.74"/>
        <path class="cls-85" d="M1257.48,414c11.52-2,80-29.63,80-29.63s53.43,51,53,51.31S1342,517.74,1342,517.74l9.69-61.25-98.1-29.95Z"/>
        <polygon class="cls-47" points="1099.49 231.95 1210.54 268.11 1236.58 294.31 1190.97 306.99 1113.62 281.18 1110.4 294.72 1099.49 231.95"/>
        <polygon class="cls-47" points="228.47 298.67 280.68 260.58 356.55 257.85 328.11 312.11 210.56 303.85 228.47 298.67"/>
        <polygon class="cls-43" points="356.55 257.85 389.44 278.09 328.11 312.11 356.55 257.85"/>
        <polygon class="cls-92" points="162.57 420.23 255.57 438.39 217.86 361.09 162.57 420.23"/>
        <polygon class="cls-46" points="1155.35 343.48 1257.48 361.09 1190.97 306.99 1113.62 281.18 1093.54 276.43 1155.35 343.48"/>
        <polygon class="cls-43" points="1155.35 343.48 1154.68 380.4 1210.54 420.23 1218.03 443.38 1245.45 427.01 1253.57 426.54 1257.48 361.09 1155.35 343.48"/>
        <polygon class="cls-42" points="392.52 519.61 365.47 534.66 363.52 556.82 356.55 530.09 392.52 519.61"/>
        <polygon class="cls-42" points="431.11 509.49 463.67 521.82 456.24 548.48 449.5 520.25 431.11 509.49"/>
        <polygon class="cls-42" points="264.46 505.62 264.46 527.8 268.32 565.99 269.82 526.53 264.46 505.62"/>
        <polygon class="cls-42" points="287.63 510.83 320.58 521.7 326.78 523.74 326.78 556.82 313.89 525.53 287.63 510.83"/>
        <polygon class="cls-47" points="805.26 401.57 833.75 362.05 814.81 322.52 747.63 336.13 798.94 398.68 848.54 392.92 874.07 338.41 882.6 347.87 912.1 418.11 883.14 448.81 854.7 401.44 805.26 401.57"/>
        <polygon class="cls-50" points="881.53 445.56 912.1 418.11 927.8 521.78 907.64 515.14 869.19 530.36 888.21 514.33 886.64 498.17 881.53 445.56"/>
        <path class="cls-93" d="M801.5,403.7l26,51.54,23.13-.42-19,10.34L827.49,508l20,8.32-19.89.36-59.83,71.69,97.82-51.77,8.83-43s4-34.89-15.29-51.71-31.89-29.68-31.89-29.68l-12.12-26.77Z"/>
        <polygon class="cls-47" points="910.15 417.69 878.95 379.42 838.29 407.14 875.61 445.71 910.15 417.69"/>
        <path class="cls-47" d="M825.22,327.46l53.6,44.63.13,7.33-40.66,27.72s-13.89-29.95-16.68-38.26-15.18-30.49-26.76-34.08S825.22,327.46,825.22,327.46Z"/>
        <polygon class="cls-43" points="747.63 336.13 798.94 398.68 828.5 374.03 779.63 321.13 755.72 327.07 747.63 336.13"/>
        <polygon class="cls-44" points="788.06 387.7 828.5 374.03 801.5 403.7 788.06 387.7"/>
        <polygon class="cls-44" points="734.67 334.56 747.83 324.96 755.72 327.07 747.63 336.13 734.67 334.56"/>
        <path class="cls-50" d="M1228.75,532s-25.68-31.54-60.71-39.79L1133,484s63.33,20.56,83.17,46.78C1228.83,532.22,1228.75,532,1228.75,532Z"/>
        <path class="cls-85" d="M1188.21,441.75s-47.41-21.19-32.31-34c0,0,20.44,30,39.27,35.6"/>
        <path class="cls-94" d="M18.87,500.64s2.61-1.17,35.87-26.41,49.12-33.15,48.69-54.69,57.3-62,67.44-63.77"/>
        <path class="cls-95" d="M77.71,482.85s36.22,13.26,45-21.05,7.93-59.62,39.86-77.46,55.29-23.25,55.29-23.25"/>
        <path class="cls-96" d="M295.81,325S220.5,314.21,196,328.85a86.55,86.55,0,0,1-18.15,7.62c-28.44,8.93-68.37,12.36-68.37,12.36s62.32-1.2,93.17-14.27S295.81,325,295.81,325Z"/>
        <path class="cls-96" d="M275.71,361.09s-5.77-9.09,28.76-17.59,84.91-18.28,84.91-18.28-115.27,24.6-105.83,34.69C276.45,361.09,275.71,361.09,275.71,361.09Z"/>
        <path class="cls-96" d="M301,425.43s-7.56-17.16,23.73-29.29,58-16.55,64.67-39.84,0-31.08,0-31.08,23.3,19.37,12,31.08-17.36,30.3-30.85,29-62.07,20.92-63.28,32.81S301,425.43,301,425.43Z"/>
        <polygon class="cls-42" points="323.11 454.95 335.89 432.55 330.63 456.86 332.36 499.08 323.11 454.95"/>
        <polygon class="cls-97" points="457.09 303.89 453.22 247.89 462.13 285.9 470.82 273.31 475.29 284.28 507.45 266.53 457.09 303.89"/>
        <polygon class="cls-96" points="533.9 217.5 555.31 234.72 611.04 226.11 559.33 231.07 533.9 217.5"/>
        <path class="cls-96" d="M1410.39,439.24s-30.06-14.87-31.72-32.55,8.66-11.26,0-35.47-39-39.13-35.31-40.68,23.5-4.54,30.07,8.46,27.43,41.39,17,48.7-11.57,13.84,0,24.07,47.55,36,47.55,36l-33.51-8.55"/>
        <path class="cls-96" d="M1417.63,371.3c-7.63,14.7-7.24,35.39-7.24,35.39,22.61,9.31,45.71,45.72,45.71,45.72-1.1,12.59,10,2.54,10,2.54s13.13-6.64-10-19.3-42.49-14.24-37.79-31.45,4.3-34.11,0-42.65-15-22.55-15-22.55Z"/>
        <path class="cls-96" d="M1183.94,343.48s4.15,12.47,47.61,2.5,41.09-9.9,62.77-31.94,84.35-8.64,84.35-8.64S1342,298,1322,307s-35.07,36.15-58.54,38.08S1204.88,364,1183.94,343.48Z"/>
        <path class="cls-43" d="M1249.5,435.65c4.5.35,35.14,7.43,44.82,15.39s10.3,15.66,10.3,15.66-25.55,20.83-16.08,36.06-9.4-15.71-9.47-15.23a81.87,81.87,0,0,1,9.47-13.3c6.46-7.23,10.46-19.62-12-25.42S1249.5,435.65,1249.5,435.65Z"/>
        <path class="cls-42" d="M1312.2,529c2.8,0,52.23,12.54,52.23,12.54s.89,45.48.73,45-3.28-38-3.28-38Z"/>
        <path class="cls-98" d="M1124.44,242.54,1174.05,302l-25.38-44.24,35.27,1.11S1124.89,242.08,1124.44,242.54Z"/>
        <polygon class="cls-47" points="957.04 429.89 977.53 387.7 1047.74 439.56 982.59 447.38 957.04 429.89"/>
        <path class="cls-96" d="M128.84,340.21s-83.55-.48-98.7-17.84-11.27-27.65-11.27-27.65,6.84,24.79,42.49,24S128.84,340.21,128.84,340.21Z"/>
        <path class="cls-62" d="M1210.54,420.23s-19.6-22.72-8.57-44.47a22.9,22.9,0,0,1,8.59-9.06c16.82-10.41,46.92-5.61,46.92-5.61s-35.15,11.18-41.31,35.05,12.58,42.25,12.58,42.25Z"/>
        <path class="cls-99" d="M608.56,586.63s-101.33,4.55-83.45,27-120,50-40.58,65.7,70.54-9.36,125,17.18-57.37-18.54,59,0,0,50.1,0,50.1,62.85,27.57,139.64,0,265.31-17.64,213.55-50.1-85.88-12-125.32-34.76S808.07,634,841,622s52.06-25.45,5.51-30.22-47.9,9.89-95.73,1.55S700.25,564,665.13,571s-83.23,12.83-83.23,12.83"/>
      </g>
      <g>
        <path class="cls-42" d="M869,532a6.47,6.47,0,0,1,2.07,1c2.43,1.78,1.72,5.13,3.13,6.74,4.7,5.38,9.25,7.37,18.07,13.29,2,1.37,3.63,2.5,4.52,3.14.1,8.45.26,15.49.39,20.6.17,6.37,1,29.76,1,29.76l-27.3-8.88L865,583.84q.9-14.31,2-29Q868,543.34,869,532Z"/>
        <polygon class="cls-72" points="871 591.57 869.65 581.63 885.82 557.92 871 591.57"/>
        <path class="cls-50" d="M896.79,557c3.25-.23,6.56-.43,9.93-.58,7.12-.33,14-.45,20.6-.4l28.22.51,18.59-2.71q5.21,22.22,10.4,44.42l-.26,14.49c-4.52.26-11.12.66-19.09,1.18-17.17,1.14-25.75,1.71-35.9,2.78-7.68.82-18.42,2.15-31.35,4.4"/>
        <path class="cls-47" d="M880.88,527.41s-9.18.74-10.3,5.08c-.53,2.07,1,4.14,2.19,5.62,6.44,7.89,17.84,15.16,24,18.84l5.34.1,18.32-.44,35.07.63,18.37-3.48,16.94-8.85-4.56-.84L934.8,521.78l-13.65-4.06s-5.14-2.38-14-.25S880.88,527.41,880.88,527.41Z"/>
        <path class="cls-89" d="M973.89,553.76l16.94-8.85Q988.94,565.48,987,586q-1.75,12.33-3.5,24.64l-1.32-11Z"/>
        <path class="cls-42" d="M869.77,596.14,897.93,621q.12-8,.23-16Z"/>
      </g>
      <g>
        <path class="cls-100" d="M-14.61,206.6s41.28,26.9,40.49,66c-.14,6.87.39,27.88-13.55,37.05-9.7,6.39-21.44,3.85-23.22,3.44C-32.78,308-45.83,281-58.6,254.61-69,233-73.84,216.12-86.25,214.25c-1.49-.22-6.31-.95-9.29,1.89-9.24,8.81,6.72,45.14,24.63,70.8,14,20.13,26.25,29.32,23.09,41.55-2.46,9.51-12.52,14.34-13.48,14.78-8,3.73-17,2.51-29.62-2.47A146,146,0,0,1-139,309.23c-31.35-32.4-56.43-67-71.94-90L-221.74,230l20,33.86c-2.54-4.22-14.25-22.68-36.94-27.7a54.21,54.21,0,0,0-23.09,0c11.8,4.52,28.83,12.95,43.1,29.24,15.58,17.79,16.31,31.75,32.32,56.95,11.92,18.76,26.23,34.18,36.94,43.09,37.2,31,87.25,30.16,112.35,27.7,10.47,1.28,24.47,4.84,35.4,15.4C3,413,20.55,431.91,9.3,507.15c0,0-6.28,42-38.56,136l172.39.82c21,7.44,60.11,19.19,71.33,4.39,5.64-7.44,2.14-18.81.56-24-19.41-63.56-34-112.17-40-152-3.77-25.36-4-47.13.3-66.92,1.48-6.82,12.81-55.87,47.71-69.26,19.25-7.39,28.08,2.85,55.41,0,53.15-5.55,87.87-51.41,90.8-55.41C396.33,244,404.12,191,404.12,191l-22.93,3.34c-1.06,9.29-7.46,58.28-44.24,77.2-4.36,2.25-24.46,12.59-36.77,4.18-17.31-11.83-6.69-52-4.75-55.74,7.41-14.38,24.7-41.79,24.7-41.79l-57.05,7.16c2.69,34.71-9.5,65.23-32.79,78-3.1,1.7-20.87,11.43-35,4.17-17.08-8.78-24.36-40.12-11-76.5l-21-7.66S150.4,305,131.14,317.51c-33.35,21.66-58-52.06-49.4-126.51H57s16.06,81.41-3.7,52.33c-7.07-10.4-19.87-22.93-39.53-36.73"/>
        <path class="cls-101" d="M172.86,481.68c-11.35-4.8-36.92,26-51.05,51-10.28,18.22-25,52.1-23.79,103.06L99.49,649l117.89-14.16c-10.87-35.11-18-60.93-22.7-78.57-4.31-16.27-10.24-32.13-13.68-48.6C177.32,490,177.34,483.58,172.86,481.68Z"/>
        <path class="cls-102" d="M161.24,592.39a9.44,9.44,0,0,1-3,0,18.52,18.52,0,0,1-2.94-.71,25,25,0,0,1-5.47-2.62,19,19,0,0,1-4.65-4,10.27,10.27,0,0,1-1.62-2.74,6.08,6.08,0,0,1-.33-3.31,6.49,6.49,0,0,1,1.49-3,11.45,11.45,0,0,1,1.15-1.16,12.85,12.85,0,0,1,1.29-.94,20.53,20.53,0,0,1,2.76-1.5l1.43-.6,1.54-.47a16.58,16.58,0,0,1,6.35-.27,24.47,24.47,0,0,1,6,1.74,35,35,0,0,1,10.3,6.85,37,37,0,0,1,7.51,9.88,25.14,25.14,0,0,1,2.11,6,17.73,17.73,0,0,1,.18,6.5,15.06,15.06,0,0,1-2.55,6.09,17.84,17.84,0,0,1-4.74,4.44A34.38,34.38,0,0,1,166.41,617a53.41,53.41,0,0,1-12.24,1.21A40.57,40.57,0,0,1,142,616a32.16,32.16,0,0,1-10.75-6.17,29.46,29.46,0,0,1-7.32-10,30.58,30.58,0,0,1-2.55-12,38.56,38.56,0,0,1,7.7-22.59,45.22,45.22,0,0,0-4.86,10.87,34.82,34.82,0,0,0-1.37,11.67,29.07,29.07,0,0,0,2.86,11.21,27.85,27.85,0,0,0,7.07,9,31.23,31.23,0,0,0,10.06,5.46,37.46,37.46,0,0,0,11.39,1.79,52,52,0,0,0,11.58-1.24A31.6,31.6,0,0,0,176.41,610a14.76,14.76,0,0,0,4-3.67,11.88,11.88,0,0,0,2.07-4.86,14.77,14.77,0,0,0-.12-5.42,24.52,24.52,0,0,0-1.82-5.31,35.35,35.35,0,0,0-16.21-15.85,22.4,22.4,0,0,0-5.42-1.74,15.27,15.27,0,0,0-5.56,0l-1.34.35-1.36.51a18.39,18.39,0,0,0-2.56,1.25,6.84,6.84,0,0,0-3.42,4c-.45,1.67.32,3.53,1.41,5.07a18.67,18.67,0,0,0,4.2,4,25.09,25.09,0,0,0,5.18,2.84,17.64,17.64,0,0,0,2.83.92A9.5,9.5,0,0,0,161.24,592.39Z"/>
        <path class="cls-103" d="M207,31.75s41.82-20.94,107.54-20.63,139.32,46.53,119,75.95-32.72,46.33-123.79,46.07S115,87.9,207,31.75Z"/>
        <path class="cls-104" d="M190.49-118.37C365.82-65.81,383.24-3,379.66,25.83c0,0,.37,49.29-180.65,99.06h0S92.86,165.63-103.23,144.26c-59.5-6.49-157.66-32.24-171.23-89.79-10-42.34,30.85-85.47,45.62-101.06C-108.49-173.67,131.5-130.39,190.49-118.37Z"/>
        <path class="cls-105" d="M169.55-136C359.92-80,379-13.63,375.23,16.72c0,0,.56,52-195.65,103.89h0s-115,42.62-327.8,19.44c-64.57-7-171.14-34.51-186-95.24-11-44.69,33.19-90,49.16-106.43C-155-195.26,105.52-148.83,169.55-136Z"/>
        <path class="cls-104" d="M496.73,47.24s-43.36,20.41-246,57.85L222.25-57.77c4.51-2.35,37.88-16.49,130.79-4.81C465.91-48.4,572.19,5.75,507.18,42"/>
        <path class="cls-106" d="M496.64,50.32s-43.35,20.41-246,57.85L222.17-54.68C226.68-57,260.05-71.17,353-59.5,465.82-45.32,572.11,8.83,507.09,45.11"/>
        <path class="cls-107" d="M-102.71,207.29c23.44,3.28,27.38,2,118.68,1.94,19.42,0,102,0,268.06-5.26,69.84-2.19,175-18.14,203.67-31.33,9.56-4.4,28.62-15,29.3-43.88C518.55,62.84,460.86,24.9,442.68,6.43c-17-17.24-59.87-38.09-71.26-42.69-138.72-56-251.48-73.07-251.48-73.07-27-6.21-239.61-51.91-360.85,75.74-11.15,11.73-79.69,83.08-59.62,145C-277.42,182.81-150.15,200.64-102.71,207.29Z"/>
        <path class="cls-108" d="M-106.49,213.51c23.44,3.28,27.39,2,118.68,1.94,19.42,0,102,0,268.06-5.26,69.84-2.19,175-18.14,203.67-31.33,9.56-4.4,28.62-15,29.3-43.88,1.56-65.92-56.14-103.86-74.32-122.33C421.94-4.59,379-25.44,367.64-30c-138.72-56-251.48-73.07-251.48-73.07-27-6.21-239.61-51.91-360.85,75.74-11.14,11.73-79.69,83.08-59.62,145C-281.2,189-153.93,206.86-106.49,213.51Z"/>
      </g>
      <path class="cls-109" d="M-10,573a37.71,37.71,0,0,1,38.64,0c5.44-24.42,43-12.37,50.07,2.6,24.49-14.32,51.7,2.61,44.08,13,26.67-7.48,52.25,10.84,43,20.07,28.84-10,30.47,15.42,30.47,15.42,33.2-5.53,47.9,10.53,39.73,17.26,0,0,40.82-1.63,66.94,12.69l1.09,1H2.5Z"/>
      <path class="cls-110" d="M1175.4,600s6.58-33.61,50.42-24.11c-2.93-26.3,37.26-28.47,50.41-18.25-2.92-28.51,34.34-17.18,41.65-5.68,13.15-19.18,48.22,6.39,33.61,22.47,31.42-16.81,44.57,13.88,44.57,13.88,25.57-14.61,48.22,11.69,48.22,11.69Z"/>
      <path class="cls-111" d="M1119,618.71c-1.6,0-32.49,2-28.08-3.62s29.29-3.61,31.29-2-28.48-8-29.68-16.05,23.66,5.57,32.09,11c-25.27-24.65-26.08-30.26,4.81-7.4-19.25-28.08-23.26-34.9,10-2.4-21.66-42.93-1.2-1.57-10-21.65s3.21-24.49,14,14.83c0,0-.4,8.42,4.42-5.22s25.27-21.66,8,13.24c9.63-6.82,8.82-6.42,16.45-11.63s16.84,9.62-10.83,28.88C1139.85,616.7,1119,618.71,1119,618.71Z"/>
      <path class="cls-47" d="M315.53,646.74s8.17-40,57.7-41.56,52.08,35.63,29.61,41.56C369.65,647.55,315.53,646.74,315.53,646.74Z"/>
      <path class="cls-47" d="M413.15,640s4-11.3,22.88-13.85,35.23,15.71,19.91,20.62c-38.8,2.35-42.79.36-42.79.36S405.59,643.62,413.15,640Z"/>
      <g>
        <path class="cls-112" d="M1424.07,190.64s33.51,25.26,32.87,62c-.11,6.45.32,26.17-11,34.78-7.88,6-17.41,3.61-18.85,3.23-17.78-4.76-28.37-30.09-38.74-54.9-8.49-20.3-12.38-36.14-22.46-37.89-1.2-.21-5.12-.89-7.54,1.77-7.5,8.27,5.46,42.37,20,66.46,11.41,18.9,21.31,27.52,18.75,39-2,8.93-10.17,13.45-10.95,13.87-6.54,3.5-13.81,2.35-24.05-2.31C1339.5,306.31,1324.69,289,1323,287c-25.45-30.41-45.81-62.91-58.41-84.49l-8.75,10.11q8.13,15.9,16.25,31.79c-2.06-4-11.57-21.3-30-26a38.23,38.23,0,0,0-18.75,0,88.16,88.16,0,0,1,35,27.45c12.66,16.7,13.25,29.8,26.25,53.46,9.68,17.62,21.3,32.09,30,40.45,30.21,29.06,70.85,28.31,91.23,26,8.51,1.2,19.87,4.54,28.75,14.45,3.8,4.24,18,21.95,8.89,92.58,0,0-5.1,39.44-31.31,127.65l140,.77c17,7,48.81,18,57.92,4.12,4.57-7,1.74-17.66.45-22.53-15.75-59.67-27.64-105.3-32.45-142.66-3.07-23.8-3.26-44.25.24-62.82,1.21-6.41,10.4-52.45,38.74-65,15.63-6.93,22.81,2.68,45,0,43.16-5.21,71.35-48.26,73.74-52,22-34.55,28.29-84.28,28.29-84.28l-18.62,3.14c-.86,8.72-6,54.7-35.92,72.47-3.54,2.11-19.86,11.82-29.86,3.92-14.06-11.1-5.43-48.79-3.86-52.32,6-13.51,20.06-39.23,20.06-39.23l-46.33,6.72c2.19,32.58-7.71,61.23-26.62,73.2-2.52,1.59-17,10.72-28.41,3.91-13.88-8.24-19.79-37.66-9-71.81l-17-7.2s-10.43,114.22-26.07,126c-27.08,20.33-47.14-48.87-40.12-118.76h-20.06s13,76.42-3,49.13c-5.74-9.77-16.13-21.53-32.1-34.49"/>
        <path class="cls-101" d="M1576.29,448.87c-9.22-4.5-30,24.41-41.45,47.91-8.35,17.1-20.34,48.9-19.32,96.74l1.19,12.4,95.73-13.29c-8.82-33-14.65-57.2-18.44-73.76-3.49-15.28-8.31-30.16-11.1-45.63C1579.91,456.7,1579.92,450.65,1576.29,448.87Z"/>
        <path class="cls-102" d="M1566.86,552.8a6.66,6.66,0,0,1-2.63-.07,14.12,14.12,0,0,1-2.53-.75,20.42,20.42,0,0,1-4.59-2.66,15.66,15.66,0,0,1-3.7-3.91,7.51,7.51,0,0,1-1.27-5.45,6.89,6.89,0,0,1,1.23-2.66,10.27,10.27,0,0,1,2-2,15.87,15.87,0,0,1,5-2.48,12.53,12.53,0,0,1,5.65,0,19,19,0,0,1,5.16,2,29.89,29.89,0,0,1,8.34,6.94,32.5,32.5,0,0,1,5.67,9.27,21.06,21.06,0,0,1,1.46,11,15,15,0,0,1-5.92,9.62,26.33,26.33,0,0,1-10.11,4.35,37.26,37.26,0,0,1-10.8,1,28.67,28.67,0,0,1-10.57-2.74,25.85,25.85,0,0,1-8.56-6.78,28.51,28.51,0,0,1-5-9.57,33.61,33.61,0,0,1-1.34-10.62,40.14,40.14,0,0,1,6.4-19.91,48.34,48.34,0,0,0-3.74,9.71,36.8,36.8,0,0,0-1.19,10.21,32.47,32.47,0,0,0,1.74,10,27.1,27.1,0,0,0,5,8.67c8.77,10.47,25.78,10.27,36.43,3.34a12.46,12.46,0,0,0,3.2-3.4,12.71,12.71,0,0,0,1.65-4.33,16.49,16.49,0,0,0,0-4.76,22.11,22.11,0,0,0-1.25-4.74,29.88,29.88,0,0,0-5-8.61,29.41,29.41,0,0,0-7.48-6.6,13.61,13.61,0,0,0-9.22-2.14,14.47,14.47,0,0,0-4.43,2,8.44,8.44,0,0,0-1.79,1.57,5.76,5.76,0,0,0-1.06,2,6.23,6.23,0,0,0,.82,4.55,14.87,14.87,0,0,0,3.23,3.87,20.13,20.13,0,0,0,4.27,2.85,13.12,13.12,0,0,0,2.41,1A6.53,6.53,0,0,0,1566.86,552.8Z"/>
        <path class="cls-113" d="M1604,26.5s34-19.65,87.32-19.36,113.13,43.68,96.64,71.3-26.57,43.49-100.52,43.25S1529.26,79.22,1604,26.5Z"/>
        <path class="cls-104" d="M1590.6-114.41C1733-65.08,1747.12-6.07,1744.21,21c0,0,.3,46.27-146.69,93h0s-86.19,38.24-245.41,18.18c-48.31-6.09-128-30.27-139-84.29-8.11-39.74,25.06-80.22,37-94.86C1347.83-166.33,1542.71-125.7,1590.6-114.41Z"/>
        <path class="cls-114" d="M1573.6-130.93c154.58,52.56,170.09,114.84,167,143.33,0,0,.46,48.8-158.87,97.53h0s-93.39,40-266.16,18.25c-52.43-6.61-139-32.4-151.08-89.41-8.91-41.95,27-84.52,39.92-99.92C1310.1-186.59,1521.61-143,1573.6-130.93Z"/>
        <path class="cls-115" d="M1124.68,172.34s-7.42-36.74,26.7-68.68c19.24-18,78.89-66.73,143.09-16.7,73.69,57.41,153.37,121.55,41.72,127S1136.32,220.72,1124.68,172.34Z"/>
        <path class="cls-116" d="M1124.68,175s-7.42-36.74,26.7-68.68c19.24-18,78.89-66.73,143.09-16.7,73.69,57.41,153.37,121.55,41.72,127S1136.32,223.37,1124.68,175Z"/>
        <path class="cls-117" d="M1352.52,191.29c19,3.08,22.24,1.91,96.37,1.82,15.78,0,82.83,0,217.67-4.93,56.71-2.06,142.13-17,165.38-29.41,7.76-4.14,23.24-14.05,23.79-41.2,1.26-61.88-45.58-97.49-60.35-114.84-13.77-16.18-48.61-35.74-57.86-40.06-112.64-52.61-204.2-68.6-204.2-68.6-21.9-5.82-194.57-48.73-293,71.1-9,11-64.71,78-48.41,136.16C1210.66,168.31,1314,185.05,1352.52,191.29Z"/>
        <path class="cls-118" d="M1349.46,197.13c19,3.08,22.24,1.91,96.36,1.82,15.78,0,82.84,0,217.67-4.94,56.71-2,142.13-17,165.38-29.4,7.76-4.14,23.24-14.05,23.79-41.2,1.26-61.88-45.58-97.49-60.35-114.84-13.77-16.18-48.61-35.75-57.86-40.06-112.64-52.61-204.2-68.6-204.2-68.6-21.9-5.83-194.56-48.73-293,71.1-9,11-64.71,78-48.41,136.16C1207.6,174.15,1310.94,190.89,1349.46,197.13Z"/>
      </g>
      <g>
        <path class="cls-119" d="M-29.7,841c52.17-2.51,128.76-4.75,221.33-2,137.19,4.08,238,17,259.42,19.56,128.61,15.4,435,21.66,1151.17-4.56l4.08,47Q820.2,926,35.58,903c-21.76-.64-34.52,11.73-56.28,11C-20.7,894-29.7,861-29.7,841Z"/>
        <g>
          <path class="cls-119" d="M1108.82,894.51s27.68-18.16,33.29-21.41c6.88-4-5.78-9.74-26.3,4.15C1115.81,877.25,1103.21,887.29,1108.82,894.51Z"/>
          <path class="cls-119" d="M1095.79,893.38s-5.58-16.84-36.21-16.34S1095.79,893.38,1095.79,893.38Z"/>
          <path class="cls-119" d="M1104.14,895.83s9.34-37.71,22.95-48.05c11.66-8.86-13-11.29-26.93,9.86S1104.14,895.83,1104.14,895.83Z"/>
        </g>
        <g>
          <path class="cls-119" d="M415.14,865.05s36.72-5.39,35.7-20.22S415.14,865.05,415.14,865.05Z"/>
          <path class="cls-119" d="M408,871.05s20.4-37.08,35.7-46.51-26.52-10.21-35.7,28.6Z"/>
          <path class="cls-119" d="M406.47,866.05s10.29-28.84-28.05-30.33C361.08,835,406.47,866.05,406.47,866.05Z"/>
        </g>
        <g>
          <path class="cls-119" d="M242.58,838s14.28-9.48,41.81-11.82-29.57-12.45-50,11.82C234.42,838,225.24,848.78,242.58,838Z"/>
          <path class="cls-119" d="M203.82,839.35s41.82-30.34,66.3-38.43-23.46-8.76-56.1,16.52C214,817.44,197.7,832.61,203.82,839.35Z"/>
          <path class="cls-119" d="M191.58,839.35s27.78-49.21,40.41-55.28-20-9.44-40.41,30.67C191.58,814.74,183.42,836,191.58,839.35Z"/>
          <path class="cls-119" d="M176.79,839.35s10.71-45.17,20.91-51.91S158.94,794.86,176.79,839.35Z"/>
          <path class="cls-119" d="M170.67,839.35s.51-37.63-21.42-43.42S162,820.47,170.67,839.35Z"/>
          <path class="cls-119" d="M163.53,839.35s-13.77-43.12-47.43-44.15S142.62,811,163.53,839.35Z"/>
          <path class="cls-119" d="M160.64,839.35s-18-17.53-48.62-16.18S153.16,834,160.64,839.35Z"/>
        </g>
        <g>
          <path class="cls-119" d="M1446.12,877s14.28-9.48,41.82-11.82-29.58-12.45-50,11.82C1438,877,1428.78,887.77,1446.12,877Z"/>
          <path class="cls-119" d="M1407.36,878.34s41.82-30.34,66.3-38.43-23.46-8.76-56.1,16.52C1417.56,856.43,1401.24,871.59,1407.36,878.34Z"/>
          <path class="cls-119" d="M1395.12,878.34s27.78-49.22,40.41-55.28-20-9.44-40.41,30.67C1395.12,853.73,1387,875,1395.12,878.34Z"/>
          <path class="cls-119" d="M1380.33,878.34s10.71-45.17,20.91-51.91S1362.48,833.84,1380.33,878.34Z"/>
          <path class="cls-119" d="M1374.21,878.34s.51-37.63-21.42-43.42S1365.54,859.46,1374.21,878.34Z"/>
          <path class="cls-119" d="M1367.07,878.34s-13.77-43.12-47.43-44.15S1346.16,850,1367.07,878.34Z"/>
          <path class="cls-119" d="M1364.18,878.34s-18-17.53-48.62-16.18S1356.7,872.94,1364.18,878.34Z"/>
        </g>
      </g>
      <path class="cls-99" d="M607.27,572.64s83.2-7,108.47.18c16.35,4.65,48.83,5.87,69.72,6.15l2.55,0c10,.11,16.78,0,16.78,0L858,583.84s23.32,16.56,14.14,14.36-34.58-13.4-83.88.2-114.22-22.87-140.76-15.63S586,601,562,594.47s-86.69-14.55-86.69-14.55l-8.56-5.1,13.59-4.57s40-1.54,62.82,1.61S598.54,576.28,607.27,572.64Z"/>
      <g>
        <polygon class="cls-120" points="1266.7 626.55 1318.57 668.88 1348.72 747.21 1262.99 696.52 1266.7 626.55"/>
        <polygon class="cls-121" points="1318.57 668.88 1399.72 674.21 1392.31 747.21 1348.72 747.21 1318.57 668.88"/>
        <polygon class="cls-122" points="1398.72 674.21 1437.98 747.21 1391.31 747.21 1398.72 674.21"/>
        <polygon class="cls-123" points="1398.72 674.21 1481.72 678.21 1526.72 718.21 1500.72 763.21 1437.98 747.21 1398.72 674.21"/>
        <path class="cls-124" d="M1526.72,718.21l-26,45s59,2,75-5,10-4,10-4Z"/>
        <polygon class="cls-125" points="1481.72 678.21 1590.66 626.55 1635.72 714.62 1635.72 747.21 1585.72 754.21 1522.99 718.21 1481.72 678.21"/>
        <path class="cls-126" d="M1590.66,626.55l46.06,89.66q-.49-38.41-1-76.85Z"/>
        <polygon class="cls-123" points="1551.72 579.21 1590.66 626.55 1635.72 639.36 1635.72 632.36 1551.72 579.21"/>
        <path class="cls-127" d="M1266.7,626.55l51.87,42.33,163.15,9.33,108.94-51.66-38.94-47.34H1441.58s-46.86-7-88.86,11S1266.7,626.55,1266.7,626.55Z"/>
        <path class="cls-128" d="M1318.57,668.88s111.66-6,119.41-31.86,24.74-25.81,152.68-10.47l-38.94-47.34H1438L1266.7,626.55Z"/>
        <polygon class="cls-129" points="1312.95 664.29 1318.57 668.88 1325.5 686.88 1322.51 668.63 1329.1 668.88 1319.72 666.21 1312.95 664.29"/>
        <polygon class="cls-129" points="1461.49 677.24 1480.72 680.21 1495.84 691.9 1484.87 676.72 1487.72 672.21 1477.72 677.21 1461.49 677.24"/>
        <polygon class="cls-129" points="1273 631.69 1267.72 629.21 1266.2 635.9 1266.7 626.55 1274.18 624.48 1270.19 627.23 1273 631.69"/>
        <path class="cls-130" d="M1528.77,579.21s-39,5-56,16-44,28-48,36l-4,8-6.08,11.11s13.08-19.11,28.08-28.11,28-23,42-27,37-10,52-13l15-3Z"/>
        <path class="cls-131" d="M1433.08,579.21s-25.36,11-25.36,26v15s-.49-30,30.26-41Z"/>
        <polygon class="cls-123" points="1490.81 642.71 1539.18 650.96 1575.81 696.52 1551.72 642.71 1490.81 642.71"/>
      </g>
      <g>
        <path class="cls-132" d="M1427.82,765s10.21-12.77,29.91-15.92S1436.57,732.28,1422,765C1422,765,1415.41,779.5,1427.82,765Z"/>
        <path class="cls-132" d="M1400.09,766.78S1430,725.92,1447.52,715s-16.79-11.81-40.14,22.24C1407.38,737.27,1395.71,757.7,1400.09,766.78Z"/>
        <path class="cls-132" d="M1391.33,766.78s19.88-66.28,28.91-74.45-14.32-12.71-28.91,41.31C1391.33,733.64,1385.49,762.24,1391.33,766.78Z"/>
        <path class="cls-132" d="M1380.75,766.78s7.66-60.83,15-69.91S1368,706.86,1380.75,766.78Z"/>
        <path class="cls-132" d="M1376.37,766.78s.37-50.68-15.32-58.48S1370.17,741.36,1376.37,766.78Z"/>
        <path class="cls-132" d="M1371.26,766.78s-9.85-58.08-33.93-59.45S1356.3,728.65,1371.26,766.78Z"/>
        <path class="cls-132" d="M1369.2,766.78s-12.9-23.6-34.79-21.79S1363.85,759.52,1369.2,766.78Z"/>
      </g>
      <g>
        <path class="cls-132" d="M455.82,661S466,648.2,485.73,645.05,464.57,628.28,450,661C450,661,443.41,675.5,455.82,661Z"/>
        <path class="cls-132" d="M428.09,662.78S458,621.92,475.52,611s-16.79-11.81-40.14,22.24C435.38,633.27,423.71,653.7,428.09,662.78Z"/>
        <path class="cls-132" d="M419.33,662.78s19.88-66.28,28.91-74.45-14.32-12.71-28.91,41.31C419.33,629.64,413.49,658.24,419.33,662.78Z"/>
        <path class="cls-132" d="M408.75,662.78s7.66-60.83,15-69.91S396,602.86,408.75,662.78Z"/>
        <path class="cls-132" d="M404.37,662.78s.37-50.68-15.32-58.48S398.17,637.36,404.37,662.78Z"/>
        <path class="cls-132" d="M399.26,662.78s-9.85-58.08-33.93-59.45S384.3,624.65,399.26,662.78Z"/>
        <path class="cls-132" d="M397.2,662.78s-12.9-23.6-34.79-21.79S391.85,655.52,397.2,662.78Z"/>
      </g>
      <g>
        <path class="cls-132" d="M1583.82,763s10.21-12.77,29.91-15.92S1592.57,730.28,1578,763C1578,763,1571.41,777.5,1583.82,763Z"/>
        <path class="cls-132" d="M1556.09,764.78S1586,723.92,1603.52,713s-16.79-11.81-40.14,22.24C1563.38,735.27,1551.71,755.7,1556.09,764.78Z"/>
        <path class="cls-132" d="M1547.33,764.78s19.88-66.28,28.91-74.45-14.32-12.71-28.91,41.31C1547.33,731.64,1541.49,760.24,1547.33,764.78Z"/>
        <path class="cls-132" d="M1536.75,764.78s7.66-60.83,15-69.91S1524,704.86,1536.75,764.78Z"/>
        <path class="cls-132" d="M1532.37,764.78s.37-50.68-15.32-58.48S1526.17,739.36,1532.37,764.78Z"/>
        <path class="cls-132" d="M1527.26,764.78s-9.85-58.08-33.93-59.45S1512.3,726.65,1527.26,764.78Z"/>
        <path class="cls-132" d="M1525.2,764.78s-12.9-23.6-34.79-21.79S1519.85,757.52,1525.2,764.78Z"/>
      </g>
      <path class="cls-42" d="M868,541l-3,43-79.54-5L869,534"/>
      <polygon class="cls-42" points="920.32 555.97 903.74 533.35 926.5 556.82 923.65 596.14 920.32 555.97"/>
      <path class="cls-133" d="M918.41,525.47S910.54,553,947.18,549C947.18,549,916.82,547.94,918.41,525.47Z"/>
      <path class="cls-133" d="M824.47,338.41s52.89,37.86,47.71,56.73,1.19,32,8,33.42c0,0-20.23,5.85-16.71-35.35s-31.54-31.57-39-52.39"/>
      <polygon class="cls-64" points="918.06 476.22 887.51 455.8 919.65 488.35 918.06 476.22"/>
      <ellipse class="cls-134" cx="615" cy="634" rx="30" ry="13"/>
      <ellipse class="cls-134" cx="868" cy="695" rx="30" ry="13"/>
      <ellipse class="cls-134" cx="828" cy="596" rx="30" ry="13"/>
      <rect class="cls-1" width="1600" height="900"/>
      <rect class="cls-135" x="887.51" y="399.74" width="1.7" height="1.7"/>
    </g>
    <rect class="cls-136" width="1600" height="900"/>
  </g>
</svg>
