<svg id="Layer_1" data-name="Layer 1" xmlns="http://www.w3.org/2000/svg" xmlns:xlink="http://www.w3.org/1999/xlink" width="1920" height="900" viewBox="0 0 1920 900">
  <defs>
    <style>
      .cls-1, .cls-85, .cls-86 {
        fill: none;
      }

      .cls-2 {
        clip-path: url(#clip-path);
      }

      .cls-3 {
        fill: url(#linear-gradient);
      }

      .cls-4 {
        fill: url(#linear-gradient-2);
      }

      .cls-5 {
        fill: url(#linear-gradient-3);
      }

      .cls-6 {
        fill: url(#linear-gradient-4);
      }

      .cls-7 {
        fill: url(#linear-gradient-5);
      }

      .cls-8 {
        fill: #61c94b;
      }

      .cls-9 {
        fill: #d8bea4;
      }

      .cls-10 {
        fill: url(#linear-gradient-6);
      }

      .cls-11 {
        fill: url(#linear-gradient-7);
      }

      .cls-12 {
        fill: url(#linear-gradient-8);
      }

      .cls-13, .cls-26 {
        fill: #c28a73;
      }

      .cls-13 {
        opacity: 0.56;
      }

      .cls-14 {
        fill: #ce856b;
      }

      .cls-15 {
        fill: #3beaa2;
      }

      .cls-16 {
        fill: url(#linear-gradient-9);
      }

      .cls-17 {
        fill: url(#linear-gradient-10);
      }

      .cls-18 {
        fill: url(#linear-gradient-11);
      }

      .cls-19 {
        fill: url(#linear-gradient-12);
      }

      .cls-20 {
        fill: url(#linear-gradient-13);
      }

      .cls-21 {
        fill: url(#linear-gradient-14);
      }

      .cls-22 {
        fill: url(#linear-gradient-15);
      }

      .cls-23 {
        fill: url(#linear-gradient-16);
      }

      .cls-24 {
        fill: url(#linear-gradient-17);
      }

      .cls-25 {
        fill: url(#linear-gradient-18);
      }

      .cls-26 {
        opacity: 0.75;
      }

      .cls-27 {
        fill: #754d32;
      }

      .cls-28 {
        fill: url(#linear-gradient-19);
      }

      .cls-29 {
        fill: url(#linear-gradient-20);
      }

      .cls-30 {
        fill: url(#linear-gradient-21);
      }

      .cls-31 {
        fill: url(#linear-gradient-22);
      }

      .cls-32 {
        fill: url(#linear-gradient-23);
      }

      .cls-33 {
        fill: #443834;
      }

      .cls-34 {
        fill: #635347;
      }

      .cls-35 {
        fill: #191411;
      }

      .cls-36 {
        fill: #96806e;
      }

      .cls-37 {
        fill: #aa9481;
      }

      .cls-38 {
        fill: #a08973;
      }

      .cls-39 {
        fill: #bca08e;
      }

      .cls-40 {
        fill: #afa094;
      }

      .cls-41 {
        fill: #594a42;
      }

      .cls-42 {
        fill: #7f3932;
        fill-rule: evenodd;
      }

      .cls-43 {
        fill: #231d1a;
      }

      .cls-44 {
        fill: #1e1816;
      }

      .cls-130, .cls-45 {
        fill: #3f352d;
      }

      .cls-46, .cls-76 {
        fill: #565551;
      }

      .cls-47 {
        fill: #af9885;
      }

      .cls-48 {
        fill: #b2967f;
      }

      .cls-49 {
        fill: #685248;
      }

      .cls-50 {
        fill: #51453b;
      }

      .cls-51 {
        fill: #846f5e;
      }

      .cls-52 {
        fill: #473730;
      }

      .cls-53 {
        fill: #493e34;
      }

      .cls-54 {
        fill: #897466;
      }

      .cls-55 {
        fill: #3a312e;
      }

      .cls-56 {
        fill: #594a4c;
      }

      .cls-57 {
        fill: #594a40;
      }

      .cls-58 {
        fill: #af9784;
      }

      .cls-59 {
        fill: #6b5a51;
      }

      .cls-60 {
        fill: #2d2624;
      }

      .cls-61 {
        fill: #544440;
      }

      .cls-62 {
        fill: #4c3f37;
      }

      .cls-63 {
        fill: #2d2d2d;
      }

      .cls-64 {
        fill: #44433e;
      }

      .cls-65 {
        fill: #594941;
      }

      .cls-66 {
        fill: #4c3c31;
      }

      .cls-67 {
        fill: #3f3f3f;
      }

      .cls-68 {
        fill: #474746;
      }

      .cls-69 {
        fill: #302824;
      }

      .cls-70 {
        fill: #51423f;
      }

      .cls-71 {
        fill: #4f4f4e;
      }

      .cls-72 {
        fill: #191919;
      }

      .cls-73 {
        fill: #0c0704;
      }

      .cls-74 {
        fill: #110b07;
      }

      .cls-75 {
        fill: #232323;
      }

      .cls-76 {
        opacity: 0.31;
      }

      .cls-77 {
        fill: #454441;
      }

      .cls-78 {
        fill: #4c3d2c;
      }

      .cls-79 {
        fill: #b5b5b4;
      }

      .cls-80 {
        fill: #442d22;
      }

      .cls-81 {
        fill: #b79f8b;
      }

      .cls-82 {
        fill: #493e38;
      }

      .cls-83 {
        fill: #6b5b51;
      }

      .cls-84 {
        fill: #6b584b;
      }

      .cls-85, .cls-86 {
        stroke: #0c0704;
        stroke-miterlimit: 10;
        stroke-width: 0.75px;
      }

      .cls-85 {
        opacity: 0.22;
      }

      .cls-86 {
        opacity: 0.24;
      }

      .cls-87 {
        fill: #736357;
        opacity: 0.34;
      }

      .cls-88 {
        fill: #564845;
      }

      .cls-89 {
        fill: #51463c;
        opacity: 0.5;
      }

      .cls-90 {
        fill: #b29880;
      }

      .cls-91 {
        fill: url(#linear-gradient-24);
      }

      .cls-92 {
        fill: url(#linear-gradient-25);
      }

      .cls-93 {
        fill: #515d30;
      }

      .cls-94 {
        fill: #633d35;
      }

      .cls-95 {
        fill: url(#linear-gradient-26);
      }

      .cls-96 {
        fill: #6cbd46;
      }

      .cls-97 {
        fill: url(#linear-gradient-27);
      }

      .cls-98 {
        fill: url(#linear-gradient-28);
      }

      .cls-99 {
        fill: url(#linear-gradient-29);
      }

      .cls-100 {
        fill: url(#linear-gradient-30);
      }

      .cls-101 {
        fill: url(#linear-gradient-31);
      }

      .cls-102 {
        fill: url(#linear-gradient-32);
      }

      .cls-103 {
        fill: url(#linear-gradient-33);
      }

      .cls-104 {
        fill: url(#linear-gradient-34);
      }

      .cls-105 {
        fill: url(#linear-gradient-35);
      }

      .cls-106 {
        fill: url(#linear-gradient-36);
      }

      .cls-107 {
        fill: url(#linear-gradient-37);
      }

      .cls-108 {
        fill: url(#linear-gradient-38);
      }

      .cls-109 {
        fill: url(#linear-gradient-39);
      }

      .cls-110 {
        fill: url(#linear-gradient-40);
      }

      .cls-111 {
        fill: url(#linear-gradient-41);
      }

      .cls-112 {
        fill: url(#linear-gradient-42);
      }

      .cls-113 {
        fill: url(#linear-gradient-43);
      }

      .cls-114 {
        fill: url(#linear-gradient-44);
      }

      .cls-115 {
        fill: #09a53f;
      }

      .cls-116 {
        fill: #514e47;
      }

      .cls-117 {
        fill: #706c63;
      }

      .cls-118 {
        fill: #7c7972;
      }

      .cls-119 {
        fill: #565450;
      }

      .cls-120 {
        fill: #3f3f3e;
      }

      .cls-121 {
        fill: #5e5b54;
      }

      .cls-122 {
        fill: #4c4943;
      }

      .cls-123 {
        fill: #b2b1ad;
      }

      .cls-124 {
        fill: #bcbbb7;
      }

      .cls-125 {
        fill: #a3a099;
      }

      .cls-126, .cls-127 {
        fill: #706e69;
      }

      .cls-126 {
        opacity: 0.42;
      }

      .cls-127 {
        opacity: 0.4;
      }

      .cls-128 {
        fill: #6dd861;
      }

      .cls-129 {
        fill: #897968;
      }

      .cls-130 {
        opacity: 0.3;
      }
    </style>
    <clipPath id="clip-path">
      <rect class="cls-1" width="1920" height="900"/>
    </clipPath>
    <linearGradient id="linear-gradient" x1="790.43" y1="1110.44" x2="1039.15" y2="-119.09" gradientUnits="userSpaceOnUse">
      <stop offset="0.2" stop-color="#c5f7fd"/>
      <stop offset="0.34" stop-color="#b3f0fd"/>
      <stop offset="0.66" stop-color="#8ee1fd"/>
      <stop offset="0.83" stop-color="#80dbfd"/>
    </linearGradient>
    <linearGradient id="linear-gradient-2" x1="1204.81" y1="159.95" x2="1262.82" y2="101.9" gradientUnits="userSpaceOnUse">
      <stop offset="0.15" stop-color="#82cdd9"/>
      <stop offset="0.82" stop-color="#d7eef4"/>
    </linearGradient>
    <linearGradient id="linear-gradient-3" x1="813.56" y1="91.24" x2="882.65" y2="22.1" xlink:href="#linear-gradient-2"/>
    <linearGradient id="linear-gradient-4" x1="1591.88" y1="-1218.1" x2="1691.72" y2="-1318.01" gradientTransform="matrix(0.97, -0.09, 0.07, 0.77, -324.64, 1245.42)" gradientUnits="userSpaceOnUse">
      <stop offset="0.4" stop-color="#adcff1"/>
      <stop offset="0.51" stop-color="#b9d9f5"/>
      <stop offset="0.8" stop-color="#d2f0fc"/>
      <stop offset="0.98" stop-color="#dbf8ff"/>
    </linearGradient>
    <linearGradient id="linear-gradient-5" x1="1465.46" y1="250.44" x2="1556.49" y2="159.35" gradientUnits="userSpaceOnUse">
      <stop offset="0.15" stop-color="#82cdd9"/>
      <stop offset="0.9" stop-color="#d7eef4"/>
    </linearGradient>
    <linearGradient id="linear-gradient-6" x1="1085.99" y1="-286.11" x2="1059.41" y2="554.01" gradientUnits="userSpaceOnUse">
      <stop offset="0.09" stop-color="#5ac1ad"/>
      <stop offset="0.24" stop-color="#5ac1ad"/>
      <stop offset="0.55" stop-color="#4ac6a8"/>
      <stop offset="0.62" stop-color="#48bea3"/>
      <stop offset="0.7" stop-color="#45af9a"/>
    </linearGradient>
    <linearGradient id="linear-gradient-7" x1="-41.44" y1="821.58" x2="2460.9" y2="-438.68" gradientUnits="userSpaceOnUse">
      <stop offset="0" stop-color="#fff"/>
      <stop offset="0.07" stop-color="#229d73"/>
      <stop offset="0.32" stop-color="#23a97a"/>
      <stop offset="0.39" stop-color="#23ad7c"/>
      <stop offset="0.4" stop-color="#23ad7c"/>
      <stop offset="0.72" stop-color="#23b477"/>
    </linearGradient>
    <linearGradient id="linear-gradient-8" x1="879.48" y1="366.51" x2="875.03" y2="138.41" gradientTransform="matrix(-1, 0, 0, 1, 1607.27, 0)" gradientUnits="userSpaceOnUse">
      <stop offset="0" stop-color="#907d61"/>
      <stop offset="0.36" stop-color="#6d6b4d"/>
      <stop offset="0.58" stop-color="#5e6345"/>
    </linearGradient>
    <linearGradient id="linear-gradient-9" x1="954.1" y1="186.54" x2="824.23" y2="-121.16" gradientTransform="matrix(-1, 0, 0, 1, 1607.27, 0)" gradientUnits="userSpaceOnUse">
      <stop offset="0.26" stop-color="#55b093"/>
      <stop offset="0.39" stop-color="#61c489"/>
      <stop offset="0.56" stop-color="#6ddb7d"/>
      <stop offset="0.68" stop-color="#72e379"/>
    </linearGradient>
    <linearGradient id="linear-gradient-10" x1="1179.71" y1="256.8" x2="1032.27" y2="112.4" gradientTransform="matrix(-1, 0, 0, 1, 1607.27, 0)" gradientUnits="userSpaceOnUse">
      <stop offset="0.23" stop-color="#2fac76"/>
      <stop offset="0.54" stop-color="#31ad79"/>
      <stop offset="0.74" stop-color="#36b281"/>
      <stop offset="0.88" stop-color="#3db98e"/>
    </linearGradient>
    <linearGradient id="linear-gradient-11" x1="778.77" y1="190.58" x2="738.84" y2="47.14" xlink:href="#linear-gradient-9"/>
    <linearGradient id="linear-gradient-12" x1="944.33" y1="230.33" x2="883.22" y2="20.03" gradientTransform="matrix(-1, 0, 0, 1, 1607.27, 0)" gradientUnits="userSpaceOnUse">
      <stop offset="0.07" stop-color="#39a57e"/>
      <stop offset="0.67" stop-color="#72e379"/>
    </linearGradient>
    <linearGradient id="linear-gradient-13" x1="72.48" y1="423.51" x2="68.03" y2="195.41" xlink:href="#linear-gradient-8"/>
    <linearGradient id="linear-gradient-14" x1="147.1" y1="243.54" x2="17.23" y2="-64.16" xlink:href="#linear-gradient-9"/>
    <linearGradient id="linear-gradient-15" x1="372.71" y1="313.8" x2="225.27" y2="169.4" xlink:href="#linear-gradient-10"/>
    <linearGradient id="linear-gradient-16" x1="-28.23" y1="247.58" x2="-68.16" y2="104.14" xlink:href="#linear-gradient-9"/>
    <linearGradient id="linear-gradient-17" x1="137.33" y1="287.33" x2="76.22" y2="77.03" xlink:href="#linear-gradient-12"/>
    <linearGradient id="linear-gradient-18" x1="379.06" y1="353.6" x2="375.62" y2="177.52" gradientUnits="userSpaceOnUse">
      <stop offset="0" stop-color="#907d61"/>
      <stop offset="0.06" stop-color="#8b7660"/>
      <stop offset="0.47" stop-color="#6e4f57"/>
      <stop offset="0.69" stop-color="#634054"/>
    </linearGradient>
    <linearGradient id="linear-gradient-19" x1="370.93" y1="236.07" x2="468.73" y2="-4.58" gradientTransform="matrix(1, 0, 0, 1, 0, 0)" xlink:href="#linear-gradient-9"/>
    <linearGradient id="linear-gradient-20" x1="569.82" y1="133.2" x2="498.7" y2="230.86" gradientUnits="userSpaceOnUse">
      <stop offset="0.3" stop-color="#72e379"/>
      <stop offset="0.87" stop-color="#57b479"/>
    </linearGradient>
    <linearGradient id="linear-gradient-21" x1="244.62" y1="216.64" x2="313.49" y2="151.42" gradientTransform="matrix(1, 0, 0, 1, 0, 0)" xlink:href="#linear-gradient-10"/>
    <linearGradient id="linear-gradient-22" x1="285.33" y1="177.01" x2="283.46" y2="81.37" gradientUnits="userSpaceOnUse">
      <stop offset="0.18" stop-color="#63c28e"/>
      <stop offset="0.6" stop-color="#63c091"/>
    </linearGradient>
    <linearGradient id="linear-gradient-23" x1="367.17" y1="241.73" x2="468.85" y2="105.08" gradientUnits="userSpaceOnUse">
      <stop offset="0.07" stop-color="#39a57e"/>
      <stop offset="0.77" stop-color="#72e379"/>
    </linearGradient>
    <linearGradient id="linear-gradient-24" x1="417.58" y1="601.11" x2="206.23" y2="390.46" gradientUnits="userSpaceOnUse">
      <stop offset="0" stop-color="#43b555"/>
      <stop offset="0.03" stop-color="#40b255"/>
      <stop offset="0.27" stop-color="#289b52"/>
      <stop offset="0.49" stop-color="#1a8e50"/>
      <stop offset="0.68" stop-color="#15894f"/>
    </linearGradient>
    <linearGradient id="linear-gradient-25" x1="119.41" y1="675.09" x2="278.16" y2="21.48" gradientUnits="userSpaceOnUse">
      <stop offset="0" stop-color="#694722"/>
      <stop offset="0.55" stop-color="#4f4030"/>
    </linearGradient>
    <linearGradient id="linear-gradient-26" x1="400.79" y1="140.69" x2="591.66" y2="-57.49" gradientUnits="userSpaceOnUse">
      <stop offset="0" stop-color="#0d5f3f"/>
      <stop offset="0.16" stop-color="#06724b"/>
      <stop offset="0.28" stop-color="#008355"/>
      <stop offset="0.42" stop-color="#24975b"/>
      <stop offset="0.56" stop-color="#43a861"/>
      <stop offset="0.68" stop-color="#56b264"/>
      <stop offset="0.76" stop-color="#5db665"/>
    </linearGradient>
    <linearGradient id="linear-gradient-27" x1="-0.46" y1="496.4" x2="439.96" y2="2.63" gradientTransform="matrix(1.08, 0, 0, 1.06, -25.11, -293.2)" gradientUnits="userSpaceOnUse">
      <stop offset="0" stop-color="#0d5f3f"/>
      <stop offset="0.27" stop-color="#157d66"/>
      <stop offset="0.43" stop-color="#198a77"/>
      <stop offset="0.76" stop-color="#1ca989"/>
    </linearGradient>
    <linearGradient id="linear-gradient-28" x1="-160.17" y1="306.66" x2="45.12" y2="50.63" gradientUnits="userSpaceOnUse">
      <stop offset="0" stop-color="#0d5f3f"/>
      <stop offset="0.33" stop-color="#0b7251"/>
      <stop offset="0.33" stop-color="#0b7251"/>
      <stop offset="0.43" stop-color="#087353"/>
      <stop offset="0.76" stop-color="#017458"/>
    </linearGradient>
    <linearGradient id="linear-gradient-29" x1="-160.17" y1="309.48" x2="45.12" y2="53.46" gradientUnits="userSpaceOnUse">
      <stop offset="0.03" stop-color="#106a56"/>
      <stop offset="0.42" stop-color="#116e59"/>
      <stop offset="0.62" stop-color="#0d745b"/>
      <stop offset="0.75" stop-color="#077b5e"/>
    </linearGradient>
    <linearGradient id="linear-gradient-30" x1="3173.1" y1="209.75" x2="3025.93" y2="-88.57" gradientTransform="matrix(-0.98, 0.17, 0.17, 0.98, 3594.41, -679.09)" gradientUnits="userSpaceOnUse">
      <stop offset="0" stop-color="#0d5f3f"/>
      <stop offset="0.03" stop-color="#127251"/>
      <stop offset="0.08" stop-color="#1fa37f"/>
      <stop offset="0.1" stop-color="#24b792"/>
      <stop offset="0.67" stop-color="#24b792"/>
    </linearGradient>
    <linearGradient id="linear-gradient-31" x1="-144.19" y1="43.6" x2="677.03" y2="43.6" gradientUnits="userSpaceOnUse">
      <stop offset="0.09" stop-color="#106e5b"/>
      <stop offset="0.3" stop-color="#0e8168"/>
      <stop offset="0.4" stop-color="#0d8c6f"/>
      <stop offset="0.5" stop-color="#139673"/>
      <stop offset="0.67" stop-color="#22b27d"/>
      <stop offset="0.68" stop-color="#23b37e"/>
    </linearGradient>
    <linearGradient id="linear-gradient-32" x1="-205.25" y1="81.55" x2="768.1" y2="14.2" gradientUnits="userSpaceOnUse">
      <stop offset="0.21" stop-color="#0b6848"/>
      <stop offset="0.36" stop-color="#127b57"/>
      <stop offset="0.55" stop-color="#1c986d"/>
      <stop offset="0.6" stop-color="#279e6e"/>
      <stop offset="0.7" stop-color="#44ad71"/>
      <stop offset="0.8" stop-color="#66be75"/>
    </linearGradient>
    <linearGradient id="linear-gradient-33" x1="176.97" y1="753.93" x2="439.35" y2="399.89" xlink:href="#linear-gradient-24"/>
    <linearGradient id="linear-gradient-34" x1="1423.74" y1="660.04" x2="1560.37" y2="475.68" gradientUnits="userSpaceOnUse">
      <stop offset="0.2" stop-color="#218b4d"/>
      <stop offset="0.36" stop-color="#3ba362"/>
      <stop offset="0.52" stop-color="#4eb571"/>
      <stop offset="0.63" stop-color="#5b7"/>
    </linearGradient>
    <linearGradient id="linear-gradient-35" x1="1646.4" y1="621.73" x2="1824.61" y2="381.26" gradientUnits="userSpaceOnUse">
      <stop offset="0.18" stop-color="#1aa77d"/>
      <stop offset="0.24" stop-color="#2bac7b"/>
      <stop offset="0.39" stop-color="#4bb676"/>
      <stop offset="0.51" stop-color="#5ebc73"/>
      <stop offset="0.6" stop-color="#65be72"/>
    </linearGradient>
    <linearGradient id="linear-gradient-36" x1="1287.98" y1="640.02" x2="1322.55" y2="453.49" gradientUnits="userSpaceOnUse">
      <stop offset="0.18" stop-color="#45ac66"/>
      <stop offset="0.25" stop-color="#52b26f"/>
      <stop offset="0.4" stop-color="#6abd7e"/>
      <stop offset="0.54" stop-color="#78c488"/>
      <stop offset="0.65" stop-color="#7dc68b"/>
    </linearGradient>
    <linearGradient id="linear-gradient-37" x1="1549.99" y1="626.79" x2="1695.21" y2="28.88" xlink:href="#linear-gradient-25"/>
    <linearGradient id="linear-gradient-38" x1="1790.31" y1="122.05" x2="1949.61" y2="-43.34" xlink:href="#linear-gradient-26"/>
    <linearGradient id="linear-gradient-39" x1="1348.94" y1="454.25" x2="1718.26" y2="40.19" xlink:href="#linear-gradient-27"/>
    <linearGradient id="linear-gradient-40" x1="1332.57" y1="271.6" x2="1506.21" y2="55.05" xlink:href="#linear-gradient-28"/>
    <linearGradient id="linear-gradient-41" x1="1332.57" y1="274.25" x2="1506.21" y2="57.7" xlink:href="#linear-gradient-29"/>
    <linearGradient id="linear-gradient-42" x1="1824.11" y1="437.54" x2="1690.45" y2="166.62" xlink:href="#linear-gradient-30"/>
    <linearGradient id="linear-gradient-43" x1="1348.93" y1="37.63" x2="2015.76" y2="37.63" xlink:href="#linear-gradient-31"/>
    <linearGradient id="linear-gradient-44" x1="1298.9" y1="68.91" x2="2089" y2="14.23" xlink:href="#linear-gradient-32"/>
  </defs>
  <g class="cls-2">
    <g>
      <g>
        <rect class="cls-3" width="1920" height="544.35"/>
        <g>
          <path class="cls-4" d="M1204.16,127.14s1.16-8.73,15.74-14.7,26.86-9.19,39.52-2.3,10,22.52,7.3,24.36c-5.22,3.56-16.45,8.25-46.44,3.67C1202.25,135.41,1204.16,127.14,1204.16,127.14Z"/>
          <path class="cls-5" d="M812.8,52.17s1.37-10.4,18.74-17.51,32-10.95,47.07-2.74,11.88,26.81,8.68,29c-6.21,4.25-19.59,9.84-55.3,4.38C810.52,62,812.8,52.17,812.8,52.17Z"/>
          <path class="cls-6" d="M1132.39,121.34s4.2-13.78,33.76-21.86,48.79-12,65.29,1.23,8.26,35.52-3.37,38.3-60,5-89.21-3.91C1138.86,135.1,1128.45,131,1132.39,121.34Z"/>
          <path class="cls-7" d="M1463.16,198.59s1.86-12.35,25.47-20.79,43.49-13,64-3.25,16.16,31.83,11.81,34.43c-8.45,5-26.63,11.68-75.18,5.2C1460.05,210.28,1463.16,198.59,1463.16,198.59Z"/>
        </g>
      </g>
      <rect class="cls-8" y="518" width="1920" height="384"/>
      <path class="cls-9" d="M773.86,551.92,644.35,538.17l-43.3,15.46-53,12.84L519.87,547.2S413.27,596,463.63,606,629,604.58,601.5,646.29s-173.63,57.28-60.07,93S782,744.86,802.51,798.43s122.56,51,207.53,46.28,114.17-36.28,215.07-18,231.29,20.86,220.09-15.42-98.31-56.86-149.75-74.58S1210,710,1285,682s115.28-66,5.14-61-205.73-32.46-94.94-35.73,219.74,14.46,147.77-15.91-77.8-33.21-169.88-33.29S1058,593.3,980.5,567.65,923.29,531,861.14,538,808.72,548.83,773.86,551.92Z"/>
      <path class="cls-10" d="M191.2,315.55C262.09,268.62,354,220.38,465.89,190.11c335.29-90.72,618.87,42.56,727.63,101.95,170-13.2,363.85-23.76,466.84-13.71,52.37,5.11,281.42,52,281.75,55.71,1.09,12.27-200.17,4.34-307.37-.24Z"/>
      <path class="cls-11" d="M-16.45,272.79s434.5-112.72,598.06-34.12c142.56,72.07,154.56,85.38,339.13,31.12,163.56-23.74,259.21,42.9,339.68,40.95,0,0,409-94.89,674.54,14.39l-1,37.78-1952.68-12Z"/>
      <g>
        <path class="cls-12" d="M623.58,351.61c-.19-.5,1.26-.93,2.58-2.82a21.6,21.6,0,0,0,2.72-4.34c1.17-4.54,4.74-10,6.23-12,4.73-6.45,7-16.11,10.66-32.15a240.11,240.11,0,0,0,4.66-27.56c.27-16-1.92-28-6.45-35A190,190,0,0,1,631.07,214s-26.57,1.2-28.85,0-8.73-6.95-7.59-21.79l-.38-3.57,6.83,1.92s2.1,13.3,10.85,14.33c10.44,1.45,22.37-5,20.62-14.33h7.58s-2.33,27.32,9.14,33.09c8.56,2.27,13.62-1.32,13.23-17.31l-.39-16,13.61,0s-.77,17,0,18,6.81,11.54,13.23-10.1c5.44-15.26,2.33-7.91,2.33-7.91l7.39.17s-3.3,16.81-14.19,27.32c-7.2,10.1-7.39,27-2,33,5.83,6,15.75,9.27,23.34-26.19,5-23.5,6.42-34.12,6.42-34.12l10.5-.12s-4.28,28.06-3.5,33c1,5.56,1.36,22.67,24.31,15.46,55-15.8-8.27-38.66-.4-51.75,2.25-3.73,37.66,37.13,41,27.13,5.19-15.66,8-24.65,8-24.65l8.55-.23s.39,9.22-1.36,11.69c2.74.2,25.54-1.74,35.66-6.71,9-4.44,20.86-10.88,21.81-13.32,2.29-.1,9.27.09,11.56,0-1.78,4.54-4.72,6.35-6.9,8-8.39,6.43-26.24,14.93-56.86,19.18a60.83,60.83,0,0,0-7.24,1.06c0,.06-.13.94-.13.94s-1.2,23.07-28.63,34.2c-24.5,9.69-35.2,14.64-41.42,18.56s-10.5,8-9.53,21.44A110.94,110.94,0,0,1,716,316.47,108.72,108.72,0,0,1,702.56,351c-21,.69-34.58.76-43.25.68-17.39-.17-27.29-1.08-32.49.2C626.79,351.9,623.84,352.28,623.58,351.61Z"/>
        <path class="cls-13" d="M647.26,293.29c5.39,2.29,15,6.43,20,11.54,18.61,18.91,6,43.78,4.51,46.48l-49.14.66a34.48,34.48,0,0,0,7.4-10.9C637.21,325.16,645.89,305.91,647.26,293.29Z"/>
        <path class="cls-14" d="M707.45,218.14s-9.11,35.75-16.25,35.49C698.59,257.28,712.37,247.37,707.45,218.14Z"/>
        <path class="cls-15" d="M844.13,110.76c-2.12-15.41-7.69-38.69-24.44-57.7C774.44,1.7,687.78,25.6,660.06,33.27,591.62,52.21,547.26,97.61,525.53,124l-10.77,8.48a889,889,0,0,0,172,14.48A888.09,888.09,0,0,0,836.4,132.27Z"/>
        <path class="cls-16" d="M843.52,109.9c-2.09-14.84-7.6-37.25-24.18-55.55-44.78-49.44-130.53-26.43-158-19.05-67.73,18.23-111.62,61.94-133.12,87.38l-10.67,8.17a903.76,903.76,0,0,0,170.19,13.94,903.88,903.88,0,0,0,148.09-14.18Z"/>
        <path class="cls-15" d="M563.71,118.53S501,104.13,473.26,148C455.18,182,452,193,563.71,186.86,582.61,132.38,563.71,118.53,563.71,118.53Z"/>
        <path class="cls-17" d="M562.09,119.8s-60.87-14.63-87.85,29.93c-17.57,34.59-20.71,45.81,87.85,39.53C580.44,133.88,562.09,119.8,562.09,119.8Z"/>
        <path class="cls-15" d="M830.44,181c1.89,0,56.67-3.86,56.67-3.86s34-7.07,14.48-24.42a32.61,32.61,0,0,1-12.34-10.53c-3.89-5.68-2.85-8.47-5.33-13.7-7.86-16.57-34.21-22.21-34.21-22.21h0s-35.75-7.32-62.34,7c-3,1.6-4.43,2.47-5.56,4-12.3,16.24,26,63.73,26,63.73Z"/>
        <path class="cls-18" d="M803,183.05c1.83,0,103.36-2,103.36-2s18.4-2.79,8.13-19.9c-6-8.56-10.35-15.12-14-20.66-3.75-5.7-13.87-14.36-20.67-19.15-16.69-13.26-48.72-14.13-48.72-14.13h0s-34.53-7.34-60.22,7.06c-2.86,1.6-4.27,2.47-5.36,4-11.88,16.29,25.07,63.93,25.07,63.93Z"/>
        <path class="cls-15" d="M827.51,137.18s-31.18-26-63.87-36.16c-35.7-15.27-83-49.39-140.3-33.61-44.26,14.77-77.45,35.14-97.06,72.83-9.55,21.89-11.06,48.38,61.86,44.81l203.16.33S870.75,179.45,827.51,137.18Z"/>
        <path class="cls-19" d="M830.48,142.79s-31.54-26.41-64.6-36.76C729.76,90.5,681.94,55.81,623.94,71.86c-44.76,15-78.34,35.72-98.18,74-9.66,22.26-11.19,49.19,62.57,45.56l205.52.33S874.23,185.76,830.48,142.79Z"/>
        <path class="cls-14" d="M594.2,191.46s-.92,14.87,5.91,20.86c2,2.09,3.66,2,6.1,2.09a14.17,14.17,0,0,1-8.5-10.2,79.56,79.56,0,0,1-1.85-12.75H594.2Z"/>
        <path class="cls-14" d="M662.05,191.53c.27,2.7.46,10.86.36,12.68-.47,8-1,17.14-5.91,19.5a6.45,6.45,0,0,1-3.69.49L651,224c2.28,3,4.32,3.24,5,3.27,4.06.2,8.8-5.38,10-14.37a58.93,58.93,0,0,0,.82-12.93c-.19-3.58-.74-8.48-.74-8.48h0Z"/>
      </g>
      <g>
        <path class="cls-20" d="M1430.58,408.61c-.19-.5,1.26-.93,2.58-2.82a21.6,21.6,0,0,0,2.72-4.34c1.17-4.54,4.74-10,6.23-12,4.73-6.45,7-16.11,10.66-32.15a240.11,240.11,0,0,0,4.66-27.56c.27-16-1.92-28.05-6.45-35A190,190,0,0,1,1438.07,271s-26.57,1.2-28.85,0-8.73-6.95-7.59-21.79l-.38-3.57,6.83,1.92s2.1,13.3,10.85,14.33c10.44,1.45,22.37-5,20.62-14.33h7.58s-2.33,27.32,9.14,33.09c8.56,2.27,13.62-1.32,13.23-17.31l-.39-16,13.61,0s-.77,17,0,18,6.81,11.54,13.23-10.1c5.44-15.26,2.33-7.91,2.33-7.91l7.39.17s-3.3,16.81-14.19,27.32c-7.2,10.1-7.39,27-2,33,5.83,6,15.75,9.27,23.34-26.19,5.05-23.5,6.42-34.12,6.42-34.12l10.5-.12s-4.28,28.06-3.5,33c1,5.56,1.36,22.67,24.31,15.46,55-15.8-8.27-38.66-.4-51.75,2.25-3.73,37.66,37.13,41,27.13,5.19-15.66,8-24.65,8-24.65l8.55-.23s.39,9.22-1.36,11.69c2.74.2,25.54-1.74,35.66-6.71,9-4.44,20.86-10.88,21.81-13.32,2.29-.1,9.27.09,11.56,0-1.78,4.54-4.72,6.35-6.9,8-8.39,6.43-26.24,14.93-56.86,19.18a60.83,60.83,0,0,0-7.24,1.06c0,.06-.13.94-.13.94s-1.2,23.07-28.63,34.2c-24.5,9.69-35.2,14.64-41.42,18.56s-10.5,8-9.53,21.44a110.94,110.94,0,0,1-1.75,32.05A108.72,108.72,0,0,1,1509.56,408c-21,.69-34.58.76-43.25.68-17.39-.17-27.29-1.08-32.49.2C1433.79,408.9,1430.84,409.28,1430.58,408.61Z"/>
        <path class="cls-13" d="M1454.26,350.29c5.39,2.29,15,6.43,20,11.54,18.61,18.91,6,43.78,4.51,46.48l-49.14.66a34.48,34.48,0,0,0,7.4-10.9C1444.21,382.16,1452.89,362.91,1454.26,350.29Z"/>
        <path class="cls-14" d="M1514.45,275.14s-9.11,35.75-16.25,35.49C1505.59,314.28,1519.37,304.37,1514.45,275.14Z"/>
        <path class="cls-15" d="M1651.13,167.76c-2.12-15.41-7.69-38.69-24.44-57.7-45.25-51.36-131.91-27.46-159.63-19.79-68.44,18.94-112.8,64.34-134.53,90.77l-10.77,8.48a889,889,0,0,0,172,14.48,888.09,888.09,0,0,0,149.66-14.73Z"/>
        <path class="cls-21" d="M1650.52,166.9c-2.09-14.84-7.6-37.25-24.18-55.55-44.78-49.44-130.53-26.43-158-19-67.73,18.23-111.62,61.94-133.12,87.38l-10.67,8.17a903.76,903.76,0,0,0,170.19,13.94,903.88,903.88,0,0,0,148.09-14.18Z"/>
        <path class="cls-15" d="M1370.71,175.53S1308,161.13,1280.26,205c-18.08,34-21.31,45.06,90.45,38.89C1389.61,189.38,1370.71,175.53,1370.71,175.53Z"/>
        <path class="cls-22" d="M1369.09,176.8s-60.87-14.63-87.85,29.93c-17.57,34.59-20.71,45.81,87.85,39.53C1387.44,190.88,1369.09,176.8,1369.09,176.8Z"/>
        <path class="cls-15" d="M1637.44,238c1.89,0,56.67-3.86,56.67-3.86s34-7.07,14.48-24.42a32.61,32.61,0,0,1-12.34-10.53c-3.89-5.68-2.85-8.47-5.33-13.7-7.86-16.57-34.21-22.21-34.21-22.21h0s-35.75-7.32-62.34,7c-3,1.6-4.43,2.47-5.56,4-12.3,16.24,26,63.73,26,63.73Z"/>
        <path class="cls-23" d="M1610,240.05c1.83,0,103.36-2,103.36-2s18.4-2.79,8.13-19.9c-6-8.56-10.35-15.12-14-20.66-3.75-5.7-13.87-14.36-20.67-19.15-16.69-13.26-48.72-14.13-48.72-14.13h0s-34.53-7.34-60.22,7.06c-2.86,1.6-4.27,2.47-5.36,4-11.88,16.29,25.07,63.93,25.07,63.93Z"/>
        <path class="cls-15" d="M1634.51,194.18s-31.18-26-63.87-36.16c-35.7-15.27-83-49.39-140.3-33.61-44.26,14.77-77.45,35.14-97.06,72.83-9.55,21.89-11.06,48.38,61.86,44.81l203.16.33S1677.75,236.45,1634.51,194.18Z"/>
        <path class="cls-24" d="M1637.48,199.79s-31.54-26.41-64.6-36.76c-36.12-15.53-83.94-50.22-141.94-34.17-44.76,15-78.34,35.72-98.18,74-9.66,22.26-11.19,49.19,62.57,45.56l205.52.33S1681.23,242.76,1637.48,199.79Z"/>
        <path class="cls-14" d="M1401.2,248.46s-.92,14.87,5.91,20.86c2,2.09,3.66,2,6.1,2.09a14.17,14.17,0,0,1-8.5-10.2,79.56,79.56,0,0,1-1.85-12.75h-1.66Z"/>
        <path class="cls-14" d="M1469.05,248.53c.27,2.7.46,10.86.36,12.68-.47,8-1,17.14-5.91,19.5a6.45,6.45,0,0,1-3.69.49L1458,281c2.28,3,4.32,3.24,5,3.27,4.06.2,8.8-5.38,10-14.37a58.93,58.93,0,0,0,.82-12.93c-.19-3.58-.74-8.48-.74-8.48h0Z"/>
      </g>
      <g>
        <path class="cls-25" d="M446.92,342.43c.15-.39-1.06-1-2.09-2.48a9.13,9.13,0,0,1-1.38-3.36c-.91-3.53-4.42-7.81-5.58-9.38-3.68-5-5.41-12.54-8.29-25A186.64,186.64,0,0,1,426,280.77c-.21-12.45,1.5-21.82,5-27.23a146.77,146.77,0,0,0,10-18.47s20.67.94,22.44,0,6.79-5.4,5.91-16.94l.29-2.78-5.31,1.49s-1.64,10.35-8.45,11.15c-8.11,1.12-17.39-3.86-16-11.15H434s1.82,21.25-7.11,25.74c-6.65,1.76-10.58-1-10.28-13.47l.3-12.44-10.59,0s.61,13.22,0,14-5.29,9-10.28-7.85c-4.24-11.87-1.82-6.15-1.82-6.15l-5.75.13s2.57,13.07,11,21.25c5.6,7.86,5.75,21,1.52,25.65-4.54,4.65-12.25,7.22-18.15-20.36-3.94-18.28-5-26.54-5-26.54l-8.16-.09s3.32,21.82,2.72,25.67c-.76,4.33-1.06,17.64-18.91,12-9.26-1.36-27.82-6.26-35.54-21-2.88-12.51-2.27-17.32-2.27-17.32L309,216s.15,7.23,1.51,9.15a21.36,21.36,0,0,1-11.87-2.61,23.91,23.91,0,0,1-10.36-12.1l-5.34-.22a31.82,31.82,0,0,0,5.39,9.43,31.08,31.08,0,0,0,17.95,10.63,48.26,48.26,0,0,1,5.29.92s-.3,0-.3,0,1.36,18.92,22.69,27.57c19.06,7.54,27.38,11.39,32.22,14.43s8.17,6.26,7.41,16.68A86.49,86.49,0,0,0,375,314.81a84.61,84.61,0,0,0,10.44,26.86c16.37.54,26.89.59,33.64.53,13.52-.13,21.22-.84,25.27.16C444.34,342.36,446.71,343,446.92,342.43Z"/>
        <path class="cls-26" d="M425.67,278.06a41.84,41.84,0,0,0-12.85,12c-14.47,21-4.62,48.61-3.5,51.61l38.22.73a123,123,0,0,1-7.36-12.3A134.4,134.4,0,0,1,425.67,278.06Z"/>
        <path class="cls-26" d="M381.61,238.33s7.08,27.81,12.63,27.6C388.5,268.77,377.78,261.06,381.61,238.33Z"/>
        <path class="cls-27" d="M421.24,311.5a7.1,7.1,0,0,1-4.11,0,1.9,1.9,0,0,1-1.22-1.74,4.78,4.78,0,0,1,.47-2.09,14.69,14.69,0,0,1,2.25-3.53,13.44,13.44,0,0,1,3.18-2.77,5.16,5.16,0,0,1,2.12-.74,2.64,2.64,0,0,1,1.23.18,3.08,3.08,0,0,1,.55.33,5.7,5.7,0,0,1,.43.42,5.35,5.35,0,0,1,1,2,11.06,11.06,0,0,1,.36,2.12,24.19,24.19,0,0,1-1,8.3l0,.06,0,.07a23,23,0,0,1-5.85,7,8.06,8.06,0,0,1-2.08,1.14,3.86,3.86,0,0,1-2.54.11,3.91,3.91,0,0,1-1.9-1.65,9,9,0,0,1-1-2.15,26.3,26.3,0,0,1-.82-9c.2-3,.35-5.95.59-8.92,0,3,0,6,0,8.94A25.47,25.47,0,0,0,414,318.3a9.17,9.17,0,0,0,.91,1.89,2.91,2.91,0,0,0,1.41,1.23c1.13.37,2.52-.33,3.63-1.16a23.12,23.12,0,0,0,5.49-6.67l-.06.13a23.46,23.46,0,0,0,1.08-7.9,10.23,10.23,0,0,0-.31-1.93,4.26,4.26,0,0,0-.77-1.65c-.67-.95-2-.7-3.13-.08a14.09,14.09,0,0,0-5.36,5.77,4.33,4.33,0,0,0-.54,1.85,1.52,1.52,0,0,0,.92,1.48,4.83,4.83,0,0,0,1.94.38A10.77,10.77,0,0,0,421.24,311.5Z"/>
        <path class="cls-15" d="M275.3,154.81c1.65-12,6-30.09,19-44.88C329.5,70,396.9,88.58,418.47,94.54c53.23,14.73,87.73,50.05,104.63,70.6l8.38,6.6A691.41,691.41,0,0,1,397.71,183a691,691,0,0,1-116.4-11.46Z"/>
        <path class="cls-28" d="M275.77,154.15c1.63-11.55,5.92-29,18.81-43.21C329.41,72.48,396.1,90.38,417.44,96.12c52.68,14.18,86.81,48.18,103.54,68l8.29,6.35a702.66,702.66,0,0,1-132.36,10.84,702.55,702.55,0,0,1-115.19-11Z"/>
        <path class="cls-15" d="M493.4,160.85s48.74-11.19,70.35,22.9c14.07,26.47,16.58,35.05-70.35,30.25C478.7,171.63,493.4,160.85,493.4,160.85Z"/>
        <path class="cls-29" d="M494.67,161.84S542,150.46,563,185.12c13.67,26.91,16.11,35.63-68.32,30.75C480.39,172.8,494.67,161.84,494.67,161.84Z"/>
        <path class="cls-15" d="M286,209.46c-1.47,0-44.08-3-44.08-3s-26.45-5.5-11.26-19a25.38,25.38,0,0,0,9.6-8.18c3-4.42,2.21-6.59,4.14-10.66,6.11-12.89,26.61-17.28,26.61-17.28h0s27.8-5.69,48.49,5.47c2.3,1.25,3.44,1.92,4.32,3.08,9.57,12.63-20.19,49.57-20.19,49.57Z"/>
        <path class="cls-30" d="M285.59,210.32c-1.42,0-42.57-3-42.57-3s-25.55-5.51-10.88-19.05a24.82,24.82,0,0,0,9.27-8.21c2.92-4.44,2.14-6.61,4-10.69,5.91-12.93,25.71-17.33,25.71-17.33h0S298,146.32,318,157.52c2.23,1.25,3.32,1.92,4.17,3.08,9.24,12.67-19.5,49.72-19.5,49.72Z"/>
        <path class="cls-15" d="M264.33,135.55s4-9.43,31.73-4.64c25.68,5.86,6,20.76-15.86,17.57S260.67,138.83,264.33,135.55Z"/>
        <path class="cls-31" d="M264.49,136.16s3.9-9.16,30.75-4.51c24.89,5.7,5.85,20.18-15.38,17.08S260.94,139.35,264.49,136.16Z"/>
        <path class="cls-15" d="M288.23,175.36s24.25-20.2,49.67-28.12c27.77-11.88,64.54-38.42,109.13-26.14,34.42,11.49,60.23,27.33,75.48,56.64,7.44,17,8.61,37.63-48.1,34.85l-158,.26S254.59,208.24,288.23,175.36Z"/>
        <path class="cls-32" d="M285.91,178.39s24.54-20.54,50.25-28.59c28.1-12.08,65.29-39.06,110.4-26.57,34.81,11.67,60.93,27.78,76.36,57.58,7.52,17.31,8.7,38.25-48.67,35.43l-159.85.26S251.89,211.81,285.91,178.39Z"/>
        <path class="cls-14" d="M469.65,217.16s.76,12-4.56,16.64c-1.59,1.63-2.84,1.59-4.74,1.63a11,11,0,0,0,6.61-7.94,59.84,59.84,0,0,0,1.38-10.71h1.31Z"/>
        <path class="cls-26" d="M416.87,216.67c-.21,2.1-.31,9.41-.23,10.83.37,6.23.78,13.33,4.6,15.16a5,5,0,0,0,2.86.38l1.44-.17c-1.77,2.33-3.36,2.52-3.87,2.55-3.16.15-6.85-4.19-7.75-11.18a45,45,0,0,1-.63-10.05c.14-2.8.67-7.52.67-7.52h2.91Z"/>
      </g>
      <g>
        <path class="cls-33" d="M160,568,595.55,252.51l231.61-47.85,135.42-4s156,29.65,168.71,27.5S1236.73,307,1236.73,307s60.71,122.42,77,126.71,183.61-10.65,187-5.68,29.2,72.92,36.76,80,33,33.54,33,33.54Z"/>
        <path class="cls-34" d="M160,502.68c0,.32,154.86-17.82,154.86-17.82l57.71,28.53-1.34,28.16L379,572.36l-82.11-13-27.38-25.66L160,551.73Z"/>
        <polygon class="cls-35" points="879.35 572.33 835.43 508.86 807.54 530.36 804.9 577.82 879.35 572.33"/>
        <path class="cls-36" d="M322.57,420.23l55.29-59.14,93.77-2.25-35.92,62.52-39.14,16,26,61.15-50,14.85-57.71-28.53S322.14,414.46,322.57,420.23Z"/>
        <polyline class="cls-37" points="601.02 314.04 526.52 440.81 507.98 430.74 460.98 425.43 435.71 421.36 471.63 358.84 557.03 322.37 595.55 252.51 675.56 222.93 674.86 261.53 675.56 222.93 742.4 203.13 779.37 186.57 790.72 214.72 790.32 237 681.67 256.55"/>
        <polygon class="cls-38" points="160 502.68 237.71 401.44 322.57 420.23 314.86 484.86 160 502.68"/>
        <polygon class="cls-38" points="237.71 401.44 269.48 348.83 377.86 361.09 322.57 420.23 237.71 401.44"/>
        <polygon class="cls-39" points="447.63 307.44 557.03 322.37 471.63 358.84 447.63 307.44"/>
        <polyline class="cls-39" points="471.63 358.84 377.86 361.09 269.48 348.83 370.56 303.85 447.63 307.44"/>
        <polygon class="cls-34" points="488.11 312.11 595.55 252.51 557.03 322.37 488.11 312.11"/>
        <path class="cls-34" d="M-14.91,343.26c10-3.41,284.39,5.57,284.39,5.57L161,503.34l24.51,72.51-199.66,7.66Z"/>
        <polygon class="cls-34" points="160 231.07 282.71 263.34 251.86 302 160 284.28 -16.45 359.34 -17.98 295 160 231.07"/>
        <polygon class="cls-38" points="282.71 263.34 325.83 323.75 269.48 348.83 251.86 302 282.71 263.34"/>
        <polygon class="cls-38" points="160 284.28 251.86 302 269.48 348.83 160 338.41 -27.17 389.98 -58.57 311.08 160 284.28"/>
        <polyline class="cls-40" points="1270.4 294.72 1417.48 361.09 1315.35 343.48 1273.62 281.18"/>
        <polyline class="cls-40" points="1578.31 303.89 1607 231.07 1641.47 333.91"/>
        <path class="cls-41" d="M1315.35,343.48s-1,37.32-.67,36.92,63.35,63,63.35,63l86-2.64,36.69,21.75-13.51,47s64.17,32.49,64.51,32,392.48,9.34,392.48,9.34l-15.83-239L1760,219.65l-153,11.42-28.69,72.82L1472.2,273.31,1351,307l-77.36-25.81-3.21,13.54Z"/>
        <path class="cls-42" d="M1148.58,394c-60.81,49.32-16.24,81.73-18.63,123.29-1,17.31-1.58,39.79,10.6,39.58l240.64-4.12c9.09-.16,10.47-11.77,1.48-30-4.48-9.09-15.23-24.27-17.43-19-9.56,22.9-127.45,43.22-144.55-19.29C1200.62,411,1135.18,427.61,1148.58,394Z"/>
        <path class="cls-43" d="M814.15,302.44s82.73,23.49,93.48,33.69a77.48,77.48,0,0,1,15.56,20.28l33.32,10.14,19.59,35.07L915,367.27,837.37,429s-25.3,4.31-18.15,43.48-4.71,101-4.71,101l-47.24-.87s-58.37,20.16-97.58-24.16-91.24-130.41-19.55-180.06S814.15,302.44,814.15,302.44Z"/>
        <path class="cls-44" d="M875,482.57s53.59,27.12,61.73-39.82,39.39-41.13,39.39-41.13l-19.59-35.07-37.94-17.72S814.12,415.1,809,450.69s-2.21,122.68-2.21,122.68l78.35,1.41s24.83-38,27-49.25Z"/>
        <path class="cls-35" d="M976.1,401.62l33.28,62.12-1.08,60q5.34,12.15,10.7,24.28-.5,17-1,34l-22.32-.08-115.52-2.09-44.73-71,24.11-79.42,67.23-38,29.45-8.54Z"/>
        <path class="cls-45" d="M771,363.21l-32.37,46.67-22.62,7.81,8.84,9.32-4.32,17.77-13.06,2.76L724.38,455l-3.67,25.5-14.4,34,17,.31,44,57.87s59.67,19.08-31-.56-89.5-16.29-89.5-16.29L614.55,444.87l44.72-67.28L758.52,337l25.16,8.45Z"/>
        <path class="cls-33" d="M750.27,572.33l-168.11-3s-20.06-44.37-19.92-52.36.07-4.15.07-4.15l94.37,8.13S739.26,573.13,750.27,572.33Z"/>
        <path class="cls-46" d="M656.68,520.92s-13.8-38.54-8.73-42.45-84.69-18.38-84.69-18.38l-1,52.7Z"/>
        <path class="cls-34" d="M648,478.47s-5.13-20.81,5.54-43.76,33.69-24.54,41.09-46.41,23.15-63.59,54.29-71,65.28-14.83,65.28-14.83l13.25-13.76,58.22-12,31.46-25.43L893,257.85l-53-8-8.25,21.85-29.05,2.48-47.33,18.29-28-2.65,45.75-41.18-76.84,45.62,7.61,22.15S664,363.32,619,367.22l-21.48-5.67s-41.7,70.54-34.21,98.54Z"/>
        <path class="cls-38" d="M597.47,361.55l63.13-57.88s27.66-8.5,43.28,12.79C703.88,316.46,638.41,389.29,597.47,361.55Z"/>
        <polygon class="cls-34" points="696.27 294.31 674.28 293.92 728.12 247.88 790.32 237 790.72 214.72 833.16 190.76 950.89 206.89 929.51 227.51 845.58 222.99 822.07 243.57 788.64 242.97 773.11 248.69 696.27 294.31"/>
        <polygon class="cls-38" points="773.11 248.69 727.36 289.87 755.32 292.52 802.65 274.23 818.1 249.5 845.58 222.99 773.11 248.69"/>
        <polygon class="cls-34" points="802.65 274.23 839.95 249.9 888.91 244.78 917.09 251.29 901.13 264.19 978.62 261.9 978.79 252.4 909.36 236.15 833.37 234.78 818.1 249.5 802.65 274.23"/>
        <path class="cls-47" d="M833.16,190.76s60.3-15.91,71.35-18.71,91,11.64,91,11.64l-44.57,23.2Z"/>
        <polyline class="cls-38" points="819.83 296.54 827.4 288.68 879.35 275.61 978.11 290.11 1062.89 318.93 1099.32 406.6 1094.99 424.52 1072.09 419.11 1040.18 342.02 977.89 302.39 905.81 306.18 858.39 297.24 814.15 302.44"/>
        <polygon class="cls-34" points="929.51 227.51 950.89 206.89 995.46 183.69 1011.14 221.48 979.22 228.4 929.51 227.51"/>
        <polygon class="cls-39" points="979.22 228.4 994.32 246.68 1026.94 238.26 1061.49 247.89 1086.72 239.34 1033.43 208.38 979.22 228.4"/>
        <polygon class="cls-48" points="833.37 234.78 909.36 236.15 978.79 252.4 985.22 252.51 970.26 228.24 845.58 222.99 833.37 234.78"/>
        <polygon class="cls-39" points="978.79 252.4 1115.39 291.87 1166.64 299.93 1158.61 264.21 1095.13 254.5 1060.33 258.87 994.32 246.68 978.79 252.4"/>
        <polygon class="cls-39" points="894.01 269.94 978.34 277.39 978.62 261.9 905.59 260.58 894.01 269.94"/>
        <polygon class="cls-34" points="885.62 276.72 973.97 289.5 993.65 284.26 978.62 261.9 978.34 277.39 894.01 269.94 885.62 276.72"/>
        <polygon class="cls-34" points="979.22 228.4 1026.94 238.26 1061.49 247.89 1086.72 239.34 1095.13 254.5 1060.33 258.87 985.22 252.51 970.26 228.24 979.22 228.4"/>
        <polyline class="cls-49" points="969.16 289.41 1072.18 305.95 1110.05 365.78 1207.74 439.56 1142.59 447.38 1099.24 410.6 1062.89 318.93 965.26 289.34"/>
        <polygon class="cls-50" points="978.79 252.4 1115.39 291.87 1136.07 365.25 1208.21 413.52 1207.74 439.56 1110.05 365.78 1072.18 305.95 1031.77 300.36 1014.49 285.05 993.65 284.26 978.34 277.39 978.79 252.4"/>
        <polygon class="cls-51" points="1115.34 291.92 1166.61 299.93 1215.55 371.22 1169.56 353.35 1136.11 365.29 1115.34 291.92"/>
        <polygon class="cls-52" points="814.15 302.44 854.21 297.16 898.42 306.04 975.19 301.34 974.81 322.52 915.72 327.07 814.15 302.44"/>
        <path class="cls-34" d="M974.81,322.52l51,56.75,15.73,66.29,9.34,96.18,38.68,22-11.49-87.55-6-58.11L1040.18,342l-65-40.68S974.81,322.7,974.81,322.52Z"/>
        <path class="cls-53" d="M1072.1,418.11s12.78,20.23,20,6.36l7.18-13.88,17.8,19.3-27.49,133.88Z"/>
        <path class="cls-34" d="M814.15,302.44,771,363.21,716.59,387.7l-13.67-18.33s9.66-37.16,31.32-45.57S814.15,302.44,814.15,302.44Z"/>
        <path class="cls-34" d="M716.59,387.7l-26,51.54-23.14-.42,19,10.34L690.6,492l-20,8.32,19.89.36,59.82,71.69-97.82-51.77-8.83-43s-4-34.89,15.3-51.71,31.88-29.68,31.88-29.68l12.12-26.77Z"/>
        <path class="cls-38" d="M814.15,302.44s87.66,27.58,93.48,33.69,10.94,12.7,10.94,12.7l56.24-26.31-59.09,4.55L820.5,301.6Z"/>
        <polygon class="cls-54" points="918.57 348.83 956.51 366.55 982.32 413.24 1025.8 379.27 998.85 349.28 974.81 322.52 918.57 348.83"/>
        <path class="cls-55" d="M995.87,401,1019,379.58l20,60.88,18.64,98.92L1026,534q-1-39.15-2-78.3Z"/>
        <polygon class="cls-56" points="516.6 568.12 562.32 512.79 582.16 569.3 516.6 568.12"/>
        <path class="cls-41" d="M597.47,361.55l-45,32.76L518.64,454.9l12.77,4.61-13,7.59,4.33,45-6.15,56,45.71-55.33,1-52.7S578.58,379.21,597.47,361.55Z"/>
        <polygon class="cls-38" points="597.47 361.55 660.6 303.67 674.28 293.92 728.12 247.88 681.67 256.55 617.09 303.89 616.54 316.06 598.22 320.33 552.52 394.31 597.47 361.55"/>
        <polygon class="cls-38" points="1214.32 439.67 1228.16 472.07 1261.58 472.67 1285.47 502.68 1363.35 533.66 1417.48 527.28 1408.5 510.18 1340.14 473.95 1305.15 473.31 1282.57 449.9 1263.09 460.03 1232.59 440 1214.32 439.67"/>
        <polygon class="cls-41" points="1228.16 472.07 1226.05 588.91 1258.19 589.49 1250.76 502.05 1261.58 472.67 1228.16 472.07"/>
        <polygon class="cls-55" points="1261.58 472.67 1285.47 502.68 1363.35 533.66 1334.85 600.87 1273.62 589.77 1261.58 472.67"/>
        <path class="cls-33" d="M1363.35,533.66c-.28-.29,54.13-6.38,54.13-6.38L1389.36,589l-54.51,11.86Z"/>
        <polygon class="cls-38" points="1215.35 382.68 1289.39 428.02 1391.55 451.87 1370.54 420.23 1251.8 373.34 1215.35 382.68"/>
        <polygon class="cls-41" points="1215.35 382.68 1289.39 428.02 1282.57 449.9 1263.09 460.03 1232.59 440 1207.74 439.56 1215.35 382.68"/>
        <path class="cls-33" d="M1289.39,428l24.33,5.68-.66,44.76-7.91-5.14-22.59-23.42Z"/>
        <polygon class="cls-53" points="1313.72 433.7 1391.55 451.87 1369.52 489.52 1340.14 473.95 1312.91 478.46 1313.72 433.7"/>
        <polygon class="cls-38" points="1117.04 429.89 1102.77 499.39 1169.38 522.8 1228.16 472.07 1214.32 439.67 1142.59 447.38 1099.24 410.6 1117.04 429.89"/>
        <polygon class="cls-33" points="1102.77 499.39 1089.55 563.77 1089.14 586.44 1177.2 588.03 1169.38 522.8 1102.77 499.39"/>
        <polygon class="cls-53" points="1169.38 522.8 1228.16 471.93 1226.05 588.91 1177.2 588.03 1169.38 522.8"/>
        <polygon class="cls-33" points="1261.15 472.52 1250.76 502.05 1258.19 589.49 1273.62 589.77 1261.15 472.52"/>
        <polygon class="cls-38" points="1136.11 365.29 1169.56 353.35 1215.55 371.22 1251.8 373.34 1215.35 382.68 1208.21 413.52 1136.11 365.29"/>
        <polygon class="cls-34" points="1166.61 299.93 1253.86 322.37 1251.8 373.34 1215.55 371.22 1166.61 299.93"/>
        <polygon class="cls-57" points="1253.86 322.37 1315.35 343.48 1314.68 380.4 1370.54 420.23 1251.8 373.34 1253.86 322.37"/>
        <polygon class="cls-38" points="1158.61 264.21 1253.54 276.43 1315.35 343.48 1253.86 322.37 1166.61 299.93 1158.61 264.21"/>
        <polygon class="cls-57" points="1260.62 276.55 1260.81 322.49 1315.35 343.48 1260.62 276.55"/>
        <polygon class="cls-58" points="1095.13 254.5 1131.29 228.14 1196.69 220.43 1259.49 231.95 1224.43 250.82 1195.81 269 1095.13 254.5"/>
        <path class="cls-59" d="M1259.49,232l10.91,62.77-16.86-18.3L1195.81,269S1249.43,235.27,1259.49,232Z"/>
        <g>
          <path class="cls-33" d="M1159.72,539.55l27.92,13.76q7.78,30,15.56,60h0c-.13,0-11.65-3.53-23-7.87-8.31-3.18-12.47-4.77-13.8-6.06-2.13-2.05-6.09-6.94-7.17-30.79A232.51,232.51,0,0,1,1159.72,539.55Z"/>
          <path class="cls-41" d="M1184.2,553.25s.88-5.79,20.88-1.28,32.3,8,32.3,8l39.26,7.88q-2.37,24.55-4.75,49.1-11.66,0-23.94-.43c-15.66-.58-30.59-1.73-44.75-3.29Q1193.71,583.26,1184.2,553.25Z"/>
          <path class="cls-60" d="M1276.64,567.89l21.86-12.58-8.4,37.15-4.25,9.87q-7,7.33-14,14.66Q1274.28,592.43,1276.64,567.89Z"/>
          <path class="cls-38" d="M1160.48,540.39c8.82-5.78,25.21-14.57,46.62-14.91a81.27,81.27,0,0,1,19.28,2c-2.61.08-5.81.29-5.85.86s2.57,1.22,3.47,1.35c8.5,1.21,32.09.9,40.33,3.9s34.17,21.71,34.17,21.71l-21.86,12.58c-10.57-1.44-21.91-3.42-33.88-6.13-10.66-2.41-20.63-5.13-29.87-8-15.65-1.39-27.1-2.17-27.46-2-.8.28-.75.31-1.21.47C1179.73,553.72,1172.55,552.22,1160.48,540.39Z"/>
        </g>
        <g>
          <path class="cls-61" d="M414.76,437.55l30,13.8,16.77,60h0c-.14,0-12.51-3.54-24.72-7.91-8.92-3.19-13.39-4.78-14.81-6.06-2.29-2.07-6.55-7-7.74-30.81A216.48,216.48,0,0,1,414.76,437.55Z"/>
          <path class="cls-41" d="M441,451.28s.94-5.78,22.41-1.25,34.66,8.08,34.66,8.08L540.23,466q-2.51,24.56-5,49.1-12.51,0-25.68-.46c-16.8-.6-32.83-1.78-48-3.35Q451.27,481.3,441,451.28Z"/>
          <path class="cls-33" d="M540.23,466l23.44-12.55-9,37.14-4.55,9.86-15,14.65Q537.72,490.6,540.23,466Z"/>
          <path class="cls-38" d="M415.57,438.39c9.45-5.77,27-14.53,50-14.85a94.48,94.48,0,0,1,20.69,2c-2.81.08-6.23.29-6.28.86s2.75,1.23,3.73,1.36c9.11,1.22,34.42.94,43.27,3.95s36.69,21.75,36.69,21.75L540.23,466c-11.34-1.45-23.51-3.44-36.36-6.17-11.43-2.42-22.13-5.15-32.05-8-16.8-1.41-29.08-2.21-29.47-2.08-.86.28-.81.31-1.3.47C436.24,451.75,428.53,450.24,415.57,438.39Z"/>
        </g>
        <g>
          <path class="cls-33" d="M1389.76,523.55l30,13.8,16.77,60h0c-.14,0-12.51-3.54-24.72-7.91-8.92-3.19-13.39-4.78-14.81-6.06-2.29-2.07-6.55-7-7.74-30.81A216.48,216.48,0,0,1,1389.76,523.55Z"/>
          <path class="cls-41" d="M1416,537.28s.94-5.78,22.41-1.25,34.66,8.08,34.66,8.08l42.13,7.93q-2.51,24.56-5,49.1-12.51,0-25.68-.46c-16.8-.6-32.83-1.78-48-3.35Q1426.27,567.3,1416,537.28Z"/>
          <path class="cls-62" d="M1515.23,552l23.44-12.55-9,37.14-4.55,9.86-15,14.65Q1512.72,576.6,1515.23,552Z"/>
          <path class="cls-38" d="M1390.57,524.39c9.45-5.77,27-14.53,50-14.85a94.48,94.48,0,0,1,20.69,2c-2.81.08-6.23.29-6.28.86s2.75,1.23,3.73,1.36c9.11,1.22,34.42.94,43.27,4s36.69,21.75,36.69,21.75L1515.23,552c-11.34-1.45-23.51-3.44-36.36-6.17-11.43-2.42-22.13-5.15-32-8-16.8-1.41-29.08-2.21-29.47-2.08-.86.28-.81.31-1.3.47C1411.24,537.75,1403.53,536.24,1390.57,524.39Z"/>
        </g>
        <g>
          <path class="cls-33" d="M1362.76,440.55l30,13.8,16.77,60h0c-.14,0-12.51-3.54-24.72-7.91-8.92-3.19-13.39-4.78-14.81-6.06-2.29-2.07-6.55-7-7.74-30.81A216.48,216.48,0,0,1,1362.76,440.55Z"/>
          <path class="cls-41" d="M1389,454.28s.94-5.78,22.41-1.25,34.66,8.08,34.66,8.08l42.13,7.93q-2.51,24.56-5,49.1-12.51,0-25.68-.46c-16.8-.6-32.83-1.78-48-3.35Q1399.27,484.3,1389,454.28Z"/>
          <path class="cls-62" d="M1488.23,469l23.44-12.55-9,37.14-4.55,9.86-15,14.65Q1485.72,493.6,1488.23,469Z"/>
          <path class="cls-38" d="M1363.57,441.39c9.45-5.77,27-14.53,50-14.85a94.48,94.48,0,0,1,20.69,2c-2.81.08-6.23.29-6.28.86s2.75,1.23,3.73,1.36c9.11,1.22,34.42.94,43.27,3.95s36.69,21.75,36.69,21.75L1488.23,469c-11.34-1.45-23.51-3.44-36.36-6.17-11.43-2.42-22.13-5.15-32-8-16.8-1.41-29.08-2.21-29.47-2.08-.86.28-.81.31-1.3.47C1384.24,454.75,1376.53,453.24,1363.57,441.39Z"/>
        </g>
        <polygon class="cls-58" points="995.94 206.2 1057.31 184.8 1196.69 220.43 1131.29 228.14 1095.13 254.5 1086.72 239.34 1041.5 213.06 1011.14 221.48 995.94 206.2"/>
        <g>
          <path class="cls-33" d="M374.92,501.89a7,7,0,0,1,2.16,1c2.54,1.78,1.81,5.12,3.29,6.74,4.92,5.38,9.69,7.38,18.92,13.31,2.12,1.36,3.8,2.5,4.73,3.13.12,8.46.29,15.5.43,20.61.18,6.37,1.06,29.76,1.06,29.76l-28.58-8.9q-3.07-6.93-6.14-13.84.93-14.3,2.12-29Q373.84,513.2,374.92,501.89Z"/>
          <polygon class="cls-63" points="377.04 561.43 375.62 551.49 392.52 527.79 377.04 561.43"/>
          <path class="cls-41" d="M404,526.83c3.4-.23,6.86-.43,10.39-.58,7.45-.32,14.64-.43,21.57-.37l29.53.53,19.46-2.7q5.46,22.21,10.93,44.44l-.27,14.48c-4.73.26-11.64.65-20,1.17-18,1.12-26.95,1.68-37.57,2.75-8,.81-19.28,2.13-32.82,4.37"/>
          <path class="cls-38" d="M387.33,497.27s-9.62.73-10.78,5.08c-.55,2.06,1,4.14,2.29,5.62,6.75,7.89,18.69,15.18,25.17,18.86l5.59.1,19.17-.42,36.71.66,19.23-3.47,17.72-8.83-4.77-.85-53.89-22.33-14.3-4.07s-5.38-2.38-14.69-.26S387.33,497.27,387.33,497.27Z"/>
          <path class="cls-33" d="M484.71,523.7l17.72-8.83L498.5,556q-1.81,12.32-3.64,24.63-.69-5.5-1.4-11Z"/>
          <path class="cls-64" d="M375.76,566l29.49,24.93q.12-8,.23-16Z"/>
        </g>
        <polygon class="cls-65" points="617.09 303.89 616.54 316.06 598.22 320.33 617.09 303.89"/>
        <polygon class="cls-34" points="814.15 302.44 907.63 336.13 918.57 348.83 915.72 327.07 827.18 298.67 814.15 302.44"/>
        <path class="cls-34" d="M771,363.21s43.83-25.75,49.71-28.65,52.55-10.8,52.55-10.8l-59.15-21.32Z"/>
        <path class="cls-34" d="M814.06,307.44l-47,55.69-40.4-36.32S807.47,308.24,814.06,307.44Z"/>
        <polygon class="cls-41" points="530.49 518.65 518.47 534.56 516.55 558.47 529.22 532.7 530.49 518.65"/>
        <polygon class="cls-63" points="577.14 508.01 603.67 521.48 597.82 541.51 599.28 520.64 577.14 508.01"/>
        <path class="cls-34" d="M562.52,505.62s-33.17,5.44-37.23,8.51S510.05,527,510.05,527s14.35-11.45,17.29-12S562.52,505.62,562.52,505.62Z"/>
        <polygon class="cls-41" points="704.45 411.77 690.59 439.24 667.45 438.82 685.78 434.65 704.45 411.77"/>
        <polygon class="cls-53" points="674.28 293.92 688.28 296.17 700.66 305.39 706.67 288.14 696.27 294.31 674.28 293.92"/>
        <polygon class="cls-39" points="833.16 190.76 790.72 214.72 779.37 186.57 833.16 190.76"/>
        <polygon class="cls-65" points="790.32 237 756.82 208.96 782.32 237.25 790.32 237"/>
        <polygon class="cls-66" points="1040.18 342.02 1062.89 318.93 1042.6 347.87 1040.18 342.02"/>
        <polygon class="cls-66" points="1043.14 448.81 1072.1 418.11 1041.01 441.62 1043.14 448.81"/>
        <polygon class="cls-64" points="974.81 322.52 975.19 301.34 983.85 332.57 974.81 322.52"/>
        <polygon class="cls-67" points="1055.13 557.04 1050.31 573.13 1045.29 553.05 1036.47 548.05 1054.13 553.14 1073.45 556.61 1055.13 557.04"/>
        <polygon class="cls-67" points="1100.82 545.05 1126.89 553.76 1130.01 570.98 1130.36 551.95 1100.82 545.05"/>
        <polygon class="cls-67" points="1215.37 539.59 1187.35 551.76 1193.68 575.71 1193.9 553.42 1215.37 539.59"/>
        <polygon class="cls-35" points="1258.15 545.84 1285.23 568.04 1282.25 597.14 1278.86 567.18 1258.15 545.84"/>
        <polygon class="cls-41" points="1142.59 447.38 1102.77 499.39 1117.04 429.89 1142.59 447.38"/>
        <polygon class="cls-58" points="1142.59 447.38 1228.16 471.93 1214.32 439.67 1142.59 447.38"/>
        <polygon class="cls-38" points="1263.09 460.03 1261.15 472.52 1285.47 502.68 1312.91 478.46 1282.57 449.9 1263.09 460.03"/>
        <polygon class="cls-65" points="854.21 297.16 879.35 275.61 866.59 297.17 854.21 297.16"/>
        <path class="cls-68" d="M597.47,361.55l93.33,34.59-37.31,38.57-9.87,42.82-80.36-17.44S581.62,377.26,597.47,361.55Z"/>
        <polygon class="cls-34" points="1078.41 281.18 1115.34 291.92 1119.94 306.99 1125.94 292.24 1078.41 281.18"/>
        <polygon class="cls-34" points="1127.99 506.29 1152.17 478.52 1132.52 506.37 1132.2 524.08 1127.99 506.29"/>
        <polygon class="cls-34" points="1166.61 299.93 1169.56 353.35 1156.92 357.86 1166.61 299.93"/>
        <polygon class="cls-53" points="995.94 206.2 1011.14 221.48 989.74 224.51 995.94 206.2"/>
        <path class="cls-46" d="M1087.8,521.78s-35.1.74-29,11.48,24.48,11.48,24.48,11.48-21.86-8.07-19.51-11.39S1077.44,518,1087.8,521.78Z"/>
        <polygon class="cls-53" points="1053.07 245.54 1044.33 234.72 1067.64 245.8 1063.05 253.92 1053.07 245.54"/>
        <polygon class="cls-33" points="643.62 477.53 601.02 502.76 629.1 506.87 639.85 509.96 640.7 520.64 652.45 520.56 643.62 477.53"/>
        <polygon class="cls-38" points="643.62 477.53 601.02 502.76 567.07 491.91 561.34 496.53 563.26 460.09 643.62 477.53"/>
        <polygon class="cls-38" points="595.55 468.49 618.95 406.69 653.49 434.71 643.62 477.53 595.55 468.49"/>
        <polygon class="cls-38" points="618.95 406.69 650.14 368.42 690.8 396.14 653.49 434.71 618.95 406.69"/>
        <g>
          <path class="cls-69" d="M525.8,534.72l2.07,40.48,28.18,19.27c-21.6-5.57-30.61-15.84-34.51-21.72-1.53-2.31-3.07-5.14-8.58-19.64-4.82-12.69-8.45-23.17-10.82-30.23Z"/>
          <path class="cls-41" d="M525.8,534.72l48.54-8.92c8.65-2,16.11-3.46,22-4.47,7.84-1.34,12.33-1.83,17.89-1.3a52.62,52.62,0,0,1,9.45,1.79c-2.84,10-5.56,20.67-8.07,31.82q-3.35,14.91-5.76,28.82l-53.79,12L527.87,575.2S520.3,542.79,525.8,534.72Z"/>
          <path class="cls-62" d="M623.07,521s30-6.76,36.72-11.51A228.8,228.8,0,0,1,661,534.67c-.07,9.32-.73,9.23-.26,14.61.51,5.85,1.54,8.81-.26,11.87-1.68,2.84-4.61,3.74-8.16,5a157.11,157.11,0,0,0-19.2,8.49l-24.1,7q3.23-16.18,7.19-33.15Q619.54,534.4,623.07,521Z"/>
          <path class="cls-38" d="M502.06,522.77s24.78-19,36.18-20.8,39-1.77,43.1-5.1l5.73-4.62s18.51,11.39,33.95,10.86,38.83,7.19,38.83,7.19-27.55,14.11-36.18,11.52-12.26-3.41-36.91,1.8-61.29,11-61.29,11Z"/>
        </g>
        <path class="cls-38" d="M583.8,385.3,619,406.69l-23.4,61.8-32.29-8.4S566.82,394,583.8,385.3Z"/>
        <path class="cls-41" d="M583.8,385.3,619,406.69l31.19-38.27.14-7.33-24.22,5.15-28.59-4.69S586.15,375.34,583.8,385.3Z"/>
        <path class="cls-38" d="M703.88,316.46l-53.6,44.63-.14,7.33,40.66,27.72s13.89-29.95,16.69-38.26,15.18-30.49,26.75-34.08S703.88,316.46,703.88,316.46Z"/>
        <path class="cls-70" d="M755.32,292.52l7.83,22.39-28.91,8.89a266.23,266.23,0,0,0-30.36-7.34l23.48-26.59Z"/>
        <polygon class="cls-71" points="685.17 392.29 679.83 374.03 690.87 392.4 690.8 396.14 691.97 413.97 688.52 399.27 685.17 392.29"/>
        <path class="cls-34" d="M601,502.76s-5.6-27.16,3.78-32.53,16-14.3,16.4-21.77c0,0,6.15,7.64-13.17,25.29C602.92,479.66,600.93,480.89,601,502.76Z"/>
        <polygon class="cls-72" points="808.97 450.69 744.83 426.36 806.82 459.18 808.97 450.69"/>
        <path class="cls-73" d="M835.43,508.86l-.12,8.85v0h0l-27.69,12.74.08-.12-.71,43v.22l-.21,0a51.23,51.23,0,0,1-19.1-6.73A46.33,46.33,0,0,1,772.87,553a48.08,48.08,0,0,1-4.75-9c-1.26-3.15-2.3-6.38-3.26-9.64-1.88-6.51-3.32-13.14-4.64-19.77s-2.5-13.31-3.92-19.92-3-13.22-5.87-19.36a32.6,32.6,0,0,0-2.5-4.38,23.23,23.23,0,0,0-1.54-2,20,20,0,0,0-1.8-1.76c-2.61-2.13-5.36-4.12-8.1-6.09a177.56,177.56,0,0,0-17.17-10.82,178.93,178.93,0,0,1,17.26,10.69c2.77,1.95,5.52,3.91,8.17,6a16.18,16.18,0,0,1,1.83,1.78,23.6,23.6,0,0,1,1.56,2,32.12,32.12,0,0,1,2.54,4.41c2.87,6.17,4.48,12.81,5.94,19.41s2.64,13.28,4,19.91,2.8,13.24,4.69,19.73c1,3.24,2,6.46,3.26,9.58a48,48,0,0,0,4.73,8.9c7.5,11.26,20.22,18.56,33.5,20.47l-.21.19.83-43v-.09l.08,0,27.78-12.55,0,0Z"/>
        <path class="cls-74" d="M911.51,353.44c-10.64,2.61-21.3,5.11-32,7.59l-32,7.36a25,25,0,0,0-7.4,3.1,28.65,28.65,0,0,0-6.13,5.24c-3.63,4-6.31,8.83-9.08,13.54s-5.58,9.52-9.49,13.44a25.4,25.4,0,0,1-6.68,4.82,24.4,24.4,0,0,1-7.87,2.29,25.37,25.37,0,0,0,7.75-2.53,25,25,0,0,0,6.45-4.93c3.78-3.92,6.48-8.73,9.17-13.48s5.39-9.6,9.07-13.76a30.09,30.09,0,0,1,6.3-5.44,25.81,25.81,0,0,1,7.66-3.26q16.05-3.63,32.08-7.13C890.08,358,900.78,355.64,911.51,353.44Z"/>
        <polygon class="cls-72" points="805.94 508.01 781.86 512.14 805.94 517.18 805.94 508.01"/>
        <polygon class="cls-72" points="738.67 409.88 716.05 417.69 724.89 427.01 738.67 409.88"/>
        <polyline class="cls-72" points="707.51 447.54 724.38 454.95 720.57 444.78"/>
        <polygon class="cls-43" points="771.04 363.21 748.9 395.14 778.12 370.73 822.22 341.09 820.75 334.56 771.04 363.21"/>
        <polygon class="cls-75" points="670.56 500.28 690.6 491.96 690.45 500.64 670.56 500.28"/>
        <polygon class="cls-33" points="771.04 363.21 734.24 323.8 776.41 351 771.04 363.21"/>
        <polygon class="cls-72" points="842.27 406.93 859.54 429.44 869.14 424.02 842.27 406.93"/>
        <polygon class="cls-72" points="835.43 508.86 807.54 530.36 835.27 517.71 835.43 508.86"/>
        <polygon class="cls-63" points="976.1 401.62 1000.95 398.68 976.05 404.2 976.1 401.62"/>
        <polygon class="cls-63" points="1004.99 455.55 1024.42 455.54 1009.38 463.74 1004.99 455.55"/>
        <polygon class="cls-63" points="942.48 362.28 968.01 352.94 945.18 366.34 942.48 362.28"/>
        <polygon class="cls-63" points="1008.3 523.72 1027.67 520.25 1011.79 528.97 1008.3 523.72"/>
        <polygon class="cls-66" points="1025.8 379.27 1034.07 338.41 1040.18 342.02 1042.6 347.87 1025.8 379.27"/>
        <polygon class="cls-35" points="905.81 306.18 907.83 324.96 915.72 327.07 905.81 306.18"/>
        <path class="cls-76" d="M1286.13,426s5.34-20-11.53-30.28-21.89-9.76-21.89-9.76,28.55,4.17,34.55,15.13,5.59,25,2.13,26.9S1286.13,426,1286.13,426Z"/>
        <path class="cls-76" d="M1156.54,379s1.2-20.32,13-25.6c0,0-13,23.27-7.45,28.37Z"/>
        <path class="cls-34" d="M1095.13,254.5s71.17,26.57,71.48,45.43l-8.61-2.29S1141.88,272.34,1095.13,254.5Z"/>
        <polygon class="cls-34" points="1131.29 228.14 1057.31 184.8 1127.05 231.07 1131.29 228.14"/>
        <polygon class="cls-45" points="724.38 454.95 737.65 466.44 731.39 481.98 723.3 514.76 706.31 514.46 720.71 480.45 724.38 454.95"/>
        <polygon class="cls-38" points="1117.04 429.89 1142.59 447.38 1099.24 410.6 1117.04 429.89"/>
        <polygon class="cls-34" points="736.85 290.05 757.14 297.73 772.44 285.9 755.32 292.52 736.85 290.05"/>
        <polygon class="cls-71" points="638.46 424.44 651.86 441.75 661.6 426.32 653.49 434.71 638.46 424.44"/>
        <polygon class="cls-72" points="820.75 334.56 817.58 314.04 824.84 333.23 820.75 334.56"/>
        <polygon class="cls-65" points="810.85 235.87 827.16 204.66 822.89 230.73 810.85 235.87"/>
        <path class="cls-63" d="M700.54,560.59s20.79,1.24,27.58,10.23-6.14,9.1-6.14,9.1l-19.06-5.17Z"/>
        <path class="cls-46" d="M1014.7,583.2s-46.6,11.29-26.2,12.45,26.2-1.6,26.2-1.6C1014.9,586.82,1014.51,583.59,1014.7,583.2Z"/>
        <path class="cls-46" d="M1004,596.87s3.56-12.58,13.75-6.82,12.2,10.65,5.2,12.21S1004,596.87,1004,596.87Z"/>
        <path class="cls-77" d="M1011.3,588.57s7.9-11.84,12.25-1.79l4.35,10Z"/>
        <ellipse class="cls-78" cx="746.4" cy="578.82" rx="12.5" ry="4"/>
        <ellipse class="cls-78" cx="693.9" cy="576.82" rx="14" ry="4"/>
        <polygon class="cls-34" points="564.14 446.74 562.51 474.26 566.09 461.8 574.58 462.55 566.09 458.95 564.14 446.74"/>
        <polygon class="cls-71" points="597.47 361.55 615.45 345.07 602.48 361.55 588.8 374.03 597.47 361.55"/>
        <path class="cls-34" d="M702.11,368.2c-3.29-4.7-15.76-22.05-21.53-23.13,0,0,9.93,4.08,12.62,7.41S702.63,369,702.11,368.2Z"/>
        <polygon class="cls-79" points="993.75 388.69 1004.7 407.78 1002.43 399.67 1008.54 392.92 1001.15 396.46 993.75 388.69"/>
        <polygon class="cls-63" points="702.11 368.2 716.59 387.7 771.04 363.21 719.75 383.89 702.11 368.2"/>
        <polygon class="cls-53" points="907.41 200.93 939.65 208.1 937.4 219.9 950.89 206.89 981.07 190.76 944.24 204.49 907.41 200.93"/>
        <polygon class="cls-80" points="1149.29 515.74 1169.38 525.53 1170.48 532.04 1172.62 521.05 1183.25 510.83 1169.38 521.43 1149.29 515.74"/>
        <polygon class="cls-38" points="1072.18 305.95 1115.34 291.92 1136.11 365.29 1110.05 365.78 1072.18 305.95"/>
        <polygon class="cls-34" points="1014.49 285.05 1029.19 266.96 1040.75 301.6 1031.77 300.36 1014.49 285.05"/>
        <polygon class="cls-38" points="1029.19 266.96 1040.75 301.6 1072.18 305.95 1115.34 291.92 1029.19 266.96"/>
        <polygon class="cls-34" points="839.95 249.9 831.7 271.75 827.4 288.68 879.35 275.61 885.62 276.72 917.09 251.29 892.96 257.85 839.95 249.9"/>
        <polygon class="cls-81" points="833.37 234.78 839.95 249.9 892.96 257.85 917.09 251.29 942.01 238.97 909.36 236.15 833.37 234.78"/>
        <polygon class="cls-33" points="936.31 242.54 944.24 258.87 905.59 260.58 936.31 242.54"/>
        <path class="cls-71" d="M703.88,316.46l-47.2,38.89-11.95,6.2s6.34-4.85,8.76-7.29S703.88,316.46,703.88,316.46Z"/>
        <polygon class="cls-39" points="1417.48 361.09 1578.31 303.89 1472.2 273.31 1350.97 306.99 1417.48 361.09"/>
        <polygon class="cls-38" points="1417.48 361.09 1413.57 426.54 1434.26 428.57 1474.98 434.74 1511.67 456.49 1498.16 503.49 1501.98 517.74 1538.67 539.49 1653.29 541.05 1578.31 303.89 1417.48 361.09"/>
        <polygon class="cls-82" points="1578.31 303.89 1616.73 273.6 1653.29 294.08 1613.34 313.69 1681.57 545.84 1653.29 541.05 1578.31 303.89"/>
        <polyline class="cls-38" points="1616.73 273.6 1760 219.65 1607 231.07 1582.99 292.01 1578.31 303.89 1472.2 273.31 1594.14 231.07"/>
        <polygon class="cls-34" points="1501.98 517.74 1550.43 435.65 1626.07 454.95 1653.29 541.05 1538.67 539.49 1501.98 517.74"/>
        <path class="cls-76" d="M1417.48,414c11.52-2,80-29.63,80-29.63s53.43,51,53,51.31S1502,517.74,1502,517.74l9.69-61.25-98.1-29.95Z"/>
        <polygon class="cls-38" points="1259.49 231.95 1370.54 268.11 1396.58 294.31 1350.97 306.99 1273.62 281.18 1270.4 294.72 1259.49 231.95"/>
        <polygon class="cls-38" points="388.47 298.67 440.68 260.58 516.55 257.85 488.11 312.11 370.56 303.85 388.47 298.67"/>
        <polygon class="cls-34" points="516.55 257.85 549.43 278.09 488.11 312.11 516.55 257.85"/>
        <polygon class="cls-83" points="322.57 420.23 415.57 438.39 377.86 361.09 322.57 420.23"/>
        <polygon class="cls-37" points="1315.35 343.48 1417.48 361.09 1350.97 306.99 1273.62 281.18 1253.54 276.43 1315.35 343.48"/>
        <polygon class="cls-34" points="1315.35 343.48 1314.68 380.4 1370.54 420.23 1378.03 443.38 1405.45 427.01 1413.57 426.54 1417.48 361.09 1315.35 343.48"/>
        <polygon class="cls-33" points="552.52 519.61 525.47 534.66 523.52 556.82 516.55 530.09 552.52 519.61"/>
        <polygon class="cls-33" points="591.11 509.49 623.67 521.82 616.24 548.48 609.5 520.25 591.11 509.49"/>
        <polygon class="cls-33" points="424.46 505.62 424.46 527.8 428.32 565.99 429.82 526.53 424.46 505.62"/>
        <polygon class="cls-33" points="447.63 510.83 480.58 521.7 486.78 523.74 486.78 556.82 473.89 525.53 447.63 510.83"/>
        <polygon class="cls-38" points="965.26 401.57 993.75 362.05 974.81 322.52 907.63 336.13 958.94 398.68 1008.54 392.92 1034.07 338.41 1042.6 347.87 1072.1 418.11 1043.14 448.81 1014.7 401.44 965.26 401.57"/>
        <polygon class="cls-41" points="1041.53 445.56 1072.1 418.11 1087.8 521.78 1067.64 515.14 1029.19 530.36 1048.21 514.33 1046.64 498.17 1041.53 445.56"/>
        <path class="cls-84" d="M961.5,403.7l26,51.54,23.13-.42-19,10.34L987.49,508l20,8.32-19.89.36-59.83,71.69,97.82-51.77,8.83-43s4-34.89-15.29-51.71-31.89-29.68-31.89-29.68l-12.12-26.77Z"/>
        <polygon class="cls-38" points="1070.15 417.69 1038.95 379.42 998.29 407.14 1035.61 445.71 1070.15 417.69"/>
        <path class="cls-38" d="M985.22,327.46l53.6,44.63.13,7.33-40.66,27.72s-13.89-29.95-16.68-38.26-15.18-30.49-26.76-34.08S985.22,327.46,985.22,327.46Z"/>
        <polygon class="cls-34" points="907.63 336.13 958.94 398.68 988.5 374.03 939.63 321.13 915.72 327.07 907.63 336.13"/>
        <polygon class="cls-35" points="948.06 387.7 988.5 374.03 961.5 403.7 948.06 387.7"/>
        <polygon class="cls-35" points="894.67 334.56 907.83 324.96 915.72 327.07 907.63 336.13 894.67 334.56"/>
        <path class="cls-41" d="M1388.75,532s-25.68-31.54-60.71-39.79L1293,484s63.33,20.56,83.17,46.78C1388.83,532.22,1388.75,532,1388.75,532Z"/>
        <path class="cls-76" d="M1348.21,441.75s-47.41-21.19-32.31-34c0,0,20.44,30,39.27,35.6"/>
        <path class="cls-85" d="M178.87,500.64s2.61-1.17,35.87-26.41,49.12-33.15,48.69-54.69,57.3-62,67.44-63.77"/>
        <path class="cls-86" d="M237.71,482.85s36.22,13.26,45-21.05,7.93-59.62,39.86-77.46,55.29-23.25,55.29-23.25"/>
        <path class="cls-87" d="M455.81,325S380.5,314.21,356,328.85a86.55,86.55,0,0,1-18.15,7.62c-28.44,8.93-68.37,12.36-68.37,12.36s62.32-1.2,93.17-14.27S455.81,325,455.81,325Z"/>
        <path class="cls-87" d="M435.71,361.09s-5.77-9.09,28.76-17.59,84.91-18.28,84.91-18.28-115.27,24.6-105.83,34.69C436.45,361.09,435.71,361.09,435.71,361.09Z"/>
        <path class="cls-87" d="M461,425.43s-7.56-17.16,23.73-29.29,58-16.55,64.67-39.84,0-31.08,0-31.08,23.3,19.37,12,31.08-17.36,30.3-30.85,29-62.07,20.92-63.28,32.81S461,425.43,461,425.43Z"/>
        <polygon class="cls-33" points="483.11 454.95 495.89 432.55 490.63 456.86 492.36 499.08 483.11 454.95"/>
        <polygon class="cls-88" points="617.09 303.89 613.22 247.89 622.13 285.9 630.82 273.31 635.29 284.28 667.45 266.53 617.09 303.89"/>
        <polygon class="cls-87" points="693.9 217.5 715.31 234.72 771.04 226.11 719.33 231.07 693.9 217.5"/>
        <path class="cls-87" d="M1570.39,439.24s-30.06-14.87-31.72-32.55,8.66-11.26,0-35.47-39-39.13-35.31-40.68,23.5-4.54,30.07,8.46,27.43,41.39,17,48.7-11.57,13.84,0,24.07,47.55,36,47.55,36l-33.51-8.55"/>
        <path class="cls-87" d="M1577.63,371.3c-7.63,14.7-7.24,35.39-7.24,35.39,22.61,9.31,45.71,45.72,45.71,45.72-1.1,12.59,10,2.54,10,2.54s13.13-6.64-10-19.3-42.49-14.24-37.79-31.45,4.3-34.11,0-42.65-15-22.55-15-22.55Z"/>
        <path class="cls-87" d="M1343.94,343.48s4.15,12.47,47.61,2.5,41.09-9.9,62.77-31.94,84.35-8.64,84.35-8.64S1502,298,1482,307s-35.07,36.15-58.54,38.08S1364.88,364,1343.94,343.48Z"/>
        <path class="cls-34" d="M1409.5,435.65c4.5.35,35.14,7.43,44.82,15.39s10.3,15.66,10.3,15.66-25.55,20.83-16.08,36.06-9.4-15.71-9.47-15.23a81.87,81.87,0,0,1,9.47-13.3c6.46-7.23,10.46-19.62-12-25.42S1409.5,435.65,1409.5,435.65Z"/>
        <path class="cls-33" d="M1472.2,529c2.8,0,52.23,12.54,52.23,12.54s.89,45.48.73,45-3.28-38-3.28-38Z"/>
        <path class="cls-89" d="M1284.44,242.54,1334.05,302l-25.38-44.24,35.27,1.11S1284.89,242.08,1284.44,242.54Z"/>
        <polygon class="cls-38" points="1117.04 429.89 1137.53 387.7 1207.74 439.56 1142.59 447.38 1117.04 429.89"/>
        <path class="cls-87" d="M288.84,340.21s-83.55-.48-98.7-17.84-11.27-27.65-11.27-27.65,6.84,24.79,42.49,24S288.84,340.21,288.84,340.21Z"/>
        <path class="cls-53" d="M1370.54,420.23s-19.6-22.72-8.57-44.47a22.9,22.9,0,0,1,8.59-9.06c16.82-10.41,46.92-5.61,46.92-5.61s-35.15,11.18-41.31,35.05,12.58,42.25,12.58,42.25Z"/>
        <path class="cls-90" d="M768.56,586.63s-101.33,4.55-83.45,27-120.05,50-40.58,65.7,70.54-9.36,125,17.18-57.37-18.54,59,0,0,50.1,0,50.1,62.85,27.57,139.64,0,265.31-17.64,213.55-50.1-85.88-12-125.32-34.76S968.07,634,1001,622s52.06-25.45,5.51-30.22-47.9,9.89-95.73,1.55S860.25,564,825.13,571s-83.23,12.83-83.23,12.83"/>
      </g>
      <g>
        <path class="cls-33" d="M1029,532a6.47,6.47,0,0,1,2.07,1c2.43,1.78,1.72,5.13,3.13,6.74,4.7,5.38,9.25,7.37,18.07,13.29,2,1.37,3.63,2.5,4.52,3.14.1,8.45.26,15.49.39,20.6.17,6.37,1,29.76,1,29.76l-27.3-8.88L1025,583.84q.9-14.31,2-29Q1028,543.34,1029,532Z"/>
        <polygon class="cls-63" points="1031 591.57 1029.65 581.63 1045.82 557.92 1031 591.57"/>
        <path class="cls-41" d="M1056.79,557c3.25-.23,6.56-.43,9.93-.58,7.12-.33,14-.45,20.6-.4l28.22.51,18.59-2.71q5.2,22.22,10.4,44.42l-.26,14.49c-4.52.26-11.12.66-19.09,1.18-17.17,1.14-25.75,1.71-35.9,2.78-7.68.82-18.42,2.15-31.35,4.4"/>
        <path class="cls-38" d="M1040.88,527.41s-9.18.74-10.3,5.08c-.53,2.07,1,4.14,2.19,5.62,6.44,7.89,17.84,15.16,24,18.84l5.34.1,18.32-.44,35.07.63,18.37-3.48,16.94-8.85-4.56-.84-51.47-22.29-13.65-4.06s-5.14-2.38-14-.25S1040.88,527.41,1040.88,527.41Z"/>
        <path class="cls-80" d="M1133.89,553.76l16.94-8.85q-1.89,20.57-3.79,41.12-1.76,12.33-3.5,24.64l-1.32-11Z"/>
        <path class="cls-33" d="M1029.77,596.14l28.16,24.9q.12-8,.23-16Z"/>
      </g>
      <path class="cls-91" d="M288.32,477.93s29.9-29.28,46.37,0c23.19-16.47,65.9-1.22,60.41,59.19,17.08-9.76,43.32-9.18,39,7.92,18.3-11,34.78,11.6,27.46,22,32.94-9.16,54.91,6.71,43.32,22,24.4-6.1,39.65,7,28.67,16.34-26.23,1.36-236.9,0-236.9,0Z"/>
      <g>
        <path class="cls-92" d="M145.39,206.6s41.28,26.9,40.49,66c-.14,6.87.39,27.88-13.55,37.05-9.7,6.39-21.44,3.85-23.22,3.44C127.22,308,114.17,281,101.4,254.61,91,233,86.16,216.12,73.75,214.25c-1.49-.22-6.31-.95-9.29,1.89-9.24,8.81,6.72,45.14,24.63,70.8,14,20.13,26.25,29.32,23.09,41.55-2.46,9.51-12.52,14.34-13.48,14.78-8,3.73-17,2.51-29.62-2.47A146,146,0,0,1,21,309.23c-31.35-32.4-56.43-67-71.94-90L-61.74,230l20,33.86c-2.54-4.22-14.25-22.68-36.94-27.7a54.21,54.21,0,0,0-23.09,0c11.8,4.52,28.83,12.95,43.1,29.24,15.58,17.79,16.31,31.75,32.32,56.95C-14.42,341.1-.11,356.52,10.6,365.43c37.2,31,87.25,30.16,112.35,27.7,10.47,1.28,24.47,4.84,35.4,15.4,4.68,4.51,22.2,23.38,11,98.62,0,0-6.28,42-38.56,136l172.39.82c21,7.44,60.11,19.19,71.33,4.39,5.64-7.44,2.14-18.81.56-24-19.41-63.56-34-112.17-40-152-3.77-25.36-4-47.13.3-66.92,1.48-6.82,12.81-55.87,47.71-69.26,19.25-7.39,28.08,2.85,55.41,0,53.15-5.55,87.87-51.41,90.8-55.41C556.33,244,564.12,191,564.12,191l-22.93,3.34c-1.06,9.29-7.46,58.28-44.24,77.2-4.36,2.25-24.46,12.59-36.77,4.18-17.31-11.83-6.69-52-4.75-55.74,7.41-14.38,24.7-41.79,24.7-41.79l-57.05,7.16c2.69,34.71-9.5,65.23-32.79,78-3.1,1.7-20.87,11.43-35,4.17-17.08-8.78-24.36-40.12-11-76.5l-21-7.66S310.4,305,291.14,317.51c-33.35,21.66-58-52.06-49.4-126.51H217s16.06,81.41-3.7,52.33c-7.07-10.4-19.87-22.93-39.53-36.73"/>
        <path class="cls-93" d="M332.86,481.68c-11.35-4.8-36.92,26-51.05,51-10.28,18.22-25.05,52.1-23.79,103.06L259.49,649l117.89-14.16c-10.87-35.11-18-60.93-22.7-78.57-4.31-16.27-10.24-32.13-13.68-48.6C337.32,490,337.34,483.58,332.86,481.68Z"/>
        <path class="cls-94" d="M321.24,592.39a9.44,9.44,0,0,1-3,0,18.52,18.52,0,0,1-2.94-.71,25,25,0,0,1-5.47-2.62,19,19,0,0,1-4.65-4,10.27,10.27,0,0,1-1.62-2.74,6.07,6.07,0,0,1-.33-3.31,6.49,6.49,0,0,1,1.49-3,11.45,11.45,0,0,1,1.15-1.16,12.85,12.85,0,0,1,1.29-.94,20.53,20.53,0,0,1,2.76-1.5l1.43-.6,1.54-.47a16.58,16.58,0,0,1,6.35-.27,24.47,24.47,0,0,1,6,1.74,35,35,0,0,1,10.3,6.85,37,37,0,0,1,7.51,9.88,25.14,25.14,0,0,1,2.11,6,17.73,17.73,0,0,1,.18,6.5,15.06,15.06,0,0,1-2.55,6.09,17.84,17.84,0,0,1-4.74,4.44A34.38,34.38,0,0,1,326.41,617a53.41,53.41,0,0,1-12.24,1.21A40.57,40.57,0,0,1,302,616a32.16,32.16,0,0,1-10.75-6.17,29.46,29.46,0,0,1-7.32-10,30.58,30.58,0,0,1-2.55-12,38.56,38.56,0,0,1,7.7-22.59,45.22,45.22,0,0,0-4.86,10.87,34.82,34.82,0,0,0-1.37,11.67,29.07,29.07,0,0,0,2.86,11.21,27.85,27.85,0,0,0,7.07,9,31.23,31.23,0,0,0,10.06,5.46,37.46,37.46,0,0,0,11.39,1.79,52,52,0,0,0,11.58-1.24A31.6,31.6,0,0,0,336.41,610a14.76,14.76,0,0,0,4-3.67,11.88,11.88,0,0,0,2.07-4.86,14.77,14.77,0,0,0-.12-5.42,24.52,24.52,0,0,0-1.82-5.31,35.35,35.35,0,0,0-16.21-15.85,22.4,22.4,0,0,0-5.42-1.74,15.27,15.27,0,0,0-5.56,0l-1.34.35-1.36.51a18.39,18.39,0,0,0-2.56,1.25,6.84,6.84,0,0,0-3.42,4c-.45,1.67.32,3.53,1.41,5.07a18.67,18.67,0,0,0,4.2,4,25.09,25.09,0,0,0,5.18,2.84,17.64,17.64,0,0,0,2.83.92A9.5,9.5,0,0,0,321.24,592.39Z"/>
        <path class="cls-95" d="M367,31.75s41.82-20.94,107.54-20.63,139.32,46.53,119,75.95-32.72,46.33-123.79,46.07S275,87.9,367,31.75Z"/>
        <path class="cls-96" d="M350.49-118.37C525.82-65.81,543.24-3,539.66,25.83c0,0,.37,49.29-180.65,99.06h0S252.86,165.63,56.77,144.26C-2.73,137.77-100.89,112-114.46,54.47-124.45,12.13-83.61-31-68.84-46.59,51.51-173.67,291.5-130.39,350.49-118.37Z"/>
        <path class="cls-97" d="M329.55-136C519.92-80,539-13.63,535.23,16.72c0,0,.56,52-195.65,103.89h0s-115,42.62-327.8,19.44c-64.57-7-171.14-34.51-186-95.24-11-44.69,33.19-90,49.16-106.43C5-195.26,265.52-148.83,329.55-136Z"/>
        <path class="cls-98" d="M-223.31,187.1s-9.14-39.14,32.88-73.16c23.7-19.18,97.15-71.09,176.22-17.8C76.54,157.3,174.67,225.63,37.17,231.43S-209,238.63-223.31,187.1Z"/>
        <path class="cls-99" d="M-223.31,189.93s-9.14-39.15,32.88-73.16C-166.73,97.58-93.28,45.68-14.21,99c90.75,61.16,188.88,129.49,51.38,135.29S-209,241.46-223.31,189.93Z"/>
        <path class="cls-96" d="M656.73,47.24s-43.36,20.41-246,57.85L382.25-57.77c4.51-2.35,37.88-16.49,130.79-4.81C625.91-48.4,732.19,5.75,667.18,42"/>
        <path class="cls-100" d="M656.64,50.32s-43.35,20.41-246,57.85L382.17-54.68C386.68-57,420.05-71.17,513-59.5,625.82-45.32,732.11,8.83,667.09,45.11"/>
        <path class="cls-101" d="M57.29,207.29c23.44,3.28,27.38,2,118.68,1.94,19.42,0,102,0,268.06-5.26,69.84-2.19,175-18.14,203.67-31.33,9.56-4.4,28.62-15,29.3-43.88C678.55,62.84,620.86,24.9,602.68,6.43c-17-17.24-59.87-38.09-71.26-42.69-138.72-56-251.48-73.07-251.48-73.07-27-6.21-239.61-51.91-360.85,75.74-11.15,11.73-79.69,83.08-59.62,145C-117.42,182.81,9.85,200.64,57.29,207.29Z"/>
        <path class="cls-102" d="M53.51,213.51c23.44,3.28,27.39,2,118.68,1.94,19.42,0,102,0,268.06-5.26,69.84-2.19,175-18.14,203.67-31.33,9.56-4.4,28.62-15,29.3-43.88,1.56-65.92-56.14-103.86-74.32-122.33C581.94-4.59,539-25.44,527.64-30c-138.72-56-251.48-73.07-251.48-73.07-27-6.21-239.61-51.91-360.85,75.74-11.14,11.73-79.69,83.08-59.62,145C-121.2,189,6.07,206.86,53.51,213.51Z"/>
      </g>
      <path class="cls-103" d="M150,573c7.19-6.46,18-12.05,38.64,0,5.44-24.42,43-12.37,50.07,2.6,24.49-14.32,51.7,2.61,44.08,13,26.67-7.48,52.25,10.84,43,20.07,28.84-10,30.47,15.42,30.47,15.42,33.2-5.53,47.9,10.53,39.73,17.26,0,0,40.82-1.63,66.94,12.69l1.09,1L34.87,657.3s29.56-28.24,42.9-32.94c6.51-2.29,26,0,26,0s.66-17.11,5.36-22.21c4.29-4.65,21.45-6.13,21.45-6.13S144.38,578,150,573Z"/>
      <path class="cls-104" d="M1335.4,600s6.58-33.61,50.42-24.11c-2.93-26.3,37.26-28.47,50.41-18.25-2.92-28.51,34.34-17.18,41.65-5.68,13.15-19.18,48.22,6.39,33.61,22.47,31.42-16.81,44.57,13.88,44.57,13.88,25.57-14.61,48.22,11.69,48.22,11.69Z"/>
      <path class="cls-105" d="M1538.7,549s-27.76-30.51,18.27-35.71c-25.57-26.4,21.92-41.74,37.26-29.32-.73-27,54.8-23.38,67.22-.73,13.88-42.38,57-22.65,58.45-5.84,17.54-24.11,46.68,9.13,38,19.72,32.15-21.92,24.23,17.92,22,18.61,27.66-12,47.39,9.49,44.47,17.36,20.43-3,67.22,15.91,67.22,15.91Z"/>
      <path class="cls-106" d="M1279,618.71c-1.6,0-32.49,2-28.08-3.62s29.29-3.61,31.29-2-28.48-8-29.68-16.05,23.66,5.57,32.09,11c-25.27-24.65-26.08-30.26,4.81-7.4-19.25-28.08-23.26-34.9,10-2.4-21.66-42.93-1.2-1.57-10-21.65s3.21-24.49,14,14.83c0,0-.4,8.42,4.42-5.22s25.27-21.66,8,13.24c9.63-6.82,8.82-6.42,16.45-11.63s16.84,9.62-10.83,28.88C1299.85,616.7,1279,618.71,1279,618.71Z"/>
      <path class="cls-38" d="M475.53,646.74s8.17-40,57.7-41.56,52.08,35.63,29.61,41.56C529.65,647.55,475.53,646.74,475.53,646.74Z"/>
      <path class="cls-38" d="M573.15,640s4-11.3,22.88-13.85,35.23,15.71,19.91,20.62c-38.8,2.35-42.79.36-42.79.36S565.59,643.62,573.15,640Z"/>
      <g>
        <path class="cls-107" d="M1584.07,190.64s33.51,25.26,32.87,62c-.11,6.45.32,26.17-11,34.78-7.88,6-17.41,3.61-18.85,3.23-17.78-4.76-28.37-30.09-38.74-54.9-8.49-20.3-12.38-36.14-22.46-37.89-1.2-.21-5.12-.89-7.54,1.77-7.5,8.27,5.46,42.37,20,66.46,11.41,18.9,21.31,27.52,18.75,39-2,8.93-10.17,13.45-10.95,13.87-6.54,3.5-13.81,2.35-24.05-2.31C1499.5,306.31,1484.69,289,1483,287c-25.45-30.41-45.81-62.91-58.41-84.49l-8.75,10.11q8.13,15.9,16.25,31.79c-2.06-4-11.57-21.3-30-26a38.23,38.23,0,0,0-18.75,0,88.16,88.16,0,0,1,35,27.45c12.66,16.7,13.25,29.8,26.25,53.46,9.68,17.62,21.3,32.09,30,40.45,30.21,29.06,70.85,28.31,91.23,26,8.51,1.2,19.87,4.54,28.75,14.45,3.8,4.24,18,21.95,8.89,92.58,0,0-5.1,39.44-31.31,127.65l140,.77c17,7,48.81,18,57.92,4.12,4.57-7,1.74-17.66.45-22.53-15.75-59.67-27.64-105.3-32.45-142.66-3.07-23.8-3.26-44.25.24-62.82,1.21-6.41,10.4-52.45,38.74-65,15.63-6.93,22.81,2.68,45,0,43.16-5.21,71.35-48.26,73.74-52,22-34.55,28.29-84.28,28.29-84.28l-18.62,3.14c-.86,8.72-6,54.7-35.92,72.47-3.54,2.11-19.86,11.82-29.86,3.92-14.06-11.1-5.43-48.79-3.86-52.32,6-13.51,20.06-39.23,20.06-39.23l-46.33,6.72c2.19,32.58-7.71,61.23-26.62,73.2-2.52,1.59-17,10.72-28.41,3.91-13.88-8.24-19.79-37.66-9-71.81l-17-7.2s-10.43,114.22-26.07,126c-27.08,20.33-47.14-48.87-40.12-118.76h-20.06s13,76.42-3,49.13c-5.74-9.77-16.13-21.53-32.1-34.49"/>
        <path class="cls-93" d="M1736.29,448.87c-9.22-4.5-30,24.41-41.45,47.91-8.35,17.1-20.34,48.9-19.32,96.74l1.19,12.4,95.73-13.29c-8.82-33-14.65-57.2-18.44-73.76-3.49-15.28-8.31-30.16-11.1-45.63C1739.91,456.7,1739.92,450.65,1736.29,448.87Z"/>
        <path class="cls-94" d="M1726.86,552.8a6.66,6.66,0,0,1-2.63-.07,14.12,14.12,0,0,1-2.53-.75,20.42,20.42,0,0,1-4.59-2.66,15.66,15.66,0,0,1-3.7-3.91,7.51,7.51,0,0,1-1.27-5.45,6.89,6.89,0,0,1,1.23-2.66,10.27,10.27,0,0,1,2-2,15.87,15.87,0,0,1,5-2.48,12.53,12.53,0,0,1,5.65,0,19,19,0,0,1,5.16,2,29.89,29.89,0,0,1,8.34,6.94,32.5,32.5,0,0,1,5.67,9.27,21.06,21.06,0,0,1,1.46,11,15,15,0,0,1-5.92,9.62,26.33,26.33,0,0,1-10.11,4.35,37.26,37.26,0,0,1-10.8,1,28.67,28.67,0,0,1-10.57-2.74,25.75,25.75,0,0,1-8.56-6.78,28.51,28.51,0,0,1-5-9.57,33.61,33.61,0,0,1-1.34-10.62,40.14,40.14,0,0,1,6.4-19.91,48.34,48.34,0,0,0-3.74,9.71,36.8,36.8,0,0,0-1.19,10.21,32.47,32.47,0,0,0,1.74,10,27.1,27.1,0,0,0,5,8.67c8.77,10.47,25.78,10.27,36.43,3.34a12.46,12.46,0,0,0,3.2-3.4,12.74,12.74,0,0,0,1.65-4.32,16.57,16.57,0,0,0,0-4.77,22.11,22.11,0,0,0-1.25-4.74,29.88,29.88,0,0,0-5-8.61,29.41,29.41,0,0,0-7.48-6.6,13.61,13.61,0,0,0-9.22-2.14,14.47,14.47,0,0,0-4.43,2,8.44,8.44,0,0,0-1.79,1.57,5.76,5.76,0,0,0-1.06,2,6.23,6.23,0,0,0,.82,4.55,14.87,14.87,0,0,0,3.23,3.87,20.13,20.13,0,0,0,4.27,2.85,13.12,13.12,0,0,0,2.41,1A6.53,6.53,0,0,0,1726.86,552.8Z"/>
        <path class="cls-108" d="M1764,26.5s34-19.65,87.32-19.36,113.13,43.68,96.64,71.3-26.57,43.49-100.52,43.25S1689.26,79.22,1764,26.5Z"/>
        <path class="cls-96" d="M1750.6-114.41C1893-65.08,1907.12-6.07,1904.21,21c0,0,.3,46.27-146.69,93h0s-86.19,38.24-245.41,18.18c-48.31-6.09-128-30.27-139-84.29-8.11-39.74,25.06-80.22,37-94.86C1507.83-166.33,1702.71-125.7,1750.6-114.41Z"/>
        <path class="cls-109" d="M1733.6-130.93c154.58,52.56,170.09,114.84,167,143.33,0,0,.46,48.8-158.87,97.53h0s-93.39,40-266.16,18.25c-52.43-6.61-139-32.4-151.08-89.41-8.91-41.95,27-84.52,39.92-99.92C1470.1-186.59,1681.61-143,1733.6-130.93Z"/>
        <path class="cls-110" d="M1284.68,172.34s-7.42-36.74,26.7-68.68c19.24-18,78.89-66.73,143.09-16.7,73.69,57.41,153.37,121.55,41.72,127S1296.32,220.72,1284.68,172.34Z"/>
        <path class="cls-111" d="M1284.68,175s-7.42-36.74,26.7-68.68c19.24-18,78.89-66.73,143.09-16.7,73.69,57.41,153.37,121.55,41.72,127S1296.32,223.37,1284.68,175Z"/>
        <path class="cls-96" d="M1999.27,41.05s-35.21,19.16-199.74,54.31L1776.4-57.52c3.66-2.22,30.75-15.48,106.2-4.52,91.64,13.31,178,64.14,125.15,98.2"/>
        <path class="cls-112" d="M1999.2,43.94S1964,63.1,1799.47,98.25L1776.33-54.63c3.66-2.21,30.75-15.48,106.2-4.52,91.64,13.31,178,64.14,125.16,98.2"/>
        <path class="cls-113" d="M1512.52,191.29c19,3.08,22.24,1.91,96.37,1.82,15.78,0,82.83,0,217.67-4.93,56.71-2.06,142.13-17,165.38-29.41,7.76-4.14,23.24-14.05,23.79-41.2,1.26-61.88-45.58-97.49-60.35-114.84-13.77-16.18-48.61-35.74-57.86-40.06-112.64-52.61-204.2-68.6-204.2-68.6-21.9-5.82-194.57-48.73-293,71.1-9,11-64.71,78-48.41,136.16C1370.66,168.31,1474,185.05,1512.52,191.29Z"/>
        <path class="cls-114" d="M1509.46,197.13c19,3.08,22.24,1.91,96.36,1.82,15.78,0,82.84,0,217.67-4.94,56.71-2,142.13-17,165.38-29.4,7.76-4.14,23.24-14.05,23.79-41.2,1.26-61.88-45.58-97.49-60.35-114.84-13.77-16.18-48.61-35.75-57.86-40.06-112.64-52.61-204.2-68.6-204.2-68.6-21.9-5.83-194.56-48.73-293,71.1-9,11-64.71,78-48.41,136.16C1367.6,174.15,1470.94,190.89,1509.46,197.13Z"/>
      </g>
      <g>
        <path class="cls-115" d="M-20.79,838.83c52.18-2.51,279.85-2.6,372.42.15,137.19,4.08,238,17,259.42,19.56,128.61,15.4,619.45,32.55,1335.65,6.33,1.36,15.66.17,30.3,1.53,46-524.07,16.69-1971.57,0-1971.57,0S-20.79,858.82-20.79,838.83Z"/>
        <g>
          <path class="cls-115" d="M1268.82,894.51s27.68-18.16,33.29-21.41c6.88-4-5.78-9.74-26.3,4.15C1275.81,877.25,1263.21,887.29,1268.82,894.51Z"/>
          <path class="cls-115" d="M1255.79,893.38s-5.58-16.84-36.21-16.34S1255.79,893.38,1255.79,893.38Z"/>
          <path class="cls-115" d="M1264.14,895.83s9.34-37.71,22.95-48.05c11.66-8.86-13-11.29-26.93,9.86S1264.14,895.83,1264.14,895.83Z"/>
        </g>
        <g>
          <path class="cls-115" d="M575.14,865.05s36.72-5.39,35.7-20.22S575.14,865.05,575.14,865.05Z"/>
          <path class="cls-115" d="M568,871.05s20.4-37.08,35.7-46.51-26.52-10.21-35.7,28.6Z"/>
          <path class="cls-115" d="M566.47,866.05s10.29-28.84-28.05-30.33C521.08,835,566.47,866.05,566.47,866.05Z"/>
        </g>
        <g>
          <path class="cls-115" d="M402.58,838s14.28-9.48,41.81-11.82-29.57-12.45-50,11.82C394.42,838,385.24,848.78,402.58,838Z"/>
          <path class="cls-115" d="M363.82,839.35s41.82-30.34,66.3-38.43-23.46-8.76-56.1,16.52C374,817.44,357.7,832.61,363.82,839.35Z"/>
          <path class="cls-115" d="M351.58,839.35s27.78-49.21,40.41-55.28-20-9.44-40.41,30.67C351.58,814.74,343.42,836,351.58,839.35Z"/>
          <path class="cls-115" d="M336.79,839.35s10.71-45.17,20.91-51.91S318.94,794.86,336.79,839.35Z"/>
          <path class="cls-115" d="M330.67,839.35s.51-37.63-21.42-43.42S322,820.47,330.67,839.35Z"/>
          <path class="cls-115" d="M323.53,839.35s-13.77-43.12-47.43-44.15S302.62,811,323.53,839.35Z"/>
          <path class="cls-115" d="M320.64,839.35s-18-17.53-48.62-16.18S313.16,834,320.64,839.35Z"/>
        </g>
        <g>
          <path class="cls-115" d="M1606.12,877s14.28-9.48,41.82-11.82-29.58-12.45-50,11.82C1598,877,1588.78,887.77,1606.12,877Z"/>
          <path class="cls-115" d="M1567.36,878.34s41.82-30.34,66.3-38.43-23.46-8.76-56.1,16.52C1577.56,856.43,1561.24,871.59,1567.36,878.34Z"/>
          <path class="cls-115" d="M1555.12,878.34s27.78-49.22,40.41-55.28-20-9.44-40.41,30.67C1555.12,853.73,1547,875,1555.12,878.34Z"/>
          <path class="cls-115" d="M1540.33,878.34s10.71-45.17,20.91-51.91S1522.48,833.84,1540.33,878.34Z"/>
          <path class="cls-115" d="M1534.21,878.34s.51-37.63-21.42-43.42S1525.54,859.46,1534.21,878.34Z"/>
          <path class="cls-115" d="M1527.07,878.34s-13.77-43.12-47.43-44.15S1506.16,850,1527.07,878.34Z"/>
          <path class="cls-115" d="M1524.18,878.34s-18-17.53-48.62-16.18S1516.7,872.94,1524.18,878.34Z"/>
        </g>
      </g>
      <path class="cls-90" d="M767.27,572.64s83.2-7,108.47.18c16.35,4.65,48.83,5.87,69.72,6.15l2.55,0c10,.11,16.78,0,16.78,0l53.25,4.84s23.32,16.56,14.14,14.36-34.58-13.4-83.88.2-114.22-22.87-140.76-15.63S746,601,722,594.47s-86.69-14.55-86.69-14.55l-8.56-5.1,13.59-4.57s40-1.54,62.82,1.61S758.54,576.28,767.27,572.64Z"/>
      <g>
        <polygon class="cls-116" points="1426.7 626.55 1478.57 668.88 1508.72 747.21 1422.99 696.52 1426.7 626.55"/>
        <polygon class="cls-117" points="1478.57 668.88 1559.72 674.21 1552.31 747.21 1508.72 747.21 1478.57 668.88"/>
        <polygon class="cls-118" points="1558.72 674.21 1597.98 747.21 1551.31 747.21 1558.72 674.21"/>
        <polygon class="cls-119" points="1558.72 674.21 1641.72 678.21 1686.72 718.21 1660.72 763.21 1597.98 747.21 1558.72 674.21"/>
        <path class="cls-120" d="M1686.72,718.21l-26,45s59,2,75-5,10-4,10-4Z"/>
        <polygon class="cls-121" points="1641.72 678.21 1750.66 626.55 1795.72 714.62 1795.72 747.21 1745.72 754.21 1682.99 718.21 1641.72 678.21"/>
        <path class="cls-122" d="M1750.66,626.55l46.06,89.66q-.49-38.41-1-76.85Z"/>
        <polygon class="cls-119" points="1711.72 579.21 1750.66 626.55 1795.72 639.36 1795.72 632.36 1711.72 579.21"/>
        <path class="cls-123" d="M1426.7,626.55l51.87,42.33,163.15,9.33,108.94-51.66-38.94-47.34H1601.58s-46.86-7-88.86,11S1426.7,626.55,1426.7,626.55Z"/>
        <path class="cls-124" d="M1478.57,668.88s111.66-6,119.41-31.86,24.74-25.81,152.68-10.47l-38.94-47.34H1598L1426.7,626.55Z"/>
        <polygon class="cls-125" points="1472.95 664.29 1478.57 668.88 1485.5 686.88 1482.51 668.63 1489.1 668.88 1479.72 666.21 1472.95 664.29"/>
        <polygon class="cls-125" points="1621.49 677.24 1640.72 680.21 1655.84 691.9 1644.87 676.72 1647.72 672.21 1637.72 677.21 1621.49 677.24"/>
        <polygon class="cls-125" points="1433 631.69 1427.72 629.21 1426.2 635.9 1426.7 626.55 1434.18 624.48 1430.19 627.23 1433 631.69"/>
        <path class="cls-126" d="M1688.77,579.21s-39,5-56,16-44,28-48,36l-4,8-6.08,11.11s13.08-19.11,28.08-28.11,28-23,42-27,37-10,52-13l15-3Z"/>
        <path class="cls-127" d="M1593.08,579.21s-25.36,11-25.36,26v15s-.49-30,30.26-41Z"/>
        <polygon class="cls-119" points="1650.81 642.71 1699.18 650.96 1735.81 696.52 1711.72 642.71 1650.81 642.71"/>
      </g>
      <g>
        <path class="cls-128" d="M1587.82,765s10.21-12.77,29.91-15.92S1596.57,732.28,1582,765C1582,765,1575.41,779.5,1587.82,765Z"/>
        <path class="cls-128" d="M1560.09,766.78S1590,725.92,1607.52,715s-16.79-11.81-40.14,22.24C1567.38,737.27,1555.71,757.7,1560.09,766.78Z"/>
        <path class="cls-128" d="M1551.33,766.78s19.88-66.28,28.91-74.45-14.32-12.71-28.91,41.31C1551.33,733.64,1545.49,762.24,1551.33,766.78Z"/>
        <path class="cls-128" d="M1540.75,766.78s7.66-60.83,15-69.91S1528,706.86,1540.75,766.78Z"/>
        <path class="cls-128" d="M1536.37,766.78s.37-50.68-15.32-58.48S1530.17,741.36,1536.37,766.78Z"/>
        <path class="cls-128" d="M1531.26,766.78s-9.85-58.08-33.93-59.45S1516.3,728.65,1531.26,766.78Z"/>
        <path class="cls-128" d="M1529.2,766.78s-12.9-23.6-34.79-21.79S1523.85,759.52,1529.2,766.78Z"/>
      </g>
      <g>
        <path class="cls-128" d="M615.82,661S626,648.2,645.73,645.05,624.57,628.28,610,661C610,661,603.41,675.5,615.82,661Z"/>
        <path class="cls-128" d="M588.09,662.78S618,621.92,635.52,611s-16.79-11.81-40.14,22.24C595.38,633.27,583.71,653.7,588.09,662.78Z"/>
        <path class="cls-128" d="M579.33,662.78s19.88-66.28,28.91-74.45-14.32-12.71-28.91,41.31C579.33,629.64,573.49,658.24,579.33,662.78Z"/>
        <path class="cls-128" d="M568.75,662.78s7.66-60.83,15-69.91S556,602.86,568.75,662.78Z"/>
        <path class="cls-128" d="M564.37,662.78s.37-50.68-15.32-58.48S558.17,637.36,564.37,662.78Z"/>
        <path class="cls-128" d="M559.26,662.78s-9.85-58.08-33.93-59.45S544.3,624.65,559.26,662.78Z"/>
        <path class="cls-128" d="M557.2,662.78s-12.9-23.6-34.79-21.79S551.85,655.52,557.2,662.78Z"/>
      </g>
      <g>
        <path class="cls-128" d="M1743.82,763s10.21-12.77,29.91-15.92S1752.57,730.28,1738,763C1738,763,1731.41,777.5,1743.82,763Z"/>
        <path class="cls-128" d="M1716.09,764.78S1746,723.92,1763.52,713s-16.79-11.81-40.14,22.24C1723.38,735.27,1711.71,755.7,1716.09,764.78Z"/>
        <path class="cls-128" d="M1707.33,764.78s19.88-66.28,28.91-74.45-14.32-12.71-28.91,41.31C1707.33,731.64,1701.49,760.24,1707.33,764.78Z"/>
        <path class="cls-128" d="M1696.75,764.78s7.66-60.83,15-69.91S1684,704.86,1696.75,764.78Z"/>
        <path class="cls-128" d="M1692.37,764.78s.37-50.68-15.32-58.48S1686.17,739.36,1692.37,764.78Z"/>
        <path class="cls-128" d="M1687.26,764.78s-9.85-58.08-33.93-59.45S1672.3,726.65,1687.26,764.78Z"/>
        <path class="cls-128" d="M1685.2,764.78s-12.9-23.6-34.79-21.79S1679.85,757.52,1685.2,764.78Z"/>
      </g>
      <path class="cls-33" d="M1028,541l-3,43-79.54-5L1029,534"/>
      <polygon class="cls-33" points="1080.32 555.97 1063.74 533.35 1086.5 556.82 1083.65 596.14 1080.32 555.97"/>
      <path class="cls-129" d="M1078.41,525.47S1070.54,553,1107.18,549C1107.18,549,1076.82,547.94,1078.41,525.47Z"/>
      <path class="cls-129" d="M984.47,338.41s52.89,37.86,47.71,56.73,1.19,32,8,33.42c0,0-20.23,5.85-16.71-35.35s-31.54-31.57-39-52.39"/>
      <polygon class="cls-55" points="1078.06 476.22 1047.51 455.8 1079.65 488.35 1078.06 476.22"/>
      <ellipse class="cls-130" cx="775" cy="634" rx="30" ry="13"/>
      <ellipse class="cls-130" cx="1028" cy="695" rx="30" ry="13"/>
      <ellipse class="cls-130" cx="988" cy="596" rx="30" ry="13"/>
    </g>
  </g>
</svg>
