<svg xmlns="http://www.w3.org/2000/svg" xmlns:xlink="http://www.w3.org/1999/xlink" width="1920" height="900" viewBox="0 0 1920 900">
  <defs>
    <style>
      .cls-1, .cls-42, .cls-43 {
        fill: none;
      }

      .cls-2 {
        isolation: isolate;
      }

      .cls-3 {
        clip-path: url(#clip-path);
      }

      .cls-4 {
        fill: url(#linear-gradient);
      }

      .cls-5 {
        fill: #207d78;
      }

      .cls-45, .cls-5 {
        opacity: 0.36;
      }

      .cls-6 {
        fill: url(#linear-gradient-2);
      }

      .cls-7 {
        fill: url(#linear-gradient-3);
      }

      .cls-8 {
        fill: #77491e;
        stroke: #382110;
        stroke-width: 0.75px;
      }

      .cls-42, .cls-43, .cls-8 {
        stroke-miterlimit: 10;
      }

      .cls-9 {
        fill: #825024;
      }

      .cls-10 {
        fill: url(#linear-gradient-4);
      }

      .cls-11 {
        fill: #2b6331;
      }

      .cls-12 {
        fill: #5d9e43;
      }

      .cls-13 {
        fill: #69aa44;
      }

      .cls-14 {
        fill: #6fa442;
      }

      .cls-15 {
        fill: #729844;
      }

      .cls-16 {
        fill: #92be3e;
      }

      .cls-17 {
        fill: #92ac3c;
      }

      .cls-18 {
        fill: #327539;
      }

      .cls-19 {
        fill: #578b3f;
      }

      .cls-20 {
        fill: #447f3c;
      }

      .cls-21 {
        fill: #8ac248;
      }

      .cls-22 {
        fill: #3a7739;
      }

      .cls-23 {
        fill: #82ae40;
      }

      .cls-24 {
        fill: #733c19;
      }

      .cls-25 {
        opacity: 0.5;
      }

      .cls-25, .cls-27 {
        mix-blend-mode: screen;
      }

      .cls-26, .cls-27 {
        fill: #dc8035;
      }

      .cls-27 {
        opacity: 0.24;
      }

      .cls-28 {
        fill: #2a5026;
      }

      .cls-29 {
        fill: #2e6633;
      }

      .cls-30 {
        fill: #31793b;
      }

      .cls-31 {
        fill: #2f8e49;
      }

      .cls-32 {
        fill: #569d44;
      }

      .cls-33 {
        fill: #6dad44;
      }

      .cls-34 {
        fill: #30793b;
      }

      .cls-35 {
        fill: #7c481d;
      }

      .cls-36 {
        fill: #d5b386;
      }

      .cls-37 {
        fill: #936d29;
      }

      .cls-38 {
        fill: #bb8a40;
      }

      .cls-39 {
        fill: #a06d35;
      }

      .cls-40 {
        fill: #744e1f;
      }

      .cls-41 {
        fill: #b68038;
      }

      .cls-42 {
        stroke: #936d29;
      }

      .cls-42, .cls-43 {
        stroke-width: 2px;
      }

      .cls-43 {
        stroke: #d5b386;
      }

      .cls-44 {
        fill: #ae7c36;
      }
    </style>
    <clipPath id="clip-path">
      <rect class="cls-1" width="1920" height="900"/>
    </clipPath>
    <linearGradient id="linear-gradient" x1="-384.09" y1="1851.08" x2="-383.61" y2="1851.12" gradientTransform="matrix(334.04, -1651.37, -1651.37, -334.04, 3186024.91, -15036.67)" gradientUnits="userSpaceOnUse">
      <stop offset="0.2" stop-color="#f0f6fb"/>
      <stop offset="0.46" stop-color="#cde3f5"/>
      <stop offset="0.7" stop-color="#b3d5f0"/>
    </linearGradient>
    <linearGradient id="linear-gradient-2" x1="695.8" y1="329.59" x2="1232.86" y2="1259.79" gradientUnits="userSpaceOnUse">
      <stop offset="0.01" stop-color="#26476f"/>
      <stop offset="0.02" stop-color="#2b4e71"/>
      <stop offset="0.1" stop-color="#426e79"/>
      <stop offset="0.18" stop-color="#54867f"/>
      <stop offset="0.26" stop-color="#609784"/>
      <stop offset="0.35" stop-color="#68a286"/>
      <stop offset="0.46" stop-color="#6aa587"/>
      <stop offset="1" stop-color="#427c83"/>
    </linearGradient>
    <linearGradient id="linear-gradient-3" x1="829.26" y1="319.91" x2="1411.28" y2="1328" gradientUnits="userSpaceOnUse">
      <stop offset="0.02" stop-color="#6aa587"/>
      <stop offset="0.59" stop-color="#4c7d7d"/>
      <stop offset="0.7" stop-color="#49797c"/>
      <stop offset="0.82" stop-color="#406c79"/>
      <stop offset="0.93" stop-color="#315673"/>
      <stop offset="1" stop-color="#26476f"/>
    </linearGradient>
    <linearGradient id="linear-gradient-4" x1="842.63" y1="-617.72" x2="987.86" y2="1078.52" gradientTransform="translate(1194.95 -644.82) rotate(43.28)" gradientUnits="userSpaceOnUse">
      <stop offset="0.26" stop-color="#1b391b"/>
      <stop offset="0.43" stop-color="#1d3d1d"/>
      <stop offset="0.59" stop-color="#224822"/>
      <stop offset="0.74" stop-color="#2b5a2b"/>
      <stop offset="0.89" stop-color="#387438"/>
      <stop offset="0.91" stop-color="#3a783a"/>
    </linearGradient>
  </defs>
  <g class="cls-2">
    <g id="Layer_1" data-name="Layer 1">
      <g id="SC_20">
        <g class="cls-3">
          <polygon class="cls-4" points="-58.53 925.19 -58.57 0 1994.92 -7.68 1969.08 908.39 -58.53 925.19"/>
          <g>
            <path class="cls-5" d="M-147.31,583.31s205.3,71.42,511.42-105c11.26-6.49,23.67-8.69,35.81-6.21C440.25,480.3,534,502,574.4,533l114.42-24.55a92.69,92.69,0,0,1,49.33,2.87L802.72,533,1285,413.56a164.25,164.25,0,0,1,72.35-1.61c51.05,10.32,139,27.63,145.8,25.82,9.67-2.55,128.9-35.38,166.4-43.4,35.33-7.56,433.41,46,433.41,46l11.61,296.18L-147.31,769.7Z"/>
            <path class="cls-6" d="M-45.3,757.47s501,34.72,905.65-89.32,795.07-129,1087.9,39.69V846.76L-22.83,875.94Z"/>
            <path class="cls-7" d="M130.2,723.51S252.07,861,906.09,822.19C1563.56,797.52,1410,653,2110.33,723.51V924.4H130.2Z"/>
          </g>
          <g>
            <g>
              <path class="cls-8" d="M-22.13,1147.23s-32.31-304.36,68.2-386.36S754.88,649.28,1055.72,608.66c352-47.51,444.47-536.76,444.47-536.76l53,15.58S1501,378.94,1431.1,435.93,1785,267.85,1785,267.85l34.79,15.9s-357,212.93-409.83,231.54-179.53,158.83-242.15,186.52S346.46,831.39,285.27,901.56C242.17,951,42.69,1313.81,58,1478.78S-60,1272.69-22.13,1147.23Z"/>
              <path class="cls-9" d="M168.41,904.55C114.54,993.63,59.48,1089.64,67.22,1192.1c17.2-113.3,64.12-222.36,135.5-314.93-32,39.92-64.08,80.08-88.45,124.47S73.4,1095.28,74.9,1145.31c2.76-50.21,29.74-95.91,56.07-139.59l55.34-91.83q-44.33,75-85,151.8c-8.67,16.35-17.45,34-14.92,52.15,17.29-100.56,77.15-244.43,174.52-276.37-16.25,29.77-13.59,37.16-76.26,135.09,44.76-36.29,44.21-105.42,88.28-142.44l-66.7,40.82A402.39,402.39,0,0,1,301.73,814C210,901.6,200.11,880.31,164.1,998.47c-6.18,13.11-15.39,35.67-12.65,54.46-19.65,44.76-11.1,31.28-16.33,79.15-5.56,50.91-26.36,138.3-66.77,221.67"/>
              <path class="cls-9" d="M180.77,788.49C96.39,846,37.4,935,19.82,1031.55c-3.23-30.56,29.1-51.38,45.49-77.86s63.31-69.85,86.33-91.55c42-39.57,43-67.24,101.4-78.57"/>
              <path class="cls-9" d="M66.29,811.78c39.87-49.53,102.62-90.1,219-78.47,0,0-54.33,6.23-97.11,29.66S77,814.56,63.2,864.53,31.37,855.18,66.29,811.78Z"/>
            </g>
            <path class="cls-9" d="M285.27,772.09s299.38-43.41,573.26-56.67,386.58-95.44,406.9-136.56S1393,452.29,1414.2,381.41s68-196.62,68-196.62-117,223.08-142.83,267.7S1196.3,646.73,987,668.9s-415.22,11.65-559.78,21.92S123.55,744.11,285.27,772.09Z"/>
          </g>
          <path class="cls-10" d="M1050.85,104.25c-29.68,47.24,8.88,42.29,26.33,34.34,0,0,16.56-9.12,35.41,23.8S1152.17,145.44,1169,150c17.22-6.47,31.8,5.56,39.32,14.52s12.65-5,8.94,15.91c-5.46,24.86,10.29,30.32,18.42,28.59-30.71,48,11.56,22.15,34.54,23.15,17.81,2.27,23.92,0,22.11,35.82s34.59,20.43,54.88,22.17c-.59,51.44,42.65,41.52,57.29,36.56,25.33,7,29.82,8.39,23.58,32,12.63,22.67,22.17,48.53,43.27,51.53-26.53,38.77,6.08,50.72,28.57,43.77,16.91,15.92,14.07,2,22.92,32.83,32,2,72.21-.46,57.47,15.2-29.75,14.65-16.71,37.74-10.59,45.59-31.72,24.74,18,41.8,35.3,38.26-54,36.21,15.7,97.67,68,59,24.14-10.81,37.88,2.13,35.91,19,12.63,43.76,100.25,31.17,100.25,31.17-23.76,63.35,62,80.3,91.46,57.44,12.83,30.84,103.81,35.86,90.67-32.76,18.54,9.95,32.66,2.62,38.12-9.12-15.41,54.87,33.37,51.77,53,31,8,33.89,53.87,25.37,62.54-15.6,20.6,7.77,22.32-13.12,15.62-25.05,21.14,19.9,25-2.71,25-2.71-3.8,56.42,30.53,47.49,43.06,40.53,28.9,32.84,40.13,20.91,44,2,59.3,57.71,84.42,12,64.43-21.84,82.34,26.89,67.48-2.56,53.41-13.7,46.66-12.1,46.48-35.21,17.16-48.53,0,0,54.86-5.33,34.17-34.18,61,3,61.19-69.21,28.39-87.31,55.31,21.73,61.43-90.64,29.88-101.6,65.7-33.77,30.16-110.36-4.42-105.41,13.08-30.82-42.27-52.5-64.43-50.14,0,0-121.91-148.07-74.59-196.33,0,0-87.48-58-29.19-91s66.08-100.7,14-135-140.84-160.13-140.84-160.13-136-29.2-145.35-23.38,69.84,29.16-9.37,5.82-97.51,12.61-120.7-41.29S1688.68-467.51,1636-390.92s66.56-162.1-34.82-169.93-22-75.58-137-32-31.44-86.47-72.57-59.32-401.49,132.9-378.77,257.56-84.5,186.81-16.3,273.56S926.9,76.59,1050.85,104.25Z"/>
          <path class="cls-11" d="M1576.55,281.88s-3.43,67.89,24.77,65.55C1510,379.19,1609,397,1609,397c-44.88,17.55-42.47,23.86-21.76,48.2-47.37-2.38-37.57,42.4-4.08,49.49-10.33,43.6,12.57,31.83,29.56,58.94-5.43,66,65.23,63.73,75.64,50.15,16.9,34.75,37.62,45.37,55.08,21.81,14.92,31.83,47.18,52.77,65.6,18.16,22.64-4,29.4-6.1,30.42-29.78,22.16-6,15,14.14,15,14.14-17.36,23.46,1.07,74.14,30.48,53,37.71,37.73,85.66,49.54,69.16-8.21,36.43,16.52,32.18,28.56,63.52,7.82,13.77,20.5,21.43,29.94,40.29,9.91-16.75,35.35,39.07,65.68,56.92,6.93,32.28,3.73,62.38-1.27,40.53-32.95,41.6,21.39,36.62,36.7,62.13,9.61,28.42,40.09,59,57.78,67.56,23.61,0,0-2.29,40.07,43.62-1.15,26.55,9.44,103.3,3.21,57.63-36.11,24.92-23.95-149.7-99.47-116-147.77s32.19-87.47,32.19-87.47l-67.87-130.56-77-23.62s-74.82-73.6-104.35-59.82c0,0,56.14-14.45-12.78-99.33S1942.57-42.56,1902,.49s-100.79-15.92-100.79-15.92,35-84.83-36.79-139.08-99.13-67.87-99.13-67.87L1618.93-276l-138.12-96.71-132.16,80-9.4,167.86L1447.81-22.6l-1.47,65.4L1424.8,143.45s6,21.22,45.94,56.59S1567.91,276,1567.91,276Z"/>
          <path class="cls-12" d="M1793.68,231.32s-9.33-20.48-28.78-13c14.3-20.47,8.95-26.68,4.84-32.89,36.11-19.84-6.49-65.8-30.84-57.12,8.67-21.1-44.4-34.78-58.65-23.62,2.68-17.38-62.64-20.36-69.45,22.39,0,0-14.86,2.39-8.25,19.15-9.84-18.62-48.39-18.64-53.2-5.61-12-24.22-53.56-1.27-40.63,27.29-9.08-6.22-23.33,4.95-19.41,28.54-27.88-39.12-66.29-33.15-36.65,7.63,4.65,18.42-2,21.52-17.83,47.58s46,91.26,90.2,31.08c8.38-15.51,8.77-19.83,20.68-2.77,17.12,31.35,53.06-1.53,62.62-18.28,18.86-6.82,23.7,1.25,28.34,16.15.12,22.34,9.14,37.87,18.89,44.7,11.36,13,9.84,18.63,6.35,32.9,0,0-8.48,3.72.91,14.9s7.7,14.28-8.31,16.75-18.27,16.75-4.92,31.65c11.59,16.77,3.47,16.14-11.1,11.79s-55.6,6.18-30.59,39.09c19.13,18,27.92,19.25,27.92,19.25s12,3.11-3.06,11.17-38.63,39.71,30.86,67.68c13.38-5,17.62-6.82,23.07,11.18,2.24,26.69,45.47,21.75,56.55-.59,7-7.44,9.93-10.54,17.49,1.25,16.51,26.08,86.09,24.88,75.14-42.78,0,0-2.15-14.9,8.27,3.11,11.9,21.73,39.13,29.81,55.2,18,2.74,14.27,41.07,10.57,52.38-8,0,0,79.34,57.14,66-8,0,0,98.77-1.8,31.57-63.91,0,0,20.1-47.78-26.28-43.46,6.65-3.1,9.93-10.55,8-12.41,39.28,32.3,33.92,6.27,36.78-3.37,23.74,6.51,36.84-33.83,27.6-42.53,19.73-13-7.79-97.45-61.06-63.34,3.26-18-16.49-24.79-28-9.92,10.73-28.57-20.39-36.81-28.46-32.7,50.48-25-3.25-80.31-31.6-55.5-.11-22.34-56.5-49.69-81.36,1.82,0,0-11.27-1.25-32.51-13.05C1813.8,194.09,1795.16,204.64,1793.68,231.32Z"/>
          <path class="cls-13" d="M1486.42,192.56s-42.83,29.12,25.26,48.24c17-12.26,23.13-1.35,31.12,17.74,31.36,10.24,80.3-5.76,20.24-49.06,11.24-6.13,19.7-16.34,42,17.74,27.69,28.65,30.55,8.2,43.19,25.25s10.52,38.17,11.43,53.17,20.82,50.44,56.33,50.46,31.68,40.11,2,34-30,10.27-21.89,32.08c-31.25,2.71-30.5,15-18.5,32.71-23,25.89,4.72,32.72,15.25,37.5-4.44,27.94,13.34,40.56,36,42.11,22.2,16.53,53,17.23,56.39-5.26,11.23-6.13,15.91,3.42,26.42-3.39s16.5-32-2.9-47.71c-6.87-23.18,6.32-19.77,12.86-2s19.7,34.22,43.25,4.86c4.22,34.7,31.77,59.14,40.15,12.51,10.41,9.26,6.5,19.22,26,5.73s29.22,11.06,37.09,5.61,16.57-30.66,6.26-42.94,8.84-.68,8.84-.68,30.34,64.71,41.89,15l24.15,1.65s21.31-51.38-32.82-43.23c7.13-6.13,14.19-13.62,14.19-13.62s37.23-27.93-9.89-50.44c-41.15-47.74-86.43-118.65-127.51-86.64-63.88-6.17-105.11,34.71-124.77,3.34s-42.34-45-43.19-70.22-37.44-87.95-57.58-70.92-35.28,37.47-35.38,24.52-22.56-34.09-28.81-24.55c-12.65-17.05-50.58-23.21-54.16-3.44-10.33-23.86-52.33-6.86-39.85,24.17C1489.92,163.77,1486.42,192.56,1486.42,192.56Z"/>
          <path class="cls-14" d="M1189.93,25.83c-55.83,72.31,66.45,85.62,88,54.05,6.57,40.76,47.09,2.06,68.9-25.43,31.33-5.08,24.75,4.09,29.16,17.84s11.67,10.38,22.69,9.53,5.38,7.3-2.17,17.48,8.32,19.37,15.9,26.5-7.39,4.57-26.61,11.44-17,39.23,2.91,33.26,21-5,32.8,4.21,23.3-3,28.55-17.3,23.39-18.33,37.93-14.24,32.77-24.79,18.5-36.34-10.34-30.9,10.45-24.78,35.27-24.43,17-39.72c50.77-21.37,40.56-46.35,7.23-70,28.59-46.08-34.67-28.8-41.38-21.67,46.15-46.84,2.53-59.09-15.35-50.95l-13-29.56s56.39-29.51,11.87-73.35-57.54.37-57.54.37c-24,1.63-26.79,2.41-19.49-18.35s-11.45-26.9-23.11-34-14.91-10.2,10.55-11.21,84.85-31.53-25.62-85.59c6.06-34.64-73.51-97.65-96.24-36.63-8.88,20.27-29.08,20-42.07,1.28-13.12-20.77-22.66-10.64-30.61-6.55,13-37.66-55.8-94.75-73-41.78-6.81,22.41-5.23,31.58-5.23,31.58s-1.6,19.05-17.38,5.44-39.62-13-34,17.25c17,16,1.27,32.7-21.26,19.75-19.91-20.08-36.21-2.77-41.34,13.53-18.16-13.25-68.4,10.53-47.16,44,6.2,21.22-3.29,16.12-19.29,4.9-19.61-20.39-28.65-7.76-28,13.94-23.71-8.88-94.73,34-37.07,74.72,0,0,19.45,5.38,10.25,10.81S859-212.76,857.8-198.5s.93,48.91,61.1,47.92c-5.85,21.39-16.37,2.19-7.72,25.55-46.79-15.39-53.47,9.06-39.61,35.55,9.77,26.5-6.31,30.57-24.9,43.8s9.34,53,33.84,53,27.08,10.3,16.94,27.57,20.65,36.64,38.28,24.42c0,0-33.71,83.53,72.52,51,41.86,33.64,62.61-44.8,52.74-56,0,0-16.94-23.23,16.19-25.86s28.78-8.65,36.27-18.89,20-23.47,19.16-3.1C1124.63,43.12,1178.58,57.41,1189.93,25.83Z"/>
          <path class="cls-15" d="M1464.61-315.71s66.85,69.31,14.17,70.79-40.25,23.76,4,43c10,53.35,72.24,28.13,56.17,92.81,5.56,21.32,9.22,28.78,43.52,30.93s50.74,49.24-21.37,55,8.24,135.65,66.38,71.81c8.17-42.55-7.85-77.73,28.62-57.46,61.84,16,105.1-7.56,83.73-61.85,21.59-50-32.93-51.09-54.29-51.11,28.76-71.39-57.92-68.22-78.08-34.13-12.86-91.68-32.64-66.14-61.64-51.22,16.19-67.12-11.8-53.28-11.8-53.28C1516.29-323.32,1470.79-340,1464.61-315.71Z"/>
          <path class="cls-16" d="M920.68-211S887.25-184.22,935-172c-.68,22.42,20.45,17.33,44.55-6.09-20.27,19.35,14.07,13.26,14.07,13.26-25.21,5.08-54.84,21.36-49.86,53-38.3,8.13-39.38,74.35,22.92,58.09-9.89,38.71,26.61,34.65,37.16,23.45-2.78,55,63.94,27.55,61-4,47,0,61.44-30.53,35.82-48.88,32.89-13.23,24.1-23.42.9-35.66-8.35-36.69,6.65-41.77,21.44-33.61-.31,28.52,19.39,33.63,32.48,30.58-28.49,51.94,14.87,58.19,29,56.11,20.08,45.8,60.63,24.43,51.44-9.2,11.67,7.14,22,41.75,51.35,21.41,13.68,7.16-13.57,12.23,3.51,24.47-45.2-21.42-59.89,22.38-13.4,31.58-14.23,34.63,33.14,58.09,62.71,7.16,33.78,18.36,69.54,2.08,51.47-26.46,41,19.38,89.13,5.15,26.36-36.66-20.08-11.22-32.95-21.42-12.65-23.44s13.46-18.64,14.51-24.09-7.25-7.49,15.34-5.44,26.26-21.38,21.93-25.46c0,0,16.6,4.38,26.51-6.46s34.93-24.07-.22-64.85-57.54.37-57.54.37l-20.63-.26a143.72,143.72,0,0,1,1.14-18.09c1.33-12,11.52-13.3-31.29-40S1030.79-403.9,920.68-211Z"/>
          <path class="cls-17" d="M1893.76-303.17s-33.42-4.29-32.5,19.73c1.43,23.49-20.52-3.21-25.19-9.62,0,0-20.5-29.37-40.29-11.77-16.2,14.94-3.48,21.89-2.72,25.62s7.7,12.29-9.77,24-4.23,27.22-4.23,27.22-7-.54-15.06-10.15c-13.85-8-43.82-17.11-57.55,12.25-14.93-8-56.66-17.12-57,20.78,3.81,18.69,15.23,25.41,40.56,31.14,15.32,8.39,18.27,16.63,17.78,33.06s21.57,36.2,38.36,30.87,45.44,8.57,14.32,24.56c-29.9-8-68,24.52-20.79,53.9,0,0-2.39,31,6,37.9-18.54,11.74-27,40,12,56.59,11.83,1.08,23.61,10.16,32.45,23.51,10.9,12.28,40.92,13.37,55.83-22.92,7.73-4.8,21.47,10.15,21.47,10.15s-11.83-1.07-16.15,6.93S1840.8,119,1889,129.2s66.79-18.65,58.07-38.94c18.77,9.62,30.44-9.59,29.9-27.2,10.41,48,42.63,50.19,52,45.93-41.93,22.93,6.08,56.05,35.5,38.45,17.53-10.66,29.61-14.39,27.24-35.75,26.73,26.17,61.81-21.31,46.92-46.41s-14.07-20.29,2-37.36c17.16-8-20.83-34.71-20.83-34.71s-7-17.62,15.22-4.8,36.24-2.11,35.7-19.73c-9.86-21.35,14.88-19.21,14.88-19.21S2219.44-66,2189-100.7c-25.27-19.76-6.73-31.5-1.21-37.37,6.71-12.8-21.07-65.13-62.8-39-7.67,5.87-15.28,3.73-32.94-13.89s-32.59.51-35.72,10.65c-4.05-13.88-31.75-20.83-41.05-15.5,36.25-28.27,20.47-59.24-20.44-63.53C1985.83-293,1952.31-351.71,1893.76-303.17Z"/>
          <path class="cls-18" d="M1343.56,124.16c-3.73,4.77-56-56.71-53.71-2.17-53-7.52-83.83-4.31-43.18,29.93,8.76,38.5,24.72,60.26,58.92,55.82,15.6,24.42,25.47,45.82,55.57,29.79.29,22.46,19,27,45.19,27.16-37.13,34.88-3.33,48.56,25.93,51.9,33,47.2,64.32,43.54,62.8,22.38s-86.24-38.05-60.25-87.36c-4.76-44-20.9-83.77-58.43-73.53C1355.28,123.1,1364.43,97.43,1343.56,124.16Z"/>
          <ellipse class="cls-19" cx="1425.56" cy="47.97" rx="21.62" ry="29.18" transform="translate(413.55 1053.14) rotate(-46.73)"/>
          <ellipse class="cls-19" cx="1483.43" cy="27.15" rx="16.57" ry="27.85" transform="translate(446.85 1088.65) rotate(-46.73)"/>
          <ellipse class="cls-19" cx="944.39" cy="-9.24" rx="27.03" ry="28.74" transform="translate(304.3 685.2) rotate(-46.77)"/>
          <ellipse class="cls-19" cx="982.36" cy="86.19" rx="16.43" ry="17.46" transform="translate(246.73 742.93) rotate(-46.77)"/>
          <ellipse class="cls-19" cx="1228.19" cy="46.35" rx="24.33" ry="25.86" transform="translate(353.22 909.5) rotate(-46.77)"/>
          <ellipse class="cls-19" cx="1281.65" cy="42.14" rx="9.57" ry="10.17" transform="translate(373.13 947.13) rotate(-46.77)"/>
          <ellipse class="cls-20" cx="1636.26" cy="458.82" rx="14.97" ry="20.34" transform="translate(180.67 1335.81) rotate(-46.73)"/>
          <ellipse class="cls-20" cx="1671.86" cy="515.18" rx="16.63" ry="17.69" transform="translate(151.41 1380.49) rotate(-46.77)"/>
          <ellipse class="cls-20" cx="1718.76" cy="547.92" rx="8.32" ry="8.84" transform="translate(142.34 1424.98) rotate(-46.77)"/>
          <ellipse class="cls-20" cx="1801.46" cy="547.81" rx="11.85" ry="7.07" transform="translate(167.57 1483.63) rotate(-46.72)"/>
          <ellipse class="cls-20" cx="1901.41" cy="530.7" rx="12.32" ry="13.1" transform="translate(212.43 1552.64) rotate(-46.77)"/>
          <ellipse class="cls-20" cx="1795.2" cy="437.35" rx="7.49" ry="32.72" transform="translate(246.19 1444.61) rotate(-46.73)"/>
          <ellipse class="cls-21" cx="1557.17" cy="229.9" rx="16.97" ry="18.04" transform="translate(323.14 1207.04) rotate(-46.77)"/>
          <ellipse class="cls-21" cx="1715.89" cy="231.69" rx="20.35" ry="21.63" transform="translate(371.85 1323.25) rotate(-46.77)"/>
          <ellipse class="cls-21" cx="1682.4" cy="136.79" rx="17.73" ry="18.85" transform="translate(430.44 1268.94) rotate(-46.77)"/>
          <ellipse class="cls-21" cx="1819.1" cy="266.88" rx="10.58" ry="11.25" transform="translate(378.72 1409.54) rotate(-46.77)"/>
          <ellipse class="cls-21" cx="1866.61" cy="311.48" rx="18.64" ry="19.82" transform="translate(361.2 1458.21) rotate(-46.77)"/>
          <ellipse class="cls-21" cx="1909.7" cy="291.9" rx="15.39" ry="16.36" transform="translate(389.05 1483.44) rotate(-46.77)"/>
          <ellipse class="cls-21" cx="1921.05" cy="382.69" rx="10.35" ry="11" transform="translate(326.47 1520.32) rotate(-46.77)"/>
          <ellipse class="cls-21" cx="1807.75" cy="330.88" rx="9.15" ry="9.73" transform="translate(328.52 1421.44) rotate(-46.77)"/>
          <ellipse class="cls-21" cx="1548.71" cy="169.2" rx="15.28" ry="16.25" transform="translate(364.7 1181.75) rotate(-46.77)"/>
          <ellipse class="cls-21" cx="1523.06" cy="208.28" rx="7.64" ry="8.12" transform="translate(328.14 1175.37) rotate(-46.77)"/>
          <ellipse class="cls-21" cx="1496.31" cy="193.4" rx="7.49" ry="14.15" transform="translate(329.84 1150.31) rotate(-46.73)"/>
          <ellipse class="cls-21" cx="1877.91" cy="218.16" rx="8.85" ry="9.41" transform="translate(432.76 1437.04) rotate(-46.77)"/>
          <ellipse class="cls-22" cx="1862.24" cy="667.72" rx="17.78" ry="18.9" transform="translate(100.25 1567.27) rotate(-46.77)"/>
          <ellipse class="cls-23" cx="1908.06" cy="87.06" rx="17.98" ry="19.11" transform="translate(537.78 1417.7) rotate(-46.77)"/>
          <ellipse class="cls-23" cx="1812.82" cy="52.38" rx="12.41" ry="13.2" transform="translate(533.04 1337.38) rotate(-46.77)"/>
          <ellipse class="cls-23" cx="1776.79" cy="3.31" rx="11.03" ry="13.57" transform="translate(556.67 1294.94) rotate(-46.74)"/>
          <path class="cls-8" d="M817.55,925.61c-9.37-.83-26.67,2.64-35.56,4.37s-31.46,7.32-43,8.7-64.44,17.12-79.72,22.45-22.52,7.36-38.5,5.63-37.44-1.89-50.25-1.82-19.21-1.68-34-6.77-56.85-8.83-72.32-10.89-17.78-7-16.54-11.76S401.75,895.15,396,891.91s-20.86-16-20.86-16c-8.54-2.83-9.28-13.8-9.28-13.8-.25-2.16-2.47-4.8-5.91-6.46l3.07-.54c-.23-4.08,3.45-4.8,12-1.89a9.56,9.56,0,0,0,8.2-1.29c30.38-25,38.14-12.86,50.44-8.26,2.13.52,4.18,1,4.85,1.86,1.69,2.09,7.46,11.45,7.35,16.54s25.72,8.77,37.47,11.21,60.94,44.19,66.59,47.18,32.49,12.06,32.93,12.83,2.26,3.14,15.86,3.61,40.55,4.45,46.32,5.93,13.51-.56,33.82-5.71,33.89-8.25,53.5-11.14,26.71-5.19,35-9.73,22.6-6.35,35.1-8.72,41.49-10.53,76.17-16.46,41.33-2.9,69.06-2,31.19,3.62,37,4.34,31.2,3.61,38.9,4.13,51.38-8.92,51.38-8.92,5.83-4.37,10.72-7.27,2.58-5.75,4.49-8.49-6.88-6.09-9.51-9-17.21-1.6-11.11-3.94,16.26.82,17.4,1.11,12,1.94,11.93,4.48-2.33,5.52,10.59,2.15,22.54-13.47,27.7-16.35,10.17-3.21,3.17,1.89-12.5,10.26-22.58,14.23-12.79,3.64-16,7.85-7,5.87-6.12,8.18,16.32-7.83,24.1-10.6,24-8.35,36.66-13,10-2.46,21.26-2.57,14.09-1.3,19.86-1.61,41.7-9.25,53-13.69a104.37,104.37,0,0,1,34.12-7c12-.61,22.69-3.55,19.26-.86s-24,4.77-32.57,6.28-25.49,7.23-35.76,11-17.86,4.21-9.65,4.75,10.67,1.38,15.62.54a124.44,124.44,0,0,1,18.17-1.92c5.9-.05,42.87-9,54.36-11.36s15-.5,10.57.37-50.67,11.74-61.22,14.93-44.88,1-54.81.91-50,9.48-55.14,10.83-19,3.16-25.81,8.52-18.76,8.77-30,12.46-9.23,3.74.1,2.8,43.55,1,51,.23,25.33-6.76,32.64-9.56,18.58-4.71,33.56-4.45,15.32,0,22.58-2,8.38-1.74,12.57-1.35-4.38,1.89-7.53,3.3-5.53,1.6-11.69,2.91-30.22.74-38.26,2.25-33.71,10.29-39.35,13.39-14.16,2.06-25.31,2.44-26-1.4-41.8-1.44-39.22,3.24-56.37,7-23.35,1.48-34.65,1.6-21.47-3-34.28-4.75-25.64-1.64-39.88-.6-54.27,6.28-60.71,7.07-60.14,16-42.74,15.32"/>
          <path class="cls-24" d="M676.3,665.74c3.34.41,10.68,1.1,4.43.42l-6.61-.69Z"/>
          <g class="cls-25">
            <path class="cls-26" d="M680,663.82c-.07,0-.93,1.17-1.35.55s.31-1.47.86-1.82S680.77,663.15,680,663.82Z"/>
          </g>
          <g>
            <path class="cls-8" d="M704.42,564.5c0,4,4.43,6.38,3,10s3.53,4.73-.31,9.3.17,26.93,3.12,33.52,3.23,9.62-10.42,15.37-27,13.81-34.64,18.65-15.5,7-36.1,11.74-54.71,20-68.82,25.56a74.74,74.74,0,0,1-37,4.4c-10.23-1.21-120.39,11.05-131.35,12.73s-49.31,5.38-49.31,5.38c-11.67,2.77-37.28,1.35-37.28,1.35a93.4,93.4,0,0,0-18.39,1.22l.63-1.23c-9.5-.55-8.91-2,2.93-4.81,3.36-.79,4.82-3.44,2-3.29-42.17,2.15-8.38-15.93,11.66-20.29a32.26,32.26,0,0,1,7.2-1.54c5.82-.31,30.76-1,42.37-.2S389.43,674,402.16,670s138.24-16.11,148.52-17.77S598,641.85,600.07,641.8s8.56-.36,17.88-5.41,34.79-14.59,41.67-16.53,6.92-5.18,7.42-13.63,1.64-14.05,6.91-21.88,4.29-10.87-1.09-14.7,4.41-11.07,6.56-16.15,1.56-8,9-22,12.59-23.7,31.58-34,27.22-11.19,32.38-13.27,27.19-11.2,33.07-14,10.69-20.74,10.69-20.74-7.27-16-8.91-19.33-7.16-20-.58-24.24,5.57-5.5,8.35-7.72,4.09-17.15.76-22.1-1.2-9.32,4.71-13.94,5.63-9.09,9.71-7.39-3.6,9.78-5.35,13.25,1.13,10.72,3.44,15.17-6.07,31.73-6.09,33.88-4.26,7.64,3.88,11.05,8.73,8.43,10.34,13.25,3,4.06,6.48.39,28.67-16.25,31.46-19.18-.14-10.59-2.13-13.78.49-7.73,10.16-13.33,9.33-5.77,9-8.82,1.09-3.43,4.54-4.94,1.66,1.94,3,3.34.31,2.33-.43,4.86-16.62,11.5-18,14.76,3.15,14.3,6.85,16.9-3.86,5.66-9.75,9.92-19,9.57-28.66,15.52-16.34,15.28-18.19,22.32-10.76,9-17.33,13.3-20,7.61-31.67,12.18-19.3,9.4-25.57,14.93-18.51,21.41-20.59,24-13.16,24.81-11.16,30.81"/>
            <path class="cls-27" d="M391.71,678.26s14.87-2.92,45.12-3.34.33-2.15-20.72-1-32.35,2.61-34.94,4.49S382.43,679.56,391.71,678.26Z"/>
            <path class="cls-27" d="M313,709.49s17.35-1.44,48.4-18.47,2,5.31-20.31,14.87-34.86,12.69-38.94,9.41S302.62,711.69,313,709.49Z"/>
            <path class="cls-27" d="M466.52,672.23s9.64-2.08,44.41-.53,45.88,4.89,45,3.53-24.31-7.06-38.63-8.2-24-.51-14.46.65,11.21,1.33,8.42,1.45-33.77-2.3-53-.23-15.61,2.83-10.1,2.8S446,673.81,466.52,672.23Z"/>
            <path class="cls-27" d="M509.7,661.93s9.64-2.09,44.42-.54,45.88,4.89,45,3.53-24.31-7-38.63-8.2-24-.51-14.46.66,11.21,1.33,8.42,1.45-33.77-2.3-53-.23-15.61,2.83-10.11,2.79S489.15,663.51,509.7,661.93Z"/>
            <path class="cls-27" d="M695.74,528.82s5.92-7,33.8-25.45,38.86-22.1,37.22-22.66S743,489,731.1,496.17s-18.86,13.15-10.66,8.65,9.59-5.29,7.53-3.63S700.31,518.46,687,530.88s-10,11-5.76,7.84S681.06,541.62,695.74,528.82Z"/>
            <path class="cls-27" d="M673.25,615.08a29.61,29.61,0,0,1,6.77-3.29c4-1.35-1.56,1.44-2.35,2.62s-6.63,3.53-8.74,6.12-4.19,5.86-6.18,6.86-.51-.95.38-2.2-2.44,3.59-16.68,10.36-18.45,7.7-21.12,8.34-13.45,4.16-18.73,5.22-8.32,1.68-7.16.93,3.78-1.87,9.16-3.07,11.76-2.5,13.79-3.05,22.52-8.34,27.19-10.94,10-6.21,13-9.43A52.09,52.09,0,0,1,673.25,615.08Z"/>
          </g>
          <g>
            <path class="cls-28" d="M838.92,724s-130.57.47-120.54,71.1c0,0,19.73,23.58,73.46-17.94,0,0-35.21,88.41,57.4-3.47,0,0-6.26,58.5,55.43,34.3,0,0,69.08,35.41,33.89-31.88,0,0,58.44,23,43.78-20.49,0,0,55.31-25.33-17-44.4S838.92,724,838.92,724Z"/>
            <path class="cls-29" d="M844,722.19s-102.4.37-94.53,55.75c0,0,15.47,18.5,57.61-14.07,0,0-27.62,69.34,45-2.72,0,0-4.91,45.87,43.47,26.9,0,0,54.17,27.77,26.57-25,0,0,45.83,18,34.33-16.07,0,0,43.37-19.86-13.36-34.81S844,722.19,844,722.19Z"/>
          </g>
          <g>
            <path class="cls-28" d="M1275.31,852.29s-82.57.3-76.23,45c0,0,12.48,14.92,46.46-11.34,0,0-22.27,55.91,36.29-2.19,0,0-4,37,35.06,21.69,0,0,43.68,22.39,21.43-20.17,0,0,37,14.54,27.68-13,0,0,35-16-10.77-28.08S1275.31,852.29,1275.31,852.29Z"/>
            <path class="cls-29" d="M1278.53,851.17s-64.75.23-59.78,35.25c0,0,9.79,11.7,36.43-8.9,0,0-17.46,43.85,28.46-1.71,0,0-3.1,29,27.5,17,0,0,34.25,17.56,16.8-15.82,0,0,29,11.4,21.71-10.15,0,0,27.43-12.57-8.45-22S1278.53,851.17,1278.53,851.17Z"/>
          </g>
          <g>
            <path class="cls-28" d="M1237.51,846.69s-77,30-92.17-22.53c0,0,4.57-21.38,48.59-4.33,0,0-47.13-54.72,34.81-10.89,0,0-21.15-40.16,22.38-37.3,0,0,30.07-41.27,29.46,14.8,0,0,27.53-30,31.88,4.39,0,0,40.11,5.15,3.23,35.55S1237.51,846.69,1237.51,846.69Z"/>
            <path class="cls-29" d="M1241,846.78s-60.37,23.56-72.28-17.68c0,0,3.58-16.76,38.1-3.39,0,0-36.95-42.91,27.3-8.54,0,0-16.59-31.49,17.55-29.25,0,0,23.58-32.36,23.11,11.6,0,0,21.58-23.48,25,3.45,0,0,31.46,4,2.54,27.88S1241,846.78,1241,846.78Z"/>
          </g>
          <g>
            <path class="cls-30" d="M637.72,636.84s-32.43,23.68-62.52,3.63,23.47-18.56,23.47-18.56-35.53-14-17.29-42,44.17,23.89,44.17,23.89-1.6-30.19,24.11-26.46,22.41,26,22.41,26S675.06,621,637.72,636.84Z"/>
            <path class="cls-31" d="M639.42,632.46s-26.69,16.64-50.23,4.23,19.35-13,19.35-13-28.07-8.23-12.64-27.34,34.72,14.54,34.72,14.54-.41-19.95,20.1-18.23,17.21,16.59,17.21,16.59S669.81,620.92,639.42,632.46Z"/>
          </g>
          <g>
            <path class="cls-30" d="M316.89,705.28s-40.12,1.82-54.11-31.51,29.82-2.51,29.82-2.51-21.9-31.27,8.81-44.58S325,671,325,671s15.35-26,34.72-8.74S364,696.34,364,696.34,356.74,712.75,316.89,705.28Z"/>
            <path class="cls-31" d="M320.72,702.57s-31.43-.88-44.19-24.23,23.3-.12,23.3-.12S281,655.85,304.4,648.45s20.9,31.3,20.9,31.3,10.69-16.86,26.83-4.09S357.3,699,357.3,699,352.44,709.74,320.72,702.57Z"/>
          </g>
          <g>
            <path class="cls-30" d="M272.08,714.67S237.43,735,209.52,712s25.21-16.11,25.21-16.11-33.94-17.47-13-43.55,41.54,28.21,41.54,28.21,1.44-30.2,26.65-23.9,19.67,28.15,19.67,28.15S310.82,702.71,272.08,714.67Z"/>
            <path class="cls-31" d="M274.21,710.49s-28.23,13.87-50.4-.85,20.56-11,20.56-11-27.11-11-9.82-28.48,33.08,18,33.08,18,1.6-19.89,21.83-16.11,15.45,18.24,15.45,18.24S305.61,702.06,274.21,710.49Z"/>
          </g>
          <g>
            <path class="cls-31" d="M875.41,375.89s-84.61,30.51-23,38.72c0,0-4.93,64.34,30.91,23.34,0,0,31,26.74,27.87-17.66,0,0,41.41,13.44,19.83-15.45,0,0,20.51-8.47-5.35-17.4,0,0,52.28-11.2,3.92-21.53,0,0,28.72-27.41-17.23-21.47,0,0-24.44-25.18-27.89,5.17,0,0-41.24-7.61-15,21.62Z"/>
            <path class="cls-32" d="M873.15,368.85s-66.49,24-18,30.43c0,0-3.87,50.55,24.29,18.33,0,0,24.39,21,21.89-13.87,0,0,32.55,10.56,15.58-12.14,0,0,16.12-6.66-4.2-13.67,0,0,41.08-8.81,3.08-16.93,0,0,22.57-21.53-13.53-16.86,0,0-19.21-19.79-21.92,4.06,0,0-32.41-6-11.78,17Z"/>
            <path class="cls-33" d="M868.46,350.21S812,370.58,853.13,376.06c0,0-3.29,43,20.63,15.58,0,0,20.73,17.86,18.61-11.78,0,0,27.65,9,13.23-10.32,0,0,13.7-5.66-3.56-11.62,0,0,34.9-7.47,2.61-14.37,0,0,19.17-18.3-11.5-14.33,0,0-16.32-16.81-18.62,3.45,0,0-27.53-5.08-10,14.44Z"/>
          </g>
          <path class="cls-31" d="M1268.41,824.76s-83.31-22.4-42.58,17.3c0,0-45.89,46.74,7.82,34.66,0,0,5.68,37.36,32.43,1.54,0,0,22.17,32.75,25-1.13,0,0,20.9,4.61,7.41-16.25,0,0,46.46,19.71,17.06-14.42,0,0,39.46-5.49,1.19-25.81,0,0-1.77-32.58-24.26-11.14,0,0-25.86-28.19-25.4,8.48Z"/>
          <path class="cls-32" d="M1255.27,814s-71.64-21.43-34.49,14.53c0,0-35.1,40.57,9.12,30.88,0,0,7.53,33.22,27.36,2,0,0,21,29.45,20.89-.53,0,0,17.9,4.48,5-14.27,0,0,40.48,18.34,13.26-12.46,0,0,32.74-4.13-.91-22.86,0,0-3.89-28.91-21.2-10.33,0,0-23.8-25.47-20.7,7Z"/>
          <path class="cls-34" d="M786.31,382.55s-26.35-5.49-15.74-19,19,6.23,19,6.23-17-18.59-7.69-25.26,14.64,10.61,14.64,10.61-17.2-38.06,7-36.23,4,36.23,4,36.23,6.22-17.56,16.47-11.34-2.93,17.45-2.93,17.45,19.77-13.67,21.6,0-9.15,15.86-16.11,14.76c0,0,14.64,8.42-.37,14.64s-16.83-5.86-16.83-5.86,5.85,16.11-2.2,17.57S788.26,407.78,786.31,382.55Z"/>
          <path class="cls-32" d="M790.54,370.13S770,365.85,778.27,355.3s14.84,4.85,14.84,4.85-13.24-14.49-6-19.68,11.41,8.27,11.41,8.27S785.12,319.07,804,320.5s3.14,28.24,3.14,28.24,4.85-13.69,12.84-8.84-2.29,13.6-2.29,13.6,15.41-10.65,16.84,0-7.14,12.35-12.56,11.5c0,0,11.41,6.56-.28,11.41s-13.13-4.56-13.13-4.56,4.57,12.55-1.71,13.69S792.06,389.8,790.54,370.13Z"/>
          <path class="cls-35" d="M1186.19,329.29s-80.62,50.59-98.65,39.5c-8-4.9-24.77,12-41,32.37-24.92,31.23-52.79,55-80.71,68.17-30,14.13-78.35,45.45-150.25,114.44-140.41,134.73,25.15,80,25.15,80s86.68-164.66,240.93-184l22.74-13.37s-26.2-5.78-47.67-3.52,28.77-44,28.77-44,86.06-49.27,102.78-69.53S1186.19,329.29,1186.19,329.29Z"/>
          <path class="cls-34" d="M988.55,409.12s-35.74-7.44-21.35-25.81S993,391.75,993,391.75s-23-25.2-10.42-34.25,19.85,14.4,19.85,14.4-23.33-51.62,9.44-49.14,5.46,49.14,5.46,49.14,8.43-23.83,22.33-15.39-4,23.66-4,23.66,26.81-18.52,29.29,0-12.41,21.51-21.84,20c0,0,19.85,11.41-.5,19.85s-22.83-7.94-22.83-7.94,7.94,21.84-3,23.82S991.19,443.34,988.55,409.12Z"/>
          <path class="cls-32" d="M992.25,397.7s-27.86-5.8-16.64-20.11,20.12,6.57,20.12,6.57-18-19.64-8.12-26.69,15.47,11.22,15.47,11.22-18.18-40.23,7.35-38.29,4.26,38.29,4.26,38.29,6.57-18.57,17.41-12-3.1,18.44-3.1,18.44,20.89-14.44,22.82,0-9.67,16.76-17,15.6c0,0,15.48,8.9-.38,15.47s-17.8-6.19-17.8-6.19,6.19,17-2.32,18.57S994.31,424.37,992.25,397.7Z"/>
          <path class="cls-34" d="M1221.32,272.43s46.31-1.16,33.85,25.7-34.33-2.95-34.33-2.95,35.76,24.46,22.8,39.29-28.7-12-28.7-12,43.79,57,2.6,63.44-21-59.12-21-59.12-3.52,31.87-23.14,25.48-2-30.38-2-30.38-27.74,30.65-36.18,8.49,9.1-30.17,21.18-31.06c0,0-27.83-8.35-5.14-24.67s30.51,3.19,30.51,3.19-16.14-24.67-3.23-30.29S1208.14,230.92,1221.32,272.43Z"/>
          <path class="cls-32" d="M1209.71,275.64s36.09-.91,26.38,20-26.76-2.29-26.76-2.29,27.87,19.06,17.78,30.62-22.37-9.38-22.37-9.38,34.12,44.43,2,49.44S1190.4,318,1190.4,318s-2.74,24.84-18,19.86-1.52-23.68-1.52-23.68-21.62,23.89-28.2,6.61,7.09-23.5,16.51-24.2c0,0-21.7-6.51-4-19.23s23.78,2.49,23.78,2.49-12.58-19.23-2.52-23.61S1199.44,243.29,1209.71,275.64Z"/>
          <g>
            <path class="cls-30" d="M1000.36,438.23s-15.78,14.35-31.62.55,11.37-11.31,11.37-11.31-18.43-10-10-27.62,23.1,16.69,23.1,16.69-1.68-19.53,11.47-16.38,12.12,17.44,12.12,17.44S1018.85,429.11,1000.36,438.23Z"/>
            <path class="cls-31" d="M1001.09,435.45s-13.06,10-25.36,1.29,9.44-7.82,9.44-7.82-14.48-6.12-7.2-18,18,10.38,18,10.38-.78-12.88,9.67-11.18,9.21,11.2,9.21,11.2S1016.18,428.88,1001.09,435.45Z"/>
          </g>
          <g>
            <path class="cls-30" d="M1053.45,376.19s-19.29-9.1-12.58-29,14.79,6.19,14.79,6.19,2.24-20.86,21.71-19.77-6.6,27.72-6.6,27.72,17.41-9,19.53,4.34-11.49,17.86-11.49,17.86S1068.94,389.79,1053.45,376.19Z"/>
            <path class="cls-31" d="M1056.29,375.81s-14.2-8.27-10.87-22.95,10.84,5.74,10.84,5.74.12-15.72,13.89-13.53-2.71,20.63-2.71,20.63,11.61-5.64,14,4.67-6.83,12.79-6.83,12.79S1068.14,387.24,1056.29,375.81Z"/>
          </g>
          <path class="cls-34" d="M1088.34,440.43s-3.34-26.71,12.91-21.05.28,20,.28,20,12.08-22.09,21.4-15.46-5.29,17.29-5.29,17.29,30.44-28.61,36.53-5.16-33,15.55-33,15.55,18.63.19,16.07,11.9-17.46,2.89-17.46,2.89,19.33,14.27,7,20.43-18-3.52-19.18-10.45c0,0-3.22,16.57-14,4.39s.08-17.82.08-17.82-13.34,10.76-17.34,3.62S1065.1,450.45,1088.34,440.43Z"/>
          <path class="cls-32" d="M1101.46,440.41s-2.61-20.82,10-16.41.22,15.6.22,15.6,9.42-17.21,16.69-12-4.13,13.47-4.13,13.47,23.72-22.3,28.47-4-25.7,12.12-25.7,12.12,14.53.15,12.53,9.27-13.61,2.25-13.61,2.25,15.07,11.12,5.46,15.92-14-2.74-15-8.14c0,0-2.5,12.92-10.88,3.43s.06-13.9.06-13.9-10.39,8.39-13.51,2.82S1083.34,448.22,1101.46,440.41Z"/>
          <path class="cls-36" d="M953.13,506.84h1.42c1.09,0,2,.47,1.93,1.05s-.91,1.05-2,1.06h0c-40.7.19-65.7,5.59-66,5.64A2.7,2.7,0,0,1,886,514c-.39-.54.11-1.15,1.12-1.38S912.46,507.13,953.13,506.84Z"/>
          <path class="cls-37" d="M989.25,540.26a1.42,1.42,0,0,1,.57.12c.35.17,35.33,16.71,53.77,40a1.54,1.54,0,0,1-.19,2.06,1.32,1.32,0,0,1-1.94-.15c-18-22.83-52.46-39.11-52.81-39.27a1.47,1.47,0,0,1-.66-1.92A1.42,1.42,0,0,1,989.25,540.26Z"/>
          <path class="cls-36" d="M856.06,543.43a2.38,2.38,0,0,1,1.78.62c.43.53,0,1.16-1,1.4-37.56,9-76.38,30.07-76.76,30.28a3.3,3.3,0,0,1-2.78,0c-.77-.4-.77-1.07,0-1.49.4-.21,39.75-21.58,78-30.75A3.48,3.48,0,0,1,856.06,543.43Z"/>
          <path class="cls-37" d="M884.45,506.38a408.76,408.76,0,0,1,52.6,3.25c1.05.13,1.69.7,1.42,1.26a2.43,2.43,0,0,1-2.4.79c-39.48-4.89-65.94-2.69-66.2-2.66-1.08.09-2.07-.3-2.21-.87s.6-1.12,1.68-1.21C869.82,506.89,875.18,506.45,884.45,506.38Z"/>
          <path class="cls-37" d="M974.91,551.36c1,0,1.9.43,1.94,1s-.82,1.08-1.91,1.11c-57.78,1.75-144.65,23.23-145.52,23.45a2.79,2.79,0,0,1-2.59-.51c-.44-.52,0-1.15,1-1.4s88.44-21.87,147-23.64Z"/>
          <path class="cls-37" d="M817.3,551.85c71.49-.51,204.47,19.4,205.73,19.62,1,.18,1.57.77,1.21,1.32a2.63,2.63,0,0,1-2.48.69c-1.75-.27-145.93-21.89-213.74-19.32-1.07,0-2-.4-2-1s.79-1.09,1.88-1.13C810.86,551.94,814,551.87,817.3,551.85Z"/>
          <path class="cls-37" d="M1039.94,562.64c.92,0,1.73.34,1.9.84s-.5,1.13-1.57,1.25c-35.09,3.95-137.09,7.9-257,7.43-1.08,0-1.93-.48-1.9-1.07s.94-1.05,2-1c119.66.47,221.29-3.45,256.17-7.39Z"/>
          <path class="cls-37" d="M899.31,564.22c30.64-.21,55.21,1.43,74.84,2.74,21.29,1.42,36.67,2.44,47.72.37a2.58,2.58,0,0,1,2.48.65c.33.55-.23,1.15-1.27,1.34-11.93,2.24-27.69,1.18-49.51-.27-39.48-2.64-99.15-6.62-188.13,6.13-1.06.15-2.12-.18-2.38-.74s.4-1.14,1.45-1.3A847.18,847.18,0,0,1,899.31,564.22Z"/>
          <path class="cls-38" d="M791.81,559.25H792q25.11,1.08,48.55,2.11c94.85,4.14,169.76,7.42,199.12,5.27,1.08-.08,2.06.32,2.18.9s-.66,1.11-1.74,1.19c-29.79,2.18-101.18-.94-200-5.26l-48.54-2.11c-1.08-.05-1.86-.55-1.75-1.13S790.8,559.25,791.81,559.25Z"/>
          <path class="cls-39" d="M766.52,564.81c.37-16.24,65.05-58.8,143.66-59.35s141.37,41.09,141,57.32-63.66-2.15-142.27-1.59S766.15,581,766.52,564.81Z"/>
          <path class="cls-37" d="M931.61,557.74c39-.27,82.49,2.11,120.22,10.67,1,.22,1.44.84,1,1.38a2.86,2.86,0,0,1-2.59.56c-55.27-12.54-123.34-11.62-170.7-8.63-54.08,3.4-98.32,10.47-110,13.5a2.85,2.85,0,0,1-2.61-.48c-.45-.52,0-1.15,1-1.41,11.88-3.08,56.72-10.27,111.27-13.71C894.8,558.64,912.67,557.88,931.61,557.74Z"/>
          <path class="cls-37" d="M990.56,546.07a176.38,176.38,0,0,1,38,3.38,1.46,1.46,0,0,1-.6,2.85c-27.88-5.83-54.61-2.28-54.88-2.25a1.35,1.35,0,0,1-1.51-1.25,1.48,1.48,0,0,1,1.23-1.63A161.82,161.82,0,0,1,990.56,546.07Z"/>
          <path class="cls-37" d="M937.17,549.15a741.13,741.13,0,0,1,103.42,6.36c1.05.14,1.67.71,1.38,1.27a2.49,2.49,0,0,1-2.42.77c-56.2-7.51-115.27-8.33-175.55-2.42-52.84,5.17-87.21,13.66-93.57,15.31a2.83,2.83,0,0,1-2.6-.48c-.45-.52,0-1.15,1-1.41,6.43-1.67,41.24-10.27,94.59-15.5C888.22,550.62,912.86,549.32,937.17,549.15Z"/>
          <path class="cls-38" d="M901.5,556.2c44.32-.32,98.75,2.55,143.71,14.77,1,.26,1.33.9.82,1.42a3,3,0,0,1-2.66.47C990,558.35,922.89,557.23,876,558.84c-52.26,1.8-97.28,7.61-109.77,10.32a2.7,2.7,0,0,1-2.54-.58c-.38-.54.13-1.16,1.14-1.38,11.41-2.47,55.21-8.55,111-10.46C883.85,556.46,892.47,556.26,901.5,556.2Z"/>
          <path class="cls-38" d="M925.15,543.92l2.72,0c57.81-.29,107.16,3.42,107.65,3.45,1.07.09,1.79.62,1.61,1.2s-1.19,1-2.26.89c-.49,0-49.59-3.72-107.12-3.43l-2.62,0c-74.52.53-129.58,7.59-159.33,20.44a3.22,3.22,0,0,1-2.76-.15c-.67-.45-.52-1.11.34-1.48,17.25-7.45,42.35-13,74.58-16.49C862.94,545.64,892.26,544.15,925.15,543.92Z"/>
          <path class="cls-37" d="M911.75,513c25.58-.19,53.9,1.77,85.58,5.89,1,.14,1.67.71,1.39,1.27a2.47,2.47,0,0,1-2.41.78c-109-14.17-155.19.08-195.91,12.65l-1-.9-.91-.92c19.8-6.12,42.25-13.05,73.16-16.51A384.87,384.87,0,0,1,911.75,513Z"/>
          <path class="cls-37" d="M883.07,514.21c30.79-.22,69.74,2.6,132,14.67,1,.19,1.51.8,1.12,1.34a2.73,2.73,0,0,1-2.54.64C921.2,513,880.73,515.58,841.58,518.13c-3.19.21-6.39.42-9.61.61-1.08.07-2-.34-2.13-.92s.7-1.1,1.78-1.17l9.59-.61C854.38,515.18,867.71,514.31,883.07,514.21Z"/>
          <path class="cls-36" d="M921.8,509.67a454.74,454.74,0,0,1,48,2.17c1.06.11,1.74.66,1.52,1.23s-1.27.95-2.33.85c-49-4.88-101.59-1.36-144.23,9.67a2.83,2.83,0,0,1-2.6-.48c-.46-.53,0-1.16,1-1.41C852.75,514,887.11,509.92,921.8,509.67Z"/>
          <path class="cls-37" d="M897.81,539.42c1.09,0,2,.46,2,1s-.91,1.06-2,1.07c-40.69.29-65.66,5.77-65.91,5.83a2.73,2.73,0,0,1-2.54-.56c-.4-.54.1-1.16,1.11-1.38S856.29,539.71,897.81,539.42Z"/>
          <path class="cls-38" d="M930.21,547.36h.24c.47,0,47.36,2.81,85.9,10.35,1,.19,1.51.8,1.12,1.35a2.78,2.78,0,0,1-2.55.63c-38.11-7.46-84.53-10.21-85-10.23-1.08-.07-1.84-.59-1.69-1.16S929.23,547.37,930.21,547.36Z"/>
          <path class="cls-38" d="M966.33,518.83c9.41-.06,20.5.18,33,1,1.07.07,1.81.59,1.65,1.17s-1.16,1-2.24.92c-40.24-2.69-66.28.94-66.54,1-1.05.15-2.12-.18-2.37-.75s.39-1.14,1.45-1.29C932,520.77,944.79,519,966.33,518.83Z"/>
          <path class="cls-37" d="M922.27,519.66c1.09,0,2,.46,1.94,1s-.9,1.06-2,1.07c-40.68.29-65.65,5.77-65.9,5.83a2.76,2.76,0,0,1-2.55-.56c-.39-.54.1-1.16,1.11-1.38S880.75,520,922.27,519.66Z"/>
          <path class="cls-38" d="M859.81,523.6c51.6-.37,128,1.84,176.53,15.79.94.27,1.28.91.75,1.42a3,3,0,0,1-2.68.44c-70.05-20.13-199.6-15.44-224.86-14.3l-1,0c-1.09,0-1.95-.45-1.94-1s.88-1,1.94-1.06l.79,0C817.37,524.49,835.94,523.77,859.81,523.6Z"/>
          <path class="cls-37" d="M891.72,535.75c32.9-.23,62.16.84,87,3.19,32.09,3,56.94,8.23,73.86,15.43.84.36,1,1,.27,1.48a3.23,3.23,0,0,1-2.76.19c-29.18-12.43-83.95-18.71-158.46-18.18l-2.62,0c-57.53.53-106.81,4.91-107.3,5-1.08.1-2.07-.29-2.23-.86s.6-1.12,1.67-1.22c.49,0,50-4.45,107.84-5Z"/>
          <path class="cls-38" d="M876.17,530.78a616,616,0,0,1,90.68,5.79c47.71,6.78,77.59,17.78,86,25.67.54.5.2,1.15-.74,1.45a3,3,0,0,1-2.68-.36c-8.06-7.53-37.07-18.1-83.72-24.72-37.46-5.32-97.88-9.65-173-.07-1.06.13-2.1-.22-2.33-.78s.46-1.14,1.52-1.28A707.34,707.34,0,0,1,876.17,530.78Z"/>
          <path class="cls-37" d="M944.87,528.81c26.15-.18,54.64,1.32,82.44,6,1,.17,1.58.76,1.22,1.32a2.67,2.67,0,0,1-2.49.69c-62.76-10.64-129.25-4.65-163.3-.13-52.74,7-88.4,18-96.37,25.24a3.06,3.06,0,0,1-2.69.4c-.93-.28-1.24-.93-.68-1.43,10-9,50.61-19.85,98.89-26.26A681.51,681.51,0,0,1,944.87,528.81Z"/>
          <path class="cls-36" d="M912,539.32c1.09,0,2,.46,2,1s-.91,1.06-2,1.07c-101.63.72-133.06,6.87-133.37,6.94a2.65,2.65,0,0,1-2.5-.61c-.37-.55.17-1.16,1.19-1.36C778.56,546.14,809.68,540,912,539.32Z"/>
          <path class="cls-37" d="M872.74,549.43c17.2-.13,44.3.43,68.83,4.19,1,.15,1.61.74,1.29,1.3a2.58,2.58,0,0,1-2.46.72c-38.92-5.95-84.55-3.72-85-3.7-1.07.06-2-.37-2.1-1s.74-1.09,1.82-1.14C855.3,549.84,862.15,549.5,872.74,549.43Z"/>
          <path class="cls-37" d="M917.67,559.9c19.58-.14,58.26.37,86.27,5.73,1,.19,1.52.8,1.13,1.35a2.78,2.78,0,0,1-2.54.64c-38.06-7.29-96.54-5.43-97.13-5.41-1.1,0-2-.4-2-1s.8-1.09,1.89-1.12C905.42,560.1,910.13,560,917.67,559.9Z"/>
          <ellipse class="cls-40" cx="912.15" cy="585.63" rx="102.21" ry="34.92"/>
          <path class="cls-41" d="M996.1,598.16c-1.18-.94,40.7-22.08-21.19-46.8,0,0,117.23-42,82.79,37.84C1057.7,589.2,1020.83,617.88,996.1,598.16Z"/>
          <path class="cls-42" d="M976.85,552.35s48,18.1,27.8,41.09"/>
          <path class="cls-43" d="M980.3,545.65c23-6.67,69,20.9,26.54,48.8"/>
          <path class="cls-42" d="M971.71,551.84c23-6.67,70.74,17.08,28.25,45"/>
          <path class="cls-42" d="M990,549.19c23-6.67,68,10.41,25.52,38.32"/>
          <path class="cls-43" d="M1021.51,541.37c44.5,0,60.22,17.57,17.73,45.48"/>
          <path class="cls-43" d="M1014.35,544.68c44.5,0,60.22,17.57,17.74,45.48"/>
          <path class="cls-43" d="M1007.31,547.81c44.5,0,60.21,17.57,17.73,45.48"/>
          <path class="cls-42" d="M1005.2,543.89c8.85-1.34,62.33,12.9,24.77,42.37"/>
          <path class="cls-42" d="M1030.79,553.28c50.59,9.09,40.36,23-11.18,43"/>
          <path class="cls-36" d="M960.29,614.26a2.17,2.17,0,0,1-1.85-.71c-.44-.64,0-1.41,1.06-1.73,38.57-11.87,78.3-38.51,78.69-38.78a2.94,2.94,0,0,1,2.87-.11,1,1,0,0,1,0,1.82c-.4.27-40.67,27.28-80,39.38A3.26,3.26,0,0,1,960.29,614.26Z"/>
          <path class="cls-37" d="M931.49,660.14a356.56,356.56,0,0,1-54.22-2.71c-1.08-.13-1.74-.8-1.47-1.5a2.36,2.36,0,0,1,2.45-1c40.72,5,68,1.71,68.22,1.67,1.11-.14,2.13.32,2.29,1s-.61,1.38-1.72,1.52C946.54,659.16,941,659.84,931.49,660.14Z"/>
          <path class="cls-36" d="M952.65,636.16a394.61,394.61,0,0,1-49.43-1.49c-1.1-.11-1.81-.76-1.58-1.47a2.27,2.27,0,0,1,2.39-1.08c50.54,4.78,104.64-.78,148.42-15.26a2.58,2.58,0,0,1,2.69.53c.47.63,0,1.41-1,1.74C1023.71,629.2,988.37,635,952.65,636.16Z"/>
          <path class="cls-37" d="M917.33,620.16c-1.12,0-2-.52-2-1.23s.91-1.31,2-1.35c41.9-1.32,67.55-8.61,67.8-8.69a2.46,2.46,0,0,1,2.63.63c.42.64-.08,1.41-1.12,1.71S960.09,618.8,917.33,620.16Z"/>
          <path class="cls-37" d="M892.37,644.85c-1.11,0-2-.52-2-1.23s.92-1.31,2-1.35c41.9-1.32,67.55-8.61,67.8-8.69a2.46,2.46,0,0,1,2.63.63c.42.64-.09,1.41-1.13,1.71S935.14,643.49,892.37,644.85Z"/>
          <path class="cls-36" d="M902.72,620.62c-1.12,0-2-.51-2-1.22s.92-1.32,2-1.35c104.66-3.32,137-11.58,137.26-11.66a2.39,2.39,0,0,1,2.59.68c.38.65-.16,1.41-1.21,1.69C1040.07,609.1,1008.09,617.28,902.72,620.62Z"/>
          <path class="cls-37" d="M942,639.62c-17.72.63-45.63.26-71-6a1.84,1.84,0,0,1-1.35-2.34,2.13,2.13,0,0,1,2.52-1.39c40.19,9.91,87.14,4.76,87.61,4.71a1.89,1.89,0,0,1,2.17,1.67,2,2,0,0,1-1.85,2.14C959.9,638.45,952.86,639.23,942,639.62Z"/>
          <path class="cls-44" d="M818,598.68c1.1-.87-30.9-17.47,27-40.42-18.3-45.33-119.42-22.54-91.36,32.58C753.6,590.84,794.81,617,818,598.68Z"/>
          <path class="cls-42" d="M839.16,547.44c-5.12.09-56.75,25.32-34,46.59"/>
          <path class="cls-42" d="M853.3,551s-68.24,3.4-39.73,46.21"/>
          <path class="cls-43" d="M835.74,543.36c-21.49-6.19-75,27.93-35.26,53.84"/>
          <path class="cls-42" d="M841.54,545.65c-21.49-6.19-74.12,27.75-34.37,53.66"/>
          <path class="cls-42" d="M828.06,540.09c-19,1.1-72.28,32-34.87,51.13"/>
          <path class="cls-43" d="M809.94,535.72c-44.11-4.8-75.72,25.66-36,51.56"/>
          <path class="cls-42" d="M823.24,537.9c-17.65-7-105.87,18.1-30.06,54.76"/>
          <path class="cls-42" d="M826,539.07c-8.28-1.24-78.48,20.32-43.34,47.66"/>
          <path class="cls-36" d="M860.75,661.22l-1.47,0c-1.11,0-2-.52-2-1.23s.93-1.31,2-1.35h0c41.91-1.2,67.6-8.38,67.86-8.46a2.46,2.46,0,0,1,2.62.64c.41.64-.1,1.41-1.14,1.7S902.63,659.9,860.75,661.22Z"/>
          <path class="cls-37" d="M823.15,621.32a1.14,1.14,0,0,1-.59-.14c-.36-.19-36.58-19.53-55.85-47.55a2.12,2.12,0,0,1,.18-2.51,1.22,1.22,0,0,1,2,.14c18.85,27.42,54.49,46.45,54.85,46.64a1.92,1.92,0,0,1,.71,2.32A1.51,1.51,0,0,1,823.15,621.32Z"/>
          <path class="cls-37" d="M836.7,638.54a1.89,1.89,0,0,1-2-1.76,2.06,2.06,0,0,1,1.94-2.07c59.48-4.56,148.57-45.76,149.46-46.17a2,2,0,0,1,2.68.86,2,2,0,0,1-1,2.58c-.9.41-90.7,41.94-151,46.56Z"/>
          <path class="cls-37" d="M999,633.88c-73.61,2.63-210.92-30.44-212.21-30.8a1.84,1.84,0,0,1-1.28-2.39,2.14,2.14,0,0,1,2.54-1.31c1.82.46,150.68,36.36,220.46,30.07a1.92,1.92,0,0,1,2.14,1.74,2.06,2.06,0,0,1-1.92,2.09C1005.64,633.56,1002.38,633.76,999,633.88Z"/>
          <path class="cls-37" d="M769.53,619.56a1.91,1.91,0,0,1-2-1.48,2,2,0,0,1,1.6-2.31c36.06-8,141-17.67,264.56-19.68a1.87,1.87,0,0,1,2,1.88,2.07,2.07,0,0,1-2.07,2c-123.23,2-227.83,11.58-263.69,19.58A2.6,2.6,0,0,1,769.53,619.56Z"/>
          <path class="cls-37" d="M914.33,613.31c-31.56,1.13-56.89-1.27-77.13-3.18-22-2.08-37.8-3.58-49.15.45a1.91,1.91,0,1,1-1.28-3.59c12.25-4.36,28.5-2.82,51-.69,40.7,3.85,102.22,9.68,193.63-15.67a2,2,0,0,1,2.46,1.3,2,2,0,0,1-1.47,2.39C985.69,607.26,946.73,612.15,914.33,613.31Z"/>
          <path class="cls-38" d="M1025.12,619.8h-.18q-25.89-1.37-50-2.68c-97.75-5.28-175-9.44-205.16-4.83a1.93,1.93,0,0,1-2.26-1.59,2,2,0,0,1,1.77-2.2c30.64-4.68,104.22-.71,206,4.79q24.11,1.29,50,2.67a1.86,1.86,0,0,1,1.82,2A2.09,2.09,0,0,1,1025.12,619.8Z"/>
          <path class="cls-38" d="M1063.36,583.33c-.2,21.32-15,77.94-158.44,81.61-138.23,3.53-159-65.79-158.84-87.11S815.28,618,906.7,611C1031.9,601.34,1063.56,562,1063.36,583.33Z"/>
          <path class="cls-37" d="M881.18,625.88c-40.16,1.44-85-1.85-124-16.54a1.83,1.83,0,0,1-1-2.49,2.12,2.12,0,0,1,2.66-1.09c57.14,21.51,127.22,18.2,176,11.64,55.63-7.5,101.07-21.43,113-27.23a2,2,0,0,1,2.69.82,1.94,1.94,0,0,1-1,2.59c-12.18,5.9-58.23,20.06-114.35,27.62C919.07,623.37,900.67,625.18,881.18,625.88Z"/>
          <path class="cls-37" d="M811.05,601.43a174.42,174.42,0,0,1-38-15.34,2.07,2.07,0,0,1-.81-2.36,1.26,1.26,0,0,1,1.83-.89,173.48,173.48,0,0,0,55.2,19,1.79,1.79,0,0,1,1.34,1.95c0,1-.7,1.69-1.48,1.59A149.4,149.4,0,0,1,811.05,601.43Z"/>
          <path class="cls-37" d="M793.86,602.46a173.41,173.41,0,0,1-38-15.34,2.07,2.07,0,0,1-.81-2.36,1.26,1.26,0,0,1,1.83-.89,173.4,173.4,0,0,0,55.2,19,1.81,1.81,0,0,1,1.34,2c0,1-.7,1.7-1.48,1.6A148.46,148.46,0,0,1,793.86,602.46Z"/>
          <path class="cls-37" d="M789.77,610a173.81,173.81,0,0,1-38-15.34,2.07,2.07,0,0,1-.8-2.36,1.26,1.26,0,0,1,1.83-.88,172.86,172.86,0,0,0,55.2,19,1.81,1.81,0,0,1,1.34,2c0,1-.7,1.69-1.48,1.59A148.8,148.8,0,0,1,789.77,610Z"/>
          <path class="cls-37" d="M875.6,641.67A436.45,436.45,0,0,1,769,632.56a1.83,1.83,0,0,1-1.44-2.29,2.11,2.11,0,0,1,2.47-1.46c58,12.34,118.86,12.41,180.84.22,54.33-10.69,89.57-27,96.09-30.13a2,2,0,0,1,2.69.82,1.93,1.93,0,0,1-1,2.59c-6.6,3.19-42.29,19.69-97.14,30.48A483.36,483.36,0,0,1,875.6,641.67Z"/>
          <path class="cls-38" d="M912.21,628c-45.63,1.64-101.75-2.27-148.27-23.46a1.82,1.82,0,0,1-.86-2.55,2.13,2.13,0,0,1,2.73-.93c55.21,25.14,124.36,25.58,172.64,21.52,53.78-4.52,100-16.17,112.86-21.41a2,2,0,0,1,2.63,1,2,2,0,0,1-1.15,2.53c-11.71,4.78-56.71,16.89-114.15,21.72C930.38,627.07,921.51,627.64,912.21,628Z"/>
          <path class="cls-38" d="M889.12,615.32l-2.79.08c-59.54,1.74-110.4-1.59-110.91-1.63-1.1-.07-1.86-.71-1.68-1.41s1.22-1.22,2.32-1.15c.51,0,51.12,3.35,110.36,1.62l2.7-.08c76.74-2.43,133.35-12.36,163.85-28.75a2.86,2.86,0,0,1,2.84.11c.69.53.54,1.35-.34,1.82-17.67,9.5-43.45,16.87-76.61,21.9C953.17,611.73,923,614.25,889.12,615.32Z"/>
          <path class="cls-38" d="M900.81,635.69l-2.79.08c-59.54,1.74-110.41-1.6-110.91-1.63-1.11-.07-1.86-.71-1.68-1.42s1.22-1.21,2.32-1.14c.51,0,51.11,3.35,110.36,1.62l2.7-.08c76.74-2.44,133.35-12.36,163.84-28.75a2.83,2.83,0,0,1,2.85.11c.69.53.54,1.34-.34,1.81-17.67,9.51-43.45,16.88-76.61,21.91C964.86,632.1,934.68,634.61,900.81,635.69Z"/>
          <path class="cls-37" d="M903.29,652.78c-26.34.84-55.53-.87-88.2-5.14-1.08-.14-1.73-.82-1.45-1.52a2.35,2.35,0,0,1,2.47-1c112.47,14.68,159.83-3.81,201.62-20.12l1,1.07,1,1.1c-20.32,7.93-43.36,16.93-75.15,21.89A336.58,336.58,0,0,1,903.29,652.78Z"/>
          <path class="cls-37" d="M930.42,654.33c-26.35.83-55.54-.88-88.21-5.15-1.08-.14-1.73-.82-1.45-1.51a2.37,2.37,0,0,1,2.47-1c112.47,14.68,159.83-3.81,201.62-20.12l1,1.07,1,1.1c-20.32,7.94-43.36,16.93-75.15,21.89A338.33,338.33,0,0,1,930.42,654.33Z"/>
          <path class="cls-37" d="M932.82,650.56c-31.71,1-71.86-1.51-136.14-14.74-1-.21-1.57-.94-1.18-1.61a2.56,2.56,0,0,1,2.61-.84c95.45,19.63,137.1,15.45,177.38,11.41l9.89-1c1.11-.11,2.1.38,2.21,1.08s-.71,1.36-1.83,1.47c-3.3.31-6.58.64-9.86,1C962.34,648.68,948.63,650.06,932.82,650.56Z"/>
          <path class="cls-36" d="M893,657a394.67,394.67,0,0,1-49.43-1.49c-1.1-.11-1.8-.76-1.58-1.46a2.27,2.27,0,0,1,2.39-1.09c50.55,4.78,104.64-.78,148.42-15.26a2.57,2.57,0,0,1,2.69.53c.47.63,0,1.41-1,1.75C964,650.05,928.7,655.88,893,657Z"/>
          <path class="cls-38" d="M883.87,611.24h-.24c-.49,0-48.81-2.29-88.6-10.57-1-.22-1.56-.94-1.16-1.62a2.56,2.56,0,0,1,2.61-.83c39.34,8.18,87.18,10.42,87.66,10.45,1.11.05,1.89.66,1.75,1.37S884.88,611.21,883.87,611.24Z"/>
          <path class="cls-38" d="M847,646.91c-9.69.3-21.11.27-34-.45-1.11-.06-1.88-.68-1.72-1.39s1.18-1.23,2.29-1.17c41.48,2.31,68.25-2.74,68.52-2.79a2.2,2.2,0,0,1,2.45.85c.27.68-.39,1.4-1.47,1.61C882.32,643.72,869.19,646.2,847,646.91Z"/>
          <path class="cls-38" d="M956.66,638.55c-53.14,1.68-131.83.82-182-15-1-.31-1.33-1.08-.79-1.72a2.77,2.77,0,0,1,2.75-.6c72.38,22.88,205.75,14.06,231.75,12.06l1-.08c1.11,0,2,.52,2,1.23s-.89,1.29-2,1.34l-.81.07C1000.36,636.44,981.24,637.77,956.66,638.55Z"/>
          <path class="cls-37" d="M923.64,624.49c-33.87,1.07-64,.46-89.65-1.81-33.08-2.94-58.74-8.68-76.25-17.06-.86-.42-1-1.23-.3-1.8a2.89,2.89,0,0,1,2.85-.29c30.2,14.46,86.67,20.81,163.4,18.38l2.7-.09c59.25-2,109.95-8.54,110.45-8.61,1.11-.14,2.14.31,2.3,1s-.6,1.38-1.7,1.52c-.51.07-51.46,6.63-111,8.66Z"/>
          <path class="cls-38" d="M939.72,630.18a537.35,537.35,0,0,1-93.45-4.9c-49.22-7.12-80.12-19.83-88.92-29.26-.56-.59-.22-1.39.75-1.78a2.7,2.7,0,0,1,2.76.38c8.39,9,38.39,21.18,86.51,28.15,38.64,5.59,100.92,9.43,178.21-4,1.09-.19,2.17.21,2.41.89s-.46,1.4-1.55,1.59A619.14,619.14,0,0,1,939.72,630.18Z"/>
          <path class="cls-38" d="M924.58,606.26a535.55,535.55,0,0,1-93.46-4.9c-49.21-7.12-80.11-19.82-88.91-29.25-.56-.6-.22-1.4.75-1.78a2.7,2.7,0,0,1,2.76.37c8.39,9,38.39,21.19,86.51,28.15,38.64,5.59,100.92,9.43,178.21-4.05,1.09-.19,2.17.21,2.41.89s-.46,1.4-1.55,1.59A619.14,619.14,0,0,1,924.58,606.26Z"/>
          <path class="cls-38" d="M918.52,616.08a536.57,536.57,0,0,1-93.45-4.89c-49.22-7.13-80.12-19.83-88.92-29.26-.55-.6-.22-1.4.75-1.78a2.7,2.7,0,0,1,2.76.37c8.39,9,38.39,21.19,86.51,28.15,38.64,5.59,100.92,9.43,178.21-4,1.09-.19,2.17.21,2.41.9s-.45,1.39-1.54,1.58A617.77,617.77,0,0,1,918.52,616.08Z"/>
          <path class="cls-37" d="M869,634.22c-26.93.85-56.28-.29-85-5.38-1.06-.18-1.63-.89-1.28-1.58a2.52,2.52,0,0,1,2.56-.9c64.77,11.47,133.17,2.57,168.18-3.75,54.24-9.8,90.83-24.07,99-33.1a2.8,2.8,0,0,1,2.77-.56c1,.33,1.28,1.11.71,1.74C1045.78,602,1004,616.11,954.38,625.08A595.39,595.39,0,0,1,869,634.22Z"/>
          <path class="cls-37" d="M1048.67,587c-17.31,5.84-44.76,13.7-70.39,15a1.52,1.52,0,0,1-1.62-1.89,2.6,2.6,0,0,1,2.31-2.1c40.67-2.12,86.13-21,86.58-21.2a1.6,1.6,0,0,1,2.34,1,2.49,2.49,0,0,1-1.56,2.64C1066.16,580.61,1059.34,583.44,1048.67,587Z"/>
          <path class="cls-37" d="M888.76,614.69c-20.16.72-60,.72-88.94-8.37a1.82,1.82,0,0,1-1.19-2.42,2.13,2.13,0,0,1,2.6-1.23c39.32,12.35,99.52,7.57,100.12,7.51a1.89,1.89,0,0,1,2.12,1.75,2.05,2.05,0,0,1-1.93,2.08C901.37,614,896.52,614.41,888.76,614.69Z"/>
          <path class="cls-45" d="M776,632.37s-14.84,18.58,21.79,29,92.87,19.85,158.62,11.91,96.47-44.33,100.43-48.23c7.11-7-.87-28-4.23-9.71C1016.85,672.57,828.06,685.66,776,632.37Z"/>
        </g>
      </g>
    </g>
  </g>
</svg>
