<svg xmlns="http://www.w3.org/2000/svg" xmlns:xlink="http://www.w3.org/1999/xlink" width="1600" height="900" viewBox="0 0 1600 900">
  <defs>
    <style>
      .cls-1, .cls-74, .cls-75 {
        fill: none;
      }

      .cls-2 {
        isolation: isolate;
      }

      .cls-3 {
        clip-path: url(#clip-path);
      }

      .cls-4 {
        clip-path: url(#clip-path-2);
      }

      .cls-5 {
        fill: url(#linear-gradient);
      }

      .cls-6, .cls-7 {
        fill: #bfd9f1;
      }

      .cls-37, .cls-7 {
        opacity: 0.56;
      }

      .cls-8 {
        fill: url(#linear-gradient-2);
      }

      .cls-9 {
        fill: #207d78;
      }

      .cls-77, .cls-9 {
        opacity: 0.36;
      }

      .cls-10 {
        fill: url(#linear-gradient-3);
      }

      .cls-11 {
        fill: #392512;
      }

      .cls-12 {
        fill: #1c0e2c;
      }

      .cls-13 {
        fill: #895c3a;
      }

      .cls-14 {
        fill: url(#linear-gradient-4);
      }

      .cls-15 {
        fill: url(#linear-gradient-5);
      }

      .cls-16 {
        opacity: 0.65;
      }

      .cls-17 {
        fill: url(#linear-gradient-6);
      }

      .cls-18 {
        fill: url(#linear-gradient-7);
      }

      .cls-19 {
        fill: #2a6b2a;
      }

      .cls-20 {
        fill: #512c10;
      }

      .cls-21 {
        fill: #229f49;
      }

      .cls-22, .cls-23 {
        fill: #267f5f;
      }

      .cls-22 {
        opacity: 0.17;
      }

      .cls-24 {
        fill: #182d25;
        opacity: 0.31;
      }

      .cls-25 {
        fill: #fbf5b6;
      }

      .cls-26 {
        clip-path: url(#clip-path-3);
      }

      .cls-27 {
        clip-path: url(#clip-path-4);
      }

      .cls-28 {
        clip-path: url(#clip-path-5);
      }

      .cls-29 {
        fill: url(#linear-gradient-8);
      }

      .cls-30 {
        fill: url(#linear-gradient-9);
      }

      .cls-31 {
        fill: #86e3d0;
      }

      .cls-32 {
        fill: url(#linear-gradient-10);
      }

      .cls-33 {
        fill: #73d35f;
      }

      .cls-34 {
        fill: #3d823a;
      }

      .cls-35 {
        fill: #3dbf47;
      }

      .cls-36 {
        fill: url(#linear-gradient-11);
      }

      .cls-37 {
        fill: #c28a73;
      }

      .cls-38 {
        fill: #ce856b;
      }

      .cls-39 {
        fill: #3beaa2;
      }

      .cls-40 {
        fill: url(#linear-gradient-12);
      }

      .cls-41 {
        fill: url(#linear-gradient-13);
      }

      .cls-42 {
        fill: url(#linear-gradient-14);
      }

      .cls-43 {
        fill: #0c8e34;
      }

      .cls-44 {
        fill: #09a53f;
      }

      .cls-45 {
        fill: #4c4a47;
      }

      .cls-46 {
        fill: #368931;
      }

      .cls-47 {
        fill: #3a3937;
      }

      .cls-48 {
        fill: #7f7f7e;
      }

      .cls-49 {
        fill: #4f4f4e;
        opacity: 0.4;
      }

      .cls-50 {
        clip-path: url(#clip-path-6);
      }

      .cls-51 {
        fill: url(#linear-gradient-15);
      }

      .cls-52 {
        fill: url(#linear-gradient-16);
      }

      .cls-53 {
        fill: url(#linear-gradient-17);
      }

      .cls-54 {
        fill: #77491e;
        stroke: #382110;
        stroke-width: 0.75px;
      }

      .cls-54, .cls-74, .cls-75 {
        stroke-miterlimit: 10;
      }

      .cls-55 {
        fill: #825024;
      }

      .cls-56 {
        fill: #733c19;
      }

      .cls-57, .cls-59 {
        mix-blend-mode: screen;
      }

      .cls-57 {
        opacity: 0.5;
      }

      .cls-58, .cls-59 {
        fill: #dc8035;
      }

      .cls-59 {
        opacity: 0.24;
      }

      .cls-60 {
        fill: #2a5026;
      }

      .cls-61 {
        fill: #2e6633;
      }

      .cls-62 {
        fill: url(#linear-gradient-18);
      }

      .cls-63 {
        fill: #2b6331;
      }

      .cls-64 {
        fill: #6dad44;
        opacity: 0.42;
      }

      .cls-65 {
        fill: #569d44;
      }

      .cls-66 {
        fill: #30793b;
      }

      .cls-67 {
        fill: #7c481d;
      }

      .cls-68 {
        fill: #d5b386;
      }

      .cls-69 {
        fill: #936d29;
      }

      .cls-70 {
        fill: #bb8a40;
      }

      .cls-71 {
        fill: #a06d35;
      }

      .cls-72 {
        fill: #744e1f;
      }

      .cls-73 {
        fill: #b68038;
      }

      .cls-74 {
        stroke: #936d29;
      }

      .cls-74, .cls-75 {
        stroke-width: 2px;
      }

      .cls-75 {
        stroke: #d5b386;
      }

      .cls-76 {
        fill: #ae7c36;
      }
    </style>
    <clipPath id="clip-path">
      <rect class="cls-1" x="-1050" width="800" height="900"/>
    </clipPath>
    <clipPath id="clip-path-2">
      <rect class="cls-1" x="-1210" width="1600" height="900"/>
    </clipPath>
    <linearGradient id="linear-gradient" x1="-403.01" y1="-185.44" x2="-403.01" y2="309.04" gradientUnits="userSpaceOnUse">
      <stop offset="0.01" stop-color="#89a4d5"/>
      <stop offset="1" stop-color="#d7def0"/>
    </linearGradient>
    <linearGradient id="linear-gradient-2" x1="-402.64" y1="912.79" x2="-402.64" y2="305.57" gradientUnits="userSpaceOnUse">
      <stop offset="0.32" stop-color="#89c159"/>
      <stop offset="0.48" stop-color="#85bd58"/>
      <stop offset="0.64" stop-color="#7ab355"/>
      <stop offset="0.8" stop-color="#67a151"/>
      <stop offset="0.95" stop-color="#4c884b"/>
      <stop offset="1" stop-color="#417e48"/>
    </linearGradient>
    <linearGradient id="linear-gradient-3" x1="-622" y1="-158.12" x2="-165.89" y2="631.89" gradientUnits="userSpaceOnUse">
      <stop offset="0.02" stop-color="#6aa587"/>
      <stop offset="0.59" stop-color="#4c7d7d"/>
      <stop offset="0.7" stop-color="#49797c"/>
      <stop offset="0.82" stop-color="#406c79"/>
      <stop offset="0.93" stop-color="#315673"/>
      <stop offset="1" stop-color="#26476f"/>
    </linearGradient>
    <linearGradient id="linear-gradient-4" x1="98.4" y1="427.55" x2="98.43" y2="427.55" gradientUnits="userSpaceOnUse">
      <stop offset="0.03" stop-color="#89c159"/>
      <stop offset="0.2" stop-color="#77b155"/>
      <stop offset="0.52" stop-color="#5a954e"/>
      <stop offset="0.8" stop-color="#47844a"/>
      <stop offset="1" stop-color="#417e48"/>
    </linearGradient>
    <linearGradient id="linear-gradient-5" x1="-649.24" y1="444.01" x2="463.72" y2="444.01" xlink:href="#linear-gradient-4"/>
    <linearGradient id="linear-gradient-6" x1="459.83" y1="972.85" x2="459.86" y2="972.85" gradientTransform="matrix(1.28, 0, 0, 1.5, -544.39, -718.33)" xlink:href="#linear-gradient-4"/>
    <linearGradient id="linear-gradient-7" x1="-225.63" y1="987.33" x2="794.76" y2="987.33" gradientTransform="matrix(1.28, 0, 0, 1.5, -544.39, -718.33)" xlink:href="#linear-gradient-4"/>
    <clipPath id="clip-path-3">
      <rect class="cls-1" x="1850" width="800" height="900"/>
    </clipPath>
    <clipPath id="clip-path-4">
      <rect class="cls-1" x="1279.64" y="-6.7" width="1623.83" height="913.4"/>
    </clipPath>
    <clipPath id="clip-path-5">
      <rect class="cls-1" x="1279.64" y="-7.02" width="1623.83" height="914.04"/>
    </clipPath>
    <linearGradient id="linear-gradient-8" x1="600.32" y1="466.22" x2="2248.92" y2="466.22" gradientUnits="userSpaceOnUse">
      <stop offset="0.15" stop-color="#9af460"/>
      <stop offset="0.39" stop-color="#8aea6b"/>
      <stop offset="0.86" stop-color="#61d088"/>
      <stop offset="0.9" stop-color="#5dce8b"/>
    </linearGradient>
    <linearGradient id="linear-gradient-9" x1="2083.69" y1="920.39" x2="2079.3" y2="-490.77" gradientUnits="userSpaceOnUse">
      <stop offset="0.32" stop-color="#bdfffd"/>
      <stop offset="0.44" stop-color="#b7fafb"/>
      <stop offset="0.59" stop-color="#a7edf7"/>
      <stop offset="0.76" stop-color="#8cd7ef"/>
      <stop offset="0.93" stop-color="#68bae5"/>
    </linearGradient>
    <linearGradient id="linear-gradient-10" x1="1180.15" y1="369.98" x2="1198.74" y2="318.88" gradientTransform="matrix(-1, 0, 0, 1, 2484.56, 0)" gradientUnits="userSpaceOnUse">
      <stop offset="0.16" stop-color="#129ea2"/>
      <stop offset="0.16" stop-color="#149fa3"/>
      <stop offset="0.25" stop-color="#37b4b1"/>
      <stop offset="0.34" stop-color="#54c5bc"/>
      <stop offset="0.43" stop-color="#6ad2c5"/>
      <stop offset="0.53" stop-color="#7adccb"/>
      <stop offset="0.65" stop-color="#83e1cf"/>
      <stop offset="0.81" stop-color="#86e3d0"/>
    </linearGradient>
    <linearGradient id="linear-gradient-11" x1="-244.82" y1="630.8" x2="-253.82" y2="169.5" gradientTransform="matrix(-1, 0, 0, 1, 1287.27, 0)" gradientUnits="userSpaceOnUse">
      <stop offset="0" stop-color="#907d61"/>
      <stop offset="0.36" stop-color="#6d6b4d"/>
      <stop offset="0.58" stop-color="#5e6345"/>
    </linearGradient>
    <linearGradient id="linear-gradient-12" x1="-93.93" y1="265.53" x2="-361.9" y2="-369.4" gradientTransform="matrix(-1, 0, 0, 1, 1287.27, 0)" gradientUnits="userSpaceOnUse">
      <stop offset="0.26" stop-color="#55b093"/>
      <stop offset="0.39" stop-color="#61c489"/>
      <stop offset="0.56" stop-color="#6ddb7d"/>
      <stop offset="0.68" stop-color="#72e379"/>
    </linearGradient>
    <linearGradient id="linear-gradient-13" x1="362.38" y1="408.92" x2="64.18" y2="116.88" gradientTransform="matrix(-1, 0, 0, 1, 1287.27, 0)" gradientUnits="userSpaceOnUse">
      <stop offset="0.23" stop-color="#2fac76"/>
      <stop offset="0.54" stop-color="#31ad79"/>
      <stop offset="0.74" stop-color="#36b281"/>
      <stop offset="0.88" stop-color="#3db98e"/>
    </linearGradient>
    <linearGradient id="linear-gradient-14" x1="-113.67" y1="355.39" x2="-237.25" y2="-69.92" gradientTransform="matrix(-1, 0, 0, 1, 1287.27, 0)" gradientUnits="userSpaceOnUse">
      <stop offset="0.07" stop-color="#39a57e"/>
      <stop offset="0.67" stop-color="#72e379"/>
    </linearGradient>
    <clipPath id="clip-path-6">
      <rect class="cls-1" y="3" width="1600.17" height="900"/>
    </clipPath>
    <linearGradient id="linear-gradient-15" x1="-544.3" y1="1476.02" x2="-543.83" y2="1476.06" gradientTransform="matrix(334.04, -1651.37, -1651.37, -334.04, 2620047.93, -404896.37)" gradientUnits="userSpaceOnUse">
      <stop offset="0.2" stop-color="#f0f6fb"/>
      <stop offset="0.46" stop-color="#cde3f5"/>
      <stop offset="0.7" stop-color="#b3d5f0"/>
    </linearGradient>
    <linearGradient id="linear-gradient-16" x1="623.2" y1="411.31" x2="1104.34" y2="1244.67" gradientUnits="userSpaceOnUse">
      <stop offset="0.01" stop-color="#26476f"/>
      <stop offset="0.02" stop-color="#2b4e71"/>
      <stop offset="0.1" stop-color="#426e79"/>
      <stop offset="0.18" stop-color="#54867f"/>
      <stop offset="0.26" stop-color="#609784"/>
      <stop offset="0.35" stop-color="#68a286"/>
      <stop offset="0.46" stop-color="#6aa587"/>
      <stop offset="1" stop-color="#427c83"/>
    </linearGradient>
    <linearGradient id="linear-gradient-17" x1="558.94" y1="386.65" x2="1140.96" y2="1394.74" xlink:href="#linear-gradient-3"/>
    <linearGradient id="linear-gradient-18" x1="978.1" y1="174.24" x2="1792.87" y2="174.24" gradientUnits="userSpaceOnUse">
      <stop offset="0.26" stop-color="#1b391b"/>
      <stop offset="0.43" stop-color="#1d3d1d"/>
      <stop offset="0.59" stop-color="#224822"/>
      <stop offset="0.74" stop-color="#2b5a2b"/>
      <stop offset="0.89" stop-color="#387438"/>
      <stop offset="0.91" stop-color="#3a783a"/>
    </linearGradient>
  </defs>
  <g class="cls-2">
    <g id="Layer_1" data-name="Layer 1">
      <g id="SC_05">
        <g class="cls-3">
          <g class="cls-4">
            <rect class="cls-5" x="-1230" y="-185.44" width="1653.98" height="494.47"/>
            <path class="cls-6" d="M-290.25,135.72C-60.13,72.19,391.63,192.19,633,127.25V72.19C463.63,188,9.29,53.84-290.25,135.72Z"/>
            <path class="cls-7" d="M-495.79,30.24c230.12-63.53,681.89,56.47,923.3-8.47V-33.29C258.1,82.48-196.25-51.64-495.79,30.24Z"/>
            <rect class="cls-8" x="-1230" y="305.57" width="1654.72" height="607.22"/>
            <path class="cls-9" d="M-1413.45,200.18s168,18.09,418.6-26.6A125,125,0,0,1-965.54,172c33,2.08,109.72,7.58,142.8,15.43l93.65-6.21a239.5,239.5,0,0,1,40.38.72l52.85,5.49,394.74-30.25a428.62,428.62,0,0,1,59.22-.41c41.78,2.62,113.73,7,119.33,6.54,7.92-.64,105.51-9,136.19-11C102.54,150.41,428.37,164,428.37,164l9.5,75-1851.32,8.41Z"/>
            <path class="cls-10" d="M-1227.13,191.26s127.5,66.73,665,47.61C-21.84,226.7-148,155.43,427.51,190.2v99.09l-1642.31-4.67Z"/>
            <rect class="cls-11" x="-411.67" y="285.62" width="851.13" height="54.04"/>
            <g>
              <polygon class="cls-12" points="9.04 442.7 -40.25 442.7 -40.25 246.32 -15.61 220.25 9.04 246.32 9.04 442.7"/>
              <polygon class="cls-12" points="70.79 442.7 21.51 442.7 21.51 246.32 46.15 220.25 70.79 246.32 70.79 442.7"/>
              <polygon class="cls-12" points="132.55 442.7 83.26 442.7 83.26 246.32 107.91 220.25 132.55 246.32 132.55 442.7"/>
              <polygon class="cls-12" points="194.31 442.7 145.02 442.7 145.02 246.32 169.66 220.25 194.31 246.32 194.31 442.7"/>
              <polygon class="cls-12" points="256.06 442.7 206.77 442.7 206.77 246.32 231.41 220.25 256.06 246.32 256.06 442.7"/>
              <polygon class="cls-12" points="317.82 442.7 268.53 442.7 268.53 246.32 293.17 220.25 317.82 246.32 317.82 442.7"/>
              <polygon class="cls-12" points="379.57 442.7 330.28 442.7 330.28 246.32 354.93 220.25 379.57 246.32 379.57 442.7"/>
              <polygon class="cls-12" points="441.19 442.7 391.9 442.7 391.9 246.32 416.54 220.25 441.19 246.32 441.19 442.7"/>
            </g>
            <g>
              <polygon class="cls-13" points="7.31 442.7 -41.98 442.7 -41.98 246.32 -17.34 220.25 7.31 246.32 7.31 442.7"/>
              <polygon class="cls-13" points="69.07 442.7 19.78 442.7 19.78 246.32 44.42 220.25 69.07 246.32 69.07 442.7"/>
              <polygon class="cls-13" points="130.82 442.7 81.53 442.7 81.53 246.32 106.18 220.25 130.82 246.32 130.82 442.7"/>
              <polygon class="cls-13" points="192.58 442.7 143.29 442.7 143.29 246.32 167.93 220.25 192.58 246.32 192.58 442.7"/>
              <polygon class="cls-13" points="254.33 442.7 205.04 442.7 205.04 246.32 229.69 220.25 254.33 246.32 254.33 442.7"/>
              <polygon class="cls-13" points="316.09 442.7 266.8 442.7 266.8 246.32 291.44 220.25 316.09 246.32 316.09 442.7"/>
              <polygon class="cls-13" points="377.84 442.7 328.55 442.7 328.55 246.32 353.2 220.25 377.84 246.32 377.84 442.7"/>
              <polygon class="cls-13" points="439.46 442.7 390.17 442.7 390.17 246.32 414.82 220.25 439.46 246.32 439.46 442.7"/>
            </g>
            <g>
              <path class="cls-14" d="M98.43,427.55h0Z"/>
              <path class="cls-15" d="M-618.95,455.54c51.52,4.1,68.59,11.39,67.2,12.31s19,12.59,96.91,4c19.87-2.19,34.25-3.1,44.91-3.23,26.47,3.82,35.81,8.1,34.77,8.78-1.39.91,19,12.59,96.91,4s71.36,2.51,87.92,3.12,60.82-3.14,60.82-3.14l-.12-2.58c80.88-8.75,72.13,2.33,89.35,3,16.56.61,60.82-3.14,60.82-3.14l-.75-16c11.2,2.54,15.36,4.69,14.65,5.16-1.39.91,19,12.59,96.91,4,30.21-3.33,47.72-3.7,58.81-2.87,13,2.76,17.79,5.19,17,5.69-1.39.91,19,12.59,96.92,4s71.36,2.51,87.92,3.11,60.81-3.13,60.81-3.13l-1.63-35s6.48-16.91,11.29-16.9-5-3.18-21,11c0,0-6.68-13-16.06-16.42,0,0,11.85,10.49,1.2,19.16,0,0-3.9-19.12-28.51-30.09,0,0,23,20.51,14.59,28.72,0,0-5.33-6.84-8.75-9.12,0,0,5.84,11.4.36,13.68,0,0-18.24-20.39-20.88-24.34,0,0,11.35,19.78,7.51,24.35,0,0-10.62-9.13-13.93-12.78,0,0,4.1,12,2.09,10.95-3.55-1.82-9.56-13.82-26-17.56,0,0,17.38,8.9,15,15.28,0,0-9.66-8.21-15.12-10.49,0,0,8.14,6.39,5.35,9.13,0,0-20.39-20.37-35.78-22.73,0,0,20.13,12.57,18,19l-3.54,5.53s-4.05-4.56-6.74-8.21c0,0-2.17-.86-1.51,4.59,1.81,15,.68-4.41-14.66-15.41,0,0,12.62,17.67,5.66,22.69,0,0-17.63-15.06-25.71-25.55,0,0,8.5,11.09,3.31,21-1.45-2.77-10.46-11.38-10.94-17.2,1.11-1.23,2.22-2,3.25-2,4.82,0-5-3.18-21,11,0,0-6.67-13-16-16.42,0,0,8.83,7.82,4.38,15.54-9.42-9.29-2.73-6.72-3.07,3.52-.44.37-3.39-18.73-28.63-30,0,0,23,20.5,14.59,28.71,0,0-5.33-6.84-8.75-9.12a31.59,31.59,0,0,1,2.31,6.28c-.46,1.82-1.16,4.5-2,7.32-.64-.72-5.4-6.05-10.25-11.6.78-6.34,2-12.59,3.49-14.75,0,0-3.53,4.94-7.23,10.42-10.73-12.48-6.92-10.32-1.55,2.31-1.79,2.7-3.51,5.38-4.77,7.53-7.85-7.06-7.1-7.17-6.74-6.08-1.26-2.09-2.62-3.88-3.94-4.62,0,0,4.78,6.07,3.16,12.67-3.9-4.19-10.38-12.24-23.29-15.18,0,0,17.07,8.74,15.1,15.11-.42-.34-10.42-8.33-15.18-10.31a25,25,0,0,1,5.23,5.58,17.36,17.36,0,0,1,.19,3.47c-.17.17-20.24-20.27-35.84-22.66,0,0,20.12,12.57,18,19l-3.53,5.54s-4.05-4.56-6.74-8.21c0,0-2.18-.87-1.52,4.58,1.81,15,.68-4.41-14.65-15.41,0,0,12.61,17.67,5.65,22.69,0,0-17.63-15.05-25.7-25.55,0,0,8.5,11.09,3.3,21-1.45-2.77-11.11-12.09-11-17.71,0,0-4.37,12.66-.38,22.24,0,0-2-4.67-14.92-9.17.24.1,2.06,1.09,2.57,9.18,0,0-15.64-11-21.68-19.39,0,0,4.69,7.07-.33,19.39,0,0-17.17-1.8-17.61-16.64,0,0-4.46,19.84-8.63,22.57,0,0-.53-9.7.25-15.11s-3.8,5.53-5.06,6.9.57-25.95,4.1-31c0,0-14.77,20.65-15.55,24.33,0,0-4.6-12.49-8.69-14.77,0,0,5.13,6.52,3,13.38A17.59,17.59,0,0,0,25,427.64c-2.1-2.17-6-5.19-13.1-9,0,0,2.72,1.67-.26,15.36,0,0-10.27-3.21-12.83-14.15-2,6.15,1,3.77-5.62,1.38a21,21,0,0,1,4.15,5.42A20.7,20.7,0,0,0-2,436a8.81,8.81,0,0,1-.7,1.26l-3.82.17c-2.18-5.81-8.94-18.79-27.59-27.1,0,0,21.38,19.08,15.36,27.8l-1.42.1c-1.52-1.88-5.4-6.51-8.1-8.31,0,0,2.44,4.76,2.69,8.74-2.09.18-4.17.37-6.2.59-5.51-6.22-15.14-17.2-17-20,0,0,8,14,8.3,21.13-1.33.22-2.57.45-3.68.7-3.39-3-8.84-7.83-11-10.26,0,0,4.1,12,2.09,10.95-3.55-1.83-9.56-13.83-26-17.56,0,0,17.38,8.89,15,15.28,0,0-9.65-8.21-15.12-10.49,0,0,8.15,6.38,5.35,9.12,0,0-20.39-20.37-35.78-22.73,0,0,20.13,12.57,18,19L-95.21,440s-4.05-4.56-6.74-8.21c0,0-2.18-.86-1.52,4.59,1.81,15,.68-4.42-14.65-15.42,0,0,12.61,17.67,5.65,22.69,0,0-5.52-4.71-11.8-10.71,1.48-2,3-3.45,4.42-3.44,3.07,0,.16-1.29-6.49,1.45-23.58-23-4.58-11-7.06,3.79-1,.64-2,1.35-3.06,2.14-2.08-2.62-9.5-10.68-9.36-15.46a44.49,44.49,0,0,0-1.89,9.26,24.22,24.22,0,0,0-9.16-6.64s8.07,7.15,4.89,14.53a45.26,45.26,0,0,0-6.89-3.26c-3.58-6.54-10.9-15.76-25.32-22.19,0,0,15.66,14,16.41,23.47-24.18-19.87-4.11-14.4-12.74,7-30.58-34.44-14.95-21.17-10.6-3.79-12-8.13-3.35-23-9.95-2-7.35-6.81-3.35-5.24-1.69,4.9-.24.61-.47,1.19-.71,1.76A21.54,21.54,0,0,1-207,441c.11-7.77,1.94-12-2.76-2.93-.69-.68-1.42-1.39-2.22-2.1.35-7.94,2-22.11,4.43-25.6,0,0-8.82,12.32-13.19,19.62a37.57,37.57,0,0,0-5.32-2.14c-1.64-3.31-3.75-6.82-5.73-7.92a18.68,18.68,0,0,1,3.24,7.22c-.94-.23-.84-.26,0,.22a12.75,12.75,0,0,1,0,4.77c-1.17-.56-.87-.45-.06.24a11.17,11.17,0,0,1-1.23,3.16c-7.18-6.21-19.66-15.78-29.91-17.36a93.75,93.75,0,0,1,13,10c.29,2,.23,5.59-1,11.76-1.33-1.58-3-3.59-4.29-5.37,0,0-1.79-.71-1.63,3.21a19.23,19.23,0,0,1-7.12-11c-1.83,5.54,1.35,3.24-7.42-3.06a62.23,62.23,0,0,1,5.88,10.49c-.35,3.29-.25,7.06,1.24,9.92,0,0-1.47.05-3.91.16-5.11-4.52-17-15.33-23.26-23.42,0,0,8.5,11.08,3.3,21-1.45-2.76-11.11-12.1-10.95-17.7,0,0-4.37,12.66-.38,22.24,0,0-1.59-3.81-11.41-7.85l-.08-1.73s6.48-16.91,11.29-16.9-5-3.18-21,11c0,0-6.67-13.05-16-16.42,0,0,8.17,7.23,4.84,14.65-2.82-3.31-1.4-2.49-.43.84a13.26,13.26,0,0,1-3.21,3.67s-3.9-19.12-28.52-30.09c0,0,23,20.51,14.59,28.72-1.76-2.26-6.06-7.33-8.75-9.12,0,0,5.85,11.4.37,13.68,0,0-2.95-3.3-6.65-7.5.77-6.8,2-13.87,3.66-16.2,0,0-4,5.54-7.88,11.39-17.87-20.52-7.57-11.82-2.71,4.1-1.23,1.91-2.36,3.71-3.23,5.23-1.67-1.48-3.73-3.3-5.64-5.06-1.46-2.69-3.16-5.19-4.78-6.09a17.91,17.91,0,0,1,2.05,3.52c-.85-.82-1.59-1.56-2.13-2.16,0,0,4.11,12,2.09,11-3.55-1.82-9.56-13.82-26-17.56,0,0,16.95,8.68,15.12,15-3.53-2.34-10.21-8.17-15.2-10.25,0,0,8.15,6.39,5.35,9.13,0,0-20.39-20.37-35.77-22.73,0,0,20.12,12.57,17.95,19l-3.53,5.53s-4-4.56-6.74-8.21c0,0-2.18-.86-1.52,4.59,1.81,15,.68-4.41-14.65-15.41,0,0,12.61,17.67,5.65,22.69,0,0-17.63-15.06-25.7-25.55,0,0,8.5,11.09,3.3,21-1.44-2.76-11.11-12.11-10.95-17.71,0,0-4.37,12.66-.38,22.24,0,0-2-4.68-14.92-9.17.24.09,2.06,1.09,2.57,9.17,0,0-15.64-10.94-21.68-19.38,0,0,4.69,7.07-.33,19.39,0,0-17.17-1.8-17.6-16.64,0,0-4.47,19.83-8.64,22.57,0,0-.53-9.7.25-15.12s-3.8,5.54-5.06,6.91.57-26,4.1-31c0,0-14.77,20.65-15.55,24.33,0,0-4.6-12.49-8.69-14.77,0,0,8.08,10.26-.31,18.59,0,0,.07-4.6-15.6-13,0,0,2.72,1.67-.26,15.36,0,0-10.27-3.22-12.83-14.15,0,0-3.63,11-.3,17.34,0,0-40.6,1.38-47.55,5.49S-670.47,451.44-618.95,455.54Zm897.44-18.1c-.08-1.56,4.36-11.39,7.73-15.32-.88,2.94-3.51,13.29-.12,21.42C286.1,443.54,284.94,440.77,278.49,437.44Zm-251-5.84a4.53,4.53,0,0,0-1.08-2.29c1.28-1.58,2.58-2.63,3.78-2.62h.48A12.82,12.82,0,0,1,27.49,431.6Zm-249.13,0a14,14,0,0,0-1.42,3.07s-.94-2.55-2.34-5.55C-224.25,429.81-222.95,430.65-221.64,431.59Z"/>
            </g>
            <g class="cls-16">
              <path class="cls-17" d="M49.09,744.93l0,0Z"/>
              <path class="cls-18" d="M-795.53,780.4c60.67,5.49,80.78,15.12,79.15,16.32s22.44,16.6,114.12,5.45c23.39-2.85,40.31-4,52.87-4.17,31.17,5.08,42.18,10.73,40.95,11.62-1.64,1.2,22.45,16.61,114.12,5.45s84,3.44,103.53,4.27,71.6-4,71.6-4l-.15-3.39c95.22-11.36,84.93,3.2,105.22,4.06,19.5.83,71.6-4,71.6-4l-.92-21.09c13.2,3.36,18.1,6.21,17.26,6.82-1.63,1.2,22.45,16.6,114.12,5.45,35.57-4.33,56.19-4.78,69.24-3.67,15.3,3.66,20.95,6.86,20,7.52-1.63,1.19,22.45,16.6,114.12,5.44s84,3.44,103.53,4.27,71.6-4,71.6-4l-2-46.11s7.6-22.23,13.26-22.21-5.94-4.19-24.66,14.39c0,0-7.88-17.17-18.93-21.64,0,0,14,13.83,1.45,25.22,0,0-4.63-25.16-33.64-39.64,0,0,27.09,27,17.24,37.81,0,0-6.29-9-10.32-12,0,0,6.9,15,.46,18,0,0-21.52-26.87-24.64-32.06,0,0,13.4,26,8.89,32,0,0-12.53-12-16.43-16.83,0,0,4.85,15.77,2.48,14.41-4.18-2.41-11.28-18.21-30.62-23.16,0,0,20.48,11.74,17.74,20.14,0,0-11.39-10.82-17.83-13.83,0,0,9.61,8.41,6.32,12,0,0-24.05-26.84-42.17-30,0,0,23.72,16.58,21.18,25.06l-4.15,7.28s-4.78-6-7.95-10.82c0,0-2.56-1.14-1.78,6,2.16,19.72.79-5.8-17.28-20.3,0,0,14.89,23.27,6.7,29.86,0,0-20.79-19.84-30.32-33.66,0,0,10,14.6,3.94,27.66-1.71-3.64-12.34-15-12.92-22.65,1.31-1.61,2.61-2.64,3.83-2.63,5.67,0-5.94-4.2-24.66,14.38,0,0-7.88-17.17-18.93-21.63,0,0,10.41,10.31,5.19,20.45-11.11-12.24-3.24-8.84-3.61,4.64-.52.48-4-24.66-33.77-39.51,0,0,27.09,27,17.24,37.81,0,0-6.29-9-10.33-12a44,44,0,0,1,2.73,8.26c-.53,2.4-1.35,5.93-2.35,9.64-.76-1-6.38-8-12.09-15.3.9-8.33,2.3-16.55,4.08-19.39,0,0-4.15,6.5-8.5,13.7-12.65-16.44-8.16-13.6-1.82,3-2.11,3.55-4.13,7.07-5.61,9.9-9.25-9.31-8.37-9.44-7.94-8-1.48-2.76-3.1-5.12-4.65-6.09,0,0,5.64,8,3.75,16.68-4.61-5.53-12.25-16.12-27.45-20,0,0,20.11,11.52,17.8,19.9-.49-.45-12.28-11-17.89-13.6,0,0,4.32,3.78,6.17,7.36a25,25,0,0,1,.22,4.56c-.19.23-23.86-26.7-42.24-29.88,0,0,23.72,16.58,21.18,25.06l-4.15,7.28s-4.78-6-7.95-10.82c0,0-2.57-1.13-1.78,6,2.16,19.72.79-5.81-17.28-20.31,0,0,14.88,23.27,6.69,29.86,0,0-20.78-19.84-30.31-33.66,0,0,10,14.6,3.93,27.66-1.71-3.65-13.1-15.93-12.93-23.32,0,0-5.12,16.65-.4,29.27,0,0-2.31-6.16-17.59-12.1.29.12,2.43,1.44,3,12.07,0,0-18.43-14.43-25.56-25.54,0,0,5.54,9.31-.35,25.51,0,0-20.22-2.4-20.76-21.93,0,0-5.22,26.09-10.13,29.69,0,0-.63-12.77.28-19.89s-4.47,7.28-5.95,9.07.63-34.15,4.77-40.78c0,0-17.35,27.14-18.26,32,0,0-5.45-16.43-10.26-19.44,0,0,6.05,8.58,3.51,17.6a18.87,18.87,0,0,0-6.79,1.64c-2.48-2.86-7-6.84-15.45-11.87,0,0,3.21,2.21-.28,20.21a25.58,25.58,0,0,1-15.13-18.64c-2.38,8.09,1.2,5-6.62,1.8a27.65,27.65,0,0,1,4.91,7.15c-.43,3.94-.47,8.52.76,12.27a12.08,12.08,0,0,1-.81,1.66c-1,0-2.58.11-4.51.21C-77.08,750.06-85.06,733-107,722c0,0,25.21,25.15,18.14,36.61l-1.67.13c-1.8-2.47-6.38-8.58-9.56-11,0,0,2.88,6.26,3.18,11.5-2.45.23-4.91.49-7.29.77-6.5-8.19-17.87-22.66-20.07-26.32,0,0,9.46,18.38,9.81,27.81-1.57.29-3,.59-4.33.92-4-3.93-10.42-10.32-13-13.52,0,0,4.85,15.77,2.48,14.41-4.19-2.41-11.29-18.21-30.63-23.16,0,0,20.48,11.74,17.74,20.14,0,0-11.38-10.82-17.82-13.83,0,0,9.6,8.41,6.31,12,0,0-24-26.84-42.16-30,0,0,23.72,16.58,21.17,25.06l-4.15,7.28s-4.77-6-8-10.82c0,0-2.56-1.14-1.77,6,2.16,19.73.79-5.8-17.29-20.3,0,0,14.89,23.27,6.7,29.86,0,0-6.51-6.22-13.92-14.11,1.74-2.66,3.55-4.54,5.2-4.53,3.62,0,.19-1.7-7.63,1.9-27.81-30.3-5.42-14.55-8.31,5q-1.72,1.26-3.59,2.82c-2.46-3.46-11.21-14.08-11.06-20.37a64.38,64.38,0,0,0-2.21,12.18c-3-3.65-6.67-7.08-10.8-8.75,0,0,9.53,9.43,5.8,19.13a52.7,52.7,0,0,0-8.13-4.31c-4.23-8.61-12.86-20.76-29.85-29.24,0,0,18.47,18.42,19.36,30.92-28.5-26.19-4.86-19-15,9.12-36.08-45.37-17.64-27.87-12.49-5-14.18-10.72-4-30.29-11.72-2.65-8.66-9-4-6.9-2,6.45-.28.79-.56,1.57-.84,2.3a27.28,27.28,0,0,1-4.11-4.47c.12-10.23,2.26-15.83-3.26-3.86-.8-.9-1.67-1.83-2.61-2.77.4-10.44,2.29-29.09,5.16-33.68,0,0-10.35,16.2-15.48,25.8a42.13,42.13,0,0,0-6.28-2.83c-1.94-4.36-4.42-9-6.76-10.44a26.28,26.28,0,0,1,3.83,9.52c-1.11-.3-1-.34.05.28a18.85,18.85,0,0,1,0,6.27c-1.37-.73-1-.58-.06.33a16.28,16.28,0,0,1-1.44,4.15c-8.47-8.18-23.18-20.8-35.26-22.89A111.35,111.35,0,0,1-357.24,745c.34,2.67.28,7.35-1.2,15.46-1.58-2.08-3.51-4.72-5.07-7.07,0,0-2.1-.94-1.91,4.23a25.86,25.86,0,0,1-8.4-14.47c-2.15,7.28,1.6,4.26-8.75-4a85.4,85.4,0,0,1,6.95,13.81c-.4,4.34-.28,9.3,1.48,13.06,0,0-1.74.06-4.6.2-6-6-20.09-20.2-27.44-30.86,0,0,10,14.6,3.93,27.66-1.71-3.65-13.11-16-12.93-23.32,0,0-5.12,16.65-.4,29.26,0,0-1.88-5-13.45-10.35l-.1-2.28s7.6-22.23,13.27-22.2-5.95-4.2-24.67,14.38c0,0-7.88-17.17-18.93-21.63,0,0,9.63,9.54,5.73,19.29-3.33-4.37-1.65-3.28-.5,1.1a17,17,0,0,1-3.78,4.82s-4.63-25.15-33.63-39.63c0,0,27.09,27,17.23,37.81-2.08-3-7.15-9.66-10.32-12,0,0,6.91,15,.46,18,0,0-3.48-4.35-7.85-9.89.89-9,2.37-18.24,4.28-21.3,0,0-4.65,7.27-9.26,15-21.07-27-8.92-15.57-3.18,5.39-1.45,2.51-2.77,4.89-3.79,6.87-2-1.94-4.4-4.35-6.65-6.66-1.72-3.54-3.73-6.84-5.63-8a25.3,25.3,0,0,1,2.41,4.64c-1-1.08-1.87-2.05-2.5-2.84,0,0,4.85,15.78,2.47,14.41-4.18-2.41-11.28-18.21-30.62-23.15,0,0,20,11.44,17.83,19.82-4.16-3.09-12-10.77-17.91-13.52,0,0,9.6,8.42,6.31,12,0,0-24-26.84-42.16-30,0,0,23.72,16.58,21.17,25.06l-4.15,7.28s-4.78-6-8-10.82c0,0-2.56-1.13-1.78,6,2.17,19.72.8-5.81-17.28-20.31,0,0,14.89,23.27,6.7,29.86,0,0-20.79-19.84-30.31-33.66,0,0,10,14.6,3.93,27.66-1.71-3.64-13.11-15.94-12.93-23.32,0,0-5.12,16.65-.41,29.27,0,0-2.31-6.16-17.58-12.1.28.13,2.43,1.44,3,12.08,0,0-18.43-14.44-25.57-25.55,0,0,5.54,9.31-.35,25.51,0,0-20.21-2.4-20.75-21.93,0,0-5.22,26.09-10.13,29.69,0,0-.64-12.77.27-19.89s-4.46,7.28-5.95,9.07.63-34.15,4.77-40.78c0,0-17.35,27.14-18.26,32,0,0-5.44-16.43-10.26-19.44,0,0,9.53,13.51-.34,24.45,0,0,.09-6-18.39-17.08,0,0,3.21,2.21-.28,20.21a25.58,25.58,0,0,1-15.13-18.64s-4.24,14.41-.31,22.82c0,0-47.81,1.73-56,7.13S-856.19,774.91-795.53,780.4ZM261.12,758.28c-.09-2.06,5.12-15,9.07-20.15-1,3.87-4.1,17.48-.1,28.19C270.09,766.32,268.72,762.67,261.12,758.28Zm-295.55-8.16a6.4,6.4,0,0,0-1.27-3c1.5-2.07,3-3.44,4.45-3.44h.56A17.21,17.21,0,0,1-34.43,750.12Zm-293.33-.49a19.91,19.91,0,0,0-1.67,4s-1.11-3.36-2.77-7.31C-330.84,747.29-329.31,748.4-327.76,749.63Z"/>
            </g>
            <path class="cls-19" d="M581.89-152.48l-1.42-.1c0-.31,0-.62,0-.93a142.51,142.51,0,0,0-1.66-21.77c1.85-.53,3.74-1.17,5.65-1.91,16.22-6.34,27.58-18.15,25.38-26.38s-17.14-9.77-33.36-3.43q-2.91,1.14-5.58,2.49c-13.3-33.45-39.26-58.16-70.38-65a108.08,108.08,0,0,0,10.51-47c0-31.57-13-59.48-32.83-76.37,7.08-14,9.08-27.36,4.23-31.82-5.47-5-17.69,3.11-27.8,18.29a65,65,0,0,0-20.85-3.44c-23.86,0-45.2,13.07-59.37,33.61-10-20.13-28.27-33.61-49.13-33.61a48.29,48.29,0,0,0-16.4,2.88C289.69-458.5,255-499.69,212-521.91c1.84-9.56.87-17.67-2.56-19s-7.91,4.16-11.09,12.74a159,159,0,0,0-30.14-8.95q1-3,1.92-6.3c5.3-19.57,4.08-37.62-2.73-40.31s-16.62,11-21.91,30.58a98.73,98.73,0,0,0-2.66,13.28c-1.37,0-2.74-.06-4.11-.06a156.47,156.47,0,0,0-21.19,1.44c-.39-10.85-3.58-19.32-7.45-19.32-4.14,0-7.49,9.65-7.49,21.55v.56C48.09-522.82,2.13-481.31-24.18-424.67a49,49,0,0,0-23.77-6.22c-29.71,0-54.14,27.33-57,62.32a63.39,63.39,0,0,0-36.74-12,61.89,61.89,0,0,0-26.4,5.95c-3.07-12.8-8.92-21.8-13.53-20.42-4.89,1.46-6.51,14-3.64,28.1.23,1.08.47,2.14.73,3.18a80.28,80.28,0,0,0-10.67,11.45c-.29-.59-.6-1.18-.91-1.77-6.55-12.13-15.27-19.27-19.49-15.95s-2.33,15.85,4.21,28a58.4,58.4,0,0,0,5.32,8.2,102.61,102.61,0,0,0-8.53,41.37,102.43,102.43,0,0,0,8.68,41.71c-15.64,11.87-26,32.9-26,56.86,0,.45,0,.88,0,1.32a57,57,0,0,0-12.16-1.32c-13.88,0-26.79,5.06-37.53,13.72-.73-.78-1.5-1.55-2.32-2.3-7.83-7.21-16.21-9.84-18.72-5.86s1.72,12.85,9.39,20a83,83,0,0,0-9.32,15c-6.6-4.79-12.86-6.11-15-2.77-2.42,3.84,1.52,12.42,8.85,19.5a97.11,97.11,0,0,0-3.08,24.46c0,45.18,30.31,81.8,67.7,81.8a55.71,55.71,0,0,0,5.66-.29c9.56,54,49.25,94.41,96.76,94.41a83.51,83.51,0,0,0,31.26-6.09C-85,112.17-36.65,148.91,18.78,148.91c27.43,0,53.11-9,75.15-24.68,15.85,61.75,63.5,106.61,119.82,106.61,52.83,0,98-39.46,116.51-95.31a86.27,86.27,0,0,0,38.86,9.31c46.19,0,85.18-37.26,97.5-88.26,1.34.11,2.69.17,4.06.17C504,56.75,531,24.12,531-16.13a85.35,85.35,0,0,0-5.75-31.09c19.8-11.56,35.88-30.95,45.48-54.86q4.07.67,8.34,1c28,2.24,51.3-7.46,52.08-21.66S609.87-150.24,581.89-152.48Z"/>
            <path class="cls-20" d="M106.6-15.66c40.74,55.19,52.16,117.52,52,175.8-.06,22.64.12,57.63-.31,92.19.88,26.38,1.3,52.76,1.1,79.15-.35,46.12-2.24,92.58-7.37,138.43a152.62,152.62,0,0,1-14.22,49.88c-7.78,16-18.3,30.63-29.7,44.24-13.9,16.6-29.78,31.6-46.09,45.8a121.29,121.29,0,0,1-34.1,21.23c1.22,1.35,4,1.92,5.64,2.31,17.06,4,35.14,3.21,52.4,1.21,19.41-2.26,38.72-5.52,58-8.49,18.12-2.78,36.24-4.43,54.32-.46,9.2,2,18.14,5,27.18,7.59A230.71,230.71,0,0,0,253,639.14c40.06,6.35,80.74,6.4,121.2,7,14.51.22,29.07.5,43.59,0-21.29-8.36-57.89-23.8-91.45-43.21-58.5-33.81-69.59-35.35-91.3-137.19-25.87-121.34-2.51-228.95,5-283.12S312.17,7.84,312.17,7.84l152.29-94-20.69-26.58S340.37-47.35,329.09-52.45s26.32-81.76,26.32-81.76L331.6-164.88s-84.82,237-88.37,243.24-12.54,26.58-25.08,16.36-9.39-328.08-9.39-328.08l-65.18,22.49s5.64,137-1.26,145.12S55.84-126,50.82-139.34s7.53-106.28,7.53-106.28l-16.3-9.2s-4.4,85.86-11.28,94-57.66-46-57.66-46L-40.68-170S65.86-70.85,106.6-15.66Z"/>
            <path class="cls-21" d="M852-6.55a53.63,53.63,0,0,0-2-12.09,29.61,29.61,0,0,0,5.91-1.69c-31.7-22.45-69.28-34.25-109-21.07-1.27.42-2.45-1.45-1.36-2.34,5.86-4.75,9-11.22,12.81-17.46-7.76-4.55-16.83-3.42-25.19-.82-1.43.44-2.16-1.33-1.34-2.32,6.28-7.62,13.9-14.16,19.47-22.35-11.87-3.9-24-.68-35.31,4-1.09.45-2.16-1.08-1.53-2,9.65-13.88,28.81-22.43,33.79-39.22-12.34.07-21.23,6.48-29.79,15.08-6.94,7-13.62,14.1-23.1,17.49a1.3,1.3,0,0,1-1.59-1.6A96,96,0,0,0,698-105.8c.73-3.11,3-11.65.51-14.53-2.67-3.12-11.5-2-15.13-1.11a32,32,0,0,0-11.82,5.92c-1.11.84-2.15-.72-1.7-1.71,4.27-9.49,7.42-23.69-1.31-31.84-9.82-9.17-24.34-.94-32.84,5.83a1.2,1.2,0,0,1-1.87-.24c-7.55-13.91-16.5-46.13-37.79-32.06a1.37,1.37,0,0,1-2-1.17c-.51-6.11-5.28-10.2-7.93-15.39-9.46,3.77-16.79,10.95-22.14,19.53a1.4,1.4,0,0,1-2.55-1.08c3.07-14.33,6.09-28.77,6.74-43.45.61-13.77-.39-30.72-11.91-40.06-19.82,31.6-4.67,68.64-11.09,103.13-.27,1.47-2.13,1.07-2.58,0-5.66-13.42-20.25-9.12-28.66-1.11a1.37,1.37,0,0,1-2.27-1.32c1-3.86.43-7.82,1.16-11.64-11.38,2.48-20.86,9-29.79,16.41-1.16,1-3-.25-2.17-1.67,5.14-8.88,11.19-17.48,14.55-27.26a47.28,47.28,0,0,0,1.61-5.73c.65-3.13,2-5.8-1.28-7-3.79-1.32-9.23.1-12.7,1.69-13.4,6.13-21,21.19-30.9,31.36a1.43,1.43,0,0,1-2.37-.63,144.06,144.06,0,0,1-3-22.94c-.32-5.69-.26-11.54-1.54-17.12-3.51-15.36-20.67-20.35-34-24.22a1.42,1.42,0,0,1-.83-2.07c3.71-4.84,6.92-10.05,7.27-16.31a26.34,26.34,0,0,0-.07-3.44q-.59-3.11-3.54-2.48c-3.08-1-7.69-.48-10.67.25a1.42,1.42,0,0,1-1.58-2.06c5.38-8.39,25-21.94,16.15-33-7.47-9.28-26.45-2.61-34.86,2.22-1.42.82-2.61-1-1.66-2.15,6.61-7.95,15.67-14.34,19.82-24-15.07-5.83-30.92-4.2-45.67,2.09a1.31,1.31,0,0,1-1.59-2.05c5.33-5.8,7.91-13.6,11.18-20.68-15.75-5.24-31.14,6.06-44,14.1-1.28.8-2.41-.95-1.53-2,10.07-11.73,20.76-23.86,25-39-12.07.88-22.32,7.65-30.15,16.7-.92,1.06-2.53-.31-1.88-1.45a53.84,53.84,0,0,0,6.64-24.31,63.29,63.29,0,0,0-14.87,18.65,1.22,1.22,0,0,1-2.2-.29c-5-13.68-6.62-28.75-14.48-41.22-20,22.7-4,55.78-.54,81.84h0l0,.27c.16,1.2-1.7,1.33-2,.27-3.55-11.67-18.61-17.46-29.31-20-10.42-2.46-26.42-4.27-34.18,5.05a1.11,1.11,0,0,1-1.85-.49c-.88-3.9-2.15-10.33-6.81-11.4-3.13-.71-6.44,1.66-8.71,3.47-5.23,4.17-9.39,9.74-13.25,15.13-.66.92-2.39.71-2.32-.63,1-18.91,4-37.68,4.21-56.63.26-19.16-2.1-39.7-15-54.73-32,37.5-12.65,88.64-5.77,131.67a1.15,1.15,0,0,1-2.22.61c-4.58-13.86-11.23-32.8-29.51-26.72a1.13,1.13,0,0,1-1.25-.51c-7.77-12.07-22.27-2.4-29.08,5.47-.78.9-2.53-.06-2.07-1.2,2.36-5.88.63-11.16,0-17A47.1,47.1,0,0,0,81-316.65c-1,1.16-2.59-.33-2-1.53,8.53-16.75,19.57-32.31,26-50.07,2.92-8,6.44-19.44,3.87-28.05-.86-2.87-1.42-2-4.16-1-2,.74-4,1.56-5.91,2.46a81.08,81.08,0,0,0-10.74,6.09c-27.56,18.4-42.46,49.52-61.93,75.25a1.19,1.19,0,0,1-2.16-.91c.72-4.08,1.58-10.25-2.61-12.86-2.82-1.75-6.71-1.06-9.72-.27-7.3,1.9-14.25,6.07-20,10.89a1.26,1.26,0,0,1-2.09-1.21c1.59-6.14.26-12.78,0-19.07-12.57-.34-22,11.22-26.83,21.78-.56,1.22-2.44.56-2.44-.67.15-25.44,4.84-52.45-5.79-76.45-18.2,26.2-27.3,58.33-24.22,90.19.11,1.23-1.47,1.58-2.23.93-13.53-11.5-34.37-17.54-46-.27a1.32,1.32,0,0,1-2.05.27c-8.85-9.77-19.38-5-25.43,4.89a1.33,1.33,0,0,1-2.26,0c-2.25-3.66-5.88-6.27-9.07-9.11-6.7,7.74-9.43,18.14-12.59,27.69a1.31,1.31,0,0,1-2.51,0c-3.53-15.46-4.69-31.33-7.22-47-2.38-14.7-5.74-30.4-15.39-42.17-19.31,33.76-5,79.25,9.53,112.17a1.3,1.3,0,0,1-2,1.57,52,52,0,0,0-11.86-7.57c-2.16,13.32,4,25.55,10.46,36.91a1.3,1.3,0,0,1-2,1.57c-4.84-4.18-17.65-14.3-22.39-4.72-3.58,7.22-.84,17.93,3,24.43,8.65,14.53,25.13,24.09,39.82,31.51,1.41.71.33,2.57-1,2.35-7.93-1.32-16.54-1.29-23.69,2.88-7.49,4.37-11,12.05-12.52,20.26a1.29,1.29,0,0,1-2.33.31c-1.82-4.1-5.58-5.24-8.91-7.46-5.74,8.2-7.5,17.45-7.61,27.42a1.27,1.27,0,0,1-2.49.34c-4.75-13.43-6.81-27.66-11.26-41.2-2-6.22-4.49-12.53-8.31-17.91-.87-1.23-4.75-6.74-6.5-6.45-1.58.27-3.86,5.18-4.63,6.61-6.05,11.27-6.57,24.91-5.23,37.37,2.73,25.27,13.11,53.48,31.11,71.93a1.18,1.18,0,0,1-1.42,1.86c-11.48-6.22-25.56-4.58-29.26,9.58a1.12,1.12,0,0,1-2,.26c-2.59-3.48-6.19-8-10.8-8.79-6.09-1-8.37,5.55-9.56,10.23-.32,1.23-1.92.81-2.05-.28-1.44-11.75-2.5-24.37-8.07-35-.58-1.12-1.31-3.16-2.44-3.76-1.41-.75-1.47,0-2.55,1.57a29.43,29.43,0,0,0-3.28,6.23,45.68,45.68,0,0,0-2.74,13.08c-1.43,18.66,4.08,38.64,12.23,55.31a.81.81,0,0,1-1.1,1.1c-7-4.1-16.59-6.43-18.43,4a21.45,21.45,0,0,0-.14,6.2,43.66,43.66,0,0,0,24.28,7.34c1,0,2,0,2.95-.1a73.8,73.8,0,0,0,70.82,53.06,73.61,73.61,0,0,0,28.23-5.59A91.15,91.15,0,0,0-104,99.05,91.15,91.15,0,0,0-17,35,107.22,107.22,0,0,0,37.58,49.8,107.35,107.35,0,0,0,110.4,21.44a151.69,151.69,0,0,0,42.93,6.17A150.87,150.87,0,0,0,241.78-.87,59.45,59.45,0,0,0,274.65-17.8a69.94,69.94,0,0,0,27.18,25,70,70,0,0,0,50.67,5.4,99.14,99.14,0,0,0,23,16.44,98.88,98.88,0,0,0,115.8-18.37,116.3,116.3,0,0,0,45.19,41.5,116.85,116.85,0,0,0,117.75-6,77.85,77.85,0,0,0,20,14.84,78,78,0,0,0,96-19.65q1.88,1.17,3.87,2.21a53.34,53.34,0,0,0,71.89-22.86,53.38,53.38,0,0,0,5.18-15.29c7.24-1.45,12.58-5,12-8.09C862.81-5.44,858-6.94,852-6.55Z"/>
            <path class="cls-22" d="M394.92,652.61c.38,31.31-109.68,59.86-247.77,52.88-136.69-6.91-247.77-23.67-247.77-52.88s110.93-52.87,247.77-52.87S394.57,623.42,394.92,652.61Z"/>
            <path class="cls-23" d="M309.07,607.38c16.86-5.51,15.7-25.63-4.47-24.69,12.9-15.58.89-36.07-17.55-25.12-5.21-13.35-19.51-14.77-21.27.68-4.88-9.31-13.12-15-21.83-12.14,31.82-20.18-12.68-40.89-31.91-37.19,5.72-32.55-26-47.91-48.74-29.31-7.56-33.52-50.43-1.23-60,14.58C85.15,471.27,53.19,491.31,52,518.73c-24.47-22.58-36.49,19.68-33.33,39.35C1.54,550,1.41,573,6.67,585c-13.58-4-22.16,4.2-15.53,18.56-14.07-3.67-24.17,7.26-15.53,21-12.17-.47-32.63,2.1-17,15.8-7.54-1.35-11.28,2.67-16.74,3.91,1.73,6.06,4.54,4.32,9.15,5.89l-14.28,3.69c8,13.65,28.87,11.31,39,1.29,7,5.16,3.07,5.14,12.25-.82,7.7,16.57,19.76,7.93,19.14-8.24,7.93,7.86,22.43,8.34,32.14.49-16.6,15,20.91,24.85,32.2,7.79,1,16.41,21.48,10.74,26-.14,5.82,12.18,18.83,13.08,29.4,7.3,18.09,25.83,31-8,45.53-16,3,13.19,17.12,13.76,27.49,8.11-.23,2.63.2,6,0,8.73,15.5,2.81,32.82,4.89,45.19-7.62,8.44,10.21,24.62,4.9,25.67-9.59,10.12,4.92,24.25,6.94,24.5-8.32,8.22-.51,17.21-1.15,24.59-3.13-3-1.49-6.22-4.29-9.53-5.93a74,74,0,0,0,23-5.2C329.42,612.76,319.4,608.92,309.07,607.38Z"/>
            <path class="cls-24" d="M328.15,615.17a108.42,108.42,0,0,0-27.3-5c-14.46-.88-30,.42-43.34,6.83-.77.36-1.75-.69-1-1.36,3.53-3.07,7.53-5.5,10.88-8.8-4.72-6.53-13.88-6.05-20.71-4.6a54.15,54.15,0,0,0-18.59,7.54c-.67.5-1.36,1-2.05,1.45-.84.56-1.55-.81-.76-1.4s1.35-1,2-1.45a67.26,67.26,0,0,0,19-22c-17.76,1.19-36.5,9.46-48.23,24-.59.73-1.65-.22-1.22-1,2.55-4.64,7.38-10,6.72-15.84a27.27,27.27,0,0,0-18.79,11.65c-.55.81-1.64.13-1.26-.79,1.94-4.66,4.7-8.92,6.28-13.74C180.77,592,174,599.05,168,606.08c-.55.65-1.32-.07-1.23-.77.68-5.29,2.28-10.38,3.11-15.64-8.08,4.3-11.95,14.75-15,23.23-.3.83-1.68.8-1.57-.23a107.38,107.38,0,0,0,.35-20.44c-.56-6.53-1.84-13.66-5.6-19-4.65,6.13-5,14.95-4.63,22.51a123.93,123.93,0,0,0,4,23.93.67.67,0,0,1-1.22.55c-1.45-2.68-3.94-4.76-6.89-3.37-2.67,1.26-3.84,4.36-3.93,7.3a.64.64,0,0,1-1.26.19c-2-7.66-9.77-7.88-14.3-2.57-.45.52-1.23,0-1.07-.66.84-3.47,1.36-7.54.54-11.07-1.29-5.53-5.52-.77-7.49,1.73-.47.6-1.47-.23-1-.85,2-2.74,3.1-5.52,2.69-8.94-3.88.28-7.32,2.24-10.36,4.77a.67.67,0,0,1-1-.84,25.73,25.73,0,0,0,1.89-9.45,39.09,39.09,0,0,0-13.59,8.12c-.42.37-1.29,0-1-.64A37.7,37.7,0,0,0,92,593.72c-6.45,3.46-10.7,10.79-13.35,17.72-.35.91-1.49.57-1.36-.4,1.93-14.36,4.4-28.73,4-43.29-11.47,11-12.65,28.74-13.37,44.21a.68.68,0,0,1-1.27.37c-1.55-3.09-4.23-8.63-8.31-7.52-3.65,1-6.48,5.4-8.68,8.37-.35.48-1.19.08-1.14-.51.22-2.37,1-8.12-1.54-9.57-1.77-1-4.22,1-5.56,2A56,56,0,0,0,30.33,618a.62.62,0,0,1-1.06-.66,123.87,123.87,0,0,0,7.21-19.27c1.66-6.07,3.18-13,1.68-19.31-13.49,12.36-20.39,29.61-29.25,45.67-.35.64-1.15.18-1.06-.48A38.5,38.5,0,0,0,8,612.67c-6.67,2.66-9.9,11-13.86,16.75-.36.53-1.06.2-1-.44.44-3-.35-5.84-1.09-8.71a23.16,23.16,0,0,0-4.61,11.15.49.49,0,0,1-.91.13c-1.87-4.51-3.69-9.06-5.87-13.41-1.62-3.23-3.61-7.37-6.65-9.47-2.44,4-2.39,9.67,1.54,16-12.17-.47-32.63,2.1-17,15.8-7.54-1.35-11.28,2.67-16.74,3.91,1.73,6.06,4.54,4.32,9.15,5.89l-14.28,3.69c8,13.65,28.87,11.31,39,1.29,7,5.16,3.07,5.14,12.25-.82,7.7,16.57,19.76,7.93,19.14-8.24,7.93,7.86,22.43,8.34,32.14.49-16.6,15,20.91,24.85,32.2,7.79,1,16.41,21.48,10.74,26-.14,5.82,12.18,18.83,13.08,29.4,7.3,18.09,25.82,31-8,45.53-16,3,13.19,17.12,13.76,27.49,8.11-.23,2.63.2,6,0,8.73,15.5,2.81,32.82,4.89,45.19-7.62,8.44,10.21,24.62,4.9,25.67-9.59,10.12,4.92,24.25,6.94,24.5-8.32,8.22-.51,17.21-1.15,24.59-3.13-3-1.49-6.22-4.29-9.53-5.93a74,74,0,0,0,23-5.2A19.77,19.77,0,0,0,328.15,615.17Z"/>
            <path class="cls-25" d="M6.65,509.12a2.92,2.92,0,0,1-3-1s-2.17.72-3.59-.5.6-2.08.6-2.08-1.86-.47-1-1.59c1.09-1.36,3.5.05,3.5.05s.41-1.93,2.78-1.23,1.19,2,1.19,2,3.11-.09,3,1.44-2.2,1-2.2,1S8.61,508.65,6.65,509.12Z"/>
            <g>
              <path class="cls-25" d="M26.09,7.75c-3.24,1.74-5.26-2.67-5.26-2.67S17.28,7.73,14.7,4s.61-6.88.61-6.88-3.23-1.25-2-5c1.58-4.63,5.89-.38,5.89-.38s.36-6.28,4.5-4.3,2.39,6.22,2.39,6.22,5.21-.79,5.3,4.25-3.56,3.61-3.56,3.61S29.33,6,26.09,7.75Z"/>
              <path class="cls-25" d="M203.6-3.09c-2.26,3.3-4.79.84-4.79.84s-2.36,4.19-5.22,2.64-1-6-1-6-2.85.85-2.6-2.93a3.73,3.73,0,0,1,4.67-3.71s-1-5.35,2.75-6.14,3.23,3.74,3.23,3.74,4.08-3.67,5.21.38-2.11,5-2.11,5A5.4,5.4,0,0,1,203.6-3.09Z"/>
            </g>
          </g>
        </g>
      </g>
      <g id="SC_05-2" data-name="SC_05">
        <g class="cls-26">
          <g class="cls-27">
            <g class="cls-28">
              <path class="cls-29" d="M2248.73,381.7c-17.56-1.24-34.9-4-34.9-4-24-3.76-455.48,39.57-530.61,45.88-94.16,7.9-37.38,6.63-364.5-19-16.4-1.28-30.44-2.24-43-2.95,1.66,51.12,1.23,102.32-3.44,153.25h960.93s15.81-173.22,15.73-173.22Z"/>
              <path class="cls-30" d="M2831.66-16.46c-166.55,2.14-333,7-499.63,7a285.78,285.78,0,0,1-66.44-7.65q-78.65,1.56-157.32,2.61c-166.83,2.28-333.71,3.27-500.56,5a285.86,285.86,0,0,1-65.65-7.46c-45.42,3-90.83,6.1-136.32,8.41-43.47,2.21-87.08,3.82-130.71,3.9q-.26,6.06-.6,12.11c-1,17.53-2.58,35-4.53,52.54a54.21,54.21,0,0,1,5.94,28.3c0,23.81,1.34,47.61,2.89,71.4,2.83,43.55,6.48,87.12,5.57,130.72a467.29,467.29,0,0,1-5.55,65.3q-.78,4.74-1.6,9.48c.61,7.56,1.19,15.13,1.68,22.7H2891.88V-17.09Q2861.77-16.83,2831.66-16.46Z"/>
              <g>
                <path class="cls-31" d="M1305.76,347.65a7.91,7.91,0,0,1-1.52,4.41,8.37,8.37,0,0,1-6.79,3.06l.14-7.06-2.46.11v3.9a5.12,5.12,0,0,1-3.12-.39,5.51,5.51,0,0,1-2.8-3.3l-1,0,.62,1.92a3.92,3.92,0,0,1-2.81.41,4,4,0,0,1-2.57-2.23h-.76s.5,4.46,6.49,3c1.09,1.56,3.63,3.23,6,2.39-.14,4.85-.93,23.81-.93,23.81H1297q.24-10.4.47-20.79a9.81,9.81,0,0,0,6.58-3,10.06,10.06,0,0,0,2.69-6.42Z"/>
                <path class="cls-32" d="M1309,337.58s-19.37-7.37-32.23-.95c-.25,3.73-.52,7.46-.84,11.19a23.26,23.26,0,0,0,6.71.69c11.28-.12,25.09-1,25.09-1S1323.06,345.1,1309,337.58Z"/>
                <path class="cls-31" d="M1658.54,344.36q-6.93,1-11.66,17.63c-2.45-4.85-8.21-8.17-14.73-8.48a19.54,19.54,0,0,0-15.1,5.93,15,15,0,0,0-7-12.53c-6.88-4.43-17.61-4.54-26,.09-2.28-8.22-10.67-14.39-20.61-15.4-11.76-1.18-23.58,5.07-26.85,14.88-11-8.92-27.58-10-37.69-3.81-10.86,6.63-9.33,18.62-9.23,19.32-7.77-7.49-20.48-10.59-32-7.86-10.5,2.49-18.44,9.46-20.61,18.05-6.41-4.45-15.29-4.89-21-1.54a11.69,11.69,0,0,0-5.85,9.82,24.19,24.19,0,0,0-11.79,1.77,16.46,16.46,0,0,0-9.09,9c.53-14.3-14.65-14.48-23.33-10,6.24-9.55-16.27-33.76-38-11a20.68,20.68,0,0,0-13.64-7.85c-9.19-1.16-19.36,3.91-23.24,12.64a49,49,0,0,0-16.74-6.5q1.14,23.7,1.76,47.43l284.77,11.37,111.63,1,29.44-6.09Q1674.44,342.12,1658.54,344.36Z"/>
              </g>
              <path class="cls-33" d="M2343.59,490.35c-396.28-15.69-966.06-3.52-1067.49-1.15-.85,30.6-2.89,61.15-6.58,91.58a107.39,107.39,0,0,1-9.16,43.53V867.12H2886.21l1-170.5,1.44-216.46S2654.54,502.67,2343.59,490.35Z"/>
              <path class="cls-34" d="M1645.93,452.94c-40.52-4.58-69.81,16.16-76.53,21.2-57-3.85-72.82,35.93-50.83,44.91,0,0-47.4-17.54-91.37,6.85a65.56,65.56,0,0,0-16-5.16c-2.68,10.25-5.47,20.49-8.28,30.71l256,.54,79.93-9.53a104.82,104.82,0,0,0-12.68-36.74C1699.88,459.92,1649.71,453.37,1645.93,452.94Z"/>
              <path class="cls-35" d="M1809.2,630.44c284.8,66.74,507.51,57.8,658.77,37.06,139-19,407.28-74,436.51,10.14,3.55,10.23,1.32,16,0,90.34-1,58.3-.56,105.76,0,136.69H1280.65V615.83Z"/>
              <g>
                <path class="cls-36" d="M1321.33,600.66c-.39-1,2.54-1.87,5.22-5.7,2.49-3.56,5-7,5.5-8.79,2.36-9.18,9.58-20.24,12.59-24.34,9.56-13,14.07-32.58,21.56-65a484.79,484.79,0,0,0,9.44-55.73c.54-32.36-3.9-56.74-13.06-70.81a383.14,383.14,0,0,1-26.1-48s-53.74,2.45-58.35,0-17.66-14.05-15.36-44.05L1262,271l13.82,3.87s4.24,26.91,21.94,29c21.11,2.92,45.23-10,41.7-29h15.33s-4.72,55.26,18.49,66.93c17.31,4.59,27.53-2.67,26.74-35l-.78-32.35,27.53,0s-1.57,34.39,0,36.47,13.77,23.35,26.75-20.43c11-30.85,4.72-16,4.72-16l14.94.34s-6.69,34-28.71,55.26c-14.55,20.43-15,54.61-3.93,66.71,11.8,12.09,31.85,18.76,47.19-52.95,10.23-47.53,13-69,13-69l21.24-.23s-8.65,56.74-7.08,66.75c2,11.25,2.76,45.86,49.17,31.26,111.29-31.94-16.72-78.17-.8-104.64,4.55-7.56,76.17,75.08,82.87,54.85,10.51-31.67,16.25-49.85,16.25-49.85l17.3-.45s.8,18.63-2.74,23.63c5.54.4,51.64-3.51,72.11-13.58,18.27-9,42.18-22,44.11-26.93,4.63-.19,18.75.19,23.37,0-3.59,9.19-9.54,12.84-14,16.22-17,13-53.07,30.19-115,38.79-2,.28-10,.89-14.66,2.15,0,.12-.25,1.91-.25,1.91s-2.44,46.65-57.9,69.16c-49.55,19.6-71.19,29.6-83.77,37.52s-21.24,16.26-19.27,43.36a225,225,0,0,1-3.54,64.83,219.67,219.67,0,0,1-27.14,69.84c-42.59,1.41-69.93,1.55-87.47,1.38-35.17-.35-55.19-2.17-65.72.41C1327.82,601.25,1321.85,602,1321.33,600.66Z"/>
                <path class="cls-37" d="M1369.22,482.71c10.89,4.64,30.36,13,40.55,23.35,37.64,38.24,12,88.54,9.12,94l-99.38,1.33a69.91,69.91,0,0,0,15-22C1348.88,547.16,1366.45,508.23,1369.22,482.71Z"/>
                <path class="cls-38" d="M1490.94,330.74s-18.42,72.3-32.86,71.77C1473,409.9,1500.9,389.84,1490.94,330.74Z"/>
                <path class="cls-39" d="M1767.36,108.12c-4.28-33.49-15.54-84.05-49.41-125.35-91.52-111.58-266.78-59.66-322.85-43C1256.68-19.09,1167,79.56,1123,137l-21.8,18.42a1677.45,1677.45,0,0,0,347.82,31.47,1678.05,1678.05,0,0,0,302.67-32Z"/>
                <path class="cls-40" d="M1766.13,108.73c-4.23-31.33-15.38-78.63-48.9-117.26-90.56-104.38-264-55.81-319.47-40.22C1260.8-10.27,1172,82,1128.55,135.72L1107,153a1752.86,1752.86,0,0,0,344.18,29.43,1753,1753,0,0,0,299.5-29.93Z"/>
                <path class="cls-39" d="M1200.25,129.27s-126.74-29.11-182.92,59.55c-36.59,68.82-43.12,91.14,182.92,78.65C1238.46,157.3,1200.25,129.27,1200.25,129.27Z"/>
                <path class="cls-41" d="M1197,131.85s-123.1-29.59-177.67,60.54C983.76,262.34,977.41,285,1197,272.33,1234.08,160.34,1197,131.85,1197,131.85Z"/>
                <path class="cls-39" d="M1733.74,167s-63-52.52-129.16-73.12c-72.21-30.9-167.81-99.9-283.75-68C1231.34,55.77,1164.21,97,1124.55,173.18c-19.32,44.29-22.38,97.84,125.09,90.63l410.88.66S1821.2,252.49,1733.74,167Z"/>
                <path class="cls-42" d="M1739.76,178.34S1676,124.94,1609.1,104c-73-31.41-169.75-101.56-287-69.1-90.54,30.36-158.44,72.24-198.56,149.72-19.55,45-22.64,99.47,126.54,92.14l415.65.67S1828.24,265.24,1739.76,178.34Z"/>
                <path class="cls-38" d="M1261.91,276.78s-1.87,30.07,12,42.18c4.12,4.24,7.39,4.13,12.32,4.24A28.71,28.71,0,0,1,1269,302.56c-3.42-15.88-3.75-25.78-3.75-25.78l-2.23,0Z"/>
                <path class="cls-38" d="M1399.13,276.91c.54,5.47.94,22,.72,25.66-.95,16.2-2,34.66-12,39.42a13,13,0,0,1-7.44,1l-3.76-.45c4.62,6,8.75,6.56,10.08,6.62,8.2.41,17.8-10.88,20.14-29.07a117.36,117.36,0,0,0,1.65-26.14c-.38-7.25-1.49-17.14-1.49-17.14h0Z"/>
              </g>
              <path class="cls-43" d="M1407.52,624.56l-11.17,2-49.73,18.27c74.09,0,93.37,8.12,172.53,7.1,22.9-.29,37.88-15,56.84-20.29,115.7,21.31,245.6,37.55,357.54,48.8l124.53-1.1-188.23-19.94-153.66-29.14-130.9-21.69-201.49,25.31"/>
              <g>
                <g>
                  <path class="cls-44" d="M1279.64,839.68C1348.71,836.35,1401,836,1511,838.6c31.14.74,83,2.36,156,6.91,189,11.77,335.55,31.64,360,34.83,128.41,16.79,403.15,25.34,879.65,3.8,9.59,13.34,5.63,21.54-2.33,23.45-4.67,1.12-3.69,7.94-8.21,7.95-536.51,1.05-1080-1.1-1616.46,0C1278,860.63,1281.33,894.58,1279.64,839.68Z"/>
                  <g>
                    <path class="cls-44" d="M1527.71,839.51s.35-40-6.2-42.59-21.8,12.24-9.86,27.5C1519.85,834.9,1527.71,839.51,1527.71,839.51Z"/>
                    <path class="cls-44" d="M1510.82,838.57s-7.81-34.73-21-37.06S1510.82,838.57,1510.82,838.57Z"/>
                    <path class="cls-44" d="M1526.86,838.49s22.37-12.07,19.17-20.56S1528.73,824,1526.86,838.49Z"/>
                    <path class="cls-44" d="M1417.46,837.25s.92-46.23-39.28-60.26c-12-4.19,6.83,7.18,21.74,41.34,0,0,2.73,7.95,2.14,10.15s-25.29-41.31-42.45-44.28c0,0,32.06,37.35,35.12,49.88C1394.73,834.08,1405.33,861.57,1417.46,837.25Z"/>
                    <path class="cls-44" d="M1336.13,833.09s17.84-15,6.87-19.83S1321.51,835,1336.13,833.09Z"/>
                    <path class="cls-44" d="M1321.62,841.9s16.28-29.32.34-40S1312.65,836.73,1321.62,841.9Z"/>
                  </g>
                </g>
                <polyline class="cls-45" points="1350.98 613.57 1370.13 635.53 1519.34 642.78 1571.84 623.99 1688.28 642.78 1785.17 650.82 1908.92 660.08 2054.58 670.47 1981.42 456.29 1350.98 613.57"/>
                <path class="cls-45" d="M1413.84,594.43s16.89-39.12,113.88-43.06,154.9-16.72,179.73-31.14c0,0-32.58,27.24-57.66,27.22s-153.32,4.37-173.94,18.92S1413.84,594.43,1413.84,594.43Z"/>
              </g>
              <path class="cls-46" d="M1185.05,614.31l18.27,31.46a111.55,111.55,0,0,1,.52-29.22Z"/>
              <path class="cls-46" d="M1456.92,588.32c.11-.38.24-.76.36-1.14a121.26,121.26,0,0,0-33.23,6c22-9,6.19-48.76-50.83-44.92-6.73-5-36-25.77-76.53-21.19-3.79.43-54,7-80.17,52.78a104.75,104.75,0,0,0-12.68,36.74l79.93,9.52,177.15-.37C1455.7,613.75,1451.68,601,1456.92,588.32Z"/>
              <ellipse class="cls-44" cx="1738.37" cy="759.03" rx="168.47" ry="30.95"/>
              <path class="cls-47" d="M1536.6,583,1655,568.31s231.81-77.83,258.07-71.18c2.79,50.87,13.42,173.34,13.42,173.34l-209.39-24.83s79.21,5.85-13.69,0S1571.84,624,1571.84,624Z"/>
              <polygon class="cls-48" points="1350.98 613.57 1473.36 608.11 1536.6 583 1654.99 568.31 1808.69 520.23 1907.73 496.1 1981.42 456.29 1939.27 440.61 1840.55 483.53 1631.08 515.74 1431.58 537.86 1350.98 613.57"/>
              <polygon class="cls-47" points="1473.36 608.11 1519.34 642.78 1370.13 635.53 1350.98 613.57 1473.36 608.11"/>
              <path class="cls-35" d="M1643,647.72s-14-12-37.74-11.1S1637.18,644,1643,647.72Z"/>
              <path class="cls-49" d="M1413.84,594.43s22.76-11.14,62-28.06,80.73-22.24,127.48-20.59,74.19-11.63,89.39-18.69-27.57,10-49.83,8.06-117.06,3.92-147.8,16.22S1413.84,594.43,1413.84,594.43Z"/>
            </g>
          </g>
        </g>
      </g>
      <g class="cls-50">
        <path class="cls-51" d="M1644.49,798.41c.16-82.71,1.25-165.42,1.79-248.13.54-82.12-.63-164.27.89-246.38.74-40.07,2.28-80.14,5.37-120.1,3.91-50.64,10.92-100.89,19.26-151L1678-4,0,3,0,928.19l1645.38-15.26C1645.94,874.78,1644.42,836.55,1644.49,798.41Z"/>
        <g>
          <path class="cls-9" d="M1646.28,550.28c.32-47.8,0-95.62.07-143.43-68.14-7.34-124.42-12.12-136.72-9.48-37.49,8-156.73,40.85-166.4,43.4-6.83,1.81-94.75-15.5-145.8-25.82a164.21,164.21,0,0,0-72.34,1.61L642.8,536l-64.56-21.68a92.73,92.73,0,0,0-49.34-2.87L414.48,536C374.06,505,280.34,483.3,240,475.07c-12.15-2.48-24.55-.28-35.81,6.21-306.13,176.45-511.43,105-511.43,105V772.7l1952-28.65C1645.11,679.46,1645.86,614.87,1646.28,550.28Z"/>
          <path class="cls-52" d="M1644.49,798.41c.1-51.22.56-102.44,1-153.67-271.34-98.18-603.15-78.41-945.08,26.41C295.82,795.19-15.91,780.3-15.91,780.3l4.72,69.46H1645C1644.75,832.64,1644.46,815.52,1644.49,798.41Z"/>
          <path class="cls-53" d="M1644.49,798.41q.09-45.51.48-91c-365.84-3.12-360,97.59-898.8,117.81C92.15,864-29.71,726.51-29.71,726.51V927.4H1645.13C1646.36,884.44,1644.41,841.38,1644.49,798.41Z"/>
        </g>
        <g>
          <g>
            <path class="cls-54" d="M1386.49,424.54c-7.43-6.49-14.88-13-22.27-19.52-70.6,34.64-120.83,56.56-93,33.91,17.34-14.14,33.59-42.7,48.22-77.66-11.83-13.26-22.84-27.14-33.84-41.64A161.21,161.21,0,0,1,1271.49,298c-1.35-2.56-2.7-5.14-4-7.75C1202.83,428,1088,585.71,895.8,611.66,630.16,647.53,124.79,674.79-59,737.14c.76,9.45,1.17,18.93,1.34,28.41.89,49.61-4.86,99.27-1.62,148.86q.44,6.65.77,13.31c3.85-.66,7.7-1.31,11.57-1.91,17.67-2.74,35.71-6.25,53.69-6.51,7-.1,14-.48,20.92-.81,20-1,40.17-1.87,60.12.09,8.31.81,16.64,1.71,24.93,2.86a195.39,195.39,0,0,1,12.66-16.88c61.18-70.17,819.87-172.07,882.49-199.75S1197.12,536.9,1250,518.29c19.7-6.93,81.59-40.82,151.5-80.63C1396.53,433.23,1391.48,428.89,1386.49,424.54Z"/>
            <path class="cls-55" d="M7.61,919.28l4.36-.1c10.12-13.12,20.48-26.08,30.83-39q-14.64,19-27.89,38.9c4.25-.17,8.5-.38,12.74-.58l9.35-.43c13.24-21.82,28.61-34,54.58-56-8,12.45-14,26.25-19.84,40.21,10.83-19.44,15.66-30.31,20.71-40.94,13.32-11.31,29.4-25.21,49.36-44.27a406.17,406.17,0,0,0-71,41.47C47,873,25.91,894.2,7.61,919.28ZM113,837.12a104.85,104.85,0,0,0-19.49,22c2.2-4.59,4.52-9.25,7.47-14.64h0Z"/>
            <path class="cls-55" d="M-59.3,914.41c0,.06,0,.13,0,.2,18.17-18.77,38.26-37.45,51-49.47,42-39.57,42.94-67.24,101.39-78.57l-72.26,4.92a390.61,390.61,0,0,0-81,73.8C-60.45,881.67-60.37,898-59.3,914.41Z"/>
            <path class="cls-55" d="M-58.48,816.46c26.7-20.91,61.26-36.54,86.73-50.49,42.77-23.43,97.11-29.66,97.11-29.66-86.3-8.63-143.11,11.47-183,42.63C-57.65,791.44-58,804-58.48,816.46Z"/>
          </g>
          <path class="cls-55" d="M1271.49,298q-1.83-3.45-3.61-7c-34.26,64.79-74.55,140.46-88.46,164.47-25.87,44.61-143,194.24-352.34,216.41s-415.21,11.65-559.77,21.92-303.68,53.29-141.95,81.27c0,0,299.38-43.41,573.26-56.67s386.57-95.44,406.9-136.56,127.57-126.57,148.77-197.45c6.42-21.49,15.2-48,24.31-74.56C1276.05,306,1273.66,302.05,1271.49,298Z"/>
        </g>
        <path class="cls-56" d="M516.39,668.74c3.34.41,10.68,1.1,4.43.42l-6.62-.69Z"/>
        <g class="cls-57">
          <path class="cls-58" d="M520.07,666.82c-.06,0-.93,1.17-1.34.55s.31-1.47.85-1.82S520.86,666.15,520.07,666.82Z"/>
        </g>
        <g>
          <path class="cls-54" d="M544.5,567.5c0,4,4.44,6.38,3,10s3.53,4.73-.31,9.3.17,26.93,3.12,33.52,3.24,9.62-10.42,15.37-27,13.81-34.63,18.65-15.5,7-36.1,11.74-54.72,20-68.83,25.56a74.72,74.72,0,0,1-37,4.4C353.11,694.83,243,707.09,232,708.77s-49.3,5.38-49.3,5.38c-11.68,2.77-37.28,1.35-37.28,1.35A93.31,93.31,0,0,0,127,716.72q.3-.62.63-1.23c-9.51-.55-8.91-2,2.93-4.81,3.36-.79,4.81-3.44,2-3.29-42.18,2.15-8.39-15.93,11.65-20.29a32.22,32.22,0,0,1,7.21-1.54c5.81-.31,30.76-1,42.37-.2S229.51,677,242.24,673s138.25-16.11,148.52-17.77,47.35-10.37,49.39-10.42,8.57-.36,17.88-5.41,34.8-14.59,41.67-16.53,6.92-5.18,7.42-13.63,1.64-14.05,6.91-21.88,4.3-10.87-1.09-14.7,4.41-11.07,6.56-16.15,1.56-8,9-22,12.59-23.7,31.59-34,27.21-11.19,32.37-13.27,27.2-11.2,33.07-14,10.7-20.74,10.7-20.74-7.28-16-8.92-19.33-7.15-20-.58-24.24,5.58-5.5,8.36-7.72,4.08-17.15.76-22.1-1.2-9.32,4.7-13.94,5.64-9.09,9.72-7.39-3.61,9.78-5.36,13.25,1.13,10.72,3.45,15.17-6.07,31.73-6.1,33.88-4.26,7.64,3.89,11.05,8.72,8.43,10.33,13.25,3,4.06,6.49.39,28.66-16.25,31.45-19.18-.14-10.59-2.13-13.78.49-7.73,10.17-13.33,9.33-5.77,9-8.82,1.09-3.43,4.53-4.94,1.66,1.94,3,3.34.31,2.33-.43,4.86-16.61,11.5-18,14.76,3.15,14.3,6.86,16.9-3.87,5.66-9.76,9.92S678.7,444.05,669,450s-16.35,15.28-18.2,22.32-10.76,9-17.32,13.3-20,7.61-31.68,12.18-19.3,9.4-25.57,14.93-18.51,21.41-20.59,24S542.5,561.5,544.5,567.5"/>
          <path class="cls-59" d="M231.79,681.26s14.88-2.92,45.12-3.34.33-2.15-20.72-1-32.34,2.61-34.93,4.49S222.52,682.56,231.79,681.26Z"/>
          <path class="cls-59" d="M153.12,712.49s17.36-1.44,48.41-18.47,2,5.31-20.32,14.87-34.86,12.69-38.93,9.41S142.7,714.69,153.12,712.49Z"/>
          <path class="cls-59" d="M306.6,675.23s9.64-2.08,44.41-.53,45.88,4.89,45,3.53-24.31-7.06-38.63-8.2-24-.51-14.46.65,11.21,1.33,8.42,1.45-33.77-2.3-53-.23-15.61,2.83-10.1,2.8S286,676.81,306.6,675.23Z"/>
          <path class="cls-59" d="M349.79,664.93s9.64-2.09,44.41-.54,45.88,4.89,45,3.53-24.31-7-38.63-8.2-24-.51-14.46.66,11.21,1.33,8.42,1.45-33.77-2.3-53-.23-15.61,2.83-10.1,2.79S329.23,666.51,349.79,664.93Z"/>
          <path class="cls-59" d="M535.83,531.82s5.91-7,33.8-25.45,38.85-22.1,37.21-22.66S583,492,571.18,499.17s-18.85,13.15-10.66,8.65,9.59-5.29,7.53-3.63-27.66,17.27-40.94,29.69-10,11-5.76,7.84S521.15,544.62,535.83,531.82Z"/>
          <path class="cls-59" d="M513.33,618.08a29.83,29.83,0,0,1,6.78-3.29c4-1.35-1.57,1.44-2.36,2.62s-6.63,3.53-8.74,6.12-4.19,5.86-6.18,6.86-.5-.95.38-2.2-2.44,3.59-16.67,10.36-18.46,7.7-21.12,8.34-13.46,4.16-18.74,5.22-8.31,1.68-7.16.93,3.79-1.87,9.16-3.07,11.76-2.5,13.79-3.05S485,638.58,489.66,636s10-6.21,13-9.43A52.36,52.36,0,0,1,513.33,618.08Z"/>
        </g>
        <g>
          <path class="cls-60" d="M679,727s-130.58.47-120.55,71.1c0,0,19.73,23.58,73.46-17.94,0,0-35.21,88.41,57.4-3.47,0,0-6.26,58.5,55.44,34.3,0,0,69.07,35.41,33.89-31.88,0,0,58.44,23,43.77-20.49,0,0,55.31-25.33-17-44.4S679,727,679,727Z"/>
          <path class="cls-61" d="M684.1,725.19s-102.4.37-94.53,55.75c0,0,15.47,18.5,57.61-14.07,0,0-27.62,69.34,45-2.72,0,0-4.91,45.87,43.47,26.9,0,0,54.17,27.77,26.58-25,0,0,45.83,18,34.33-16.07,0,0,43.37-19.86-13.36-34.81S684.1,725.19,684.1,725.19Z"/>
        </g>
        <g>
          <path class="cls-60" d="M166.39,700.29s-82.57.3-76.22,45c0,0,12.47,14.92,46.45-11.34,0,0-22.27,55.91,36.29-2.19,0,0-3.95,37,35.06,21.69,0,0,43.68,22.39,21.43-20.17,0,0,37,14.54,27.68-13,0,0,35-16-10.77-28.08S166.39,700.29,166.39,700.29Z"/>
          <path class="cls-61" d="M169.61,699.17s-64.75.23-59.77,35.25c0,0,9.78,11.7,36.43-8.9,0,0-17.47,43.85,28.46-1.71,0,0-3.11,29,27.49,17,0,0,34.25,17.56,16.81-15.82,0,0,29,11.4,21.7-10.15,0,0,27.43-12.57-8.44-22S169.61,699.17,169.61,699.17Z"/>
        </g>
        <g>
          <path class="cls-60" d="M128.59,694.69s-77,30-92.16-22.53c0,0,4.56-21.38,48.58-4.33,0,0-47.12-54.72,34.81-10.89,0,0-21.15-40.16,22.38-37.3,0,0,30.07-41.27,29.46,14.8,0,0,27.53-30,31.88,4.39,0,0,40.11,5.15,3.24,35.55S128.59,694.69,128.59,694.69Z"/>
          <path class="cls-61" d="M132.12,694.78S71.76,718.34,59.85,677.1c0,0,3.58-16.76,38.1-3.39,0,0-37-42.91,27.3-8.54,0,0-16.59-31.49,17.54-29.25,0,0,23.59-32.36,23.11,11.6,0,0,21.59-23.48,25,3.45,0,0,31.45,4,2.53,27.88S132.12,694.78,132.12,694.78Z"/>
        </g>
        <path class="cls-62" d="M1488,45.86s-450.8-489.4-424.89-32.36c0,0-166,39-34,182,21.43-49.08-78.73,203,168,220,.05-51.23,3.16,175,169.21,77-3.21,39,142.79,64,110.15-66.12-26.36,129.08,176.64,149.08,150.23-6,0,0,222.48,163.32,121.87-158.15,0,0,137.41-216-71.59-192.68,0,0-3.09-309.12-165.4-73.61Z"/>
        <path class="cls-63" d="M1573.9-14.55s-117.42-380-248.19-53.7C1154.08-54.5,1018.08-11.5,1154.88,68.62,1078.08,33.5,968.29,266,1212.83,245.85c-84.75,9.65-80.75,189.65,57.07,130.12-14.82,51.53,53.95,130.42,102.75-5.07-18.57,81.6,67.43,137.6,112.53,51.42,0,0,110.2,195.46,141.55-64.52,0,0,172-98.88,10.48-160,0,0,167.07-341.34-29.6-238.18Z"/>
        <path class="cls-64" d="M1573.86,36.44s-226.36-367.88-204.56-70c0,0-307.28,39.89-79.4,168.18,0,0-95.3,172.15,110.32,113.7,0,0-22.57,207.86,92.08,78.07,0,0,59.93,88.14,76.55-42.18,0,0,103.91,234.77,105.08-2.7,0,0,157,108.15,84-102,0,0,94.42-139.59-51.65-126.06,0,0-4.64-201.34-116.33-49.26Z"/>
        <path class="cls-65" d="M155.35,663s-71.64-21.43-34.49,14.53c0,0-35.1,40.57,9.12,30.88,0,0,7.53,33.22,27.36,2,0,0,21,29.45,20.89-.53,0,0,17.9,4.48,5-14.27,0,0,40.48,18.34,13.26-12.46,0,0,32.75-4.13-.9-22.86,0,0-3.89-28.91-21.2-10.33,0,0-23.81-25.47-20.71,7Z"/>
        <path class="cls-66" d="M626.4,385.55s-26.36-5.49-15.74-19,19,6.23,19,6.23-17-18.59-7.68-25.26,14.64,10.61,14.64,10.61-17.21-38.06,7-36.23,4,36.23,4,36.23,6.22-17.56,16.47-11.34-2.93,17.45-2.93,17.45,19.77-13.67,21.6,0-9.15,15.86-16.11,14.76c0,0,14.65,8.42-.36,14.64s-16.84-5.86-16.84-5.86,5.86,16.11-2.2,17.57S628.35,410.78,626.4,385.55Z"/>
        <path class="cls-65" d="M630.63,373.13s-20.55-4.28-12.27-14.83,14.83,4.85,14.83,4.85-13.23-14.49-6-19.68,11.41,8.27,11.41,8.27S625.2,322.07,644,323.5s3.14,28.24,3.14,28.24S652,338.05,660,342.9s-2.28,13.6-2.28,13.6,15.4-10.65,16.83,0S667.43,368.85,662,368c0,0,11.41,6.56-.29,11.41s-13.12-4.56-13.12-4.56,4.56,12.55-1.71,13.69S632.14,392.8,630.63,373.13Z"/>
        <path class="cls-67" d="M1026.27,332.29s-80.62,50.59-98.64,39.5c-8-4.9-24.77,12-41,32.37-24.92,31.23-52.79,55-80.72,68.17-30,14.13-78.35,45.45-150.24,114.44-140.42,134.73,25.14,80,25.14,80s86.68-164.66,240.94-184c101.58.33,77.37-5.75,22.73-13.37,0,0-26.2-5.78-47.67-3.52s28.77-44,28.77-44,86.06-49.27,102.78-69.53S1026.27,332.29,1026.27,332.29Z"/>
        <path class="cls-66" d="M1061.41,275.43s46.31-1.16,33.85,25.7-34.34-2.95-34.34-2.95,35.76,24.46,22.81,39.29-28.7-12-28.7-12,43.78,57,2.59,63.44-21-59.12-21-59.12-3.52,31.87-23.13,25.48-2-30.38-2-30.38-27.75,30.65-36.18,8.49,9.09-30.17,21.18-31.06c0,0-27.84-8.35-5.15-24.67s30.51,3.19,30.51,3.19-16.14-24.67-3.22-30.29S1048.23,233.92,1061.41,275.43Z"/>
        <path class="cls-65" d="M1049.79,278.64s36.09-.91,26.38,20-26.75-2.29-26.75-2.29,27.87,19.06,17.77,30.62-22.37-9.38-22.37-9.38,34.12,44.43,2,49.44S1030.48,321,1030.48,321s-2.74,24.84-18,19.86-1.52-23.68-1.52-23.68-21.62,23.89-28.19,6.61,7.09-23.5,16.5-24.2c0,0-21.69-6.51-4-19.23s23.77,2.49,23.77,2.49-12.58-19.23-2.51-23.61S1039.52,246.29,1049.79,278.64Z"/>
        <path class="cls-68" d="M793.21,509.84h1.42c1.09,0,2,.47,1.93,1.05s-.9,1.05-2,1.06h0c-40.69.19-65.7,5.59-65.95,5.64a2.7,2.7,0,0,1-2.54-.57c-.39-.54.11-1.15,1.12-1.38S752.55,510.13,793.21,509.84Z"/>
        <path class="cls-69" d="M829.34,543.26a1.38,1.38,0,0,1,.56.12c.35.17,35.34,16.71,53.77,40a1.53,1.53,0,0,1-.19,2.06,1.31,1.31,0,0,1-1.93-.15c-18-22.83-52.47-39.11-52.81-39.27a1.47,1.47,0,0,1-.67-1.92A1.43,1.43,0,0,1,829.34,543.26Z"/>
        <path class="cls-68" d="M696.14,546.43a2.4,2.4,0,0,1,1.79.62c.42.53,0,1.16-1,1.4-37.55,9-76.37,30.07-76.76,30.28a3.3,3.3,0,0,1-2.78,0c-.77-.4-.76-1.07,0-1.49.39-.21,39.74-21.58,78-30.75A3.55,3.55,0,0,1,696.14,546.43Z"/>
        <path class="cls-69" d="M724.53,509.38a408.9,408.9,0,0,1,52.61,3.25c1.05.13,1.68.7,1.41,1.26a2.42,2.42,0,0,1-2.39.79C736.67,509.79,710.22,512,710,512c-1.08.09-2.06-.3-2.21-.87s.6-1.12,1.68-1.21C709.91,509.89,715.27,509.45,724.53,509.38Z"/>
        <path class="cls-69" d="M815,554.36c1,0,1.91.43,1.94,1s-.82,1.08-1.9,1.11c-57.79,1.75-144.66,23.23-145.53,23.45a2.8,2.8,0,0,1-2.59-.51c-.43-.52,0-1.15,1-1.4s88.45-21.87,147-23.64Z"/>
        <path class="cls-69" d="M657.39,554.85c71.48-.51,204.47,19.4,205.72,19.62,1,.18,1.57.77,1.21,1.32a2.63,2.63,0,0,1-2.48.69c-1.75-.27-145.92-21.89-213.73-19.32-1.08,0-2-.4-2.05-1s.79-1.09,1.87-1.13C650.94,554.94,654.1,554.87,657.39,554.85Z"/>
        <path class="cls-69" d="M880,565.64c.92,0,1.73.34,1.91.84s-.51,1.13-1.58,1.25c-35.08,3.95-137.09,7.9-257,7.43-1.09,0-1.94-.48-1.9-1.07s.94-1.05,2-1c119.65.47,221.28-3.45,256.17-7.39Z"/>
        <path class="cls-69" d="M739.39,567.22c30.64-.21,55.22,1.43,74.84,2.74,21.29,1.42,36.67,2.44,47.72.37a2.57,2.57,0,0,1,2.48.65c.33.55-.23,1.15-1.26,1.34-11.94,2.24-27.7,1.18-49.52-.27-39.48-2.64-99.14-6.62-188.13,6.13-1,.15-2.12-.18-2.37-.74s.39-1.14,1.45-1.3A847.05,847.05,0,0,1,739.39,567.22Z"/>
        <path class="cls-70" d="M631.89,562.25h.19c16.74.72,32.95,1.42,48.54,2.11,94.85,4.14,169.76,7.42,199.13,5.27,1.08-.08,2,.32,2.17.9s-.66,1.11-1.74,1.19c-29.79,2.18-101.17-.94-200-5.26l-48.54-2.11c-1.08-.05-1.86-.55-1.74-1.13S630.89,562.25,631.89,562.25Z"/>
        <path class="cls-71" d="M604.6,569.81c.37-16.24,65-58.8,143.66-59.35s141.37,41.09,141,57.32S825.6,565.63,747,566.19,604.23,586,604.6,569.81Z"/>
        <path class="cls-69" d="M771.69,560.74c39-.27,82.5,2.11,120.23,10.67,1,.22,1.43.84,1,1.38a2.89,2.89,0,0,1-2.6.56C835,560.81,767,561.73,719.61,564.72c-54.08,3.4-98.32,10.47-110,13.5a2.83,2.83,0,0,1-2.6-.48c-.46-.52,0-1.15,1-1.41,11.88-3.08,56.72-10.27,111.27-13.71C734.88,561.64,752.76,560.88,771.69,560.74Z"/>
        <path class="cls-69" d="M830.65,549.07a176.3,176.3,0,0,1,38,3.38,1.46,1.46,0,0,1-.6,2.85c-27.88-5.83-54.61-2.28-54.87-2.25a1.34,1.34,0,0,1-1.51-1.25,1.48,1.48,0,0,1,1.22-1.63A161.89,161.89,0,0,1,830.65,549.07Z"/>
        <path class="cls-69" d="M777.25,552.15a741.36,741.36,0,0,1,103.43,6.36c1,.14,1.66.71,1.37,1.27a2.48,2.48,0,0,1-2.41.77c-56.21-7.51-115.27-8.33-175.56-2.42-52.84,5.17-87.21,13.66-93.56,15.31a2.85,2.85,0,0,1-2.61-.48c-.45-.52,0-1.15,1-1.41,6.43-1.67,41.24-10.27,94.59-15.5C728.3,553.62,752.94,552.32,777.25,552.15Z"/>
        <path class="cls-70" d="M741.58,559.2c44.32-.32,98.76,2.55,143.72,14.77,1,.26,1.32.9.81,1.42a3,3,0,0,1-2.66.47c-53.35-14.51-120.48-15.63-167.39-14-52.25,1.8-97.28,7.61-109.77,10.32a2.68,2.68,0,0,1-2.53-.58c-.39-.54.12-1.16,1.14-1.38,11.41-2.47,55.2-8.55,111-10.46C723.94,559.46,732.55,559.26,741.58,559.2Z"/>
        <path class="cls-70" d="M765.24,546.92l2.71,0c57.81-.29,107.16,3.42,107.65,3.45,1.07.09,1.79.62,1.61,1.2s-1.19,1-2.26.89c-.49,0-49.59-3.72-107.12-3.43l-2.62,0c-74.52.53-129.57,7.59-159.33,20.44a3.22,3.22,0,0,1-2.76-.15c-.66-.45-.51-1.11.34-1.48,17.26-7.45,42.35-13,74.59-16.49C703,548.64,732.34,547.15,765.24,546.92Z"/>
        <path class="cls-69" d="M751.83,516c25.58-.19,53.9,1.77,85.58,5.89,1.05.14,1.67.71,1.39,1.27a2.47,2.47,0,0,1-2.41.78c-109-14.17-155.19.08-195.91,12.65l-1-.9-.91-.92c19.81-6.12,42.26-13.05,73.17-16.51A384.67,384.67,0,0,1,751.83,516Z"/>
        <path class="cls-68" d="M761.88,512.67a454.62,454.62,0,0,1,48,2.17c1.07.11,1.75.66,1.52,1.23s-1.26.95-2.33.85c-49-4.88-101.59-1.36-144.23,9.67a2.83,2.83,0,0,1-2.6-.48c-.45-.53,0-1.16,1-1.41C692.83,517,727.19,512.92,761.88,512.67Z"/>
        <path class="cls-69" d="M737.9,542.42c1.08,0,2,.46,1.94,1s-.9,1.06-2,1.07c-40.69.29-65.66,5.77-65.9,5.83a2.76,2.76,0,0,1-2.55-.56c-.4-.54.1-1.16,1.11-1.38S696.37,542.71,737.9,542.42Z"/>
        <path class="cls-70" d="M770.29,550.36h.24c.47,0,47.36,2.81,85.91,10.35,1,.19,1.51.8,1.11,1.35a2.76,2.76,0,0,1-2.54.63c-38.11-7.46-84.54-10.21-85-10.23-1.08-.07-1.83-.59-1.69-1.16S769.31,550.37,770.29,550.36Z"/>
        <path class="cls-70" d="M806.41,521.83c9.41-.06,20.5.18,33,1,1.07.07,1.81.59,1.65,1.17s-1.16,1-2.23.92c-40.24-2.69-66.29.94-66.55,1-1,.15-2.11-.18-2.37-.75s.39-1.14,1.45-1.29C772.1,523.77,784.88,522,806.41,521.83Z"/>
        <path class="cls-69" d="M762.36,522.66c1.08,0,1.95.46,1.94,1s-.91,1.06-2,1.07c-40.69.29-65.66,5.77-65.91,5.83a2.73,2.73,0,0,1-2.54-.56c-.4-.54.1-1.16,1.11-1.38S720.83,523,762.36,522.66Z"/>
        <path class="cls-70" d="M699.89,526.6c51.6-.37,128,1.84,176.53,15.79,1,.27,1.29.91.75,1.42a3,3,0,0,1-2.67.44c-70.06-20.13-199.61-15.44-224.87-14.3l-1,0c-1.08,0-2-.45-1.94-1s.88-1,1.94-1.06l.79,0C657.45,527.49,676,526.77,699.89,526.6Z"/>
        <path class="cls-70" d="M716.26,533.78a615.74,615.74,0,0,1,90.67,5.79c47.71,6.78,77.59,17.78,86,25.67.54.5.21,1.15-.74,1.45a3,3,0,0,1-2.68-.36c-8.06-7.53-37.07-18.1-83.71-24.72-37.46-5.32-97.89-9.65-173-.07-1.07.13-2.11-.22-2.33-.78s.45-1.14,1.51-1.28A707.36,707.36,0,0,1,716.26,533.78Z"/>
        <path class="cls-68" d="M752.09,542.32c1.08,0,1.95.46,1.94,1s-.9,1.06-2,1.07c-101.63.72-133.06,6.87-133.36,6.94a2.66,2.66,0,0,1-2.51-.61c-.36-.55.17-1.16,1.2-1.36C618.64,549.14,649.76,543,752.09,542.32Z"/>
        <path class="cls-69" d="M712.83,552.43c17.2-.13,44.29.43,68.82,4.19,1,.15,1.62.74,1.3,1.3a2.6,2.6,0,0,1-2.47.72c-38.92-5.95-84.54-3.72-85-3.7-1.07.06-2-.37-2.1-1s.74-1.09,1.83-1.14C695.38,552.84,702.23,552.5,712.83,552.43Z"/>
        <path class="cls-69" d="M757.76,562.9c19.57-.14,58.25.37,86.26,5.73,1,.19,1.52.8,1.13,1.35a2.77,2.77,0,0,1-2.54.64c-38.05-7.29-96.54-5.43-97.12-5.41-1.11,0-2-.4-2-1s.81-1.09,1.89-1.12C745.51,563.1,750.22,563,757.76,562.9Z"/>
        <ellipse class="cls-72" cx="751.23" cy="587.63" rx="102.21" ry="34.92"/>
        <path class="cls-73" d="M836.18,601.16c-1.17-.94,40.7-22.08-21.19-46.8,0,0,117.23-42,82.79,37.84C897.78,592.2,860.91,620.88,836.18,601.16Z"/>
        <path class="cls-74" d="M816.93,555.35s48,18.1,27.8,41.09"/>
        <path class="cls-75" d="M820.38,548.65c23-6.67,69,20.9,26.54,48.8"/>
        <path class="cls-74" d="M811.79,554.84c23-6.67,70.74,17.08,28.26,45"/>
        <path class="cls-74" d="M830.12,552.19c23-6.67,68,10.41,25.53,38.32"/>
        <path class="cls-75" d="M861.59,544.37c44.5,0,60.22,17.57,17.74,45.48"/>
        <path class="cls-75" d="M854.43,547.68c44.5,0,60.22,17.57,17.74,45.48"/>
        <path class="cls-75" d="M847.39,550.81c44.5,0,60.22,17.57,17.74,45.48"/>
        <path class="cls-74" d="M845.28,546.89c8.85-1.34,62.33,12.9,24.77,42.37"/>
        <path class="cls-68" d="M800.37,617.26a2.19,2.19,0,0,1-1.85-.71c-.44-.64,0-1.41,1.06-1.73,38.57-11.87,78.3-38.51,78.7-38.78a2.92,2.92,0,0,1,2.86-.11,1,1,0,0,1,0,1.82c-.4.27-40.67,27.28-80,39.38A3.19,3.19,0,0,1,800.37,617.26Z"/>
        <path class="cls-69" d="M757.41,623.16c-1.12,0-2-.52-2-1.23s.92-1.31,2-1.35c41.89-1.32,67.54-8.61,67.8-8.69a2.46,2.46,0,0,1,2.63.63c.41.64-.09,1.41-1.13,1.71S800.17,621.8,757.41,623.16Z"/>
        <path class="cls-68" d="M742.8,623.62c-1.12,0-2-.51-2-1.22s.92-1.32,2-1.35c104.66-3.32,136.95-11.58,137.27-11.66a2.39,2.39,0,0,1,2.59.68c.38.65-.17,1.41-1.22,1.69C880.15,612.1,848.18,620.28,742.8,623.62Z"/>
        <path class="cls-76" d="M658,601.68c1.09-.87-30.9-17.47,27-40.42-18.29-45.33-119.42-22.54-91.35,32.58C593.69,593.84,634.9,620,658,601.68Z"/>
        <path class="cls-74" d="M679.24,550.44c-5.12.09-56.75,25.32-34,46.59"/>
        <path class="cls-74" d="M693.38,554s-68.24,3.4-39.72,46.21"/>
        <path class="cls-75" d="M675.82,546.36c-21.49-6.19-75,27.93-35.26,53.84"/>
        <path class="cls-74" d="M681.63,548.65c-21.5-6.19-74.13,27.75-34.38,53.66"/>
        <path class="cls-74" d="M668.15,543.09c-19,1.1-72.29,32-34.88,51.13"/>
        <path class="cls-75" d="M650,538.72c-44.11-4.8-75.71,25.66-36,51.56"/>
        <path class="cls-74" d="M663.32,540.9c-17.65-7-105.86,18.1-30.06,54.76"/>
        <path class="cls-74" d="M666.07,542.07c-8.27-1.24-78.48,20.32-43.34,47.66"/>
        <path class="cls-68" d="M700.83,664.22l-1.46,0c-1.12,0-2-.52-2-1.23s.92-1.31,2-1.35h0c41.92-1.2,67.6-8.38,67.86-8.46a2.46,2.46,0,0,1,2.62.64c.41.64-.1,1.41-1.14,1.7S742.71,662.9,700.83,664.22Z"/>
        <path class="cls-69" d="M663.23,624.32a1.13,1.13,0,0,1-.58-.14c-.37-.19-36.59-19.53-55.85-47.55a2.11,2.11,0,0,1,.17-2.51,1.23,1.23,0,0,1,2,.14c18.85,27.42,54.49,46.45,54.85,46.64a1.93,1.93,0,0,1,.7,2.32A1.5,1.5,0,0,1,663.23,624.32Z"/>
        <path class="cls-69" d="M609.61,622.56a1.91,1.91,0,0,1-2-1.48,2,2,0,0,1,1.6-2.31c36.07-8,141-17.67,264.56-19.68a1.88,1.88,0,0,1,2,1.88,2.08,2.08,0,0,1-2.08,2c-123.23,2-227.83,11.58-263.69,19.58A2.6,2.6,0,0,1,609.61,622.56Z"/>
        <path class="cls-69" d="M754.41,616.31c-31.55,1.13-56.89-1.27-77.12-3.18-21.95-2.08-37.81-3.58-49.16.45a1.91,1.91,0,1,1-1.28-3.59c12.25-4.36,28.5-2.82,51-.69,40.71,3.85,102.22,9.68,193.64-15.67a2,2,0,0,1,2.45,1.3,2,2,0,0,1-1.46,2.39C825.77,610.26,786.81,615.15,754.41,616.31Z"/>
        <path class="cls-70" d="M906.44,590.33c-.2,21.32-15,77.94-158.43,81.61-138.24,3.53-159-65.79-158.85-87.11S658.37,625,749.78,618C875,608.34,906.65,569,906.44,590.33Z"/>
        <path class="cls-69" d="M651.13,604.43a174.62,174.62,0,0,1-38-15.34,2.06,2.06,0,0,1-.8-2.36,1.26,1.26,0,0,1,1.83-.89,173.39,173.39,0,0,0,55.19,19,1.79,1.79,0,0,1,1.35,1.95c0,1-.7,1.69-1.48,1.59A149.29,149.29,0,0,1,651.13,604.43Z"/>
        <path class="cls-69" d="M633.94,605.46a173.61,173.61,0,0,1-38-15.34,2.05,2.05,0,0,1-.8-2.36,1.26,1.26,0,0,1,1.83-.89,173.39,173.39,0,0,0,55.19,19,1.82,1.82,0,0,1,1.35,2c0,1-.7,1.7-1.48,1.6A147.92,147.92,0,0,1,633.94,605.46Z"/>
        <path class="cls-69" d="M629.86,613a173.41,173.41,0,0,1-38-15.34,2.06,2.06,0,0,1-.81-2.36,1.26,1.26,0,0,1,1.83-.88,173,173,0,0,0,55.2,19,1.83,1.83,0,0,1,1.35,2c0,1-.71,1.69-1.48,1.59A147.92,147.92,0,0,1,629.86,613Z"/>
        <path class="cls-68" d="M729.2,620.32l-2.79.08c-59.54,1.74-110.4-1.59-110.91-1.63-1.1-.07-1.85-.71-1.67-1.41s1.21-1.22,2.32-1.15c.5,0,51.11,3.35,110.35,1.62l2.7-.08c76.74-2.43,133.36-12.36,163.85-28.75a2.86,2.86,0,0,1,2.84.11c.69.53.55,1.35-.33,1.82-17.68,9.5-43.46,16.87-76.62,21.9C793.26,616.73,763.08,619.25,729.2,620.32Z"/>
        <path class="cls-70" d="M724,614.24h-.25c-.48,0-48.81-2.29-88.59-10.57-1-.22-1.57-.94-1.17-1.62a2.57,2.57,0,0,1,2.62-.83c39.33,8.18,87.17,10.42,87.65,10.45,1.11.05,1.9.66,1.75,1.37S725,614.21,724,614.24Z"/>
        <path class="cls-70" d="M764.66,609.26a535.43,535.43,0,0,1-93.45-4.9c-49.22-7.12-80.12-19.82-88.92-29.25-.55-.6-.22-1.4.75-1.78a2.7,2.7,0,0,1,2.76.37c8.39,9,38.39,21.19,86.51,28.15,38.64,5.59,100.92,9.43,178.21-4.05,1.09-.19,2.17.21,2.41.89s-.45,1.4-1.54,1.59A619.27,619.27,0,0,1,764.66,609.26Z"/>
        <path class="cls-69" d="M888.76,590c-17.31,5.84-44.76,13.7-70.4,15a1.52,1.52,0,0,1-1.61-1.89,2.58,2.58,0,0,1,2.3-2.1c40.67-2.12,86.13-21,86.58-21.2a1.61,1.61,0,0,1,2.35,1,2.52,2.52,0,0,1-1.56,2.64C906.24,583.61,899.42,586.44,888.76,590Z"/>
        <path class="cls-69" d="M737.84,617.69c-20.16.72-60,.72-88.94-8.37a1.82,1.82,0,0,1-1.19-2.42,2.13,2.13,0,0,1,2.6-1.23c39.33,12.35,99.52,7.57,100.13,7.51a1.89,1.89,0,0,1,2.11,1.75,2.05,2.05,0,0,1-1.93,2.08C750.45,617,745.61,617.41,737.84,617.69Z"/>
        <path class="cls-77" d="M616.06,635.37s-14.84,18.58,21.78,29,92.88,19.85,158.62,11.91S892.93,631.9,896.89,628c7.11-7-.87-28-4.22-9.71C856.94,675.57,668.15,688.66,616.06,635.37Z"/>
        <path class="cls-69" d="M707.37,661.31a356.42,356.42,0,0,1-54-6c-1.08-.2-1.69-.91-1.38-1.6a2.35,2.35,0,0,1,2.51-.87c40.34,7.5,67.72,5.85,68,5.83,1.12-.07,2.11.44,2.22,1.15s-.69,1.34-1.8,1.41C722.45,661.25,716.91,661.59,707.37,661.31Z"/>
        <path class="cls-68" d="M778.55,657.17a394,394,0,0,1-49.4,2.4c-1.1,0-1.86-.61-1.69-1.33a2.27,2.27,0,0,1,2.3-1.27c50.76.78,104.25-9,146.76-26.9a2.55,2.55,0,0,1,2.72.31c.52.59.14,1.4-.85,1.82C848.83,644.63,814.07,653.23,778.55,657.17Z"/>
        <path class="cls-69" d="M800.19,642.2c-1.11.14-2.06-.31-2.13-1s.79-1.4,1.9-1.54c41.56-5.45,66.37-15.24,66.61-15.33a2.47,2.47,0,0,1,2.68.36c.48.6,0,1.41-1,1.81S842.61,636.64,800.19,642.2Z"/>
        <path class="cls-69" d="M890.14,608.26c-16.4,6.71-42.73,16-68.65,18.91a1.83,1.83,0,0,1-2.08-1.72,2.12,2.12,0,0,1,1.89-2.17c41.13-4.6,83.41-25.67,83.83-25.88a1.91,1.91,0,0,1,2.62.83,2,2,0,0,1-1,2.64C906.58,601,900.24,604.12,890.14,608.26Z"/>
        <path class="cls-69" d="M841.41,614C770.23,632.93,629,631.21,627.66,631.14a1.82,1.82,0,0,1-1.77-2,2.13,2.13,0,0,1,2.18-1.85c1.87,0,155,2,221.63-19.69a1.91,1.91,0,0,1,2.47,1.21,2.07,2.07,0,0,1-1.4,2.47C847.81,612.21,844.68,613.12,841.41,614Z"/>
        <path class="cls-69" d="M733.26,643.88c-40.16,1.44-85-1.85-124-16.54a1.83,1.83,0,0,1-1-2.49,2.13,2.13,0,0,1,2.67-1.09C668,645.27,738.1,642,786.82,635.4c55.64-7.5,101.08-21.43,113-27.23a2,2,0,0,1,2.69.82,1.93,1.93,0,0,1-1,2.59c-12.18,5.9-58.23,20.06-114.35,27.62C771.15,641.37,752.76,643.18,733.26,643.88Z"/>
        <path class="cls-69" d="M743.35,655.76c-26.34.79-55.53-1-88.19-5.29-1.08-.15-1.73-.83-1.45-1.52a2.37,2.37,0,0,1,2.48-1c112.43,14.87,159.83-3.54,201.64-19.78l1,1.07.94,1.11c-20.33,7.89-43.38,16.85-75.19,21.75A336.74,336.74,0,0,1,743.35,655.76Z"/>
        <path class="cls-69" d="M755.5,667.33c-26.35.83-55.53-.88-88.21-5.15-1.08-.14-1.73-.82-1.44-1.51a2.37,2.37,0,0,1,2.47-1c112.46,14.68,159.82-3.81,201.61-20.12l1,1.07.95,1.1c-20.33,7.94-43.36,16.93-75.16,21.89A338.33,338.33,0,0,1,755.5,667.33Z"/>
        <path class="cls-69" d="M749.9,650.56c-31.71,1-71.85-1.51-136.14-14.74-1-.21-1.57-.94-1.17-1.61a2.55,2.55,0,0,1,2.61-.84c95.44,19.63,137.09,15.45,177.37,11.41l9.9-1c1.1-.11,2.1.38,2.2,1.08s-.71,1.36-1.82,1.47c-3.31.31-6.58.64-9.86,1C779.43,648.68,765.71,650.06,749.9,650.56Z"/>
        <path class="cls-68" d="M663.45,628.11a393.75,393.75,0,0,1-49.19-5.1c-1.08-.18-1.74-.89-1.46-1.57a2.26,2.26,0,0,1,2.46-.91c50.06,8.45,104.42,6.85,149.14-4.4a2.57,2.57,0,0,1,2.64.72c.42.66-.07,1.41-1.11,1.67C734.83,626.34,699.16,629.58,663.45,628.11Z"/>
        <path class="cls-69" d="M712.07,637.22c-26.92.85-56.28-.29-85-5.38-1.06-.18-1.63-.89-1.27-1.58a2.5,2.5,0,0,1,2.56-.9c64.76,11.47,133.16,2.57,168.17-3.75,54.24-9.8,90.84-24.07,99-33.1a2.8,2.8,0,0,1,2.77-.56c1,.33,1.29,1.11.72,1.74-10.14,11.28-51.89,25.42-101.54,34.39A595.22,595.22,0,0,1,712.07,637.22Z"/>
      </g>
    </g>
  </g>
</svg>
