<svg xmlns="http://www.w3.org/2000/svg" xmlns:xlink="http://www.w3.org/1999/xlink" width="1600" height="900" viewBox="0 0 1600 900">
  <defs>
    <style>
      .cls-1, .cls-76, .cls-77 {
        fill: none;
      }

      .cls-2 {
        isolation: isolate;
      }

      .cls-3 {
        clip-path: url(#clip-path);
      }

      .cls-4 {
        clip-path: url(#clip-path-2);
      }

      .cls-5 {
        fill: url(#linear-gradient);
      }

      .cls-6, .cls-7 {
        fill: #bfd9f1;
      }

      .cls-7 {
        opacity: 0.56;
      }

      .cls-8 {
        fill: url(#linear-gradient-2);
      }

      .cls-9 {
        fill: #207d78;
      }

      .cls-79, .cls-9 {
        opacity: 0.36;
      }

      .cls-10 {
        fill: url(#linear-gradient-3);
      }

      .cls-11 {
        fill: url(#linear-gradient-4);
      }

      .cls-12 {
        fill: #392512;
      }

      .cls-13 {
        fill: #1c0e2c;
      }

      .cls-14 {
        fill: url(#linear-gradient-5);
      }

      .cls-15 {
        fill: #895c3a;
      }

      .cls-16 {
        fill: url(#linear-gradient-6);
      }

      .cls-17 {
        fill: url(#linear-gradient-7);
      }

      .cls-18, .cls-46 {
        opacity: 0.65;
      }

      .cls-19 {
        fill: url(#linear-gradient-8);
      }

      .cls-20 {
        fill: url(#linear-gradient-9);
      }

      .cls-21 {
        fill: #2a6b2a;
      }

      .cls-22 {
        fill: #229f49;
      }

      .cls-23 {
        fill: #fbf5b6;
      }

      .cls-24 {
        opacity: 0.17;
      }

      .cls-25 {
        fill: url(#linear-gradient-10);
      }

      .cls-26 {
        fill: #aa1a55;
      }

      .cls-27 {
        opacity: 0.12;
        fill: url(#linear-gradient-11);
      }

      .cls-28 {
        fill: #a32547;
      }

      .cls-29 {
        fill: #d82364;
      }

      .cls-30 {
        opacity: 0.31;
      }

      .cls-31 {
        fill: url(#linear-gradient-12);
      }

      .cls-32 {
        fill: url(#linear-gradient-13);
      }

      .cls-33 {
        fill: url(#linear-gradient-14);
      }

      .cls-34 {
        fill: #166c83;
      }

      .cls-35 {
        opacity: 0.21;
      }

      .cls-36 {
        fill: url(#linear-gradient-15);
      }

      .cls-37 {
        fill: url(#linear-gradient-16);
      }

      .cls-38 {
        fill: url(#linear-gradient-17);
      }

      .cls-39 {
        fill: url(#linear-gradient-18);
      }

      .cls-40 {
        fill: url(#linear-gradient-19);
      }

      .cls-41 {
        fill: url(#linear-gradient-20);
      }

      .cls-42 {
        fill: url(#linear-gradient-21);
      }

      .cls-43 {
        fill: url(#linear-gradient-22);
      }

      .cls-44 {
        fill: #218bb1;
      }

      .cls-45 {
        fill: #1ebad0;
      }

      .cls-46 {
        fill: #999093;
        stroke: #383436;
      }

      .cls-46, .cls-48, .cls-56, .cls-76, .cls-77 {
        stroke-miterlimit: 10;
      }

      .cls-47 {
        fill: url(#linear-gradient-23);
      }

      .cls-48 {
        fill: #eaeaea;
        stroke: #333232;
        stroke-width: 0.25px;
      }

      .cls-49 {
        fill: #d1d1d1;
      }

      .cls-50 {
        fill: #fff;
      }

      .cls-51 {
        clip-path: url(#clip-path-3);
      }

      .cls-52 {
        clip-path: url(#clip-path-4);
      }

      .cls-53 {
        fill: url(#linear-gradient-24);
      }

      .cls-54 {
        fill: url(#linear-gradient-25);
      }

      .cls-55 {
        fill: url(#linear-gradient-26);
      }

      .cls-56 {
        fill: #77491e;
        stroke: #382110;
        stroke-width: 0.75px;
      }

      .cls-57 {
        fill: #825024;
      }

      .cls-58 {
        fill: #733c19;
      }

      .cls-59, .cls-61 {
        mix-blend-mode: screen;
      }

      .cls-59 {
        opacity: 0.5;
      }

      .cls-60, .cls-61 {
        fill: #dc8035;
      }

      .cls-61 {
        opacity: 0.24;
      }

      .cls-62 {
        fill: #2a5026;
      }

      .cls-63 {
        fill: #2e6633;
      }

      .cls-64 {
        fill: url(#linear-gradient-27);
      }

      .cls-65 {
        fill: #2b6331;
      }

      .cls-66 {
        fill: #6dad44;
        opacity: 0.42;
      }

      .cls-67 {
        fill: #30793b;
      }

      .cls-68 {
        fill: #569d44;
      }

      .cls-69 {
        fill: #7c481d;
      }

      .cls-70 {
        fill: #d5b386;
      }

      .cls-71 {
        fill: #936d29;
      }

      .cls-72 {
        fill: #bb8a40;
      }

      .cls-73 {
        fill: #a06d35;
      }

      .cls-74 {
        fill: #744e1f;
      }

      .cls-75 {
        fill: #b68038;
      }

      .cls-76 {
        stroke: #936d29;
      }

      .cls-76, .cls-77 {
        stroke-width: 2px;
      }

      .cls-77 {
        stroke: #d5b386;
      }

      .cls-78 {
        fill: #ae7c36;
      }

      .cls-80 {
        fill: #17405e;
      }

      .cls-81 {
        clip-path: url(#clip-path-5);
      }
    </style>
    <clipPath id="clip-path">
      <rect class="cls-1" x="800" width="800" height="900"/>
    </clipPath>
    <clipPath id="clip-path-2">
      <rect class="cls-1" x="640" width="1600" height="900"/>
    </clipPath>
    <linearGradient id="linear-gradient" x1="1446.99" y1="-185.44" x2="1446.99" y2="309.04" gradientUnits="userSpaceOnUse">
      <stop offset="0.01" stop-color="#89a4d5"/>
      <stop offset="1" stop-color="#d7def0"/>
    </linearGradient>
    <linearGradient id="linear-gradient-2" x1="1447.36" y1="912.79" x2="1447.36" y2="305.57" gradientUnits="userSpaceOnUse">
      <stop offset="0.32" stop-color="#89c159"/>
      <stop offset="0.48" stop-color="#85bd58"/>
      <stop offset="0.64" stop-color="#7ab355"/>
      <stop offset="0.8" stop-color="#67a151"/>
      <stop offset="0.95" stop-color="#4c884b"/>
      <stop offset="1" stop-color="#417e48"/>
    </linearGradient>
    <linearGradient id="linear-gradient-3" x1="1228" y1="-158.12" x2="1684.11" y2="631.89" gradientUnits="userSpaceOnUse">
      <stop offset="0.02" stop-color="#6aa587"/>
      <stop offset="0.59" stop-color="#4c7d7d"/>
      <stop offset="0.7" stop-color="#49797c"/>
      <stop offset="0.82" stop-color="#406c79"/>
      <stop offset="0.93" stop-color="#315673"/>
      <stop offset="1" stop-color="#26476f"/>
    </linearGradient>
    <linearGradient id="linear-gradient-4" x1="1339.32" y1="54.84" x2="1339.32" y2="-483.22" gradientUnits="userSpaceOnUse">
      <stop offset="0" stop-color="#3db049"/>
      <stop offset="1" stop-color="#a1c23a"/>
    </linearGradient>
    <linearGradient id="linear-gradient-5" x1="1462.13" y1="442.7" x2="1462.13" y2="220.25" gradientUnits="userSpaceOnUse">
      <stop offset="0" stop-color="#8a5f3c"/>
      <stop offset="1" stop-color="#a87c51"/>
    </linearGradient>
    <linearGradient id="linear-gradient-6" x1="1362.21" y1="427.63" x2="1362.24" y2="427.63" gradientUnits="userSpaceOnUse">
      <stop offset="0.03" stop-color="#89c159"/>
      <stop offset="0.2" stop-color="#77b155"/>
      <stop offset="0.52" stop-color="#5a954e"/>
      <stop offset="0.8" stop-color="#47844a"/>
      <stop offset="1" stop-color="#417e48"/>
    </linearGradient>
    <linearGradient id="linear-gradient-7" x1="1200.76" y1="444.01" x2="2313.72" y2="444.01" xlink:href="#linear-gradient-6"/>
    <linearGradient id="linear-gradient-8" x1="1772.4" y1="973.25" x2="1772.43" y2="973.25" gradientTransform="matrix(1.28, 0, 0, 1.5, -1070.29, -723.84)" xlink:href="#linear-gradient-6"/>
    <linearGradient id="linear-gradient-9" x1="1624.37" y1="987.33" x2="2644.76" y2="987.33" gradientTransform="matrix(1.28, 0, 0, 1.5, -1070.29, -723.84)" xlink:href="#linear-gradient-6"/>
    <linearGradient id="linear-gradient-10" x1="728.75" y1="526.49" x2="1472.09" y2="526.49" gradientUnits="userSpaceOnUse">
      <stop offset="0" stop-color="#3c2417"/>
      <stop offset="1" stop-color="#3c2417"/>
    </linearGradient>
    <linearGradient id="linear-gradient-11" x1="879.94" y1="504.05" x2="1329.81" y2="504.05" xlink:href="#linear-gradient-10"/>
    <linearGradient id="linear-gradient-12" x1="1262.35" y1="385.28" x2="1490.93" y2="385.28" xlink:href="#linear-gradient-10"/>
    <linearGradient id="linear-gradient-13" x1="1355.53" y1="449.13" x2="1531.85" y2="449.13" xlink:href="#linear-gradient-10"/>
    <linearGradient id="linear-gradient-14" x1="1188.35" y1="471.42" x2="1472.09" y2="471.42" xlink:href="#linear-gradient-10"/>
    <linearGradient id="linear-gradient-15" x1="958.75" y1="637.45" x2="958.79" y2="637.45" xlink:href="#linear-gradient-10"/>
    <linearGradient id="linear-gradient-16" x1="948.37" y1="680.54" x2="977.57" y2="680.54" xlink:href="#linear-gradient-10"/>
    <linearGradient id="linear-gradient-17" x1="879.94" y1="572.13" x2="1329.81" y2="572.13" xlink:href="#linear-gradient-10"/>
    <linearGradient id="linear-gradient-18" x1="948.37" y1="574.85" x2="978.18" y2="574.85" xlink:href="#linear-gradient-10"/>
    <linearGradient id="linear-gradient-19" x1="879.94" y1="585.9" x2="1329.81" y2="585.9" xlink:href="#linear-gradient-10"/>
    <linearGradient id="linear-gradient-20" x1="1022.83" y1="595.58" x2="1047.03" y2="595.58" xlink:href="#linear-gradient-10"/>
    <linearGradient id="linear-gradient-21" x1="879.94" y1="597.18" x2="1329.81" y2="597.18" xlink:href="#linear-gradient-10"/>
    <linearGradient id="linear-gradient-22" x1="1095.15" y1="612.44" x2="1117.13" y2="612.44" xlink:href="#linear-gradient-10"/>
    <linearGradient id="linear-gradient-23" x1="1084.54" y1="-999.79" x2="1130.69" y2="-999.79" gradientTransform="translate(219.46 1813.91) scale(1 1.41)" xlink:href="#linear-gradient-10"/>
    <clipPath id="clip-path-3">
      <rect class="cls-1" width="800" height="900"/>
    </clipPath>
    <clipPath id="clip-path-4">
      <rect class="cls-1" x="-300" y="3" width="1600.17" height="900"/>
    </clipPath>
    <linearGradient id="linear-gradient-24" x1="1305.45" y1="1477.27" x2="1305.92" y2="1477.31" gradientTransform="matrix(334.04, -1651.37, -1651.37, -334.04, 2003921.21, 2650137.45)" gradientUnits="userSpaceOnUse">
      <stop offset="0.2" stop-color="#f0f6fb"/>
      <stop offset="0.46" stop-color="#cde3f5"/>
      <stop offset="0.7" stop-color="#b3d5f0"/>
    </linearGradient>
    <linearGradient id="linear-gradient-25" x1="323.2" y1="411.31" x2="804.34" y2="1244.67" gradientUnits="userSpaceOnUse">
      <stop offset="0.01" stop-color="#26476f"/>
      <stop offset="0.02" stop-color="#2b4e71"/>
      <stop offset="0.1" stop-color="#426e79"/>
      <stop offset="0.18" stop-color="#54867f"/>
      <stop offset="0.26" stop-color="#609784"/>
      <stop offset="0.35" stop-color="#68a286"/>
      <stop offset="0.46" stop-color="#6aa587"/>
      <stop offset="1" stop-color="#427c83"/>
    </linearGradient>
    <linearGradient id="linear-gradient-26" x1="258.94" y1="386.65" x2="840.96" y2="1394.74" xlink:href="#linear-gradient-3"/>
    <linearGradient id="linear-gradient-27" x1="678.1" y1="174.24" x2="1492.87" y2="174.24" gradientUnits="userSpaceOnUse">
      <stop offset="0.26" stop-color="#1b391b"/>
      <stop offset="0.43" stop-color="#1d3d1d"/>
      <stop offset="0.59" stop-color="#224822"/>
      <stop offset="0.74" stop-color="#2b5a2b"/>
      <stop offset="0.89" stop-color="#387438"/>
      <stop offset="0.91" stop-color="#3a783a"/>
    </linearGradient>
    <clipPath id="clip-path-5">
      <rect class="cls-1" x="1850" y="3" width="1600.17" height="900"/>
    </clipPath>
  </defs>
  <g class="cls-2">
    <g id="Layer_1" data-name="Layer 1">
      <g>
        <g id="SC_05">
          <g class="cls-3">
            <g class="cls-4">
              <rect class="cls-5" x="620" y="-185.44" width="1653.98" height="494.47"/>
              <path class="cls-6" d="M1385.81,154.64c-232.5,54.16-679-84-922.88-28.93l-2.23,55C634.66,71.92,1083.2,224.33,1385.81,154.64Z"/>
              <path class="cls-6" d="M1559.75,135.72c230.12-63.53,681.88,56.47,923.29-8.47V72.19C2313.63,188,1859.29,53.84,1559.75,135.72Z"/>
              <path class="cls-7" d="M1354.21,30.24c230.12-63.53,681.89,56.47,923.3-8.47V-33.29C2108.1,82.48,1653.75-51.64,1354.21,30.24Z"/>
              <path class="cls-6" d="M1516.92,82.69C1282.75,129.1,841.05-23.85,595.51,23.13L591.45,78C768.93-24.93,1212.16,142.29,1516.92,82.69Z"/>
              <rect class="cls-8" x="620" y="305.57" width="1654.72" height="607.22"/>
              <path class="cls-9" d="M436.55,200.18s168,18.09,418.6-26.6A125,125,0,0,1,884.46,172c33,2.08,109.72,7.58,142.8,15.43l93.65-6.21a239.5,239.5,0,0,1,40.38.72l52.85,5.49,394.74-30.25a428.62,428.62,0,0,1,59.22-.41c41.78,2.62,113.73,7,119.33,6.54,7.92-.64,105.51-9,136.19-11,28.92-1.92,354.75,11.64,354.75,11.64l9.5,75L436.55,247.39Z"/>
              <path class="cls-10" d="M622.87,191.26s127.5,66.73,665,47.61c540.31-12.17,414.15-83.44,989.66-48.67v99.09L635.2,284.62Z"/>
              <path class="cls-11" d="M1335.15,42.05l-.93.16c2.62,1.32,5.19,2.75,7.7,4.26,1.68-.81,2.65-1.78,2.46-2.68C1344,42.14,1339.9,41.36,1335.15,42.05Z"/>
              <rect class="cls-12" x="1438.33" y="285.62" width="851.13" height="54.04"/>
              <g>
                <polygon class="cls-13" points="1488.5 442.7 1439.22 442.7 1439.22 246.32 1463.86 220.25 1488.5 246.32 1488.5 442.7"/>
                <polygon class="cls-13" points="1550.26 442.7 1500.97 442.7 1500.97 246.32 1525.62 220.25 1550.26 246.32 1550.26 442.7"/>
                <polygon class="cls-13" points="1612.02 442.7 1562.73 442.7 1562.73 246.32 1587.37 220.25 1612.02 246.32 1612.02 442.7"/>
              </g>
              <polygon class="cls-14" points="1486.78 442.7 1437.49 442.7 1437.49 246.32 1462.13 220.25 1486.78 246.32 1486.78 442.7"/>
              <rect class="cls-12" x="635.2" y="284.62" width="851.13" height="54.04"/>
              <g>
                <polygon class="cls-13" points="685.38 441.7 636.09 441.7 636.09 245.32 660.74 219.25 685.38 245.32 685.38 441.7"/>
                <polygon class="cls-13" points="747.14 441.7 697.85 441.7 697.85 245.32 722.49 219.25 747.14 245.32 747.14 441.7"/>
                <polygon class="cls-13" points="808.89 441.7 759.6 441.7 759.6 245.32 784.25 219.25 808.89 245.32 808.89 441.7"/>
                <polygon class="cls-13" points="870.65 441.7 821.36 441.7 821.36 245.32 846 219.25 870.65 245.32 870.65 441.7"/>
                <polygon class="cls-13" points="932.4 441.7 883.12 441.7 883.12 245.32 907.76 219.25 932.4 245.32 932.4 441.7"/>
                <polygon class="cls-13" points="994.16 441.7 944.87 441.7 944.87 245.32 969.52 219.25 994.16 245.32 994.16 441.7"/>
                <polygon class="cls-13" points="1055.92 441.7 1006.63 441.7 1006.63 245.32 1031.27 219.25 1055.92 245.32 1055.92 441.7"/>
                <polygon class="cls-13" points="1117.67 441.7 1068.38 441.7 1068.38 245.32 1093.03 219.25 1117.67 245.32 1117.67 441.7"/>
                <polygon class="cls-13" points="1179.43 441.7 1130.14 441.7 1130.14 245.32 1154.78 219.25 1179.43 245.32 1179.43 441.7"/>
                <polygon class="cls-13" points="1241.18 441.7 1191.89 441.7 1191.89 245.32 1216.54 219.25 1241.18 245.32 1241.18 441.7"/>
                <polygon class="cls-13" points="1302.94 441.7 1253.65 441.7 1253.65 245.32 1278.29 219.25 1302.94 245.32 1302.94 441.7"/>
                <polygon class="cls-13" points="1364.69 441.7 1315.4 441.7 1315.4 245.32 1340.05 219.25 1364.69 245.32 1364.69 441.7"/>
                <polygon class="cls-13" points="1426.45 441.7 1377.16 441.7 1377.16 245.32 1401.8 219.25 1426.45 245.32 1426.45 441.7"/>
                <polygon class="cls-13" points="1488.07 441.7 1438.78 441.7 1438.78 245.32 1463.42 219.25 1488.07 245.32 1488.07 441.7"/>
              </g>
              <g>
                <polygon class="cls-15" points="1548.53 442.7 1499.24 442.7 1499.24 246.32 1523.89 220.25 1548.53 246.32 1548.53 442.7"/>
                <polygon class="cls-15" points="1610.29 442.7 1561 442.7 1561 246.32 1585.64 220.25 1610.29 246.32 1610.29 442.7"/>
                <g>
                  <polygon class="cls-15" points="683.65 441.7 634.36 441.7 634.36 245.32 659.01 219.25 683.65 245.32 683.65 441.7"/>
                  <polygon class="cls-15" points="745.41 441.7 696.12 441.7 696.12 245.32 720.76 219.25 745.41 245.32 745.41 441.7"/>
                  <polygon class="cls-15" points="807.16 441.7 757.87 441.7 757.87 245.32 782.52 219.25 807.16 245.32 807.16 441.7"/>
                  <polygon class="cls-15" points="868.92 441.7 819.63 441.7 819.63 245.32 844.27 219.25 868.92 245.32 868.92 441.7"/>
                  <polygon class="cls-15" points="930.67 441.7 881.38 441.7 881.38 245.32 906.03 219.25 930.67 245.32 930.67 441.7"/>
                  <polygon class="cls-15" points="992.43 441.7 943.14 441.7 943.14 245.32 967.79 219.25 992.43 245.32 992.43 441.7"/>
                  <polygon class="cls-15" points="1054.19 441.7 1004.9 441.7 1004.9 245.32 1029.54 219.25 1054.19 245.32 1054.19 441.7"/>
                  <polygon class="cls-15" points="1115.94 441.7 1066.65 441.7 1066.65 245.32 1091.3 219.25 1115.94 245.32 1115.94 441.7"/>
                  <polygon class="cls-15" points="1177.7 441.7 1128.41 441.7 1128.41 245.32 1153.05 219.25 1177.7 245.32 1177.7 441.7"/>
                  <polygon class="cls-15" points="1239.45 441.7 1190.16 441.7 1190.16 245.32 1214.81 219.25 1239.45 245.32 1239.45 441.7"/>
                  <polygon class="cls-15" points="1301.21 441.7 1251.92 441.7 1251.92 245.32 1276.56 219.25 1301.21 245.32 1301.21 441.7"/>
                  <polygon class="cls-15" points="1362.96 441.7 1313.67 441.7 1313.67 245.32 1338.32 219.25 1362.96 245.32 1362.96 441.7"/>
                  <polygon class="cls-15" points="1424.72 441.7 1375.43 441.7 1375.43 245.32 1400.07 219.25 1424.72 245.32 1424.72 441.7"/>
                  <polygon class="cls-15" points="1486.34 441.7 1437.05 441.7 1437.05 245.32 1461.69 219.25 1486.34 245.32 1486.34 441.7"/>
                </g>
              </g>
              <g>
                <path class="cls-16" d="M1362.24,427.64h0Z"/>
                <path class="cls-17" d="M1231.05,455.54c51.52,4.1,68.59,11.39,67.2,12.31s19,12.59,96.91,4c19.87-2.19,34.25-3.1,44.91-3.23,26.47,3.82,35.81,8.1,34.77,8.78-1.39.91,19,12.59,96.91,4s71.36,2.51,87.92,3.12,60.82-3.14,60.82-3.14l-.12-2.58c80.88-8.75,72.13,2.33,89.35,3,16.56.61,60.82-3.14,60.82-3.14l-.75-16c11.2,2.54,15.36,4.69,14.65,5.16-1.39.91,19,12.59,96.91,4,30.21-3.33,47.72-3.7,58.81-2.87,13,2.76,17.79,5.19,17,5.69-1.39.91,19.05,12.59,96.92,4s71.36,2.51,87.92,3.11,60.81-3.13,60.81-3.13l-1.63-35s6.48-16.91,11.29-16.9-5-3.18-21,11c0,0-6.68-13-16.06-16.42,0,0,11.85,10.49,1.2,19.16,0,0-3.9-19.12-28.51-30.09,0,0,23,20.51,14.59,28.72,0,0-5.33-6.84-8.75-9.12,0,0,5.84,11.4.36,13.68,0,0-18.24-20.39-20.88-24.34,0,0,11.35,19.78,7.51,24.35,0,0-10.62-9.13-13.93-12.78,0,0,4.1,12,2.09,10.95-3.55-1.82-9.56-13.82-26-17.56,0,0,17.38,8.9,15,15.28,0,0-9.66-8.21-15.12-10.49,0,0,8.14,6.39,5.35,9.13,0,0-20.39-20.37-35.78-22.73,0,0,20.13,12.57,18,19l-3.54,5.53s-4-4.56-6.74-8.21c0,0-2.17-.86-1.51,4.59,1.81,15,.68-4.41-14.66-15.41,0,0,12.62,17.67,5.66,22.69,0,0-17.63-15.06-25.71-25.55,0,0,8.5,11.09,3.31,21-1.45-2.77-10.46-11.38-10.94-17.2,1.11-1.23,2.22-2,3.25-2,4.82,0-5-3.18-21,11,0,0-6.67-13-16.05-16.42,0,0,8.83,7.82,4.38,15.54-9.42-9.29-2.73-6.72-3.07,3.52-.44.37-3.39-18.73-28.63-30,0,0,23,20.5,14.59,28.71,0,0-5.33-6.84-8.75-9.12a31.59,31.59,0,0,1,2.31,6.28c-.46,1.82-1.16,4.5-2,7.32-.64-.72-5.4-6.05-10.25-11.6.78-6.34,2-12.59,3.49-14.75,0,0-3.53,4.94-7.23,10.42-10.73-12.48-6.92-10.32-1.55,2.31-1.79,2.7-3.51,5.38-4.77,7.53-7.85-7.06-7.1-7.17-6.74-6.08-1.26-2.09-2.62-3.88-3.94-4.62,0,0,4.78,6.07,3.16,12.67-3.9-4.19-10.38-12.24-23.29-15.18,0,0,17.07,8.74,15.1,15.11-.42-.34-10.42-8.33-15.18-10.31a25,25,0,0,1,5.23,5.58,17.36,17.36,0,0,1,.19,3.47c-.17.17-20.24-20.27-35.84-22.66,0,0,20.12,12.57,17.95,19l-3.53,5.54s-4-4.56-6.74-8.21c0,0-2.18-.87-1.52,4.58,1.81,15,.68-4.41-14.65-15.41,0,0,12.61,17.67,5.65,22.69,0,0-17.63-15.05-25.7-25.55,0,0,8.5,11.09,3.3,21-1.45-2.77-11.11-12.09-11-17.71,0,0-4.37,12.66-.38,22.24,0,0-2-4.67-14.92-9.17.24.1,2.06,1.09,2.57,9.18,0,0-15.64-11-21.68-19.39,0,0,4.69,7.07-.33,19.39,0,0-17.17-1.8-17.61-16.64,0,0-4.46,19.84-8.63,22.57,0,0-.53-9.7.25-15.11s-3.8,5.53-5.06,6.9.57-25.95,4.1-31c0,0-14.77,20.65-15.55,24.33,0,0-4.6-12.49-8.69-14.77,0,0,5.13,6.52,3,13.38a17.59,17.59,0,0,0-5.78,1.25c-2.1-2.17-6-5.19-13.1-9,0,0,2.72,1.67-.26,15.36,0,0-10.27-3.21-12.83-14.15-2,6.15,1,3.77-5.62,1.38a21,21,0,0,1,4.15,5.42A20.7,20.7,0,0,0,1848,436a8.81,8.81,0,0,1-.7,1.26l-3.82.17c-2.18-5.81-8.94-18.79-27.59-27.1,0,0,21.38,19.08,15.36,27.8l-1.42.1c-1.52-1.88-5.4-6.51-8.1-8.31,0,0,2.44,4.76,2.69,8.74-2.09.18-4.17.37-6.2.59-5.51-6.22-15.14-17.2-17-20,0,0,8,14,8.3,21.13-1.33.22-2.57.45-3.68.7-3.39-3-8.84-7.83-11-10.26,0,0,4.1,12,2.09,10.95-3.55-1.83-9.56-13.83-26-17.56,0,0,17.38,8.89,15,15.28,0,0-9.65-8.21-15.12-10.49,0,0,8.15,6.38,5.35,9.12,0,0-20.39-20.37-35.78-22.73,0,0,20.13,12.57,18,19l-3.53,5.54s-4-4.56-6.74-8.21c0,0-2.18-.86-1.52,4.59,1.81,15,.68-4.42-14.65-15.42,0,0,12.61,17.67,5.65,22.69,0,0-5.52-4.71-11.8-10.71,1.48-2,3-3.45,4.42-3.44,3.07,0,.16-1.29-6.49,1.45-23.58-23-4.58-11-7.06,3.79-1,.64-2,1.35-3.06,2.14-2.08-2.62-9.5-10.68-9.36-15.46a44.49,44.49,0,0,0-1.89,9.26,24.22,24.22,0,0,0-9.16-6.64s8.07,7.15,4.89,14.53a45.26,45.26,0,0,0-6.89-3.26c-3.58-6.54-10.9-15.76-25.32-22.19,0,0,15.66,14,16.41,23.47-24.18-19.87-4.11-14.4-12.74,7-30.58-34.44-15-21.17-10.6-3.79-12-8.13-3.35-23-10-2-7.35-6.81-3.35-5.24-1.69,4.9-.24.61-.47,1.19-.71,1.76A21.54,21.54,0,0,1,1643,441c.11-7.77,1.94-12-2.76-2.93-.69-.68-1.42-1.39-2.22-2.1.35-7.94,2-22.11,4.43-25.6,0,0-8.82,12.32-13.19,19.62a37.57,37.57,0,0,0-5.32-2.14c-1.64-3.31-3.75-6.82-5.73-7.92a18.68,18.68,0,0,1,3.24,7.22c-.94-.23-.84-.26,0,.22a12.75,12.75,0,0,1,0,4.77c-1.17-.56-.87-.45-.06.24a11.17,11.17,0,0,1-1.23,3.16c-7.18-6.21-19.66-15.78-29.91-17.36a93.75,93.75,0,0,1,13,10c.29,2,.23,5.59-1,11.76-1.33-1.58-3-3.59-4.29-5.37,0,0-1.79-.71-1.63,3.21a19.23,19.23,0,0,1-7.12-11c-1.83,5.54,1.35,3.24-7.42-3.06a62.23,62.23,0,0,1,5.88,10.49c-.35,3.29-.25,7.06,1.24,9.92,0,0-1.47.05-3.91.16-5.11-4.52-17-15.33-23.26-23.42,0,0,8.5,11.08,3.3,21-1.45-2.76-11.11-12.1-10.95-17.7,0,0-4.37,12.66-.38,22.24,0,0-1.59-3.81-11.41-7.85l-.08-1.73s6.48-16.91,11.29-16.9-5-3.18-21,11c0,0-6.67-13.05-16-16.42,0,0,8.17,7.23,4.84,14.65-2.82-3.31-1.4-2.49-.43.84a13.26,13.26,0,0,1-3.21,3.67s-3.9-19.12-28.52-30.09c0,0,23,20.51,14.59,28.72-1.76-2.26-6.06-7.33-8.75-9.12,0,0,5.85,11.4.37,13.68,0,0-3-3.3-6.65-7.5.77-6.8,2-13.87,3.66-16.2,0,0-4,5.54-7.88,11.39-17.87-20.52-7.57-11.82-2.71,4.1-1.23,1.91-2.36,3.71-3.23,5.23-1.67-1.48-3.73-3.3-5.64-5.06-1.46-2.69-3.16-5.19-4.78-6.09a17.91,17.91,0,0,1,2,3.52c-.85-.82-1.59-1.56-2.13-2.16,0,0,4.11,12,2.09,11-3.55-1.82-9.56-13.82-26-17.56,0,0,17,8.68,15.12,15-3.53-2.34-10.21-8.17-15.2-10.25,0,0,8.15,6.39,5.35,9.13,0,0-20.39-20.37-35.77-22.73,0,0,20.12,12.57,18,19l-3.53,5.53s-4.05-4.56-6.74-8.21c0,0-2.18-.86-1.52,4.59,1.81,15,.68-4.41-14.65-15.41,0,0,12.61,17.67,5.65,22.69,0,0-17.63-15.06-25.7-25.55,0,0,8.5,11.09,3.3,21-1.44-2.76-11.11-12.11-11-17.71,0,0-4.37,12.66-.38,22.24,0,0-2-4.68-14.92-9.17.24.09,2.06,1.09,2.57,9.17,0,0-15.64-10.94-21.68-19.38,0,0,4.69,7.07-.33,19.39,0,0-17.17-1.8-17.6-16.64,0,0-4.47,19.83-8.64,22.57,0,0-.53-9.7.25-15.12s-3.8,5.54-5.06,6.91.57-26,4.1-31c0,0-14.77,20.65-15.55,24.33,0,0-4.6-12.49-8.69-14.77,0,0,8.08,10.26-.31,18.59,0,0,.07-4.6-15.6-13,0,0,2.72,1.67-.26,15.36,0,0-10.27-3.22-12.83-14.15,0,0-3.63,11-.3,17.34,0,0-40.6,1.38-47.55,5.49S1179.53,451.44,1231.05,455.54Zm897.44-18.1c-.08-1.56,4.36-11.39,7.73-15.32-.88,2.94-3.51,13.29-.12,21.42C2136.1,443.54,2134.94,440.77,2128.49,437.44Zm-251-5.84a4.53,4.53,0,0,0-1.08-2.29c1.28-1.58,2.58-2.63,3.78-2.62h.48A12.82,12.82,0,0,1,1877.49,431.6Zm-249.13,0a14,14,0,0,0-1.42,3.07s-.94-2.55-2.34-5.55C1625.75,429.81,1627.05,430.65,1628.36,431.59Z"/>
              </g>
              <g class="cls-18">
                <path class="cls-19" d="M1208.89,743.94l0,0Z"/>
                <path class="cls-20" d="M1054.47,780.4c60.67,5.49,80.78,15.12,79.15,16.32s22.44,16.6,114.12,5.45c23.39-2.85,40.31-4,52.87-4.17,31.17,5.08,42.18,10.73,41,11.62-1.64,1.2,22.45,16.61,114.12,5.45s84,3.44,103.53,4.27,71.6-4,71.6-4l-.15-3.39c95.22-11.36,84.93,3.2,105.22,4.06,19.5.83,71.6-4,71.6-4l-.92-21.09c13.2,3.36,18.1,6.21,17.26,6.82-1.63,1.2,22.45,16.6,114.12,5.45,35.57-4.33,56.19-4.78,69.24-3.67,15.3,3.66,21,6.86,20,7.52-1.63,1.19,22.45,16.6,114.12,5.44s84,3.44,103.53,4.27,71.6-4,71.6-4l-2-46.11s7.6-22.23,13.26-22.21-5.94-4.19-24.66,14.39c0,0-7.88-17.17-18.93-21.64,0,0,14,13.83,1.45,25.22,0,0-4.63-25.16-33.64-39.64,0,0,27.09,27,17.24,37.81,0,0-6.29-9-10.32-12,0,0,6.9,15,.46,18,0,0-21.52-26.87-24.64-32.06,0,0,13.4,26,8.89,32,0,0-12.53-12-16.43-16.83,0,0,4.85,15.77,2.48,14.41-4.18-2.41-11.28-18.21-30.62-23.16,0,0,20.48,11.74,17.74,20.14,0,0-11.39-10.82-17.83-13.83,0,0,9.61,8.41,6.32,12,0,0-24.05-26.84-42.17-30,0,0,23.72,16.58,21.18,25.06l-4.15,7.28s-4.78-6-7.95-10.82c0,0-2.56-1.14-1.78,6,2.16,19.72.79-5.8-17.28-20.3,0,0,14.89,23.27,6.7,29.86,0,0-20.79-19.84-30.32-33.66,0,0,10,14.6,3.94,27.66-1.71-3.64-12.34-15-12.92-22.65,1.31-1.61,2.61-2.64,3.83-2.63,5.67,0-5.94-4.2-24.66,14.38,0,0-7.88-17.17-18.93-21.63,0,0,10.41,10.31,5.19,20.45-11.11-12.24-3.24-8.84-3.61,4.64-.52.48-4-24.66-33.77-39.51,0,0,27.09,27,17.24,37.81,0,0-6.29-9-10.33-12a44,44,0,0,1,2.73,8.26c-.53,2.4-1.35,5.93-2.35,9.64-.76-1-6.38-8-12.09-15.3.9-8.33,2.3-16.55,4.08-19.39,0,0-4.15,6.5-8.5,13.7-12.65-16.44-8.16-13.6-1.82,3-2.11,3.55-4.13,7.07-5.61,9.9-9.25-9.31-8.37-9.44-7.94-8-1.48-2.76-3.1-5.12-4.65-6.09,0,0,5.64,8,3.75,16.68-4.61-5.53-12.25-16.12-27.45-20,0,0,20.11,11.52,17.8,19.9-.49-.45-12.28-11-17.89-13.6,0,0,4.32,3.78,6.17,7.36a25,25,0,0,1,.22,4.56c-.19.23-23.86-26.7-42.24-29.88,0,0,23.72,16.58,21.18,25.06l-4.15,7.28s-4.78-6-8-10.82c0,0-2.57-1.13-1.78,6,2.16,19.72.79-5.81-17.28-20.31,0,0,14.88,23.27,6.69,29.86,0,0-20.78-19.84-30.31-33.66,0,0,10,14.6,3.93,27.66-1.71-3.65-13.1-15.93-12.93-23.32,0,0-5.12,16.65-.4,29.27,0,0-2.31-6.16-17.59-12.1.29.12,2.43,1.44,3,12.07,0,0-18.43-14.43-25.56-25.54,0,0,5.54,9.31-.35,25.51,0,0-20.22-2.4-20.76-21.93,0,0-5.22,26.09-10.13,29.69,0,0-.63-12.77.28-19.89s-4.47,7.28-5.95,9.07.63-34.15,4.77-40.78c0,0-17.35,27.14-18.26,32,0,0-5.45-16.43-10.26-19.44,0,0,6,8.58,3.51,17.6a18.87,18.87,0,0,0-6.79,1.64c-2.48-2.86-7-6.84-15.45-11.87,0,0,3.21,2.21-.28,20.21a25.58,25.58,0,0,1-15.13-18.64c-2.38,8.09,1.2,5-6.62,1.8a27.65,27.65,0,0,1,4.91,7.15c-.43,3.94-.47,8.52.76,12.27a12.08,12.08,0,0,1-.81,1.66c-1,0-2.58.11-4.51.21-2.58-7.64-10.56-24.74-32.53-35.71,0,0,25.21,25.15,18.14,36.61l-1.67.13c-1.8-2.47-6.38-8.58-9.56-11,0,0,2.88,6.26,3.18,11.5-2.45.23-4.91.49-7.29.77-6.5-8.19-17.87-22.66-20.07-26.32,0,0,9.46,18.38,9.81,27.81-1.57.29-3,.59-4.33.92-4-3.93-10.42-10.32-13-13.52,0,0,4.85,15.77,2.48,14.41-4.19-2.41-11.29-18.21-30.63-23.16,0,0,20.48,11.74,17.74,20.14,0,0-11.38-10.82-17.82-13.83,0,0,9.6,8.41,6.31,12,0,0-24-26.84-42.16-30,0,0,23.72,16.58,21.17,25.06l-4.15,7.28s-4.77-6-7.95-10.82c0,0-2.56-1.14-1.77,6,2.16,19.73.79-5.8-17.29-20.3,0,0,14.89,23.27,6.7,29.86,0,0-6.51-6.22-13.92-14.11,1.74-2.66,3.55-4.54,5.2-4.53,3.62,0,.19-1.7-7.63,1.9-27.81-30.3-5.42-14.55-8.31,5q-1.73,1.26-3.59,2.82c-2.46-3.46-11.21-14.08-11.06-20.37a64.38,64.38,0,0,0-2.21,12.18c-3-3.65-6.67-7.08-10.8-8.75,0,0,9.53,9.43,5.8,19.13a52.7,52.7,0,0,0-8.13-4.31c-4.23-8.61-12.86-20.76-29.85-29.24,0,0,18.47,18.42,19.36,30.92-28.5-26.19-4.86-19-15,9.12-36.08-45.37-17.64-27.87-12.49-5-14.18-10.72-4-30.29-11.72-2.65-8.66-9-4-6.9-2,6.45-.28.79-.56,1.57-.84,2.3a27.28,27.28,0,0,1-4.11-4.47c.12-10.23,2.26-15.83-3.26-3.86-.8-.9-1.67-1.83-2.61-2.77.4-10.44,2.29-29.09,5.16-33.68,0,0-10.35,16.2-15.48,25.8a42.13,42.13,0,0,0-6.28-2.83c-1.94-4.36-4.42-9-6.76-10.44a26.28,26.28,0,0,1,3.83,9.52c-1.11-.3-1-.34,0,.28a18.85,18.85,0,0,1,0,6.27c-1.37-.73-1-.58-.06.33a16.28,16.28,0,0,1-1.44,4.15c-8.47-8.18-23.18-20.8-35.26-22.89A111.35,111.35,0,0,1,1492.76,745c.34,2.67.28,7.35-1.2,15.46-1.58-2.08-3.51-4.72-5.07-7.07,0,0-2.1-.94-1.91,4.23a25.86,25.86,0,0,1-8.4-14.47c-2.15,7.28,1.6,4.26-8.75-4a85.4,85.4,0,0,1,7,13.81c-.4,4.34-.28,9.3,1.48,13.06,0,0-1.74.06-4.6.2-6-6-20.09-20.2-27.44-30.86,0,0,10,14.6,3.93,27.66-1.71-3.65-13.11-16-12.93-23.32,0,0-5.12,16.65-.4,29.26,0,0-1.88-5-13.45-10.35l-.1-2.28s7.6-22.23,13.27-22.2-6-4.2-24.67,14.38c0,0-7.88-17.17-18.93-21.63,0,0,9.63,9.54,5.73,19.29-3.33-4.37-1.65-3.28-.5,1.1a17,17,0,0,1-3.78,4.82s-4.63-25.15-33.63-39.63c0,0,27.09,27,17.23,37.81-2.08-3-7.15-9.66-10.32-12,0,0,6.91,15,.46,18,0,0-3.48-4.35-7.85-9.89.89-9,2.37-18.24,4.28-21.3,0,0-4.65,7.27-9.26,15-21.07-27-8.92-15.57-3.18,5.39-1.45,2.51-2.77,4.89-3.79,6.87-2-1.94-4.4-4.35-6.65-6.66-1.72-3.54-3.73-6.84-5.63-8a25.3,25.3,0,0,1,2.41,4.64c-1-1.08-1.87-2.05-2.5-2.84,0,0,4.85,15.78,2.47,14.41-4.18-2.41-11.28-18.21-30.62-23.15,0,0,20,11.44,17.83,19.82-4.16-3.09-12-10.77-17.91-13.52,0,0,9.6,8.42,6.31,12,0,0-24-26.84-42.16-30,0,0,23.72,16.58,21.17,25.06l-4.15,7.28s-4.78-6-8-10.82c0,0-2.56-1.13-1.78,6,2.17,19.72.8-5.81-17.28-20.31,0,0,14.89,23.27,6.7,29.86,0,0-20.79-19.84-30.31-33.66,0,0,10,14.6,3.93,27.66-1.71-3.64-13.11-15.94-12.93-23.32,0,0-5.12,16.65-.41,29.27,0,0-2.31-6.16-17.58-12.1.28.13,2.43,1.44,3,12.08,0,0-18.43-14.44-25.57-25.55,0,0,5.54,9.31-.35,25.51,0,0-20.21-2.4-20.75-21.93,0,0-5.22,26.09-10.13,29.69,0,0-.64-12.77.27-19.89s-4.46,7.28-6,9.07.63-34.15,4.77-40.78c0,0-17.35,27.14-18.26,32,0,0-5.44-16.43-10.26-19.44,0,0,9.53,13.51-.34,24.45,0,0,.09-6-18.39-17.08,0,0,3.21,2.21-.28,20.21a25.58,25.58,0,0,1-15.13-18.64s-4.24,14.41-.31,22.82c0,0-47.81,1.73-56,7.13S993.81,774.91,1054.47,780.4Zm1056.65-22.12c-.09-2.06,5.12-15,9.07-20.15-1,3.87-4.1,17.48-.1,28.19C2120.09,766.32,2118.72,762.67,2111.12,758.28Zm-295.55-8.16a6.4,6.4,0,0,0-1.27-3c1.5-2.07,3-3.44,4.45-3.44h.56A17.21,17.21,0,0,1,1815.57,750.12Zm-293.33-.49a19.91,19.91,0,0,0-1.67,4s-1.11-3.36-2.77-7.31C1519.16,747.29,1520.69,748.4,1522.24,749.63Z"/>
              </g>
              <path class="cls-21" d="M2431.89-152.48l-1.42-.1c0-.31,0-.62,0-.93a142.51,142.51,0,0,0-1.66-21.77c1.85-.53,3.74-1.17,5.65-1.91,16.22-6.34,27.58-18.15,25.38-26.38s-17.14-9.77-33.36-3.43q-2.91,1.14-5.58,2.49c-13.3-33.45-39.26-58.16-70.38-65a108.08,108.08,0,0,0,10.51-47c0-31.57-13-59.48-32.83-76.37,7.08-14,9.08-27.36,4.23-31.82-5.47-5-17.69,3.11-27.8,18.29a65,65,0,0,0-20.85-3.44c-23.86,0-45.2,13.07-59.37,33.61-10-20.13-28.27-33.61-49.13-33.61a48.29,48.29,0,0,0-16.4,2.88c-19.2-51.46-53.91-92.65-96.94-114.87,1.84-9.56.87-17.67-2.56-19s-7.91,4.16-11.09,12.74a159,159,0,0,0-30.14-8.95q1-3,1.92-6.3c5.3-19.57,4.08-37.62-2.73-40.31s-16.62,11-21.91,30.58a98.73,98.73,0,0,0-2.66,13.28c-1.37,0-2.74-.06-4.11-.06a156.47,156.47,0,0,0-21.19,1.44c-.39-10.85-3.58-19.32-7.45-19.32-4.14,0-7.49,9.65-7.49,21.55v.56c-54.45,12.91-100.41,54.42-126.72,111.06a49,49,0,0,0-23.77-6.22c-29.71,0-54.14,27.33-57,62.32a63.39,63.39,0,0,0-36.74-12,61.89,61.89,0,0,0-26.4,5.95c-3.07-12.8-8.92-21.8-13.53-20.42-4.89,1.46-6.51,14-3.64,28.1.23,1.08.47,2.14.73,3.18a80.28,80.28,0,0,0-10.67,11.45c-.29-.59-.6-1.18-.91-1.77-6.55-12.13-15.27-19.27-19.49-15.95s-2.33,15.85,4.21,28a58.4,58.4,0,0,0,5.32,8.2,102.61,102.61,0,0,0-8.53,41.37,102.43,102.43,0,0,0,8.68,41.71c-15.64,11.87-26,32.9-26,56.86,0,.45,0,.88,0,1.32a57,57,0,0,0-12.16-1.32c-13.88,0-26.79,5.06-37.53,13.72-.73-.78-1.5-1.55-2.32-2.3-7.83-7.21-16.21-9.84-18.72-5.86s1.72,12.85,9.39,20a83,83,0,0,0-9.32,15c-6.6-4.79-12.86-6.11-15-2.77-2.42,3.84,1.52,12.42,8.85,19.5a97.11,97.11,0,0,0-3.08,24.46c0,45.18,30.31,81.8,67.7,81.8a55.71,55.71,0,0,0,5.66-.29c9.56,54,49.25,94.41,96.76,94.41a83.51,83.51,0,0,0,31.26-6.09c25.45,54.43,73.78,91.17,129.21,91.17,27.43,0,53.11-9,75.15-24.68,15.85,61.75,63.5,106.61,119.82,106.61,52.83,0,98-39.46,116.51-95.31a86.27,86.27,0,0,0,38.86,9.31c46.19,0,85.18-37.26,97.5-88.26,1.34.11,2.69.17,4.06.17,33.31,0,60.32-32.63,60.32-72.88a85.35,85.35,0,0,0-5.75-31.09c19.8-11.56,35.88-30.95,45.48-54.86q4.07.67,8.34,1c28,2.24,51.3-7.46,52.08-21.66S2459.87-150.24,2431.89-152.48Z"/>
              <path class="cls-22" d="M2702-6.55a53.63,53.63,0,0,0-2-12.09,29.61,29.61,0,0,0,5.91-1.69c-31.7-22.45-69.28-34.25-109-21.07-1.27.42-2.45-1.45-1.36-2.34,5.86-4.75,8.95-11.22,12.81-17.46-7.76-4.55-16.83-3.42-25.19-.82-1.43.44-2.16-1.33-1.34-2.32,6.28-7.62,13.9-14.16,19.47-22.35-11.87-3.9-24-.68-35.31,4-1.09.45-2.16-1.08-1.53-2,9.65-13.88,28.81-22.43,33.79-39.22-12.34.07-21.23,6.48-29.79,15.08-6.94,7-13.62,14.1-23.1,17.49a1.3,1.3,0,0,1-1.59-1.6,96,96,0,0,0,4.27-12.9c.73-3.11,3-11.65.51-14.53-2.67-3.12-11.5-2-15.13-1.11a32,32,0,0,0-11.82,5.92c-1.11.84-2.15-.72-1.7-1.71,4.27-9.49,7.42-23.69-1.31-31.84-9.82-9.17-24.34-.94-32.84,5.83a1.2,1.2,0,0,1-1.87-.24c-7.55-13.91-16.5-46.13-37.79-32.06a1.37,1.37,0,0,1-2-1.17c-.51-6.11-5.28-10.2-7.93-15.39-9.46,3.77-16.79,10.95-22.14,19.53a1.4,1.4,0,0,1-2.55-1.08c3.07-14.33,6.09-28.77,6.74-43.45.61-13.77-.39-30.72-11.91-40.06-19.82,31.6-4.67,68.64-11.09,103.13-.27,1.47-2.13,1.07-2.58,0-5.66-13.42-20.25-9.12-28.66-1.11a1.37,1.37,0,0,1-2.27-1.32c.95-3.86.43-7.82,1.16-11.64-11.38,2.48-20.86,9-29.79,16.41-1.16,1-3-.25-2.17-1.67,5.14-8.88,11.19-17.48,14.55-27.26a47.28,47.28,0,0,0,1.61-5.73c.65-3.13,2-5.8-1.28-7-3.79-1.32-9.23.1-12.7,1.69-13.4,6.13-21,21.19-30.9,31.36a1.43,1.43,0,0,1-2.37-.63,144.06,144.06,0,0,1-3-22.94c-.32-5.69-.26-11.54-1.54-17.12-3.51-15.36-20.67-20.35-34-24.22a1.42,1.42,0,0,1-.83-2.07c3.71-4.84,6.92-10.05,7.27-16.31a26.34,26.34,0,0,0-.07-3.44q-.58-3.11-3.54-2.48c-3.08-1-7.69-.48-10.67.25a1.42,1.42,0,0,1-1.58-2.06c5.38-8.39,25-21.94,16.15-33-7.47-9.28-26.45-2.61-34.86,2.22-1.42.82-2.61-1-1.66-2.15,6.61-7.95,15.67-14.34,19.82-24-15.07-5.83-30.92-4.2-45.67,2.09a1.31,1.31,0,0,1-1.59-2.05c5.33-5.8,7.91-13.6,11.18-20.68-15.75-5.24-31.14,6.06-44,14.1-1.28.8-2.41-.95-1.53-2,10.07-11.73,20.76-23.86,25-39-12.07.88-22.32,7.65-30.15,16.7-.92,1.06-2.53-.31-1.88-1.45a53.84,53.84,0,0,0,6.64-24.31,63.29,63.29,0,0,0-14.87,18.65,1.22,1.22,0,0,1-2.2-.29c-5-13.68-6.62-28.75-14.48-41.22-20.05,22.7-4,55.78-.54,81.84h0l0,.27c.16,1.2-1.7,1.33-2,.27-3.55-11.67-18.61-17.46-29.31-20-10.42-2.46-26.42-4.27-34.18,5.05a1.11,1.11,0,0,1-1.85-.49c-.88-3.9-2.15-10.33-6.81-11.4-3.13-.71-6.44,1.66-8.71,3.47-5.23,4.17-9.39,9.74-13.25,15.13-.66.92-2.39.71-2.32-.63,1-18.91,4-37.68,4.21-56.63.26-19.16-2.1-39.7-15-54.73-32,37.5-12.65,88.64-5.77,131.67a1.15,1.15,0,0,1-2.22.61c-4.58-13.86-11.23-32.8-29.51-26.72a1.13,1.13,0,0,1-1.25-.51c-7.77-12.07-22.27-2.4-29.08,5.47-.78.9-2.53-.06-2.07-1.2,2.36-5.88.63-11.16,0-17A47.1,47.1,0,0,0,1931-316.65c-1,1.16-2.59-.33-2-1.53,8.53-16.75,19.57-32.31,26-50.07,2.92-8,6.44-19.44,3.87-28.05-.86-2.87-1.42-2-4.16-1-2,.74-4,1.56-5.91,2.46a81.08,81.08,0,0,0-10.74,6.09c-27.56,18.4-42.46,49.52-61.93,75.25a1.19,1.19,0,0,1-2.16-.91c.72-4.08,1.58-10.25-2.61-12.86-2.82-1.75-6.71-1.06-9.72-.27-7.3,1.9-14.25,6.07-20,10.89a1.26,1.26,0,0,1-2.09-1.21c1.59-6.14.26-12.78,0-19.07-12.57-.34-22,11.22-26.83,21.78-.56,1.22-2.44.56-2.44-.67.15-25.44,4.84-52.45-5.79-76.45-18.2,26.2-27.3,58.33-24.22,90.19.11,1.23-1.47,1.58-2.23.93-13.53-11.5-34.37-17.54-46-.27a1.32,1.32,0,0,1-2,.27c-8.85-9.77-19.38-5-25.43,4.89a1.33,1.33,0,0,1-2.26,0c-2.25-3.66-5.88-6.27-9.07-9.11-6.7,7.74-9.43,18.14-12.59,27.69a1.31,1.31,0,0,1-2.51,0c-3.53-15.46-4.69-31.33-7.22-47-2.38-14.7-5.74-30.4-15.39-42.17-19.31,33.76-5,79.25,9.53,112.17a1.3,1.3,0,0,1-2,1.57,52,52,0,0,0-11.86-7.57c-2.16,13.32,4,25.55,10.46,36.91a1.3,1.3,0,0,1-2,1.57c-4.84-4.18-17.65-14.3-22.39-4.72-3.58,7.22-.84,17.93,3,24.43,8.65,14.53,25.13,24.09,39.82,31.51,1.41.71.33,2.57-1,2.35-7.93-1.32-16.54-1.29-23.69,2.88-7.49,4.37-11,12.05-12.52,20.26a1.29,1.29,0,0,1-2.33.31c-1.82-4.1-5.58-5.24-8.91-7.46-5.74,8.2-7.5,17.45-7.61,27.42a1.27,1.27,0,0,1-2.49.34c-4.75-13.43-6.81-27.66-11.26-41.2-2-6.22-4.49-12.53-8.31-17.91-.87-1.23-4.75-6.74-6.5-6.45-1.58.27-3.86,5.18-4.63,6.61-6,11.27-6.57,24.91-5.23,37.37,2.73,25.27,13.11,53.48,31.11,71.93a1.18,1.18,0,0,1-1.42,1.86c-11.48-6.22-25.56-4.58-29.26,9.58a1.12,1.12,0,0,1-2,.26c-2.59-3.48-6.19-8-10.8-8.79-6.09-1-8.37,5.55-9.56,10.23-.32,1.23-1.92.81-2-.28-1.44-11.75-2.5-24.37-8.07-35-.58-1.12-1.31-3.16-2.44-3.76-1.41-.75-1.47,0-2.55,1.57a29.43,29.43,0,0,0-3.28,6.23,45.68,45.68,0,0,0-2.74,13.08c-1.43,18.66,4.08,38.64,12.23,55.31a.81.81,0,0,1-1.1,1.1c-7-4.1-16.59-6.43-18.43,4a21.45,21.45,0,0,0-.14,6.2,43.66,43.66,0,0,0,24.28,7.34c1,0,2,0,3-.1a73.8,73.8,0,0,0,70.82,53.06,73.61,73.61,0,0,0,28.23-5.59A91.15,91.15,0,0,0,1833,35a107.22,107.22,0,0,0,54.59,14.84,107.35,107.35,0,0,0,72.82-28.36,151.69,151.69,0,0,0,42.93,6.17A150.87,150.87,0,0,0,2091.78-.87a59.45,59.45,0,0,0,32.87-16.93,69.94,69.94,0,0,0,27.18,25,70,70,0,0,0,50.67,5.4,99.14,99.14,0,0,0,23,16.44,98.88,98.88,0,0,0,115.8-18.37,116.3,116.3,0,0,0,45.19,41.5,116.85,116.85,0,0,0,117.75-6,77.85,77.85,0,0,0,20,14.84,78,78,0,0,0,96-19.65q1.88,1.17,3.87,2.21a53.34,53.34,0,0,0,71.89-22.86,53.38,53.38,0,0,0,5.18-15.29c7.24-1.45,12.58-5,12-8.09C2712.81-5.44,2708-6.94,2702-6.55Z"/>
              <g>
                <path class="cls-23" d="M1429,547.87a4.33,4.33,0,0,1-4.38,0,5.43,5.43,0,0,1-4.82.85c-2.53-.94-.64-2.87-.64-2.87s-2.65.18-2.28-1.59c.45-2.17,4.4-1.39,4.4-1.39s-.74-2.6,2.71-2.67,2.8,2,2.8,2,3.83-1.4,4.7.59-2.13,2.16-2.13,2.16S1431.15,546.47,1429,547.87Z"/>
                <path class="cls-23" d="M1607,537.75a3.58,3.58,0,0,1-3.57-1.2s-2.59.82-4.24-.65.66-2.5.66-2.5-2.2-.6-1.19-1.91c1.26-1.63,4.12.1,4.12.1s.48-2.29,3.27-1.4,1.45,2.38,1.45,2.38,3.68-.06,3.55,1.79-2.58,1.17-2.58,1.17S1609.32,537.24,1607,537.75Z"/>
                <path class="cls-23" d="M1494.73,536.66a5.08,5.08,0,0,1-5.16-.6s-3,1.8-5.8.29-.22-3.49-.22-3.49-3.12-.19-2.35-2.21c.87-2.52,5.38-1,5.38-1s-.39-3.18,3.65-2.77,2.9,2.76,2.9,2.76,4.76-1.09,5.44,1.4-2.88,2.25-2.88,2.25S1497.53,535.35,1494.73,536.66Z"/>
                <path class="cls-23" d="M1464.51,531.31a3.18,3.18,0,0,1-3.2-1.15s-2.37.69-3.82-.7.66-2.25.66-2.25-2-.59-1-1.77c1.19-1.46,3.72.19,3.72.19s.52-2.08,3.05-1.21,1.24,2.18,1.24,2.18,3.32,0,3.18,1.71-2.4,1-2.4,1S1466.63,530.88,1464.51,531.31Z"/>
                <path class="cls-23" d="M1546,556.61a4.72,4.72,0,0,1-4.79-1.31s-3.3,1.29-5.64-.49.62-3.3.62-3.3-2.92-.61-1.7-2.39c1.47-2.24,5.4-.22,5.4-.22s.41-3,4.17-2.07,2.1,3,2.1,3,4.81-.38,4.83,2.05-3.26,1.71-3.26,1.71S1549,555.74,1546,556.61Z"/>
                <path class="cls-23" d="M1577,549.09a3.16,3.16,0,0,1-3.17-1.46s-2.53.51-3.88-1,1-2.26,1-2.26-2-.76-.8-1.89c1.42-1.41,3.86.47,3.86.47s.8-2.07,3.31-1,1,2.35,1,2.35,3.46.3,3,2-2.6.83-2.6.83S1579.23,548.84,1577,549.09Z"/>
                <path class="cls-23" d="M1573.55,506a4,4,0,0,1-4,0,4.89,4.89,0,0,1-4.37.79c-2.29-.86-.59-2.61-.59-2.61s-2.4.17-2.06-1.44c.41-2,4-1.27,4-1.27s-.65-2.37,2.47-2.43,2.55,1.8,2.55,1.8,3.47-1.28,4.28.54-1.94,1.95-1.94,1.95A1.52,1.52,0,0,1,1573.55,506Z"/>
              </g>
              <path class="cls-24" d="M819.19,655.31c7.4,2.47,381.12,97.45,381.12,97.45l377.41-65.69-446.48-58.88Z"/>
              <polygon class="cls-25" points="1465.51 696.77 1104.88 652.64 1087.19 356.21 1396.14 404.45 1472.09 492.64 1465.51 696.77"/>
              <path class="cls-26" d="M1329.81,330.23,1021.4,277.35,879.94,451.53,910.28,670l291.08,71.18-13-236.8Zm-371,307.24s0,0,0,0S958.79,637.47,958.77,637.47Z"/>
              <path class="cls-27" d="M1006.29,659.82a.68.68,0,0,1-.66-.65c-.36-4.94-5.81-137.65,7.75-140.82,5.43-1.26,11.24-.66,16.7.13,5.69.82,11.29,2.15,16.93,3.21,8.36,1.57,16.83,2.58,25.21,4,9.12,1.58,18.21,3.26,27.31,4.9,17.73,3.18,35.54,6.37,53.5,7.82,13.08,1,26.94,1.28,39.73-2.27l-4.41-31.76,141.46-174.18L1021.4,277.35,879.94,451.53,885.57,492c.83.29,24.69,175.65,24.71,178l248.34,60.73C1161.39,721.68,1012.18,660.51,1006.29,659.82Z"/>
              <path class="cls-28" d="M1356.67,371.15q-11.37,13.37-22.38,27-8.94,11.15-17.54,22.56-2.61,3.47-5.15,7a41.71,41.71,0,0,1,18-4.2c46.9,0,84.92,83.4,84.92,186.28,0,31.7-5,65.86-11.37,92l10.78,2.6,38-11.94,6.58-207.34Z"/>
              <path class="cls-29" d="M1329.81,330.23,1188.35,504.41s12.19,233.51,13,236.8l73.05-14.52c-9-29.52-16.15-74.45-16.15-112.57,0-102.88,38-186.28,84.91-186.28s84.92,83.4,84.92,186.28c0,31.7-7.79,64.14-14.16,90.27l51.58-7.62,6.58-207.34Z"/>
              <g class="cls-30">
                <path class="cls-31" d="M1325.06,356.72a132.27,132.27,0,0,1-.85-19.6L1315,348.46c.2,5.13.56,10.25,1,15.36,2,23.22,4.26,46.42,6.43,69.62a47.54,47.54,0,0,1,8-3.49c-.87-14.73-1.65-29.46-2.52-44.19C1327.28,376,1326,366.41,1325.06,356.72Z"/>
                <path class="cls-32" d="M1407.09,416.7l-10.95-12.25c.28,5.16.7,10.32,1,15.46,1.2,18.25,1.71,36.56,2.35,54.85a197,197,0,0,1,8.49,19.06C1407.49,468.11,1407.1,442.4,1407.09,416.7Z"/>
                <path class="cls-33" d="M1253.7,423.94c3.63,34.2,10.34,68,14.64,102.09q2-8.34,4.45-16.15c-4.29-31.05-9.56-61.95-13.3-93.07Z"/>
              </g>
              <polygon class="cls-34" points="1324.52 330.23 1472.09 500.13 1481.83 500.13 1344.26 307.32 1324.52 330.23"/>
              <g class="cls-35">
                <g>
                  <path class="cls-36" d="M958.77,637.43s0,0,0,0S958.79,637.43,958.77,637.43Z"/>
                  <path class="cls-37" d="M971.08,680.54l1,.09-1-.18Z"/>
                  <path class="cls-38" d="M953.78,467.5l-5.41-4.33c0,1.6,22.2,212.52,22.7,217.28l1,.18,5.47.45Z"/>
                  <path class="cls-39" d="M953.78,467.5l-5.41-4.33c0,1.6,22.2,212.52,22.7,217.28l.51,4.18,6.6,1.91Z"/>
                  <path class="cls-40" d="M1021.82,478.55c0,1.49,14.88,183.31,17.37,213.58l6.48,1.11L1027.12,483Z"/>
                  <path class="cls-41" d="M1022.83,488.24c0,1.48,14.89,183.3,17.37,213.58l6.49,1.11-18.55-210.24Z"/>
                  <path class="cls-42" d="M1093.89,489.11c-.05,1.51,13.42,189,15.29,215l6.48,1.11-16.51-211.63Z"/>
                  <path class="cls-43" d="M1095.16,504.37c-.05,1.51,13.41,189,15.28,215l6.48,1.11-16.5-211.63Z"/>
                </g>
              </g>
              <path class="cls-44" d="M850.76,458.45l3.7,12.34,148,29.34,4.94-4.05v8l167.86,24L1341.8,316.57s139.41,181.43,140,183.56,3.7-20.09,3.7-20.09L1344.26,283.26,1170.92,512.12s-179.51-43.18-181.36-43.18S850.76,458.45,850.76,458.45Z"/>
              <path class="cls-45" d="M1018.55,260.43c-1.85.62-167.79,198-167.79,198l151.75,27.76,11.11-4.93-3.09,9.25,160.39,21.59,173.34-228.86Z"/>
              <path class="cls-44" d="M1192.72,478.65c-35.46-6.79-71.26-12.82-105.61-24.24-8.82-2.93-17.45-6.38-26.23-9.42-9.06-3.14-18.18-6.1-27.3-9.08-4-1.31-8.07-2.54-12-4-2.76-1-5.43-2.28-8.14-3.43a63.78,63.78,0,0,0-9.39-3.4c-2.68-.67-5.72-1.15-8.34-.06.73,1.37,1.43,3.24.05,4.36s-3.89.7-5.54.42c-5.16-.89-10.12-2.88-15-4.69-7.48-2.78-15.19-5-22.89-7.09-17.92-4.9-36.45-8.94-53.4-16.76l-4.19,5c22.71,5.05,44.15,14.43,66.16,21.8,5.07,1.7,10.24,3,15.3,4.7,4.8,1.59,9.47,3.66,14.42,4.7a18.87,18.87,0,0,0,7.63.21,37.9,37.9,0,0,1,6.18-.9,39.27,39.27,0,0,1,7.77,1.06c2.57.5,5.12,1.1,7.65,1.77,10.53,2.77,20.69,6.75,31,10.35a320.93,320.93,0,0,0,32.67,9.15c36.56,8.59,73.81,14.21,110.35,22.85l2-2.71Z"/>
              <path class="cls-44" d="M1194.41,409.84c-12.29-3.17-24.61-6.52-37-9.1-9.63-2-20.27-3.38-28.22-9.66-.39-.31,0-.85.36-.88a13,13,0,0,0,4-1.31c-3.7-3.87-9.81-5.88-14.68-7.51S1108.3,378,1103,377.8c2.19,3.39,7,5.82,6,10.37a.59.59,0,0,1-.58.43c-13.47-1.3-26.77-3.87-40-6.64-12.05-2.52-24.21-4.77-36.16-7.71s-23.86-6.61-35.88-9.57c-9.82-2.42-19.94-3.49-29.88-5.29-8.79-1.58-17.77-3.56-25.7-7.8l-5.24,6.2,3.89,1.24c21.3,6.61,43.28,10.5,64.92,15.76,22.75,5.53,45.34,11.62,68.37,15.95,11.5,2.16,23.11,3.61,34.65,5.51,11.3,1.86,22.53,4.31,33.7,6.81,5.51,1.23,11,2.57,16.43,4.12s11,3.38,16.58,4.87c11,2.92,22.13,5.31,33.35,7.25,10.13,1.75,20.32,3.13,30.54,4.29l1.19-1.58Q1216.88,415.61,1194.41,409.84Z"/>
              <path class="cls-44" d="M1217.55,337.2c-13-3.15-26.1-6.27-39.14-9.46-12.16-3-24.21-6.3-36.3-9.55s-24.31-6.13-36.84-6.36c-5.69-.1-11.35.19-17,.18-6.17,0-11.92-1.21-17.88-2.71-25.45-6.43-50.82-13.25-75.86-21.11l-4.5,5.28c23.4,5.74,46.3,13.26,69.46,19.85a146,146,0,0,0,17,4.17c5.87.92,11.81,1.24,17.74,1.58a234.58,234.58,0,0,1,33.78,4.57c11.27,2.31,22.43,5.11,33.73,7.28s22.6,3.05,33.75,5.61,22.17,5.8,33.35,8.34q17.42,4,34.92,7.49c8.16,1.66,16.33,3.28,24.5,4.92l1.38-1.83C1265.7,348.88,1241.63,343,1217.55,337.2Z"/>
              <g>
                <rect class="cls-46" x="1296.48" y="385.82" width="58.72" height="24.34" transform="translate(-57.46 450.16) rotate(-18.87)"/>
                <g>
                  <ellipse class="cls-47" cx="1327.07" cy="399.95" rx="23.07" ry="1.58" transform="translate(-54.94 505.34) rotate(-21.13)"/>
                  <path class="cls-48" d="M1345.65,385.2c-.66-1.73-2.23-2.73-3.5-2.24s-1.05,1.92-1.84,2.76a11.49,11.49,0,0,1-2.7,1.32l-29.42,11.37c-1.4.54-2.77-1.25-4.2-.7-1.26.49-1.75,2.29-1.08,4,.28.73.88,1.28,1.23,2s.14,1.56.42,2.29c.67,1.73,2.24,2.74,3.51,2.25,1.42-.55,1.23-2.8,2.64-3.35l29.42-11.37a11.61,11.61,0,0,1,2.88-.83c1.15.09,2.09,1.24,3.22.8s1.75-2.29,1.08-4c-.28-.73-.88-1.28-1.22-2S1345.94,385.94,1345.65,385.2Z"/>
                  <path class="cls-49" d="M1304.42,405.48s.68,2.68,2.75,2.89c1.27.05,1.78-.77,2.17-1.67a2.94,2.94,0,0,1,2.1-2.07c1.32-.59,22.68-8.76,22.68-8.76l7.27-2.78a3.16,3.16,0,0,1,3.24.22c1,.37,2.32.46,2.88-1.39a4.33,4.33,0,0,0,0-1.83c-.2-.65-.31-.64-.41-1,0,0,.1,4.5-3.15,2.81a6.2,6.2,0,0,0-4.63.5c-2.77,1.25-28.33,10.59-28.33,10.59a4.61,4.61,0,0,0-2.29,2.53C1308.28,407.1,1306.17,408,1304.42,405.48Z"/>
                  <ellipse class="cls-50" cx="1322.73" cy="393.41" rx="11.36" ry="0.17" transform="translate(-52.88 503.33) rotate(-21.13)"/>
                </g>
              </g>
            </g>
          </g>
        </g>
        <g id="SC_05-2" data-name="SC_05">
          <g class="cls-51">
            <g class="cls-52">
              <path class="cls-53" d="M1344.49,798.41c.16-82.71,1.25-165.42,1.79-248.13.54-82.12-.63-164.27.89-246.38.74-40.07,2.28-80.14,5.37-120.1,3.91-50.64,10.92-100.89,19.26-151L1378-4-300,3l0,925.19,1645.38-15.26C1345.94,874.78,1344.42,836.55,1344.49,798.41Z"/>
              <g>
                <path class="cls-9" d="M1346.28,550.28c.32-47.8,0-95.62.07-143.43-68.14-7.34-124.42-12.12-136.72-9.48-37.49,8-156.73,40.85-166.4,43.4-6.83,1.81-94.75-15.5-145.8-25.82a164.21,164.21,0,0,0-72.34,1.61L342.8,536l-64.56-21.68a92.73,92.73,0,0,0-49.34-2.87L114.48,536C74.06,505-19.66,483.3-60,475.07c-12.15-2.48-24.55-.28-35.81,6.21-306.13,176.45-511.43,105-511.43,105V772.7l1952-28.65C1345.11,679.46,1345.86,614.87,1346.28,550.28Z"/>
                <path class="cls-54" d="M1344.49,798.41c.1-51.22.56-102.44,1-153.67-271.34-98.18-603.15-78.41-945.08,26.41C-4.18,795.19-315.91,780.3-315.91,780.3l4.72,69.46H1345C1344.75,832.64,1344.46,815.52,1344.49,798.41Z"/>
                <path class="cls-55" d="M1344.49,798.41q.09-45.51.48-91C979.13,704.26,985,805,446.17,825.19c-654,38.77-775.88-98.68-775.88-98.68V927.4H1345.13C1346.36,884.44,1344.41,841.38,1344.49,798.41Z"/>
              </g>
              <g>
                <path class="cls-56" d="M1086.49,424.54c-7.43-6.49-14.88-13-22.27-19.52-70.6,34.64-120.83,56.56-93,33.91,17.34-14.14,33.59-42.7,48.22-77.66-11.83-13.26-22.84-27.14-33.84-41.64A161.21,161.21,0,0,1,971.49,298c-1.35-2.56-2.7-5.14-4-7.75C902.83,428,788,585.71,595.8,611.66c-265.64,35.87-771,63.13-954.82,125.48.76,9.45,1.17,18.93,1.34,28.41.89,49.61-4.86,99.27-1.62,148.86q.44,6.65.77,13.31c3.85-.66,7.7-1.31,11.57-1.91,17.67-2.74,35.71-6.25,53.69-6.51,7-.1,13.95-.48,20.92-.81,20-1,40.17-1.87,60.12.09,8.31.81,16.64,1.71,24.93,2.86a195.39,195.39,0,0,1,12.66-16.88c61.18-70.17,819.87-172.07,882.49-199.75S897.12,536.9,950,518.29c19.7-6.93,81.59-40.82,151.5-80.63C1096.53,433.23,1091.48,428.89,1086.49,424.54Z"/>
                <path class="cls-57" d="M971.49,298q-1.83-3.45-3.61-7c-34.26,64.79-74.55,140.46-88.46,164.47-25.87,44.61-143,194.24-352.34,216.41S111.87,683.55-32.69,693.82s-303.68,53.29-141.95,81.27c0,0,299.38-43.41,573.26-56.67S785.19,623,805.52,581.86,933.09,455.29,954.29,384.41c6.42-21.49,15.2-48,24.31-74.56C976.05,306,973.66,302.05,971.49,298Z"/>
              </g>
              <path class="cls-58" d="M216.39,668.74c3.34.41,10.68,1.1,4.43.42l-6.62-.69Z"/>
              <g class="cls-59">
                <path class="cls-60" d="M220.07,666.82c-.06,0-.93,1.17-1.34.55s.31-1.47.85-1.82S220.86,666.15,220.07,666.82Z"/>
              </g>
              <g>
                <path class="cls-56" d="M244.5,567.5c0,4,4.44,6.38,3,10s3.53,4.73-.31,9.3.17,26.93,3.12,33.52,3.24,9.62-10.42,15.37-27,13.81-34.63,18.65-15.5,7-36.1,11.74-54.72,20-68.83,25.56a74.72,74.72,0,0,1-37,4.4C53.11,694.83-57,707.09-68,708.77s-49.3,5.38-49.3,5.38c-11.68,2.77-37.28,1.35-37.28,1.35A93.31,93.31,0,0,0-173,716.72q.3-.62.63-1.23c-9.51-.55-8.91-2,2.93-4.81,3.36-.79,4.81-3.44,2-3.29-42.18,2.15-8.39-15.93,11.65-20.29a32.22,32.22,0,0,1,7.21-1.54c5.81-.31,30.76-1,42.37-.2S-70.49,677-57.76,673,80.49,656.88,90.76,655.22s47.35-10.37,49.39-10.42,8.57-.36,17.88-5.41,34.8-14.59,41.67-16.53,6.92-5.18,7.42-13.63,1.64-14.05,6.91-21.88,4.3-10.87-1.09-14.7,4.41-11.07,6.56-16.15,1.56-8,9-22,12.59-23.7,31.59-34,27.21-11.19,32.37-13.27,27.2-11.2,33.07-14,10.7-20.74,10.7-20.74-7.28-16-8.92-19.33-7.15-20-.58-24.24,5.58-5.5,8.36-7.72,4.08-17.15.76-22.1-1.2-9.32,4.7-13.94,5.64-9.09,9.72-7.39-3.61,9.78-5.36,13.25,1.13,10.72,3.45,15.17-6.07,31.73-6.1,33.88-4.26,7.64,3.89,11.05,8.72,8.43,10.33,13.25,3,4.06,6.49.39,28.66-16.25,31.45-19.18-.14-10.59-2.13-13.78.49-7.73,10.17-13.33,9.33-5.77,9.05-8.82,1.09-3.43,4.53-4.94,1.66,1.94,3,3.34.31,2.33-.43,4.86-16.61,11.5-18,14.76,3.15,14.3,6.86,16.9-3.87,5.66-9.76,9.92S378.7,444.05,369,450s-16.35,15.28-18.2,22.32-10.76,9-17.32,13.3-20,7.61-31.68,12.18-19.3,9.4-25.57,14.93-18.51,21.41-20.59,24S242.5,561.5,244.5,567.5"/>
                <path class="cls-61" d="M6.6,675.23s9.64-2.08,44.41-.53,45.88,4.89,45,3.53-24.31-7.06-38.63-8.2-24-.51-14.46.65,11.21,1.33,8.42,1.45-33.77-2.3-53-.23-15.61,2.83-10.1,2.8S-14,676.81,6.6,675.23Z"/>
                <path class="cls-61" d="M49.79,664.93s9.64-2.09,44.41-.54,45.88,4.89,45,3.53-24.31-7-38.63-8.2-24-.51-14.46.66,11.21,1.33,8.42,1.45-33.77-2.3-53-.23-15.61,2.83-10.1,2.79S29.23,666.51,49.79,664.93Z"/>
                <path class="cls-61" d="M235.83,531.82s5.91-7,33.8-25.45,38.85-22.1,37.21-22.66S283,492,271.18,499.17s-18.85,13.15-10.66,8.65,9.59-5.29,7.53-3.63-27.66,17.27-40.94,29.69-10,11-5.76,7.84S221.15,544.62,235.83,531.82Z"/>
                <path class="cls-61" d="M213.33,618.08a29.83,29.83,0,0,1,6.78-3.29c4-1.35-1.57,1.44-2.36,2.62s-6.63,3.53-8.74,6.12-4.19,5.86-6.18,6.86-.5-.95.38-2.2-2.44,3.59-16.67,10.36-18.46,7.7-21.12,8.34-13.46,4.16-18.74,5.22-8.31,1.68-7.16.93,3.79-1.87,9.16-3.07,11.76-2.5,13.79-3.05S185,638.58,189.66,636s10-6.21,13-9.43A52.36,52.36,0,0,1,213.33,618.08Z"/>
              </g>
              <g>
                <path class="cls-62" d="M379,727s-130.58.47-120.55,71.1c0,0,19.73,23.58,73.46-17.94,0,0-35.21,88.41,57.4-3.47,0,0-6.26,58.5,55.44,34.3,0,0,69.07,35.41,33.89-31.88,0,0,58.44,23,43.77-20.49,0,0,55.31-25.33-17-44.4S379,727,379,727Z"/>
                <path class="cls-63" d="M384.1,725.19s-102.4.37-94.53,55.75c0,0,15.47,18.5,57.61-14.07,0,0-27.62,69.34,45-2.72,0,0-4.91,45.87,43.47,26.9,0,0,54.17,27.77,26.58-25,0,0,45.83,18,34.33-16.07,0,0,43.37-19.86-13.36-34.81S384.1,725.19,384.1,725.19Z"/>
              </g>
              <path class="cls-64" d="M1188,45.86S737.17-443.54,763.08,13.5c0,0-166,39-34,182,21.43-49.08-78.73,203,168,220,0-51.23,3.16,175,169.21,77-3.21,39,142.79,64,110.15-66.12-26.36,129.08,176.64,149.08,150.23-6,0,0,222.48,163.32,121.87-158.15,0,0,137.41-216-71.59-192.68,0,0-3.09-309.12-165.4-73.61Z"/>
              <path class="cls-65" d="M1273.9-14.55s-117.42-380-248.19-53.7C854.08-54.5,718.08-11.5,854.88,68.62c-76.8-35.12-186.59,197.39,58,177.23C828.08,255.5,832.08,435.5,969.9,376c-14.82,51.53,54,130.42,102.75-5.07-18.57,81.6,67.43,137.6,112.53,51.42,0,0,110.2,195.46,141.55-64.52,0,0,172-98.88,10.48-160,0,0,167.07-341.34-29.6-238.18Z"/>
              <path class="cls-66" d="M1273.86,36.44s-226.36-367.88-204.56-70c0,0-307.28,39.89-79.4,168.18,0,0-95.3,172.15,110.32,113.7,0,0-22.57,207.86,92.08,78.07,0,0,59.93,88.14,76.55-42.18,0,0,103.91,234.77,105.08-2.7,0,0,157,108.15,84-102,0,0,94.42-139.59-51.65-126.06,0,0-4.64-201.34-116.33-49.26Z"/>
              <path class="cls-67" d="M326.4,385.55s-26.36-5.49-15.74-19,19,6.23,19,6.23-17-18.59-7.68-25.26,14.64,10.61,14.64,10.61-17.21-38.06,7-36.23,4,36.23,4,36.23,6.22-17.56,16.47-11.34-2.93,17.45-2.93,17.45,19.77-13.67,21.6,0-9.15,15.86-16.11,14.76c0,0,14.65,8.42-.36,14.64s-16.84-5.86-16.84-5.86,5.86,16.11-2.2,17.57S328.35,410.78,326.4,385.55Z"/>
              <path class="cls-68" d="M330.63,373.13s-20.55-4.28-12.27-14.83,14.83,4.85,14.83,4.85-13.23-14.49-6-19.68,11.41,8.27,11.41,8.27S325.2,322.07,344,323.5s3.14,28.24,3.14,28.24S352,338.05,360,342.9s-2.28,13.6-2.28,13.6,15.4-10.65,16.83,0S367.43,368.85,362,368c0,0,11.41,6.56-.29,11.41s-13.12-4.56-13.12-4.56,4.56,12.55-1.71,13.69S332.14,392.8,330.63,373.13Z"/>
              <path class="cls-69" d="M726.27,332.29s-80.62,50.59-98.64,39.5c-8-4.9-24.77,12-41,32.37-24.92,31.23-52.79,55-80.72,68.17-30,14.13-78.35,45.45-150.24,114.44-140.42,134.73,25.14,80,25.14,80s86.68-164.66,240.94-184c101.58.33,77.37-5.75,22.73-13.37,0,0-26.2-5.78-47.67-3.52s28.77-44,28.77-44,86.06-49.27,102.78-69.53S726.27,332.29,726.27,332.29Z"/>
              <path class="cls-67" d="M761.41,275.43s46.31-1.16,33.85,25.7-34.34-2.95-34.34-2.95,35.76,24.46,22.81,39.29-28.7-12-28.7-12,43.78,57,2.59,63.44-21-59.12-21-59.12-3.52,31.87-23.13,25.48-2-30.38-2-30.38-27.75,30.65-36.18,8.49,9.09-30.17,21.18-31.06c0,0-27.84-8.35-5.15-24.67s30.51,3.19,30.51,3.19-16.14-24.67-3.22-30.29S748.23,233.92,761.41,275.43Z"/>
              <path class="cls-68" d="M749.79,278.64s36.09-.91,26.38,20-26.75-2.29-26.75-2.29,27.87,19.06,17.77,30.62-22.37-9.38-22.37-9.38,34.12,44.43,2,49.44S730.48,321,730.48,321s-2.74,24.84-18,19.86-1.52-23.68-1.52-23.68-21.62,23.89-28.19,6.61,7.09-23.5,16.5-24.2c0,0-21.69-6.51-4-19.23S719,282.83,719,282.83s-12.58-19.23-2.51-23.61S739.52,246.29,749.79,278.64Z"/>
              <path class="cls-70" d="M493.21,509.84h1.42c1.09,0,1.95.47,1.93,1.05s-.9,1.05-2,1.06h0c-40.69.19-65.7,5.59-65.95,5.64a2.7,2.7,0,0,1-2.54-.57c-.39-.54.11-1.15,1.12-1.38S452.55,510.13,493.21,509.84Z"/>
              <path class="cls-71" d="M529.34,543.26a1.38,1.38,0,0,1,.56.12c.35.17,35.34,16.71,53.77,40a1.53,1.53,0,0,1-.19,2.06,1.31,1.31,0,0,1-1.93-.15c-18-22.83-52.47-39.11-52.81-39.27a1.47,1.47,0,0,1-.67-1.92A1.43,1.43,0,0,1,529.34,543.26Z"/>
              <path class="cls-70" d="M396.14,546.43a2.4,2.4,0,0,1,1.79.62c.42.53-.05,1.16-1.05,1.4-37.55,9-76.37,30.07-76.76,30.28a3.3,3.3,0,0,1-2.78,0c-.77-.4-.76-1.07,0-1.49.39-.21,39.74-21.58,78-30.75A3.55,3.55,0,0,1,396.14,546.43Z"/>
              <path class="cls-71" d="M424.53,509.38a408.9,408.9,0,0,1,52.61,3.25c1.05.13,1.68.7,1.41,1.26a2.42,2.42,0,0,1-2.39.79C436.67,509.79,410.22,512,410,512c-1.08.09-2.06-.3-2.21-.87s.6-1.12,1.68-1.21C409.91,509.89,415.27,509.45,424.53,509.38Z"/>
              <path class="cls-71" d="M515,554.36c1,0,1.91.43,1.94,1s-.82,1.08-1.9,1.11c-57.79,1.75-144.66,23.23-145.53,23.45a2.8,2.8,0,0,1-2.59-.51c-.43-.52,0-1.15,1-1.4s88.45-21.87,147-23.64Z"/>
              <path class="cls-71" d="M357.39,554.85c71.48-.51,204.47,19.4,205.72,19.62,1,.18,1.57.77,1.21,1.32a2.63,2.63,0,0,1-2.48.69c-1.75-.27-145.92-21.89-213.73-19.32-1.08,0-2-.4-2.05-1s.79-1.09,1.87-1.13C350.94,554.94,354.1,554.87,357.39,554.85Z"/>
              <path class="cls-71" d="M580,565.64c.92,0,1.73.34,1.91.84s-.51,1.13-1.58,1.25c-35.08,3.95-137.09,7.9-257,7.43-1.09,0-1.94-.48-1.9-1.07s.94-1.05,2-1c119.65.47,221.28-3.45,256.17-7.39Z"/>
              <path class="cls-71" d="M439.39,567.22c30.64-.21,55.22,1.43,74.84,2.74,21.29,1.42,36.67,2.44,47.72.37a2.57,2.57,0,0,1,2.48.65c.33.55-.23,1.15-1.26,1.34-11.94,2.24-27.7,1.18-49.52-.27-39.48-2.64-99.14-6.62-188.13,6.13-1,.15-2.12-.18-2.37-.74s.39-1.14,1.45-1.3A847.05,847.05,0,0,1,439.39,567.22Z"/>
              <path class="cls-72" d="M331.89,562.25h.19c16.74.72,32.95,1.42,48.54,2.11,94.85,4.14,169.76,7.42,199.13,5.27,1.08-.08,2,.32,2.17.9s-.66,1.11-1.74,1.19c-29.79,2.18-101.17-.94-200-5.26l-48.54-2.11c-1.08-.05-1.86-.55-1.74-1.13S330.89,562.25,331.89,562.25Z"/>
              <path class="cls-73" d="M304.6,569.81c.37-16.24,65-58.8,143.66-59.35s141.37,41.09,141,57.32S525.6,565.63,447,566.19,304.23,586,304.6,569.81Z"/>
              <path class="cls-71" d="M471.69,560.74c39-.27,82.5,2.11,120.23,10.67,1,.22,1.43.84,1,1.38a2.89,2.89,0,0,1-2.6.56C535,560.81,467,561.73,419.61,564.72c-54.08,3.4-98.32,10.47-110,13.5a2.83,2.83,0,0,1-2.6-.48c-.46-.52,0-1.15,1-1.41,11.88-3.08,56.72-10.27,111.27-13.71C434.88,561.64,452.76,560.88,471.69,560.74Z"/>
              <path class="cls-71" d="M530.65,549.07a176.3,176.3,0,0,1,38,3.38,1.46,1.46,0,0,1-.6,2.85c-27.88-5.83-54.61-2.28-54.87-2.25a1.34,1.34,0,0,1-1.51-1.25,1.48,1.48,0,0,1,1.22-1.63A161.89,161.89,0,0,1,530.65,549.07Z"/>
              <path class="cls-71" d="M477.25,552.15a741.36,741.36,0,0,1,103.43,6.36c1,.14,1.66.71,1.37,1.27a2.48,2.48,0,0,1-2.41.77c-56.21-7.51-115.27-8.33-175.56-2.42-52.84,5.17-87.21,13.66-93.56,15.31a2.85,2.85,0,0,1-2.61-.48c-.45-.52,0-1.15,1-1.41,6.43-1.67,41.24-10.27,94.59-15.5C428.3,553.62,452.94,552.32,477.25,552.15Z"/>
              <path class="cls-72" d="M441.58,559.2c44.32-.32,98.76,2.55,143.72,14.77,1,.26,1.32.9.81,1.42a3,3,0,0,1-2.66.47c-53.35-14.51-120.48-15.63-167.39-14-52.25,1.8-97.28,7.61-109.77,10.32a2.68,2.68,0,0,1-2.53-.58c-.39-.54.12-1.16,1.14-1.38,11.41-2.47,55.2-8.55,111-10.46C423.94,559.46,432.55,559.26,441.58,559.2Z"/>
              <path class="cls-72" d="M465.24,546.92l2.71,0c57.81-.29,107.16,3.42,107.65,3.45,1.07.09,1.79.62,1.61,1.2s-1.19,1-2.26.89c-.49,0-49.59-3.72-107.12-3.43l-2.62,0c-74.52.53-129.57,7.59-159.33,20.44a3.22,3.22,0,0,1-2.76-.15c-.66-.45-.51-1.11.34-1.48,17.26-7.45,42.35-13,74.59-16.49C403,548.64,432.34,547.15,465.24,546.92Z"/>
              <path class="cls-71" d="M451.83,516c25.58-.19,53.9,1.77,85.58,5.89,1.05.14,1.67.71,1.39,1.27a2.47,2.47,0,0,1-2.41.78c-109-14.17-155.19.08-195.91,12.65l-1-.9-.91-.92c19.81-6.12,42.26-13.05,73.17-16.51A384.67,384.67,0,0,1,451.83,516Z"/>
              <path class="cls-70" d="M461.88,512.67a454.62,454.62,0,0,1,48,2.17c1.07.11,1.75.66,1.52,1.23s-1.26.95-2.33.85c-49-4.88-101.59-1.36-144.23,9.67a2.83,2.83,0,0,1-2.6-.48c-.45-.53,0-1.16,1-1.41C392.83,517,427.19,512.92,461.88,512.67Z"/>
              <path class="cls-71" d="M437.9,542.42c1.08,0,2,.46,1.94,1s-.9,1.06-2,1.07c-40.69.29-65.66,5.77-65.9,5.83a2.76,2.76,0,0,1-2.55-.56c-.4-.54.1-1.16,1.11-1.38S396.37,542.71,437.9,542.42Z"/>
              <path class="cls-72" d="M470.29,550.36h.24c.47,0,47.36,2.81,85.91,10.35,1,.19,1.51.8,1.11,1.35a2.76,2.76,0,0,1-2.54.63c-38.11-7.46-84.54-10.21-85-10.23-1.08-.07-1.83-.59-1.69-1.16S469.31,550.37,470.29,550.36Z"/>
              <path class="cls-72" d="M506.41,521.83c9.41-.06,20.5.18,33,1,1.07.07,1.81.59,1.65,1.17s-1.16,1-2.23.92c-40.24-2.69-66.29.94-66.55,1-1,.15-2.11-.18-2.37-.75s.39-1.14,1.45-1.29C472.1,523.77,484.88,522,506.41,521.83Z"/>
              <path class="cls-71" d="M462.36,522.66c1.08,0,1.95.46,1.94,1s-.91,1.06-2,1.07c-40.69.29-65.66,5.77-65.91,5.83a2.73,2.73,0,0,1-2.54-.56c-.4-.54.1-1.16,1.11-1.38S420.83,523,462.36,522.66Z"/>
              <path class="cls-72" d="M399.89,526.6c51.6-.37,128,1.84,176.53,15.79,1,.27,1.29.91.75,1.42a3,3,0,0,1-2.67.44c-70.06-20.13-199.61-15.44-224.87-14.3l-1,0c-1.08,0-1.95-.45-1.94-1s.88-1,1.94-1.06l.79,0C357.45,527.49,376,526.77,399.89,526.6Z"/>
              <path class="cls-72" d="M416.26,533.78a615.74,615.74,0,0,1,90.67,5.79c47.71,6.78,77.59,17.78,86,25.67.54.5.21,1.15-.74,1.45a3,3,0,0,1-2.68-.36c-8.06-7.53-37.07-18.1-83.71-24.72-37.46-5.32-97.89-9.65-173-.07-1.07.13-2.11-.22-2.33-.78s.45-1.14,1.51-1.28A707.36,707.36,0,0,1,416.26,533.78Z"/>
              <path class="cls-70" d="M452.09,542.32c1.08,0,2,.46,1.94,1s-.9,1.06-2,1.07c-101.63.72-133.06,6.87-133.36,6.94a2.66,2.66,0,0,1-2.51-.61c-.36-.55.17-1.16,1.2-1.36C318.64,549.14,349.76,543,452.09,542.32Z"/>
              <path class="cls-71" d="M412.83,552.43c17.2-.13,44.29.43,68.82,4.19,1,.15,1.62.74,1.3,1.3a2.6,2.6,0,0,1-2.47.72c-38.92-5.95-84.54-3.72-85-3.7-1.07.06-2-.37-2.1-1s.74-1.09,1.83-1.14C395.38,552.84,402.23,552.5,412.83,552.43Z"/>
              <path class="cls-71" d="M457.76,562.9c19.57-.14,58.25.37,86.26,5.73,1,.19,1.52.8,1.13,1.35a2.77,2.77,0,0,1-2.54.64c-38.05-7.29-96.54-5.43-97.12-5.41-1.11,0-2-.4-2-1s.81-1.09,1.89-1.12C445.51,563.1,450.22,563,457.76,562.9Z"/>
              <ellipse class="cls-74" cx="451.23" cy="587.63" rx="102.21" ry="34.92"/>
              <path class="cls-75" d="M536.18,601.16c-1.17-.94,40.7-22.08-21.19-46.8,0,0,117.23-42,82.79,37.84C597.78,592.2,560.91,620.88,536.18,601.16Z"/>
              <path class="cls-76" d="M516.93,555.35s48,18.1,27.8,41.09"/>
              <path class="cls-77" d="M520.38,548.65c23-6.67,69,20.9,26.54,48.8"/>
              <path class="cls-76" d="M511.79,554.84c23-6.67,70.74,17.08,28.26,45"/>
              <path class="cls-76" d="M530.12,552.19c23-6.67,68,10.41,25.53,38.32"/>
              <path class="cls-77" d="M561.59,544.37c44.5,0,60.22,17.57,17.74,45.48"/>
              <path class="cls-77" d="M554.43,547.68c44.5,0,60.22,17.57,17.74,45.48"/>
              <path class="cls-77" d="M547.39,550.81c44.5,0,60.22,17.57,17.74,45.48"/>
              <path class="cls-76" d="M545.28,546.89c8.85-1.34,62.33,12.9,24.77,42.37"/>
              <path class="cls-70" d="M500.37,617.26a2.19,2.19,0,0,1-1.85-.71c-.44-.64,0-1.41,1.06-1.73,38.57-11.87,78.3-38.51,78.7-38.78a2.92,2.92,0,0,1,2.86-.11,1,1,0,0,1,0,1.82c-.4.27-40.67,27.28-80,39.38A3.19,3.19,0,0,1,500.37,617.26Z"/>
              <path class="cls-71" d="M457.41,623.16c-1.12,0-2-.52-2-1.23s.92-1.31,2-1.35c41.89-1.32,67.54-8.61,67.8-8.69a2.46,2.46,0,0,1,2.63.63c.41.64-.09,1.41-1.13,1.71S500.17,621.8,457.41,623.16Z"/>
              <path class="cls-70" d="M442.8,623.62c-1.12,0-2-.51-2-1.22s.92-1.32,2-1.35c104.66-3.32,137-11.58,137.27-11.66a2.39,2.39,0,0,1,2.59.68c.38.65-.17,1.41-1.22,1.69C580.15,612.1,548.18,620.28,442.8,623.62Z"/>
              <path class="cls-78" d="M358,601.68c1.09-.87-30.9-17.47,27-40.42-18.29-45.33-119.42-22.54-91.35,32.58C293.69,593.84,334.9,620,358,601.68Z"/>
              <path class="cls-76" d="M379.24,550.44c-5.12.09-56.75,25.32-34,46.59"/>
              <path class="cls-76" d="M393.38,554s-68.24,3.4-39.72,46.21"/>
              <path class="cls-77" d="M375.82,546.36c-21.49-6.19-75,27.93-35.26,53.84"/>
              <path class="cls-76" d="M381.63,548.65c-21.5-6.19-74.13,27.75-34.38,53.66"/>
              <path class="cls-76" d="M368.15,543.09c-19,1.1-72.29,32-34.88,51.13"/>
              <path class="cls-77" d="M350,538.72c-44.11-4.8-75.71,25.66-36,51.56"/>
              <path class="cls-76" d="M363.32,540.9c-17.65-7-105.86,18.1-30.06,54.76"/>
              <path class="cls-76" d="M366.07,542.07c-8.27-1.24-78.48,20.32-43.34,47.66"/>
              <path class="cls-70" d="M400.83,664.22l-1.46,0c-1.12,0-2-.52-2-1.23s.92-1.31,2-1.35h0c41.92-1.2,67.6-8.38,67.86-8.46a2.46,2.46,0,0,1,2.62.64c.41.64-.1,1.41-1.14,1.7S442.71,662.9,400.83,664.22Z"/>
              <path class="cls-71" d="M363.23,624.32a1.13,1.13,0,0,1-.58-.14c-.37-.19-36.59-19.53-55.85-47.55a2.11,2.11,0,0,1,.17-2.51,1.23,1.23,0,0,1,2,.14c18.85,27.42,54.49,46.45,54.85,46.64a1.93,1.93,0,0,1,.7,2.32A1.5,1.5,0,0,1,363.23,624.32Z"/>
              <path class="cls-71" d="M309.61,622.56a1.91,1.91,0,0,1-2-1.48,2,2,0,0,1,1.6-2.31c36.07-8,141-17.67,264.56-19.68a1.88,1.88,0,0,1,2,1.88,2.08,2.08,0,0,1-2.08,2c-123.23,2-227.83,11.58-263.69,19.58A2.6,2.6,0,0,1,309.61,622.56Z"/>
              <path class="cls-71" d="M454.41,616.31c-31.55,1.13-56.89-1.27-77.12-3.18-22-2.08-37.81-3.58-49.16.45a1.91,1.91,0,1,1-1.28-3.59c12.25-4.36,28.5-2.82,51-.69,40.71,3.85,102.22,9.68,193.64-15.67a2,2,0,0,1,2.45,1.3,2,2,0,0,1-1.46,2.39C525.77,610.26,486.81,615.15,454.41,616.31Z"/>
              <path class="cls-72" d="M606.44,590.33c-.2,21.32-15,77.94-158.43,81.61-138.24,3.53-159-65.79-158.85-87.11S358.37,625,449.78,618C575,608.34,606.65,569,606.44,590.33Z"/>
              <path class="cls-71" d="M351.13,604.43a174.62,174.62,0,0,1-38-15.34,2.06,2.06,0,0,1-.8-2.36,1.26,1.26,0,0,1,1.83-.89,173.39,173.39,0,0,0,55.19,19,1.79,1.79,0,0,1,1.35,1.95c0,1-.7,1.69-1.48,1.59A149.29,149.29,0,0,1,351.13,604.43Z"/>
              <path class="cls-71" d="M333.94,605.46a173.61,173.61,0,0,1-38-15.34,2.05,2.05,0,0,1-.8-2.36,1.26,1.26,0,0,1,1.83-.89,173.39,173.39,0,0,0,55.19,19,1.82,1.82,0,0,1,1.35,2c0,1-.7,1.7-1.48,1.6A147.92,147.92,0,0,1,333.94,605.46Z"/>
              <path class="cls-71" d="M329.86,613a173.41,173.41,0,0,1-38-15.34,2.06,2.06,0,0,1-.81-2.36,1.26,1.26,0,0,1,1.83-.88,173,173,0,0,0,55.2,19,1.83,1.83,0,0,1,1.35,2c0,1-.71,1.69-1.48,1.59A147.92,147.92,0,0,1,329.86,613Z"/>
              <path class="cls-70" d="M429.2,620.32l-2.79.08c-59.54,1.74-110.4-1.59-110.91-1.63-1.1-.07-1.85-.71-1.67-1.41s1.21-1.22,2.32-1.15c.5,0,51.11,3.35,110.35,1.62l2.7-.08c76.74-2.43,133.36-12.36,163.85-28.75a2.86,2.86,0,0,1,2.84.11c.69.53.55,1.35-.33,1.82-17.68,9.5-43.46,16.87-76.62,21.9C493.26,616.73,463.08,619.25,429.2,620.32Z"/>
              <path class="cls-72" d="M424,614.24h-.25c-.48,0-48.81-2.29-88.59-10.57-1.05-.22-1.57-.94-1.17-1.62a2.57,2.57,0,0,1,2.62-.83c39.33,8.18,87.17,10.42,87.65,10.45,1.11.05,1.9.66,1.75,1.37S425,614.21,424,614.24Z"/>
              <path class="cls-72" d="M464.66,609.26a535.43,535.43,0,0,1-93.45-4.9c-49.22-7.12-80.12-19.82-88.92-29.25-.55-.6-.22-1.4.75-1.78a2.7,2.7,0,0,1,2.76.37c8.39,9,38.39,21.19,86.51,28.15,38.64,5.59,100.92,9.43,178.21-4.05,1.09-.19,2.17.21,2.41.89s-.45,1.4-1.54,1.59A619.27,619.27,0,0,1,464.66,609.26Z"/>
              <path class="cls-71" d="M588.76,590c-17.31,5.84-44.76,13.7-70.4,15a1.52,1.52,0,0,1-1.61-1.89,2.58,2.58,0,0,1,2.3-2.1c40.67-2.12,86.13-21,86.58-21.2a1.61,1.61,0,0,1,2.35,1,2.52,2.52,0,0,1-1.56,2.64C606.24,583.61,599.42,586.44,588.76,590Z"/>
              <path class="cls-71" d="M437.84,617.69c-20.16.72-60,.72-88.94-8.37a1.82,1.82,0,0,1-1.19-2.42,2.13,2.13,0,0,1,2.6-1.23c39.33,12.35,99.52,7.57,100.13,7.51a1.89,1.89,0,0,1,2.11,1.75,2.05,2.05,0,0,1-1.93,2.08C450.45,617,445.61,617.41,437.84,617.69Z"/>
              <path class="cls-79" d="M316.06,635.37s-14.84,18.58,21.78,29,92.88,19.85,158.62,11.91S592.93,631.9,596.89,628c7.11-7-.87-28-4.22-9.71C556.94,675.57,368.15,688.66,316.06,635.37Z"/>
              <path class="cls-71" d="M407.37,661.31a356.42,356.42,0,0,1-53.95-6c-1.08-.2-1.69-.91-1.38-1.6a2.35,2.35,0,0,1,2.51-.87c40.34,7.5,67.72,5.85,68,5.83,1.12-.07,2.11.44,2.22,1.15s-.69,1.34-1.8,1.41C422.45,661.25,416.91,661.59,407.37,661.31Z"/>
              <path class="cls-70" d="M478.55,657.17a394,394,0,0,1-49.4,2.4c-1.1,0-1.86-.61-1.69-1.33a2.27,2.27,0,0,1,2.3-1.27c50.76.78,104.25-9,146.76-26.9a2.55,2.55,0,0,1,2.72.31c.52.59.14,1.4-.85,1.82C548.83,644.63,514.07,653.23,478.55,657.17Z"/>
              <path class="cls-71" d="M500.19,642.2c-1.11.14-2.06-.31-2.13-1s.79-1.4,1.9-1.54c41.56-5.45,66.37-15.24,66.61-15.33a2.47,2.47,0,0,1,2.68.36c.48.6,0,1.41-1,1.81S542.61,636.64,500.19,642.2Z"/>
              <path class="cls-71" d="M590.14,608.26c-16.4,6.71-42.73,16-68.65,18.91a1.83,1.83,0,0,1-2.08-1.72,2.12,2.12,0,0,1,1.89-2.17c41.13-4.6,83.41-25.67,83.83-25.88a1.91,1.91,0,0,1,2.62.83,2,2,0,0,1-1,2.64C606.58,601,600.24,604.12,590.14,608.26Z"/>
              <path class="cls-71" d="M541.41,614C470.23,632.93,329,631.21,327.66,631.14a1.82,1.82,0,0,1-1.77-2,2.13,2.13,0,0,1,2.18-1.85c1.87,0,155,2,221.63-19.69a1.91,1.91,0,0,1,2.47,1.21,2.07,2.07,0,0,1-1.4,2.47C547.81,612.21,544.68,613.12,541.41,614Z"/>
              <path class="cls-71" d="M433.26,643.88c-40.16,1.44-85-1.85-124-16.54a1.83,1.83,0,0,1-1-2.49,2.13,2.13,0,0,1,2.67-1.09C368,645.27,438.1,642,486.82,635.4c55.64-7.5,101.08-21.43,113-27.23a2,2,0,0,1,2.69.82,1.93,1.93,0,0,1-1,2.59c-12.18,5.9-58.23,20.06-114.35,27.62C471.15,641.37,452.76,643.18,433.26,643.88Z"/>
              <path class="cls-71" d="M443.35,655.76c-26.34.79-55.53-1-88.19-5.29-1.08-.15-1.73-.83-1.45-1.52a2.37,2.37,0,0,1,2.48-1c112.43,14.87,159.83-3.54,201.64-19.78l1,1.07.94,1.11c-20.33,7.89-43.38,16.85-75.19,21.75A336.74,336.74,0,0,1,443.35,655.76Z"/>
              <path class="cls-71" d="M455.5,667.33c-26.35.83-55.53-.88-88.21-5.15-1.08-.14-1.73-.82-1.44-1.51a2.37,2.37,0,0,1,2.47-1c112.46,14.68,159.82-3.81,201.61-20.12l1,1.07.95,1.1c-20.33,7.94-43.36,16.93-75.16,21.89A338.33,338.33,0,0,1,455.5,667.33Z"/>
              <path class="cls-71" d="M449.9,650.56c-31.71,1-71.85-1.51-136.14-14.74-1.05-.21-1.57-.94-1.17-1.61a2.55,2.55,0,0,1,2.61-.84c95.44,19.63,137.09,15.45,177.37,11.41l9.9-1c1.1-.11,2.1.38,2.2,1.08s-.71,1.36-1.82,1.47c-3.31.31-6.58.64-9.86,1C479.43,648.68,465.71,650.06,449.9,650.56Z"/>
              <path class="cls-70" d="M363.45,628.11a393.75,393.75,0,0,1-49.19-5.1c-1.08-.18-1.74-.89-1.46-1.57a2.26,2.26,0,0,1,2.46-.91c50.06,8.45,104.42,6.85,149.14-4.4a2.57,2.57,0,0,1,2.64.72c.42.66-.07,1.41-1.11,1.67C434.83,626.34,399.16,629.58,363.45,628.11Z"/>
              <path class="cls-71" d="M412.07,637.22c-26.92.85-56.28-.29-85-5.38-1.06-.18-1.63-.89-1.27-1.58a2.5,2.5,0,0,1,2.56-.9c64.76,11.47,133.16,2.57,168.17-3.75,54.24-9.8,90.84-24.07,98.95-33.1a2.8,2.8,0,0,1,2.77-.56c1,.33,1.29,1.11.72,1.74-10.14,11.28-51.89,25.42-101.54,34.39A595.22,595.22,0,0,1,412.07,637.22Z"/>
            </g>
          </g>
        </g>
        <rect class="cls-80" x="784.25" width="31.51" height="900"/>
      </g>
      <g class="cls-81">
        <path class="cls-9" d="M3496.28,550.28c.32-47.8,0-95.62.07-143.43-68.14-7.34-124.42-12.12-136.72-9.48-37.49,8-156.73,40.85-166.4,43.4-6.83,1.81-94.75-15.5-145.8-25.82a164.21,164.21,0,0,0-72.34,1.61L2492.8,536l-64.56-21.68a92.73,92.73,0,0,0-49.34-2.87L2264.48,536c-40.42-31-134.14-52.71-174.47-60.94-12.15-2.48-24.55-.28-35.81,6.21-306.13,176.45-511.43,105-511.43,105V772.7l1952-28.65C3495.11,679.46,3495.86,614.87,3496.28,550.28Z"/>
      </g>
    </g>
  </g>
</svg>
