<svg xmlns="http://www.w3.org/2000/svg" xmlns:xlink="http://www.w3.org/1999/xlink" width="1600" height="900" viewBox="0 0 1600 900">
  <defs>
    <style>
      .cls-1, .cls-60, .cls-61 {
        fill: none;
      }

      .cls-2, .cls-25 {
        isolation: isolate;
      }

      .cls-3 {
        clip-path: url(#clip-path);
      }

      .cls-4 {
        clip-path: url(#clip-path-2);
      }

      .cls-5 {
        fill: url(#Áåçûìÿííûé_ãðàäèåíò_5);
      }

      .cls-43, .cls-6 {
        opacity: 0.5;
      }

      .cls-7 {
        clip-path: url(#clip-path-3);
      }

      .cls-8 {
        fill: url(#linear-gradient);
      }

      .cls-9 {
        clip-path: url(#clip-path-4);
      }

      .cls-10 {
        fill: url(#linear-gradient-2);
      }

      .cls-11 {
        clip-path: url(#clip-path-5);
      }

      .cls-12 {
        fill: url(#linear-gradient-3);
      }

      .cls-13, .cls-14 {
        fill: #f6a6ac;
      }

      .cls-13, .cls-14, .cls-23, .cls-29, .cls-33 {
        mix-blend-mode: multiply;
      }

      .cls-13, .cls-37, .cls-63 {
        opacity: 0.36;
      }

      .cls-14 {
        opacity: 0.66;
      }

      .cls-15 {
        fill: #3c1e0e;
      }

      .cls-16 {
        clip-path: url(#clip-path-6);
      }

      .cls-17 {
        fill: url(#linear-gradient-4);
      }

      .cls-18 {
        clip-path: url(#clip-path-7);
      }

      .cls-19 {
        fill: url(#linear-gradient-5);
      }

      .cls-20 {
        fill: #5f2d1b;
      }

      .cls-21, .cls-23, .cls-24 {
        fill: #9b6f38;
      }

      .cls-22 {
        fill: #88462c;
      }

      .cls-23, .cls-24 {
        opacity: 0.6;
      }

      .cls-24, .cls-43, .cls-45 {
        mix-blend-mode: screen;
      }

      .cls-25 {
        fill: #9c7139;
        opacity: 0.6;
      }

      .cls-26 {
        fill: #2f1a11;
      }

      .cls-27 {
        fill: #402d18;
      }

      .cls-28 {
        fill: #251c13;
      }

      .cls-29, .cls-33 {
        opacity: 0.45;
      }

      .cls-29 {
        fill: url(#linear-gradient-6);
      }

      .cls-30 {
        fill: #7aab45;
      }

      .cls-31 {
        fill: #88bb4a;
      }

      .cls-32 {
        fill: #91c84f;
      }

      .cls-33 {
        fill: #008e48;
      }

      .cls-34 {
        clip-path: url(#clip-path-8);
      }

      .cls-35 {
        clip-path: url(#clip-path-9);
      }

      .cls-36 {
        fill: url(#linear-gradient-7);
      }

      .cls-37 {
        fill: #207d78;
      }

      .cls-38 {
        fill: url(#linear-gradient-8);
      }

      .cls-39 {
        fill: url(#linear-gradient-9);
      }

      .cls-40 {
        fill: #77491e;
        stroke: #382110;
        stroke-width: 0.75px;
      }

      .cls-40, .cls-60, .cls-61 {
        stroke-miterlimit: 10;
      }

      .cls-41 {
        fill: #825024;
      }

      .cls-42 {
        fill: #733c19;
      }

      .cls-44, .cls-45 {
        fill: #dc8035;
      }

      .cls-45 {
        opacity: 0.24;
      }

      .cls-46 {
        fill: #2a5026;
      }

      .cls-47 {
        fill: #2e6633;
      }

      .cls-48 {
        fill: url(#linear-gradient-10);
      }

      .cls-49 {
        fill: #2b6331;
      }

      .cls-50 {
        fill: #6dad44;
        opacity: 0.42;
      }

      .cls-51 {
        fill: #30793b;
      }

      .cls-52 {
        fill: #569d44;
      }

      .cls-53 {
        fill: #7c481d;
      }

      .cls-54 {
        fill: #d5b386;
      }

      .cls-55 {
        fill: #936d29;
      }

      .cls-56 {
        fill: #bb8a40;
      }

      .cls-57 {
        fill: #a06d35;
      }

      .cls-58 {
        fill: #744e1f;
      }

      .cls-59 {
        fill: #b68038;
      }

      .cls-60 {
        stroke: #936d29;
      }

      .cls-60, .cls-61 {
        stroke-width: 2px;
      }

      .cls-61 {
        stroke: #d5b386;
      }

      .cls-62 {
        fill: #ae7c36;
      }

      .cls-64 {
        fill: #17405e;
      }
    </style>
    <clipPath id="clip-path">
      <rect class="cls-1" x="800" width="800" height="900" transform="translate(2400 900) rotate(180)"/>
    </clipPath>
    <clipPath id="clip-path-2">
      <rect class="cls-1" x="130" width="1600" height="900"/>
    </clipPath>
    <linearGradient id="Áåçûìÿííûé_ãðàäèåíò_5" data-name="Áåçûìÿííûé ãðàäèåíò 5" x1="930" y1="902" x2="930" y2="-4" gradientUnits="userSpaceOnUse">
      <stop offset="0" stop-color="#dfedd1"/>
      <stop offset="1" stop-color="#56c8ed"/>
    </linearGradient>
    <clipPath id="clip-path-3">
      <path id="SVGID" class="cls-1" d="M1568.24,616.38l-3.75,19.91s39.61-.11,38.89-10.38c-4.69-9.25-13.91-11.48-21.74-11.48a49,49,0,0,0-13.4,2"/>
    </clipPath>
    <linearGradient id="linear-gradient" x1="-1803.5" y1="-2046.63" x2="-1802.65" y2="-2046.63" gradientTransform="matrix(45.64, 0, 0, -45.64, 83870.64, -92775.58)" gradientUnits="userSpaceOnUse">
      <stop offset="0" stop-color="#1f6c37"/>
      <stop offset="0" stop-color="#256f3f"/>
      <stop offset="0" stop-color="#347856"/>
      <stop offset="0" stop-color="#4d867a"/>
      <stop offset="0" stop-color="#6f9aad"/>
      <stop offset="0" stop-color="#8caad7"/>
      <stop offset="0.08" stop-color="#94b0d9"/>
      <stop offset="0.21" stop-color="#aac0df"/>
      <stop offset="0.25" stop-color="#b3c6e1"/>
      <stop offset="0.98" stop-color="#fff"/>
      <stop offset="1" stop-color="#fff"/>
    </linearGradient>
    <clipPath id="clip-path-4">
      <path id="SVGID-2" data-name="SVGID" class="cls-1" d="M1481,629.63s22.6-30.63,56.36-30.63a72.06,72.06,0,0,1,15.19,1.64c42.41,9.14,35.85,35.84,15.31,37.46s-60.76,1.93-69.51,0-20-.53-17.66-8Z"/>
    </clipPath>
    <linearGradient id="linear-gradient-2" x1="-1830.73" y1="-2002.93" x2="-1829.83" y2="-2002.93" gradientTransform="matrix(114.47, 0, 0, -114.47, 211051.9, -228664)" gradientUnits="userSpaceOnUse">
      <stop offset="0" stop-color="#1f6c37"/>
      <stop offset="0" stop-color="#256f3f"/>
      <stop offset="0" stop-color="#347856"/>
      <stop offset="0" stop-color="#4d867a"/>
      <stop offset="0" stop-color="#6f9aad"/>
      <stop offset="0" stop-color="#8caad7"/>
      <stop offset="0.14" stop-color="#94b0da"/>
      <stop offset="0.37" stop-color="#aac0e1"/>
      <stop offset="0.64" stop-color="#cedbee"/>
      <stop offset="0.95" stop-color="#fff"/>
      <stop offset="1" stop-color="#fff"/>
    </linearGradient>
    <clipPath id="clip-path-5">
      <path id="SVGID-3" data-name="SVGID" class="cls-1" d="M1495.12,624.55c-5.93.72-29.25,10.11-29.25,10.11-1.27,7.23,4.67,3.61,9.75,3.42,1.82-.06,5.87.22,10.75.5,8.75.51,20.15,1,26.13-.5,5.09-11.3-7-13.7-14.23-13.7a27.51,27.51,0,0,0-3.15.17"/>
    </clipPath>
    <linearGradient id="linear-gradient-3" x1="-1811.05" y1="-2033.86" x2="-1810.19" y2="-2033.86" gradientTransform="matrix(55.42, 0, 0, -55.42, 101829.67, -112077.54)" xlink:href="#linear-gradient"/>
    <clipPath id="clip-path-6">
      <path id="SVGID-4" data-name="SVGID" class="cls-1" d="M128.65,694.53c-39.34,67.44,4.5,150.61,4.5,150.61h85.42s3.37,5.87,11.24-75.31c10.86-112-27.33-78.56-27.33-78.56s13.84-87.79-33.37-115.89c-4.11-2.45-7.81-3.56-11.14-3.56-34.93,0-29.32,122.71-29.32,122.71"/>
    </clipPath>
    <linearGradient id="linear-gradient-4" x1="-1887.31" y1="-1991.92" x2="-1884.67" y2="-1991.92" gradientTransform="matrix(83.28, 0, 0, -83.28, 157231.65, -165179.32)" gradientUnits="userSpaceOnUse">
      <stop offset="0" stop-color="#16a64e"/>
      <stop offset="0.2" stop-color="#16a64e"/>
      <stop offset="0.37" stop-color="#37af52"/>
      <stop offset="0.54" stop-color="#4fb655"/>
      <stop offset="0.69" stop-color="#5dba57"/>
      <stop offset="0.82" stop-color="#62bb58"/>
      <stop offset="1" stop-color="#62bb58"/>
    </linearGradient>
    <clipPath id="clip-path-7">
      <path id="SVGID-5" data-name="SVGID" class="cls-1" d="M206.08,795.93c-20.11,34.48,2.3,77,2.3,77h43.67s1.72,3,5.75-38.5c5.55-57.27-14-40.16-14-40.16s7.08-44.89-17.06-59.25a11.26,11.26,0,0,0-5.7-1.83c-17.85,0-15,62.74-15,62.74"/>
    </clipPath>
    <linearGradient id="linear-gradient-5" x1="-1887.71" y1="-1992.72" x2="-1886.36" y2="-1992.72" gradientTransform="matrix(83.28, 0, 0, -83.28, 157379.62, -165152.8)" xlink:href="#linear-gradient-4"/>
    <linearGradient id="linear-gradient-6" x1="-724.24" y1="117.56" x2="-2733.98" y2="72.97" gradientTransform="matrix(-1.01, -0.06, -0.06, 1, -859.84, 1.18)" gradientUnits="userSpaceOnUse">
      <stop offset="0" stop-color="#faf07d"/>
      <stop offset="0.31" stop-color="#458e70"/>
      <stop offset="0.62" stop-color="#4a7740"/>
      <stop offset="1" stop-color="#c2d72f"/>
    </linearGradient>
    <clipPath id="clip-path-8">
      <rect class="cls-1" width="800" height="900"/>
    </clipPath>
    <clipPath id="clip-path-9">
      <rect class="cls-1" x="-340" y="3" width="1600.17" height="900"/>
    </clipPath>
    <linearGradient id="linear-gradient-7" x1="-2396.13" y1="-1975.26" x2="-2395.66" y2="-1975.22" gradientTransform="matrix(334.04, -1651.37, -1651.37, -334.04, -2461050.56, -4615823.26)" gradientUnits="userSpaceOnUse">
      <stop offset="0.2" stop-color="#f0f6fb"/>
      <stop offset="0.46" stop-color="#cde3f5"/>
      <stop offset="0.7" stop-color="#b3d5f0"/>
    </linearGradient>
    <linearGradient id="linear-gradient-8" x1="283.2" y1="411.31" x2="764.34" y2="1244.67" gradientUnits="userSpaceOnUse">
      <stop offset="0.01" stop-color="#26476f"/>
      <stop offset="0.02" stop-color="#2b4e71"/>
      <stop offset="0.1" stop-color="#426e79"/>
      <stop offset="0.18" stop-color="#54867f"/>
      <stop offset="0.26" stop-color="#609784"/>
      <stop offset="0.35" stop-color="#68a286"/>
      <stop offset="0.46" stop-color="#6aa587"/>
      <stop offset="1" stop-color="#427c83"/>
    </linearGradient>
    <linearGradient id="linear-gradient-9" x1="218.94" y1="386.65" x2="800.96" y2="1394.74" gradientUnits="userSpaceOnUse">
      <stop offset="0.02" stop-color="#6aa587"/>
      <stop offset="0.59" stop-color="#4c7d7d"/>
      <stop offset="0.7" stop-color="#49797c"/>
      <stop offset="0.82" stop-color="#406c79"/>
      <stop offset="0.93" stop-color="#315673"/>
      <stop offset="1" stop-color="#26476f"/>
    </linearGradient>
    <linearGradient id="linear-gradient-10" x1="638.1" y1="174.24" x2="1452.87" y2="174.24" gradientUnits="userSpaceOnUse">
      <stop offset="0.26" stop-color="#1b391b"/>
      <stop offset="0.43" stop-color="#1d3d1d"/>
      <stop offset="0.59" stop-color="#224822"/>
      <stop offset="0.74" stop-color="#2b5a2b"/>
      <stop offset="0.89" stop-color="#387438"/>
      <stop offset="0.91" stop-color="#3a783a"/>
    </linearGradient>
  </defs>
  <g class="cls-2">
    <g id="Layer_1" data-name="Layer 1">
      <g>
        <g id="SC_25">
          <g class="cls-3">
            <g class="cls-4">
              <polygon class="cls-5" points="1730.3 -4 1730.3 902 323.92 901.54 129.7 901.48 129.7 -4 1730.3 -4"/>
              <g class="cls-6">
                <g class="cls-7">
                  <rect class="cls-8" x="1564.98" y="614.96" width="39.21" height="21.44"/>
                </g>
                <g class="cls-9">
                  <rect class="cls-10" x="1478.99" y="598.77" width="116.16" height="40.61"/>
                </g>
                <g class="cls-11">
                  <rect class="cls-12" x="1464.84" y="624.86" width="52.86" height="17.65"/>
                </g>
              </g>
              <path class="cls-13" d="M1795,883.63l-129.29,29.79H120l.34-4.13,7.79-96.07.49-6.17,63.21,34H278l97.68-29.78,79.77,15.33,6.92,1.06,21,1.75,44.42,2,43.41,12.25,34.29,10.11L323.72,819.49l204-35.75c12.38-2.59,97.34-17.19,109.2-21.57l78-23.9c23-7.84,42.6-13.08,59-23.56,66.44-42.53,123.25-44.59,144.44-43.08l300.09,33.51L1242.14,736l-41.87,66.77,53,20.21,273.22,17.61,7.1.47,8.62,8.51H1591l31.61,17,149.4,4.25Z"/>
              <polygon class="cls-14" points="110.5 937.04 238.9 966.82 1774 966.82 1773.66 962.69 1765.92 866.62 1765.44 860.46 1702.67 894.49 1617.07 894.49 1520.05 864.71 1425.89 903 1419.02 904.06 1352.9 914.49 1336.1 917.13 1333.27 917.55 1291.79 907.25 1260.4 877.47 1197.28 874.37 940.83 813.65 878.05 809.4 786.75 847.69 701.14 856.2 648.56 876.41 377.21 894.02 370.16 894.49 361.6 903 313.09 903 281.7 920.02 133.33 924.27 110.5 937.04"/>
              <g>
                <path class="cls-15" d="M174,900.46c6.36-7.12,5.28-16.08,5.51-25.18.26-10.77,1.55-21.42-.27-32.08-1.4-8.24-13.35-7-15.48,0-3.12,10.31-2.64,21.39-2.76,32.08-.09,9.07-1.08,18.23,5.47,25.18a5.37,5.37,0,0,0,7.53,0"/>
                <path class="cls-15" d="M196.92,840.9c-2.83,5.59-6.54,12-11.45,15.93-4.71,3.82-10.49,6.32-15.06,10.27a2.24,2.24,0,0,0,.45,3.5c7.71,3.51,16.89-.5,22.32-6.26,6.15-6.5,9.1-14.13,7.36-23a2,2,0,0,0-3.62-.47"/>
                <path class="cls-15" d="M150.32,843.62l.13-.31c2-4.6-5.7-5.45-4.9-.64a25.19,25.19,0,0,0,7.35,13.43c3.19,3.11,8.11,6.67,12.81,5.65a1.75,1.75,0,0,0,.77-2.9c-2.85-2.66-6.85-3.82-9.72-6.61a22.74,22.74,0,0,1-6-11c-.62,1.1-1.24,2.2-1.87,3.3.54-.16,1.22-.35,1.47-.92"/>
                <g class="cls-16">
                  <rect class="cls-17" x="20" y="625.24" width="289.98" height="172.33" transform="translate(-556.98 821.33) rotate(-85.6)"/>
                </g>
              </g>
              <g>
                <path class="cls-15" d="M229.24,901.21c3.25-3.64,2.7-8.22,2.81-12.87.14-5.51.8-11-.13-16.4-.72-4.21-6.83-3.59-7.92,0-1.59,5.27-1.35,10.93-1.41,16.4-.05,4.64-.55,9.32,2.79,12.87a2.75,2.75,0,0,0,3.86,0"/>
                <path class="cls-15" d="M241,870.76c-1.45,2.86-3.34,6.11-5.86,8.15s-5.36,3.23-7.69,5.25a1.14,1.14,0,0,0,.23,1.79c3.94,1.79,8.63-.26,11.41-3.2,3.14-3.33,4.65-7.23,3.76-11.75a1,1,0,0,0-1.85-.24"/>
                <path class="cls-15" d="M217.16,872.15l.06-.16a1.35,1.35,0,1,0-2.5-.32,12.92,12.92,0,0,0,3.75,6.86c1.63,1.59,4.15,3.42,6.55,2.89a.89.89,0,0,0,.4-1.48c-1.46-1.36-3.51-2-5-3.38a11.57,11.57,0,0,1-3.09-5.62c-.32.56-.64,1.12-1,1.68.27-.08.62-.17.75-.47"/>
                <g class="cls-18">
                  <rect class="cls-19" x="150.53" y="760.51" width="148.25" height="88.11" transform="translate(-594.77 966.82) rotate(-85.6)"/>
                </g>
              </g>
              <g>
                <g>
                  <path class="cls-20" d="M1763.51,171.42c-9.7-1.13-14.24,7.61-16.45,15.52,0,.07,0,.14,0,.21s-.08.15-.1.23c-2.29,5.71-3.27,11.8-4.13,17.93-1.19,5.9-2.27,11.85-3.35,17.79-1.47,5.06-3.44,10.46-4.23,15.76-15.92,46.33-40.48,86.17-71.28,120.75-3.12-49.26-14.79-98.59.71-146.73,2.06-6.42,12.15-27.29,4.62-32.89-7.06-5.25-15,2.73-20.63,10.58a2,2,0,0,0-1.56,1c-18.73,31-23.35,67.81-25.41,103.35-1.07,18.52-1.85,37.3-1.18,55.84.55,15,1.8,29.85-.7,44.38a41.79,41.79,0,0,1-5.43,11.83,583.24,583.24,0,0,1-73.59,51.14c-27,15.93-53.52,31.58-77.77,50.37.41-39.28-1.12-78.61-.85-117.92,0-1.9.11-3.8.15-5.71l0-.05c0-.66,0-1.32,0-2a391.07,391.07,0,0,1,5.38-57.48c2.74-15.79,8.27-32.07,8.73-48.31a198.82,198.82,0,0,1,7.13-20.84c13.86-33.7,36.37-62.61,57.76-91.82h0c4.4-3.88,10.19-9.31,10.35-15.73.15-6.65-5.79-12.94-9.48-18.3-14.64,13-27.88,27.31-41.93,40.9q-7.1,6.87-14.09,13.83c-4.87,5.58-9.75,11.15-14.51,16.83l0,.06a322.8,322.8,0,0,0-28.07,43.6,356.28,356.28,0,0,0-15.36,32.89c0-30.34-3.49-61.48-6.12-91.53,0-.59-.11-1.2-.15-1.79-1.71-13.5-3.79-26.95-6.32-40.34-2.49-13.23-4.89-26.46-8-39.5-.5-1.38-.93-2.79-1.47-4.15-.44-2.43-1-4.83-1.5-7.24-1.56-5.6-3.3-11.15-5.29-16.63-10-.53-20.72.77-27.61,8.63-.2.24-.66,1.68.13,1.36.26-.11.58-.24.95-.36,2.32,49.5,11.56,98.5,11.18,148.14-.39,50.27-22.39,92.07-50.86,132-32.49-92.75-35.6-195-17.66-291.11.53-1.2,1-2.38,1.45-3.58-.25-2.88-.53-5.75-.83-8.63-20.24,3.32-30.23,8.38-40.3,27.1-9.82,18.25-16.1,39.18-22.11,58.94A488.83,488.83,0,0,0,1237,228.52c-2,15.24-3.79,31.25-4,47-3.21-15.72-6.85-31.36-10.4-46.81-7.91-34.32-13.83-72.1-29.27-104.46a167.79,167.79,0,0,0-8.34-20.53c-.31-.63-1.07-.59-1.63-.51-20.14,2.94-40.74,8.4-58.22,19.1a5.42,5.42,0,0,0-2.57,5.17c.71,4,.94,7.79,3.51,9.75a2.57,2.57,0,0,0-.24,1.48c13,46.83,25.43,92.34,32.2,140.63,6.65,47.46,9.11,95.22,11.9,143-25.77-42.43-45.14-87.91-74.53-128.34-21.86-30.06-46.17-58.48-70.33-86.92a132.91,132.91,0,0,1-8.84-10.42l-1.09-1.28a.86.86,0,0,0,0-.16c-.24-.32-.5-.64-.74-1-9-12.64-15.9-26.49-25.83-38.3a20.59,20.59,0,0,0-13-1c-13.59,3-34.82,17.26-27.22,33.11,0,.11,0,.22,0,.3.25.42.53.81.79,1.22.15.24.23.47.38.71a.85.85,0,0,0,.19.19c18.22,28.9,40.71,54.2,62.44,80.48,22.77,27.57,41.08,56.16,55.58,88.8,4.54,13.79,8.2,27.79,11.56,41.18,12.7,50.69,21,102.74,29.45,154.26,9.81,59.39,16.61,118.71,19.27,178.85,2.48,56,2,112,3.37,168-.63,40.3-1,80.59-1.9,120.9,0,1-.06,2-.08,3h327.06c-1.94-58.86-5-117.68-7-176.56q-2-62.57-.19-124.86c1.63-3.69,3.14-7.42,4.53-11.1v.26q.93-2.57,2-5.1c0-.13,0-.25,0-.37,2.46-6.84,4.57-13.35,6.46-18.92,8.08-23.94,17-45.87,31-67.22,19-28.94,43.7-53.88,68-78.27,44.27-44.38,88.65-88.73,128.53-137.17q10.46-12.69,20.64-26c7.55-12.53,13.48-25.69,20.38-38.57,2.43-4.55,5-9,7.46-13.55a289.15,289.15,0,0,0,16-38.43c5.8-17.63,9.66-35.78,13.82-53.84,5.11-15.12,9.84-30.38,15-45.45C1787.36,178.23,1773.89,172.64,1763.51,171.42Z"/>
                  <path class="cls-21" d="M1764,178.92c-14.49-1.68-13.9,21.42-16,30.94a208.44,208.44,0,0,1-9.25,32.23c-13.34,44.15-38,84.43-68.74,119.69q-5,4.41-10.07,8.72c-.42-1.72-.8-3.46-1.13-5.2l.38-.41c-5.73-41.18-13-83.61-7.13-124.64,1.8-12.58,6.89-24.19,10.89-36.18,1.3-3.89,2.74-7.77,3.67-11.77,1.57-6.67-3.71-11-9.65-5.31a93.51,93.51,0,0,0-10.86,12.8c-15.28,38.28-18.51,78.18-19.72,119.34-.52,17.62.64,35.14.27,52.74,0,1.12-.09,2.24-.14,3.35,0,18.28-3.37,39.52-18.57,45.06a497.61,497.61,0,0,1-40.55,29c-32.75,20.94-68.14,38.76-99.36,62a181.85,181.85,0,0,0-32.19,27c-8.92,9.6-15.91,20.39-22,31.86,2.52-8.86,6.58-17.58,10.49-25.9a273.24,273.24,0,0,1,30.1-28.93c1.19-26.84,1.63-53.69,1.85-80.56-.3-15.23-.46-30.46-.17-45.72a314.19,314.19,0,0,1,2.56-33.31c.25-3.41.43-6.82.73-10.21,2.09-23.52,6.56-46.65,11.07-69.78a219.07,219.07,0,0,1,9.12-23.8c16.08-35.3,39.61-66.19,64.8-95.43,1.75-2.84,2.48-5.82.15-9.39S1540,140,1538,136.25c-5.06,5.14-10,10.44-14.84,15.76-7.59,10.05-17,18.9-25.69,27.89-4.25,4.37-8.38,9-12.4,13.7-11.79,10.75-20.77,24.32-28.26,38.37a2.68,2.68,0,0,0-.29,1.47c-2.16,3.6-4.32,7.21-6.27,10.86a392.88,392.88,0,0,0-20.7,46.33,70.53,70.53,0,0,1-4.09-7.37c-7.14-29.44-6.09-62.29-9.14-92.14-3.29-32.24-10.56-62.6-17.58-94.1a3.83,3.83,0,0,1,.54-2c-.76-3-1.57-6.09-2.46-9.12-1.41-4.81-15.66-1.6-22.31.5,7.29,54.64,19.26,110.26,14.22,165.65-4.18,45.93-29,86-55.75,122.44-.92,1.27-3,2.3-3.73.34-33.37-92.28-41-198.51-17.93-294.45-.47-.21-.71-.75-.45-1.78.71-2.73,1.45-5.33,2.28-7.92-12.06,1.75-22.78,3.4-29.87,15.64a166.42,166.42,0,0,0-12.7,28.28c-6.54,18.52-12.76,37.24-17.44,56.32a545,545,0,0,0-11.4,60.9c-.19,1.46-.32,2.93-.5,4.39a488.86,488.86,0,0,0-6.14,80.14q-1.65-5.49-3.28-11c-11.26-61.3-24.71-121.93-43.37-181.55a97.17,97.17,0,0,0-5.9-10.74c-3-4.4-13.77,0-17.53.93a170.34,170.34,0,0,0-36.9,12.88c.49,2.68,1.09,5.34,1.55,8,20.27,44.24,28,96.77,34.09,144.65a1198.23,1198.23,0,0,1,10,149.77c0,.92-2.12,4.52-3.13,2.75-26.28-46.43-49.37-94.5-82-137-16.31-21.25-34.3-41.52-51.46-62.38-14-19.92-28.28-39.62-41.15-60.2-7.62-12.18-14.47-17.18-28.63-10.72-7.41,3.39-13.34,9.75-17.29,16.7-1.89,3.31-.72,6.55,1.22,9.41,0,.19,0,.35.08.54a1.64,1.64,0,0,1-.17.84c28.47,39.47,65.36,72.19,92.65,112.51.94,1.38,1.76,2.85,2.68,4.23a137,137,0,0,1,16.32,27.34c15,39.17,27.76,79.21,34.47,120.72,8.18,50.7,15.69,101.48,23.23,152.28,7.8,52.63,13.94,105.13,14.51,158.38.53,48.78-1.8,97.58,2.19,146.23-.38,36.21-.67,72.42-1.51,108.64,0,2.15-.12,4.3-.17,6.46H1450c-2-59.43-5.22-118.8-6.75-178.25-1-36.5-1.51-73.26-.45-109.93a97,97,0,0,1-8.74,13.14c-9.78,15.77-22.5,30.35-38.07,38.85a75.87,75.87,0,0,1-26.88.91,55.66,55.66,0,0,0,15.21-3c12.91-4.55,23.27-12.43,32.13-22a38,38,0,0,1-3.7,1.62,67.64,67.64,0,0,0,7-5.39c9.83-11.48,17.85-24.89,25.67-37.64,0-.06.08-.07.12-.12a183.05,183.05,0,0,0,8.85-27c3.51-11.2,6.48-21.89,9.53-30.29,18.55-51.14,58.17-91.71,95.91-129.36,43.77-43.68,87.88-87.4,127.13-135.28,8.71-10.62,16.94-21.44,24.88-32.39,10.54-20.82,23.57-40.21,31.72-62.36,9.62-26.09,15.22-52.82,21.73-79.78,2.93-12.15,5.94-24.48,10.6-36.1a12.06,12.06,0,0,0,1.06-5.13C1775,182,1769.38,179.54,1764,178.92Z"/>
                </g>
                <g>
                  <path class="cls-22" d="M1170.77,1026H1175c-2-212.55,17.4-431.79-72.44-628.73-.16-.35-.74.42-.61.75C1187,597,1165.31,814.27,1170.77,1026Z"/>
                  <path class="cls-22" d="M1393.38,852.66c0-1.59-1.85.18-1.88,1.1-1.1,41-7.14,82.84-4.58,123.76.22,3.5,3.89-.51,4-2.36C1393.55,934.65,1394.24,893.25,1393.38,852.66Z"/>
                  <path class="cls-22" d="M1454.46,544.75c-37.85,44-70.83,88.69-77,148.07-.16,1.46,1.7,0,1.84-.81,9.67-57.35,42.39-100.41,76-146C1456.05,545,1455.6,543.44,1454.46,544.75Z"/>
                  <path class="cls-22" d="M1402.11,283.69c-.07-1.49-1.72.17-1.74,1-1.37,53.82-15.94,105.89-28.91,157.78-12,47.87-23.68,99.13-17,148.68.19,1.4,2.11-.69,2.08-1.53-1.93-54.37,9.3-105.38,22.83-157.68C1392,383.27,1404.35,334.37,1402.11,283.69Z"/>
                  <path class="cls-22" d="M1409,430.49c-2.21,15.52-4.73,31.58-5,47.26,0,2.65,2.92-.11,3.17-1.4,3-15.31,2.64-31.28,3.93-46.8C1411.26,427.86,1409.13,429.55,1409,430.49Z"/>
                  <path class="cls-22" d="M1243,519.16c-3-51-7.9-102.94-18.6-153-.23-1.09-1.66.62-1.53,1.37,9.29,52.31,13.46,106,16.5,159,3,51.9,1.22,104.29,10,155.72.15.85,1.27-.49,1.2-1.07C1243.65,627.36,1246.16,573.2,1243,519.16Z"/>
                  <path class="cls-22" d="M1302.7,696.61c-.12-1.44-1.75.13-1.7,1,3,50.6-3.55,102,3.65,152.24.23,1.6,2.41-.77,2.36-1.73C1304.41,797.67,1307.06,746.92,1302.7,696.61Z"/>
                  <path class="cls-22" d="M1676.27,395.33c-21,15.6-40.3,34-59.93,51.3q-31.81,27.94-62.07,57.61c-37.88,37.28-73.09,78.44-98.57,125.29-.59,1.1.35,1.65,1,.59,29.06-47.31,65.45-88.5,105.14-127.13,37.27-36.27,79.58-68,115.16-105.92C1677.78,396.24,1677.66,394.3,1676.27,395.33Z"/>
                </g>
                <path class="cls-23" d="M1769,180.1c-27.81,75.76-45,158-108.25,213.26-1.81,1.57-5.42.1-4.41-2.57a101,101,0,0,0,5.46-21.93c-.63.53-1.25,1.1-1.89,1.64-.42-1.72-.8-3.46-1.13-5.2l.38-.41c-5.73-41.18-13-83.61-7.13-124.64,1.8-12.58,6.89-24.19,10.89-36.18,1.3-3.89,2.74-7.77,3.67-11.77,1.56-6.64-3.65-10.89-9.57-5.37-13.43,28-17.77,60.31-18.07,92-.18,19.55.79,39.06,2,58.57a2.4,2.4,0,0,1,1.25,2.15c.07,7.56.39,15,.56,22.23,1,12.57,1.39,25.52-2.72,37.08a71.88,71.88,0,0,1-14.6,29.67c-24.17,29.52-54.1,53.85-80.8,81-53.6,54.48-104.11,113.09-130.31,186-1,2.7-5.24,2.42-5.19-.7.63-37.27,14.13-72.78,31-105.58,8.58-16.72,17.62-33.44,29.31-48.24,2.44-3.09,5.08-6,7.74-8.9-28.41,21.89-54.83,46.36-70.15,78.74-1.1,2.34-5.15,1.24-4.91-1.33,4.23-47.43,38.9-71.25,70.73-101.76-1.59,1.15-3.22,2.25-4.8,3.42a181.85,181.85,0,0,0-32.19,27c-8.92,9.6-15.91,20.39-22,31.86,2.52-8.86,6.58-17.58,10.49-25.9a273.24,273.24,0,0,1,30.1-28.93c1.19-26.84,1.63-53.69,1.85-80.56-.3-15.23-.46-30.46-.17-45.72a314.19,314.19,0,0,1,2.56-33.31c.25-3.41.43-6.82.73-10.21,2.09-23.52,6.56-46.65,11.07-69.78a219.07,219.07,0,0,1,9.12-23.8c16.08-35.3,39.61-66.19,64.8-95.43,1.75-2.84,2.48-5.82.15-9.39-1.77-2.68-3.47-5.38-5.07-8.15-13.69,13.33-27,27-38.81,42.06a242,242,0,0,0-42.78,83c-9.13,31.22-15.14,63.21-22.93,94.78-.76,3.09-4.88,2.09-5.18-.7-2.62-23.84-5.09-48.67-3.41-72.94-.32-.62-.65-1.23-1-1.87-7.14-29.44-6.09-62.29-9.14-92.14-3.29-32.24-10.56-62.6-17.58-94.1a3.83,3.83,0,0,1,.54-2c-.76-3-1.57-6.09-2.46-9.12-.79-2.69-5.59-2.87-10.84-2.14,1.86,12.11,2.81,24.42,4.25,36.07,4.88,39.26,9.39,78,12.19,117.46,2.68,37.82,2.89,74.05-10.24,110.14-12,33.05-29.89,63.21-51.1,91.17-1.25,1.66-4.27,1.84-4.82-.63-5.72-25.65-10.22-52-12.21-78.35-28.88-88.63-34.55-188.53-12.73-279.24-.47-.21-.71-.75-.45-1.78.71-2.73,1.45-5.33,2.28-7.92a79.29,79.29,0,0,0-14.75,3.16c-34.52,138.91-38.94,284.42-.58,423.41.79,2.88-3.34,4.66-4.83,2-24-42.27-40.4-89.25-48.9-137.08-4.8-27-6.82-54-7.85-81-.77,11.7-1.2,23.43-1.14,35.19q-1.65-5.49-3.28-11c-11.26-61.3-24.71-121.93-43.37-181.55a97.17,97.17,0,0,0-5.9-10.74c-3-4.4-13.77,0-17.53.93s-7.6,1.94-11.33,3c29.75,103.15,41.36,211.58,26.71,318.3-.32,2.38-3.78,2.43-4.82.63-.92-1.58-1.74-3.21-2.58-4.82-.71,1.09-1.74,2-2.36.93-26.28-46.43-49.37-94.5-82-137-16.31-21.25-34.3-41.52-51.46-62.38-14-19.92-28.28-39.62-41.15-60.2-7.62-12.18-14.47-17.18-28.63-10.72-7.41,3.39-13.34,9.75-17.29,16.7-1.89,3.31-.72,6.55,1.22,9.41,0,.19,0,.35.08.54a1.64,1.64,0,0,1-.17.84c28.47,39.47,65.36,72.19,92.65,112.51.94,1.38,1.76,2.85,2.68,4.23a137,137,0,0,1,16.32,27.34c5.77,15.09,11.2,30.31,16.1,45.69a76.19,76.19,0,0,1,6.88-24.88,2.64,2.64,0,0,1,3.61-1c35.33,25.84,54.8,67,68.45,107.46,12.53,37.2,20.55,75.66,31.51,113.29-.46-34.17-5.19-68.17-5.43-102.38,0-2.71,3.53-3.48,4.92-1.33,22.53,34.85,35.59,74.36,43.84,114.84,22,61.07,23.27,127.42,27.59,191.73,5.59,83,9.36,166,10.48,249.24h46.61c-7.92-56.45-5.75-113.45-9.8-170.23-4-56.5-13.92-113.18-5.72-169.76-1.11-28-1.84-55.9-1.39-83.88a2.65,2.65,0,0,1,5.18-.71c21.45,73.82,24.91,150.55,30.78,226.72,5,65.69,10.4,134-8.83,197.86H1450c-2-59.43-5.22-118.8-6.75-178.25-1-36.5-1.51-73.26-.45-109.93a97,97,0,0,1-8.74,13.14c-9.78,15.77-22.5,30.35-38.07,38.85a75.87,75.87,0,0,1-26.88.91,55.66,55.66,0,0,0,15.21-3c12.91-4.55,23.27-12.43,32.13-22a38,38,0,0,1-3.7,1.62,67.64,67.64,0,0,0,7-5.39c9.83-11.48,17.85-24.89,25.67-37.64,0-.06.08-.07.12-.12a183.05,183.05,0,0,0,8.85-27c3.51-11.2,6.48-21.89,9.53-30.29,18.55-51.14,58.17-91.71,95.91-129.36,43.77-43.68,87.88-87.4,127.13-135.28,8.71-10.62,16.94-21.44,24.88-32.39,10.54-20.82,23.57-40.21,31.72-62.36,9.62-26.09,15.22-52.82,21.73-79.78,2.93-12.15,5.94-24.48,10.6-36.1a12.06,12.06,0,0,0,1.06-5.13C1775.61,183.47,1772.56,181.35,1769,180.1ZM1361,636c-.33,3.42-4.41,3.35-4.81,0-4.58-37.68-1.94-75.43,3-112.84,3.18-41.29,11-85.43,37-116.81,1.79-2.16,4.36.19,4,2.56C1389.51,485.1,1368.55,559.21,1361,636Z"/>
                <path class="cls-24" d="M1145,1026h13.57c.8-45.58,1-91.15,0-136.65-2.84-139.6-10.81-279.31-42.64-415.56-.46-2-2.93,1-2.85,2.1,10.05,140.37,29.2,280,33.1,420.75C1147.37,939.73,1146.51,982.86,1145,1026Z"/>
                <path class="cls-24" d="M1391.28,274c-11.23,42.36-39.42,72-58,110.22-1.07,2.21-.54,7.11,2.64,3.9,29.69-29.89,51.42-73.26,57.66-114.79C1394,271,1391.61,272.7,1391.28,274Z"/>
                <path class="cls-24" d="M1257.27,204.94c-15.73,52.24-15.41,107.58-1.38,160.28.44,1.67,2.37-1,2.23-2-6.8-53.42-10.45-105.71,2.32-158.66C1261.12,201.71,1257.81,203.15,1257.27,204.94Z"/>
                <path class="cls-24" d="M1562.19,460c-45.42,28.37-109.07,49.1-134.1,100.52-1,2.17.14,4.43,2.18,2.07,37.74-43.59,87-66.38,132.12-100.74C1563,461.36,1563.36,459.23,1562.19,460Z"/>
                <g id="Layer_1-2" data-name="Layer 1-2">
                  <g>
                    <path class="cls-25" d="M1343.1,515.22c-20.37-35.27-66.07-77-109.51-58.85a5.92,5.92,0,0,0-2.46,3.9c-52.72,14.42-88.17,55.65-99.31,111.89-12.73,64.25,9,146.65,61.43,188.31,82.38,65.43,150.34-54.54,165.27-120.64C1367.89,598.33,1364.57,552.4,1343.1,515.22ZM1198.57,761c-50.22-42-71.08-114.31-58.7-178,1.22-14.54,4.67-28.58,12.92-40.66,1-1.46,3.82-1.11,3.64,1-3.47,37.94-6.82,76.32,1,114A225.5,225.5,0,0,0,1177.28,714c7.75,15.11,17.21,29.26,24.34,44.69a2,2,0,0,1-3,2.36Z"/>
                    <g>
                      <path class="cls-26" d="M1327,539c-21.56-61.38-93-89-139.08-36a2.52,2.52,0,0,0-.52,1.52c-31.9,37.92-37.49,93.36-29.37,141.09,9.1,53.54,60.23,140,125.3,99,26.23-16.53,39.12-54.55,47.21-82.57A202.9,202.9,0,0,0,1327,539Z"/>
                      <path class="cls-27" d="M1328,652.24c-6.77,33.42-23.07,79-57.07,92.9-29.94,12.24-60.13-8.53-78.12-30.83-15.69-19.45-24.58-43.8-29.86-67.94-10.62-48.77-3.6-108.48,31.51-146.25,46.91-41.75,107.15-13.06,128.49,42.54C1336.13,577.05,1335.18,616.7,1328,652.24Z"/>
                      <path class="cls-28" d="M1275.91,488.27c-22.57,25.17-42.3,61.12-49.15,74.92-21.4,43.16-26.57,94.42-17.07,141.49,2.14,10.59,4.67,21.6,7.82,32.4,15.87,10.46,34.68,15.71,53.4,8.06,34-13.89,50.3-59.48,57.07-92.9,7.2-35.54,8.15-75.19-5-109.58C1313.43,517.91,1296.21,498.52,1275.91,488.27Z"/>
                      <path class="cls-26" d="M1214.69,770.93c-76.2-46-92.06-162.82-57.63-239.58.79-1.76-1.14-2-1.86-.56-36.5,74.05-25.18,203.14,58.15,242.44C1214.29,773.67,1215.58,771.47,1214.69,770.93Z"/>
                      <path class="cls-26" d="M1326.09,512.48c-12.17-27.92-37.95-53.44-69.65-54.45-.83,0-1.83,2-.83,2.12,33.13,3.85,51.35,29,68.79,54.42C1325.11,515.6,1326.44,513.3,1326.09,512.48Z"/>
                      <path class="cls-26" d="M1347.6,615.47c-.87,54.94-22.33,123.62-73.22,152.11-.51.3-1.37,2.31-.23,2,25.61-7.19,42-35.94,53.46-57.82a200.09,200.09,0,0,0,22.61-97.82C1350.17,611.71,1347.62,614.18,1347.6,615.47Z"/>
                    </g>
                  </g>
                </g>
              </g>
              <path class="cls-29" d="M1748,99.68s81.13-5.19,118.5,26.17-30.37,61.11-80.75,38.78c0,0,19.41,36.91-41.3,25.91,0,0,46.81,38.3,15.26,56-31.22,17.79-72.19-21.43-73.66-38.83,0,0,15.18,49.64-28.59,53.61s-49.79-54.14-49.79-54.14,23.6,66-27.65,75.49c-51.43,9.24-71.47-60.2-71.47-60.2s-.55,18.45-24.76,15c0,0-9.36,38.38-51.12,31.68s-53.61-73.42-36.89-87.59c0,0-18.92,30.23-52.38,16.5-33.24-13.83,1.34-34.59,1.34-34.59s-34.08,24-61-16.43c0,0,18.35,48.23-13,53.95-31.24,5.57-51.17-19.69-51.17-19.69s1.66,49.53-32.44,47.25c-33.88-2.34-64-36-64-36s9.2,22.66-5.88,24c-15.26,1.3-40.21-16.58-40.21-16.58s45.46,70,9.43,82c-35.87,12.15-46.64-40.6-46.64-40.6s-22.78,19.37-53.79,2.45c0,0,50.11,34.58,30.18,51.13-19.78,16.52-66.28-29.28-77.68-70.11,0,0-8.82,35.24-48.31,25.54-39.51-9.92-37.33-48.81-37.33-48.81S849,228.4,819.23,229c-29.67.4-29.93-22.95-29.93-22.95s4.23,45.27-59.47,23.21c0,0,13.34,32.56-41.22,26.11,0,0,89.72,23.48,66.48,55.58-23.44,32.17-78.52-42.33-78.52-42.33s27,49.52-2.62,62.28S613,282.23,623.59,261.11c0,0-1.07,32-40.41,19.67,0,0,9.65,22.67-10,31.5-19.84,8.72-41.92-6.61-53.86-30.55,0,0-28.81,15.9-44.56-7.07,0,0-6.61,38-43.72,29.53-36.82-8.36-36.63-51.66-36.63-51.66s-13.05,5.78-30.22-11.44c-16.86-17.34.18-4.22.18-4.22s.79,38.8-45,24.29c0,0,49.57,26.44,32.76,38.68-16.6,12.13-71.89-15.92-71.89-15.92s11.61,30.27-19.13,29.93c-30.57-.3-50.7-22.12-50.7-22.12s-22.7,39.41-94.26,14S74.6,212.94,74.6,212.94s30.48,45.91,66.27,38.16,12.31-84.86,12.31-84.86,39.09,92.07,63.64,87,2.05-48.71,2.05-48.71,32.85,62.55,69.14,45.09-56.89-71.49-56.89-71.49,119,56.57,118.83,20.91c-.3-35.87-25.07-72.72-25.07-72.72s67.73,94.69,97,87.64S456,173.66,456,173.66s36.2,64.75,59.81,39.19C539.3,187,529.88,138,529.88,138s28.68,55.45,14.78,79.64c-14.13,24.14,121.49,14.41,80.68-108.09,0,0,20.93,27.26,17.42,79-3.81,51.81,123.49,20.09,33.81-79.4,0,0,44.94,64.43,72.19,58.37S738.64,91.1,738.64,91.1,772.11,173.2,822,164c49.79-9,36.45-100.68,36.45-100.68s15.24,99.35,62,71.66c47-27.66,37.46-72.47,37.46-72.47s23.38,55.48-33.93,92.19c-56.84,37,15.32,48.54,29.17,25.53s13.22-41.47,13.22-41.47,14.28,27.84,16.84,53.92,49.69,11.58,29.29-23.11-26.8-43.24-26.8-43.24,73.41,70.77,91.37,63.6c18.12-7-14-74-14-74s37,78.1,101.13,62.33c64.48-16,3.19-75.83,3.19-75.83s81,48,80.63,18.79c-.42-29.43-28.1-62.33-28.1-62.33s70.88,81,107.11,64.57,32.17-56.65,32.17-56.65,23.48,39.91-2.77,65.79c-26,25.76,48.24,19.19,59.91-5.12s2.18-51.89,2.18-51.89,34.58,47.51,17.33,76.25c-17.5,28.88,35.1,49.16,52.87,10,0,0,41,54.37,73.59,29.2,32.88-25.25-12.94-97.21-12.94-97.21S1608.71,199,1644,178.14c35.31-20.68-13.06-86.16-13.06-86.16s65.23,91.5,104.59,76.85-18.88-54.72-18.88-54.72S1799.64,138.23,1748,99.68Z"/>
              <g>
                <g>
                  <path class="cls-30" d="M10.31,165.71C-1.83,146.54,30.16,143,30.16,143S-6.19,132.19-2.07,111.88C1.78,92.34,68.48,95.37,73.88,95.57c-5-.19-65.24-4.38-57.33-45.33C24.77,7.21,112.38,35,112.38,35S76,16.63,88.28-5.45c12.28-21.92,43.65,2.52,43.65,2.52-11.82-27.74,38.16-27.82,38.16-27.82s-12.65-5,1.09-25.94,68.33,12.58,68.33,12.58c7.59-7.7,13.61-7.77,17.17-6.18-6-5.1-16.22-16.29-15.41-35.61,1.15-27.44,70.12-7.58,70.12-7.58s-8.68-23.57,23.3-24.76c32-1,26.45,34.81,26.45,34.81s10.15-21.15,27-14.32c17.11,6.69,12,26.65,12,26.65,15.12-3.45,32.58,17.74,32.58,17.74s-22.77-46.17,11.42-45.57C478.58-98.47,497-67.15,497-67.15,497.14-75.72,527.2-74,527.2-74s-20.07-34.39,12.24-32.55c32,1.73,41.69,28.45,41.69,28.45-.75-3.73-.13-6.51,1.89-8.51,5.43-6.23,19.49-6.29,19.49-6.29s-45-37.18,1.89-50.53c47-13.09,51,16,51,16,5.69-6.84,14.05-2.07,14.05-2.07s-.63-36.13,35.44-22.46c35.89,13.57,20.22,44.44,20.22,44.44,15.92-2,34.16,13.43,34.16,13.43s-24.88-44.72,14.15-49.73,73.47,46.07,73.47,46.07-1.22-20.28,33.45-22.6S917.66-85,917.66-85s22.69-31.92,47.49-30.54c24.64,1.45,19.34,24.17,19.34,24.17s9.91-31.21,36.73-28.31c26.77,3.06,28,30.53,28,30.53,32.39-6.8,51,14.48,51,14.48s-42.73-64.49,2.32-62,63.24,31.08,63.24,31.08c7-18.44,41.37-4.26,41.37-4.26s-29.61-67.31,2.81-72c32.58-4.59,56.25,27,56.25,27,28.75-24.35,67.44,4.6,67.44,4.6s-3.09-27.65,22.94-32.63,47.2,28.65,47.2,28.65-.17-48.31,42.86-45.18,51.14,64.19,51.14,64.19,10.71-51.42,39-34.53c28.72,16.73,18.06,35.67,18.06,35.67s31.73-39.29,49.22-20.25c17.78,19-8.13,47.94-8.13,47.94,34.11,4.78,33.26,24.94,33.26,24.94s32.34-51.63,64.78-30.35c32.73,21.39-3.5,86.42-3.5,86.42s49-40.41,76.89-12.19S1752,1.28,1752,1.28c42.53,12.47,4.59,42.83,4.59,42.83s58.1-19,62.23,12.92C1822.6,89.12,1748,99.68,1748,99.68s81.13-5.19,118.5,26.17-30.37,61.11-80.75,38.78c0,0,19.41,36.91-41.3,25.91,0,0,46.81,38.3,15.26,56-28.77,16.35-65.89-15.65-72.45-34.19,2.46,12.32,5.87,45.73-29.8,49-27.29,2.42-39.81-19-45.45-35.56,2.94,20.39,1.37,50.62-32,56.91-51.43,9.24-71.47-60.2-71.47-60.2s-.55,18.45-24.76,15c0,0-9.36,38.38-51.12,31.68-38.32-6.19-51.33-62.8-40.51-83-6.92,7.88-23.9,22.27-48.76,11.91-29.48-12.34-5.54-30.09.21-33.84-6.15,3.64-35.79,19-59.92-17.18,0,0,18.35,48.23-13,53.95-31.24,5.57-51.17-19.69-51.17-19.69s1.66,49.53-32.44,47.25c-33.88-2.34-64-36-64-36s9.2,22.66-5.88,24c-15.26,1.3-40.21-16.58-40.21-16.58s45.46,70,9.43,82c-35.87,12.15-46.64-40.6-46.64-40.6s-22.78,19.37-53.79,2.45c0,0,50.11,34.58,30.18,51.13-19.78,16.52-66.28-29.28-77.68-70.11,0,0-8.82,35.24-48.31,25.54-39.51-9.92-37.33-48.81-37.33-48.81S849,228.4,819.23,229c-26.94.41-29.68-19.17-30-22.43.33,5,.12,43.31-59.45,22.69,0,0,13.34,32.56-41.22,26.11,0,0,89.72,23.48,66.48,55.58-23.44,32.17-78.52-42.33-78.52-42.33s27,49.52-2.62,62.28c-26.17,11.29-53.78-35.88-52.48-61.3-3.32,8.56-12.77,19.24-38.29,11.21,0,0,9.65,22.67-10,31.5-19.84,8.72-41.92-6.61-53.86-30.55,0,0-28.81,15.9-44.56-7.07,0,0-6.61,38-43.72,29.53-36.82-8.36-36.63-51.66-36.63-51.66s-13.05,5.78-30.22-11.44v-.19c-1.39,9.45-8.21,32-44.84,20.26,0,0,49.57,26.44,32.76,38.68-16.6,12.13-71.89-15.92-71.89-15.92s11.61,30.27-19.13,29.93c-30.57-.3-50.7-22.12-50.7-22.12s-22.7,39.41-94.26,14S74.6,212.94,74.6,212.94s-20.29,21.33-34.47,14,4.45-31.55,4.45-31.55-41.83,36-77.89,11.45C-69.59,182.28,10.31,165.71,10.31,165.71Z"/>
                  <g>
                    <path class="cls-31" d="M1624-58s17.72-38.71,45.2-23.44c27.27,15.2,12.62,74.35,5.23,78.29s42.71-37.46,68.84-20.6C1769.56-7,1694,8.76,1694,8.76s58.53,3.39,52.94,21.81S1646.2,40.81,1646.2,40.81s64.87,13.12,61.11,29.47c-4.15,16.41-45.34,2.44-45.34,2.44s50.1,34.61,27.85,39.24c-22,4.47-70.52-52.43-70.52-52.43s0,29.55-27.19,20.33c0,0,40,33,14.06,40.28-26.3,7.12-72.91-54-72.91-54s-7.91,24.67-29.2,18.43c0,0,17.16,33.6-1.57,37.47-18.43,4.11-49.17-33.71-58.43-65.39,0,0-7,11.2-24.84,1.51,0,0-11.86,15.92-27.76,10.37-15.61-5.57,11.85-47.35,11.85-47.35s-15.67,15-47.62,4.56S1373,0,1373,0s-11.56,2-26.86-11,34.48-16.66,34.48-16.66-63.16-12.42-67.78-32.83S1365-75.6,1365-75.6s-71.92-23.32-58.43-39.19c13.56-16,71,3.78,71,3.78s-18.9-35.66,1.46-34.58c20.16,1.2,30.31,42.29,30.31,42.29s2.94-41.17,31.68-38.64c29.12,2.31,43.3,62.23,43.3,62.23s-6.57-36.45,13.89-35.24,19,17.62,19,17.62,21.37-34.88,41-29.31c20.1,5.43,3.61,34.82,3.61,34.82s14.58-13,26.92-1.42c12.65,11.57-20.77,36.56-20.77,36.56S1602.38-77.28,1624-58Z"/>
                    <g>
                      <path class="cls-31" d="M1029.3-34.79s4.06-45.66,41.2-30.08c37.36,15.47-12,71.22-12,71.22S1078.69-15.34,1109.91-7s-28,28.83-28,28.83S1203.5,38.37,1209.24,67.9c5.7,29.73-113.86-6.48-113.86-6.48s75.91,39.12,64.29,67.59c-11.86,28.65-97.36-28.36-134-71.53,0,0,43.37,53.42,13.87,65.86S962,51.84,955.29,33.1c0,0-5.91,45.07-33.94,31.08C893.67,50.07,885.84,22,885.84,22s8,38-9.71,39.48c-17.72,1.75-23.52-32.21-23.52-32.21s-6.25,32.22-32.14,36.11c-26.12,3.87-16.56-30.21-16.56-30.21s-56.22,32.72-99.1,16.59c-43.16-16,90.58-48.44,90.58-48.44S753.46,3.09,733.71-25c-20-28.22,95.83-1.14,95.83-1.14s-46.2-28.89-31-44.07S869.72-33.7,869.72-33.7s-3.67-58.61,27.51-51.37C928-77.9,927-25,927-25s11.39-66.08,48.14-56.13c36.74,10.11,17,49,17,49S1009-54.72,1029.3-34.79Z"/>
                      <path class="cls-32" d="M1030.36-13.63s6.9-43.51,29.69-41.82S1068.12-5,1048.12.35C1027.94,5.69,1030.36-13.63,1030.36-13.63Z"/>
                      <path class="cls-32" d="M1094,36.48s96.75,17.68,88.36,29.82C1174.06,78.7,1058.25,42.45,1094,36.48Z"/>
                      <path class="cls-32" d="M1079.81,73.14s-4-7.22,12.6.75,66.8,32.87,40.13,40.66S1083.29,89.13,1079.81,73.14Z"/>
                      <path class="cls-32" d="M972.16,29.54s14.83-8.92,34.14,9.69c19.35,18.25,23.32,46.86,9.63,48.16C1002,88.82,960.7,31.78,972.16,29.54Z"/>
                    </g>
                    <g>
                      <path class="cls-32" d="M1623.1-23.19s8.41-37.41,27-27-4,40.34-15.18,50.34c0,0,42.94-10.28,48.87,1.78,6.11,11.9-31.42,9.83-31.42,9.83s42.7,3.78,30.72,13.89S1617,22,1617,22s45.45,27.76,28.76,33.19-44.07-31.94-44.07-31.94,12.87,26.57-7.9,26.71c-21,.4-14-32.29-14-32.29s-26.28,7.15-38.68-2.9C1528.54,4.72,1580.73-4,1580.73-4s-37.14-15.68-14.28-27.32c23.09-11.47,46.69,25.76,46.69,25.76S1601-35.24,1623.1-23.19Z"/>
                      <path class="cls-32" d="M1493.89,42.93S1547,12,1544.62,30C1542.49,47.84,1473.21,76.3,1493.89,42.93Z"/>
                      <path class="cls-32" d="M1465.46,1.41s25.39-2.75,29.87,7.17c4.88,10-42,14.45-62.81,9.64C1411.91,13.51,1446.69.92,1465.46,1.41Z"/>
                    </g>
                    <g>
                      <path class="cls-31" d="M402.43-22.15s-16.12-42.06-57.68-51.49C303-83,343.1-34.31,343.1-34.31s-47.87-15.58-97,3.25c0,0-30-27.34-65.91-11.39,0,0-16.84,19.65,30.29,51.66,0,0-49.44-15.94-51.18,5.67s40.35,21.78,40.35,21.78-56.55-.29-42.3,27.77S202.6,83.29,202.6,83.29s-32.47,18.86-21.53,43.26C191.82,151.08,245.58,101,245.58,101s7.75,58.45,54.92,69.23-8.08-107.65-8.08-107.65,68,112.15,125.63,89.94c57.32-22.22-46.33-94-46.33-94s39.53,21.6,83.55,11.16S411.5,35.26,411.5,35.26,514,33.84,486.15-5,402.43-22.15,402.43-22.15Z"/>
                      <path class="cls-32" d="M380.68-6.62s57.1-12.47,70.86,3.94c13.81,16.58-28.67,29.3-41.25,25.23C397.45,18.71,333.31,6.3,380.68-6.62Z"/>
                      <path class="cls-32" d="M345.38,28.35s64.86,7.89,61.52,24.58S308.74,21.07,345.38,28.35Z"/>
                      <path class="cls-32" d="M311.86,61.53s8.49-13.21,34.08-8.09c25.78,5.05,75.69,94.08,29.16,75.81C328.91,110.86,304.83,67.26,311.86,61.53Z"/>
                      <path class="cls-32" d="M233.12,43.11s58.61-9.54,50.21,3.38c-8.64,12.78-55.83,20.56-65.58,21.32S199.77,46.41,233.12,43.11Z"/>
                    </g>
                  </g>
                </g>
                <path class="cls-33" d="M1748,99.68s81.13-5.19,118.5,26.17-30.37,61.11-80.75,38.78c0,0,19.41,36.91-41.3,25.91,0,0,46.81,38.3,15.26,56-31.22,17.79-72.19-21.43-73.66-38.83,0,0,15.18,49.64-28.59,53.61s-49.79-54.14-49.79-54.14,23.6,66-27.65,75.49c-51.43,9.24-71.47-60.2-71.47-60.2s-.55,18.45-24.76,15c0,0-9.36,38.38-51.12,31.68s-53.61-73.42-36.89-87.59c0,0-18.92,30.23-52.38,16.5-33.24-13.83,1.34-34.59,1.34-34.59s-34.08,24-61-16.43c0,0,18.35,48.23-13,53.95-31.24,5.57-51.17-19.69-51.17-19.69s1.66,49.53-32.44,47.25c-33.88-2.34-64-36-64-36s9.2,22.66-5.88,24c-15.26,1.3-40.21-16.58-40.21-16.58s45.46,70,9.43,82c-35.87,12.15-46.64-40.6-46.64-40.6s-22.78,19.37-53.79,2.45c0,0,50.11,34.58,30.18,51.13-19.78,16.52-66.28-29.28-77.68-70.11,0,0-8.82,35.24-48.31,25.54-39.51-9.92-37.33-48.81-37.33-48.81S849,228.4,819.23,229c-29.67.4-29.93-22.95-29.93-22.95s4.23,45.27-59.47,23.21c0,0,13.34,32.56-41.22,26.11,0,0,89.72,23.48,66.48,55.58-23.44,32.17-78.52-42.33-78.52-42.33s27,49.52-2.62,62.28S613,282.23,623.59,261.11c0,0-1.07,32-40.41,19.67,0,0,9.65,22.67-10,31.5-19.84,8.72-41.92-6.61-53.86-30.55,0,0-28.81,15.9-44.56-7.07,0,0-6.61,38-43.72,29.53-36.82-8.36-36.63-51.66-36.63-51.66s-13.05,5.78-30.22-11.44c-16.86-17.34.18-4.22.18-4.22s.79,38.8-45,24.29c0,0,49.57,26.44,32.76,38.68-16.6,12.13-71.89-15.92-71.89-15.92s11.61,30.27-19.13,29.93c-30.57-.3-50.7-22.12-50.7-22.12s-22.7,39.41-94.26,14S74.6,212.94,74.6,212.94s30.48,45.91,66.27,38.16,12.31-84.86,12.31-84.86,39.09,92.07,63.64,87,2.05-48.71,2.05-48.71,32.85,62.55,69.14,45.09-56.89-71.49-56.89-71.49,119,56.57,118.83,20.91c-.3-35.87-25.07-72.72-25.07-72.72s67.73,94.69,97,87.64S456,173.66,456,173.66s36.2,64.75,59.81,39.19C539.3,187,529.88,138,529.88,138s28.68,55.45,14.78,79.64c-14.13,24.14,121.49,14.41,80.68-108.09,0,0,20.93,27.26,17.42,79-3.81,51.81,123.49,20.09,33.81-79.4,0,0,44.94,64.43,72.19,58.37S738.64,91.1,738.64,91.1,772.11,173.2,822,164c49.79-9,36.45-100.68,36.45-100.68s15.24,99.35,62,71.66c47-27.66,37.46-72.47,37.46-72.47s23.38,55.48-33.93,92.19c-56.84,37,15.32,48.54,29.17,25.53s13.22-41.47,13.22-41.47,14.28,27.84,16.84,53.92,49.69,11.58,29.29-23.11-26.8-43.24-26.8-43.24,73.41,70.77,91.37,63.6c18.12-7-14-74-14-74s37,78.1,101.13,62.33c64.48-16,3.19-75.83,3.19-75.83s81,48,80.63,18.79c-.42-29.43-28.1-62.33-28.1-62.33s70.88,81,107.11,64.57,32.17-56.65,32.17-56.65,23.48,39.91-2.77,65.79c-26,25.76,48.24,19.19,59.91-5.12s2.18-51.89,2.18-51.89,34.58,47.51,17.33,76.25c-17.5,28.88,35.1,49.16,52.87,10,0,0,41,54.37,73.59,29.2,32.88-25.25-12.94-97.21-12.94-97.21S1608.71,199,1644,178.14c35.31-20.68-13.06-86.16-13.06-86.16s65.23,91.5,104.59,76.85-18.88-54.72-18.88-54.72S1799.64,138.23,1748,99.68Z"/>
              </g>
            </g>
          </g>
        </g>
        <g id="SC_05">
          <g class="cls-34">
            <g class="cls-35">
              <path class="cls-36" d="M1304.49,798.41c.16-82.71,1.25-165.42,1.79-248.13.54-82.12-.63-164.27.89-246.38.74-40.07,2.28-80.14,5.37-120.1,3.91-50.64,10.92-100.89,19.26-151L1338-4-340,3l0,925.19,1645.38-15.26C1305.94,874.78,1304.42,836.55,1304.49,798.41Z"/>
              <g>
                <path class="cls-37" d="M1306.28,550.28c.32-47.8,0-95.62.07-143.43-68.14-7.34-124.42-12.12-136.72-9.48-37.49,8-156.73,40.85-166.4,43.4-6.83,1.81-94.75-15.5-145.8-25.82a164.21,164.21,0,0,0-72.34,1.61L302.8,536l-64.56-21.68a92.73,92.73,0,0,0-49.34-2.87L74.48,536C34.06,505-59.66,483.3-100,475.07c-12.15-2.48-24.55-.28-35.81,6.21-306.13,176.45-511.43,105-511.43,105V772.7l1952-28.65C1305.11,679.46,1305.86,614.87,1306.28,550.28Z"/>
                <path class="cls-38" d="M1304.49,798.41c.1-51.22.56-102.44,1-153.67-271.34-98.18-603.15-78.41-945.08,26.41C-44.18,795.19-355.91,780.3-355.91,780.3l4.72,69.46H1305C1304.75,832.64,1304.46,815.52,1304.49,798.41Z"/>
                <path class="cls-39" d="M1304.49,798.41q.09-45.51.48-91C939.13,704.26,945,805,406.17,825.19c-654,38.77-775.88-98.68-775.88-98.68V927.4H1305.13C1306.36,884.44,1304.41,841.38,1304.49,798.41Z"/>
              </g>
              <g>
                <path class="cls-40" d="M1046.49,424.54c-7.43-6.49-14.88-13-22.27-19.52-70.6,34.64-120.83,56.56-93,33.91,17.34-14.14,33.59-42.7,48.22-77.66-11.83-13.26-22.84-27.14-33.84-41.64A161.21,161.21,0,0,1,931.49,298c-1.35-2.56-2.7-5.14-4-7.75C862.83,428,748,585.71,555.8,611.66c-265.64,35.87-771,63.13-954.82,125.48.76,9.45,1.17,18.93,1.34,28.41.89,49.61-4.86,99.27-1.62,148.86q.44,6.65.77,13.31c3.85-.66,7.7-1.31,11.57-1.91,17.67-2.74,35.71-6.25,53.69-6.51,7-.1,13.95-.48,20.92-.81,20-1,40.17-1.87,60.12.09,8.31.81,16.64,1.71,24.93,2.86a195.39,195.39,0,0,1,12.66-16.88c61.18-70.17,819.87-172.07,882.49-199.75S857.12,536.9,910,518.29c19.7-6.93,81.59-40.82,151.5-80.63C1056.53,433.23,1051.48,428.89,1046.49,424.54Z"/>
                <path class="cls-41" d="M931.49,298q-1.83-3.45-3.61-7c-34.26,64.79-74.55,140.46-88.46,164.47-25.87,44.61-143,194.24-352.34,216.41S71.87,683.55-72.69,693.82s-303.68,53.29-141.95,81.27c0,0,299.38-43.41,573.26-56.67S745.19,623,765.52,581.86,893.09,455.29,914.29,384.41c6.42-21.49,15.2-48,24.31-74.56C936.05,306,933.66,302.05,931.49,298Z"/>
              </g>
              <path class="cls-42" d="M176.39,668.74c3.34.41,10.68,1.1,4.43.42l-6.62-.69Z"/>
              <g class="cls-43">
                <path class="cls-44" d="M180.07,666.82c-.06,0-.93,1.17-1.34.55s.31-1.47.85-1.82S180.86,666.15,180.07,666.82Z"/>
              </g>
              <g>
                <path class="cls-40" d="M204.5,567.5c0,4,4.44,6.38,3,10s3.53,4.73-.31,9.3.17,26.93,3.12,33.52,3.24,9.62-10.42,15.37-27,13.81-34.63,18.65-15.5,7-36.1,11.74-54.72,20-68.83,25.56a74.72,74.72,0,0,1-37,4.4C13.11,694.83-97,707.09-108,708.77s-49.3,5.38-49.3,5.38c-11.68,2.77-37.28,1.35-37.28,1.35A93.31,93.31,0,0,0-213,716.72q.3-.62.63-1.23c-9.51-.55-8.91-2,2.93-4.81,3.36-.79,4.81-3.44,2-3.29-42.18,2.15-8.39-15.93,11.65-20.29a32.22,32.22,0,0,1,7.21-1.54c5.81-.31,30.76-1,42.37-.2S-110.49,677-97.76,673,40.49,656.88,50.76,655.22s47.35-10.37,49.39-10.42,8.57-.36,17.88-5.41,34.8-14.59,41.67-16.53,6.92-5.18,7.42-13.63,1.64-14.05,6.91-21.88,4.3-10.87-1.09-14.7,4.41-11.07,6.56-16.15,1.56-8,9-22,12.59-23.7,31.59-34,27.21-11.19,32.37-13.27,27.2-11.2,33.07-14,10.7-20.74,10.7-20.74-7.28-16-8.92-19.33-7.15-20-.58-24.24,5.58-5.5,8.36-7.72,4.08-17.15.76-22.1-1.2-9.32,4.7-13.94,5.64-9.09,9.72-7.39-3.61,9.78-5.36,13.25,1.13,10.72,3.45,15.17-6.07,31.73-6.1,33.88-4.26,7.64,3.89,11.05,8.72,8.43,10.33,13.25,3,4.06,6.49.39,28.66-16.25,31.45-19.18-.14-10.59-2.13-13.78.49-7.73,10.17-13.33,9.33-5.77,9.05-8.82,1.09-3.43,4.53-4.94,1.66,1.94,3,3.34.31,2.33-.43,4.86-16.61,11.5-18,14.76,3.15,14.3,6.86,16.9-3.87,5.66-9.76,9.92S338.7,444.05,329,450s-16.35,15.28-18.2,22.32-10.76,9-17.32,13.3-20,7.61-31.68,12.18-19.3,9.4-25.57,14.93-18.51,21.41-20.59,24S202.5,561.5,204.5,567.5"/>
                <path class="cls-45" d="M-33.4,675.23s9.64-2.08,44.41-.53,45.88,4.89,45,3.53-24.31-7.06-38.63-8.2-24-.51-14.46.65,11.21,1.33,8.42,1.45-33.77-2.3-53-.23-15.61,2.83-10.1,2.8S-54,676.81-33.4,675.23Z"/>
                <path class="cls-45" d="M9.79,664.93s9.64-2.09,44.41-.54,45.88,4.89,45,3.53-24.31-7-38.63-8.2-24-.51-14.46.66,11.21,1.33,8.42,1.45-33.77-2.3-53-.23-15.61,2.83-10.1,2.79S-10.77,666.51,9.79,664.93Z"/>
                <path class="cls-45" d="M195.83,531.82s5.91-7,33.8-25.45,38.85-22.1,37.21-22.66S243,492,231.18,499.17s-18.85,13.15-10.66,8.65,9.59-5.29,7.53-3.63-27.66,17.27-40.94,29.69-10,11-5.76,7.84S181.15,544.62,195.83,531.82Z"/>
                <path class="cls-45" d="M173.33,618.08a29.83,29.83,0,0,1,6.78-3.29c4-1.35-1.57,1.44-2.36,2.62s-6.63,3.53-8.74,6.12-4.19,5.86-6.18,6.86-.5-.95.38-2.2-2.44,3.59-16.67,10.36-18.46,7.7-21.12,8.34-13.46,4.16-18.74,5.22-8.31,1.68-7.16.93,3.79-1.87,9.16-3.07,11.76-2.5,13.79-3.05S145,638.58,149.66,636s10-6.21,13-9.43A52.36,52.36,0,0,1,173.33,618.08Z"/>
              </g>
              <g>
                <path class="cls-46" d="M339,727s-130.58.47-120.55,71.1c0,0,19.73,23.58,73.46-17.94,0,0-35.21,88.41,57.4-3.47,0,0-6.26,58.5,55.44,34.3,0,0,69.07,35.41,33.89-31.88,0,0,58.44,23,43.77-20.49,0,0,55.31-25.33-17-44.4S339,727,339,727Z"/>
                <path class="cls-47" d="M344.1,725.19s-102.4.37-94.53,55.75c0,0,15.47,18.5,57.61-14.07,0,0-27.62,69.34,45-2.72,0,0-4.91,45.87,43.47,26.9,0,0,54.17,27.77,26.58-25,0,0,45.83,18,34.33-16.07,0,0,43.37-19.86-13.36-34.81S344.1,725.19,344.1,725.19Z"/>
              </g>
              <path class="cls-48" d="M1148,45.86S697.17-443.54,723.08,13.5c0,0-166,39-34,182,21.43-49.08-78.73,203,168,220,0-51.23,3.16,175,169.21,77-3.21,39,142.79,64,110.15-66.12-26.36,129.08,176.64,149.08,150.23-6,0,0,222.48,163.32,121.87-158.15,0,0,137.41-216-71.59-192.68,0,0-3.09-309.12-165.4-73.61Z"/>
              <path class="cls-49" d="M1233.9-14.55s-117.42-380-248.19-53.7C814.08-54.5,678.08-11.5,814.88,68.62c-76.8-35.12-186.59,197.39,58,177.23C788.08,255.5,792.08,435.5,929.9,376c-14.82,51.53,54,130.42,102.75-5.07-18.57,81.6,67.43,137.6,112.53,51.42,0,0,110.2,195.46,141.55-64.52,0,0,172-98.88,10.48-160,0,0,167.07-341.34-29.6-238.18Z"/>
              <path class="cls-50" d="M1233.86,36.44s-226.36-367.88-204.56-70c0,0-307.28,39.89-79.4,168.18,0,0-95.3,172.15,110.32,113.7,0,0-22.57,207.86,92.08,78.07,0,0,59.93,88.14,76.55-42.18,0,0,103.91,234.77,105.08-2.7,0,0,157,108.15,84-102,0,0,94.42-139.59-51.65-126.06,0,0-4.64-201.34-116.33-49.26Z"/>
              <path class="cls-51" d="M286.4,385.55s-26.36-5.49-15.74-19,19,6.23,19,6.23-17-18.59-7.68-25.26,14.64,10.61,14.64,10.61-17.21-38.06,7-36.23,4,36.23,4,36.23,6.22-17.56,16.47-11.34-2.93,17.45-2.93,17.45,19.77-13.67,21.6,0-9.15,15.86-16.11,14.76c0,0,14.65,8.42-.36,14.64s-16.84-5.86-16.84-5.86,5.86,16.11-2.2,17.57S288.35,410.78,286.4,385.55Z"/>
              <path class="cls-52" d="M290.63,373.13s-20.55-4.28-12.27-14.83,14.83,4.85,14.83,4.85-13.23-14.49-6-19.68,11.41,8.27,11.41,8.27S285.2,322.07,304,323.5s3.14,28.24,3.14,28.24S312,338.05,320,342.9s-2.28,13.6-2.28,13.6,15.4-10.65,16.83,0S327.43,368.85,322,368c0,0,11.41,6.56-.29,11.41s-13.12-4.56-13.12-4.56,4.56,12.55-1.71,13.69S292.14,392.8,290.63,373.13Z"/>
              <path class="cls-53" d="M686.27,332.29s-80.62,50.59-98.64,39.5c-8-4.9-24.77,12-41,32.37-24.92,31.23-52.79,55-80.72,68.17-30,14.13-78.35,45.45-150.24,114.44-140.42,134.73,25.14,80,25.14,80s86.68-164.66,240.94-184c101.58.33,77.37-5.75,22.73-13.37,0,0-26.2-5.78-47.67-3.52s28.77-44,28.77-44,86.06-49.27,102.78-69.53S686.27,332.29,686.27,332.29Z"/>
              <path class="cls-51" d="M721.41,275.43s46.31-1.16,33.85,25.7-34.34-2.95-34.34-2.95,35.76,24.46,22.81,39.29-28.7-12-28.7-12,43.78,57,2.59,63.44-21-59.12-21-59.12-3.52,31.87-23.13,25.48-2-30.38-2-30.38-27.75,30.65-36.18,8.49,9.09-30.17,21.18-31.06c0,0-27.84-8.35-5.15-24.67s30.51,3.19,30.51,3.19-16.14-24.67-3.22-30.29S708.23,233.92,721.41,275.43Z"/>
              <path class="cls-52" d="M709.79,278.64s36.09-.91,26.38,20-26.75-2.29-26.75-2.29,27.87,19.06,17.77,30.62-22.37-9.38-22.37-9.38,34.12,44.43,2,49.44S690.48,321,690.48,321s-2.74,24.84-18,19.86-1.52-23.68-1.52-23.68-21.62,23.89-28.19,6.61,7.09-23.5,16.5-24.2c0,0-21.69-6.51-4-19.23S679,282.83,679,282.83s-12.58-19.23-2.51-23.61S699.52,246.29,709.79,278.64Z"/>
              <path class="cls-54" d="M453.21,509.84h1.42c1.09,0,1.95.47,1.93,1.05s-.9,1.05-2,1.06h0c-40.69.19-65.7,5.59-65.95,5.64a2.7,2.7,0,0,1-2.54-.57c-.39-.54.11-1.15,1.12-1.38S412.55,510.13,453.21,509.84Z"/>
              <path class="cls-55" d="M489.34,543.26a1.38,1.38,0,0,1,.56.12c.35.17,35.34,16.71,53.77,40a1.53,1.53,0,0,1-.19,2.06,1.31,1.31,0,0,1-1.93-.15c-18-22.83-52.47-39.11-52.81-39.27a1.47,1.47,0,0,1-.67-1.92A1.43,1.43,0,0,1,489.34,543.26Z"/>
              <path class="cls-54" d="M356.14,546.43a2.4,2.4,0,0,1,1.79.62c.42.53-.05,1.16-1.05,1.4-37.55,9-76.37,30.07-76.76,30.28a3.3,3.3,0,0,1-2.78,0c-.77-.4-.76-1.07,0-1.49.39-.21,39.74-21.58,78-30.75A3.55,3.55,0,0,1,356.14,546.43Z"/>
              <path class="cls-55" d="M384.53,509.38a408.9,408.9,0,0,1,52.61,3.25c1.05.13,1.68.7,1.41,1.26a2.42,2.42,0,0,1-2.39.79C396.67,509.79,370.22,512,370,512c-1.08.09-2.06-.3-2.21-.87s.6-1.12,1.68-1.21C369.91,509.89,375.27,509.45,384.53,509.38Z"/>
              <path class="cls-55" d="M475,554.36c1.05,0,1.91.43,1.94,1s-.82,1.08-1.9,1.11c-57.79,1.75-144.66,23.23-145.53,23.45a2.8,2.8,0,0,1-2.59-.51c-.43-.52,0-1.15,1-1.4s88.45-21.87,147-23.64Z"/>
              <path class="cls-55" d="M317.39,554.85c71.48-.51,204.47,19.4,205.72,19.62,1,.18,1.57.77,1.21,1.32a2.63,2.63,0,0,1-2.48.69c-1.75-.27-145.92-21.89-213.73-19.32-1.08,0-2-.4-2.05-1s.79-1.09,1.87-1.13C310.94,554.94,314.1,554.87,317.39,554.85Z"/>
              <path class="cls-55" d="M540,565.64c.92,0,1.73.34,1.91.84s-.51,1.13-1.58,1.25c-35.08,3.95-137.09,7.9-257,7.43-1.09,0-1.94-.48-1.9-1.07s.94-1.05,2-1c119.65.47,221.28-3.45,256.17-7.39Z"/>
              <path class="cls-55" d="M399.39,567.22c30.64-.21,55.22,1.43,74.84,2.74,21.29,1.42,36.67,2.44,47.72.37a2.57,2.57,0,0,1,2.48.65c.33.55-.23,1.15-1.26,1.34-11.94,2.24-27.7,1.18-49.52-.27-39.48-2.64-99.14-6.62-188.13,6.13-1,.15-2.12-.18-2.37-.74s.39-1.14,1.45-1.3A847.05,847.05,0,0,1,399.39,567.22Z"/>
              <path class="cls-56" d="M291.89,562.25h.19c16.74.72,32.95,1.42,48.54,2.11,94.85,4.14,169.76,7.42,199.13,5.27,1.08-.08,2,.32,2.17.9s-.66,1.11-1.74,1.19c-29.79,2.18-101.17-.94-200-5.26l-48.54-2.11c-1.08-.05-1.86-.55-1.74-1.13S290.89,562.25,291.89,562.25Z"/>
              <path class="cls-57" d="M264.6,569.81c.37-16.24,65-58.8,143.66-59.35s141.37,41.09,141,57.32S485.6,565.63,407,566.19,264.23,586,264.6,569.81Z"/>
              <path class="cls-55" d="M431.69,560.74c39-.27,82.5,2.11,120.23,10.67,1,.22,1.43.84,1,1.38a2.89,2.89,0,0,1-2.6.56C495,560.81,427,561.73,379.61,564.72c-54.08,3.4-98.32,10.47-110,13.5a2.83,2.83,0,0,1-2.6-.48c-.46-.52,0-1.15,1-1.41,11.88-3.08,56.72-10.27,111.27-13.71C394.88,561.64,412.76,560.88,431.69,560.74Z"/>
              <path class="cls-55" d="M490.65,549.07a176.3,176.3,0,0,1,38,3.38,1.46,1.46,0,0,1-.6,2.85c-27.88-5.83-54.61-2.28-54.87-2.25a1.34,1.34,0,0,1-1.51-1.25,1.48,1.48,0,0,1,1.22-1.63A161.89,161.89,0,0,1,490.65,549.07Z"/>
              <path class="cls-55" d="M437.25,552.15a741.36,741.36,0,0,1,103.43,6.36c1,.14,1.66.71,1.37,1.27a2.48,2.48,0,0,1-2.41.77c-56.21-7.51-115.27-8.33-175.56-2.42-52.84,5.17-87.21,13.66-93.56,15.31a2.85,2.85,0,0,1-2.61-.48c-.45-.52,0-1.15,1-1.41,6.43-1.67,41.24-10.27,94.59-15.5C388.3,553.62,412.94,552.32,437.25,552.15Z"/>
              <path class="cls-56" d="M401.58,559.2c44.32-.32,98.76,2.55,143.72,14.77,1,.26,1.32.9.81,1.42a3,3,0,0,1-2.66.47c-53.35-14.51-120.48-15.63-167.39-14-52.25,1.8-97.28,7.61-109.77,10.32a2.68,2.68,0,0,1-2.53-.58c-.39-.54.12-1.16,1.14-1.38,11.41-2.47,55.2-8.55,111-10.46C383.94,559.46,392.55,559.26,401.58,559.2Z"/>
              <path class="cls-56" d="M425.24,546.92l2.71,0c57.81-.29,107.16,3.42,107.65,3.45,1.07.09,1.79.62,1.61,1.2s-1.19,1-2.26.89c-.49,0-49.59-3.72-107.12-3.43l-2.62,0c-74.52.53-129.57,7.59-159.33,20.44a3.22,3.22,0,0,1-2.76-.15c-.66-.45-.51-1.11.34-1.48,17.26-7.45,42.35-13,74.59-16.49C363,548.64,392.34,547.15,425.24,546.92Z"/>
              <path class="cls-55" d="M411.83,516c25.58-.19,53.9,1.77,85.58,5.89,1,.14,1.67.71,1.39,1.27a2.47,2.47,0,0,1-2.41.78c-109-14.17-155.19.08-195.91,12.65l-1-.9-.91-.92c19.81-6.12,42.26-13.05,73.17-16.51A384.67,384.67,0,0,1,411.83,516Z"/>
              <path class="cls-54" d="M421.88,512.67a454.62,454.62,0,0,1,48,2.17c1.07.11,1.75.66,1.52,1.23s-1.26.95-2.33.85c-49-4.88-101.59-1.36-144.23,9.67a2.83,2.83,0,0,1-2.6-.48c-.45-.53,0-1.16,1-1.41C352.83,517,387.19,512.92,421.88,512.67Z"/>
              <path class="cls-55" d="M397.9,542.42c1.08,0,2,.46,1.94,1s-.9,1.06-2,1.07c-40.69.29-65.66,5.77-65.9,5.83a2.76,2.76,0,0,1-2.55-.56c-.4-.54.1-1.16,1.11-1.38S356.37,542.71,397.9,542.42Z"/>
              <path class="cls-56" d="M430.29,550.36h.24c.47,0,47.36,2.81,85.91,10.35,1,.19,1.51.8,1.11,1.35a2.76,2.76,0,0,1-2.54.63c-38.11-7.46-84.54-10.21-85-10.23-1.08-.07-1.83-.59-1.69-1.16S429.31,550.37,430.29,550.36Z"/>
              <path class="cls-56" d="M466.41,521.83c9.41-.06,20.5.18,33,1,1.07.07,1.81.59,1.65,1.17s-1.16,1-2.23.92c-40.24-2.69-66.29.94-66.55,1-1,.15-2.11-.18-2.37-.75s.39-1.14,1.45-1.29C432.1,523.77,444.88,522,466.41,521.83Z"/>
              <path class="cls-55" d="M422.36,522.66c1.08,0,1.95.46,1.94,1s-.91,1.06-2,1.07c-40.69.29-65.66,5.77-65.91,5.83a2.73,2.73,0,0,1-2.54-.56c-.4-.54.1-1.16,1.11-1.38S380.83,523,422.36,522.66Z"/>
              <path class="cls-56" d="M359.89,526.6c51.6-.37,128,1.84,176.53,15.79,1,.27,1.29.91.75,1.42a3,3,0,0,1-2.67.44c-70.06-20.13-199.61-15.44-224.87-14.3l-1,0c-1.08,0-1.95-.45-1.94-1s.88-1,1.94-1.06l.79,0C317.45,527.49,336,526.77,359.89,526.6Z"/>
              <path class="cls-56" d="M376.26,533.78a615.74,615.74,0,0,1,90.67,5.79c47.71,6.78,77.59,17.78,86,25.67.54.5.21,1.15-.74,1.45a3,3,0,0,1-2.68-.36c-8.06-7.53-37.07-18.1-83.71-24.72-37.46-5.32-97.89-9.65-173-.07-1.07.13-2.11-.22-2.33-.78s.45-1.14,1.51-1.28A707.36,707.36,0,0,1,376.26,533.78Z"/>
              <path class="cls-54" d="M412.09,542.32c1.08,0,2,.46,1.94,1s-.9,1.06-2,1.07c-101.63.72-133.06,6.87-133.36,6.94a2.66,2.66,0,0,1-2.51-.61c-.36-.55.17-1.16,1.2-1.36C278.64,549.14,309.76,543,412.09,542.32Z"/>
              <path class="cls-55" d="M372.83,552.43c17.2-.13,44.29.43,68.82,4.19,1,.15,1.62.74,1.3,1.3a2.6,2.6,0,0,1-2.47.72c-38.92-5.95-84.54-3.72-85-3.7-1.07.06-2-.37-2.1-1s.74-1.09,1.83-1.14C355.38,552.84,362.23,552.5,372.83,552.43Z"/>
              <path class="cls-55" d="M417.76,562.9c19.57-.14,58.25.37,86.26,5.73,1,.19,1.52.8,1.13,1.35a2.77,2.77,0,0,1-2.54.64c-38.05-7.29-96.54-5.43-97.12-5.41-1.11,0-2-.4-2-1s.81-1.09,1.89-1.12C405.51,563.1,410.22,563,417.76,562.9Z"/>
              <ellipse class="cls-58" cx="411.23" cy="587.63" rx="102.21" ry="34.92"/>
              <path class="cls-59" d="M496.18,601.16c-1.17-.94,40.7-22.08-21.19-46.8,0,0,117.23-42,82.79,37.84C557.78,592.2,520.91,620.88,496.18,601.16Z"/>
              <path class="cls-60" d="M476.93,555.35s48,18.1,27.8,41.09"/>
              <path class="cls-61" d="M480.38,548.65c23-6.67,69,20.9,26.54,48.8"/>
              <path class="cls-60" d="M471.79,554.84c23-6.67,70.74,17.08,28.26,45"/>
              <path class="cls-60" d="M490.12,552.19c23-6.67,68,10.41,25.53,38.32"/>
              <path class="cls-61" d="M521.59,544.37c44.5,0,60.22,17.57,17.74,45.48"/>
              <path class="cls-61" d="M514.43,547.68c44.5,0,60.22,17.57,17.74,45.48"/>
              <path class="cls-61" d="M507.39,550.81c44.5,0,60.22,17.57,17.74,45.48"/>
              <path class="cls-60" d="M505.28,546.89c8.85-1.34,62.33,12.9,24.77,42.37"/>
              <path class="cls-54" d="M460.37,617.26a2.19,2.19,0,0,1-1.85-.71c-.44-.64,0-1.41,1.06-1.73,38.57-11.87,78.3-38.51,78.7-38.78a2.92,2.92,0,0,1,2.86-.11,1,1,0,0,1,0,1.82c-.4.27-40.67,27.28-80,39.38A3.19,3.19,0,0,1,460.37,617.26Z"/>
              <path class="cls-55" d="M417.41,623.16c-1.12,0-2-.52-2-1.23s.92-1.31,2-1.35c41.89-1.32,67.54-8.61,67.8-8.69a2.46,2.46,0,0,1,2.63.63c.41.64-.09,1.41-1.13,1.71S460.17,621.8,417.41,623.16Z"/>
              <path class="cls-54" d="M402.8,623.62c-1.12,0-2-.51-2-1.22s.92-1.32,2-1.35c104.66-3.32,137-11.58,137.27-11.66a2.39,2.39,0,0,1,2.59.68c.38.65-.17,1.41-1.22,1.69C540.15,612.1,508.18,620.28,402.8,623.62Z"/>
              <path class="cls-62" d="M318,601.68c1.09-.87-30.9-17.47,27-40.42-18.29-45.33-119.42-22.54-91.35,32.58C253.69,593.84,294.9,620,318,601.68Z"/>
              <path class="cls-60" d="M339.24,550.44c-5.12.09-56.75,25.32-34,46.59"/>
              <path class="cls-60" d="M353.38,554s-68.24,3.4-39.72,46.21"/>
              <path class="cls-61" d="M335.82,546.36c-21.49-6.19-75,27.93-35.26,53.84"/>
              <path class="cls-60" d="M341.63,548.65c-21.5-6.19-74.13,27.75-34.38,53.66"/>
              <path class="cls-60" d="M328.15,543.09c-19,1.1-72.29,32-34.88,51.13"/>
              <path class="cls-61" d="M310,538.72c-44.11-4.8-75.71,25.66-36,51.56"/>
              <path class="cls-60" d="M323.32,540.9c-17.65-7-105.86,18.1-30.06,54.76"/>
              <path class="cls-60" d="M326.07,542.07c-8.27-1.24-78.48,20.32-43.34,47.66"/>
              <path class="cls-54" d="M360.83,664.22l-1.46,0c-1.12,0-2-.52-2-1.23s.92-1.31,2-1.35h0c41.92-1.2,67.6-8.38,67.86-8.46a2.46,2.46,0,0,1,2.62.64c.41.64-.1,1.41-1.14,1.7S402.71,662.9,360.83,664.22Z"/>
              <path class="cls-55" d="M323.23,624.32a1.13,1.13,0,0,1-.58-.14c-.37-.19-36.59-19.53-55.85-47.55a2.11,2.11,0,0,1,.17-2.51,1.23,1.23,0,0,1,2,.14c18.85,27.42,54.49,46.45,54.85,46.64a1.93,1.93,0,0,1,.7,2.32A1.5,1.5,0,0,1,323.23,624.32Z"/>
              <path class="cls-55" d="M269.61,622.56a1.91,1.91,0,0,1-2-1.48,2,2,0,0,1,1.6-2.31c36.07-8,141-17.67,264.56-19.68a1.88,1.88,0,0,1,2,1.88,2.08,2.08,0,0,1-2.08,2c-123.23,2-227.83,11.58-263.69,19.58A2.6,2.6,0,0,1,269.61,622.56Z"/>
              <path class="cls-55" d="M414.41,616.31c-31.55,1.13-56.89-1.27-77.12-3.18-22-2.08-37.81-3.58-49.16.45a1.91,1.91,0,1,1-1.28-3.59c12.25-4.36,28.5-2.82,51-.69,40.71,3.85,102.22,9.68,193.64-15.67a2,2,0,0,1,2.45,1.3,2,2,0,0,1-1.46,2.39C485.77,610.26,446.81,615.15,414.41,616.31Z"/>
              <path class="cls-56" d="M566.44,590.33c-.2,21.32-15,77.94-158.43,81.61-138.24,3.53-159-65.79-158.85-87.11S318.37,625,409.78,618C535,608.34,566.65,569,566.44,590.33Z"/>
              <path class="cls-55" d="M311.13,604.43a174.62,174.62,0,0,1-38-15.34,2.06,2.06,0,0,1-.8-2.36,1.26,1.26,0,0,1,1.83-.89,173.39,173.39,0,0,0,55.19,19,1.79,1.79,0,0,1,1.35,1.95c0,1-.7,1.69-1.48,1.59A149.29,149.29,0,0,1,311.13,604.43Z"/>
              <path class="cls-55" d="M293.94,605.46a173.61,173.61,0,0,1-38-15.34,2.05,2.05,0,0,1-.8-2.36,1.26,1.26,0,0,1,1.83-.89,173.39,173.39,0,0,0,55.19,19,1.82,1.82,0,0,1,1.35,2c0,1-.7,1.7-1.48,1.6A147.92,147.92,0,0,1,293.94,605.46Z"/>
              <path class="cls-55" d="M289.86,613a173.41,173.41,0,0,1-38-15.34,2.06,2.06,0,0,1-.81-2.36,1.26,1.26,0,0,1,1.83-.88,173,173,0,0,0,55.2,19,1.83,1.83,0,0,1,1.35,2c0,1-.71,1.69-1.48,1.59A147.92,147.92,0,0,1,289.86,613Z"/>
              <path class="cls-54" d="M389.2,620.32l-2.79.08c-59.54,1.74-110.4-1.59-110.91-1.63-1.1-.07-1.85-.71-1.67-1.41s1.21-1.22,2.32-1.15c.5,0,51.11,3.35,110.35,1.62l2.7-.08c76.74-2.43,133.36-12.36,163.85-28.75a2.86,2.86,0,0,1,2.84.11c.69.53.55,1.35-.33,1.82-17.68,9.5-43.46,16.87-76.62,21.9C453.26,616.73,423.08,619.25,389.2,620.32Z"/>
              <path class="cls-56" d="M384,614.24h-.25c-.48,0-48.81-2.29-88.59-10.57-1.05-.22-1.57-.94-1.17-1.62a2.57,2.57,0,0,1,2.62-.83c39.33,8.18,87.17,10.42,87.65,10.45,1.11.05,1.9.66,1.75,1.37S385,614.21,384,614.24Z"/>
              <path class="cls-56" d="M424.66,609.26a535.43,535.43,0,0,1-93.45-4.9c-49.22-7.12-80.12-19.82-88.92-29.25-.55-.6-.22-1.4.75-1.78a2.7,2.7,0,0,1,2.76.37c8.39,9,38.39,21.19,86.51,28.15,38.64,5.59,100.92,9.43,178.21-4.05,1.09-.19,2.17.21,2.41.89s-.45,1.4-1.54,1.59A619.27,619.27,0,0,1,424.66,609.26Z"/>
              <path class="cls-55" d="M548.76,590c-17.31,5.84-44.76,13.7-70.4,15a1.52,1.52,0,0,1-1.61-1.89,2.58,2.58,0,0,1,2.3-2.1c40.67-2.12,86.13-21,86.58-21.2a1.61,1.61,0,0,1,2.35,1,2.52,2.52,0,0,1-1.56,2.64C566.24,583.61,559.42,586.44,548.76,590Z"/>
              <path class="cls-55" d="M397.84,617.69c-20.16.72-60,.72-88.94-8.37a1.82,1.82,0,0,1-1.19-2.42,2.13,2.13,0,0,1,2.6-1.23c39.33,12.35,99.52,7.57,100.13,7.51a1.89,1.89,0,0,1,2.11,1.75,2.05,2.05,0,0,1-1.93,2.08C410.45,617,405.61,617.41,397.84,617.69Z"/>
              <path class="cls-63" d="M276.06,635.37s-14.84,18.58,21.78,29,92.88,19.85,158.62,11.91S552.93,631.9,556.89,628c7.11-7-.87-28-4.22-9.71C516.94,675.57,328.15,688.66,276.06,635.37Z"/>
              <path class="cls-55" d="M367.37,661.31a356.42,356.42,0,0,1-53.95-6c-1.08-.2-1.69-.91-1.38-1.6a2.35,2.35,0,0,1,2.51-.87c40.34,7.5,67.72,5.85,68,5.83,1.12-.07,2.11.44,2.22,1.15s-.69,1.34-1.8,1.41C382.45,661.25,376.91,661.59,367.37,661.31Z"/>
              <path class="cls-54" d="M438.55,657.17a394,394,0,0,1-49.4,2.4c-1.1,0-1.86-.61-1.69-1.33a2.27,2.27,0,0,1,2.3-1.27c50.76.78,104.25-9,146.76-26.9a2.55,2.55,0,0,1,2.72.31c.52.59.14,1.4-.85,1.82C508.83,644.63,474.07,653.23,438.55,657.17Z"/>
              <path class="cls-55" d="M460.19,642.2c-1.11.14-2.06-.31-2.13-1s.79-1.4,1.9-1.54c41.56-5.45,66.37-15.24,66.61-15.33a2.47,2.47,0,0,1,2.68.36c.48.6,0,1.41-1,1.81S502.61,636.64,460.19,642.2Z"/>
              <path class="cls-55" d="M550.14,608.26c-16.4,6.71-42.73,16-68.65,18.91a1.83,1.83,0,0,1-2.08-1.72,2.12,2.12,0,0,1,1.89-2.17c41.13-4.6,83.41-25.67,83.83-25.88a1.91,1.91,0,0,1,2.62.83,2,2,0,0,1-1,2.64C566.58,601,560.24,604.12,550.14,608.26Z"/>
              <path class="cls-55" d="M501.41,614C430.23,632.93,289,631.21,287.66,631.14a1.82,1.82,0,0,1-1.77-2,2.13,2.13,0,0,1,2.18-1.85c1.87,0,155,2,221.63-19.69a1.91,1.91,0,0,1,2.47,1.21,2.07,2.07,0,0,1-1.4,2.47C507.81,612.21,504.68,613.12,501.41,614Z"/>
              <path class="cls-55" d="M393.26,643.88c-40.16,1.44-85-1.85-124-16.54a1.83,1.83,0,0,1-1-2.49,2.13,2.13,0,0,1,2.67-1.09C328,645.27,398.1,642,446.82,635.4c55.64-7.5,101.08-21.43,113-27.23a2,2,0,0,1,2.69.82,1.93,1.93,0,0,1-1,2.59c-12.18,5.9-58.23,20.06-114.35,27.62C431.15,641.37,412.76,643.18,393.26,643.88Z"/>
              <path class="cls-55" d="M403.35,655.76c-26.34.79-55.53-1-88.19-5.29-1.08-.15-1.73-.83-1.45-1.52a2.37,2.37,0,0,1,2.48-1c112.43,14.87,159.83-3.54,201.64-19.78l1,1.07.94,1.11c-20.33,7.89-43.38,16.85-75.19,21.75A336.74,336.74,0,0,1,403.35,655.76Z"/>
              <path class="cls-55" d="M415.5,667.33c-26.35.83-55.53-.88-88.21-5.15-1.08-.14-1.73-.82-1.44-1.51a2.37,2.37,0,0,1,2.47-1c112.46,14.68,159.82-3.81,201.61-20.12l1,1.07.95,1.1c-20.33,7.94-43.36,16.93-75.16,21.89A338.33,338.33,0,0,1,415.5,667.33Z"/>
              <path class="cls-55" d="M409.9,650.56c-31.71,1-71.85-1.51-136.14-14.74-1.05-.21-1.57-.94-1.17-1.61a2.55,2.55,0,0,1,2.61-.84c95.44,19.63,137.09,15.45,177.37,11.41l9.9-1c1.1-.11,2.1.38,2.2,1.08s-.71,1.36-1.82,1.47c-3.31.31-6.58.64-9.86,1C439.43,648.68,425.71,650.06,409.9,650.56Z"/>
              <path class="cls-54" d="M323.45,628.11a393.75,393.75,0,0,1-49.19-5.1c-1.08-.18-1.74-.89-1.46-1.57a2.26,2.26,0,0,1,2.46-.91c50.06,8.45,104.42,6.85,149.14-4.4a2.57,2.57,0,0,1,2.64.72c.42.66-.07,1.41-1.11,1.67C394.83,626.34,359.16,629.58,323.45,628.11Z"/>
              <path class="cls-55" d="M372.07,637.22c-26.92.85-56.28-.29-85-5.38-1.06-.18-1.63-.89-1.27-1.58a2.5,2.5,0,0,1,2.56-.9c64.76,11.47,133.16,2.57,168.17-3.75,54.24-9.8,90.84-24.07,98.95-33.1a2.8,2.8,0,0,1,2.77-.56c1,.33,1.29,1.11.72,1.74-10.14,11.28-51.89,25.42-101.54,34.39A595.22,595.22,0,0,1,372.07,637.22Z"/>
            </g>
          </g>
        </g>
        <rect class="cls-64" x="784.25" width="31.51" height="900"/>
      </g>
    </g>
  </g>
</svg>
