<svg id="Layer_1" data-name="Layer 1" xmlns="http://www.w3.org/2000/svg" xmlns:xlink="http://www.w3.org/1999/xlink" viewBox="0 0 1600 900"><defs><style>.cls-1{fill:none;}.cls-2{clip-path:url(#clip-path);}.cls-3{clip-path:url(#clip-path-2);}.cls-4{fill:#0b1e33;}.cls-5{fill:#0c4e2c;}.cls-6{fill:#008151;}.cls-7{fill:#14677a;}.cls-8{fill:#087b60;}.cls-9{fill:#0e623c;}.cls-10{fill:#31b680;}.cls-11{fill:#125b3a;}.cls-12,.cls-13{fill:#108f9a;}.cls-13{opacity:0.57;}.cls-14{fill:#077f92;}.cls-15{fill:#068092;}.cls-16{fill:#0d2f4f;}.cls-17{fill:#088883;}.cls-18{fill:#1aaf86;}.cls-19{fill:#0b2f1f;}.cls-20{fill:#78c3ad;opacity:0.6;}</style><clipPath id="clip-path"><rect class="cls-1" x="1850" width="1600" height="900"/></clipPath><clipPath id="clip-path-2"><rect class="cls-1" width="1600" height="900"/></clipPath></defs><g class="cls-3"><rect class="cls-4" x="-3.09" y="-1.72" width="1605.11" height="900"/><path class="cls-5" d="M-8.28,156.35s157.63,58.11,447-185.11V40.13l-48.35-2.88,48.35,14.91-17.79,48L353.31,80.48s67.59,61.36,71.15,63.72S332,203.29,231.17,214.46C124.45,230.34-8.28,235.07-8.28,235.07Z"/><path class="cls-6" d="M-3.88-25.72S166.68,146.62,574.76,159.33l113.91,8-101.73,14,94.58,42.05-37,5L481.15,169.48l146.31,79.6L592,276.91,466.29,187.1l105.93,96.14-77.68,23.53S434.3,183,438,186,449.16,298.7,449.16,298.7s-83.19,2.45-81.37-2.28-.48-128.1-.48-128.1L353.92,285.48l-44.58-8.28,20.12-121L294.05,264.71,227.4,252.15l33.35-113.6L193,251S-12.92,92.07-13.43,54.92C-13.56,45.25-3.88-25.72-3.88-25.72Z"/><path class="cls-7" d="M1251.87,438.39,1153.56,485l-20.83-9.72V438.39s56.64-7.78,86.59-31.75C1219.32,406.64,1249.92,425.43,1251.87,438.39Z"/><path class="cls-7" d="M1153.56,485s59.9-4.83,103.52-36.76c9.77,43.88,18.23,82.11,18.23,82.11l-3.25,6.48-65.76-29.16-39.06-18.79Z"/><path class="cls-4" d="M1151,485s36.28-16,35.5-15.61,5.84,8.33,5.84,8.33Z"/><path class="cls-5" d="M769.06,171.71l82.17,39.58L820.35,269.1l-93.68-34.37,79.38,49.48-31.23,38.54s-33.18-55.07-100.59-31.7l3.77-47L756.5,154Z"/><path class="cls-8" d="M796.8,216.5s80.6-41.15,86.35-52.08-35.59-26-40.82-18.23S796.8,216.5,796.8,216.5Z"/><path class="cls-9" d="M301.41,569.29,453.56,317.53l80.31,65.71L478.26,293.9l34.48-51.6,68.76,43.41-47.63-69.06L567,187.52l95.12,38.77L593.2,149.22l45.3-36.65,80.87,75-51.15-75L687.15,82l75.64,73.54L719.73,73.3l38.15-15.48S778,133.75,782.7,127s-9.85-69.16-9.85-69.16l17.54-2.9,11.71,50.83V54.92h69.76S674,263.25,652.91,292.18s-74.55,94.92-74.55,94.92S413,649,409.8,657s-20.24,30.54-20.24,30.54-25.55-9.64-29.4-17.68S301.41,569.29,301.41,569.29Z"/><path class="cls-5" d="M866.47,54.92,900.1,126.8H819.68l74.11,21.08L883,187.17s-86.63-14.58-88.21-15.32l71.7,33.4-32,57.89-97-34.42,82.2,56.4-32.34,31.74L683.17,285.12,763,360.5l-48.31,79.61-80-61.78,65,85.4-48.84,67.54-81.1-77.79,56.82,88.16-28.3,54.51-79.25-35.27,62.39,57.71-28.32,49.69-68.31,56.11L370.73,685.92,564.79,386.24S836.63,71.55,866.47,54.92Z"/><path class="cls-10" d="M-24,424.78S202.34,464,532.3,170.61l95.51-78.54-69,86.14L665.34,139.8,640.16,171l-173.5,76.76,176-48.45-6.4,47.36L468.56,272.14l157.06-5.95-42.86,75.46S440.3,292.78,445.57,292.32,541,369.23,541,369.23s-63.39,63.63-65.6,58.7-98.91-96.51-98.91-96.51L456.06,430l-41.34,26.83L337.41,350.34l55.7,108.36-61.95,40L269.94,388l33.31,135.3S-23.9,597.2-22,543.78C-21.6,533.51-24,424.78-24,424.78Z"/><path class="cls-10" d="M244.75-1.72s-45.91,41.14-46.63,46.85-9.33,36.85,38.74-5l16.5-18.56S226.1,72.26,221.79,94.39s10.76,46.41,38-3.57l27.26-50s-5.74,40-6.46,65,26.54,44.27,35.15,3.57,14.35-73.53,14.35-73.53S343,82.25,357.38,103s27.26,26.41,22.24-9.28-17.93-77.82-17.93-77.82S410.47,73,419.08,81.54s33.72,27.4,11.48-15.93S399,8.72,399,8.72s34.44,22.13,54.53,33.55,56,27.13,22.24-10.7c-38-33.29-38-36.41-38-36.41Z"/><path class="cls-9" d="M1235.76-19.17S1173.89,36.26,1172.93,44s-12.57,49.66,52.2-6.74l22.23-25s-36.73,68.3-42.53,98.13,14.5,62.53,51.23-4.81l36.74-67.34s-7.74,53.87-8.7,87.54,35.76,59.65,47.37,4.81,19.33-99.09,19.33-99.09,17.4,62.53,36.73,90.43,36.74,35.6,30-12.5S1393.33,4.52,1393.33,4.52s65.74,77,77.34,88.5,45.44,36.92,15.47-21.46S1443.6-5.1,1443.6-5.1s46.41,29.82,73.47,45.21,75.41,36.56,30-14.43c-51.23-44.85-51.23-49.06-51.23-49.06Z"/><path class="cls-11" d="M1634.06,422.28s-204,60.3-527.49-187.55L1013.44,169l69.67,75.09L983.2,216.84l25.41,27.21,163.84,57.63-163.84-30.87,9.65,43.9,154.44,10-143.18,7.42,45,67.24S1200,341.7,1195.22,341.7s-80.44,80.05-80.44,80.05,62.74,54.43,64.35,49.62,82-98.71,82-98.71l-64.34,99,39.73,21.75,61.61-106.24-41.82,106.24,59.52,32.38,46.65-108.86-19.31,129.68s298.94,50.61,292.86.66C1634.9,537.68,1634.06,422.28,1634.06,422.28Z"/><path class="cls-12" d="M1636.16,39.28S1536.89,169.73,1130.87,127l-113.94-7.55,98.86,27.71L1016.34,176l36,10,169.92-36.21-155.85,59,31.31,32.38,136.84-71.92-118.1,80.88,73.74,33.84s76.62-114.45,72.51-111.94-26.46,110.09-26.46,110.09,82.09,13.72,80.93,8.79,18-126.85,18-126.85l-2.77,117.89,45.29-2.16-3.36-122.63,20.23,112.32,67.74-3.4L1444.8,149l51.73,120.56S1634.39,209,1636.16,196.3C1637.5,186.71,1636.16,39.28,1636.16,39.28Z"/><path class="cls-13" d="M1138.43,798.2S975.73,774.5,817.7,399.87l-48.27-103,23.25,99.55-73.32-72.82,8.56,36.16L841.69,490.49,714.62,383l-13.42,42.9L830.48,510.6l-128.13-64,5.74,80.61s137.7,11.65,133.5,9.28-109.68,30-109.68,30,27.48,78.18,31.26,74.8,120.36-45.43,120.36-45.43l-105.12,54.4,23.72,38.45,106.35-62-89.15,71.77L855,755.87l94.64-71.67L868.41,787.41s119.78,91,131.77,86.46C1009.26,870.42,1138.43,798.2,1138.43,798.2Z"/><path class="cls-10" d="M1602.29,244.46S1405,280,1187.78,113.6l-62.52-44.15L1172,119.86,1105,101.59l17,18.27,110,38.69-110-20.73,6.48,29.47L1232.17,174l-96.11,5,30.24,45.13s84.23-38.69,81-38.69-54,53.74-54,53.74,42.11,36.54,43.19,33.31,55.08-66.26,55.08-66.26l-43.2,66.46,26.68,14.6,41.36-71.32-28.08,71.32,40,21.74,31.31-73.08-13,87.05s259.73,23.86,255.65-9.67C1601.5,306.85,1602.29,244.46,1602.29,244.46Z"/><path class="cls-10" d="M-14.43,208.78S79.45,294.7,346.7,234.17l75.35-14-63.69,26.27L427,257.79l-23.18,9.48L287.62,256.54l108.59,27-18.29,24.06L281,270.49l85.17,44.6-46.46,28.37s-60.19-70.24-57.25-68.89,26.41,71.3,26.41,71.3-53.63,15.62-53.25,12.24S213.48,275,213.48,275l11.24,78.36-30.37,2.14-7.53-82-4.53,76.47L136.86,353l2.33-79.41-24.88,84.44S-11.42,314.78-17.95,290.78C-19.65,284.51-14.43,208.78-14.43,208.78Z"/><path class="cls-9" d="M1019.22,792.44,914.31,595.07l98.54-31-105.06-2.3-24.73-56.53,73.58-33.48-83.73,2.06-6.57-43.25,83.9-57.84L848.3,388.16,842,330.75l106.6-26.43L858,306.11l-15.44-32.23L945.18,251l-92.35-8.88,7.58-40s74.62,24.5,71.5,16.9-63.42-29.3-63.42-29.3l7-16.11,49,17.82-42.7-27.53,37.65-57.82s68.19,276.87,81.12,310,39.48,113.22,39.48,113.22,130.75,278.88,135.75,285.92,14.72,33.32,14.72,33.32-21.89,16-30.71,14.79S1019.22,792.44,1019.22,792.44Z"/><path class="cls-5" d="M918.35,106l78.19,11.91-42.23,64.85L1011,134.45l27.42,30.06s-57.78,61.94-59.23,62.81L1045,187.64l32,57.22L997,304.41l90.67-35.67-1.67,49-70,61.08,105.43-23.46,41.67,82.19-94,30.93,106-6,31.23,76.06L1098.2,561.7l104.09,2.06,31,52.41L1162,660.94l81.36-19,27,49.82,11.38,85.55-92.31,71.12L1039,529.21S916.68,139.09,918.35,106Z"/><path class="cls-14" d="M1029.12,652.06s75.76-64,96-65.18c-74.69,15.7-100.3,37-116.3,39s-42.69.8-48,9.25c9.6-57.94,11.29-96,24.54-95.36s84.3,0,96-6A233.1,233.1,0,0,1,1107,522.91s-92.83-9.66-106.7,0,26.67-36.21,49.08-48.28,36.28-40,38.41-47.76c0,0,47,21.2,77.9,18.79,0,0-37.35,33.8-44.82,38.63s25.61-6,44.82-20.52,30.94-20.52,34.14-18.11,42.68,24.14,42.68,24.14-83.22,35-90.69,41l-7.47,6s80-27.77,98.16-25.35l18.14,2.41s32,41,35.21,55.53,0,6,0,6-100.3,13.28-122.7,27.76c0,0,98.16-9.65,116.3-3.62s14.94,61.56,14.94,61.56-58,99.08-61.15,102.7-212-66.49-212-66.49Z"/><path class="cls-15" d="M38.32,623.66S131,604.94,149.76,612.59C76.29,593.35,45.08,599.45,29.85,594.25s-38.9-17.5-46.91-13c30.54-42,46.42-71.57,58.16-65.44s76.24,35.8,89.13,36A252.27,252.27,0,0,1,157.49,554S77.18,506.88,61,508.67s37.78-17.48,62.6-17.57,47.9-16.41,52.76-21.68c0,0,34.46,36.81,63.35,48,0,0-46.52,11-55.1,11.7s25.44,6.07,48.27,2.71,35.73-3.19,37.71.09,29.49,37.33,29.49,37.33-88.47-7.49-97.5-5.86l-9,1.63s82.84,11.9,98.34,21.52l15.49,9.62s13.47,46.25,10.9,59.13-2.28,4.8-2.28,4.8-95.71-32-121.44-30c0,0,92.42,34,106.54,46.51s-9.71,55.32-9.71,55.32-20.1-2.4-24.36-.87S30.69,644.73,30.69,644.73Z"/><path class="cls-16" d="M263.51,700.57S358.94,594.06,406,601.72c0,0-45.8,37.38-35.23,53.42s28.31-50.29,72.94-71.4c0,0-38.87,72.63-32.17,87.21s7.46-37.28,27.55-49.63c23.86-14.67-14.8,47,18.56,47.93,15.5.43,2.65-94.31,39.28-97.18,0,0-12.89,47,6.59,73.15l68.79,9.92L540.91,718.4l-55.85,40.28L109.24,778S144.92,696.87,263.51,700.57Z"/><path class="cls-17" d="M997.19,630.35s-17.12,27.33,8.91,51c6.69,6.06,35.65-2.66,25.63-31.06,0,0,30.08,1.94,23.39,33.48,0,0,25.63-27.9,12.26-55.81,0,0,26.57-21.84,31.19,36.4s4.62,114,4.62,127.4V896.06c0,3.64-51.41,23.06-51.41,23.06L316.3,888.78l-176.48-55.5S198.1,667.17,343.22,635.2c0,0,41.64,24.24,53.7,10.77s40.74-29.28,57.71-27.75c0,0,56.69,38.24,54.42.4-1.54-25.63,10.19-33.16,10.19-33.16s31.56,15.79,39.45,38.43a30.54,30.54,0,0,1,1.78,10.1s-4.46-27.91,30.08-48.53c0,0,13.37,29.12,4.45,54.59,0,0,15.6-36.39,45.68-47.31,0,0,14.32,3.11,3.19,33.41q-1.33,3.65-3.19,7.84s22.28-12.13,21.17-48.53c0,0,34.53,26.69,21.17,77.65,0,0,0-25.48,26.73-32.76,0,0-5.57,26.69,0,46.1,0,0,4.46-23.28,14.49-26.2,0,0,21.16,23.78,20,44.4s0,6.07,0,6.07l13.33-31.55s30.13,34.29,30.08,36.54c-1.11,49.61,20,14.42,17.83-20.76s.16-42.47.16-42.47,26.57-8.49,36.6,35.19c0,0,8.91-37.62,24.51-47.32l13.37,55.81s15.6-14.56,10-49.75c0,0,49,31.43,59.24,27.64S970.66,626.32,997.19,630.35Z"/><path class="cls-18" d="M1278,747.15c-2.53-34.13.19-41.19.19-41.19s30.15-8.23,41.53,34.13c0,0,10.11-36.48,27.8-45.89l15.17,54.13"/><path class="cls-18" d="M958.25,694.05c-9.12-33.48-39.92-26.21-39.92-26.21C935,680.77,929.1,719.5,929.1,719.5c-17.69-33.54-49.3-37.07-49.3-37.07,16.44,8.24,11.38,50.6,11.38,50.6-7.58-18.83-41.71-24.71-41.71-24.71,16.43,16.47-10.12,41.19-10.12,41.19,5.06-20-16.43-36-16.43-36-17.7,11.07-36.86,43.07-36.86,43.07,11.18-35.31-4.85-60-4.85-60L785,693c-3.79,3.53-17.45,35.3-17.45,35.3,5.31-15.3-14.15-29.42-14.15-29.42C599.28,751,586.22,912.49,586.22,912.49L730.77,921,979.45,799.48Z"/><path class="cls-18" d="M1613.71,902.25c0-3.53,2-38.6,2-51.54s0-67.08-5.24-123.56c-3.12-33.67-1.64-66.9-11.85-83.73-25.8-42.48-15.31,13.27-19.62,19.83l-44.38,50.25L1376.2,744.09l-86.14-1.54-59.7-2.55c-6.32-18.83-61.09-45.8-61.09-45.8-23.58,37.08-54.35-43.55-54.35-43.55,1.26,35.31-24,47.08-24,47.08,10.91-27,0-40,0-40-34.13,10.59-51.83,45.89-51.83,45.89,10.12-24.71-5-53-5-53-40.4.47-142.83,261.84-142.83,261.84Z"/><path class="cls-18" d="M578.9,895.29s64-52.93,65.32-60.59,14.54-49.12-52.43,4.66l-23.22,24.11S608,796.68,615,767.11s-12-63.05-51.39,2.78l-39.4,65.83s9.88-53.52,12.2-87.13-33.35-61-47.14-6.68S466,840.15,466,840.15,451.1,777,432.9,748.33s-35.28-37-30.45,11.31S422.4,865.38,422.4,865.38s-62.6-79.51-73.73-91.5-43.92-38.7-16.31,20.83S371.79,873,371.79,873s-45.17-31.64-71.6-48.1-73.88-39.51-30.52,13.24c49.4,46.84,49.23,51.05,49.23,51.05Z"/><path class="cls-19" d="M444.81-28.75s-53.62,48-54.46,54.71-10.89,43,45.24-5.84L454.86-1.56S423,57.64,418,83.48s12.57,54.2,44.4-4.16L494.24,21s-6.7,46.69-7.54,75.87,31,51.7,41.05,4.17,16.76-85.87,16.76-85.87,15.08,54.19,31.83,78.37,31.84,30.85,26-10.84S581.37-8.23,581.37-8.23s57,66.7,67,76.71,39.38,32,13.41-18.6-36.87-66.44-36.87-66.44,40.22,25.84,63.68,39.18,65.34,31.68,26-12.5c-44.4-38.87-44.4-42.52-44.4-42.52Z"/><rect class="cls-20" width="1600" height="900"/></g></svg>