<svg id="Layer_1" data-name="Layer 1" xmlns="http://www.w3.org/2000/svg" viewBox="0 0 289.11 68.85"><defs><style>.cls-1{fill:#c9472d;}.cls-2{fill:#fdf2ae;}.cls-3{fill:#562926;}.cls-4{fill:#351716;}</style></defs><g id="color"><g id="bar"><path class="cls-1" d="M255.29,1.77H34a32.83,32.83,0,0,0,0,65.66H255.29a32.83,32.83,0,1,0,0-65.66Z"/><path class="cls-2" d="M255.29,4H34a30.62,30.62,0,0,0,0,61.24H255.29a30.62,30.62,0,1,0,0-61.24Z"/><rect class="cls-3" x="6.25" y="6.11" width="277.03" height="56.25" rx="28.13"/><path class="cls-4" d="M256.76,6.11h-224C18.18,6.11,6.25,18.76,6.25,34.23h0c0,.7,0,1.39.08,2.08,1-14.51,12.51-26.06,26.44-26.06h224c13.93,0,25.43,11.55,26.44,26.06.05-.69.08-1.38.08-2.08h0C283.28,18.76,271.34,6.11,256.76,6.11Z"/></g></g></svg>