<svg id="Layer_1" data-name="Layer 1" xmlns="http://www.w3.org/2000/svg" viewBox="0 0 1140.6 240.68"><defs><style>.cls-1{fill:#5c2d1f;}.cls-2{fill:#733c2d;}.cls-3{fill:#3a1a0b;}</style></defs><path class="cls-1" d="M1132.59,135.08c-7.38,8.57-20.06,13.59-32.84,16.37-19.15,4.17-40.92,4.63-55.77,14.93-9.35,6.49-16.61,17-29.1,17.16-7.25.1-13.8-3.63-21-3.72-14.44-.17-23.05,13.17-36.74,16.86-9.23,2.5-19.23.24-28.94-.28-37.24-2-70.92,21.76-108.22,20.46-9.1-.31-18.39-2.29-25.1-7a22.5,22.5,0,0,1-2.75-2.26l-43.55,7.49c-14.89,2.56-30.74,5.08-45,1.13-11-3-20.12-9.73-31.64-11.25-21.64-2.86-39.58,13-60.56,18.34-27.55,7-57-4.84-85.85-2.91-18.17,1.22-34.94,7.82-52.16,12.58s-36.85,7.63-53.16,1.52c-8.12-3-14.88-8.14-23.48-10.25-14.48-3.56-29.89,2-45,3.54-23.83,2.34-48.63-6.83-61.49-22.28a41.87,41.87,0,0,1-2.82-3.76c-2.07.71-4.18,1.33-6.32,1.88l-.62.16a13.55,13.55,0,0,1,1.82,5.76c.64,9.87-12.52,17.94-25.31,18.21s-24.53-5.24-34.05-11.76c-4.64-3.18-9.24-6.77-15.26-8-11.09-2.29-22.1,4.1-33.57,5.05-15.39,1.28-30.47-9.23-30.4-21.18-11.17,2.79-23.75,3.14-34.21-.81A31.06,31.06,0,0,1,98.3,184c-8.52,4.7-19.42,7.14-29.35,5-10.85-2.37-19.32-11.24-16.84-19.8-4.22,9.58-19,15.61-31.46,12.9S-.16,168.32,2.93,158.49c1.9-6,7.92-11,15.25-13.55a31.74,31.74,0,0,1,14.6-1.49,18.84,18.84,0,0,1-1.36-26.61c7-7.91,20.91-11.72,32.63-8.91-1.69-8.77,3.41-18.17,12.71-23.46s22.39-6.24,32.66-2.36c-5.78-7.77-3.65-18.59,4.87-24.81s22.6-7.27,32.31-2.38c-2.77-8.64,2.59-18.54,12.55-23.17s23.69-3.61,32.16,2.39c3-6.68,6.23-13.56,12.52-18.73s16.56-8.15,24.76-5.14c2.43.89,8.25,4.69,13.73,8.81,10.51-2.86,25.9-5.42,34-.09,2.08,1.36,3.39,3.27,5,5a69.29,69.29,0,0,0,6.45,5.52,49.8,49.8,0,0,1,21.39-6c7.33-.23,14.91,2,20.09,5.8q4.57-1.87,9.22-3.64A24,24,0,0,1,351.13,18a33.71,33.71,0,0,1,13.75-.39,56.49,56.49,0,0,1,10.89-.85c10.88.28,22.22,5.17,25,13.28,6.75-15.85,27.31-27.66,48.82-28s42.39,10.7,49.56,26.3c6.28-13.36,26.07-22.11,44-19.47C558.51,11,570.86,21.3,573.62,33c1.16-7.63,8.67-14.83,18.52-16.52,12.53-2.16,26.27,5.06,28.23,14.82,2.12-14.84,26.43-22.78,44.86-18.59s31.67,16.3,43.26,28.1c4.37-12.43,20.16-22,36.77-22.23s32.58,8.79,37.2,21.08c1.62-9.23,13.07-16.88,25.09-16.77s23,8,24,17.22c.77-5.5,6-9.83,12.58-12.25A40.1,40.1,0,0,1,835,26.31c-4.93-1.55-9.3-4.7-10.29-8.75C822,6.61,846,.48,856,3.55c7.21,2.22,12.16,8.15,11.83,14.16,2.41-4.38,8.7-6.22,14.91-5.81a22.12,22.12,0,0,1,10.44,3.21C900.66,20,903.3,28,905.3,35.48c7.56-5.62,18.69-8.22,28.92-6.77S953.53,35.65,957.81,43c2.29,3.93,3.54,8.58,8,11.11,3,1.68,6.82,2.07,10.27,3.07a27.21,27.21,0,0,1,14.64,10.48,23,23,0,0,1,4.13,11.65,34.11,34.11,0,0,1,4.06.09c12.51,1,23.69,8.24,27.16,17.56,4.78-11.82,25.71-15.59,40.17-10.52,1,.36,2,.76,3,1.17,0,0,0,0,0,0,8.12,3.47,14.56,8.8,20.21,14.68,1,1,1.93,2,2.86,3.08,2.1,2.34,4.1,4.73,6.07,7.1l.18.23a8.93,8.93,0,0,1,.39-1,10.69,10.69,0,0,1,2.36-3.28c6.53-6.34,21.38-7.38,29.41-1.52C1140.34,113.86,1140,126.51,1132.59,135.08Z"/><path class="cls-1" d="M160.35,88c.49-9.61,11.09-19.52,23.42-18.33C180,62,182.1,52.76,189,46.44S207.46,37,217.88,38.6c5.45-15.12,23.94-27,44.13-28.3,2.91-.19,6-.14,8.43,1.13S274,15.58,272,17.27c1.6-6.45,10-11.28,18.44-11.4s16.49,4,20.63,9.64,4.68,12.69,2.57,19.06c1.66-4,10.32-3.71,12.84,0s.1,8.49-3.82,11.45-9.1,4.7-13.74,7c-15,7.28-24,19.77-34.24,30.9S250.59,106,233.06,107c5.22,6.87-.67,16.34-9.76,20.27s-20.08,3.74-30.4,3c-15-1-19.29-5.45-22.35-16C167.92,105.24,159.84,97.82,160.35,88Z"/><path class="cls-2" d="M274.57,68.5c12.57-21.22,54.48-27.34,75.64-11,4.14-10.83,17-19.41,31.49-20.94s29.65,4.07,37.09,13.67c28.95-18,76-14.51,99.37,7.37,16.48-9.38,38.65-12.43,58.1-8s35.72,16.25,42.65,31c14.45-9.26,29.92-18.88,48.41-21s40.23,6.74,41.29,21.13C737.8,60.12,789.94,65,811.32,90.17c7.73-9.41,22.69-15,36.93-13.77s27,9.16,31.63,19.62c11-11.14,37.15-6.44,43.72,6.49s-3.86,28.54-19.81,35.22-35.5,5.92-52.67,1.76c-4.53,12.19-18.25,22.13-34.27,24.83s-33.64-2-44-11.65c-5.8,15.1-26.87,24.33-47.14,25.5s-40.05-4-59.17-9.13c-.4,8.27-11.93,14.05-22.62,14.41s-20.85-3.06-31-5.52-21.8-3.87-31.2.17c-5.82,2.5-10,6.76-14.83,10.29-17.88,13-47.26,15.23-67.7,5.13-13.16,2.84-28.07-5.89-28-16.42-13.23,7.47-33.45,6.05-44.45-3.13-21.31,19.23-64.37,20.28-86.6,2.12-11.87,11-30.51,17.36-48.87,16.77s-36-8.18-46.28-19.86c-18.5,9.53-47.47,1-52.81-15.49-16,.17-31.22-8.84-35.14-20.77a22.29,22.29,0,0,1,2.2-18.05c3.55-6.29,11.42-8.59,15.4-13.76,3.79-4.93,4.75-13.12,8.7-18.76a60.24,60.24,0,0,1,9.07-10.56C213.3,56.73,252.65,41.93,274.57,68.5Z"/><path class="cls-2" d="M673.16,29.34a13.52,13.52,0,0,0-11.47-3.13c-3,.63-5.45,2.61-6.25,4.86-1.79-7.4-21.69-4.53-22.18,4.88-.5,9.88,15.57,16.33,26.51,16.17,4.09-.06,8.32-.86,11.47-2.9,2.84-1.84,4.59-4.83,4-7.59a2,2,0,0,0,.49-.3,3.55,3.55,0,0,0,1.06-2.67A11.76,11.76,0,0,0,673.16,29.34Z"/><path class="cls-2" d="M509,23.93a19.39,19.39,0,0,1,10.35-5.57,9.16,9.16,0,0,1,5.83.34,6.84,6.84,0,0,1,2.94,3.71c.7,1.56,1.36,3.37.22,4.78-1,1.25-3,1.69-4.88,2C518.71,29.88,501.86,31.78,509,23.93Z"/><path class="cls-2" d="M543,22.92l1.42,1.9a1.5,1.5,0,0,1,0-.84A4.2,4.2,0,0,0,543,22.92Z"/><path class="cls-2" d="M553.76,24.06a6.39,6.39,0,0,0-3.29-1.82,7.24,7.24,0,0,0-4.05,0A3.05,3.05,0,0,0,544.49,24c.69.74,1.18,1.65,1.86,2.42a6,6,0,0,0,3.65,2,4.44,4.44,0,0,0,4-1.31A2.41,2.41,0,0,0,553.76,24.06Z"/><path class="cls-2" d="M436.59,12.13c1.52.06,3.19.28,4.14,1.2,1.54,1.48.25,3.72-1.39,5.18-3.31,2.94-22,12.76-24.08,5.62C412.9,16.17,429.07,11.87,436.59,12.13Z"/><path class="cls-2" d="M477.32,15.82c1,1.34,1.61,3.16.36,4.41-1.49,1.48-4.51,1.16-6.66.33-2.85-1.1-11.65-6.76-7.64-9.64S475.5,13.42,477.32,15.82Z"/><path class="cls-2" d="M215.94,42.19c2.81-.6,6.13-.54,8.23,1,2.62,1.92,2.28,5.23,1.17,7.92a15.43,15.43,0,0,1-5.5,7c-5.22,3.53-15.79,2.78-16.5-3.53C202.74,49.23,209.73,43.52,215.94,42.19Z"/><path class="cls-2" d="M258.62,35.18c-.86-2-4.06-3-6.76-2.54a11.64,11.64,0,0,0-6.51,3.76,3.27,3.27,0,0,0,2.33.18l-3.28,1.25c-.73,1.09.07,2.5,1.39,3.15a9.21,9.21,0,0,0,4.58.61,13.11,13.11,0,0,0,6.23-1.76C258.31,38.7,259.32,36.82,258.62,35.18Z"/><path class="cls-2" d="M125,94.73c-3-4.58-.72-10.46,3.86-14.27s11-5.93,17.33-7.65c5.35-1.45,11.48-2.66,16.44-.61,6.37,2.62,7.67,9.39,6.09,14.87C165,100,148.47,110,131.45,109.63c1.26,0-6.32,10.6-7.34,11.46a31.6,31.6,0,0,1-16.08,6.8c-9.77,1.31-22.37-1.42-26.62-9C71.48,101.34,108.36,90.29,125,94.73Z"/><path class="cls-1" d="M258.65,81.07c3.44,1.19,5.18,5.13,2.45,7.18A18.78,18.78,0,0,1,272,79.9c4.91-1.45,10.79-1,14.83,1.53s5.83,7.15,3.77,10.88c-2.2,4-7.74,6.09-12.84,7.86l-18.5,6.45c-4.76,1.65-9.65,3.33-14.84,3.54-11.41.47-18.75-8.64-13.65-16.59C234.58,87.68,250.19,78.13,258.65,81.07Z"/><path class="cls-1" d="M352.45,58.54c3,.29,6.25,1.22,7.22,3.39s-.85,4.51-3,6.08c-5.46,3.9-20.58,7.06-24.62.23C327.1,60,346,57.91,352.45,58.54Z"/><path class="cls-1" d="M340.68,165c1.05,2.23,4.09,3.58,7.13,3.9a33.13,33.13,0,0,0,9.14-.72,27.46,27.46,0,0,0,6.61-1.73c2-.93,3.69-2.48,3.88-4.28.34-3.22-3.94-5.5-7.9-6.5-16-4-32,3.21-47,7.19-17,4.53-.48,14.15,11.12,12.51a27.42,27.42,0,0,0,10.46-3.69C335.54,170.83,341.46,166.68,340.68,165Z"/><path class="cls-1" d="M414.82,176.55a20.37,20.37,0,0,0,7.38-.93c2.27-.86,4.12-2.66,4-4.6-.53-6.72-16.29-7.93-22.21-5.29-3.13,1.39-4.51,3.46-3,6.08C403.3,175.75,409.88,176.49,414.82,176.55Z"/><path class="cls-1" d="M527.35,180.67c.16,1.29,2,2,3.58,2.34a58.36,58.36,0,0,0,30-1.17,12.39,12.39,0,0,0,3.72-1.69,3.12,3.12,0,0,0,1.46-3c-1-4.31-15.66-4.86-20.27-4.62C541.44,172.74,526.86,176.51,527.35,180.67Z"/><path class="cls-1" d="M592.65,169.81a11.89,11.89,0,0,0-3.57,1.41,2.43,2.43,0,0,0-1.25,2.77c.55,1.35,2.69,1.82,4.52,1.89a25.59,25.59,0,0,0,8.24-1,5.38,5.38,0,0,0,2.32-1.18c1.16-1.22.35-3-1-4.07a9.6,9.6,0,0,0-6.49-1.75,8.9,8.9,0,0,0-5.91,2.8"/><path class="cls-2" d="M888.9,41.41c3.37-1.88,7.61-2.53,11.74-2.81,5.5-.36,11.31-.07,16,2.09s8,6.6,6.58,10.73-8.6,6.78-13,4.23c1.52.88-7.17,7.77-8,8.29a30.12,30.12,0,0,1-13.5,4.27c-7.69.55-13.71-1.89-17.72-6.86-2.51-3.12-5.21-8.52-2.93-12.2,3.25-5.24,12.1-3.45,16,.36C883.52,46.36,885.57,43.26,888.9,41.41Z"/><path class="cls-1" d="M535.07,85.84c-4.54,5.07-12.23,8.38-20.15,8.68,3.53-.13,10-8.43,11.64-10.54,3.58-4.5,5-9.12,7.28-14,2.38-5.17,4.44-3.67,5.52,1.28A16.77,16.77,0,0,1,535.07,85.84Z"/><path class="cls-1" d="M609.71,107.87c-3.46,9.65-17.68,16.23-30.23,14-4.75,6-15.75,8.35-23.7,5.15,3.56,3.84,10.15,5.42,16.29,5.16s12-2.06,17.73-3.85l24-7.49c7.69-2.4,15.81-4.92,21.88-9.45,3.84-2.87,12-12.66,7-16.85-4.35-3.59-10.52,2.13-13.35,4.56s-5.2,4.72-9,6.37C619.49,105.82,609.62,108.12,609.71,107.87Z"/><path class="cls-3" d="M280.41,203.94a13.76,13.76,0,0,1,1.81,5.77c.64,9.87-12.51,17.94-25.3,18.21s-24.54-5.24-34.05-11.76c-4.65-3.19-9.25-6.78-15.27-8-11.09-2.3-22.1,4.1-33.56,5.05-15.4,1.27-30.48-9.23-30.41-21.19-11.17,2.8-23.75,3.15-34.21-.81A31,31,0,0,1,98.3,184.1c-8.51,4.7-19.42,7.14-29.34,5-10.86-2.38-19.33-11.24-16.85-19.8-4.22,9.57-18.94,15.61-31.46,12.9S-.16,168.45,2.93,158.63c1.9-6,7.92-11,15.25-13.55,17.39,13.22,44.86,19.06,68,11.83,12.13,18.56,47.73,24.61,69.27,11.76,14.24,28.52,64.66,41.66,98.89,25.76A134.07,134.07,0,0,0,281,203.79Z"/><path class="cls-3" d="M1132.59,135.22c-7.37,8.56-20,13.58-32.83,16.37-19.16,4.17-40.93,4.62-55.77,14.93-9.35,6.49-16.62,17-29.1,17.16-7.26.1-13.81-3.63-21.06-3.72-14.44-.18-23.05,13.16-36.74,16.86-9.22,2.5-19.23.24-28.93-.28-37.25-2-70.92,21.75-108.23,20.46-9.09-.31-18.39-2.29-25.1-7a21.67,21.67,0,0,1-2.74-2.26l-43.56,7.49c-14.89,2.56-30.73,5.08-45,1.13-11-3-20.11-9.73-31.63-11.25-21.64-2.86-39.59,13-60.56,18.34-27.55,7-57-4.84-85.86-2.91-18.16,1.21-34.94,7.82-52.15,12.58s-36.85,7.62-53.16,1.52c-8.12-3-14.89-8.14-23.49-10.25-14.47-3.57-29.88,2.05-45,3.54-23.84,2.33-48.63-6.83-61.5-22.28,31.6,5.52,66.27,1.47,93.93-12.07,28.84,20.15,73.45,16.23,112.08,11.09,104.54-3.4,208.9-11.31,312.44-23.69,23.11,14.59,60.44,13.43,82.45-2.56,24.36,6.32,54-2.88,66.29-20.54,37.95,9.32,83.84-12,91.26-42.44,14.88,5.68,34.11.26,43.75-10,2.17,2.41,4.23,4.88,6.26,7.32,3.31-9.93,22.58-12.74,32.15-5.77S1140,126.65,1132.59,135.22Z"/><path class="cls-3" d="M1092.36,105.33c2.1,2.34,4.1,4.73,6.07,7.1-12.75,16.1-35.78,30.66-54.64,40.62-30.27,16-71.75,15.58-100.41,33.27C954.79,178,963,167,966.5,155.16c1.42-4.73,1.5-10.69-3.8-13.23,9.39-4.92,16.29-12.63,18.9-21.14,1.41-4.6,1.51-9.68-1.47-13.77a15,15,0,0,0-15.44-5,14.56,14.56,0,0,0-1.45-17.13c-4.17-5-11.82-8.11-19.56-8-.68-11.51-9.4-22.47-22.34-28.09s-29.67-5.73-42.89-.26A33.09,33.09,0,0,0,882.71,12a22.19,22.19,0,0,1,10.44,3.21c7.52,4.93,10.15,12.9,12.15,20.38C912.86,30,924,27.4,934.23,28.85s19.3,6.94,23.58,14.25c2.29,3.93,3.54,8.58,8,11.11,3,1.68,6.82,2.07,10.28,3.07a27.13,27.13,0,0,1,14.63,10.48,22.9,22.9,0,0,1,4.13,11.65,36.57,36.57,0,0,1,4.07.08c12.5,1,23.68,8.25,27.15,17.56,4.78-11.81,25.71-15.59,40.17-10.51.9.32,1.9.66,3,1,0,0,0,0,0,0,8.12,3.47,14.56,8.8,20.21,14.68C1090.48,103.27,1091.43,104.29,1092.36,105.33Z"/><path class="cls-1" d="M653.32,136c3.32-1.51,7.21-2,11-2.43a14.8,14.8,0,0,1,5.9.1,6.18,6.18,0,0,1,4.35,5.61c.28,4.94-4.85,9.75-11.19,10.5C653.64,150.88,641.74,141.2,653.32,136Z"/></svg>