<svg id="Layer_1" data-name="Layer 1" xmlns="http://www.w3.org/2000/svg" xmlns:xlink="http://www.w3.org/1999/xlink" viewBox="0 0 608.17 672"><defs><style>.cls-1{fill:none;}.cls-2{clip-path:url(#clip-path);}.cls-3{opacity:0.53;}.cls-4{fill:#27257a;}.cls-5{fill:#5645af;}.cls-6{fill:#702899;}.cls-7{fill:#205975;stroke:#005aa1;stroke-miterlimit:10;stroke-width:0.39px;}.cls-8{opacity:0.4;}.cls-9{fill:#232329;}.cls-10{fill:#333338;}.cls-11{fill:#171717;}.cls-12{fill:#9fb2d0;}.cls-13{fill:#bdc3de;}.cls-14{fill:#5e5e5e;}.cls-15{fill:#a9b8d7;}.cls-16{fill:#d8d6d6;}.cls-17{fill:#eae8e8;}.cls-18{fill:#aaa;}.cls-19{fill:#e08cba;}.cls-20{fill:#f29ccb;}.cls-21{fill:#fea5d3;}.cls-22{fill:#db5d5d;}.cls-23{fill:#680707;}.cls-24{fill:#891f1f;}.cls-25{fill:#e85454;}.cls-26{fill:#ff7773;}.cls-27{fill:#b53535;}.cls-28{fill:#90a3bf;}.cls-29{fill:#fff;}.cls-30{fill:#0e70e5;}.cls-31{fill:#3f8cfc;}.cls-32{fill:#011230;}.cls-33{fill:#0457aa;}</style><clipPath id="clip-path"><rect class="cls-1" x="-76.32" y="-230.74" width="1600" height="900"/></clipPath></defs><g id="SC_29-2" data-name="SC_29"><g class="cls-2"><polygon class="cls-3" points="528.44 484.2 310.56 470.12 310.56 470.04 309.95 470.08 309.34 470.04 309.34 470.12 102.06 500.09 3.52 582.72 116.34 683.38 309.34 683.38 310.56 683.38 507.65 683.38 606.19 596.24 528.44 484.2"/><polygon class="cls-4" points="325.21 541.51 322.3 545.23 319.38 541.51 62.27 497.05 62.27 572.75 135.7 622.19 321.99 622.19 322.61 622.19 508.6 622.19 581.91 580.75 581.91 497.05 325.21 541.51"/><polygon class="cls-5" points="510.09 424.16 322.61 415.58 322.61 415.53 322.09 415.55 321.57 415.53 321.57 415.58 134.09 424.16 62.27 497.05 135.7 545.62 321.57 545.62 322.61 545.62 508.48 545.62 581.91 497.05 510.09 424.16"/><path class="cls-6" d="M508.48,557.79H135.7s-73.43-47.76-73.43-49v7.39l71.82,49v57h2.62v-57H510.09l71.82-49v-7.39C581.91,510,508.48,557.79,508.48,557.79Z"/><polygon class="cls-6" points="510.09 565.18 510.09 622.19 507.47 622.19 507.47 563.67 510.09 565.18"/><polygon class="cls-7" points="137.92 622.01 174.39 575.96 212.16 622.5 137.92 622.01"/><polygon class="cls-7" points="211.91 622.27 248.38 576.21 286.15 622.76 211.91 622.27"/><polygon class="cls-7" points="285.9 622.52 322.37 576.47 360.14 623.01 285.9 622.52"/><polygon class="cls-7" points="359.88 622.78 396.35 576.72 434.13 623.27 359.88 622.78"/><polygon class="cls-7" points="433.87 623.03 470.34 576.98 508.12 623.52 433.87 623.03"/><polygon class="cls-7" points="510.36 621.04 528.88 565.62 541.54 600.26 510.36 621.04"/><polygon class="cls-7" points="133.98 621.04 118.97 562.16 102.81 600.26 133.98 621.04"/><polygon class="cls-7" points="102.81 600.26 87.8 541.38 71.64 579.47 102.81 600.26"/><polygon class="cls-7" points="71.64 579.47 62.4 535.6 62.4 572.55 71.64 579.47"/><ellipse class="cls-8" cx="332.04" cy="493" rx="161.23" ry="32.02"/></g></g></svg>