<svg id="Layer_1" data-name="Layer 1" xmlns="http://www.w3.org/2000/svg" viewBox="0 0 43.76 43.91"><defs><style>.cls-1{fill:#ff0;stroke:#e2d600;stroke-width:1.35px;}.cls-1,.cls-3{stroke-miterlimit:10;}.cls-2{fill:#d6ad00;}.cls-3{fill:#e52d03;stroke:#871300;stroke-width:1.43px;}.cls-4{fill:#fff;opacity:0.82;}</style></defs><path class="cls-1" d="M19.59,16.72s-2.95-10.21-7-11.48C8.26,3.86,6.7,7.76,7.08,11.07c0,0-6.16,1-5,6.1C2.89,20.53,6,19.9,9.18,20.29s7,1.1,7,1.1A9,9,0,0,1,19.59,16.72Z"/><path class="cls-1" d="M16.39,21.35S6,19,3,22.46,2.3,29,5.37,30.14c0,0-2.13,6,2.9,7.29,3.31.82,4.5-2.4,6.38-5.08s4.13-5.76,4.13-5.76A8.78,8.78,0,0,1,16.39,21.35Z"/><path class="cls-1" d="M25.55,16.88S33.73,8.9,31,4.75C28.43.94,25.6,1.23,23.13,3.39c0,0-4.25-4.56-7.74-.74-2.29,2.5.31,4.53,1.75,7.36a57.75,57.75,0,0,1,2.7,6.6A8.78,8.78,0,0,1,25.55,16.88Z"/><path class="cls-1" d="M27.79,22.2S38.64,25.08,41,21.34s.61-6.38-2.44-7.56c0,0,2-5.74-3-7.19-4.3-1.27-3.86,2.38-5.7,5A56.76,56.76,0,0,1,25.36,17,8.82,8.82,0,0,1,27.79,22.2Z"/><path class="cls-1" d="M18.89,26.92s-7.73,8.14-5.61,12,5.31,3.59,7.81,1.48c0,0,4.18,4.62,7.73.86,2.33-2.47-.23-4.53-1.63-7.39a57.05,57.05,0,0,1-2.6-6.64A8.8,8.8,0,0,1,18.89,26.92Z"/><path class="cls-1" d="M24.56,26.93S27.43,37.78,31.86,38s5.85-2.62,5.37-5.86c0,0,6.13-1.13,4.79-6.12-.87-3.28-4-2.19-7.14-2.5a57.27,57.27,0,0,1-7-1.28A8.82,8.82,0,0,1,24.56,26.93Z"/><path class="cls-2" d="M15.84,19.63s-6.55-.2-8.94-4.57c0,0,6.16,4.17,9.34,3.77Z"/><path class="cls-2" d="M18.29,16.64S14.43,11,9.45,11.05c0,0,6.69,3.27,7.92,6.22Z"/><path class="cls-2" d="M16.44,18.24s-4.79-2.39-5.38-3.18c0,0,5.38,2.78,5.78,2.78Z"/><path class="cls-2" d="M21.1,15.55s-2.55-6.44.43-10.43c0,0-1.23,7.34.46,10.07Z"/><path class="cls-2" d="M24.61,16.06s3.8-5.8,1.63-10.28c0,0-.19,7.43-2.36,9.79Z"/><path class="cls-2" d="M22.61,15.52s.18-5.75.66-6.61c0,0-.3,6.05-.13,6.41Z"/><path class="cls-2" d="M19.43,27.87s-4.07,5.31-1.62,9.92c0,0,.18-7.47,2.6-9.74Z"/><path class="cls-2" d="M23.57,28.2s2.88,6.19-.45,10.06c0,0,1.35-7.32-.55-10.13Z"/><path class="cls-2" d="M21.09,28.27s-.93,5.27-.58,6.23c0,0,.94-6,1.2-6.3Z"/><path class="cls-2" d="M26.08,26.65S28.21,33,33.4,33.53c0,0-6.09-4.32-6.62-7.6Z"/><path class="cls-2" d="M28.35,23.53s7.06.93,8.41,5.85c0,0-5.32-5.21-8.71-5.2Z"/><path class="cls-2" d="M27.33,25.49s3.86,3.71,4.85,4c0,0-4.44-4.12-4.56-4.51Z"/><path class="cls-2" d="M28.45,21.17S35,22.33,38,18c0,0-6.7,3.28-9.84,2.18Z"/><path class="cls-2" d="M26.83,17.34S31,11.93,36,13.09c0,0-7.12,2.18-8.74,5.17Z"/><path class="cls-2" d="M28,19.51s5.11-1.61,5.8-2.36c0,0-5.75,1.93-6.14,1.84Z"/><path class="cls-2" d="M17,26.12S13.37,31.73,8.21,31c0,0,7-2.67,8.29-5.72Z"/><path class="cls-2" d="M15.71,22.39S8.51,21.68,6,26.12c0,0,6.44-3.73,9.73-2.88Z"/><path class="cls-2" d="M16.08,24.69s-4.66,2.64-5.68,2.63c0,0,5.32-2.89,5.53-3.24Z"/><circle class="cls-3" cx="22" cy="21.82" r="6.36"/><path class="cls-4" d="M20.69,17.27A5.3,5.3,0,0,1,25.81,20c.81,1.43,1.76,3.77-.63,6.16a4.88,4.88,0,0,0,1.59-6.76A4.41,4.41,0,0,0,20.69,17.27Z"/></svg>