<svg id="Layer_1" data-name="Layer 1" xmlns="http://www.w3.org/2000/svg" viewBox="0 0 289.11 68.85"><defs><style>.cls-1{fill:#666;}</style></defs><g id="color"><path class="cls-1" d="M215.29,40.21a3.46,3.46,0,0,0-2.65-2.76,4.08,4.08,0,0,0,1.59-1.37,6,6,0,0,0,1-5.09A5.69,5.69,0,0,0,212,27.72a7.47,7.47,0,0,0-.35-4.93,5.11,5.11,0,0,0-3.25-2.54c-1.74-.51-2.86-.28-3.64.3a4,4,0,0,0-.65-1.85c-1.28-1.92-2.73-3-4.32-3.21a5.47,5.47,0,0,0-4.07,1.3,7.52,7.52,0,0,0-4.62-2h0a4.91,4.91,0,0,0-3.66,1.76,3.53,3.53,0,0,0-1.08,2.85,4.88,4.88,0,0,0-1-.46,4.65,4.65,0,0,0-4.59.61,6.54,6.54,0,0,0-1.92,5.34,7.53,7.53,0,0,0-4.28,2.73,5,5,0,0,0-.63,4.1,3.92,3.92,0,0,0,3.27,3.22A5.3,5.3,0,0,0,175,36.35a5.22,5.22,0,0,0-1.46,4.78,6.13,6.13,0,0,0,3.52,3.78,7.63,7.63,0,0,0,.35,5.2,4.77,4.77,0,0,0,3.24,2.36,4.84,4.84,0,0,0,1.2.16,4.06,4.06,0,0,0,2.92-1.28,4.11,4.11,0,0,0,.44,2.31,5.9,5.9,0,0,0,4,3.35,5.67,5.67,0,0,0,4.42-1.26,7.49,7.49,0,0,0,4.61,2.1h.05a4.9,4.9,0,0,0,3.64-1.7,3.46,3.46,0,0,0,1-3.47,3.85,3.85,0,0,0,1.48.41H205a5.59,5.59,0,0,0,4.35-1.62,5.66,5.66,0,0,0,1.25-4.43,7.45,7.45,0,0,0,4.21-2.81A4.89,4.89,0,0,0,215.29,40.21Z"/><path class="cls-1" d="M163.14,40.21a3.46,3.46,0,0,0-2.65-2.76,4.05,4.05,0,0,0,1.58-1.37A6,6,0,0,0,163.12,31a5.69,5.69,0,0,0-3.24-3.27,7.42,7.42,0,0,0-.36-4.93,5.07,5.07,0,0,0-3.24-2.54c-1.74-.51-2.86-.28-3.64.3A4.16,4.16,0,0,0,152,18.7c-1.28-1.92-2.73-3-4.32-3.21a5.46,5.46,0,0,0-4.07,1.3,7.52,7.52,0,0,0-4.62-2h0a4.91,4.91,0,0,0-3.66,1.76,3.57,3.57,0,0,0-1.09,2.85,4.54,4.54,0,0,0-.94-.46,4.65,4.65,0,0,0-4.59.61,6.58,6.58,0,0,0-1.93,5.34,7.51,7.51,0,0,0-4.27,2.73,5,5,0,0,0-.64,4.09,3.94,3.94,0,0,0,3.28,3.23,5.3,5.3,0,0,0-2.24,1.44c-1.71,2-1.74,3.69-1.46,4.78a6.1,6.1,0,0,0,3.52,3.78,7.63,7.63,0,0,0,.35,5.2,4.77,4.77,0,0,0,3.24,2.36,4.84,4.84,0,0,0,1.2.16,4.06,4.06,0,0,0,2.92-1.28,4.11,4.11,0,0,0,.44,2.31,5.88,5.88,0,0,0,4,3.35,5.67,5.67,0,0,0,4.42-1.26,7.46,7.46,0,0,0,4.61,2.1h0a4.92,4.92,0,0,0,3.64-1.7,3.46,3.46,0,0,0,1-3.47,3.85,3.85,0,0,0,1.48.41h.58a5.59,5.59,0,0,0,4.35-1.62,5.7,5.7,0,0,0,1.25-4.43,7.48,7.48,0,0,0,4.21-2.81A4.89,4.89,0,0,0,163.14,40.21Z"/><path class="cls-1" d="M111.7,40.21A3.46,3.46,0,0,0,109,37.45a4,4,0,0,0,1.59-1.37A6,6,0,0,0,111.68,31a5.72,5.72,0,0,0-3.24-3.27,7.42,7.42,0,0,0-.36-4.93,5.06,5.06,0,0,0-3.25-2.54c-1.74-.51-2.85-.28-3.63.3a4.16,4.16,0,0,0-.65-1.85c-1.28-1.92-2.73-3-4.32-3.21a5.46,5.46,0,0,0-4.07,1.3,7.52,7.52,0,0,0-4.62-2h0a4.91,4.91,0,0,0-3.66,1.76,3.57,3.57,0,0,0-1.09,2.85,4.8,4.8,0,0,0-.94-.46,4.65,4.65,0,0,0-4.59.61,6.55,6.55,0,0,0-1.93,5.34A7.56,7.56,0,0,0,71,27.59a5,5,0,0,0-.63,4.09,3.94,3.94,0,0,0,3.28,3.23,5.3,5.3,0,0,0-2.24,1.44c-1.71,2-1.74,3.69-1.46,4.78a6.1,6.1,0,0,0,3.52,3.78,7.63,7.63,0,0,0,.35,5.2,4.77,4.77,0,0,0,3.24,2.36,4.84,4.84,0,0,0,1.2.16,4.06,4.06,0,0,0,2.92-1.28,4.11,4.11,0,0,0,.44,2.31,5.88,5.88,0,0,0,4,3.35A5.67,5.67,0,0,0,90,55.75a7.46,7.46,0,0,0,4.61,2.1h0a4.92,4.92,0,0,0,3.64-1.7,3.46,3.46,0,0,0,1-3.47,3.85,3.85,0,0,0,1.48.41h.58a5.59,5.59,0,0,0,4.35-1.62A5.7,5.7,0,0,0,107,47.05a7.48,7.48,0,0,0,4.21-2.81A4.89,4.89,0,0,0,111.7,40.21Z"/><path class="cls-1" d="M162.92,40.21a3.46,3.46,0,0,0-2.65-2.76,4.05,4.05,0,0,0,1.58-1.37A6,6,0,0,0,162.9,31a5.72,5.72,0,0,0-3.24-3.27,7.42,7.42,0,0,0-.36-4.93,5.07,5.07,0,0,0-3.24-2.54c-1.75-.51-2.86-.28-3.64.3a4.16,4.16,0,0,0-.65-1.85c-1.28-1.92-2.73-3-4.32-3.21a5.46,5.46,0,0,0-4.07,1.3,7.52,7.52,0,0,0-4.62-2h0a4.91,4.91,0,0,0-3.66,1.76A3.57,3.57,0,0,0,134,19.37a4.8,4.8,0,0,0-.94-.46,4.65,4.65,0,0,0-4.59.61,6.58,6.58,0,0,0-1.93,5.34,7.51,7.51,0,0,0-4.27,2.73,5,5,0,0,0-.64,4.1,3.94,3.94,0,0,0,3.28,3.22,5.3,5.3,0,0,0-2.24,1.44c-1.71,2-1.74,3.69-1.46,4.78a6.1,6.1,0,0,0,3.52,3.78,7.63,7.63,0,0,0,.35,5.2,4.77,4.77,0,0,0,3.24,2.36,4.84,4.84,0,0,0,1.2.16,4.06,4.06,0,0,0,2.92-1.28,4.11,4.11,0,0,0,.44,2.31,5.88,5.88,0,0,0,4,3.35,5.67,5.67,0,0,0,4.42-1.26,7.46,7.46,0,0,0,4.61,2.1h0a4.92,4.92,0,0,0,3.64-1.7,3.46,3.46,0,0,0,1-3.47,3.85,3.85,0,0,0,1.48.41h.58A5.59,5.59,0,0,0,157,51.48a5.7,5.7,0,0,0,1.25-4.43,7.48,7.48,0,0,0,4.21-2.81A4.89,4.89,0,0,0,162.92,40.21Z"/><path class="cls-1" d="M60.26,40.21a3.46,3.46,0,0,0-2.66-2.76,4,4,0,0,0,1.59-1.37,5.91,5.91,0,0,0,1-5.09A5.68,5.68,0,0,0,57,27.72a7.42,7.42,0,0,0-.36-4.93,5.06,5.06,0,0,0-3.25-2.54c-1.74-.51-2.85-.28-3.63.3a4.16,4.16,0,0,0-.65-1.85c-1.28-1.92-2.73-3-4.32-3.21a5.46,5.46,0,0,0-4.07,1.3,7.52,7.52,0,0,0-4.62-2h0a4.91,4.91,0,0,0-3.66,1.76,3.57,3.57,0,0,0-1.09,2.85,4.8,4.8,0,0,0-.94-.46,4.64,4.64,0,0,0-4.59.61,6.55,6.55,0,0,0-1.93,5.34,7.56,7.56,0,0,0-4.28,2.73A5,5,0,0,0,19,31.68a3.94,3.94,0,0,0,3.28,3.23A5.3,5.3,0,0,0,20,36.35c-1.71,2-1.74,3.69-1.46,4.78a6.1,6.1,0,0,0,3.52,3.78,7.63,7.63,0,0,0,.35,5.2,4.77,4.77,0,0,0,3.24,2.36,4.84,4.84,0,0,0,1.2.16,4.06,4.06,0,0,0,2.92-1.28,4.11,4.11,0,0,0,.44,2.31,5.88,5.88,0,0,0,4,3.35,5.67,5.67,0,0,0,4.42-1.26,7.46,7.46,0,0,0,4.61,2.1h0a4.92,4.92,0,0,0,3.64-1.7,3.46,3.46,0,0,0,1-3.47,3.85,3.85,0,0,0,1.47.41H50a5.61,5.61,0,0,0,4.35-1.62,5.7,5.7,0,0,0,1.25-4.43,7.48,7.48,0,0,0,4.21-2.81A4.89,4.89,0,0,0,60.26,40.21Z"/><path class="cls-1" d="M268.16,40.21a3.47,3.47,0,0,0-2.66-2.76,4,4,0,0,0,1.59-1.37,5.91,5.91,0,0,0,1-5.09,5.71,5.71,0,0,0-3.23-3.27,7.42,7.42,0,0,0-.36-4.93,5.09,5.09,0,0,0-3.25-2.54c-1.74-.51-2.85-.28-3.63.3A4.05,4.05,0,0,0,257,18.7c-1.27-1.92-2.73-3-4.31-3.21a5.49,5.49,0,0,0-4.08,1.3,7.49,7.49,0,0,0-4.61-2h0a4.87,4.87,0,0,0-3.65,1.76,3.54,3.54,0,0,0-1.09,2.85,5,5,0,0,0-5.53.15,6.55,6.55,0,0,0-1.93,5.34,7.56,7.56,0,0,0-4.28,2.73,5,5,0,0,0-.63,4.09,3.94,3.94,0,0,0,3.28,3.23,5.3,5.3,0,0,0-2.24,1.44c-1.71,2-1.74,3.69-1.46,4.78A6.07,6.07,0,0,0,230,44.91a7.62,7.62,0,0,0,.34,5.2,5.38,5.38,0,0,0,4.45,2.52,4.1,4.1,0,0,0,2.92-1.28,4.11,4.11,0,0,0,.44,2.31,5.88,5.88,0,0,0,4,3.35,5.69,5.69,0,0,0,4.42-1.26,7.46,7.46,0,0,0,4.61,2.1h.05a4.88,4.88,0,0,0,3.63-1.7,3.45,3.45,0,0,0,1-3.47,3.85,3.85,0,0,0,1.47.41h.58a5.62,5.62,0,0,0,4.36-1.62,5.7,5.7,0,0,0,1.25-4.43,7.46,7.46,0,0,0,4.2-2.81A4.89,4.89,0,0,0,268.16,40.21Z"/></g></svg>