<svg id="Layer_1" data-name="Layer 1" xmlns="http://www.w3.org/2000/svg" xmlns:xlink="http://www.w3.org/1999/xlink" viewBox="0 0 1600 900"><defs><style>.cls-1{fill:none;}.cls-2{clip-path:url(#clip-path);}.cls-3{fill:#9357f2;}.cls-4{fill:#ededed;}.cls-5{fill:#9c2eb7;}.cls-6{fill:#d43af9;}.cls-7{fill:#e556f4;}.cls-8{fill:#e2d100;}.cls-11,.cls-12,.cls-13,.cls-9{opacity:0.7;}.cls-10,.cls-14{fill:#ff9700;}.cls-11{fill:#e20000;}.cls-12{fill:#e0d500;}.cls-13{fill:url(#linear-gradient);}.cls-14{opacity:0.8;}.cls-15{fill:url(#linear-gradient-2);}.cls-16{fill:url(#linear-gradient-3);}.cls-17{fill:url(#linear-gradient-4);}.cls-18{fill:#dd005a;}.cls-19{fill:url(#linear-gradient-5);}.cls-20{fill:url(#linear-gradient-6);}.cls-21{fill:url(#linear-gradient-7);}.cls-22{fill:url(#linear-gradient-8);}.cls-23{fill:url(#linear-gradient-9);}.cls-24{fill:url(#linear-gradient-10);}</style><clipPath id="clip-path"><rect class="cls-1" width="1600" height="900"/></clipPath><linearGradient id="linear-gradient" x1="1040.49" y1="143.57" x2="1087.42" y2="143.57" gradientTransform="matrix(-0.31, 0.95, -0.95, -0.31, 1267.42, -418.87)" gradientUnits="userSpaceOnUse"><stop offset="0" stop-color="#a7c527"/><stop offset="1" stop-color="#bded57"/></linearGradient><linearGradient id="linear-gradient-2" x1="1150.81" y1="-130.58" x2="1147.03" y2="-117.66" gradientTransform="translate(1041.36 -474.56) rotate(90)" gradientUnits="userSpaceOnUse"><stop offset="0" stop-color="#47b7d4"/><stop offset="1" stop-color="#47d8e8"/></linearGradient><linearGradient id="linear-gradient-3" x1="1054.48" y1="-19.35" x2="1073.27" y2="-19.35" gradientTransform="matrix(-1, -0.08, -0.08, 1, 1702.46, 409.57)" xlink:href="#linear-gradient-2"/><linearGradient id="linear-gradient-4" x1="978.66" y1="1114.22" x2="996.41" y2="1114.22" gradientTransform="matrix(0.94, -0.35, -0.35, -0.94, 269, 1596.27)" gradientUnits="userSpaceOnUse"><stop offset="0" stop-color="#fbb040"/><stop offset="0.27" stop-color="#fbb43f"/><stop offset="0.52" stop-color="#fbbf3d"/><stop offset="0.76" stop-color="#fad238"/><stop offset="0.99" stop-color="#f9ec32"/><stop offset="1" stop-color="#f9ed32"/></linearGradient><linearGradient id="linear-gradient-5" x1="449.63" y1="352.94" x2="463.8" y2="352.94" gradientTransform="translate(734.19 802.19) rotate(-48.82)" xlink:href="#linear-gradient"/><linearGradient id="linear-gradient-6" x1="1189.42" y1="-330.44" x2="1206.39" y2="-330.44" gradientTransform="translate(1932.46 869.81) rotate(-155.7)" xlink:href="#linear-gradient"/><linearGradient id="linear-gradient-7" x1="1054.07" y1="-106.3" x2="1063.25" y2="-106.3" gradientTransform="translate(1722.77 -592.16) rotate(139.06)" xlink:href="#linear-gradient-4"/><linearGradient id="linear-gradient-8" x1="640.28" y1="-631.9" x2="652.92" y2="-631.9" gradientTransform="translate(1145.9 1257.83) rotate(-85.05)" xlink:href="#linear-gradient-4"/><linearGradient id="linear-gradient-9" x1="764.97" y1="-179.51" x2="801.47" y2="-179.51" xlink:href="#linear-gradient"/><linearGradient id="linear-gradient-10" x1="735.12" y1="831.47" x2="754.13" y2="831.47" gradientTransform="matrix(0.03, 1, 1, -0.03, 436.28, -390.44)" xlink:href="#linear-gradient"/></defs><g id="SC_29"><g class="cls-2"><polygon class="cls-3" points="895.73 125.56 926.73 220.75 890.6 127.39 895.73 125.56"/><polygon class="cls-3" points="696.17 210.63 786.2 281.81 692.9 214.97 696.17 210.63"/><polygon class="cls-3" points="890.6 769.89 926.72 676.53 895.73 771.72 890.6 769.89"/><polygon class="cls-3" points="1119.96 771.72 1088.97 676.53 1125.09 769.89 1119.96 771.72"/><polygon class="cls-3" points="1322.79 214.97 1229.46 281.81 1319.51 210.63 1322.79 214.97"/><polygon class="cls-3" points="1125.09 127.39 1088.96 220.75 1119.96 125.56 1125.09 127.39"/><polygon class="cls-4" points="734.71 770.14 736.81 754.59 721.98 749.47 737.42 746.66 737.71 730.97 745.15 744.79 760.16 740.22 749.32 751.56 758.31 764.43 744.17 757.62 734.71 770.14"/><polygon class="cls-4" points="1259.4 790.01 1247.07 780 1234.83 790.12 1240.54 775.3 1227.13 766.79 1242.99 767.64 1246.94 752.26 1251.04 767.6 1266.88 766.61 1253.56 775.24 1259.4 790.01"/><polygon class="cls-4" points="919.57 249.14 912.67 243 905.3 248.56 909 240.1 901.43 234.81 910.62 235.72 913.32 226.88 915.3 235.9 924.53 235.74 916.56 240.41 919.57 249.14"/><path class="cls-4" d="M1519.26,276.92a3.37,3.37,0,1,1-3.37-3.37A3.37,3.37,0,0,1,1519.26,276.92Z"/><path class="cls-4" d="M647.27,765.85a6.18,6.18,0,1,1-6.18-6.17A6.18,6.18,0,0,1,647.27,765.85Z"/><circle class="cls-4" cx="427.76" cy="209.5" r="5.06"/><polygon class="cls-5" points="1476.93 392.15 1466.15 391.44 1463.34 401.87 1460.68 391.4 1449.89 391.94 1459.03 386.18 1455.18 376.1 1463.48 383 1471.88 376.22 1467.88 386.25 1476.93 392.15"/><polygon class="cls-6" points="1018.02 691.71 1008.25 688.09 1002.78 696.96 1003.2 686.54 993.07 684.08 1003.11 681.26 1002.32 670.88 1008.1 679.55 1017.74 675.59 1011.27 683.76 1018.02 691.71"/><polygon class="cls-5" points="556.6 260.8 543.44 251 531.25 261.97 536.5 246.44 522.3 238.24 538.7 238.43 542.11 222.39 547 238.04 563.31 236.33 549.93 245.81 556.6 260.8"/><path class="cls-5" d="M1472.22,601.66a5.06,5.06,0,1,1-5.06-5.06A5.06,5.06,0,0,1,1472.22,601.66Z"/><path class="cls-5" d="M1533.82,486.14a6.18,6.18,0,1,1-6.18-6.18A6.18,6.18,0,0,1,1533.82,486.14Z"/><path class="cls-5" d="M795.79,121.79a3.93,3.93,0,1,0,3.93-3.93A3.93,3.93,0,0,0,795.79,121.79Z"/><polygon class="cls-7" points="1038.45 883.95 1033.04 756.39 1045.38 883.46 1038.45 883.95"/><polygon class="cls-7" points="1506.09 704.61 1362.51 627.51 1509.24 698.43 1506.09 704.61"/><polygon class="cls-7" points="1566.65 492.92 1404.41 477.51 1567.16 485.99 1566.65 492.92"/><polygon class="cls-7" points="1265.83 94.27 1189.43 196.56 1260.16 90.27 1265.83 94.27"/><polygon class="cls-7" points="984.74 13.34 990.14 140.89 977.81 13.82 984.74 13.34"/><polygon class="cls-7" points="710.43 49.35 796.59 167.68 704.92 53.56 710.43 49.35"/><polygon class="cls-7" points="757.37 803.01 833.78 700.73 763.04 807.01 757.37 803.01"/><polygon class="cls-4" points="1001.63 848.79 1029.05 862.47 1047.86 838.28 1043.32 868.58 1072.14 878.99 1041.92 884.04 1040.92 914.66 1026.78 887.48 997.35 896 1018.83 874.15 1001.63 848.79"/><polygon class="cls-4" points="539.13 405.42 535.24 407.79 536.8 412.07 533.35 409.1 529.76 411.91 531.51 407.71 527.74 405.17 532.28 405.53 533.53 401.16 534.58 405.58 539.13 405.42"/><polygon class="cls-4" points="1595.48 438.16 1616.09 437.23 1619.24 416.84 1626.49 436.16 1646.86 432.85 1630.73 445.72 1640.17 464.06 1622.95 452.7 1608.41 467.35 1613.9 447.46 1595.48 438.16"/><polygon class="cls-4" points="1368.07 689.5 1379.72 699.85 1392.17 690.47 1385.92 704.75 1398.69 713.69 1383.18 712.16 1378.62 727.07 1375.29 711.84 1359.7 712.12 1373.15 704.24 1368.07 689.5"/><path class="cls-4" d="M1009.59,731.53a9.49,9.49,0,1,1,9.49,9.49A9.49,9.49,0,0,1,1009.59,731.53Z"/><path class="cls-4" d="M537,636.7a5.69,5.69,0,0,1,5.69-5.69c3.14,0,6.69,2.55,6.69,5.69s-3.55,5.69-6.69,5.69A5.69,5.69,0,0,1,537,636.7Z"/><path class="cls-4" d="M266.43,126.47c-3.83-5.07,1.89-10.78,6.95-6.94l0,0c3.83,5.07-1.88,10.77-6.94,6.94Z"/><path class="cls-4" d="M901.48,83.81a4.74,4.74,0,1,1,4.74,4.74A4.74,4.74,0,0,1,901.48,83.81Z"/><path class="cls-4" d="M1258.06,881.37a9.49,9.49,0,1,1,9.48,9.49A9.49,9.49,0,0,1,1258.06,881.37Z"/><polygon class="cls-8" points="607.46 645.41 625.65 646.61 630.41 629.01 634.89 646.68 653.1 645.76 637.68 655.48 644.18 672.52 630.16 660.86 615.98 672.3 622.73 655.37 607.46 645.41"/><polygon class="cls-8" points="224.41 213.47 236.03 214.23 239.06 202.99 241.93 214.28 253.56 213.69 243.71 219.9 247.86 230.78 238.91 223.33 229.84 230.64 234.16 219.83 224.41 213.47"/><polygon class="cls-8" points="571.76 117.83 552.68 130.28 561.13 151.44 543.39 137.13 525.87 151.71 534 130.42 514.72 118.26 537.48 119.41 543.09 97.33 549.03 119.33 571.76 117.83"/><polygon class="cls-8" points="1023.82 10.67 1040.32 16.77 1049.55 1.8 1048.84 19.38 1065.93 23.54 1049 28.29 1050.33 45.83 1040.57 31.19 1024.3 37.88 1035.2 24.08 1023.82 10.67"/><polygon class="cls-8" points="674.83 863.23 697.03 879.76 717.61 861.25 708.75 887.47 732.72 901.32 705.04 901 699.28 928.08 691.03 901.65 663.49 904.54 686.08 888.53 674.83 863.23"/><path class="cls-8" d="M1537.82,133a7.59,7.59,0,1,1,7.59,7.59A7.58,7.58,0,0,1,1537.82,133Z"/><path class="cls-8" d="M1296.94,76.1a7.59,7.59,0,1,1,7.59,7.59A7.58,7.58,0,0,1,1296.94,76.1Z"/><path class="cls-8" d="M1435.4,15.41A7.59,7.59,0,1,1,1443,23,7.59,7.59,0,0,1,1435.4,15.41Z"/><path class="cls-8" d="M709,62.46a11.38,11.38,0,1,1,11.38,11.38A11.37,11.37,0,0,1,709,62.46Z"/><path class="cls-8" d="M452.91,361.56a4.74,4.74,0,1,1,4.74,4.74A4.75,4.75,0,0,1,452.91,361.56Z"/><path class="cls-8" d="M246.17,519.93a7.59,7.59,0,1,1,7.59,7.59A7.59,7.59,0,0,1,246.17,519.93Z"/><circle class="cls-8" cx="391.27" cy="824.35" r="8.54"/><path class="cls-8" d="M666.65,792.11a10.43,10.43,0,1,1,10.43,10.43A10.43,10.43,0,0,1,666.65,792.11Z"/><path class="cls-8" d="M1490.41,875.56a6.64,6.64,0,1,0-6.64,6.64A6.65,6.65,0,0,0,1490.41,875.56Z"/><g class="cls-9"><path class="cls-10" d="M669.8,588.59a15.41,15.41,0,0,1-1.68-4h0a14.08,14.08,0,0,1-.42-2.39c.08.81.14,1.62.23,2.4a15.61,15.61,0,0,0,.41,2.43h0A15.57,15.57,0,0,0,670,591a9.5,9.5,0,0,0,7.2,4.89l-.23-2.41A9.57,9.57,0,0,1,669.8,588.59Z"/><path class="cls-10" d="M677.81,579.56a12.73,12.73,0,0,1-8.46,5,10.43,10.43,0,0,1-1.14.15h0c-3.48.33-6.62-.61-8.58-2.58a18.44,18.44,0,0,1-5-11.56c.08.8.15,1.6.23,2.41a18.51,18.51,0,0,0,5,11.58,10.71,10.71,0,0,0,8.57,2.56h0c.39,0,.77-.08,1.15-.15a12.79,12.79,0,0,0,8.46-5,5.9,5.9,0,0,0,1.17-3.73c-.07-.79-.14-1.6-.21-2.4A5.94,5.94,0,0,1,677.81,579.56Z"/><path class="cls-10" d="M667.93,584.65c-.09-.78-.15-1.59-.23-2.4a11.49,11.49,0,0,1,.73-5.55,6.8,6.8,0,0,1,5.05-4.31c.21,0,.45-.06.68-.07a4.69,4.69,0,0,1,4.37,2.07,3.7,3.7,0,0,1,.47,1.45h0c0,.4.07.8.1,1.19s.08.81.11,1.21a3.44,3.44,0,0,0-.46-1.44,4.69,4.69,0,0,0-4.36-2.07,5.35,5.35,0,0,0-.7.08,6.81,6.81,0,0,0-5,4.3A11.47,11.47,0,0,0,667.93,584.65Z"/><path class="cls-10" d="M682.87,551.82a10.43,10.43,0,0,0-3-3.56h0a13.44,13.44,0,0,0-10.35-2.46c-.39.07-.77.14-1.16.25a16.13,16.13,0,0,0-8.67,5.78,24.24,24.24,0,0,0-4.44,9.69c-.09.44-.19.89-.27,1.34v0a29.75,29.75,0,0,0-.32,7.63c.08.8.15,1.6.23,2.41a29.69,29.69,0,0,1,.32-7.68v0c.08-.44.17-.87.27-1.3a23.87,23.87,0,0,1,4.43-9.7,16.22,16.22,0,0,1,8.66-5.77,11.74,11.74,0,0,1,1.18-.24,13.46,13.46,0,0,1,10.33,2.43,10.53,10.53,0,0,1,3,3.58,10.16,10.16,0,0,1,1.1,3.83l-.21-2.41A10.62,10.62,0,0,0,682.87,551.82Z"/><path class="cls-10" d="M684,555.65c0,.34,0,.69,0,1v0a9.35,9.35,0,0,1-3.18,6.68,21.18,21.18,0,0,1-10.73,5.14,15.63,15.63,0,0,1-15.06-5.7c-.07-.09-.15-.16-.22-.25-4.48-5.34-6.93-13.19-7.57-20.16.07.81.15,1.6.23,2.41.64,7,3.08,14.82,7.57,20.16a1.23,1.23,0,0,0,.22.24h0a15.6,15.6,0,0,0,15.05,5.71,21.21,21.21,0,0,0,10.74-5.14,9.35,9.35,0,0,0,3.18-6.76V559c0-.3,0-.6-.06-.92Q684.1,556.87,684,555.65Z"/><path class="cls-10" d="M647.5,544.82c-.08-.81-.16-1.6-.23-2.41a34.72,34.72,0,0,1,.1-8,41.67,41.67,0,0,1,4.25-13.87,64.61,64.61,0,0,1,11.08-14.88,42.35,42.35,0,0,1,7.39-5.92,28.64,28.64,0,0,1,8.31-3.59l.23,2.41a28.58,28.58,0,0,0-8.32,3.59,43.2,43.2,0,0,0-7.39,5.92,64.25,64.25,0,0,0-11.06,14.88,41.49,41.49,0,0,0-4.27,13.89A34.55,34.55,0,0,0,647.5,544.82Z"/></g><path class="cls-11" d="M1252.54,154.14a18.43,18.43,0,0,0,3.52,5.92,15.61,15.61,0,0,0,5.32,3.76,25.06,25.06,0,0,0,5.92,1.61c2,.29,4,.36,6,.5s3.91.42,5.84.74a16.85,16.85,0,0,1,4.73,1.45v.1a14.48,14.48,0,0,1-.14,2.53,20.2,20.2,0,0,1-.56,2.54c-.32,1.17-.69,2.32-1.1,3.47s-.92,2.27-1.4,3.42q-1.08,2.63-2.1,5.26a33.75,33.75,0,0,0-1.53,5.15,13.2,13.2,0,0,0,0,5.31,7.54,7.54,0,0,0,2.07,3.74l.42.42.29.28.2.33c.1.16.21.33.31.51a5.85,5.85,0,0,0,3,2.49,8.09,8.09,0,0,0,4.45.21,22.24,22.24,0,0,0,4.82-1.57l2.81-1.38-.13-3.79-2,.82c-1.05.42-2.09.84-3.14,1.19a33.47,33.47,0,0,1-3.23,1,12.3,12.3,0,0,1-5.89.29,5.79,5.79,0,0,1-.6-.12,2.92,2.92,0,0,1-.4-.1c0-.14-.05-.3-.05-.46s0-.44,0-.66a17.17,17.17,0,0,1,1-6.39c.35-1.17.79-2.31,1.23-3.45s.83-2.3,1.29-3.45c.66-1.64,1.34-3.27,1.91-4.93a25.77,25.77,0,0,0,1.21-4.8,11.17,11.17,0,0,0-1-7.21h0a4.26,4.26,0,0,0-.25-.57,5.93,5.93,0,0,0-.25-.61,9.3,9.3,0,0,0-2-3,11.81,11.81,0,0,0-3.08-2.27,23.11,23.11,0,0,0-5.62-1.95l-6.31-1.28c-1.25-.24-2.5-.45-3.75-.66a22.81,22.81,0,0,1-3.89-1.05,20.61,20.61,0,0,1-7-3.9c-.26.16-.51.34-.76.51A.11.11,0,0,0,1252.54,154.14Z"/><path class="cls-12" d="M1513.94,667.61a21.57,21.57,0,0,0,2.91,7.5,18.28,18.28,0,0,0,5.4,5.33,27.74,27.74,0,0,0,6.48,3c2.23.74,4.55,1.21,6.83,1.76s4.41,1.24,6.59,2a19.46,19.46,0,0,1,5.12,2.55v.14a17.12,17.12,0,0,1-.63,2.86,23.83,23.83,0,0,1-1.14,2.8c-.58,1.29-1.24,2.53-1.93,3.79s-1.49,2.44-2.26,3.65c-1.16,1.87-2.29,3.74-3.41,5.63a39.77,39.77,0,0,0-2.76,5.64,15.87,15.87,0,0,0-1.07,6.06,9,9,0,0,0,1.68,4.73,6.55,6.55,0,0,1,.4.55l.28.36.18.41a5.17,5.17,0,0,0,.25.63,6.72,6.72,0,0,0,2.88,3.46,10.39,10.39,0,0,0,5.09,1.1,27.06,27.06,0,0,0,5.83-.91l3.49-1,.59-4.37-2.53.58c-1.29.25-2.54.52-3.83.74s-2.58.41-3.89.52a14.51,14.51,0,0,1-6.83-.8L1537,726a3.43,3.43,0,0,1-.44-.19,3.31,3.31,0,0,1,0-.55c0-.25,0-.5.05-.77a20.47,20.47,0,0,1,2.34-7.14c.63-1.27,1.37-2.5,2.07-3.71s1.42-2.5,2.14-3.74c1.08-1.76,2.16-3.49,3.15-5.27a31.92,31.92,0,0,0,2.31-5.28,13,13,0,0,0,.22-8.48v0a6.8,6.8,0,0,0-.18-.75c0-.24-.12-.49-.15-.74a11.48,11.48,0,0,0-1.7-3.82,12.92,12.92,0,0,0-3.12-3.18,27.45,27.45,0,0,0-6.08-3.35l-7-2.67c-1.38-.49-2.77-1-4.16-1.45a29.59,29.59,0,0,1-4.28-2,24.11,24.11,0,0,1-7.29-5.85c-.32.17-.65.31-1,.47Z"/><path class="cls-13" d="M825.56,554.9c1.5,1.44,1,2.89-1,3.2l-9.95,1.48a8,8,0,0,0-5.43,4l-4.44,9.05c-.91,1.87-2.43,1.87-3.35,0l-4.5-9a8.06,8.06,0,0,0-5.46-3.93l-10-1.43c-2.08-.3-2.55-1.72-1-3.2l7.19-7a8.15,8.15,0,0,0,2.06-6.39l-1.74-9.93c-.36-2.06.87-2.95,2.72-2l8.92,4.67a8.18,8.18,0,0,0,6.73,0l8.91-4.72c1.84-1,3.07-.1,2.73,2l-1.68,9.94a8.07,8.07,0,0,0,2.11,6.38Z"/><path class="cls-14" d="M1230.92,704.72c-1.34,1.75-2.91,1.47-3.51-.67l-2.86-10.3a8.64,8.64,0,0,0-4.88-5.21l-10.13-3.48c-2.09-.72-2.29-2.31-.44-3.52l8.92-5.93a8.62,8.62,0,0,0,3.42-6.24l.19-10.72c0-2.2,1.49-2.88,3.22-1.53l8.39,6.66a8.71,8.71,0,0,0,7,1.34l10.22-3.13c2.13-.65,3.23.52,2.45,2.61l-3.74,10a8.58,8.58,0,0,0,.9,7.08l6.14,8.75c1.27,1.82.5,3.22-1.71,3.14l-10.7-.46a8.62,8.62,0,0,0-6.45,3Z"/><g class="cls-9"><path class="cls-10" d="M1404.73,287a13.45,13.45,0,0,0-6.45-2.72,27.41,27.41,0,0,0-10.88.17,24.32,24.32,0,0,0-6.72,3.25h0s-.09.06-.12.09h0a26.18,26.18,0,0,0-3.85,3.32,19,19,0,0,0-3.63,5.36,14.38,14.38,0,0,0-.71,2l-1,3.64a18.19,18.19,0,0,1,.7-2,19.25,19.25,0,0,1,3.64-5.35,25.71,25.71,0,0,1,4-3.42,24.87,24.87,0,0,1,6.74-3.25,27.22,27.22,0,0,1,10.88-.17,13.41,13.41,0,0,1,6.44,2.71,5.11,5.11,0,0,1,1.63,5.26c0,.16-.07.31-.11.46.33-1.22.65-2.43,1-3.65,0-.15.07-.31.11-.45A5.1,5.1,0,0,0,1404.73,287Z"/><path class="cls-10" d="M1400.08,298.39a13.5,13.5,0,0,1-4.54-.13,23.22,23.22,0,0,1-5.7-1.92,20.61,20.61,0,0,1-7.83-6.14,20.12,20.12,0,0,1-1.4-2.32h0a31.25,31.25,0,0,1-2.3-22.09l-1,3.64a31.2,31.2,0,0,0,2.28,22.07h0a24.44,24.44,0,0,0,1.42,2.35,20.62,20.62,0,0,0,7.82,6.12,23.39,23.39,0,0,0,5.72,1.93,13.67,13.67,0,0,0,4.53.12,7.25,7.25,0,0,0,6.13-5.66l1-3.65A7.27,7.27,0,0,1,1400.08,298.39Z"/><path class="cls-10" d="M1408.64,253.38a16,16,0,0,0-6.45-3.19l-.83-.18a17.79,17.79,0,0,0-6,0,22.07,22.07,0,0,0-9,3.73v0a20.66,20.66,0,0,0-5.47,6,24.42,24.42,0,0,0-2.52,6.11c-.34,1.22-.67,2.43-1,3.65a24.67,24.67,0,0,1,2.53-6.11,20.32,20.32,0,0,1,5.52-6v0a22.16,22.16,0,0,1,9-3.7,17.79,17.79,0,0,1,6,0l.84.18a16.06,16.06,0,0,1,6.45,3.21c3,2.42,4.53,5.19,4.24,7.6a4.7,4.7,0,0,1-.13.63l1-3.64a4.53,4.53,0,0,0,.13-.64C1413.18,258.59,1411.64,255.82,1408.64,253.38Z"/><path class="cls-10" d="M1408.59,265.74a12.65,12.65,0,0,1-7.54.83,17.63,17.63,0,0,1-3.73-1.17c-5-2.2-9.31-6.77-10.87-11.45h0a35.71,35.71,0,0,1-.48-21.62c-.33,1.21-.66,2.44-1,3.65a35.7,35.7,0,0,0,.46,21.5v0c1.54,4.72,5.9,9.35,10.91,11.56a17.25,17.25,0,0,0,3.73,1.16,12.54,12.54,0,0,0,7.53-.83c2.29-1,3.72-2.43,4.17-4.11l1-3.64C1412.3,263.31,1410.87,264.72,1408.59,265.74Z"/><path class="cls-10" d="M1384.91,236l1-3.65c.5-1.83,1.15-3.8,1.94-6a60.43,60.43,0,0,1,11.6-19.2c5.6-6.21,12.07-10.61,18.72-12.71l-1,3.65c-6.66,2.09-13.13,6.48-18.72,12.71A60.59,60.59,0,0,0,1386.84,230C1386.05,232.17,1385.41,234.15,1384.91,236Z"/></g><path class="cls-15" d="M1165.47,681.09a6.73,6.73,0,1,1,6.74-6.74A6.74,6.74,0,0,1,1165.47,681.09Z"/><polygon class="cls-16" points="636.56 311.95 651.94 318.35 652.75 296.4 635.65 287.33 636.56 311.95"/><polygon class="cls-17" points="802.21 194.58 786.48 195.34 794.65 214.42 812.96 215.26 802.21 194.58"/><polygon class="cls-18" points="963.7 768.05 957.06 783.52 941.02 768.15 947.04 749.52 963.7 768.05"/><polygon class="cls-19" points="1311.11 694.16 1305.09 704.18 1290.57 690.26 1296.02 677.42 1311.11 694.16"/><polygon class="cls-20" points="702.97 667.56 717.92 669.23 708.95 686.92 691.44 686.6 702.97 667.56"/><polygon class="cls-21" points="987.24 180.39 991.44 173.41 998.12 181.84 993.99 190.35 987.24 180.39"/><polygon class="cls-22" points="579.07 555.38 581.58 566.32 566.91 564.41 562.82 552 579.07 555.38"/><path class="cls-23" d="M1214.51,385.44c1.16,1.14.81,2.25-.8,2.49l-7.76,1.13a6.39,6.39,0,0,0-4.21,3.11l-3.45,7c-.72,1.47-1.89,1.47-2.62,0l-3.49-7a6.27,6.27,0,0,0-4.23-3.06l-7.77-1.11c-1.61-.22-2-1.35-.81-2.49l5.59-5.48a6.23,6.23,0,0,0,1.6-5l-1.35-7.74c-.28-1.59.68-2.26,2.12-1.53l7,3.62a6.19,6.19,0,0,0,5.22,0l6.93-3.66c1.43-.75,2.38-.06,2.13,1.53l-1.32,7.74a6.3,6.3,0,0,0,1.64,5Z"/><polygon class="cls-24" points="1302.19 332.06 1306.83 315.88 1284.68 317.63 1277.57 335.88 1302.19 332.06"/></g></g></svg>