<svg id="Layer_1" data-name="Layer 1" xmlns="http://www.w3.org/2000/svg" xmlns:xlink="http://www.w3.org/1999/xlink" viewBox="0 0 664.51 402.38"><defs><style>.cls-1{fill:none;}.cls-2{clip-path:url(#clip-path);}.cls-3{fill:#e2d100;}.cls-4{clip-path:url(#clip-path-2);}.cls-5{fill:#2be21b;}.cls-6{opacity:0.7;}.cls-7{fill:#fff6ed;}.cls-8{fill:#0ae9ef;}.cls-9{fill:#2c275b;}.cls-10{fill:#fff;}.cls-11{fill:#ef5925;}.cls-12{fill:#fbbe00;}.cls-13{fill:#e7412b;}.cls-14{fill:#ff00c9;}.cls-15{fill:#ff9d00;}.cls-16{fill:#e63d11;}.cls-17{fill:#dcf23b;}.cls-18{fill:#f4a811;}.cls-19{fill:#ff9cc2;}.cls-20{fill:#260000;}.cls-21{fill:#14dee2;}</style><clipPath id="clip-path"><rect class="cls-1" x="-1650" width="1600" height="900"/></clipPath><clipPath id="clip-path-2"><rect class="cls-1" x="-706.53" y="-248.45" width="1600" height="900"/></clipPath></defs><g id="SC_29"><g class="cls-2"><polygon class="cls-3" points="-21.14 83.69 -12.87 103.87 8.54 99.74 -8.1 113.84 2.45 132.93 -16.1 121.46 -31 137.39 -25.82 116.2 -45.57 106.96 -23.82 105.33 -21.14 83.69"/></g></g><g id="SC_29-2" data-name="SC_29"><g class="cls-4"><polygon class="cls-5" points="155.76 185.84 146.48 52.02 102.6 59.88 105.55 119.41 77.64 82.97 70.08 128.14 37.25 78.09 2.17 88.56 66.76 216.4 101.64 205.07 95.37 148.81 117.11 192.55 155.76 185.84"/><g class="cls-6"><path class="cls-7" d="M56.25,122.23s-7.35.1-7.26,11.21C49,133.44,58.48,129.76,56.25,122.23Z"/><path class="cls-7" d="M63,136.52s-7.36.1-7.27,11.2C55.68,147.72,65.18,144,63,136.52Z"/><path class="cls-7" d="M69.8,151.12s-7.36.09-7.27,11.21C62.53,162.33,72,158.65,69.8,151.12Z"/><path class="cls-7" d="M76.71,165.88s-7.35.11-7.26,11.22C69.45,177.1,79,173.41,76.71,165.88Z"/><path class="cls-7" d="M82.58,178.4s-7.36.1-7.26,11.21C75.32,189.61,84.82,185.93,82.58,178.4Z"/><path class="cls-7" d="M32,133.59s4.77-5.59,13.25,1.59C45.28,135.18,36.39,140.13,32,133.59Z"/><path class="cls-7" d="M38.72,147.87s4.77-5.58,13.25,1.59C52,149.46,43.07,154.41,38.72,147.87Z"/><path class="cls-7" d="M45.57,162.48s4.78-5.59,13.26,1.59C58.83,164.07,49.93,169,45.57,162.48Z"/><path class="cls-7" d="M52.49,177.25s4.77-5.6,13.26,1.58C65.75,178.83,56.85,183.77,52.49,177.25Z"/><path class="cls-7" d="M58.36,189.76s4.77-5.59,13.26,1.58C71.62,191.34,62.71,196.29,58.36,189.76Z"/><polygon class="cls-7" points="39.87 120.33 76.98 199.5 78.29 198.88 41.17 119.72 39.87 120.33"/><path class="cls-7" d="M18.78,106.33c9.74-2.64,8.69,15.62,19.82,12.49,5.33-1.51,6.73-6.61,4.87-11.5-1.78-4.67-4.19-7-.44-11.31-3.48,1.71-6.59,2.57-7.29,7-.62-1.06-3.93-6.18-6.17-6.66-2.09,2.24-.1,6.56.47,9.26A9.44,9.44,0,0,0,18.78,106.33Z"/></g><g class="cls-6"><path class="cls-7" d="M141.19,101.15s-6.83-2.72-11,7.6C130.21,108.75,140.4,109,141.19,101.15Z"/><path class="cls-7" d="M142,116.9s-6.84-2.7-11,7.61C131,124.51,141.17,124.72,142,116.9Z"/><path class="cls-7" d="M142.72,133s-6.83-2.7-11,7.61C131.74,140.62,141.94,140.83,142.72,133Z"/><path class="cls-7" d="M143.52,149.31s-6.84-2.71-11,7.6C132.53,156.91,142.71,157.12,143.52,149.31Z"/><path class="cls-7" d="M144.17,163.11s-6.83-2.71-11,7.6C133.2,170.71,143.38,170.92,144.17,163.11Z"/><path class="cls-7" d="M114.47,102.43S121,99.09,126.13,109C126.13,109,116,110.13,114.47,102.43Z"/><path class="cls-7" d="M115.23,118.19s6.55-3.35,11.66,6.52C126.89,124.71,116.78,125.89,115.23,118.19Z"/><path class="cls-7" d="M116,134.3s6.54-3.35,11.67,6.52C127.68,140.82,117.55,142,116,134.3Z"/><path class="cls-7" d="M116.8,150.59s6.55-3.36,11.64,6.52C128.44,157.11,118.33,158.29,116.8,150.59Z"/><path class="cls-7" d="M117.46,164.39s6.53-3.34,11.67,6.52C129.13,170.91,119,172.09,117.46,164.39Z"/><polygon class="cls-7" points="126.77 93.15 130.98 180.48 132.41 180.41 128.22 93.08 126.77 93.15"/><path class="cls-7" d="M112.59,72.2c10,1.25,2.1,17.74,13.57,19.07,5.52.64,8.76-3.55,8.89-8.79.13-5-1.22-8,3.9-10.61-3.88.25-7.08-.14-9.4,3.68-.17-1.21-1.29-7.22-3.17-8.5-2.79,1.27-2.6,6-3.08,8.74A9.46,9.46,0,0,0,112.59,72.2Z"/></g><path class="cls-8" d="M225,125.49S219.48,78,185.47,85.64s-21.55,91.15,20.07,86.47c21.59-2.44,22.67-23.58,21.63-31l-14.31,3s1.57,8.87-8.53,10.61C191.17,157,188,132,188,132Zm-35-26.06c8.55-1.65,11.64,15.89,11.64,15.89l-15.22,3.11C185.35,113.55,183.83,100.6,189.93,99.43Z"/><path class="cls-9" d="M176.84,146.74c-.36,1.19,2.08,3.57,3.81,1.35S177.91,143.21,176.84,146.74Z"/><path class="cls-9" d="M172.53,117.56c-.37,1.19,2.08,3.58,3.81,1.36S173.6,114,172.53,117.56Z"/><path class="cls-9" d="M184.11,91.42c-.36,1.19,2.08,3.57,3.81,1.35S185.18,87.89,184.11,91.42Z"/><path class="cls-9" d="M208.42,102.25c-.36,1.18,2.08,3.57,3.8,1.35S209.5,98.72,208.42,102.25Z"/><path class="cls-9" d="M201.84,121.92c-.37,1.19,2.08,3.57,3.8,1.36S202.91,118.39,201.84,121.92Z"/><path class="cls-9" d="M218.86,147.48c-.36,1.19,2.08,3.57,3.81,1.35S219.93,144,218.86,147.48Z"/><path class="cls-9" d="M200.08,164.55c-.36,1.19,2.09,3.58,3.81,1.36S201.16,161,200.08,164.55Z"/><path class="cls-10" d="M180,132.36l-2.73,8.75,1.06-.17-5.29-7.49.08.53,2.73-8.76-1.05.17,5.28,7.49Zm-5.29-7.49L172,133.62l-.09.28.17.24,5.29,7.49.69,1,.36-1.16,2.73-8.74.09-.28-.17-.25-5.29-7.48-.7-1Z"/><path class="cls-10" d="M210.48,117.17l1.62-9-1,.3,6.17,6.77-.14-.5-1.62,9,1-.3-6.18-6.77Zm6.17,6.77,1.62-9,0-.29-.2-.22L212,107.64l-.81-.89-.22,1.18-1.61,9-.06.29.2.22,6.17,6.78.82.89Z"/><path class="cls-10" d="M189.79,121.11l8.24,4V124l-8.18,4.13h.53l-8.26-4v1.07l8.18-4.13Zm-8.19,4.13,8.26,4,.27.13.26-.14,8.17-4.13,1.09-.54-1.1-.53-8.25-4-.26-.13-.27.13-8.18,4.13-1.08.55Z"/><path class="cls-10" d="M210.47,158.54l7.85-4.72-.9-.58-1,9.11.29-.45-7.85,4.73.9.58,1-9.1Zm-1,9.11,7.85-4.72.25-.16,0-.29,1-9.11.13-1.2-1,.63-7.85,4.72-.25.15,0,.3-1,9.11-.14,1.2Z"/><path class="cls-10" d="M191.4,153.93l4,8.24.66-.85-9-1.84.41.33-4-8.25-.66.84,9,1.84Zm-9-1.85,4,8.25.13.26.29.06,9,1.84,1.18.24-.53-1.09-4-8.24-.13-.26-.29-.07-9-1.83L181.9,151Z"/><path class="cls-10" d="M181.63,103.83l-6.46,6.49,1,.34L175,101.58l-.16.5,6.46-6.5-1-.34,1.22,9.09Zm-1.21-9.09-6.47,6.5-.21.21,0,.29,1.22,9.09.16,1.19.85-.86,6.47-6.49.21-.21,0-.29-1.22-9.08-.16-1.2Z"/><path class="cls-10" d="M198.47,97.63l-5.94-7-.42,1,9.15-.46-.48-.21,5.94,7,.42-1-9.16.46Zm9.16-.45-5.94-7-.2-.22h-.29l-9.15.46-1.21.07.78.91,5.94,7,.19.22H198l9.15-.46,1.21-.06Z"/><path class="cls-11" d="M392.73,230.32l24.86-6.81,4.28,18.26a37.91,37.91,0,0,1,29.31-19.69c24.34-2.83,45.68,27.6,53.81,93.28l-34.3,5.2s-4.51-70.06-28.08-66.71c-7.21,1-9.69,6.08-12.85,12.55L444.58,327l-32.05,5.27Z"/><path class="cls-10" d="M415,268.72c1.2-2.8-4.08-4.83-4.45-1.53a2.33,2.33,0,0,0,1.69,2.65A2.41,2.41,0,0,0,415,268.72Z"/><path class="cls-10" d="M481.5,275.26c1.21-2.79-4.08-4.81-4.44-1.52a2.31,2.31,0,0,0,1.68,2.64A2.39,2.39,0,0,0,481.5,275.26Z"/><path class="cls-10" d="M443.48,242.52c1.2-2.79-4.08-4.81-4.44-1.52a2.3,2.3,0,0,0,1.68,2.64A2.39,2.39,0,0,0,443.48,242.52Z"/><path class="cls-10" d="M426.28,319.28c1.22-2.79-4.06-4.81-4.44-1.53a2.33,2.33,0,0,0,1.69,2.65A2.37,2.37,0,0,0,426.28,319.28Z"/><path class="cls-10" d="M406.32,235.59c.44,1.83.87,3.86,1.17,5.87l.22-.08c.77-1.78,1.89-3.2,2.77-4.93a.32.32,0,0,1,.33.07c-.49,1.74-1.9,3.34-2.45,4.92a6.93,6.93,0,0,0-.69,1.22c2.29-.32,4.83-1,6.89-1.25-.09.73-.88.73-1.45.89-1.63.21-2.94.68-4.65.87l-.07.08c1.87,1.66,4.46,2.53,5.69,4.63a.3.3,0,0,1-.25.16c-1.84-1.69-3.9-2.77-5.86-4.25.26,2.77,1.13,5.36,1.17,8.29a1.54,1.54,0,0,1-.64-.86c-.4-2.63-.93-5.07-1.4-7.69l-.43.62c-1,1.73-1.43,4.09-3.17,5.34l-.13,0c0-.63.71-1.06.85-1.71l2-4a5.5,5.5,0,0,0-1.94.3c-1.25,0-2.49.49-3.78.33-.13-.09-.38-.17-.29-.38.73-.39,1.6-.13,2.55-.35,1.22-.26,2.51-.42,3.83-.78a60.41,60.41,0,0,1-5.37-4.17c.14-.37.58-.12.79,0,1.61,1.21,3.14,2.45,4.89,3.52l.05-.17c-.54-2.44-.86-5.16-1.37-7.45C406.34,234.12,406,235.39,406.32,235.59Z"/><path class="cls-10" d="M417.35,284.41c.43,1.83.86,3.85,1.17,5.86l.22-.07c.76-1.78,1.88-3.21,2.77-4.93a.32.32,0,0,1,.33.07c-.49,1.74-1.9,3.34-2.46,4.92a7.81,7.81,0,0,0-.68,1.21c2.28-.3,4.83-1,6.88-1.24-.09.73-.87.73-1.44.9-1.63.2-2.94.67-4.66.86l-.06.08c1.87,1.65,4.45,2.52,5.69,4.63a.3.3,0,0,1-.25.16,72.17,72.17,0,0,0-5.87-4.25c.26,2.77,1.13,5.36,1.17,8.29a1.6,1.6,0,0,1-.64-.86c-.4-2.62-.92-5.07-1.4-7.69l-.42.62c-1,1.74-1.43,4.09-3.18,5.34l-.12,0c0-.63.7-1.06.85-1.7l2-4a5.92,5.92,0,0,0-1.93.29c-1.26,0-2.5.51-3.78.35-.13-.11-.39-.18-.3-.39.73-.38,1.61-.13,2.55-.35,1.23-.27,2.51-.42,3.84-.78a64.41,64.41,0,0,1-5.38-4.16c.15-.37.58-.13.79,0,1.61,1.21,3.15,2.44,4.89,3.52l.05-.17c-.53-2.45-.86-5.16-1.37-7.45C417.37,283,417,284.21,417.35,284.41Z"/><path class="cls-10" d="M471.17,244.52c.43,1.83.86,3.85,1.16,5.87l.23-.08c.76-1.77,1.88-3.2,2.77-4.92a.34.34,0,0,1,.33.06c-.49,1.75-1.91,3.34-2.46,4.92a7.21,7.21,0,0,0-.68,1.22c2.29-.31,4.83-1,6.88-1.25-.09.73-.88.73-1.44.9-1.63.21-2.94.68-4.65.86l-.07.09c1.87,1.65,4.45,2.52,5.68,4.63a.3.3,0,0,1-.25.15,70.84,70.84,0,0,0-5.86-4.24c.26,2.76,1.13,5.36,1.18,8.28a1.41,1.41,0,0,1-.64-.86c-.4-2.62-.93-5.07-1.41-7.69l-.42.63c-1,1.73-1.43,4.08-3.18,5.34l-.13,0c0-.63.72-1,.86-1.7l2-4a5.7,5.7,0,0,0-1.93.29c-1.26,0-2.5.5-3.79.34-.12-.1-.37-.17-.29-.39.73-.39,1.6-.12,2.56-.35,1.22-.26,2.5-.41,3.83-.78a62.35,62.35,0,0,1-5.38-4.16c.14-.37.58-.13.79,0,1.61,1.22,3.14,2.45,4.89,3.53l.05-.17c-.53-2.45-.86-5.16-1.36-7.46C471.19,243.05,470.86,244.33,471.17,244.52Z"/><path class="cls-10" d="M485,291c.44,1.83.87,3.86,1.17,5.87l.23-.07c.76-1.78,1.88-3.21,2.77-4.93a.28.28,0,0,1,.32.07c-.48,1.74-1.9,3.33-2.45,4.92a7.15,7.15,0,0,0-.69,1.21c2.29-.31,4.84-1,6.88-1.24-.08.72-.86.72-1.43.89-1.64.21-2.95.68-4.65.86l-.07.09c1.87,1.65,4.45,2.53,5.68,4.63a.29.29,0,0,1-.25.16,69.7,69.7,0,0,0-5.86-4.25c.26,2.77,1.12,5.36,1.17,8.28a1.54,1.54,0,0,1-.64-.85c-.4-2.63-.93-5.08-1.4-7.69l-.42.62c-1.05,1.73-1.43,4.08-3.18,5.34l-.12,0c0-.63.7-1.06.84-1.71l2-4a5.16,5.16,0,0,0-1.92.29c-1.26,0-2.5.49-3.79.33-.13-.1-.38-.17-.29-.39.72-.38,1.6-.11,2.55-.35,1.22-.26,2.5-.42,3.83-.77-1.84-1.27-3.64-2.69-5.37-4.16.14-.38.58-.13.79,0,1.61,1.22,3.14,2.45,4.88,3.53l.06-.17c-.54-2.44-.87-5.16-1.37-7.45C485,289.57,484.66,290.84,485,291Z"/><path class="cls-12" d="M306.27,258.85c-17.38,35.31,1.62,63.75,20.12,75.79,21.08,13.74,59.77,6.95,60.72-36.54C388.23,246.57,330.18,210.26,306.27,258.85Zm46.26,30.56c4.88.56,16.07,5.3,14.38,11.53-2.49,9.09-15.65,3-20.1-2.1,1.82,9-2.83,29-13.25,17.59-4.27-4.69-3.1-12.09,4.16-22.71-11.5.21-22.8-4.85-19.68-13.42,2.09-5.76,15.17-2.83,21.1,2.58-3.84-5.32-9.89-27.86,2.78-26.42,10.92,1.26,4.73,25.54,4.73,25.54,4.75-6,15.63-13.65,21.13-7.63C374.34,281.55,361.57,289.59,352.53,289.41Z"/><path class="cls-13" d="M309.58,263.91c-.33,1.6,3.17,4.44,5.18,1.31S310.56,259.13,309.58,263.91Z"/><path class="cls-13" d="M317,252.36c-.33,1.62,3.18,4.46,5.19,1.32S318,247.59,317,252.36Z"/><path class="cls-13" d="M326.44,246.49c-.33,1.62,3.18,4.45,5.18,1.32S327.42,241.72,326.44,246.49Z"/><path class="cls-13" d="M338.26,244.41c-.33,1.6,3.17,4.44,5.18,1.3S339.24,239.63,338.26,244.41Z"/><path class="cls-13" d="M350.68,249.42c-.33,1.6,3.18,4.44,5.18,1.31S351.66,244.64,350.68,249.42Z"/><path class="cls-13" d="M361.19,257.06c-.33,1.6,3.19,4.44,5.19,1.31S362.18,252.28,361.19,257.06Z"/><path class="cls-13" d="M369,267.14c-.33,1.61,3.17,4.45,5.18,1.32S370,262.37,369,267.14Z"/><path class="cls-13" d="M374.71,278.84c-.34,1.61,3.17,4.45,5.17,1.3S375.69,274.06,374.71,278.84Z"/><path class="cls-13" d="M378,292.55c-.34,1.6,3.18,4.45,5.18,1.31S379,287.77,378,292.55Z"/><path class="cls-13" d="M376.57,303.39c-.34,1.61,3.17,4.44,5.17,1.31S377.54,298.61,376.57,303.39Z"/><path class="cls-13" d="M372.68,314.46c-.34,1.61,3.17,4.45,5.18,1.31S373.66,309.68,372.68,314.46Z"/><path class="cls-13" d="M365.54,325.57c-.33,1.61,3.18,4.45,5.19,1.31S366.52,320.8,365.54,325.57Z"/><path class="cls-13" d="M353.92,333c-.33,1.62,3.17,4.45,5.18,1.32S354.9,328.26,353.92,333Z"/><path class="cls-13" d="M304.48,276c-.33,1.6,3.18,4.44,5.18,1.32S305.47,271.21,304.48,276Z"/><path class="cls-13" d="M303.57,288.88c-.34,1.61,3.17,4.45,5.17,1.31S304.55,284.11,303.57,288.88Z"/><path class="cls-13" d="M305.64,302.15c-.33,1.61,3.17,4.46,5.17,1.31S306.61,297.38,305.64,302.15Z"/><path class="cls-13" d="M311.66,313.76c-.33,1.61,3.17,4.45,5.18,1.31S312.64,309,311.66,313.76Z"/><path class="cls-13" d="M318.83,322.56c-.34,1.61,3.17,4.46,5.18,1.31S319.81,317.79,318.83,322.56Z"/><path class="cls-13" d="M329.16,331c-.34,1.6,3.17,4.45,5.17,1.31S330.14,326.19,329.16,331Z"/><path class="cls-13" d="M340.64,335.12c-.33,1.6,3.18,4.45,5.19,1.31S341.63,330.35,340.64,335.12Z"/><path class="cls-14" d="M588.36,263.56s6.11-61.46-38.93-61.14-52.19,109.18,1.65,114.67c27.93,2.85,35.09-23.56,35.79-33.15L568,283.76s-.44,11.63-13.67,11.06c-17.24-.74-14.45-33.21-14.45-33.21Zm-37.08-42.51c11.26.25,10.35,23.26,10.35,23.26l-20.07-.26C541.63,237.62,543.26,220.86,551.28,221.05Z"/><g class="cls-6"><path class="cls-10" d="M521.8,277.19c-.79,1.4,1.64,5.09,4.43,2.76S524.11,273,521.8,277.19Z"/><path class="cls-10" d="M524.34,239.18c-.78,1.39,1.65,5.08,4.44,2.75S526.67,235,524.34,239.18Z"/><path class="cls-10" d="M546.13,209.34c-.79,1.39,1.65,5.07,4.44,2.74S548.45,205.18,546.13,209.34Z"/><path class="cls-10" d="M573.86,229.67c-.78,1.4,1.65,5.08,4.43,2.75S576.18,225.52,573.86,229.67Z"/><path class="cls-10" d="M560.16,252.7c-.79,1.41,1.64,5.09,4.43,2.76S562.48,248.55,560.16,252.7Z"/><path class="cls-10" d="M574.64,289.64c-.78,1.41,1.65,5.08,4.44,2.76S577,285.48,574.64,289.64Z"/><path class="cls-10" d="M546.26,306.06c-.78,1.4,1.65,5.08,4.44,2.75S548.59,301.9,546.26,306.06Z"/><path class="cls-10" d="M529.74,259.91l-5.84,10.3,1.38.08-4.62-10.9,0,.68,5.85-10.31-1.38-.07,4.62,10.9ZM525.13,249l-5.85,10.31-.19.33.15.34,4.62,10.91.61,1.44.77-1.36,5.85-10.3.18-.33-.14-.34-4.62-10.91-.62-1.44Z"/><path class="cls-10" d="M572.37,249.07l4.52-10.95-1.38.1,5.94,10.24-.05-.67-4.52,10.94,1.39-.09-5.95-10.25Zm5.94,10.25,4.52-10.95L583,248l-.19-.33-5.94-10.24-.78-1.36-.6,1.45-4.52,11-.14.34.19.33,5.94,10.25.79,1.35Z"/><path class="cls-10" d="M545.16,248.38l9.34,7.28.28-1.34-11.47,3,.67.15-9.34-7.29-.28,1.36,11.47-3Zm-11.47,3,9.34,7.28.31.23.36-.09,11.46-3,1.51-.39-1.22-1-9.35-7.28-.3-.24-.36.09L534,250l-1.51.4Z"/><path class="cls-10" d="M561,301.31l11.22-3.81-1-1-3.78,11.22.48-.48-11.21,3.82,1,1,3.79-11.22Zm-3.78,11.23,11.21-3.82.35-.12.12-.37,3.8-11.21.5-1.48-1.48.5-11.21,3.82-.36.12-.13.36-3.78,11.22-.5,1.48Z"/><path class="cls-10" d="M538.22,290.26l2.8,11.5,1.05-.89-10.83-4.78.43.53-2.8-11.51-1.06.89,10.84,4.77Zm-10.84-4.79,2.8,11.51.09.37.35.16,10.83,4.77,1.43.64-.37-1.52-2.8-11.51-.09-.37-.35-.15-10.83-4.78L527,284Z"/><path class="cls-10" d="M539.61,224.33l-10,6.42,1.19.71.95-11.8-.35.58,9.94-6.43-1.18-.71-1,11.81Zm.95-11.81L530.61,219l-.32.21,0,.37-1,11.81-.12,1.55,1.31-.84,9.94-6.43.33-.21,0-.38,1-11.8.13-1.56Z"/><path class="cls-10" d="M562.56,221.12,557,210.67l-.81,1.12,11.69,1.93-.55-.39,5.57,10.45.81-1.13L562,220.73Zm11.68,1.93-5.58-10.45-.17-.34-.39-.06-11.67-1.92-1.55-.26.74,1.37,5.58,10.46.18.33.37.06,11.68,1.93,1.54.26Z"/></g><polygon class="cls-15" points="347.12 159.1 417.38 140.78 409.65 105.02 373.46 114.31 348.64 3.8 304.84 15.82 347.12 159.1"/><path class="cls-16" d="M336.72,82.78s6-1.07,4.49-10.21C341.21,72.57,333.87,76.88,336.72,82.78Z"/><path class="cls-16" d="M324.46,24c2.39,1.11,5.36,3,6,5.63.39,1.73-.47,3.09-1.47,4.66a14.41,14.41,0,0,0-1.6,3.07,6.06,6.06,0,0,0,.1,5c1.36,2.45,4.78,3.25,8.08,4a20.49,20.49,0,0,1,5,1.58c6.24,3.43,3.89,11,2.19,16.62l-.13.42c-1.83,5.94.54,12.25,6.48,17.3s9.13,9.3,8.82,16.9a21.92,21.92,0,0,1-1.8,7.1c-1.22,3.22-2.49,6.54-1.21,11,1,3.5,3.17,6,5.24,8.53a24,24,0,0,1,4.64,7,13.69,13.69,0,0,1,0,9.3l1.18.42a14.94,14.94,0,0,0,0-10.15,25.32,25.32,0,0,0-4.86-7.41c-2.08-2.48-4.05-4.82-5-8.07-1.17-4,0-7,1.17-10.18a23.13,23.13,0,0,0,1.88-7.5c.33-8.1-3.14-12.7-9.25-17.9-2.63-2.24-8.47-8.26-6.1-16l.12-.42c1.74-5.64,4.35-14.16-2.77-18.09a22,22,0,0,0-5.28-1.7c-3-.71-6.18-1.45-7.28-3.42a4.86,4.86,0,0,1,0-4A12.62,12.62,0,0,1,330,34.94c1.06-1.66,2.15-3.37,1.63-5.62-.57-2.52-2.81-4.71-6.65-6.5Z"/><path class="cls-16" d="M353.19,140.3s7,1.58,9.4-8.93C362.59,131.37,352.78,132.68,353.19,140.3Z"/><path class="cls-16" d="M365.81,140.75s-7.08,1-5.69,11.67C360.12,152.42,368.85,147.74,365.81,140.75Z"/><path class="cls-16" d="M344,122.85s7,1.59,9.4-8.93C353.37,113.92,343.57,115.24,344,122.85Z"/><path class="cls-16" d="M327.74,31.09s-4.58-2.67-8.66,4.23C319.08,35.32,326.33,36.59,327.74,31.09Z"/><path class="cls-16" d="M362.62,123.79s3.08,6.44,12.84,1.83C375.46,125.62,368.34,118.75,362.62,123.79Z"/><path class="cls-16" d="M344.74,71.8s3.08,6.44,12.84,1.84C357.58,73.64,350.47,66.76,344.74,71.8Z"/><path class="cls-16" d="M310.09,18.07s.73,13.41,17.88,7.35C328,25.42,321.53,10,310.09,18.07Z"/><path class="cls-16" d="M333.26,62s6.65-2.61,2.77-12.68C336,49.28,328.65,55.87,333.26,62Z"/><path class="cls-16" d="M328.85,22.34s3.55,6.19,12.95.88C341.8,23.22,334.19,16.89,328.85,22.34Z"/><path class="cls-16" d="M357.4,58.32s-.41-7.13-11.19-6.57C346.21,51.75,350.19,60.81,357.4,58.32Z"/><path class="cls-16" d="M345.7,97.85s7.1-.74,6-11.48C351.74,86.37,342.88,90.76,345.7,97.85Z"/><path class="cls-16" d="M368.75,116.13s-.51-7.12-11.28-6.41C357.47,109.72,361.57,118.73,368.75,116.13Z"/><path class="cls-16" d="M332.15,38.58S335.23,45,345,40.42C345,40.42,337.88,33.55,332.15,38.58Z"/><path class="cls-16" d="M352.57,146.74a1.74,1.74,0,1,0-2.29,2.6c1.62,1.46,3.73-.07,2.66-2.08A2.3,2.3,0,0,0,352.57,146.74Z"/><path class="cls-16" d="M405.78,134.54a1.74,1.74,0,1,0-2.29,2.61c1.62,1.45,3.74-.08,2.67-2.09A2.69,2.69,0,0,0,405.78,134.54Z"/><path class="cls-16" d="M347.06,107.15a1.73,1.73,0,1,0-2.28,2.6c1.62,1.46,3.74-.08,2.66-2.09A2,2,0,0,0,347.06,107.15Z"/><path class="cls-16" d="M359.79,80.8a1.73,1.73,0,1,0-2.28,2.6c1.62,1.46,3.73-.07,2.66-2.09A2.26,2.26,0,0,0,359.79,80.8Z"/><path class="cls-16" d="M374.3,142.42A1.74,1.74,0,1,0,372,145c1.62,1.45,3.74-.09,2.66-2.09A2.1,2.1,0,0,0,374.3,142.42Z"/><path class="cls-16" d="M333.38,69.45a1.74,1.74,0,1,0-2.29,2.6A1.69,1.69,0,0,0,333.75,70,2.23,2.23,0,0,0,333.38,69.45Z"/><path class="cls-16" d="M349.44,43.75a1.74,1.74,0,1,0-2.29,2.6c1.62,1.45,3.73-.08,2.66-2.08A1.87,1.87,0,0,0,349.44,43.75Z"/><path class="cls-16" d="M328.09,48.13a1.73,1.73,0,1,0-2.28,2.6,1.69,1.69,0,0,0,2.66-2.08A1.89,1.89,0,0,0,328.09,48.13Z"/><path class="cls-16" d="M340.06,13.42a1.73,1.73,0,1,0-2.28,2.6c1.62,1.46,3.73-.08,2.66-2.08A1.89,1.89,0,0,0,340.06,13.42Z"/><path class="cls-16" d="M391.24,123.88a1.74,1.74,0,1,0-2.29,2.6c1.62,1.45,3.74-.08,2.67-2.08A2.12,2.12,0,0,0,391.24,123.88Z"/><path class="cls-16" d="M338.06,90.22a1.74,1.74,0,1,0-2.29,2.6c1.62,1.45,3.74-.08,2.66-2.08A1.92,1.92,0,0,0,338.06,90.22Z"/><path class="cls-16" d="M344,29.19a1.74,1.74,0,1,0-2.29,2.61c1.62,1.45,3.74-.08,2.66-2.09A2,2,0,0,0,344,29.19Z"/><path class="cls-16" d="M373.94,131.42a1.74,1.74,0,1,0-2.29,2.6c1.62,1.46,3.74-.08,2.67-2.08A1.89,1.89,0,0,0,373.94,131.42Z"/><path class="cls-16" d="M350.08,129.84a1.74,1.74,0,1,0-2.29,2.6c1.62,1.46,3.74-.07,2.66-2.08A1.87,1.87,0,0,0,350.08,129.84Z"/><path class="cls-16" d="M401.34,122.17c1.66,3.5,4,5.13,5.74,4,3.32-2.1-2.74-5.2-4.31-5.76,1.44.48,6.32.24,5.84-2.78-.42-2.55-5.54-.52-6.9.65.64-2.13-1.19-7.23-3.1-5.24-1.26,1.32-.85,4.58.6,6.14-2.11-1-5.14-.34-5.18,1,0,1.91,3,2.09,5.07,1.12-2.42,2.16-3.53,5.61-.6,5.75C401,127.11,401.34,122.17,401.34,122.17Z"/><path class="cls-16" d="M386.93,136.71c1.14-.24,6.84-1.13,6.81,1.56,0,2.32-6.56,1.74-7.8,0,.9,2.49-.23,7.26-2.43,4.58-1.14-1.39.26-4.27.76-5.37-1.89,1.31-7.09,2.95-7.42.29-.28-2.19,5.33-2.75,6.75-2.89-2.22-1.18-4.79-6.64-2.69-8.28,3.61-2.83,5.95,5.58,5.37,8.17.4-.68,4.19-7,5.38-3.59C392.42,133.38,386.93,136.71,386.93,136.71Z"/><polygon class="cls-17" points="249.21 175.18 313.86 169.11 312.18 136.43 278.9 139.43 272.87 38.3 232.47 42.61 249.21 175.18"/><path class="cls-18" d="M251,106.31s5.5-.07,5.43-8.37C256.42,97.94,249.33,100.69,251,106.31Z"/><path class="cls-18" d="M248.62,52.63c1.95,1.32,4.31,3.4,4.46,5.83.1,1.58-.86,2.66-2,3.9a12.56,12.56,0,0,0-1.86,2.48,5.36,5.36,0,0,0-.62,4.43c.85,2.36,3.75,3.57,6.55,4.73a18.69,18.69,0,0,1,4.16,2.1c5,3.93,1.85,10.32-.46,15l-.17.36c-2.47,5-1.29,10.88,3.23,16.2s6.72,9.53,5.35,16.19a19.51,19.51,0,0,1-2.61,6c-1.54,2.66-3.13,5.41-2.63,9.52.38,3.23,1.92,5.8,3.4,8.28a21.71,21.71,0,0,1,3.08,6.88,12.29,12.29,0,0,1-1.29,8.21l1,.55a13.37,13.37,0,0,0,1.41-9,22.72,22.72,0,0,0-3.22-7.24c-1.48-2.48-2.88-4.83-3.25-7.84-.45-3.73,1-6.2,2.5-8.82a20.39,20.39,0,0,0,2.73-6.35c1.46-7.1-.94-11.66-5.59-17.13-2-2.35-6.29-8.51-3.09-15l.17-.35c2.35-4.72,5.88-11.87.15-16.37A20,20,0,0,0,255.61,73c-2.58-1.06-5.24-2.17-5.93-4.07a4.38,4.38,0,0,1,.56-3.53A12.37,12.37,0,0,1,252,63.11c1.17-1.31,2.38-2.66,2.25-4.72-.14-2.31-1.81-4.57-4.95-6.7Z"/><path class="cls-18" d="M257.26,159.46s5.92,2.4,9.59-6.53C266.85,152.93,258,152.68,257.26,159.46Z"/><path class="cls-18" d="M268.34,161.67s-6.39-.17-6.69,9.48C261.65,171.15,270,168.28,268.34,161.67Z"/><path class="cls-18" d="M251.64,142.73s5.91,2.4,9.58-6.53C261.22,136.2,252.38,136,251.64,142.73Z"/><path class="cls-18" d="M250.5,59.39s-3.66-3-8.26,2.49C242.24,61.88,248.46,64,250.5,59.39Z"/><path class="cls-18" d="M268,146.24s1.8,6.13,11.08,3.46C279,149.7,273.74,142.61,268,146.24Z"/><path class="cls-18" d="M259.66,97.77s1.79,6.13,11.07,3.47C270.73,101.24,265.43,94.14,259.66,97.77Z"/><path class="cls-18" d="M236.78,45.35s-1.28,11.95,14.74,9.07C251.52,54.42,248.06,39.85,236.78,45.35Z"/><path class="cls-18" d="M250.93,87.43s6.25-1.34,4.28-10.79C255.21,76.64,247.74,81.4,250.93,87.43Z"/><path class="cls-18" d="M252.74,51.82s2.24,6,11.3,2.64C264,54.46,258.23,47.77,252.74,51.82Z"/><path class="cls-18" d="M272.77,87.69s.66-6.35-8.94-7.41C263.83,80.28,266.05,88.85,272.77,87.69Z"/><path class="cls-18" d="M256.76,120.9s6.38.37,7-9.26C263.74,111.64,255.28,114.24,256.76,120.9Z"/><path class="cls-18" d="M274.47,140.36s.58-6.36-9-7.28C265.44,133.08,267.77,141.62,274.47,140.36Z"/><path class="cls-18" d="M253.32,66.64s1.79,6.13,11.07,3.47C264.39,70.11,259.1,63,253.32,66.64Z"/><path class="cls-18" d="M255.79,165.06a1.55,1.55,0,1,0-2.39,2,1.51,1.51,0,0,0,2.65-1.46A1.88,1.88,0,0,0,255.79,165.06Z"/><path class="cls-18" d="M304.52,161.94a1.55,1.55,0,1,0-2.39,2,1.51,1.51,0,0,0,2.65-1.46A2,2,0,0,0,304.52,161.94Z"/><path class="cls-18" d="M256.63,129.31a1.56,1.56,0,1,0-2.4,2,1.52,1.52,0,0,0,2.66-1.46A2.44,2.44,0,0,0,256.63,129.31Z"/><path class="cls-18" d="M271.64,107.88a1.55,1.55,0,1,0-2.38,2,1.51,1.51,0,0,0,2.64-1.46A1.64,1.64,0,0,0,271.64,107.88Z"/><path class="cls-18" d="M275.6,164.37a1.56,1.56,0,1,0-2.4,2,1.52,1.52,0,0,0,2.66-1.47A2.14,2.14,0,0,0,275.6,164.37Z"/><path class="cls-18" d="M250,94.06a1.55,1.55,0,1,0-2.39,2,1.51,1.51,0,0,0,2.65-1.46A1.88,1.88,0,0,0,250,94.06Z"/><path class="cls-18" d="M267.83,73.68a1.55,1.55,0,1,0-2.39,2,1.51,1.51,0,0,0,2.65-1.46A1.53,1.53,0,0,0,267.83,73.68Z"/><path class="cls-18" d="M248.36,74.48a1.55,1.55,0,1,0-2.39,2A1.51,1.51,0,0,0,248.62,75,1.75,1.75,0,0,0,248.36,74.48Z"/><path class="cls-18" d="M263.92,45.55a1.56,1.56,0,1,0-2.4,2,1.51,1.51,0,0,0,2.65-1.45A1.93,1.93,0,0,0,263.92,45.55Z"/><path class="cls-18" d="M293.22,150.43a1.55,1.55,0,1,0-2.39,2,1.51,1.51,0,0,0,2.65-1.46A1.88,1.88,0,0,0,293.22,150.43Z"/><path class="cls-18" d="M251.11,113.07a1.56,1.56,0,1,0-2.4,2,1.51,1.51,0,0,0,2.65-1.46A1.86,1.86,0,0,0,251.11,113.07Z"/><path class="cls-18" d="M265.15,60.06a1.55,1.55,0,1,0-2.39,2,1.52,1.52,0,0,0,2.65-1.47A2.14,2.14,0,0,0,265.15,60.06Z"/><path class="cls-18" d="M276.86,154.6a1.55,1.55,0,1,0-2.39,2,1.51,1.51,0,0,0,2.65-1.45A2,2,0,0,0,276.86,154.6Z"/><path class="cls-18" d="M256,149.78a1.56,1.56,0,1,0-2.4,2,1.51,1.51,0,0,0,2.65-1.46A1.73,1.73,0,0,0,256,149.78Z"/><path class="cls-18" d="M302.38,150.37c1,3.34,2.77,5.11,4.49,4.38,3.23-1.38-1.67-5-3-5.71,1.2.64,5.55,1.13,5.56-1.61,0-2.31-4.82-1.25-6.19-.42.88-1.79,0-6.55-2-5.07-1.3,1-1.4,3.92-.35,5.51-1.72-1.19-4.49-1-4.72.17-.31,1.67,2.31,2.26,4.31,1.71-2.45,1.55-3.92,4.44-1.35,5C301.35,154.68,302.38,150.37,302.38,150.37Z"/><path class="cls-18" d="M287.57,161.14c1,0,6.2,0,5.79,2.36-.36,2-6,.59-6.89-1.13.44,2.33-1.24,6.37-2.8,3.69-.81-1.39.84-3.73,1.44-4.63-1.85.88-6.68,1.58-6.59-.81.07-2,5.1-1.66,6.38-1.58-1.79-1.37-3.28-6.55-1.19-7.7,3.6-2,4.45,5.78,3.57,8,.44-.54,4.7-5.6,5.26-2.39C292.9,159,287.57,161.14,287.57,161.14Z"/><path class="cls-19" d="M285,294.21c-14.11-56.52-57.94-67.57-89.31-61.83-11.35,2.08-39.6,10.92-39.6,10.92l43.59,155.85s28.17-6.3,39.4-10.74C266.73,377.46,299.27,351.36,285,294.21Zm-59.69,56.43-21-76.44c9.05-2.91,35.07-5.65,44.12,22.68C262.89,342.17,225.31,350.64,225.31,350.64Z"/><polygon class="cls-10" points="181.85 280.82 183.61 266.75 192.16 278.07 190.39 292.14 181.85 280.82"/><polygon class="cls-10" points="204.76 247.14 217.3 253.76 203.69 257.76 191.15 251.13 204.76 247.14"/><polygon class="cls-10" points="254.12 264.54 261.17 276.84 247.54 272.93 240.49 260.62 254.12 264.54"/><polygon class="cls-10" points="273.82 314.69 268.79 328.19 262.99 315 268.03 301.51 273.82 314.69"/><polygon class="cls-10" points="251.98 361.99 239.46 368.65 243.8 355.14 256.32 348.49 251.98 361.99"/><polygon class="cls-20" points="178.46 248.78 182.11 261.08 182.81 260.87 179.16 248.59 178.46 248.78"/><polygon class="cls-20" points="186.04 252.91 175.07 256.18 175.28 256.89 186.24 253.61 186.04 252.91"/><polygon class="cls-20" points="185.93 257.15 175.72 252 175.39 252.65 185.6 257.8 185.93 257.15"/><polygon class="cls-20" points="182.62 249.52 178.04 260 178.7 260.28 183.28 249.8 182.62 249.52"/><polygon class="cls-20" points="227.24 249.03 230.88 261.32 231.58 261.12 227.94 248.83 227.24 249.03"/><polygon class="cls-20" points="234.81 253.16 223.85 256.43 224.06 257.13 235.01 253.86 234.81 253.16"/><polygon class="cls-20" points="234.71 257.4 224.49 252.25 224.16 252.9 234.37 258.05 234.71 257.4"/><polygon class="cls-20" points="231.39 249.77 226.81 260.25 227.47 260.53 232.06 250.06 231.39 249.77"/><rect class="cls-20" x="265.16" y="282.47" width="0.82" height="14.43" transform="translate(-71.44 87.52) rotate(-16.53)"/><polygon class="cls-20" points="271.65 287.53 259.31 291.21 259.55 292 271.88 288.31 271.65 287.53"/><polygon class="cls-20" points="271.54 292.3 260.04 286.5 259.66 287.23 271.16 293.03 271.54 292.3"/><polygon class="cls-20" points="267.8 283.71 262.65 295.5 263.39 295.83 268.55 284.03 267.8 283.71"/><polygon class="cls-20" points="261.63 333.06 265.27 345.36 265.97 345.15 262.33 332.87 261.63 333.06"/><polygon class="cls-20" points="269.2 337.19 258.24 340.46 258.45 341.17 269.41 337.89 269.2 337.19"/><polygon class="cls-20" points="269.1 341.43 258.88 336.28 258.55 336.93 268.76 342.08 269.1 341.43"/><polygon class="cls-20" points="265.78 333.8 261.2 344.28 261.86 344.56 266.44 334.09 265.78 333.8"/><polygon class="cls-20" points="227.3 364.71 230.94 377 231.64 376.8 228 364.51 227.3 364.71"/><polygon class="cls-20" points="234.87 368.84 223.91 372.11 224.12 372.81 235.07 369.54 234.87 368.84"/><polygon class="cls-20" points="234.77 373.08 224.55 367.92 224.22 368.57 234.43 373.73 234.77 373.08"/><polygon class="cls-20" points="231.45 365.44 226.87 375.92 227.53 376.21 232.12 365.73 231.45 365.44"/><polygon class="cls-10" points="193.44 328.21 195.2 314.14 203.75 325.46 201.98 339.53 193.44 328.21"/><polygon class="cls-20" points="190.05 296.17 193.7 308.46 194.4 308.26 190.75 295.97 190.05 296.17"/><polygon class="cls-20" points="197.63 300.3 186.66 303.57 186.87 304.27 197.83 301 197.63 300.3"/><polygon class="cls-20" points="197.52 304.54 187.31 299.39 186.98 300.04 197.19 305.19 197.52 304.54"/><polygon class="cls-20" points="194.21 296.91 189.63 307.38 190.29 307.67 194.87 297.19 194.21 296.91"/><polygon class="cls-10" points="207.06 374.76 208.82 360.69 217.37 372.01 215.6 386.08 207.06 374.76"/><polygon class="cls-20" points="201.53 343.07 205.17 355.37 205.87 355.16 202.22 342.88 201.53 343.07"/><polygon class="cls-20" points="209.1 347.2 198.13 350.47 198.34 351.18 209.3 347.9 209.1 347.2"/><polygon class="cls-20" points="208.99 351.44 198.78 346.29 198.45 346.94 208.66 352.09 208.99 351.44"/><polygon class="cls-20" points="205.68 343.81 201.1 354.29 201.76 354.57 206.34 344.1 205.68 343.81"/><path class="cls-21" d="M613.16,154.27l-1.63.61.11,1.74c.06,1.1,6.61,110.28,9.74,134.5l.25,1.91,31.25,2.23.16-2.36c.89-13.22,8.6-129.36,7-136.6l-.29-1.34-1.31-.41C657.42,154.24,633,146.87,613.16,154.27Z"/><path class="cls-21" d="M634,306.27c-8.78,2.92-15.58,10.91-16.53,19.44a33.17,33.17,0,0,0-.21,3.92c0,10.94,5.81,18.86,16.23,22,12.09,3.65,22.3-.78,26.64-11.56,3.1-7.68,2.93-17-.42-23.24C655.38,308.87,644.59,302.74,634,306.27Z"/><g class="cls-6"><path class="cls-10" d="M639.51,312.9c0,2.08.39,4.63.12,6.23.76,2.17,0,5,.59,7.18l7.65-9.39c.37,0,.74-.47,1.12,0v.57c-2.42,3.78-6,6.72-8.2,10.6,3.94.27,8.52-.88,12.64-1.28.29-.37.94-.76,1.32-.29-1.49,2.08-4.49,2.19-7.12,2.58-2,.57-4.4-.26-6.37.69,1.7,2.73,5.08,3.94,6.4,6.95-.64.38-1.12-.18-1.86-.27-1.88-1.6-3.49-3.67-5.46-5.07-.36,4.25,2,9.33-.23,13.3-.75-.27-.57-1.22-.57-1.88-.57-3.58-.5-7.83-1-11.41-2.06,1.89-3,5.11-5.69,6.91-.19-.19-.47,0-.57-.29.84-2.45,2.89-4.72,4.47-7.09l.47-.48c-1.5-1-4-.35-5.91-.53l-6.37.21c-.37-.09-.75-.56-.47-.94,4.31-.4,8.71-1.08,13-.62a46.38,46.38,0,0,1-6.88-7.9,1,1,0,0,1,1.23-.29c2.35,2.45,4,4.7,6.58,6.77l.19-1c-.3-4.53-.33-9.72-.44-14.25C638.94,311.58,639.41,312.34,639.51,312.9Z"/><path class="cls-10" d="M652.21,195.77s-7.72-3.46-13,8.19C639.2,204,650.9,204.71,652.21,195.77Z"/><path class="cls-10" d="M652.29,213.92s-7.72-3.46-13,8.19C639.28,222.11,651,222.87,652.29,213.92Z"/><path class="cls-10" d="M652.37,232.48s-7.72-3.45-13,8.19C639.36,240.67,651.06,241.43,652.37,232.48Z"/><path class="cls-10" d="M652.45,251.25s-7.73-3.46-13,8.19C639.44,259.44,651.14,260.19,652.45,251.25Z"/><path class="cls-10" d="M652.52,267.16s-7.73-3.46-13,8.19C639.51,275.35,651.21,276.1,652.52,267.16Z"/><path class="cls-10" d="M621.42,195.9s7.7-3.52,13.08,8.08C634.5,204,622.81,204.83,621.42,195.9Z"/><path class="cls-10" d="M621.5,214.05s7.69-3.52,13.08,8.08C634.58,222.13,622.88,223,621.5,214.05Z"/><path class="cls-10" d="M621.58,232.61s7.69-3.52,13.08,8.08C634.66,240.69,623,241.55,621.58,232.61Z"/><path class="cls-10" d="M621.66,251.38s7.69-3.52,13.07,8.08C634.73,259.46,623,260.31,621.66,251.38Z"/><path class="cls-10" d="M621.72,267.29s7.7-3.52,13.08,8.08C634.8,275.37,623.11,276.22,621.72,267.29Z"/><rect class="cls-10" x="636.25" y="185.84" width="1.66" height="100.62" transform="translate(-0.99 2.7) rotate(-0.24)"/><path class="cls-10" d="M620.8,161c11.42,2,1.51,20.51,14.64,22.62,6.3,1,10.24-3.62,10.66-9.65.4-5.73-1-9.28,5-12-4.46.09-8.12-.52-11,3.75-.14-1.41-1.11-8.36-3.21-9.94-3.27,1.33-3.29,6.79-4,9.9A10.85,10.85,0,0,0,620.8,161Z"/></g></g></g></svg>