<svg id="Layer_1" data-name="Layer 1" xmlns="http://www.w3.org/2000/svg" xmlns:xlink="http://www.w3.org/1999/xlink" viewBox="0 0 821.62 612.77"><defs><style>.cls-1{fill:none;}.cls-2{clip-path:url(#clip-path);}.cls-3{fill:#601e0a;}.cls-4{fill:#aa4f26;}.cls-5{fill:#330c03;}.cls-6{fill:#993b1a;}.cls-7{fill:#231800;}.cls-8{fill:#fff86c;}</style><clipPath id="clip-path"><rect class="cls-1" x="-221.79" y="-181.64" width="1600" height="900"/></clipPath></defs><g class="cls-2"><path class="cls-3" d="M451.59,610.73,444.64,229s-42.52-14.22-71.81,0l10.8,381.72Z"/><path class="cls-4" d="M434.64,610.73,427.7,229s-42.52-14.22-71.81,0l10.8,381.72Z"/><path class="cls-5" d="M357,269.2s58.16-10.71,88-9.44l-.63-24.51-88.25,3.06Z"/><path class="cls-3" d="M8.15,58.42s453.12-103.76,797-27.71c5.46,1.21,9.51,2.64,14.92,3.94l-12.16,68.82-.48,8.33-10.91,58.76-1.5,4.29,0,2.94L769.21,278.15s-212.42-43.54-353.77-35.09S51.11,270,51.11,270l-7.42-38.26,73.69-17.05L41.63,220,38.9,208.56l17.8-69.39-33-5.67-3.25-7.43L89,61.79l-78,6.32Z"/><path class="cls-4" d="M4,42.08S463.9-4.32,806,54.38l-9.8,63-39.87-5.9,38.92,15.11L786,176.2H773.75l10.75,7.23-15.29,94.72s-222.93-26.68-364.28-18.23S47.8,275.62,47.8,275.62l-6.91-39.18L107,220.31l-68.37,6.91L23.22,151.17l23.05-6.35H20.15l-10-60.49,68.37-16.9L7.86,78.19Z"/><path class="cls-6" d="M65.83,57.84s412.06-40.3,658.81,6.58c0,0-119.26-31.25-328.17-28.79S65.83,57.84,65.83,57.84Z"/><path class="cls-6" d="M102.24,232.6h0ZM725,196.41s-84.07,1.9-99.53,4.76c-14.51,2.68-189.7,15.41-237.68,15.41-3.18,0-5.79-.06-7.77-.17-9.89-.59-25.64-.82-43.12-.82-38.88,0-86.34,1.11-97,1.77-15,.92-118.15,15.28-136.26,15.28-.47,0-.87,0-1.21,0,1.49.09,10.23.59,23.07.59a429,429,0,0,0,63.19-4.41c31.22-4.79,68.45-8.6,103-8.6a362,362,0,0,1,39,1.93c4,.43,9.76.63,17.06.63,73.07,0,296.28-19.68,318.25-19.68,24.16,0,58.95-6.66,58.95-6.66Z"/><path class="cls-6" d="M806.87,49.3l-.56-2.73s-10.86.62-17.23,1.71c0,0-191.15-19.45-240.17-24.42-48.85-4.95-131.59,2.27-149.7.82-1.21-.09-.31-.06,0,0,4.22.91,150.38,6.7,181.07,13.31,31.56,6.79,205.66,25.95,222.13,17.9,1.48-.72,3.47-.67,3.6-1.51Z"/><path class="cls-6" d="M740.65,161.53s-92.35,2.12-109.34,5.3c-15.92,3-208.29,17.18-261,17.18-3.5,0-6.38-.06-8.55-.19-10.86-.66-28.13-.91-47.31-.91-42.72,0-94.89,1.24-106.62,2-16.32,1-127.75,16.75-149.12,17l.37.1c3.9.2,12.15.53,23.11.53,18.12,0,43.68-.92,69.39-4.92,34.31-5.34,75.19-9.58,113.21-9.58a390.32,390.32,0,0,1,42.83,2.15,186.26,186.26,0,0,0,18.75.7c80.26,0,325.45-21.93,349.58-21.93,26.54,0,64.75-7.43,64.75-7.43Z"/><path class="cls-6" d="M746.06,96.71c-2.79.18-59.61,9.74-78.65,11.74-20.17,2.13-195.32,28.66-220.79,30.79s-188.94,18-211.23,19.1c-17.28.83-122.47,9.29-169,13.07,51.82-2.15,202.13-8.51,257.09-12,66.88-4.25,188.94-23.36,227.16-27.6s191.06-34,195.31-35l.1,0v0Z"/><path class="cls-6" d="M138.56,76.14c-46.35,0-95.94.41-102.95.47v0c12.48.42,159.06,5.28,174.3,5.28,15.93,0,166.65,3.19,166.65,3.19S283.15,118,267.23,123.32s-128.44,22.29-143.3,24.41-77.49,18.05-77.49,18.05,52-6.37,82.8-11.68,95.53-7.43,148.61-27.6S402,83,402,83s-150.73-5.31-198.5-6.37c-15.92-.35-40-.47-65-.47Z"/><path class="cls-6" d="M109.36,132.23a113.54,113.54,0,0,0-15.15,4.88s6-2,15.15-4.88Zm-68.2-30.14h0s67.93,6.37,90.22,6.37,79.61,0,61.57,1.06c-13.11.77-59.31,15-83.57,22.71,4.25-1.13,9.45-2.37,15.64-3.6,21.22-4.25,135.86-24.42,110.39-25.48-25.32-1.06-192.2-1.06-194.23-1.06Z"/><path class="cls-6" d="M402,279.59S372.17,378,385.45,443.83s47.61,19.38,42.95-4.62-26.62-69.95-36.12-42.39,8.74,62.81,17.29,52.09-3.34-2-3.34-2-12-2.14-11-39.11,15.69-1.75,18.53,3.36,17.13,30.28,6.93,48S402,471.89,402,471.89s-25.28-26.05-12.51-95.49S402,279.59,402,279.59Z"/><path class="cls-6" d="M397.11,269.13s-27.58,3.63-30.64,90.69,13.19,107.75,18.81,117.81-18.9-56.42-15.83-98S365.53,305.89,397.11,269.13Z"/><path class="cls-7" d="M254.31,117.64a16,16,0,0,0-11.48,5.29V87.32c-6,3-21.83,4.6-21.83,4.6,2.3,4.13,3,28.94,3,28.94-20-13.78-29.86,3.44-29.86,3.44-7.58-11.94-20.68-4.59-20.68-4.59-5.28-3.91-11.71-1.15-11.71-1.15v-1.84l-9.19,2.3s.3-15.85-12.63-14c-14.77,2.1-9,16.52-9,16.52-7.35-6.21-18.34-3.43-18.34-3.43l-.92-3c-1.84,2.52-14.1,5.3-14.1,5.3-2.76-6.2-5.19-23-5.19-23l-24.94,4.7C72.25,123,54.7,162.75,54.7,162.75l19.86,3,9-1.55.52,1.55,15.33-3.1.35,1.37H116.6l1.21-2.21,13.95,1.35,1.72,1L148,161.83l1.72,1.87,14.13-.52,1.72-1.35,12.4,1.35,1.73-2.07,14.12,1.73,2.76-2.24c6.72,5.34,16.81,2,16.81,2l.76,1,11-.23.92,1.58,20.44-3.1s15.62,7.73,25.73-1.23c13-11.53-1.61-22-1.61-22l8-1.61C273.38,119,261.43,117.64,254.31,117.64Z"/><path class="cls-7" d="M380.31,91.85l2.39,26.89c-13.27-3.44-22.73,6.87-22.73,6.87-4.48-12-21.19-8.88-21.19-8.88l-5.11.48c-.49.39-13.78,7.15-14.12-16.34-.05-3-12.25-1.23-12.25-1.23-6.39,0-6.65,15.53-13.8,42.34-1.55,5.84-9.77,19.53-9.77,19.53l26.88,1.1,14.21-.05,1.9-1v1h16.54l1-2.73,14.47,2.73,2.24-5.17c8.61,5.17,18.26,2.44,18.26,2.44l1,2.73,21.8-1.94c-1.55-6.55-1.53-73.85-1.53-73.85C402.86,86.2,381.32,91.55,380.31,91.85Z"/><path class="cls-7" d="M555.16,117.08v-3.15l-10.5,2.63s3.1-14.3-11.2-13.09c-15.23,1.28-8.44,16-8.44,16l-2.76,1c-17.69-14.25-31.47,2.06-31.47,2.06-4.83-7.35-16.08-5.74-16.08-5.74l1-30.55-23,6.06.74,2.73c-5.51,1.72-37,2.93-37,2.93l2.41,25.15,11-1.72c1,8.26-.69,42.38-.69,42.38l28.95-1.21,1-1.21,16.89-1.52,15.33,2.73,2.41-6.66a25.23,25.23,0,0,0,15.85,5.63,22.27,22.27,0,0,0,15.16-5.63l1,6.66,16.36-2.73,1.38,2.73,16.71-2.73-2.24-16.91,18.09-3.45C577.73,109,555.16,117.08,555.16,117.08ZM451.08,157.29c.2-9.55-1.35-36.94-1.35-36.94,1.38-.72,5,.17,5,.17l1.21,36.36Z"/><path class="cls-7" d="M769.28,137.7l8.44-3.91s-3.81-16.46-19.13-17.4c-14-.86-16.36,8.61-16.36,8.61s-6.15-12.11-21.54-8.67c-9.47,2.13-11.37,7.64-11.37,7.64a12.87,12.87,0,0,0-12.75-6.89s-5,.52-6.54,2.07a15.28,15.28,0,0,0-11.37-2.59l-1.9,1-1.38-1.88L661,118.23l.62,6.77s-4.13-8.61-14-7.58a18.54,18.54,0,0,0-14,9S634,102.61,637,95.72H613.71L615.94,119l-3.54.4-1.51-23.71-19.75,2.92s3.56,45.43-2.19,63.63h24.12l2-1.59,20.73-.85s15.27,4.28,24.23-.72l1.38,1.58,16.36-.86,13.1.86,1.72-1.58,14.3,2.42s3.27-4.31,3.1-8.62a20.56,20.56,0,0,0,16,7.76c10.51,0,15-6.38,15-6.38s5.69,7.52,17.23,8,17.4-7.63,17.57-10.74S775.65,140.91,769.28,137.7ZM615,154.79h-3.19l-1.15-15.73h5.75Z"/><path class="cls-8" d="M87,154.1a112.83,112.83,0,0,0-.57-12.22,61.32,61.32,0,0,0-9.84-.32c-.74,4.59-1.31,9.18-1.64,13.27-7-.9-14.43-1.14-14.43-1.14,7.05-14.92,12-38.86,12.71-54.84a74.18,74.18,0,0,0,15.24-1.56c2.14,17.13,7,41.23,11.89,54.18C96,152.13,92.38,153.28,87,154.1ZM82.13,116c-1.39,4.67-3,11.56-4.42,18.94a72.68,72.68,0,0,0,7.78-.82A183.93,183.93,0,0,0,82.13,116Z"/><path class="cls-8" d="M116.48,150.9c4-11.48,3-24.18-.5-25.17-1.63-.49-3.19.17-4.59,2,.33,9.35,1,19.35,1.64,25.82,0,0-5.9-.41-11.47-.24a214.39,214.39,0,0,0-.33-36.31,40.07,40.07,0,0,0,10.08-1.81v3.61a11.88,11.88,0,0,1,9.76-2.87c9.92,1.56,12.37,15.66,7.62,36.81C122.87,151.72,116.48,150.9,116.48,150.9Z"/><path class="cls-8" d="M142.62,113c-3.77,1.23-7.78,0-8.6-3.12-.82-2.86.65-5.82,3.93-7.21,3.77-1.72,8.12-.49,9,2.79C147.7,108.36,146.72,111.64,142.62,113Zm-7.21,40c1.64-10.33,1-25.57-.49-35.66a83.58,83.58,0,0,0,11.64-1.8c-.66,9.18.08,27.05,1.23,35.82C147.79,151.39,141.72,152.05,135.41,153Z"/><path class="cls-8" d="M179.67,151.15c3.77-11.23,3.77-24.19.08-25.5a3.12,3.12,0,0,0-3.19.66c1.47,6.64,1.23,15.9-1,27a84.55,84.55,0,0,0-11-1.48c3.69-12.21,2.62-25.08-.49-26.07a3.53,3.53,0,0,0-3.45.91c.33,9.83,1.07,20.49,1.73,25.9a114,114,0,0,0-11.48,1.23c1.07-11.64,1.39-26.15-.25-37.3a37.25,37.25,0,0,0,10-1.72c-.08,1.07-.08,2.13-.08,3.28a9.61,9.61,0,0,1,7.87-2.13,8.3,8.3,0,0,1,5.74,4.18c2.87-3.61,6.47-4.84,9.84-4.18,9.18,1.8,11.88,17.13,6.8,36.72A73.6,73.6,0,0,0,179.67,151.15Z"/><path class="cls-8" d="M214.83,152.87a21.94,21.94,0,0,0,.41-2.38,15.79,15.79,0,0,1-6.63,2.38c-5,.57-13.37-3-13.53-10.41-.16-8.2,7.13-12.13,13.61-12.3a13.76,13.76,0,0,1,7.21,1.89c-1.39-12.46-7.21-10.09-6.48-4.1a48.8,48.8,0,0,0-11.88,1.47c-2-9.67,5.57-19.18,18.2-14,13.93,5.65,7.54,27.21,8.93,37.05A76.59,76.59,0,0,0,214.83,152.87Zm-5-15c-2.13.73-4.26,2.87-3.36,5.08s3.77,2.38,5.58,1.72c2.54-1,4.26-3.69,3.52-5.33C214.67,137.46,211.8,137.13,209.83,137.87Z"/><path class="cls-8" d="M227.29,153.11c3.12-18.36,2-48.11-.74-63a82.15,82.15,0,0,0,13-2.3c-1.4,15.33-.5,48.86,1.8,64.19C234.51,152.46,227.29,153.11,227.29,153.11Z"/><path class="cls-8" d="M259,152.79a18.19,18.19,0,0,1-15.33-7.87,57.19,57.19,0,0,1,7.38-8.53c2.79,5.66,7.79,7.05,9,5.58,1-1.23.33-3.37-5-5.66-4.84-2.05-9.1-5.08-9.35-10.49-.24-4.35,2.46-10.09,11.07-10.5,9.26-.41,13.77,6,15.74,12.3A32.34,32.34,0,0,0,262,130.74c-2.45-6.4-6.47-6.15-6.14-3.61,1,6.88,17.05,5.49,16.8,16.06C272.46,149.51,266.39,152.87,259,152.79Z"/><path class="cls-8" d="M319.42,154.1a110.34,110.34,0,0,0-.57-12.22,61.32,61.32,0,0,0-9.84-.32c-.74,4.59-1.31,9.18-1.64,13.27-7-.9-14.42-1.14-14.42-1.14,7.05-14.92,12-38.86,12.7-54.84a74.33,74.33,0,0,0,15.25-1.56c2.13,17.13,7.05,41.23,11.88,54.18C328.44,152.13,324.83,153.28,319.42,154.1ZM314.59,116c-1.4,4.67-3,11.56-4.43,18.94a72.83,72.83,0,0,0,7.79-.82C317.13,128,316,121.8,314.59,116Z"/><path class="cls-8" d="M348.93,150.9c4-11.48,2.95-24.18-.49-25.17-1.64-.49-3.2.17-4.59,2,.33,9.35,1,19.35,1.64,25.82,0,0-5.9-.41-11.48-.24a214.39,214.39,0,0,0-.33-36.31,40.19,40.19,0,0,0,10.09-1.81v3.61a11.87,11.87,0,0,1,9.75-2.87c9.92,1.56,12.38,15.66,7.62,36.81C355.32,151.72,348.93,150.9,348.93,150.9Z"/><path class="cls-8" d="M399.09,152c-3-.5-11,.9-11,.9a43.67,43.67,0,0,0,.49-5,13.58,13.58,0,0,1-8.61,3.19c-7.95.17-14.09-5.49-14.26-15-.16-7.95,4.1-19.26,13.77-19.83a11.87,11.87,0,0,1,9.67,4.26,269.18,269.18,0,0,0-2.29-31.07,82.21,82.21,0,0,0,13.52-2.13C398.68,101.64,397.13,135.41,399.09,152ZM383.85,128c-3.61-.66-7.46,2.71-8,7.46-.33,3.77,2.46,6.31,5.49,6.07,3.19-.17,5.57-2.22,6.31-6.4C388.36,131.56,387.13,128.6,383.85,128Z"/><path class="cls-8" d="M446.06,109.5c0,14.92.9,32.06,2.79,43.2-7,.25-14.6,1-14.6,1a176.33,176.33,0,0,0,.33-43.45,88.5,88.5,0,0,0-11.39,2.05,108.12,108.12,0,0,0-1.56-15.41c11.8-.65,25.41-.33,36.23-1.72,0,0-.08,7.54.17,14.59A111.74,111.74,0,0,0,446.06,109.5Z"/><path class="cls-8" d="M475.81,150.9c4.35-12.3,2.71-23.53-.65-24.51-1.81-.49-3.36.49-4.76,2.38a185,185,0,0,0,1.15,23.2,88.41,88.41,0,0,0-11.15.9A434.47,434.47,0,0,0,459,90.57c6.56-1.39,13.6-2.71,13.6-2.71-.9,7.14-1.72,19.19-2,31.4a12.23,12.23,0,0,1,9.91-2.79c9.92,1.56,12.63,15.33,7.87,36.4A89.21,89.21,0,0,0,475.81,150.9Z"/><path class="cls-8" d="M511.14,152.29c-6.8.5-14.59-3.36-17.21-13.77-2.87-11.39,2.13-24,13.52-24.18,10.9-.16,15.41,8.2,15.9,18.77A141.2,141.2,0,0,0,503.27,135c.41,5.16,2.3,9.26,5,9,2.54-.24,3-3.68,2.46-6.8,0,0,7.46-1,14.51-1.47C525.16,147.62,517.7,151.88,511.14,152.29Zm-3.85-29.59c-2,.33-3.36,3-3.94,6.64a67.49,67.49,0,0,0,8.61-.82C511.47,125,509.83,122.37,507.29,122.7Z"/><path class="cls-8" d="M536.38,113c-3.77,1.23-7.78,0-8.6-3.12-.82-2.86.65-5.82,3.93-7.21,3.77-1.72,8.12-.49,9,2.79C541.47,108.36,540.48,111.64,536.38,113Zm-7.21,40c1.64-10.33,1-25.57-.49-35.66a83.58,83.58,0,0,0,11.64-1.8c-.66,9.18.08,27.05,1.23,35.82C541.55,151.39,535.48,152.05,529.17,153Z"/><path class="cls-8" d="M560.89,133.77c.17-4.59-.9-7.54-2.46-7.87-1.39-.25-2.87.24-4.1,2.38a211.78,211.78,0,0,0,2.14,23.6,38.82,38.82,0,0,0-11.73,1.56c.82-11.31,1.4-25.82-.24-37a35.51,35.51,0,0,0,9.83-1.72c-.08,1.31-.16,2.79-.16,4.35a13.33,13.33,0,0,1,10.74-3.45c5.41.9,8.2,6.23,8,15.41A63.29,63.29,0,0,0,560.89,133.77Z"/><path class="cls-8" d="M616.46,152.38a200.33,200.33,0,0,0,2-22.22,87.87,87.87,0,0,0-11.07-.24c.33,9.18,1.15,18,2.63,24a137.82,137.82,0,0,0-16.07-.41c3.12-13.36,3-44.1.66-56.06,0,0,7-.25,14.18.16a190.92,190.92,0,0,0-1.48,24.1c2.62-.08,6.81-.41,11.31-.9a225.06,225.06,0,0,0-1.14-26.73,130.31,130.31,0,0,0,14.18.74c-3,15.08-3.2,42.22.65,56.56C624.41,151.64,616.46,152.38,616.46,152.38Z"/><path class="cls-8" d="M648.92,152.79c-4.83.32-12.54-2-14.59-12-2.38-11.4,3.2-25,13.44-25.09,7.38-.08,13.78,7.14,14.43,18.45C662.78,144,658.18,152.13,648.92,152.79Zm-1.31-24.92c-3.52.32-5.66,6.06-4.75,11.23.65,4.34,2.95,6.14,5.16,5.9,3.28-.33,5-4.59,4.67-8.94C652.28,130.9,650.07,127.7,647.61,127.87Z"/><path class="cls-8" d="M694,151.15c3.77-11.23,3.77-24.19.09-25.5a3.14,3.14,0,0,0-3.2.66c1.47,6.64,1.23,15.9-1,27a84.55,84.55,0,0,0-11-1.48c3.69-12.21,2.62-25.08-.49-26.07a3.51,3.51,0,0,0-3.44.91c.32,9.83,1.06,20.49,1.72,25.9a114.27,114.27,0,0,0-11.48,1.23c1.07-11.64,1.4-26.15-.24-37.3a37.25,37.25,0,0,0,10-1.72c-.09,1.07-.09,2.13-.09,3.28a9.61,9.61,0,0,1,7.87-2.13,8.28,8.28,0,0,1,5.74,4.18c2.87-3.61,6.48-4.84,9.84-4.18,9.18,1.8,11.88,17.13,6.8,36.72A73.6,73.6,0,0,0,694,151.15Z"/><path class="cls-8" d="M727.94,152.29c-6.81.5-14.6-3.36-17.22-13.77-2.87-11.39,2.13-24,13.53-24.18,10.9-.16,15.41,8.2,15.9,18.77A141.2,141.2,0,0,0,720.07,135c.41,5.16,2.29,9.26,5,9,2.54-.24,3-3.68,2.46-6.8,0,0,7.46-1,14.5-1.47C742,147.62,734.49,151.88,727.94,152.29Zm-3.86-29.59c-2,.33-3.36,3-3.93,6.64a67.66,67.66,0,0,0,8.61-.82C728.26,125,726.62,122.37,724.08,122.7Z"/><path class="cls-8" d="M758.43,152.79a18.18,18.18,0,0,1-15.33-7.87,56.55,56.55,0,0,1,7.38-8.53c2.78,5.66,7.78,7.05,9,5.58,1-1.23.33-3.37-5-5.66-4.83-2.05-9.09-5.08-9.34-10.49-.25-4.35,2.46-10.09,11.06-10.5,9.27-.41,13.78,6,15.74,12.3a32.34,32.34,0,0,0-10.57,3.12c-2.46-6.4-6.48-6.15-6.15-3.61,1,6.88,17,5.49,16.8,16.06C771.87,149.51,765.81,152.87,758.43,152.79Z"/></g></svg>