<svg
  id="Layer_1"
  data-name="Layer 1"
  xmlns="http://www.w3.org/2000/svg"
  viewBox="0 0 289.11 68.85"
><defs><style>.cls-1{fill:#666;}</style></defs><g id="color"><path
      xmlns="http://www.w3.org/2000/svg"
      class="cls-1"
      d="M163.14,40.21a3.46,3.46,0,0,0-2.65-2.76,4.05,4.05,0,0,0,1.58-1.37A6,6,0,0,0,163.12,31a5.69,5.69,0,0,0-3.24-3.27,7.42,7.42,0,0,0-.36-4.93,5.07,5.07,0,0,0-3.24-2.54c-1.74-.51-2.86-.28-3.64.3A4.16,4.16,0,0,0,152,18.7c-1.28-1.92-2.73-3-4.32-3.21a5.46,5.46,0,0,0-4.07,1.3,7.52,7.52,0,0,0-4.62-2h0a4.91,4.91,0,0,0-3.66,1.76,3.57,3.57,0,0,0-1.09,2.85,4.54,4.54,0,0,0-.94-.46,4.65,4.65,0,0,0-4.59.61,6.58,6.58,0,0,0-1.93,5.34,7.51,7.51,0,0,0-4.27,2.73,5,5,0,0,0-.64,4.09,3.94,3.94,0,0,0,3.28,3.23,5.3,5.3,0,0,0-2.24,1.44c-1.71,2-1.74,3.69-1.46,4.78a6.1,6.1,0,0,0,3.52,3.78,7.63,7.63,0,0,0,.35,5.2,4.77,4.77,0,0,0,3.24,2.36,4.84,4.84,0,0,0,1.2.16,4.06,4.06,0,0,0,2.92-1.28,4.11,4.11,0,0,0,.44,2.31,5.88,5.88,0,0,0,4,3.35,5.67,5.67,0,0,0,4.42-1.26,7.46,7.46,0,0,0,4.61,2.1h0a4.92,4.92,0,0,0,3.64-1.7,3.46,3.46,0,0,0,1-3.47,3.85,3.85,0,0,0,1.48.41h.58a5.59,5.59,0,0,0,4.35-1.62,5.7,5.7,0,0,0,1.25-4.43,7.48,7.48,0,0,0,4.21-2.81A4.89,4.89,0,0,0,163.14,40.21Z"
    /></g></svg>
