<svg id="Layer_1" data-name="Layer 1" xmlns="http://www.w3.org/2000/svg" xmlns:xlink="http://www.w3.org/1999/xlink" viewBox="0 0 134.51 57.26"><defs><style>.cls-1{stroke:#721010;stroke-miterlimit:10;stroke-width:1.42px;fill:url(#linear-gradient);}.cls-2{font-size:26.42px;font-family:MyriadPro-Semibold, Myriad Pro;font-weight:600;}.cls-2,.cls-5{fill:#fff;}.cls-3{letter-spacing:0.01em;}.cls-4{letter-spacing:0em;}</style><linearGradient id="linear-gradient" x1="67.24" y1="-20.02" x2="67.24" y2="71.37" gradientUnits="userSpaceOnUse"><stop offset="0.24" stop-color="#e2774a"/><stop offset="0.35" stop-color="#e27348"/><stop offset="0.47" stop-color="#e26642"/><stop offset="0.59" stop-color="#e25137"/><stop offset="0.71" stop-color="#e33329"/><stop offset="0.84" stop-color="#e30d17"/><stop offset="0.86" stop-color="#e30613"/></linearGradient></defs><g id="red"><rect class="cls-1" x="1.18" y="1.08" width="132.12" height="55.05" rx="7"/><text class="cls-2" transform="translate(59.5 38.3)">NE<tspan class="cls-3" x="31.47" y="0">X</tspan><tspan class="cls-4" x="47.35" y="0">T</tspan></text><path class="cls-5" d="M31.48,10.88A17.73,17.73,0,1,0,49.2,28.6,17.72,17.72,0,0,0,31.48,10.88Zm10,20.79L32.37,37.8a2.86,2.86,0,0,1-4.45-2.37v-1h-5.7a2.33,2.33,0,0,1-2.33-2.33v-7a2.33,2.33,0,0,1,2.33-2.34h5.7v-1a2.85,2.85,0,0,1,4.45-2.36l9.07,6.13A3.7,3.7,0,0,1,41.44,31.67Z"/></g></svg>