<svg xmlns="http://www.w3.org/2000/svg" xmlns:xlink="http://www.w3.org/1999/xlink" width="100%" height="100%" viewBox="0 0 1600 900">
  <defs>
    <style>
      .cls-1 {
        fill: none;
      }

      .cls-2 {
        isolation: isolate;
      }

      .cls-3 {
        clip-path: url(#clip-path);
      }

      .cls-4 {
        fill: url(#linear-gradient);
      }

      .cls-5 {
        fill: #74c38a;
      }

      .cls-6, .cls-7, .cls-8, .cls-9 {
        stroke-miterlimit: 10;
      }

      .cls-6, .cls-7, .cls-8 {
        stroke-width: 0.5px;
      }

      .cls-6 {
        fill: url(#linear-gradient-2);
        stroke: url(#linear-gradient-3);
      }

      .cls-7 {
        fill: url(#linear-gradient-4);
        stroke: url(#linear-gradient-5);
      }

      .cls-8 {
        fill: url(#linear-gradient-6);
        stroke: url(#linear-gradient-7);
      }

      .cls-9 {
        stroke-width: 0.25px;
        fill: url(#linear-gradient-8);
        stroke: url(#linear-gradient-9);
      }

      .cls-10 {
        fill: #cadee0;
      }

      .cls-11, .cls-13, .cls-14 {
        mix-blend-mode: screen;
      }

      .cls-11, .cls-20, .cls-31 {
        opacity: 0.5;
      }

      .cls-11 {
        fill: url(#linear-gradient-10);
      }

      .cls-12, .cls-17 {
        fill: #95be1d;
      }

      .cls-13, .cls-14 {
        opacity: 0.4;
      }

      .cls-13 {
        fill: url(#linear-gradient-11);
      }

      .cls-14 {
        fill: url(#linear-gradient-12);
      }

      .cls-15 {
        fill: url(#linear-gradient-13);
      }

      .cls-16 {
        opacity: 0.3;
      }

      .cls-17, .cls-18, .cls-20, .cls-55 {
        mix-blend-mode: multiply;
      }

      .cls-18 {
        opacity: 0.31;
      }

      .cls-19, .cls-20 {
        fill: #5f8337;
      }

      .cls-21 {
        fill: url(#linear-gradient-14);
      }

      .cls-22 {
        fill: #8e442b;
        opacity: 0.68;
      }

      .cls-23 {
        fill: #b46747;
      }

      .cls-24 {
        fill: #602d0b;
      }

      .cls-25 {
        fill: url(#linear-gradient-15);
      }

      .cls-26 {
        fill: url(#linear-gradient-16);
      }

      .cls-27 {
        fill: url(#linear-gradient-17);
      }

      .cls-28 {
        fill: #036801;
      }

      .cls-29 {
        fill: url(#linear-gradient-18);
      }

      .cls-30 {
        fill: url(#linear-gradient-19);
      }

      .cls-31, .cls-32 {
        fill: #301600;
      }

      .cls-33 {
        fill: #2b0000;
      }

      .cls-34 {
        fill: #7f4e18;
      }

      .cls-35 {
        fill: #b27238;
      }

      .cls-36 {
        fill: #727272;
      }

      .cls-37 {
        fill: #512c08;
      }

      .cls-38 {
        fill: #2d1501;
      }

      .cls-39 {
        fill: #724212;
      }

      .cls-40 {
        fill: #5e2106;
      }

      .cls-41 {
        fill: #e68851;
      }

      .cls-42 {
        fill: #843812;
      }

      .cls-43 {
        fill: #301102;
      }

      .cls-44 {
        fill: url(#linear-gradient-20);
      }

      .cls-45 {
        fill: #53702d;
      }

      .cls-46 {
        fill: #985b12;
      }

      .cls-47 {
        fill: #804805;
      }

      .cls-48 {
        fill: #663600;
      }

      .cls-49 {
        fill: #b16f21;
      }

      .cls-50 {
        fill: #e2bc5b;
      }

      .cls-51 {
        fill: #bb7f2d;
      }

      .cls-52 {
        fill: #e9cf79;
      }

      .cls-53 {
        fill: #755b1a;
      }

      .cls-54 {
        fill: #e8ab5b;
      }

      .cls-55 {
        opacity: 0.6;
        fill: url(#radial-gradient);
      }

      .cls-56 {
        clip-path: url(#clip-path-2);
      }

      .cls-57 {
        clip-path: url(#clip-path-3);
      }

      .cls-58 {
        fill: url(#linear-gradient-21);
      }

      .cls-59 {
        fill: #6cbd46;
      }

      .cls-60 {
        fill: url(#linear-gradient-22);
      }

      .cls-61 {
        fill: url(#linear-gradient-23);
      }

      .cls-62 {
        fill: url(#linear-gradient-24);
      }

      .cls-63 {
        fill: url(#linear-gradient-25);
      }

      .cls-64 {
        fill: url(#linear-gradient-26);
      }
    </style>
    <clipPath id="clip-path">
      <rect class="cls-1" width="1600" height="900"/>
    </clipPath>
    <linearGradient id="linear-gradient" x1="784.55" y1="-347.93" x2="833.19" y2="938.31" gradientUnits="userSpaceOnUse">
      <stop offset="0.21" stop-color="#a2d9d8"/>
      <stop offset="0.22" stop-color="#9ad7d7"/>
      <stop offset="0.24" stop-color="#86d1d4"/>
      <stop offset="0.26" stop-color="#7acdd3"/>
      <stop offset="0.27" stop-color="#76ccd2"/>
      <stop offset="0.32" stop-color="#7acdd2"/>
      <stop offset="0.36" stop-color="#86d1d2"/>
      <stop offset="0.4" stop-color="#9ad6d2"/>
      <stop offset="0.43" stop-color="#addcd2"/>
      <stop offset="0.49" stop-color="#c5e6df"/>
      <stop offset="0.59" stop-color="#eff8f6"/>
      <stop offset="0.64" stop-color="#fff"/>
      <stop offset="1" stop-color="#c8e5d2"/>
    </linearGradient>
    <linearGradient id="linear-gradient-2" x1="20.71" y1="602.3" x2="1189.96" y2="602.3" gradientUnits="userSpaceOnUse">
      <stop offset="0" stop-color="#2db24b"/>
      <stop offset="0.2" stop-color="#2dae4a"/>
      <stop offset="0.4" stop-color="#2ca248"/>
      <stop offset="0.56" stop-color="#2c9245"/>
      <stop offset="1" stop-color="#67bc45"/>
    </linearGradient>
    <linearGradient id="linear-gradient-3" x1="193.15" y1="907.39" x2="1012.64" y2="346.15" gradientUnits="userSpaceOnUse">
      <stop offset="0" stop-color="#76ccd2"/>
      <stop offset="0" stop-color="#6fc4c0"/>
      <stop offset="0" stop-color="#5db193"/>
      <stop offset="0" stop-color="#40914a"/>
      <stop offset="0" stop-color="#3d8e42"/>
      <stop offset="0" stop-color="#348740"/>
      <stop offset="0" stop-color="#20793c"/>
      <stop offset="0" stop-color="#147039"/>
      <stop offset="0" stop-color="#106d38"/>
      <stop offset="0.01" stop-color="#106d3e"/>
      <stop offset="0.02" stop-color="#0f6d49"/>
      <stop offset="0.05" stop-color="#0e6d50"/>
      <stop offset="0.12" stop-color="#0e6d52"/>
      <stop offset="0.32" stop-color="#106e52"/>
      <stop offset="0.39" stop-color="#177250"/>
      <stop offset="0.45" stop-color="#23794d"/>
      <stop offset="0.49" stop-color="#348249"/>
      <stop offset="0.52" stop-color="#4a8f44"/>
      <stop offset="0.56" stop-color="#659e3e"/>
      <stop offset="0.59" stop-color="#85b036"/>
      <stop offset="0.61" stop-color="#aac52d"/>
      <stop offset="0.63" stop-color="#d3dc24"/>
      <stop offset="0.64" stop-color="#d6de23"/>
      <stop offset="0.81" stop-color="#d6de23"/>
      <stop offset="0.84" stop-color="#d6de23"/>
      <stop offset="0.86" stop-color="#d7df27"/>
      <stop offset="0.88" stop-color="#d9e134"/>
      <stop offset="0.9" stop-color="#dde44a"/>
      <stop offset="0.93" stop-color="#e3e869"/>
      <stop offset="0.95" stop-color="#eaee90"/>
      <stop offset="0.97" stop-color="#f3f5c0"/>
      <stop offset="1" stop-color="#fefef7"/>
      <stop offset="1" stop-color="#fff"/>
    </linearGradient>
    <linearGradient id="linear-gradient-4" x1="465.99" y1="581.28" x2="1653.64" y2="581.28" gradientUnits="userSpaceOnUse">
      <stop offset="0" stop-color="#159e49"/>
      <stop offset="0.2" stop-color="#19a049"/>
      <stop offset="0.4" stop-color="#25a649"/>
      <stop offset="0.6" stop-color="#3ab149"/>
      <stop offset="0.67" stop-color="#42b549"/>
      <stop offset="1" stop-color="#67bc45"/>
    </linearGradient>
    <linearGradient id="linear-gradient-5" x1="639.5" y1="922.76" x2="1526.19" y2="315.51" xlink:href="#linear-gradient-3"/>
    <linearGradient id="linear-gradient-6" x1="-19.93" y1="583.37" x2="1056.85" y2="583.37" gradientUnits="userSpaceOnUse">
      <stop offset="0.01" stop-color="#30b34a"/>
      <stop offset="0.14" stop-color="#34b44a"/>
      <stop offset="0.27" stop-color="#40b549"/>
      <stop offset="0.4" stop-color="#55b847"/>
      <stop offset="0.43" stop-color="#5ab947"/>
      <stop offset="1" stop-color="#67bc45"/>
    </linearGradient>
    <linearGradient id="linear-gradient-7" x1="122.58" y1="849.8" x2="866.34" y2="340.43" xlink:href="#linear-gradient-3"/>
    <linearGradient id="linear-gradient-8" x1="876.69" y1="2654.14" x2="753.01" y2="-935.63" gradientUnits="userSpaceOnUse">
      <stop offset="0.02" stop-color="#4a8e41"/>
      <stop offset="0.28" stop-color="#4c9041"/>
      <stop offset="0.37" stop-color="#539541"/>
      <stop offset="0.44" stop-color="#5e9f40"/>
      <stop offset="0.49" stop-color="#6fac40"/>
      <stop offset="0.54" stop-color="#85be3f"/>
      <stop offset="0.56" stop-color="#8fc63f"/>
      <stop offset="0.56" stop-color="#97c83d"/>
      <stop offset="0.57" stop-color="#a2cc39"/>
      <stop offset="0.58" stop-color="#a9ce38"/>
      <stop offset="0.61" stop-color="#abcf37"/>
    </linearGradient>
    <linearGradient id="linear-gradient-9" x1="190.55" y1="1192.45" x2="1447.75" y2="331.44" xlink:href="#linear-gradient-3"/>
    <linearGradient id="linear-gradient-10" x1="375.85" y1="609.73" x2="375.85" y2="578.35" gradientUnits="userSpaceOnUse">
      <stop offset="0" stop-color="#09170a"/>
      <stop offset="0.58" stop-color="#2d550c"/>
      <stop offset="1" stop-color="#16623e"/>
    </linearGradient>
    <linearGradient id="linear-gradient-11" x1="89.23" y1="608.98" x2="89.23" y2="816.52" gradientUnits="userSpaceOnUse">
      <stop offset="0" stop-color="#e68247"/>
      <stop offset="0.64" stop-color="#763521"/>
      <stop offset="0.89" stop-color="#3b1c01"/>
    </linearGradient>
    <linearGradient id="linear-gradient-12" x1="888.05" y1="608.98" x2="888.05" y2="816.66" xlink:href="#linear-gradient-11"/>
    <linearGradient id="linear-gradient-13" x1="1436.3" y1="601.93" x2="1436.3" y2="1005.82" xlink:href="#linear-gradient-11"/>
    <linearGradient id="linear-gradient-14" x1="825.5" y1="601.13" x2="819.7" y2="303.78" gradientUnits="userSpaceOnUse">
      <stop offset="0.06" stop-color="#7f2f0b"/>
      <stop offset="0.27" stop-color="#4a1f30"/>
      <stop offset="0.42" stop-color="#2c1545"/>
    </linearGradient>
    <linearGradient id="linear-gradient-15" x1="790.77" y1="510.33" x2="903.61" y2="232.65" gradientUnits="userSpaceOnUse">
      <stop offset="0.39" stop-color="#0b5a59"/>
      <stop offset="0.5" stop-color="#0f5e57"/>
      <stop offset="0.61" stop-color="#1a6952"/>
      <stop offset="0.72" stop-color="#2c7d4a"/>
      <stop offset="0.82" stop-color="#47983d"/>
      <stop offset="0.93" stop-color="#68ba2e"/>
      <stop offset="1" stop-color="#84d721"/>
    </linearGradient>
    <linearGradient id="linear-gradient-16" x1="1067.26" y1="306.86" x2="952.61" y2="464.3" gradientUnits="userSpaceOnUse">
      <stop offset="0.37" stop-color="#9dec27"/>
      <stop offset="0.46" stop-color="#87d23b"/>
      <stop offset="0.62" stop-color="#64ab5a"/>
      <stop offset="0.75" stop-color="#4f926d"/>
      <stop offset="0.83" stop-color="#478974"/>
    </linearGradient>
    <linearGradient id="linear-gradient-17" x1="668.53" y1="427.2" x2="749.15" y2="350.84" gradientUnits="userSpaceOnUse">
      <stop offset="0.12" stop-color="#2a6868"/>
      <stop offset="0.62" stop-color="#2b7d48"/>
      <stop offset="1" stop-color="#2b8a34"/>
    </linearGradient>
    <linearGradient id="linear-gradient-18" x1="813.45" y1="502.28" x2="931.74" y2="200.36" gradientUnits="userSpaceOnUse">
      <stop offset="0.08" stop-color="#11686f"/>
      <stop offset="0.2" stop-color="#156c6d"/>
      <stop offset="0.32" stop-color="#217767"/>
      <stop offset="0.44" stop-color="#358a5c"/>
      <stop offset="0.56" stop-color="#51a54e"/>
      <stop offset="0.68" stop-color="#76c73b"/>
      <stop offset="0.8" stop-color="#a2f124"/>
      <stop offset="0.81" stop-color="#a6f522"/>
    </linearGradient>
    <linearGradient id="linear-gradient-19" x1="818.8" y1="631.43" x2="851.53" y2="516.31" gradientUnits="userSpaceOnUse">
      <stop offset="0.3" stop-color="#37971a"/>
      <stop offset="0.37" stop-color="#3b9d1b"/>
      <stop offset="0.47" stop-color="#47af1f"/>
      <stop offset="0.58" stop-color="#5acc24"/>
      <stop offset="0.66" stop-color="#6be629"/>
    </linearGradient>
    <linearGradient id="linear-gradient-20" x1="721.66" y1="685.05" x2="762.16" y2="542.61" xlink:href="#linear-gradient-19"/>
    <radialGradient id="radial-gradient" cx="212.82" cy="481.02" r="246.97" gradientTransform="translate(1118.6)" gradientUnits="userSpaceOnUse">
      <stop offset="0" stop-color="#fff"/>
      <stop offset="0.13" stop-color="#fffefb"/>
      <stop offset="0.26" stop-color="#fdf9f0"/>
      <stop offset="0.38" stop-color="#fbf2dc"/>
      <stop offset="0.5" stop-color="#f9e8c1"/>
      <stop offset="0.62" stop-color="#f5da9e"/>
      <stop offset="0.74" stop-color="#f1ca74"/>
      <stop offset="0.86" stop-color="#ecb741"/>
      <stop offset="0.98" stop-color="#e6a108"/>
      <stop offset="1" stop-color="#e59e00"/>
    </radialGradient>
    <clipPath id="clip-path-2">
      <rect class="cls-1" x="1850" width="800" height="900"/>
    </clipPath>
    <clipPath id="clip-path-3">
      <rect class="cls-1" x="1720" width="1600" height="900"/>
    </clipPath>
    <linearGradient id="linear-gradient-21" x1="1679.41" y1="675.09" x2="1838.16" y2="21.48" gradientUnits="userSpaceOnUse">
      <stop offset="0" stop-color="#694722"/>
      <stop offset="0.55" stop-color="#4f4030"/>
    </linearGradient>
    <linearGradient id="linear-gradient-22" x1="1709.83" y1="396.92" x2="2150.25" y2="-96.85" gradientTransform="matrix(1.08, 0, 0, 1.06, -320.22, -192.62)" gradientUnits="userSpaceOnUse">
      <stop offset="0" stop-color="#0d5f3f"/>
      <stop offset="0.27" stop-color="#157d66"/>
      <stop offset="0.43" stop-color="#198a77"/>
      <stop offset="0.76" stop-color="#1ca989"/>
    </linearGradient>
    <linearGradient id="linear-gradient-23" x1="1399.83" y1="306.66" x2="1605.12" y2="50.63" gradientUnits="userSpaceOnUse">
      <stop offset="0" stop-color="#0d5f3f"/>
      <stop offset="0.33" stop-color="#0b7251"/>
      <stop offset="0.33" stop-color="#0b7251"/>
      <stop offset="0.43" stop-color="#087353"/>
      <stop offset="0.76" stop-color="#017458"/>
    </linearGradient>
    <linearGradient id="linear-gradient-24" x1="1399.83" y1="309.48" x2="1605.12" y2="53.46" gradientUnits="userSpaceOnUse">
      <stop offset="0.03" stop-color="#106a56"/>
      <stop offset="0.42" stop-color="#116e59"/>
      <stop offset="0.62" stop-color="#0d745b"/>
      <stop offset="0.75" stop-color="#077b5e"/>
    </linearGradient>
    <linearGradient id="linear-gradient-25" x1="1415.81" y1="43.6" x2="2237.03" y2="43.6" gradientUnits="userSpaceOnUse">
      <stop offset="0.09" stop-color="#106e5b"/>
      <stop offset="0.3" stop-color="#0e8168"/>
      <stop offset="0.4" stop-color="#0d8c6f"/>
      <stop offset="0.5" stop-color="#139673"/>
      <stop offset="0.67" stop-color="#22b27d"/>
      <stop offset="0.68" stop-color="#23b37e"/>
    </linearGradient>
    <linearGradient id="linear-gradient-26" x1="1354.75" y1="81.55" x2="2328.1" y2="14.2" gradientUnits="userSpaceOnUse">
      <stop offset="0.21" stop-color="#0b6848"/>
      <stop offset="0.36" stop-color="#127b57"/>
      <stop offset="0.55" stop-color="#1c986d"/>
      <stop offset="0.6" stop-color="#279e6e"/>
      <stop offset="0.7" stop-color="#44ad71"/>
      <stop offset="0.8" stop-color="#66be75"/>
    </linearGradient>
  </defs>
  <g class="cls-2">
    <g id="Layer_1" data-name="Layer 1">
      <g id="SC_03">
        <g class="cls-3">
          <rect class="cls-4" x="-7.72" y="-12.62" width="1631.57" height="572.9"/>
          <path class="cls-5" d="M2,498c73.58,4.46,197.71,10.63,339.18,14.81,257.74,7.6,242.42-2.1,368.68,7.79,322.32,25.24,266.38,26.49,359.15,18.71,74-6.22,499.18-48.92,522.83-45.21,0,0,17.09,2.68,34.38,3.9h.19c.08,0-15.5,170.68-15.5,170.68H30.45Z"/>
          <path class="cls-6" d="M20.71,582.75s846.51-105.45,1153.62,0L1190,667.39,30.09,668.72Z"/>
          <path class="cls-7" d="M476.47,607.15c482.22-49.57,647.44-65.21,666.75-65.48,14.69-.19,25-.83,45.76-1.55,189.49-6.63,285-10.08,320.3-17.15,91.06-18.21,115.53-38,141.27-24.94,12.34,6.23-16.26,170.69-16.26,170.69H466Z"/>
          <path class="cls-8" d="M-19.93,498S308.68,549.47,413,551s540.55,29,606.79,42.54,23.61,75.15,23.61,75.15H-1Z"/>
          <polygon class="cls-9" points="-2.87 625.21 1625.05 590.62 1625.05 909.72 -2.87 909.72 -2.87 625.21"/>
          <g>
            <path class="cls-10" d="M1341.83,177.26s30.59-7.41,41.22,8.45c.85,9.1-45.63,9.2-45.63,9.2Z"/>
            <path class="cls-10" d="M1239.59,184.91s31.3-28.35,78.75-20.25,40.12,31.77,17.13,33.21-68,1.71-77.78,0S1236.16,196.61,1239.59,184.91Z"/>
            <path class="cls-10" d="M1212.19,192.11s26.91-5.85,33.76-6.3,26.9.22,20,8.43c-10.76,1.47-36.69-.11-42.56,0S1210.72,196.61,1212.19,192.11Z"/>
          </g>
          <g>
            <path class="cls-10" d="M243.7,196.41s59.67-16.78,81.77,0c6.07,10.16-29.17,13.39-70.17,12.64S243.7,196.41,243.7,196.41Z"/>
            <path class="cls-10" d="M194,202.36s52.49-15.25,76.79-5.09C274.06,204.9,237,205.91,194,202.36Z"/>
          </g>
          <path class="cls-11" d="M22.92,588c27.17.33,54.16,2,81.34,2.18,33.6.27,66.81-2.17,100.44-1.12,19,.58,37.92,1.32,56.93,1.69,17.17.32,34.34.17,51.45.94,35.11,1.57,69.23,5.58,103.9,8.14,73.77,5.46,148.7,6.21,223.58,7.4,27,.44,53.22.11,79.82-.76a144.49,144.49,0,0,1,14.78-1.28c8.35-.41,16.74-.6,25.12-.64-4.6-.1-8.59-.14-11.71-.14-28.35,0-89.73,2.38-122.79,1.19s-47.22,0-94.44-1.8S429,597.19,396,596s-70.83-6-100.73-6.59-53.53,1.2-96-1.19-81.84,1.79-125.91-.6c-29.86-1.62-61.85-3.24-81.86-4.11v4.89C1.94,587.87,12.71,587.83,22.92,588Z"/>
          <g>
            <path class="cls-12" d="M1345.67,589.78c-54.58,4.05-110.69,10.6-165.73,11.66-72.13,1.36-143.49,6.14-215.76,7.25-74.09,1.14-145.77.88-219.76-1.57-64.07-2.12-128.26-.2-192.3-2.29-65.66-2.14-130.26-9.48-195.92-11.41-47.39-1.38-93.33-3.4-140.39-6.28-38.82-2.38-76-8.55-114.56-10.91-36.63-2.25-74.84-6.12-111.78-6.51v216H1648V559.24c-46.33,4.06-92.58,9.39-137.56,15.84C1457.17,582.72,1400.43,585.73,1345.67,589.78Z"/>
            <g>
              <path class="cls-13" d="M109.34,606.73c6.67-.22,13.33-.39,20-.59,15.81-.5,32.27-.92,47.58-2.64,3.36-.38,11.39-1.09,12-2.78.88-2.18-12.34-2.93-15.94-3.22-9.29-.75-18.74-1.19-28.18-1.57-8.9-.34-17.59-.86-26.44-1.32-15.43-.8-30.58-1.75-45.72-3.15s-30.32-3.06-45.49-4.57c-12.57-1.25-25-2.27-37.71-3v28.43c31.75-.89,63.41-2.14,94.85-4.12C92.67,607.66,100.89,607,109.34,606.73Z"/>
              <path class="cls-14" d="M704.45,611.61c-15.33,1-31,.7-45.93,2.53,3.29,1.76,9.83,2.34,15.17,2.61,8.07.42,16.3.33,24.42.13,15.61-.41,31-1.47,46.56-2.07,13.59-.52,27.66-.16,41.3-.2,16.49-.05,33-.11,49.45-.08,33,0,65.69.8,98.58,1.85,16.4.52,32.81,1,49.25,1s32.58-.51,48.84-1.23c15.68-.71,31.4-1.54,47.21-1.83,12.68-.22,26.54.62,38.29-1.64-7.1-2.4-16.58-3.57-25.74-4.28-11.22-.86-22.66-1.18-34.1-1.34-10-.14-20-.13-30-.35-14.93-.33-29.88-.94-44.76-1.56q-11.76-.49-23.54-1c-38.64,1.82-77.25,3.87-116.13,4.56-36.46.64-72.26.84-108.1.45C724.94,610,714.74,610.93,704.45,611.61Z"/>
              <path class="cls-15" d="M1413.27,602.24c-40.72,1-81.71,2.89-122.52,2.74-14.77-.05-30.22-.38-44.72.82-6.33.53-12.74,1.23-17.09,3.17s-7,4.45-.14,6.14c13,3.17,30.2,3.46,45,4.47,30.15,2.1,62,1.82,92.52,2,29.5.16,59.29,0,88.52,1.76,28.67,1.72,56.62,4.67,84.69,7.56,36,3.68,71.84,6,108.44,6.71V595.27c-32.24.43-64.43,1.51-96.53,2.72C1505.39,599.71,1459.45,601.15,1413.27,602.24Z"/>
            </g>
            <g class="cls-16">
              <path class="cls-17" d="M1529.13,572.48c-5.79,1.49-11.64,3-17.58,4.41A652.48,652.48,0,0,1,1435,590.78c-56.84,6.9-119.82,7-174.8,15.67,33.3,1.78,67.37.91,100.77-.14,23.33-.74,46.67-1.24,70-1.95,18.1-.56,36.22-1.19,54.4-1.25,13.43,0,32.38-.35,43.91,2.47,9.21,2.27,6,5.82-.15,8.44-9.92,4.21-24.53,7.25-38.38,9.82-18.41,3.42-38,6.24-57.94,8.46-18.95,2.1-38.71,3.82-58.69,4.3-13.22.32-29.21.33-40.27-2.51-.61-.17-.74-.4-.21-.6,12.31-4.9,36-4.9,46.49-10.3-26-3.53-56.94-1.61-83.86-.73-33.84,1.1-67.92,2.55-101.92,2.9-72.33.77-143.4-6-215.76-5.57-37.61.24-75.21.85-112.84,1q-55.89.23-111.79-.27c-27.44-.3-55.08-.12-82.48-.78-24.07-.59-50.66-1.69-70.6-6.64-.77-.2-.74-.61.29-.71,2.25-.23,4.56-.47,6.91-.59,15.82-.93,31.84-.26,47.72,0,18,.27,36-.43,53.84-1.12,18.14-.7,36.28-1.52,54.48-2,8.72-.21,17.38-.29,26.06-.32q-22.79-.5-45.78-1.24c-64.07-2.12-128.26-.2-192.3-2.29-65.66-2.14-130.26-9.48-195.92-11.41-47.39-1.38-93.33-3.4-140.39-6.28-38.82-2.38-76-8.55-114.56-10.91-36.63-2.25-74.84-6.12-111.78-6.51v5.11q11.29.3,22.53.84c71,3.35,138.8,11.66,207.67,18,17.15,1.58,34.43,3,52,4.05,16.48,1,32.84,1.4,49.54,1.66,27,.43,56.87.95,80.43,5.93.68.14.8.51,0,.66-13.89,2.34-29.53,3.19-44.92,3.5-29.19.57-58.34-.54-87.52-.54-33.2,0-65.71,2.63-97.9,5.13-18.13,1.4-36.25,3.11-54.57,4.23-11.83.72-23.87,1-35.76,1.64-12.78.66-26.33,1.45-37.82,3.56a80.37,80.37,0,0,0-8.77,2c-2.29.7-2.49.7-.38,1.51a54,54,0,0,0,8.65,2.4c17.41,3.4,39.62,3.91,59.32,4.22,22,.33,43.9.06,65.87,0,19.34-.05,38.55.61,57.89.83,23.48.23,51.51.13,71.86,4.65.52.13.71.33.4.52-5.31,3.31-13.53,3.81-23.9,4.14-9.44.28-18.79,1.2-28.15,1.73q-12.09.69-24.3,1.19c-18.35.76-36.78,1.27-55.21,1.78-37.59,1-74.57,2.7-111.83,4.7C33,654.27,11.28,655.35-10.53,656V785.73H1648V559.24C1608.06,562.74,1568.18,567.19,1529.13,572.48Z"/>
            </g>
            <g class="cls-18">
              <path class="cls-19" d="M1600.22,704.69c-15.19,3.43-31.9,6.93-44.82,12.53-3,1.29-7.83,3.36-7.39,5.67.76,4.08,10.84,7.12,16.53,9.13,12,4.25,33.64,10.42,27.82,19.85-3,4.84-12.22,7-21,8.16-13.27,1.77-27,3.06-40.47,4.38-70.26,6.82-141.85,7.4-213.08,7.4H1207.12c-16.17,0-32.44.26-48.61,0-13.79-.22-27.79-.93-40.41-4.11-.77-.19-.7-.84,0-1,39.35-11.4,87.15-12.39,131-13.22,14.44-.26,28.87-.44,43.31-.8,16.35-.41,32.62-1.38,48.92-2.16,18.36-.9,36.72-1.72,55.09-2.59,16.86-.83,33.75-2,50.67-2.48,12.92-.36,27.3-.38,39.1-3.54a42.65,42.65,0,0,0,9-3.34c3.06-1.69,2.18-2.5-1.91-3.16a89.08,89.08,0,0,0-17.78-.79c-12.68.51-25.1,2-37.72,2.72-18.47,1-37,1.5-55.56,1.5-37.16,0-74.26-1.35-111.39-1.46-33.65-.13-67.28.28-100.9.89-19,1-37.94,2.44-56.51,4.76-17.61,2.21-34.83,5.22-52.39,7.51-16.84,2.19-33.87,4.08-51.1,5.22-34.2,2.3-69.4,1.91-103.77.85-26.12-.8-52.2-2.34-77.8-5.16-73.93-2.28-148-6.34-221.78-2.42,29.14,5.36,60.27,7.22,90.91,8.37,29.07,1.12,58.37,2.1,87.52,2.53,28.61.42,57.29-.15,85.9.92,25.83,1,52.59,3,75.42,9.87.81.25.68.78,0,1.06-16.54,6.35-39.62,7.3-59.41,7.6-23.76.44-47.51-.54-71.19-1.38-30.21-1.07-60.6-.89-90.86-1.16-35.48-.3-70.94-.7-106.38-1.57-37.46-.92-74.52-2.79-111.77-5.06-36.72-2.24-73.52-4.34-110.51-4.72s-73.72,0-110.57-.46c-15.56-.17-31.19-.12-46.74-.44-11.56-.24-23.81-1-33-5-.5-.21-.41-.63,0-.85,12.67-6.85,33.22-8.56,50.48-9.46,23.82-1.24,47.81-.79,71.69-.45,28.83.38,57.68.16,86.52.33,18.82.08,37.64.14,56.48,0,14.24-.1,28.5-.54,42.74-.23,12.81.26,25.69.73,38.52.31,11.9-.39,24.63-1.38,34.46-5.17-40.11-6.66-82-9.22-123.85-10.5-41.69-1.25-83.42-1.8-125-3.4-37.66-1.44-75.12-5-112.84-5.86-17.59-.41-35.38.6-52.95,1.05-21.32.49-43.07,1-64.31-.39-11.31-.76-28.72-2-33.79-8.36-.15-.17,0-.47.28-.59,22.09-9.31,54.57-10.18,81.55-11.61,37.72-2,74.71-6.5,112.42-8.75,16.32-1,31.85-2.09,46.93-5.71,12.06-2.9,23.2-6.21,36.12-8s28.74-2.85,39.15-7.6c1.69-.78,1.23-.71-.4-1.44-1.1-.47-2.21-1-3.39-1.36a60.18,60.18,0,0,0-6-1.79,100.73,100.73,0,0,0-14.37-2.23c-22.9-1.92-46.29.62-69.22,1.07-19.71.41-41.37-.29-56-8.1-.55-.31-.37-.74.22-1,12-4.52,27.47-6.25,41.81-7.49,16.11-1.38,32.36-2,48.56-3,14.93-.9,29.8-2.1,44.76-2.95,18-1,36-2.05,53.63-4.19,12.93-1.57,26.05-3.64,37.54-7.22,7.77-2.43,22-7.16,21.28-12.81a4.36,4.36,0,0,0-1.17-2.28C443.94,614.93,400.3,609.06,356.2,607c-47.39-2.18-93.33-5.36-140.39-9.9-38.82-3.74-76-13.46-114.56-17.17-36.63-3.54-74.84-9.62-111.78-10.24v8c7.53.32,15,.78,22.53,1.33,71,5.27,138.8,18.34,207.67,28.27,17.15,2.49,34.43,4.79,52,6.38,16.48,1.53,32.84,2.21,49.54,2.61,27,.68,56.87,1.5,80.43,9.34.68.21.8.81,0,1-13.89,3.68-29.53,5-44.92,5.5-29.19.9-58.34-.84-87.52-.84-33.2,0-65.71,4.13-97.9,8.07-18.13,2.21-36.25,4.9-54.57,6.65-11.83,1.14-23.87,1.64-35.76,2.59-12.78,1-26.33,2.29-37.82,5.6a57.49,57.49,0,0,0-8.77,3.1c-2.29,1.1-2.49,1.12-.38,2.38a39.94,39.94,0,0,0,8.65,3.78c17.41,5.35,39.62,6.16,59.32,6.65,22,.51,43.9.08,65.87,0,19.34-.08,38.55,1,57.89,1.3,23.48.37,51.51.21,71.86,7.33.52.19.71.51.4.82-5.31,5.2-13.53,6-23.9,6.5-9.44.45-18.79,1.9-28.15,2.74q-12.09,1.07-24.3,1.87c-18.35,1.2-36.78,2-55.21,2.8-37.59,1.61-74.57,4.25-111.83,7.4-21.62,1.83-43.29,3.52-65.1,4.58V909.72H1648V694.79C1632,697.93,1616,701.14,1600.22,704.69Z"/>
            </g>
            <g>
              <path class="cls-20" d="M828.18,632.94c-1.77,0-4.12,0-6.47.17-4.56.19-8.65.73-9.71,1.82-.13.14-.09.25.16.37,4.44,2,13.38,1.46,19.45,1.18,2.2-.09,14.62-.29,13.91-2.1S831.74,632.86,828.18,632.94Z"/>
              <path class="cls-20" d="M901.77,625.82c-1.5-1.42-10.58-.83-13.51-.73-1.24,0-4.11,0-6.49.23l-2,.09c-1.27.05-5.36.79-3.18,1.49,2.42.79,6.42.76,9.37.8,3.2,0,6.37-.13,9.49-.38a28.06,28.06,0,0,0,5.54-.72C901.59,626.41,902.1,626.13,901.77,625.82Z"/>
              <path class="cls-20" d="M396,686.47c-1.76,0-4.11.06-6.45.18-4.55.18-8.65.72-9.71,1.82-.14.13-.1.26.14.38,4.44,2,13.4,1.44,19.46,1.17,2.2-.09,14.63-.29,13.92-2.1S399.53,686.4,396,686.47Z"/>
              <path class="cls-20" d="M470.05,692.13c-1.51-1.42-10.59-.82-13.53-.73-1.23.05-4.08,0-6.46.23l-2,.1c-1.28,0-5.36.78-3.18,1.48,2.4.77,6.41.75,9.37.78,3.2,0,6.39-.11,9.5-.36a27.66,27.66,0,0,0,5.52-.72C469.87,692.72,470.37,692.45,470.05,692.13Z"/>
              <path class="cls-20" d="M868,697.31c-1.21,0-2.86,0-4.49.12-3.19.15-6,.51-6.78,1.28-.09.08-.07.17.1.25,3.11,1.42,9.36,1,13.58.84,1.55-.08,10.23-.22,9.73-1.49S870.51,697.26,868,697.31Z"/>
              <path class="cls-20" d="M919.73,701.26c-1-1-7.38-.58-9.44-.51-.87,0-2.86,0-4.51.16l-1.38.07c-.9,0-3.76.53-2.24,1a27.31,27.31,0,0,0,6.57.55c2.22,0,4.43-.08,6.59-.26a20.62,20.62,0,0,0,3.89-.5C919.61,701.67,920,701.48,919.73,701.26Z"/>
            </g>
            <path class="cls-20" d="M1143.47,703.9c0,1.84-25.63,3.34-57.19,3.34s-57.17-1.5-57.17-3.34,25.6-3.34,57.17-3.34S1143.47,702.06,1143.47,703.9Z"/>
          </g>
          <g>
            <path class="cls-21" d="M905.53,585.93c.17-.49-1.25-1.25-2.47-3.08a11.68,11.68,0,0,1-1.63-4.17c-1.08-4.38-5.22-9.68-6.59-11.64-4.35-6.22-6.4-15.55-9.8-31a238,238,0,0,1-4.29-26.6c-.25-15.44,1.77-27.08,5.93-33.79a186.2,186.2,0,0,0,11.87-22.91s24.43,1.16,26.52,0,8-6.71,7-21l.35-3.44-6.28,1.85s-1.93,12.84-10,13.83c-9.59,1.39-20.56-4.79-18.95-13.83h-7s2.14,26.37-8.41,31.94c-7.87,2.18-12.51-1.28-12.16-16.72l.36-15.43-12.52,0s.72,16.41,0,17.4-6.25,11.14-12.15-9.75c-5-14.72-2.15-7.63-2.15-7.63l-6.79.17s3,16.22,13.05,26.37c6.61,9.74,6.79,26.06,1.79,31.83-5.37,5.77-14.49,8.95-21.46-25.27-4.65-22.68-5.9-32.93-5.9-32.93l-9.65-.12s3.93,27.08,3.21,31.86c-.89,5.37-1.25,21.88-22.35,14.92-11-1.7-32.88-7.78-42-26.06-3.4-15.52-2.69-21.49-2.69-21.49l-7.86-.22s.18,9,1.78,11.36a24.22,24.22,0,0,1-14-3.24c-8.1-4.7-11.37-12.66-12.25-15l-6.31-.27a40,40,0,0,0,6.37,11.7c6.22,7.83,14.87,12.15,21.22,13.2,1.26.2,6.27.91,6.25,1.13,0,.06-.35.06-.35.06s1.61,23.48,26.82,34.22c22.53,9.35,32.36,14.13,38.08,17.91s9.66,7.75,8.76,20.69a112.7,112.7,0,0,0,1.61,30.93A108,108,0,0,0,832.82,585c19.36.67,31.79.74,39.76.66,16-.17,25.09-1,29.88.19C902.48,585.85,905.29,586.57,905.53,585.93Z"/>
            <path class="cls-22" d="M880.41,506.05A50.59,50.59,0,0,0,865.23,521c-17.11,26-5.47,60.31-4.15,64l45.18.91a157.1,157.1,0,0,1-8.69-15.27C885.7,546.77,881.67,523.44,880.41,506.05Z"/>
            <path class="cls-23" d="M828.33,456.77s8.37,34.5,14.94,34.24C836.48,494.54,823.8,485,828.33,456.77Z"/>
            <path class="cls-24" d="M875.18,547.55a12.19,12.19,0,0,1-2.48.38,5.35,5.35,0,0,1-2.51-.44,2.22,2.22,0,0,1-1-.9,2.73,2.73,0,0,1-.32-1.31,7.11,7.11,0,0,1,.6-2.51,18.31,18.31,0,0,1,2.67-4.32A15.83,15.83,0,0,1,876,535a5.45,5.45,0,0,1,2.59-.85,2.9,2.9,0,0,1,1.45.37,2.46,2.46,0,0,1,.59.46,2.64,2.64,0,0,1,.47.54,10.32,10.32,0,0,1,1.43,5,31.69,31.69,0,0,1-1.22,10.08l0,.06,0,.07a35.05,35.05,0,0,1-3,4.66,21.87,21.87,0,0,1-3.92,4,10,10,0,0,1-2.52,1.42,4,4,0,0,1-3.08,0,5.13,5.13,0,0,1-2.11-2.15,12.9,12.9,0,0,1-1.06-2.64,34.94,34.94,0,0,1-.9-11c.21-3.64.39-7.28.65-10.92,0,3.64,0,7.29,0,10.94a34.46,34.46,0,0,0,1.22,10.69,14,14,0,0,0,1,2.41,4.16,4.16,0,0,0,1.66,1.69,2.93,2.93,0,0,0,2.25,0,8.8,8.8,0,0,0,2.2-1.29,28,28,0,0,0,6.57-8.35l0,.13a30.42,30.42,0,0,0,1.28-9.68,9.19,9.19,0,0,0-1.18-4.5,2,2,0,0,0-1.65-1,4.66,4.66,0,0,0-2.13.65,14.66,14.66,0,0,0-3.7,3.12A18.08,18.08,0,0,0,870,543a6.31,6.31,0,0,0-.68,2.28,2,2,0,0,0,1,1.93,5.08,5.08,0,0,0,2.36.53A12.21,12.21,0,0,0,875.18,547.55Z"/>
            <path class="cls-25" d="M703.23,352.31c1.92-14.33,7-35.95,22.23-53.61,41.16-47.72,120-25.52,145.23-18.39C933,297.9,973.3,340.09,993.07,364.64l9.81,7.88A793.06,793.06,0,0,1,846.41,386a793.94,793.94,0,0,1-136.15-13.69Z"/>
            <path class="cls-26" d="M962,361.86s56-14.12,80.77,28.88c16.15,33.38,19,44.21-80.77,38.16C945.1,375.45,962,361.86,962,361.86Z"/>
            <path class="cls-27" d="M714.83,422c-1.67,0-50.32-3.73-50.32-3.73s-19.47-5-12.87-23.65c1.45-2.31,2.56-5.52,5.91-10.86,3.46-5.5,7-8.24,9.79-12.59,17.92-20.09,30.38-21.5,30.38-21.5h0s31.74-7.08,55.36,6.81c2.63,1.55,3.93,2.39,4.93,3.83C768.94,376,735,422,735,422Z"/>
            <path class="cls-28" d="M689.89,330s4.61-11.37,36.34-5.59c29.42,7.06,6.92,25-18.17,21.18C688.17,343.43,688,334.44,689.89,330Z"/>
            <path class="cls-29" d="M715.21,383.07s29-25.49,59.4-35.48c33.21-15,77.17-48.46,130.49-33,41.16,14.49,72,34.47,90.27,71.44,8.88,21.49,10.29,47.47-57.53,44l-189,.32S675,424.54,715.21,383.07Z"/>
            <path class="cls-23" d="M932.4,430.49s.9,14.88-5.39,20.66c-1.88,2-3.36,2-5.6,2a13.47,13.47,0,0,0,7.81-9.85,77.91,77.91,0,0,0,1.63-13.3h1.55Z"/>
            <path class="cls-23" d="M870,429.89c-.25,2.6-.37,11.67-.27,13.43.43,7.74.92,16.54,5.43,18.82a5.68,5.68,0,0,0,3.39.47l1.71-.21c-2.1,2.88-4,3.13-4.59,3.16-3.73.19-8.09-5.2-9.15-13.87a58.39,58.39,0,0,1-.75-12.48c.17-3.46.79-9.32.79-9.32H870Z"/>
          </g>
          <path class="cls-30" d="M885.7,584.1c-6.88-14.89-19.85-5.71-19.85-5.71-5.22-15.66-14-7.08-14-7.08-10.62-19.07-18.69-.55-18.69-.55s-2.53-13.92-10.6-18.88-14.9,2.91-14.9,2.91c-15.58-18.1-23.14,5.18-23.14,5.18-5.92-4.52-10-.32-10-.32-6.47,6.93-2.86,17.37-2.86,17.37-19.81,5.07-7.76,15.42-7.76,15.42l2.86,1.94,129.61,3,2.1-1.19c6-3.4,4.08-13.66-2.6-14A28.65,28.65,0,0,0,885.7,584.1Z"/>
          <g>
            <path class="cls-31" d="M855.55,625.86l-12.75,4.53L909,634.61l3.59,2.23L909,638.41l11.17,3.65L964,634.37l33.17,1L1315,636.69l-35.71-24.31S870.84,608.72,855.55,625.86Z"/>
            <g>
              <g>
                <rect class="cls-32" x="850.77" y="402.37" width="15.72" height="18.79" transform="translate(444.96 1269.48) rotate(-89.87)"/>
                <path class="cls-33" d="M868.42,420l-19.64,0,0-16.46,19.65.05Zm-18.78-.77,17.93,0,0-15-17.93,0Z"/>
              </g>
              <g>
                <rect class="cls-32" x="1310.18" y="403.32" width="15.71" height="18.79" transform="translate(902.42 1729.84) rotate(-89.87)"/>
                <path class="cls-33" d="M1327.84,421l-19.65,0,0-16.45,19.65,0Zm-18.78-.77,17.92,0,0-15-17.93,0Z"/>
              </g>
              <g>
                <polygon class="cls-34" points="1305.16 619.03 870.3 618.13 870.94 392.74 942.41 332.91 1088.7 273.45 1231.56 331.9 1305.79 393.64 1305.16 619.03"/>
                <rect class="cls-35" x="772.88" y="491.53" width="250.38" height="3.06" transform="translate(404 1390.57) rotate(-89.93)"/>
                <rect class="cls-35" x="790.61" y="480.36" width="272.85" height="3.06" transform="translate(444.07 1408.35) rotate(-89.93)"/>
                <rect class="cls-35" x="954.47" y="322.48" width="3.06" height="295.89"/>
                <rect class="cls-35" x="832.04" y="463.99" width="305.82" height="3.06" transform="translate(517.29 1449.45) rotate(-89.88)"/>
                <rect class="cls-35" x="855.28" y="458.35" width="317.22" height="3.06" transform="translate(552.82 1473.23) rotate(-89.93)"/>
                <rect class="cls-35" x="876.84" y="451.01" width="332.01" height="3.06" transform="translate(588.04 1494.4) rotate(-89.88)"/>
                <rect class="cls-35" x="899.34" y="444.62" width="344.91" height="3.06" transform="translate(623.33 1516.98) rotate(-89.88)"/>
                <rect class="cls-35" x="928.27" y="444.68" width="344.92" height="3.06" transform="translate(652.14 1545.97) rotate(-89.88)"/>
                <rect class="cls-35" x="963.64" y="451.2" width="332.01" height="3.06" transform="translate(674.47 1581.38) rotate(-89.88)"/>
                <rect class="cls-35" x="998.15" y="456.84" width="320.83" height="3.06" transform="translate(697.76 1615.97) rotate(-89.88)"/>
                <rect class="cls-35" x="1032.9" y="462.74" width="309.16" height="3.06" transform="translate(720.68 1650.75) rotate(-89.88)"/>
                <rect class="cls-35" x="1069.49" y="470.49" width="293.79" height="3.06" transform="translate(741.78 1687.39) rotate(-89.88)"/>
                <rect class="cls-35" x="1107.22" y="479.36" width="276.15" height="3.06" transform="matrix(0, -1, 1, 0, 761.75, 1725.16)"/>
                <rect class="cls-35" x="1146.68" y="489.98" width="255.03" height="3.06" transform="translate(779.93 1764.64) rotate(-89.88)"/>
                <rect class="cls-33" x="776.36" y="489.19" width="247.35" height="0.86" transform="translate(405.26 1386.83) rotate(-89.67)"/>
                <rect class="cls-33" x="928.57" y="343.97" width="0.85" height="269.65" transform="translate(-0.58 1.13) rotate(-0.07)"/>
                <rect class="cls-33" x="814.08" y="469.64" width="287.75" height="0.85" transform="matrix(0, -1, 1, 0, 485.52, 1426.86)"/>
                <rect class="cls-33" x="986.48" y="311.53" width="0.86" height="302.74" transform="translate(-0.61 1.31) rotate(-0.08)"/>
                <rect class="cls-33" x="858.7" y="457.01" width="314.31" height="0.86" transform="translate(552.6 1470.65) rotate(-89.67)"/>
                <rect class="cls-33" x="882.78" y="452.47" width="324.03" height="0.86" transform="translate(585.92 1495.08) rotate(-89.67)"/>
                <rect class="cls-33" x="903.34" y="444.4" width="340.83" height="0.86" transform="translate(626.56 1517.6) rotate(-89.87)"/>
                <polygon class="cls-33" points="1102.63 615.56 1101.78 615.56 1102.74 274.47 1103.59 274.47 1102.63 615.56"/>
                <rect class="cls-33" x="967.04" y="450.9" width="329.11" height="0.86" transform="translate(677.78 1581.93) rotate(-89.87)"/>
                <polygon class="cls-33" points="1160.5 616.21 1159.64 616.21 1160.52 303.67 1161.38 303.67 1160.5 616.21"/>
                <polygon class="cls-33" points="1189.43 616.53 1188.57 616.53 1189.42 313.04 1190.28 313.03 1189.43 616.53"/>
                <rect class="cls-33" x="1072.5" y="470.59" width="291.69" height="0.86" transform="translate(744.64 1688.32) rotate(-89.87)"/>
                <rect class="cls-33" x="1110.11" y="479.62" width="274.27" height="0.86" transform="translate(764.29 1726.17) rotate(-89.87)"/>
                <rect class="cls-33" x="1149.42" y="490.35" width="253.46" height="0.86" transform="translate(782.56 1765.84) rotate(-89.87)"/>
                <path class="cls-36" d="M1305.59,619.4l-435.72-.9.64-225.92.13-.11,71.59-59.89L1088.7,273l143.16,58.6,74.37,61.85Zm-434.86-1.64,434,.9.63-224.86-74.06-61.59L1088.7,273.86l-146,59.35-71.3,59.68Z"/>
              </g>
              <rect class="cls-32" x="955.83" y="482.66" width="159.99" height="126.13" transform="translate(487.95 1580.42) rotate(-89.88)"/>
              <g>
                <rect class="cls-37" x="756.72" y="500.22" width="226.79" height="10.36" transform="translate(362.26 1374.09) rotate(-89.84)"/>
                <path class="cls-38" d="M875.4,619.18l-11.21,0,.63-227.53,11.22,0ZM865,618.42l9.51,0,.63-226.05-9.5,0Z"/>
              </g>
              <g>
                <rect class="cls-37" x="1197.26" y="502.33" width="226.79" height="10.36" transform="translate(799.47 1816.74) rotate(-89.84)"/>
                <path class="cls-33" d="M1315.94,621.15l-11.21,0,.63-227.53,11.22,0Zm-10.35-.76,9.5,0,.63-226-9.5,0Z"/>
              </g>
              <g>
                <polygon class="cls-37" points="1233.68 329.38 1088.72 265.1 1088.21 271.5 1088.69 278.53 1226.74 335.64 1233.19 332.42 1233.68 329.38"/>
                <polygon class="cls-37" points="1234.33 329.88 1226.74 335.64 1327.83 420.47 1339.94 411.92 1234.33 329.88"/>
                <polygon class="cls-37" points="940.02 327.18 1088.72 265.1 1089.44 271.38 1088.69 278.53 950.31 335.07 943.88 331.82 940.02 327.18"/>
                <polygon class="cls-37" points="940.02 327.18 950.31 335.07 848.75 419.48 836.69 410.88 940.02 327.18"/>
                <path class="cls-38" d="M1327.8,421l-.27-.24-101-84.78-137.8-57L950.56,335.38,848.77,420,836,410.89l.35-.28,103.45-83.76,148.89-62.15.18.08,144.77,64.6,106.91,82.56ZM1088.69,278.12l.18.08L1227,335.38,1327.85,420l11.45-8.07-106.1-81.16-144.47-65.23-148.46,62L837.34,410.86,848.73,419l101.4-84.24Z"/>
              </g>
              <g>
                <path class="cls-37" d="M857.77,615.27l0,9.4,124.8.26c0-3.1,0-6.2,0-9.4Z"/>
                <path class="cls-37" d="M1317.72,616.22l-225.53-.46c0,3,0,6.21,0,9.4l225.53.47Z"/>
                <path class="cls-38" d="M1318.15,615.85l-226-.46v.73l225.09.47,0,8.66-225.1-.46v.74l226,.46Z"/>
                <path class="cls-37" d="M858.17,624.3l0-8.66,124.37.26c0-.25,0-.5,0-.74l-125.23-.26,0,10.14,125.22.26c0-.25,0-.49,0-.74Z"/>
              </g>
            </g>
            <g>
              <g>
                <g>
                  <rect class="cls-37" x="1000.31" y="361.77" width="50.51" height="115.57" transform="translate(603.16 1443.94) rotate(-89.84)"/>
                  <path class="cls-33" d="M1083.71,445.29l-116.43-.24.14-51.24,116.43.24Zm-115.57-1,114.71.24.14-49.78-114.71-.24Z"/>
                </g>
                <g>
                  <rect class="cls-32" x="1006.51" y="368.81" width="38.11" height="101.48" transform="translate(603.11 1443.92) rotate(-89.84)"/>
                  <path class="cls-33" d="M1076.68,439.08l-102.34-.22.11-38.84,102.34.21Zm-101.48-.95,100.62.21.11-37.37-100.63-.21Z"/>
                </g>
              </g>
              <g>
                <g>
                  <rect class="cls-37" x="1125.77" y="362.03" width="50.51" height="115.57" transform="translate(728 1569.66) rotate(-89.84)"/>
                  <path class="cls-33" d="M1209.16,445.56l-116.43-.25.15-51.24,116.42.23Zm-115.57-1,114.72.24.13-49.78-114.71-.24Z"/>
                </g>
                <g>
                  <rect class="cls-32" x="1131.97" y="369.07" width="38.11" height="101.48" transform="translate(727.96 1569.64) rotate(-89.84)"/>
                  <path class="cls-33" d="M1202.14,439.34l-102.34-.21.1-38.85,102.35.21Zm-101.49-.95,100.63.21.11-37.37L1100.76,401Z"/>
                </g>
              </g>
            </g>
            <g>
              <g>
                <rect class="cls-32" x="1082.43" y="341.43" width="11.47" height="247.46" transform="translate(620.75 1552.35) rotate(-89.88)"/>
                <path class="cls-33" d="M1212.3,471.52,964,471l0-12.21,248.32.52Zm-247.45-1.25,246.59.51,0-10.73-246.6-.52Z"/>
              </g>
              <g>
                <g>
                  <rect class="cls-37" x="1069.66" y="489.94" width="154.26" height="117.78" transform="matrix(0, -1, 1, 0, 595.54, 1694.46)"/>
                  <path class="cls-33" d="M1205.88,626.45l-118.63-.25.43-155,118.64.25Zm-117.77-1,116.92.24.43-153.52L1088.54,472Z"/>
                </g>
                <g>
                  <rect class="cls-39" x="1079.06" y="501.13" width="135.46" height="95.4" transform="translate(595.58 1694.48) rotate(-89.88)"/>
                  <path class="cls-33" d="M1194.72,617l-96.25-.2.38-136.19,96.25.2Zm-95.39-.93,94.54.19.38-134.71-94.54-.2Z"/>
                </g>
                <g>
                  <polygon class="cls-35" points="1102.39 616.47 1194.65 490.4 1194.67 481.2 1192.08 481.2 1098.92 608.5 1098.9 616.46 1102.39 616.47"/>
                  <path class="cls-33" d="M1102.63,616.83h-4.16l0-8.43.07-.09,93.28-127.47h3.26l0,9.68-.07.09Zm-3.3-.74h2.83l92.06-125.81,0-8.72h-1.94l-93,127Z"/>
                </g>
                <g>
                  <polygon class="cls-35" points="1190.8 616.65 1099.25 490.2 1099.28 481 1101.88 481.01 1194.31 608.69 1194.29 616.66 1190.8 616.65"/>
                  <path class="cls-33" d="M1194.72,617h-4.16l-.13-.17-91.6-126.53,0-9.68h3.26l.13.18,92.51,127.77Zm-3.69-.74h2.84l0-7.48-92.25-127.42h-1.93l0,8.73Z"/>
                </g>
              </g>
              <g>
                <g>
                  <polygon class="cls-37" points="986.01 472.01 917.31 458.65 916.8 638.42 985.58 625.53 986.01 472.01"/>
                  <path class="cls-33" d="M916.37,638.87l.51-180.68,69.56,13.53L986,625.83Zm1.36-179.76L917.23,638l67.92-12.72.43-152.93Z"/>
                </g>
                <g>
                  <polygon class="cls-39" points="977.17 480.99 925.71 473.75 925.28 623.36 976.79 616.43 977.17 480.99"/>
                  <path class="cls-33" d="M924.86,623.78l.42-150.47,52.32,7.37-.38,136.07-.37,0Zm1.27-149.6-.41,148.74,50.64-6.8.38-134.82Z"/>
                </g>
                <g>
                  <polygon class="cls-35" points="977.17 480.99 974.34 480.6 925.31 614.91 925.28 623.36 928.64 623 977.15 489.1 977.17 480.99"/>
                  <path class="cls-33" d="M924.86,623.77l0-9L974,480.18l3.56.5,0,8.53L929,623.34Zm.88-8.81,0,8,2.61-.28L976.72,489l0-7.74-2.11-.29Z"/>
                </g>
                <g>
                  <polygon class="cls-35" points="976.81 609.35 928.54 474.05 925.71 473.75 925.68 483.87 974 616.79 976.79 616.43 976.81 609.35"/>
                  <path class="cls-33" d="M973.7,617.21l-.11-.31-48.34-133,0-10.53,3.6.38.08.23,48.29,135.41,0,7.4Zm-47.59-133.4L974.3,616.39l2.06-.27,0-6.72-48.17-135-2.08-.22Z"/>
                </g>
                <g>
                  <polygon class="cls-32" points="909.91 458.51 917.31 458.65 916.8 638.42 909.41 638.06 909.91 458.51"/>
                  <path class="cls-38" d="M917.23,638.8l-8.25-.39.5-180.28,8.25.16Zm-7.39-1.08,6.54.3.5-179-6.54-.12Z"/>
                </g>
              </g>
              <polygon class="cls-31" points="865.15 427.36 954.06 350.1 1089.44 295.98 1223.03 350.38 1315.63 427.36 1315.63 409.72 1227.04 335.38 1088.87 278.2 950.13 334.74 864.19 406.14 865.15 427.36"/>
            </g>
          </g>
          <g>
            <path class="cls-40" d="M1363.2,568.16c58.4,0,153.78,1.79,188.25,1.56,13.15-.09,33.6-2.89,56.19-2.29,3.41.08-.17,7-.17,7L1490.26,578l-126.57,2S1361.42,568.16,1363.2,568.16Z"/>
            <polygon class="cls-41" points="1387.47 556.76 1405.51 557.09 1407.67 560.29 1406.52 623.51 1386.21 625.92 1387.47 556.76"/>
            <polygon class="cls-41" points="1428.65 555.38 1448.59 555.75 1445.66 629.46 1427.31 629.13 1428.65 555.38"/>
            <polygon class="cls-41" points="1465.92 559.77 1481.75 560.06 1483.97 594.69 1483.28 632.63 1463.39 629.78 1465.92 559.77"/>
            <path class="cls-41" d="M1501.71,558.84s-5.43,2.9-2,37.82l3.48,34.91,17.72.33-4-74.91Z"/>
            <path class="cls-41" d="M1532.73,559.4,1527.61,632l16.14.29,7.78-62.64s1.06-6-3.3-10Z"/>
            <polygon class="cls-41" points="1558.4 557.74 1579.28 558.12 1580.14 632.97 1561.76 634.05 1558.4 557.74"/>
            <polygon class="cls-42" points="1387.47 556.76 1403.47 558.63 1405.73 562.36 1403.99 623.81 1406.52 623.51 1407.67 560.29 1405.51 557.09 1387.47 556.76"/>
            <polygon class="cls-42" points="1428.65 555.38 1445.65 557.82 1442.34 629.4 1445.66 629.46 1448.59 555.75 1428.65 555.38"/>
            <polygon class="cls-42" points="1465.92 559.77 1478.45 561.59 1481.43 593.76 1480.73 632.58 1483.28 632.63 1483.88 593.27 1481.75 560.06 1465.92 559.77"/>
            <polygon class="cls-42" points="1501.71 558.84 1514.77 559.08 1519.34 631.87 1520.96 631.89 1516.94 556.99 1501.71 558.84"/>
            <path class="cls-42" d="M1532.73,559.4l14.4,1.84a15.37,15.37,0,0,1,2.47,9.11c-.25,5.38-7.32,61.93-7.32,61.93l1.47,0,7.67-61.76s1.39-7.71-3.19-10.87Z"/>
            <polygon class="cls-42" points="1558.4 557.74 1576.92 560.2 1578.08 632.93 1580.14 632.97 1579.28 558.12 1558.4 557.74"/>
            <ellipse class="cls-43" cx="1397.29" cy="573.78" rx="3.36" ry="3" transform="translate(798.23 1960.42) rotate(-88.96)"/>
            <ellipse class="cls-43" cx="1435.9" cy="574.48" rx="3.36" ry="3" transform="translate(835.44 1999.71) rotate(-88.96)"/>
            <ellipse class="cls-43" cx="1472" cy="574.18" rx="3.36" ry="3" transform="translate(871.19 2035.51) rotate(-88.96)"/>
            <ellipse class="cls-43" cx="1506.51" cy="573.66" rx="3.36" ry="3" transform="translate(905.59 2069.5) rotate(-88.96)"/>
            <ellipse class="cls-43" cx="1541.37" cy="573.03" rx="3.36" ry="3" transform="translate(940.44 2103.74) rotate(-88.96)"/>
            <ellipse class="cls-43" cx="1567.85" cy="572.56" rx="3.36" ry="3" transform="translate(966.92 2129.76) rotate(-88.96)"/>
          </g>
          <g>
            <path class="cls-40" d="M1.73,570.79c64.54-5.92,170.21,1.41,206.85,1.22s194.1-10.74,227.15-15.08,177.45-1.6,245.62,9.55S865.49,572,865.49,572l-.18,9.84s-144.1,0-178.71-2.39S582.67,564.26,503.13,565s-154.22,9.61-154.22,9.61l-205.36,5.61-144.2,2S-7,571.59,1.73,570.79Z"/>
            <polygon class="cls-41" points="34.27 558.86 53.45 559.21 55.74 562.42 54.59 625.63 33.02 628.02 34.27 558.86"/>
            <polygon class="cls-41" points="78.04 557.53 99.23 557.92 96.21 631.63 76.7 631.28 78.04 557.53"/>
            <polygon class="cls-41" points="117.66 561.96 134.48 562.26 136.88 596.9 136.19 634.84 115.05 631.97 117.66 561.96"/>
            <path class="cls-41" d="M155.7,561.07s-5.77,2.89-2,37.82l3.74,34.92,18.84.34-4.36-74.91Z"/>
            <path class="cls-41" d="M188.67,561.67l-5.36,72.61,17.15.31L208.67,572s1.12-6-3.52-10Z"/>
            <polygon class="cls-41" points="215.95 560.04 238.15 560.44 239.15 635.29 219.61 636.36 215.95 560.04"/>
            <polygon class="cls-41" points="254.37 556.83 276.57 557.24 273.18 632.38 252.94 635.54 254.37 556.83"/>
            <polygon class="cls-41" points="300.79 557.67 322.37 554.88 324.98 633.32 299.36 636.39 300.79 557.67"/>
            <path class="cls-41" d="M340.87,555.21s7.53-7,19.54-1.06c0,0,5.16,49,4.71,74.21l-19.57,2.48S339.31,566.89,340.87,555.21Z"/>
            <polygon class="cls-41" points="373.96 549.07 391.52 545.49 404.84 627.31 379.59 628.27 373.96 549.07"/>
            <polygon class="cls-41" points="420.84 542.83 418.21 613.72 421.99 627.62 453.64 626.42 444.39 543.26 420.84 542.83"/>
            <polygon class="cls-41" points="461.65 541.29 500.17 539.68 493.06 622.67 469.6 622.24 461.65 541.29"/>
            <polygon class="cls-41" points="522.9 543.01 551.28 543.52 542.97 625.97 521.44 623.18 522.9 543.01"/>
            <polygon class="cls-41" points="574.34 545.62 597.04 546.03 598.54 588.44 597.84 626.97 570.64 624.08 574.34 545.62"/>
            <path class="cls-41" d="M619.4,544.76l24.22.44s7.56.54,6.94,13.69-7.2,63.32-7.2,63.32l-23.84-.44Z"/>
            <polygon class="cls-41" points="677.13 555.38 699.41 558.1 698.23 623.2 667.96 622.65 677.13 555.38"/>
            <polygon class="cls-41" points="728.44 543.82 718.66 603.04 720.18 623.6 753.1 624.2 749.74 544.21 728.44 543.82"/>
            <path class="cls-41" d="M771.2,544.6,796.13,548s6.46-1.24,6.59,12-6.5,66.6-6.5,66.6l-22.33-.41Z"/>
            <polygon class="cls-41" points="827.37 558.11 848.9 560.5 849.23 625.95 820.43 627.02 827.37 558.11"/>
            <polygon class="cls-42" points="34.27 558.86 51.28 560.75 53.69 564.48 51.91 625.93 54.59 625.63 55.74 562.42 53.45 559.21 34.27 558.86"/>
            <polygon class="cls-42" points="78.04 557.53 96.12 559.99 92.67 631.57 96.21 631.63 99.23 557.92 78.04 557.53"/>
            <polygon class="cls-42" points="117.66 561.96 130.98 563.8 134.19 595.97 133.48 634.79 136.19 634.84 136.78 595.48 134.48 562.26 117.66 561.96"/>
            <polygon class="cls-42" points="155.7 561.07 169.58 561.32 174.52 634.12 176.25 634.15 171.89 559.24 155.7 561.07"/>
            <path class="cls-42" d="M188.67,561.67,204,563.53a14.83,14.83,0,0,1,2.64,9.11c-.26,5.38-7.72,61.92-7.72,61.92l1.56,0,8.09-61.75s1.47-7.71-3.4-10.87Z"/>
            <polygon class="cls-42" points="215.95 560.04 235.64 562.52 236.95 635.25 239.15 635.29 238.15 560.44 215.95 560.04"/>
            <polygon class="cls-42" points="254.37 556.83 273.97 559.65 270.24 632.84 273.18 632.38 276.57 557.24 254.37 556.83"/>
            <polygon class="cls-42" points="300.79 557.67 319.67 558.02 322.18 633.78 324.98 633.32 322.37 554.88 300.79 557.67"/>
            <path class="cls-42" d="M340.87,555.21s11.23-3.31,17.51,1.56c0,0,4.38,66.2,4,71.94l2.77-.35s-.17-34-1.28-47.1c-.93-10.8-3.43-27.11-3.43-27.11S350.35,547.43,340.87,555.21Z"/>
            <polygon class="cls-42" points="373.96 549.07 388.51 548.47 401.06 627.45 404.84 627.31 391.52 545.49 373.96 549.07"/>
            <polygon class="cls-42" points="420.84 542.83 440.92 545.49 450.01 626.56 453.64 626.42 444.39 543.26 420.84 542.83"/>
            <polygon class="cls-42" points="461.65 541.29 496.9 542.53 490.63 622.63 493.06 622.67 500.17 539.68 461.65 541.29"/>
            <polygon class="cls-42" points="522.9 543.01 547.5 545.13 539.96 625.58 542.97 625.97 551.28 543.52 522.9 543.01"/>
            <polygon class="cls-42" points="574.34 545.62 593.56 547.89 596.38 582.85 595.59 626.92 597.84 626.97 598.45 585.68 597.04 546.03 574.34 545.62"/>
            <path class="cls-42" d="M619.4,544.76l24.08,3.08s4.9,1.24,5.09,11-7.17,63.3-7.17,63.3l2,0,6.64-56s4-18.44-6.38-21Z"/>
            <polygon class="cls-42" points="677.13 555.38 696.64 560.32 695.5 623.15 698.23 623.2 699.41 558.1 677.13 555.38"/>
            <polygon class="cls-42" points="728.44 543.82 746.44 547.07 749.78 624.14 753.1 624.2 749.74 544.21 728.44 543.82"/>
            <path class="cls-42" d="M771.2,544.6l24.38,5.61s6.32,2.81,4.55,20.06L794,626.54l2.21,0,5.47-49.76s4.93-25.37-4.09-28.74Z"/>
            <polygon class="cls-42" points="827.37 558.11 846.19 562.46 846.72 625.9 849.23 625.95 848.9 560.5 827.37 558.11"/>
            <ellipse class="cls-43" cx="44.73" cy="575.89" rx="3.36" ry="3.19" transform="translate(-531.88 610.16) rotate(-88.96)"/>
            <ellipse class="cls-43" cx="85.77" cy="576.64" rx="3.36" ry="3.19" transform="translate(-492.33 651.92) rotate(-88.96)"/>
            <ellipse class="cls-43" cx="124.14" cy="576.38" rx="3.36" ry="3.19" transform="translate(-454.4 690.03) rotate(-88.96)"/>
            <ellipse class="cls-43" cx="160.82" cy="575.89" rx="3.36" ry="3.19" transform="translate(-417.9 726.23) rotate(-88.96)"/>
            <ellipse class="cls-43" cx="197.87" cy="575.31" rx="3.36" ry="3.19" transform="translate(-380.94 762.7) rotate(-88.96)"/>
            <ellipse class="cls-43" cx="226.02" cy="574.87" rx="3.36" ry="3.19" transform="translate(-352.86 790.41) rotate(-88.96)"/>
            <ellipse class="cls-43" cx="263.82" cy="573.15" rx="3.36" ry="3.19" transform="translate(-314.03 826.51) rotate(-88.96)"/>
            <ellipse class="cls-43" cx="310.71" cy="570.64" rx="3.36" ry="3.19" transform="matrix(0.02, -1, 1, 0.02, -265.48, 870.93)"/>
            <ellipse class="cls-43" cx="348.68" cy="569.41" rx="3.36" ry="3.19" transform="translate(-226.97 907.69) rotate(-88.96)"/>
            <ellipse class="cls-43" cx="383.98" cy="565.22" rx="3.36" ry="3.19" transform="translate(-188.12 938.87) rotate(-88.96)"/>
            <ellipse class="cls-43" cx="431.78" cy="562.72" rx="3.36" ry="3.19" transform="translate(-138.7 984.21) rotate(-88.96)"/>
            <ellipse class="cls-43" cx="480.55" cy="560.25" rx="3.36" ry="3.19" transform="translate(-88.33 1030.55) rotate(-88.96)"/>
            <ellipse class="cls-43" cx="533.59" cy="560.44" rx="3.36" ry="3.19" transform="translate(-36.45 1083.77) rotate(-88.96)"/>
            <ellipse class="cls-43" cx="585.36" cy="563.87" rx="3.36" ry="3.19" transform="translate(10.95 1138.9) rotate(-88.96)"/>
            <ellipse class="cls-43" cx="633.93" cy="568.12" rx="3.36" ry="3.19" transform="translate(54.39 1191.62) rotate(-88.96)"/>
            <ellipse class="cls-43" cx="687.15" cy="575.02" rx="3.36" ry="3.19" transform="translate(99.75 1251.61) rotate(-88.96)"/>
            <ellipse class="cls-43" cx="736.55" cy="576.87" rx="3.36" ry="3.19" transform="translate(146.4 1302.82) rotate(-88.96)"/>
            <ellipse class="cls-43" cx="787.62" cy="578.61" rx="3.36" ry="3.19" transform="translate(194.81 1355.59) rotate(-88.96)"/>
            <ellipse class="cls-43" cx="837.19" cy="578.7" rx="3.36" ry="3.19" transform="matrix(0.02, -1, 1, 0.02, 243.38, 1405.24)"/>
          </g>
          <path class="cls-44" d="M836.11,622.12c-11.93-13.45-34.44-5.16-34.44-5.16-9-14.14-24.29-6.4-24.29-6.4C759,593.35,745,610.07,745,610.07A29.92,29.92,0,0,0,726.57,593c-14-4.48-25.85,2.63-25.85,2.63-27-16.34-40.13,4.68-40.13,4.68-10.27-4.09-17.33-.29-17.33-.29-11.21,6.26-4.94,15.69-4.94,15.69-34.37,4.57-13.47,13.92-13.47,13.92l5,1.75,218.23-1.61,10.49-3.08C864.43,620.55,836.11,622.12,836.11,622.12Z"/>
          <g>
            <path class="cls-45" d="M627.16,723.12s3.33,5.13,29.5,2.73,198.8-44.17,160.64-50.72S617.28,718.82,627.16,723.12Z"/>
            <g>
              <path class="cls-46" d="M816.83,657.72c.07.33.15.66.21,1v0a21.32,21.32,0,0,1,.25,3.39,17.55,17.55,0,0,1-3.84,11.42c-2.31,3-6.93,3.7-11,4.9-9.72,2.88-19.92,4.89-29.45,8.22-12.93,4.52-26.94,5.58-40,9.84-.77.25-1.53.49-2.3.72l-1.75.52c-1.18.34-2.36.66-3.54,1l-1.77.47c-2.84.74-5.69,1.44-8.54,2.17l-2.48.64-1.55.4-1.54.42-1.54.43c-7.21,2-14.18,4.68-21.37,6.77-5.67,1.65-11.59,2.36-17.35,3.6-1.54.33-3,.7-4.56,1.11l-.9.25-.9.26-.89.26-1.32.4-.81.25-1.29.41-.23.07-1.48.48-2,.65-.13.05-.91.29c-.71.24-1.44.47-2.17.69l-.81.23-.68.19-.78.21-1.15.31-2.3.58h0l-.15,0-1.88.45-.68.17-1.91.45h-.06L639,722l-2.12.52-1.23.32-.41.11-.87-3.86-10-44.52-.4-1.76c15.66-3.3,32.61-5.15,48.21-9.13l.35-.08c-2.41-.93-5.93-.33-8.14-1.41-1.77-.86-.16-2.15,1.13-3.94,1-1.45,2.91-1.4,4.8-1.42,3.51,0,6.93.41,10.42.59h.45c.74,0,1.47.06,2.2.08a201.22,201.22,0,0,0,38.26-2.91c10.94-1.8,21.84-3.41,32.73-5.26,2.43-.42,4.87-.84,7.31-1.29L762,648c3.85-.7,7.59-1.2,11.46-1.7,7.15-.9,14.25-2.27,21.38-3.38l.93-.15,2-.38,1-.17.58-.09.59-.08c.39-.05.79-.08,1.18-.1h1.09c.18,0,.35,0,.53,0l.26,0,.25,0,.25.05.25.06.23.06c5.28,1.63,8.6,5.73,10.69,9.67.17.31.32.61.47.93s.43.91.62,1.37c.11.26.21.53.31.79s.11.3.15.45.15.44.22.66Q816.64,656.9,816.83,657.72Z"/>
              <path class="cls-47" d="M684.08,657.76l-.75-.22a201.22,201.22,0,0,0,38.26-2.91c10.94-1.8,21.84-3.41,32.73-5.26-11.45,2.25-22.66,5.41-34.14,7.59C708.91,659.09,694.43,661.17,684.08,657.76Z"/>
              <path class="cls-47" d="M817,658.63s0,.06,0,.09v0a21.32,21.32,0,0,1,.25,3.39,17.55,17.55,0,0,1-3.84,11.42c-2.31,3-6.93,3.7-11,4.9-9.72,2.88-19.92,4.89-29.45,8.22-12.93,4.52-26.94,5.58-40,9.84-.77.25-1.53.49-2.3.72l-1.75.52c-1.18.34-2.36.66-3.54,1l-1.77.47c-2.84.74-5.69,1.44-8.54,2.17l-2.48.64-1.55.4-1.54.42-1.54.43c-7.21,2-14.18,4.68-21.37,6.77-5.67,1.65-11.59,2.36-17.35,3.6-1.54.33-3,.7-4.56,1.11l-.9.25-.9.26-.89.26-1.32.4-.81.25-1.29.41-.23.07-1.48.48-2,.65-.13.05-.91.29c-.71.24-1.44.47-2.17.69l-.81.23-.68.19-.78.21-1.15.31-2.3.58h0l-.15,0-1.88.45-.68.17-1.91.45h-.06L639,722l-2.12.52-1.23.32-.47-2h0a50.54,50.54,0,0,0,5.55-2.12l.24-.1.75-.32.76-.31c3.84-1.55,7.62-3.18,11.5-4.67,14.29-5.47,29.58-8.77,44.54-12.1,5-1.12,12-2.12,16.59-4.39,4.23-2.12-1.86-3.12-4.27-3.3-1.37-.1-4.26.28-4.91-.92-1.18-2.18,4.09-3.63,5.83-4.39a153.83,153.83,0,0,1,29.34-9.61c8.18-1.75,16.39-3.28,24.48-5.4,4.52-1.19,8.92-2.92,13.3-4.46,4.17-1.45,9.47-2.55,13-5,1.86-1.32,3.58-3.36,1.68-4.9-2.15-1.74-6.9.11-9.49.59-9.14,1.71-18.08,5.7-27.36,6.32-2,.13-5.36.61-4.41-1.58.58-1.34,4.12-2.55,5.34-3.16a69.07,69.07,0,0,1,8.72-3.69c3.62-1.26,7.21-2.75,10.87-3.83,4.3-1.27,4.53-4.36.7-5.56-4.77-1.49-10.81-.7-15.91.06l-.39.06L762,648c3.85-.7,7.59-1.2,11.46-1.7,7.15-.9,14.25-2.27,21.38-3.38l.93-.15,2-.38,1-.17.58-.09.59-.08c.39-.05.79-.08,1.18-.1h1.09c.18,0,.35,0,.53,0l.26,0,.25,0,.25.05.25.06.23.06c5.28,1.63,8.6,5.73,10.69,9.67.17.31.32.61.47.93s.43.91.62,1.37c.11.26.21.53.31.79s.11.3.15.45.15.44.22.66q.25.79.45,1.62C816.9,658,817,658.32,817,658.63Z"/>
              <path class="cls-47" d="M673.93,664.62c-8.5,2.19-17.28,3.85-25.88,5.66-6.28,1.32-12.16,3-18.58,3.79-1.72.19-3.44.36-5.16.53l-.4-1.76c15.66-3.3,33-5.24,48.56-9.21A2.28,2.28,0,0,1,673.93,664.62Z"/>
              <path class="cls-48" d="M817,658.63s0,.06,0,.09v0a21.32,21.32,0,0,1,.25,3.39c0,4.19-.54,8.83-2.56,12.86-1.7,3.38-7.11,3.81-11.12,4.67-9.93,2.14-20.44,4.67-30,7.45-13.21,3.83-27.5,5.14-40.57,9.4-.77.25-1.53.49-2.3.72l-1.75.52c-1.18.34-2.36.66-3.54,1l-1.77.47c-2.84.74-5.69,1.44-8.54,2.17l-2.48.64-1.55.4-1.54.42-1.54.43c-7.21,2-14.18,4.68-21.37,6.77-5.67,1.65-11.59,2.36-17.35,3.6-1.54.33-3,.7-4.56,1.11l-.9.25-.9.26-.89.26-1.32.4-.81.25-1.29.41-.23.07-1.48.48c-.66.22-.94.33-1.67.62-.24.13-.37.21-.41.22a12,12,0,0,1-1.3.53,56.39,56.39,0,0,1-7.51,2.06l-.41.14a11.19,11.19,0,0,1-1.33.44c-3.44.82-5.38.8-8.62,1.71l-.48-2L635,720a51.26,51.26,0,0,0,5.58-2.1,8.78,8.78,0,0,0,1.88.16h.06a37.12,37.12,0,0,0,4.81-.47c6-1,11.57-3.46,17.47-4.82,6.67-1.54,14-3.24,22.38-5.33,7.6-1.89,14.8-4.87,22.46-6.63a97.57,97.57,0,0,0,10.66-2.87c4.24-1.48,8.63-2.2,13-3.39,7.34-2,14.47-4.21,21.63-6.67,2.63-.91,5.3-1.74,7.93-2.65,2.18-.75,8-1.73,9.36-3.48,1.06-1.41-.88-1.26-2.55-1.16-3.19.2-6.34,1-9.5,1.54-6.42,1-12.86,1.42-19.28,2.62-9.52,1.79-19.12,2.28-28.41,5.23,7.52-2.59,14.92-4.9,22.67-6.87,6.63-1.69,13.34-2.85,20-4.27,11.59-2.46,22.75-5.68,34.11-8.91,4.56-1.3,18.83-3.92,16.24-9.66-1-2.32-4.08-3.2-7-3.62-9.66-1.38-20.73,2-30.37,4,5-3.46,12.53-5,18.49-6.78,5.41-1.56,18-4.41,17.65-10.27a2.56,2.56,0,0,0-.49-1.4l.23.06c5.28,1.63,8.6,5.73,10.69,9.67.17.31.32.61.47.93s.43.91.62,1.37c.11.26.21.53.31.79s.11.3.15.45.15.44.22.66q.25.79.45,1.62C816.9,658,817,658.32,817,658.63Z"/>
              <path class="cls-49" d="M642.3,677.47c.85-.12,1.7-.28,2.14-.32,1.74-.16,3.49-.36,5.21-.68,3.06-.57,6.13-1.06,9.18-1.7,11.42-2.4,22.95-4.73,34.28-7.48,10.21-2.47,20.3-5.49,30.6-7.64,7.73-1.61,15.91-3.57,23.74-3.24-1.73-.07-4.65,1.08-6.39,1.49-2.36.57-4.72,1.15-7,1.84-4.4,1.3-8.34,3.33-12.61,4.89,1.33.67,3.89.09,5.47,0a56.6,56.6,0,0,0,13.65-3.19c4.94-1.75,9.54-4,14.68-5.36,4.31-1.1,10.59-2.91,15-2.7-1.28-.06-3.78,1.2-5,1.65-1.63.61-3.23,1.28-4.81,2-3.17,1.41-6.26,2.95-9.38,4.43a106.2,106.2,0,0,1-19,7.19A53.7,53.7,0,0,1,721.61,670c-5.73.24-11.49.69-17.23,1.36-6.37.75-12.72,1.9-19,3.22s-12.68,3.16-19,4.68a74.17,74.17,0,0,0-8.42,2.53c-1.48.54-7.09,2.09-7.77,3.28,1.9-3.34,8.57-6.38,12.87-7.4a65.37,65.37,0,0,1-7.37,1c-5,.54-11.41.67-15.69-1.15A6.19,6.19,0,0,0,642.3,677.47Z"/>
              <path class="cls-49" d="M785.41,663.81c-9.29,2.68-19.11,3.78-28.58,5.75-12.19,2.54-24.39,3.52-36.66,5.35-12.84,1.93-25.85,2.55-38.61,5.13-9.64,1.94-18.09,5.72-26.9,9.52a274.37,274.37,0,0,1,28-4.9c5.72-.74,11.35-2.09,17-2.81,5-.62,10-.93,15-1.59,10.07-1.32,20-3,30-4.75a241.41,241.41,0,0,0,23.8-5C774.64,668.72,780.06,667,785.41,663.81Z"/>
              <path class="cls-47" d="M713.16,685.71c-4.75,1.09-9.88,1.26-14.63,1.76a132.56,132.56,0,0,0-21.73,4.2c-3.24.89-6.58,1.84-9.92,2.42a99,99,0,0,1-10.74.93,103.39,103.39,0,0,0-16.57,3c-.11,1.21,1.25,2.16,1,3.5a18.3,18.3,0,0,1-1.83,4.22c-.73,1.57-2.11,2.83-2.06,4.37,3-1.09,5.75-3,8.73-4.23a70.59,70.59,0,0,1,11.09-3.64c4.27-1,8.6-1.81,12.86-2.86a107.71,107.71,0,0,0,13.39-4.61c3.47-1.38,6.78-2.84,10.45-4,2.94-.91,6-1.66,8.94-2.53C705.89,687.17,709.52,686.78,713.16,685.71Z"/>
              <path class="cls-47" d="M668.83,657a1,1,0,0,0-.53-.19,5.85,5.85,0,0,0-4.09,1.77,3.34,3.34,0,0,0-.92,2.85c.74,2.4,5-1.17,5.6-2.39C669.14,658.47,669.37,657.4,668.83,657Z"/>
              <path class="cls-50" d="M665.66,658.19c-.31.2-.59.41-.79.57-.81.64-1.48,1.49-1.12,2.33.46,1.07,3.1-.87,3.59-1.33s1.68-1.83.65-2.22A3,3,0,0,0,665.66,658.19Z"/>
              <path class="cls-48" d="M646.8,694.86a34.72,34.72,0,0,1,1.62,6.38c.55,4-.57,8.49-1.84,12.52-1.75,5.53-9.58,10.23-16.53,9.71-4.33-.32-7.16-.79-9.89-3.34-1-1-1.43-2.28-2.43-3.19s-1.84-1.29-2.39-2.35c-1.42-2.73-1.53-5.92-3.08-8.61a21.24,21.24,0,0,1-2.67-9c-.34-3.79-.56-8.09,1.27-11.86a21.65,21.65,0,0,1,3.65-4.76c1.14-1.31,1.26-2.9,2.8-4.05,1-.71,1.3-1.53,2.43-2.15a13.76,13.76,0,0,1,4.17-1.28,14.64,14.64,0,0,1,9.47,1.46c2.86,1.71,4.77,4.38,6.41,6.85a54.27,54.27,0,0,1,5.16,9C645.59,691.64,646.23,693.24,646.8,694.86Z"/>
              <path class="cls-51" d="M646.09,705.3a15.7,15.7,0,0,1-.81,3.94c-.44,1.2-.34,2.45-.82,3.63-1.11,2.7-3.24,4.76-5.77,6.79-3.44,2.75-9.67,2.57-13.44,1.19a12.45,12.45,0,0,1-5.89-4.54c-1-1.15-2.2-2.08-2.74-3.45-.44-1.1-.85-2.18-1.39-3.25a23.19,23.19,0,0,1-1.26-3.8c-.36-1.24-1.19-2.28-1.67-3.48a18.41,18.41,0,0,1-1.2-7.22,36.32,36.32,0,0,1,.52-7.27,13.22,13.22,0,0,1,3.51-5.63,10.73,10.73,0,0,0,2.39-3.7c1-2.35,4.06-3.73,7.37-3.79a22.05,22.05,0,0,1,5.43.29,8.1,8.1,0,0,1,4.19,3c.58.7.92,1.51,1.51,2.19s1.39,1.27,1.93,2c1.15,1.58,1.92,3.54,3,5.2a32.3,32.3,0,0,1,3.93,10.87c.31,1.51.76,3,1.06,4.48A7,7,0,0,1,646.09,705.3Z"/>
              <path class="cls-52" d="M616.5,684.68c-1.31,2.13-2.42,4.29-2.23,6.6s-.2,4.46.15,6.61c.57,3.55,2.38,6.84,3.82,10.14,1.32,3,2.61,5.76,5.6,8a23.94,23.94,0,0,0,3.75,2.15c1.94,1,4,.46,6.34-.28,1.93-.62,3.45-1.17,4.52-2.68a16.49,16.49,0,0,0,2.32-6c.44-2.12,1.27-3.9.84-6s-1.2-3.9-1.44-5.94c-.34-2.93-2-6.11-3.34-8.8-.7-1.44-.93-3.09-2-4.4a34.22,34.22,0,0,0-3.89-3.47c-2.61-2.26-6.32-2.63-10.14-.68-1.14.59-2.66,1.55-2.95,2.6C617.39,683.28,616.93,684,616.5,684.68Z"/>
              <path class="cls-50" d="M621.74,685.1c-1.76,1.6-2.56,4.32-3,5.79-1.72,5.13.37,10.6,2.37,15.19,1.22,2.81,4.86,9.23,10.68,7.72,5.57-1.45,5.35-8.75,5-11.67-.58-5.06-1.32-10.53-4.85-14.78a10.65,10.65,0,0,0-5.69-3.39A4.79,4.79,0,0,0,621.74,685.1Z"/>
              <path class="cls-52" d="M623.89,688.87c-2.89,2.15-2.47,6.24-2.23,8.55a14.54,14.54,0,0,0,1.79,6.55c1.37,2.21,1.22,5.53,5.68,5.89,2.26.18,2.72-.85,3.37-2.22a7.14,7.14,0,0,0,.37-4.58c-.62-3.61-1.26-7.26-3-10.6C629.47,691.76,626,686.87,623.89,688.87Z"/>
              <path class="cls-50" d="M624.82,694.18c-.81,1.07-.27,2.9-.21,4a16.73,16.73,0,0,0,.57,3.31,8.71,8.71,0,0,0,1.12,2.32c.24.41.5,1.15,1.12,1.3.79.19,1.52-.61,1.73-1.12a7,7,0,0,0,.29-2.76,12.92,12.92,0,0,0-2-5.7A3.14,3.14,0,0,0,626,693.9C625.37,693.67,624.86,693.83,624.82,694.18Z"/>
              <g>
                <path class="cls-48" d="M618.7,677.63c.18.08,2.32,3.71,3.6,6,0,0-2.24-5.39-2.79-7.33S618.7,677.63,618.7,677.63Z"/>
                <path class="cls-48" d="M632.72,675.13l-1.35,10.59s1.52-8.44,2.46-10.17Z"/>
                <path class="cls-48" d="M610.19,692.17l-.27,1.32s3.27,1.77,4.8,1.75a27.62,27.62,0,0,1,5.2,1.11A48.21,48.21,0,0,0,610.19,692.17Z"/>
                <path class="cls-46" d="M638.31,690.29s-3.52,2-5,4.6A11.25,11.25,0,0,0,638.31,690.29Z"/>
                <path class="cls-48" d="M640,720.73c-2.11-4.71-7.4-13.44-7.4-13.44a60.71,60.71,0,0,0,4.1,5.11c1.72,1.81,5.14,6.46,5.14,6.46Z"/>
                <path class="cls-48" d="M645.73,712.25c0-.07-2.19-2.3-2.19-2.3l2.79,1.76Z"/>
                <path class="cls-48" d="M643,716.57a13.64,13.64,0,0,0-1.94-1.66l1.67,2.55Z"/>
                <path class="cls-48" d="M611.64,702.24l.54,1.9a16.67,16.67,0,0,1,3.37-2A10,10,0,0,1,611.64,702.24Z"/>
                <path class="cls-46" d="M622.19,713.47a37,37,0,0,1,3.57-11.06A25.15,25.15,0,0,1,622.19,713.47Z"/>
                <path class="cls-46" d="M626.86,694.37a28.63,28.63,0,0,0-.48,4.74s-1.9,1.81-2.28,2,3.45-.92,3.45-.92l3.26.77-3.23-2.3Z"/>
                <path class="cls-46" d="M621.4,686.57a17.16,17.16,0,0,0,3.08,5.64A15.76,15.76,0,0,0,621.4,686.57Z"/>
                <polygon class="cls-48" points="645.94 700.38 640.98 700.95 646.42 701.66 645.94 700.38"/>
                <path class="cls-48" d="M640.21,683.69a35.62,35.62,0,0,0-2.87,3.35l3.83-2.38Z"/>
                <polygon class="cls-48" points="624.02 673.24 625.21 678.91 625.06 673.02 624.02 673.24"/>
                <path class="cls-48" d="M612.25,684.39l-.15,1.25s1.91,1.19,1.92,1.18S612.25,684.39,612.25,684.39Z"/>
                <path class="cls-48" d="M627.16,723.12l1.12.08-.82-5.44S627.24,722.68,627.16,723.12Z"/>
                <path class="cls-48" d="M615.32,713.18l.6,1.43,2.27-2.87S615.6,713.15,615.32,713.18Z"/>
                <path class="cls-46" d="M630.85,711.65a21.83,21.83,0,0,0,1.74,7.11S632.77,717,630.85,711.65Z"/>
                <path class="cls-46" d="M620.66,705.22a7.79,7.79,0,0,0-4.21,3A12,12,0,0,0,620.66,705.22Z"/>
              </g>
            </g>
          </g>
          <g>
            <path class="cls-45" d="M1227.68,729.51s-12.52.51-1.69,5,107.24,38,124.64,26.82C1359.71,755.44,1237.15,726.57,1227.68,729.51Z"/>
            <g>
              <path class="cls-46" d="M1226.3,718.1c0,.22-.1.44-.14.66v0A13.86,13.86,0,0,0,1226,721a11.55,11.55,0,0,0,2.53,7.53c1.52,2,4.57,2.44,7.24,3.24,6.41,1.9,13.14,3.22,19.42,5.42,8.53,3,17.77,3.68,26.39,6.49l1.51.47,1.16.34c.77.22,1.55.44,2.33.64l1.17.31c1.87.49,3.75.95,5.63,1.43l1.63.42,1,.27,1,.27,1,.29c4.76,1.34,9.36,3.08,14.1,4.47,3.74,1.08,7.64,1.55,11.44,2.37,1,.21,2,.46,3,.73l.59.17.59.16.59.18.87.26.53.17c.29.08.57.17.86.27l.14,0,1,.32,1.31.43.08,0,.6.19q.71.24,1.44.45l.53.16.45.12.51.15.76.2,1.52.38h0l.09,0,1.24.3.45.11,1.26.3h0l1.53.36,1.39.35.81.21.27.07.57-2.55,6.62-29.35.27-1.17c-10.33-2.17-21.51-3.39-31.8-6l-.23-.06c1.59-.61,3.92-.21,5.37-.92,1.17-.57.1-1.42-.75-2.61-.69-1-1.91-.92-3.16-.93-2.32,0-4.57.27-6.87.38l-.3,0-1.45,0a132.36,132.36,0,0,1-25.23-1.92c-7.21-1.19-14.4-2.25-21.58-3.47-1.61-.27-3.22-.56-4.83-.85l-.22,0c-2.53-.46-5-.79-7.55-1.12-4.72-.6-9.4-1.5-14.1-2.23l-.62-.1-1.32-.25-.63-.11-.39-.06-.38-.05c-.26,0-.53-.06-.78-.07H1236c-.12,0-.24,0-.35,0l-.18,0-.16,0-.17,0-.16,0-.15,0a12.34,12.34,0,0,0-7,6.38c-.11.2-.21.4-.31.61s-.28.6-.41.9-.14.35-.2.52-.07.2-.1.3-.1.29-.15.44C1226.48,717.39,1226.38,717.75,1226.3,718.1Z"/>
              <path class="cls-47" d="M1313.84,718.13l.49-.14a132.36,132.36,0,0,1-25.23-1.92c-7.21-1.19-14.4-2.25-21.58-3.47,7.55,1.48,14.94,3.56,22.51,5S1307,720.38,1313.84,718.13Z"/>
              <path class="cls-47" d="M1226.17,718.7s0,0,0,.06v0A13.86,13.86,0,0,0,1226,721a11.55,11.55,0,0,0,2.53,7.53c1.52,2,4.57,2.44,7.24,3.24,6.41,1.9,13.14,3.22,19.42,5.42,8.53,3,17.77,3.68,26.39,6.49l1.51.47,1.16.34c.77.22,1.55.44,2.33.64l1.17.31c1.87.49,3.75.95,5.63,1.43l1.63.42,1,.27,1,.27,1,.29c4.76,1.34,9.36,3.08,14.1,4.47,3.74,1.08,7.64,1.55,11.44,2.37,1,.21,2,.46,3,.73l.59.17.59.16.59.18.87.26.53.17c.29.08.57.17.86.27l.14,0,1,.32,1.31.43.08,0,.6.19q.71.24,1.44.45l.53.16.45.12.51.15.76.2,1.52.38h0l.09,0,1.24.3.45.11,1.26.3h0l1.53.36,1.39.35.81.21.31-1.3h0a33.06,33.06,0,0,1-3.66-1.4l-.16-.07-.49-.21-.5-.2c-2.53-1-5-2.1-7.59-3.08-9.42-3.61-19.5-5.79-29.36-8-3.32-.74-7.94-1.4-11-2.9-2.79-1.39,1.23-2,2.82-2.17.91-.07,2.81.18,3.24-.61.78-1.43-2.7-2.39-3.85-2.89a100.89,100.89,0,0,0-19.34-6.34c-5.4-1.15-10.81-2.16-16.15-3.56-3-.78-5.88-1.93-8.77-2.94s-6.25-1.68-8.57-3.33c-1.22-.87-2.36-2.21-1.11-3.23,1.42-1.14,4.55.08,6.26.4,6,1.12,11.92,3.75,18,4.16,1.32.09,3.54.4,2.91-1-.38-.88-2.72-1.68-3.52-2.09a46.3,46.3,0,0,0-5.75-2.43c-2.39-.83-4.75-1.81-7.17-2.52-2.84-.84-3-2.88-.46-3.67,3.14-1,7.13-.46,10.49,0l.25,0-.22,0c-2.53-.46-5-.79-7.55-1.12-4.72-.6-9.4-1.5-14.1-2.23l-.62-.1-1.32-.25-.63-.11-.39-.06-.38-.05c-.26,0-.53-.06-.78-.07H1236c-.12,0-.24,0-.35,0l-.18,0-.16,0-.17,0-.16,0-.15,0a12.34,12.34,0,0,0-7,6.38c-.11.2-.21.4-.31.61s-.28.6-.41.9-.14.35-.2.52-.07.2-.1.3-.1.29-.15.44c-.11.35-.21.71-.29,1.06C1226.25,718.3,1226.21,718.5,1226.17,718.7Z"/>
              <path class="cls-47" d="M1320.53,722.65c5.6,1.45,11.39,2.54,17.07,3.74,4.14.87,8,2,12.25,2.49,1.13.14,2.27.25,3.4.36l.27-1.17c-10.33-2.17-21.74-3.45-32-6.07A1.55,1.55,0,0,0,1320.53,722.65Z"/>
              <path class="cls-48" d="M1226.17,718.7s0,0,0,.06v0A13.86,13.86,0,0,0,1226,721a19.29,19.29,0,0,0,1.69,8.48c1.12,2.23,4.69,2.51,7.33,3.08,6.55,1.42,13.48,3.08,19.8,4.92,8.71,2.52,18.14,3.39,26.76,6.2l1.51.47,1.16.34c.77.22,1.55.44,2.33.64l1.17.31c1.87.49,3.75.95,5.63,1.43l1.63.42,1,.27,1,.27,1,.29c4.76,1.34,9.36,3.08,14.1,4.47,3.74,1.08,7.64,1.55,11.44,2.37,1,.21,2,.46,3,.73l.59.17.59.16.59.18.87.26.53.17c.29.08.57.17.86.27l.14,0,1,.32a10,10,0,0,1,1.1.41l.28.14a7.77,7.77,0,0,0,.85.35,36.45,36.45,0,0,0,5,1.36l.27.09a7.5,7.5,0,0,0,.88.29c2.27.54,3.55.53,5.69,1.13l.31-1.29.15-.6a33,33,0,0,1-3.69-1.39,5.42,5.42,0,0,1-1.23.11h0a24.13,24.13,0,0,1-3.17-.31c-4-.68-7.63-2.28-11.53-3.18-4.39-1-9.23-2.13-14.75-3.51-5-1.25-9.76-3.21-14.81-4.38a61.82,61.82,0,0,1-7-1.89c-2.8-1-5.69-1.45-8.54-2.23-4.84-1.33-9.54-2.78-14.26-4.4-1.74-.6-3.5-1.15-5.24-1.75-1.43-.49-5.29-1.14-6.16-2.29-.71-.94.57-.84,1.67-.77,2.11.13,4.19.69,6.27,1,4.23.67,8.48.93,12.72,1.73,6.27,1.18,12.6,1.5,18.73,3.45-5-1.71-9.84-3.24-15-4.54-4.37-1.11-8.79-1.88-13.2-2.81-7.65-1.62-15-3.75-22.5-5.88-3-.86-12.42-2.59-10.71-6.37.7-1.53,2.69-2.11,4.63-2.39,6.38-.91,13.68,1.35,20,2.63-3.27-2.28-8.26-3.33-12.19-4.47-3.57-1-11.9-2.91-11.64-6.77a1.76,1.76,0,0,1,.32-.93l-.15,0a12.34,12.34,0,0,0-7,6.38c-.11.2-.21.4-.31.61s-.28.6-.41.9-.14.35-.2.52-.07.2-.1.3-.1.29-.15.44c-.11.35-.21.71-.29,1.06C1226.25,718.3,1226.21,718.5,1226.17,718.7Z"/>
              <path class="cls-49" d="M1341.39,731.13c-.56-.08-1.12-.18-1.42-.21-1.14-.11-2.29-.24-3.43-.45-2-.38-4-.7-6.06-1.12-7.52-1.58-15.12-3.12-22.6-4.93-6.73-1.63-13.39-3.63-20.18-5-5.1-1.06-10.49-2.36-15.65-2.14,1.14,0,3.06.71,4.21,1,1.56.37,3.11.75,4.64,1.21,2.91.86,5.5,2.19,8.32,3.22-.88.45-2.56.06-3.6,0a37.61,37.61,0,0,1-9-2.1c-3.26-1.16-6.29-2.67-9.68-3.54-2.84-.73-7-1.92-9.87-1.78a11.83,11.83,0,0,1,3.28,1.09c1.08.4,2.14.85,3.18,1.31,2.09.92,4.12,1.94,6.18,2.91a69.72,69.72,0,0,0,12.53,4.75,36.23,36.23,0,0,0,6.86.9c3.78.16,7.58.46,11.36.9,4.2.49,8.39,1.25,12.53,2.12s8.36,2.08,12.55,3.09a48.66,48.66,0,0,1,5.56,1.66c1,.36,4.67,1.39,5.12,2.17-1.26-2.2-5.65-4.21-8.48-4.88a42.57,42.57,0,0,0,4.85.69c3.3.36,7.53.44,10.35-.76A4,4,0,0,1,1341.39,731.13Z"/>
              <path class="cls-49" d="M1247,722.12c6.12,1.77,12.6,2.5,18.84,3.79,8,1.68,16.09,2.32,24.18,3.53,8.46,1.27,17,1.68,25.46,3.38,6.35,1.29,11.92,3.78,17.73,6.28a183.09,183.09,0,0,0-18.43-3.23c-3.77-.48-7.48-1.38-11.25-1.85-3.28-.41-6.57-.62-9.86-1-6.64-.87-13.19-2-19.79-3.14a157.88,157.88,0,0,1-15.69-3.32A45.2,45.2,0,0,1,1247,722.12Z"/>
              <path class="cls-47" d="M1294.66,736.56a81.39,81.39,0,0,0,9.65,1.16,88,88,0,0,1,14.33,2.77c2.14.59,4.34,1.22,6.54,1.6a63.84,63.84,0,0,0,7.08.61,68.6,68.6,0,0,1,10.93,2c.07.79-.83,1.42-.7,2.3a12.89,12.89,0,0,0,1.21,2.79c.48,1,1.39,1.86,1.36,2.88-2-.72-3.79-2-5.76-2.79a46.35,46.35,0,0,0-7.31-2.4c-2.81-.67-5.67-1.2-8.48-1.89a69.05,69.05,0,0,1-8.83-3c-2.29-.9-4.47-1.87-6.89-2.62-1.94-.6-3.94-1.09-5.9-1.66C1299.46,737.53,1297.06,737.27,1294.66,736.56Z"/>
              <path class="cls-47" d="M1323.89,717.61a.61.61,0,0,1,.35-.12,3.8,3.8,0,0,1,2.7,1.16,2.18,2.18,0,0,1,.6,1.88c-.48,1.58-3.3-.77-3.69-1.57C1323.69,718.6,1323.53,717.9,1323.89,717.61Z"/>
              <path class="cls-50" d="M1326,718.42c.21.13.39.27.53.37.53.42,1,1,.73,1.54s-2-.58-2.36-.88-1.12-1.21-.43-1.46A1.94,1.94,0,0,1,1326,718.42Z"/>
              <path class="cls-48" d="M1338.42,742.6a22.61,22.61,0,0,0-1.07,4.21c-.36,2.62.38,5.59,1.22,8.25,1.15,3.65,6.31,6.75,10.89,6.4,2.86-.21,4.73-.52,6.53-2.2.69-.64.94-1.5,1.6-2.1s1.21-.85,1.58-1.55c.93-1.81,1-3.91,2-5.68a14,14,0,0,0,1.77-6c.22-2.5.37-5.33-.84-7.82a14.45,14.45,0,0,0-2.41-3.14c-.75-.87-.83-1.92-1.84-2.67-.63-.47-.86-1-1.61-1.42a9.1,9.1,0,0,0-2.74-.84,9.68,9.68,0,0,0-6.25,1,13.76,13.76,0,0,0-4.23,4.52,35.2,35.2,0,0,0-3.4,5.9C1339.21,740.48,1338.79,741.53,1338.42,742.6Z"/>
              <path class="cls-51" d="M1338.89,749.48a10.45,10.45,0,0,0,.53,2.6c.29.79.23,1.61.55,2.4a11.68,11.68,0,0,0,3.79,4.47c2.27,1.82,6.38,1.7,8.87.79a8.22,8.22,0,0,0,3.89-3,9.68,9.68,0,0,0,1.8-2.27c.29-.73.56-1.44.91-2.14a15.1,15.1,0,0,0,.84-2.51c.24-.82.79-1.51,1.1-2.3a12.19,12.19,0,0,0,.79-4.76,23.41,23.41,0,0,0-.34-4.79,8.82,8.82,0,0,0-2.31-3.71,6.91,6.91,0,0,1-1.58-2.45c-.63-1.54-2.68-2.46-4.86-2.5a14.51,14.51,0,0,0-3.58.2,5.34,5.34,0,0,0-2.77,2c-.38.45-.61,1-1,1.44s-.92.84-1.27,1.33c-.76,1-1.27,2.34-2,3.43a21.46,21.46,0,0,0-2.59,7.17c-.21,1-.5,1.95-.7,2.95A4.48,4.48,0,0,0,1338.89,749.48Z"/>
              <path class="cls-52" d="M1358.4,735.88a7.33,7.33,0,0,1,1.47,4.36c-.11,1.42.13,2.94-.09,4.35-.38,2.34-1.58,4.52-2.53,6.69a11.91,11.91,0,0,1-3.69,5.3,14.86,14.86,0,0,1-2.47,1.42c-1.28.64-2.65.3-4.18-.18a5.21,5.21,0,0,1-3-1.77,10.86,10.86,0,0,1-1.53-4c-.3-1.4-.84-2.57-.56-3.94s.8-2.58,1-3.92a19.87,19.87,0,0,1,2.2-5.8,13.18,13.18,0,0,1,1.34-2.91,23.67,23.67,0,0,1,2.56-2.29c1.72-1.49,4.17-1.73,6.69-.44.75.38,1.75,1,1.94,1.72Z"/>
              <path class="cls-50" d="M1355,736.16a9,9,0,0,1,2,3.82c1.13,3.38-.25,7-1.57,10-.8,1.85-3.2,6.08-7,5.08-3.68-1-3.53-5.76-3.31-7.69.39-3.34.87-6.94,3.2-9.75a7.06,7.06,0,0,1,3.75-2.23A3.19,3.19,0,0,1,1355,736.16Z"/>
              <path class="cls-52" d="M1353.53,738.64c1.9,1.42,1.63,4.12,1.47,5.65a9.63,9.63,0,0,1-1.18,4.31c-.91,1.46-.81,3.65-3.75,3.89-1.49.12-1.79-.56-2.22-1.46a4.73,4.73,0,0,1-.25-3,22.71,22.71,0,0,1,2-7C1349.84,740.55,1352.15,737.33,1353.53,738.64Z"/>
              <path class="cls-50" d="M1352.92,742.15c.53.7.17,1.91.13,2.65a10.7,10.7,0,0,1-.38,2.18,5.52,5.52,0,0,1-.73,1.53c-.16.27-.33.76-.74.86s-1-.4-1.14-.74a4.54,4.54,0,0,1-.19-1.82,8.47,8.47,0,0,1,1.3-3.76,2,2,0,0,1,1-1.09C1352.55,741.81,1352.89,741.92,1352.92,742.15Z"/>
              <g>
                <path class="cls-48" d="M1357,731.23c-.12.06-1.53,2.45-2.37,4,0,0,1.47-3.55,1.84-4.83S1357,731.23,1357,731.23Z"/>
                <path class="cls-48" d="M1347.71,729.59l.89,7s-1-5.57-1.63-6.7Z"/>
                <path class="cls-48" d="M1362.56,740.82l.18.88a10.33,10.33,0,0,1-3.16,1.15,18,18,0,0,0-3.44.73A31.66,31.66,0,0,1,1362.56,740.82Z"/>
                <path class="cls-46" d="M1344,739.58a10,10,0,0,1,3.27,3A7.43,7.43,0,0,1,1344,739.58Z"/>
                <path class="cls-48" d="M1342.88,759.66c1.4-3.11,4.88-8.86,4.88-8.86a39.74,39.74,0,0,1-2.7,3.36c-1.13,1.2-3.39,4.26-3.39,4.26Z"/>
                <path class="cls-48" d="M1339.13,754.07c0-.05,1.44-1.52,1.44-1.52l-1.84,1.16Z"/>
                <path class="cls-48" d="M1340.94,756.91a9.47,9.47,0,0,1,1.28-1.09l-1.11,1.68Z"/>
                <path class="cls-48" d="M1361.6,747.46l-.35,1.25a11.18,11.18,0,0,0-2.23-1.34A6.6,6.6,0,0,0,1361.6,747.46Z"/>
                <path class="cls-46" d="M1354.65,754.87a24.53,24.53,0,0,0-2.35-7.3A16.52,16.52,0,0,0,1354.65,754.87Z"/>
                <path class="cls-46" d="M1351.57,742.27a18.79,18.79,0,0,1,.32,3.13s1.25,1.19,1.5,1.33-2.28-.6-2.28-.6l-2.15.5,2.14-1.52Z"/>
                <path class="cls-46" d="M1355.17,737.13a11.42,11.42,0,0,1-2,3.72A10.34,10.34,0,0,1,1355.17,737.13Z"/>
                <polygon class="cls-48" points="1338.99 746.24 1342.26 746.62 1338.67 747.08 1338.99 746.24"/>
                <path class="cls-48" d="M1342.77,735.23a23.23,23.23,0,0,1,1.89,2.21l-2.53-1.57Z"/>
                <polygon class="cls-48" points="1353.44 728.34 1352.66 732.08 1352.76 728.19 1353.44 728.34"/>
                <path class="cls-48" d="M1361.2,735.69l.1.83-1.26.77S1361.2,735.69,1361.2,735.69Z"/>
                <path class="cls-48" d="M1351.37,761.24l-.74,0,.54-3.58S1351.32,760.94,1351.37,761.24Z"/>
                <path class="cls-48" d="M1359.18,754.68l-.4.94-1.49-1.89S1359,754.66,1359.18,754.68Z"/>
                <path class="cls-46" d="M1348.94,753.67a14.32,14.32,0,0,1-1.15,4.68S1347.67,757.17,1348.94,753.67Z"/>
                <path class="cls-46" d="M1355.66,749.43a5.2,5.2,0,0,1,2.78,2A7.87,7.87,0,0,1,1355.66,749.43Z"/>
              </g>
            </g>
          </g>
          <g>
            <path class="cls-53" d="M1352.78,491.39c-.08-.14-8.33-13.75-36-7.07,0,0,21.1-9.47,37.36,6.3Z"/>
            <path class="cls-53" d="M1356.08,491.33c-.28-.59-7.24-14.61-28.95-12.88,0,0,18.89-5.12,30.34,12.23Z"/>
            <path class="cls-53" d="M1359.7,491.41c-.09-.15-9.15-14.85-17.93-16.55,0,0,9.62-.66,19.24,15.75Z"/>
            <path class="cls-53" d="M1272.66,621.71c26.34-13.92,35.67-37.77,35.76-38l1.43.55C1300.49,612.21,1272.66,621.71,1272.66,621.71Z"/>
            <path class="cls-53" d="M1268.52,630.89c22.9-8.63,35.22-30.36,35.33-30.58l1.34.75C1293.33,625.25,1268.52,630.89,1268.52,630.89Z"/>
            <path class="cls-53" d="M1261.8,640.07c24-2.62,41.9-29.36,42.08-29.63l1.28.85C1286.86,640.07,1261.8,640.07,1261.8,640.07Z"/>
            <path class="cls-53" d="M1460,533.94l1.43-.54c.1.24,9.45,24.1,35.76,38C1497.18,571.41,1474.14,565.3,1460,533.94Z"/>
            <path class="cls-53" d="M1464.65,550.75,1466,550c.12.21,12.44,22,35.33,30.58C1501.32,580.59,1479.71,577.44,1464.65,550.75Z"/>
            <path class="cls-53" d="M1464.68,561l1.28-.84c.17.26,18.14,27,42.08,29.62C1508,589.76,1486.18,591.91,1464.68,561Z"/>
            <g>
              <path class="cls-54" d="M1551.87,702.69a106.27,106.27,0,0,1-36.11-11.15c6.68,2.29,19.59,1.54,19.59,1.54s-18.7-3.59-25.35-11.78a88.79,88.79,0,0,0,12.67,0c-10.55-3.44-14.47-4.36-18.05-8.45a32.73,32.73,0,0,0,5.38,0c-6.92-3.33-15.11-7.43-19.21-17.93a84.54,84.54,0,0,0,9,1.79c-10.5-4.86-17.67-17.41-19-34.57a22.94,22.94,0,0,0,10,5.63c-8.71-7.43-12.3-27.4-12-44a88.31,88.31,0,0,1,6.66,8.19c0-14.59-.51-34.06-10.25-45.59a9.64,9.64,0,0,1,6.66,2.82c-2-11.26-15.62-27.91-22.53-32.52,0-1.8,8.19,1.54,8.19,1.54-5.38-10.51-14.93-21.31-23.63-23.1,1.53-2.82,10.06-1,10.06-1-7-5.72-34.9-26.53-64.71-7.66-39.52-16-57.56,1.79-64.7,7.66,0,0,8.53-1.84,10.06,1-8.71,1.79-18.25,12.59-23.63,23.1,0,0,8.2-3.34,8.2-1.54-6.92,4.61-20.49,21.26-22.55,32.52a9.68,9.68,0,0,1,6.67-2.82c-9.74,11.53-10.25,31-10.25,45.59a88.31,88.31,0,0,1,6.66-8.19c.26,16.65-3.33,36.62-12,44a22.94,22.94,0,0,0,10-5.63c-1.28,17.16-8.45,29.71-18.95,34.57a84.54,84.54,0,0,0,9-1.79c-4.1,10.5-12.29,14.6-19.21,17.93a32.69,32.69,0,0,0,5.38,0c-3.59,4.09-7.5,5-18,8.45a88.79,88.79,0,0,0,12.67,0c-6.65,8.19-25.35,11.78-25.35,11.78s12.92.75,19.59-1.54a106.27,106.27,0,0,1-36.11,11.15c15,.76,36.49-5.77,44.94-6.92a79,79,0,0,0-10.75,8.64s20.75-5.57,30.35-12.1c0,0-4.23,7.3-7.3,10,0,0,27.66-10.76,38.42-17.67a123.78,123.78,0,0,1-23.44,17.29s17.29-5.77,26.89-11.91c0,0-5.76,6.91-11.9,10.75,12.67-2.3,26.5-12.29,26.5-12.29l-.38,8.07,11.52-8.84s1.54,7.3-5.37,13.45a75.72,75.72,0,0,0,18.82-6.92s.38,4.61-7.69,10.18c0,0,21.65-3.39,32-11.07,10.47,2.17,32,11.07,32,11.07-7-7.47-7.68-10.18-7.68-10.18a75.72,75.72,0,0,0,18.82,6.92c-6.91-6.15-5.37-13.45-5.37-13.45l11.52,8.84-.39-8.07s13.84,10,26.51,12.29c-6.14-3.84-11.91-10.75-11.91-10.75,9.61,6.14,26.9,11.91,26.9,11.91a123.78,123.78,0,0,1-23.44-17.29c10.76,6.91,38.42,17.67,38.42,17.67-3.08-2.69-7.3-10-7.3-10,9.6,6.53,30.35,12.1,30.35,12.1a79.36,79.36,0,0,0-10.76-8.64C1515.37,696.92,1536.89,703.45,1551.87,702.69Z"/>
              <path class="cls-55" d="M1551.87,702.69a106.27,106.27,0,0,1-36.11-11.15c6.68,2.29,19.59,1.54,19.59,1.54s-18.7-3.59-25.35-11.78a88.79,88.79,0,0,0,12.67,0c-10.55-3.44-14.47-4.36-18.05-8.45a32.73,32.73,0,0,0,5.38,0c-6.92-3.33-15.11-7.43-19.21-17.93a84.54,84.54,0,0,0,9,1.79c-10.5-4.86-17.67-17.41-19-34.57a22.94,22.94,0,0,0,10,5.63c-8.71-7.43-12.3-27.4-12-44a88.31,88.31,0,0,1,6.66,8.19c0-14.59-.51-34.06-10.25-45.59a9.64,9.64,0,0,1,6.66,2.82c-2-11.26-15.62-27.91-22.53-32.52,0-1.8,8.19,1.54,8.19,1.54l-.1-.2c-7.2-4.54-13.31-4.68-15.33-3.76,12.8,8.34,18.43,18.3,21.18,27.11,0,0-9.66-3.69-13.24-1.9,9.73,5.89,14.59,18.44,18.59,33.31a59.9,59.9,0,0,1-8.7-7.42c-1.88,17.17,4.19,36.6,7.78,46.08l-2.82-.94c-2.31,10.08-2.24,26.74,6.61,37.5a57.21,57.21,0,0,0-6.93-3.57c1,9.29,15,21.43,28.42,33.73l-9-3.84a138.57,138.57,0,0,1,11.53,9.22s-4,.18-12.68-2.72a38.07,38.07,0,0,0,14.41,10.4c-17.86.12-31.51-10.4-31.51-10.4l2.88,9.44L1444,675l8.07,11.91-9.8-5.19,4.8,8.27L1434,680.76s-1-.17,0,7.69a52.71,52.71,0,0,1-9.61-6.71s-2.68,4.81,0,12.3c0,0-1.53,0-17.16-7.11,0,0-.51,2.5-1.08,5.38,0,0-5.19-.57-17.93-5.38,0,0-3,4.61-19.15,8.46,0,0,3.65-6.54,4.23-17.68,0,0-8.64,13.26-18,16.71,2.3-2.49,2.83-18.24,2.83-18.24l-13,10.75,3.45-8.06s-1.73-1.35-18.44,12.29c0,0,7.49-12.29,15.75-27.66,0,0-4.22,4.8-13.83,15.37,0,0,3.08-6,3.46-11.34a221.86,221.86,0,0,1-36.69,24.59,27,27,0,0,1,1-9,121.35,121.35,0,0,1-19.78,11.14s.77-2.88,4.8-5.78c-24.41,8.75-41.13,12.7-52.53,14.21,14.31-.71,31.84-5.88,39.27-6.89a79,79,0,0,0-10.75,8.64s20.75-5.57,30.35-12.1c0,0-4.23,7.3-7.3,10,0,0,27.66-10.76,38.42-17.67a123.78,123.78,0,0,1-23.44,17.29s17.29-5.77,26.89-11.91c0,0-5.76,6.91-11.9,10.75,12.67-2.3,26.5-12.29,26.5-12.29l-.38,8.07,11.52-8.84s1.54,7.3-5.37,13.45a75.72,75.72,0,0,0,18.82-6.92s.38,4.61-7.69,10.18c0,0,21.65-3.39,32-11.07,10.47,2.17,32,11.07,32,11.07-7-7.47-7.68-10.18-7.68-10.18a75.72,75.72,0,0,0,18.82,6.92c-6.91-6.15-5.37-13.45-5.37-13.45l11.52,8.84-.39-8.07s13.84,10,26.51,12.29c-6.14-3.84-11.91-10.75-11.91-10.75,9.61,6.14,26.9,11.91,26.9,11.91a123.78,123.78,0,0,1-23.44-17.29c10.76,6.91,38.42,17.67,38.42,17.67-3.08-2.69-7.3-10-7.3-10,9.6,6.53,30.35,12.1,30.35,12.1a79.36,79.36,0,0,0-10.76-8.64C1515.37,696.92,1536.89,703.45,1551.87,702.69Z"/>
              <path class="cls-53" d="M1424.24,706.47l-3.28-1.35c-.21-.08-21.18-8.71-31.58-11-10.53,7.56-31.22,10.88-32.1,11l-3.33.52,2.77-1.91c5-3.45,6.6-6.49,7.11-8.15a78.08,78.08,0,0,1-17.67,6.27l-2.78.56,2.12-1.89a14.6,14.6,0,0,0,5.26-11.42l-11.74,9,.39-8.16c-3.75,2.53-14.93,9.6-25.53,11.53l-3.94.71,3.4-2.12a49.07,49.07,0,0,0,8.33-6.92,181.5,181.5,0,0,1-22.66,9.45l-7.16,2.39,6.53-3.78a135.85,135.85,0,0,0,17.84-12.36c-12.58,6.49-31.93,14-32.16,14.13L1280,704.6l3.29-2.88a38.94,38.94,0,0,0,5.46-7.07c-10.24,5.75-27,10.29-27.81,10.5l-2.88.77,2.15-2.06a81.93,81.93,0,0,1,8-6.75c-2,.41-4.42.94-7,1.52-10,2.24-24.06,5.36-34.69,4.82l-8.28.13c12.92-1.46,32.29-7.29,38.59-10.07a77.58,77.58,0,0,1-8.87.46c-2.85,0-4.91-.12-4.91-.12l-6.18-.36,6.06-1.17c.18,0,16.37-3.21,23.63-10.13-1.41.07-2.87.1-4.37.1-3.75,0-6.39-.22-6.5-.23l-3.77-.32,6.74-2.19c7-2.25,10.43-3.36,13.21-5.83h-.71c-1.61,0-2.75-.11-2.8-.12l-2.72-.27,2.46-1.19c6.28-3,14-6.74,18.23-16.1-3.4.82-7.35,1.39-7.54,1.43l-5.18.73,4.74-2.2c10-4.61,16.73-16.49,18.34-32a23.84,23.84,0,0,1-8.88,4.5l-3,.69,2.37-2c8.14-7,11.73-25.49,11.78-41.49-2.92,3.34-5.25,6.62-5.27,6.66l-1.4,2v-2.42c0-15.64.74-33.17,9.27-44.63a9.19,9.19,0,0,0-4.33,2.36l-1.82,2,.48-2.6c2-11.17,14.47-26.53,21.56-32.08a35.82,35.82,0,0,0-6.17,1.94l-1.92.77.94-1.84c4.84-9.44,13.84-20.36,22.69-23.11a8.65,8.65,0,0,0-3-.43,29.7,29.7,0,0,0-5.23.57l-3.09.67,2.44-2c.36-.29.74-.62,1.16-1,5.55-4.67,15.9-13.36,34.32-13.36,9,0,19,2.15,29.64,6.4a48.31,48.31,0,0,1,25.86-7.65c17.78,0,32.32,9.76,39.41,15.58l2.45,2-3.1-.67a29.25,29.25,0,0,0-5.23-.57,8.65,8.65,0,0,0-3,.43c8.86,2.75,17.84,13.67,22.69,23.11l.94,1.84-1.92-.77a35.82,35.82,0,0,0-6.17-1.94c7.08,5.55,19.53,20.91,21.56,32.08l.47,2.61-1.8-2a9.14,9.14,0,0,0-4.34-2.38c8.53,11.46,9.27,29,9.27,44.63v2.42l-1.39-2s-2.36-3.33-5.28-6.66c0,16,3.63,34.54,11.77,41.49l2.38,2-3-.69a23.77,23.77,0,0,1-8.88-4.5c1.61,15.5,8.39,27.39,18.33,32l4.74,2.2-5.16-.73c-.2,0-4.16-.61-7.55-1.43,4.23,9.36,12,13.08,18.23,16.1l2.46,1.19-2.72.27a28,28,0,0,1-2.8.12h-.71c2.77,2.47,6.24,3.59,13.2,5.83l6.76,2.19-3.78.32c-.11,0-2.75.23-6.5.23-1.5,0-3,0-4.37-.1,7.27,6.93,23.45,10.1,23.63,10.13l6.07,1.17-6.17.35s-2.09.13-4.93.13a77.58,77.58,0,0,1-8.87-.46,107.35,107.35,0,0,0,30.35,8.41l6.25,1.28a159.2,159.2,0,0,1-41-4.57c-2.61-.58-5-1.11-7-1.52a80.77,80.77,0,0,1,8,6.75l2.15,2.06-2.88-.77c-.78-.21-17.57-4.75-27.81-10.5a38.5,38.5,0,0,0,5.46,7.07l3.29,2.88-4.07-1.58c-.23-.09-19.58-7.64-32.15-14.13A135,135,0,0,0,1480,701.25l6.53,3.78-7.15-2.39a180,180,0,0,1-22.67-9.45,49.07,49.07,0,0,0,8.33,6.92l3.4,2.12-3.94-.71c-10.6-1.93-21.78-9-25.53-11.53l.39,8.16-11.75-9a14.47,14.47,0,0,0,5.26,11.42l2.12,1.89-2.78-.56a78.3,78.3,0,0,1-16.85-5.87,57.61,57.61,0,0,0,6.42,7.86ZM1456.63,684c8.44,5.43,27.64,13.35,35.17,16.37a70.24,70.24,0,0,1-5.13-7.65l-1.69-2.92,2.78,1.89c7.18,4.88,20.87,9.28,27,11.11a80.73,80.73,0,0,0-8.26-6.37l-2.92-1.87,3.43.47c2.54.35,6.25,1.17,10.53,2.12,6.47,1.45,14.63,3.26,22.41,4.21a107.12,107.12,0,0,1-24.58-9.13l-5.84-2.46c3.61,1.23,15.57,2.63,19.89,2.67-6.15-1.74-15.58-5.16-20-10.64l-1.13-1.39,1.78.14c2,.15,4,.23,6.19.23.78,0,1.51,0,2.19,0-7.8-2.52-11.16-3.69-14.39-7.38l-1.26-1.44,1.91.17c.7.06,1.44.1,2.22.11-6-3.05-13.14-7.52-16.84-17l-.56-1.45,1.49.43c1.4.4,3.09.77,4.62,1.05-8.85-6.09-14.45-17.84-15.59-33l-.15-2.06,1.46,1.46A21.27,21.27,0,0,0,1488,626c-7.22-8.85-10.27-27-10-42.29l0-1.91,1.29,1.39c2.12,2.27,4.07,4.74,5.32,6.38-.09-15.43-1.22-32.28-10.05-42.75l-1.07-1.26h1.65a10.15,10.15,0,0,1,5.41,1.6c-3.21-11.16-15.72-25.9-21.71-29.9l-.34-.23v-.41c0-.31.12-1.31,1.72-1.31a21.62,21.62,0,0,1,5.6,1.4c-5.13-9.2-13.87-19.2-22.15-20.9l-1-.21.5-.91c.71-1.31,2.51-2,5.35-2,.9,0,1.8.07,2.61.15-6.77-5.09-20.26-13.43-36.14-13.43a47,47,0,0,0-25.37,7.62l-.34.21-.36-.14c-10.58-4.27-20.48-6.44-29.43-6.44-16.84,0-26.76,7.53-32.36,12.2a23.78,23.78,0,0,1,2.76-.17c2.84,0,4.64.66,5.35,2l.49.91-1,.21c-8.28,1.7-17,11.7-22.15,20.9a21.62,21.62,0,0,1,5.6-1.4c1.6,0,1.72,1,1.72,1.31V517l-.34.23c-6,4-18.5,18.74-21.71,29.9a10.12,10.12,0,0,1,5.41-1.6h1.65l-1.07,1.26c-8.84,10.47-10,27.32-10.06,42.75,1.25-1.64,3.21-4.11,5.33-6.38l1.3-1.39,0,1.91c.23,15.25-2.81,33.43-10,42.28a21.29,21.29,0,0,0,6.67-4.4l1.46-1.46-.16,2.06c-1.13,15.19-6.74,26.95-15.58,33,1.53-.28,3.22-.65,4.62-1.05l1.49-.43-.57,1.45c-3.69,9.47-10.8,13.94-16.82,17,.77,0,1.51-.05,2.21-.11l1.91-.17-1.26,1.44c-3.23,3.69-6.59,4.86-14.39,7.38.67,0,1.41,0,2.19,0,2.16,0,4.24-.08,6.18-.23l1.79-.14-1.13,1.39c-4.45,5.48-13.88,8.9-20,10.64,4.32,0,15.32-1.31,18.92-2.54l-4.88,2.33a106.91,106.91,0,0,1-24.57,9.13c7.77-1,15.93-2.76,22.41-4.21,4.28-1,8-1.77,10.52-2.12l3.44-.47-2.92,1.87a81.42,81.42,0,0,0-8.26,6.36c6.14-1.82,19.83-6.22,27-11.1l2.78-1.89-1.68,2.92a74.47,74.47,0,0,1-5.14,7.65c7.52-3,26.73-10.94,35.17-16.37l6-3.87-5.06,5.06a120.17,120.17,0,0,1-17.21,13.47c5.86-2.25,14.14-5.72,19.71-9.29l4.18-2.67-3.17,3.82a67.23,67.23,0,0,1-8.84,8.6c11.2-3.24,22.27-11.16,22.39-11.25l1.3-.93-.38,8,11.18-8.57.24,1.19a15.11,15.11,0,0,1-3.7,12.23,75.31,75.31,0,0,0,16-6.21l1-.57.09,1.18c0,.18.27,4-5.44,8.91,6.34-1.25,20.79-4.6,28.59-10.37l.28-.2.33.08c8.14,1.69,22.68,7.3,29.06,9.85-4.86-5.55-5.53-7.76-5.6-8l-.43-1.7,1.54.84a74.85,74.85,0,0,0,16,6.21,15.12,15.12,0,0,1-3.72-12.23l.25-1.19,11.18,8.57-.38-8,1.29.93c.13.09,11.19,8,22.4,11.25a66.1,66.1,0,0,1-8.83-8.6l-3.19-3.82,4.19,2.67c5.57,3.58,13.85,7,19.7,9.29a119,119,0,0,1-17.2-13.47"/>
            </g>
            <path class="cls-53" d="M1362.13,551.84l-4.19-11.21c-2.07,1.53-7.51,5.72-9.5,8.68l-.86,1.31-.5-1.49c-.1-.29-2.13-6.57-.65-16.48-2.39,3.37-6.23,8.92-7.4,11.44l-1.21,2.6-.26-2.86c0-.63-1.16-13.81,2.09-21.66a15.3,15.3,0,0,1-2.92,1.08l-.84.23-.11-.87c-.82-6.56,9.37-11.23,9.37-11.23s-7.64,4.87-7.88,10.11a9.77,9.77,0,0,0,4-2.29l2.45-1.82c-5.24,8.35-5,18.61-4.82,23.68,2.77-4.61,8-11.73,8.24-12.09l2.14-2.93-.77,3.55a42.53,42.53,0,0,0-.4,17.57c3.19-3.73,9.41-8.17,9.7-8.37l.82-.58,4,10.64c5-6.76,4.62-18.14,4.62-18.27s2,13.29-4.3,20.32Z"/>
            <g>
              <path class="cls-54" d="M1420.59,587.14s-3.08,11.2-.75,16.17a60.67,60.67,0,0,1,4.08-7.12c-2,15,4.08,20.82,4.08,20.82-.29-4.37,2.92-8.45,2.92-8.45,2.62,10.79,8.45,12.45,12.83,12.79a33.11,33.11,0,0,1-4.43-10.17c8.51,7.59,16.38,4.67,16.38,4.67-6.7-4.08-6.12-9.16-6.12-9.16,9.91,2.16,15.16,0,15.16,0-2.91-5.42,0-20.23-12-20.23Z"/>
              <path class="cls-53" d="M1445.22,622.23l-1.53-.12c-4.26-.32-10.14-1.93-13.07-11.71a12.25,12.25,0,0,0-1.85,6.57l.13,2-1.43-1.35c-.24-.24-5.49-5.4-4.65-18.2-.64,1.11-1.43,2.54-2.29,4.27l-.71,1.42-.67-1.44c-2.42-5.13,1.44-16.49,1.44-16.49s-1.81,9-.6,14.2a50.91,50.91,0,0,1,3.31-5.59l1.8-2.54-.42,3.08c-1.38,10.19,1.07,16,2.66,18.58a16.21,16.21,0,0,1,3-6.79l1-1.25.38,1.54c2.19,9,6.6,11.38,10.6,12a32.41,32.41,0,0,1-3.7-9.06l-.45-2.25,1.71,1.52c5.88,5.24,11.36,5.29,14,4.89-5.48-4.08-5-8.69-5-8.9l.09-.84.83.18c7.46,1.63,12.19.76,14,.28a26.83,26.83,0,0,1-1.21-6.19c-.74-6.13-1.58-13.08-9.74-13.57,0,0,9.86-2.32,11.27,13.39.31,2.56.6,5,1.41,6.47l.4.75-.79.33c-.21.09-5.24,2.1-14.66.24.17,1.51,1.11,4.74,5.73,7.56l1.36.82-1.49.55c-.31.12-7.26,2.58-15.24-3.26a35.32,35.32,0,0,0,3.67,7.62Z"/>
            </g>
            <g>
              <path class="cls-54" d="M1308,641.09s-4.85,15.06-15.61,18.33c7.88,1.15,16.33-7.11,16.33-7.11a67,67,0,0,1-5.19,10.76c4.61,0,14-4.8,14.22-9a77.47,77.47,0,0,1,5.57,6.73c2.88-2.31,1.53-14.41,0-16.14,9.41,3.45,11.91,5.57,11.91,5.57.38-4.42,1.92-18.83-5.38-19.59,6.33-2.12,11.52,4.22,11.52,4.22,0-6-7.09-20.74-22.16-17.68Z"/>
              <path class="cls-53" d="M1303.48,663.83h-1.38l.73-1.17a66.54,66.54,0,0,0,4-7.73c-3.16,2.45-8.92,6.07-14.55,5.25l-3.4-.5,3.29-1c10.26-3.11,15.77-17.45,15.83-17.59s-3.13,12.42-11.65,17.41c6.14-1.24,11.76-6.67,11.83-6.74l2.47-2.4-1.21,3.22a68.91,68.91,0,0,1-4.49,9.59c4.6-.77,11.88-4.81,12-8.16l.08-1.82,1.25,1.32a77,77,0,0,1,5,6,9.64,9.64,0,0,0,.82-3.49c.37-4.37-.61-10-1.42-10.88l-2-2.29,2.87,1.06a65.51,65.51,0,0,1,11,4.92c.42-5,1.13-16.83-4.81-17.46l-3.53-.37,3.36-1.13c4.64-1.54,8.62,1,10.75,2.85a22.47,22.47,0,0,0-7.1-11.61,17,17,0,0,0-14-4s6.47-3.19,15,2.8c4.94,4.22,7.89,10.89,7.89,14.88V637l-1.36-1.66c0-.05-3.49-4.17-8-4.37,4.62,3.56,3.65,14.37,3.26,18.84l-.18,2-1.13-1s-2.26-1.83-10-4.79a31.49,31.49,0,0,1,.94,10.16c-.23,2.63-.87,4.38-1.9,5.21l-.63.51-.48-.66s-2-2.75-4.56-5.61C1316.23,659.83,1308,663.83,1303.48,663.83Z"/>
            </g>
            <path class="cls-53" d="M1418.35,514.2c-.13-.22-13.66-22.18-29.37-27.05l.45-1.47C1405.7,490.73,1418.35,514.2,1418.35,514.2Z"/>
            <path class="cls-54" d="M1392.6,651.52l-6.35,13.54a16,16,0,0,0,5.64-5.63,49.55,49.55,0,0,1-5.64,16.13c4.87-1,12.57-10.75,12.57-10.75-.53,9.22,1.26,14.59,1.26,14.59,3.33-3.84,5.12-17.41,5.12-17.41a83.07,83.07,0,0,0,7.94,13.06c3.08-5.63,0-19.47,0-19.47a100.91,100.91,0,0,0,12.3,6.92c-.51-8.45-6.65-18.34-16.27-16.76Z"/>
            <g>
              <path class="cls-54" d="M1443.65,651.51s-3.76,9.3-3.89,12.12c2.43-.52,6.55-3.59,6.55-3.59-3,4.36-1.3,10.5-1.3,10.5,1.28-3.07,6-7.55,6-7.55-.24,6.53,5.52,10.5,5.52,10.5-.89-4.1,0-11.53,0-11.53,3.2,5.38,10.25,5.76,10.25,5.76-4.74-6.14-5.38-7.8-5.38-7.8,7.94,3.32,10.63.64,10.63.64-7.82-3.72-12.55-6-12.55-6,6.91,1.29,7.68.26,7.68.26-3.46-2.56-5.93-4.46-11.18-5Z"/>
              <path class="cls-53" d="M1457.7,675.23l-1.6-1.11c-.23-.16-5.09-3.57-5.79-9.35-1.45,1.52-3.78,4.13-4.59,6.07l-.87,2.07-.58-2.17a16.62,16.62,0,0,1,.12-8.47,16.1,16.1,0,0,1-4.47,2.11l-1,.2,0-1c.13-2.89,4.19-11.15,4.66-12.08,0,0-2.31,7.54-2.92,11a31,31,0,0,0,5.12-3.07l3.67-2.74-2.58,3.78c-1.72,2.53-1.75,5.74-1.54,7.8a42.48,42.48,0,0,1,5.08-5.84l1.36-1.29-.07,1.87a11.81,11.81,0,0,0,3.71,8.55,55.35,55.35,0,0,1,.29-9.69l.27-2.24,1.15,1.94c2,3.34,5.63,4.62,7.82,5.11-3.64-4.84-4.27-6.32-4.33-6.49l-.64-1.68,1.66.7c4.5,1.89,7.18,1.74,8.57,1.36-7-3.31-11.13-5.34-11.13-5.34l-5.1-2.48,5.58,1a29.16,29.16,0,0,0,5.67.63c-2.28-3-9.31-4.67-9.31-4.67,5.11.58,7.83,1.61,11.64,4.44l.62.45-.47.62c-.41.56-1.66.79-3.64.67,2.08,1,4.87,2.35,8.23,3.94l1,.47-.77.77c-.11.11-2.65,2.53-9.43.29.76,1.17,2.06,3,4.25,5.87l1,1.32-1.67-.09c-.27,0-6-.37-9.63-4.45a37.12,37.12,0,0,0,.17,9.28Z"/>
            </g>
            <path class="cls-54" d="M1434.38,512.61s10.5,2.86,13.06,13.88c-5.89-1.28-9.59,0-9.59,0C1446.67,530.58,1450,547,1450,547c-10.76-9-16.86-6.15-16.86-6.15,9.43,6.15,6.68,17.15,6.68,17.15l-3.66-3.32c-.51,9.48-4.86,11.78-4.86,11.78-2.31-8.46-7.17-9-7.17-9,.25,7.69-4.1,11.27-4.1,11.27-5.38-13.31-7.17-19-7.17-19-4.1,9.52-7.63,10.62-7.63,10.62-1.33-9.81-2.1-17-2.1-17a37.31,37.31,0,0,1-6.66,8.86c.26-7.32-1.7-20.21,7.26-24.82Z"/>
          </g>
        </g>
      </g>
      <g id="SC_06">
        <g id="SC_05">
          <g class="cls-56">
            <g class="cls-57">
              <g>
                <path class="cls-58" d="M1705.39,206.6s41.28,26.9,40.49,66c-.14,6.87.39,27.88-13.55,37.05-9.7,6.39-21.44,3.85-23.22,3.44-21.89-5.07-34.94-32.06-47.71-58.49-10.45-21.62-15.24-38.49-27.65-40.36-1.49-.22-6.31-.95-9.29,1.89-9.24,8.81,6.72,45.14,24.63,70.8,14.05,20.13,26.25,29.32,23.09,41.55-2.46,9.51-12.52,14.34-13.48,14.78-8,3.73-17,2.51-29.62-2.47A146,146,0,0,1,1581,309.23c-31.35-32.4-56.43-67-71.94-90L1498.26,230l20,33.86c-2.54-4.22-14.25-22.68-36.94-27.7a54.21,54.21,0,0,0-23.09,0c11.8,4.52,28.83,12.95,43.1,29.24,15.58,17.79,16.31,31.75,32.32,56.95,11.92,18.76,26.23,34.18,36.94,43.09,37.2,31,87.25,30.16,112.35,27.7,10.47,1.28,24.47,4.84,35.4,15.4,4.68,4.51,22.2,23.38,11,98.62,0,0-6.28,42-38.56,136l172.39.82c21,7.44,60.11,19.19,71.33,4.39,5.64-7.44,2.14-18.81.56-24-19.41-63.56-34-112.17-40-152-3.77-25.36-4-47.13.3-66.92,1.48-6.82,12.81-55.87,47.71-69.26,19.25-7.39,28.08,2.85,55.41,0,53.15-5.55,87.87-51.41,90.8-55.41,27.06-36.8,34.85-89.78,34.85-89.78l-22.93,3.34c-1.06,9.29-7.46,58.28-44.24,77.2-4.36,2.25-24.46,12.59-36.77,4.18-17.31-11.83-6.69-52-4.75-55.74,7.41-14.38,24.7-41.79,24.7-41.79l-57.05,7.16c2.69,34.71-9.5,65.23-32.79,78-3.1,1.7-20.87,11.43-35,4.17-17.08-8.78-24.36-40.12-11-76.5l-21-7.66S1870.4,305,1851.14,317.51c-33.35,21.66-58.05-52.06-49.4-126.51H1777s16.06,81.41-3.7,52.33c-7.07-10.4-19.87-22.93-39.53-36.73"/>
                <path class="cls-59" d="M1910.49-118.37C2085.82-65.81,2103.24-3,2099.66,25.83c0,0,.37,49.29-180.65,99.06h0s-106.15,40.74-302.24,19.37c-59.5-6.49-157.66-32.24-171.23-89.79-10-42.34,30.85-85.47,45.62-101.06C1611.51-173.67,1851.5-130.39,1910.49-118.37Z"/>
                <path class="cls-60" d="M1889.55-136C2079.92-80,2099-13.63,2095.23,16.72c0,0,.56,52-195.65,103.89h0s-115,42.62-327.8,19.44c-64.57-7-171.14-34.51-186-95.24-11-44.69,33.19-90,49.16-106.43C1565-195.26,1825.52-148.83,1889.55-136Z"/>
                <path class="cls-61" d="M1336.69,187.1s-9.14-39.14,32.88-73.16c23.7-19.18,97.15-71.09,176.22-17.8,90.75,61.16,188.88,129.49,51.38,135.29S1351,238.63,1336.69,187.1Z"/>
                <path class="cls-62" d="M1336.69,189.93s-9.14-39.15,32.88-73.16c23.7-19.19,97.15-71.09,176.22-17.8,90.75,61.16,188.88,129.49,51.38,135.29S1351,241.46,1336.69,189.93Z"/>
                <path class="cls-63" d="M1617.29,207.29c23.44,3.28,27.38,2,118.68,1.94,19.42,0,102,0,268.06-5.26,69.84-2.19,175-18.14,203.67-31.33,9.56-4.4,28.62-15,29.3-43.88,1.55-65.92-56.14-103.86-74.32-122.33-17-17.24-59.87-38.09-71.26-42.69-138.72-56-251.48-73.07-251.48-73.07-27-6.21-239.61-51.91-360.85,75.74-11.15,11.73-79.69,83.08-59.62,145C1442.58,182.81,1569.85,200.64,1617.29,207.29Z"/>
                <path class="cls-64" d="M1613.51,213.51c23.44,3.28,27.39,2,118.68,1.94,19.42,0,102,0,268.06-5.26,69.84-2.19,175-18.14,203.67-31.33,9.56-4.4,28.62-15,29.3-43.88,1.56-65.92-56.14-103.86-74.32-122.33-17-17.24-59.87-38.09-71.26-42.69-138.72-56-251.48-73.07-251.48-73.07-27-6.21-239.61-51.91-360.85,75.74-11.14,11.73-79.69,83.08-59.62,145C1438.8,189,1566.07,206.86,1613.51,213.51Z"/>
              </g>
            </g>
          </g>
        </g>
      </g>
    </g>
  </g>
</svg>
