<svg id="Layer_1" data-name="Layer 1" xmlns="http://www.w3.org/2000/svg" viewBox="0 0 206.3 56.17"><defs><style>.cls-1{fill:#1b3ac2;}</style></defs><path class="cls-1" d="M54.42,32.45a14.36,14.36,0,0,1-.85,5.08,10.63,10.63,0,0,1-6.2,6.38,13.1,13.1,0,0,1-4.92.88,25.09,25.09,0,0,1-4.89-.51A22.44,22.44,0,0,1,33,42.89V11.19h6.51V25.74a7.82,7.82,0,0,1,2.8-1.88,9.59,9.59,0,0,1,3.55-.63,9.07,9.07,0,0,1,3.51.66,7.45,7.45,0,0,1,2.73,1.86,8.64,8.64,0,0,1,1.74,2.91A11.08,11.08,0,0,1,54.42,32.45ZM47.9,33.64a4.29,4.29,0,0,0-1-3,3.54,3.54,0,0,0-2.76-1.08,4.79,4.79,0,0,0-2,.39A4.52,4.52,0,0,0,40.68,31a4.61,4.61,0,0,0-.94,1.58,5.5,5.5,0,0,0-.31,1.86V38.2a5.84,5.84,0,0,0,1.54.58,9.46,9.46,0,0,0,1.78.13,5.07,5.07,0,0,0,3.78-1.39A5.32,5.32,0,0,0,47.9,33.64Z"/><path class="cls-1" d="M75.63,44.79c0-.22,0-.5,0-.83s-.06-.57-.08-.93,0-.74-.07-1.13a7.76,7.76,0,0,1-3.2,2.53,10.33,10.33,0,0,1-4.17.85,7.76,7.76,0,0,1-6.26-2.64c-1.49-1.77-2.24-4.28-2.24-7.55q0-5.93,3.6-9.14t10.26-3.21c.73,0,1.39,0,2,.05s1.19.09,1.79.17,1.21.19,1.84.32,1.32.31,2.08.54V37.74c0,.75,0,1.54,0,2.37s.08,1.6.15,2.28.13,1.62.2,2.4Zm-1-16a11.25,11.25,0,0,0-1.55-.25c-.47,0-.9,0-1.3,0a5.21,5.21,0,0,0-4.18,1.74,7.13,7.13,0,0,0-1.5,4.82,4.8,4.8,0,0,0,.9,3.14,3.11,3.11,0,0,0,2.54,1.08,4.44,4.44,0,0,0,2-.45,4.87,4.87,0,0,0,1.62-1.25,5.87,5.87,0,0,0,1.1-1.91,7.31,7.31,0,0,0,.4-2.47Z"/><path class="cls-1" d="M103.86,38.82a6.17,6.17,0,0,1-2.08,4.9,8.63,8.63,0,0,1-5.84,1.81A25,25,0,0,1,91,45a15.08,15.08,0,0,1-3.92-1.32l.83-5a16.76,16.76,0,0,0,7.45,2.2,2.14,2.14,0,0,0,1.55-.46,1.45,1.45,0,0,0,.46-1.06A1.85,1.85,0,0,0,97,38.2a5.62,5.62,0,0,0-1.78-1.15,29.06,29.06,0,0,1-3.46-1.76,11.37,11.37,0,0,1-2.35-1.84,6,6,0,0,1-1.32-2A6.73,6.73,0,0,1,87.64,29,5.53,5.53,0,0,1,90,24.19,10.4,10.4,0,0,1,96.2,22.5a19.22,19.22,0,0,1,3.65.32,16.72,16.72,0,0,1,3.66,1.25L102.73,29a11.44,11.44,0,0,0-3.37-1.35,14.88,14.88,0,0,0-3.22-.37,2.21,2.21,0,0,0-1.56.42,1.48,1.48,0,0,0-.42,1.1,1.62,1.62,0,0,0,.67,1.35,14.44,14.44,0,0,0,2.61,1.35,29.07,29.07,0,0,1,3,1.69,10.22,10.22,0,0,1,2,1.66,5.28,5.28,0,0,1,1.11,1.81A6.54,6.54,0,0,1,103.86,38.82Z"/><path class="cls-1" d="M123,32.05l10.44,12.74h-8.63l-8.13-10.63V44.79h-6.52V10.64h6.52v19.7l7.94-7.11h9.35Z"/><path class="cls-1" d="M155.41,29.16a5.48,5.48,0,0,1-.88,3,7.32,7.32,0,0,1-2.45,2.33A13.59,13.59,0,0,1,148.26,36a21.26,21.26,0,0,1-5,.54l-.59,0c-.23,0-.49,0-.8,0a4.52,4.52,0,0,0,1.47,2.92,4.68,4.68,0,0,0,3.17,1,14.49,14.49,0,0,0,7.22-2.2v5.14A14.47,14.47,0,0,1,150.19,45a14.94,14.94,0,0,1-3.85.46,12.67,12.67,0,0,1-4.43-.73,8.85,8.85,0,0,1-3.36-2.14,9.56,9.56,0,0,1-2.11-3.33,12.27,12.27,0,0,1-.73-4.38,13.47,13.47,0,0,1,.86-4.93,11.36,11.36,0,0,1,2.4-3.84,10.44,10.44,0,0,1,3.7-2.5,12.37,12.37,0,0,1,4.75-.89,9,9,0,0,1,5.81,1.77A5.74,5.74,0,0,1,155.41,29.16Zm-6.52.49a1.71,1.71,0,0,0-.67-1.34,2.55,2.55,0,0,0-1.7-.57,3.9,3.9,0,0,0-2.79,1.15,5.5,5.5,0,0,0-1.51,3.16,3.92,3.92,0,0,0,.78.1h.73Q148.89,32.15,148.89,29.65Z"/><path class="cls-1" d="M161.38,44.79V27.89h-4.31V23.23h4.31V17.79h6.42v5.44h5.54v4.66H167.8v16.9Z"/></svg>