<svg id="Layer_1" data-name="Layer 1" xmlns="http://www.w3.org/2000/svg" viewBox="0 0 206.3 56.17"><defs><style>.cls-1{fill:#1b3ac2;}</style></defs><path class="cls-1" d="M67.11,41.27V24.36H62.8V19.71h4.31V14.27h6.42v5.44h5.54v4.65H73.53V41.27Z"/><path class="cls-1" d="M97.73,25.73c-.45-.09-.81-.16-1.07-.19a6.11,6.11,0,0,0-.89-.05,5,5,0,0,0-4.23,1.91,9.32,9.32,0,0,0-1.45,5.69v8.18H83.57V27.11c0-.8,0-1.49,0-2.08s-.06-1.15-.12-1.66-.16-1-.27-1.51-.27-1.06-.47-1.7h6.19c.1.4.19.74.28,1a5.23,5.23,0,0,1,.17.8c0,.26.07.52.1.81a7.7,7.7,0,0,1,0,1,11,11,0,0,1,2.79-3.19,5.36,5.36,0,0,1,3.11-.93,4.66,4.66,0,0,1,1.15.12,13,13,0,0,1,1.3.48Z"/><path class="cls-1" d="M119.44,25.64a5.52,5.52,0,0,1-.87,3A7.27,7.27,0,0,1,116.11,31a13.48,13.48,0,0,1-3.82,1.5,21.76,21.76,0,0,1-5,.53c-.17,0-.37,0-.59,0s-.49,0-.79,0a4.49,4.49,0,0,0,1.47,2.91A4.65,4.65,0,0,0,110.56,37a14.46,14.46,0,0,0,7.21-2.2v5.14a14,14,0,0,1-3.55,1.55,14.86,14.86,0,0,1-3.84.46,12.73,12.73,0,0,1-4.44-.73A9,9,0,0,1,102.59,39a9.37,9.37,0,0,1-2.11-3.34,12.26,12.26,0,0,1-.74-4.38,13.68,13.68,0,0,1,.86-4.93,11.46,11.46,0,0,1,2.4-3.84,10.58,10.58,0,0,1,3.7-2.5,12.4,12.4,0,0,1,4.75-.88,8.93,8.93,0,0,1,5.81,1.76A5.77,5.77,0,0,1,119.44,25.64Zm-6.52.48a1.68,1.68,0,0,0-.67-1.34,2.52,2.52,0,0,0-1.69-.57,3.84,3.84,0,0,0-2.79,1.16,5.41,5.41,0,0,0-1.51,3.16,4.43,4.43,0,0,0,.78.09h.73Q112.92,28.62,112.92,26.12Z"/><path class="cls-1" d="M143.5,25.64a5.52,5.52,0,0,1-.87,3A7.27,7.27,0,0,1,140.17,31a13.48,13.48,0,0,1-3.82,1.5,21.76,21.76,0,0,1-5,.53c-.17,0-.37,0-.59,0s-.49,0-.79,0a4.49,4.49,0,0,0,1.47,2.91A4.65,4.65,0,0,0,134.62,37a14.48,14.48,0,0,0,7.21-2.2v5.14a14,14,0,0,1-3.55,1.55,14.86,14.86,0,0,1-3.84.46,12.69,12.69,0,0,1-4.44-.73A9.11,9.11,0,0,1,126.64,39a9.49,9.49,0,0,1-2.1-3.34,12.26,12.26,0,0,1-.74-4.38,13.68,13.68,0,0,1,.86-4.93,11.46,11.46,0,0,1,2.4-3.84,10.58,10.58,0,0,1,3.7-2.5,12.4,12.4,0,0,1,4.75-.88,8.93,8.93,0,0,1,5.81,1.76A5.77,5.77,0,0,1,143.5,25.64Zm-6.52.48a1.68,1.68,0,0,0-.67-1.34,2.52,2.52,0,0,0-1.69-.57,3.88,3.88,0,0,0-2.8,1.16,5.41,5.41,0,0,0-1.5,3.16,4.43,4.43,0,0,0,.78.09h.72Q137,28.62,137,26.12Z"/></svg>