<svg id="Layer_1" data-name="Layer 1" xmlns="http://www.w3.org/2000/svg" viewBox="0 0 325.4 360.85"><defs><style>.cls-1{fill:#f3eee9;}.cls-2,.cls-3,.cls-7,.cls-8{fill:none;}.cls-2,.cls-7{stroke:#32719f;}.cls-2,.cls-3,.cls-4,.cls-5,.cls-7,.cls-8{stroke-miterlimit:10;}.cls-2,.cls-3{stroke-width:7px;}.cls-3,.cls-8{stroke:#102e40;}.cls-3{stroke-dasharray:35;}.cls-4{fill:#3a3532;stroke:#28221b;}.cls-5{fill:#d57f45;stroke:#44311b;}.cls-6{fill:#f4eeea;}.cls-7,.cls-8{stroke-width:8px;}.cls-8{stroke-dasharray:34.55 34.55;}</style></defs><g id="label"><rect id="shadow" class="cls-1" x="41.9" y="285.28" width="241.3" height="70.03" rx="35.01"/><rect id="shadow-2" data-name="shadow" class="cls-2" x="41.9" y="285.28" width="241.3" height="70.03" rx="35.01"/><rect id="shadow-3" data-name="shadow" class="cls-3" x="41.9" y="285.28" width="241.3" height="70.03" rx="35.01"/></g><g id="_01" data-name="01"><g id="huck"><path class="cls-4" d="M89.05,294.62c0,3.71-2.38,5.33-5.53,5.33s-5.87-1.62-5.87-5.33,2.55-6.71,5.7-6.71S89.05,290.91,89.05,294.62Z"/><rect class="cls-5" x="79.37" y="246.03" width="7.95" height="50.56" rx="3.97"/></g><g id="huck-2" data-name="huck"><path class="cls-4" d="M250.47,294.62c0,3.71-2.39,5.33-5.54,5.33s-5.87-1.62-5.87-5.33,2.55-6.71,5.7-6.71S250.47,290.91,250.47,294.62Z"/><rect class="cls-5" x="240.79" y="246.03" width="7.95" height="50.56" rx="3.97"/></g></g><g id="label_board" data-name="label board"><path class="cls-6" d="M66.81,25.85H258.28a60.58,60.58,0,0,1,60.58,60.58V188.38A60.58,60.58,0,0,1,258.28,249H66.81A60.59,60.59,0,0,1,6.23,188.37V86.44A60.59,60.59,0,0,1,66.81,25.85Z"/><path class="cls-7" d="M66.81,25.85H258.28a60.58,60.58,0,0,1,60.58,60.58V188.38A60.58,60.58,0,0,1,258.28,249H66.81A60.59,60.59,0,0,1,6.23,188.37V86.44A60.59,60.59,0,0,1,66.81,25.85Z"/><path class="cls-8" d="M318.87,86.44V188.38A60.59,60.59,0,0,1,258.28,249H66.81A60.58,60.58,0,0,1,6.23,188.38V86.44A60.59,60.59,0,0,1,66.81,25.85H258.28a60.59,60.59,0,0,1,60.59,60.59Z"/></g><g id="_02" data-name="02"><g id="huck-3" data-name="huck"><path class="cls-4" d="M89.05,34.59c0,2.44-2.55,4.75-5.7,4.75s-5.7-2.31-5.7-4.75,2.55-4.41,5.7-4.41S89.05,32.16,89.05,34.59Z"/><rect class="cls-5" x="79.37" y="2.71" width="7.95" height="33.18" rx="3.97"/></g><g id="huck-4" data-name="huck"><path class="cls-4" d="M250.47,34.59c0,2.44-2.56,4.75-5.71,4.75s-5.7-2.31-5.7-4.75,2.55-4.41,5.7-4.41S250.47,32.16,250.47,34.59Z"/><rect class="cls-5" x="240.79" y="2.71" width="7.95" height="33.18" rx="3.97"/></g></g></svg>