<svg id="Layer_1" data-name="Layer 1" xmlns="http://www.w3.org/2000/svg" xmlns:xlink="http://www.w3.org/1999/xlink" viewBox="0 0 679.85 754.72"><defs><style>.cls-1{fill:none;}.cls-2{fill:#956334;}.cls-3{clip-path:url(#clip-path);}.cls-4{clip-path:url(#clip-path-2);}.cls-5{fill:#7c5029;}.cls-6{fill:#542b0e;opacity:0.2;}.cls-7{fill:#a26e3c;}.cls-14,.cls-16,.cls-21,.cls-8{fill:#77421b;}.cls-9{fill:#e5a44b;}.cls-10{fill:#a46427;}.cls-11{fill:#da9440;}.cls-12{fill:#b46e29;}.cls-13{fill:#985825;}.cls-14{opacity:0.32;}.cls-15{fill:#fff;opacity:0.3;}.cls-16{opacity:0.5;}.cls-17{fill:#81481e;}.cls-18{fill:#ab6c29;}.cls-19{clip-path:url(#clip-path-3);}.cls-20{fill:#552d12;}.cls-21{opacity:0.8;}.cls-22{fill:#d18839;}.cls-23{fill:#6d3a17;}.cls-24{clip-path:url(#clip-path-4);}</style><clipPath id="clip-path"><rect class="cls-1" x="-920.15" y="-93.72" width="1600" height="900"/></clipPath><clipPath id="clip-path-2"><path class="cls-2" d="M578.1,378.71l-407.9-5.87q1.44,72.17,2.92,146.28L600.65,569Q589.17,472.18,578.1,378.71Z"/></clipPath><clipPath id="clip-path-3"><polygon class="cls-1" points="386.74 446.12 279.44 420.24 291.18 577.12 402.24 629.03 386.74 446.12"/></clipPath><clipPath id="clip-path-4"><polygon class="cls-1" points="771.15 524.93 610.38 489.65 639.45 733.32 809.99 810.31 771.15 524.93"/></clipPath></defs><g class="cls-3"><path class="cls-2" d="M578.1,378.71l-407.9-5.87q1.44,72.17,2.92,146.28L600.65,569Q589.17,472.18,578.1,378.71Z"/><g class="cls-4"><path class="cls-5" d="M564.22,382.56l21.55,194.08-2.51-1q-11.19-98.86-22-194Z"/><path class="cls-5" d="M545.63,383.15l21,194.12-2.5-1q-10.95-98.88-21.49-194.07Z"/><path class="cls-5" d="M527.61,383.15l20.57,194.12-2.5-1q-10.71-98.88-21-194.07Z"/><path class="cls-5" d="M510.07,383.15l20.1,194.12-2.5-1q-10.47-98.88-20.54-194.07Z"/><path class="cls-5" d="M492.87,383.15l19.64,194.12-2.5-1q-10.22-98.88-20.07-194.07Z"/><path class="cls-5" d="M475.09,383.15l19.16,194.12-2.49-1q-10-98.88-19.6-194.07Z"/><path class="cls-5" d="M458.24,382.56l18.7,194.08-2.49-1q-9.75-98.86-19.14-194Z"/><path class="cls-5" d="M441.74,382.56,460,576.64l-2.48-1q-9.54-98.86-18.71-194Z"/><path class="cls-5" d="M372.86,378.25l16.4,193.85-2.47-1q-8.6-98.74-16.85-193.81Z"/><path class="cls-5" d="M354.85,379.57l15.92,193.92-2.47-1Q360,473.68,351.93,378.57Z"/><path class="cls-5" d="M337.49,379.57,353,573.49l-2.48-1q-8.1-98.78-15.89-193.88Z"/><path class="cls-5" d="M319.15,377.25l15,193.79-2.47-1q-7.84-98.72-15.4-193.75Z"/><path class="cls-5" d="M299.78,378.12,314.23,572l-2.47-1.05q-7.58-98.73-14.88-193.79Z"/><path class="cls-5" d="M281.79,375.18l14,193.68-2.46-1q-7.34-98.66-14.4-193.64Z"/><path class="cls-5" d="M264,375.18l13.48,193.68-2.46-1q-7.1-98.66-13.92-193.64Z"/><path class="cls-5" d="M247.13,375.18l13,193.68-2.46-1q-6.85-98.66-13.46-193.64Z"/><path class="cls-5" d="M230.76,375.18l12.59,193.68-2.45-1q-6.65-98.66-13-193.64Z"/><path class="cls-5" d="M213.56,374.12l12.13,193.62-2.45-1q-6.41-98.63-12.57-193.58Z"/><path class="cls-5" d="M194.46,375.18l11.62,193.68-2.45-1q-6.13-98.66-12.06-193.64Z"/><path class="cls-5" d="M176.9,374.12,188,567.74l-2.44-1Q179.69,468.07,174,373.12Z"/></g><polygon class="cls-6" points="578.96 386.02 170.65 380.14 171.42 392.51 580.84 401.83 578.96 386.02"/><polygon class="cls-7" points="578.1 378.71 170.2 372.84 170.97 385.19 579.97 394.49 578.1 378.71"/><path class="cls-8" d="M492.54,13.86,463.11,26.17l-19.3,8.08c24.5-10.07,32.29-10.24,34.74-8.36,2.79,2.14-.44,7.69-2.34,10.18-3.82,5-9.46,7-17,10.14-5.93,2.49-14.4,6.27-24.46,11.59L477.11,40Z"/><path class="cls-8" d="M386.79,61.63l22.06,7L387.53,57.8,350.65,73.14,301.26,93.89,358,74Z"/><path class="cls-8" d="M142.9,160,98.73,178.63l16.66-8.19,14.15-7.69Z"/><polygon class="cls-8" points="142.9 159.98 168.13 169.67 162.72 171.94 142.9 159.98"/><path class="cls-9" d="M117.59,170.53q8.82,161.8,18.18,333.88L161.45,516q-9.58-183.93-18.55-356Z"/><path class="cls-10" d="M142.9,160l18.95,10Q171.39,337.46,181.56,516H161.45Q151.87,332.06,142.9,160Z"/><path class="cls-11" d="M244.45,136.71Q206.2,194.1,167.12,252.77H149.8q.73-12.84,1.46-25.64l66.31-96.56,25.5-10.26Q243.76,128.5,244.45,136.71Z"/><path class="cls-12" d="M149.8,252.77l93.27-132.46q.69,8.19,1.38,16.4Q206.2,194.1,167.12,252.77Z"/><path class="cls-13" d="M134.49,221.82l9.53,2.6.71,35.35a4.94,4.94,0,0,0-2.22-3.95,8,8,0,0,0-3.46-1.1c-5.28-.68-11.55-.85-14.07-.9Z"/><path class="cls-12" d="M141.66,226.93,46.11,166.61l-25.59-.77-19,3.31L126,253.82l18.33-1.68Q143,239.51,141.66,226.93Z"/><path class="cls-11" d="M56,165.83H20.52l123.76,86.3q-1.32-12.63-2.62-25.21Z"/><path class="cls-14" d="M18.1,166.26,140.4,252.5l3.88-.36L20.52,165.84Z"/><polygon class="cls-14" points="125.95 253.82 1.54 169.15 5.06 168.54 128.77 253.57 125.95 253.82"/><polygon class="cls-14" points="135.03 252.77 79.6 214.43 133.19 252.77 135.03 252.77"/><polygon class="cls-14" points="14.02 166.97 74.91 213.65 11.64 167.39 14.02 166.97"/><polygon class="cls-15" points="144.28 252.14 20.52 165.84 51.42 185.92 144.18 250.46 144.28 252.14"/><polygon class="cls-15" points="141.66 226.93 56 165.83 141.98 230.07 141.66 226.93"/><polygon class="cls-12" points="138.54 235.38 81.38 196.24 134.25 234.44 138.54 235.38"/><polygon class="cls-12" points="81.61 200.59 37.62 168.54 58.29 184.53 81.61 200.59"/><polygon class="cls-12" points="91 194.95 55.06 169.67 81.95 190.24 91 194.95"/><path class="cls-8" d="M148,257.51,161.45,516l3.36,2.06q-2.76-64.62-6.92-129.54Q153.57,321.25,148,257.51Z"/><path class="cls-15" d="M148,257.51,161.45,516l-2.75-1.06Q153.21,383.16,148,257.51Z"/><polygon class="cls-15" points="166.72 255.51 166.77 317.65 171.27 390.06 174.94 389.82 166.72 255.51"/><polygon class="cls-8" points="149.8 252.77 166.73 263.02 167.12 252.77 149.8 252.77"/><polygon class="cls-15" points="217.57 130.57 151.26 227.13 151.05 230.68 217.57 130.57"/><polygon class="cls-12" points="185.67 194.43 153.94 235.38 178.43 201.88 185.67 194.43"/><polygon class="cls-15" points="121.64 253.82 135.77 504.41 141.09 506.81 121.64 253.82"/><path class="cls-15" d="M142.9,160l-21,11.18Q120.87,191,119.8,211q-1.11-20.31-2.21-40.47Z"/><path class="cls-16" d="M163.82,206.75c-.23,0-.8-8.79-3.54-20.75-1.56-6.76-3.41-14.84-5.61-14.89-1.86,0-3.19,5.67-4.34,10.74a92.17,92.17,0,0,0-2.46,19.34c.11,10.8-.18,25.12-.58,43.09q-2.21-42.5-4.39-84.3l19.82,12C163.93,200.14,164,206.75,163.82,206.75Z"/><path class="cls-12" d="M138.42,170.13l3.53,43q-2.26-15-4.52-30Z"/><path class="cls-16" d="M155.72,178.45l2.92,35.88q-1.77-12.56-3.52-25.05Z"/><path class="cls-12" d="M141,268.23l7.68,113.34q-3.76-40-7.47-79.38Q141.1,285.16,141,268.23Z"/><path class="cls-16" d="M156.78,252.77l7.92,112.85q-3.84-39.81-7.63-79Q156.92,269.63,156.78,252.77Z"/><path class="cls-12" d="M132.44,259.77l7.13,113.07q-3.13-39.88-6.24-79.19Q132.88,276.65,132.44,259.77Z"/><path class="cls-12" d="M131.68,171l3.74,50.87q-2.11-17.82-4.22-35.53Z"/><polygon class="cls-12" points="139.11 393.96 143.53 455.55 138.78 411.04 139.11 393.96"/><polygon class="cls-12" points="145.68 378.35 155.05 499.65 144.24 395.86 145.68 378.35"/><polygon class="cls-15" points="243.07 120.31 149.8 252.77 150.03 248.7 240.81 121.22 243.07 120.31"/><polygon class="cls-12" points="232.72 124.34 179.45 197.35 227.74 126.78 232.72 124.34"/><polygon class="cls-13" points="234.01 142.03 168.38 238.94 207.87 184.53 234.01 142.03"/><path class="cls-11" d="M400.88,478.33q-1.78-18.49-3.61-36.82L183.79,392.75,158.13,391q3.39,62.76,6.88,127.13L415.17,635Q408.36,555.77,400.88,478.33Z"/><path class="cls-10" d="M248,421.8l8.85,131.14-1.72-.75L246,421.06Z"/><path class="cls-15" d="M249.85,422.27q4.14,64.78,8.38,131.25l-1.36-.58Q252.39,486.5,248,421.8Z"/><path class="cls-10" d="M232.48,415.69,241,545.93l-1.7-.74q-4.47-66-8.82-130.24Z"/><path class="cls-15" d="M234.29,416.15q4,64.34,8,130.35l-1.35-.57q-4.31-66-8.49-130.24Z"/><path class="cls-10" d="M216.28,413.24,224.4,542.7l-1.68-.74q-4.28-65.58-8.44-129.45Z"/><path class="cls-15" d="M218.07,413.7q3.78,64,7.67,129.56l-1.34-.56q-4.11-65.58-8.12-129.46Z"/><path class="cls-10" d="M199.55,407.44,207.3,536l-1.66-.73q-4.08-65.1-8.06-128.52Z"/><path class="cls-15" d="M201.32,407.89q3.6,63.5,7.3,128.63L207.3,536q-3.93-65.1-7.75-128.52Z"/><path class="cls-10" d="M183,401.23l7.38,127.58-1.64-.72q-3.9-64.62-7.69-127.58Z"/><path class="cls-15" d="M184.75,401.67q3.42,63,6.93,127.69l-1.3-.55q-3.74-64.62-7.38-127.58Z"/><path class="cls-17" d="M414.94,635,402.24,629q-8.1-95.52-15.9-187.56h10.71Z"/><path class="cls-8" d="M174.94,389.82l-17,1.11,228.8,55.19,26.88-1.39Z"/><path class="cls-10" d="M279.44,420.24l11.74,156.88-3.74-1.74q-5.9-79.23-11.6-156Z"/><path class="cls-10" d="M276.56,429.1,158.37,398.87c-.08-1.45-.15-2.91-.23-4.36l118,28.61Z"/><polygon class="cls-9" points="276.44 427.57 158.04 398.29 157.94 390.93 275.84 419.37 276.44 427.57"/><path class="cls-10" d="M260.86,424.82q5.64,70.76,11.44,143.58l13.21,6.19L274.68,428.43Z"/><polygon class="cls-9" points="263.11 425.66 273.46 568.84 287.44 575.38 276.56 429.1 263.11 425.66"/><path class="cls-10" d="M287.4,574.83l-122.62-57.3c-.12-2.19-.23-4.38-.35-6.56l122.33,55.3C287,569.12,287.19,572,287.4,574.83Z"/><path class="cls-9" d="M287.44,575.38,164.81,518.05l-.36-6.45,122.39,55.75Z"/><path class="cls-18" d="M159.46,399.62l6.08,112.16,9.24,4.18q-2.58-57.5-5.11-113.72Z"/><path class="cls-9" d="M158.37,398.87,164.43,511l9.23,4.17q-2.57-57.47-5.09-113.66Z"/><g class="cls-19"><path class="cls-10" d="M365.85,438.81,381.7,623.58l-1.9-1q-8.24-94.08-16.18-184.73Z"/><path class="cls-15" d="M367.83,439.43q7.55,90.78,15.37,184.94l-1.5-.79q-8.07-94.1-15.85-184.77Z"/><path class="cls-10" d="M348.92,430.61,364.2,614l-1.87-1q-7.95-93.34-15.61-183.31Z"/><path class="cls-15" d="M350.88,431.21q7.26,90.1,14.8,183.53L364.2,614q-7.79-93.36-15.28-183.35Z"/><path class="cls-10" d="M331.47,427.55l14.71,182.17-1.85-1q-7.65-92.73-15-182.14Z"/><path class="cls-15" d="M333.41,428.15q7,89.53,14.23,182.35l-1.46-.78Q338.7,517,331.47,427.55Z"/><path class="cls-10" d="M313.32,419.82l14.11,180.71-1.83-1q-7.34-92-14.43-180.68Z"/><path class="cls-15" d="M315.23,420.41q6.7,88.83,13.64,180.88l-1.44-.76q-7.19-92-14.11-180.71Z"/><path class="cls-10" d="M295.35,411.52l13.52,179.24-1.79-1q-7.05-91.21-13.84-179.2Z"/><path class="cls-15" d="M297.24,412.1q6.42,88.13,13.06,179.42l-1.43-.76Q302,499.53,295.35,411.52Z"/></g><polygon class="cls-6" points="263.11 425.66 272.19 559.9 266.65 557.38 259.38 424.71 263.11 425.66"/><path class="cls-6" d="M263.11,425.66l-94.54-24.18.45,1.87,94.3,23.53Z"/><path class="cls-6" d="M258.67,553.57,169.88,406.85l-1.31-5.37c.14,3.17.28,6.33.43,9.5Q210.18,479.53,254,552.37Z"/><path class="cls-10" d="M184.66,405.32q42.08,70.55,86.82,145.62.34,4.47.71,9l-13.52-6.33L171.41,407l-1.31-5.38Z"/><polygon class="cls-9" points="183.12 405.2 270.97 551.64 271.59 559.41 258.67 553.57 169.88 406.85 168.57 401.48 183.12 405.2"/><polygon class="cls-15" points="168.57 401.48 181.07 404.68 181.07 404.68 183.12 405.2 270.97 551.64 271.16 554.35 182.01 406.24 168.57 401.48"/><path class="cls-20" d="M275.84,419.37l20.91-1.77,4.87,1.24-22.18,1.4,11.74,156.88-3.74-1.74Z"/><path class="cls-20" d="M315.5,422a.23.23,0,0,1,.15.07c.15.28-3.67.78-8.08,1.34L298,424.63l-3.65-.88Z"/><path class="cls-20" d="M333.45,426.35c.06,0,.13,0,.15.07.15.29-3.71.78-8.17,1.34l-9.7,1.21-3.7-.89Z"/><path class="cls-20" d="M351.42,430.65c.07,0,.14,0,.16.08.15.28-3.76.77-8.27,1.33l-9.81,1.21-3.74-.9Z"/><path class="cls-20" d="M369.28,434.89a.35.35,0,0,1,.15.08c.15.29-3.8.77-8.36,1.33l-9.92,1.2-3.79-.91Z"/><path class="cls-20" d="M385.86,438.88c.06,0,.14,0,.16.08.15.29-3.84.77-8.45,1.33l-10,1.19-3.83-.92Z"/><polygon class="cls-15" points="276.39 426.77 275.84 419.37 157.94 390.93 274.05 419.83 276.39 426.77"/><polygon class="cls-15" points="276.56 429.1 263.11 425.66 272.19 559.9 264.86 426.65 276.56 429.1"/><polygon class="cls-15" points="286.84 567.35 164.45 511.6 164.81 518.05 165.62 513.21 286.84 567.35"/><path class="cls-15" d="M386.74,446.12l-107.3-25.88,11.74,156.88,4.82,2.53q-6.83-79.2-13.45-156.19Z"/><path class="cls-13" d="M386.79,61.63l22.06,7q26,273.2,54.81,576.74H439.6Q411.76,337.53,386.79,61.63Z"/><path class="cls-11" d="M358,74q22.39,264.06,47.19,556.41l34.43,15Q411.76,337.53,386.79,61.63Z"/><polygon class="cls-12" points="375.49 88.09 381.64 144.58 375.7 103.77 375.49 88.09"/><polygon class="cls-15" points="386.79 61.63 439.6 645.4 434.3 643.09 386.79 61.63"/><path class="cls-16" d="M386.79,61.63l22.06,7q3.11,32.6,6.24,65.6c-.74-4.73-1.81-12.08-2.87-21.07-3.14-26.78-2.94-41.45-11.31-43.79a9.08,9.08,0,0,0-4.69,0c-5.8,1.84-4.31,11.6-3.76,15.42,1.8,12.63,4.33,37.7,7.72,72.12.95,17.66,1.86,37.74.94,37.73-.74,0-2.44-13.3-4.23-28.66C394,141.47,390.31,106.45,386.79,61.63Z"/><polygon class="cls-20" points="401.12 194.64 439.6 645.4 446.69 646.3 428.83 449.81 401.12 194.64"/><path class="cls-15" d="M358,74l5.32,62.63q-1.47-31.16-2.9-61.93l26.39-13.06Z"/><path class="cls-15" d="M367.68,197.14l17.1,193.34q-6.22-98.33-12.22-193.14Z"/><polygon class="cls-12" points="380.36 75.13 388.34 144.58 376.5 69.69 380.36 75.13"/><polygon class="cls-12" points="386.33 257.46 392.73 316.75 386.58 273.91 386.33 257.46"/><polygon class="cls-8" points="427.4 381.95 434.26 443.34 427.75 398.97 427.4 381.95"/><polygon class="cls-12" points="408.11 445.63 414.87 508.11 408.42 462.96 408.11 445.63"/><path class="cls-16" d="M403.86,84.25,409,136.62q-2.86-20.18-5.73-40.2Q403.57,90.33,403.86,84.25Z"/><polygon class="cls-12" points="390.37 222.61 405.5 359.19 389.83 242.28 390.37 222.61"/><polygon class="cls-12" points="400.7 473.95 416.59 620.51 400.17 495.06 400.7 473.95"/><polygon class="cls-8" points="416.74 232.22 432.4 369.17 416.26 251.95 416.74 232.22"/><polygon class="cls-12" points="389.69 325.69 405.53 495.62 395.53 358.2 389.69 325.69"/><path class="cls-21" d="M410.17,204.9a69.89,69.89,0,0,0-9.05-10.26l19.9,2.05q1.44,15.23,2.9,30.55S415.74,212.67,410.17,204.9Z"/><path class="cls-15" d="M421,196.69l23.74,249.8a823.52,823.52,0,0,1-11.48-85.58c-1.77-22.37-1.8-35.51-5.26-64.81-2.33-19.75-3.76-26-5.27-41.86A435.32,435.32,0,0,1,421,196.69Z"/><path class="cls-22" d="M532.86,24.94,421,196.69l-19.9-2.05q-.47-18.93-.94-37.73L492.89,16l37-14.85Q531.36,13,532.86,24.94Z"/><path class="cls-12" d="M401.12,194.64,529.84,1.19q1.51,11.85,3,23.75L421,196.69Z"/><polygon class="cls-16" points="532.26 19.81 532.87 24.94 421.02 196.69 414.87 196.05 532.26 19.81"/><polygon class="cls-15" points="529.84 1.19 401.12 194.64 401.38 183.5 529.84 1.19"/><polygon class="cls-15" points="492.89 16.04 400.18 156.91 500.25 13.08 492.89 16.04"/><polygon class="cls-12" points="483.64 56.07 413 156.91 476.84 59.43 483.64 56.07"/><polygon class="cls-21" points="271.47 73.36 259.34 57.8 129.53 57.8 178.07 66.45 199.37 61.65 254.44 61.63 271.47 73.36"/><path class="cls-13" d="M370.17,141.36,393,154.16l5.91,56c-1.44-9.28-4.9-12.21-7.87-13.13-2.81-.87-5.11.07-13.3.28-4.28.11-7.8-.05-10.08-.19Q368.92,169.11,370.17,141.36Z"/><path class="cls-12" d="M390.74,155.53,239.12,62.84l-39.75-1.19-23.19,3.57,191.5,131.92,28.54-2.61Q393.48,175,390.74,155.53Z"/><path class="cls-22" d="M254.44,61.63l-55.07,0L396.22,194.53q-2.75-19.58-5.48-39Z"/><polygon class="cls-14" points="176.18 65.22 367.68 197.14 377.76 197.33 176.18 65.22"/><polygon class="cls-14" points="396.22 194.53 199.37 61.65 391.65 194.95 396.22 194.53"/><polygon class="cls-15" points="254.44 61.63 390.74 155.53 355.38 135.32 254.44 61.63"/><path class="cls-12" d="M393.05,169.36c-81.62-51.24-122.16-76.44-122.5-76.15S311,119.89,394,173C393.68,171.79,393.37,170.58,393.05,169.36Z"/><polygon class="cls-12" points="318.24 130.65 222.58 69.7 316.58 132.37 318.24 130.65"/><polygon class="cls-15" points="394.35 193.27 199.37 61.65 206.3 61.93 394.35 193.27"/><path class="cls-22" d="M794.84,574.13q-4.25-28.56-8.5-56.78L467.15,451.51l-38-1.65q8.76,96.4,17.87,196.52L829.92,819.24Q812.67,694.31,794.84,574.13Z"/><path class="cls-10" d="M564,493.41,586.4,696.85l-2.63-1.1q-11.64-103.69-22.83-203.4Z"/><path class="cls-15" d="M566.77,494.05q10.63,99.87,21.71,203.65l-2.08-.85Q575,593.16,564,493.41Z"/><path class="cls-10" d="M540.61,484.66l21.55,201.91-2.6-1.1q-11.2-102.88-22-201.85Z"/><path class="cls-15" d="M543.32,485.3q10.24,99.12,20.89,202.11l-2.05-.84q-11-102.92-21.55-201.91Z"/><path class="cls-10" d="M516.49,481.59,537.2,682.23l-2.56-1.08q-10.78-102.24-21.16-200.6Z"/><path class="cls-15" d="M519.17,482.22q9.84,98.52,20.06,200.84l-2-.83Q526.66,580,516.49,481.59Z"/><path class="cls-10" d="M491.37,473.38l19.85,199-2.53-1.07q-10.33-101.42-20.29-199Z"/><path class="cls-15" d="M494,474q9.42,97.74,19.2,199.25l-2-.82q-10.11-101.43-19.85-199Z"/><path class="cls-10" d="M466.51,464.54l19,197.45-2.5-1q-9.9-100.59-19.43-197.41Z"/><path class="cls-15" d="M469.12,465.15q9,97,18.36,197.65l-2-.81q-9.69-100.59-19-197.45Z"/><path class="cls-23" d="M444.76,446.49l-15.93,3.31,342.32,75.13,39.65-3.31Z"/><path class="cls-10" d="M610.39,489.65l29.06,243.67-5.73-2.56Q619,606.79,605,488.47Z"/><path class="cls-10" d="M606.77,503.42,429.94,462l-.6-6.69,176.34,38.94C606,497.29,606.41,500.36,606.77,503.42Z"/><polygon class="cls-11" points="606.49 501.06 429.42 461.1 428.83 449.81 605 488.46 606.49 501.06"/><path class="cls-10" d="M583.23,497.5q13.38,109.1,27.35,223l20.2,9.14L603.94,502.46Z"/><polygon class="cls-11" points="586.62 498.7 612.34 721.09 633.73 730.76 606.77 503.42 586.62 498.7"/><path class="cls-10" d="M633.62,729.89l-187-84.4-.93-10.23L632,716.46Z"/><path class="cls-11" d="M633.72,730.76l-187-84.46q-.46-5-.94-10l186.48,81.9Q633,724.45,633.72,730.76Z"/><path class="cls-18" d="M431.6,463.09l15.79,173.39,14,6.12L446.85,466.66Z"/><path class="cls-11" d="M429.94,462l15.75,173.28,14,6.11Q452.33,552,445.18,465.55Z"/><g class="cls-24"><path class="cls-10" d="M660.45,487.55,695.51,768.6l-2.81-1.5q-18.23-144.26-35.5-280.94Z"/><path class="cls-15" d="M663.32,488.38q16.75,137,34.41,281.37l-2.22-1.15q-18-144.3-35.06-281Z"/><path class="cls-10" d="M633.28,475.56,667,754l-2.77-1.47q-17.52-142.9-34.12-278.36Z"/><path class="cls-15" d="M636.11,476.38q16.08,135.72,33,278.77L667,754q-17.29-142.93-33.69-278.46Z"/></g><polygon class="cls-6" points="586.62 498.7 609.78 707.1 601.32 703.38 581.03 497.39 586.62 498.7"/><path class="cls-6" d="M586.62,498.7,445.18,465.55c.26.95.52,1.9.79,2.85l141,32.17C586.89,500,586.75,499.32,586.62,498.7Z"/><path class="cls-6" d="M589.13,697.77l-141.69-224-2.26-8.2q.6,7.29,1.21,14.59L582,696.09Z"/><path class="cls-10" d="M469.22,470.76q66.81,107,138.85,222.3l1.71,14-20.65-9.33L449.71,473.86l-2.26-8.2Z"/><polygon class="cls-11" points="466.93 470.65 607.36 694.18 608.85 706.36 589.13 697.77 447.44 473.75 445.18 465.55 466.93 470.65"/><polygon class="cls-15" points="445.18 465.55 463.87 469.93 463.87 469.93 466.93 470.65 607.36 694.18 607.85 698.43 465.35 472.28 445.18 465.55"/><path class="cls-20" d="M605,488.47l30.79-3.61,7.29,1.69-32.69,3.1,29.06,243.67-5.73-2.56Z"/><path class="cls-20" d="M663.85,490.83c.09,0,.19.05.22.1.24.43-5.37,1.35-11.84,2.41l-14.09,2.28-5.47-1.2Z"/><path class="cls-20" d="M690.72,496.74a.41.41,0,0,1,.23.11c.24.43-5.44,1.35-12,2.4l-14.26,2.29-5.53-1.22Z"/><polygon class="cls-15" points="606.34 499.84 605 488.46 428.83 449.81 602.39 489.25 606.34 499.84"/><polygon class="cls-15" points="606.77 503.42 586.62 498.7 609.78 707.1 589.28 500.15 606.77 503.42"/><polygon class="cls-15" points="632.23 718.15 445.75 636.25 446.69 646.3 447.6 638.71 632.23 718.15"/><path class="cls-11" d="M116.32,380C46.5,365.42,89.13,374.6,25.89,361.4L1.83,359.45q2,47.06,4,95.32c72.83,29.28,31.46,12.81,113.86,45.94C116.46,461,117.22,389.17,116.32,380Z"/><path class="cls-10" d="M85.63,384.69l5.79,98.37-1.6-.61q-3.09-49.83-6.1-98.37Z"/><path class="cls-15" d="M87.34,385.09q2.64,48.57,5.35,98.43l-1.27-.46q-2.92-49.83-5.79-98.37Z"/><path class="cls-10" d="M71.15,379.74l5.48,97.69-1.58-.6q-2.92-49.49-5.78-97.69Z"/><path class="cls-15" d="M72.85,380.13q2.48,48.26,5,97.76l-1.26-.46q-2.77-49.49-5.48-97.69Z"/><path class="cls-10" d="M56,377.52l5.15,97.09-1.56-.6q-2.76-49.17-5.45-97.09Z"/><path class="cls-15" d="M57.67,377.91l4.71,97.15-1.24-.45Q58.53,425.42,56,377.52Z"/><path class="cls-10" d="M40.4,372.77l4.81,96.38-1.54-.58q-2.6-48.82-5.11-96.39Z"/><path class="cls-15" d="M42.05,373.15q2.18,47.61,4.39,96.45l-1.23-.45q-2.43-48.81-4.81-96.38Z"/><path class="cls-10" d="M25,367.73l4.48,95.67-1.53-.58q-2.42-48.46-4.77-95.68Z"/><path class="cls-15" d="M26.62,368.1q2,47.26,4.06,95.74l-1.21-.44Q27.19,415,25,367.73Z"/><path class="cls-8" d="M17.63,359l-16,.43c67.48,14.77,33.83,8.11,108.93,24.56,8.38-.13,10.18-1.35,18.64-1.49C55.71,367.06,92.8,374.78,17.63,359Z"/><path class="cls-10" d="M115.15,384.27l4.56,116.44c-1.16-.47,1.14.34,0-.12q-4-59.44-7.9-117.06Z"/><path class="cls-10" d="M112.28,390.84,1.9,365.37c0-1.09-.08-2.18-.13-3.27L112,386.35Z"/><polygon class="cls-9" points="112.2 389.69 1.6 364.93 1.65 359.42 111.79 383.53 112.2 389.69"/><path class="cls-10" d="M97.62,387.26q3.94,53.08,8,107.74L117.9,500l-7.37-109.66Z"/><polygon class="cls-9" points="99.72 387.94 106.7 495.35 119.69 500.59 112.28 390.84 99.72 387.94"/><path class="cls-10" d="M119.66,500.17l-114-45.83c-.07-1.64-.14-3.28-.2-4.92l113.78,44.33C119.37,495.89,119.52,498,119.66,500.17Z"/><path class="cls-9" d="M119.69,500.59l-114-45.86c-.07-1.61-.15-3.22-.22-4.83l113.84,44.66C119.42,496.57,119.56,498.58,119.69,500.59Z"/><path class="cls-18" d="M2.91,366l3.56,84.1,8.6,3.35q-1.32-43.11-2.62-85.25Z"/><path class="cls-9" d="M1.9,365.37l3.55,84.05L14,452.76q-1.3-43.06-2.6-85.19Z"/><polygon class="cls-6" points="99.72 387.94 105.67 488.63 100.52 486.61 96.23 387.13 99.72 387.94"/><path class="cls-6" d="M99.72,387.94,11.43,367.57l.39,1.41,88.07,19.88C99.84,388.55,99.78,388.25,99.72,387.94Z"/><path class="cls-6" d="M93.1,483.57,12.55,371.62l-1.12-4.05c.07,2.37.15,4.75.22,7.12l77,107.87Z"/><path class="cls-10" d="M26.47,370.83q38.13,53.82,78.71,111.08c.16,2.24.33,4.48.49,6.72L93.1,483.57,14,371.74l-1.13-4.05Z"/><polygon class="cls-9" points="25.02 370.71 104.68 482.42 105.12 488.25 93.1 483.57 12.55 371.62 11.43 367.57 25.02 370.71"/><polygon class="cls-15" points="11.43 367.57 23.11 370.26 23.11 370.26 25.02 370.71 104.68 482.42 104.81 484.45 23.96 371.45 11.43 367.57"/><path class="cls-20" d="M111.79,383.53c6.52-.27,10.85-.76,17.43-1l5.1,117.5-14.63.6Z"/><polygon class="cls-15" points="112.16 389.09 111.79 383.53 1.65 359.42 110.11 383.83 112.16 389.09"/><polygon class="cls-15" points="112.28 390.84 99.72 387.94 105.67 488.63 101.34 388.72 112.28 390.84"/><polygon class="cls-15" points="119.28 494.56 5.45 449.89 5.67 454.73 6.52 451.13 119.28 494.56"/></g></svg>