<svg id="Layer_1" data-name="Layer 1" xmlns="http://www.w3.org/2000/svg" xmlns:xlink="http://www.w3.org/1999/xlink" viewBox="0 0 1600 900"><defs><style>.cls-1{fill:none;}.cls-2{clip-path:url(#clip-path);}.cls-3{fill:url(#radial-gradient);}.cls-4{opacity:0.03;}.cls-5{fill:#fff;}</style><clipPath id="clip-path"><rect class="cls-1" width="1600" height="900"/></clipPath><radialGradient id="radial-gradient" cx="927.17" cy="402.48" r="577.32" gradientUnits="userSpaceOnUse"><stop offset="0" stop-color="#b420d3"/><stop offset="0.92" stop-color="#3402ad"/></radialGradient></defs><g id="SC_29"><g class="cls-2"><g id="BG_1" data-name="BG 1"><rect class="cls-3" x="-0.27" width="1600" height="900"/><g id="BG_texture" data-name="BG texture" class="cls-4"><polygon class="cls-5" points="100.35 548.87 111.72 555.93 108.77 542.47 118.72 533.36 105.54 532.13 100.31 519.44 95.12 532.14 81.93 533.41 91.91 542.49 88.98 555.96 100.35 548.87"/><path class="cls-5" d="M29.36,528.84l16.17,10-4.2-19.14L55.48,506.8l-18.74-1.75-7.43-18-7.39,18.05-18.73,1.8,14.17,12.9-4.15,19.15ZM14.77,510.78l10.44-1,4.11-10.06,4.14,10,10.44,1L36,518l2.34,10.66-9-5.59-9,5.61L22.67,518Z"/><polygon class="cls-5" points="100.51 688.37 95.31 701.07 82.13 702.34 92.1 711.42 89.18 724.89 100.54 717.8 111.92 724.86 108.97 711.4 118.92 702.29 105.73 701.06 100.51 688.37"/><path class="cls-5" d="M29.5,648.88l16.17,10-4.2-19.14,14.14-12.94-18.74-1.75-7.42-18-7.39,18.06L3.33,626.9,17.5,639.81,13.35,659ZM14.91,630.82l10.44-1,4.11-10.06,4.14,10,10.44,1L36.16,638l2.34,10.66-9-5.59-9,5.61L22.81,638Z"/><path class="cls-5" d="M111.52,611.74l-10.46-25.39L90.67,611.76,64.3,614.29l20,18.16L78.41,659.4l22.72-14.19,22.76,14.13L118,632.41l19.91-18.21Zm-1,18.15,3.29,15L101.12,637l-12.65,7.9,3.25-15L80.61,619.79l14.69-1.4,5.79-14.15,5.82,14.13,14.68,1.37Z"/><polygon class="cls-5" points="28.94 580.42 37.02 585.44 34.92 575.87 42 569.4 32.63 568.52 28.91 559.51 25.22 568.53 15.85 569.43 22.94 575.89 20.86 585.46 28.94 580.42"/><polygon class="cls-5" points="108.57 373.54 118.53 364.44 105.34 363.2 100.12 350.51 94.92 363.22 81.74 364.48 91.71 373.56 88.79 387.04 100.15 379.94 111.53 387.01 108.57 373.54"/><path class="cls-5" d="M29.22,408.81l16.17,10-4.2-19.13,14.15-12.95L36.6,385l-7.43-18-7.39,18-18.73,1.8,14.17,12.91-4.15,19.14ZM14.64,390.74l10.43-1,4.11-10.05,4.14,10,10.44,1-7.88,7.2,2.34,10.66-9-5.59-9,5.61,2.31-10.66Z"/><path class="cls-5" d="M123.69,490.41l-5.91-26.93,19.91-18.21-26.37-2.46-10.45-25.38-10.39,25.4-26.37,2.53,20,18.17-5.85,26.94,22.73-14.18ZM91.53,461,80.42,450.87l14.68-1.41,5.79-14.15,5.82,14.13,14.69,1.38L110.31,461l3.29,15-12.67-7.87L88.27,476Z"/><polygon class="cls-5" points="28.8 460.38 36.88 465.4 34.78 455.83 41.86 449.36 32.49 448.49 28.77 439.47 25.08 448.5 15.71 449.39 22.8 455.85 20.73 465.42 28.8 460.38"/><path class="cls-5" d="M29.73,847.13l-7.39,18L3.61,867l14.17,12.91L13.63,899,29.78,889l16.16,10-4.19-19.13,14.14-13-18.74-1.75Zm14.59,23.72-7.88,7.21,2.33,10.66-9-5.59-9,5.61,2.31-10.66-7.9-7.19,10.44-1,4.11-10,4.14,10Z"/><polygon class="cls-5" points="100.7 857.29 95.51 870 82.32 871.26 92.3 880.35 89.38 893.82 100.74 886.73 112.12 893.79 109.16 880.32 119.12 871.22 105.93 869.99 100.7 857.29"/><path class="cls-5" d="M41.61,759.82l14.14-12.94L37,745.13l-7.42-18L22.2,745.15,3.47,746.94l14.17,12.91L13.49,779l16.15-10.08,16.17,10Zm-12,3.27-9,5.62L23,758l-7.9-7.19,10.44-1L29.6,739.8l4.14,10,10.44,1L36.3,758l2.34,10.65Z"/><polygon class="cls-5" points="29.19 799.58 25.5 808.61 16.13 809.51 23.22 815.96 21.14 825.53 29.22 820.49 37.3 825.51 35.2 815.95 42.28 809.47 32.91 808.6 29.19 799.58"/><path class="cls-5" d="M101.26,755.28,90.87,780.69,64.5,783.22l20,18.16-5.84,26.94,22.72-14.18,22.75,14.13-5.9-26.93,19.91-18.22-26.38-2.46Zm20.53,33.39L110.7,798.81l3.29,15-12.67-7.87-12.66,7.9,3.26-15L80.81,788.72l14.68-1.41,5.79-14.15,5.82,14.14Z"/><polygon class="cls-5" points="29.08 700.46 37.16 705.48 35.06 695.91 42.14 689.44 32.77 688.56 29.05 679.54 25.36 688.57 15.99 689.47 23.08 695.92 21 705.5 29.08 700.46"/><polygon class="cls-5" points="95.06 194.53 81.88 195.79 91.86 204.87 88.93 218.34 100.29 211.25 111.67 218.31 108.72 204.85 118.67 195.74 105.48 194.51 100.26 181.82 95.06 194.53"/><path class="cls-5" d="M29.32,288.94l16.17,10-4.2-19.13,14.15-12.95L36.7,265.15l-7.43-18-7.38,18.05L3.15,267l14.18,12.91L13.17,299ZM14.74,270.87l10.43-1,4.12-10.05,4.13,10,10.44,1L36,278l2.34,10.66-9-5.59-9,5.61,2.31-10.66Z"/><path class="cls-5" d="M123.84,321.72l-5.91-26.93,19.91-18.21-26.38-2.46L101,248.73,90.62,274.14l-26.37,2.53,20,18.16-5.84,26.95,22.72-14.19ZM91.67,292.29,80.56,282.18l14.69-1.41L101,266.62l5.82,14.13,14.69,1.37-11.09,10.15,3.3,15-12.68-7.86-12.65,7.9Z"/><polygon class="cls-5" points="28.9 340.51 36.98 345.53 34.89 335.96 41.96 329.49 32.59 328.62 28.88 319.6 25.18 328.63 15.82 329.52 22.9 335.98 20.83 345.55 28.9 340.51"/><polygon class="cls-5" points="95.06 19.97 81.88 21.23 91.86 30.31 88.93 43.78 100.29 36.69 111.67 43.76 108.72 30.29 118.67 21.18 105.48 19.95 100.26 7.26 95.06 19.97"/><path class="cls-5" d="M29.32,164.9l16.17,10-4.2-19.13,14.15-12.94L36.7,141.11l-7.43-18-7.38,18.06L3.15,142.92l14.18,12.91L13.17,175ZM14.74,146.83l10.43-1,4.12-10.05,4.13,10,10.44,1L36,154l2.34,10.65-9-5.59-9,5.62L22.63,154Z"/><path class="cls-5" d="M123.84,147.16l-5.91-26.93L137.84,102l-26.38-2.46L101,74.17,90.62,99.58l-26.37,2.53,20,18.16-5.84,27L101.08,133ZM91.67,117.73,80.56,107.62l14.69-1.41L101,92.06l5.82,14.13,14.69,1.37-11.09,10.15,3.3,15-12.68-7.87-12.65,7.9Z"/><polygon class="cls-5" points="28.9 216.47 36.98 221.49 34.89 211.93 41.96 205.45 32.59 204.58 28.88 195.56 25.18 204.59 15.82 205.49 22.9 211.94 20.83 221.51 28.9 216.47"/><path class="cls-5" d="M29.32,40.86l16.17,10-4.2-19.14L55.44,18.82,36.7,17.07,29.27-1,21.89,17.09,3.15,18.88,17.33,31.79,13.17,50.94ZM14.74,22.8l10.43-1,4.12-10,4.13,10,10.44,1L36,30l2.34,10.65-9-5.59-9,5.62L22.63,30Z"/><polygon class="cls-5" points="28.9 92.44 36.98 97.45 34.89 87.89 41.96 81.41 32.59 80.54 28.88 71.52 25.18 80.55 15.82 81.45 22.9 87.9 20.83 97.47 28.9 92.44"/><polygon class="cls-5" points="241 548.87 252.37 555.93 249.42 542.47 259.38 533.36 246.19 532.13 240.96 519.44 235.77 532.14 222.58 533.41 232.56 542.49 229.64 555.96 241 548.87"/><path class="cls-5" d="M170,528.84l16.17,10L182,519.74l14.15-12.94-18.74-1.75L170,487l-7.39,18.05-18.73,1.8L158,519.77l-4.15,19.15Zm-14.58-18.06,10.43-1L170,499.72l4.14,10,10.44,1L176.67,518,179,528.61,170,523l-9,5.61L163.32,518Z"/><polygon class="cls-5" points="241.16 688.37 235.96 701.07 222.78 702.34 232.75 711.42 229.83 724.89 241.19 717.8 252.57 724.86 249.62 711.4 259.57 702.29 246.38 701.06 241.16 688.37"/><path class="cls-5" d="M170.15,648.88l16.17,10-4.2-19.14,14.15-12.94-18.74-1.75-7.43-18-7.39,18.06L144,626.9l14.17,12.91L154,659Zm-14.59-18.06,10.44-1,4.11-10.06,4.14,10,10.44,1L176.81,638l2.34,10.66-9-5.59-9,5.61L163.46,638Z"/><path class="cls-5" d="M252.17,611.74l-10.46-25.39-10.39,25.41L205,614.29l19.95,18.16-5.85,26.95,22.72-14.19,22.76,14.13-5.91-26.93,19.91-18.21Zm-1,18.15,3.29,15L241.77,637l-12.65,7.9,3.25-15-11.11-10.12,14.69-1.4,5.79-14.15,5.82,14.13,14.69,1.37Z"/><polygon class="cls-5" points="169.59 580.42 177.67 585.44 175.57 575.87 182.65 569.4 173.28 568.52 169.56 559.51 165.87 568.53 156.5 569.43 163.59 575.89 161.51 585.46 169.59 580.42"/><polygon class="cls-5" points="249.22 373.54 259.18 364.44 245.99 363.2 240.77 350.51 235.57 363.22 222.39 364.48 232.36 373.56 229.44 387.04 240.8 379.94 252.18 387.01 249.22 373.54"/><path class="cls-5" d="M169.87,408.81l16.17,10-4.2-19.13L196,386.76,177.25,385l-7.43-18-7.39,18-18.73,1.8,14.18,12.91-4.16,19.14Zm-14.58-18.07,10.43-1,4.11-10.05,4.14,10,10.44,1-7.88,7.2,2.34,10.66-9-5.59-9,5.61,2.31-10.66Z"/><path class="cls-5" d="M264.34,490.41l-5.9-26.93,19.9-18.21L252,442.81l-10.45-25.38-10.39,25.4-26.37,2.53,20,18.17-5.85,26.94,22.73-14.18ZM232.18,461l-11.11-10.11,14.68-1.41,5.79-14.15,5.82,14.13,14.69,1.38L251,461l3.29,15-12.67-7.87L228.92,476Z"/><polygon class="cls-5" points="169.45 460.38 177.53 465.4 175.44 455.83 182.51 449.36 173.14 448.49 169.42 439.47 165.73 448.5 156.36 449.39 163.45 455.85 161.38 465.42 169.45 460.38"/><path class="cls-5" d="M170.38,847.13l-7.39,18L144.26,867l14.17,12.91L154.28,899,170.43,889l16.17,10-4.2-19.13,14.14-13-18.74-1.75ZM185,870.85l-7.88,7.21,2.34,10.66-9-5.59-9,5.61,2.31-10.66-7.9-7.19,10.44-1,4.11-10,4.14,10Z"/><polygon class="cls-5" points="241.35 857.29 236.16 870 222.97 871.26 232.95 880.35 230.03 893.82 241.39 886.73 252.77 893.79 249.81 880.32 259.77 871.22 246.58 869.99 241.35 857.29"/><path class="cls-5" d="M182.26,759.82l14.14-12.94-18.74-1.75-7.42-18-7.39,18.06-18.73,1.79,14.17,12.91L154.14,779l16.15-10.08,16.17,10Zm-12,3.27-9,5.62L163.6,758l-7.9-7.19,10.44-1,4.11-10.05,4.14,10,10.44,1L177,758l2.34,10.65Z"/><polygon class="cls-5" points="169.84 799.58 166.15 808.61 156.78 809.51 163.87 815.96 161.79 825.53 169.87 820.49 177.95 825.51 175.85 815.95 182.93 809.47 173.56 808.6 169.84 799.58"/><path class="cls-5" d="M241.91,755.28l-10.39,25.41-26.37,2.53,19.95,18.16-5.84,26.94L242,814.14l22.75,14.13-5.9-26.93,19.91-18.22-26.38-2.46Zm20.53,33.39-11.09,10.14,3.29,15L242,805.94l-12.65,7.9,3.25-15-11.11-10.12,14.68-1.41,5.79-14.15,5.82,14.14Z"/><polygon class="cls-5" points="169.73 700.46 177.81 705.48 175.71 695.91 182.79 689.44 173.42 688.56 169.7 679.54 166.01 688.57 156.64 689.47 163.73 695.92 161.65 705.5 169.73 700.46"/><polygon class="cls-5" points="235.71 194.53 222.53 195.79 232.5 204.87 229.58 218.34 240.94 211.25 252.32 218.31 249.37 204.85 259.32 195.74 246.14 194.51 240.91 181.82 235.71 194.53"/><path class="cls-5" d="M170,288.94l16.17,10-4.2-19.13,14.15-12.95-18.74-1.74-7.43-18-7.38,18.05L143.8,267,158,279.87,153.82,299Zm-14.58-18.07,10.43-1,4.12-10.05,4.13,10,10.44,1-7.88,7.2L179,288.7l-9-5.59-9,5.61,2.31-10.66Z"/><path class="cls-5" d="M264.49,321.72l-5.91-26.93,19.91-18.21-26.38-2.46-10.45-25.39-10.39,25.41-26.37,2.53,19.95,18.16L219,321.78l22.72-14.19Zm-32.17-29.43-11.11-10.11,14.69-1.41,5.78-14.15,5.82,14.13,14.69,1.37-11.08,10.15,3.29,15-12.68-7.86-12.65,7.9Z"/><polygon class="cls-5" points="169.55 340.51 177.64 345.53 175.54 335.96 182.61 329.49 173.24 328.62 169.53 319.6 165.83 328.63 156.47 329.52 163.55 335.98 161.48 345.55 169.55 340.51"/><polygon class="cls-5" points="235.71 19.97 222.53 21.23 232.5 30.31 229.58 43.78 240.94 36.69 252.32 43.76 249.37 30.29 259.32 21.18 246.14 19.95 240.91 7.26 235.71 19.97"/><path class="cls-5" d="M170,164.9l16.17,10-4.2-19.13,14.15-12.94-18.74-1.75-7.43-18-7.38,18.06-18.74,1.79L158,155.83,153.82,175Zm-14.58-18.07,10.43-1,4.12-10.05,4.13,10,10.44,1L176.63,154,179,164.66l-9-5.59-9,5.62L163.28,154Z"/><path class="cls-5" d="M264.49,147.16l-5.91-26.93L278.49,102l-26.38-2.46L241.66,74.17,231.27,99.58l-26.37,2.53,19.95,18.16-5.84,27L241.73,133Zm-32.17-29.43-11.11-10.11,14.69-1.41,5.78-14.15,5.82,14.13,14.69,1.37-11.08,10.15,3.29,15-12.68-7.87-12.65,7.9Z"/><polygon class="cls-5" points="169.55 216.47 177.64 221.49 175.54 211.93 182.61 205.45 173.24 204.58 169.53 195.56 165.83 204.59 156.47 205.49 163.55 211.94 161.48 221.51 169.55 216.47"/><path class="cls-5" d="M170,40.86l16.17,10-4.2-19.14,14.15-12.94-18.74-1.75L169.92-1l-7.38,18.06L143.8,18.88,158,31.79l-4.16,19.15ZM155.39,22.8l10.43-1,4.12-10,4.13,10,10.44,1L176.63,30,179,40.62,170,35l-9,5.62L163.28,30Z"/><polygon class="cls-5" points="169.55 92.44 177.64 97.45 175.54 87.89 182.61 81.41 173.24 80.54 169.53 71.52 165.83 80.55 156.47 81.45 163.55 87.9 161.48 97.47 169.55 92.44"/><polygon class="cls-5" points="381.65 548.87 393.02 555.93 390.07 542.47 400.02 533.36 386.84 532.13 381.61 519.44 376.42 532.14 363.23 533.41 373.21 542.49 370.29 555.96 381.65 548.87"/><path class="cls-5" d="M310.66,528.84l16.17,10-4.2-19.14,14.15-12.94L318,505.05l-7.43-18-7.39,18.05-18.73,1.8,14.17,12.9-4.15,19.15Zm-14.58-18.06,10.43-1,4.11-10.06,4.14,10,10.44,1L317.32,518l2.34,10.66-9-5.59-9,5.61L304,518Z"/><polygon class="cls-5" points="381.81 688.37 376.61 701.07 363.43 702.34 373.4 711.42 370.48 724.89 381.84 717.8 393.22 724.86 390.27 711.4 400.22 702.29 387.04 701.06 381.81 688.37"/><path class="cls-5" d="M310.8,648.88l16.17,10-4.2-19.14,14.15-12.94-18.74-1.75-7.43-18-7.39,18.06-18.73,1.79,14.17,12.91L294.65,659Zm-14.58-18.06,10.43-1,4.11-10.06,4.14,10,10.44,1L317.46,638l2.34,10.66-9-5.59-9,5.61L304.11,638Z"/><path class="cls-5" d="M392.82,611.74l-10.45-25.39L372,611.76l-26.36,2.53,19.95,18.16-5.85,26.95,22.72-14.19,22.76,14.13-5.91-26.93,19.91-18.21Zm-1,18.15,3.29,15L382.42,637l-12.65,7.9,3.25-15-11.11-10.12,14.69-1.4,5.79-14.15,5.82,14.13,14.69,1.37Z"/><polygon class="cls-5" points="310.24 580.42 318.32 585.44 316.23 575.87 323.3 569.4 313.93 568.52 310.21 559.51 306.52 568.53 297.15 569.43 304.24 575.89 302.17 585.46 310.24 580.42"/><polygon class="cls-5" points="389.88 373.54 399.83 364.44 386.64 363.2 381.42 350.51 376.22 363.22 363.04 364.48 373.01 373.56 370.09 387.04 381.45 379.94 392.83 387.01 389.88 373.54"/><path class="cls-5" d="M310.52,408.81l16.17,10-4.2-19.13,14.15-12.95L317.9,385l-7.43-18-7.38,18-18.74,1.8,14.18,12.91-4.16,19.14Zm-14.58-18.07,10.43-1,4.11-10.05,4.14,10,10.44,1-7.88,7.2,2.34,10.66-9-5.59-9,5.61,2.31-10.66Z"/><path class="cls-5" d="M405,490.41l-5.9-26.93L419,445.27l-26.37-2.46-10.45-25.38-10.39,25.4-26.37,2.53,19.95,18.17-5.84,26.94,22.72-14.18ZM372.83,461l-11.11-10.11,14.68-1.41,5.79-14.15L388,449.44l14.69,1.38L391.61,461l3.29,15-12.67-7.87L369.57,476Z"/><polygon class="cls-5" points="310.1 460.38 318.18 465.4 316.08 455.83 323.16 449.36 313.79 448.49 310.07 439.47 306.38 448.5 297.01 449.39 304.1 455.85 302.03 465.42 310.1 460.38"/><path class="cls-5" d="M311,847.13l-7.39,18L284.91,867l14.17,12.91L294.93,899,311.08,889l16.17,10-4.2-19.13,14.14-13-18.74-1.75Zm14.59,23.72-7.88,7.21,2.34,10.66-9-5.59-9,5.61,2.31-10.66-7.9-7.19,10.44-1,4.11-10,4.14,10Z"/><polygon class="cls-5" points="382 857.29 376.81 870 363.63 871.26 373.6 880.35 370.68 893.82 382.04 886.73 393.42 893.79 390.46 880.32 400.42 871.22 387.23 869.99 382 857.29"/><path class="cls-5" d="M322.91,759.82l14.15-12.94-18.75-1.75-7.42-18-7.39,18.06-18.73,1.79,14.17,12.91L294.79,779l16.15-10.08,16.17,10Zm-12,3.27-9,5.62L304.25,758l-7.9-7.19,10.44-1,4.11-10.05,4.14,10,10.44,1L317.6,758l2.34,10.65Z"/><polygon class="cls-5" points="310.49 799.58 306.8 808.61 297.43 809.51 304.52 815.96 302.44 825.53 310.52 820.49 318.6 825.51 316.5 815.95 323.58 809.47 314.21 808.6 310.49 799.58"/><path class="cls-5" d="M382.56,755.28l-10.39,25.41-26.37,2.53,19.95,18.16-5.84,26.94,22.72-14.18,22.75,14.13-5.9-26.93,19.91-18.22L393,780.66Zm20.53,33.39L392,798.81l3.29,15-12.67-7.87L370,813.84l3.25-15-11.11-10.12,14.68-1.41,5.79-14.15,5.82,14.14Z"/><polygon class="cls-5" points="310.38 700.46 318.46 705.48 316.36 695.91 323.44 689.44 314.07 688.56 310.35 679.54 306.66 688.57 297.29 689.47 304.38 695.92 302.31 705.5 310.38 700.46"/><polygon class="cls-5" points="376.36 194.53 363.18 195.79 373.16 204.87 370.23 218.34 381.6 211.25 392.97 218.31 390.02 204.85 399.97 195.74 386.79 194.51 381.56 181.82 376.36 194.53"/><path class="cls-5" d="M310.62,288.94l16.17,10-4.2-19.13,14.15-12.95L318,265.15l-7.43-18-7.38,18.05L284.45,267l14.18,12.91L294.47,299ZM296,270.87l10.43-1,4.12-10.05,4.13,10,10.44,1-7.88,7.2,2.34,10.66-9-5.59-9,5.61,2.31-10.66Z"/><path class="cls-5" d="M405.14,321.72l-5.91-26.93,19.91-18.21-26.38-2.46-10.45-25.39-10.39,25.41-26.37,2.53,19.95,18.16-5.84,26.95,22.72-14.19ZM373,292.29l-11.11-10.11,14.69-1.41,5.78-14.15,5.83,14.13,14.68,1.37-11.08,10.15,3.29,15-12.68-7.86-12.65,7.9Z"/><polygon class="cls-5" points="310.2 340.51 318.29 345.53 316.19 335.96 323.26 329.49 313.89 328.62 310.18 319.6 306.49 328.63 297.12 329.52 304.2 335.98 302.13 345.55 310.2 340.51"/><polygon class="cls-5" points="376.36 19.97 363.18 21.23 373.16 30.31 370.23 43.78 381.6 36.69 392.97 43.76 390.02 30.29 399.97 21.18 386.79 19.95 381.56 7.26 376.36 19.97"/><path class="cls-5" d="M310.62,164.9l16.17,10-4.2-19.13,14.15-12.94L318,141.11l-7.43-18-7.38,18.06-18.74,1.79,14.18,12.91L294.47,175ZM296,146.83l10.43-1,4.12-10.05,4.13,10,10.44,1L317.28,154l2.34,10.65-9-5.59-9,5.62L303.93,154Z"/><path class="cls-5" d="M405.14,147.16l-5.91-26.93L419.14,102l-26.38-2.46L382.31,74.17,371.92,99.58l-26.37,2.53,19.95,18.16-5.84,27L382.38,133ZM373,117.73l-11.11-10.11,14.69-1.41,5.78-14.15,5.83,14.13,14.68,1.37-11.08,10.15,3.29,15-12.68-7.87-12.65,7.9Z"/><polygon class="cls-5" points="310.2 216.47 318.29 221.49 316.19 211.93 323.26 205.45 313.89 204.58 310.18 195.56 306.49 204.59 297.12 205.49 304.2 211.94 302.13 221.51 310.2 216.47"/><path class="cls-5" d="M310.62,40.86l16.17,10-4.2-19.14,14.15-12.94L318,17.07,310.57-1l-7.38,18.06-18.74,1.79,14.18,12.91-4.16,19.15ZM296,22.8l10.43-1,4.12-10,4.13,10,10.44,1L317.28,30l2.34,10.65-9-5.59-9,5.62L303.93,30Z"/><polygon class="cls-5" points="310.2 92.44 318.29 97.45 316.19 87.89 323.26 81.41 313.89 80.54 310.18 71.52 306.49 80.55 297.12 81.45 304.2 87.9 302.13 97.47 310.2 92.44"/><polygon class="cls-5" points="522.3 548.87 533.67 555.93 530.72 542.47 540.68 533.36 527.49 532.13 522.26 519.44 517.07 532.14 503.88 533.41 513.86 542.49 510.94 555.96 522.3 548.87"/><path class="cls-5" d="M451.31,528.84l16.17,10-4.2-19.14,14.15-12.94-18.74-1.75-7.43-18-7.38,18.05-18.74,1.8,14.18,12.9-4.16,19.15Zm-14.58-18.06,10.43-1,4.11-10.06,4.14,10,10.44,1L458,518l2.34,10.66-9-5.59-9,5.61L444.62,518Z"/><polygon class="cls-5" points="522.46 688.37 517.26 701.07 504.08 702.34 514.05 711.42 511.13 724.89 522.49 717.8 533.87 724.86 530.92 711.4 540.87 702.29 527.68 701.06 522.46 688.37"/><path class="cls-5" d="M451.45,648.88l16.17,10-4.2-19.14,14.15-12.94-18.74-1.75-7.43-18L444,625.11l-18.73,1.79,14.17,12.91L435.3,659Zm-14.58-18.06,10.43-1,4.11-10.06,4.14,10,10.44,1L458.11,638l2.34,10.66-9-5.59-9,5.61L444.76,638Z"/><path class="cls-5" d="M533.47,611.74,523,586.35l-10.4,25.41-26.36,2.53,19.95,18.16-5.85,26.95,22.72-14.19,22.76,14.13-5.91-26.93,19.91-18.21Zm-1,18.15,3.29,15L523.07,637l-12.65,7.9,3.25-15-11.11-10.12,14.69-1.4L523,604.24l5.82,14.13,14.69,1.37Z"/><polygon class="cls-5" points="450.89 580.42 458.97 585.44 456.88 575.87 463.95 569.4 454.58 568.52 450.87 559.51 447.17 568.53 437.8 569.43 444.89 575.89 442.82 585.46 450.89 580.42"/><polygon class="cls-5" points="530.53 373.54 540.48 364.44 527.29 363.2 522.07 350.51 516.87 363.22 503.69 364.48 513.66 373.56 510.74 387.04 522.1 379.94 533.48 387.01 530.53 373.54"/><path class="cls-5" d="M451.17,408.81l16.17,10-4.2-19.13,14.15-12.95L458.55,385l-7.43-18-7.38,18L425,386.83l14.18,12.91L435,418.88Zm-14.58-18.07,10.43-1,4.12-10.05,4.13,10,10.44,1-7.88,7.2,2.34,10.66-9-5.59-9,5.61,2.31-10.66Z"/><path class="cls-5" d="M545.64,490.41l-5.9-26.93,19.9-18.21-26.37-2.46-10.45-25.38-10.39,25.4-26.37,2.53L506,463.53l-5.84,26.94,22.72-14.18ZM513.48,461l-11.11-10.11,14.68-1.41,5.79-14.15,5.82,14.13,14.69,1.38L532.26,461l3.29,15-12.67-7.87L510.22,476Z"/><polygon class="cls-5" points="450.75 460.38 458.83 465.4 456.74 455.83 463.81 449.36 454.44 448.49 450.73 439.47 447.03 448.5 437.67 449.39 444.75 455.85 442.68 465.42 450.75 460.38"/><path class="cls-5" d="M451.68,847.13l-7.39,18L425.56,867l14.17,12.91L435.58,899,451.73,889l16.17,10-4.2-19.13,14.14-13-18.74-1.75Zm14.59,23.72-7.88,7.21,2.34,10.66-9-5.59-9,5.61L445,878.08l-7.9-7.19,10.44-1,4.11-10,4.14,10Z"/><polygon class="cls-5" points="522.66 857.29 517.46 870 504.28 871.26 514.25 880.35 511.33 893.82 522.69 886.73 534.07 893.79 531.11 880.32 541.07 871.22 527.88 869.99 522.66 857.29"/><path class="cls-5" d="M463.56,759.82l14.15-12.94L459,745.13l-7.43-18-7.39,18.06-18.73,1.79,14.17,12.91L435.44,779l16.15-10.08,16.17,10Zm-12,3.27-9,5.62L444.9,758,437,750.85l10.43-1,4.11-10.05,4.14,10,10.44,1L458.25,758l2.34,10.65Z"/><polygon class="cls-5" points="451.14 799.58 447.45 808.61 438.08 809.51 445.17 815.96 443.1 825.53 451.17 820.49 459.25 825.51 457.15 815.95 464.23 809.47 454.86 808.6 451.14 799.58"/><path class="cls-5" d="M543.74,788.67l-11.09,10.14,3.29,15-12.67-7.87-12.65,7.9,3.25-15-11.11-10.12,14.68-1.41,5.79-14.15,5.82,14.14Z"/><polygon class="cls-5" points="451.03 700.46 459.11 705.48 457.01 695.91 464.09 689.44 454.72 688.56 451 679.54 447.31 688.57 437.94 689.47 445.03 695.92 442.95 705.5 451.03 700.46"/><polygon class="cls-5" points="517.01 194.53 503.83 195.79 513.81 204.87 510.88 218.34 522.25 211.25 533.62 218.31 530.67 204.85 540.62 195.74 527.44 194.51 522.21 181.82 517.01 194.53"/><path class="cls-5" d="M451.27,288.94l16.17,10-4.2-19.13,14.15-12.95-18.74-1.74-7.43-18-7.38,18.05L425.1,267l14.18,12.91L435.13,299Zm-14.58-18.07,10.43-1,4.12-10.05,4.13,10,10.44,1-7.88,7.2,2.34,10.66-9-5.59-9,5.61,2.31-10.66Z"/><path class="cls-5" d="M545.79,321.72l-5.91-26.93,19.91-18.21-26.38-2.46L523,248.73l-10.39,25.41-26.37,2.53,19.95,18.16-5.84,26.95L523,307.59Zm-32.17-29.43-11.11-10.11,14.69-1.41L523,266.62l5.83,14.13,14.68,1.37-11.08,10.15,3.29,15L523,299.4l-12.65,7.9Z"/><polygon class="cls-5" points="450.85 340.51 458.94 345.53 456.84 335.96 463.91 329.49 454.54 328.62 450.83 319.6 447.13 328.63 437.77 329.52 444.86 335.98 442.78 345.55 450.85 340.51"/><polygon class="cls-5" points="517.01 19.97 503.83 21.23 513.81 30.31 510.88 43.78 522.25 36.69 533.62 43.76 530.67 30.29 540.62 21.18 527.44 19.95 522.21 7.26 517.01 19.97"/><path class="cls-5" d="M451.27,164.9l16.17,10-4.2-19.13,14.15-12.94-18.74-1.75-7.43-18-7.38,18.06-18.74,1.79,14.18,12.91L435.13,175Zm-14.58-18.07,10.43-1,4.12-10.05,4.13,10,10.44,1L457.93,154l2.34,10.65-9-5.59-9,5.62L444.58,154Z"/><path class="cls-5" d="M545.79,147.16l-5.91-26.93L559.79,102l-26.38-2.46L523,74.17,512.57,99.58l-26.37,2.53,19.95,18.16-5.84,27L523,133Zm-32.17-29.43-11.11-10.11,14.69-1.41L523,92.06l5.83,14.13,14.68,1.37-11.08,10.15,3.29,15L523,124.84l-12.65,7.9Z"/><polygon class="cls-5" points="450.85 216.47 458.94 221.49 456.84 211.93 463.91 205.45 454.54 204.58 450.83 195.56 447.13 204.59 437.77 205.49 444.86 211.94 442.78 221.51 450.85 216.47"/><path class="cls-5" d="M451.27,40.86l16.17,10-4.2-19.14,14.15-12.94-18.74-1.75L451.22-1l-7.38,18.06L425.1,18.88l14.18,12.91-4.15,19.15ZM436.69,22.8l10.43-1,4.12-10,4.13,10,10.44,1L457.93,30l2.34,10.65-9-5.59-9,5.62L444.58,30Z"/><polygon class="cls-5" points="450.85 92.44 458.94 97.45 456.84 87.89 463.91 81.41 454.54 80.54 450.83 71.52 447.13 80.55 437.77 81.45 444.86 87.9 442.78 97.47 450.85 92.44"/><polygon class="cls-5" points="662.95 548.87 674.33 555.93 671.37 542.47 681.33 533.36 668.14 532.13 662.91 519.44 657.72 532.14 644.53 533.41 654.51 542.49 651.59 555.96 662.95 548.87"/><path class="cls-5" d="M592,528.84l16.17,10-4.2-19.14,14.15-12.94-18.74-1.75-7.43-18-7.38,18.05-18.74,1.8L580,519.77l-4.16,19.15Zm-14.58-18.06,10.43-1,4.12-10.06,4.13,10,10.44,1L598.62,518,601,528.61,592,523l-9,5.61L585.27,518Z"/><polygon class="cls-5" points="663.11 688.37 657.91 701.07 644.73 702.34 654.71 711.42 651.78 724.89 663.14 717.8 674.52 724.86 671.57 711.4 681.52 702.29 668.34 701.06 663.11 688.37"/><path class="cls-5" d="M592.1,648.88l16.17,10-4.2-19.14,14.15-12.94-18.74-1.75-7.43-18-7.38,18.06-18.74,1.79,14.18,12.91L576,659Zm-14.58-18.06,10.43-1,4.11-10.06,4.14,10,10.44,1L598.76,638l2.34,10.66-9-5.59-9,5.61L585.41,638Z"/><path class="cls-5" d="M674.12,611.74l-10.45-25.39-10.4,25.41-26.36,2.53,20,18.16L641,659.4l22.72-14.19,22.76,14.13-5.91-26.93,19.91-18.21Zm-1,18.15,3.29,15L663.73,637l-12.66,7.9,3.25-15-11.11-10.12,14.69-1.4,5.79-14.15,5.82,14.13,14.69,1.37Z"/><polygon class="cls-5" points="591.54 580.42 599.62 585.44 597.52 575.87 604.6 569.4 595.23 568.52 591.51 559.51 587.82 568.53 578.45 569.43 585.54 575.89 583.47 585.46 591.54 580.42"/><polygon class="cls-5" points="671.18 373.54 681.13 364.44 667.94 363.2 662.72 350.51 657.52 363.22 644.34 364.48 654.31 373.56 651.39 387.04 662.75 379.94 674.13 387.01 671.18 373.54"/><path class="cls-5" d="M591.82,408.81l16.17,10-4.2-19.13,14.15-12.95L599.2,385l-7.43-18-7.38,18-18.74,1.8,14.18,12.91-4.16,19.14Zm-14.58-18.07,10.43-1,4.12-10.05,4.13,10,10.44,1-7.88,7.2,2.34,10.66-9-5.59-9,5.61,2.31-10.66Z"/><path class="cls-5" d="M686.29,490.41l-5.9-26.93,19.9-18.21-26.37-2.46-10.45-25.38-10.39,25.4-26.37,2.53,19.95,18.17-5.84,26.94,22.72-14.18ZM654.13,461,643,450.87l14.68-1.41,5.79-14.15,5.82,14.13L684,450.82,672.91,461l3.29,15-12.67-7.87L650.87,476Z"/><polygon class="cls-5" points="591.4 460.38 599.49 465.4 597.39 455.83 604.46 449.36 595.09 448.49 591.38 439.47 587.68 448.5 578.32 449.39 585.4 455.85 583.33 465.42 591.4 460.38"/><path class="cls-5" d="M592.33,847.13l-7.39,18L566.21,867l14.17,12.91L576.23,899,592.38,889l16.17,10-4.2-19.13,14.15-13-18.75-1.75Zm14.59,23.72L599,878.06l2.34,10.66-9-5.59-9,5.61,2.31-10.66-7.9-7.19,10.44-1,4.11-10,4.14,10Z"/><polygon class="cls-5" points="663.31 857.29 658.11 870 644.93 871.26 654.9 880.35 651.98 893.82 663.34 886.73 674.72 893.79 671.76 880.32 681.72 871.22 668.53 869.99 663.31 857.29"/><path class="cls-5" d="M604.21,759.82l14.15-12.94-18.74-1.75-7.43-18-7.39,18.06-18.73,1.79,14.17,12.91L576.09,779l16.15-10.08,16.17,10Zm-12,3.27-9,5.62L585.55,758l-7.89-7.19,10.43-1,4.11-10.05,4.14,10,10.44,1L598.9,758l2.34,10.65Z"/><polygon class="cls-5" points="591.79 799.58 588.1 808.61 578.73 809.51 585.82 815.96 583.75 825.53 591.82 820.49 599.9 825.51 597.8 815.95 604.88 809.47 595.51 808.6 591.79 799.58"/><path class="cls-5" d="M663.86,755.28l-10.39,25.41-26.37,2.53,19.95,18.16-5.84,26.94,22.72-14.18,22.76,14.13-5.91-26.93,19.91-18.22-26.38-2.46Zm20.53,33.39L673.3,798.81l3.3,15-12.68-7.87-12.65,7.9,3.25-15-11.11-10.12,14.69-1.41,5.78-14.15,5.82,14.14Z"/><polygon class="cls-5" points="591.68 700.46 599.76 705.48 597.66 695.91 604.74 689.44 595.37 688.56 591.65 679.54 587.96 688.57 578.59 689.47 585.68 695.92 583.61 705.5 591.68 700.46"/><polygon class="cls-5" points="657.66 194.53 644.48 195.79 654.46 204.87 651.53 218.34 662.9 211.25 674.27 218.31 671.32 204.85 681.27 195.74 668.09 194.51 662.86 181.82 657.66 194.53"/><path class="cls-5" d="M591.92,288.94l16.17,10-4.2-19.13L618,266.89l-18.74-1.74-7.43-18-7.38,18.05L565.75,267l14.18,12.91L575.78,299Zm-14.58-18.07,10.44-1,4.11-10.05,4.13,10,10.44,1-7.88,7.2,2.34,10.66-9-5.59-9,5.61,2.32-10.66Z"/><path class="cls-5" d="M686.44,321.72l-5.91-26.93,19.91-18.21-26.37-2.46-10.46-25.39-10.39,25.41-26.37,2.53,19.95,18.16L641,321.78l22.72-14.19Zm-32.17-29.43-11.11-10.11,14.69-1.41,5.78-14.15,5.83,14.13,14.68,1.37-11.08,10.15,3.29,15-12.68-7.86L651,307.3Z"/><polygon class="cls-5" points="591.5 340.51 599.59 345.53 597.49 335.96 604.56 329.49 595.19 328.62 591.48 319.6 587.79 328.63 578.42 329.52 585.51 335.98 583.43 345.55 591.5 340.51"/><polygon class="cls-5" points="657.66 19.97 644.48 21.23 654.46 30.31 651.53 43.78 662.9 36.69 674.27 43.76 671.32 30.29 681.27 21.18 668.09 19.95 662.86 7.26 657.66 19.97"/><path class="cls-5" d="M591.92,164.9l16.17,10-4.2-19.13L618,142.86l-18.74-1.75-7.43-18-7.38,18.06-18.74,1.79,14.18,12.91L575.78,175Zm-14.58-18.07,10.44-1,4.11-10.05,4.13,10,10.44,1L598.58,154l2.34,10.65-9-5.59-9,5.62L585.24,154Z"/><path class="cls-5" d="M686.44,147.16l-5.91-26.93L700.44,102l-26.37-2.46L663.61,74.17,653.22,99.58l-26.37,2.53,19.95,18.16-5.84,27L663.68,133Zm-32.17-29.43-11.11-10.11,14.69-1.41,5.78-14.15,5.83,14.13,14.68,1.37-11.08,10.15,3.29,15-12.68-7.87L651,132.74Z"/><polygon class="cls-5" points="591.5 216.47 599.59 221.49 597.49 211.93 604.56 205.45 595.19 204.58 591.48 195.56 587.79 204.59 578.42 205.49 585.51 211.94 583.43 221.51 591.5 216.47"/><path class="cls-5" d="M591.92,40.86l16.17,10-4.2-19.14L618,18.82,599.3,17.07,591.87-1l-7.38,18.06-18.74,1.79,14.18,12.91-4.15,19.15ZM577.34,22.8l10.44-1,4.11-10,4.13,10,10.44,1L598.58,30l2.34,10.65-9-5.59-9,5.62L585.24,30Z"/><polygon class="cls-5" points="591.5 92.44 599.59 97.45 597.49 87.89 604.56 81.41 595.19 80.54 591.48 71.52 587.79 80.55 578.42 81.45 585.51 87.9 583.43 97.47 591.5 92.44"/><polygon class="cls-5" points="803.6 548.87 814.98 555.93 812.02 542.47 821.98 533.36 808.79 532.13 803.56 519.44 798.37 532.14 785.18 533.41 795.16 542.49 792.24 555.96 803.6 548.87"/><path class="cls-5" d="M732.61,528.84l16.17,10-4.2-19.14,14.15-12.94L740,505.05l-7.43-18-7.38,18.05-18.74,1.8,14.18,12.9-4.16,19.15ZM718,510.78l10.43-1,4.12-10.06,4.13,10,10.44,1L739.27,518l2.34,10.66-9-5.59-9,5.61L725.92,518Z"/><polygon class="cls-5" points="803.76 688.37 798.56 701.07 785.38 702.34 795.36 711.42 792.43 724.89 803.79 717.8 815.17 724.86 812.22 711.4 822.17 702.29 808.99 701.06 803.76 688.37"/><path class="cls-5" d="M732.75,648.88l16.17,10-4.2-19.14,14.15-12.94-18.74-1.75-7.43-18-7.38,18.06-18.74,1.79,14.18,12.91L716.6,659Zm-14.58-18.06,10.43-1,4.11-10.06,4.14,10,10.44,1L739.41,638l2.34,10.66-9-5.59-9,5.61L726.06,638Z"/><path class="cls-5" d="M814.77,611.74l-10.45-25.39-10.4,25.41-26.36,2.53,20,18.16-5.85,26.95,22.72-14.19,22.76,14.13-5.91-26.93,19.91-18.21Zm-1,18.15,3.29,15L804.38,637l-12.66,7.9,3.25-15-11.11-10.12,14.69-1.4,5.79-14.15,5.82,14.13,14.69,1.37Z"/><polygon class="cls-5" points="732.19 580.42 740.27 585.44 738.18 575.87 745.25 569.4 735.88 568.52 732.16 559.51 728.47 568.53 719.11 569.43 726.19 575.89 724.12 585.46 732.19 580.42"/><polygon class="cls-5" points="811.83 373.54 821.78 364.44 808.59 363.2 803.37 350.51 798.17 363.22 784.99 364.48 794.96 373.56 792.04 387.04 803.4 379.94 814.78 387.01 811.83 373.54"/><path class="cls-5" d="M732.47,408.81l16.17,10-4.2-19.13,14.15-12.95L739.85,385l-7.43-18L725,385l-18.74,1.8,14.18,12.91-4.16,19.14Zm-14.58-18.07,10.43-1,4.12-10.05,4.13,10,10.44,1-7.88,7.2,2.34,10.66-9-5.59-9,5.61,2.31-10.66Z"/><path class="cls-5" d="M826.94,490.41,821,463.48,841,445.27l-26.38-2.46-10.45-25.38-10.39,25.4-26.37,2.53,19.95,18.17-5.84,26.94,22.72-14.18ZM794.78,461l-11.11-10.11,14.68-1.41,5.79-14.15L810,449.44l14.69,1.38L813.56,461l3.29,15-12.67-7.87L791.52,476Z"/><polygon class="cls-5" points="732.05 460.38 740.13 465.4 738.04 455.83 745.11 449.36 735.74 448.49 732.03 439.47 728.33 448.5 718.97 449.39 726.05 455.85 723.98 465.42 732.05 460.38"/><path class="cls-5" d="M733,847.13l-7.39,18L706.86,867,721,879.89,716.88,899,733,889l16.17,10L745,879.86l14.15-13-18.74-1.75Zm14.59,23.72-7.88,7.21L742,888.72l-9-5.59-9,5.61,2.31-10.66-7.89-7.19,10.43-1,4.11-10,4.14,10Z"/><polygon class="cls-5" points="803.96 857.29 798.76 870 785.58 871.26 795.55 880.35 792.63 893.82 803.99 886.73 815.37 893.79 812.41 880.32 822.37 871.22 809.18 869.99 803.96 857.29"/><path class="cls-5" d="M744.86,759.82,759,746.88l-18.74-1.75-7.43-18-7.39,18.06-18.73,1.79,14.17,12.91L716.74,779l16.15-10.08,16.17,10Zm-12,3.27-9,5.62L726.2,758l-7.89-7.19,10.43-1,4.11-10.05,4.14,10,10.44,1L739.55,758l2.34,10.65Z"/><polygon class="cls-5" points="732.44 799.58 728.75 808.61 719.38 809.51 726.47 815.96 724.39 825.53 732.47 820.49 740.55 825.51 738.46 815.95 745.53 809.47 736.16 808.6 732.44 799.58"/><path class="cls-5" d="M804.51,755.28l-10.39,25.41-26.37,2.53,20,18.16-5.84,26.94,22.72-14.18,22.76,14.13-5.91-26.93,19.91-18.22L815,780.66ZM825,788.67,814,798.81l3.29,15-12.68-7.87-12.65,7.9,3.25-15-11.11-10.12,14.69-1.41,5.78-14.15,5.83,14.14Z"/><polygon class="cls-5" points="732.33 700.46 740.41 705.48 738.32 695.91 745.39 689.44 736.02 688.56 732.3 679.54 728.61 688.57 719.24 689.47 726.33 695.92 724.26 705.5 732.33 700.46"/><polygon class="cls-5" points="798.32 194.53 785.13 195.79 795.11 204.87 792.18 218.34 803.55 211.25 814.92 218.31 811.97 204.85 821.92 195.74 808.74 194.51 803.51 181.82 798.32 194.53"/><path class="cls-5" d="M732.57,288.94l16.17,10-4.2-19.13,14.15-12.95L740,265.15l-7.43-18-7.38,18.05L706.4,267l14.18,12.91L716.43,299ZM718,270.87l10.44-1,4.11-10.05,4.14,10,10.43,1-7.88,7.2,2.34,10.66-9-5.59-9,5.61,2.32-10.66Z"/><path class="cls-5" d="M827.09,321.72l-5.91-26.93,19.91-18.21-26.37-2.46-10.46-25.39-10.39,25.41-26.37,2.53,20,18.16-5.84,26.95,22.72-14.19Zm-32.17-29.43-11.11-10.11,14.69-1.41,5.79-14.15,5.82,14.13,14.68,1.37-11.08,10.15,3.29,15-12.68-7.86-12.65,7.9Z"/><polygon class="cls-5" points="732.15 340.51 740.24 345.53 738.14 335.96 745.21 329.49 735.84 328.62 732.13 319.6 728.44 328.63 719.07 329.52 726.16 335.98 724.08 345.55 732.15 340.51"/><polygon class="cls-5" points="798.32 19.97 785.13 21.23 795.11 30.31 792.18 43.78 803.55 36.69 814.92 43.76 811.97 30.29 821.92 21.18 808.74 19.95 803.51 7.26 798.32 19.97"/><path class="cls-5" d="M732.57,164.9l16.17,10-4.2-19.13,14.15-12.94L740,141.11l-7.43-18-7.38,18.06-18.74,1.79,14.18,12.91L716.43,175ZM718,146.83l10.44-1,4.11-10.05,4.14,10,10.43,1L739.23,154l2.34,10.65-9-5.59-9,5.62L725.89,154Z"/><path class="cls-5" d="M827.09,147.16l-5.91-26.93L841.09,102l-26.37-2.46L804.26,74.17,793.87,99.58l-26.37,2.53,20,18.16-5.84,27L804.33,133Zm-32.17-29.43-11.11-10.11,14.69-1.41,5.79-14.15,5.82,14.13,14.68,1.37-11.08,10.15,3.29,15-12.68-7.87-12.65,7.9Z"/><polygon class="cls-5" points="732.15 216.47 740.24 221.49 738.14 211.93 745.21 205.45 735.84 204.58 732.13 195.56 728.44 204.59 719.07 205.49 726.16 211.94 724.08 221.51 732.15 216.47"/><path class="cls-5" d="M732.57,40.86l16.17,10-4.2-19.14,14.15-12.94L740,17.07,732.52-1l-7.38,18.06L706.4,18.88l14.18,12.91-4.15,19.15ZM718,22.8l10.44-1,4.11-10,4.14,10,10.43,1L739.23,30l2.34,10.65-9-5.59-9,5.62L725.89,30Z"/><polygon class="cls-5" points="732.15 92.44 740.24 97.45 738.14 87.89 745.21 81.41 735.84 80.54 732.13 71.52 728.44 80.55 719.07 81.45 726.16 87.9 724.08 97.47 732.15 92.44"/><polygon class="cls-5" points="944.25 548.87 955.63 555.93 952.67 542.47 962.63 533.36 949.44 532.13 944.22 519.44 939.02 532.14 925.84 533.41 935.81 542.49 932.89 555.96 944.25 548.87"/><path class="cls-5" d="M873.26,528.84l16.17,10-4.2-19.14,14.15-12.94-18.74-1.75-7.43-18-7.38,18.05-18.74,1.8,14.18,12.9-4.16,19.15Zm-14.58-18.06,10.43-1,4.12-10.06,4.13,10,10.44,1L879.92,518l2.34,10.66-9-5.59-9,5.61L866.57,518Z"/><polygon class="cls-5" points="944.41 688.37 939.21 701.07 926.03 702.34 936.01 711.42 933.08 724.89 944.45 717.8 955.82 724.86 952.87 711.4 962.82 702.29 949.64 701.06 944.41 688.37"/><path class="cls-5" d="M873.4,648.88l16.17,10-4.2-19.14,14.15-12.94-18.74-1.75-7.43-18L866,625.11l-18.74,1.79,14.18,12.91L857.25,659Zm-14.58-18.06,10.43-1,4.12-10.06,4.13,10,10.44,1L880.06,638l2.34,10.66-9-5.59-9,5.61L866.71,638Z"/><path class="cls-5" d="M955.42,611.74,945,586.35l-10.4,25.41-26.36,2.53,19.95,18.16-5.85,26.95L945,645.21l22.75,14.13-5.91-26.93,19.91-18.21Zm-1,18.15,3.29,15L945,637l-12.66,7.9,3.26-15-11.12-10.12,14.69-1.4L945,604.24l5.82,14.13,14.69,1.37Z"/><polygon class="cls-5" points="872.84 580.42 880.92 585.44 878.83 575.87 885.9 569.4 876.53 568.52 872.82 559.51 869.12 568.53 859.75 569.43 866.84 575.89 864.77 585.46 872.84 580.42"/><polygon class="cls-5" points="952.48 373.54 962.43 364.44 949.24 363.2 944.02 350.51 938.82 363.22 925.64 364.48 935.61 373.56 932.69 387.04 944.05 379.94 955.43 387.01 952.48 373.54"/><path class="cls-5" d="M873.12,408.81l16.17,10-4.2-19.13,14.15-12.95L880.5,385l-7.43-18-7.38,18L847,386.83l14.18,12.91L857,418.88Zm-14.58-18.07,10.43-1,4.12-10.05,4.13,10,10.44,1-7.88,7.2,2.34,10.66-9-5.59-9,5.61,2.31-10.66Z"/><path class="cls-5" d="M967.59,490.41l-5.9-26.93,19.91-18.21-26.38-2.46-10.45-25.38-10.39,25.4L908,445.36l20,18.17-5.84,26.94,22.72-14.18ZM935.43,461l-11.11-10.11L939,449.46l5.79-14.15,5.82,14.13,14.69,1.38L954.21,461l3.29,15-12.67-7.87L932.18,476Z"/><polygon class="cls-5" points="872.7 460.38 880.79 465.4 878.69 455.83 885.76 449.36 876.39 448.49 872.68 439.47 868.98 448.5 859.62 449.39 866.7 455.85 864.63 465.42 872.7 460.38"/><path class="cls-5" d="M873.63,847.13l-7.39,18L847.51,867l14.17,12.91L857.53,899,873.68,889l16.17,10-4.2-19.13,14.15-13-18.74-1.75Zm14.59,23.72-7.88,7.21,2.34,10.66-9-5.59-9,5.61L867,878.08l-7.89-7.19,10.43-1,4.11-10,4.14,10Z"/><polygon class="cls-5" points="944.61 857.29 939.41 870 926.23 871.26 936.2 880.35 933.28 893.82 944.64 886.73 956.02 893.79 953.07 880.32 963.02 871.22 949.83 869.99 944.61 857.29"/><path class="cls-5" d="M885.51,759.82l14.15-12.94-18.74-1.75-7.43-18-7.38,18.06-18.74,1.79,14.18,12.91L857.39,779l16.15-10.08,16.17,10Zm-12,3.27-9,5.62L866.85,758,859,750.85l10.43-1,4.11-10.05,4.14,10,10.44,1L880.2,758l2.34,10.65Z"/><polygon class="cls-5" points="873.1 799.58 869.4 808.61 860.03 809.51 867.12 815.96 865.05 825.53 873.12 820.49 881.2 825.51 879.11 815.95 886.18 809.47 876.81 808.6 873.1 799.58"/><path class="cls-5" d="M945.16,755.28l-10.39,25.41-26.37,2.53,20,18.16-5.84,26.94,22.72-14.18L968,828.27l-5.91-26.93L982,783.12l-26.38-2.46Zm20.53,33.39-11.08,10.14,3.29,15-12.68-7.87-12.65,7.9,3.25-15-11.11-10.12,14.69-1.41,5.78-14.15L951,787.3Z"/><polygon class="cls-5" points="872.98 700.46 881.06 705.48 878.97 695.91 886.04 689.44 876.67 688.56 872.96 679.54 869.26 688.57 859.89 689.47 866.98 695.92 864.91 705.5 872.98 700.46"/><polygon class="cls-5" points="938.97 194.53 925.78 195.79 935.76 204.87 932.84 218.34 944.2 211.25 955.57 218.31 952.62 204.85 962.58 195.74 949.39 194.51 944.16 181.82 938.97 194.53"/><path class="cls-5" d="M873.22,288.94l16.17,10-4.2-19.13,14.15-12.95-18.74-1.74-7.43-18-7.38,18.05L847.05,267l14.18,12.91L857.08,299Zm-14.58-18.07,10.44-1,4.11-10.05,4.14,10,10.43,1-7.88,7.2,2.34,10.66-9-5.59-9,5.61,2.32-10.66Z"/><path class="cls-5" d="M967.74,321.72l-5.91-26.93,19.91-18.21-26.37-2.46-10.46-25.39-10.39,25.41-26.37,2.53,20,18.16-5.85,26.95L945,307.59Zm-32.17-29.43-11.11-10.11,14.69-1.41,5.79-14.15,5.82,14.13,14.69,1.37-11.09,10.15,3.29,15L945,299.4l-12.65,7.9Z"/><polygon class="cls-5" points="872.8 340.51 880.89 345.53 878.79 335.96 885.86 329.49 876.49 328.62 872.78 319.6 869.09 328.63 859.72 329.52 866.81 335.98 864.73 345.55 872.8 340.51"/><polygon class="cls-5" points="938.97 19.97 925.78 21.23 935.76 30.31 932.84 43.78 944.2 36.69 955.57 43.76 952.62 30.29 962.58 21.18 949.39 19.95 944.16 7.26 938.97 19.97"/><path class="cls-5" d="M873.22,164.9l16.17,10-4.2-19.13,14.15-12.94-18.74-1.75-7.43-18-7.38,18.06-18.74,1.79,14.18,12.91L857.08,175Zm-14.58-18.07,10.44-1,4.11-10.05,4.14,10,10.43,1L879.88,154l2.34,10.65-9-5.59-9,5.62L866.54,154Z"/><path class="cls-5" d="M967.74,147.16l-5.91-26.93L981.74,102l-26.37-2.46L944.91,74.17,934.52,99.58l-26.37,2.53,20,18.16-5.85,27L945,133Zm-32.17-29.43-11.11-10.11,14.69-1.41,5.79-14.15,5.82,14.13,14.69,1.37-11.09,10.15,3.29,15L945,124.84l-12.65,7.9Z"/><polygon class="cls-5" points="872.8 216.47 880.89 221.49 878.79 211.93 885.86 205.45 876.49 204.58 872.78 195.56 869.09 204.59 859.72 205.49 866.81 211.94 864.73 221.51 872.8 216.47"/><path class="cls-5" d="M873.22,40.86l16.17,10-4.2-19.14,14.15-12.94L880.6,17.07,873.17-1l-7.38,18.06-18.74,1.79,14.18,12.91-4.15,19.15ZM858.64,22.8l10.44-1,4.11-10,4.14,10,10.43,1L879.88,30l2.34,10.65-9-5.59-9,5.62L866.54,30Z"/><polygon class="cls-5" points="872.8 92.44 880.89 97.45 878.79 87.89 885.86 81.41 876.49 80.54 872.78 71.52 869.09 80.55 859.72 81.45 866.81 87.9 864.73 97.47 872.8 92.44"/><polygon class="cls-5" points="1084.9 548.87 1096.28 555.93 1093.32 542.47 1103.28 533.36 1090.09 532.13 1084.87 519.44 1079.67 532.14 1066.48 533.41 1076.46 542.49 1073.54 555.96 1084.9 548.87"/><path class="cls-5" d="M1013.91,528.84l16.17,10-4.2-19.14L1040,506.8l-18.74-1.75-7.43-18-7.38,18.05-18.74,1.8,14.18,12.9-4.16,19.15Zm-14.58-18.06,10.43-1,4.12-10.06,4.13,10,10.44,1-7.88,7.21,2.34,10.66-9-5.59-9,5.61,2.31-10.66Z"/><polygon class="cls-5" points="1085.06 688.37 1079.87 701.07 1066.68 702.34 1076.66 711.42 1073.73 724.89 1085.1 717.8 1096.47 724.86 1093.52 711.4 1103.47 702.29 1090.29 701.06 1085.06 688.37"/><path class="cls-5" d="M1014.05,648.88l16.17,10-4.2-19.14,14.15-12.94-18.74-1.75-7.43-18-7.38,18.06-18.74,1.79,14.18,12.91L997.9,659Zm-14.58-18.06,10.43-1,4.12-10.06,4.13,10,10.44,1-7.88,7.21,2.34,10.66-9-5.59-9,5.61,2.31-10.66Z"/><path class="cls-5" d="M1096.07,611.74l-10.45-25.39-10.39,25.41-26.37,2.53,20,18.16L1063,659.4l22.73-14.19,22.75,14.13-5.91-26.93,19.91-18.21Zm-1,18.15,3.29,15L1085.68,637l-12.66,7.9,3.26-15-11.12-10.12,14.69-1.4,5.79-14.15,5.82,14.13,14.69,1.37Z"/><polygon class="cls-5" points="1013.49 580.42 1021.58 585.44 1019.48 575.87 1026.55 569.4 1017.18 568.52 1013.47 559.51 1009.77 568.53 1000.41 569.43 1007.49 575.89 1005.42 585.46 1013.49 580.42"/><polygon class="cls-5" points="1093.13 373.54 1103.08 364.44 1089.89 363.2 1084.67 350.51 1079.47 363.22 1066.29 364.48 1076.26 373.56 1073.34 387.04 1084.7 379.94 1096.08 387.01 1093.13 373.54"/><path class="cls-5" d="M1013.77,408.81l16.17,10-4.2-19.13,14.15-12.95L1021.15,385l-7.43-18-7.38,18-18.74,1.8,14.18,12.91-4.16,19.14Zm-14.58-18.07,10.43-1,4.12-10.05,4.13,10,10.44,1-7.88,7.2,2.34,10.66-9-5.59-9,5.61,2.31-10.66Z"/><path class="cls-5" d="M1108.24,490.41l-5.9-26.93,19.91-18.21-26.38-2.46-10.45-25.38L1075,442.83l-26.37,2.53,19.95,18.17-5.84,26.94,22.72-14.18ZM1076.08,461,1065,450.87l14.68-1.41,5.79-14.15,5.82,14.13,14.69,1.38L1094.86,461l3.29,15-12.67-7.87-12.65,7.9Z"/><polygon class="cls-5" points="1013.35 460.38 1021.44 465.4 1019.34 455.83 1026.41 449.36 1017.04 448.49 1013.33 439.47 1009.63 448.5 1000.27 449.39 1007.36 455.85 1005.28 465.42 1013.35 460.38"/><path class="cls-5" d="M1014.28,847.13l-7.39,18L988.16,867l14.18,12.91L998.18,899,1014.33,889l16.17,10-4.2-19.13,14.15-13-18.74-1.75Zm14.59,23.72-7.88,7.21,2.34,10.66-9-5.59-9,5.61,2.31-10.66-7.89-7.19,10.43-1,4.11-10,4.14,10Z"/><polygon class="cls-5" points="1085.26 857.29 1080.06 870 1066.88 871.26 1076.85 880.35 1073.93 893.82 1085.29 886.73 1096.67 893.79 1093.72 880.32 1103.67 871.22 1090.48 869.99 1085.26 857.29"/><path class="cls-5" d="M1026.16,759.82l14.15-12.94-18.74-1.75-7.43-18-7.38,18.06L988,746.94l14.18,12.91L998,779l16.15-10.08,16.17,10Zm-12,3.27-9,5.62L1007.5,758l-7.89-7.19,10.43-1,4.12-10.05,4.13,10,10.44,1-7.88,7.21,2.34,10.65Z"/><polygon class="cls-5" points="1013.75 799.58 1010.05 808.61 1000.68 809.51 1007.77 815.96 1005.7 825.53 1013.77 820.49 1021.85 825.51 1019.75 815.95 1026.83 809.47 1017.46 808.6 1013.75 799.58"/><path class="cls-5" d="M1085.81,755.28l-10.39,25.41-26.37,2.53,20,18.16-5.84,26.94,22.72-14.18,22.76,14.13-5.91-26.93,19.91-18.22-26.38-2.46Zm20.53,33.39-11.08,10.14,3.29,15-12.68-7.87-12.65,7.9,3.25-15-11.11-10.12,14.69-1.41,5.78-14.15,5.83,14.14Z"/><polygon class="cls-5" points="1013.63 700.46 1021.72 705.48 1019.62 695.91 1026.69 689.44 1017.32 688.56 1013.61 679.54 1009.91 688.57 1000.54 689.47 1007.63 695.92 1005.56 705.5 1013.63 700.46"/><polygon class="cls-5" points="1079.62 194.53 1066.43 195.79 1076.41 204.87 1073.49 218.34 1084.85 211.25 1096.22 218.31 1093.27 204.85 1103.22 195.74 1090.04 194.51 1084.81 181.82 1079.62 194.53"/><path class="cls-5" d="M1013.87,288.94,1030,299l-4.19-19.13L1040,266.89l-18.74-1.74-7.43-18-7.38,18.05L987.7,267l14.18,12.91L997.73,299Zm-14.58-18.07,10.44-1,4.11-10.05,4.14,10,10.43,1-7.88,7.2,2.34,10.66-9-5.59-9,5.61,2.32-10.66Z"/><path class="cls-5" d="M1108.39,321.72l-5.91-26.93,19.91-18.21L1096,274.12l-10.45-25.39-10.4,25.41-26.36,2.53,20,18.16-5.85,26.95,22.72-14.19Zm-32.17-29.43-11.11-10.11,14.69-1.41,5.79-14.15,5.82,14.13,14.69,1.37L1095,292.27l3.29,15-12.68-7.86L1073,307.3Z"/><polygon class="cls-5" points="1013.45 340.51 1021.54 345.53 1019.44 335.96 1026.51 329.49 1017.14 328.62 1013.43 319.6 1009.74 328.63 1000.37 329.52 1007.46 335.98 1005.38 345.55 1013.45 340.51"/><polygon class="cls-5" points="1079.62 19.97 1066.43 21.23 1076.41 30.31 1073.49 43.78 1084.85 36.69 1096.22 43.76 1093.27 30.29 1103.22 21.18 1090.04 19.95 1084.81 7.26 1079.62 19.97"/><path class="cls-5" d="M1013.87,164.9l16.17,10-4.19-19.13L1040,142.86l-18.74-1.75-7.43-18-7.38,18.06-18.74,1.79,14.18,12.91L997.73,175Zm-14.58-18.07,10.44-1,4.11-10.05,4.14,10,10.43,1-7.88,7.21,2.34,10.65-9-5.59-9,5.62,2.32-10.67Z"/><path class="cls-5" d="M1108.39,147.16l-5.91-26.93L1122.39,102,1096,99.56l-10.45-25.39-10.4,25.41-26.36,2.53,20,18.16-5.85,27L1085.63,133Zm-32.17-29.43-11.11-10.11,14.69-1.41,5.79-14.15,5.82,14.13,14.69,1.37L1095,117.71l3.29,15-12.68-7.87-12.65,7.9Z"/><polygon class="cls-5" points="1013.45 216.47 1021.54 221.49 1019.44 211.93 1026.51 205.45 1017.14 204.58 1013.43 195.56 1009.74 204.59 1000.37 205.49 1007.46 211.94 1005.38 221.51 1013.45 216.47"/><path class="cls-5" d="M1013.87,40.86l16.17,10-4.19-19.14L1040,18.82l-18.74-1.75-7.43-18-7.38,18.06L987.7,18.88l14.18,12.91-4.15,19.15ZM999.29,22.8l10.44-1,4.11-10,4.14,10,10.43,1L1020.53,30l2.34,10.65-9-5.59-9,5.62L1007.19,30Z"/><polygon class="cls-5" points="1013.45 92.44 1021.54 97.45 1019.44 87.89 1026.51 81.41 1017.14 80.54 1013.43 71.52 1009.74 80.55 1000.37 81.45 1007.46 87.9 1005.38 97.47 1013.45 92.44"/><polygon class="cls-5" points="1225.55 548.87 1236.93 555.93 1233.97 542.47 1243.93 533.36 1230.74 532.13 1225.52 519.44 1220.32 532.14 1207.13 533.41 1217.11 542.49 1214.19 555.96 1225.55 548.87"/><path class="cls-5" d="M1154.56,528.84l16.17,10-4.2-19.14,14.15-12.94-18.74-1.75-7.43-18-7.38,18.05-18.74,1.8,14.18,12.9-4.16,19.15ZM1140,510.78l10.43-1,4.12-10.06,4.13,10,10.44,1-7.88,7.21,2.34,10.66-9-5.59-9,5.61,2.31-10.66Z"/><polygon class="cls-5" points="1225.71 688.37 1220.52 701.07 1207.33 702.34 1217.31 711.42 1214.38 724.89 1225.75 717.8 1237.12 724.86 1234.17 711.4 1244.12 702.29 1230.94 701.06 1225.71 688.37"/><path class="cls-5" d="M1154.7,648.88l16.17,10-4.2-19.14,14.15-12.94-18.74-1.75-7.43-18-7.38,18.06-18.74,1.79,14.18,12.91L1138.55,659Zm-14.58-18.06,10.43-1,4.12-10.06,4.13,10,10.44,1-7.88,7.21,2.34,10.66-9-5.59-9,5.61L1148,638Z"/><path class="cls-5" d="M1236.72,611.74l-10.45-25.39-10.39,25.41-26.37,2.53,20,18.16-5.85,26.95,22.73-14.19,22.75,14.13-5.91-26.93,19.91-18.21Zm-1,18.15,3.29,15L1226.33,637l-12.66,7.9,3.26-15-11.12-10.12,14.69-1.4,5.79-14.15,5.82,14.13,14.69,1.37Z"/><polygon class="cls-5" points="1154.14 580.42 1162.23 585.44 1160.13 575.87 1167.2 569.4 1157.83 568.52 1154.12 559.51 1150.42 568.53 1141.06 569.43 1148.14 575.89 1146.07 585.46 1154.14 580.42"/><polygon class="cls-5" points="1233.78 373.54 1243.73 364.44 1230.55 363.2 1225.32 350.51 1220.12 363.22 1206.94 364.48 1216.91 373.56 1213.99 387.04 1225.35 379.94 1236.73 387.01 1233.78 373.54"/><path class="cls-5" d="M1154.42,408.81l16.17,10-4.2-19.13,14.15-12.95L1161.8,385l-7.43-18L1147,385l-18.74,1.8,14.18,12.91-4.15,19.14Zm-14.58-18.07,10.43-1,4.12-10.05,4.13,10,10.44,1-7.88,7.2,2.34,10.66-9-5.59-9,5.61,2.31-10.66Z"/><path class="cls-5" d="M1248.9,490.41,1243,463.48l19.91-18.21-26.38-2.46-10.45-25.38-10.39,25.4-26.37,2.53,20,18.17-5.84,26.94,22.72-14.18ZM1216.73,461l-11.11-10.11,14.68-1.41,5.79-14.15,5.82,14.13,14.69,1.38L1235.51,461l3.29,15-12.67-7.87-12.65,7.9Z"/><polygon class="cls-5" points="1154 460.38 1162.09 465.4 1159.99 455.83 1167.06 449.36 1157.69 448.49 1153.98 439.47 1150.29 448.5 1140.92 449.39 1148.01 455.85 1145.93 465.42 1154 460.38"/><path class="cls-5" d="M1154.93,847.13l-7.38,18-18.74,1.8L1143,879.89,1138.83,899,1155,889l16.17,10-4.2-19.13,14.15-13-18.74-1.75Zm14.59,23.72-7.88,7.21,2.34,10.66-9-5.59-9,5.61,2.31-10.66-7.89-7.19,10.43-1,4.11-10,4.14,10Z"/><polygon class="cls-5" points="1225.91 857.29 1220.71 870 1207.53 871.26 1217.5 880.35 1214.58 893.82 1225.94 886.73 1237.32 893.79 1234.37 880.32 1244.32 871.22 1231.13 869.99 1225.91 857.29"/><path class="cls-5" d="M1166.81,759.82,1181,746.88l-18.74-1.75-7.43-18-7.38,18.06-18.74,1.79,14.18,12.91L1138.69,779l16.15-10.08L1171,779Zm-12,3.27-9,5.62,2.31-10.67-7.89-7.19,10.43-1,4.12-10.05,4.13,10,10.44,1L1161.5,758l2.34,10.65Z"/><polygon class="cls-5" points="1154.4 799.58 1150.7 808.61 1141.34 809.51 1148.42 815.96 1146.35 825.53 1154.42 820.49 1162.51 825.51 1160.41 815.95 1167.48 809.47 1158.11 808.6 1154.4 799.58"/><path class="cls-5" d="M1226.46,755.28l-10.39,25.41-26.37,2.53,20,18.16-5.84,26.94,22.72-14.18,22.76,14.13-5.91-26.93,19.91-18.22-26.37-2.46ZM1247,788.67l-11.08,10.14,3.29,15-12.68-7.87-12.65,7.9,3.25-15L1206,788.72l14.69-1.41,5.78-14.15,5.83,14.14Z"/><polygon class="cls-5" points="1154.28 700.46 1162.37 705.48 1160.27 695.91 1167.34 689.44 1157.97 688.56 1154.26 679.54 1150.56 688.57 1141.2 689.47 1148.28 695.92 1146.21 705.5 1154.28 700.46"/><polygon class="cls-5" points="1220.27 194.53 1207.08 195.79 1217.06 204.87 1214.14 218.34 1225.5 211.25 1236.88 218.31 1233.92 204.85 1243.88 195.74 1230.69 194.51 1225.46 181.82 1220.27 194.53"/><path class="cls-5" d="M1154.52,288.94l16.17,10-4.19-19.13,14.14-12.95-18.74-1.74-7.43-18-7.38,18.05-18.74,1.8,14.18,12.91L1138.38,299Zm-14.58-18.07,10.44-1,4.11-10.05,4.14,10,10.43,1-7.88,7.2,2.34,10.66-9-5.59-9,5.61,2.32-10.66Z"/><path class="cls-5" d="M1249,321.72l-5.91-26.93L1263,276.58l-26.37-2.46-10.45-25.39-10.4,25.41-26.36,2.53,20,18.16-5.85,26.95,22.72-14.19Zm-32.17-29.43-11.11-10.11,14.69-1.41,5.79-14.15,5.82,14.13,14.69,1.37-11.09,10.15,3.29,15-12.68-7.86-12.65,7.9Z"/><polygon class="cls-5" points="1154.1 340.51 1162.19 345.53 1160.09 335.96 1167.16 329.49 1157.79 328.62 1154.08 319.6 1150.39 328.63 1141.02 329.52 1148.11 335.98 1146.03 345.55 1154.1 340.51"/><polygon class="cls-5" points="1220.27 19.97 1207.08 21.23 1217.06 30.31 1214.14 43.78 1225.5 36.69 1236.88 43.76 1233.92 30.29 1243.88 21.18 1230.69 19.95 1225.46 7.26 1220.27 19.97"/><path class="cls-5" d="M1154.52,164.9l16.17,10-4.19-19.13,14.14-12.94-18.74-1.75-7.43-18-7.38,18.06-18.74,1.79,14.18,12.91L1138.38,175Zm-14.58-18.07,10.44-1,4.11-10.05,4.14,10,10.43,1-7.88,7.21,2.34,10.65-9-5.59-9,5.62,2.32-10.67Z"/><path class="cls-5" d="M1249,147.16l-5.91-26.93L1263,102l-26.37-2.46-10.45-25.39-10.4,25.41-26.36,2.53,20,18.16-5.85,27L1226.28,133Zm-32.17-29.43-11.11-10.11,14.69-1.41,5.79-14.15,5.82,14.13,14.69,1.37-11.09,10.15,3.29,15-12.68-7.87-12.65,7.9Z"/><polygon class="cls-5" points="1154.1 216.47 1162.19 221.49 1160.09 211.93 1167.16 205.45 1157.79 204.58 1154.08 195.56 1150.39 204.59 1141.02 205.49 1148.11 211.94 1146.03 221.51 1154.1 216.47"/><path class="cls-5" d="M1154.52,40.86l16.17,10-4.19-19.14,14.14-12.94-18.74-1.75-7.43-18-7.38,18.06-18.74,1.79,14.18,12.91-4.15,19.15ZM1139.94,22.8l10.44-1,4.11-10,4.14,10,10.43,1L1161.18,30l2.34,10.65-9-5.59-9,5.62L1147.84,30Z"/><polygon class="cls-5" points="1154.1 92.44 1162.19 97.45 1160.09 87.89 1167.16 81.41 1157.79 80.54 1154.08 71.52 1150.39 80.55 1141.02 81.45 1148.11 87.9 1146.03 97.47 1154.1 92.44"/><polygon class="cls-5" points="1366.2 548.87 1377.58 555.93 1374.62 542.47 1384.58 533.36 1371.39 532.13 1366.17 519.44 1360.97 532.14 1347.79 533.41 1357.76 542.49 1354.84 555.96 1366.2 548.87"/><path class="cls-5" d="M1295.21,528.84l16.17,10-4.2-19.14,14.15-12.94-18.74-1.75-7.43-18-7.38,18.05-18.74,1.8,14.18,12.9-4.16,19.15Zm-14.58-18.06,10.43-1,4.12-10.06,4.13,10,10.44,1-7.88,7.21,2.34,10.66-9-5.59-9,5.61,2.31-10.66Z"/><polygon class="cls-5" points="1366.36 688.37 1361.17 701.07 1347.98 702.34 1357.96 711.42 1355.04 724.89 1366.4 717.8 1377.77 724.86 1374.82 711.4 1384.77 702.29 1371.59 701.06 1366.36 688.37"/><path class="cls-5" d="M1295.35,648.88l16.17,10-4.2-19.14,14.15-12.94-18.74-1.75-7.43-18-7.38,18.06-18.74,1.79,14.18,12.91L1279.2,659Zm-14.58-18.06,10.43-1,4.12-10.06,4.13,10,10.44,1L1302,638l2.34,10.66-9-5.59-9,5.61,2.31-10.66Z"/><path class="cls-5" d="M1377.37,611.74l-10.45-25.39-10.39,25.41-26.37,2.53,19.95,18.16-5.85,26.95L1367,645.21l22.75,14.13-5.91-26.93,19.91-18.21Zm-1,18.15,3.29,15L1367,637l-12.66,7.9,3.26-15-11.11-10.12,14.68-1.4,5.79-14.15,5.82,14.13,14.69,1.37Z"/><polygon class="cls-5" points="1294.79 580.42 1302.88 585.44 1300.78 575.87 1307.85 569.4 1298.48 568.52 1294.77 559.51 1291.08 568.53 1281.71 569.43 1288.8 575.89 1286.72 585.46 1294.79 580.42"/><polygon class="cls-5" points="1374.43 373.54 1384.38 364.44 1371.19 363.2 1365.97 350.51 1360.77 363.22 1347.59 364.48 1357.57 373.56 1354.64 387.04 1366 379.94 1377.38 387.01 1374.43 373.54"/><path class="cls-5" d="M1295.07,408.81l16.17,10-4.2-19.13,14.15-12.95L1302.45,385,1295,367l-7.38,18-18.74,1.8,14.18,12.91-4.15,19.14Zm-14.58-18.07,10.44-1,4.11-10.05,4.13,10,10.44,1-7.88,7.2,2.34,10.66-9-5.59-9,5.61,2.32-10.66Z"/><path class="cls-5" d="M1389.55,490.41l-5.91-26.93,19.91-18.21-26.38-2.46-10.45-25.38-10.39,25.4L1330,445.36l20,18.17-5.84,26.94,22.72-14.18ZM1357.38,461l-11.11-10.11,14.69-1.41,5.78-14.15,5.82,14.13,14.69,1.38L1376.16,461l3.3,15-12.68-7.87-12.65,7.9Z"/><polygon class="cls-5" points="1294.65 460.38 1302.74 465.4 1300.64 455.83 1307.71 449.36 1298.34 448.49 1294.63 439.47 1290.93 448.5 1281.57 449.39 1288.66 455.85 1286.58 465.42 1294.65 460.38"/><path class="cls-5" d="M1295.58,847.13l-7.38,18-18.74,1.8,14.18,12.91L1279.48,899,1295.63,889l16.17,10-4.2-19.13,14.15-13L1303,865.16Zm14.59,23.72-7.88,7.21,2.34,10.66-9-5.59-9,5.61,2.31-10.66-7.89-7.19,10.43-1,4.12-10,4.13,10Z"/><polygon class="cls-5" points="1366.56 857.29 1361.36 870 1348.18 871.26 1358.15 880.35 1355.23 893.82 1366.59 886.73 1377.97 893.79 1375.02 880.32 1384.97 871.22 1371.78 869.99 1366.56 857.29"/><path class="cls-5" d="M1307.46,759.82l14.15-12.94-18.74-1.75-7.43-18-7.38,18.06-18.74,1.79,14.18,12.91L1279.34,779l16.15-10.08,16.17,10Zm-12,3.27-9,5.62L1288.8,758l-7.89-7.19,10.43-1,4.12-10.05,4.13,10,10.44,1-7.88,7.21,2.34,10.65Z"/><polygon class="cls-5" points="1295.05 799.58 1291.35 808.61 1281.98 809.51 1289.07 815.96 1287 825.53 1295.07 820.49 1303.15 825.51 1301.06 815.95 1308.13 809.47 1298.76 808.6 1295.05 799.58"/><path class="cls-5" d="M1367.11,755.28l-10.39,25.41-26.37,2.53,20,18.16-5.84,26.94,22.72-14.18,22.76,14.13L1384,801.34l19.91-18.22-26.37-2.46Zm20.54,33.39-11.09,10.14,3.29,15-12.68-7.87-12.65,7.9,3.25-15-11.11-10.12,14.69-1.41,5.79-14.15L1373,787.3Z"/><polygon class="cls-5" points="1294.93 700.46 1303.02 705.48 1300.92 695.91 1307.99 689.44 1298.62 688.56 1294.91 679.54 1291.21 688.57 1281.85 689.47 1288.93 695.92 1286.86 705.5 1294.93 700.46"/><polygon class="cls-5" points="1360.92 194.53 1347.73 195.79 1357.71 204.87 1354.79 218.34 1366.15 211.25 1377.53 218.31 1374.57 204.85 1384.53 195.74 1371.34 194.51 1366.11 181.82 1360.92 194.53"/><path class="cls-5" d="M1295.17,288.94l16.17,10-4.19-19.13,14.14-12.95-18.74-1.74-7.42-18-7.39,18.05L1269,267l14.18,12.91L1279,299Zm-14.58-18.07,10.44-1,4.11-10.05,4.14,10,10.43,1-7.87,7.2,2.33,10.66-9-5.59-9,5.61,2.31-10.66Z"/><path class="cls-5" d="M1389.69,321.72l-5.91-26.93,19.91-18.21-26.37-2.46-10.45-25.39-10.4,25.41-26.36,2.53,20,18.16-5.85,26.95,22.72-14.19Zm-32.17-29.43-11.11-10.11,14.69-1.41,5.79-14.15,5.82,14.13,14.69,1.37-11.09,10.15,3.29,15-12.68-7.86-12.65,7.9Z"/><polygon class="cls-5" points="1294.75 340.51 1302.84 345.53 1300.74 335.96 1307.81 329.49 1298.44 328.62 1294.73 319.6 1291.04 328.63 1281.67 329.52 1288.76 335.98 1286.68 345.55 1294.75 340.51"/><polygon class="cls-5" points="1360.92 19.97 1347.73 21.23 1357.71 30.31 1354.79 43.78 1366.15 36.69 1377.53 43.76 1374.57 30.29 1384.53 21.18 1371.34 19.95 1366.11 7.26 1360.92 19.97"/><path class="cls-5" d="M1295.17,164.9l16.17,10-4.19-19.13,14.14-12.94-18.74-1.75-7.42-18-7.39,18.06L1269,142.92l14.18,12.91L1279,175Zm-14.58-18.07,10.44-1,4.11-10.05,4.14,10,10.43,1-7.87,7.21,2.33,10.65-9-5.59-9,5.62,2.31-10.67Z"/><path class="cls-5" d="M1389.69,147.16l-5.91-26.93L1403.69,102l-26.37-2.46-10.45-25.39-10.4,25.41-26.36,2.53,20,18.16-5.85,27L1366.93,133Zm-32.17-29.43-11.11-10.11,14.69-1.41,5.79-14.15,5.82,14.13,14.69,1.37-11.09,10.15,3.29,15-12.68-7.87-12.65,7.9Z"/><polygon class="cls-5" points="1294.75 216.47 1302.84 221.49 1300.74 211.93 1307.81 205.45 1298.44 204.58 1294.73 195.56 1291.04 204.59 1281.67 205.49 1288.76 211.94 1286.68 221.51 1294.75 216.47"/><path class="cls-5" d="M1295.17,40.86l16.17,10-4.19-19.14,14.14-12.94-18.74-1.75-7.42-18-7.39,18.06L1269,18.88l14.18,12.91L1279,50.94ZM1280.59,22.8l10.44-1,4.11-10,4.14,10,10.43,1L1301.84,30l2.33,10.65-9-5.59-9,5.62L1288.49,30Z"/><polygon class="cls-5" points="1294.75 92.44 1302.84 97.45 1300.74 87.89 1307.81 81.41 1298.44 80.54 1294.73 71.52 1291.04 80.55 1281.67 81.45 1288.76 87.9 1286.68 97.47 1294.75 92.44"/><polygon class="cls-5" points="1506.85 548.87 1518.23 555.93 1515.28 542.47 1525.23 533.36 1512.04 532.13 1506.82 519.44 1501.62 532.14 1488.44 533.41 1498.41 542.49 1495.49 555.96 1506.85 548.87"/><path class="cls-5" d="M1435.86,528.84l16.17,10-4.2-19.14L1462,506.8l-18.74-1.75-7.43-18-7.38,18.05-18.74,1.8,14.18,12.9-4.15,19.15Zm-14.58-18.06,10.44-1,4.11-10.06,4.13,10,10.44,1-7.88,7.21,2.34,10.66-9-5.59-9,5.61,2.31-10.66Z"/><polygon class="cls-5" points="1507.01 688.37 1501.82 701.07 1488.63 702.34 1498.61 711.42 1495.68 724.89 1507.05 717.8 1518.42 724.86 1515.47 711.4 1525.42 702.29 1512.24 701.06 1507.01 688.37"/><path class="cls-5" d="M1436,648.88l16.17,10-4.2-19.14,14.15-12.94-18.74-1.75-7.43-18-7.38,18.06-18.74,1.79L1424,639.81,1419.85,659Zm-14.58-18.06,10.43-1,4.12-10.06,4.13,10,10.44,1-7.88,7.21,2.34,10.66-9-5.59-9,5.61,2.31-10.66Z"/><path class="cls-5" d="M1518,611.74l-10.45-25.39-10.39,25.41-26.37,2.53,20,18.16-5.85,26.95,22.73-14.19,22.75,14.13-5.9-26.93,19.9-18.21Zm-1,18.15,3.29,15L1507.63,637l-12.66,7.9,3.26-15-11.11-10.12,14.68-1.4,5.79-14.15,5.82,14.13,14.69,1.37Z"/><polygon class="cls-5" points="1435.44 580.42 1443.53 585.44 1441.43 575.87 1448.5 569.4 1439.13 568.52 1435.42 559.51 1431.72 568.53 1422.36 569.43 1429.44 575.89 1427.37 585.46 1435.44 580.42"/><polygon class="cls-5" points="1515.08 373.54 1525.03 364.44 1511.85 363.2 1506.62 350.51 1501.42 363.22 1488.24 364.48 1498.22 373.56 1495.29 387.04 1506.65 379.94 1518.03 387.01 1515.08 373.54"/><path class="cls-5" d="M1435.72,408.81l16.17,10-4.2-19.13,14.15-12.95L1443.1,385l-7.43-18-7.38,18-18.74,1.8,14.18,12.91-4.15,19.14Zm-14.58-18.07,10.44-1,4.11-10.05,4.14,10,10.43,1-7.88,7.2,2.34,10.66-9-5.59-9,5.61,2.32-10.66Z"/><path class="cls-5" d="M1530.2,490.41l-5.91-26.93,19.91-18.21-26.38-2.46-10.45-25.38L1497,442.83l-26.37,2.53,20,18.17-5.84,26.94,22.72-14.18ZM1498,461l-11.11-10.11,14.69-1.41,5.78-14.15,5.83,14.13,14.68,1.38L1516.82,461l3.29,15-12.68-7.87-12.65,7.9Z"/><polygon class="cls-5" points="1435.3 460.38 1443.39 465.4 1441.29 455.83 1448.36 449.36 1438.99 448.49 1435.28 439.47 1431.59 448.5 1422.22 449.39 1429.31 455.85 1427.23 465.42 1435.3 460.38"/><path class="cls-5" d="M1436.23,847.13l-7.38,18-18.74,1.8,14.18,12.91L1420.13,899,1436.28,889l16.17,10-4.2-19.13,14.15-13-18.74-1.75Zm14.59,23.72-7.88,7.21,2.34,10.66-9-5.59-9,5.61,2.31-10.66-7.89-7.19,10.43-1,4.12-10,4.13,10Z"/><polygon class="cls-5" points="1507.21 857.29 1502.01 870 1488.83 871.26 1498.8 880.35 1495.88 893.82 1507.24 886.73 1518.62 893.79 1515.67 880.32 1525.62 871.22 1512.43 869.99 1507.21 857.29"/><path class="cls-5" d="M1448.11,759.82l14.15-12.94-18.74-1.75-7.43-18-7.38,18.06L1410,746.94l14.18,12.91L1420,779l16.15-10.08,16.17,10Zm-12,3.27-9,5.62,2.31-10.67-7.89-7.19,10.43-1,4.12-10.05,4.13,10,10.44,1L1442.8,758l2.34,10.65Z"/><polygon class="cls-5" points="1435.7 799.58 1432 808.61 1422.64 809.51 1429.72 815.96 1427.65 825.53 1435.72 820.49 1443.81 825.51 1441.71 815.95 1448.78 809.47 1439.41 808.6 1435.7 799.58"/><path class="cls-5" d="M1507.76,755.28l-10.39,25.41L1471,783.22l20,18.16-5.85,26.94,22.72-14.18,22.76,14.13-5.91-26.93,19.91-18.22-26.37-2.46Zm20.54,33.39-11.09,10.14,3.29,15-12.68-7.87-12.65,7.9,3.25-15-11.11-10.12,14.69-1.41,5.79-14.15,5.82,14.14Z"/><polygon class="cls-5" points="1435.58 700.46 1443.67 705.48 1441.57 695.91 1448.64 689.44 1439.27 688.56 1435.56 679.54 1431.87 688.57 1422.5 689.47 1429.59 695.92 1427.51 705.5 1435.58 700.46"/><polygon class="cls-5" points="1501.57 194.53 1488.38 195.79 1498.36 204.87 1495.44 218.34 1506.8 211.25 1518.18 218.31 1515.22 204.85 1525.18 195.74 1511.99 194.51 1506.76 181.82 1501.57 194.53"/><path class="cls-5" d="M1435.82,288.94,1452,299l-4.19-19.13,14.14-12.95-18.74-1.74-7.42-18-7.39,18.05-18.74,1.8,14.18,12.91L1419.68,299Zm-14.58-18.07,10.44-1,4.11-10.05,4.14,10,10.43,1-7.87,7.2,2.33,10.66-9-5.59-9,5.61,2.31-10.66Z"/><path class="cls-5" d="M1530.34,321.72l-5.91-26.93,19.91-18.21L1518,274.12l-10.45-25.39-10.4,25.41-26.36,2.53,20,18.16-5.85,26.95,22.72-14.19Zm-32.17-29.43-11.11-10.11,14.69-1.41,5.79-14.15,5.82,14.13,14.69,1.37L1517,292.27l3.29,15-12.67-7.86-12.66,7.9Z"/><polygon class="cls-5" points="1435.4 340.51 1443.49 345.53 1441.39 335.96 1448.46 329.49 1439.09 328.62 1435.38 319.6 1431.69 328.63 1422.32 329.52 1429.41 335.98 1427.33 345.55 1435.4 340.51"/><polygon class="cls-5" points="1501.57 19.97 1488.38 21.23 1498.36 30.31 1495.44 43.78 1506.8 36.69 1518.18 43.76 1515.22 30.29 1525.18 21.18 1511.99 19.95 1506.76 7.26 1501.57 19.97"/><path class="cls-5" d="M1435.82,164.9l16.17,10-4.19-19.13,14.14-12.94-18.74-1.75-7.42-18-7.39,18.06-18.74,1.79,14.18,12.91L1419.68,175Zm-14.58-18.07,10.44-1,4.11-10.05,4.14,10,10.43,1-7.87,7.21,2.33,10.65-9-5.59-9,5.62,2.31-10.67Z"/><path class="cls-5" d="M1530.34,147.16l-5.91-26.93L1544.34,102,1518,99.56l-10.45-25.39-10.4,25.41-26.36,2.53,20,18.16-5.85,27L1507.58,133Zm-32.17-29.43-11.11-10.11,14.69-1.41,5.79-14.15,5.82,14.13,14.69,1.37L1517,117.71l3.29,15-12.67-7.87-12.66,7.9Z"/><polygon class="cls-5" points="1435.4 216.47 1443.49 221.49 1441.39 211.93 1448.46 205.45 1439.09 204.58 1435.38 195.56 1431.69 204.59 1422.32 205.49 1429.41 211.94 1427.33 221.51 1435.4 216.47"/><path class="cls-5" d="M1435.82,40.86l16.17,10-4.19-19.14,14.14-12.94-18.74-1.75-7.42-18-7.39,18.06-18.74,1.79,14.18,12.91-4.15,19.15ZM1421.24,22.8l10.44-1,4.11-10,4.14,10,10.43,1L1442.49,30l2.33,10.65-9-5.59-9,5.62L1429.14,30Z"/><polygon class="cls-5" points="1435.4 92.44 1443.49 97.45 1441.39 87.89 1448.46 81.41 1439.09 80.54 1435.38 71.52 1431.69 80.55 1422.32 81.45 1429.41 87.9 1427.33 97.47 1435.4 92.44"/><path class="cls-5" d="M1576.51,528.84l16.17,10-4.2-19.14,14.15-12.94-18.74-1.75-7.43-18-7.38,18.05-18.74,1.8,14.18,12.9-4.15,19.15Zm-14.58-18.06,10.44-1,4.11-10.06,4.13,10,10.44,1-7.88,7.21,2.34,10.66-9-5.59-9,5.61,2.32-10.66Z"/><path class="cls-5" d="M1576.65,648.88l16.17,10-4.2-19.14,14.15-12.94L1584,625.09l-7.43-18-7.38,18.06-18.74,1.79,14.18,12.91L1560.51,659Zm-14.58-18.06,10.43-1,4.12-10.06,4.13,10,10.44,1-7.88,7.21,2.34,10.66-9-5.59-9,5.61L1570,638Z"/><polygon class="cls-5" points="1576.09 580.42 1584.18 585.44 1582.08 575.87 1589.15 569.4 1579.78 568.52 1576.07 559.51 1572.38 568.53 1563.01 569.43 1570.1 575.89 1568.02 585.46 1576.09 580.42"/><path class="cls-5" d="M1576.37,408.81l16.17,10-4.2-19.13,14.15-12.95L1583.75,385l-7.43-18-7.38,18-18.74,1.8,14.18,12.91-4.15,19.14Zm-14.58-18.07,10.44-1,4.11-10.05,4.14,10,10.43,1-7.88,7.2,2.34,10.66-9-5.59-9,5.61,2.32-10.66Z"/><polygon class="cls-5" points="1575.95 460.38 1584.04 465.4 1581.94 455.83 1589.01 449.36 1579.64 448.49 1575.93 439.47 1572.24 448.5 1562.87 449.39 1569.96 455.85 1567.88 465.42 1575.95 460.38"/><path class="cls-5" d="M1576.88,847.13l-7.38,18-18.74,1.8,14.18,12.91L1560.78,899,1576.93,889l16.17,10-4.2-19.13,14.15-13-18.74-1.75Zm14.59,23.72-7.88,7.21,2.34,10.66-9-5.59-9,5.61,2.31-10.66-7.89-7.19,10.43-1,4.12-10,4.13,10Z"/><path class="cls-5" d="M1588.76,759.82l14.15-12.94-18.74-1.75-7.43-18-7.38,18.06-18.74,1.79,14.18,12.91L1560.64,779l16.15-10.08L1593,779Zm-12,3.27-9,5.62L1570.1,758l-7.89-7.19,10.43-1,4.12-10.05,4.13,10,10.44,1-7.88,7.21,2.34,10.65Z"/><polygon class="cls-5" points="1576.35 799.58 1572.65 808.61 1563.29 809.51 1570.38 815.96 1568.3 825.53 1576.37 820.49 1584.46 825.51 1582.36 815.95 1589.43 809.47 1580.06 808.6 1576.35 799.58"/><polygon class="cls-5" points="1576.23 700.46 1584.32 705.48 1582.22 695.91 1589.29 689.44 1579.92 688.56 1576.21 679.54 1572.52 688.57 1563.15 689.47 1570.23 695.92 1568.16 705.5 1576.23 700.46"/><path class="cls-5" d="M1576.47,288.94l16.17,10-4.19-19.13,14.14-12.95-18.74-1.74-7.42-18L1569,265.16l-18.73,1.8,14.17,12.91L1560.33,299Zm-14.58-18.07,10.44-1,4.11-10.05,4.14,10,10.43,1-7.87,7.2,2.33,10.66-9-5.59-9,5.61,2.31-10.66Z"/><polygon class="cls-5" points="1576.06 340.51 1584.14 345.53 1582.04 335.96 1589.12 329.49 1579.74 328.62 1576.03 319.6 1572.34 328.63 1562.97 329.52 1570.06 335.98 1567.98 345.55 1576.06 340.51"/><path class="cls-5" d="M1576.47,164.9l16.17,10-4.19-19.13,14.14-12.94-18.74-1.75-7.42-18L1569,141.13l-18.73,1.79,14.17,12.91L1560.33,175Zm-14.58-18.07,10.44-1,4.11-10.05,4.14,10,10.43,1-7.87,7.21,2.33,10.65-9-5.59-9,5.62,2.31-10.67Z"/><polygon class="cls-5" points="1576.06 216.47 1584.14 221.49 1582.04 211.93 1589.12 205.45 1579.74 204.58 1576.03 195.56 1572.34 204.59 1562.97 205.49 1570.06 211.94 1567.98 221.51 1576.06 216.47"/><path class="cls-5" d="M1576.47,40.86l16.17,10-4.19-19.14,14.14-12.94-18.74-1.75-7.42-18L1569,17.09l-18.73,1.79,14.17,12.91-4.15,19.15ZM1561.89,22.8l10.44-1,4.11-10,4.14,10,10.43,1L1583.14,30l2.33,10.65-9-5.59-9,5.62L1569.79,30Z"/><polygon class="cls-5" points="1576.06 92.44 1584.14 97.45 1582.04 87.89 1589.12 81.41 1579.74 80.54 1576.03 71.52 1572.34 80.55 1562.97 81.45 1570.06 87.9 1567.98 97.47 1576.06 92.44"/></g></g></g></g></svg>