<svg id="Layer_1" data-name="Layer 1" xmlns="http://www.w3.org/2000/svg" viewBox="0 0 207 85.79"><defs><style>.cls-1{fill:#72331d;}</style></defs><path class="cls-1" d="M81.2,52.84c0-.2-.06-.43-.1-.7s-.07-.5-.1-.8-.07-.66-.11-1.1a9.11,9.11,0,0,1-3.3,2.48,10.37,10.37,0,0,1-4,.72,10,10,0,0,1-4-.77,8.71,8.71,0,0,1-3-2.15,9.82,9.82,0,0,1-2-3.33,12.72,12.72,0,0,1-.7-4.35,14.9,14.9,0,0,1,.83-5.05,12.07,12.07,0,0,1,2.3-4,10.19,10.19,0,0,1,3.52-2.6,10.79,10.79,0,0,1,4.5-.93,15.52,15.52,0,0,1,2.2.15,13.05,13.05,0,0,1,2.45.65V18H86.4V45.24c0,.57,0,1.29.08,2.15s.1,1.7.17,2.5.15,1.92.25,3ZM79.75,36.79a7.59,7.59,0,0,0-1.84-.5,17.45,17.45,0,0,0-1.8-.1,5,5,0,0,0-4,1.73,7,7,0,0,0-1.48,4.72,5.17,5.17,0,0,0,1,3.43,3.54,3.54,0,0,0,2.86,1.22,5.77,5.77,0,0,0,2-.35,3.82,3.82,0,0,0,1.67-1.2,6.24,6.24,0,0,0,1.11-2.22,11.93,11.93,0,0,0,.42-3.43Z"/><path class="cls-1" d="M115.65,41.77a12.66,12.66,0,0,1-.82,4.74A9.55,9.55,0,0,1,112.49,50a9.94,9.94,0,0,1-3.64,2.14,15.5,15.5,0,0,1-9.4,0A9.94,9.94,0,0,1,95.81,50a9.72,9.72,0,0,1-2.36-3.46,12.26,12.26,0,0,1-.85-4.74,12.15,12.15,0,0,1,.82-4.61,9.53,9.53,0,0,1,6-5.59,14.94,14.94,0,0,1,4.78-.73,14.77,14.77,0,0,1,4.7.71,9.87,9.87,0,0,1,3.64,2.1,9.22,9.22,0,0,1,2.34,3.44A12.41,12.41,0,0,1,115.65,41.77Zm-6.65,0a4.62,4.62,0,0,0-5-5,4.64,4.64,0,0,0-3.56,1.33,5.2,5.2,0,0,0-1.24,3.71,5.51,5.51,0,0,0,1.21,3.82,4.62,4.62,0,0,0,3.59,1.34,4.88,4.88,0,0,0,3.66-1.32A5.27,5.27,0,0,0,109,41.78Z"/><path class="cls-1" d="M143.05,53.54a23.38,23.38,0,0,1-.84,6.78,11.72,11.72,0,0,1-2.3,4.37,8.45,8.45,0,0,1-3.44,2.38,12.71,12.71,0,0,1-4.34.72,37.7,37.7,0,0,1-4.46-.27,16,16,0,0,1-4.21-1.08v-5a27.29,27.29,0,0,0,3.82,1.08,16.72,16.72,0,0,0,3.23.37,5.53,5.53,0,0,0,2.39-.5,4.62,4.62,0,0,0,1.86-1.6,8.2,8.2,0,0,0,1.21-2.9,18.8,18.8,0,0,0,.43-4.35v-2.2A7.58,7.58,0,0,1,133.55,53a11.61,11.61,0,0,1-3.1.37,9.83,9.83,0,0,1-3.9-.75,8.48,8.48,0,0,1-3-2.1,9.58,9.58,0,0,1-1.9-3.27,12.86,12.86,0,0,1-.67-4.28,12.7,12.7,0,0,1,1-5.22,11.19,11.19,0,0,1,3-4,13.27,13.27,0,0,1,4.67-2.52,20.31,20.31,0,0,1,6.18-.88c.71,0,1.34,0,1.88,0s1.07.06,1.59.12,1.08.16,1.68.28,1.27.27,2.05.47Zm-6.65-16.7c-.58-.1-1-.16-1.31-.2s-.68,0-1.16,0a6.36,6.36,0,0,0-4.61,1.63,6,6,0,0,0-1.67,4.47,4.23,4.23,0,0,0,1.11,3.15,3.7,3.7,0,0,0,2.75,1.1,7.64,7.64,0,0,0,1.8-.2,3.14,3.14,0,0,0,1.57-.9,5,5,0,0,0,1.11-2,12.65,12.65,0,0,0,.41-3.58Z"/></svg>