<svg id="Layer_1" data-name="Layer 1" xmlns="http://www.w3.org/2000/svg" viewBox="0 0 207 85.79"><defs><style>.cls-1{fill:#72331d;}</style></defs><path class="cls-1" d="M80.43,59.69V47.26a6.64,6.64,0,0,0-.23-1.93,2.69,2.69,0,0,0-.64-1.11,2.05,2.05,0,0,0-.92-.51,4.68,4.68,0,0,0-1.07-.12,3,3,0,0,0-1.66.51,5.23,5.23,0,0,0-1.41,1.37,7.81,7.81,0,0,0-1,2.05A7.91,7.91,0,0,0,73.13,50v9.68H66.48V25.44h6.6V40.19a7.52,7.52,0,0,1,2.76-1.92,9.22,9.22,0,0,1,3.35-.58,10.7,10.7,0,0,1,2.88.39,7.42,7.42,0,0,1,2.52,1.24,6.28,6.28,0,0,1,1.79,2.27,7.66,7.66,0,0,1,.7,3.45V59.69Z"/><path class="cls-1" d="M114.22,43.74a5.66,5.66,0,0,1-.88,3.1,7.47,7.47,0,0,1-2.51,2.38,13.62,13.62,0,0,1-3.9,1.52,21.46,21.46,0,0,1-5.09.55c-.18,0-.38,0-.6,0s-.5,0-.82,0a4.68,4.68,0,0,0,1.5,3,4.76,4.76,0,0,0,3.24,1.07A14.85,14.85,0,0,0,112.53,53v5.25a14.51,14.51,0,0,1-3.63,1.58,15,15,0,0,1-3.93.47,13,13,0,0,1-4.52-.75A9.15,9.15,0,0,1,97,57.42,9.57,9.57,0,0,1,94.88,54a12.56,12.56,0,0,1-.76-4.48,14,14,0,0,1,.88-5,11.62,11.62,0,0,1,2.45-3.93A10.84,10.84,0,0,1,101.22,38a12.74,12.74,0,0,1,4.86-.9,9.13,9.13,0,0,1,5.92,1.8A5.87,5.87,0,0,1,114.22,43.74Zm-6.64.5a1.73,1.73,0,0,0-.69-1.37,2.62,2.62,0,0,0-1.73-.58,4,4,0,0,0-2.85,1.18,5.55,5.55,0,0,0-1.53,3.22,3.84,3.84,0,0,0,.79.1h.74Q107.57,46.79,107.58,44.24Z"/><path class="cls-1" d="M133.88,59.69V47.21a5,5,0,0,0-.33-2,2.76,2.76,0,0,0-.78-1.09,1.87,1.87,0,0,0-.94-.43,6.09,6.09,0,0,0-.86-.08,5.07,5.07,0,0,0-1.05.2,3.64,3.64,0,0,0-1.52.91A6.28,6.28,0,0,0,127,46.82a9.75,9.75,0,0,0-.6,3.76v9.11h-6.65V45.15a24.78,24.78,0,0,0-.3-3.79,12.12,12.12,0,0,0-.8-3.07h6.66a11,11,0,0,1,.42,1.15c.08.3.17.74.27,1.3a10.51,10.51,0,0,1,3.43-2.3,9.93,9.93,0,0,1,3.73-.75,7.24,7.24,0,0,1,2.91.59,6.86,6.86,0,0,1,2.33,1.63A7.51,7.51,0,0,1,140,42.49a9.76,9.76,0,0,1,.56,3.43V59.69Z"/></svg>