<svg id="Layer_1" data-name="Layer 1" xmlns="http://www.w3.org/2000/svg" viewBox="0 0 207 85.79"><defs><style>.cls-1{fill:#72331d;}</style></defs><path class="cls-1" d="M58.75,59.64V47.21a6.31,6.31,0,0,0-.23-1.93,2.49,2.49,0,0,0-.64-1.11,2.05,2.05,0,0,0-.92-.51,4.62,4.62,0,0,0-1.07-.12,3,3,0,0,0-1.66.51,5.34,5.34,0,0,0-1.4,1.37,7.67,7.67,0,0,0-1,2A8.19,8.19,0,0,0,51.45,50v9.69H44.8V25.39h6.6V40.14a7.68,7.68,0,0,1,2.76-1.92,9.32,9.32,0,0,1,3.36-.58A10.75,10.75,0,0,1,60.4,38a7.46,7.46,0,0,1,2.51,1.24,6.31,6.31,0,0,1,1.8,2.27A7.8,7.8,0,0,1,65.4,45V59.64Z"/><path class="cls-1" d="M95.3,48.57a12.66,12.66,0,0,1-.82,4.74,9.55,9.55,0,0,1-2.34,3.46,9.94,9.94,0,0,1-3.64,2.14,15.5,15.5,0,0,1-9.4,0,10,10,0,0,1-3.64-2.14,9.72,9.72,0,0,1-2.36-3.46,13.51,13.51,0,0,1,0-9.35,9.53,9.53,0,0,1,6-5.59,14.94,14.94,0,0,1,4.78-.73,14.77,14.77,0,0,1,4.7.71,9.87,9.87,0,0,1,3.64,2.1,9.22,9.22,0,0,1,2.34,3.44A12.41,12.41,0,0,1,95.3,48.57Zm-6.65,0a4.62,4.62,0,0,0-5-5,4.64,4.64,0,0,0-3.56,1.33,5.2,5.2,0,0,0-1.24,3.71,5.51,5.51,0,0,0,1.21,3.82,4.62,4.62,0,0,0,3.59,1.34,4.88,4.88,0,0,0,3.66-1.32A5.29,5.29,0,0,0,88.65,48.58Z"/><path class="cls-1" d="M116.75,43.79c-.47-.1-.83-.16-1.1-.2a8.12,8.12,0,0,0-.9-.05,5.09,5.09,0,0,0-4.33,2A9.55,9.55,0,0,0,109,51.3v8.34H102.3V45.2q0-1.22,0-2.13a14.76,14.76,0,0,0-.12-1.69c-.07-.52-.16-1-.28-1.54s-.27-1.08-.47-1.73h6.31c.1.41.2.76.29,1a7.2,7.2,0,0,1,.18.82c0,.25.06.53.1.82a10.26,10.26,0,0,1,0,1.05,11.49,11.49,0,0,1,2.84-3.26,5.5,5.5,0,0,1,3.18-1,4.73,4.73,0,0,1,1.17.13,12.05,12.05,0,0,1,1.33.49Z"/><path class="cls-1" d="M136.75,53.54a6.3,6.3,0,0,1-2.12,5,8.74,8.74,0,0,1-6,1.85,24.49,24.49,0,0,1-5.07-.5,14.72,14.72,0,0,1-4-1.35l.85-5.1a17.05,17.05,0,0,0,7.6,2.25,2.14,2.14,0,0,0,1.57-.47,1.49,1.49,0,0,0,.48-1.08,1.91,1.91,0,0,0-.37-1.22,5.7,5.7,0,0,0-1.83-1.18,30.23,30.23,0,0,1-3.53-1.8A11.48,11.48,0,0,1,122,48.07,6.38,6.38,0,0,1,120.62,46a6.93,6.93,0,0,1-.42-2.5,5.63,5.63,0,0,1,2.42-4.87,10.61,10.61,0,0,1,6.31-1.73,19.16,19.16,0,0,1,3.73.33,17.51,17.51,0,0,1,3.73,1.27l-.8,5a12,12,0,0,0-3.43-1.37,15.47,15.47,0,0,0-3.29-.38,2.29,2.29,0,0,0-1.59.43,1.49,1.49,0,0,0-.43,1.12,1.65,1.65,0,0,0,.69,1.38,13.47,13.47,0,0,0,2.66,1.37,29.91,29.91,0,0,1,3,1.73,10.7,10.7,0,0,1,2.05,1.7,5.25,5.25,0,0,1,1.13,1.85A6.46,6.46,0,0,1,136.75,53.54Z"/><path class="cls-1" d="M162.2,43.69a5.66,5.66,0,0,1-.89,3.1,7.38,7.38,0,0,1-2.51,2.38,13.67,13.67,0,0,1-3.89,1.52,21.61,21.61,0,0,1-5.1.55c-.17,0-.37,0-.6,0s-.5,0-.81,0a4.58,4.58,0,0,0,1.5,3,4.72,4.72,0,0,0,3.23,1.07A14.82,14.82,0,0,0,160.5,53v5.25a14.2,14.2,0,0,1-3.63,1.58,15.43,15.43,0,0,1-3.92.47,13,13,0,0,1-4.53-.75A9.15,9.15,0,0,1,145,57.37a9.72,9.72,0,0,1-2.15-3.4,12.56,12.56,0,0,1-.75-4.48,14,14,0,0,1,.87-5,11.78,11.78,0,0,1,2.45-3.93A10.79,10.79,0,0,1,149.2,38a12.69,12.69,0,0,1,4.85-.9,9.11,9.11,0,0,1,5.92,1.8A5.85,5.85,0,0,1,162.2,43.69Zm-6.65.5a1.73,1.73,0,0,0-.69-1.37,2.59,2.59,0,0,0-1.72-.58,4,4,0,0,0-2.86,1.18,5.61,5.61,0,0,0-1.53,3.22,3.92,3.92,0,0,0,.79.1h.74Q155.54,46.74,155.55,44.19Z"/></svg>