<svg id="Layer_1" data-name="Layer 1" xmlns="http://www.w3.org/2000/svg" viewBox="0 0 207 85.79"><defs><style>.cls-1{fill:#72331d;}</style></defs><path class="cls-1" d="M64.53,60.32V25.47h6.65V60.32Z"/><path class="cls-1" d="M86.68,32.28a2.77,2.77,0,0,1-1.15,2.23,4.35,4.35,0,0,1-2.75.91,4.3,4.3,0,0,1-2.8-.93,3,3,0,0,1-1.2-2.3,2.68,2.68,0,0,1,1.1-2.29,4.44,4.44,0,0,1,2.9-.93,4.37,4.37,0,0,1,1.47.25,4.1,4.1,0,0,1,1.25.7A3.65,3.65,0,0,1,86.35,31,2.76,2.76,0,0,1,86.68,32.28Zm-7.5,28v-22h6.65v22Z"/><path class="cls-1" d="M115.22,49.25A12.57,12.57,0,0,1,114.4,54a9.34,9.34,0,0,1-2.34,3.47,10.13,10.13,0,0,1-3.63,2.14,15.53,15.53,0,0,1-9.41,0,10.13,10.13,0,0,1-3.63-2.14A9.66,9.66,0,0,1,93,54a12.36,12.36,0,0,1-.85-4.73A12.16,12.16,0,0,1,93,44.63a9.62,9.62,0,0,1,2.31-3.44A9.92,9.92,0,0,1,99,39.05a16,16,0,0,1,9.48,0,10,10,0,0,1,3.63,2.09,9.15,9.15,0,0,1,2.34,3.44A12.5,12.5,0,0,1,115.22,49.25Zm-6.64,0a5,5,0,0,0-1.35-3.71,4.92,4.92,0,0,0-3.61-1.32,4.66,4.66,0,0,0-3.56,1.32,5.26,5.26,0,0,0-1.23,3.71A5.51,5.51,0,0,0,100,53.07a4.55,4.55,0,0,0,3.58,1.35,4.89,4.89,0,0,0,3.67-1.33A5.32,5.32,0,0,0,108.58,49.25Z"/><path class="cls-1" d="M135.82,60.32V47.83a5,5,0,0,0-.32-2,3,3,0,0,0-.78-1.09,2,2,0,0,0-.95-.43,5.68,5.68,0,0,0-.85-.07,4.85,4.85,0,0,0-1,.19,3.67,3.67,0,0,0-1.52.92A6.18,6.18,0,0,0,129,47.45a9.68,9.68,0,0,0-.6,3.76v9.11h-6.65V45.78a24.91,24.91,0,0,0-.3-3.8,12,12,0,0,0-.8-3.06h6.65a9.37,9.37,0,0,1,.43,1.15c.08.3.17.73.27,1.3a10.51,10.51,0,0,1,3.43-2.3,9.89,9.89,0,0,1,3.73-.75,7.24,7.24,0,0,1,2.91.58,7.1,7.1,0,0,1,2.33,1.63,7.51,7.51,0,0,1,1.54,2.58,9.83,9.83,0,0,1,.56,3.43V60.32Z"/></svg>