<svg id="Layer_1" data-name="Layer 1" xmlns="http://www.w3.org/2000/svg" viewBox="0 0 207 85.79"><defs><style>.cls-1{fill:#72331d;}</style></defs><path class="cls-1" d="M88.75,49.25A12.57,12.57,0,0,1,87.93,54a9.46,9.46,0,0,1-2.34,3.46A10,10,0,0,1,82,59.59a15.5,15.5,0,0,1-9.4,0,10,10,0,0,1-3.64-2.15A9.63,9.63,0,0,1,66.55,54a13.51,13.51,0,0,1,0-9.35,9.64,9.64,0,0,1,2.32-3.44,9.79,9.79,0,0,1,3.63-2.14,14.67,14.67,0,0,1,4.78-.73A14.49,14.49,0,0,1,82,39a9.85,9.85,0,0,1,3.64,2.09,9.3,9.3,0,0,1,2.34,3.44A12.5,12.5,0,0,1,88.75,49.25Zm-6.65,0a5,5,0,0,0-1.34-3.71,4.94,4.94,0,0,0-3.61-1.32,4.63,4.63,0,0,0-3.56,1.32,5.22,5.22,0,0,0-1.24,3.71,5.51,5.51,0,0,0,1.21,3.82,4.59,4.59,0,0,0,3.59,1.35,4.88,4.88,0,0,0,3.66-1.32A5.32,5.32,0,0,0,82.1,49.25Z"/><path class="cls-1" d="M122.25,57.87a3.81,3.81,0,0,1-1.32,1.89,4.07,4.07,0,0,1-2.28.56,3.77,3.77,0,0,1-2.3-.61,4.3,4.3,0,0,1-1.3-2l-4.25-13-4.45,13.22a3.25,3.25,0,0,1-1.28,1.83,4.37,4.37,0,0,1-2.37.56,8.67,8.67,0,0,1-1-.07,3,3,0,0,1-1-.32,2.66,2.66,0,0,1-.85-.78,5.08,5.08,0,0,1-.7-1.42l-7-19.41H98.9l2.9,8.88c.1.32.21.7.32,1.14s.25.87.38,1.3.28,1,.45,1.56a10.3,10.3,0,0,1,.3-1.22c.1-.36.21-.74.32-1.15s.23-.79.33-1.14l2.8-9.37h8.1l3,9.8c.07.3.16.61.27,1s.23.67.33,1a6.57,6.57,0,0,1,.3,1.12c.1-.33.2-.67.3-1,.17-.65.35-1.27.55-1.85l3-10h7Z"/><path class="cls-1" d="M134.65,60.32V25.47h6.65V60.32Z"/></svg>