<svg id="Layer_1" data-name="Layer 1" xmlns="http://www.w3.org/2000/svg" viewBox="0 0 207 85.79"><defs><style>.cls-1{fill:#72331d;}</style></defs><path class="cls-1" d="M59.1,46.47a6.3,6.3,0,0,1-2.12,5A8.78,8.78,0,0,1,51,53.32a25.23,25.23,0,0,1-5.08-.5,14.72,14.72,0,0,1-4-1.35l.85-5.1a17.05,17.05,0,0,0,7.6,2.25A2.18,2.18,0,0,0,52,48.14a1.48,1.48,0,0,0,.47-1.07,1.94,1.94,0,0,0-.37-1.23,5.91,5.91,0,0,0-1.83-1.17,29.25,29.25,0,0,1-3.52-1.8A11.32,11.32,0,0,1,44.33,41,6.25,6.25,0,0,1,43,38.92a6.76,6.76,0,0,1-.43-2.5A5.65,5.65,0,0,1,45,31.54a10.63,10.63,0,0,1,6.31-1.72,20,20,0,0,1,3.73.32,17.67,17.67,0,0,1,3.74,1.28l-.81,5a11.76,11.76,0,0,0-3.43-1.38,15.43,15.43,0,0,0-3.29-.37,2.3,2.3,0,0,0-1.59.42,1.51,1.51,0,0,0-.43,1.13,1.63,1.63,0,0,0,.69,1.37A13.92,13.92,0,0,0,52.55,39a30,30,0,0,1,3,1.72,10.7,10.7,0,0,1,2.05,1.7,5.34,5.34,0,0,1,1.13,1.85A6.52,6.52,0,0,1,59.1,46.47Z"/><path class="cls-1" d="M79.45,52.57V40.13a6.73,6.73,0,0,0-.23-1.93,2.49,2.49,0,0,0-.64-1.1,2,2,0,0,0-.92-.51,4.62,4.62,0,0,0-1.07-.12,3.09,3.09,0,0,0-1.66.5,5.09,5.09,0,0,0-1.4,1.38,7.67,7.67,0,0,0-1,2,8.09,8.09,0,0,0-.38,2.48v9.69H65.5V18.32h6.6V33.07a7.85,7.85,0,0,1,2.76-1.93,9.27,9.27,0,0,1,3.35-.57A10.77,10.77,0,0,1,81.1,31a7.28,7.28,0,0,1,2.51,1.24,6.27,6.27,0,0,1,1.8,2.26,7.82,7.82,0,0,1,.69,3.46V52.57Z"/><path class="cls-1" d="M113.25,36.62a5.69,5.69,0,0,1-.89,3.1,7.45,7.45,0,0,1-2.51,2.37A14,14,0,0,1,106,43.62a21.61,21.61,0,0,1-5.1.55l-.6,0-.81,0a4.53,4.53,0,0,0,1.5,3,4.72,4.72,0,0,0,3.23,1.08,14.82,14.82,0,0,0,7.37-2.25v5.25a14.16,14.16,0,0,1-3.63,1.57,15,15,0,0,1-3.92.48,13,13,0,0,1-4.53-.75,9.17,9.17,0,0,1-3.42-2.18,9.72,9.72,0,0,1-2.15-3.4,12.47,12.47,0,0,1-.75-4.47,14,14,0,0,1,.87-5,11.84,11.84,0,0,1,2.45-3.92,10.79,10.79,0,0,1,3.78-2.55,12.69,12.69,0,0,1,4.85-.9,9.11,9.11,0,0,1,5.92,1.8A5.85,5.85,0,0,1,113.25,36.62Zm-6.65.5a1.76,1.76,0,0,0-.69-1.38,2.59,2.59,0,0,0-1.72-.57,4,4,0,0,0-2.86,1.17,5.64,5.64,0,0,0-1.53,3.23,3.92,3.92,0,0,0,.79.1h.74Q106.6,39.67,106.6,37.12Z"/><path class="cls-1" d="M137.8,36.62a5.69,5.69,0,0,1-.89,3.1,7.45,7.45,0,0,1-2.51,2.37,14,14,0,0,1-3.89,1.53,21.61,21.61,0,0,1-5.1.55l-.6,0-.81,0a4.53,4.53,0,0,0,1.5,3,4.72,4.72,0,0,0,3.23,1.08,14.82,14.82,0,0,0,7.37-2.25v5.25a14.16,14.16,0,0,1-3.63,1.57,15,15,0,0,1-3.92.48,13,13,0,0,1-4.53-.75,9.17,9.17,0,0,1-3.42-2.18,9.72,9.72,0,0,1-2.15-3.4,12.47,12.47,0,0,1-.75-4.47,14,14,0,0,1,.87-5A11.84,11.84,0,0,1,121,33.47a10.79,10.79,0,0,1,3.78-2.55,12.69,12.69,0,0,1,4.85-.9,9.11,9.11,0,0,1,5.92,1.8A5.85,5.85,0,0,1,137.8,36.62Zm-6.65.5a1.76,1.76,0,0,0-.69-1.38,2.59,2.59,0,0,0-1.72-.57,4,4,0,0,0-2.86,1.17,5.64,5.64,0,0,0-1.53,3.23,3.92,3.92,0,0,0,.79.1h.74Q131.14,39.67,131.15,37.12Z"/><path class="cls-1" d="M165.05,40.27a16.74,16.74,0,0,1-.7,5,12.17,12.17,0,0,1-2,3.89,9,9,0,0,1-3,2.52,8.49,8.49,0,0,1-3.88.89,8.39,8.39,0,0,1-2.62-.35,7.63,7.63,0,0,1-2.24-1.29V67.47h-7V37.16c0-.36,0-.78-.08-1.28s-.11-1-.2-1.54-.18-1.08-.3-1.62a10.2,10.2,0,0,0-.42-1.5h6.78a5.68,5.68,0,0,1,.36,1,12.29,12.29,0,0,1,.21,1.38,10.73,10.73,0,0,1,3-2.3,7.93,7.93,0,0,1,3.45-.7,8.58,8.58,0,0,1,3.52.7,7.78,7.78,0,0,1,2.73,2,9,9,0,0,1,1.76,3.08A11.92,11.92,0,0,1,165.05,40.27Zm-6.65,1.11a4.71,4.71,0,0,0-1-3.21A3.41,3.41,0,0,0,154.66,37a3.92,3.92,0,0,0-3.22,1.47,6.12,6.12,0,0,0-1.19,3.95v2.9a5.3,5.3,0,0,0,3.54,1.33,4.27,4.27,0,0,0,3.37-1.4A5.66,5.66,0,0,0,158.4,41.38Z"/></svg>