<svg xmlns="http://www.w3.org/2000/svg" xmlns:xlink="http://www.w3.org/1999/xlink" viewBox="0 0 403.3 156.04"><defs><style>.cls-1{isolation:isolate;}.cls-2,.cls-27{fill:#6eaf35;}.cls-2,.cls-20,.cls-24,.cls-4,.cls-6,.cls-7,.cls-9{stroke:#000;stroke-miterlimit:10;}.cls-2,.cls-20,.cls-4,.cls-6,.cls-7,.cls-9{stroke-width:0.25px;}.cls-3{fill:#476827;}.cls-11,.cls-12,.cls-13,.cls-14,.cls-15,.cls-16,.cls-17,.cls-18,.cls-19,.cls-24,.cls-25,.cls-3,.cls-5,.cls-6,.cls-9{mix-blend-mode:multiply;}.cls-10,.cls-21,.cls-24,.cls-25,.cls-3,.cls-5,.cls-6{opacity:0.3;}.cls-4{fill:#95ce57;}.cls-5,.cls-6{fill:#5f8227;}.cls-7{fill:url(#linear-gradient);}.cls-11,.cls-27,.cls-8{opacity:0.4;}.cls-8{fill:url(#linear-gradient-2);}.cls-9{opacity:0.2;fill:url(#linear-gradient-3);}.cls-10{fill:url(#linear-gradient-4);}.cls-11{fill:url(#linear-gradient-5);}.cls-12,.cls-13,.cls-14,.cls-15,.cls-16,.cls-17,.cls-18,.cls-19,.cls-22{opacity:0.5;}.cls-12{fill:url(#linear-gradient-6);}.cls-13{fill:url(#linear-gradient-7);}.cls-14{fill:url(#linear-gradient-8);}.cls-15{fill:url(#linear-gradient-9);}.cls-16{fill:url(#linear-gradient-10);}.cls-17{fill:url(#linear-gradient-11);}.cls-18{fill:url(#linear-gradient-12);}.cls-19{fill:url(#linear-gradient-13);}.cls-20,.cls-21,.cls-22{fill:#f78116;}.cls-21,.cls-22,.cls-27{mix-blend-mode:screen;}.cls-23{fill:url(#linear-gradient-14);}.cls-24,.cls-25{fill:#b76420;}.cls-24{stroke-width:0.5px;}.cls-26{fill:#733c2d;}.cls-28{fill:url(#linear-gradient-15);}</style><linearGradient id="linear-gradient" x1="-1279.36" y1="-124.95" x2="-1345.26" y2="-116.76" gradientTransform="translate(133.34 -1191.59) rotate(-98.24)" gradientUnits="userSpaceOnUse"><stop offset="0" stop-color="#fc7300"/><stop offset="1" stop-color="#fc5100"/></linearGradient><linearGradient id="linear-gradient-2" x1="-1289.21" y1="-123.73" x2="-1346.07" y2="-116.66" gradientTransform="translate(133.34 -1191.59) rotate(-98.24)" gradientUnits="userSpaceOnUse"><stop offset="0" stop-color="#fc7300"/><stop offset="1" stop-color="#fcc700"/></linearGradient><linearGradient id="linear-gradient-3" x1="-1286.52" y1="-124.07" x2="-1345.85" y2="-116.7" xlink:href="#linear-gradient"/><linearGradient id="linear-gradient-4" x1="-1326.95" y1="-117.5" x2="-1276.79" y2="-121.62" gradientTransform="translate(133.34 -1191.59) rotate(-98.24)" gradientUnits="userSpaceOnUse"><stop offset="0" stop-color="#fc7300"/><stop offset="1" stop-color="#ffae88"/></linearGradient><linearGradient id="linear-gradient-5" x1="-1376.8" y1="18.76" x2="-1261.27" y2="9.28" xlink:href="#linear-gradient"/><linearGradient id="linear-gradient-6" x1="-1341.71" y1="-15.5" x2="-1288.81" y2="-19.84" xlink:href="#linear-gradient"/><linearGradient id="linear-gradient-7" x1="-1357.05" y1="197.8" x2="-1304.15" y2="193.46" gradientTransform="translate(80.44 -1226.47) rotate(-89.42)" xlink:href="#linear-gradient"/><linearGradient id="linear-gradient-8" x1="-1879.23" y1="-254.14" x2="-1826.33" y2="-258.49" gradientTransform="matrix(-0.16, -0.72, 0.93, -0.21, 149.34, -1263.77)" xlink:href="#linear-gradient"/><linearGradient id="linear-gradient-9" x1="-1370.26" y1="82.33" x2="-1317.36" y2="77.98" gradientTransform="translate(80.56 -1218.13) rotate(-89.72)" xlink:href="#linear-gradient"/><linearGradient id="linear-gradient-10" x1="-1290.86" y1="-84.1" x2="-1290.76" y2="-95.69" xlink:href="#linear-gradient"/><linearGradient id="linear-gradient-11" x1="-1317.3" y1="-63.59" x2="-1317.16" y2="-80.23" xlink:href="#linear-gradient"/><linearGradient id="linear-gradient-12" x1="-1297.49" y1="-184.31" x2="-1297.35" y2="-200.96" xlink:href="#linear-gradient"/><linearGradient id="linear-gradient-13" x1="-1285.44" y1="-25.84" x2="-1285.3" y2="-42.48" xlink:href="#linear-gradient"/><linearGradient id="linear-gradient-14" x1="33.93" y1="102.48" x2="66.88" y2="102.48" gradientTransform="matrix(1, 0, 0, 1, 0, 0)" xlink:href="#linear-gradient"/><linearGradient id="linear-gradient-15" x1="89.69" y1="128.94" x2="108.97" y2="128.94" gradientTransform="matrix(1, 0, 0, 1, 0, 0)" xlink:href="#linear-gradient"/></defs><g class="cls-1"><g id="Layer_1" data-name="Layer 1"><path class="cls-2" d="M337.28,89.33C330.45,75.61,338.58,65,345,72c9.59-12.38,23-13.22,21.3-4.68,11.65.29,19.41,12.27,2,15.81,4.76,6.52-2.61,11.29-13.11,8.77C350.41,98.9,344.32,97.33,337.28,89.33Z"/><path class="cls-3" d="M374.5,69.76c-3.91,2.88-11.83.2-14.3,0s-6.29-1.17-14.05,5.8c-4.92,4.42-9,3.36-11.38,2a21.68,21.68,0,0,0,2.51,11.77c7,8,13.13,9.57,18,2.58,10.5,2.52,17.87-2.25,13.11-8.77C381,80.56,380.3,73.51,374.5,69.76Z"/><path class="cls-4" d="M324.45,96l1.86-1.3c.59-.41,1.29-.92,2.15-1.49s1.79-1.22,2.84-1.9,2.17-1.42,3.4-2.16,2.49-1.54,3.85-2.31c.67-.39,1.35-.8,2.05-1.19l2.13-1.16c.72-.4,1.46-.76,2.19-1.15s1.47-.76,2.22-1.11l2.24-1.07,2.25-1c.74-.35,1.5-.63,2.24-.94s1.47-.6,2.2-.87l2.14-.79,2.07-.69c.67-.24,1.34-.42,2-.61s1.25-.38,1.85-.54l1.72-.44.8-.2.75-.16,1.38-.3c.42-.09.81-.17,1.17-.23l2.22-.38.06.33-2.18.54c-.35.08-.73.18-1.15.3l-1.33.39-.74.21-.78.26-1.66.55c-.58.19-1.18.43-1.8.66s-1.26.46-1.9.74l-2,.82-2.06.93c-.69.31-1.39.65-2.1,1s-1.42.69-2.13,1.07L350.25,83l-2.12,1.21c-.71.39-1.41.82-2.1,1.24s-1.4.83-2.07,1.27L342,88c-.66.42-1.3.87-1.93,1.3-1.28.84-2.47,1.71-3.62,2.52s-2.19,1.63-3.18,2.35-1.84,1.44-2.63,2-1.46,1.17-2,1.62l-1.76,1.43Z"/><path class="cls-5" d="M326.81,99.23l1.76-1.43c.56-.45,1.24-1,2-1.62s1.65-1.3,2.63-2,2-1.54,3.18-2.35,2-1.46,3.14-2.2a26.79,26.79,0,0,1-4.21,1.85,22,22,0,0,1-5.54.88l-1.33.9c-.86.57-1.56,1.08-2.15,1.49L324.45,96Z"/><path class="cls-2" d="M343.86,99.17c5.8,13.65,12.31,20.25,19.49,12.29,3.48,10.31,11.58,14.07,16.81,8.6,7,7.37,14.2,1.3,7.21-14,6.76-8-7.14-13.88-20.92-10.58C367.86,85.44,350.38,85.55,343.86,99.17Z"/><path class="cls-3" d="M355.57,105.5c8.88-1.56,19.93,9.71,31.8.52,6.76-8-7.14-13.88-20.92-10.58,1.41-10-16.07-9.89-22.59,3.73,2.35,5.54,4.82,9.91,7.41,12.63C350.46,109.33,350.64,106.37,355.57,105.5Z"/><path class="cls-4" d="M325.57,95.69l2.42.17c.77.06,1.71.12,2.8.22s2.32.19,3.64.34,2.77.28,4.29.49l2.34.31c.79.1,1.6.24,2.43.36,1.65.23,3.35.56,5.08.86l2.59.52,1.31.26,1.3.3c.86.21,1.74.39,2.59.62l2.56.66c.85.22,1.68.48,2.5.71l1.23.37,1.2.38c.79.27,1.58.5,2.33.77l2.21.8c.72.25,1.4.55,2.07.81s1.32.51,1.92.79c1.22.55,2.34,1,3.31,1.5s1.82.87,2.5,1.25l2.14,1.15-.15.3-2.21-1c-.69-.33-1.57-.65-2.56-1.06s-2.14-.8-3.37-1.25c-.62-.23-1.28-.42-2-.64s-1.37-.46-2.1-.66l-2.23-.62c-.76-.22-1.55-.4-2.35-.6l-1.2-.3-1.23-.26c-.83-.18-1.66-.37-2.51-.53l-2.56-.47c-.85-.17-1.72-.28-2.59-.42l-1.29-.2-1.3-.18-2.58-.32c-1.72-.18-3.4-.37-5-.49l-2.41-.19-2.31-.13c-1.49-.1-2.92-.12-4.23-.18s-2.51,0-3.57-.08-2,0-2.77,0h-2.43Z"/><path class="cls-6" d="M335.42,98.46c-.14-.39.34-1.11.95-1.83l-1.94-.21c-1.32-.15-2.56-.23-3.64-.34s-2-.16-2.8-.22l-2.42-.17-.18,4.36h2.43c.77,0,1.72,0,2.77,0s2.26,0,3.57.08,2.74.08,4.23.18l2.31.13,2.41.19c1.64.12,3.32.31,5,.49C348.15,101.13,335.75,99.41,335.42,98.46Z"/><path class="cls-2" d="M341.69,92c3.24-20.16,20.85-27.9,24.41-16.39,15-7,32.72-3.11,27.34,6.85,16.17,13,8.65,21.49-1.41,14.33,1.14,11.94-14.54,6.51-21,.51C370.26,106.77,357.91,108.6,341.69,92Z"/><path class="cls-4" d="M324.36,96.34,327,95.26l1.39-.57.79-.32L330,94l4-1.5c1.49-.49,3.1-1.06,4.81-1.59l2.65-.79,1.37-.4,1.42-.36,2.89-.74,3-.64c.5-.1,1-.22,1.51-.31l1.53-.26,1.54-.26c.52-.09,1-.18,1.55-.24l3.1-.39c1-.12,2.06-.17,3.08-.26.51,0,1-.1,1.53-.11l1.51-.06,1.49,0,.74,0h.73l2.87.05c.94,0,1.85.11,2.74.16.44,0,.88,0,1.31.1l1.27.14c.83.1,1.64.18,2.4.29l2.2.36,1,.17,1,.21,1.72.37.76.17.69.19,2.73.74-.09.32-2.76-.55-.69-.14-.77-.11-1.72-.26-.95-.14-1-.1L379,87.83c-.77-.06-1.56-.08-2.39-.12l-1.25-.06c-.43,0-.86,0-1.3,0-.87,0-1.77,0-2.69,0l-2.8.14-.72,0-.72.07-1.46.15-1.47.15c-.49.05-1,.14-1.48.2-1,.16-2,.28-3,.46l-3,.58c-.5.09-1,.21-1.49.33l-1.48.36-1.47.35c-.49.12-1,.27-1.46.41l-2.86.81-2.76.9-1.34.44-1.31.48-2.52.94c-1.63.63-3.15,1.28-4.57,1.86s-2.65,1.19-3.77,1.69l-.82.37-.76.37-1.35.66-2.55,1.26Z"/><path class="cls-7" d="M56.15,131.77c1.56,10.8,60,8.85,100.94,8.83,16.84,0,87.52-1.37,119.71-3.93s37.75-2.31,51.12-6.09,18.18-66.71-6.59-69.16S207.9,87,169,94,53.64,114.41,56.15,131.77Z"/><path class="cls-8" d="M324.86,127.15c-13.37,3.78-18.92,3.53-51.11,6.09S170.87,137.16,154,137.17c-35.88,0-85.16,1.52-97.87-5.37,1.65,10.77,60,8.82,100.93,8.8,16.84,0,87.52-1.37,119.71-3.93s37.75-2.31,51.12-6.09c11.74-3.31,16.87-52.19,1.2-65.75C341,81.74,335.76,124.08,324.86,127.15Z"/><path class="cls-9" d="M321.89,61.52c7.63,20.16,11.95,47.75-17,55.32-45.24,11.85-205.77,16.73-248.31,11.65a6,6,0,0,0-.46,3.28c1.56,10.8,60,8.85,100.94,8.83,16.84,0,87.52-1.37,119.71-3.93s37.75-2.31,51.12-6.09S346,64.9,321.89,61.52Z"/><path class="cls-10" d="M79.63,125.42c3.81,7.82,220.19-27.54,232.06-30.24s8.84-29.76-9.95-26.39-166.63,37.76-192.23,43.93S78.39,122.87,79.63,125.42Z"/><path class="cls-11" d="M331.62,127.82c9.83-12.28,11.83-59.28-7.24-65.71C333.91,82.51,335.58,110.49,331.62,127.82Z"/><path class="cls-12" d="M306,116.33c1.51,3.87-3.47-.25-5.19-11s-1.41-19.61-.19-16.29S300.48,102.11,306,116.33Z"/><path class="cls-13" d="M263.79,109.92c.9,4-3.39-.78-3.43-11.71s1.6-19.6,2.3-16.13S260.48,95,263.79,109.92Z"/><path class="cls-14" d="M209.58,133c1.53,2.74-3.28.17-5.18-7.72s-1.83-14.49-.59-12.13S204,123,209.58,133Z"/><path class="cls-15" d="M155.39,129.9c.92,4.06-3.4-.75-3.5-11.69s1.51-19.6,2.22-16.14S152,115,155.39,129.9Z"/><path class="cls-16" d="M232.43,112s-3.81-4-5.47-13.35,1-13.33,1-13.33A66.56,66.56,0,0,0,232.43,112Z"/><path class="cls-17" d="M254.17,132.5a15.17,15.17,0,0,1-6.6-10c-1.49-7.18,2.75-10.62,2.75-10.62A28.24,28.24,0,0,0,254.17,132.5Z"/><path class="cls-18" d="M131.85,130.18a15.13,15.13,0,0,1-6.6-10C123.76,113,128,109.56,128,109.56A28.18,28.18,0,0,0,131.85,130.18Z"/><path class="cls-19" d="M287,95.55a15.13,15.13,0,0,1-6.6-10c-1.49-7.19,2.75-10.63,2.75-10.63A28.24,28.24,0,0,0,287,95.55Z"/><path class="cls-2" d="M109.36,35.84c-8.9-5.94-7.55-15.13-1.2-13.09C109.8,12,117.74,6.89,119.63,12.63c7.26-3.82,16.14.75,6.69,8.83,5.16,2.32,2.27,7.72-5,9.79C120.71,37.13,116.43,38.26,109.36,35.84Z"/><path class="cls-3" d="M125.51,11.28c-1.41,3.08-7.2,4.17-8.78,4.9s-4.27,1.45-6.64,8.31c-1.51,4.36-4.4,5.12-6.31,5.11a15.05,15.05,0,0,0,5.58,6.24c7.07,2.42,11.35,1.29,11.91-4.59,7.32-2.07,10.21-7.47,5-9.79C133.2,15.58,130.36,11.56,125.51,11.28Z"/><path class="cls-4" d="M103.77,44.27l.7-1.42c.22-.45.48-1,.81-1.64s.68-1.35,1.09-2.12.85-1.6,1.34-2.47,1-1.78,1.58-2.71c.28-.47.55-.95.86-1.42l.9-1.43c.3-.49.64-1,1-1.44s.64-1,1-1.43l1-1.42,1-1.38c.33-.46.7-.89,1-1.33s.69-.86,1-1.27l1-1.21,1-1.13c.33-.37.68-.71,1-1.05s.64-.66,1-.95l.9-.86.42-.39.41-.36.75-.65c.22-.2.44-.38.64-.54l1.23-1,.15.18-1.16,1.07c-.18.17-.38.36-.59.58l-.69.69-.38.38-.39.42-.84.9c-.29.32-.57.67-.87,1s-.62.71-.92,1.1l-.94,1.18L118,23.43c-.33.43-.64.88-.95,1.33s-.64.9-.94,1.38l-.92,1.42-.9,1.45c-.3.48-.58,1-.86,1.47s-.57,1-.83,1.47l-.8,1.47c-.26.48-.49,1-.74,1.45-.49.94-.93,1.88-1.35,2.76s-.79,1.73-1.15,2.51-.64,1.5-.92,2.13-.5,1.2-.68,1.67l-.6,1.46Z"/><path class="cls-5" d="M106.32,45.4l.6-1.46c.18-.47.41-1,.68-1.67s.57-1.35.92-2.13.72-1.63,1.15-2.51.75-1.58,1.17-2.41a19.26,19.26,0,0,1-2,2.56,16.47,16.47,0,0,1-3.1,2.44l-.51,1c-.33.64-.59,1.19-.81,1.64l-.7,1.42Z"/><path class="cls-2" d="M116.78,39.53c8.25,6.25,14.51,8,16.19.74,5.67,5,11.94,4.53,13.28-.56,6.8,2.06,9.16-4.08-.39-10.94,1.41-7.13-9.15-5.94-16.49.77C126.81,23,116.11,29.07,116.78,39.53Z"/><path class="cls-3" d="M126.14,39.34c4.92-4,15.58-1,19.72-10.57,1.41-7.13-9.15-5.94-16.49.77-2.56-6.52-13.26-.47-12.59,10a30.52,30.52,0,0,0,8.88,5.09C124.32,43.41,123.41,41.55,126.14,39.34Z"/><path class="cls-4" d="M104.35,43.7,105.9,43c.49-.23,1.08-.52,1.79-.83s1.49-.68,2.35-1,1.8-.78,2.81-1.17l1.54-.62c.52-.21,1.07-.4,1.62-.61,1.09-.43,2.25-.81,3.41-1.22l1.77-.58.89-.28.91-.27c.6-.17,1.19-.36,1.8-.52l1.8-.48,1.78-.42.88-.2.87-.18c.58-.11,1.14-.24,1.7-.33l1.63-.28c.52-.09,1.05-.14,1.55-.22s1-.14,1.45-.18c.93-.08,1.78-.19,2.54-.22s1.42-.11,2-.11l1.71,0v.23l-1.7.16c-.54,0-1.19.14-1.94.23s-1.58.25-2.5.4c-.46.07-.93.19-1.42.28s-1,.2-1.51.33l-1.58.38c-.54.13-1.09.3-1.65.45l-.84.23-.85.26-1.72.54-1.73.59c-.59.19-1.16.42-1.74.63l-.86.33-.86.34-1.7.68c-1.11.49-2.21.94-3.26,1.43l-1.54.72-1.46.71c-1,.45-1.84.92-2.67,1.34s-1.56.82-2.22,1.17l-1.71.94-1.49.83Z"/><path class="cls-6" d="M111.35,42c-.22-.18-.17-.78,0-1.43L110,41.1c-.86.36-1.65.73-2.35,1s-1.3.6-1.79.83l-1.55.73,1.38,2.68,1.49-.83,1.71-.94c.66-.35,1.4-.76,2.22-1.17s1.71-.89,2.67-1.34l1.46-.71,1.54-.72c1.05-.49,2.15-.94,3.26-1.43C120.08,39.24,111.88,42.45,111.35,42Z"/><path class="cls-2" d="M113,35.91c-4.92-13.27,3.24-24,9.37-18.25,6.83-9.34,19-13.08,19.15-5.23,14.38,2.3,12.68,10,4,9.14,4.8,6.81-6.7,8.91-12.69,7.48C135.61,35.07,128.64,40.41,113,35.91Z"/><path class="cls-4" d="M103.83,44.5,105.07,43l.66-.82.37-.46.42-.5c.59-.68,1.24-1.46,2-2.29s1.54-1.7,2.41-2.61l1.36-1.38.7-.71.75-.71L115.23,32l1.62-1.41c.27-.23.54-.48.82-.71l.85-.68.86-.69c.28-.22.57-.46.87-.67L122,26.59c.59-.43,1.2-.82,1.8-1.22.3-.2.59-.4.9-.59l.91-.55.9-.54.45-.26.45-.25,1.78-1,1.74-.83c.28-.13.55-.28.84-.39l.82-.35c.55-.23,1.07-.46,1.58-.65l1.47-.53.68-.25L137,19l1.19-.36.52-.16.49-.13,1.93-.48.06.22-1.89.61-.47.15-.51.2-1.15.43-.63.25-.66.28-1.41.62c-.49.23-1,.49-1.51.75l-.79.39c-.27.13-.53.29-.8.44l-1.65.93-1.67,1.05-.43.27-.42.29-.84.58-.85.6c-.29.2-.56.42-.84.63-.56.43-1.13.85-1.68,1.3l-1.64,1.37-.8.71-.78.72-.79.72-.75.74-1.48,1.47-1.38,1.49-.68.73-.64.74L112.82,38c-.78.94-1.49,1.85-2.16,2.68s-1.22,1.63-1.74,2.32l-.38.5-.34.49-.6.86-1.13,1.63Z"/><path class="cls-20" d="M113,66.69c5.25-13.69-4.35-22.13-4.35-22.13s-7.93-10-21.88-5.52-72.95,74.72-62.58,85.65S107.71,80.38,113,66.69Z"/><path class="cls-21" d="M101.26,59.16c5.16-10.52-1.11-15.62-1.11-15.62s-4.88-6.43-15.57-1.63-60.73,62.2-54.13,69S96.11,69.68,101.26,59.16Z"/><path class="cls-22" d="M88.55,53c4.44-6.12,2.14-7.57,2.14-7.57s-1.38-2.36-7.64,1.88S41.4,88.77,43.58,91,84.11,59.16,88.55,53Z"/><path class="cls-23" d="M40.5,87.18s-9.36,9.55-4.28,12.94,10.67,9.37,8.16,12.59-13.44,7.93-9.67,10.37,2.25,4.68,10.35-1.24l8.1-5.91s-1.19-3.26,5.33-9.54,11.28-14.08,6.36-19.21-4-8.57-9.25-7.7S40.5,87.18,40.5,87.18Z"/><path class="cls-24" d="M108.61,44.56a17.4,17.4,0,0,0-3.22-2.92c2,2.14,7.55,9.44,3.45,20.15-4.94,12.87-73.72,64.79-83.47,54.51a4.13,4.13,0,0,1-1-1.92c-1.75,4.77-2,8.43-.24,10.31,10.38,10.94,83.56-44.31,88.81-58S108.61,44.56,108.61,44.56Z"/><path class="cls-25" d="M90.07,55.4a23.54,23.54,0,0,1-10.45-8.5,24.23,24.23,0,0,1,5.84,3.49A24,24,0,0,1,90.07,55.4Z"/><path class="cls-25" d="M96.54,79.87a11,11,0,0,1-6.63-6.21,10.91,10.91,0,0,1,6.63,6.21Z"/><path class="cls-26" d="M19.12,94.87c.73-.4,3-8.86,9.2-8.86S41.53,76.53,42,80.42s-6.8,3.42-1.48,6.76,16.61-4,13.22,3.34,2.77,8,4.49,7.12-5.17,9.6-3.7,15.07-18.41,15.76-19.42,19,2.79,8.39-12.16,9.28-20.7-.93-21.77-15S.09,102.94,9.69,99,19.12,94.87,19.12,94.87Z"/><path class="cls-25" d="M71.23,80a16.15,16.15,0,0,1-8.87-7.78A16.15,16.15,0,0,1,71.23,80Z"/><path class="cls-25" d="M58.23,110.13a9.09,9.09,0,0,1-3.12-2.22,9,9,0,0,1-1.81-3.38,8.45,8.45,0,0,1,4.93,5.6Z"/><path class="cls-25" d="M36.3,115.49a12.66,12.66,0,0,1-6.08-6.9,13.15,13.15,0,0,1,3.7,2.87A13.27,13.27,0,0,1,36.3,115.49Z"/><path class="cls-25" d="M60.1,79.59a7.62,7.62,0,0,1-3-1.58,7.74,7.74,0,0,1-2-2.78,7.68,7.68,0,0,1,3,1.57A7.82,7.82,0,0,1,60.1,79.59Z"/><ellipse class="cls-27" cx="140.04" cy="3.02" rx="3.87" ry="1.97" transform="translate(8.57 51.34) rotate(-21.42)"/><path class="cls-27" d="M136.25,6.93c.26.49-.32,1.32-1.29,1.83s-2,.54-2.25,0S133,7.48,134,7,136,6.43,136.25,6.93Z"/><path class="cls-27" d="M117.38,1.6c.38.41,0,1.36-.77,2.11s-1.78,1-2.16.61,0-1.35.78-2.1S117,1.19,117.38,1.6Z"/><path class="cls-27" d="M153.87,18.67c.16.66-.88,1.47-2.31,1.82s-2.74.11-2.9-.54.88-1.47,2.32-1.82S153.71,18,153.87,18.67Z"/><ellipse class="cls-27" cx="149.3" cy="37.48" rx="1.82" ry="3.48" transform="translate(95.1 181.56) rotate(-83.48)"/><ellipse class="cls-27" cx="118.07" cy="13.88" rx="3.45" ry="1.8" transform="matrix(0.62, -0.78, 0.78, 0.62, 33.75, 97.69)"/><path class="cls-26" d="M124.86,97.86s23.2-3.14,30.79-3,8.22,3.1-2,6.43-4.17,7.82.16,8.68-3.22,6.71-10.74,11.12-23.88,12.65-8.92,16.15,27.94,7.46,13.82,10.28-24.27,7.9-53.63,5.08S49.21,156.57,50.9,140.2s-3.17-18.95,5.19-21.89,8.92-3,18.52-6.34,9-4.51,16.37-6.21,13.55-4.51,16.94-5.08Z"/><path class="cls-26" d="M139.93,122.94s-9.77,9.62,0,14.29,15.53,5.5,3.61,11.29-23,9.14-37.48,4.93-17.9-14.94-6.61-21.72S139.93,122.94,139.93,122.94Z"/><path class="cls-28" d="M89.69,129c1.69-.56,23.2-4.52,18.66,0S89.69,129,89.69,129Z"/><path class="cls-21" d="M54,79.88s-5.93,3.79,0,3,5.29-4.35,6.09-3.27c2.66,3.59-1,4,0,6.9s6.35,2.6,6.48,3.6-8.91,9-6.08,10.08,1.44,1.77,6.08-.84,8.24-6.51,6.72-9.07,7.16-5.87,0-9.58,3-9.35-2.64-8.22S54,79.88,54,79.88Z"/></g></g></svg>