<svg id="Layer_1" data-name="Layer 1" xmlns="http://www.w3.org/2000/svg" viewBox="0 0 207 85.79"><defs><style>.cls-1{fill:#72331d;}</style></defs><path class="cls-1" d="M75,53.49a15.22,15.22,0,0,1-3.58.4,12,12,0,0,1-4.4-.78,10.76,10.76,0,0,1-3.47-2.18,9.2,9.2,0,0,1-2.28-3.34,11.41,11.41,0,0,1-.8-4.34,13.79,13.79,0,0,1,.73-4.58,9.34,9.34,0,0,1,2.2-3.6,10.15,10.15,0,0,1,3.65-2.34,14,14,0,0,1,5.07-.84,11.65,11.65,0,0,1,3.83.53,14.09,14.09,0,0,1,2.47,1.12L77.3,39.29c-.5-.23-.92-.44-1.27-.62a10.45,10.45,0,0,0-1-.45A4.75,4.75,0,0,0,74,38a10.93,10.93,0,0,0-1.38-.08,5.17,5.17,0,0,0-3.85,1.37,5,5,0,0,0-1.35,3.68,4.9,4.9,0,0,0,1.4,3.71,5.59,5.59,0,0,0,4,1.34,11.08,11.08,0,0,0,2.6-.3,14.54,14.54,0,0,0,2.65-1l.45,5.45A17.6,17.6,0,0,1,75,53.49Z"/><path class="cls-1" d="M105.75,42.82a12.66,12.66,0,0,1-.82,4.74A9.55,9.55,0,0,1,102.59,51,9.94,9.94,0,0,1,99,53.16a15.5,15.5,0,0,1-9.4,0A9.94,9.94,0,0,1,85.91,51a9.72,9.72,0,0,1-2.36-3.46,12.26,12.26,0,0,1-.85-4.74,12.15,12.15,0,0,1,.82-4.61,9.53,9.53,0,0,1,6-5.59,14.94,14.94,0,0,1,4.78-.73,14.77,14.77,0,0,1,4.7.71,9.87,9.87,0,0,1,3.64,2.1,9.22,9.22,0,0,1,2.34,3.44A12.41,12.41,0,0,1,105.75,42.82Zm-6.65,0a4.62,4.62,0,0,0-4.95-5,4.64,4.64,0,0,0-3.56,1.33,5.2,5.2,0,0,0-1.24,3.71,5.51,5.51,0,0,0,1.21,3.82A4.62,4.62,0,0,0,94.15,48a4.88,4.88,0,0,0,3.66-1.32A5.29,5.29,0,0,0,99.1,42.83Z"/><path class="cls-1" d="M139.25,51.45a3.79,3.79,0,0,1-1.33,1.88,3.93,3.93,0,0,1-2.27.56,3.71,3.71,0,0,1-2.3-.61,4.25,4.25,0,0,1-1.3-2l-4.25-13L123.35,51.5a3.18,3.18,0,0,1-1.28,1.83,4.29,4.29,0,0,1-2.37.56,7,7,0,0,1-1-.07,2.74,2.74,0,0,1-1-.32,2.66,2.66,0,0,1-.85-.78,5,5,0,0,1-.7-1.41l-7-19.42h6.75l2.9,8.88c.1.33.21.71.32,1.15s.25.87.38,1.29.28,1,.45,1.56a10.8,10.8,0,0,1,.3-1.22l.32-1.14c.12-.41.23-.79.33-1.15l2.8-9.37h8.1l3,9.81c.07.29.16.61.27.95s.23.67.33,1a6.83,6.83,0,0,1,.3,1.12q.15-.48.3-1c.17-.65.35-1.27.55-1.86l2.95-10h7Z"/></svg>