<svg id="Layer_1" data-name="Layer 1" xmlns="http://www.w3.org/2000/svg" viewBox="0 0 207 85.79"><defs><style>.cls-1{fill:#72331d;}</style></defs><path class="cls-1" d="M78.15,24.14a9.6,9.6,0,0,0-1.8-.67,7.07,7.07,0,0,0-1.65-.18,4.67,4.67,0,0,0-2,.4A2.87,2.87,0,0,0,71.4,25a6.81,6.81,0,0,0-.62,2.32,29.53,29.53,0,0,0-.18,3.55h5.3v4.85H70.65V52.84H64V35.59H59.85V30.84h4a28.87,28.87,0,0,1,.55-6.17,10.09,10.09,0,0,1,1.68-4,6.22,6.22,0,0,1,2.8-2.1A10.9,10.9,0,0,1,72.8,18a17.44,17.44,0,0,1,6,1Z"/><path class="cls-1" d="M94.85,37c-.47-.1-.83-.16-1.1-.2a8.12,8.12,0,0,0-.9,0,5.05,5.05,0,0,0-4.32,2,9.48,9.48,0,0,0-1.48,5.8v8.34H80.4V38.4c0-.81,0-1.52,0-2.13s-.06-1.16-.13-1.68-.16-1-.27-1.55S79.7,32,79.5,31.31h6.31c.11.41.2.76.29,1.05a7.2,7.2,0,0,1,.18.82c0,.25.07.53.1.82a8,8,0,0,1,.05,1,11.35,11.35,0,0,1,2.85-3.26,5.44,5.44,0,0,1,3.17-.95,4.88,4.88,0,0,1,1.18.13,12.86,12.86,0,0,1,1.32.49Z"/><path class="cls-1" d="M119.75,41.77a12.66,12.66,0,0,1-.82,4.74A9.55,9.55,0,0,1,116.59,50,9.94,9.94,0,0,1,113,52.11a15.5,15.5,0,0,1-9.4,0A9.94,9.94,0,0,1,99.91,50a9.72,9.72,0,0,1-2.36-3.46,12.26,12.26,0,0,1-.85-4.74,12.15,12.15,0,0,1,.82-4.61,9.53,9.53,0,0,1,6-5.59,14.94,14.94,0,0,1,4.78-.73,14.77,14.77,0,0,1,4.7.71,9.87,9.87,0,0,1,3.64,2.1,9.22,9.22,0,0,1,2.34,3.44A12.41,12.41,0,0,1,119.75,41.77Zm-6.65,0a4.62,4.62,0,0,0-4.95-5,4.64,4.64,0,0,0-3.56,1.33,5.2,5.2,0,0,0-1.24,3.71,5.51,5.51,0,0,0,1.21,3.82,4.58,4.58,0,0,0,3.59,1.34,4.88,4.88,0,0,0,3.66-1.32A5.27,5.27,0,0,0,113.1,41.78Z"/><path class="cls-1" d="M147.15,53.54a23.38,23.38,0,0,1-.84,6.78,11.8,11.8,0,0,1-2.3,4.37,8.36,8.36,0,0,1-3.44,2.38,12.71,12.71,0,0,1-4.34.72,37.7,37.7,0,0,1-4.46-.27,15.58,15.58,0,0,1-4.21-1.08v-5a27.29,27.29,0,0,0,3.82,1.08,16.72,16.72,0,0,0,3.23.37,5.53,5.53,0,0,0,2.39-.5,4.62,4.62,0,0,0,1.86-1.6,8.2,8.2,0,0,0,1.21-2.9,18.8,18.8,0,0,0,.43-4.35v-2.2A7.58,7.58,0,0,1,137.65,53a11.61,11.61,0,0,1-3.1.37,9.83,9.83,0,0,1-3.9-.75,8.48,8.48,0,0,1-3-2.1,9.58,9.58,0,0,1-1.9-3.27,12.86,12.86,0,0,1-.67-4.28,12.7,12.7,0,0,1,1-5.22,11.19,11.19,0,0,1,3-4,13.27,13.27,0,0,1,4.67-2.52,20.31,20.31,0,0,1,6.18-.88c.71,0,1.34,0,1.88,0s1.07.06,1.59.12,1.08.16,1.68.28,1.27.27,2.05.47Zm-6.65-16.7c-.58-.1-1-.16-1.31-.2s-.68,0-1.16,0a6.36,6.36,0,0,0-4.61,1.63,6,6,0,0,0-1.67,4.47,4.23,4.23,0,0,0,1.11,3.15,3.7,3.7,0,0,0,2.75,1.1,7.64,7.64,0,0,0,1.8-.2,3.14,3.14,0,0,0,1.57-.9,5,5,0,0,0,1.11-2,12.65,12.65,0,0,0,.41-3.58Z"/></svg>