<svg id="Layer_1" data-name="Layer 1" xmlns="http://www.w3.org/2000/svg" viewBox="0 0 207 85.79"><defs><style>.cls-1{fill:#72331d;}</style></defs><path class="cls-1" d="M46.3,52.87V42a7.21,7.21,0,0,0-.84-4.08,2.71,2.71,0,0,0-2.29-1.14,3.4,3.4,0,0,0-1.49.36,3.74,3.74,0,0,0-1.36,1.16,6.23,6.23,0,0,0-1,2.18A13.74,13.74,0,0,0,39,43.89v9H32.3V42a7.87,7.87,0,0,0-.77-4A2.8,2.8,0,0,0,29,36.77,3.61,3.61,0,0,0,26,38.46q-1.24,1.68-1.25,5.43v9H18.1V39.05c0-.8,0-1.54-.05-2.2S18,35.57,17.88,35a15.32,15.32,0,0,0-.35-1.69c-.15-.55-.33-1.13-.53-1.75h6.65c.17.52.29.91.38,1.17s.17.63.27,1.11a15.28,15.28,0,0,1,3.46-2.13,11.25,11.25,0,0,1,4.57-.82,7.83,7.83,0,0,1,3.41.72,5.05,5.05,0,0,1,2.25,2,7.38,7.38,0,0,1,3.36-2,13.68,13.68,0,0,1,4.3-.7,7.11,7.11,0,0,1,5.4,2A8,8,0,0,1,53,38.64V52.87Z"/><path class="cls-1" d="M82.7,41.8a12.57,12.57,0,0,1-.82,4.73A9.59,9.59,0,0,1,79.54,50a10.08,10.08,0,0,1-3.64,2.14,15.5,15.5,0,0,1-9.4,0A10.08,10.08,0,0,1,62.86,50a9.76,9.76,0,0,1-2.36-3.47,12.17,12.17,0,0,1-.85-4.73,12.16,12.16,0,0,1,.82-4.62,9.64,9.64,0,0,1,2.32-3.44,9.79,9.79,0,0,1,3.63-2.14,14.67,14.67,0,0,1,4.78-.73,14.49,14.49,0,0,1,4.7.71,10,10,0,0,1,3.64,2.09,9.39,9.39,0,0,1,2.34,3.44A12.5,12.5,0,0,1,82.7,41.8Zm-6.65,0a5,5,0,0,0-1.34-3.71,4.94,4.94,0,0,0-3.61-1.32,4.63,4.63,0,0,0-3.56,1.32A5.22,5.22,0,0,0,66.3,41.8a5.51,5.51,0,0,0,1.21,3.82A4.59,4.59,0,0,0,71.1,47a4.85,4.85,0,0,0,3.66-1.33A5.27,5.27,0,0,0,76.05,41.8Z"/><path class="cls-1" d="M103.3,52.87V40.38a5,5,0,0,0-.33-2,2.78,2.78,0,0,0-.77-1.08,1.92,1.92,0,0,0-1-.44,5.78,5.78,0,0,0-.85-.07,4.85,4.85,0,0,0-1.05.19,3.7,3.7,0,0,0-1.53.92A6.32,6.32,0,0,0,96.45,40a9.68,9.68,0,0,0-.6,3.76v9.11H89.2V38.33a24.91,24.91,0,0,0-.3-3.8,12.46,12.46,0,0,0-.8-3.06h6.65a9.06,9.06,0,0,1,.42,1.15,12.25,12.25,0,0,1,.28,1.3,10.4,10.4,0,0,1,3.43-2.3,9.88,9.88,0,0,1,3.72-.75,7.25,7.25,0,0,1,2.92.58,7.06,7.06,0,0,1,2.32,1.63,7.53,7.53,0,0,1,1.55,2.58,10.07,10.07,0,0,1,.56,3.43V52.87Z"/><path class="cls-1" d="M131.15,39.87l10.65,13H133L124.7,42V52.87h-6.65V18h6.65v20.1l8.1-7.25h9.55Z"/><path class="cls-1" d="M164.25,36.92a5.69,5.69,0,0,1-.89,3.1,7.45,7.45,0,0,1-2.51,2.37A14,14,0,0,1,157,43.92a21.61,21.61,0,0,1-5.1.55l-.6,0-.81,0a4.53,4.53,0,0,0,1.5,3,4.72,4.72,0,0,0,3.23,1.08,14.82,14.82,0,0,0,7.37-2.25v5.25A14.16,14.16,0,0,1,158.92,53a15,15,0,0,1-3.92.48,13,13,0,0,1-4.53-.75,9.17,9.17,0,0,1-3.42-2.18,9.72,9.72,0,0,1-2.15-3.4,12.47,12.47,0,0,1-.75-4.47,14,14,0,0,1,.87-5,11.84,11.84,0,0,1,2.45-3.92,10.79,10.79,0,0,1,3.78-2.55,12.69,12.69,0,0,1,4.85-.9,9.11,9.11,0,0,1,5.92,1.8A5.85,5.85,0,0,1,164.25,36.92Zm-6.65.5a1.76,1.76,0,0,0-.69-1.38,2.59,2.59,0,0,0-1.72-.57,4,4,0,0,0-2.86,1.17,5.64,5.64,0,0,0-1.53,3.23,3.92,3.92,0,0,0,.79.1h.74Q157.6,40,157.6,37.42Z"/><path class="cls-1" d="M189.3,60.06a10.91,10.91,0,0,1-2.19,4.6,7.92,7.92,0,0,1-3.79,2.42,19.45,19.45,0,0,1-5.53.69,15.9,15.9,0,0,1-3.21-.33,30.49,30.49,0,0,1-3.37-.87v-5l3.14.21c1,.05,2,.08,2.93.08a7,7,0,0,0,2.68-.46,4.09,4.09,0,0,0,1.86-1.52,7.19,7.19,0,0,0,1.05-2.77,23.12,23.12,0,0,0,.33-4.25v-2.7a8.57,8.57,0,0,1-6.25,2.7,7.31,7.31,0,0,1-2.88-.59,6.84,6.84,0,0,1-2.37-1.68A8.51,8.51,0,0,1,170.1,48a9.62,9.62,0,0,1-.6-3.5c0-1.17,0-2.3.05-3.37s0-2.15,0-3.23,0-2.18,0-3.32-.07-2.37-.17-3.67h6.65c.1,1.32.16,2.55.17,3.68s0,2.2,0,3.21,0,2-.05,2.88,0,1.84,0,2.74a4.16,4.16,0,0,0,.74,2.74A2.64,2.64,0,0,0,179,47a4,4,0,0,0,3.06-1.38,5.26,5.26,0,0,0,1.28-3.71v-11H190v22A31.4,31.4,0,0,1,189.3,60.06Z"/></svg>