<svg id="Layer_1" data-name="Layer 1" xmlns="http://www.w3.org/2000/svg" viewBox="0 0 207 85.79"><defs><style>.cls-1{fill:#72331d;}</style></defs><path class="cls-1" d="M53,43.94c-.47-.1-.84-.17-1.1-.2a8.12,8.12,0,0,0-.9-.05,5.09,5.09,0,0,0-4.33,2,9.59,9.59,0,0,0-1.47,5.81v8.34H38.53V45.35q0-1.23,0-2.13c0-.6-.06-1.17-.12-1.69A15.49,15.49,0,0,0,38.1,40c-.12-.51-.27-1.09-.47-1.74h6.31c.1.41.2.76.28,1a4.7,4.7,0,0,1,.18.82c0,.26.07.53.11.82A10.47,10.47,0,0,1,44.56,42a11.21,11.21,0,0,1,2.84-3.26,5.5,5.5,0,0,1,3.18-1,4.39,4.39,0,0,1,1.17.13,11.59,11.59,0,0,1,1.33.48Z"/><path class="cls-1" d="M71.42,59.79c0-.23,0-.52,0-.85s-.06-.58-.08-.95,0-.75-.08-1.15A7.86,7.86,0,0,1,68,59.41a10.45,10.45,0,0,1-4.26.88,7.91,7.91,0,0,1-6.39-2.7Q55,54.89,55,49.89q0-6,3.67-9.33t10.47-3.27c.74,0,1.42,0,2,.05s1.21.09,1.82.17,1.23.2,1.88.33,1.35.32,2.13.55v14.2c0,.77,0,1.57,0,2.42s.08,1.63.15,2.33.13,1.65.2,2.45Zm-1-16.3a10.44,10.44,0,0,0-1.58-.25c-.48,0-.92-.05-1.32-.05A5.35,5.35,0,0,0,63.2,45a7.33,7.33,0,0,0-1.52,4.93,4.88,4.88,0,0,0,.91,3.2,3.21,3.21,0,0,0,2.6,1.1,4.62,4.62,0,0,0,2-.45,5.08,5.08,0,0,0,1.65-1.28,6.22,6.22,0,0,0,1.12-2A7.4,7.4,0,0,0,70.38,48Z"/><path class="cls-1" d="M106.47,47.2a14.74,14.74,0,0,1-.86,5.18,10.91,10.91,0,0,1-6.33,6.51,13.4,13.4,0,0,1-5,.9,25.42,25.42,0,0,1-5-.52,23.32,23.32,0,0,1-4.69-1.42V25.5h6.64V40.35a8,8,0,0,1,2.86-1.92,9.74,9.74,0,0,1,3.63-.64,9.5,9.5,0,0,1,3.58.66,7.72,7.72,0,0,1,2.77,1.91,8.54,8.54,0,0,1,1.78,3A11.32,11.32,0,0,1,106.47,47.2Zm-6.64,1.2a4.38,4.38,0,0,0-1-3A3.62,3.62,0,0,0,96,44.24a4.63,4.63,0,0,0-2,.41,4.83,4.83,0,0,0-1.53,1.1,5,5,0,0,0-1,1.61,5.78,5.78,0,0,0-.31,1.9v3.8a5.72,5.72,0,0,0,1.57.59,9.73,9.73,0,0,0,1.82.14,5.14,5.14,0,0,0,3.85-1.43A5.39,5.39,0,0,0,99.83,48.4Z"/><path class="cls-1" d="M134.82,47.2a14.74,14.74,0,0,1-.86,5.18,10.91,10.91,0,0,1-6.33,6.51,13.4,13.4,0,0,1-5,.9,25.42,25.42,0,0,1-5-.52,23.32,23.32,0,0,1-4.69-1.42V25.5h6.64V40.35a8,8,0,0,1,2.86-1.92,9.72,9.72,0,0,1,3.62-.64,9.52,9.52,0,0,1,3.59.66,7.72,7.72,0,0,1,2.77,1.91,8.54,8.54,0,0,1,1.78,3A11.32,11.32,0,0,1,134.82,47.2Zm-6.64,1.2a4.38,4.38,0,0,0-1-3,3.63,3.63,0,0,0-2.83-1.11,4.63,4.63,0,0,0-2,.41,4.83,4.83,0,0,0-1.53,1.1,5,5,0,0,0-1,1.61,5.78,5.78,0,0,0-.31,1.9v3.8a5.72,5.72,0,0,0,1.57.59,9.73,9.73,0,0,0,1.82.14,5.15,5.15,0,0,0,3.85-1.43A5.39,5.39,0,0,0,128.18,48.4Z"/><path class="cls-1" d="M148.82,31.75A2.75,2.75,0,0,1,147.67,34a4.65,4.65,0,0,1-5.55,0,3.06,3.06,0,0,1-1.2-2.3A2.72,2.72,0,0,1,142,29.37a4.8,4.8,0,0,1,4.37-.68,4.1,4.1,0,0,1,1.25.7,3.65,3.65,0,0,1,.85,1.06A2.75,2.75,0,0,1,148.82,31.75Zm-7.5,28v-22H148v22Z"/><path class="cls-1" d="M157.17,59.79V42.54h-4.4V37.79h4.4V32.24h6.55v5.55h5.65v4.75h-5.65V59.79Z"/></svg>