<svg id="Layer_1" data-name="Layer 1" xmlns="http://www.w3.org/2000/svg" viewBox="0 0 207 85.79"><defs><style>.cls-1{fill:#72331d;}</style></defs><path class="cls-1" d="M30.38,40.72a6.3,6.3,0,0,1-2.12,5,8.79,8.79,0,0,1-6,1.85,25.2,25.2,0,0,1-5.07-.5,14.72,14.72,0,0,1-4-1.35l.85-5.1a17.05,17.05,0,0,0,7.6,2.25,2.14,2.14,0,0,0,1.57-.48,1.45,1.45,0,0,0,.48-1.07,1.94,1.94,0,0,0-.38-1.23,6,6,0,0,0-1.82-1.17A29.45,29.45,0,0,1,18,37.12a11.86,11.86,0,0,1-2.4-1.88,6.25,6.25,0,0,1-1.35-2.07,7,7,0,0,1-.42-2.5,5.64,5.64,0,0,1,2.41-4.88,10.66,10.66,0,0,1,6.32-1.72,19.91,19.91,0,0,1,3.72.32A17.48,17.48,0,0,1,30,25.67l-.8,5a11.81,11.81,0,0,0-3.44-1.38A15.34,15.34,0,0,0,22.5,29a2.26,2.26,0,0,0-1.59.42,1.51,1.51,0,0,0-.43,1.13,1.62,1.62,0,0,0,.68,1.37,14.44,14.44,0,0,0,2.67,1.38,31.16,31.16,0,0,1,3,1.72,10.7,10.7,0,0,1,2.05,1.7A5.5,5.5,0,0,1,30,38.54,6.78,6.78,0,0,1,30.38,40.72Z"/><path class="cls-1" d="M58.53,34.52a17.07,17.07,0,0,1-.7,5,12.19,12.19,0,0,1-2,3.89,8.9,8.9,0,0,1-3,2.52,9.33,9.33,0,0,1-6.51.54,7.6,7.6,0,0,1-2.23-1.29V61.72h-7V31.41c0-.36,0-.78-.08-1.27s-.12-1-.2-1.55-.18-1.08-.3-1.62a13.46,13.46,0,0,0-.42-1.5h6.77a5.05,5.05,0,0,1,.37,1,12.29,12.29,0,0,1,.21,1.38,10.59,10.59,0,0,1,3-2.3,7.9,7.9,0,0,1,3.45-.7,8.58,8.58,0,0,1,3.52.7,7.87,7.87,0,0,1,2.73,2,9.19,9.19,0,0,1,1.76,3.08A11.92,11.92,0,0,1,58.53,34.52Zm-6.65,1.11a4.76,4.76,0,0,0-1-3.21,3.41,3.41,0,0,0-2.74-1.15,3.94,3.94,0,0,0-3.23,1.47,6.12,6.12,0,0,0-1.18,3.95v2.9a5.25,5.25,0,0,0,3.54,1.33,4.29,4.29,0,0,0,3.37-1.4A5.71,5.71,0,0,0,51.88,35.63Z"/><path class="cls-1" d="M80.77,46.82c0-.23,0-.52,0-.85s-.06-.58-.08-.95,0-.75-.08-1.15a7.86,7.86,0,0,1-3.25,2.57,10.45,10.45,0,0,1-4.26.88,7.91,7.91,0,0,1-6.39-2.7q-2.28-2.7-2.28-7.7,0-6,3.67-9.33t10.47-3.27c.74,0,1.42,0,2,.05s1.21.09,1.82.17,1.23.2,1.88.33,1.35.32,2.13.55v14.2c0,.77,0,1.57.05,2.42s.08,1.63.15,2.33.13,1.65.2,2.45Zm-1-16.3a10.44,10.44,0,0,0-1.58-.25c-.48,0-.92-.05-1.32-.05A5.35,5.35,0,0,0,72.55,32,7.33,7.33,0,0,0,71,36.92a4.88,4.88,0,0,0,.91,3.2,3.21,3.21,0,0,0,2.6,1.1,4.62,4.62,0,0,0,2-.45,5.18,5.18,0,0,0,1.65-1.28,6.22,6.22,0,0,0,1.12-2A7.4,7.4,0,0,0,79.73,35Z"/><path class="cls-1" d="M108.77,31c-.46-.1-.83-.17-1.09-.2a8.17,8.17,0,0,0-.91-.05,5.09,5.09,0,0,0-4.32,2A9.59,9.59,0,0,0,101,38.48v8.34H94.32V32.38c0-.82,0-1.53,0-2.13s-.06-1.17-.12-1.69A15.49,15.49,0,0,0,93.9,27c-.12-.51-.27-1.09-.47-1.74h6.31c.1.41.2.76.28,1a4.7,4.7,0,0,1,.18.82c0,.26.07.53.11.82s0,.65,0,1.06a11.21,11.21,0,0,1,2.84-3.26,5.5,5.5,0,0,1,3.18-.95,4.39,4.39,0,0,1,1.17.13,9.93,9.93,0,0,1,1.33.48Z"/><path class="cls-1" d="M128.12,31c-.46-.1-.83-.17-1.1-.2a7.85,7.85,0,0,0-.9-.05,5.09,5.09,0,0,0-4.32,2,9.58,9.58,0,0,0-1.48,5.81v8.34h-6.65V32.38c0-.82,0-1.53,0-2.13s-.06-1.17-.13-1.69a13,13,0,0,0-.27-1.54c-.12-.51-.27-1.09-.48-1.74h6.32c.1.41.19.76.28,1a4.7,4.7,0,0,1,.18.82c0,.26.07.53.1.82a8.1,8.1,0,0,1,.06,1.06,11.21,11.21,0,0,1,2.84-3.26,5.47,5.47,0,0,1,3.18-.95,4.39,4.39,0,0,1,1.17.13,9.93,9.93,0,0,1,1.33.48Z"/><path class="cls-1" d="M153,35.75a12.57,12.57,0,0,1-.82,4.73,9.34,9.34,0,0,1-2.34,3.46,10,10,0,0,1-3.63,2.15,15.53,15.53,0,0,1-9.41,0,10,10,0,0,1-3.63-2.15,9.53,9.53,0,0,1-2.37-3.46,12.36,12.36,0,0,1-.85-4.73,12.16,12.16,0,0,1,.83-4.62,9.49,9.49,0,0,1,2.31-3.44,10,10,0,0,1,3.63-2.14,14.71,14.71,0,0,1,4.78-.73,14.56,14.56,0,0,1,4.71.71,9.88,9.88,0,0,1,3.63,2.09,9.19,9.19,0,0,1,2.34,3.44A12.5,12.5,0,0,1,153,35.75Zm-6.65,0a4.6,4.6,0,0,0-5-5A4.65,4.65,0,0,0,137.86,32a5.26,5.26,0,0,0-1.24,3.71,5.51,5.51,0,0,0,1.22,3.82,4.55,4.55,0,0,0,3.58,1.35,4.85,4.85,0,0,0,3.66-1.33A5.27,5.27,0,0,0,146.37,35.75Z"/><path class="cls-1" d="M186.52,44.37a3.85,3.85,0,0,1-1.32,1.89,4,4,0,0,1-2.28.56,3.79,3.79,0,0,1-2.3-.61,4.38,4.38,0,0,1-1.3-2l-4.25-13-4.45,13.22a3.24,3.24,0,0,1-1.27,1.83,4.41,4.41,0,0,1-2.38.56,9,9,0,0,1-1.05-.07,3,3,0,0,1-.95-.32,2.66,2.66,0,0,1-.85-.78,5.36,5.36,0,0,1-.7-1.42l-7-19.41h6.75l2.9,8.88q.15.48.33,1.14c.12.44.24.87.37,1.3l.45,1.56a10.3,10.3,0,0,1,.3-1.22c.1-.36.21-.74.33-1.15l.32-1.15,2.8-9.36h8.1l3,9.8a8.91,8.91,0,0,0,.28,1l.32,1a5.37,5.37,0,0,1,.3,1.13c.1-.33.2-.67.3-1,.17-.65.35-1.27.55-1.85l3-10h7Z"/></svg>