<svg id="Layer_1" data-name="Layer 1" xmlns="http://www.w3.org/2000/svg" viewBox="0 0 126.83 166.09"><defs><style>.cls-1{fill:#d1ce28;}.cls-1,.cls-5,.cls-6{stroke:#1e2121;}.cls-1,.cls-2,.cls-3,.cls-5,.cls-6,.cls-8{stroke-miterlimit:10;stroke-width:0.25px;}.cls-2{fill:#a9afbd;}.cls-2,.cls-3,.cls-8{stroke:#0e3a3d;}.cls-10,.cls-3{fill:#c7d4ec;}.cls-4{fill:#3e6164;}.cls-5{fill:#838157;}.cls-6{fill:#dcd444;}.cls-7{fill:#034751;}.cls-11,.cls-8{fill:#fff;}.cls-9{fill:#474a50;}.cls-12{fill:#0e3a3d;}</style></defs><g id="dragonfly1"><path class="cls-1" d="M11,106.22c.51-6.62,5.62-11.61,11.4-11.16s10.06,6.17,9.55,12.78S26.3,119.45,20.51,119,10.46,112.83,11,106.22Z"/><path class="cls-2" d="M54.68,110.13S70,92.05,77.15,72.74c6.9-18.73,15-39.86,23-35.91,9.16,4.54-1.17,54.64-21.17,68.5-16.63,11.53-20.31,8.9-20.31,8.9Z"/><path class="cls-3" d="M58.43,111.86s20.35-12.18,33.3-28.18c12.55-15.51,27-32.93,33.28-26.62,7.21,7.24-18.67,51.36-42.07,58.06-19.45,5.57-22.09,1.9-22.09,1.9Z"/><path class="cls-2" d="M44.25,107.52s-1.27-29.25-11-52.7C23.75,32.09,13.32,6.18,23.86,3.06,36-.51,68.65,53.49,62.18,82.82c-5.37,24.39-10.91,25.1-10.91,25.1Z"/><path class="cls-4" d="M32.66,151.18A69.67,69.67,0,0,1,51,152c.28.05.38-.21.32-.47-1.13-4.77-2.39-9.53-3.48-14.32-1-4.45-1.53-9.17.66-13.38.17-.33-.35-1.29-.69-.86-4.22,5.43-1.84,12.61-.12,18.59.64,2.22,1.3,4.43,1.95,6.65.27.9,1,2,.17,2.68-.38.29-2.59-.33-3.23-.39a69.55,69.55,0,0,0-14.06.11c-.3,0-.13.61.13.59Z"/><path class="cls-4" d="M70.5,165.41a27.85,27.85,0,0,1-2.3-8.81c-.17-2.83-.09-7.29,1.72-9.68a1,1,0,0,0-.32-1.4A72.79,72.79,0,0,1,58,136.91c-3.49-3.25-8.74-7.86-9.77-12.65-.1-.49-.87-.91-.87-.15,0,3.84,3.19,7,5.6,9.64A66.92,66.92,0,0,0,63.2,143c.84.62,1.7,1.21,2.57,1.79,1.66,1.09,3,1.14,2.74,3.47-.2,2.11-.84,4.11-.87,6.26a24.86,24.86,0,0,0,2.55,11c.13.28.43.16.31-.13Z"/><path class="cls-4" d="M7,136.34c6.78,1.71,13.61,3.44,20,6.44a.24.24,0,0,0,.3-.13c1.73-3.78,3.06-7.77,4.67-11.61s3.62-7.68,5-11.65c.14-.39-.37-1.31-.72-.75A69,69,0,0,0,31.4,129c-.73,1.77-1.45,3.55-2.12,5.34s-1.14,4.29-2.15,6-2,.94-3.78.32-3.45-1.22-5.2-1.77A93.27,93.27,0,0,0,7,136c-.22,0-.15.34,0,.39Z"/><path class="cls-5" d="M55.23,126.48s49,27.33,60.75,24.54-42.65-28.87-54.47-34.37S55.23,126.48,55.23,126.48Z"/><path class="cls-1" d="M115.59,146.53c-9-8.43-44.76-25.55-54.08-29.88-3.13-1.45-5-1.45-6.16-.66a24.53,24.53,0,0,0,1.26,5.8S101.33,146.76,115.59,146.53Z"/><path class="cls-1" d="M31.85,116.83s2.49,13.77,20.92,12.25,12.68-15.94,2-22.67-21.06.67-21.06.67Z"/><path class="cls-6" d="M59,109.72a27.63,27.63,0,0,0-4.25-3.31c-10.73-6.73-21.06.67-21.06.67l-1.26,6.74c3.14,2.19,7.8,3.76,14.7,3.2C54.91,116.37,58.38,113.42,59,109.72Z"/><path class="cls-6" d="M25.55,93.67c-14.23.91-12.84,14.25-8.2,22.56S29.86,127,36,114.45,37.46,92.92,25.55,93.67Z"/><path class="cls-7" d="M1,85.76C7.8,88,12.65,92.26,16.88,97.93c.41.54.77,0,.49-.49-3.6-5.9-9.92-10-16.42-12-.2-.07-.14.31,0,.36Z"/><path class="cls-7" d="M7.16,78.3c6.5,4.84,10.38,11.1,13.4,18.49.23.56,1,.55.82-.16C19.23,89,13.65,82.37,7.24,77.87c-.26-.18-.25.3-.08.43Z"/><path class="cls-1" d="M18.67,103.2c.51-6.61,5.62-11.61,11.4-11.16s10.06,6.17,9.55,12.79S34,116.43,28.21,116,18.15,109.81,18.67,103.2Z"/><path class="cls-8" d="M20.69,103.23c.43-5.47,4.66-9.61,9.45-9.24s8.32,5.12,7.9,10.59-4.65,9.61-9.44,9.24S20.27,108.71,20.69,103.23Z"/><path class="cls-9" d="M16.28,132.46c7.53,2.11,15.46,5.24,21.6,10.2.34.26.63-.09.62-.42-.31-7.8,0-15.77-.74-23.54,0-.54-.84-1.14-.89-.3-.5,7.74.28,15.75.62,23.5l.61-.41c-7.15-3.9-13.86-7.54-21.83-9.58-.31-.07-.22.48,0,.55Z"/><path class="cls-9" d="M39.78,160.47c3.88-6.27,8.57-12.56,14.51-17,.2-.16.08-.58,0-.74a117.74,117.74,0,0,1-6.37-10c-2.09-3.72-3.61-7.64-5.49-11.44l-.51,1,.49.18c.69.26.45-.88.21-1.14l-.44-.47c-.49-.52-1.08,0-.89.61,2.33,7.91,7.3,15.58,12.55,21.85l-.12-.84c-5.44,5.46-10.44,10.86-14.2,17.65-.09.16.16.51.29.3Z"/><path class="cls-9" d="M58.77,159.72C57.19,151,59,142,62.39,133.94a1.08,1.08,0,0,0-.56-1.32c-3.58-1.76-7.19-3.47-10.73-5.33-2.88-1.51-5.71-3.48-8.77-4.61-.8-.3-.42,1.07-.09,1.32,3,2.35,6.73,4,10.11,5.67,3.13,1.59,6.29,3.12,9.53,4.48l-.6-1.15c-1.86,8.84-5.09,17.61-2.86,26.72.06.26.41.33.35,0Z"/><path class="cls-3" d="M49.1,105.93s8.2-28.1,6.49-53.44C53.93,27.92,52.38,0,63.37.47,76,1,89.57,62.62,74,88.32c-12.93,21.36-18.4,20.25-18.4,20.25Z"/><path class="cls-10" d="M24.25,7.78C21.83,22,31.37,36.32,36.29,49A142.29,142.29,0,0,1,46,99c0,.47.69.93.74.25,1.09-15.5-2.57-31.36-7.73-45.89-2.62-7.37-6-14.41-9-21.59C26.68,24,24.64,16.51,24.77,8c0-.25-.45-.69-.52-.26Z"/><path class="cls-10" d="M28.16,8.79C28,21.55,33.56,33.68,38.47,45.17A174.18,174.18,0,0,1,45.69,64a72.06,72.06,0,0,1,2.73,20.55c0,.37.66,1,.75.38,2-12.23-3.13-24.91-7.77-36-5.47-13-11.28-25.76-12.68-40,0-.34-.55-.72-.56-.2Z"/><path class="cls-10" d="M32.64,13.6A110.58,110.58,0,0,0,41.8,40.15C46,48.71,50.65,56.2,51.43,66c0,.39.79,1.21.89.45,1.12-8-3.62-15.79-7.2-22.53A134.31,134.31,0,0,1,33.31,13.59c-.13-.5-.81-.64-.67,0Z"/><path class="cls-10" d="M39.13,19A61.19,61.19,0,0,0,44,33.55c2.49,5.17,6.31,9.72,6.76,15.63,0,.28.57.85.63.32.47-4.52-2-8.33-4.25-12.06a63.78,63.78,0,0,1-7.49-18.5c-.08-.36-.57-.45-.48,0Z"/><path class="cls-10" d="M71.1,99.58c7.12-7.74,12-17.16,15.79-26.9A250.85,250.85,0,0,0,97.48,39.87c.09-.34-.52-1.16-.73-.62-4.2,10.41-6.67,21.49-10.57,32-3.72,10-8.4,19.61-15.41,27.8-.16.19.13.71.33.5Z"/><path class="cls-10" d="M86.38,82a76.81,76.81,0,0,0,8.54-17.37c2.21-6,4.23-12.52,4.75-18.93,0-.32-.47-.94-.6-.41-1.55,6.47-2.7,12.85-5,19.14-2.17,6-5.13,11.51-8,17.18-.08.15.17.59.31.39Z"/><path class="cls-10" d="M83.09,68.3c2.35-6.12,5.12-12.27,6.82-18.61.06-.23-.34-.78-.51-.42-2.8,5.91-4.59,12.43-6.71,18.62-.08.22.28.72.4.41Z"/><path class="cls-10" d="M52.56,101.93c6.52-12,10.13-26.2,11.42-39.72,1.24-13,.72-27.19-3.45-39.65-.16-.46-.73-.41-.62.12,1.32,6.76,2.78,13.41,3.32,20.3A114.19,114.19,0,0,1,63,63.15c-1.35,13.56-5.33,26-10.83,38.41-.09.2.21.64.36.37Z"/><path class="cls-10" d="M52.43,102.86A120.92,120.92,0,0,0,62.88,73.73c2.25-10,3.76-20.65,3.15-30.91,0-.45-.71-.93-.73-.25-.36,10.38-.9,20.49-3.16,30.67A147.72,147.72,0,0,1,52.08,102.5c-.09.2.21.63.35.36Z"/><path class="cls-11" d="M52,103.62A90.41,90.41,0,0,0,63.22,60.24c0-16.67-4.84-32.91-2.27-49.61.06-.34-.48-.93-.6-.41-3.63,15.39,1.34,31.2,1.83,46.67a96.79,96.79,0,0,1-10.55,46.33c-.11.21.22.68.38.4Z"/><path class="cls-11" d="M53,104.72A76,76,0,0,0,69.6,64.2a82.32,82.32,0,0,0-1-21.94C67,32.93,65.13,24,66.11,14.5c0-.47-.7-1.32-.85-.58-1.51,7.62,0,15.62,1.42,23.13,1.45,7.94,2.63,15.79,2.2,23.89a78.83,78.83,0,0,1-16.15,43.34c-.13.17.12.64.29.44Z"/><path class="cls-11" d="M56.2,105A63.66,63.66,0,0,0,74.42,71.37,64.71,64.71,0,0,0,75.33,52c-.85-8.24-2.77-16.3-1.91-24.64,0-.27-.41-.77-.5-.33-1.28,6.71-.07,13.41.88,20.08A70.61,70.61,0,0,1,73.9,69a68.24,68.24,0,0,1-18,35.51c-.17.18.11.71.33.5Z"/><path class="cls-11" d="M63.14,111.43A83.41,83.41,0,0,0,93,89.41c8-9.27,14.77-19.28,23.85-27.61.3-.27-.13-1.07-.51-.79-9.47,7.06-15.8,17.67-23.28,26.62a84.89,84.89,0,0,1-30.23,23.14c-.28.13,0,.79.28.66Z"/><path class="cls-11" d="M67.74,113.72c11.11-3,20.81-9.43,28.81-17.61a104.29,104.29,0,0,0,19.7-27.9c.16-.33-.3-1.06-.6-.63C109.24,77,103.88,86.79,95.87,95.07S78.4,109.75,67.51,113.18c-.25.07,0,.61.23.54Z"/><path class="cls-11" d="M85.57,109.86A71.71,71.71,0,0,0,101.9,97c4.57-4.9,9.41-10.93,11.69-17.31.1-.27-.25-.91-.5-.52-3.86,5.82-7,11.75-11.77,17a73.39,73.39,0,0,1-16,13.18c-.24.15,0,.72.25.59Z"/><path class="cls-12" d="M25.53,105.17a3.93,3.93,0,1,1,5.08,2.22A3.92,3.92,0,0,1,25.53,105.17Z"/><path class="cls-11" d="M29.3,105.56a1.76,1.76,0,0,1,3.27-1.28,1.76,1.76,0,1,1-3.27,1.28Z"/><path class="cls-12" d="M22.56,118.19c2.19,2.15,6.34,2.55,8.33-.16.17-.23-.08-1.06-.44-.82-2.38,1.56-5.2,2.15-7.73.46-.33-.22-.33.35-.16.52Z"/><path class="cls-9" d="M67.37,124.1a41.94,41.94,0,0,0,2.77,7.08c.23.4.66.19.57-.23a42.17,42.17,0,0,0-2.79-7.08c-.22-.52-.74-.29-.55.23Z"/><path class="cls-9" d="M72.77,126.66a19.19,19.19,0,0,0,3.8,7.35c.45.49.62-.28.43-.62a50.79,50.79,0,0,1-3.6-6.85c-.17-.45-.8-.42-.63.12Z"/><path class="cls-9" d="M79.94,130.82a35.59,35.59,0,0,0,4.19,7.78c.4.52,1,.12.66-.45-1.35-2.57-3-5-4.23-7.59-.28-.56-.88-.33-.62.26Z"/><path class="cls-9" d="M86,134.07a28.3,28.3,0,0,0,5.35,7.75c.42.39.62-.23.39-.57-1.72-2.54-3.6-4.92-5.11-7.61-.32-.57-.9-.09-.63.43Z"/><path class="cls-9" d="M93.7,138a32.94,32.94,0,0,0,3.71,5.55c.41.44.72-.14.54-.55a35.29,35.29,0,0,0-3.72-5.54c-.43-.59-.84,0-.53.54Z"/><path class="cls-9" d="M100.68,140.5c1.21,2,2.52,4.55,4.32,6.11.49.43.64-.25.43-.63-1.19-2.1-2.93-3.95-4.23-6-.38-.6-.81,0-.52.53Z"/><path class="cls-9" d="M108.64,144.64a19.54,19.54,0,0,0,3,3.81c.36.3.5-.3.39-.55a22,22,0,0,0-2.78-3.88c-.5-.66-1,.06-.61.62Z"/></g></svg>