<svg id="Layer_1" data-name="Layer 1" xmlns="http://www.w3.org/2000/svg" viewBox="0 0 105.74 50.49"><defs><style>.cls-1{opacity:0.3;}.cls-2{fill:#eaeaea;stroke:#333232;stroke-miterlimit:10;stroke-width:0.25px;}.cls-3{fill:#d1d1d1;}.cls-4{fill:#fff;}</style></defs><ellipse class="cls-1" cx="53.94" cy="44.19" rx="47.68" ry="5.8"/><path class="cls-2" d="M105.28,11c0-6.79-4.34-11.11-9.61-10.31-2.48.38-3.47,5.17-5.6,7-.92.79-4.29,1-6.19,1H18.7c-3.11,0-3-7.22-7.58-7.93C6.73.05.77,4.49.77,11.28c0,2.88-1.06,10.28,5.44,11.24,2,2.87-3.35,3.06-3.95,5.87C-.17,39.75,8.32,42.14,11.12,42.14c3.16,0,4.47-7.93,7.58-7.93H83.88c1.9,0,5.27.16,6.19.94,2.13,1.83,3.09,7,5.6,7,2.81,0,9.1-2.14,9.1-13.38,0-5.25-7.41-3.95-4.9-7.33C103.75,19.33,105.28,13.9,105.28,11Z"/><path class="cls-3" d="M3,27.07S-1.1,37.24,8.33,41.62c4,1,5-.54,6.41-3.1s2.72-4.8,5.59-4.31c3-.27,50.24,0,50.24,0l16.09.11s3.83-1,6.08,5c1.75,2.62,2.2,4.34,7.9.88,2.25-1.32,3.7-5,3.81-7.44s1.08-6.33-2.3-8c0,0-4.64,18.71-9.66,8.64A10,10,0,0,0,83.2,29c-6.28.63-62.5-1.2-62.5-1.2a8.6,8.6,0,0,0-6.29,5.6C12.4,38.48,4.53,37.82,3,27.07Z"/><ellipse class="cls-4" cx="50.44" cy="10.79" rx="23.47" ry="0.63"/></svg>