<svg id="Layer_1" data-name="Layer 1" xmlns="http://www.w3.org/2000/svg" viewBox="0 0 199.71 81.83"><defs><style>.cls-1{fill:#141412;opacity:0.39;}.cls-2,.cls-7{fill:#edeaed;}.cls-11,.cls-2,.cls-3,.cls-4,.cls-6{stroke:#000;stroke-miterlimit:10;stroke-width:0.25px;}.cls-3{fill:#296089;}.cls-4{fill:#507aa0;}.cls-5{fill:#84adbc;}.cls-6{fill:#fff;}.cls-8{fill:#205372;}.cls-10,.cls-9{fill:#2e3192;}.cls-10{opacity:0.65;}.cls-11{fill:none;}.cls-12{fill:#252528;}</style></defs><path class="cls-1" d="M20.1,37.8S-13,50.15,7.54,62.47c62.81,37.74,208.9,9.35,187.38-6.31S169.1,37.89,148.68,35.83,72.71,22.31,20.1,37.8Z"/><path class="cls-2" d="M54.58,46.73c10.3-5.15,41.19,6.44,66.93,14.16,23.17,11.58,74.65,3.86,74.65,3.86L189.54,57h9.19C178.14-17.62,49.44,10.69,44.29,39.93"/><path class="cls-3" d="M46.86,36.44s-23.16-7.73-36,5.14c7.72,5.15,12.87,10.3,12.87,12.87,0,0,12.87,0,15.44-2.57,0,0-10.3,5-10.3,7.63,0,0,15.45,10.39,15.45,13,0,0,7.72-23.16,10.29-25.74C54.58,46.73,46.86,44.16,46.86,36.44Z"/><path class="cls-3" d="M137,10.69S111.58-9.9,83.08,8.12c-.36,5.15,10.12,5.15,10.12,5.15S129.23,8.12,137,10.69Z"/><path class="cls-4" d="M73,45.83S69.75,53.31,77.45,54,94.9,51.54,94.9,51.54,78.09,46.26,73,45.83Z"/><path class="cls-4" d="M117.56,51.88c-1.2,1.29-8.92-1.29-8.92-9S127.21,45.44,130.8,48l3,3.86Z"/><path class="cls-5" d="M46.08,35.38s.78-9.24,31.67-19.54c0,0,33.46-7.72,59.21-6.43,0,0,21.77,1.28,33.85,11.58-8.11,0-21,5.15-29.25,23.17,0,0-.35,5.42,1.38,9.15,0,0-15.36-16.69-28.69-14.21-18.48-2.66-56.18-1.31-63.07,5.74C51.18,44.84,45.3,42.06,46.08,35.38Z"/><path class="cls-5" d="M170.81,21S191,29.26,198.73,57.3C188.44,56.75,191,57,191,57s-47.1,6.14-49.29-8.51S162.7,15.84,170.81,21Z"/><circle class="cls-6" cx="167.84" cy="31.29" r="5.15"/><circle cx="167.84" cy="31.29" r="2.57"/><path d="M165.27,21a38.42,38.42,0,0,0-13.05,6.84c-3.87,3-7.35,6.75-9.2,11.31a18.21,18.21,0,0,0,.1,14.29A24.69,24.69,0,0,0,147,59.68a29.79,29.79,0,0,0,5.39,5.07,27.3,27.3,0,0,1-9.63-11.17,18.48,18.48,0,0,1-1.62-7.29A19,19,0,0,1,142.56,39,28.24,28.24,0,0,1,152,27.53a44.32,44.32,0,0,1,6.31-4A34.12,34.12,0,0,1,165.27,21Z"/><path d="M46.08,35.38A17.88,17.88,0,0,1,51,28.64,37.25,37.25,0,0,1,54.23,26a40.89,40.89,0,0,1,3.52-2.3A76.89,76.89,0,0,1,73.16,17.1l4-1.23,4.07-1,2-.51c.68-.16,1.37-.28,2.06-.43l4.11-.83c2.75-.56,5.53-.92,8.29-1.39s5.54-.79,8.32-1.13c11.12-1.28,22.37-1.91,33.53-.79A73.45,73.45,0,0,1,156,13.23,60.91,60.91,0,0,1,170.85,21,60.81,60.81,0,0,0,156,13.34a74.48,74.48,0,0,0-16.38-3.42c-11.15-1.08-22.39-.43-33.49.88-2.78.33-5.56.63-8.32,1.11s-5.53.81-8.28,1.36l-4.11.82c-.69.15-1.38.27-2.06.43l-2,.51-4.07,1-4,1.22a76.06,76.06,0,0,0-15.4,6.56,37,37,0,0,0-3.52,2.27A35.77,35.77,0,0,0,51,28.69,17.76,17.76,0,0,0,46.08,35.38Z"/><path class="cls-7" d="M183.07,58s15.66,1.65,15.66,4.23a2.52,2.52,0,0,1-2.57,2.57,144.07,144.07,0,0,0-16.82,1.78C175.57,67.32,170,58.88,183.07,58Z"/><path d="M184.16,58c1.63.15,3.26.36,4.88.62s3.23.56,4.83,1a21.93,21.93,0,0,1,2.35.72,6.7,6.7,0,0,1,2.19,1.16,1.42,1.42,0,0,1,.36.54,2,2,0,0,1,0,.64,2.61,2.61,0,0,1-.44,1.17,2.78,2.78,0,0,1-2.18,1,2.67,2.67,0,0,0,2.08-1.07,2.48,2.48,0,0,0,.4-1.12,1.8,1.8,0,0,0,0-.57,1.23,1.23,0,0,0-.32-.47,6.92,6.92,0,0,0-2.15-1.09c-.77-.26-1.55-.48-2.35-.67-1.58-.41-3.18-.74-4.79-1S185.78,58.2,184.16,58Z"/><path class="cls-8" d="M198.73,57s2.46,2.09-5.14,2.57l-12.22-1.9S191,57,198.73,57Z"/><ellipse class="cls-9" cx="95.77" cy="19.7" rx="3.86" ry="2.57" transform="translate(-1.98 21.93) rotate(-12.93)"/><ellipse class="cls-9" cx="72.6" cy="24.85" rx="2.22" ry="1.83" transform="translate(-3.72 16.88) rotate(-12.93)"/><ellipse class="cls-9" cx="59.73" cy="32.57" rx="2.22" ry="1.83" transform="translate(-5.77 14.19) rotate(-12.93)"/><ellipse class="cls-9" cx="144.68" cy="17.13" rx="3.86" ry="2.57" transform="translate(-0.16 32.81) rotate(-12.93)"/><ellipse class="cls-9" cx="129.23" cy="30" rx="2.37" ry="1.63" transform="translate(-2.89 18.01) rotate(-7.88)"/><ellipse class="cls-9" cx="106.07" cy="32.57" rx="2.37" ry="1.63" transform="translate(-3.47 14.86) rotate(-7.88)"/><ellipse class="cls-9" cx="134.38" cy="42.87" rx="2.37" ry="1.63" transform="translate(-4.61 18.84) rotate(-7.88)"/><ellipse class="cls-9" cx="121.51" cy="19.7" rx="2.37" ry="1.63" transform="translate(-1.55 16.85) rotate(-7.88)"/><ellipse class="cls-9" cx="91.91" cy="39.01" rx="3.2" ry="2.84" transform="translate(-2.49 6.49) rotate(-3.99)"/><ellipse class="cls-9" cx="71.32" cy="39.01" rx="1.1" ry="0.98" transform="matrix(1, -0.07, 0.07, 1, -2.54, 5.06)"/><ellipse class="cls-9" cx="55.87" cy="41.58" rx="1.1" ry="0.98" transform="translate(-2.76 3.99) rotate(-3.99)"/><path class="cls-10" d="M141.86,52.2S139,37,149.55,34.14c0,0-8,12.82,0,21.71C149.55,55.85,144.19,55.09,141.86,52.2Z"/><line class="cls-9" x1="51.39" y1="45" x2="39.44" y2="67.27"/><path d="M51.39,45c-.92,1.9-1.85,3.78-2.82,5.66l-2.94,5.59-3,5.54q-1.55,2.76-3.16,5.48,1.37-2.85,2.82-5.66L45.19,56l3-5.55Q49.78,47.71,51.39,45Z"/><path d="M49.13,42.87c-1.41,1.6-2.83,3.19-4.27,4.75L40.5,52.28l-4.45,4.58q-2.23,2.28-4.54,4.49c1.4-1.6,2.82-3.19,4.27-4.75l4.36-4.66,4.44-4.58C46.08,45.84,47.59,44.35,49.13,42.87Z"/><path class="cls-9" d="M47.51,40.05s-19.95,8-25.1,10.54"/><path d="M47.51,40.05q-3.1,1.39-6.24,2.72L35,45.41,28.7,48c-2.1.86-4.21,1.69-6.29,2.6,2-1.07,4.06-2,6.13-3s4.17-1.8,6.26-2.68,4.21-1.71,6.32-2.53S45.37,40.81,47.51,40.05Z"/><path d="M46.08,37.74c-1.33,0-2.65,0-4,.13s-2.64.16-4,.3a77,77,0,0,0-7.85,1.16,57.5,57.5,0,0,0-7.63,2.12A37.3,37.3,0,0,0,15.57,45a31,31,0,0,1,7-3.91,51.42,51.42,0,0,1,7.67-2.25,68.13,68.13,0,0,1,7.92-1.05A57.3,57.3,0,0,1,46.08,37.74Z"/><path class="cls-11" d="M46,35.49s-.43,7.38,8.57,11.24"/><ellipse class="cls-12" cx="160.12" cy="63.03" rx="2.57" ry="1.72"/><ellipse class="cls-12" cx="174.28" cy="64.75" rx="1.29" ry="0.86"/><ellipse class="cls-12" cx="134.38" cy="60.46" rx="2.57" ry="1.72"/><path class="cls-11" d="M198.73,57.3s-10.57-1-18.15.65c8,.73,18.15,1.65,18.15,4.23"/><path d="M126.66,8.12c-2.76-.69-5.52-1.35-8.29-2S112.82,4.88,110,4.34s-5.58-1.08-8.4-1.44c-1.4-.19-2.82-.32-4.24-.38A10.42,10.42,0,0,0,93.2,3a10.46,10.46,0,0,1,4.2-.57c1.42,0,2.84.16,4.25.33,2.83.34,5.64.82,8.43,1.36s5.56,1.2,8.33,1.87S123.93,7.34,126.66,8.12Z"/><path d="M111.21,10.69c-1.84-.74-3.7-1.41-5.58-2S101.84,7.46,99.92,7s-3.86-.91-5.82-1.22a48.87,48.87,0,0,0-5.93-.48,34.81,34.81,0,0,1,6,.32A58.28,58.28,0,0,1,100,6.74,71.21,71.21,0,0,1,111.21,10.69Z"/><path d="M100.92,10.69l-4.3-.88c-1.44-.29-2.87-.55-4.32-.79s-2.88-.5-4.33-.68S85.07,8,83.6,8A28,28,0,0,1,88,8.17c1.46.16,2.91.37,4.35.61C95.22,9.32,98.1,9.91,100.92,10.69Z"/><path d="M120.22,9.41c-2.33-.48-4.67-1-7-1.49l-7-1.55-7-1.56c-1.16-.26-2.33-.51-3.5-.74a22,22,0,0,0-3.52-.54,40.33,40.33,0,0,1,7.09.9c2.35.44,4.68,1,7,1.45s4.65,1.08,7,1.67S117.93,8.75,120.22,9.41Z"/><path d="M84.19,48c-1.62.79-3.27,1.49-4.92,2.2s-3.32,1.38-5,2c1.61-.8,3.26-1.5,4.91-2.21S82.49,48.62,84.19,48Z"/><path d="M79,54c1.72-.78,3.48-1.47,5.24-2.17s3.53-1.35,5.33-1.93c-1.72.78-3.48,1.47-5.24,2.16S80.84,53.45,79,54Z"/><path d="M79.22,47.07c-1.1.57-2.24,1.06-3.38,1.55s-2.3.93-3.48,1.32c1.1-.58,2.25-1.06,3.38-1.55S78,47.45,79.22,47.07Z"/><path d="M131.81,49.31c-3.92-1-7.8-2.07-11.71-3.1s-7.77-2.16-11.63-3.34c3.91,1,7.8,2.07,11.7,3.1S128,48.13,131.81,49.31Z"/><path d="M132.44,50.11c-3.77-.28-7.51-.69-11.27-1s-7.5-.78-11.24-1.27c3.76.27,7.51.68,11.26,1S128.7,49.62,132.44,50.11Z"/><path d="M131.18,48.5c-3.58-1.24-7.12-2.61-10.67-3.91s-7.08-2.7-10.58-4.14c3.58,1.24,7.11,2.61,10.67,3.91S127.67,47.06,131.18,48.5Z"/></svg>