<svg id="Layer_1" data-name="Layer 1" xmlns="http://www.w3.org/2000/svg" viewBox="0 0 63.34 60.1"><defs><style>.cls-1,.cls-9{fill:#6b4d4a;}.cls-10,.cls-2{fill:#4c3631;}.cls-11,.cls-3{fill:#e44225;}.cls-10,.cls-3,.cls-4,.cls-6,.cls-9{stroke:#332e2d;stroke-miterlimit:10;}.cls-3,.cls-4,.cls-6{stroke-width:0.25px;}.cls-4,.cls-8{fill:#f1695d;}.cls-5{fill:#f05d2e;}.cls-6{fill:#3f2f2d;}.cls-7{fill:#fff;}.cls-10,.cls-9{stroke-width:0.1px;}</style></defs><g id="lady_bug" data-name="lady bug"><path class="cls-1" d="M55.43,52.89a15.17,15.17,0,0,1-2.93-.23c-.53-.07-.61-.85-.43-1.25.64-1.46,1.63-3,1.48-4.69a4,4,0,0,0-2.1-2.95c-.44-.3-.31-1.52.32-1.53,1.89,0,2.93,1.94,3.19,3.6.38,2.37-.75,4.69-2.07,6.59-.07-.46-.14-.92-.2-1.38a23.43,23.43,0,0,0,2.85.87c.37.11.28.95-.11,1Z"/><path class="cls-2" d="M46.45,56.52c-1.08.14-2.16.2-3.24.28-.35,0-.52-.54-.49-.8a33.45,33.45,0,0,1,.88-3.41c.4-1.91-.81-3.23-2.41-4.08-.41-.22-.53-1.33,0-1.44,1.92-.4,3.26,1,3.76,2.73.69,2.44-.59,4.2-1.27,6.44l-.47-1c1.08.1,2.15.17,3.22.32.44.06.41.92,0,1Z"/><path class="cls-2" d="M34.2,59.5a25.41,25.41,0,0,1-3.49.29c-.5,0-.51-.8-.39-1.1.5-1.25,1.94-3.57,1.1-4.79-.66-1-2.06-1.35-3-2-.43-.3-.26-1.3.27-1.36a4.2,4.2,0,0,1,4.65,3c.58,2.3-1.14,4.27-2.29,6.09-.1-.42-.2-.84-.31-1.25a25.35,25.35,0,0,1,3.48.37c.35.06.33.74,0,.79Z"/><path class="cls-2" d="M20,59.86a4.2,4.2,0,0,1-3.13-.73.79.79,0,0,1-.23-1A12,12,0,0,0,18,55c.23-1.22-.3-1.89-1-2.8-.26-.34-.19-1.58.45-1.49,1.59.23,2.21,2.12,2.22,3.53a6.3,6.3,0,0,1-2.49,4.82l0-1.14A6.54,6.54,0,0,0,20,59.13c.24.06.23.68,0,.73Z"/><path class="cls-1" d="M6.82,57.07a5.77,5.77,0,0,1-2.6-.83.89.89,0,0,1-.08-1.31c.94-1,2-2.09,2.27-3.51s-.58-2.24-1.29-3.23c-.25-.34-.21-1.65.46-1.54,2,.35,2.66,2.89,2.51,4.66a6.09,6.09,0,0,1-3.62,4.93l.15-1.3A8.88,8.88,0,0,0,6.9,56.33c.25.1.24.77-.08.74Z"/><path class="cls-3" d="M1.12,39.69c-.57,2-1.63,6.13,1.64,6.13,2.58,0,7.88-15.33,25-17.52s21.93-2.49,21.93-2.49-6.53-8.37-24.1-5.72C10.56,22.36,3.17,32.75,1.12,39.69Z"/><path class="cls-2" d="M4.23,39.07a36.34,36.34,0,0,1,10.24-9.76,38.06,38.06,0,0,1,14.14-5,31.44,31.44,0,0,1,15.93,1.07c.27.1.35.57.24.9l-1.9.2c-.75-.08-1.5-.17-2.25-.18-1.16,0-2.3.2-3.47.18a41,41,0,0,0-7.25.48,36.11,36.11,0,0,0-14,5.5,32.85,32.85,0,0,0-9.26,8.9c-.42.61-.81,1.24-1.18,1.87-1.19,1.56-2,2.59-2.71,2.59a2.08,2.08,0,0,1-1.71-.68A33.56,33.56,0,0,1,4.23,39.07Z"/><path class="cls-2" d="M56.44,3.63a16.35,16.35,0,0,0-2.62,13.1c.12.51-.67.73-.78.22A17.16,17.16,0,0,1,55.73,3.22c.3-.43,1,0,.71.41Z"/><path class="cls-2" d="M40.75,5.25a16.49,16.49,0,0,0,5.07,12.86c.38.36-.19.94-.57.57A17.21,17.21,0,0,1,39.94,5.25c0-.52.84-.53.81,0Z"/><path class="cls-1" d="M55.81,2c-.56,1.11-.69,2.18-.27,2.4s1.22-.52,1.78-1.63S58,.57,57.6.36,56.38.87,55.81,2Z"/><path class="cls-1" d="M39.87,3.16c-.22,1.23,0,2.29.44,2.38s1-.85,1.23-2.08,0-2.3-.44-2.38S40.09,1.93,39.87,3.16Z"/><path class="cls-4" d="M50.69,27.8C56,32.39,56.07,39,55.75,42.23A4.52,4.52,0,0,1,54,45.38,46.51,46.51,0,0,1,22.36,54c-8.56-.77-13.89-2.43-17-3.83A4.45,4.45,0,0,1,3.25,44c2.4-4.55,7.5-12,16.51-15.37,11.37-4.31,24.83-2.53,28.81-1.85A4.31,4.31,0,0,1,50.69,27.8Z"/><path class="cls-5" d="M19.76,28.67c11.37-4.31,24.83-2.53,28.81-1.85l.17,0a21.49,21.49,0,0,1,0,4.52A4.5,4.5,0,0,1,47,34.53a46.45,46.45,0,0,1-31.61,8.61,71.56,71.56,0,0,1-10.64-1.7A31.12,31.12,0,0,1,19.76,28.67Z"/><path class="cls-6" d="M62.23,21.79c-2-5.95-7.34-7.14-12.5-5.38s-8.22,5.81-6.18,11.76,7.86,9.35,13,7.59S64.26,27.75,62.23,21.79Z"/><path class="cls-1" d="M43.56,21.47a9.88,9.88,0,0,1,6.17-5.06c3.63-1.24,7.33-1,9.91,1.3a9.43,9.43,0,0,1-5.93,6.62A9.78,9.78,0,0,1,43.56,21.47Z"/><path class="cls-7" d="M60.65,22.3A3.29,3.29,0,1,0,57.89,26,3.28,3.28,0,0,0,60.65,22.3Z"/><path class="cls-1" d="M59.51,22.1A1.83,1.83,0,1,0,58,24.18,1.82,1.82,0,0,0,59.51,22.1Z"/><path class="cls-7" d="M60.47,23a1.1,1.1,0,1,0-.93,1.25A1.11,1.11,0,0,0,60.47,23Z"/><path class="cls-7" d="M51.42,24.79a3.29,3.29,0,1,0-2.76,3.73A3.28,3.28,0,0,0,51.42,24.79Z"/><path class="cls-1" d="M50.29,24.59a1.83,1.83,0,1,0-1.54,2.07A1.83,1.83,0,0,0,50.29,24.59Z"/><path class="cls-7" d="M51.24,25.52a1.1,1.1,0,1,0-.92,1.25A1.1,1.1,0,0,0,51.24,25.52Z"/><path class="cls-8" d="M58.19,28.46a3.94,3.94,0,0,1-6.75,2.16.27.27,0,0,1,.38-.38,3.4,3.4,0,0,0,5.84-1.93c.05-.34.58-.2.53.15Z"/><path class="cls-9" d="M34.37,33A4.38,4.38,0,1,0,30,37.35,4.38,4.38,0,0,0,34.37,33Z"/><path class="cls-10" d="M32.44,22.24a4.37,4.37,0,0,1-3.95-2.49,37.71,37.71,0,0,1,7.86.06A4.36,4.36,0,0,1,32.44,22.24Z"/><path class="cls-10" d="M12.83,27.14a4.33,4.33,0,0,1-2.36-.7,30.12,30.12,0,0,1,6.73-4c0,.1,0,.2,0,.3A4.38,4.38,0,0,1,12.83,27.14Z"/><path class="cls-10" d="M47.28,42.69a3.9,3.9,0,1,0-3.89,3.9A3.89,3.89,0,0,0,47.28,42.69Z"/><path class="cls-10" d="M21.71,44a4,4,0,1,0-4,4A4,4,0,0,0,21.71,44Z"/><path class="cls-11" d="M5,47.71c3.12,1.4,8.44,3.06,17,3.83a46.42,46.42,0,0,0,31.61-8.62,4.45,4.45,0,0,0,1.78-3.14,20.91,20.91,0,0,0,0-4.13,20.05,20.05,0,0,1,.41,6.58A4.52,4.52,0,0,1,54,45.38,46.51,46.51,0,0,1,22.36,54c-8.56-.77-13.89-2.43-17-3.83a4.46,4.46,0,0,1-2.58-4.58A4.43,4.43,0,0,0,5,47.71Z"/></g></svg>