<svg id="Layer_1" data-name="Layer 1" xmlns="http://www.w3.org/2000/svg" viewBox="0 0 67.61 88.31"><defs><style>.cls-1{fill:#d1ce28;}.cls-1,.cls-5,.cls-6{stroke:#1e2121;}.cls-1,.cls-2,.cls-3,.cls-5,.cls-6,.cls-8{stroke-miterlimit:10;stroke-width:0.25px;}.cls-2{fill:#a9afbd;}.cls-2,.cls-3,.cls-8{stroke:#0e3a3d;}.cls-10,.cls-3{fill:#c7d4ec;}.cls-4{fill:#3e6164;}.cls-5{fill:#838157;}.cls-6{fill:#dcd444;}.cls-7{fill:#034751;}.cls-11,.cls-8{fill:#fff;}.cls-9{fill:#474a50;}.cls-12{fill:#0e3a3d;}</style></defs><g id="dragonfly"><path class="cls-1" d="M60.42,60.43c.19-3.56-2.19-6.58-5.31-6.74s-5.79,2.59-6,6.15,2.19,6.59,5.31,6.75S60.24,64,60.42,60.43Z"/><path class="cls-2" d="M36.83,59.48S29.89,48.76,27.44,38c-2.38-10.47-5.22-22.32-9.75-20.76-5.2,1.78-3.18,29.24,6.52,38,8.08,7.31,10.22,6.16,10.22,6.16Z"/><path class="cls-3" d="M34.7,60.14s-10-7.92-15.8-17.36C13.28,33.63,6.78,23.33,3,26.25-1.36,29.62,9.38,55,21.39,60.17c10,4.33,11.66,2.55,11.66,2.55Z"/><path class="cls-2" d="M42.57,58.81s2.72-15.52,9.56-27.35c6.64-11.47,14-24.57,8.6-27-6.2-2.75-27.41,23.79-26,39.89,1.17,13.39,4.08,14.15,4.08,14.15Z"/><path class="cls-4" d="M45.72,82.92a37.5,37.5,0,0,0-9.85-.86c-.16,0-.19-.13-.14-.26.93-2.48,1.94-4.92,2.86-7.4.85-2.31,1.45-4.79.58-7.19-.07-.19.27-.67.42-.41,1.88,3.19.11,6.85-1.23,9.93-.5,1.14-1,2.27-1.51,3.41-.2.46-.68,1-.27,1.42.18.18,1.41,0,1.75,0a38,38,0,0,1,7.5,1c.15,0,0,.34-.11.31Z"/><path class="cls-4" d="M24.53,87.87a14.85,14.85,0,0,0,1.84-4.54c.29-1.49.56-3.88-.24-5.28a.57.57,0,0,1,.27-.73,39.57,39.57,0,0,0,6.79-3.78c2.08-1.49,5.21-3.59,6.09-6.07.09-.25.53-.43.48,0-.27,2-2.19,3.49-3.67,4.75A35.58,35.58,0,0,1,30,76.41q-.73.41-1.5.78c-1,.47-1.66.4-1.7,1.66s.16,2.26,0,3.41A13.58,13.58,0,0,1,24.69,88c-.09.14-.25,0-.16-.1Z"/><path class="cls-4" d="M60.44,76.78a59,59,0,0,0-11.1,2,.13.13,0,0,1-.15-.09c-.66-2.14-1.09-4.36-1.68-6.52s-1.4-4.35-1.88-6.57c0-.21.29-.67.44-.35a36.18,36.18,0,0,1,1.86,5.85c.27,1,.53,2,.76,3a21.3,21.3,0,0,0,.73,3.34c.42,1,1,.65,2,.44s1.93-.41,2.9-.59a50.88,50.88,0,0,1,6.15-.76c.13,0,.06.19,0,.2Z"/><path class="cls-5" d="M35.39,68.17S7.37,79.34,1.26,77,26,64.59,32.73,62.48,35.39,68.17,35.39,68.17Z"/><path class="cls-1" d="M1.78,74.66c5.38-3.87,25.67-10.52,30.95-12.18,1.77-.56,2.79-.42,3.33.08a13.12,13.12,0,0,1-1.08,3S9.38,75.77,1.78,74.66Z"/><path class="cls-1" d="M48.54,64.64s-2.29,7.18-12,5.08-5.66-9.38.53-12.23,11.19,1.82,11.19,1.82Z"/><path class="cls-6" d="M34.56,59a14.78,14.78,0,0,1,2.5-1.47c6.19-2.84,11.19,1.82,11.19,1.82l.2,3.69c-1.83,1-4.43,1.46-8.07.68C36.27,62.79,34.62,61,34.56,59Z"/><path class="cls-6" d="M53.52,52.73c7.53,1.47,5.86,8.49,2.8,12.61s-7.43,4.86-9.83-2.26S47.21,51.49,53.52,52.73Z"/><path class="cls-7" d="M67.19,50.22a17.18,17.18,0,0,0-9.35,5.38c-.25.26-.4-.07-.22-.29A15.81,15.81,0,0,1,67.22,50c.11,0,0,.18,0,.2Z"/><path class="cls-7" d="M64.4,45.8A22.15,22.15,0,0,0,56,54.74c-.16.28-.58.22-.42-.15a19.12,19.12,0,0,1,8.85-9c.15-.08.11.18,0,.23Z"/><path class="cls-1" d="M56.53,58.29c.18-3.57-2.19-6.59-5.31-6.75s-5.8,2.59-6,6.16,2.19,6.58,5.31,6.75S56.34,61.85,56.53,58.29Z"/><path class="cls-8" d="M55.44,58.17c.16-3-1.81-5.46-4.39-5.59s-4.8,2.15-5,5.1,1.81,5.45,4.4,5.58S55.29,61.12,55.44,58.17Z"/><path class="cls-9" d="M55.76,74.07A32.54,32.54,0,0,0,43.52,78c-.2.11-.33-.09-.3-.27.71-4.14,1.11-8.41,2-12.51.06-.28.52-.55.49-.1a117.66,117.66,0,0,1-2,12.5l-.3-.26c4.09-1.59,7.92-3.06,12.32-3.59.17,0,.08.27-.05.29Z"/><path class="cls-9" d="M41.27,87.38a33,33,0,0,0-6.56-10.1c-.1-.1,0-.31.07-.39A63.62,63.62,0,0,0,38.87,72c1.38-1.84,2.46-3.82,3.73-5.72.07.19.13.39.2.59l-.28.06c-.38.09-.17-.5,0-.62l.27-.22c.3-.25.58.07.43.39A34.34,34.34,0,0,1,35,77.27l.12-.44a42.72,42.72,0,0,1,6.35,10.41c0,.09-.12.26-.17.14Z"/><path class="cls-9" d="M31.19,85.65a24.71,24.71,0,0,0-.14-14,.59.59,0,0,1,.39-.67c2-.69,4.08-1.35,6.1-2.09a41.18,41.18,0,0,1,5-1.86c.45-.1.15.6,0,.72a33,33,0,0,1-5.79,2.32c-1.79.63-3.58,1.22-5.4,1.73.13-.2.27-.39.4-.58.37,4.85,1.49,9.75-.34,14.46-.05.13-.24.15-.18,0Z"/><path class="cls-3" d="M40.1,57.63s-2.42-15.57.26-29C43,15.66,45.72.89,39.83.35,33.07-.26,21.52,31.69,28,46.49c5.41,12.3,8.4,12.09,8.4,12.09Z"/><path class="cls-10" d="M60.2,7c.29,7.77-5.79,14.74-9.3,21.16a76.57,76.57,0,0,0-8.68,26c0,.25-.43.45-.41.08.5-8.35,3.56-16.55,7.32-23.95C51,26.51,53.32,23,55.46,19.37A30.4,30.4,0,0,0,59.9,7.08c0-.13.29-.33.3-.1Z"/><path class="cls-10" d="M58,7.25c-.82,6.81-4.62,12.9-8,18.69a91.85,91.85,0,0,0-5.16,9.57,38.68,38.68,0,0,0-2.9,10.78c0,.19-.42.48-.43.15-.19-6.67,3.42-13.08,6.66-18.67C52,21.19,56,14.81,57.72,7.31c.05-.18.35-.34.32-.06Z"/><path class="cls-10" d="M55.31,9.5A60,60,0,0,1,48.58,23c-2.87,4.27-5.85,8-6.94,13.1,0,.21-.51.59-.51.18,0-4.33,3-8.18,5.41-11.53A71.65,71.65,0,0,0,55,9.45c.11-.26.48-.28.36.05Z"/><path class="cls-10" d="M51.48,11.9a33.33,33.33,0,0,1-3.6,7.46c-1.69,2.58-4,4.74-4.69,7.87,0,.15-.37.41-.36.13.06-2.45,1.66-4.31,3.1-6.14a34.44,34.44,0,0,0,5.29-9.35c.07-.19.34-.21.26,0Z"/><path class="cls-10" d="M28.8,52.7a45.19,45.19,0,0,1-6.55-15.45A133.18,133.18,0,0,1,18.88,19c0-.19.36-.58.43-.28,1.52,5.85,2.06,11.94,3.41,17.83A48.49,48.49,0,0,0,29,52.46c.07.11-.12.37-.21.24Z"/><path class="cls-10" d="M21.87,42.28a40.92,40.92,0,0,1-3.35-9.87A39.48,39.48,0,0,1,17.3,22c0-.17.32-.47.35-.17A96.7,96.7,0,0,0,19,32.37a83.12,83.12,0,0,0,3.09,9.72c0,.09-.13.3-.19.19Z"/><path class="cls-10" d="M24.58,35.18a100.9,100.9,0,0,1-2.34-10.41c0-.13.23-.39.3-.19A96.85,96.85,0,0,1,24.82,35c0,.13-.2.37-.24.2Z"/><path class="cls-10" d="M38.53,55.25a56.73,56.73,0,0,1-3.33-22c.24-7,1.51-14.56,4.6-20.92.12-.24.42-.17.33.11a95.05,95.05,0,0,0-3.19,10.6,60.94,60.94,0,0,0-1.3,10.78,66.92,66.92,0,0,0,3.1,21.25c0,.11-.15.33-.21.17Z"/><path class="cls-10" d="M38.53,55.76A65.35,65.35,0,0,1,35,39.48a60.75,60.75,0,0,1,.48-16.71c0-.24.44-.45.41-.08a89.19,89.19,0,0,0-.46,16.58,80.41,80.41,0,0,0,3.33,16.32c0,.11-.15.32-.21.17Z"/><path class="cls-11" d="M38.7,56.19a48.6,48.6,0,0,1-3-23.93c1.13-8.9,4.87-17.22,4.66-26.32,0-.18.32-.46.35-.17.87,8.46-2.89,16.55-4.23,24.77A52.11,52.11,0,0,0,38.94,56c0,.12-.17.35-.24.19Z"/><path class="cls-11" d="M38.09,56.71a41,41,0,0,1-6-22.78,43.88,43.88,0,0,1,2.08-11.64c1.5-4.87,3.11-9.5,3.25-14.64,0-.25.46-.66.49-.25.28,4.17-1.11,8.33-2.37,12.24a55,55,0,0,0-2.84,12.6,42.51,42.51,0,0,0,5.6,24.25c.06.1-.11.33-.18.22Z"/><path class="cls-11" d="M36.37,56.64A34.22,34.22,0,0,1,29,37.42,35,35,0,0,1,29.85,27c1-4.34,2.62-8.51,2.74-13,0-.14.28-.38.29-.14C33.1,17.52,32,21,31,24.5a38.27,38.27,0,0,0-1.58,11.69,36.7,36.7,0,0,0,7.15,20.2c.08.12-.11.38-.21.25Z"/><path class="cls-11" d="M32.22,59.58A45,45,0,0,1,17.8,45.75C14.17,40.24,11.26,34.43,7,29.35c-.14-.16.15-.56.33-.38C11.89,33.4,14.53,39.5,17.9,44.8A45.71,45.71,0,0,0,32.41,59.25c.15.09,0,.42-.19.33Z"/><path class="cls-11" d="M29.61,60.49A34.4,34.4,0,0,1,15.46,49.08,56.08,56.08,0,0,1,6.89,32.82c-.06-.19.23-.55.36-.29C10,38,12.19,43.6,15.89,48.57A36.81,36.81,0,0,0,29.77,60.21c.13.06,0,.33-.16.28Z"/><path class="cls-11" d="M20.36,57.18a38.56,38.56,0,0,1-7.82-8c-2.09-2.94-4.26-6.49-5-10.06,0-.15.2-.46.3-.24,1.66,3.37,2.91,6.76,5.1,9.87a39.53,39.53,0,0,0,7.62,8.14c.12.1-.05.39-.17.3Z"/><path class="cls-12" d="M52.73,58.86a2.11,2.11,0,1,0-2.87.83A2.12,2.12,0,0,0,52.73,58.86Z"/><path class="cls-11" d="M50.69,58.81A.95.95,0,1,0,49,57.9a.95.95,0,0,0,1.66.91Z"/><path class="cls-12" d="M53.4,66c-1.31,1-3.56.92-4.43-.66-.08-.13.12-.56.29-.41a3.64,3.64,0,0,0,4.09.79c.19-.1.15.21,0,.28Z"/><path class="cls-9" d="M29.08,66.05a23.16,23.16,0,0,1-2,3.59c-.15.19-.37,0-.29-.17a22.75,22.75,0,0,1,2-3.58c.16-.26.42-.11.28.16Z"/><path class="cls-9" d="M26,67a10.36,10.36,0,0,1-2.54,3.65c-.28.23-.31-.18-.18-.36a28,28,0,0,0,2.39-3.4c.12-.23.46-.17.33.11Z"/><path class="cls-9" d="M21.9,68.76a18.56,18.56,0,0,1-2.78,3.86c-.24.25-.52,0-.32-.29.9-1.27,1.93-2.45,2.79-3.75.19-.28.49-.12.31.18Z"/><path class="cls-9" d="M18.45,70.07a15.07,15.07,0,0,1-3.4,3.76c-.25.19-.31-.16-.17-.32,1.1-1.24,2.27-2.38,3.26-3.71.21-.28.49,0,.31.27Z"/><path class="cls-9" d="M14.06,71.64a18.56,18.56,0,0,1-2.37,2.71c-.25.2-.37-.13-.25-.33a19,19,0,0,1,2.37-2.7c.27-.29.45.08.25.32Z"/><path class="cls-9" d="M10.16,72.48a13.51,13.51,0,0,1-2.73,3c-.29.2-.33-.18-.19-.36.78-1,1.84-1.91,2.68-2.92.25-.3.43.08.24.32Z"/><path class="cls-9" d="M5.62,74.13A10.39,10.39,0,0,1,3.76,76c-.22.14-.25-.2-.17-.32a11.55,11.55,0,0,1,1.75-1.88c.32-.32.54.1.28.37Z"/></g></svg>