<svg id="Layer_1" data-name="Layer 1" xmlns="http://www.w3.org/2000/svg" viewBox="0 0 39.39 110.97"><defs><style>.cls-1{fill:#8c8c8c;}.cls-2{fill:#842f00;}.cls-3,.cls-8{fill:none;stroke-miterlimit:10;}.cls-3{stroke:#842f00;stroke-width:0.17px;}.cls-4{fill:#db5207;}.cls-5{fill:#823017;}.cls-6{fill:#383436;}.cls-7{fill:#e4bc96;}.cls-8{stroke:#383436;stroke-width:0.04px;}</style></defs><path class="cls-1" d="M26.6,110.57c1.69.11,4.74.05,6.52-1.24A4.54,4.54,0,0,0,35.51,105s.3,0,.85-.89.37-1.29.37-1.29,2.16-.28,2.23-1.26-1.46-1.19-1.46-1.19l-.18-.1a1.58,1.58,0,0,0,.19-1.43,5.46,5.46,0,0,0-.77-1.34,8.77,8.77,0,0,0,1.07-3.39,6.3,6.3,0,0,0-.77-2.9A4.26,4.26,0,0,0,37.26,90a6.89,6.89,0,0,1,0-.87s1.49-1,1.36-2-1.86,0-1.86,0l-.82-1.94a2.85,2.85,0,0,0-.29-1.83A17.69,17.69,0,0,0,34,80.38l-.21-1.09s.89-.68.74-1.25-1-.25-1-.25a7.19,7.19,0,0,0-1-1.63,2.12,2.12,0,0,0-1-.64,1.68,1.68,0,0,0-.21-1.42c-.47-.79-1.22-1.89-1.22-1.89v-.83a6.52,6.52,0,0,0,.29-1.74c-.06-.6-1.23.14-1.23.14l-.91-.9A4.89,4.89,0,0,0,28,66.25a4.69,4.69,0,0,0-1.22-2l.15-1.43s.91-.67.74-1.47-1.22.07-1.22.07l-1-1.54a4.54,4.54,0,0,0,.11-2.3,4.74,4.74,0,0,0-1.19-2.19l.08-.61s1-.39.87-1S24,53.13,24,53.13l-.12-.39A3.77,3.77,0,0,0,24.22,51a3.44,3.44,0,0,0-.4-1.45L24,45.63s.94-.37.84-.83-.93-.54-.93-.54L23,42.18a10.3,10.3,0,0,0-.06-3c-.3-.89-1.06-2.78-1.47-2.78S21.29,35,21.29,35a1.22,1.22,0,0,0,1.2-.86c.2-.87-1.11-.92-1.11-.92a15.35,15.35,0,0,0-.23-1.88c-.16-.72-.53-.63-.53-.63l-.05-1.95s1.5-.31,1.28-1.34-1.68-.43-1.68-.43A6.21,6.21,0,0,0,19.53,25c-.36-.36-.59-.34-.59-.34l-.08-1.81s.88-.7.7-1.34-.86-.17-.86-.17l-.94-2.42-.42-.2-.5-2.93s1.36-.59,1.12-1.5-1.46,0-1.46,0a24.11,24.11,0,0,0-1.07-3c-.38-.66-.57-.5-.57-.5A4.61,4.61,0,0,0,14.8,8c-.56-1.14-1-1-1-1s-1.2-2-1.87-2.06a5.59,5.59,0,0,1-.85-.1A3.73,3.73,0,0,0,8.38,3.24a3.92,3.92,0,0,0-3.12,1c-.53.6,0,2.23,0,2.23S4,7.25,4.07,8.12a4,4,0,0,0,.74,2.06,3,3,0,0,0,.92.56,1.67,1.67,0,0,0,.15,1.44,9.34,9.34,0,0,0,1.21,1.51,4.2,4.2,0,0,0-.28,1,9.19,9.19,0,0,0,0,1.14s-2.59.22-2.67.83,3,.47,3,.47l1.07,3.15s-.32.1-.41.69-.2,1.42-.2,1.42-2.1-.23-2.53.35S7.47,24,7.47,24a3.87,3.87,0,0,0-.16,1.4A5.61,5.61,0,0,0,8,26.85a3.27,3.27,0,0,0-1,1A5.85,5.85,0,0,0,6.44,29s-2.45.33-2.59.7,1.84.85,1.84.85l.73.06s.33.91.54,1.54a7.54,7.54,0,0,0,.67,1.4s-.52.1-.56,1,0,1.53,0,1.53-2.36.79-2.38,1.45,2.88.28,2.88.28a4.89,4.89,0,0,0,1,1.24,2.92,2.92,0,0,0,1,.44,12.33,12.33,0,0,0,0,1.54A12.84,12.84,0,0,0,11,44s-.23,1.06-.25,1.28a5.83,5.83,0,0,0,0,.73s-1.62,0-1.61.78,1.78.23,1.78.23l.32.89a5.36,5.36,0,0,0-1.12,2.67,8.77,8.77,0,0,0,0,3,2.18,2.18,0,0,0,.46.73l-.35,1s-2,.48-2.34,1.1S9.73,57,9.73,57L10,57a5.52,5.52,0,0,0,0,1c.06.23.43.49.43.49a10.55,10.55,0,0,0,.1,2.1,3.17,3.17,0,0,0,.45.89l.1,1.64s-2.11.52-2,1.08,2.42.45,2.42.45.57,1,.73,1.23.83.44.83.44a4.29,4.29,0,0,0-.32,2.61A5.29,5.29,0,0,0,14,71.31a7,7,0,0,0-.06,1.91,7.23,7.23,0,0,0,.58,1.57s-2,1-1.94,1.76S15.16,76,15.16,76l1.4,1a8.06,8.06,0,0,0,.29,1.67c.22.55.79,1.65.9,2a5.72,5.72,0,0,0,.47,1.12,1.16,1.16,0,0,0,.56.31,5.35,5.35,0,0,0-.11,1.25c0,.55,0,1.21,0,1.21s-1.59.46-1.51,1,2.07.37,2.07.37a8,8,0,0,0,.82,1.15,4.67,4.67,0,0,0,.56.33s-.42.32-.12,1.21a10.37,10.37,0,0,0,1.08,2l.43.35a3.54,3.54,0,0,0-.27,1.28,5,5,0,0,0,.18,1s-1.91,1-1.81,1.73,2.22-.41,2.22-.41l.68.67.39.44a3.11,3.11,0,0,0-.61,1.32,4,4,0,0,0,0,1.72l.12.43-1.5,2.57s-2.05-.27-2.45.41,2.09.75,2.09.75a5,5,0,0,0-.12,1.48.6.6,0,0,0,.6.56,5.25,5.25,0,0,0-.3,2.83c.33,1.37,3.16,2.61,5.33,2.75"/><path class="cls-2" d="M24.29,110.36c1.56.13,4.39.11,6-1.15a5.23,5.23,0,0,0,2.08-2.95,6,6,0,0,0,.07-1.35s.6.11,1.1-.8a5.72,5.72,0,0,0,.62-1.74s2.64.15,2.69-.83-1.5-1-1.5-1l-1-.13a3.87,3.87,0,0,0-.17-1.61,5.53,5.53,0,0,0-.74-1.35,9,9,0,0,0,.95-3.37,6.77,6.77,0,0,0-.76-2.91,4.39,4.39,0,0,0,.19-1.2,7.79,7.79,0,0,1,0-.86s2.65-.79,2.51-1.81-3-.28-3-.28l-.79-2a3,3,0,0,0-.29-1.82,18.46,18.46,0,0,0-1.54-2.9l-.21-1.09s2.12-.4,2-1-2.22-.53-2.22-.53a7.24,7.24,0,0,0-1-1.63,2.09,2.09,0,0,0-.94-.66,1.77,1.77,0,0,0-.21-1.42c-.45-.79-1.16-1.9-1.16-1.9l0-.83s1.65-1,1.6-1.61-2.5,0-2.5,0l-.84-.91A5.39,5.39,0,0,0,25,66.17a4.88,4.88,0,0,0-1.16-2l.12-1.43s2.1-.76,1.92-1.56-2.38.16-2.38.16l-1-1.56a4.76,4.76,0,0,0,.07-2.29,5,5,0,0,0-1.13-2.2l.06-.61s2.06-.35,1.92-1S21.06,53,21.06,53l-.12-.4a3.93,3.93,0,0,0,.31-1.74,3.63,3.63,0,0,0-.4-1.45L21,45.56s1.9-.4,1.8-.86-1.9-.51-1.9-.51L20,42.1a11.09,11.09,0,0,0-.1-3c-.29-.9-1-2.78-1.4-2.8s-.21-1.43-.21-1.43,2.06,0,2.24-.82-2.19-.95-2.19-.95a16.25,16.25,0,0,0-.24-1.88c-.15-.72-.49-.64-.49-.64l-.08-1.94s2.41-.36,2.19-1.39-2.58-.38-2.58-.38a6.41,6.41,0,0,0-.63-1.92c-.33-.37-.54-.35-.54-.35l-.11-1.8s2.19-.5,2-1.14-2.17-.38-2.17-.38l-.89-2.42-.4-.2-.5-2.94s2.53-.56,2.29-1.47-2.63,0-2.63,0a25.81,25.81,0,0,0-1-3c-.37-.66-.54-.51-.54-.51a4.92,4.92,0,0,0-.1-2.82c-.53-1.14-1-1-1-1s-1.14-2-1.76-2.08a7,7,0,0,1-.79-.1A3.57,3.57,0,0,0,5.9,3.06,3.38,3.38,0,0,0,3,4c-.49.59,0,2.23,0,2.23S1.9,7,2,7.87a4.48,4.48,0,0,0,.71,2.06,2.91,2.91,0,0,0,.87.57,1.8,1.8,0,0,0,.15,1.44,9.39,9.39,0,0,0,1.14,1.52,4.39,4.39,0,0,0-.24,1,9.88,9.88,0,0,0,.06,1.14s-2.41.18-2.47.78S5,16.9,5,16.9l1,3.15s-.3.09-.36.68l-.17,1.42s-1.95-.26-2.34.31,2.18,1.32,2.18,1.32a3.84,3.84,0,0,0-.13,1.4,6.12,6.12,0,0,0,.63,1.42,3.17,3.17,0,0,0-.93,1,5.79,5.79,0,0,0-.46,1.1s-2.26.29-2.39.65,1.71.88,1.71.88l.69.07s.31.91.51,1.55a8.52,8.52,0,0,0,.65,1.4s-.48.09-.51,1,0,1.53,0,1.53S3,36.52,2.94,37.18s2.68.32,2.68.32a5.09,5.09,0,0,0,.89,1.26,2.62,2.62,0,0,0,1,.44,12.36,12.36,0,0,0,0,1.54,13.46,13.46,0,0,0,1.37,3s-.2,1.05-.22,1.27a5.29,5.29,0,0,0,0,.73s-1.5,0-1.48.75,1.66.26,1.66.26l.3.89a5.34,5.34,0,0,0-1,2.65,9,9,0,0,0,.06,3,2.13,2.13,0,0,0,.43.73l-.31.95S6.5,55.4,6.22,56s1.7.7,1.7.7l.23,0a6.7,6.7,0,0,0,0,1,1.37,1.37,0,0,0,.41.49,11,11,0,0,0,.12,2.1,3.33,3.33,0,0,0,.43.89l.12,1.64s-1.95.49-1.86,1,2.25.48,2.25.48.54,1,.69,1.23.78.45.78.45a4.43,4.43,0,0,0-.26,2.6A5.64,5.64,0,0,0,12,71a8,8,0,0,0,0,1.91,7.67,7.67,0,0,0,.56,1.57s-1.88,1-1.77,1.73,2.42-.48,2.42-.48l1.31,1a8.16,8.16,0,0,0,.3,1.66c.2.56.75,1.66.86,2a5.43,5.43,0,0,0,.45,1.12,1.09,1.09,0,0,0,.51.32,6.11,6.11,0,0,0-.08,1.24,11.67,11.67,0,0,1,0,1.2s-1.46.44-1.37,1,1.92.4,1.92.4a8.8,8.8,0,0,0,.77,1.16,5.47,5.47,0,0,0,.52.34s-.37.31-.08,1.2a10.59,10.59,0,0,0,1,2l.4.36a3.81,3.81,0,0,0-.23,1.27,4.38,4.38,0,0,0,.19,1s-1.76,1-1.66,1.71,2.05-.38,2.05-.38l.64.67.37.45a3.08,3.08,0,0,0-.55,1.31,4.39,4.39,0,0,0,.05,1.72l.12.43-1.35,2.54s-1.9-.3-2.27.37,1.95.78,1.95.78a5.4,5.4,0,0,0-.09,1.48.59.59,0,0,0,.56.56,5.54,5.54,0,0,0-.23,2.82c.32,1.37,3,2.65,5,2.82"/><path class="cls-3" d="M24.29,110.36c1.56.13,4.39.11,6-1.15a5.23,5.23,0,0,0,2.08-2.95,6,6,0,0,0,.07-1.35s.6.11,1.1-.8a5.72,5.72,0,0,0,.62-1.74s2.64.15,2.69-.83-1.5-1-1.5-1l-1-.13a3.87,3.87,0,0,0-.17-1.61,5.53,5.53,0,0,0-.74-1.35,9,9,0,0,0,.95-3.37,6.77,6.77,0,0,0-.76-2.91,4.39,4.39,0,0,0,.19-1.2,7.79,7.79,0,0,1,0-.86s2.65-.79,2.51-1.81-3-.28-3-.28l-.79-2a3,3,0,0,0-.29-1.82,18.46,18.46,0,0,0-1.54-2.9l-.21-1.09s2.12-.4,2-1-2.22-.53-2.22-.53a7.24,7.24,0,0,0-1-1.63,2.09,2.09,0,0,0-.94-.66,1.77,1.77,0,0,0-.21-1.42c-.45-.79-1.16-1.9-1.16-1.9l0-.83s1.65-1,1.6-1.61-2.5,0-2.5,0l-.84-.91A5.39,5.39,0,0,0,25,66.17a4.88,4.88,0,0,0-1.16-2l.12-1.43s2.1-.76,1.92-1.56-2.38.16-2.38.16l-1-1.56a4.76,4.76,0,0,0,.07-2.29,5,5,0,0,0-1.13-2.2l.06-.61s2.06-.35,1.92-1S21.06,53,21.06,53l-.12-.4a3.93,3.93,0,0,0,.31-1.74,3.63,3.63,0,0,0-.4-1.45L21,45.56s1.9-.4,1.8-.86-1.9-.51-1.9-.51L20,42.1a11.09,11.09,0,0,0-.1-3c-.29-.9-1-2.78-1.4-2.8s-.21-1.43-.21-1.43,2.06,0,2.24-.82-2.19-.95-2.19-.95a16.25,16.25,0,0,0-.24-1.88c-.15-.72-.49-.64-.49-.64l-.08-1.94s2.41-.36,2.19-1.39-2.58-.38-2.58-.38a6.41,6.41,0,0,0-.63-1.92c-.33-.37-.54-.35-.54-.35l-.11-1.8s2.19-.5,2-1.14-2.17-.38-2.17-.38l-.89-2.42-.4-.2-.5-2.94s2.53-.56,2.29-1.47-2.63,0-2.63,0a25.81,25.81,0,0,0-1-3c-.37-.66-.54-.51-.54-.51a4.92,4.92,0,0,0-.1-2.82c-.53-1.14-1-1-1-1s-1.14-2-1.76-2.08a7,7,0,0,1-.79-.1A3.57,3.57,0,0,0,5.9,3.06,3.38,3.38,0,0,0,3,4c-.49.59,0,2.23,0,2.23S1.9,7,2,7.87a4.48,4.48,0,0,0,.71,2.06,2.91,2.91,0,0,0,.87.57,1.8,1.8,0,0,0,.15,1.44,9.39,9.39,0,0,0,1.14,1.52,4.39,4.39,0,0,0-.24,1,9.88,9.88,0,0,0,.06,1.14s-2.41.18-2.47.78S5,16.9,5,16.9l1,3.15s-.3.09-.36.68l-.17,1.42s-1.95-.26-2.34.31,2.18,1.32,2.18,1.32a3.84,3.84,0,0,0-.13,1.4,6.12,6.12,0,0,0,.63,1.42,3.17,3.17,0,0,0-.93,1,5.79,5.79,0,0,0-.46,1.1s-2.26.29-2.39.65,1.71.88,1.71.88l.69.07s.31.91.51,1.55a8.52,8.52,0,0,0,.65,1.4s-.48.09-.51,1,0,1.53,0,1.53S3,36.52,2.94,37.18s2.68.32,2.68.32a5.09,5.09,0,0,0,.89,1.26,2.62,2.62,0,0,0,1,.44,12.36,12.36,0,0,0,0,1.54,13.46,13.46,0,0,0,1.37,3s-.2,1.05-.22,1.27a5.29,5.29,0,0,0,0,.73s-1.5,0-1.48.75,1.66.26,1.66.26l.3.89a5.34,5.34,0,0,0-1,2.65,9,9,0,0,0,.06,3,2.13,2.13,0,0,0,.43.73l-.31.95S6.5,55.4,6.22,56s1.7.7,1.7.7l.23,0a6.7,6.7,0,0,0,0,1,1.37,1.37,0,0,0,.41.49,11,11,0,0,0,.12,2.1,3.33,3.33,0,0,0,.43.89l.12,1.64s-1.95.49-1.86,1,2.25.48,2.25.48.54,1,.69,1.23.78.45.78.45a4.43,4.43,0,0,0-.26,2.6A5.64,5.64,0,0,0,12,71a8,8,0,0,0,0,1.91,7.67,7.67,0,0,0,.56,1.57s-1.88,1-1.77,1.73,2.42-.48,2.42-.48l1.31,1a8.16,8.16,0,0,0,.3,1.66c.2.56.75,1.66.86,2a5.43,5.43,0,0,0,.45,1.12,1.09,1.09,0,0,0,.51.32,6.11,6.11,0,0,0-.08,1.24,11.67,11.67,0,0,1,0,1.2s-1.46.44-1.37,1,1.92.4,1.92.4a8.8,8.8,0,0,0,.77,1.16,5.47,5.47,0,0,0,.52.34s-.37.31-.08,1.2a10.59,10.59,0,0,0,1,2l.4.36a3.81,3.81,0,0,0-.23,1.27,4.38,4.38,0,0,0,.19,1s-1.76,1-1.66,1.71,2.05-.38,2.05-.38l.64.67.37.45a3.08,3.08,0,0,0-.55,1.31,4.39,4.39,0,0,0,.05,1.72l.12.43-1.35,2.54s-1.9-.3-2.27.37,1.95.78,1.95.78a5.4,5.4,0,0,0-.09,1.48.59.59,0,0,0,.56.56,5.54,5.54,0,0,0-.23,2.82C19.64,108.91,22.28,110.19,24.29,110.36Z"/><path class="cls-4" d="M6.87,3.29A5.86,5.86,0,0,1,8.23,4.6a3.82,3.82,0,0,1,1.14.23c.82.26,1.6,2.1,1.6,2.1s.51.14,1,1.19a4.51,4.51,0,0,1,0,2.59,2.14,2.14,0,0,1,.72.93l.85,2.61s2.39-.79,2.7-.06-2.36,1.52-2.36,1.52l.57,2.87a1.34,1.34,0,0,1,.44.45,17,17,0,0,1,.65,2.25s2.13-.35,2.3.37-2,1.14-2,1.14L16,24.71s.3,0,.72.46a3.79,3.79,0,0,1,.53,1.74s2.45-.47,2.63.37-2.3,1.35-2.3,1.35l.06,1.87a2,2,0,0,1,.52.65,8.65,8.65,0,0,1,.32,2s2.19.3,2.18.93-2.2.64-2.2.64l-.15,1.59.55.3a9,9,0,0,1,1,2.47A8.19,8.19,0,0,1,20,42.1a1.87,1.87,0,0,1,.46.86c.15.57.31,1.27.31,1.27s2,0,2.09.4-1.94.92-1.94.92l-.09,3.9.15.25a4.61,4.61,0,0,1,.29,1.55c.07,1.06-.34,1.31-.34,1.31l.11.48s2.31,0,2.36.62-1.89,1.09-1.89,1.09l-.09.49a4,4,0,0,1,1.06,1.9,3.65,3.65,0,0,1,0,2.54l1,1.61s2.1-.8,2.38-.16-1.92,1.56-1.92,1.56l-.12,1.43A14.34,14.34,0,0,1,25,66.4a5.58,5.58,0,0,1,.2,2.4l.87.85s2-.63,2.42,0S27,71.38,27,71.38l0,.88a14.58,14.58,0,0,1,1.26,2.06,1.79,1.79,0,0,1,.09,1,5.06,5.06,0,0,1,1.15.93,3,3,0,0,1,.72,1.57s2.08-.28,2.21.37-1.94,1.06-1.94,1.06l.22,1.15s.77,1.24,1.46,2.57a2.71,2.71,0,0,1,.35,2.15l.84,1.92s3-.74,3,.32S33.87,89,33.87,89s0,.64.07.88a9.17,9.17,0,0,1-.2,1.24,13.41,13.41,0,0,1,.66,3.13,6.1,6.1,0,0,1-.91,3.16s.47.8.74,1.34a4.61,4.61,0,0,1,.2,1.67s2.56-.13,2.54,1-2.69,1-2.69,1l-.49,1.28a2.5,2.5,0,0,1-1.33,1.22,11.45,11.45,0,0,1-.68,2.85c-.44.82-1.66,1.88-4,2.5a12.08,12.08,0,0,1-6.5-.72c-.52-.36-1.22-1-.45-.61a13.49,13.49,0,0,0,6.05.47c2-.42,3.67-2.56,2.78-3.38s-4.3-1.24-4.3-1.24l.18-.43s3.26-.33,4.69-.66a3.28,3.28,0,0,0,2.16-2.79,1.36,1.36,0,0,0-1.84-1.25,38.6,38.6,0,0,1-4.88.61l.24-.42a25.29,25.29,0,0,0,4.18-1.63,4.34,4.34,0,0,0,2.24-3.32c0-1-1.9-.53-3-.31s-4.23.55-4.23.55l.6-.48a23.31,23.31,0,0,0,4-1.77c1.39-.91,2.45-1.88,2-3.4s-1.2-1.47-3.14-.84-4.4,1.19-4.4,1.19l.18-.61S29.3,87,30.07,86.38a1.41,1.41,0,0,0,.26-2.07c-.44-.69-1.26-.2-2.78.27s-4.8,1.71-4.8,1.71l-.11-.48s3.83-2.25,4.64-2.84a2.52,2.52,0,0,0,.85-2.54c-.19-.86-.39-1.85-1.88-.93a22.21,22.21,0,0,1-4.81,1.71l.37-.55a12.22,12.22,0,0,0,3.84-2.51c1.11-1.36,1.23-3.11.81-3.43s-.83,0-2.93.72a10.23,10.23,0,0,1-3.35.7l-1.45.08a19.7,19.7,0,0,0,4.13-1.92c1.52-1.06,2.22-2,1.81-2.74s-1-.62-3.13,0a20.3,20.3,0,0,1-4.87.54l.25-.45a30.25,30.25,0,0,0,4.55-1.7c1.52-.82,2-1.93,1.7-2.46s-.25-1-2.83-.53a16.36,16.36,0,0,1-4.91.1l.13-.44a15.86,15.86,0,0,0,4.46-1c2.11-.87,2-1.92,1.74-2.51s-.16-.76-3-.58A28,28,0,0,1,13,62.11a13.27,13.27,0,0,1,2-.33,16.47,16.47,0,0,0,4.52-1.26A2.19,2.19,0,0,0,20.36,58c-.26-.5-.73-.89-2.85-.47a39.58,39.58,0,0,1-4.52.59l1.2-.55a17.87,17.87,0,0,0,3.67-1.23c2.06-.93,1.95-1.8,1.91-1.93s-.44.08-2.92.46A6.76,6.76,0,0,1,13,54.51l-.1-.44a9.75,9.75,0,0,0,3.53-.57c1.72-.67,2.73-2.32,2.12-3.34s-5.89-3-5.89-3-2.39-.28-.55-.57,5.6,1.19,6.14.89-.09-3.65-.26-4.25-1.06-1-2.24-.94-3.31,0-3.31,0,.11-.24,1.08-.43A17.56,17.56,0,0,0,17.2,40.6c.44-.3-.33-1.82-.53-2.18s-.54-.53-2-.24-3.22.48-3.22.48l-.87-.23s2-.66,3.65-1.41,2.06-1.15,1.72-2.59-.85-1-2.85-.72a18.94,18.94,0,0,1-3.67,0l-.33-.39s.95-.2,2.54-.66,3.44-1.53,3.7-2.13-.65-3.5-.87-3.9-1.76.28-3.1.55a4.23,4.23,0,0,1-2.08,0L9,27a7.38,7.38,0,0,0,2.06-.83A11.54,11.54,0,0,0,14,24c.31-.37-.61-3.53-.85-3.84s-.34-.25-1.73.06a5.07,5.07,0,0,1-2.31.14,14.52,14.52,0,0,1-1.46-.48,7.29,7.29,0,0,0,2-.43,13.57,13.57,0,0,0,2.75-1.57c.35-.23-.92-5.35-1.59-5.72s-4.6.58-4.6.58-.55.12.61-.83,3.54-1.39,3.7-1.58A2.63,2.63,0,0,0,10,7.8C9.24,7.2,5.92,8,5.92,8s-.56.17.29-.48A11.09,11.09,0,0,1,8.49,6.3c.21-.09-.26-.75-.71-1s-2.91.26-2.91.26l-.09-.26S6.61,4.52,6.28,4s-1.35-.68-1.35-.68a2.12,2.12,0,0,1,1.94,0"/><path class="cls-5" d="M2.62,4.48a2.84,2.84,0,0,0,.17,1.87l.42-.21A2.39,2.39,0,0,1,3.07,4.6c.2-.79.36-1.08,2.28-1.33s3,1.6,3,1.62l.39-.25c0-.08-1.32-2.11-3.41-1.83s-2.41.61-2.67,1.67"/><path class="cls-5" d="M.19,2.65a.22.22,0,0,0,.27.18.24.24,0,0,0,.19-.27.71.71,0,0,1,.48-.77c.34-.16,1.31.8,2,1.79a.24.24,0,0,0,.39-.27C3.13,2.75,1.8,1,.94,1.36A1.17,1.17,0,0,0,.19,2.65"/><path class="cls-5" d="M5.1,3.11a.23.23,0,0,0,.3.15A.22.22,0,0,0,5.54,3c-.25-.76-.49-2.1,0-2.45a.24.24,0,0,0,0-.33.23.23,0,0,0-.33,0C4.37.83,5,2.88,5.1,3.11"/><path class="cls-5" d="M2,8.87l.08.2a2.48,2.48,0,0,0,1.47,1.68l.15-.44A2.11,2.11,0,0,1,2.48,8.9L2.4,8.69c-.53-1.21.33-2,1.15-2.51,1.38-.83,5.05-1.57,5.84-1A4.72,4.72,0,0,1,10.78,7l.44-.16A5.12,5.12,0,0,0,9.65,4.75c-1.07-.72-5,.25-6.34,1C1.45,6.87,1.67,8.19,2,8.87"/><path class="cls-5" d="M3.4,11.93a4.45,4.45,0,0,0,1.22,1.65l.29-.36a4.25,4.25,0,0,1-1.07-1.46c-.27-.7-.33-1.28,1.25-2.81s4-2.54,5.66-1.85a1.76,1.76,0,0,1,1,1,4,4,0,0,1,.08,2.44l.43.19A4.45,4.45,0,0,0,12.15,8a2.22,2.22,0,0,0-1.22-1.29c-1.79-.76-4.6.42-6.17,1.94S3,10.83,3.4,11.93"/><path class="cls-5" d="M4.64,13.39A5.4,5.4,0,0,0,4.86,17l.09.34.84,2.84L6.24,20,5.4,17.2l-.09-.34a5,5,0,0,1-.24-3.29c.44-1,6.35-2.76,7-2.5s2.07,6.79,2.09,7.43h.46c0-.07-1.31-7.47-2.39-7.88-.93-.35-7.06,1.42-7.62,2.76"/><path class="cls-5" d="M5.52,20.31c-.08.36-.2,1.58-.31,2.75L5,24.9a3,3,0,0,0,.7,1.83l.55-.08A3.52,3.52,0,0,1,5.48,25l.2-1.88c.1-1.05.22-2.35.3-2.69s1.18-.12,1.79-.08a16.4,16.4,0,0,0,1.86,0,10.21,10.21,0,0,0,3-.88,5.67,5.67,0,0,1,1.93-.59c.53.17,1.3,4.94,1.22,5.6l.46.07c.05-.29-.46-5.92-1.59-6.13a5.14,5.14,0,0,0-2.2.61,10.19,10.19,0,0,1-2.81.86,15.4,15.4,0,0,1-1.8-.05c-1.24-.08-2.14-.14-2.28.45"/><path class="cls-5" d="M4.3,30a8.57,8.57,0,0,0,1.06,3.18l.39-.25a8.5,8.5,0,0,1-1-3,3.21,3.21,0,0,1,1-3.05c.1-.08.51,0,.9.14a7.14,7.14,0,0,0,3.76.2,14.38,14.38,0,0,0,3.32-1.42c1-.55,2-1.06,2.41-.84.84.42,1.29,4.71,1.2,5.32l.46.07c.08-.51-.26-5.21-1.46-5.8-.65-.33-1.61.18-2.83.83a14.22,14.22,0,0,1-3.21,1.39,6.57,6.57,0,0,1-3.53-.2c-.6-.16-1-.28-1.32-.05A3.68,3.68,0,0,0,4.3,30"/><path class="cls-5" d="M5,36.06c.12,1.2,1.07,3.29,2.52,3.38l0-.47c-1.29-.07-2-2-2.09-2.95s-.22-2.42.2-2.57c.09,0,.21,0,.46.07.69.19,2.12.6,5.86,0,3.32-.57,4.29-1.69,4.86-2.36.34-.38.43-.47.71-.39.9.28.65,4.9.53,5.46l.45.1s.66-5.54-.84-6c-.59-.18-.87.15-1.2.52-.53.63-1.43,1.67-4.59,2.21-3.63.62-5,.24-5.66,0A1.14,1.14,0,0,0,5.49,33c-.71.26-.61,2-.5,3.05"/><path class="cls-5" d="M9.09,43c-1.05,1.68-.55,3.35-.24,4.64l.49-.41c-.55-2.24-.67-3.24.33-4s6.74-1.19,7.75-1.5a2.72,2.72,0,0,1,2,.16c1.49.92,1.52,6.15,1.22,7.67l.46.09c0-.19.72-6.95-1.5-8.19a3,3,0,0,0-2.31-.17c-1,.29-7.48.57-8.19,1.72"/><path class="cls-5" d="M7.84,50.87c-.22,1.83.28,3.29.87,3.38.85.12,5.17.7,7.71.17s4.34-1.23,4.89-1.87a3.17,3.17,0,0,0,.21-1.73,3.32,3.32,0,0,0-.3-1.23,1.09,1.09,0,0,0-.27-.33c-.57-.47-7.87-2.61-8.53-2.7C8.47,46,8.05,49.05,7.84,50.87m8.47,3c-2.44.5-6.68-.07-7.5-.19-.14-.07-.58-1-.43-2.78.2-2.48,1-4.3,3.77-3.9.68.1,7.92,2.21,8.45,2.65a.45.45,0,0,1,.15.18,4.15,4.15,0,0,1,.14,2.35c-.39.44-2,1.15-4.58,1.69"/><path class="cls-5" d="M23.47,64.07c.77,1.36,1.87,2.66,1.45,4.42-.22.93-3.3,1.93-5.7,2.62l-.21.06c-2.73.78-5.08.78-6.53-.11a3.36,3.36,0,0,1-1.31-2.23,3.91,3.91,0,0,1,.2-2.69L11,65.88a4.37,4.37,0,0,0-.27,3.05,3.85,3.85,0,0,0,1.53,2.53c1.57,1,4,1,6.9.16l.21-.06c3.5-1,5.83-1.83,6.12-3,.49-1.94-1.36-4.46-1.63-4.81Z"/><path class="cls-5" d="M28.59,75.17l-.36.48a3.28,3.28,0,0,1,1.85,2.72c.44,2.54.6,3.7-1.39,4.57-2.54,1.13-9.24,4.76-10.33,3.94A5.48,5.48,0,0,1,16.91,82l-.4-.26c-.8,1.6.39,4.65,1.65,5.6,1.45,1.09,8.74-3.07,10.74-4,2.68-1.18,2-2.79,1.63-5.12a4,4,0,0,0-1.94-3.11"/><path class="cls-5" d="M18.78,104.33c.29.91,2,.77,4.16.59a28.52,28.52,0,0,1,3.41-.14L29,105a10.92,10.92,0,0,0,3.83,0c1.27-.45,1.57-2,1.83-4a5.63,5.63,0,0,0-1-3.8l-.43.47a4.62,4.62,0,0,1,1,3.27c-.27,2.15-.59,3.3-1.52,3.63a11,11,0,0,1-3.64,0l-2.63-.19a25.77,25.77,0,0,0-3.48.14c-1.64.13-3.5.28-3.68-.27-.35-1.09,1.05-4.66,1.68-5.06l-.25-.4c-.86.55-2.26,4.38-1.87,5.6"/><path class="cls-5" d="M19.18,107.82a3.32,3.32,0,0,0,1.73,1.75,10.63,10.63,0,0,0,7.76.69,5.25,5.25,0,0,0,4-5.34l-.46,0a4.72,4.72,0,0,1-3.65,4.85,10.27,10.27,0,0,1-7.4-.65,2.93,2.93,0,0,1-1.51-1.47,4.15,4.15,0,0,1,.15-2.89l-.42-.22a4.59,4.59,0,0,0-.17,3.24"/><path class="cls-6" d="M13.71,14.49a3.69,3.69,0,0,1,2.17-.3.25.25,0,0,1,.14.19.3.3,0,0,1,0,.25c-.33.48-1.64.77-2.12.85l.07.46c.19,0,1.94-.32,2.44-1a.8.8,0,0,0,.12-.62.71.71,0,0,0-.39-.49c-.75-.4-2.37.2-2.55.27Z"/><path class="cls-6" d="M2,16.44a.6.6,0,0,0,.24.44c.64.53,2.62.3,2.84.28l0-.47a4.93,4.93,0,0,1-2.5-.17c0-.05-.06-.08-.06-.11s0-.07.05-.13a4.13,4.13,0,0,1,2.19-.44v-.47c-.21,0-2,0-2.54.59a.64.64,0,0,0-.18.48"/><path class="cls-6" d="M1.87,29.43c-.09.73,1.69,1.06,2.76,1.19l0-.46a4.86,4.86,0,0,1-2.35-.69c0-.18,1-.46,2.15-.51l0-.47c-.75,0-2.5.2-2.58.94"/><path class="cls-6" d="M17.36,27.12c.65-.14,2.06-.26,2.21.26a.22.22,0,0,1,0,.19c-.24.39-1.4.71-2.07.82l.08.46c.19,0,1.95-.33,2.39-1a.68.68,0,0,0,.08-.57c-.32-1.07-2.51-.63-2.76-.58Z"/><path class="cls-6" d="M8.26,56.42a3.06,3.06,0,0,1-1.74-.17.16.16,0,0,1-.08-.14c0-.33,1.07-.78,2.08-1l-.08-.46c-.6.11-2.56.55-2.47,1.48a.68.68,0,0,0,.26.46,3.54,3.54,0,0,0,2.09.26Z"/><path class="cls-6" d="M2.71,37.3c.23.79,2.21.52,3.05.37l-.09-.46c-1.22.22-2.44.2-2.51,0v-.08a5.4,5.4,0,0,1,2-1.08l-.13-.45c-.34.17-2,.66-2.32,1.31Z"/><path class="cls-6" d="M20.87,34.18a.52.52,0,0,0-.05-.47c-.37-.58-2-.76-2.38-.79l0,.46a4.19,4.19,0,0,1,2,.58s0,0,0,.06c-.13.39-1.19.49-1.89.43l0,.47c.34,0,2.07.11,2.37-.74"/><path class="cls-6" d="M20.67,44l0,.47c1-.08,1.9.08,1.93.26a4.05,4.05,0,0,1-1.91.65l.07.46c.3,0,1.81-.28,2.2-.8l.1-.39c-.12-.74-1.73-.7-2.42-.65"/><path class="cls-6" d="M8.9,47l-.13-.45c-.5.13-1.26.18-1.34-.07,0,0,0,0,0-.06A2.44,2.44,0,0,1,8.77,46l0-.47c-.23,0-1.36.14-1.68.61a.52.52,0,0,0-.07.45c.25.81,1.75.43,1.92.39"/><path class="cls-6" d="M21.12,52.79l0,.47c.75-.06,1.91,0,2,.43a.11.11,0,0,1,0,.12c-.21.34-1.25.6-1.86.69l.07.46c.18,0,1.78-.27,2.18-.89a.62.62,0,0,0,.08-.51c-.26-.9-2.14-.8-2.51-.77"/><path class="cls-6" d="M23.53,61l.15.45c.85-.27,1.87-.38,2-.12v.08a4.24,4.24,0,0,1-1.82,1.09l.17.44c.29-.11,1.79-.7,2.08-1.34v-.45c-.32-.78-2-.31-2.56-.15"/><path class="cls-6" d="M7.15,63.68a.56.56,0,0,0,.14.54c.6.69,2.34.39,2.54.36l-.09-.46c-.64.12-1.77.16-2.1-.21,0-.06,0-.09,0-.1A6.57,6.57,0,0,1,9.52,63l-.13-.45c-.22.06-2.07.53-2.24,1.09"/><path class="cls-6" d="M10.54,76.26a.54.54,0,0,0,.33.31c.66.25,2.09-.43,2.37-.58l-.2-.41a4.12,4.12,0,0,1-2,.55s-.06,0-.06,0c-.1-.24.73-.89,1.74-1.37l-.19-.42c-.55.26-2.31,1.16-2,2"/><path class="cls-6" d="M28.3,69.82s0,.06,0,.07a4.4,4.4,0,0,1-1.61,1.29l.15.44c.33-.12,1.79-1.08,1.91-1.63a.51.51,0,0,0-.16-.5c-.64-.63-2.46-.06-2.67,0l.15.44c.72-.23,1.88-.43,2.19-.12"/><path class="cls-6" d="M30.09,77.6l.06.46c.94-.11,2,0,2.13.26-.15.29-1.17.59-2,.72l.07.46c.33,0,2-.33,2.35-.91a.5.5,0,0,0,0-.43c-.29-.77-2.08-.62-2.63-.56"/><path class="cls-6" d="M15,85.1a.55.55,0,0,0,.11.52c.56.71,2.2.42,2.39.39l-.09-.46c-.59.11-1.64.15-1.94-.22,0,0,0-.07,0-.08.07-.21.72-.51,1.28-.66l-.12-.45c-.23.06-1.41.4-1.6,1"/><path class="cls-6" d="M17.82,94.86a.54.54,0,0,0,.3.33c.61.25,2-.44,2.29-.58l-.21-.42a4,4,0,0,1-1.9.57c-.12-.32.65-1,1.42-1.37L19.5,93c-.33.17-1.93,1.07-1.68,1.88"/><path class="cls-6" d="M33.29,86.79l.1.46c1-.23,2.61-.33,2.74.16s-1.46,1.21-2.43,1.46l.13.45c.33-.06,3-.93,2.76-2s-2.8-.61-3.3-.5"/><path class="cls-6" d="M34.61,100.76s2-.09,2.06.75a.29.29,0,0,1-.1.26,3.85,3.85,0,0,1-2.27.37l0,.46c.2,0,2,.14,2.64-.5a.75.75,0,0,0,.24-.63c-.11-1.3-2.45-1.18-2.55-1.18Z"/><path class="cls-6" d="M16.89,101.82a.5.5,0,0,0,.07.46c.35.52,1.81.6,2.09.61l0-.47a3.26,3.26,0,0,1-1.73-.4c.1-.37,1.2-.36,1.95-.23l.08-.46c-.37-.07-2.2-.33-2.48.49"/><path class="cls-5" d="M33.89,90.77c0-.08-.2.4-.31.65,1,2.12.79,5.61-1.22,6.47a35,35,0,0,1-7.17,2A5.69,5.69,0,0,1,21,98.86a3,3,0,0,1-.18-1.9,2,2,0,0,1,.45-1.2L21,95.37c-.42.26-.6,1.06-.66,1.52a3.35,3.35,0,0,0,.29,2.28,6,6,0,0,0,4.62,1.22,37.14,37.14,0,0,0,7.26-2.07c3.21-1.31,2-6,1.36-7.55"/><path class="cls-5" d="M32.7,84.74a1.38,1.38,0,0,0-.14-.24,2.1,2.1,0,0,1-.1.85c.72,1.64,1.52,4.26,1.06,5.47s-2.1,2.21-5.22,3l-2.69.75c-1.93.58-3.74,1.12-4.41.66a5,5,0,0,1-1.42-3.15A1.44,1.44,0,0,1,20,91l-.32-.34a1.85,1.85,0,0,0-.37,1.49,5.49,5.49,0,0,0,1.63,3.5c.85.58,2.59.06,4.8-.6l2.67-.75c3.33-.81,5-1.79,5.55-3.26s-.45-4.54-1.26-6.25"/><path class="cls-5" d="M31.49,81.24l-.42-.75a4.55,4.55,0,0,0-.42-.65l0,.13a2.6,2.6,0,0,1,0,.88l.4.71c.91,1.61,1.78,3.13.9,4.3-.75,1-9.42,4-10.23,4.47a3.39,3.39,0,0,1-1.83.24c-.16,0-.46-.33-.73-.92s-1-1.51-.68-2.21L18,87.26c-.36.87.33,1.91.67,2.67s.7,1.12,1.06,1.19a3.58,3.58,0,0,0,2.17-.31c.77-.48,9.3-3.18,10.4-4.63s.16-3.17-.85-4.94"/><path class="cls-5" d="M28.52,74.3a13.91,13.91,0,0,0-1.47-2.5,1.61,1.61,0,0,1-.14.66A14.66,14.66,0,0,1,28,74.4c.36.82-.43,2.8-2.49,4.32a19.91,19.91,0,0,1-7.21,2.92c-2.35.52-2.29-.85-2.95-2.51a4.72,4.72,0,0,1-.58-2.27,4.37,4.37,0,0,1-.43-.22c-.22.68.06,1.46.63,2.76.74,1.68.6,3.25,3.3,2.71a19.79,19.79,0,0,0,7.51-3C28,77.51,29,75.51,28.52,74.3"/><path class="cls-5" d="M25.15,68.44l-.29.36c1.12.92,2.27,2.75,1.82,3.51-.65,1.11-3.95,2.8-7.35,3.77l-.75.22c-2.66.77-3.29,1-4.67-.3a6.73,6.73,0,0,1-1.75-5,3,3,0,0,1-.45-.43,6.65,6.65,0,0,0,1.89,5.74c1.57,1.42,2.39,1.18,5.11.4l.75-.22c3.12-.89,6.83-2.62,7.62-4s-1.6-3.84-1.93-4.11"/><path class="cls-5" d="M22.48,59.35l-.31.35s2,2.46,1.47,3.95S22,65.38,19.23,66.07l-.82.21c-3.27.83-7.74-.3-8-1a13.72,13.72,0,0,1-1-4A1.4,1.4,0,0,1,9,60.92a13.11,13.11,0,0,0,1,4.58c.47,1,5.28,2.07,8.59,1.23l.82-.21c2.79-.7,4.17-1.07,4.73-2.71s-1.54-4.4-1.6-4.46"/><path class="cls-5" d="M21.61,55l-.3.36a6.36,6.36,0,0,1,1.12,3.19c-.15,1.35-.39,2.21-2.53,2.71s-8.46,1.09-10.36-.16a1.61,1.61,0,0,1-.66-1.14,9.59,9.59,0,0,1-.1-1.8,1.54,1.54,0,0,1-.44-.38A9.83,9.83,0,0,0,8.42,60a2.06,2.06,0,0,0,.87,1.46c2,1.34,8.44.77,10.72.23s2.73-1.7,2.88-3.12A6.4,6.4,0,0,0,21.61,55"/><path class="cls-5" d="M21.17,52.56l-.44.15a7.29,7.29,0,0,1,.5,2.34c-.09.25-1,.79-4.72,1.85-2.57.74-7.64,1.87-8,.76A7.23,7.23,0,0,1,8.93,54a2,2,0,0,1-.43-.16,7.24,7.24,0,0,0-.47,4c.54,1.5,5.47.44,8.61-.46,3.94-1.12,4.86-1.67,5-2.14a6.81,6.81,0,0,0-.5-2.65"/><path class="cls-5" d="M18.44,36.54a4.48,4.48,0,0,1,1.1,2.2,5.34,5.34,0,0,1,.25,2.82,4.2,4.2,0,0,1,.47.95A7.71,7.71,0,0,0,20,38.6c-.42-1.33-1-2.45-1.55-2.56a.37.37,0,0,0-.39.12,42.2,42.2,0,0,1-6.41,2.09l-1.86.3c-1.88.27-2.5.39-2.58.75a8.74,8.74,0,0,0,1.63,4.88l.09.1a3.52,3.52,0,0,1,.14-.56,8.75,8.75,0,0,1-1.4-4.27A10.26,10.26,0,0,1,9.85,39l1.88-.3a37.61,37.61,0,0,0,6.61-2.21.19.19,0,0,1,.1,0"/><path class="cls-6" d="M18.11,21.83a.53.53,0,0,0-.15-.45c-.49-.5-2.16-.33-2.49-.29l0,.46c.71-.08,1.87-.09,2.1.16,0,0,0,0,0,.05-.05.41-1.06.72-1.76.81l.06.47c.34-.05,2-.32,2.17-1.21"/><path class="cls-6" d="M2.93,22.48c-.19.71,1.52,1.3,2.56,1.58l.12-.45a5,5,0,0,1-2.23-1c.05-.18,1-.31,2.2-.19l0-.47c-.75-.07-2.51-.17-2.7.55"/><path class="cls-7" d="M3.75,4c-.31.18-.26,1-.24,1.23s1.25-.2,1.57-.38S4.49,3.59,3.75,4"/><path class="cls-8" d="M3.75,4c-.31.18-.26,1-.24,1.23s1.25-.2,1.57-.38S4.49,3.59,3.75,4Z"/><path class="cls-7" d="M3.93,6.13c-.31.2-1,.61-1,1.14s.81,1.94,1,1.82S6.26,7.53,6.24,7.23s-.92-2-2.31-1.1"/><path class="cls-8" d="M3.93,6.13c-.31.2-1,.61-1,1.14s.81,1.94,1,1.82S6.26,7.53,6.24,7.23,5.32,5.21,3.93,6.13Z"/><path class="cls-7" d="M4.52,9.82c-.14.28.05.8.38,1.49s.66,1.09,1,.86a15.24,15.24,0,0,0,2.39-1.41c-.05-.17-1.11-3-1.78-2.77a5.32,5.32,0,0,0-2,1.83"/><path class="cls-8" d="M4.52,9.82c-.14.28.05.8.38,1.49s.66,1.09,1,.86a15.24,15.24,0,0,0,2.39-1.41c-.05-.17-1.11-3-1.78-2.77A5.32,5.32,0,0,0,4.52,9.82Z"/><path class="cls-7" d="M6.08,12.91c-.18.1-.41.37-.33,1.19a35.61,35.61,0,0,0,1.32,5.57,6,6,0,0,0,2.62-.38c.66-.3.72-1.4.35-2.82s-1-4.16-1.51-4.11a14,14,0,0,0-2.45.55"/><path class="cls-8" d="M6.08,12.91c-.18.1-.41.37-.33,1.19a35.61,35.61,0,0,0,1.32,5.57,6,6,0,0,0,2.62-.38c.66-.3.72-1.4.35-2.82s-1-4.16-1.51-4.11A14,14,0,0,0,6.08,12.91Z"/><path class="cls-7" d="M7.13,20.43c-.24.09-.41,1.23-.49,2s0,3.78.44,4.08a3.69,3.69,0,0,0,2.23.3,1.49,1.49,0,0,0,1.08-1.41c.07-.69-.26-4.71-.51-4.78a16.91,16.91,0,0,0-2.75-.15"/><path class="cls-8" d="M7.13,20.43c-.24.09-.41,1.23-.49,2s0,3.78.44,4.08a3.69,3.69,0,0,0,2.23.3,1.49,1.49,0,0,0,1.08-1.41c.07-.69-.26-4.71-.51-4.78A16.91,16.91,0,0,0,7.13,20.43Z"/><path class="cls-7" d="M7.23,27.29c-.18-.06-.44.08-.64.56a5.37,5.37,0,0,0-.3,3.09c.27,1.43.53,2.15.82,2.22A9.14,9.14,0,0,0,10,33c.66-.26.16-2.92.16-3.71s0-1.94-1-1.84a4.08,4.08,0,0,1-1.92-.17"/><path class="cls-8" d="M7.23,27.29c-.18-.06-.44.08-.64.56a5.37,5.37,0,0,0-.3,3.09c.27,1.43.53,2.15.82,2.22A9.14,9.14,0,0,0,10,33c.66-.26.16-2.92.16-3.71s0-1.94-1-1.84A4.08,4.08,0,0,1,7.23,27.29Z"/><path class="cls-7" d="M7,34.16s0-.27.55-.21,2.28-.09,2.41,0,1,4.12.67,4.27a22.8,22.8,0,0,1-2.76.47A18.29,18.29,0,0,1,7,34.16"/><path class="cls-8" d="M7,34.16s0-.27.55-.21,2.28-.09,2.41,0,1,4.12.67,4.27a22.8,22.8,0,0,1-2.76.47A18.29,18.29,0,0,1,7,34.16Z"/><path class="cls-7" d="M8.55,39.38A20.37,20.37,0,0,1,10.91,39a8.93,8.93,0,0,1,1,2.91c-.15.05-2.49.73-2.58.69s-1.23-3.15-.81-3.21"/><path class="cls-8" d="M8.55,39.38A20.37,20.37,0,0,1,10.91,39a8.93,8.93,0,0,1,1,2.91c-.15.05-2.49.73-2.58.69S8.13,39.44,8.55,39.38Z"/><path class="cls-7" d="M9.76,43.33a8.27,8.27,0,0,1,2.39-.64c.22.1.75,3.5.46,3.62s-1.11-.07-1.74,0-.79.23-.9,0-.54-2.63-.21-3"/><path class="cls-8" d="M9.76,43.33a8.27,8.27,0,0,1,2.39-.64c.22.1.75,3.5.46,3.62s-1.11-.07-1.74,0-.79.23-.9,0S9.43,43.69,9.76,43.33Z"/><path class="cls-7" d="M10.16,47.53a2.24,2.24,0,0,1,1.56-.34c.74.1,1,.25,1,.73s-.4,3.68-.42,4.4.08,1.45-.19,1.52a5.73,5.73,0,0,1-2.56-.35c-.28-.32.2-5.6.64-6"/><path class="cls-8" d="M10.16,47.53a2.24,2.24,0,0,1,1.56-.34c.74.1,1,.25,1,.73s-.4,3.68-.42,4.4.08,1.45-.19,1.52a5.73,5.73,0,0,1-2.56-.35C9.24,53.17,9.72,47.89,10.16,47.53Z"/><path class="cls-7" d="M9.68,54.53c.1,0,2.39.2,2.44.25s.13,2.95-.11,3-2.56.29-2.75-.11.14-3.19.42-3.19"/><path class="cls-8" d="M9.68,54.53c.1,0,2.39.2,2.44.25s.13,2.95-.11,3-2.56.29-2.75-.11S9.4,54.53,9.68,54.53Z"/><path class="cls-7" d="M10,58.7a14.55,14.55,0,0,1,2.24-.21,11.66,11.66,0,0,1,.52,3.15,7.4,7.4,0,0,1-2.46-.42A5.32,5.32,0,0,1,10,58.7"/><path class="cls-8" d="M10,58.7a14.55,14.55,0,0,1,2.24-.21,11.66,11.66,0,0,1,.52,3.15,7.4,7.4,0,0,1-2.46-.42A5.32,5.32,0,0,1,10,58.7Z"/><path class="cls-7" d="M10.67,62.21a11.64,11.64,0,0,1,2.19.29,25.56,25.56,0,0,1,.76,3.78,6.25,6.25,0,0,1-2.25-.72,12.55,12.55,0,0,1-.7-3.35"/><path class="cls-8" d="M10.67,62.21a11.64,11.64,0,0,1,2.19.29,25.56,25.56,0,0,1,.76,3.78,6.25,6.25,0,0,1-2.25-.72A12.55,12.55,0,0,1,10.67,62.21Z"/><path class="cls-7" d="M12.33,66.78A5.21,5.21,0,0,0,12.4,69a5.74,5.74,0,0,0,1.17,2.51,8.38,8.38,0,0,0,2.2.13c.21-.07-.45-2.25-.66-3.08S14.49,67.06,14,67s-1.48-.4-1.69-.24"/><path class="cls-8" d="M12.33,66.78A5.21,5.21,0,0,0,12.4,69a5.74,5.74,0,0,0,1.17,2.51,8.38,8.38,0,0,0,2.2.13c.21-.07-.45-2.25-.66-3.08S14.49,67.06,14,67,12.54,66.62,12.33,66.78Z"/><path class="cls-7" d="M14,72.25c-.24.14,0,1.6.5,2.47s1.29,2.15,1.61,2.12a16.94,16.94,0,0,0,2.36-.54,20,20,0,0,0-2-4,8.07,8.07,0,0,0-2.45,0"/><path class="cls-8" d="M14,72.25c-.24.14,0,1.6.5,2.47s1.29,2.15,1.61,2.12a16.94,16.94,0,0,0,2.36-.54,20,20,0,0,0-2-4A8.07,8.07,0,0,0,14,72.25Z"/><path class="cls-7" d="M16.4,77.41a3.5,3.5,0,0,0,.37,1.46c.29.6.73,2.6,1.1,2.69a10.55,10.55,0,0,0,2.71-.68c.2-.13-1.62-4.14-1.89-4.08a8.51,8.51,0,0,0-2.29.61"/><path class="cls-8" d="M16.4,77.41a3.5,3.5,0,0,0,.37,1.46c.29.6.73,2.6,1.1,2.69a10.55,10.55,0,0,0,2.71-.68c.2-.13-1.62-4.14-1.89-4.08A8.51,8.51,0,0,0,16.4,77.41Z"/><path class="cls-7" d="M18.26,82.2a4.54,4.54,0,0,0,.26,2.22c.36.94,1.05,2.38,1.28,2.3s2.69-.75,2.67-1-1.5-4.23-1.92-4.06-2,.28-2.29.57"/><path class="cls-8" d="M18.26,82.2a4.54,4.54,0,0,0,.26,2.22c.36.94,1.05,2.38,1.28,2.3s2.69-.75,2.67-1-1.5-4.23-1.92-4.06S18.51,81.91,18.26,82.2Z"/><path class="cls-7" d="M20.05,87.49c-.09,0-.17.7.19,1.65S21,90.6,21.29,90.5s2.28-.67,2.26-1a15.16,15.16,0,0,0-1-3c-.13,0-2.32.87-2.52,1"/><path class="cls-8" d="M20.05,87.49c-.09,0-.17.7.19,1.65S21,90.6,21.29,90.5s2.28-.67,2.26-1a15.16,15.16,0,0,0-1-3C22.44,86.58,20.25,87.4,20.05,87.49Z"/><path class="cls-7" d="M21.42,91.09c-.16.11-.25.8,0,1.88a5.5,5.5,0,0,0,1.13,2.35,8.67,8.67,0,0,0,2.47-.77,17.87,17.87,0,0,0-1.51-4.34,18,18,0,0,0-2.13.88"/><path class="cls-8" d="M21.42,91.09c-.16.11-.25.8,0,1.88a5.5,5.5,0,0,0,1.13,2.35,8.67,8.67,0,0,0,2.47-.77,17.87,17.87,0,0,0-1.51-4.34A18,18,0,0,0,21.42,91.09Z"/><path class="cls-7" d="M22.67,95.87a6.88,6.88,0,0,0-.54,2c-.09.74-.1,1.41.13,1.58a6.09,6.09,0,0,0,2.17.46c.43-.07.78-.34.87-1s-.06-3.63-.34-3.56a17.25,17.25,0,0,0-2.29.54"/><path class="cls-8" d="M22.67,95.87a6.88,6.88,0,0,0-.54,2c-.09.74-.1,1.41.13,1.58a6.09,6.09,0,0,0,2.17.46c.43-.07.78-.34.87-1s-.06-3.63-.34-3.56A17.25,17.25,0,0,0,22.67,95.87Z"/><path class="cls-7" d="M22.14,100.2a2.83,2.83,0,0,0-.48,1.22,8.88,8.88,0,0,1-.94,2.38c-.27.35,0,.74.69.7a17.64,17.64,0,0,0,3.3-.34c.25-.2-.53-2-.42-2.61s.21-.92-.1-1a10.35,10.35,0,0,0-2.05-.39"/><path class="cls-8" d="M22.14,100.2a2.83,2.83,0,0,0-.48,1.22,8.88,8.88,0,0,1-.94,2.38c-.27.35,0,.74.69.7a17.64,17.64,0,0,0,3.3-.34c.25-.2-.53-2-.42-2.61s.21-.92-.1-1A10.35,10.35,0,0,0,22.14,100.2Z"/><path class="cls-7" d="M21.13,105.18a3.93,3.93,0,0,0-.06,1.84c.13.75,2.86,1.52,3.52.69s.37-2.74-.07-2.77a13.49,13.49,0,0,0-3.39.24"/><path class="cls-8" d="M21.13,105.18a3.93,3.93,0,0,0-.06,1.84c.13.75,2.86,1.52,3.52.69s.37-2.74-.07-2.77A13.49,13.49,0,0,0,21.13,105.18Z"/></svg>