<svg id="Layer_1" data-name="Layer 1" xmlns="http://www.w3.org/2000/svg" viewBox="0 0 20.68 79.6"><defs><style>.cls-1{fill:#8c8c8c;}.cls-2{fill:#60c497;}.cls-3{fill:#448762;}.cls-4{fill:#fff;}.cls-5{fill:#00381d;}</style></defs><path class="cls-1" d="M12.36.56a7.12,7.12,0,0,1,3.56,2.35,11.52,11.52,0,0,1,2.76,5.71,9.76,9.76,0,0,1,.09,2.2,17.08,17.08,0,0,1,1,2.8A11.46,11.46,0,0,1,20,15.51a4.57,4.57,0,0,1,.29,2.39A3.85,3.85,0,0,1,19,20.34c-.57.59-.71.42-.71.42a4,4,0,0,1,0,.86,7.72,7.72,0,0,1-1.22,4.06,2.63,2.63,0,0,1-.43.39A2.7,2.7,0,0,1,17,27.19c0,.5-.25,3.6-.25,3.6v2.77a6.17,6.17,0,0,1,.65,2.36c.15,1.49.22,3.33.22,4.19a5.55,5.55,0,0,1-.29,1.67,4.84,4.84,0,0,1,1.27,2.9,15.31,15.31,0,0,1,.12,4.46,3,3,0,0,1-.22,1.22,7.42,7.42,0,0,1,.37,1.36,10.63,10.63,0,0,1,.79,3.14,3.82,3.82,0,0,1-1,3,2.62,2.62,0,0,1,.45,1,9.64,9.64,0,0,1,.76,4.62A3.74,3.74,0,0,1,19,65a4.56,4.56,0,0,1,.37,1.32,5.7,5.7,0,0,1,0,1.25,5.69,5.69,0,0,1,.17,3.25,8.18,8.18,0,0,1-1,2.25,2.08,2.08,0,0,1-1.11.93s-.18,3.13-1.06,4.11a3.49,3.49,0,0,1-2.86.77,5.48,5.48,0,0,1-2.65-1.73,6.14,6.14,0,0,1-.62-1.7l-.06-1.42a6.29,6.29,0,0,1-1.74-1.48A12.33,12.33,0,0,1,7.56,70s-1.5.17-1.72-.74,1.37-1.3,1.37-1.3-.08-1.56-.06-2.06a10.71,10.71,0,0,1,.12-1.19A5,5,0,0,1,7.08,64c-.08-.37-.18-2-.18-2s-1.45-.17-1.49-1.25,1.34-.82,1.34-.82.15-.65.21-1a5.86,5.86,0,0,1,.49-1.15S7.11,56.87,7,56.4s-.38-1.76-.38-1.76-1,.38-1.13-.24.86-1.75.86-1.75a8.69,8.69,0,0,1-.21-1.77,5.09,5.09,0,0,0,0-.86,24.81,24.81,0,0,1-.52-3.1,14.24,14.24,0,0,1,.06-2.63l.22-.93a20.65,20.65,0,0,1-.63-2.81A16.3,16.3,0,0,1,5.46,37S5.08,35.44,5,34.62s-.62-3.53-.72-4.18A11.11,11.11,0,0,1,4,28.65a4.12,4.12,0,0,1,.39-1.13L5,26.83s-1-.13-1.15-.74-.49-2.87-.49-2.87l-.09-.92S2.11,22.13,2,21.41s1.12-1.08,1.12-1.08.14-1.46.2-1.88a6.79,6.79,0,0,1,.32-1.1,11.85,11.85,0,0,1-.49-1.89C3.13,14.78,3,13.9,3,13.9a1.63,1.63,0,0,1-.95-1.2c-.08-.84,1-.59,1-.59a12.28,12.28,0,0,1,.94-3.26A4.89,4.89,0,0,1,6.24,7.24a12.15,12.15,0,0,1,0-2.44A5,5,0,0,1,8.35,1.32a4.83,4.83,0,0,1,4-.76"/><path class="cls-2" d="M10.67.82a7.13,7.13,0,0,1,3.56,2.36A11.43,11.43,0,0,1,17,8.88a9,9,0,0,1,.09,2.2,17,17,0,0,1,1,2.81,12.24,12.24,0,0,1,.26,1.88s1.42.26,1.57,1.45-.65,1.06-.65,1.06l-1.06,0a5.78,5.78,0,0,1-.84,2.29c-.57.59-.7.42-.7.42a3,3,0,0,1,0,.86c-.07.35-.15.89-.15.89s1.07.6.86,1.41a.63.63,0,0,1-.95.44l-.31-.18a8.89,8.89,0,0,1-.68,1.5c-.16.13-.42.39-.42.39a2.76,2.76,0,0,1,.27,1.12c0,.51-.25,3.6-.25,3.6v2.77a6.28,6.28,0,0,1,.66,2.36c.14,1.5.22,3.34.22,4.2A5.36,5.36,0,0,1,15.6,42,4.83,4.83,0,0,1,16.87,45,15.79,15.79,0,0,1,17,49.41a2.83,2.83,0,0,1-.23,1.21A6.86,6.86,0,0,1,17.14,52c.08.6.09.92.09.92s1.62.54,1.54,1.75-1.53.55-1.53.55,0,1.38,0,1.64a12.72,12.72,0,0,1-.3,1.24,2.62,2.62,0,0,1,.45,1,3.36,3.36,0,0,1,.27,1.1s1.56,1.43,1.53,2.5-1.31,1-1.31,1l-.38.06-.24,1.6a4.13,4.13,0,0,1,.37,1.32,6.07,6.07,0,0,1,0,1.24s1.76,1.1,1.7,2.06S18,70.8,18,70.8l-.69.12a12.69,12.69,0,0,1-.55,2.44,2.08,2.08,0,0,1-1.1.93s-.19,3.13-1.06,4.11a3.5,3.5,0,0,1-2.86.77,5.55,5.55,0,0,1-2.66-1.72,6.67,6.67,0,0,1-.62-1.71l0-1.42a6.29,6.29,0,0,1-1.74-1.48,11.56,11.56,0,0,1-.78-2.61s-1.5.17-1.72-.74,1.37-1.31,1.37-1.31-.08-1.55-.07-2.06.12-1.19.12-1.19a6.2,6.2,0,0,1-.18-.67c-.09-.37-.19-2-.19-2S3.75,62.1,3.71,61s1.34-.82,1.34-.82.15-.65.22-1A5.42,5.42,0,0,1,5.75,58s-.33-.88-.48-1.35-.38-1.76-.38-1.76-1,.38-1.13-.23.87-1.76.87-1.76a8.38,8.38,0,0,1-.22-1.77,6.18,6.18,0,0,0,0-.86,26.08,26.08,0,0,1-.53-3.1A15.18,15.18,0,0,1,4,44.56l.23-.94a21.78,21.78,0,0,1-.64-2.8,16.69,16.69,0,0,1,.21-3.54s-.38-1.58-.51-2.4-.63-3.52-.72-4.18a12.59,12.59,0,0,1-.25-1.79,4.27,4.27,0,0,1,.4-1.12l.61-.7s-1-.13-1.14-.73-.5-2.88-.5-2.88l-.08-.92S.41,22.39.34,21.68s1.12-1.09,1.12-1.09.15-1.45.21-1.88A7.17,7.17,0,0,1,2,17.61a11.12,11.12,0,0,1-.48-1.89l-.16-1.56a1.61,1.61,0,0,1-1-1.2c-.08-.84,1.06-.58,1.06-.58a12.16,12.16,0,0,1,.93-3.27A5,5,0,0,1,4.54,7.5a11.71,11.71,0,0,1,0-2.44A4.93,4.93,0,0,1,6.65,1.59a4.82,4.82,0,0,1,4-.77"/><path class="cls-3" d="M12.31,79.11a4.54,4.54,0,0,0,2-3.28c.12-2.11-2.51-1.71-2.51-1.71s3.26-.86,3.33-3.71.09-4.63-.79-5.08a35.94,35.94,0,0,0-3.61-1.24A24.8,24.8,0,0,1,14.44,63c.9-.05,1-4,.45-4.29a22.24,22.24,0,0,0-4.49-1.6c-.89-.06-.16-.83,1.58-.87s3.1,0,3-1.3.08-3.88-.49-4.39A39.62,39.62,0,0,0,10,48.41L8.7,48.28A18.48,18.48,0,0,1,13,47.91c1.4.18,1.36-1.08,1.23-1.94s-.25-3.17-1-4-5-1-5-1a3.66,3.66,0,0,1,2.87-1.31c2.14-.16,2.15-.31,2.11-1.06s-.16-3.83-.82-4.55S9.2,32.86,8.05,33a3,3,0,0,0-1.76.86,6.14,6.14,0,0,1,4.17-2.14c2.62-.16,2.3-.47,2.39-1.41s.31-3.74-.52-4.32-3.9-.64-5.26-.56A5.16,5.16,0,0,0,5,25.93s4.11-2,5.79-2.08,2.39-.33,2.43-.81,1-3.37.23-4a19.83,19.83,0,0,0-5.11-2.31c-1.12-.23-2-.51-2-.51a35.1,35.1,0,0,1,5.86.1c1.85.34,2.28-.41,2.41-1.77S15,10.91,13.9,9.9A13.29,13.29,0,0,0,8.36,7.28c-1.58-.2-1.86-.46-1.86-.46a11.49,11.49,0,0,1,5.28-.58c2.77.4,2.24-1.7,1.65-2.84A8.17,8.17,0,0,0,10.2.71,2.8,2.8,0,0,0,9.28.53a5.71,5.71,0,0,1,3.59,1.13,13,13,0,0,1,3.44,4.7A11.69,11.69,0,0,1,17.1,11a17.37,17.37,0,0,1,1,2.9c.18,1,.24,1.79.24,1.79s1.59.33,1.6,1.79-1.74.68-1.74.68a8.4,8.4,0,0,1-.84,2.2c-.45.58-.69.44-.69.44a5.59,5.59,0,0,1,0,1.08,3.07,3.07,0,0,1-.14.73s1,.82.81,1.65-1.27.2-1.27.2a9.21,9.21,0,0,1-.68,1.44,1.52,1.52,0,0,1-.35.28,2.46,2.46,0,0,1,.23,1.37c-.06.91-.21,3.66-.18,3.76S15,33.76,15,33.76a11.09,11.09,0,0,1,.78,3.09A22,22,0,0,1,15.88,41a5.15,5.15,0,0,1-.25,1,5.36,5.36,0,0,1,1.26,2.76A10.25,10.25,0,0,1,17,48.5l-.22,2s.21,1,.27,1.25l.22.94s1.49.78,1.48,1.68-1.51.65-1.51.65,0,1.46,0,2a2.33,2.33,0,0,1-.36,1.07,3.4,3.4,0,0,1,.55,1c.13.43.24.88.24.88s1.51,1.33,1.54,2.55-1.61,1.12-1.61,1.12l-.31,1.6a1.93,1.93,0,0,1,.33,1.23c0,.9,0,1.42,0,1.42s1.65.8,1.58,2a1,1,0,0,1-1.23.91l-.68.06a10,10,0,0,1-.64,2.62c-.47,1-1,.68-1,.68a10.17,10.17,0,0,1-.81,4,2.62,2.62,0,0,1-2.56,1"/><path class="cls-4" d="M10.65,77.15c-.44-.17-.79-1.47-.69-1.88s.36-.5-.12-1.24S8.71,72.62,8.73,71.9a10.16,10.16,0,0,0-.42-3.66,4,4,0,0,1-.6-2.53c.09-1.29.49-1.23.35-2.11a18.38,18.38,0,0,1-.74-3.16c-.08-1.44.27-2.14.09-2.69a25.31,25.31,0,0,1-.56-4c0-1,.35-2.43.27-3.14s-1-2.19-.56-3a4.09,4.09,0,0,0,.21-2.46,5.52,5.52,0,0,1-.24-2.39,4.42,4.42,0,0,0-.15-2.27c-.15-.84-.68-1.08-.6-2.09a18.07,18.07,0,0,0,.34-3.27C6,34.44,5,33.46,5.53,32.06s-.39-2.9-.46-3.49-.55-1.45-.4-2a7.44,7.44,0,0,0,.47-3.28C4.87,22.25,4,20.42,4,19.38a4.46,4.46,0,0,1,.65-2.29,3.86,3.86,0,0,0,.08-2.37c-.14-1.19-.35-1.46-.14-2.19s.08-3.45.61-3.8.9-.14.74-.85,0-.8.59-1.06S7,6.29,6.93,5.5a2.36,2.36,0,0,1,.8-2.1c.63-.47.73-1.92,1.24-1.59s.63.52.08,1.32-1.37.68-1.23,1.75.52.85.12,1.6S6.79,7.19,7,8s.6,1-.42,1.83a2.1,2.1,0,0,0-1,2.66c.39,1.22-.13,1.09-.19,2.3a3.35,3.35,0,0,0,.37,2.06c.31.78-.45,1.43-.59,2.28s.89,3.95.93,4.79-.86,1.58-.52,2.92a27.69,27.69,0,0,1,1,3.94c0,.92-.39.19-.26,1.46s.93,2,.83,3-.88,2.49-.32,3.54a5.16,5.16,0,0,1,.64,2.93,12.06,12.06,0,0,0,.31,3.67,6.93,6.93,0,0,1,0,2.76,3.25,3.25,0,0,0,.24,2.31c.49,1.17-.4,3.15-.33,4a22.78,22.78,0,0,0,.57,2.85c.21,1-.09,1-.11,2.41s.46,4.1.8,4.4.06,1.72-.1,2.17a5.22,5.22,0,0,0,.5,2.61c.35.58-.31,1.5-.05,2.41a4,4,0,0,0,.74,1.88,3.05,3.05,0,0,1,.58,2.25c-.11.6.75,2.08,0,1.76"/><path class="cls-5" d="M17,64.77a1.54,1.54,0,0,1,.75,1.43,28.22,28.22,0,0,1-.6,6.37,2.25,2.25,0,0,1-2.59,1.87c-.86,0-1.78-.09-2.67-.06-1.71,0-2.66.52-4-.28-2-1.22-2.11-3.65-2.39-5.24l0-.15c-.2-1.1-.4-4.26.32-4.45C7,63.94,15,63.68,17,64.77m.46,1.62c0-.61-.15-1-.55-1.17-1.91-1-9.63-.83-11-.49-.43.1-.27,2.92-.09,3.89l0,.15c.28,1.58.35,3.77,2.19,4.89,1.24.76,2.15.28,3.83.24.9,0,1.83.08,2.7.06a2.09,2.09,0,0,0,2.29-1.59h0a26.49,26.49,0,0,0,.61-6"/><path class="cls-5" d="M1.92,26.1c-.21-.76-1-6.71-.09-8.52C2.64,16,4.2,16,5.85,16.12l.58,0c2,.07,7.76.88,9.14,2.3a4.46,4.46,0,0,1,1.19,3.76c-.56,2.69-1.12,4-1.73,4.12l0-.47c.26,0,.8-.59,1.47-3.82a3.8,3.8,0,0,0-1-3.2c-1.26-1.29-6.84-2.13-8.95-2.21l-.59,0c-1.63-.08-3.05-.15-3.76,1.28-.81,1.62-.06,7.4.12,8.06.13.46.83.64,1.06.67v.48c-.11,0-1.13-.16-1.36-1"/><path class="cls-5" d="M16.61,21v-.48c.35.07.71-.34,1-1.12a11,11,0,0,0-.45-7.75C14.92,6.91,8.92,7,6.45,7.19c-4,.38-4.44,2.21-4.79,5.4a9.76,9.76,0,0,0,.46,4.8l-.26.26a10.33,10.33,0,0,1-.52-5.18c.37-3.3.81-5.35,5.06-5.76,2.53-.25,8.67-.28,11,4.66a11.62,11.62,0,0,1,.48,8.25c-.35.94-.83,1.44-1.3,1.35"/><path class="cls-5" d="M16.93,11a9.82,9.82,0,0,0-1.5-6C13.31,1.25,9.83-.17,7,1.52S4.62,6.93,4.65,7.08l-.32.08S3.66,3,6.84,1.08c3-1.78,6.62-.29,8.83,3.61a10.27,10.27,0,0,1,1.57,6.48Z"/><path class="cls-5" d="M18.17,18.35l0-.47c.3.08,1.17.19,1.44-.24a.67.67,0,0,0,.08-.47,1.53,1.53,0,0,0-1.41-1.32v-.48A1.89,1.89,0,0,1,20,17.11a1.24,1.24,0,0,1-.15.88c-.43.67-1.58.39-1.71.36"/><path class="cls-5" d="M16,24.5l.09-.45c.23.13.88.37,1.1,0a.19.19,0,0,0,0-.15,2.63,2.63,0,0,0-.81-1.11l.14-.41a3,3,0,0,1,1,1.44.9.9,0,0,1-.08.55c-.4.74-1.41.2-1.45.17"/><path class="cls-5" d="M17.37,54.78c.23.08.9.22,1.16-.08a.51.51,0,0,0,.09-.32c0-.75-1.06-1.32-1.43-1.46l.06-.47c.17.07,1.68.69,1.69,2a1,1,0,0,1-.2.68c-.42.48-1.32.19-1.43.15Z"/><path class="cls-5" d="M5.21,60.26c-.21-.06-.84-.16-1.14.16a.68.68,0,0,0-.17.44.67.67,0,0,0,.08.42,1.76,1.76,0,0,0,1.25.61v.48a2,2,0,0,1-1.5-.8,1.35,1.35,0,0,1-.16-.8A1.16,1.16,0,0,1,3.87,60a1.52,1.52,0,0,1,1.38-.23Z"/><path class="cls-5" d="M4.05,69.55a1.11,1.11,0,0,1,0-.65c.24-.75,1.37-1.07,1.49-1.11l.08.47c-.42.12-1.14.46-1.27.87a.33.33,0,0,0,0,.24c.21.64,1.19.49,1.52.39l.09.46c-.15,0-1.53.46-1.9-.67"/><path class="cls-5" d="M17.45,63.76l0-.48c.4,0,1.47-.15,1.63-.85s-.9-1.82-1.43-2.29V59.6c.19.17,2,1.84,1.74,3s-1.74,1.15-1.91,1.15"/><path class="cls-5" d="M19.46,70c-.33,1.17-1.94,1-2.12,1V70.5c.44,0,1.61,0,1.82-.71a.59.59,0,0,0,0-.32C19,68.84,18,68.16,17.61,68l.09-.45a4.13,4.13,0,0,1,1.74,1.79,1.29,1.29,0,0,1,0,.7"/><path class="cls-5" d="M.21,21.56A1,1,0,0,1,.3,21a1.78,1.78,0,0,1,1.24-.79l.06.48c-.23,0-.86.22-1,.6a.52.52,0,0,0,0,.25c.08.56.86.68,1.12.68l0,.48c-.05,0-1.31,0-1.47-1.09"/><path class="cls-5" d="M.22,12.89a1,1,0,0,1,.13-.67C.67,11.77,1.41,12,1.49,12l0,.47c-.25-.08-.71-.11-.86.11,0,0-.07.11,0,.27a1.19,1.19,0,0,0,.91,1l0,.47a1.59,1.59,0,0,1-1.2-1.41"/><path class="cls-5" d="M3.59,54.28a2.26,2.26,0,0,1,1-1.7l.14.45a1.81,1.81,0,0,0-.83,1.32c0,.16,0,.21,0,.23.15.19.61.12.89,0l.1.46c-.14.06-.85.3-1.19-.13a.92.92,0,0,1-.17-.65"/><path class="cls-5" d="M15.39,27.75c-.1,1-.19,6.17-.21,6.21l-.3-.19s.09-5.2.19-6.13a1.94,1.94,0,0,0-.86-2.13c-.81-.51-5.75-.58-8.53.44C2.74,27,2.32,28.19,2.59,29.61l.29,1.86c.21,1.42.48,3.3,1.05,5.77l-.24.39c-.61-2.57-.9-4.58-1.12-6.09l-.29-1.83c-.38-2,.57-3.23,3.3-4.23s7.79-1,8.73-.41a2.53,2.53,0,0,1,1.08,2.68"/><path class="cls-5" d="M15.69,42.15l-.25-.34c.62-.92.22-6.77-.45-7.8s-4.74-1.93-7.38-.64-3.67,3-3.88,5.32a13,13,0,0,0,.59,4.76l-.18.5a15.45,15.45,0,0,1-.73-5.36c.22-2.46,1.23-4.28,4.08-5.68,2.68-1.31,6.94-.43,7.73.79s1.22,7.32.47,8.45"/><path class="cls-5" d="M16.94,50.78l-.26-.41c.41-2,.44-5.53-.57-7.42C15,40.8,13.2,40.87,11.29,40.66c-2.09-.22-5.95,1.5-6.79,2.75-.64.94-.37,4.35,0,6.54l-.1.93,0,.31c-.52-2-1.13-6.8-.23-8.13s5-3.09,7-2.87,3.85.17,5.07,2.48c1.11,2.09,1.09,5.94.58,8.11"/><path class="cls-5" d="M17.43,56.12a4.92,4.92,0,0,1-.36,2.15l-.31-.19a4.35,4.35,0,0,0,.35-1.94c-.1-1.5.23-4.89-.73-5.84S8.52,47.9,6.05,48.89c-1.78.72-1.57,1.9-1.25,3.68L5,54a16.92,16.92,0,0,0,.86,3.74l-.26.31a18.6,18.6,0,0,1-.91-4l-.22-1.4c-.31-1.75-.61-3.4,1.45-4.23,2.45-1,9.48.38,10.6,1.48s.79,4.75.89,6.21"/><path class="cls-5" d="M5.19,64a2.51,2.51,0,0,0,.37,1.21.63.63,0,0,0,.11-.59A1.61,1.61,0,0,1,5.52,64c0-1.49-.59-4.91.3-5.79s8.07-1.44,10.62-.27c1.83.83.87,6.24.68,7.18l.27.33c.2-.94,1.24-7-.88-8-2.53-1.15-9.83-.71-10.88.32S5.19,62.5,5.19,64"/><path class="cls-5" d="M15.83,73.93c0,1.37-.14,3.91-1.53,4.89-1.79,1.27-3.85.25-5.06-1s-1-3.76-1-3.87l.32.07s-.1,2.42.86,3.41c1.14,1.18,3.06,2.14,4.74.95,1.16-.82,1.35-3,1.36-4.3Z"/></svg>