<svg id="Layer_1" data-name="Layer 1" xmlns="http://www.w3.org/2000/svg" viewBox="0 0 202 64"><defs><style>.cls-1{fill:#72331d;}</style></defs><path class="cls-1" d="M34.27,36.78a16.34,16.34,0,0,1-1,5.74,12.25,12.25,0,0,1-2.74,4.41,12.38,12.38,0,0,1-4.28,2.82,14.77,14.77,0,0,1-5.57,1,28.14,28.14,0,0,1-5.54-.58A25.57,25.57,0,0,1,10,48.6V12.69h7.38V29.18A8.73,8.73,0,0,1,20.51,27a11,11,0,0,1,4-.71,10.43,10.43,0,0,1,4,.74,8.72,8.72,0,0,1,3.09,2.11,9.89,9.89,0,0,1,2,3.3A12.39,12.39,0,0,1,34.27,36.78Zm-7.38,1.33a4.89,4.89,0,0,0-1.11-3.39,4,4,0,0,0-3.14-1.23,5.17,5.17,0,0,0-3.93,1.69A5.11,5.11,0,0,0,17.65,37a6.2,6.2,0,0,0-.36,2.11v4.22a7.09,7.09,0,0,0,1.75.65,10.88,10.88,0,0,0,2,.15,5.74,5.74,0,0,0,4.28-1.58A6,6,0,0,0,26.89,38.11Z"/><path class="cls-1" d="M58.3,50.75a8.92,8.92,0,0,0-.06-.94c0-.3-.07-.65-.09-1.06s0-.83-.08-1.27a8.79,8.79,0,0,1-3.62,2.85,11.65,11.65,0,0,1-4.73,1,8.77,8.77,0,0,1-7.09-3q-2.54-3-2.53-8.55,0-6.7,4.08-10.35T55.8,25.78q1.23,0,2.25.06c.67,0,1.35.1,2,.19s1.37.21,2.08.36,1.5.35,2.37.61V42.76c0,.85,0,1.75,0,2.69s.09,1.8.17,2.58.15,1.83.22,2.72ZM57.14,32.66a11.57,11.57,0,0,0-1.76-.28c-.52,0-1-.05-1.46-.05a5.9,5.9,0,0,0-4.75,2,8.09,8.09,0,0,0-1.69,5.46,5.39,5.39,0,0,0,1,3.55,3.51,3.51,0,0,0,2.88,1.23,5.16,5.16,0,0,0,2.23-.5,5.8,5.8,0,0,0,1.83-1.42,6.75,6.75,0,0,0,1.24-2.16,8.28,8.28,0,0,0,.46-2.81Z"/><path class="cls-1" d="M88.43,50.75V36.9a5.61,5.61,0,0,0-.36-2.25,3.22,3.22,0,0,0-.86-1.21,2.27,2.27,0,0,0-1-.48,7.41,7.41,0,0,0-1-.08,5.16,5.16,0,0,0-1.16.22,4,4,0,0,0-1.7,1,6.92,6.92,0,0,0-1.52,2.36,10.62,10.62,0,0,0-.67,4.17V50.75H72.78V34.61a27.83,27.83,0,0,0-.33-4.21,13.61,13.61,0,0,0-.89-3.4h7.38a10.2,10.2,0,0,1,.47,1.28,13.26,13.26,0,0,1,.31,1.44,11.45,11.45,0,0,1,3.8-2.55,10.94,10.94,0,0,1,4.14-.84,8.07,8.07,0,0,1,3.23.65,7.62,7.62,0,0,1,2.58,1.81,8.35,8.35,0,0,1,1.72,2.87,11.09,11.09,0,0,1,.62,3.8V50.75Z"/><path class="cls-1" d="M121.83,50.75a8.92,8.92,0,0,0-.06-.94c0-.3-.06-.65-.08-1.06s0-.83-.09-1.27A8.72,8.72,0,0,1,118,50.33a11.6,11.6,0,0,1-4.72,1,8.76,8.76,0,0,1-7.09-3q-2.53-3-2.54-8.55,0-6.7,4.08-10.35t11.62-3.63q1.24,0,2.25.06c.68,0,1.35.1,2,.19s1.37.21,2.08.36,1.5.35,2.36.61V42.76c0,.85,0,1.75.06,2.69s.09,1.8.16,2.58.15,1.83.23,2.72Zm-1.16-18.09a11.46,11.46,0,0,0-1.75-.28c-.53,0-1-.05-1.47-.05a5.9,5.9,0,0,0-4.74,2A8.09,8.09,0,0,0,111,39.76a5.39,5.39,0,0,0,1,3.55,3.53,3.53,0,0,0,2.88,1.23,5.16,5.16,0,0,0,2.23-.5A5.73,5.73,0,0,0,119,42.62a6.94,6.94,0,0,0,1.24-2.16,8.28,8.28,0,0,0,.45-2.81Z"/><path class="cls-1" d="M152,50.75V36.9a5.61,5.61,0,0,0-.36-2.25,3.22,3.22,0,0,0-.86-1.21,2.35,2.35,0,0,0-1.06-.48,7.27,7.27,0,0,0-.94-.08,5.31,5.31,0,0,0-1.17.22,4,4,0,0,0-1.69,1,6.92,6.92,0,0,0-1.52,2.36,10.62,10.62,0,0,0-.67,4.17V50.75h-7.38V34.61A27.83,27.83,0,0,0,136,30.4a14.06,14.06,0,0,0-.89-3.4h7.38a10.2,10.2,0,0,1,.47,1.28q.13.49.3,1.44a11.39,11.39,0,0,1,3.81-2.55,10.93,10.93,0,0,1,4.13-.84,8.12,8.12,0,0,1,3.24.65A7.72,7.72,0,0,1,157,28.79a8.33,8.33,0,0,1,1.71,2.87,10.86,10.86,0,0,1,.63,3.8V50.75Z"/><path class="cls-1" d="M185.37,50.75a8.92,8.92,0,0,0-.06-.94c0-.3-.07-.65-.09-1.06s-.05-.83-.08-1.27a8.79,8.79,0,0,1-3.62,2.85,11.65,11.65,0,0,1-4.73,1,8.77,8.77,0,0,1-7.09-3q-2.53-3-2.53-8.55,0-6.7,4.08-10.35t11.62-3.63q1.23,0,2.25.06c.67,0,1.35.1,2,.19s1.37.21,2.08.36,1.5.35,2.37.61V42.76c0,.85,0,1.75,0,2.69s.09,1.8.17,2.58.15,1.83.22,2.72Zm-1.16-18.09a11.66,11.66,0,0,0-1.75-.28c-.53,0-1-.05-1.47-.05a5.88,5.88,0,0,0-4.74,2,8.09,8.09,0,0,0-1.7,5.46,5.39,5.39,0,0,0,1,3.55,3.53,3.53,0,0,0,2.88,1.23,5.16,5.16,0,0,0,2.23-.5,5.69,5.69,0,0,0,1.83-1.42,6.75,6.75,0,0,0,1.24-2.16,8,8,0,0,0,.46-2.81Z"/></svg>