<svg id="Layer_1" data-name="Layer 1" xmlns="http://www.w3.org/2000/svg" viewBox="0 0 202 64"><defs><style>.cls-1{fill:#72331d;}</style></defs><path class="cls-1" d="M84.1,21.21a16.93,16.93,0,0,0-3.6-2.31,8.83,8.83,0,0,0-3.44-.63,10.28,10.28,0,0,0-2.33.25,3.74,3.74,0,0,0-2,1.11,6.08,6.08,0,0,0-1.33,2.49,16.45,16.45,0,0,0-.55,4.36h5.71v5.27H70.9V50.9H63.52V31.75H58.91V26.48H63.4a24.61,24.61,0,0,1,.87-7.21,10,10,0,0,1,2.44-4.33,8.08,8.08,0,0,1,3.83-2.11,21.37,21.37,0,0,1,5.13-.56,15.88,15.88,0,0,1,4.83.7,18.06,18.06,0,0,1,4.55,2.24ZM79.16,50.9V26.48h7.38V50.9Z"/><path class="cls-1" d="M113.12,44.12a7,7,0,0,1-2.35,5.55,9.71,9.71,0,0,1-6.61,2.06,27.71,27.71,0,0,1-5.63-.56,16.68,16.68,0,0,1-4.44-1.5L95,44a18.89,18.89,0,0,0,8.44,2.5,2.4,2.4,0,0,0,1.75-.53,1.64,1.64,0,0,0,.52-1.19,2.18,2.18,0,0,0-.41-1.36,6.53,6.53,0,0,0-2-1.3,32.73,32.73,0,0,1-3.91-2,13,13,0,0,1-2.66-2.08,6.9,6.9,0,0,1-1.5-2.3A7.58,7.58,0,0,1,94.76,33a6.26,6.26,0,0,1,2.68-5.41,11.77,11.77,0,0,1,7-1.91,21.53,21.53,0,0,1,4.13.36,19,19,0,0,1,4.15,1.41L111.84,33A13.23,13.23,0,0,0,108,31.5a17,17,0,0,0-3.65-.42,2.5,2.5,0,0,0-1.77.48,1.7,1.7,0,0,0-.47,1.25,1.83,1.83,0,0,0,.76,1.52,15.69,15.69,0,0,0,2.95,1.53,32.39,32.39,0,0,1,3.37,1.91,11.42,11.42,0,0,1,2.27,1.89,6,6,0,0,1,1.26,2.05A7.34,7.34,0,0,1,113.12,44.12Z"/><path class="cls-1" d="M135.71,50.9V37.09a7.29,7.29,0,0,0-.26-2.14,2.91,2.91,0,0,0-.7-1.23,2.34,2.34,0,0,0-1-.56,5.17,5.17,0,0,0-1.19-.13,3.34,3.34,0,0,0-1.85.56,5.58,5.58,0,0,0-1.55,1.52A8.2,8.2,0,0,0,128,37.39a8.94,8.94,0,0,0-.42,2.75V50.9h-7.38v-38h7.32V29.25a8.37,8.37,0,0,1,3.07-2.13,10.08,10.08,0,0,1,3.72-.64,11.87,11.87,0,0,1,3.2.43,8.19,8.19,0,0,1,2.79,1.38,7,7,0,0,1,2,2.51,8.7,8.7,0,0,1,.77,3.84V50.9Z"/></svg>