<svg id="Layer_1" data-name="Layer 1" xmlns="http://www.w3.org/2000/svg" viewBox="0 0 202 64"><defs><style>.cls-1{fill:#72331d;}</style></defs><path class="cls-1" d="M62.35,37.1a25.91,25.91,0,0,1-.93,7.52,13.27,13.27,0,0,1-2.55,4.86,9.35,9.35,0,0,1-3.82,2.64,14.17,14.17,0,0,1-4.82.8,39.87,39.87,0,0,1-4.95-.31,17.68,17.68,0,0,1-4.67-1.19v-5.6A30.89,30.89,0,0,0,44.85,47a18.43,18.43,0,0,0,3.58.42,6.27,6.27,0,0,0,2.66-.56,5.17,5.17,0,0,0,2.06-1.77,9.32,9.32,0,0,0,1.35-3.22A21.56,21.56,0,0,0,55,37.05V34.61a8.49,8.49,0,0,1-3.16,1.86,13.24,13.24,0,0,1-3.44.41A10.79,10.79,0,0,1,44,36.05a9.2,9.2,0,0,1-3.3-2.33,10.49,10.49,0,0,1-2.11-3.63,14.3,14.3,0,0,1-.75-4.75A14.07,14.07,0,0,1,39,19.54a12.46,12.46,0,0,1,3.29-4.41,14.82,14.82,0,0,1,5.18-2.8,22.38,22.38,0,0,1,6.86-1c.79,0,1.48,0,2.08,0a17.54,17.54,0,0,1,1.78.13c.58.08,1.2.18,1.85.31s1.42.3,2.28.53ZM55,18.57c-.65-.11-1.13-.18-1.46-.22a10.84,10.84,0,0,0-1.28-.06,7,7,0,0,0-5.11,1.81,6.58,6.58,0,0,0-1.86,5,4.71,4.71,0,0,0,1.23,3.5,4.16,4.16,0,0,0,3,1.22,8.76,8.76,0,0,0,2-.22,3.58,3.58,0,0,0,1.75-1,5.44,5.44,0,0,0,1.22-2.25,13.59,13.59,0,0,0,.46-4Z"/><path class="cls-1" d="M87,18.74a12.14,12.14,0,0,0-1.22-.22,7.46,7.46,0,0,0-1-.06A5.65,5.65,0,0,0,80,20.63q-1.63,2.16-1.63,6.44v9.26H71v-16c0-.9,0-1.69,0-2.36a18,18,0,0,0-.14-1.88,17,17,0,0,0-.3-1.71c-.13-.56-.31-1.2-.53-1.92h7c.11.45.21.84.31,1.16a5.78,5.78,0,0,1,.2.91c0,.29.08.59.11.91a9.88,9.88,0,0,1,.06,1.17A12.44,12.44,0,0,1,80.86,13a6,6,0,0,1,3.52-1.06,5.41,5.41,0,0,1,1.31.14,13.13,13.13,0,0,1,1.47.55Z"/><path class="cls-1" d="M107.52,36.33a8.92,8.92,0,0,0-.06-.94c0-.3-.07-.65-.09-1.06s-.05-.83-.08-1.28a8.73,8.73,0,0,1-3.62,2.86,11.64,11.64,0,0,1-4.73,1,8.8,8.8,0,0,1-7.09-3q-2.53-3-2.53-8.55,0-6.7,4.08-10.35T105,11.36c.82,0,1.57,0,2.25.05s1.35.11,2,.2,1.37.21,2.08.36,1.5.35,2.37.61V28.34c0,.85,0,1.75.05,2.69s.09,1.8.17,2.58.15,1.83.22,2.72Zm-1.16-18.09A11.57,11.57,0,0,0,104.6,18c-.52,0-1-.05-1.46-.05a5.9,5.9,0,0,0-4.75,2,8.14,8.14,0,0,0-1.69,5.46,5.39,5.39,0,0,0,1,3.55,3.5,3.5,0,0,0,2.88,1.22,5,5,0,0,0,2.23-.5,5.63,5.63,0,0,0,1.83-1.41A6.69,6.69,0,0,0,105.9,26a8.18,8.18,0,0,0,.46-2.8Z"/><path class="cls-1" d="M139.48,29.56a7,7,0,0,1-2.35,5.55,9.72,9.72,0,0,1-6.61,2,27.71,27.71,0,0,1-5.63-.55,16.44,16.44,0,0,1-4.44-1.5l.94-5.66a19,19,0,0,0,8.44,2.49,2.4,2.4,0,0,0,1.74-.52,1.62,1.62,0,0,0,.53-1.2,2.2,2.2,0,0,0-.41-1.36,6.53,6.53,0,0,0-2-1.3,31.31,31.31,0,0,1-3.91-2,13,13,0,0,1-2.67-2.08,7,7,0,0,1-1.49-2.3,7.54,7.54,0,0,1-.48-2.78A6.26,6.26,0,0,1,123.8,13a11.84,11.84,0,0,1,7-1.91,21.53,21.53,0,0,1,4.13.36,18.75,18.75,0,0,1,4.15,1.42l-.89,5.6a12.86,12.86,0,0,0-3.82-1.52,16.89,16.89,0,0,0-3.64-.42A2.55,2.55,0,0,0,129,17a1.66,1.66,0,0,0-.47,1.25,1.83,1.83,0,0,0,.76,1.53,16.12,16.12,0,0,0,3,1.52,37.89,37.89,0,0,1,3.37,1.91,12.09,12.09,0,0,1,2.27,1.89,5.91,5.91,0,0,1,1.26,2.06A7.3,7.3,0,0,1,139.48,29.56Z"/><path class="cls-1" d="M164.12,29.56a7,7,0,0,1-2.35,5.55,9.72,9.72,0,0,1-6.61,2,27.64,27.64,0,0,1-5.63-.55,16.44,16.44,0,0,1-4.44-1.5l.94-5.66a19,19,0,0,0,8.43,2.49,2.41,2.41,0,0,0,1.75-.52,1.66,1.66,0,0,0,.53-1.2,2.14,2.14,0,0,0-.42-1.36,6.32,6.32,0,0,0-2-1.3,31.31,31.31,0,0,1-3.91-2,12.76,12.76,0,0,1-2.67-2.08,7.22,7.22,0,0,1-1.5-2.3,7.75,7.75,0,0,1-.47-2.78A6.26,6.26,0,0,1,148.44,13a11.81,11.81,0,0,1,7-1.91,21.56,21.56,0,0,1,4.14.36,18.93,18.93,0,0,1,4.15,1.42l-.89,5.6A13.08,13.08,0,0,0,159,16.94a16.89,16.89,0,0,0-3.64-.42,2.55,2.55,0,0,0-1.77.47,1.66,1.66,0,0,0-.48,1.25,1.86,1.86,0,0,0,.76,1.53,16.67,16.67,0,0,0,3,1.52,37.89,37.89,0,0,1,3.37,1.91,12.42,12.42,0,0,1,2.27,1.89,5.91,5.91,0,0,1,1.26,2.06A7.3,7.3,0,0,1,164.12,29.56Z"/></svg>