<svg id="Layer_1" data-name="Layer 1" xmlns="http://www.w3.org/2000/svg" viewBox="0 0 202 64"><defs><style>.cls-1{fill:#72331d;}</style></defs><path class="cls-1" d="M52,41.5a4.23,4.23,0,0,1-1.47,2.08,4.39,4.39,0,0,1-2.52.63,4.17,4.17,0,0,1-2.56-.68A4.72,4.72,0,0,1,44,41.28l-4.72-14.4L34.36,41.56a3.63,3.63,0,0,1-1.42,2,4.89,4.89,0,0,1-2.64.62,8.68,8.68,0,0,1-1.16-.08,3.39,3.39,0,0,1-1.06-.35,3,3,0,0,1-.94-.87,5.89,5.89,0,0,1-.77-1.57L18.6,19.79h7.49l3.22,9.86c.11.36.23.78.36,1.27s.26,1,.41,1.43.32,1.12.5,1.73a11.12,11.12,0,0,1,.34-1.35c.11-.4.23-.82.36-1.27l.36-1.27,3.1-10.4h9l3.33,10.88c.08.33.18.68.31,1.06s.25.75.36,1.11a6.47,6.47,0,0,1,.33,1.24L48.4,33c.18-.72.38-1.41.61-2.06l3.27-11.1h7.77Z"/><path class="cls-1" d="M89.4,31.92a14,14,0,0,1-.91,5.26A10.54,10.54,0,0,1,85.89,41a11.19,11.19,0,0,1-4,2.38,17.23,17.23,0,0,1-10.44,0,11.32,11.32,0,0,1-4-2.38,11,11,0,0,1-2.62-3.84,13.64,13.64,0,0,1-.94-5.26,13.51,13.51,0,0,1,.91-5.12A10.86,10.86,0,0,1,67.3,23a11,11,0,0,1,4-2.38,16.44,16.44,0,0,1,5.31-.81,16.25,16.25,0,0,1,5.22.79,10.93,10.93,0,0,1,4,2.32,10.22,10.22,0,0,1,2.6,3.82A13.86,13.86,0,0,1,89.4,31.92Zm-7.38,0a5.5,5.5,0,0,0-1.49-4.12,5.43,5.43,0,0,0-4-1.47,5.13,5.13,0,0,0-4,1.47,5.78,5.78,0,0,0-1.38,4.12,6.12,6.12,0,0,0,1.35,4.24,5.09,5.09,0,0,0,4,1.49,5.4,5.4,0,0,0,4.06-1.47A5.88,5.88,0,0,0,82,31.93Z"/><path class="cls-1" d="M113.21,26.62c-.52-.11-.93-.19-1.22-.22a7.57,7.57,0,0,0-1-.06,5.63,5.63,0,0,0-4.8,2.17q-1.64,2.16-1.64,6.44v9.26H97.17v-16c0-.9,0-1.69,0-2.36A17.8,17.8,0,0,0,97,23.94a16.53,16.53,0,0,0-.3-1.71c-.13-.56-.31-1.2-.53-1.93h7c.11.46.22.85.31,1.17a5.78,5.78,0,0,1,.2.91c0,.29.08.59.12.91s0,.72,0,1.17A12.44,12.44,0,0,1,107,20.85a6,6,0,0,1,3.52-1.06,5.36,5.36,0,0,1,1.31.14,13.13,13.13,0,0,1,1.47.55Z"/><path class="cls-1" d="M149.67,44.21V32.14c0-2.18-.32-3.69-.94-4.54a3,3,0,0,0-2.54-1.26,3.71,3.71,0,0,0-1.65.4A4.22,4.22,0,0,0,143,28a6.9,6.9,0,0,0-1.1,2.42,15.11,15.11,0,0,0-.41,3.8v10h-7.38V32.14a8.7,8.7,0,0,0-.86-4.4,3.11,3.11,0,0,0-2.86-1.4,4,4,0,0,0-3.28,1.87q-1.38,1.88-1.38,6v10h-7.38V28.88c0-.9,0-1.72-.06-2.45s-.1-1.43-.19-2.07a14.23,14.23,0,0,0-.39-1.88c-.17-.61-.36-1.26-.58-1.94h7.38l.41,1.29a10.48,10.48,0,0,1,.31,1.24,16.75,16.75,0,0,1,3.84-2.36,12.45,12.45,0,0,1,5.07-.92,8.56,8.56,0,0,1,3.78.81,5.62,5.62,0,0,1,2.51,2.24,8.1,8.1,0,0,1,3.72-2.27,15.27,15.27,0,0,1,4.77-.78,7.93,7.93,0,0,1,6,2.21c1.4,1.48,2.1,3.61,2.1,6.42V44.21Z"/><path class="cls-1" d="M183.4,37.44A7,7,0,0,1,181.05,43a9.71,9.71,0,0,1-6.61,2,28.44,28.44,0,0,1-5.63-.55,16.44,16.44,0,0,1-4.44-1.5l.94-5.66a19,19,0,0,0,8.44,2.49,2.44,2.44,0,0,0,1.75-.52,1.65,1.65,0,0,0,.52-1.2,2.2,2.2,0,0,0-.41-1.36,6.53,6.53,0,0,0-2-1.3,32.73,32.73,0,0,1-3.91-2A13,13,0,0,1,167,31.36a7,7,0,0,1-1.49-2.3,7.54,7.54,0,0,1-.47-2.78,6.26,6.26,0,0,1,2.68-5.41,11.84,11.84,0,0,1,7-1.91,21.53,21.53,0,0,1,4.13.36A18.75,18.75,0,0,1,183,20.74l-.89,5.6a13.17,13.17,0,0,0-3.82-1.53,17.51,17.51,0,0,0-3.64-.41,2.55,2.55,0,0,0-1.77.47,1.66,1.66,0,0,0-.47,1.25,1.8,1.8,0,0,0,.76,1.52,15.37,15.37,0,0,0,2.95,1.53,35.54,35.54,0,0,1,3.37,1.91A11.72,11.72,0,0,1,181.77,33,6,6,0,0,1,183,35,7.4,7.4,0,0,1,183.4,37.44Z"/></svg>