<svg id="Layer_1" data-name="Layer 1" xmlns="http://www.w3.org/2000/svg" viewBox="0 0 202 64"><defs><style>.cls-1{fill:#72331d;}</style></defs><path class="cls-1" d="M34.08,46.42a16.82,16.82,0,0,1-4,.45A13.28,13.28,0,0,1,25.23,46a12,12,0,0,1-3.86-2.41,10.44,10.44,0,0,1-2.52-3.71A12.47,12.47,0,0,1,18,35.06a15.64,15.64,0,0,1,.8-5.08,10.53,10.53,0,0,1,2.44-4,11.39,11.39,0,0,1,4.06-2.6,15.78,15.78,0,0,1,5.63-.92,12.82,12.82,0,0,1,4.24.58,15.21,15.21,0,0,1,2.75,1.25L36.6,30.67c-.55-.26-1-.49-1.41-.7a8.6,8.6,0,0,0-1.11-.49,5,5,0,0,0-1.17-.28,11,11,0,0,0-1.52-.09,5.76,5.76,0,0,0-4.28,1.52,5.59,5.59,0,0,0-1.49,4.09,5.44,5.44,0,0,0,1.55,4.12,6.25,6.25,0,0,0,4.49,1.48A11.91,11.91,0,0,0,34.55,40a15.39,15.39,0,0,0,2.94-1l.5,6A18.72,18.72,0,0,1,34.08,46.42Z"/><path class="cls-1" d="M61,46.87a8.92,8.92,0,0,0-.06-.94c0-.3-.07-.65-.09-1.06s0-.83-.09-1.27a8.72,8.72,0,0,1-3.61,2.86,11.84,11.84,0,0,1-4.73,1,8.77,8.77,0,0,1-7.09-3q-2.54-3-2.53-8.55,0-6.71,4.08-10.34T58.51,21.9q1.25,0,2.25.06c.68,0,1.35.1,2,.19s1.37.21,2.08.36,1.5.35,2.36.61V38.88c0,.85,0,1.75.06,2.69s.09,1.81.17,2.58c.07.93.14,1.83.22,2.72ZM59.85,28.78a11.46,11.46,0,0,0-1.75-.28c-.52,0-1-.05-1.46-.05a5.93,5.93,0,0,0-4.75,2,8.09,8.09,0,0,0-1.69,5.46,5.49,5.49,0,0,0,1,3.56,3.56,3.56,0,0,0,2.88,1.22,5.09,5.09,0,0,0,2.23-.5,5.73,5.73,0,0,0,1.84-1.42,6.75,6.75,0,0,0,1.24-2.16,8.22,8.22,0,0,0,.45-2.8Z"/><path class="cls-1" d="M92.09,29.28c-.52-.11-.92-.18-1.22-.22a7.46,7.46,0,0,0-1-.06,5.67,5.67,0,0,0-4.8,2.17q-1.63,2.16-1.63,6.45v9.25H76.06v-16q0-1.37,0-2.37c0-.67-.07-1.29-.14-1.87s-.18-1.15-.3-1.71-.31-1.21-.53-1.93h7c.12.45.22.84.32,1.16a7.32,7.32,0,0,1,.2.92c0,.28.07.58.11.91a9.58,9.58,0,0,1,.06,1.16,12.58,12.58,0,0,1,3.16-3.61,6,6,0,0,1,3.52-1.05,4.83,4.83,0,0,1,1.3.14,10.55,10.55,0,0,1,1.47.54Z"/><path class="cls-1" d="M113.57,29.28c-.52-.11-.93-.18-1.22-.22a7.57,7.57,0,0,0-1-.06,5.65,5.65,0,0,0-4.8,2.17q-1.64,2.16-1.64,6.45v9.25H97.53v-16q0-1.37,0-2.37a17.6,17.6,0,0,0-.14-1.87,16.07,16.07,0,0,0-.3-1.71c-.13-.56-.31-1.21-.53-1.93h7c.11.45.22.84.31,1.16a4.93,4.93,0,0,1,.2.92c0,.28.08.58.12.91a9.58,9.58,0,0,1,.06,1.16,12.42,12.42,0,0,1,3.15-3.61,6.06,6.06,0,0,1,3.52-1.05,4.91,4.91,0,0,1,1.31.14,11,11,0,0,1,1.47.54Z"/><path class="cls-1" d="M141.2,34.59a14,14,0,0,1-.91,5.25,10.37,10.37,0,0,1-2.6,3.84,11.05,11.05,0,0,1-4,2.38,17.22,17.22,0,0,1-10.44,0,11.05,11.05,0,0,1-4-2.38,10.69,10.69,0,0,1-2.63-3.84,13.62,13.62,0,0,1-.94-5.25,13.72,13.72,0,0,1,.91-5.13,10.45,10.45,0,0,1,6.61-6.19,16.33,16.33,0,0,1,5.3-.81,16.53,16.53,0,0,1,5.22.78,11,11,0,0,1,4,2.33,10.18,10.18,0,0,1,2.6,3.81A13.88,13.88,0,0,1,141.2,34.59Zm-7.38,0a5.51,5.51,0,0,0-1.49-4.12,5.43,5.43,0,0,0-4-1.47,5.13,5.13,0,0,0-4,1.47A5.8,5.8,0,0,0,123,34.59a6.12,6.12,0,0,0,1.35,4.24,5.05,5.05,0,0,0,4,1.49,5.4,5.4,0,0,0,4.06-1.47A5.84,5.84,0,0,0,133.82,34.59Z"/><path class="cls-1" d="M148.47,46.87V27.73h-4.88V22.46h4.88V16.3h7.27v6.16H162v5.27h-6.27V46.87Z"/><path class="cls-1" d="M184,40.1a7,7,0,0,1-2.35,5.55,9.72,9.72,0,0,1-6.61,2.05,27.64,27.64,0,0,1-5.63-.55,16.44,16.44,0,0,1-4.44-1.5L166,40a18.89,18.89,0,0,0,8.44,2.5,2.4,2.4,0,0,0,1.74-.53,1.65,1.65,0,0,0,.53-1.19,2.1,2.1,0,0,0-.42-1.36,6.29,6.29,0,0,0-2-1.31,32.79,32.79,0,0,1-3.91-2A13.39,13.39,0,0,1,167.64,34a7.06,7.06,0,0,1-1.49-2.31,7.52,7.52,0,0,1-.48-2.77,6.25,6.25,0,0,1,2.69-5.41,11.77,11.77,0,0,1,7-1.92,21.53,21.53,0,0,1,4.13.36,20,20,0,0,1,4.15,1.42l-.89,5.6a13,13,0,0,0-3.82-1.52,16.89,16.89,0,0,0-3.64-.42,2.55,2.55,0,0,0-1.77.47,1.68,1.68,0,0,0-.48,1.25,1.86,1.86,0,0,0,.76,1.53,15.4,15.4,0,0,0,3,1.52,35.43,35.43,0,0,1,3.37,1.92,12.4,12.4,0,0,1,2.27,1.88,6,6,0,0,1,1.26,2.06A7.3,7.3,0,0,1,184,40.1Z"/></svg>