<svg id="Layer_1" data-name="Layer 1" xmlns="http://www.w3.org/2000/svg" viewBox="0 0 207 85.79"><defs><style>.cls-1{fill:#72331d;}</style></defs><path class="cls-1" d="M77.3,47.12a14.7,14.7,0,0,1-.87,5.18,10.86,10.86,0,0,1-6.32,6.51,13.43,13.43,0,0,1-5,.9,25.35,25.35,0,0,1-5-.52,22.6,22.6,0,0,1-4.7-1.42V25.42h6.65V40.27a7.89,7.89,0,0,1,2.85-1.92,10,10,0,0,1,3.63-.64,9.47,9.47,0,0,1,3.58.67,7.74,7.74,0,0,1,2.78,1.9,8.65,8.65,0,0,1,1.78,3A11.3,11.3,0,0,1,77.3,47.12Zm-6.65,1.21a4.39,4.39,0,0,0-1-3.06,3.61,3.61,0,0,0-2.82-1.11,4.79,4.79,0,0,0-2,.41,4.7,4.7,0,0,0-2.48,2.72,5.7,5.7,0,0,0-.32,1.9V53a6.2,6.2,0,0,0,1.57.59,9.93,9.93,0,0,0,1.82.13,5.16,5.16,0,0,0,3.86-1.42A5.42,5.42,0,0,0,70.65,48.33Z"/><path class="cls-1" d="M102.65,43.76a5.66,5.66,0,0,1-.89,3.1,7.38,7.38,0,0,1-2.51,2.38,13.67,13.67,0,0,1-3.89,1.52,21.61,21.61,0,0,1-5.1.55c-.17,0-.37,0-.6,0s-.5,0-.81,0a4.58,4.58,0,0,0,1.5,3,4.72,4.72,0,0,0,3.23,1.07A14.82,14.82,0,0,0,101,53.06v5.25a14.3,14.3,0,0,1-3.62,1.58,15.13,15.13,0,0,1-3.93.47,12.87,12.87,0,0,1-4.52-.75,9.11,9.11,0,0,1-3.43-2.17A9.72,9.72,0,0,1,83.3,54a12.56,12.56,0,0,1-.75-4.48,14,14,0,0,1,.87-5,11.81,11.81,0,0,1,2.46-3.93,10.66,10.66,0,0,1,3.77-2.55,12.69,12.69,0,0,1,4.85-.9,9.11,9.11,0,0,1,5.92,1.8A5.85,5.85,0,0,1,102.65,43.76Zm-6.65.5a1.73,1.73,0,0,0-.69-1.37,2.59,2.59,0,0,0-1.72-.58,4,4,0,0,0-2.85,1.18,5.56,5.56,0,0,0-1.54,3.22,3.92,3.92,0,0,0,.8.1h.74C94.24,46.81,96,46,96,44.26Z"/><path class="cls-1" d="M123.5,59.71a7.46,7.46,0,0,0-.06-.85c0-.26-.06-.58-.07-1s-.05-.75-.08-1.15A7.83,7.83,0,0,1,120,59.34a10.61,10.61,0,0,1-4.26.87,7.91,7.91,0,0,1-6.39-2.7c-1.52-1.8-2.28-4.36-2.28-7.7q0-6,3.67-9.32t10.47-3.28c.75,0,1.42,0,2,0s1.22.1,1.82.18,1.24.19,1.88.32,1.35.32,2.13.55v14.2c0,.77,0,1.58.05,2.43s.08,1.62.15,2.32.13,1.65.2,2.45Zm-1-16.3a11.62,11.62,0,0,0-1.58-.25c-.47,0-.91,0-1.32,0a5.33,5.33,0,0,0-4.27,1.78,7.28,7.28,0,0,0-1.53,4.92,4.83,4.83,0,0,0,.92,3.2,3.16,3.16,0,0,0,2.59,1.1,4.62,4.62,0,0,0,2-.45,4.94,4.94,0,0,0,1.65-1.27,6,6,0,0,0,1.12-2,7.42,7.42,0,0,0,.41-2.53Z"/><path class="cls-1" d="M151.5,43.86c-.47-.1-.83-.16-1.1-.2a8.12,8.12,0,0,0-.9,0,5.09,5.09,0,0,0-4.33,2,9.57,9.57,0,0,0-1.47,5.81v8.33h-6.65V45.27q0-1.22,0-2.13a14.42,14.42,0,0,0-.12-1.68,15.68,15.68,0,0,0-.28-1.55c-.11-.5-.27-1.08-.47-1.73h6.31c.1.41.2.76.29,1a7.2,7.2,0,0,1,.18.82c0,.25.06.53.1.82a10.26,10.26,0,0,1,.05,1.05,11.49,11.49,0,0,1,2.84-3.26,5.5,5.5,0,0,1,3.18-.95,4.73,4.73,0,0,1,1.17.13,12.05,12.05,0,0,1,1.33.49Z"/></svg>