<svg id="Layer_1" data-name="Layer 1" xmlns="http://www.w3.org/2000/svg" viewBox="0 0 207 85.79"><defs><style>.cls-1{fill:#72331d;}</style></defs><path class="cls-1" d="M55,59.59a15.22,15.22,0,0,1-3.58.4,12,12,0,0,1-4.4-.78A10.91,10.91,0,0,1,43.53,57a9.32,9.32,0,0,1-2.28-3.35,11.41,11.41,0,0,1-.8-4.34,13.79,13.79,0,0,1,.73-4.58,9.34,9.34,0,0,1,2.2-3.6A10.15,10.15,0,0,1,47,38.83,14,14,0,0,1,52.1,38a11.65,11.65,0,0,1,3.83.53,14.09,14.09,0,0,1,2.47,1.12l-1.15,5.75c-.5-.23-.92-.44-1.27-.62a10.45,10.45,0,0,0-1-.45,4.75,4.75,0,0,0-1-.25A10.93,10.93,0,0,0,52.55,44a5.17,5.17,0,0,0-3.85,1.37A5,5,0,0,0,47.35,49a4.9,4.9,0,0,0,1.4,3.71,5.59,5.59,0,0,0,4,1.34,11.08,11.08,0,0,0,2.6-.3,14.46,14.46,0,0,0,2.65-.95l.45,5.44A17.6,17.6,0,0,1,55,59.59Z"/><path class="cls-1" d="M79.25,60a7.46,7.46,0,0,0-.06-.85c0-.26-.06-.58-.07-1S79.07,57.44,79,57a7.83,7.83,0,0,1-3.26,2.58,10.61,10.61,0,0,1-4.26.87,7.91,7.91,0,0,1-6.39-2.7c-1.52-1.8-2.28-4.36-2.28-7.7q0-6,3.67-9.32C69,38.59,72.46,37.49,77,37.49c.75,0,1.42,0,2,0s1.22.1,1.83.18,1.23.19,1.87.32,1.35.32,2.13.55v14.2c0,.77,0,1.58.05,2.43s.08,1.62.15,2.32.13,1.65.2,2.45Zm-1-16.3a11.62,11.62,0,0,0-1.58-.25c-.47,0-.91,0-1.32,0A5.33,5.33,0,0,0,71,45.17a7.28,7.28,0,0,0-1.53,4.92,4.88,4.88,0,0,0,.92,3.2A3.16,3.16,0,0,0,73,54.39a4.62,4.62,0,0,0,2-.45,4.94,4.94,0,0,0,1.65-1.27,6,6,0,0,0,1.12-2,7.42,7.42,0,0,0,.41-2.53Z"/><path class="cls-1" d="M120.75,60V49.12A7.15,7.15,0,0,0,119.9,45a2.68,2.68,0,0,0-2.28-1.14,3.4,3.4,0,0,0-1.49.36,3.86,3.86,0,0,0-1.36,1.16,6.2,6.2,0,0,0-1,2.19A13.28,13.28,0,0,0,113.4,51v9h-6.65V49.12a7.89,7.89,0,0,0-.77-4,2.8,2.8,0,0,0-2.58-1.26,3.63,3.63,0,0,0-3,1.69C99.62,46.7,99.2,48.52,99.2,51v9H92.55V46.18c0-.81,0-1.54,0-2.21a17.26,17.26,0,0,0-.18-1.86,15.49,15.49,0,0,0-.34-1.7c-.16-.55-.33-1.13-.53-1.74H98.1c.17.51.29.9.38,1.16s.17.63.27,1.11a15.61,15.61,0,0,1,3.46-2.12,11.23,11.23,0,0,1,4.56-.83,7.7,7.7,0,0,1,3.42.73,5,5,0,0,1,2.25,2,7.5,7.5,0,0,1,3.35-2.05,14.08,14.08,0,0,1,4.31-.7,7.15,7.15,0,0,1,5.4,2,8.06,8.06,0,0,1,1.9,5.78V60Z"/><path class="cls-1" d="M154.4,44a5.66,5.66,0,0,1-.89,3.1A7.38,7.38,0,0,1,151,49.52,13.67,13.67,0,0,1,147.11,51a21.61,21.61,0,0,1-5.1.55c-.17,0-.37,0-.6,0s-.5,0-.81,0a4.58,4.58,0,0,0,1.5,3,4.72,4.72,0,0,0,3.23,1.07,14.82,14.82,0,0,0,7.37-2.25v5.25a14.2,14.2,0,0,1-3.63,1.58,15.43,15.43,0,0,1-3.92.47,13,13,0,0,1-4.53-.75,9.15,9.15,0,0,1-3.42-2.17,9.72,9.72,0,0,1-2.15-3.4,12.56,12.56,0,0,1-.75-4.48,14,14,0,0,1,.87-5,11.78,11.78,0,0,1,2.45-3.93,10.79,10.79,0,0,1,3.78-2.55,12.69,12.69,0,0,1,4.85-.9,9.11,9.11,0,0,1,5.92,1.8A5.85,5.85,0,0,1,154.4,44Zm-6.65.5a1.73,1.73,0,0,0-.69-1.37,2.59,2.59,0,0,0-1.72-.58,4,4,0,0,0-2.86,1.18A5.61,5.61,0,0,0,141,47a3.92,3.92,0,0,0,.79.1h.74Q147.75,47.09,147.75,44.54Z"/><path class="cls-1" d="M159.9,60V25.14h6.65V60Z"/></svg>