<?xml version="1.0" encoding="utf-8"?>
<!-- Generator: Adobe Illustrator 25.4.2, SVG Export Plug-In . SVG Version: 6.00 Build 0)  -->
<svg version="1.1" id="Layer_1" xmlns="http://www.w3.org/2000/svg" xmlns:xlink="http://www.w3.org/1999/xlink" x="0px" y="0px"
	 viewBox="0 0 692.2 490" style="enable-background:new 0 0 692.2 490;" xml:space="preserve">
<style type="text/css">
	.st0{opacity:0.25;enable-background:new    ;}
	.st1{fill:#AB7137;}
	.st2{fill:#664320;}
	.st3{fill:#EFA759;}
	.st4{fill:#6D4526;}
	.st5{fill:#8D5F38;}
	.st6{fill:#75471C;}
	.st7{fill:#44260E;}
	.st8{fill:#020202;}
	.st9{fill:#F6F5F4;}
	.st10{opacity:0.69;fill:#664320;enable-background:new    ;}
	.st11{fill:#B67E4B;}
	.st12{fill:#C69144;}
	.st13{fill:#1E1D1B;}
	.st14{fill:none;stroke:#8B6239;stroke-miterlimit:10;}
</style>
<g>
	<g id="Layer_1_00000148661114538992850120000001553568691122321544_">
		<path class="st0" d="M690.6,453.5c0,19.6-120.1,35.5-268.2,35.5s-268.2-15.9-268.2-35.5S274.2,418,422.4,418
			S690.6,433.9,690.6,453.5z"/>
		<path class="st1" d="M373.5,458.1L373.5,458.1c-0.1,2.9-2.8,8-11,9.9c-4.1,0.8-8.2,1.2-12.3,1.2h-0.1c-9.3,0.2-19.7-0.8-22.9-2.4
			c-2.9-1.5-4-3.5-4-5.6l0,0c0-1.2,0.4-2.5,1-3.5c1.5-2.7,5.8-5.5,13.7-5.2c0.6,0,6.1-3,8.5-3.3c0.6,0.3,3.7-18.6,4.3-21.3
			c0.1-1,0.2-2.1,0.1-3.1v-1.3c0-0.8,0-1.6,0-2.6c0-0.3,0-0.7,0-1s0-0.9,0-1.4c-0.4-11.4-1.7-30.4-4.3-41.1
			c-4.2-11.9-10.6-30.7-11.9-32.3s-0.3-20.7-4.6-38.6c-3.3-14-10.4-31.6-14-39.2c8-4.5,12-8.6,10.3-14c1.1,0.1,2.6,0.1,4.1,0.1h0.7
			c5.9,0,13.6-0.5,17.1-0.5h0.6c0.2,1.3,0.4,2.8,0.6,4.3c1.1,8.1,2.4,18.1,2.5,22.4c0.3,7.9,3.7,28.6,5.5,33.2
			c1.6,4.1,7.2,18.4,7.7,28.7c0,0.3,0,0.6,0,1v0.1c0,0.6,0,1.2-0.1,1.8c-0.7,8-2.9,20.9-3.1,28.9c0,0.5,0,1,0,1.5v0.4
			c0,1.3,0.1,2.6,0.4,3.9c1.5,5.5,3.4,31,4,36.8s1.8,16.1,2.4,20.4c0,0.2,0.1,0.4,0.1,0.7l0,0c0,3.7-3.2,6.5-3.1,10.3l0,0l0,0l0,0
			c0,0.2,0,0.4,0,0.5c0.3,4.3,7,7,7.6,9.4C373.5,457.5,373.5,457.8,373.5,458.1z"/>
		<path class="st2" d="M354.8,422.6v1.3c0,1.1,0,2.1-0.1,3.2c-0.6,2.8-3.7,22-4.4,21.7c-2.5,0.3-8,3.4-8.7,3.4c-1-0.1-2-0.1-3,0
			c1.7-0.7,5.8-2.8,7.8-3.1c0.6,0.3,3.7-18.5,4.3-21.3c0.1-1,0.2-2.1,0.1-3.1v-1.3c0-0.8,0-1.6,0-2.6c0-0.3,0-0.7,0-1s0-0.9,0-1.4
			c-0.4-11.4-1.7-30.4-4.3-41.1c-4.2-11.9-10.6-30.7-11.9-32.2s-0.3-20.7-4.6-38.6c-3.3-14-10.4-31.5-14-39.1c1.5-0.8,2.8-1.6,4-2.4
			c3.8,8.3,10.4,25,13.7,38.6c4.3,18.3,3.4,37.8,4.6,39.4s7.8,20.7,12.1,32.8c2.6,10.9,4,30.3,4.4,41.9c0,0.5,0,1,0,1.4s0,0.7,0,1
			C354.8,421,354.8,421.9,354.8,422.6z"/>
		<path class="st1" d="M653.8,372.4c-0.7,7.4-0.3,38.5,0,47.9s-0.7,10-4.7,15.4s1.3,10,3.3,13c1.8,2.7,1.7,7.1,0.3,8.8l0,0
			c-0.1,0.1-0.2,0.1-0.3,0.2c-2,1-26.8,2-39.8,0c-1.5-0.2-3-0.6-4.4-1c-2.9-0.9-3.9-2.1-3.9-3.5l0,0c0.2-1.4,0.8-2.7,1.8-3.8
			c0.9-1.1,2-2.3,3.1-3.4c0.1-0.1,0.1-0.1,0.2-0.2l0.1-0.1c5.2-4.5,21.4-7.9,23.1-10.2l0,0l0.2-0.2c0.1-0.1,0.2-0.3,0.3-0.4
			c0.2-1.8-0.1-5.8,0.3-8.6l0,0c0.1-0.7,0.3-1.5,0.7-2.1c1.3-2.3,0.1-0.1,2.4-6.7l0.3-0.7c1.1-8.6,1.5-17.3,1.4-26c0,0,0,0,0,0
			c-0.3-16.5-2.6-35.6-8.1-57.6c-15-44.8-37.5-68.9-44.5-77.6c-10-2.4-20.1-9.7-23.4-14.4c-1.8-2.5-6.8-4.6-11.3-6.2l0,0l-0.1,0.4
			l-0.2-0.1c2.5-10.5,7-23.5,11.9-37.4c0.1-0.4,0.3-0.7,0.4-1.1c12.9-9.9,24.1-19.4,24.3-23.1c0.1-4,0-8-0.3-12
			c-0.3-4.3-0.7-9-1.1-13.2c1.3,7.5,2.8,16,4.5,25.8c0.2,1.2,0.4,2.3,0.6,3.5c10.4,58.9,70.3,121.5,69.3,125.2
			S654.5,365,653.8,372.4z"/>
		<path class="st3" d="M587.4,175.8c-0.4,5.4-24.4,23.5-42.7,36.6c-11.2,8.1-20.3,14.1-20.3,14.1l-0.3-0.1
			c-3.3-0.9-6.7-1.3-10.1-1.2c-16.2,0.2-38.6,8-51.9,19.1c-25.4,18.4-53.4,25.4-82.7,25.4c-8.3,0-19.8-1.5-32.1-3.6
			c-6.8-1.2-13.9-2.5-20.8-4c-11.2-2.3-22-4.9-30.3-6.9c-10-2.5-16.6-4.3-16.6-4.5c-0.3-0.1-0.6-0.2-0.9-0.3l0,0
			c-1.4-0.5-2.8-1-4.1-1.7c-1.6-0.8-3.1-1.7-4.6-2.8c-6.2-4.6-8.8-10.1-8.8-11.4c0-1.7-9.6-6.4-11.5-7.5s-32.4,1.7-58.5-9.8
			c-56.6-27.7-75-52.5-90.3-92.9S81.8,80.6,78,77.2c-1.4-1-2.9-1.7-4.6-2.2c-7.2-2.3-20-4.1-26-5.9c-7.7-2.3-17.8-4.6-29.3-0.6
			c-12.7,3.5-6.4-9.2-7-9.2c-12.1,2.3-9.5-6.9-7-9.2c3.9-3.9,7.6-8.2,10.8-12.7c2.9-4.2,7.6-7,12.7-7.5c6.4-0.6,17.2,2.3,23.5-1.2
			c12.7-15,38.4-9,37.5-9.8c-2.6-2.3,3.2-8.1,5.7-8.1c28-4,18.4,13.9,18.4,13.9c7,4.6,7,12.7,7,12.7c12.1,9.2,22.9,65.8,28.6,76.1
			s33.7,32.3,53.4,35.2s29.9-15,34.3-24.2c1.9-19,16.5-36.9,50.9-46.1c34.4-15,26.7-28.3,59.2-56c43.9-36.3,90.9-15.6,110-1.1
			s26.7,39.8,59.8,51.4c63.6,16.7,68.7,63.4,68.7,65.8c0,1.6,1.5,14.7,2.3,25.5C587.4,167.8,587.5,171.8,587.4,175.8z"/>
		<path class="st4" d="M11.1,59.5c5.4,0.3,10.8-0.5,15.9-2.4c2.7-1,5.3-2.4,7.6-4.2c0,0-10.9,11.4-24.4,10.9"/>
		<path class="st5" d="M11.6,42.6c0,0-11.7,11.1,10,4.4c0,0-22.9,8.9-10.9-4.4"/>
		<path class="st1" d="M96,20.4c0,0-1.3-6.5,6.5-5.2s5.2,6.5,5.2,6.5L96,20.4z"/>
		<path class="st6" d="M87.5,32.3c0,0-11.5,15.7-21.9,0c-0.3-0.4,3,0.4,7.5,0.9l0.8,0.1l0,0C78.1,33.7,83.2,33.8,87.5,32.3z"/>
		<path class="st7" d="M75,36c0,1.6-0.7,2.8-1.6,2.8s-1.6-1.3-1.6-2.8c0-1.3,0.5-2.5,1.2-2.8l0.8,0.1l0,0C74.7,34,75.1,35,75,36z"/>
		<ellipse class="st8" cx="73.4" cy="36" rx="0.9" ry="1.7"/>
		<ellipse transform="matrix(0.615 -0.7885 0.7885 0.615 1.1318 71.7578)" class="st9" cx="74" cy="34.7" rx="0.6" ry="0.3"/>
		<path class="st10" d="M269.9,246c-6.2-4.6-8.8-10.1-8.8-11.4c0-1.7-9.6-6.4-11.5-7.5s-32.4,1.7-58.5-9.8
			c-56.6-27.7-75-52.5-90.3-92.9S81.8,80.6,78,77.2c-1.4-1-2.9-1.7-4.6-2.2c0,0,31.8-7.2,38.1-29.1c1.1-1-10.4,145,107.4,165.9
			c2.1,1,29.9,1,39.5-4.1C257.7,209.4,259.3,230.4,269.9,246z"/>
		<path class="st11" d="M524.8,176.8c-0.1,0.1-0.2,0.2-0.3,0.3c-0.2,0.2-0.5,0.5-0.7,0.8l-0.2,0.2c-0.8,0.9-1.7,1.9-2.5,2.9
			c-0.2,0.1-0.3,0.3-0.4,0.5s-0.5,0.6-0.7,0.9s-0.5,0.6-0.7,0.9s-0.5,0.7-0.8,1s-0.5,0.7-0.8,1l-0.8,1.1c-0.3,0.4-0.6,0.8-0.8,1.2
			c0,0.1-0.1,0.1-0.2,0.2c-0.3,0.5-0.6,0.9-1,1.4v0.1c-0.2,0.4-0.5,0.8-0.8,1.2c-0.5,0.8-1,1.6-1.5,2.4c-0.6,1.1-1.3,2.2-1.9,3.4
			c-0.8,1.5-1.6,3-2.3,4.6c-0.3,0.6-0.6,1.3-0.9,1.9l-0.1,0.3c-0.1,0.2-0.2,0.4-0.3,0.7c-0.3,0.7-0.6,1.3-0.9,2
			c-0.1,0.4-0.3,0.7-0.4,1s-0.3,0.7-0.4,1s-0.2,0.7-0.4,1s-0.3,0.7-0.4,1.1c0,0,0,0.1,0,0.1c0,0,0,0.1,0,0.1c0,0.1-0.1,0.2-0.1,0.2
			c-0.2,0.6-0.4,1.2-0.6,1.8c-0.1,0.3-0.2,0.7-0.3,1l-0.1,0.5c0,0.2-0.1,0.4-0.2,0.5c-0.2,0.6-0.3,1.1-0.5,1.7l0,0
			c-0.2,0.6-0.3,1.1-0.5,1.7c-0.1,0.2-0.1,0.5-0.2,0.7s-0.1,0.5-0.2,0.7s-0.1,0.2-0.1,0.3c-0.1,0.5-0.2,1-0.4,1.6
			c-0.1,0.3-0.1,0.5-0.2,0.8s-0.1,0.5-0.2,0.7s-0.1,0.3-0.1,0.5s0,0.3-0.1,0.4l0,0c-0.2,0.8-0.3,1.6-0.4,2.4c0,0.1,0,0.2,0,0.4
			c0,0.1,0,0.1,0,0.2c-0.1,0.3-0.1,0.6-0.1,0.8c-13.7,3-28.3,9.2-38.2,17.2c-26.4,18.5-55.4,25.4-85.8,25.4
			c-8.2,0-19.6-1.4-31.8-3.3l-1.6-0.3c-6.2-1-12.6-2.2-18.9-3.5c0.1-1.1,0-2.3-0.4-3.3c1.3,0.1,2.8,0.1,4.6,0.1l-0.4-0.1l-1.5-0.3
			l-0.3-0.1l0,0c-0.1,0-0.2,0-0.2,0l-0.4-0.1h-0.1l0,0c0,0,2-2.1,4.9-5.7s6.7-8.4,10.6-14.3c0.3-0.4,0.6-0.9,0.9-1.3
			c0.6-1,1.3-2,1.9-3c0.4-0.6,0.8-1.2,1.1-1.9c0.9-1.4,1.7-2.8,2.5-4.3c0.4-0.7,0.8-1.4,1.2-2.1c1.3,1.6,2.3,3.3,3.1,5.1
			c5.4,12.5,116.9,15.6,155.9-39.6C514.3,185.6,519.9,180.7,524.8,176.8z"/>
		<path class="st3" d="M362.3,188.3L362.3,188.3c0,0.2,0.1,0.5,0.1,0.7s0,0.5,0.1,0.7v0.1c0,0.5,0,1,0.1,1.5s0,1,0,1.5s0,0.9,0,1.4
			l0,0c0,1.4-0.2,2.8-0.3,4.3c0,0.3-0.1,0.6-0.1,0.8c0,0.1,0,0.2,0,0.3c0,0.3-0.1,0.6-0.1,0.8s-0.1,0.8-0.2,1.2s-0.1,0.8-0.2,1.2
			l-0.1,0.6c0,0.2-0.1,0.4-0.1,0.6c0,0.1,0,0.2-0.1,0.3c-0.1,0.5-0.2,1-0.4,1.5c0,0.2-0.1,0.4-0.1,0.6l-0.2,0.6
			c-0.2,0.6-0.3,1.2-0.5,1.8c-0.3,1-0.6,1.9-0.9,2.9l-0.6,1.8c-0.1,0.2-0.1,0.4-0.2,0.6c-0.2,0.5-0.4,1-0.6,1.5s-0.3,0.8-0.5,1.1
			l-0.3,0.8c-0.1,0.4-0.3,0.8-0.5,1.1s-0.3,0.8-0.5,1.2c-0.1,0.2-0.2,0.3-0.2,0.5l-0.1,0.1c-0.5,1.2-1,2.3-1.6,3.4c0,0,0,0.1,0,0.1
			l-0.2,0.4c-0.4,0.8-0.8,1.5-1.2,2.3s-0.8,1.5-1.2,2.2c-0.8,1.5-1.6,2.9-2.4,4.3l-1.1,1.9c-0.6,1-1.2,2-1.9,3
			c-0.3,0.4-0.6,0.9-0.8,1.3c-4.5,7-9.5,13.7-15,20h0h0.1l0.4,0.1l0.2,0l0,0l0.3,0.1l1.4,0.3l0.3,0.1c-1.7,0-3.2-0.1-4.4-0.2
			c1.9,5.7-2.4,10.1-10.9,14.9l-0.1-0.3c-0.5,0.3-1,0.5-1.5,0.8c-7.4-2.9-19.7,7.8-22.6,11.3s-44.9,39.4-50.7,46.5
			c-5.7,6.9-8.6,18.1-9.3,29.7c0,0.3,0,0.6-0.1,1c-0.6,12,6.8,57.9,6.8,62.4c0.2,2.6,0.5,5.3,1,7.9c0.3,1.7,0.3,3.5,0.1,5.2
			c-0.1,1.1-0.4,2.1-0.8,3.1c0.3,4.5,3.6,6.1,6.5,9.7c0.9,1.2,1.5,2.5,1.9,4c1,4.2,0.1,10.1-5.8,15.5c-8.1,7.4-13.9,11.3-22.3,12.3
			s-16,2.2-11.8-6.2c0-0.1,0.1-0.2,0.1-0.2c5.8-6.8,12.3-16.2,12.9-18.4c0.8-3,1-6.2,0.6-9.3c-0.2-1.5-0.5-3.1-0.9-4.6
			c-0.8-3.4-1.1-6.9-0.8-10.4c0.1-2,0.4-4.1,0.8-6.1c0,0-0.1-1.6-0.3-4.2c-0.7-8.5-2.2-27.6-3.2-32.4c-1.3-6.1-4.2-23.9-8.1-30.7
			s-5.1-23.8-4.6-27.3c0,0,0-0.1,0-0.1c0.6-3.2,2.9-11,6.1-13.3s38.5-26.8,52.7-63c7.6-12.5,6.8-13.8,6.1-14.1
			c9.6-7.8,35.2-30,47.3-56.4c12.2-26.7,34.5-13.3,45.1,2.1l-0.2-0.1l-0.4-0.2L362.3,188.3L362.3,188.3z"/>
		<path class="st1" d="M321.6,214c-3.7-3-8.6-4.4-13.4-3.6c-21.1,3.2-29.7,27.3-32.3,36.5c-0.1,0.5-0.2,0.9-0.3,1.3
			c0,0.7-0.2,1.5-0.5,2.2v0.1c-1.7,3.9-3.7,7.6-6,11.1c-14.2,36.2-49.5,60.8-52.7,63s-5.5,10-6.1,13.3c0,0,0,0.1,0,0.1
			c-0.6,3.5,0.7,20.6,4.6,27.4s6.8,24.5,8.1,30.7c1,4.7,2.6,23.8,3.2,32.4c0.2,2.6,0.3,4.2,0.3,4.2c-0.4,2-0.6,4-0.8,6.1
			c-0.3,3.5-0.1,7,0.8,10.4c0.4,1.5,0.8,3,1,4.6c0.4,3.1,0.2,6.3-0.6,9.3c-0.6,2.3-7.1,11.6-12.9,18.4l-0.1,0.2
			c-0.4,0.7-0.7,1.5-1,2.3c-4.1-0.1-6.3-1.5-3.6-6.9l0.1-0.2c5.8-6.8,12.3-16.1,12.9-18.4c0.8-3,1-6.2,0.6-9.3
			c-0.2-1.5-0.6-3.1-1-4.6c-0.8-3.4-1.1-6.9-0.8-10.4c0.1-2,0.4-4.1,0.8-6.1c0,0-0.1-1.6-0.3-4.2c-0.7-8.5-2.2-27.6-3.2-32.4
			c-1.3-6.1-4.2-23.9-8.1-30.7s-5.1-23.8-4.6-27.4c0,0,0-0.1,0-0.1c0.6-3.2,2.9-11,6.1-13.3s38.5-26.8,52.7-63
			c2.3-3.5,4.3-7.3,6-11.1v-0.1c0.3-0.7,0.5-1.4,0.5-2.2c0.1-0.4,0.2-0.8,0.3-1.3c2.6-9.2,11.2-33.4,32.3-36.5c1-0.2,2-0.2,3-0.2
			C312.7,205.7,317.6,209.1,321.6,214z"/>
		<path class="st3" d="M577.7,190.1c-6.9,27.1-20.4,58.7-25.4,79.4l0.2,0.1l0,0c0,0.2-0.1,0.4-0.1,0.6c0,0.1-0.1,0.2-0.1,0.2
			c-0.6,2.4-1,4.7-1.3,6.8c-1.6,11.5-4.9,23.8-5.2,40.4c-0.2,13.9,1.4,27.7,4.8,41.2c0.1,0.6,0.3,1.3,0.5,1.9
			c1.5,5.8-11.2,19.1-11.2,20s-43.4,61-52.5,80.5c-1.8,4.9-5.2,5.9-6.9,6.8c-0.6,0.3-1,0.6-1,1.1c0.1,1,0.3,2,0.6,3
			c0.5,2.2,1.1,4.9-0.3,6.1c-2.1,1.8-36.4,1.8-39.2,0.6c-3-1.7-4.2-5.4-2.6-8.5c0.3-0.6,0.7-1.1,1.1-1.5c3.6-3.6,17.3-7.6,21-8.8
			s13.7-7.6,14.6-8.8s24.6-38.2,31.3-56.1s9.7-49.8,9.7-52.8c-0.1-0.3-0.3-0.6-0.4-0.9c-2.4-7.3-2.4-35.1-2.7-39.5
			c-0.3-4.6-7.9-12.8-10.3-17.9s-12.1-18.2-10.9-25.2c0.1-0.4,0.2-0.9,0.3-1.5c1.8-7.3,8.1-21.7,8.7-24.1h-0.1
			c0.1-0.6,0.1-1.2,0.2-1.8c0-0.2,0.1-0.5,0.1-0.7l0.1-1.2c0-0.2,0.1-0.4,0.1-0.6s0-0.3,0.1-0.5c0-0.2,0-0.3,0.1-0.5
			c0-0.1,0-0.1,0-0.2l0.1-0.4c0-0.3,0.1-0.6,0.1-0.8c0-0.1,0-0.1,0-0.2l0-0.4c0.1-0.8,0.3-1.6,0.4-2.3l0,0c0-0.1,0.1-0.3,0.1-0.4
			s0.1-0.3,0.1-0.5s0.1-0.5,0.1-0.7s0.1-0.5,0.2-0.8c0.1-0.5,0.2-1.1,0.4-1.6c0-0.1,0-0.2,0.1-0.3c0.1-0.5,0.2-0.9,0.3-1.4
			s0.3-1.1,0.4-1.7s0.3-1.1,0.5-1.7c0.1-0.4,0.2-0.7,0.3-1.1s0.2-0.7,0.3-1c0.2-0.7,0.4-1.4,0.6-2c0-0.1,0-0.1,0.1-0.2
			c0.2-0.7,0.5-1.4,0.7-2.1s0.5-1.4,0.8-2.1s0.5-1.4,0.8-2c0.1-0.2,0.2-0.4,0.3-0.7s0.1-0.2,0.1-0.3c0.3-0.6,0.5-1.3,0.8-1.9
			c1.6-3.6,3.5-7.1,5.5-10.5c0.2-0.4,0.5-0.8,0.7-1.2c0,0,0,0,0-0.1c0.3-0.5,0.6-1,0.9-1.4c0-0.1,0.1-0.2,0.1-0.2l0.8-1.2l0.7-1.1
			c0.2-0.4,0.5-0.7,0.7-1s0.5-0.7,0.8-1c0.5-0.6,0.9-1.2,1.4-1.8c1-1.2,1.9-2.4,2.8-3.4l0.9-1c0.1-0.1,0.2-0.3,0.3-0.4
			s0.2-0.2,0.3-0.4c0.3-0.4,0.7-0.8,1.1-1.1c0.2-0.2,0.4-0.4,0.6-0.6l0.5-0.5c0.5-0.5,1-1,1.5-1.5l0.5-0.4l0.5-0.4l0.9-0.8
			c0.6-0.5,1.1-1,1.6-1.3l0.3-0.3l0.4-0.3l0.7-0.6l0.5-0.4l0.4-0.3c13-7.1,27.6-10.6,42.4-10C579.4,168.4,579.8,179.5,577.7,190.1z"
			/>
		<path class="st1" d="M576.5,157.7c-12,1-23.6,4.4-34.3,10c-0.1,0.1-0.3,0.2-0.4,0.3l-0.6,0.4c-0.2,0.2-0.5,0.4-0.8,0.6l-0.4,0.3
			l-0.4,0.3c-0.5,0.4-1,0.9-1.6,1.3l-0.9,0.8l-0.5,0.4l-0.5,0.5c-0.5,0.4-1,1-1.6,1.5c-0.2,0.2-0.4,0.4-0.5,0.5l-0.6,0.6l-1.1,1.1
			c-0.1,0.1-0.2,0.3-0.4,0.4l-0.3,0.4c-0.3,0.3-0.6,0.7-0.9,1c-1,1.1-2,2.2-3,3.4c-0.5,0.6-1,1.2-1.5,1.9l-0.8,1l-0.8,1
			c-0.2,0.4-0.5,0.7-0.8,1.1s-0.6,0.8-0.8,1.2c-0.1,0.1-0.1,0.2-0.2,0.2c-0.3,0.5-0.6,1-1,1.4c0,0,0,0,0,0.1
			c-0.2,0.4-0.5,0.8-0.8,1.2c-2.1,3.4-4.1,7-5.8,10.6c-0.3,0.6-0.6,1.3-0.9,1.9c0,0.1-0.1,0.2-0.1,0.3c-0.1,0.2-0.2,0.5-0.3,0.7
			c-0.3,0.7-0.6,1.4-0.8,2s-0.5,1.4-0.8,2.1s-0.5,1.4-0.8,2.1c0,0.1-0.1,0.1-0.1,0.2c-0.2,0.7-0.5,1.4-0.7,2.1
			c-0.1,0.4-0.2,0.7-0.3,1.1s-0.2,0.7-0.3,1.1c-0.2,0.6-0.3,1.1-0.5,1.7s-0.3,1.1-0.5,1.7s-0.2,0.9-0.4,1.4c0,0.1,0,0.2-0.1,0.3
			c-0.1,0.5-0.2,1.1-0.4,1.6l-0.2,0.8l-0.1,0.7c0,0.1-0.1,0.3-0.1,0.5s-0.1,0.3-0.1,0.4l0,0c-0.2,0.8-0.3,1.6-0.4,2.4
			c0,0.1,0,0.2,0,0.4v0.2c0,0.3-0.1,0.6-0.1,0.8c0,0.1,0,0.2-0.1,0.4c0,0.1,0,0.1,0,0.2c0,0.2,0,0.3-0.1,0.5s0,0.3-0.1,0.5
			s-0.1,0.4-0.1,0.6c-0.1,0.4-0.1,0.8-0.2,1.2c0,0.2,0,0.5-0.1,0.7c-0.1,0.6-0.2,1.2-0.2,1.8h0.1c-0.7,2.4-7.3,17-9.1,24.4
			c-0.1,0.5-0.2,1-0.3,1.5c-1.3,7.1,8.9,20.3,11.4,25.5s10.4,13.5,10.8,18.1c0.3,4.4,0.3,32.5,2.8,40c0.1,0.3,0.2,0.6,0.4,0.9
			c0,3.1-3.2,35.4-10.1,53.5s-31.7,55.7-32.6,56.9s-11.4,7.7-15.2,8.9s-18,5.2-21.8,8.9c-0.5,0.4-0.9,1-1.2,1.5
			c-0.8,1.5-1,3.3-0.4,5c-0.3,0-0.6-0.1-0.9-0.2c-3-1.7-4.2-5.4-2.6-8.5c0.3-0.6,0.7-1.1,1.1-1.5c3.6-3.6,17.3-7.6,20.9-8.8
			s13.7-7.6,14.6-8.8s24.5-38.2,31.2-56.1s9.7-49.8,9.7-52.8c-0.1-0.3-0.3-0.6-0.4-0.9c-2.4-7.3-2.4-35.1-2.7-39.5
			c-0.3-4.6-7.9-12.8-10.3-17.9s-12.1-18.2-10.9-25.2c0.1-0.4,0.2-0.9,0.3-1.4c1.8-7.3,8.1-21.7,8.8-24.1h-0.1
			c0.1-0.6,0.1-1.2,0.2-1.8c0-0.2,0.1-0.5,0.1-0.7c0-0.4,0.1-0.8,0.1-1.2c0-0.2,0.1-0.4,0.1-0.6s0-0.3,0.1-0.5s0-0.3,0.1-0.5
			c0-0.1,0-0.1,0-0.2c0-0.1,0-0.3,0.1-0.4c0-0.3,0.1-0.6,0.1-0.8c0-0.1,0-0.1,0-0.2c0-0.1,0-0.2,0-0.4c0.1-0.8,0.3-1.6,0.4-2.4l0,0
			c0,0,0-0.3,0.1-0.4c0-0.2,0.1-0.3,0.1-0.5c0-0.2,0.1-0.5,0.2-0.7s0.1-0.5,0.1-0.8c0.1-0.5,0.2-1.1,0.3-1.6c0-0.1,0-0.2,0.1-0.3
			c0.1-0.5,0.2-0.9,0.3-1.4s0.3-1.1,0.4-1.7s0.3-1.1,0.5-1.7c0.1-0.4,0.2-0.7,0.3-1.1s0.2-0.7,0.3-1c0.2-0.7,0.4-1.4,0.6-2l0.1-0.3
			c0.2-0.7,0.5-1.4,0.7-2.1s0.5-1.4,0.8-2.1s0.5-1.4,0.8-2l0.3-0.7l0.1-0.3c0.3-0.6,0.5-1.3,0.8-1.9c1.6-3.6,3.5-7.1,5.5-10.5
			c0.2-0.4,0.5-0.8,0.7-1.2c0,0,0,0,0-0.1c0.3-0.5,0.6-0.9,0.9-1.4c0-0.1,0.1-0.2,0.1-0.2c0.3-0.4,0.5-0.8,0.8-1.2s0.5-0.7,0.7-1.1
			s0.5-0.7,0.7-1s0.5-0.7,0.8-1c0.5-0.6,0.9-1.3,1.4-1.8c1-1.2,1.9-2.3,2.8-3.4c0.3-0.3,0.6-0.7,0.9-1l0.3-0.4
			c0.1-0.1,0.2-0.2,0.3-0.4l1.1-1.1c0.2-0.2,0.4-0.4,0.6-0.6s0.3-0.4,0.5-0.5c0.5-0.5,1-1,1.5-1.5l0.5-0.4c0.2-0.2,0.3-0.3,0.5-0.4
			s0.6-0.6,0.9-0.8c0.6-0.5,1.1-1,1.6-1.3l0.3-0.3l0.4-0.3l0.7-0.6l0.5-0.4l0.4-0.3C547.1,160.7,561.7,157.2,576.5,157.7z"/>
		<path class="st12" d="M622.6,207.6v0.2c0,4.9-0.4,9.8-1.2,14.6c-0.3-0.6-0.6-1.1-1-1.5l-0.4-0.3h-0.1c-1.7,0.2-3.2,0.4-4.7,0.6
			c1.2-22.1-0.3-53.4-29.6-84.1c-1-1.1-0.8-1.9-1.9-3l0,0c-1.3-4.2-0.5-3.4-2.3-7.4c6.1,6.6,0.3-0.8,0.4-0.7
			c0.3,0.3-0.5-1.6-0.2-1.3c1.2,1-2.5-2.8-1.1-1.4l0,0c8.4,7.9,21.2,21.3,30.4,39l0.8,1.5c0.4,0.8,0.8,1.6,1.2,2.4l0,0
			C619.2,179.1,622.5,193.2,622.6,207.6z"/>
		<path class="st1" d="M622.6,207.6v0.2c0,4.9-0.4,9.8-1.2,14.6c-0.3-0.6-0.6-1.1-1-1.5l-0.4-0.3c5.2-46.4-22.4-78-38.2-93l-0.3-1
			l-0.9-2.6c-0.7-1.8,0.7,0.9,0-0.9c0.3,0.3,4.2,3.9,0.2,0.2c1.2,1-1.7-1.6-0.2-0.2l0,0c8.4,7.9,21.2,21.3,30.4,39l0.8,1.5
			c0.4,0.8,0.8,1.6,1.2,2.4l0,0C619.1,179.1,622.5,193.2,622.6,207.6z"/>
		<path class="st13" d="M620.3,256.8c-2.1,1.7-4,3.7-5.7,5.9l-0.4,0.6c-3.9,5.6-4.1,13.1-0.4,18.9c-7-10.1-27.5-42.5-12.4-57.8
			c0.1-0.2,0.3-0.3,0.5-0.4c3.3-3.2,8.2-5.5,15.2-6.8c1.5-0.3,3.1-0.5,4.7-0.6l0.5,0.4c0.4,0.5,0.7,1,1,1.5
			C626.7,224.1,635.5,244.4,620.3,256.8z"/>
		<path class="st14" d="M660.2,303.1c0.6-2.1-17.8-22.4-36-50.2c9.6-12.4,2.2-29.4-0.8-34.5c-0.3-0.6-0.6-1.1-1-1.5l-0.2-0.1
			c0.3-3,0.5-5.9,0.5-8.8v-0.2c-0.1-14.4-3.4-28.6-9.7-41.5l0,0c-0.4-0.8-0.8-1.6-1.2-2.4l-0.8-1.5c-9-17.4-21.4-30.6-29.9-38.5
			c-6.3-15.8-22.7-40.1-64.9-51.2c-33.1-11.5-40.7-36.9-59.8-51.4s-66.1-35.2-110,1.1c-32.4,27.7-24.8,41-59.2,56
			c-34.3,9.2-48.9,27.1-50.9,46.1c-4.4,9.2-14.6,27.1-34.3,24.2s-47.7-24.8-53.4-35.2s-16.6-67-28.7-76.2c0,0,0-8.1-7-12.7
			c0,0,9.5-17.9-18.4-13.9c-2.5,0-8.3,5.8-5.7,8.1c0.9,0.8-24.8-5.2-37.5,9.8c-6.4,3.5-17.2,0.6-23.5,1.2c-5.1,0.5-9.8,3.3-12.7,7.5
			c-0.8,1.2-2.3,3.2-4,5.2h-0.3c-1,1.1-1.9,2.2-2.7,3.4c-1.5,1.7-2.9,3.2-3.8,4c-2.5,2.3-5.1,11.5,7,9.2c0.1,0,0.1,0.1,0,0.3h-0.1
			l-0.4,1.8c-0.2,0.8-0.4,1.7-0.5,2.5l0,0l0,0c-0.4,3.2,0.6,6.6,8,4.6c11.4-4,21.6-1.7,29.3,0.6c5.9,1.8,18.7,3.6,26,5.9
			c1.6,0.4,3.2,1.2,4.5,2.2c3.8,3.4,7.6,6.9,22.9,47.3s33.7,65.2,90.3,92.9c26.1,11.5,56.6,8.6,58.5,9.8s11.5,5.8,11.5,7.5
			c0,1.2,2.5,6.8,8.8,11.4l0.4,0.3l-0.1,0.2c-0.1,0.1-0.1,0.3-0.2,0.4c-0.6,1.5-1.7,3.5-3.3,6.2l0,0c-0.3,0.5-0.6,1.1-1,1.7
			l-0.3,0.5l-0.6,1l-0.4,0.7c-5.7,14.5-14.7,27-23.7,37.1c-8.7,9.7-18.4,18.4-29,25.9c-0.2,0.1-0.4,0.3-0.6,0.5
			c-1.9,1.8-3.4,5.3-4.4,8.4c-0.5,1.4-0.9,2.9-1.2,4.4c0,0,0,0.1,0,0.1c0,0.3-0.1,0.5-0.1,0.8c-0.3,4.2,0.8,17.1,3.6,24.3
			c0.3,0.8,0.7,1.6,1.1,2.3c1.1,2.1,2,4.2,2.6,6.5c1.8,6.3,3.3,12.6,4.4,19c0.4,2.1,0.8,4,1,5.2c1,4.7,2.6,23.8,3.2,32.4
			c0.1,1.1,0.1,1.9,0.2,2.6c0.1,1,0.1,1.5,0.1,1.5s-0.1,0.8-0.3,2c-0.1,1-0.3,2.3-0.4,3.7c0,0.1,0,0.2,0,0.3
			c-0.3,3.5-0.1,7,0.8,10.4c0.1,0.5,0.3,0.9,0.4,1.4c0.2,0.7,0.3,1.4,0.4,2.1c0.1,0.4,0.1,0.7,0.1,1.1c0.4,3.1,0.2,6.3-0.6,9.3
			c-0.6,2.3-7.1,11.6-12.9,18.4v0.1c0,0.1-0.1,0.1-0.1,0.2c-0.2,0.4-0.4,0.9-0.6,1.3c0,0.1-0.1,0.2-0.1,0.3l-0.1,0.4
			c0,0.1-0.1,0.2-0.1,0.4s-0.1,0.2-0.1,0.3s-0.1,0.4-0.1,0.6c0,0.1,0,0.1,0,0.2c0,0.1,0,0.3,0,0.4c0,0.1,0,0.1,0,0.2
			c0,0.1,0,0.2,0,0.4c0,0,0,0.1,0,0.1c0.1,0.3,0.2,0.6,0.4,0.8l0.1,0.1c0.1,0.1,0.1,0.2,0.2,0.3l0.1,0.1c0.1,0.1,0.2,0.2,0.4,0.3
			l0,0c2.1,1.4,6.9,0.7,11.8,0.1c8.4-1,14.2-4.9,22.3-12.3c5.9-5.4,6.8-11.3,5.8-15.5c-0.3-1.4-1-2.8-1.9-4
			c-2.9-3.5-6.1-5.2-6.5-9.7c0.4-1,0.7-2,0.8-3.1c0.2-1.7,0.1-3.5-0.1-5.2c-0.5-2.6-0.8-5.2-1-7.9c0-4.5-7.4-50.4-6.8-62.4
			c0-0.3,0-0.6,0.1-1c0.7-11.6,3.6-22.8,9.3-29.7c5.8-7.1,47.8-43,50.7-46.5s15.2-14.2,22.6-11.3c0.5-0.3,1-0.5,1.5-0.8l0.1,0.3
			l1-0.6c3.7,8.8,8.6,21.9,11.2,32.8c4.3,17.9,3.4,37.1,4.6,38.6s7.6,20.4,11.9,32.2c2.6,10.7,3.9,29.7,4.3,41.1c0,0.5,0,1,0,1.4
			l0,0c0,0.3,0,0.7,0,1c0,0.6,0,1.1,0,1.7v2.2c0,1.1,0,2-0.1,2.6c0,0.2,0,0.4-0.1,0.5c-0.4,1.6-1.5,8.5-2.5,14
			c-0.8,4.1-1.5,7.4-1.7,7.3c-0.1,0-0.1,0-0.2,0c-0.2,0-0.3,0.1-0.5,0.1l-0.3,0.1c-0.2,0.1-0.5,0.1-0.7,0.2l-0.3,0.1l-0.8,0.3
			l-0.1,0l-1,0.5l0,0c-1.2,0.5-2.4,1.1-3.3,1.5l-0.1,0.1c-0.4,0.2-0.7,0.3-1.1,0.4c-7.9-0.3-12.2,2.4-13.7,5.2c-0.6,1.1-1,2.3-1,3.5
			l0,0c0.1,2,1.1,4.1,4,5.6c3.2,1.6,13.6,2.6,22.9,2.4h0.1c4.2,0,8.3-0.3,12.4-1.1c8.3-1.9,11-7,11-9.9l0,0c0-0.2,0-0.5-0.1-0.7
			c-0.6-2.4-7.3-5.2-7.6-9.4c0-0.2,0-0.4,0-0.5l0,0l0,0l0,0c-0.1-3.8,3.1-6.6,3.1-10.3l0,0c0-0.2,0-0.4-0.1-0.7
			c-0.6-4.3-1.8-14.6-2.4-20.4s-2.4-31.3-4-36.8c-0.3-1.3-0.4-2.6-0.4-3.9V375c0-0.5,0-1,0-1.5c0.2-8,2.4-20.9,3.1-28.9
			c0-0.6,0.1-1.2,0.1-1.8v-0.1c0-0.3,0-0.7,0-1c-0.4-10.4-6-24.6-7.7-28.7c-1.8-4.6-5.2-25.3-5.5-33.2c-0.1-2.6-0.6-7.2-1.2-12.2
			c8.4,1.4,17,2.2,25.5,2.4h1.8h1.2c27.8,0,54.5-6.3,79-22.8c1.3-0.8,2.6-1.7,3.9-2.6c9.8-8,24.5-14.2,38.2-17.2c0-0.1,0-0.2,0-0.3
			l0.5-0.1c0,0.1,0,0.3-0.1,0.4c0,0.1,0,0.2,0,0.3c0,0,0,0,0,0.1c0,0.1,0,0.1,0,0.2c0,0.2,0,0.3-0.1,0.5s0,0.1,0,0.1s0,0.3,0,0.4
			s0,0.2,0,0.3s0,0.2,0,0.4c-0.1,0.4-0.1,0.8-0.1,1.2l0,0c0,0.2,0,0.5-0.1,0.7c-0.1,0.6-0.1,1.2-0.2,1.8h0.1c-0.3,1.2-2,5.2-3.8,9.9
			c-1.4,3.5-2.8,7.3-3.9,10.6c-0.4,1.3-0.8,2.5-1,3.6c-0.1,0.5-0.2,1-0.3,1.5c-0.9,5,3.9,13.2,7.5,19.3c1.4,2.4,2.7,4.5,3.4,5.9
			c1.9,4,6.9,9.8,9.1,14.4c0.6,1.1,1,2.3,1.2,3.5c0.2,2.3,0.2,11,0.6,19.9c0.3,7.5,0.9,15.1,1.8,18.9c0.1,0.3,0.1,0.5,0.2,0.8
			c0.1,0.3,0.2,0.6,0.3,0.8c0,0,0,0.1,0,0.1c0,3-3,34.9-9.7,52.8c-2.5,6.8-7.6,16.5-12.9,25.8c-7.5,13.3-15.5,26-17.8,29.5l-0.6,0.9
			c-0.9,1.2-10.9,7.6-14.6,8.8c-0.8,0.3-2.1,0.7-3.6,1.2c-5.5,1.8-14.5,4.8-17.3,7.6c0,0.1-0.1,0.1-0.1,0.2
			c-0.3,0.3-0.5,0.6-0.7,0.9c-0.1,0.1-0.2,0.3-0.2,0.4c-0.5,0.8-0.7,1.7-0.7,2.7c0,1.5,0.4,2.9,1.3,4.1c0.5,0.8,1.2,1.4,2,1.8l0,0
			c0.3,0.1,0.6,0.2,0.9,0.2l0,0c6.1,1,36.3,0.9,38.2-0.8c1.4-1.2,0.9-3.9,0.3-6.1c-0.3-1-0.5-2-0.6-3c0-0.5,0.4-0.8,1-1.1
			c1.7-0.9,5.1-1.9,6.9-6.8c9.1-19.4,52.5-79.6,52.5-80.5s12.8-14.3,11.2-20c-0.2-0.6-0.3-1.3-0.5-1.9c-3.4-13.5-5-27.3-4.8-41.2
			c0.4-16.6,3.6-28.8,5.2-40.4c0.3-2.1,0.7-4.4,1.3-6.8c0-0.1,0-0.2,0.1-0.2c0-0.2,0.1-0.4,0.1-0.6l0,0l-0.2-0.1
			c2-8.3,5.4-18.3,9.2-29.1c0.2,0.2,0.5,0.5,0.7,0.8c3.3,4.7,13.4,12,23.4,14.4c7,8.7,29.5,32.8,44.5,77.6c5.5,22,7.8,41.1,8.1,57.6
			c0,0,0,0,0,0c0.2,8.7-0.3,17.4-1.4,26l-0.3,0.7c-2.3,6.5-1.1,4.4-2.4,6.7c-0.3,0.7-0.6,1.4-0.7,2.1l0,0c-0.4,2.8-0.1,6.8-0.3,8.6
			c0,0.2-0.1,0.3-0.3,0.4l-0.2,0.2l0,0c-1.7,2.3-17.9,5.7-23.1,10.2l-0.1,0.1c-0.1,0.1-0.1,0.1-0.2,0.2c-1.1,1.2-2.2,2.3-3.1,3.4
			c-1,1-1.7,2.3-1.8,3.8l0,0c0,1.4,1.1,2.5,3.9,3.5c1.4,0.4,2.9,0.8,4.4,1c13,2,37.8,1,39.8,0c0.1-0.1,0.2-0.1,0.3-0.2l0,0
			c1.4-1.7,1.5-6.2-0.3-8.8c-2-3-7.4-7.7-3.3-13s5-6,4.7-15.4s-0.7-40.5,0-47.9S659.2,306.8,660.2,303.1z M590.3,174.4
			c-1.7-9.5-3.1-17.9-4.4-25.2c-0.5-5.6-1-10-1-10.9c0-0.9-0.2-1.8-0.3-2.7c26.8,28.7,31.4,60,30.8,81.8c-3.3,0.7-6.5,1.9-9.5,3.5
			c-6.9-13.9-12.4-28.6-14.9-43C590.7,176.8,590.5,175.6,590.3,174.4L590.3,174.4z"/>
	</g>
</g>
</svg>
