<svg id="Layer_1" data-name="Layer 1" xmlns="http://www.w3.org/2000/svg" viewBox="0 0 537.7 407.62"><defs><style>.cls-1{fill:#1d1a1e;}.cls-2{fill:#91541d;}.cls-3,.cls-8{fill:#54321b;}.cls-21,.cls-22,.cls-3,.cls-9{stroke:#603813;}.cls-14,.cls-16,.cls-21,.cls-22,.cls-3,.cls-9{stroke-miterlimit:10;}.cls-22,.cls-3,.cls-9{stroke-width:0.78px;}.cls-4{fill:#7f4f21;}.cls-5{fill:#a38165;}.cls-6{fill:#603813;}.cls-22,.cls-7{fill:#9b663a;}.cls-13,.cls-14,.cls-21,.cls-9{fill:none;}.cls-10{fill:#44270e;}.cls-11{fill:#dbb08d;}.cls-12{fill:#635343;}.cls-14{stroke:#000;stroke-width:0.3px;}.cls-15{fill:#524429;}.cls-16{fill:#fff8f8;stroke:#754c24;stroke-width:0.39px;}.cls-17{fill:#301111;}.cls-18{fill:#542323;}.cls-19{fill:#e8e3e3;}.cls-20{fill:#c19163;}.cls-21{stroke-width:1.22px;}.cls-23{fill:#c7b99e;}.cls-24{opacity:0.25;}</style></defs><rect class="cls-1" x="497.76" y="137.52" width="16.06" height="14.6"/><path class="cls-2" d="M525.41,134.5c-1.11-1.21-2.8-2-6.18-3.53-1.37-.63-2.59-1.11-3.56-1.47a4.93,4.93,0,0,1-2.3,3.8c-2.41,1.53-5.05-2.18-10.28-1.92-4.23.2-9.17,2.8-9.89,6.14-.67,3.14,2.59,5.18,2.62,8.42,0,2.85-2,6.37-12.78,11.1a9,9,0,0,0,2.65,3.06,9.13,9.13,0,0,0,7.06.87,11.54,11.54,0,0,0,4.42,3.53c3.64,1.67,9,1.76,11.47-.87.15-.16,2.16-2.33,3.53-3.53a3.3,3.3,0,0,1,1.77-.89,3.08,3.08,0,0,1,.88,0,23,23,0,0,0,4.41,0,7.88,7.88,0,0,0,3.53-.88,6.92,6.92,0,0,0,2.65-3.53,22.46,22.46,0,0,0,1.76-8C527.49,140.23,527.66,136.92,525.41,134.5Zm-15.62,16.19a3.69,3.69,0,0,1-3.44-1.59,1.39,1.39,0,0,1-.21-.27,5.75,5.75,0,0,1-5.68-2.9l-.19-.36c-.07-.15-.13-.29-.19-.44a.29.29,0,0,1,0-.1,4,4,0,0,1-.24-.83,5.31,5.31,0,0,1-.09-1c0-.14,0-.27,0-.41s0-.28,0-.42a5.89,5.89,0,0,1,3.66-4.68c0,3.29.95,4.79,1.81,5.56,1.58,1.4,3.49.95,5.44,2.78a7.35,7.35,0,0,1,1.82,2.77A3.88,3.88,0,0,1,509.79,150.69Z"/><path class="cls-3" d="M363,350.75a38.54,38.54,0,0,1,11.47,9.7,3.1,3.1,0,0,1-2.65,2.65,15.32,15.32,0,0,0-1.76-1.76,14.48,14.48,0,0,0-2.65-1.77,8.52,8.52,0,0,0,.88,5.3,22.52,22.52,0,0,1-26.48-5.3,22.62,22.62,0,0,1,1.77-12.35Z"/><path class="cls-2" d="M364.29,351.49c-.12.33-.24.66-.39,1a7.42,7.42,0,0,1-3.1,2.21c-3.76,1.35-5.6-1.91-11.47-1.77-2.23.06-4,.57-5-.57a3.62,3.62,0,0,1-.7-2.51,8.11,8.11,0,0,0-.3-1.95h0c-.83-3-3.17-5.14-4.55-7.32-1.63-2.56-1.6-4.59-1.77-14.12-.41-24.35-.92-28.13-2.65-32.65a66.21,66.21,0,0,1-2.65-7.07c-1.84-6.45-1.65-11.1-1.76-15.88-.16-7.06-1.32-14.32-3.64-28.84,0,0,0-.05,0-.07-.07-.5-.91-5.76-2-12.64l-.06-.38,11.26,4,.51.18.69.25a54.69,54.69,0,0,0,6.69,5.43,7,7,0,0,0,4.13-1.62l6.73,2.38c-.08,1.26-.15,2.49-.22,3.68-.73,12.3-1,20.79-1.1,26.77-.08,4.72,0,7-.89,10.59-1.43,6-3.76,8.56-4.4,15a33.56,33.56,0,0,0,0,6.18c1.38,23.8,2.1,31.39,6.18,36.19a30.24,30.24,0,0,0,4.4,4.41c3.17,2.34,5.2,2.44,6.18,4.41C364.78,347.67,365.09,349.12,364.29,351.49Z"/><path class="cls-4" d="M165.48,235.75a49.7,49.7,0,0,1-13.54,13.94,41.23,41.23,0,0,1-4.53,2.67c-.74.4-1.51.76-2.3,1.1a39.39,39.39,0,0,1-4.32,1.62l-.3.1a43.86,43.86,0,0,1-6,1.35c-1.66.25-3.22.39-4.63.46-.55,0-1.08,0-1.58,0a40.67,40.67,0,0,1-4.53-.16l-.43,0a44.74,44.74,0,0,1-9.57-2,44.11,44.11,0,0,1-6-2.39,20.61,20.61,0,0,0,1-4.31c.42-3.16.29-6.47,2.27-11a28,28,0,0,1,6.59-9.24c5.29-3,13-6.13,21.56-4.84,6.67,1,7.65,3.75,17.6,8.8C158.94,233,161.9,234.36,165.48,235.75Z"/><path class="cls-4" d="M123.77,256.06s-.88,12.31,1.76,12.31,3.52-1.76,2.64-12.31Z"/><path class="cls-4" d="M129.93,255.18s-.88,9.67,1.76,9.67,3.52-1.38,2.64-9.67Z"/><path class="cls-4" d="M140.68,253.8s.7,10.69,3.31,10.31,3.26-2,1-11Z"/><path class="cls-4" d="M147.45,249.08s-.58,10.69,2.06,10.62,3.47-1.62,2.34-10.75Z"/><path class="cls-2" d="M494.52,55.94c2.65,0,27.36-6.17,41.48,13.24,0,0-5.29,3.53-6.17,3.53s-21.19,14.13-31.78,7.07Z"/><path class="cls-5" d="M498.35,58.65a16.55,16.55,0,0,1,1.52,2.4l22.58.83C516.81,57.46,506.32,57.67,498.35,58.65Z"/><path class="cls-6" d="M498.35,58.65A12.84,12.84,0,0,1,499.87,61c7.53.11,15.06.37,22.59.63l-.17.47c-6.87-4.8-16-4-23.94-3.44Zm0,0c8.26-1,17.92-1.9,24.91,3.53l-.82,0c-7.53-.3-15.05-.59-22.57-1-.48-.78-.94-1.69-1.52-2.45Z"/><path class="cls-7" d="M483.93,153.91c-2.42.24-6.09.58-10.59.89-10.28.7-10.71.28-14.12.88-3.6.63-12.54,2.24-17.65,8.83-2.91,3.74-1.31,4.88-4.42,13.24-1.88,5-5.07,13.32-12.36,19.42-4,3.32-4.19,1.81-10.59,6.18-7.05,4.8-8.28,7.64-15.89,14.12-6.75,5.75-6.36,4-13.23,9.71C373.83,236.5,373,241,365.65,243.06a24.37,24.37,0,0,1-11.69.15l-.66-.15a29.16,29.16,0,0,1-10-4.29,7,7,0,0,0,4.13-1.61c5.9-4.8,5.8-18.58,5.8-18.58l-.66.53a89.05,89.05,0,0,1-13.85,12c-.77.53-1.63,1.1-2.57,1.78l-.53-.46-.06-.05c-5.69-4.8-15.74-8.87-35-6.42q-3.47.44-7.32,1.18c-1.26.19-2.69.44-4.28.76a96.52,96.52,0,0,0-13.38,3.65c-9,3.16-12.92,6-21.18,9.71a136.49,136.49,0,0,1-24.71,7.94,121.18,121.18,0,0,1-40.6,1.77c-7.08-.91-17.62-2.35-29.13-7.95-1.63-.79-4.32-2.29-9.71-5.29-13.78-7.69-16-9.63-17.65-11.48-.29-.31-.55-.62-.8-.93h0a20.85,20.85,0,0,1-2.4-3.71c-1.81-3.52-2.14-6.6-3.42-9-3.86-7.41-18.24-12.83-63-5.51h0c-5.74-11.05-8.17-13.4-11.56-23.17a107.19,107.19,0,0,1-5.29-23.83,110.15,110.15,0,0,0-2.65-11.47c-2.32-6.83-6.18-18.1-.88-26.48,2.64-4.18,5.94-5.08,11.48-9.71A59.29,59.29,0,0,0,69.09,93a27.22,27.22,0,0,1,5.3-5.3C80.58,83,85.8,83.05,93.8,80.66c8.89-2.65,6.85-4.87,15.89-7.94,7-2.39,12.9-2.4,24.72-2.66,9.55-.2,14.44-.26,19.41,1.77a34.27,34.27,0,0,0,7.94,2.65,29.9,29.9,0,0,0,10.6,0c8.67-1.39,20.27-1.55,37.95-1.76,5.85-.08,2.09.07,30.89,1.76,19.22,1.12,23.23,1.39,30,0,2.25-.47,9.48-3,23.84-7.94,9.67-3.36,14.52-5,17.65-6.18,21.14-7.71,20.28-8.62,26.48-9.71,7.14-1.26,20.33-3.6,29.12,3.53,3.76,3,4.73,6.19,11.47,11.47a60.46,60.46,0,0,0,9.72,6.18,109.52,109.52,0,0,0,22.94-5.29A109.64,109.64,0,0,0,439.8,52.41Z"/><path class="cls-8" d="M131.76,357.81a33,33,0,0,0,6.17,9.71l3.53,3.53h0a7.25,7.25,0,0,1,0,4.41,6.7,6.7,0,0,1-.88,1.76,6.85,6.85,0,0,1-1.76,0,6.56,6.56,0,0,1-1.75-.45,6.38,6.38,0,0,1-.9-.43v3.53a22.4,22.4,0,0,1-15,0,22.09,22.09,0,0,1-9.71-7.06q.45-6.18.89-12.36Z"/><path class="cls-9" d="M131.76,357.81a33,33,0,0,0,6.17,9.71l3.53,3.53h0a7.25,7.25,0,0,1,0,4.41,6.7,6.7,0,0,1-.88,1.76,6.85,6.85,0,0,1-1.76,0,6.56,6.56,0,0,1-1.75-.45,6.38,6.38,0,0,1-.9-.43v3.53a22.4,22.4,0,0,1-15,0,22.09,22.09,0,0,1-9.71-7.06q.45-6.18.89-12.36Z"/><path class="cls-10" d="M129.11,361.34l7.06,15V377a30.13,30.13,0,0,1-3.53-5.06A30.66,30.66,0,0,1,129.11,361.34Z"/><path class="cls-7" d="M132.64,359.53l0,0a7.09,7.09,0,0,1-2.89,3.05l-.36.21c-5.3,3-14.7,2.91-17-.63a1.57,1.57,0,0,1-.12-.19,18.13,18.13,0,0,0-2.53-4.26c-1.23-1.5-2-1.84-2.65-2.67-2.28-2.74-1.17-7.18-.88-8.89.58-3.43-2.56-9.7-8.83-22.25s-9.49-19-10.59-20.46a14.14,14.14,0,0,1-2.65-5.34c-.83-3.48,0-6.15.88-9.78a77.63,77.63,0,0,0,1.77-12.46c0-.76.07-2,0-3.56a51.81,51.81,0,0,0-5.3-20.46c-8.2-17.81-6-20.89-16.77-42.71q-.89-1.78-1.68-3.33c44.79-7.39,59.17-1.92,63,5.54,1.28,2.47,1.61,5.57,3.42,9.12a21,21,0,0,0,2.4,3.74h0l.8,1.83H130a25.33,25.33,0,0,0-2.9.68,15.67,15.67,0,0,0-7.69,4.66c-8.59,9.84,3,25.06-1.77,52.49-1.37,7.83-2.27,6.3-3.53,14.23,0,0-3.37,21.18,5.3,42.71,0,0,3,7.35,7.63,10.73.74.54,1.2.83,1.2.83,2.24,1.26,3.61,1.32,4.41,2.67C133.72,356.91,132.71,359.37,132.64,359.53Z"/><path class="cls-7" d="M427.44,99.19c.7,10,1.32,18.85,7.94,24.72a22.93,22.93,0,0,0,13.24,5.29c17.06,11,23.46,15.7,25.6,17.66a19.93,19.93,0,0,0,4.41,3.53c2.21,1.21,3.61,1.32,4.42,2.64a3.57,3.57,0,0,1,.38.93,6.34,6.34,0,0,1-.38,3.49c10.75-4.73,13.25-8.63,13.24-11.48,0-3.24-3.32-4.81-2.65-7.94.71-3.35,5.49-6,9.71-6.18,5.23-.26,8.18,3.29,10.59,1.77,1.26-.81,1.65-2.55,1.74-4.12,0-.41,0-.82,0-1.18A119.28,119.28,0,0,1,505.11,108c-2.43-6-4.42-10.92-5.29-17.65a53.34,53.34,0,0,1-.36-9.81,56.85,56.85,0,0,1,2.12-12.26,16.74,16.74,0,0,0-.88-5.3,13.29,13.29,0,0,0-.83-2,16.55,16.55,0,0,0-1.52-2.4c-.65-.88-1.42-1.81-2.34-2.87l-.61-.72a28.56,28.56,0,0,0-5.29-5.29c-2.57-1.86-3.85-1.82-5.3-3.54a12.41,12.41,0,0,1-2.65-6.17c-.38-.29-.81-.58-1.25-.87a28,28,0,0,0-3.16-1.78,29.46,29.46,0,0,0-8.83-2.65,10.45,10.45,0,0,0-2.52-.15,4.41,4.41,0,0,0-2.77,1c-.73.66-.82,1.33-1.77,1.77s-1.35.05-3.53,0-2.43.32-3.53,0c-1.28-.39-1.42-1-2.65-1.77-1.07-.63-1.63-.52-5.29-.88-4.29-.42-5.64-.79-6.18,0-.26.38-.11.68,0,1.77.08.83.37,3.91-.88,6.17a8.35,8.35,0,0,1-2.65,2.65c-1.93,1.45-3.26,1.63-3.5,2.53,0,0,0,.08,0,.12-.18,1.17,1.45,2.4,1.76,2.65,1.23.93,2.21.86,2.65,1.76a1.92,1.92,0,0,1,.15,1.12,3,3,0,0,1-.15.65l-2.4,6c-.33.81-.64,1.62-1,2.43q-1.87,4.69-3.76,9.4l-1.69,4.23c0,.07,0,.12,0,.18s0,0,0,0A79.34,79.34,0,0,0,427.44,99.19Z"/><path class="cls-11" d="M498.93,102.72c0-2.64,2.65-22.94-7.94-30s-16.77-3.53-15,5.3,4.41,15.89,10.59,23.83,12.35,19.42,12.35,21.18-14.12-5.29-18.53-5.29-15.89-6.18-18.54-8.83,0,4.42,4.42,7.95,6.17,9.7,5.29,9.7,3.53,3.54,4.42.89-2.65-7.06.88-3.53,5.29,6.18,7.94,6.18,25.6,0,26.48-3.54C510.41,125.67,498.93,111.55,498.93,102.72Z"/><path class="cls-2" d="M439.27,57.49a44.42,44.42,0,0,1,5.13,18c.34,5.66-.56,10.58-6.74,31.35h0a5.79,5.79,0,0,1-3.51.72,6,6,0,0,1-4.22-2.79c-1.59-1.88-8.18-10.12-7.41-21.88C423.61,66.33,438.23,58.05,439.27,57.49Z"/><path class="cls-6" d="M439.62,57.29a16.23,16.23,0,0,1,1.48,2.87c3,6.88,4.58,14.56,3.38,22-1.46,8.42-4.15,16.51-6.54,24.69l0,.12a6.37,6.37,0,0,1-2.29.79,6.15,6.15,0,0,1-5.88-2.9,33,33,0,0,1-6.37-12.25c-4-14.1,3.83-28.49,16.26-35.35Zm-.59.36c-12,7-19.37,21.16-15.31,34.89a32.46,32.46,0,0,0,6.4,12,5.56,5.56,0,0,0,5.41,2.66,5.8,5.8,0,0,0,2-.68l-.14.17c1.19-4.08,2.37-8.17,3.48-12.27,3.64-12.63,4.85-21.45-.68-33.88A12.68,12.68,0,0,1,439,57.65Z"/><path class="cls-7" d="M438.14,65.25a27.46,27.46,0,0,1,3.18,11.09c.2,3.5-.35,6.54-4.17,19.37h0a3.55,3.55,0,0,1-2.17.45,3.78,3.78,0,0,1-2.61-1.73,19.47,19.47,0,0,1-4.57-13.52C428.47,70.71,437.51,65.59,438.14,65.25Z"/><path class="cls-6" d="M438.22,65.2a25,25,0,0,1,3,15.28,69.05,69.05,0,0,1-1.8,7.68c-.72,2.54-1.43,5.12-2.23,7.62a3.63,3.63,0,0,1-4.87-1.31c-8.15-9.73-4.9-23.16,5.9-29.27Zm-.15.09c-10.64,6.17-13.76,19.49-5.65,29.1a3.49,3.49,0,0,0,4.7,1.26c.6-2.27,1.48-5.07,2.13-7.53,2.62-8.73,2.92-14.47-1.18-22.83Z"/><path class="cls-12" d="M417.19,35.11A85.25,85.25,0,0,0,434.3,48.38c.25-.91,1.6-1.09,3.56-2.55a8.72,8.72,0,0,0,2.7-2.68c1.28-2.29,1-5.42.9-6.26-.11-1.09-.26-1.4,0-1.78a84.1,84.1,0,0,1-18.88-8.93A83.39,83.39,0,0,1,401.91,7.42c-2.46-1.95-3.29-2-3.59-1.79C396.59,7,405.08,22.94,417.19,35.11Z"/><path class="cls-13" d="M435.38,48.88l-1.73-1"/><path class="cls-12" d="M466.2,35a25.28,25.28,0,0,1,2.59.17,26.79,26.79,0,0,1,8.77,2.69,29.14,29.14,0,0,1,3.16,1.83,92.29,92.29,0,0,1,5.86-9.35c3.45-4.85,7-8.91,10.59-15a67.15,67.15,0,0,0,5.29-11.47,2.91,2.91,0,0,0-1.76-2.65,2.64,2.64,0,0,0-1.77,0,81.65,81.65,0,0,1-8.82,10.59c-5.57,5.64-9,7.4-15,13.24A94.82,94.82,0,0,0,466.2,35Z"/><path class="cls-14" d="M466.4,34.61l-.12.15"/><path class="cls-15" d="M25.22,265c-.26,1-.26,12.46-4.68,14.22s-5.29,18.54-4.41,25.6c-.88,3.53-10.59,7.06-4.41,20.3,1.76,8.83,3.53,16.77,2.64,16.77s3.53-4.41,2.65-11.48,2.65-12.35,4.42-12.35,2.64,6.18,0,9.71-.89,9.71-.89,10.59,0-14.12,5.3-13.24c0,1.76.88,6.18,0,7.06s2.65-1.77,2.65-5.3c0,0,1.76,1.77.88,3.53,0,0,2.65.89,1.76-4.41s-3.53-8.82-5.29-9.71-.88-7.94,1.76-13.24,6.18-8.82,4.42-15-2.92-19.61-2.79-21.28S25.22,265,25.22,265Z"/><path class="cls-7" d="M70,93c-6.54,3.14-18.17,9.67-27.36,21.19a50,50,0,0,0-9.71,17.65,55.77,55.77,0,0,0-1.77,9.71c-1.76,13.85,0,18.59-1.76,30-.84,5.37-1.51,6.12-2.65,11.47-2.93,13.77-1.48,22.78-.88,36.19,1.17,26.44-1.87,50.12,0,50.31.61.06,1.6-2.42,2.23-2.18s.24,2.16.42,2.18.7-2.33.88-3.53a219.45,219.45,0,0,0,1.95-35.76c-.62-16.71-.94-25.06.7-34.85,1.75-10.49,3.91-14.16,5.29-27.36.56-5.3,1.82-10.56,1.77-15.89,0-5.86-.9-11.51,2.65-15a8.49,8.49,0,0,1,2.64-1.77Q57.18,114.2,70,93Z"/><path class="cls-16" d="M456.71,81.19c-1.4,16.22,11.93,12.83,12.42,12.19,0-.17.08-.34.11-.51-1.83.54-9.54,2.4-10-5.12,0-3.45,2.83-5,4.23-5.54A19.55,19.55,0,0,0,456.71,81.19Z"/><path class="cls-17" d="M463.49,82.21c-1.4.55-4.24,2.09-4.23,5.54.44,7.52,8.15,5.66,10,5.12C470.51,86.41,467.08,83.51,463.49,82.21Z"/><path class="cls-18" d="M464.82,85.38a3.49,3.49,0,0,0-2.46,3.2c.26,4.36,4.73,3.29,5.79,3C468.88,87.81,466.89,86.13,464.82,85.38Z"/><path class="cls-19" d="M465.1,87.41a1.35,1.35,0,0,0-1,1.23c.1,1.67,1.82,1.26,2.22,1.14A1.88,1.88,0,0,0,465.1,87.41Z"/><path class="cls-20" d="M300.89,183.21c-.13,5.35-.3,9.63-.55,11.31-1.11,7.78-8,7.76-10.59,15.88a35,35,0,0,0-.75,17.54,96.52,96.52,0,0,0-13.38,3.65c-9,3.16-12.92,6-21.18,9.71a136.49,136.49,0,0,1-24.71,7.94,121.18,121.18,0,0,1-40.6,1.77c-7.08-.91-17.62-2.35-29.13-7.95-1.63-.79-4.32-2.29-9.71-5.29-13.78-7.69-17.65-10.59-17.65-10.59a3.47,3.47,0,0,0-3.77-.8l-2.46.59,2.09-3.43h0s.38-.67.94-1.9a48.16,48.16,0,0,0,.28-38.06c1.09.61,106.51,60.46,169.28-2.32C299.56,181.26,300.22,182,300.89,183.21Z"/><path class="cls-20" d="M336.3,233.6a58.61,58.61,0,0,0,6.94,5.63,7.13,7.13,0,0,0,4.28-1.68c6.12-5,6-19.26,6-19.26l-.79.4c-2.35,2.42-4.41,4.3-5.91,5.6-2.14,1.87-4.26,3.55-8.51,6.91l-2.5,2Z"/><path class="cls-2" d="M88.06,269.1a17.39,17.39,0,0,1-1,4.38c-.34.91-.4.9-1.15,2.67-.35.82-.78,1.91-1.33,3.54-1.63,4.84-3.86,13-.88,50.31.25,3.12,1,11.94,5.3,14.13a9.24,9.24,0,0,1,3.53,2.64,9.06,9.06,0,0,1,1.76,4.42l-20.74,2.2a10.53,10.53,0,0,0-2.21-4.85c-2.21-2.65-4.56-2.47-5.29-4.41s1.26-3.79,2.65-7.07,1.27-6.2.88-11.47c-1.89-25.73-2.84-38.6-4.41-45.9a96.83,96.83,0,0,1-1.77-12.35c-.39-4.79-.57-7.23,0-9.71,1.25-5.47,4.22-6.79,7.06-12.36a30.23,30.23,0,0,0,3.33-13.1,28.77,28.77,0,0,0-1.56-9.85Z"/><path class="cls-8" d="M93.8,350.75a22.41,22.41,0,0,1,5.74,5.73c1.24,1.81,2.08,3,2.21,4.86a15.84,15.84,0,0,1-.89,5.29l-4.41-.88v3.53a22.76,22.76,0,0,1-14.56.44,22.41,22.41,0,0,1-10.15-6.62q.44-6.62.88-13.24Z"/><path class="cls-9" d="M93.8,350.75a22.41,22.41,0,0,1,5.74,5.73c1.24,1.81,2.08,3,2.21,4.86a15.84,15.84,0,0,1-.89,5.29l-4.41-.88v3.53a22.76,22.76,0,0,1-14.56.44,22.41,22.41,0,0,1-10.15-6.62q.44-6.62.88-13.24Z"/><path class="cls-10" d="M89.83,351.19s5.72,14,8.6,15c-.43.09-1.54-.84-1.54-.84S91.6,363.54,89.83,351.19Z"/><path class="cls-21" d="M141.46,371.05h0C141.74,371.33,141.81,371.39,141.46,371.05Z"/><path class="cls-21" d="M499.47,80.55c10.87,5.09,29.51-7.84,30.35-7.84S536,69.19,536,69.19c-12.66-17.42-33.84-14.25-40-13.41h0l-.62-.71a28.37,28.37,0,0,0-5.3-5.3c-2.56-1.85-3.84-1.81-5.29-3.52a12.44,12.44,0,0,1-2.65-6.18c-.38-.29-.81-.57-1.25-.87,1.3-2.19,3.21-5.27,5.67-8.84,4.88-7.1,7.36-9.47,10.59-15a65.63,65.63,0,0,0,5.29-11.47,2.92,2.92,0,0,0-1.76-2.65,2.64,2.64,0,0,0-1.77,0,82.49,82.49,0,0,1-8.83,10.6c-5.52,5.59-8.91,7.37-15,13.23a98.11,98.11,0,0,0-8.71,9.56,4.43,4.43,0,0,0-2.77,1c-.73.66-.82,1.32-1.77,1.77s-1.35.06-3.53,0-2.43.32-3.52,0c-1.28-.39-1.43-1-2.65-1.77s-1.64-.52-5.31-.88c-4.28-.42-5.63-.79-6.17,0a81.8,81.8,0,0,1-18.54-8.82A82.28,82.28,0,0,1,401.84,7.4c-2.41-1.92-3.23-2-3.53-1.76C396.62,7,405,22.74,416.85,34.76a84.05,84.05,0,0,0,16.8,13.12s0,.08,0,.12c-.18,1.16,1.45,2.4,1.76,2.65,1.23.94,2.21.87,2.65,1.76a1.93,1.93,0,0,1,.15,1.12,109.48,109.48,0,0,1-25.75,13,109.69,109.69,0,0,1-22.95,5.3,61.91,61.91,0,0,1-9.7-6.18c-6.74-5.28-7.72-8.45-11.48-11.48-8.79-7.13-22-4.79-29.12-3.53-6.2,1.09-5.33,2-26.49,9.71-3.13,1.14-8,2.83-17.64,6.18-14.35,5-21.59,7.47-23.83,7.94-6.79,1.39-10.8,1.12-30,0-28.8-1.69-25-1.84-30.89-1.76-17.68.22-29.28.37-37.95,1.76a30.15,30.15,0,0,1-10.6,0,34.66,34.66,0,0,1-7.94-2.64c-5-2-9.86-2-19.41-1.78-11.82.26-17.72.27-24.72,2.66-9,3.07-7,5.29-15.89,7.94-8,2.39-13.22,2.36-19.41,7.06A27.11,27.11,0,0,0,69.1,93l-.3.58c-6.69,3.32-17.52,9.74-26.2,20.61a50.15,50.15,0,0,0-9.7,17.65,55.77,55.77,0,0,0-1.77,9.71c-1.76,13.85,0,18.58-1.76,30-.83,5.37-1.5,6.13-2.65,11.48-2.93,13.75-1.47,22.77-.88,36.18.87,19.6-.58,37.69-.62,45.8-.14.49-.2,3.6-.78,6.81s-1.69,6.52-3.9,7.41c-4.41,1.77-5.29,18.54-4.41,25.6-.88,3.53-10.6,7.06-4.42,20.3,1.42,7.05,2.82,13.53,2.88,15.85A16.86,16.86,0,0,0,17,330.44c-.88-7.05,2.65-12.35,4.42-12.35s2.64,6.18,0,9.7-.89,9.72-.89,10.6c0-.78.31-14.07,5.3-13.24,0,1.77.88,6.18,0,7.06s2.64-1.77,2.64-5.29c0,0,1.77,1.76.89,3.52,0,0,2.65.89,1.76-4.41s-3.52-8.82-5.29-9.71-.88-7.94,1.77-13.24,6.18-8.82,4.41-15-2.92-19.61-2.79-21.28c.06-.29.1-.56.14-.79a219.45,219.45,0,0,0,1.95-35.76c-.63-16.71-.94-25.06.7-34.85,1.75-10.49,3.91-14.16,5.29-27.36.56-5.3,1.82-10.56,1.77-15.88,0-5.15-.71-10.12,1.52-13.63a77.16,77.16,0,0,0,2.89,10.09,110.14,110.14,0,0,1,2.65,11.48,107.24,107.24,0,0,0,5.29,23.82C54.82,193.69,57.25,196,63,207.09h0c.53,1,1.09,2.12,1.69,3.31a145.29,145.29,0,0,1,9.06,21.77,29.4,29.4,0,0,1-1.29,8,30.33,30.33,0,0,1-2,5.06c-2.84,5.57-5.8,6.89-7.06,12.35-.57,2.49-.39,4.93,0,9.72a97.14,97.14,0,0,0,1.77,12.36c1.57,7.29,2.52,20.16,4.41,45.89.39,5.27.54,8.12-.88,11.48s-3.42,5-2.65,7.06,3.08,1.76,5.3,4.41a9.55,9.55,0,0,1,1.27,2c-.27,4.18-.55,8.38-.84,12.56a22.53,22.53,0,0,0,10.15,6.62,22.78,22.78,0,0,0,14.57-.44v-3.53l1.61.32a.6.6,0,0,0,.37.07l2.43.5a16,16,0,0,0,.89-5.3c-.14-1.82-1-3-2.21-4.86a22.51,22.51,0,0,0-5.31-5.42,9.09,9.09,0,0,0-1.75-4.29A9.24,9.24,0,0,0,89,344.13c-4.26-2.19-5-11-5.29-14.13-3-37.31-.76-45.46.87-50.3.56-1.64,1-2.73,1.33-3.55.54-1.27.72-1.63.91-2.06,0,1.06,0,1.93,0,2.51A76.28,76.28,0,0,1,85,289c-.82,3.6-1.71,6.25-.88,9.71a14.13,14.13,0,0,0,2.65,5.3c1.1,1.45,4.27,7.74,10.59,20.29s9.42,18.68,8.83,22.07c-.3,1.7-1.4,6.11.88,8.83.69.82,1.42,1.16,2.65,2.65a17.93,17.93,0,0,1,2.53,4.22h0q-.37,5.38-.77,10.78a21.88,21.88,0,0,0,24.72,7.05v-3.53c.24.13.54.29.89.44a7.18,7.18,0,0,0,1.76.44,6.43,6.43,0,0,0,1.76,0,6.84,6.84,0,0,0,.89-1.76,7.41,7.41,0,0,0,0-4.41c-.68-.68-2.71-2.69-3.54-3.54a30.5,30.5,0,0,1-5.32-7.9l0,0c.07-.15,1.08-2.59,0-4.41-.8-1.34-2.18-1.4-4.41-2.65,0,0-.46-.29-1.2-.82-4.67-3.35-7.63-10.65-7.63-10.65-8.67-21.37-5.3-42.37-5.3-42.37,1.26-7.87,2.16-6.35,3.53-14.12a87.36,87.36,0,0,0,0-28.62,46.83,46.83,0,0,0,5.62.91l.43,0c0,.79-.09,2.08-.09,3.51,0,3.55.32,8,1.9,8,2.56,0,3.47-1.65,2.72-11.34.5,0,1,0,1.57,0-.11,2.8,0,7.86,1.87,7.86,2.49,0,3.41-1.23,2.77-8.32a42.22,42.22,0,0,0,6-1.36,2.63,2.63,0,0,0,.3-.09h0c.28,2.82,1.15,9.33,3.2,9,2.58-.39,3.23-2,1.12-10.65.79-.34,1.55-.7,2.29-1.09.06,3.13.44,7.37,2.11,7.33,2.56-.07,3.42-1.56,2.43-10a48,48,0,0,0,7.87-6.71l.19.09c11.51,5.6,22.05,7,29.12,7.95a121.52,121.52,0,0,0,40.61-1.77,134.39,134.39,0,0,0,24.71-8c8.26-3.65,12.21-6.54,21.18-9.7A96.9,96.9,0,0,1,289,227.94c.09.5.2,1,.31,1.44a47.4,47.4,0,0,1-.3,11.82c-.15,1-.35,2.1-.59,3.19a47.73,47.73,0,0,1-4.84,12.8l-4,19.86a22.86,22.86,0,0,1-1.77,8.83c-1,2.27-1.74,2.66-2.64,4.41-2.24,4.26-1.13,8-.89,13.23.21,4.61-.45,8.07-1.76,15s-2.29,7.64-4.42,17.65c-.56,2.66-1.2,5.29-1.76,7.95-.26,1.24-1.54,6.16-1.77,7.06a8.87,8.87,0,0,1-.88,2.65c-.46.79-.87,1.1-.88,1.76a2.64,2.64,0,0,0,.88,1.77,4.62,4.62,0,0,0,2.21,1.32,24.08,24.08,0,0,0-.45,6.62c0,.65.13,1.27.22,1.85a6.21,6.21,0,0,1,1.11-.52l.8,0a7,7,0,0,0-1,.49A6.59,6.59,0,0,0,265,368.4a7.36,7.36,0,0,0-1.76,5.3,21.32,21.32,0,0,0,7.06,8.82A21.58,21.58,0,0,0,283,386.43a22.09,22.09,0,0,0,4.12-.37,3.49,3.49,0,0,0,.91,0c1-.28-.74-8.58,0-8.83s3.37,7.4,5.31,7.06c.38-.06.67-.45.87-.88-.19-.77-.51-2-.87-3.53-1.77-7.22-2.14-9.84-4.42-11.47a7,7,0,0,0-.86-.51,5.81,5.81,0,0,0-.9-.37h-.18a31.67,31.67,0,0,0-6.9-8.82,222,222,0,0,1,5.3-36c1.2-5.19,2.55-10.12,4-14.79a18.51,18.51,0,0,0,6.18-6.17,18.79,18.79,0,0,0,2.65-10.59,156.53,156.53,0,0,0,11.46-19.42c4.42-8.9,7.73-17.76,14.13-26.48.77-1.05,1.62-2.14,2.54-3.24,2.32,14.52,3.48,21.78,3.64,28.84.11,4.78-.08,9.43,1.76,15.88a66.21,66.21,0,0,0,2.65,7.07c1.73,4.52,2.24,8.3,2.65,32.65.17,9.53.14,11.56,1.77,14.12,1.38,2.18,3.73,4.38,4.55,7.33a22.62,22.62,0,0,0-1.47,11.65,22.46,22.46,0,0,0,26.48,5.29,8.48,8.48,0,0,1-.88-5.29,14.48,14.48,0,0,1,2.65,1.77,16.35,16.35,0,0,1,1.77,1.76,3.11,3.11,0,0,0,2.64-2.64,38.13,38.13,0,0,0-6.18-6.18,37.29,37.29,0,0,0-4-2.79c.8-2.37.49-3.82,0-4.72-1-2-3-2.07-6.18-4.41a30.24,30.24,0,0,1-4.4-4.41c-4.08-4.8-4.8-12.39-6.18-36.19a33.56,33.56,0,0,1,0-6.18c.64-6.45,3-9,4.4-15,.85-3.55.81-5.87.89-10.59.1-6,.37-14.47,1.1-26.77a24.28,24.28,0,0,0,11.7-.15c7.31-2,8.17-6.57,19.41-15.88,6.88-5.7,6.5-4,13.24-9.71,7.61-6.48,8.84-9.32,15.89-14.12,6.4-4.37,6.6-2.86,10.59-6.18,7.3-6.09,10.48-14.37,12.36-19.43,3.11-8.35,1.5-9.49,4.42-13.23,5.11-6.59,14.06-8.2,17.64-8.82,3.42-.61,3.86-.19,14.13-.89,4.21-.29,7.68-.61,10.08-.84a6.26,6.26,0,0,1-.37,3.49,8.21,8.21,0,0,0,2.65,2.65,9.1,9.1,0,0,0,7.05.87,11.74,11.74,0,0,0,4.42,3.54c3.64,1.66,9,1.75,11.47-.88.16-.16,2.16-2.33,3.54-3.53a3.33,3.33,0,0,1,1.76-.89,3.08,3.08,0,0,1,.88,0,23,23,0,0,0,4.41,0,7.92,7.92,0,0,0,3.54-.88,6.87,6.87,0,0,0,2.64-3.53,22.76,22.76,0,0,0,1.77-8c.32-6.62.49-9.93-1.77-12.35-1.11-1.21-2.8-2-6.18-3.53-1.36-.63-2.58-1.11-3.56-1.47,0-.41,0-.82,0-1.18A119.28,119.28,0,0,1,505.11,108c-2.43-6-4.42-10.92-5.29-17.65a53.34,53.34,0,0,1-.36-9.81A0,0,0,0,1,499.47,80.55Z"/><path class="cls-21" d="M14.36,341.92c.18,0,.25-.33.23-.92C14.28,341.6,14.13,341.92,14.36,341.92Z"/><path class="cls-22" d="M352.59,219.11a88.33,88.33,0,0,1-13.85,12c-.77.54-1.63,1.11-2.57,1.78l-.23.17-.59.43a50,50,0,0,0-4.12,3.37,54.72,54.72,0,0,0-5,5.14c-.92,1.1-1.77,2.19-2.54,3.24-6.4,8.72-9.71,17.58-14.13,26.48a156.53,156.53,0,0,1-11.46,19.42,18.79,18.79,0,0,1-2.65,10.59,18.51,18.51,0,0,1-6.18,6.17c-1.42,4.67-2.77,9.6-4,14.79a222,222,0,0,0-5.3,36,31.3,31.3,0,0,1,6.9,8.82l.19.38a5.94,5.94,0,0,0-.91-.37l-18.62-.85-.8,0a6.21,6.21,0,0,0-1.11.52c-.09-.58-.17-1.2-.22-1.85a24.08,24.08,0,0,1,.45-6.62,4.62,4.62,0,0,1-2.21-1.32,2.64,2.64,0,0,1-.88-1.77c0-.66.42-1,.88-1.76a8.87,8.87,0,0,0,.88-2.65c.23-.9,1.51-5.82,1.77-7.06.56-2.66,1.2-5.29,1.76-7.95,2.13-10,3.07-10.59,4.42-17.65s2-10.4,1.76-15c-.24-5.25-1.35-9,.89-13.23.9-1.75,1.62-2.14,2.64-4.41a22.86,22.86,0,0,0,1.77-8.83l4-19.86a47.73,47.73,0,0,0,4.84-12.8c.24-1.09.44-2.17.59-3.19a47.4,47.4,0,0,0,.3-11.82c-.06-.23-.11-.46-.16-.7s-.11-.49-.15-.74a34.86,34.86,0,0,1,.76-17.54c2.6-8.12,9.48-8.1,10.58-15.88.08-.54.2-5.73.33-12.49"/><path class="cls-6" d="M483.37,153.93c-8.41-8.41-17.12-16.81-27.29-23.05a23.42,23.42,0,0,0-8.1-3.25,26.26,26.26,0,0,1-3-.43c-11.26-3.3-20-15.59-22.51-26.64a23.74,23.74,0,0,1,.27-11.9,24.25,24.25,0,0,0,.23,11.79c2.67,10.49,11.5,22.71,22.25,25.73,1.89.41,4.05.46,5.9,1.21,5.67,2.18,10.55,5.93,15.17,9.75a165.23,165.23,0,0,1,17.09,16.79Z"/><path class="cls-23" d="M294.17,383.4c-.2.43-.48.82-.88.88-1.94.34-4.57-7.31-5.3-7s1,8.54,0,8.82a3.1,3.1,0,0,1-.91,0,22.38,22.38,0,0,1-4.12.36,20.87,20.87,0,0,1-19.68-12.72,7.32,7.32,0,0,1,1.77-5.31,6.55,6.55,0,0,1,1.53-1.23,8.15,8.15,0,0,1,1.11-.53l19.42.89a7.16,7.16,0,0,1,.91.37,7,7,0,0,1,.86.5c2.28,1.64,2.65,4.27,4.41,11.49C293.66,381.39,294,382.63,294.17,383.4Z"/><path class="cls-3" d="M294.17,383.4c-.2.43-.48.82-.88.88-1.94.34-4.57-7.31-5.3-7s1,8.54,0,8.82a3.1,3.1,0,0,1-.91,0,22.38,22.38,0,0,1-4.12.36,20.87,20.87,0,0,1-19.68-12.72,7.32,7.32,0,0,1,1.77-5.31,6.55,6.55,0,0,1,1.53-1.23,8.15,8.15,0,0,1,1.11-.53l19.42.89a7.16,7.16,0,0,1,.91.37,7,7,0,0,1,.86.5c2.28,1.64,2.65,4.27,4.41,11.49C293.66,381.39,294,382.63,294.17,383.4Z"/><path class="cls-10" d="M288.39,377.52c.18-.37-2.89-9.59-2.89-9.59s.79,6.88,2.32,10"/><polyline class="cls-10" points="363 353.4 367.72 359.48 367.38 359.89 362.75 353.61"/><g class="cls-24"><ellipse cx="234.99" cy="368.79" rx="233.16" ry="37.56"/></g></svg>