<?xml version="1.0" encoding="utf-8"?>
<!-- Generator: Adobe Illustrator 25.4.2, SVG Export Plug-In . SVG Version: 6.00 Build 0)  -->
<svg version="1.1" id="Layer_1" xmlns="http://www.w3.org/2000/svg" xmlns:xlink="http://www.w3.org/1999/xlink" x="0px" y="0px"
	 viewBox="0 0 400.4 414.2" style="enable-background:new 0 0 400.4 414.2;" xml:space="preserve">
<style type="text/css">
	.st0{fill:#D87716;}
	.st1{fill:#FF8A00;}
	.st2{fill:#FFD879;}
	.st3{fill:#C67A00;}
	.st4{fill:#F4E0A5;}
	.st5{fill:#FAF1D6;}
	.st6{fill:#F7E2C9;}
	.st7{fill:#BD884E;}
	.st8{fill:#F79E00;}
	.st9{fill:#FF8A00;stroke:#5B1B02;stroke-width:0.48;stroke-miterlimit:10;}
	.st10{fill:#FF7A75;}
	.st11{fill:#BA6304;}
	.st12{fill:#6D1F0D;}
	.st13{fill:#590E0E;}
	.st14{fill:#FFDE8C;}
	.st15{fill:#FBFFFF;}
	.st16{fill:#130D14;}
	.st17{fill:#6B0A0A;stroke:#2D0901;stroke-width:0.5;stroke-miterlimit:10;}
	.st18{opacity:0.76;fill:#FFDE8C;enable-background:new    ;}
	.st19{fill:#091204;}
	.st20{fill:#B70F0F;}
	.st21{fill:#FFFFFF;stroke:#4F2102;stroke-width:0.64;stroke-miterlimit:10;}
	.st22{fill:#FFFFFF;stroke:#4F2102;stroke-width:0.61;stroke-miterlimit:10;}
	.st23{fill:#4F2305;stroke:#020B3F;stroke-width:0.35;stroke-miterlimit:10;}
	.st24{fill:#FFFFFF;stroke:#020B3F;stroke-width:7.000000e-02;stroke-miterlimit:10;}
	.st25{opacity:0.1;fill:#FFFFFF;stroke:#020B3F;stroke-width:0.12;stroke-miterlimit:10;enable-background:new    ;}
	.st26{fill:#160B0C;}
	.st27{fill:#60110E;}
	.st28{fill:#F5A954;}
	.st29{fill:#FF8A00;stroke:#5B1B02;stroke-width:0.51;stroke-miterlimit:10;}
	.st30{fill:#471201;}
</style>
<path class="st0" d="M310.9,258.4c3.4,11.9,29,102.5,40,103.4c12,1,22.8-8.3,29.9-4.4c8.5,4.6,17.3,15.1,16.9,21.2
	c-0.2,2.8-1.5,6.2-9.6,6.1c-1.3,5.1-9.4,5.1-20.4,4.1c-9.2,5.1-37.9,2.9-47.1-3.8c-21.9-15.8-22.7-39.4-60.8-103.6l61.9-43.8
	C321,251.3,313.1,255.5,310.9,258.4z"/>
<path class="st1" d="M313.5,267c3.4,11.9,26.4,93.9,37.4,94.8c12,1,22.8-8.3,29.9-4.4c8.5,4.6,14.9,12.8,15.6,16.6
	c1.3,4.9-5.7,4.2-9.2,3.6c0.8,4.6-9.6,5.7-15-0.3c-4,10.7-37.2,6.8-46.4,0.2c-21.9-15.8-25.9-55.5-65.9-96l62.1-55
	C321.1,240,315.7,264.1,313.5,267z"/>
<path class="st2" d="M350.9,361.8c12,1,22.8-8.3,29.9-4.4c8.5,4.6,14.9,14.2,15.6,18c-3.8-5.9-13.5-14.7-19.4-15.3
	c-9.7-1.1-14.6,6.4-26.4,5c-7.1-0.8-13.3-13.8-19.6-30.4c-10.4-27.2-19.1-64-19.1-72.7C315.3,273.9,339.9,360.9,350.9,361.8z"/>
<path class="st3" d="M322.5,236l-63.8,45.1l0.4,0.6c16,27,25.5,47.1,32.5,61.8c10,21.1,15.6,32.8,28.4,42c5.8,4.2,19.4,6.7,31,6.7
	c6.9,0,13.1-0.9,16.8-2.8c9.9,0.9,18.8,1.2,20.8-4.1c6.3,0,9.5-2.3,9.9-6.8c0.5-6.7-9-17.4-17.3-21.9c-4-2.2-8.9-0.6-14.6,1.4
	c-4.7,1.6-10.1,3.4-15.6,3c-6.4-0.5-21.7-40.7-39.2-102.4c0.4-0.5,0.9-1,1.6-1.5c3.2-3,8.6-8.1,9.1-19.4L322.5,236z M320.8,239.1
	c-0.9,9.6-5.6,14-8.5,16.8c-0.7,0.6-1.4,1.3-2,2l-0.2,0.3l0.1,0.4c3.3,11.7,9.9,34.4,17.2,55.9c16.1,47.5,21.7,47.9,23.5,48.1
	c5.8,0.5,11.4-1.4,16.2-3c5.3-1.8,9.9-3.3,13.3-1.5c8.6,4.6,16.9,15,16.5,20.4c-0.1,1.6-0.4,5.5-8.9,5.4h-0.6l-0.1,0.6
	c-1,4.3-8.2,4.6-19.5,3.6h-0.2l-0.2,0.1c-8.9,5-37.5,2.7-46.3-3.7c-12.5-9-18-20.5-27.9-41.4c-7-14.6-16.5-34.6-32.2-61.3
	L320.8,239.1z"/>
<path class="st4" d="M350.9,361.8c12,1,22.8-8.3,29.9-4.4c8.5,4.6,17.3,15.1,16.9,21.2c-0.2,2.8-1.5,6.2-9.6,6.1
	c-1.3,5.1-9.4,5.1-20.4,4.1c-7.6,4.2-28.4,3.4-40.6-0.7C325.9,377.2,340.1,360.7,350.9,361.8z"/>
<path class="st5" d="M350.9,361.8c12,1,22.8-8.3,29.9-4.4c8.5,4.6,14.9,12.8,15.6,16.6c1.3,4.9-5.7,4.2-9.2,3.6
	c0.8,4.6-9.6,5.7-15-0.3c-3.6,9.7-31.3,7.4-43.3,1.9C332.9,370,342.9,361,350.9,361.8z"/>
<path class="st6" d="M350.9,361.8c12,1,22.8-8.3,29.9-4.4c8.5,4.6,14.9,14.2,15.6,18c-3.8-5.9-13.5-14.7-19.4-15.3
	c-9.7-1.1-14.6,6.4-26.4,5c-1.9-0.3-3.7-1.2-5.1-2.5C347.2,361.9,349,361.6,350.9,361.8z"/>
<path class="st7" d="M369.8,369.6l0.2,0.3c2,3.1,3.7,6.8,3.7,10.3c0,3.8-1.9,6.9-5.6,9.2l-0.8-1.3c3.2-2,4.8-4.6,4.8-7.9
	c0-7.4-8.1-15.5-9.4-16.3C362.7,363.9,366,364.1,369.8,369.6z"/>
<path class="st7" d="M383.1,366.6l0.1,0.1c0.9,1.1,1.7,2.3,2.5,3.5c2.2,3.6,4.5,9.1,3.1,14.6l-1.5-0.4c1.3-5-0.9-10-2.9-13.4
	c-3.5-5.8-8.7-10-10.4-10.4C374,360.6,378.4,360.9,383.1,366.6z"/>
<path class="st7" d="M335.3,368.4c-6.1,6.1-9.7,13.9-9.1,19.7v0.5l0.5,0.2c6.5,2.2,15.9,3.5,24.4,3.5c6.8,0,13-0.8,16.7-2.8
	c9.9,0.9,18.8,1.2,20.8-4.1c6.3,0,9.5-2.3,9.9-6.8c0.5-6.7-9-17.4-17.3-21.9l-0.4,0.7l0.4-0.7c-4-2.2-8.9-0.5-14.6,1.4
	c-4.7,1.6-10.1,3.4-15.6,3C346.2,360.5,340.5,363.2,335.3,368.4z M336.4,369.5c4.8-4.8,10.2-7.4,14.4-7c5.8,0.5,11.4-1.4,16.2-3
	c5.3-1.8,9.9-3.3,13.3-1.5c8.6,4.6,16.9,15,16.5,20.4c-0.1,1.6-0.4,5.5-8.9,5.4h-0.6l-0.1,0.6c-1.1,4.3-8.2,4.6-19.5,3.6h-0.2
	l-0.2,0.1c-7,3.9-26.7,3.6-39.5-0.6C327.4,382.2,330.9,375.1,336.4,369.5z"/>
<path class="st8" d="M223.6,366.6c22.4-0.4,30.8-10,40.5-7c6.1,1.9,24.2,27.5,10.6,26.7c0,4.9-6.2,6.8-15.9,5.7
	S187.6,392.5,223.6,366.6z"/>
<path class="st3" d="M211.9,381.8c2.6,8.9,27.2,10,40.4,10.6c2.9,0.1,5.2,0.2,6.5,0.4c1.7,0.2,3.4,0.3,5.1,0.3
	c4.5,0,7.8-0.9,9.7-2.6c1-0.9,1.6-2.1,1.8-3.4c3.5,0,4.6-1.9,4.9-3.6c1.2-6.9-10.9-23.1-16-24.6s-9.5,0-15.4,2
	c-6.2,2.1-14,4.7-25.4,4.9h-0.2l-0.2,0.1C214.3,372.4,210.7,377.5,211.9,381.8z M223.9,367.4c11.6-0.2,19.4-2.9,25.6-5
	c5.8-2,10-3.4,14.4-2s16,16.8,14.9,22.9c-0.2,1.1-0.8,2.5-4,2.3l-0.8,0v0.8c0,1.2-0.5,2.3-1.3,3c-2.2,2-7.1,2.6-13.6,1.9
	c-1.4-0.2-3.7-0.3-6.6-0.4c-11.9-0.5-36.6-1.6-39-9.5C212.4,377.9,215.9,373.2,223.9,367.4L223.9,367.4z"/>
<path class="st4" d="M249.1,361.7c5.9-2,10.3-3.5,15.1-2.1c6.1,1.9,24.2,27.5,10.6,26.7c0,4.9-6.2,6.8-15.9,5.7
	c-2.2-0.3-7.2-0.4-13.1-0.7C241.7,383.5,240.1,369.3,249.1,361.7z"/>
<path class="st7" d="M266.8,370.6l0.3,0.3c4.3,4.3,8.2,9.9,8.4,15.4l-1.6,0.1c-0.5-10.1-14.3-20.5-17.5-21
	C256.5,365.3,261.1,365,266.8,370.6z"/>
<path class="st7" d="M245.2,391.6l0.2,0.4h0.4c2.4,0.1,4.6,0.2,6.5,0.3c2.9,0.1,5.2,0.2,6.5,0.4c1.7,0.2,3.4,0.3,5.1,0.3
	c4.5,0,7.8-0.9,9.7-2.6c1-0.9,1.6-2.1,1.8-3.4c3.5,0,4.6-1.9,4.9-3.6c1.2-6.9-10.9-23.1-16-24.6s-9.5,0-15.4,2l-0.3,0.1l-0.1,0.1
	C239.2,369,241,383.7,245.2,391.6z M249.5,362.4L249.5,362.4c5.8-2,10-3.4,14.4-2s16,16.8,14.9,22.9c-0.2,1.1-0.8,2.4-4,2.3l-0.8,0
	v0.8c0,1.2-0.5,2.3-1.3,3c-2.2,2-7.1,2.6-13.6,1.9c-1.4-0.2-3.7-0.3-6.6-0.4c-1.8-0.1-3.9-0.2-6.1-0.3
	C242.5,383,241.1,369.6,249.5,362.4z"/>
<path class="st8" d="M40.9,286.5c10.1,1.6,9.8,8.3,9.8,8.3c-17.2,11.9-46.7,55.6-21.4,76.8c17.5,14.8,66.5,14.9,82-7.6
	c17.1-1.6,18.4,15,6.7,24.6c-14.8,12-79.4,24.4-105.8-6.8C-11.5,353.5,9.7,302.2,40.9,286.5z"/>
<path class="st1" d="M38.2,287.9c0.9-0.5,1.8-1,2.7-1.5c10.1,1.6,9.8,8.3,9.8,8.3c-17.2,11.9-46.7,55.6-21.4,76.8
	c14.1,11.8,48.3,14.3,69.3,3.2c9.4-3.2,6.8,11.7-12.7,16.5s-57.1,5.7-71.9-17.6C-2.6,347.3,13.8,307.4,38.2,287.9z"/>
<path class="st3" d="M2.7,338.5c-3.5,17.1-0.3,32.6,9,43.7c14.3,17,38.6,20,54,20c1.4,0,2.7,0,3.9-0.1c22.4-0.7,42-7.2,49-13
	c6.6-5.4,9.5-13.4,7.1-19.3c-2-4.9-7.2-7.3-14.4-6.7h-0.4l-0.2,0.3c-6.1,8.8-17.9,14.8-33.3,16.9c-18.5,2.5-38-1.4-47.6-9.4
	c-6.7-5.6-9.9-13.3-9.5-22.8c0.9-20,18.6-44.2,30.8-52.8l0.3-0.2v-0.4c0-0.1,0.2-7.4-10.5-9.1h-0.2l-0.2,0.1
	C22.5,294.9,7.3,316.1,2.7,338.5z M4.2,338.8c4.5-21.9,19.2-42.6,36.8-51.6c7.8,1.3,8.8,5.8,8.9,7.1c-12.2,8.7-30.2,32.6-31.2,53.7
	c-0.5,10,2.9,18.1,10,24.1c9.8,8.3,29.9,12.3,48.8,9.7c15.7-2.1,27.8-8.2,34.2-17.2c0.6,0,1.1-0.1,1.7-0.1c5.3,0,9.2,2.1,10.7,5.8
	c2.2,5.3-0.5,12.5-6.6,17.5c-6.8,5.6-26,11.9-48.1,12.6c-14.6,0.4-41.4-1.4-56.6-19.4C3.9,370.5,0.8,355.5,4.2,338.8z"/>
<path class="st0" d="M162.4,219.6c14.2-15.5,46.4-55.7,53.4-55.4s51.5,21.8,57.4,29.3s28.4,48.4,12.6,85.5
	c-23,26.4-43.3,48.7-58,54.1c-27.7,23.8-11.2,38.3-10.4,39.1c7.1,1.7,18.8-3.1,27.3,0.8s18.9,13.5,20.3,21.7c0.5,3.1-4.3,6.6-6,6.5
	c-0.4,5.6-10.1,5.5-12.4,5c-8.7,11.2-100.4,3.7-105.3-5.7c-13.3-0.9-26.5-6.5-29.6-17.9l-1.1-10.6
	C108.2,358.9,103.8,253.3,162.4,219.6z"/>
<path class="st1" d="M162.4,219.6c14.2-15.5,46.4-55.7,53.4-55.4s51.5,21.8,57.4,29.3s28.4,48.4,12.6,85.5
	c-37.4,20-41.7,42.7-63.1,32.1c-17.6,15.1-12.2,48.4-9.6,54.9c-6.9,4.7-13.5,9.9-21.1,11.4c-27.2,4.7-57.5,2.6-69.4-22.8
	s-1-93.8,17.3-115.1C145.9,231.5,153.6,224.7,162.4,219.6z"/>
<path class="st1" d="M190.5,392.7c7.4-6.4,23.5-13.6,30.4-20.2c7,0,16.5-2.9,23.8,0.4c5.3,2.5,10,6.1,13.9,10.4
	c6.4,7.4,0.3,11.2-4,5.9c5.2,9-3.9,11.1-11.6,3.8c6.4,15.2-41.5,13.5-55.3,9.1C181.5,400.2,183.5,393.4,190.5,392.7z"/>
<path class="st3" d="M141.6,399.8c5.3,0,10.6-1.2,13.5-3c0,0-1.7,4-13.5,4.6h-0.4v-1.6L141.6,399.8z"/>
<path class="st3" d="M108.4,337.7c0.6-11.5,2-23,4.1-34.3c5.4-28.6,18.4-66.5,49.4-84.4c3.6-4,8.5-9.6,13.6-15.6
	c19.5-22.7,34.9-40,40.2-40h0.1c4,0.1,18,6.3,29.4,12c5.7,2.8,24.6,12.5,28.5,17.6c6.3,8.2,28.5,49.2,12.7,86.3l-0.1,0.2
	c-23,26.4-43.3,48.7-58.2,54.3c-10.1,8.8-15.4,17.1-15.6,25c-0.1,4.8,1.8,9.4,5.2,12.7c2.8,0.6,6.4,0.2,10.2-0.2
	c5.6-0.6,11.9-1.3,17,1c8.9,4,19.4,13.9,20.7,22.2c0.1,1.7-0.5,3.3-1.6,4.5c-1.2,1.3-2.7,2.3-4.3,2.9c-0.3,1.3-1,2.4-2,3.2
	c-3.1,2.3-8.6,2.3-10.8,2c-3.8,4-17.5,5.5-33.7,5.5c-9.6,0-20.1-0.5-30-1.5c-18.4-1.7-38.9-5.2-42.3-9.8c-9-0.7-19-3.5-25.2-9.4
	l-0.2-0.2c-4.4-4.5-3.7-9.1-3.7-9.1c3,11.4,17.3,16.3,29.6,17.1h0.4l0.2,0.4c1.8,3.4,18.8,7.3,41.3,9.4c27,2.5,58.1,2,62.7-3.8
	l0.3-0.4l0.5,0.1c1.7,0.4,7.3,0.4,10-1.6c0.9-0.6,1.4-1.6,1.5-2.7v-0.8h0.8c0.6,0,2.5-0.9,3.8-2.5c0.6-0.7,1.5-2,1.4-3.2
	c-1.3-7.8-11.3-17.2-19.9-21.1c-4.8-2.2-10.6-1.5-16.2-0.9c-4.1,0.5-7.9,0.9-11,0.1l-0.2,0l-0.2-0.2c-3.8-3.6-5.9-8.7-5.8-14
	c0.2-8.3,5.7-17.1,16.2-26.2l0.1-0.1h0.1c14.5-5.3,34.7-27.5,57.6-53.8c15.5-36.4-6.3-76.5-12.5-84.5c-6-7.7-50.3-28.7-56.8-29h-0.1
	c-4.9,0-24.6,22.8-39,39.5c-5.2,6-10.1,11.7-13.7,15.7l-0.2,0.1c-30.6,17.6-43.4,55.1-48.7,83.4c-6.1,32-4.6,61.7-3.5,68.3
	c0,0-3.3-7.6-2.3-31.8C108.3,339.4,108.4,338.6,108.4,337.7z"/>
<path class="st4" d="M242.3,372.1c0.8,0.2,1.6,0.5,2.4,0.8c8.5,3.9,18.9,13.5,20.3,21.7c0.5,3.1-4.3,6.6-6,6.5
	c-0.4,5.6-10.1,5.5-12.4,5c-3.1,4-16.8,5.6-33.3,5.6C209.5,395.7,220.3,373.1,242.3,372.1z"/>
<path class="st5" d="M242.2,372.1c0.8,0.2,1.6,0.5,2.4,0.8c5.3,2.5,10,6.1,13.9,10.4c6.4,7.4,0.3,11.2-4,5.9
	c5.2,9-3.9,11.1-11.6,3.8c4,9.6-13.4,12.5-30.4,12.2C212.5,390.1,223.1,373,242.2,372.1z"/>
<path class="st7" d="M236.3,386.5l0.2,0.1c2.9,1.2,5.5,3.1,7.6,5.4c3.9,4.4,5.1,9.7,3.2,14.5l-1.4-0.6c2.3-5.9-0.8-10.6-2.9-12.9
	c-4.6-5.2-12.2-7.8-18-6.1C228.5,385,232.7,384.9,236.3,386.5z"/>
<path class="st7" d="M250.2,382.3l0.2,0.2c5.2,5.3,9.6,12.6,9.3,18.7l-1.5-0.1c0.5-9.6-12.2-23-19.3-24.4
	C238.9,376.7,243.1,375.9,250.2,382.3z"/>
<path class="st7" d="M219.1,383.5c-6.1,8.1-8.7,19.2-6.6,28.5l0.1,0.6h0.6c13,0,29.2-1,33.6-5.5c2.2,0.3,7.7,0.3,10.8-2
	c1.1-0.8,1.8-1.9,2-3.2c1.7-0.5,3.2-1.5,4.4-2.9c1.2-1.2,1.8-2.8,1.7-4.5c-1.4-8.3-11.8-18.2-20.7-22.2c-0.8-0.4-1.6-0.7-2.5-0.9
	h-0.1h-0.1C233.1,371.7,224.6,376.2,219.1,383.5z M220.3,384.5c5.1-7,13.2-11.2,21.9-11.6c0.7,0.2,1.4,0.5,2.1,0.8
	c8.5,3.9,18.5,13.3,19.9,21.1c0.2,1.2-0.8,2.5-1.4,3.2c-1.4,1.5-3.2,2.5-3.8,2.5h-0.8v0.8c-0.1,1.1-0.6,2.1-1.5,2.7
	c-2.7,2.1-8.2,2-10,1.6l-0.5-0.1l-0.3,0.4c-2.6,3.3-14.3,5.2-32,5.3C212.1,402.4,214.6,392,220.3,384.5L220.3,384.5z"/>
<path class="st0" d="M219.1,310c18.7,9.6,30.4,38.8,11.2,58.5c-17.4,17.8-39.5,23.6-50.9,24.9l-19.7-71.1
	C174.5,313,197.6,298.9,219.1,310z"/>
<path class="st1" d="M219.1,310c6.4,3.4,11.8,8.6,15.4,14.9c13.6,24-19,51.6-59.1,54.4l-15.8-56.9C174.5,313,197.6,298.9,219.1,310z
	"/>
<path class="st3" d="M218.8,310.7c-19.7-10.1-40.9,0.2-59.1,11.7c0,0,2.9-3.9,12.9-9.2c0.4-0.2,0.7-0.4,1.1-0.5
	c14.8-7.3,30.6-11.1,45.8-3.3c10.7,5.5,19,17.1,21,29.5c1.9,11-1.7,22.3-9.6,30.2c-9.7,9.8-21.6,17.3-34.6,21.9l-0.4,0.1
	c-11.6,4.2-16.4,2.4-16.4,2.4c13.2-1.5,34.3-9.1,50.3-25.5c7.6-7.6,11-18.3,9.2-28.9C237,327.1,229.1,316,218.8,310.7z"/>
<path class="st0" d="M286.2,277.9c3.4,11.9,26.4,93.9,37.4,94.8c12,1,22.8-8.2,29.9-4.4c8.5,4.6,17.3,15.1,16.9,21.2
	c-0.2,2.8-1.5,6.2-9.6,6.1c-1.3,5.1-9.4,5.1-20.4,4.1c-9.2,5.1-37.9,2.9-47.1-3.8c-21.9-15.8-22.7-39.4-60.8-103.6l61.9-43.8
	C293.7,262.2,288.4,275,286.2,277.9z"/>
<path class="st1" d="M286.2,277.9c3.4,11.9,26.4,93.9,37.4,94.8c12,1,22.8-8.2,29.9-4.4c8.5,4.6,14.9,12.8,15.6,16.6
	c1.3,4.9-5.7,4.1-9.2,3.5c0.8,4.6-9.6,5.8-15-0.3c-4,10.7-37.2,6.8-46.4,0.1c-21.9-15.8-25.9-55.5-65.9-96l62.1-55.1
	C293.9,251,288.4,275,286.2,277.9z"/>
<path class="st2" d="M323.6,372.7c12,1,22.8-8.2,29.9-4.4c8.5,4.6,14.9,14.2,15.6,18c-3.8-5.9-13.5-14.7-19.4-15.3
	c-9.7-1.1-14.6,6.4-26.4,5c-7.4-0.9-13.6-14.4-19.8-31c-9.5-25.5-17.3-58.5-17.3-67C289.6,289.8,312.6,371.8,323.6,372.7z"/>
<path class="st3" d="M243.5,308.5c10.7,19.3,17.7,34.5,23.1,46.2c9.5,20.5,14.7,31.8,27,40.6c8.8,6.4,37.4,8.6,46.3,3.7l0.2-0.1h0.2
	c11.3,1,18.5,0.8,19.5-3.5l0.1-0.6h0.6c8.5,0.1,8.7-3.7,8.9-5.4c0.4-5.5-7.9-15.8-16.5-20.4c-3.5-1.9-8-0.3-13.3,1.5
	c-4.9,1.6-10.4,3.5-16.2,3c-1.8-0.1-7.4-0.6-22-43.2c-5-14.5-10.4-32-16-51.8l-0.2-0.7l0.2-0.3c2-2.6,7.4-15.1,8-29l1.5,0.1
	c-0.6,12.9-5.5,25.7-8.1,29.5c16.5,58.3,30.1,93.4,36.6,93.9c5.5,0.5,10.9-1.4,15.6-3c5.6-1.9,10.5-3.5,14.6-1.3
	c8.2,4.5,17.8,15.2,17.3,21.9c-0.3,4.5-3.6,6.7-9.9,6.8c-1.9,5.3-10.9,5-20.8,4.1c-3.6,1.9-9.9,2.8-16.8,2.8
	c-11.6,0-25.2-2.5-31-6.7c-12.6-9.1-18.2-21.2-27.5-41.2c-9.8-21.6-20.7-42.6-32.8-63c4.2,4.8,7.9,10.1,10.8,15.8L243.5,308.5z"/>
<path class="st4" d="M323.6,372.7c12,1,22.8-8.2,29.9-4.4c8.5,4.6,17.3,15.1,16.9,21.2c-0.2,2.8-1.5,6.2-9.6,6.1
	c-1.3,5.1-9.4,5.1-20.4,4.1c-7.6,4.2-28.4,3.4-40.6-0.7C298.6,388.1,312.8,371.6,323.6,372.7z"/>
<path class="st5" d="M323.6,372.7c12,1,22.8-8.2,29.9-4.4c8.5,4.6,14.9,12.8,15.6,16.6c1.3,4.9-5.7,4.1-9.2,3.5
	c0.8,4.6-9.6,5.8-15-0.3c-3.6,9.7-31.3,7.4-43.3,1.9C305.6,380.9,315.5,371.9,323.6,372.7z"/>
<path class="st6" d="M323.6,372.7c12,1,22.8-8.2,29.9-4.4c8.5,4.6,14.9,14.2,15.6,18c-3.8-5.9-13.5-14.7-19.4-15.3
	c-9.7-1.1-14.6,6.4-26.4,5c-1.9-0.3-3.7-1.2-5.1-2.5C319.9,372.9,321.7,372.6,323.6,372.7z"/>
<path class="st7" d="M342.5,380.6l0.2,0.3c2,3.1,3.7,6.8,3.7,10.3c0,3.8-1.9,6.9-5.6,9.2l-0.8-1.3c3.2-2,4.8-4.6,4.8-7.9
	c0-7.4-8.1-15.5-9.4-16.3C335.4,374.8,338.7,375,342.5,380.6z"/>
<path class="st7" d="M355.8,377.5l0.1,0.1c0.9,1.1,1.7,2.3,2.5,3.5c2.2,3.6,4.5,9.1,3.1,14.6l-1.5-0.4c1.3-5-0.9-10-2.9-13.4
	c-3.5-5.8-8.7-10-10.4-10.4C346.7,371.5,351.1,371.8,355.8,377.5z"/>
<path class="st7" d="M308,379.4c-6.1,6.1-9.7,13.9-9.1,19.7l0,0.5l0.5,0.2c6.5,2.2,15.9,3.5,24.4,3.5c6.8,0,13-0.9,16.7-2.8
	c9.9,0.9,18.8,1.2,20.8-4.1c6.3,0,9.5-2.3,9.9-6.8c0.5-6.7-9-17.5-17.3-21.9l-0.4,0.7l0.4-0.7c-4-2.2-8.9-0.6-14.6,1.3
	c-4.7,1.6-10.1,3.4-15.6,3C318.9,371.5,313.2,374.2,308,379.4z M309.1,380.5c4.8-4.8,10.2-7.4,14.4-7c5.8,0.5,11.4-1.4,16.2-3
	c5.3-1.8,9.9-3.3,13.3-1.5c8.6,4.6,16.9,15,16.5,20.4c-0.1,1.6-0.4,5.5-8.9,5.4h-0.6l-0.1,0.6c-1.1,4.3-8.2,4.5-19.5,3.5h-0.2
	L340,399c-7,3.9-26.7,3.5-39.5-0.6C300.1,393.2,303.6,386,309.1,380.5L309.1,380.5z"/>
<path class="st8" d="M227,165c13,7.7,70.2,44.3,73.3,52.7c4.6,12.4-4.1,53.2-14.9,60c3.1-9.4,7.3-20,0.9-30.3
	c-7.3-11.7-18.4-10.5-34.7-27.9c-11.9-12.7-23.6-31.7-36.2-32s-32.9,27.7-52.6,32.9C175.6,207.3,214.1,157.3,227,165z"/>
<path class="st9" d="M364.5,80.6c0,0-11.4-9.2-16.3-17.8c0,0-1.5-14.1,10.8-18.4c9.6-3.3,19.3,6.5,18.8,14.7
	C377.8,59.2,376.9,78,364.5,80.6z"/>
<path class="st10" d="M366.8,51.7c0,0-9.7-4-16.3,14.1c0,0,5.9,5.4,12.6,6.4C363.1,72.2,376.5,57.6,366.8,51.7z"/>
<path class="st11" d="M367.5,52.1c0,0-10.2-2.2-14,13.7c-0.8-0.5-1.5-1.1-2.2-1.8c1.2-2.7,2.5-5.3,4-7.8
	C356.6,54.1,361.5,47.9,367.5,52.1z"/>
<path class="st11" d="M376.2,53.7c0,6.2-1.4,12.4-4.2,18l1.8,1c1.1-2.3,2-4.7,2.6-7.1C376.4,65.6,379,57.2,376.2,53.7z"/>
<path class="st12" d="M276.2,24.6c0,0-5.4-21.3-34.4-17.1c0,0-13.8,3.3-22.4,19.9c0,0-6.8,10.5-19.7,6.3c0,0,2.3,5.8,12,5.6
	c0,0-13.3,9.5-14.7,23.5s-7.7,48.2-14.8,65.8s-8.6,66.6,31.3,84.3c0,0,5.6,11.2,17.5,14.1c0,0,35.2,7.7,45.2,24
	c0,0,1.8-7.5-2.8-11.4c0,0,6.1,4.7,19.4,6.1s26.1,15,23.7,28.1c0,0,6.8-12.5,14.5-16.1s17.7-26.5,17.4-40.5s-2.8,13.4,7.2,16
	c0,0-1.9-22.3,4.7-28.1s19-9.4,18.1-32.6c0,0,0,10.6,5.9,13.4c0,0-3.1-12.3,2.5-23.1s14.7-26.6,10.3-41c-2.8-9.1-6.5-17.9-10.9-26.4
	c0,0,7.5,0.6,9.4,0c0,0-10.3-4.8-16.5-12.7s-14.7-32.1-19.7-41.2s-14.3-22-30.4-28.7c0,0,7.1-2.6,8.3-8.1c0,0-12,4.9-20.7,0
	S286.4-1.9,276.2,24.6z"/>
<path class="st13" d="M286.4,46.3c0,0,24.3-25,43.7-2.1s10.4,39.5,32.6,54.1c0,0-6.2,0.7-12.8-4.2c0,0,22.5,12.8,6.2,59
	c0,0-4.9-9-4.9-16.3c-0.2,6.5-3.4,12.5-8.7,16.3c-9,6.6-8,21.9-5.9,27.1c0,0-4.9-1.7-6.6-8.7l-37.8,8.7l-20.8-1.7
	c0,0,7.6,13.5,4.9,21.9c0,0-7.6-14.2-14.6-16.3s-17.3-8.7-17.3-8.7s3.5,16.6,8.7,21.1c0,0-21.9-12.5-25.7-33l-3.8-20.5l0,0
	c0,0-2.8,3.8-2.4,8s-3.5-15.3,3.1-24.6s4.9-20.1,4.9-20.1s-4.5,18.4-14.2,22.2l2.1-5.9c0,0-12.5,14.2-21.9,16c0,0-1-4.9,7.3-11.8
	s18.4-15.6,19.4-28.8c0,0,2.1,9.4-2.4,16.7c0,0,11.8-12.5,11.8-27.1s-3.5-35,10.8-46.8c14.2-11.8,28.1,2.8,28.1,2.8s-1-4.5-4.9-6.2
	l4.5,0.3c0,0-3.4-4.8-6-7.9c0,0,6.9,4.7,10.1,11.3c0,0-6.2-7.5-1.4-11.7c0,0,1.8,6.2,3.9,9.3l2.1-10.6c0,0-1.6,9.2,2.1,10.2
	c0,0,4.2-9.5,7-11.6c0,0-4.4,4.2-3.4,14.3c1.6-2,2.9-4.2,3.8-6.6C288.3,38.5,287.8,42.6,286.4,46.3z"/>
<path class="st1" d="M334.2,94.3c0,0,2.9-43.7-39.4-47c-2.9-0.2-5.7,0.5-8.2,1.8c-1.9,1.1-5,3.8-8,4.1c-4.6,0.2-9.2-0.1-13.7-0.9
	c0,0-22.8-3.7-28.9,25.8c-4.4,21.3,7.2,42.7,7.2,42.7s-23.8,29.5,15.2,50.2c0,0,21.7,5.5,26.7,18.5l37.3-5.8l5-15.4
	c-0.8-5.9,1.9-11.7,6.8-15c8.5-6.1,21.2-24.2,15.8-38.8S334.2,94.3,334.2,94.3z"/>
<path class="st14" d="M324.4,160.6c0,0,1.2,12.2-9.1,13.8s-18.9,1.6-26.4-8.7s-16.6-26-16.6-26s8.7,22.1,9.1,37.1
	s8.7,24.8,29.6,24.4c0,0,16.8-1,21.1-13.7c1.2-6.1,0.2-12.5-2.8-17.9C329.3,169.6,324.9,163.1,324.4,160.6z"/>
<path class="st15" d="M320.6,152.6c0,0-6.6,5-22.7,2.9S283,145.1,283,145.1h28.5l10.2,0.8L320.6,152.6z"/>
<path class="st16" d="M324.7,152.6l-1.3,11.5l-5.2,7.7h-14.5l-10.9-2.4l-7.1-9c0,0-10.7-16.7-12-20.1l5.1-0.8l27,0.8
	C305.8,140.5,327.2,143,324.7,152.6z"/>
<path class="st14" d="M326.6,122c0,0,12.6,5.4,7.8,17.6s-18.7,10.8-21.6,6.8v-5c0,0,1.4,10-6.6,10.9s-19.2-0.3-32.5-12.7
	c0,0,4.6-10.5,19.9-8.9l21.8-2.4L326.6,122z"/>
<path class="st17" d="M323.9,116.8c0,0-9,9.8-33.1,7.2c0,0-2.6,6.8,10.6,12c0,0,4.5,2.9,6.9,4.5c6,4,8.9-0.8,8.9-0.8
	s2.4-5.9,4.3-7.5S329,121.6,323.9,116.8z"/>
<path class="st18" d="M278.9,118.9c0,0,17.6-20.9-6.6-40.1c0,0-11.9-4.1-13.6,7.1c-4.4,28.7,6.1,26.8,9.4,31.7L278.9,118.9z"/>
<path class="st19" d="M272.3,78.8c0,0-10.4-2-14.2,12.3c0,0-3.2-13,5.2-17.9S272.3,78.8,272.3,78.8z"/>
<path class="st18" d="M332.6,96.1c-0.1-9.5-3.6-18.6-9.8-25.7c-10.3-11.6-18.2,0.3-18.2,0.3s-0.5,27.7,9.8,32.5L332.6,96.1z"/>
<path class="st19" d="M304.6,70.7c0,0-2.2-5.5,0-9.4s16.2,0,18.8,9.4C323.4,70.7,309.2,62.5,304.6,70.7z"/>
<path class="st20" d="M318.2,164.4c0,0-10-10.5-27.6-7.3c0,0-4.5,0.5-2.4,5.2s18.7,8.1,18.7,8.1l11.4-0.9L318.2,164.4z"/>
<path class="st19" d="M327,147.9c0,0-3.1,8.1-2.5,14.5c0,0,1.7,12-12.4,12.4s-18-1.4-24.4-10.9s-15.3-24.3-15.3-24.3h1.4
	c0,0,11.2,21.2,18.7,26.5s19.9,7.5,28.2,0.4c0,0,1.5-7.6,1.5-10.8S327,147.9,327,147.9z"/>
<path class="st15" d="M327,147.9l-5.1,10.6c0,0-2.4,4-1.9-9.2C320,149.3,324.7,149.3,327,147.9z"/>
<path class="st15" d="M301,152.6l-2.5,9.1c0,0-1.8,4.1-3.8-9.9C294.8,151.8,299.6,152.6,301,152.6z"/>
<path class="st15" d="M320.6,166.6c0,0-0.7-6.6-2.5-8.2s-2.2,11.1-2.2,11.1S320.3,168,320.6,166.6z"/>
<path class="st15" d="M302.1,170.4c0,0-0.6-8-1.1-9.6s-3.3,5.2-4,7.9C298.6,169.6,300.3,170.2,302.1,170.4z"/>
<path class="st15" d="M321.3,162.3c0,0-10.3,10.1-30.7,0c0,0-3.2-2.4-4.2-5l-0.6,1.8c0,0,4.5,7.5,11.2,9.7
	c5.1,1.7,11.8,3.8,18.9,0.8C315.8,169.5,323.4,167.7,321.3,162.3z"/>
<ellipse transform="matrix(0.9846 -0.175 0.175 0.9846 -13.7117 49.0152)" class="st21" cx="271" cy="102.2" rx="12.3" ry="15.4"/>
<ellipse transform="matrix(0.9593 -0.2823 0.2823 0.9593 -12.6814 94.2855)" class="st22" cx="320.8" cy="91.1" rx="11.5" ry="14.8"/>
<ellipse transform="matrix(0.9846 -0.175 0.175 0.9846 -14.0335 49.1056)" class="st23" cx="271.4" cy="104.1" rx="6.9" ry="8.5"/>
<ellipse transform="matrix(0.9694 -0.2455 0.2455 0.9694 -17.4158 69.8051)" class="st19" cx="271.3" cy="104.8" rx="4.1" ry="4.9"/>
<ellipse transform="matrix(0.9939 -0.1104 0.1104 0.9939 -9.6426 31.0317)" class="st24" cx="275.3" cy="102.6" rx="1.5" ry="1.5"/>
<circle class="st25" cx="269.1" cy="99.6" r="2.5"/>
<ellipse transform="matrix(0.9593 -0.2823 0.2823 0.9593 -13.9277 93.9972)" class="st23" cx="319.2" cy="95.3" rx="6.4" ry="8.2"/>
<ellipse transform="matrix(0.9593 -0.2823 0.2823 0.9593 -14.1039 93.9488)" class="st19" cx="318.9" cy="95.9" rx="3.8" ry="5.1"/>
<ellipse transform="matrix(0.9939 -0.1104 0.1104 0.9939 -8.317 36.1493)" class="st24" cx="322.2" cy="93.2" rx="1.4" ry="1.5"/>
<circle class="st25" cx="317" cy="90.4" r="2.5"/>
<path class="st11" d="M301.7,124c0,0-10.9-3.9-12.3-10.3c0,0-0.8,7.2,1,10C290.4,123.7,300.3,124.3,301.7,124z"/>
<path class="st11" d="M281.2,174.1c-4.9-4.1-10.6-7.3-16.8-9.2c-10-3.1-26.4-12.4-27.1-32.6c0,0-5.4,15.2,4.8,26
	s13.5,11.8,23.4,15.2s16.1,9.9,17.3,12.7C283,186.2,280.7,176.9,281.2,174.1z"/>
<path class="st11" d="M327.7,167.1c0,0-3-4.6-3.3-6.5s1.5-10.6,2.6-12.6c0.8-1.4,1.8,0.8,6.7-7.1c1.1-1.8,15.1-8.6,17.5-16.5
	c0,0-0.1,5.8-4.2,13.5c-3.8,7.1-9,13.2-15.5,18C327,159.2,327.7,167.1,327.7,167.1z"/>
<path class="st14" d="M323.7,116.2c0,0-2.5-9.6-14.5-13.5C309.2,102.7,321.7,111.7,323.7,116.2z"/>
<path class="st26" d="M282.3,119.8c0,0-14.5-1.5-22.6-2.6C259.7,117.2,274.6,116.4,282.3,119.8z"/>
<path class="st26" d="M335.5,100.6c0,0-10.9,6-17.1,9C318.4,109.7,328.2,101.7,335.5,100.6z"/>
<path class="st27" d="M394.4,94.9c0,0-13.8-2.8-18.5-7.9c2.3,4,6,6.8,10.5,7.9C386.4,94.9,393.5,95.9,394.4,94.9z"/>
<path class="st13" d="M384.4,185.8c0,0-7.3-9.6-3.8-27.7c0,0-2.9,8-6.6,23.8s-15.7,18.1-15.7,18.1s-4.2,1.3-4.8,15.4
	s2.1,17.7,2.1,17.7s-1-16.4,1.8-23.1c1.9-4.2,5.2-7.6,9.3-9.7c0,0,7.7-5.1,9.5-11.6s2.3-16.3,2.3-16.3S378.2,182.5,384.4,185.8z"/>
<path class="st13" d="M364.3,185.1c0.3,5.3-0.9,10.6-3.5,15.2l-3.2,4.1l-1.5,10.7l-0.5,18.2c0,0-5.6-0.5-7.3-12.8
	c0,0-0.7,25.2-16.2,36.7s-15.6,16.7-15.6,16.7s4-16.9-18.8-27.1c0,0-15.7-1.7-24.3-7.2c0,0,4.9,3,2.8,11.4c0,0-8-12.2-30-19.5
	s-26.9-6.6-32.6-18.6c0,0-23.9-4.5-32.4-39c0,0,11.9,22.1,23.5,25c0,0-11.3-18.1-10-28.2c0,0,7.7,26.2,20.2,29.7
	c0,0-2.3-1.7-3.1-8.9s1.6,16.6,17.4,22.8c0,0-2.3-3.2-2.6-5.5s4.8,10.5,15.3,13.4s22.7,8,27.1,10.9c0,0-5.4-4.9-5.9-9.5
	c0,0,9.2,12.7,23.9,14.8s22.1,4.6,28.5,15.6c0,0-1.8-10.6-6.8-14.6c0,0,8.8,4.6,9.3,11.9c0,0,1.6-14.7,9.1-19.2c0,0-4.9,11-2.8,19.9
	c0,0,11.8-5.7,18-20.7c0,0,6-13,5.7-17.2s6-14.9,4.4-25.5c2.1,5.9,2.3,12.2,0.7,18.2l-0.2,0.8C349.7,218.2,363.6,189,364.3,185.1z"
	/>
<path class="st28" d="M332.6,142.5c0,0-12.3,6.6-19.6-0.1c0,0-7.1,10-27.9,5.6c0,0,8.1,5.5,17.8,5.4c8.4-0.1,8.9-2.8,9.8-7.7
	c0,0,0.2,4.9,10.7,3.3C330.8,147.9,332.6,142.5,332.6,142.5z"/>
<path class="st28" d="M329.4,192.5c0,0-30.6,7.1-38.8-4.8s-9.1-30.3-14.7-37.7c0,0,4.8,16,5.2,22.3s0.1,18.5,9.5,24.2
	S319.7,205.4,329.4,192.5z"/>
<path class="st29" d="M215.7,84.8c0,0,0.2,16.7-8,23.2c0,0-13.5,0.5-20.4-11.6c-4.7-8.3,1-21.8,9-22.2
	C196.3,74.3,212.1,73.3,215.7,84.8z"/>
<path class="st10" d="M192.9,87.4c0,0-2.9,13.5,17.2,17.7c0,0,4.9-7,4.8-14.2C214.9,90.8,197.6,76.3,192.9,87.4z"/>
<path class="st11" d="M213.6,97.3c0,0-1.9-2.9-6.7-4.4c1.7-0.9,3.7-0.9,5.5,0c0,0-12.8-13.1-19.6-5.8c0,0,1.5-6.7,10.1-3.5
	c0,0,9.3,3.2,11.9,7C214.8,90.6,215,95.1,213.6,97.3z"/>
<path class="st11" d="M208.3,106.3c-0.1,0.2,0.5,0.2-0.2,0.7l-0.7,0.7c-4.4-0.3-3.9,0-10.4-2.7c-6-2.5-8.9-10.3-8.9-10.3
	C194.4,104.8,205.9,106.1,208.3,106.3z"/>
<path class="st30" d="M42.4,299.3c0,0,33.5-3,39.9-37.9c0,0,2.6-33.1,9-45.6c0,0-25.4-1.5-44,30.5S31.1,298,42.4,299.3z"/>
<path class="st26" d="M40.4,298.9c0,0-7-14.5,11-47.2s39.8-35.9,39.8-35.9s-16.8-2.5-32.4,15.2s-26.4,41.4-25.2,54
	S38.4,298.4,40.4,298.9z"/>
<path class="st26" d="M44.2,299.1c0,0,4.5-16.7,10.8-24.2c0,0-12.1,2.5-15.7,23.7C40.8,299.3,42.5,299.5,44.2,299.1z"/>
</svg>
