<svg xmlns="http://www.w3.org/2000/svg" xmlns:xlink="http://www.w3.org/1999/xlink" viewBox="0 0 237.4 329.36"><defs><style>.cls-1,.cls-11,.cls-16,.cls-9{fill:none;}.cls-2{isolation:isolate;}.cls-3{fill:#9c6f38;mix-blend-mode:multiply;opacity:0.6;}.cls-4{fill:#311301;}.cls-5{fill:#412902;}.cls-6{fill:#231600;}.cls-7{clip-path:url(#clip-path);}.cls-8{fill:#6d3b19;}.cls-9{stroke:#351a07;}.cls-11,.cls-16,.cls-9{stroke-miterlimit:10;}.cls-16,.cls-9{stroke-width:0.41px;}.cls-10{fill:#5b4631;}.cls-11{stroke:#754904;stroke-width:0.2px;}.cls-12{fill:#6d573f;}.cls-13{fill:#493623;}.cls-14{fill:#c9af8f;}.cls-15{fill:#8e5125;}.cls-16{stroke:#3d1e0a;}.cls-17{fill:#f4e9df;}.cls-18{fill:#6b460c;}.cls-19{fill:#cb8100;}.cls-20{fill:#060604;}.cls-21{fill:#fff;}.cls-22{clip-path:url(#clip-path-2);}.cls-23{fill:url(#linear-gradient);}.cls-24{clip-path:url(#clip-path-3);}.cls-25{fill:url(#linear-gradient-2);}.cls-26{clip-path:url(#clip-path-4);}.cls-27{fill:url(#linear-gradient-3);}.cls-28{clip-path:url(#clip-path-5);}.cls-29{fill:url(#linear-gradient-4);}.cls-30{clip-path:url(#clip-path-6);}.cls-31{fill:url(#linear-gradient-5);}</style><clipPath id="clip-path"><path id="SVGID" class="cls-1" d="M200.77,95.76c-8.8-22.92-24.22-41.25-42.58-52-8.84-23.39-25.52-41.45-52.5-44C69.92-3.6,34,17.24,11.78,43.81-10.83,70.93-15.14,112.86-11,146.66c3.42,28,17.74,26.73,35.86,20.33C8.58,185.15-.86,208.92,11.32,233.08c13.46,26.69,39.82,41.26,68,44,18.18,18,43.86,31.64,69.4,21.2,34-13.89,50.29-59.48,57.06-92.9C213,169.8,214,130.15,200.77,95.76Z"/></clipPath><clipPath id="clip-path-2"><path id="SVGID-2" data-name="SVGID" class="cls-1" d="M110.25,165.86a38.57,38.57,0,0,0,8.22,14.73,12.16,12.16,0,0,0,5.08,3.78,5.28,5.28,0,0,0,5.82-1.45,3.71,3.71,0,0,0,.13-4,22.38,22.38,0,0,0,20.36,2.57,3.28,3.28,0,0,0,1.32-.79c1.44-1.68-1.16-3.82-3.27-4.5A43,43,0,0,0,160,177.61c2.56-.07,5.38-.51,7-2.48,1.4-1.71,1-4.8-.83-5.7a40.51,40.51,0,0,0,12.36,1.11,3.47,3.47,0,0,0,1.83-.5,2.76,2.76,0,0,0,.9-2.07,7.17,7.17,0,0,0-5.31-7.28c2.89.63,5.32,2.6,8.17,3.36s6.73-.56,6.84-3.51c.08-2-1.55-3.52-3.1-4.72a55.5,55.5,0,0,0-6.44-4.3c1.47.13,2.65,1.22,4,1.76s3.42.09,3.52-1.38a2.7,2.7,0,0,0-.54-1.56,16.45,16.45,0,0,0-8.84-7Z"/></clipPath><linearGradient id="linear-gradient" x1="-1222.19" y1="1041.74" x2="-1221.99" y2="1041.74" gradientTransform="matrix(0, 398.5, 398.5, 0, -414982.68, 487169.32)" gradientUnits="userSpaceOnUse"><stop offset="0" stop-color="#6d3b19"/><stop offset="0.38" stop-color="#6d3b19"/><stop offset="0.8" stop-color="#8c5028"/><stop offset="1" stop-color="#8c5028"/></linearGradient><clipPath id="clip-path-3"><path id="SVGID-3" data-name="SVGID" class="cls-1" d="M125.41,185.29A38.54,38.54,0,0,0,133.62,200a12.16,12.16,0,0,0,5.08,3.78c2,.66,4.54.26,5.82-1.45a3.71,3.71,0,0,0,.13-4A22.39,22.39,0,0,0,165,200.92a3.22,3.22,0,0,0,1.32-.79c1.44-1.68-1.16-3.83-3.26-4.5a43,43,0,0,0,12.1,1.41c2.56-.07,5.39-.51,7-2.49,1.4-1.7.95-4.79-.83-5.69A40.48,40.48,0,0,0,193.72,190a3.43,3.43,0,0,0,1.82-.5,2.81,2.81,0,0,0,.91-2.08,7.18,7.18,0,0,0-5.31-7.27c2.88.63,5.31,2.6,8.16,3.36s6.73-.56,6.85-3.51c.08-2-1.55-3.53-3.11-4.72a55.39,55.39,0,0,0-6.43-4.3c1.46.13,2.64,1.22,4,1.76s3.42.09,3.51-1.38a2.74,2.74,0,0,0-.53-1.56,16.47,16.47,0,0,0-8.85-7Z"/></clipPath><linearGradient id="linear-gradient-2" x1="-1222.42" y1="1041.67" x2="-1222.22" y2="1041.67" gradientTransform="matrix(0, 398.5, 398.5, 0, -414939.47, 487281.55)" xlink:href="#linear-gradient"/><clipPath id="clip-path-4"><path id="SVGID-4" data-name="SVGID" class="cls-1" d="M152.61,206.28A38.69,38.69,0,0,0,160.82,221a12.22,12.22,0,0,0,5.08,3.77,5.28,5.28,0,0,0,5.82-1.45,3.7,3.7,0,0,0,.13-4,22.41,22.41,0,0,0,20.36,2.56,3.11,3.11,0,0,0,1.32-.79c1.44-1.68-1.16-3.82-3.26-4.49a43,43,0,0,0,12.1,1.4c2.56-.07,5.39-.5,7-2.48,1.4-1.71,1-4.79-.83-5.7A40.17,40.17,0,0,0,220.92,211a3.26,3.26,0,0,0,1.82-.5,2.81,2.81,0,0,0,.91-2.07,7.18,7.18,0,0,0-5.31-7.28c2.88.63,5.31,2.6,8.16,3.36s6.73-.56,6.85-3.5c.08-2-1.55-3.53-3.1-4.73a57.72,57.72,0,0,0-6.44-4.3c1.46.13,2.64,1.22,4,1.76s3.42.09,3.51-1.37a2.77,2.77,0,0,0-.53-1.57A16.47,16.47,0,0,0,222,183.8Z"/></clipPath><linearGradient id="linear-gradient-3" x1="-1222.71" y1="1041.5" x2="-1222.51" y2="1041.5" gradientTransform="matrix(0, 398.5, 398.5, 0, -414842.02, 487418.27)" xlink:href="#linear-gradient"/><clipPath id="clip-path-5"><path id="SVGID-5" data-name="SVGID" class="cls-1" d="M204.68,227.39a16.83,16.83,0,0,0,3.57,6.41,5.33,5.33,0,0,0,2.21,1.65,2.32,2.32,0,0,0,2.54-.64,1.61,1.61,0,0,0,.05-1.74,9.74,9.74,0,0,0,8.86,1.12,1.35,1.35,0,0,0,.58-.34c.62-.73-.51-1.67-1.42-2a18.65,18.65,0,0,0,5.26.61,4,4,0,0,0,3.06-1.08,1.74,1.74,0,0,0-.36-2.48,17.38,17.38,0,0,0,5.38.48,1.34,1.34,0,0,0,.79-.21,1.26,1.26,0,0,0,.4-.9,3.13,3.13,0,0,0-2.32-3.17c1.26.27,2.32,1.13,3.56,1.46s2.93-.24,3-1.52a2.76,2.76,0,0,0-1.35-2.06,24.05,24.05,0,0,0-2.81-1.87,6.59,6.59,0,0,1,1.75.76c.59.24,1.49,0,1.53-.59a1.18,1.18,0,0,0-.23-.68,7.18,7.18,0,0,0-3.85-3Z"/></clipPath><linearGradient id="linear-gradient-4" x1="-1223.51" y1="1042.25" x2="-1223.31" y2="1042.25" gradientTransform="matrix(0, 173.43, 173.43, 0, -180535.71, 212406.44)" xlink:href="#linear-gradient"/><clipPath id="clip-path-6"><path id="SVGID-6" data-name="SVGID" class="cls-1" d="M219.83,243.72a12.81,12.81,0,0,0,2.73,4.88,4,4,0,0,0,1.68,1.25,1.75,1.75,0,0,0,1.93-.48,1.22,1.22,0,0,0,0-1.32,7.46,7.46,0,0,0,6.76.85,1.1,1.1,0,0,0,.44-.26c.47-.56-.39-1.27-1.09-1.49a14.35,14.35,0,0,0,4,.46,3,3,0,0,0,2.32-.82,1.32,1.32,0,0,0-.27-1.89,13.47,13.47,0,0,0,4.1.37,1.13,1.13,0,0,0,.6-.17.89.89,0,0,0,.3-.69,2.36,2.36,0,0,0-1.76-2.41c1,.21,1.77.86,2.71,1.11s2.23-.18,2.27-1.16a2.08,2.08,0,0,0-1-1.57,18.77,18.77,0,0,0-2.13-1.42,5.17,5.17,0,0,1,1.33.58c.45.18,1.13,0,1.16-.45a.9.9,0,0,0-.17-.52,5.48,5.48,0,0,0-2.94-2.31Z"/></clipPath><linearGradient id="linear-gradient-5" x1="-1224.36" y1="1042.64" x2="-1224.16" y2="1042.64" gradientTransform="matrix(0, 132.17, 132.17, 0, -137574.07, 162056.97)" xlink:href="#linear-gradient"/></defs><g class="cls-2"><g id="Layer_1" data-name="Layer 1"><path class="cls-3" d="M215.77,64.2c-20.37-35.27-66.07-77-109.5-58.85a5.85,5.85,0,0,0-2.46,3.89C51.09,23.67,15.64,64.89,4.5,121.14c-12.73,64.25,9,146.64,61.42,188.3C148.3,374.87,216.27,254.9,231.19,188.8,240.56,147.3,237.25,101.38,215.77,64.2ZM71.24,310C21,268,.17,195.67,12.55,132c1.22-14.55,4.67-28.59,12.92-40.67,1-1.45,3.82-1.11,3.63,1-3.46,38-6.81,76.32,1,114A225.38,225.38,0,0,0,50,262.93c7.75,15.1,17.2,29.25,24.34,44.69A2,2,0,0,1,71.24,310Z"/><path class="cls-4" d="M199.68,88c-21.56-61.38-93-89-139.08-36a2.49,2.49,0,0,0-.52,1.52C28.18,91.5,22.58,146.94,30.7,194.66c9.11,53.54,60.24,140,125.31,99,26.23-16.52,39.12-54.55,47.21-82.56A202.88,202.88,0,0,0,199.68,88Z"/><path class="cls-5" d="M200.66,201.21c-6.77,33.42-23.08,79-57.07,92.9-29.95,12.24-60.13-8.53-78.12-30.82-15.69-19.46-24.59-43.8-29.86-68C25,146.58,32,86.86,67.11,49.09,114,7.34,174.27,36,195.61,91.63,208.81,126,207.86,165.67,200.66,201.21Z"/><path class="cls-6" d="M148.58,37.25C126,62.41,106.29,98.36,99.44,112.16,78,155.33,72.86,206.59,82.36,253.66c2.14,10.59,4.68,21.6,7.83,32.4,15.87,10.46,34.68,15.7,53.4,8.05,34-13.89,50.3-59.48,57.07-92.9,7.2-35.54,8.15-75.19-5-109.58C186.11,66.89,168.89,47.5,148.58,37.25Z"/><path class="cls-4" d="M87.36,319.91C11.16,273.85-4.7,157.09,29.73,80.32c.8-1.76-1.13-2-1.86-.55C-8.63,153.81,2.7,282.9,86,322.21,87,322.65,88.25,320.44,87.36,319.91Z"/><path class="cls-4" d="M198.77,61.46C186.6,33.54,160.82,8,129.12,7c-.83,0-1.84,2-.83,2.12,33.13,3.84,51.35,29,68.79,54.41C197.79,64.57,199.12,62.27,198.77,61.46Z"/><path class="cls-4" d="M220.28,164.44c-.87,54.95-22.33,123.63-73.23,152.12-.51.29-1.36,2.3-.23,2,25.62-7.19,42-35.94,53.47-57.82A200.12,200.12,0,0,0,222.9,162.9C222.85,160.68,220.3,163.15,220.28,164.44Z"/><g class="cls-7"><path class="cls-8" d="M40.88,142.61s-34.19,43.14,40.8,95.21,111.14-24.48,111.14-24.48Z"/><path class="cls-9" d="M40.88,142.61s-34.19,43.14,40.8,95.21,111.14-24.48,111.14-24.48Z"/><path class="cls-10" d="M113,295.46s-2.27,4.08-11.27,3.69-15.22-1.49-16.13,4.21c0,0,.59,5.76,8,2.39s.26-.13.26-.13L112.19,302l4.08-5.18Z"/><path class="cls-11" d="M113,295.46s-2.27,4.08-11.27,3.69-15.22-1.49-16.13,4.21c0,0,.59,5.76,8,2.39s.26-.13.26-.13L112.19,302l4.08-5.18Z"/><path class="cls-10" d="M88,302.71a1.52,1.52,0,0,0,.45-2.59c-1.56-1.62-6.35,1.75-7.19,4.08,0,0,4-2.14,6.74-1.49"/><path class="cls-11" d="M88,302.71a1.52,1.52,0,0,0,.45-2.59c-1.56-1.62-6.35,1.75-7.19,4.08C81.23,304.2,85.24,302.06,88,302.71Z"/><path class="cls-12" d="M141.91,256.34s-2.33,15.28-11.27,23.31-10,17.75-9.45,19.56c0,0,.32,1.75,2.85,2.53,0,0,4.4-1.3,6.8-.65s1.55,2,1.55,2-2.46,3-5,3.62-1.43.78-5.64,1.36-12.3.65-12.3.65L103,307.11s-9.39,2.92-9.91-.77c0,0-1.42-4.6,7.64-4.73s12.76-4.92,17-15.16,10.94-19.1,6.41-29.79-3.44-11.72-3.44-11.72l3.83-1.88,6,1.3,3,1.68Z"/><path class="cls-11" d="M141.91,256.34s-2.33,15.28-11.27,23.31-10,17.75-9.45,19.56c0,0,.32,1.75,2.85,2.53,0,0,4.4-1.3,6.8-.65s1.55,2,1.55,2-2.46,3-5,3.62-1.43.78-5.64,1.36-12.3.65-12.3.65L103,307.11s-9.39,2.92-9.91-.77c0,0-1.42-4.6,7.64-4.73s12.76-4.92,17-15.16,10.94-19.1,6.41-29.79-3.44-11.72-3.44-11.72l3.83-1.88,6,1.3,3,1.68Z"/><path class="cls-13" d="M96.19,305.17a1.65,1.65,0,0,0-.45-2.78c-2.08-1.11-7.19,1.23-7.39,4.72,0,0,4.93-3.36,7.84-1.94"/><path class="cls-11" d="M96.19,305.17a1.65,1.65,0,0,0-.45-2.78c-2.08-1.11-7.19,1.23-7.39,4.72C88.35,307.11,93.28,303.75,96.19,305.17Z"/><path class="cls-10" d="M129.19,302.13s-3.79,2.33-13.31,1.84-12.44-.29-14.19,3.6,4.08,6.89,8.65,3.59,14.86-2.91,14.86-2.91l4.38-3.21Z"/><path class="cls-11" d="M129.19,302.13s-3.79,2.33-13.31,1.84-12.44-.29-14.19,3.6,4.08,6.89,8.65,3.59,14.86-2.91,14.86-2.91l4.38-3.21Z"/><path class="cls-12" d="M140.49,253.62s4.53,12.17.13,25a106.73,106.73,0,0,1-10.75,22.28,16.78,16.78,0,0,1-8.1,5.24c-5.37,1.62-6.93,0-10.43,1.75a2.92,2.92,0,0,0,.91,5.63c2.33-.06,10.62,0,16.45-3.3s11.27,4.92,18.52,3.63,5.38-6.22,1.23-7.51-7.51,3.36-10-2.79c0,0-1.11-3,4.72-12.95,0,0,15.09-13.86,17.75-29.73s-20.4-7.25-20.4-7.25"/><path class="cls-11" d="M140.49,253.62s4.53,12.17.13,25a106.73,106.73,0,0,1-10.75,22.28,16.78,16.78,0,0,1-8.1,5.24c-5.37,1.62-6.93,0-10.43,1.75a2.92,2.92,0,0,0,.91,5.63c2.33-.06,10.62,0,16.45-3.3s11.27,4.92,18.52,3.63,5.38-6.22,1.23-7.51-7.51,3.36-10-2.79c0,0-1.11-3,4.72-12.95,0,0,15.09-13.86,17.75-29.73S140.49,253.62,140.49,253.62Z"/><path class="cls-13" d="M112.64,310.61s2.27-1.42-.39-2.85-6.48,2.27-7.06,3.95a23.52,23.52,0,0,1,7.45-1.1"/><path class="cls-11" d="M112.64,310.61s2.27-1.42-.39-2.85-6.48,2.27-7.06,3.95A23.52,23.52,0,0,1,112.64,310.61Z"/><path class="cls-13" d="M150.14,307.11s-2.59.13-1.69,2.4,4.15-1.62,8.55,2.2c0,0-.84-3.37-6.86-4.6"/><path class="cls-11" d="M150.14,307.11s-2.59.13-1.69,2.4,4.15-1.62,8.55,2.2C157,311.71,156.16,308.34,150.14,307.11Z"/><path class="cls-13" d="M105.29,307.66s2.23-1.65-1.07-2.72S98,308.15,98.1,309.7a8.55,8.55,0,0,1,7.19-2"/><path class="cls-11" d="M105.29,307.66s2.23-1.65-1.07-2.72S98,308.15,98.1,309.7A8.55,8.55,0,0,1,105.29,307.66Z"/><path class="cls-14" d="M44.38,148.83s-3.89,21.76,3.11,40.41l1.16-8.16s2.34,21,21,40l-.39-6.22s7.38,22.15,27.2,29.92l-1.56-5.05s8.06,13.92,30.7,18.65L122.48,251s10,10.3,10.5,17.87A11.75,11.75,0,0,0,135.62,258a13.26,13.26,0,0,0-.7-2c-3.35-7.51,4.44,5.69,4.66,13.21l3.11-12.82L152.4,267l-2.33-11.27s1.17,9.33,18.65,5.83l-4.27-7.77,14,5.05-5.44-7s9.32,1.16,21.37,12L192,253.75,208,268.9l-1.55-8.55,18.26,17.88-3.5-12.82,12.44,14v-7s11.27,12.05,26.42,14.38L231.29,241.7l-19.82-8.16-23.32-7-80-80.05-8.94-11.27-20.6,4.28Z"/><path class="cls-11" d="M44.38,148.83s-3.89,21.76,3.11,40.41l1.16-8.16s2.34,21,21,40l-.39-6.22s7.38,22.15,27.2,29.92l-1.56-5.05s8.06,13.92,30.7,18.65L122.48,251s10,10.3,10.5,17.87A11.75,11.75,0,0,0,135.62,258a13.26,13.26,0,0,0-.7-2c-3.35-7.51,4.44,5.69,4.66,13.21l3.11-12.82L152.4,267l-2.33-11.27s1.17,9.33,18.65,5.83l-4.27-7.77,14,5.05-5.44-7s9.32,1.16,21.37,12L192,253.75,208,268.9l-1.55-8.55,18.26,17.88-3.5-12.82,12.44,14v-7s11.27,12.05,26.42,14.38L231.29,241.7l-19.82-8.16-23.32-7-80-80.05-8.94-11.27-20.6,4.28Z"/><path class="cls-8" d="M89.75,143.68s-4.38,20.4,9.9,40.51l.59-7.87s9.34,30.11,38.18,56.54c0,0,12.24,10.2,11.36-3.79,0,0,1.46,8.16,14.28,14.28l-.58-4.08a36.34,36.34,0,0,0,13.7,8.46c8.16,2.62-.59-6.42-.59-6.42s3.5,7.29,17.78,8.75l.29-3.79s6.24,5.95,28.22,14.22l.93.35s14.65,16.58,40.21,25.35c0,0,18.07,12.54,21,10.2L279.47,290s18.07,10.2,17.78,7.29a16.83,16.83,0,0,0-2.33-6.12s9.61,6.41,11.94,5.83-13.11-16.32-13.11-16.32,9.62,6.12,17.78,6.12c0,0,7.57,4.66,8.45,1.75S300.16,267,300.16,267a43.28,43.28,0,0,0,11.95,6.12c7.58,2.62-13.11-21-39.05-37.89,0,0,17.65,4.12-37.31-37.88,0,0-.29-7.87-12.53-19.53,0,0-9.27-20.4-26.52-36.43S159.11,104.05,154.44,93s-27.1,27.4-27.1,27.4L109,132Z"/><path class="cls-9" d="M89.75,143.68s-4.38,20.4,9.9,40.51l.59-7.87s9.34,30.11,38.18,56.54c0,0,12.24,10.2,11.36-3.79,0,0,1.46,8.16,14.28,14.28l-.58-4.08a36.34,36.34,0,0,0,13.7,8.46c8.16,2.62-.59-6.42-.59-6.42s3.5,7.29,17.78,8.75l.29-3.79s6.24,5.95,28.22,14.22l.93.35s14.65,16.58,40.21,25.35c0,0,18.07,12.54,21,10.2L279.47,290s18.07,10.2,17.78,7.29a16.83,16.83,0,0,0-2.33-6.12s9.61,6.41,11.94,5.83-13.11-16.32-13.11-16.32,9.62,6.12,17.78,6.12c0,0,7.57,4.66,8.45,1.75S300.16,267,300.16,267a43.28,43.28,0,0,0,11.95,6.12c7.58,2.62-13.11-21-39.05-37.89,0,0,17.65,4.12-37.31-37.88,0,0-.29-7.87-12.53-19.53,0,0-9.27-20.4-26.52-36.43S159.11,104.05,154.44,93s-27.1,27.4-27.1,27.4L109,132Z"/><path class="cls-15" d="M34.37,139l.46.93,4.79,9.85L41.08,146s0,5.83,7.87,9.91L53,153.3l11.07,5.54,9.62-7c-.59,4.67,1.45,5.25,14.57-7,0,0,3.9,9.55,27.68,2.62l-6.12-2.91s16.6,5.7,31.19-.88l-3.79-2.91s5.83,1.75,14.28-8.45l-.29-7s15.15-14.86,4.08-40.51-35.56-35-35.56-35l6.42-2.91-12.54,1.45-1.45-7.57-6.12,5.83S92.66,45.47,84.5,51.88l-8.74-2.33,2,3.5L59.73,50.42l2.91,2.63S40.79,55.67,34.08,70.53c0,0-11.95,16.62-8.16,44S34.37,139,34.37,139"/><path class="cls-16" d="M34.37,139l.46.93,4.79,9.85L41.08,146s0,5.83,7.87,9.91L53,153.3l11.07,5.54,9.62-7c-.59,4.67,1.45,5.25,14.57-7,0,0,3.9,9.55,27.68,2.62l-6.12-2.91s16.6,5.7,31.19-.88l-3.79-2.91s5.83,1.75,14.28-8.45l-.29-7s15.15-14.86,4.08-40.51-35.56-35-35.56-35l6.42-2.91-12.54,1.45-1.45-7.57-6.12,5.83S92.66,45.47,84.5,51.88l-8.74-2.33,2,3.5L59.73,50.42l2.91,2.63S40.79,55.67,34.08,70.53c0,0-11.95,16.62-8.16,44S34.37,139,34.37,139Z"/><path class="cls-17" d="M61.44,84.65c7,.25,14.11,3,18.06,8.47-.49-2-1-4-1.48-5.92l4.73,6.22c-.32-2.1-.65-4.19-1-6.29.39,3.41,3.29,6.73,6.88,6.7s6.49-4.55,4.2-7.19A4.94,4.94,0,0,1,95,91.34a13.3,13.3,0,0,0,4-5.76c0,2.29.06,4.59.1,6.88,2.59-5.85,6-11.76,11.63-15.11,8.06-4.77,18.45-3.18,27.7-5.19a54.51,54.51,0,0,0-17.26,16.48c-1.77,2.67-3.28,6.16-1.55,8.86,1.25,2,3.83,2.76,6.23,2.88a16.42,16.42,0,0,0,12.28-4.63,23.9,23.9,0,0,1-11.52,15,26,26,0,0,1-19.34,2.32,9.06,9.06,0,0,1,3.94,6.17l-4.92-4.29a19.27,19.27,0,0,0-.11,7.22,9.63,9.63,0,0,1-3.36-6.24,14.8,14.8,0,0,1-1,6.61L94,115a24.73,24.73,0,0,1-7.51,10.65q-.8-2.94-1.6-5.88a9.76,9.76,0,0,1-5.93,5.6,16.7,16.7,0,0,1,2.64-6,5.26,5.26,0,0,1-5.47,3l1.74-4.14c-7.25,2.7-14.72,5.43-22.5,5.32s-16-3.79-19-10.64c3.5.35,7.08.7,10.51-.06s6.74-2.86,7.91-6c1.42-3.88-.74-8.24-3.89-11.05s-11.67-4.82-6.13-8.29c4.08-2.54,12-3,16.7-2.8"/><path class="cls-18" d="M104.35,106S99.69,89,109.92,83s19,1.43,19,1.43,2.85,12.56-5.7,18.13-12.43-1-18.91,3.37"/><path class="cls-11" d="M104.35,106S99.69,89,109.92,83s19,1.43,19,1.43,2.85,12.56-5.7,18.13S110.83,101.56,104.35,106Z"/><path class="cls-18" d="M75.82,110.41S72.07,91.6,60.21,89.93,44,99.26,44,99.26s3.31,13.68,13.5,15.66,10.56-6.19,18.37-4.51"/><path class="cls-11" d="M75.82,110.41S72.07,91.6,60.21,89.93,44,99.26,44,99.26s3.31,13.68,13.5,15.66S68,108.73,75.82,110.41Z"/><path class="cls-19" d="M125.3,93.41a9.77,9.77,0,1,1-9.76-9.76,9.76,9.76,0,0,1,9.76,9.76"/><path class="cls-11" d="M125.3,93.41a9.77,9.77,0,1,1-9.76-9.76A9.76,9.76,0,0,1,125.3,93.41Z"/><path class="cls-20" d="M120.93,93.12a5.1,5.1,0,1,1-5.1-5.1,5.1,5.1,0,0,1,5.1,5.1"/><path class="cls-21" d="M120.51,90.56a2.42,2.42,0,1,1-2.41-2.41,2.41,2.41,0,0,1,2.41,2.41"/><path class="cls-18" d="M86,117.94s-5.28-9.7,3.49-11.27c9.23-1.65,8,9.72,8,9.72s-2.23,18.94-3.5,15.34c0,0-3.69-6.8-8-13.79"/><path class="cls-11" d="M86,117.94s-5.28-9.7,3.49-11.27c9.23-1.65,8,9.72,8,9.72s-2.23,18.94-3.5,15.34C93.92,131.73,90.23,124.93,86,117.94Z"/><path class="cls-19" d="M69.69,101.72A9.77,9.77,0,1,1,59.92,92a9.77,9.77,0,0,1,9.77,9.77"/><path class="cls-11" d="M69.69,101.72A9.77,9.77,0,1,1,59.92,92,9.77,9.77,0,0,1,69.69,101.72Z"/><path class="cls-20" d="M65.31,101.43a5.1,5.1,0,1,1-5.1-5.1,5.1,5.1,0,0,1,5.1,5.1"/><path class="cls-21" d="M64.89,98.87a2.41,2.41,0,1,1-2.41-2.42,2.41,2.41,0,0,1,2.41,2.42"/><g class="cls-22"><rect class="cls-23" x="105.46" y="130.23" width="90.4" height="67.97" transform="translate(-49.06 65.33) rotate(-21.12)"/></g><g class="cls-24"><rect class="cls-25" x="120.62" y="149.66" width="90.4" height="67.97" transform="matrix(0.93, -0.36, 0.36, 0.93, -55.04, 72.1)"/></g><g class="cls-26"><rect class="cls-27" x="147.82" y="170.64" width="90.4" height="67.97" transform="translate(-60.77 83.31) rotate(-21.12)"/></g><g class="cls-28"><rect class="cls-29" x="202.59" y="211.88" width="39.34" height="29.58" transform="translate(-66.75 95.33) rotate(-21.12)"/></g><g class="cls-30"><rect class="cls-31" x="218.24" y="231.9" width="29.98" height="22.54" transform="translate(-71.96 100.4) rotate(-21.12)"/></g></g></g></g></svg>