<svg id="Layer_1" data-name="Layer 1" xmlns="http://www.w3.org/2000/svg" viewBox="0 0 242.55 492"><defs><style>.cls-1,.cls-7{fill:#8a96a1;}.cls-1{stroke:#20313f;}.cls-1,.cls-19,.cls-2{stroke-miterlimit:10;}.cls-2,.cls-21{fill:#cb666b;}.cls-2{stroke:#59301f;}.cls-3{fill:#a2494f;}.cls-4{fill:#919fab;}.cls-5{fill:#2e3d49;}.cls-6{fill:#758089;}.cls-8{fill:#a9bac8;}.cls-9{fill:#8197a7;}.cls-10{fill:#becfdc;}.cls-11{fill:#d6e3eb;}.cls-12{fill:#fff;}.cls-13{fill:#c3beba;}.cls-14{fill:#592c0e;}.cls-15{fill:#842c1a;}.cls-16{fill:#23110a;}.cls-17{fill:#f1d8be;}.cls-18{fill:#3c1212;}.cls-19{fill:#cb6c82;stroke:#b24461;}.cls-20{fill:gray;}.cls-22{fill:#dcaaa9;}.cls-23{fill:#7b373b;}</style></defs><path class="cls-1" d="M102.67,191.3l-4.15-26S86.6,77.15,62.66,51.52C44.66,26.39,12.38,2.14,6.07,1.63,3.88,1.45,3,14.33,1.6,26.8s-3.32,78.46,33.55,110.58c50.18,42.81,54.59,55.78,55.51,60.84Z"/><path class="cls-2" d="M16.4,63.52c.32,3,.71,6,1.15,9.06a162.16,162.16,0,0,0,5.82,26s0,0,0,0c.07.25.16.5.24.75a74.2,74.2,0,0,0,4.16,10.09c15,29.51,58.81,51,58.81,51s-7.28-36.75-18.83-72.9c-.09-.27-.16-.54-.25-.81C63.39,74,55.71,62.19,47.45,52.24a186.21,186.21,0,0,0-32.3-30.38C14.46,25,14.17,43.23,16.4,63.52Z"/><path class="cls-3" d="M24.44,100a73.63,73.63,0,0,0,4,9.84c14.65,28.74,57.3,49.7,57.3,49.7s-7.09-35.8-18.34-71l-.06,0s2,34.64-1.13,43.18c0,0-31-13.45-41.62-31.36Z"/><path class="cls-1" d="M138.77,196.1l4.15-26S154.83,82,178.78,56.33c18-25.14,50.27-49.39,56.59-49.9,2.19-.17,3.08,12.7,4.46,25.17s3.33,78.46-33.55,110.58C156.11,185,151.7,198,150.78,203Z"/><path class="cls-2" d="M225,68.33c-.31,3-.7,6-1.14,9.06a163.74,163.74,0,0,1-5.82,26s0,0,0,0c-.08.24-.17.5-.24.74a75.65,75.65,0,0,1-4.16,10.1c-15,29.5-58.82,51-58.82,51s7.28-36.75,18.83-72.9c.1-.27.17-.54.26-.81C178,78.82,185.73,67,194,57a186.21,186.21,0,0,1,32.3-30.38C227,29.78,227.27,48,225,68.33Z"/><path class="cls-3" d="M217,104.84a73.63,73.63,0,0,1-4.05,9.84c-14.66,28.75-57.31,49.7-57.31,49.7s7.1-35.8,18.35-71a.07.07,0,0,0,0,0s-2,34.65,1.14,43.19c0,0,31-13.46,41.62-31.36A2.8,2.8,0,0,1,217,104.84Z"/><path class="cls-4" d="M211.17,465.81s-4.3,6.1-13.57,10.95c19.85,8.6,41-14.71,42.9-26.23a43.7,43.7,0,0,0-4.52.67Z"/><path class="cls-5" d="M236.74,450.76c-.34.06-.69.13-.76.13h-.09L211,465.54l-.1.09c0,.06-4.36,6.1-13.45,10.85l-.57.3.6.26a22.7,22.7,0,0,0,9.1,1.9c17.13,0,32.68-18.66,34.26-28.37l.06-.37h-.4A26.76,26.76,0,0,0,236.74,450.76Zm-30.17,27.55a22,22,0,0,1-8.23-1.59A41.25,41.25,0,0,0,211.4,466l24.69-14.53.78-.14a31.18,31.18,0,0,1,3.24-.51C238.22,460.49,223.15,478.31,206.57,478.31Z"/><path class="cls-6" d="M56.89,390.4s-22.78,16.83-19.41,45.37C40.46,461,59.31,470,69,472c5,1,30.66,2.71,37.93-1.67C54.68,454.86,56.89,390.4,56.89,390.4Z"/><path class="cls-7" d="M56.89,390.4s-22.78,16.83-19.41,45.37a45.41,45.41,0,0,0,4.79,16c11,18.45,40.7,10.47,37.77,2.73C55.54,429.91,56.89,390.4,56.89,390.4Z"/><path class="cls-8" d="M56.89,390.4s-22.78,16.83-19.41,45.37a45.41,45.41,0,0,0,4.79,16c.24.4.49.78.75,1.16-8.1-16.72-2.13-35.17,9.68-48.11a26.43,26.43,0,0,1,4.64-4.33A84.8,84.8,0,0,1,56.89,390.4Z"/><path class="cls-5" d="M62.64,424.48a109.59,109.59,0,0,1-5.42-34.07l0-.67-.56.41c-.22.17-22.88,17.27-19.53,45.65C39.82,458.47,56,469.61,69,472.27a122,122,0,0,0,18.24,1.19h0c6.89,0,16-.5,19.94-2.9l.6-.37-.68-.2C80.19,462.06,68.08,440.86,62.64,424.48Zm24.55,48.35h0a120.29,120.29,0,0,1-18.1-1.18C56.31,469,40.44,458.07,37.81,435.73c-3-25.55,15.31-41.85,18.74-44.65A111.52,111.52,0,0,0,62,424.65c5.44,16.39,17.5,37.55,44.14,45.72C102,472.4,93.64,472.83,87.19,472.83Z"/><path class="cls-6" d="M182.61,342.42l-45.55,20.13s5.29,34.73,9.6,58.2,41,39.74,68.15,29.41C229,411.68,207.2,389.46,195,377S181.06,352,182.61,342.42Z"/><path class="cls-5" d="M195.28,376.81l-.08-.08c-10.13-10.36-14.26-21.88-12.27-34.26l.1-.58L136.7,362.37l0,.23c.06.34,5.35,35,9.6,58.2,1.63,8.89,8,17.22,17.82,23.45a62.73,62.73,0,0,0,32.67,9.39,50.63,50.63,0,0,0,18.11-3.19l.14-.05.05-.13c6.17-16.71,6.18-32.35,0-46.5C209.94,391.8,201.46,383.14,195.28,376.81Zm19.26,73.11a50.07,50.07,0,0,1-17.72,3.1,62.11,62.11,0,0,1-32.31-9.29c-9.7-6.14-15.93-14.32-17.53-23-4.07-22.2-9.09-54.9-9.56-58L182.19,343c-1.8,12.36,2.41,23.86,12.52,34.21l.08.08C207.43,390.16,228.58,411.78,214.54,449.92Z"/><path class="cls-6" d="M162.09,295.49l-25.8,4.17L134.58,346c18.53,14.24,47.14,2.61,47.14,2.61a16.16,16.16,0,0,1-.77,5.32,34.92,34.92,0,0,0,5.85-35.46C179.72,300,162.09,295.49,162.09,295.49Z"/><path class="cls-5" d="M162.18,295.19l-.07,0-25.88,4.18.11.62,25.74-4.16c1.2.34,17.69,5.26,24.41,22.73a34.86,34.86,0,0,1-4.82,34,16,16,0,0,0,.38-3.95v-.46l-.45.18c-.28.12-28.64,11.39-46.8-2.56l-.42.48c17.2,13.22,43.29,4.22,47,2.83a16,16,0,0,1-.76,4.76l-.51,1.43,1.07-1.13a35.46,35.46,0,0,0,5.91-35.77C180.05,300,162.36,295.23,162.18,295.19Z"/><path class="cls-9" d="M140.7,327.35s11.8-5.47,6-15.49a5.26,5.26,0,0,1,3.3.63s-5.29-11.16-11.47-13.45-58.88.52-58.88.52-13.84,3.23-15,18.41c4.3-3.6,7.11-4.23,7.11-4.23S61.3,322,69.9,340.65c3.31-5,3-5.63,3.31-5a36.94,36.94,0,0,1,1.1,6.78c0,1.26-.26,18.4-8.71,32C55.51,390.71,48.73,402.92,54,429.2L57.55,424s-5,15.39,12.19,29.47l-.17-5s11.91,32.7,69.81,21.75c16.87-18.78,17.86-82.5,1.32-99.61C149.74,347,140.7,327.35,140.7,327.35Z"/><path class="cls-8" d="M119.31,303.21c1.88-2.14,4.19-2.82,6.14-5.07-17.56-.09-45.84,1.42-45.84,1.42s-13.84,3.23-15,18.41c4.3-3.6,7.11-4.23,7.11-4.23S61.3,322,69.9,340.65c3.31-5,3-5.63,3.31-5a36.94,36.94,0,0,1,1.1,6.78c0,1.26-.26,18.4-8.71,32C55.51,390.71,48.73,402.92,54,429.2L57.55,424s-5,15.39,12.19,29.47l-.17-5s5.34,10.9,26.14,6.83c19.18-3.75,36.39-19.19,33.74-65.5-.48-8.38-1.33-21.51-4.85-29.82C124.16,358.9,149.52,316.56,119.31,303.21Z"/><path class="cls-10" d="M70.12,311C71,307.11,74,303.1,77,300.48A20.07,20.07,0,0,0,64.61,318c4.3-3.6,7.11-4.23,7.11-4.23S61.3,322,69.9,340.65c3.31-5,3-5.63,3.31-5a36.94,36.94,0,0,1,1.1,6.78c0,1.26-.26,18.4-8.71,32C55.51,390.71,48.73,402.92,54,429.2L57.55,424s-5,15.39,12.19,29.47c-11.58-18.31-9.43-32.23-5.79-48-.83.16-5.46,6.1-7.45,10.95,1.82-27.53,14.89-38.49,14.89-38.64,0-19.89,6.78-28.42,5.46-51.68-1.77,3.44-4.08,4.28-5.74,6.88-2.7-10.9,3.09-19.5,7.39-23.88C75.64,309.15,72.11,309.78,70.12,311Z"/><path class="cls-5" d="M141.12,327.5c1.16-.6,5.6-3.12,7-7.46a9.67,9.67,0,0,0-1-7.89,4.9,4.9,0,0,1,2.58.59l1,.7-.5-1.08c-.22-.46-5.42-11.3-11.65-13.61-1.67-.63-6.51-.93-14.78-.93-17.43,0-44,1.41-44.31,1.43-.14,0-14.09,3.47-15.25,18.69l-.06.77.61-.51a24.15,24.15,0,0,1,5.67-3.68c-2.42,2.77-7.83,11.25-.9,26.26l.25.54.33-.5c1.66-2.52,2.42-3.95,2.79-4.64a.31.31,0,0,1,0-.1,43.86,43.86,0,0,1,1,6.34c0,.73-.1,18.05-8.67,31.86-10.65,17.19-16.75,29.46-11.61,55l.15.77,3-4.45c-.72,4.42-1.2,16.76,12.66,28.1l.57.47L70,450.06a35.59,35.59,0,0,0,8.63,10.61c6.47,5.51,18.43,12.07,38.62,12.07a119.93,119.93,0,0,0,22.24-2.25l.11,0,.08-.08c7.87-8.75,13-28.15,13.27-50.63s-4.21-41.21-11.82-49.25A60.75,60.75,0,0,0,141.12,327.5Zm11.12,92.26c-.32,22.26-5.31,41.45-13,50.14a119.89,119.89,0,0,1-22,2.22C79,472.12,70,448.58,69.88,448.34l-.71-1.95.21,6.35c-16.15-13.65-11.56-28.51-11.51-28.66l.71-2.2-4.39,6.48c-4.81-24.77,1.22-36.88,11.7-53.76,8.65-14,8.75-31.44,8.75-32.18a37.45,37.45,0,0,0-1.13-6.92c-.1-.17-.2-.37-.45-.37s-.37.18-.68.77-1,1.9-2.43,4.08c-7.94-17.79,1.88-25.92,2-26l1.06-.84-1.35.3c-.11,0-2.67.62-6.63,3.79,1.52-14.12,14.54-17.34,14.61-17.36.27,0,26.81-1.42,44.22-1.42,8.08,0,13,.29,14.53.88,5,1.87,9.55,9.91,10.89,12.49a6.4,6.4,0,0,0-2.64-.27l-.5.05.25.42a9.32,9.32,0,0,1,1.16,7.83c-1.54,4.65-6.92,7.2-7,7.22l-.28.13.13.28a59.94,59.94,0,0,1,0,43l-.07.17.14.14C148,378.64,152.56,397.4,152.24,419.76Z"/><path class="cls-6" d="M160.55,385c-66.39,31.7-34,77.59-21,88.18,16.05-6.26,30.77-.47,35.4,1.25s15.22,5.32,22.66,2.35c20.35-14.4,18.7-42.71,18.7-42.71Z"/><path class="cls-8" d="M139.35,473c-25.78-42.12-1-71.8,19-86.92C95.23,417.57,126.41,462.24,139.35,473Z"/><path class="cls-5" d="M197.44,476.48c-5.15,2-12.67,1.24-22.38-2.36l-.34-.13c-4.81-1.79-19.4-7.23-35.11-1.19-8.65-7.16-21.28-25.36-18.81-44.31,2.22-17.1,15.65-31.65,39.9-43.23a116.64,116.64,0,0,0-10.94,5.12C132,401,122,413.79,120.14,428.42c-2.83,21.73,12.89,39.83,19.19,45l.15.12.19-.07c15.54-6.06,30-.65,34.81,1.12l.34.13c6.28,2.34,11.68,3.51,16.15,3.51a18.19,18.19,0,0,0,6.76-1.16l.07,0c14-9.89,17.64-26.45,18.56-35.87a21,21,0,0,0-.39-7.07C216,434.35,217.37,462.35,197.44,476.48Z"/><path class="cls-8" d="M229.36,437.65a21.24,21.24,0,0,0-13.19,1.8s.18,24.69-18.46,36.89a52.67,52.67,0,0,0,17.54-4.17s-1.43-.84-4.41-2.3c27-8.24,28.45-26.7,29.44-32.22-3.86,1.87-12,2.92-12,2.92A5.91,5.91,0,0,1,229.36,437.65Z"/><path class="cls-5" d="M228.64,440.2a5.51,5.51,0,0,1,1-2.37l.32-.4-.52-.09a22.07,22.07,0,0,0-3.89-.35,20.76,20.76,0,0,0-9.54,2.19l-.16.09v.18c0,.24,0,24.66-18.31,36.63l-.93.61,1.13,0a53.47,53.47,0,0,0,17.66-4.2l.55-.25-.52-.3s-1.25-.72-3.73-2c25-7.93,27.7-24.79,28.74-31.17.06-.4.12-.76.18-1.07l.11-.62-.59.29C236.87,439,230.37,440,228.64,440.2Zm11.14-1.53c-1,6.35-3.77,23.2-29,30.91l-.76.23.71.34c1.9.94,3.18,1.62,3.84,2a53.4,53.4,0,0,1-15.7,3.84c16.81-11.78,17.63-34.06,17.67-36.34a20.84,20.84,0,0,1,9-2,21.09,21.09,0,0,1,3.27.25,6.52,6.52,0,0,0-.88,2.68l0,.38.4-.05c.32,0,7.52-1,11.54-2.69C239.83,438.34,239.8,438.5,239.78,438.67Z"/><path class="cls-8" d="M172.13,469.35c-7.69-5-30.85-10.33-35.07,8.76-1.51,6.85,5.52,5.32,5.52,5.32s-.82,3.17,0,3.91c1.25,1.07,6.62,2,10.59,1.2-.72,1.36-.44,2.12.38,2.35,7,2,35.07-3,31.93-13.51C185,475.52,179.68,474.31,172.13,469.35Z"/><path class="cls-11" d="M175,471.12c-.91-.53-1.86-1.11-2.86-1.77-7.69-5-30.85-10.33-35.07,8.76a10.35,10.35,0,0,0-.18,1.12,2.75,2.75,0,0,0,1.17,1.28,5.5,5.5,0,0,0,6-1.88c-.66,5.64,7.94,7.44,12.57,4.31-1.16,2.79.11,4,7.33,3.57,3.91-.26,12.27-2.71,15.39-7.72C181.49,475.27,177.41,472.39,175,471.12Z"/><path class="cls-5" d="M181.14,474a79.65,79.65,0,0,1-8.82-4.92,34.84,34.84,0,0,0-17.39-4.78c-9.78,0-16.24,4.88-18.19,13.73-.44,2-.22,3.49.64,4.49a4.73,4.73,0,0,0,3.64,1.35,8.49,8.49,0,0,0,1.13-.07c-.22,1-.54,3.07.26,3.76,1,.88,4.33,1.57,7.5,1.57a19.83,19.83,0,0,0,2.76-.19,2,2,0,0,0-.08,1.51,1.35,1.35,0,0,0,.92.72,16.54,16.54,0,0,0,4.28.44c8.11,0,22.33-3.12,26.83-8.76a5.85,5.85,0,0,0,1.23-5.57C185.51,476.17,183.87,475.36,181.14,474Zm3,8.47C179.72,488,165.76,491,157.79,491a16.13,16.13,0,0,1-4.09-.41.71.71,0,0,1-.5-.37c-.1-.23-.14-.69.31-1.54l.07-.78-.43.34a17,17,0,0,1-3.24.28c-3.23,0-6.26-.73-7.06-1.41-.5-.42-.27-2.36.05-3.6l.12-.5-.52.12a7.81,7.81,0,0,1-1.48.14,4.1,4.1,0,0,1-3.13-1.13c-.73-.85-.9-2.18-.51-4C139.8,467.24,148.26,465,154.93,465a34,34,0,0,1,17,4.66,78.75,78.75,0,0,0,8.89,5c2.48,1.23,4.12,2,4.38,2.9A5.27,5.27,0,0,1,184.1,482.49Z"/><path class="cls-5" d="M142.26,483.35l.63.17c4.07-14.11,12.23-15,12.31-15S146.46,468.78,142.26,483.35Z"/><path class="cls-5" d="M152.63,488.85l.62.22c3.72-9.22,12.08-14.24,12.16-14.29A26.86,26.86,0,0,0,152.63,488.85Z"/><path class="cls-8" d="M85.45,466.54c-4.3-.94-17.42-.63-22.61,3.23-3.76,2.8-7.17,8.4-5,12.1,1.72,2.88,7.61,2.4,7.61,2.4,1.43,4.48,17.42,6.05,21.83-.94,4.75.31,10.7-2.4,10.7-7.41S89.75,467.48,85.45,466.54Z"/><path class="cls-11" d="M85.28,466.48c-4.3-.93-17.42-.62-22.6,3.24-2.71,2-5.22,5.48-5.6,8.64,2.07,2.67,7.57,2.28,9.35-1.65-1.11,3.54,1.8,6.55,6.53,6.93,7.53.61,13.7-1.3,13.15-8.29,3.92,6.83,12.24.78,9.49-3.55A20.22,20.22,0,0,0,85.28,466.48Z"/><path class="cls-5" d="M85.52,466.23a29.57,29.57,0,0,0-5.75-.45c-5.85,0-13.42,1-17.13,3.74-4.16,3.1-7.28,8.76-5,12.5,1.34,2.25,4.92,2.59,6.94,2.59l.73,0c1.07,2.51,6,3.83,10.42,3.83,5.42,0,9.82-1.78,11.82-4.77,5.07.23,10.85-2.76,10.85-7.73S90.48,467.31,85.52,466.23ZM88.07,483l-.72,0-.2,0-.11.17c-1.83,2.89-6.07,4.62-11.36,4.62-5,0-9.22-1.55-9.87-3.61l-.08-.25-.27,0s-.37,0-.93,0c-1.51,0-5.14-.23-6.36-2.28-2.17-3.64,1.44-9.13,4.88-11.69s11.24-3.62,16.72-3.62a29,29,0,0,1,5.61.44c4,.88,12.31,4.25,12.31,9.08C97.69,480.32,92.7,483,88.07,483Z"/><path class="cls-5" d="M65.16,484.28l.66,0c-.37-8,3.62-12.3,3.67-12.34S64.72,475.77,65.16,484.28Z"/><path class="cls-5" d="M87,483.3l.65.06a15.78,15.78,0,0,0-2.18-9.62A23.07,23.07,0,0,1,87,483.3Z"/><path class="cls-6" d="M114.12,364.33l16.32,10.43c11.09-.16,29.45-7.36,35.73-13.62-1.81,3.6-1.81,4.78-1.81,4.78s11.52-2.22,17.36-17.34l-26.63-24.67C125.48,325.63,114.12,364.33,114.12,364.33Z"/><path class="cls-8" d="M114.12,364.33l3.92,2.5c5.35-16,12.65-33.22,37.22-42.61C122.34,328.76,114.12,364.33,114.12,364.33Z"/><path class="cls-5" d="M164.76,365.49a19.87,19.87,0,0,1,1.71-4.21l.91-1.79-1.45,1.44c-6.42,6.39-24.57,13.32-35.39,13.51l-16-10.25c1-3.1,12.71-38.35,40.6-40a31.65,31.65,0,0,0-11.05,1.91c-21.51,8.75-30.16,37.78-30.26,38.11l-.06.22,16.61,10.61h.1c10.31-.15,27.31-6.41,34.71-12.58a10.4,10.4,0,0,0-1.14,3.43v.38l.4-.08c.12,0,11.77-2.42,17.61-17.54l-.62-.21C176.37,361.51,167,364.87,164.76,365.49Z"/><path class="cls-7" d="M74.26,341.8c-.55-3.44-1.11-6.26-1.11-6.26l-3.22,4.95s-8.52-16.74,1.79-26.75c-2.37.31-7.11,4.23-7.11,4.23s-.25-12.09,13.58-18.05c0,0-31.61-2.29-41.21,32.28l3.64-1.56s-11.41,16.11,5.63,33.95l.66-5.95S56.83,375.69,79.66,381c1.16-6.57,10.75-16.11,10.75-16.11S84.13,348.26,74.26,341.8Z"/><path class="cls-6" d="M71.72,313.74c-2.37.31-7.11,4.23-7.11,4.23s-.25-12.09,13.58-18.05c0,0-31.61-2.29-41.21,32.28l3.64-1.56s-11.41,16.11,5.63,33.95l.66-5.95s.16.28.49.78v-2.19c9.06,10.28,27.05,21.67,34.16,12.52,5.69-7.31-8.52-16.84-11.84-29.7C68.46,337.34,62.4,322.79,71.72,313.74Z"/><path class="cls-8" d="M37,332.2l3.64-1.56s-11.06,15.62,4.86,33.13c-6.57-9.87-7.34-25.31,2.81-35.53-1.22.42-3.75-.42-5,.1,8.16-20.23,26.82-27.62,27.61-28C61,301.93,43.66,308.14,37,332.2Z"/><path class="cls-7" d="M85.23,370.8q.34-.45.69-.87c-.33.05-.66.11-1,.15Z"/><path class="cls-5" d="M74.56,341.62c-.54-3.35-1.08-6.11-1.08-6.14l-.16-.8L70,339.82c-1.32-2.92-7-17.11,2-25.86l.67-.65-.95.12c-2,.26-5.35,2.77-6.71,3.84.21-2.63,1.79-12.08,13.36-17.07l1.17-.5-1.28-.1s-.46,0-1.24,0c-5.22,0-31.72,1.57-40.32,32.55l-.17.64,3.33-1.43c-2,3.61-8.61,18,6.18,33.47l.5.52.63-5.72a54.89,54.89,0,0,0,32.45,21.72l.35.08.06-.34c1.12-6.4,10.57-15.85,10.66-15.94l.14-.14-.07-.19C90.66,364.63,84.34,348.12,74.56,341.62Zm4.84,39a53.56,53.56,0,0,1-32.2-22.14l-.51-.87L46,363.85c-15.95-17.23-5.21-32.88-5.1-33l.64-.91-4.06,1.74C46.05,302,71.35,300.23,76.82,300.2,64.19,306.35,64.27,317.85,64.28,318v.67l.53-.44a31.67,31.67,0,0,1,5.84-3.82c-9.07,10.12-1.11,26.09-1,26.25l.26.52L73,336.4c.2,1.08.58,3.13,1,5.44l0,.14.12.07c9.12,6,15.25,21,16,22.78C88.81,366.06,80.73,374.43,79.4,380.63Z"/><path class="cls-5" d="M84.58,347.58c-3.71-1.49-7.42-3.32-10.35-6.41l-.5.42c3,3.18,6.86,4.9,10.56,6.56,4.7,2.1,9.13,4.08,11.79,8.81C96.08,357,94.77,351.68,84.58,347.58Z"/><path class="cls-8" d="M89.83,364.59c-5.21-.32-13.92,6.5-14.39,11.73-.66,7.43,4.72,16.06,4.72,16.06s5.29,9.18,14.22-.1c3.64.21,9.6-.38,6.84-16.06C100,369.48,93.14,364.79,89.83,364.59Z"/><path class="cls-11" d="M101.22,376.22c-1.19-6.74-8.08-11.43-11.39-11.63-5.21-.32-13.92,6.5-14.39,11.73-.45,5,1.87,10.61,3.42,13.69,2.86.58,5.89-.44,6.92-3.36,2.65,5,8.93,5.84,9.93-3.13,3.08,5.32,6.72,2.6,6-3.63C101.62,378.77,101.46,377.55,101.22,376.22Z"/><path class="cls-5" d="M89.85,364.27c-5.56-.34-14.28,6.85-14.74,12-.66,7.45,4.54,15.89,4.76,16.24.1.17,2.48,4.21,6.81,4.21h0c2.52,0,5.16-1.39,7.84-4.14l.74,0a6.23,6.23,0,0,0,4.94-1.9c2.2-2.46,2.64-7.22,1.35-14.56C100.33,369.26,93.18,364.47,89.85,364.27Zm9.84,26.05A5.52,5.52,0,0,1,95.26,392c-.29,0-.58,0-.86,0h-.16l-.1.11c-2.59,2.68-5.1,4.05-7.46,4.05-3.94,0-6.21-3.85-6.24-3.9s-5.31-8.63-4.67-15.87c.42-4.71,8.49-11.46,13.71-11.46h.33c3.15.19,9.92,4.76,11.08,11.37C102.14,383.31,101.73,388,99.69,390.32Z"/><path class="cls-5" d="M93.54,378c0,.06,4.46,5.91.54,14.16l.6.26a15.91,15.91,0,0,0,1.58-8.84A9.13,9.13,0,0,0,93.54,378Z"/><path class="cls-8" d="M79.06,384c-5-1.88-7.94.06-8.25,3.05s3.14,7.82,9.84,6.1,8.27-9.13,6-13.43Z"/><path class="cls-11" d="M82,381.4l-2.88,2.53c-4.3-2.13-8.66.12-8.35,3.11.83,8,18.17,2.21,15.91-7.49Z"/><path class="cls-12" d="M79,383.85c-4.21-2-9.6-.14-7.74,5,1.53-3.59,3.85-5.28,7.9-4.85C79.05,383.93,79,384,79,383.85Z"/><path class="cls-5" d="M86.47,388a8.86,8.86,0,0,1-5.9,4.89c-3.56.91-5.85-.14-7.15-1.18a5.64,5.64,0,0,1-2.28-4.59,4,4,0,0,1,2-3.1c1.53-.89,3.68-.89,6,0,0,0-3.11-2.36-6.4-.52A4.59,4.59,0,0,0,70.48,387,6.25,6.25,0,0,0,73,392.14a7.89,7.89,0,0,0,5,1.66,11.1,11.1,0,0,0,2.74-.36,9.42,9.42,0,0,0,6.33-5.23,8.29,8.29,0,0,0-.59-8.54A9.53,9.53,0,0,1,86.47,388Z"/><path class="cls-8" d="M114.12,364.33c-4.19.26-17.09,10.74-9,25.29,2.48,8.29,11.41,10.32,15.21,5,2.15-2.26,2.57-8.37,2.57-8.37s9.51-.62,8.08-10.14C129.78,370.58,118.1,364.08,114.12,364.33Z"/><path class="cls-11" d="M114.12,364.33c-4.19-.23-17.09,10.74-9,25.29a11.47,11.47,0,0,0,4.62,6.45,3.1,3.1,0,0,0,4.18-1.72c1.33-1.88-.59-5.59.73-8.72-.61,4.06,1.18,7.88,5.72,8.95,1.37-1.49,2-4.53,2.32-6.49-.7-.25-.86,0-1.78-.39C126.45,381.44,123.61,364.85,114.12,364.33Z"/><path class="cls-12" d="M105.14,389.62a11.66,11.66,0,0,0,3.44,5.53c-3.2-5.77-1.38-9-1.13-14.53a36.31,36.31,0,0,0-1.94,3.76c-2.36-7.43,2.16-16.3,10-19.74a2.83,2.83,0,0,0-1.38-.31C110.15,364.12,97,375.07,105.14,389.62Z"/><path class="cls-5" d="M114.35,364h-.25c-2.16.14-6.67,2.88-9.51,7.69-2.3,3.89-4.13,10.17.24,18,1.69,5.63,6.11,8.15,9.74,8.15a7.22,7.22,0,0,0,6-3.05c2-2.07,2.52-7.07,2.63-8.29a10.39,10.39,0,0,0,6.41-3.18c1.57-1.84,2.14-4.29,1.68-7.31C130.09,370.43,118.51,364,114.35,364ZM129.13,383a10,10,0,0,1-6.24,3l-.14.2-.16.09c0,.06-.43,6-2.51,8.22a6.59,6.59,0,0,1-5.51,2.8c-3.39,0-7.52-2.39-9.12-7.72l0-.06c-4.25-7.62-2.49-13.71-.26-17.47,2.69-4.55,7-7.24,9-7.36h.21c4,0,15.14,6.16,16.32,11.53C131.09,379,130.57,381.27,129.13,383Z"/><path class="cls-11" d="M124.53,385.82a5.2,5.2,0,0,0-3.72,2.08l-5.5-4.93c-1.9,4-1.32,8.27.66,9.85,2.18,1.75,11.13,4.39,12.32-1.25C129,388.09,126,385.8,124.53,385.82Z"/><path class="cls-11" d="M120.93,387.82,115.31,383c-1.9,4-1.32,8.27.66,9.85a11.44,11.44,0,0,0,4.08,1.75c4,.6,4.63-2.89,3.82-4.4A4.73,4.73,0,0,0,120.93,387.82Z"/><path class="cls-5" d="M124.52,385.51a5,5,0,0,0-3.76,2.36,6.16,6.16,0,0,1,3.78-1.73,3.55,3.55,0,0,1,2.37,1.35,4.52,4.52,0,0,1,1.06,4,3.61,3.61,0,0,1-2.56,2.86c-3,1-7.76-.61-9.23-1.78-1.77-1.43-2.49-5.46-.57-9.49,0,0-3.73,6.24.15,10,1.14,1.1,4.5,2.24,7.45,2.24a7.91,7.91,0,0,0,2.42-.34,4.23,4.23,0,0,0,3-3.33,5.14,5.14,0,0,0-1.2-4.54A4.3,4.3,0,0,0,124.52,385.51Z"/><path class="cls-5" d="M104.8,389.62h.67c-.06-7.7,3.68-11.72,3.72-11.76S104.75,381.66,104.8,389.62Z"/><path class="cls-6" d="M129.34,176.7a12.39,12.39,0,0,1,4.63-4.38c-10.91-2.74-19.08,2.66-25.86,7.35-5.62-4.07-21.17-5-21.17-5a32.12,32.12,0,0,1,3.64,4.54c-11.75-3.29-19.36-.16-19.36-.16s9.1.63,12.74,2.35c-40.2,5.79-42.35,45.37-42.51,61,0,0,32.09,24.72,154.17,0C188.67,168.87,129.34,176.7,129.34,176.7Z"/><path class="cls-7" d="M169.32,238.18c6-32.28-3-54.6-19.93-59.86a59.67,59.67,0,0,0-20-1.62,12.39,12.39,0,0,1,4.63-4.38c-10.91-2.74-19.08,2.66-25.86,7.35-5.62-4.07-21.17-5-21.17-5a32.12,32.12,0,0,1,3.64,4.54c-11.75-3.29-19.36-.16-19.36-.16s9.1.63,12.74,2.35c-40.2,5.79-42.35,45.37-42.51,61,0,0,29.6,22.79,140,2.71C177.32,240.37,176.08,237.05,169.32,238.18Z"/><path class="cls-6" d="M108.11,179.67c-5.62-4.07-21.17-5-21.17-5a32.12,32.12,0,0,1,3.64,4.54c-11.75-3.29-19.36-.16-19.36-.16s9.1.63,12.74,2.35c-40.2,5.79-42.35,45.37-42.51,61,0,0,1.75.79,4.38,2a68.58,68.58,0,0,1,11.83-44.28c7.28-10.63,19.91-16,33.14-16.63-2.21-1.78-2.81-2.77-5.85-3.65a73.13,73.13,0,0,1,12.69,1.56A31.6,31.6,0,0,0,92.45,177c5.3,0,15.77,4.9,15.94,4.85,8.66-6.15,14.94-9,25-9.69C122.75,169.79,114.77,175.07,108.11,179.67Z"/><path class="cls-5" d="M168.34,186.44C151.87,175,133.67,176,130,176.31a11.89,11.89,0,0,1,4.14-3.72l.77-.37-.83-.21a24.92,24.92,0,0,0-5.94-.75c-8.31,0-15.05,4.59-20,8-5.78-4-20.52-4.89-21.15-4.93l-.83,0,.57.58a32.35,32.35,0,0,1,3.14,3.8,39,39,0,0,0-9.78-1.29,25.34,25.34,0,0,0-9,1.37l-1.23.5,1.34.1c.08,0,7.57.53,11.57,1.9-27.26,4.42-41.31,25.81-41.69,62l.29.2.16.39c.15.11,14.58,9.89,59.86,9.89,26.55,0,58.27-3.7,94.3-11l.28-.06,0-.27C193.48,216.25,184.19,197.44,168.34,186.44Zm-66.95,66.64c-42.82,0-58.11-9.79-59.61-10.83.43-36.2,14.63-56.58,42.23-60.55l1-.15-.93-.44c-2.76-1.3-8.46-2-11.26-2.24a28.85,28.85,0,0,1,7.21-.86,38.63,38.63,0,0,1,10.42,1.49l.82.23-.44-.69a31.56,31.56,0,0,0-3.13-4c3.26.27,15.43,1.45,20.18,4.89l.2.14.2-.14c4.9-3.39,11.61-8,19.81-8a23.65,23.65,0,0,1,5,.54,13,13,0,0,0-4,4.12l-.32.54.66-.08a39.1,39.1,0,0,1,4.83-.24c12.85,0,55.18,4.72,61,65.39C159.4,249.4,127.82,253.08,101.39,253.08Z"/><path d="M123.48,206.85c-7.42.52-12.83,8.78-12.07,18.46s7.39,17.1,14.81,16.58,12.82-8.79,12.07-18.46S130.9,206.33,123.48,206.85Z"/><path class="cls-13" d="M123.61,208.81c-7.15.5-12.37,8.31-11.66,17.45s7.09,16.13,14.25,15.63,12.37-8.31,11.65-17.45S130.76,208.31,123.61,208.81Z"/><path class="cls-12" d="M123.61,208.81c-7.15.5-12.42,8.32-11.66,17.45,1.07,12.7,26.43,16.3,25.9-1.82C137.58,215.29,130.76,208.31,123.61,208.81Z"/><path d="M123.58,208.5c-7.32.51-12.68,8.49-12,17.78.7,8.94,6.79,15.95,13.85,15.95q.38,0,.75,0a11.87,11.87,0,0,0,9-5.63,19.2,19.2,0,0,0,2.93-12.15C137.46,215.17,131,208,123.58,208.5Zm11.11,27.74a11.24,11.24,0,0,1-8.52,5.34c-7,.48-13.19-6.43-13.89-15.35s4.4-16.62,11.35-17.11l.7,0c6.72,0,12.52,6.75,13.19,15.37A18.58,18.58,0,0,1,134.69,236.24Z"/><path d="M71.71,210.19c-5.51-.66-10.93,5.84-12.1,14.52s2.33,16.27,7.83,16.94,10.92-5.84,12.1-14.52S77.21,210.86,71.71,210.19Z"/><path class="cls-13" d="M71.43,212c-5.3-.64-10.49,5.48-11.6,13.67s2.28,15.35,7.58,16S77.89,236.16,79,228,76.72,212.62,71.43,212Z"/><path class="cls-12" d="M71.43,212c-5.3-.64-10.79,5.45-11.6,13.67C58.16,242.79,77.18,239,79,228,80.34,219.81,76.72,212.62,71.43,212Z"/><path class="cls-14" d="M72.32,221.9c-3-.16-5.71,3.27-6,7.65s2,8.07,5,8.23,5.71-3.28,6-7.66S75.36,222.06,72.32,221.9Z"/><path class="cls-15" d="M73.67,233.3c-2.66,1.35-5.45.15-7.26-1.85.38,3.5,2.41,6.19,5,6.33,3,.15,5.71-3.28,6-7.66,0-.16,0-.33,0-.49A8.11,8.11,0,0,1,73.67,233.3Z"/><path d="M72.31,226c-1.78-.09-3.33,1.91-3.48,4.47s1.17,4.7,3,4.79,3.33-1.9,3.48-4.46S74.08,226.1,72.31,226Z"/><path class="cls-16" d="M72.34,221.55c-3.3-.17-6.09,3.41-6.35,8s2.16,8.42,5.4,8.59a4.47,4.47,0,0,0,.52,0c3.08-.22,5.59-3.65,5.84-8a10.26,10.26,0,0,0-1.34-5.89A5.15,5.15,0,0,0,72.34,221.55ZM77,230.1c-.24,4.13-2.73,7.48-5.58,7.33s-4.94-3.67-4.7-7.86c.22-3.91,2.48-7.13,5.15-7.32h.42a4.42,4.42,0,0,1,3.46,2.35A9.61,9.61,0,0,1,77,230.1Z"/><path class="cls-12" d="M69.38,226.73a1.8,1.8,0,0,0-2.08,1.42,1.72,1.72,0,0,0,1.5,2,1.8,1.8,0,0,0,2.08-1.41A1.74,1.74,0,0,0,69.38,226.73Z"/><path class="cls-12" d="M73.28,225.25a1,1,0,0,0-1.2.81,1,1,0,0,0,.86,1.13,1,1,0,0,0,1.2-.81A1,1,0,0,0,73.28,225.25Z"/><path d="M71.47,211.67a7.34,7.34,0,0,0-.81,0c-5.28,0-10.07,6-11.16,14C58.37,234,61.9,241.29,67.36,242a7.34,7.34,0,0,0,.81.05h0c5.28,0,10.08-6,11.16-14a19.89,19.89,0,0,0-1.41-11C76.44,213.89,74.15,212,71.47,211.67Zm7.2,16.26c-1,7.54-5.63,13.44-10.5,13.44a5.79,5.79,0,0,1-.72,0c-5.11-.62-8.37-7.64-7.29-15.64,1-7.54,5.63-13.44,10.5-13.44a6,6,0,0,1,.73,0c2.44.3,4.54,2.07,5.92,5A19.19,19.19,0,0,1,78.67,227.93Z"/><path class="cls-14" d="M126.79,218.57c-3.7.31-6.28,4.89-5.77,10.21s3.91,9.39,7.61,9.07,6.28-4.89,5.77-10.21S130.48,218.25,126.79,218.57Z"/><path class="cls-15" d="M134.4,227.64a14.21,14.21,0,0,0-.42-2.32,9.1,9.1,0,0,1-6.34,6.65c-2.44.72-4.58-.34-6.43-1.84.91,4.64,4,8,7.42,7.72C132.32,237.53,134.91,233,134.4,227.64Z"/><path d="M127.53,223.53c-2.15.18-3.66,2.85-3.36,5.95s2.28,5.48,4.44,5.29,3.66-2.85,3.36-6S129.69,223.34,127.53,223.53Z"/><path class="cls-16" d="M132.14,220.72a6.39,6.39,0,0,0-5.39-2.58c-4,.34-6.72,5.12-6.18,10.68s4.16,9.79,8.1,9.46a4.58,4.58,0,0,0,.63-.1c3.67-.77,6-5.32,5.55-10.58A12.61,12.61,0,0,0,132.14,220.72Zm-3.55,16.7c-3.44.3-6.64-3.6-7.12-8.68-.46-4.75,1.67-9,4.84-9.67a4.34,4.34,0,0,1,.52-.08,5.5,5.5,0,0,1,4.6,2.26,11.75,11.75,0,0,1,2.52,6.43C134.43,232.69,132.05,237.13,128.59,237.42Z"/><path class="cls-8" d="M193.85,241.88c-27.68-10-66.28,2.32-71.46,1.88-7-.6-21.94-9.91-36.86-9.88-10.67,0-17.2,6.18-21.36,7.58-7.06,2.39-22.06-8.29-34.3,14.4.5,1.09,6.45-1.57,6.45-1.57s-8.27,5.32-4.63,18.78a16.51,16.51,0,0,1,3.47-4.38s1.33,24.09,45.11,31.6l39.17,2.89c26.47,0,60.74-6.23,72-22.5a18.84,18.84,0,0,1-.44,6.05s11-1.67,11.91-19.4c2.2,1,3.75,4,3.75,4S214.45,249.29,193.85,241.88Z"/><path class="cls-11" d="M164.52,238.34l.12-.31c-20.2.58-38.77,6-42.25,5.73-7-.6-21.94-9.91-36.86-9.88-10.67,0-17.2,6.18-21.36,7.58-7.06,2.39-22.06-8.29-34.3,14.4.5,1.09,6.45-1.57,6.45-1.57s-8.27,5.32-4.63,18.78a16.51,16.51,0,0,1,3.47-4.38s1.33,24.09,45.11,31.6l20.51,6.26,18.61-3.39h.44c15.69-1.71,61.45-16.85,60.57-39.79a13.21,13.21,0,0,1,3.31,6.25c4-5.63.66-11.89-2-17.52a7.78,7.78,0,0,1,5.3,3.76C185,246.47,175.77,236.46,164.52,238.34Z"/><path class="cls-17" d="M64.17,241.46c.09,0-1,.15-2.8.3A8.39,8.39,0,0,0,64.17,241.46Z"/><path class="cls-8" d="M40.29,262.27c-2,1.25-3.64,1.57-5.62,2.82,1.1-7.09,6.56-10.85,9.09-14.08a13.67,13.67,0,0,0-7.38,1c5.17-8.36,16.76-9.78,23.21-10.12.65,0,1.24-.07,1.78-.12-7.49-.24-20.77-5.79-31.5,14.1.5,1.09,6.45-1.57,6.45-1.57s-8.27,5.32-4.63,18.78a16.51,16.51,0,0,1,3.47-4.38s1.21,21.93,39.36,30.47C56.59,291.82,38.8,277.92,40.29,262.27Z"/><path class="cls-12" d="M65.34,246.4c5-4.25,12.1-5.9,19-7.64a94.65,94.65,0,0,0-10.46.83s-14.16,2.29-16.15,14.54c-.83,5.05,1.18,6.69,2,10.37C60.15,257.11,59.2,251.43,65.34,246.4Z"/><path class="cls-5" d="M194,241.59c-21.25-7.65-48.41-2.34-63,.52-4.28.83-7.38,1.44-8.55,1.34-2.58-.22-6.37-1.7-10.76-3.4-7.45-2.89-16.72-6.49-26.06-6.49h-.07c-7.71,0-13.28,3.2-17.35,5.52a26.25,26.25,0,0,1-4.13,2.09c-1.81.61-4.22.32-7,0-7.76-.94-18.39-2.23-27.46,14.57l-.07.13.07.13a.72.72,0,0,0,.43.38c.87.31,3-.41,4.66-1-2.23,2.34-6,8-3.29,17.82l.22.82.4-.75a16.12,16.12,0,0,1,2.92-3.85c.25,1.77,1.37,6.8,6.13,12.5C46.16,288,56.63,296,77.6,300.12a11.64,11.64,0,0,0,2.73-.14c-22.48-3.86-33.48-12.17-38.74-18.46-5.69-6.81-6.09-12.79-6.1-12.85l0-.65-.52.43a16.74,16.74,0,0,0-3.13,3.75c-3-12.49,4.62-17.6,4.7-17.65l-.33-.54c-1.84.82-5,2-5.9,1.77,8.83-16.18,19.13-14.92,26.67-14,2.88.35,5.36.65,7.33,0a26.3,26.3,0,0,0,4.24-2.14c4-2.29,9.48-5.42,17-5.43h.07c9.21,0,18.41,3.57,25.81,6.44,4.44,1.72,8.27,3.21,11,3.44,1.27.11,4.24-.47,8.74-1.35,14.53-2.84,41.57-8.13,62.64-.55,18,6.48,13.9,24.53,12.81,28.32a9.52,9.52,0,0,0-3.5-3.44l-.46-.21,0,.48c-.75,15.12-9,18.4-11.15,19a17.36,17.36,0,0,0,.33-5.69l-.14-.77-.46.66c-10.79,15.61-43.91,22.59-71.95,22.59a86.69,86.69,0,0,0,16.46-.15c23.18-2.32,46.33-9,55.54-21.4a21.22,21.22,0,0,1-.54,5.11l-.1.45L191,287c.11,0,11.09-1.88,12.16-19.18a10.77,10.77,0,0,1,3.15,3.57l.36.68.25-.72C207,271.17,214.63,249,194,241.59Z"/><path class="cls-5" d="M78,295.78a8.45,8.45,0,0,0,6.57,2.86,9.76,9.76,0,0,0,7.25-2.75A12.43,12.43,0,0,1,78,295.78Z"/><path d="M72.05,193.91c-5.46,2-8.66,12.15-8.21,12.56,0,0,5-7.82,8-8.86a7.47,7.47,0,0,1,5.35-.05S76.26,192.38,72.05,193.91Z"/><path d="M114.14,194.52s9.47-4.26,17.15,4.87C127.58,190.32,122.26,187.3,114.14,194.52Z"/><path class="cls-12" d="M124.13,224.88A2.09,2.09,0,1,0,126.3,227,2.15,2.15,0,0,0,124.13,224.88Z"/><path class="cls-12" d="M128.56,222.44a1.2,1.2,0,1,0,1.25,1.22A1.24,1.24,0,0,0,128.56,222.44Z"/><path class="cls-18" d="M61.66,262.61c-.4-1,21.49,13.87,55.79-4.71-16.48,30.81-12,32-32.54,32.53C66.22,289.78,82.15,282.07,61.66,262.61Z"/><path class="cls-19" d="M76.6,288.05s11,4.71,21.92-.94-6-12.25-11-8.48c-2-2.83-17.93-.94-11,9.42"/><path class="cls-12" d="M80.76,280a3.33,3.33,0,0,0,3.58-1.28,4.72,4.72,0,0,0,4.8-.2c2.14-1.49-.06-20.08-.06-20.08L74.87,260S75.88,278.36,80.76,280Z"/><path class="cls-13" d="M83,273.58a3.8,3.8,0,0,0-.16-.55A5.7,5.7,0,0,0,83,273.58Z"/><path class="cls-13" d="M89.08,258.45l-2.73.29c.91,5.73,2.66,14,1.6,17.15-.83,2.43-4.15-.24-4.91-2.31.28,1.18-.08,3.19-1.5,3.58-1.62.21-2.58,0-4-1.66.82,2.3,1.88,4.05,3.23,4.51a3.33,3.33,0,0,0,3.58-1.28,4.72,4.72,0,0,0,4.8-.2C91.28,277,89.08,258.45,89.08,258.45Z"/><polygon class="cls-20" points="83.99 278.8 80.49 262.74 81.18 262.61 84.68 278.66 83.99 278.8"/><path class="cls-20" d="M81.69,280.5a3.3,3.3,0,0,1-1-.18c-5.05-1.7-6.09-19.57-6.13-20.33l0-.31,14.9-1.6,0,.33c.37,3.14,2.11,18.86-.08,20.39a5,5,0,0,1-4.91.36A3.78,3.78,0,0,1,81.69,280.5Zm-6.45-20.23c.32,5.27,1.89,18.16,5.64,19.42h0A2.92,2.92,0,0,0,84,278.55l.19-.27.29.17a4.31,4.31,0,0,0,4.41-.19c1.42-1,.67-12.3-.16-19.44Z"/><path class="cls-11" d="M74.83,240.28s-14.47.79-16.45,11.45,2.78,17.45,12.19,18,10.27-7.44,10.27-7.44S87.34,268,95,268.05s18.23-1.52,16.79-13.37c-1.1-9-9.31-14.7-19.22-15A143.23,143.23,0,0,0,74.83,240.28Z"/><path class="cls-8" d="M111.77,254.68c-1-8.49-8.34-14-17.43-14.87,8.59,3.79,12.85,10.95,10.37,18.11-1.65,4.95-9.62,6.38-15.49,4.79-5.63-1.6-10.73-7.83-11.2-12.29a37.37,37.37,0,0,1-.53,8.3,9.62,9.62,0,0,1-7.28,7.18,19,19,0,0,1-8.44.16L61.4,266a13.48,13.48,0,0,0,9.17,3.74c9.41.55,10.27-7.44,10.27-7.44S87.34,268,95,268.05,113.21,266.53,111.77,254.68Z"/><path class="cls-5" d="M71.47,270l-.93,0a14.32,14.32,0,0,1-8.62-3.09c-3.74-3.14-5.12-8.53-3.89-15.17,1-5.61,5.54-8.48,9.14-9.9A27,27,0,0,1,74.78,240a146.53,146.53,0,0,1,17.78-.58,23,23,0,0,1,13.17,4.29,15.75,15.75,0,0,1,6.39,10.91c.58,4.74-.72,8.3-3.87,10.58-2.88,2.09-7.34,3.12-13.27,3.05-6.55-.08-12.17-4.07-13.89-5.43A8.89,8.89,0,0,1,77,268.67,10.74,10.74,0,0,1,71.47,270Zm17.06-30.11c-7.81,0-13.58.62-13.65.63h0a27,27,0,0,0-7.35,1.71c-5,2-8,5.2-8.77,9.54-1.21,6.51.12,11.77,3.74,14.81a13.53,13.53,0,0,0,8.13,2.91,10.32,10.32,0,0,0,5.89-1.18,8.71,8.71,0,0,0,4-6l.07-.62.56.49c.06.06,6.49,5.59,13.87,5.68,5.73.07,10-.91,12.75-2.89,3-2.18,4.24-5.62,3.68-10.22-1-8.54-8.63-14.47-18.88-14.76C91.16,239.9,89.82,239.88,88.53,239.88Z"/><path class="cls-3" d="M65,243.48c-1.6,3,5.45,10.94,13.76,10.94,5.16,0,21.87-7,19.23-12.19C94.77,235.88,68,238.07,65,243.48Z"/><path class="cls-21" d="M66.31,243.62c-.56,1,.38,2.64,2,4.31,5.56,3.42,14.5,2.64,20.59-.83,3.3-1.84,6.8-6.09,4.11-7.53C84.75,237.18,68.62,239.35,66.31,243.62Z"/><path class="cls-22" d="M75.8,240.69c-3.68.71-6.34,2.06-5.94,3s3.71,1.18,7.39.47,6.35-2.06,6-3S79.49,240,75.8,240.69Z"/><path class="cls-23" d="M78.78,254.66a16.75,16.75,0,0,1-11.3-4.85c-2.45-2.39-3.57-5-2.79-6.41,1.78-3.29,11.63-5.28,19.88-5.28h.32c7.26,0,12.17,1.51,13.46,4,.72,1.42.15,3-1.7,4.8C92.35,251.05,82.47,254.66,78.78,254.66Zm5.79-16.07c-8,0-17.6,2-19.22,5h0c-.7,1.29.42,3.74,2.71,6a15.88,15.88,0,0,0,10.72,4.65c3.55,0,13.11-3.51,17.3-7.51,1.7-1.63,2.24-3.1,1.6-4.36-1.17-2.28-6-3.67-12.8-3.72Z"/></svg>