<svg id="Layer_1" data-name="Layer 1" xmlns="http://www.w3.org/2000/svg" viewBox="0 0 347.91 320.9"><defs><style>.cls-1{fill:#fff;}.cls-2{fill:#dacaa6;}.cls-3{fill:#985b2f;}.cls-4,.cls-5{fill:#382112;}.cls-5{opacity:0.88;}.cls-6{fill:#bda883;}.cls-7{fill:#d1c5c0;}.cls-8{fill:#5c6762;}.cls-9{fill:#373f3c;}.cls-10{fill:#484a49;}.cls-11{fill:#f3f4f4;}.cls-12{fill:#6d4d38;}.cls-13{fill:#1c1c1a;}.cls-14{fill:#422b1c;}.cls-15{fill:#353535;}.cls-16{fill:#828383;opacity:0.74;}.cls-17{fill:none;stroke:#382110;stroke-miterlimit:10;stroke-width:2px;}</style></defs><path class="cls-1" d="M198.42,69a95.75,95.75,0,0,0,19.46,8.81s28.92,21,39,22.9c8.35,1.57,8.57,34.62,20.15,52a125.73,125.73,0,0,0,13-40c-3.87-4.12-7.09-10.82-5.54-21.47,3.32-22.75,4.74-25.49,3.32-32.89s-17.07-3.64-23.71-13.1c0,0-17.47-3.78-27.69,6.17s-2.65,18-2.65,18A25.06,25.06,0,0,1,208.5,61.2h0q-1.26,3-2.31,6.07A52.57,52.57,0,0,0,198.42,69Z"/><path class="cls-2" d="M171.34,209.26c26.17,1.9,69.59-11.85,92.22-37a96.32,96.32,0,0,0,13.5-19.55c-11.58-17.41-11.8-50.46-20.15-52-10.11-1.89-39-22.9-39-22.9A95.75,95.75,0,0,1,198.42,69a54.92,54.92,0,0,0-10,4.22,120,120,0,0,0-13.95,9c24.51.37,46.43,7.62,51.81,25.64,12.5,41.87-17.54,68.74-54.9,82.49S145.17,207.36,171.34,209.26Z"/><path class="cls-3" d="M208.5,61.19h0a25.06,25.06,0,0,0,25.32,8.22s-7.58-8.06,2.65-18,27.69-6.17,27.69-6.17a166,166,0,0,0,15.65-8c7.11-4.27,19,6.47,38.41-5.06l.41-.23c-2.67-8-8.93-18.32-23.65-24.1-26.55-10.43-49.92-1.73-62.25,12.49C226.63,27.33,215.49,44.21,208.5,61.19Z"/><path class="cls-4" d="M287.87,58.33c1.42,7.4,0,10.14-3.32,32.89s15.17,27.5,15.17,27.5,0-22.76,15.17-48.36,5.69-27,5.69-27a35.87,35.87,0,0,0-1.95-11.45l-.41.23c-19.44,11.53-31.3.79-38.41,5.06a166,166,0,0,1-15.65,8C270.8,54.69,286.45,50.93,287.87,58.33Z"/><path class="cls-5" d="M236.47,58.33s-2.58,9.19,0,14.88,8.73,8.06,15.84,9.48,5.69-9.88-2.37-12.53S237.18,54.89,236.47,58.33Z"/><path class="cls-6" d="M103.41,215.1c28.89-9.48,63.56,32.08,119.5,7,33.32-15,52.32-39.53,63.11-60.88h0a24.24,24.24,0,0,1-9-8.45,96.32,96.32,0,0,1-13.5,19.55c-22.63,25.13-66.05,38.88-92.22,37s-37.36-5.22,0-19,67.4-40.62,54.9-82.49c-5.38-18-27.3-25.27-51.81-25.64C126,117.86,76.84,198.92,61.52,218,44.72,238.81,74.53,224.58,103.41,215.1Z"/><path class="cls-7" d="M277.06,152.73a24.24,24.24,0,0,0,9,8.45h0a144.41,144.41,0,0,0,12.81-37,11.78,11.78,0,0,0,.89-5.49,22.37,22.37,0,0,1-9.63-6A125.73,125.73,0,0,1,277.06,152.73Z"/><path class="cls-8" d="M301.53,51.45c13.65-6.85,44-4.57,44-4.57-14-13-27.29-14.76-27.29-14.76C321.76,40,302.31,51,301.53,51.45Z"/><path class="cls-9" d="M301.51,51.46,313,58.33l32.56-11.45s-30.33-2.28-44,4.57Z"/><path class="cls-10" d="M327.22,36.68s5.67,2.72,10.43,5.11-3.76.07-10.43,0S322.82,34.55,327.22,36.68Z"/><circle class="cls-11" cx="282.98" cy="41.79" r="12.41"/><circle cx="286.68" cy="41.79" r="8.7"/><path class="cls-1" d="M292.45,34.88A3.09,3.09,0,1,0,289.36,38,3.09,3.09,0,0,0,292.45,34.88Z"/><path class="cls-12" d="M80.28,188.22S14.19,260.79,7.23,270s-6.95,24.8,2.61,14.7,92.18-102,92.18-102Z"/><path d="M80.69,198.36l-3,3.3c-1.91,2.11-4.67,5.1-7.92,8.74s-7.08,7.86-11.12,12.43S50.28,232.28,46,237.15l-12.57,14.4c-4,4.6-7.71,8.93-10.9,12.63s-5.81,6.81-7.66,9L12,276.57l3-3.3c1.91-2.11,4.66-5.1,7.92-8.74S30,256.67,34,252.1l12.66-14.32c4.28-4.91,8.56-9.81,12.58-14.4s7.71-8.94,10.9-12.63,5.8-6.81,7.66-9Z"/><path d="M75.6,198.36l-9.3,10.35-9.49,10.66L46,231.62l-10.8,12.29c-3.43,3.94-6.63,7.61-9.38,10.75l-9.1,10.54L26,254.84l9.49-10.66,10.84-12.25,10.8-12.29c3.43-3.93,6.63-7.61,9.38-10.75Z"/><path class="cls-12" d="M158.43,173.52s-63.21,19.24-86.28,21.4c6.86.49,19.25.2,33.67-1.78,13.56-1.86,40.56-6.71,64.49-14-8.12-1.36-9.34-6-9.34-6-.88.18-1.72.32-2.54.44Z"/><path class="cls-3" d="M186.39,173.56h0c11.84-4.64,21.59-10,26.55-16,16.12-19.44,15.65-54,12.33-66.84s-19.1-23.49-19.1-23.49C162.55,68.21,99.43,150.92,76,181.75l57.38-14.57c-7.74,1.24-10-4.82-10-4.82C110.07,161,112,149.69,112,149.69c1.28,11.38,15.49,9.48,15.49,9.48-3.79,7.27,12.33,4.11,12.33,4.11C143,173.71,167,169.6,167,169.6,162.93,178.61,185.64,173.72,186.39,173.56Z"/><path class="cls-12" d="M137.06,167.74l-62.41,15.8c-1.64,2.15-3,4-4.19,5.47l70.46-17.73a13.28,13.28,0,0,1-2.43-1.86A10.7,10.7,0,0,1,137.06,167.74Z"/><path class="cls-12" d="M68.6,194.52h0S139,179.5,152.16,174a23.51,23.51,0,0,1-9.22-1.69h0L69.09,190.75a13.48,13.48,0,0,1-2.15,2.39C65.88,193.67,66.56,194.16,68.6,194.52Z"/><path class="cls-1" d="M219.6,131.2s-11.85,4.89-22.28,0c0,0-31.29,6.79-38.88,0,0,0-1.9,10.85,37.93,7.48C196.37,138.68,212.43,144.25,219.6,131.2Z"/><path class="cls-13" d="M212.2,93.73s-.65,0-1.8.1a26.94,26.94,0,0,0-4.74.89,23.48,23.48,0,0,0-6.49,2.89,15.9,15.9,0,0,0-3.18,2.73,10.33,10.33,0,0,0-2.17,3.83l.39-.55a14.91,14.91,0,0,1,1.18-1.35A19.56,19.56,0,0,1,200.12,99C204.1,96.84,209.2,95.37,212.2,93.73Z"/><path class="cls-13" d="M198.41,109.85s-.66.33-1.77,1a38.6,38.6,0,0,0-4.42,3.27,40.6,40.6,0,0,0-5.56,5.76,33.35,33.35,0,0,0-4.84,8.29l.47-.61c.31-.38.71-1,1.28-1.63,1.09-1.36,2.65-3.17,4.43-5.09C191.55,117,196,112.91,198.41,109.85Z"/><path class="cls-13" d="M181.82,112.68s-.65.24-1.76.78a43.31,43.31,0,0,0-4.52,2.55,39.31,39.31,0,0,0-5.95,4.68c-.51.5-1,1-1.51,1.58s-1,1.13-1.43,1.77a16.45,16.45,0,0,0-1.25,2,14.18,14.18,0,0,0-1,2.18l.44-.58c.13-.19.3-.41.5-.68s.46-.52.74-.82a43.64,43.64,0,0,1,4.67-4.28C174.61,118.71,179.38,115.43,181.82,112.68Z"/><path class="cls-13" d="M213.75,84.26s-.45-.12-1.27-.26a26.57,26.57,0,0,0-3.46-.38,24.94,24.94,0,0,0-5.09.27,14.81,14.81,0,0,0-2.91.78,8.19,8.19,0,0,0-1.42.71,4.43,4.43,0,0,0-1.19,1.09s.14-.11.4-.28a5.76,5.76,0,0,1,1.17-.53,18.78,18.78,0,0,1,4.17-.69C207.45,84.71,211.34,84.8,213.75,84.26Z"/><path class="cls-13" d="M203,70.26s-.82.1-2.27.38a56.25,56.25,0,0,0-6,1.5,50.4,50.4,0,0,0-8.41,3.43,28.51,28.51,0,0,0-8.61,6.59l.68-.54.78-.64c.3-.26.69-.49,1.09-.78s.83-.61,1.34-.89l1.59-.94,1.79-1c.63-.32,1.3-.62,2-.94,2.71-1.25,5.73-2.41,8.58-3.45S201,71.08,203,70.26Z"/><path class="cls-13" d="M197,82.16s-.72.08-2,.34a43.91,43.91,0,0,0-5.21,1.43,37,37,0,0,0-7.17,3.32l-.94.61-.48.31-.46.35A18.07,18.07,0,0,0,178.94,90a16.33,16.33,0,0,0-3.12,3.73l.52-.54.6-.64c.23-.25.55-.48.87-.77A24.53,24.53,0,0,1,180.18,90l1.49-.93c.53-.31,1.08-.6,1.64-.92a77.4,77.4,0,0,1,7.28-3.31C193,83.83,195.29,83,197,82.16Z"/><path class="cls-13" d="M179.61,92.16s-.36.18-1,.56a20,20,0,0,0-2.38,1.8,18.22,18.22,0,0,0-2.93,3.24,11.07,11.07,0,0,0-2,4.84l.19-.37a9.44,9.44,0,0,1,.55-1,22.45,22.45,0,0,1,2.19-2.89C176.09,96.23,178.49,94,179.61,92.16Z"/><path class="cls-13" d="M171.33,116.8a13.33,13.33,0,0,0-1.53.07,22.31,22.31,0,0,0-4.08.73,20.25,20.25,0,0,0-5.57,2.42,12.94,12.94,0,0,0-2.75,2.32,7.79,7.79,0,0,0-1.82,3.32l.34-.47a9.15,9.15,0,0,1,1-1.13,16.88,16.88,0,0,1,4.11-2.67C164.5,119.69,168.83,118.4,171.33,116.8Z"/><path class="cls-13" d="M161,107.32a16.94,16.94,0,0,0-1.77.47,27.2,27.2,0,0,0-4.54,1.91,25,25,0,0,0-5.85,4.24,17.49,17.49,0,0,0-4.6,7.3l.41-.56.46-.65c.09-.12.18-.26.29-.4l.36-.42c.25-.29.53-.61.82-1l1-1c.34-.37.76-.7,1.16-1.07s.83-.73,1.28-1.09c1.79-1.45,3.86-2.86,5.82-4.15S159.62,108.44,161,107.32Z"/><path class="cls-13" d="M163.46,92.16a34.65,34.65,0,0,0-4.91,2.26,37,37,0,0,0-4.83,3.15,20.13,20.13,0,0,0-4.77,5l.41-.37.47-.44.65-.54c1-.8,2.38-1.8,4-2.84C157.6,96.31,161.42,94.06,163.46,92.16Z"/><path class="cls-13" d="M207.11,109.85A7.56,7.56,0,0,0,206,110a11.57,11.57,0,0,0-2.69,1.09,10.63,10.63,0,0,0-3.23,2.79,8,8,0,0,0-1.72,4.79l.21-.34.24-.4a5,5,0,0,1,.34-.5,15.76,15.76,0,0,1,2.22-2.53c.94-.89,2-1.75,3.06-2.58A16.84,16.84,0,0,0,207.11,109.85Z"/><path class="cls-14" d="M68.6,194.52a33,33,0,0,0,3.54.4h0c23.07-2.16,86.28-21.4,86.28-21.4h0c.82-.12,1.66-.26,2.54-.44,0,0,1.22,4.67,9.34,6,5.6-1.71,11-3.56,16.08-5.54-.75.16-23.46,5.05-19.42-4,0,0-24,4.11-27.17-6.32,0,0-16.12,3.16-12.33-4.11,0,0-14.21,1.9-15.49-9.48,0,0-1.91,11.29,11.38,12.67,0,0,2.29,6.06,10,4.82L76,181.75l-1.36,1.79,62.41-15.8a10.7,10.7,0,0,0,1.43,1.68,13.28,13.28,0,0,0,2.43,1.86L70.46,189c-.5.65-1,1.23-1.37,1.74l73.85-18.43h0a23.51,23.51,0,0,0,9.22,1.69C139,179.5,68.6,194.52,68.6,194.52Z"/><path class="cls-13" d="M193.84,147.48S177.77,167.36,161,167.74s-15.17-6.56-15.17-6.56S161.71,169.93,193.84,147.48Z"/><path class="cls-13" d="M189,156.21s-11.6,10.3-15.87,11.53c0,0-2.37,7.23,11.85,2.81l5.38-2.8S180.39,170,189,156.21Z"/><path class="cls-13" d="M152.59,152.73s-8.12,8.57-16.91,8.45-4.42-5-4.42-5S135.37,159.56,152.59,152.73Z"/><path class="cls-13" d="M171.34,147.48s-7.84,5.68-15.74,3.47,2.83-11.74,2.83-11.74S153.89,148.74,171.34,147.48Z"/><path class="cls-13" d="M139.48,147.48s-10,8.28-15.49,9.48-6.32-4.23-6.32-4.23S122.41,158.22,139.48,147.48Z"/><path class="cls-13" d="M133.67,121.24s-9,10.24-9.68,14.29C124,135.53,117.11,130.41,133.67,121.24Z"/><path class="cls-13" d="M127.5,141.47s-18.8,10.57-14.57,0C112.93,141.47,114.25,147.16,127.5,141.47Z"/><path class="cls-13" d="M133.67,130.09s-7.78,12.92,1.38,13.73,10.71-4.61,10.71-4.61S131.65,145.58,133.67,130.09Z"/><path d="M116.48,164.1s-.48.1-1.32.31-2,.5-3.49.88-3.11.81-4.9,1.3l-5.6,1.55-5.59,1.58-4.88,1.36-2,.53c-.58.15-1.09.3-1.51.38l-1.32.32,1.35-.13c.44-.05,1-.14,1.56-.23s1.27-.2,2-.34,1.52-.29,2.36-.48,1.71-.38,2.61-.6c1.81-.43,3.72-.95,5.63-1.48l2.85-.82c.93-.27,1.85-.56,2.73-.84,1.78-.55,3.42-1.1,4.83-1.58s2.56-.93,3.38-1.22Z"/><path d="M111.27,157.61l-.77.17c-.49.13-1.19.28-2,.51s-1.79.49-2.82.8-2.12.67-3.21,1-2.15.78-3.15,1.2c-.5.21-1,.41-1.42.62s-.87.4-1.25.61a11.61,11.61,0,0,0-1,.57c-.3.19-.57.33-.77.49l-.63.48.68-.41c.21-.13.49-.25.8-.41s.67-.3,1.06-.48.82-.35,1.28-.53.94-.36,1.44-.55,1-.37,1.54-.57l1.61-.57Z"/><path class="cls-3" d="M280.79,38.37a29.32,29.32,0,0,0,1.28,4A6.08,6.08,0,0,0,284,45a8.66,8.66,0,0,0,3.16,1.22c.64.09,1.31.19,2,.31a15.37,15.37,0,0,1,2.2.32,13.09,13.09,0,0,1-2,1.14,13.5,13.5,0,0,1-2.25.59,7.12,7.12,0,0,1-4.89-1.16,6.23,6.23,0,0,1-2.47-4.48A7.23,7.23,0,0,1,280.79,38.37Z"/><path class="cls-15" d="M239.52,225.38l43.78,18.16s4.21-3.91,8.2,2c0,0,10-2,11.06,11.27,0,0-2-8.61-9.9-9.08,0,0,12.11,4,6.9,15.21,0,0,1.08-9.27-7.33-10.66,0,0,6.92,3.27,5.55,12.56,0,0-.45-7.36-8.69-12.52-5.53-3.45-9.5,1.53-9.27,4.46s-3.82-3.63.95-7.93l-45.19-19.48Z"/><path class="cls-16" d="M245.35,228.77l37.74,15.46s5.55-2.52,7.21,2c0,0,4.79-.29,6.37,1,0,0-4.72-1-6.31-.21,0,0-1-2.8-3.51-2.61a10.3,10.3,0,0,0-3.52.72S246.37,229.47,245.35,228.77Z"/><path class="cls-6" d="M224.56,220s-.17,10.41,16.43,11.87L240.4,229l2.16,0-1.71-1.83,4.91.6a4,4,0,0,1-2.12-4.55c.73-3.2,2.06-16.83-2.72-22.74C240.92,200.48,230.21,213,224.56,220Z"/><path class="cls-2" d="M227.32,225.22s8.87,4.3,11.61,4.48c0,0-3.83-6.24-3.86-7s2.8,4.86,5.05,5.1L237.74,224s4,1.6,4.77,2-1.08-.15-.15-7.58c.4-3.21,1.18-9.82-.7-15.65a20.81,20.81,0,0,1,2.13,9.88c-.29,5.38-1,10.36-.92,11.23a8.27,8.27,0,0,0,1.7,3.74l-4.18-.93,2.16,2.17-3-.62,1,3.13S232.16,231.25,227.32,225.22Z"/><path class="cls-15" d="M199,238.58l40.1,47.81s7.3-2,8.38,7.3c0,0,12.92,3.77,6.06,19.9,0,0,2.85-11.31-6.05-16.64,0,0,11.72,12-1.18,22,0,0,6.9-10.17-2.08-16.91,0,0,6.09,8-1.16,18.06,0,0,4-8.87-2.54-19.91-4.35-7.39-12-4-13.54-.43s-2.25-6.56,5.93-8.68L192,240.82Z"/><path class="cls-16" d="M203.73,246.07l34.69,41s8,.42,7.23,6.68c0,0,5.76,2.57,6.83,5,0,0-4.89-4.07-7.24-4.07,0,0,.54-3.88-2.52-5.18a13.55,13.55,0,0,0-4.54-1.31S204.49,247.51,203.73,246.07Z"/><path class="cls-6" d="M184.79,223.17s-6.53,12.07,12,23.85l1-3.72,2.51,1.35-.89-3.18,5.38,3.68a5.31,5.31,0,0,1,.28-6.6c2.8-3.29,12.65-18.41,10.65-28.21C215.75,210.34,195.61,218.48,184.79,223.17Z"/><path class="cls-2" d="M184.82,231s7.75,10.42,10.84,12.3c0,0-.68-9.63-.24-10.56s.32,7.38,2.8,9l-.51-5.82s3.76,4.34,4.38,5.22-1.17-.84,4.42-8.94c2.42-3.51,7.34-10.76,8.7-18.71a27.48,27.48,0,0,1-3.53,12.83c-3.61,6.11-7.44,11.51-7.89,12.56a10.81,10.81,0,0,0-.28,5.4l-4.33-3.62,1.21,3.84L197.26,242l-.68,4.29S186.81,241,184.82,231Z"/><path class="cls-17" d="M322,54.24l23.24-8.17c-12.39-11.49-24.23-14.2-26.78-14.68,0-.1-.06-.21-.1-.32-2.66-8-8.93-18.32-23.65-24.1C268.2-3.46,244.83,5.24,232.5,19.46c-6.1,7.06-17.24,23.93-24.23,40.91-.84,2-1.61,4.06-2.31,6.07-43.64,1-106.76,83.67-130.18,114.49l-1.36,1.79c-1.63,2.15-3,4-4.19,5.48-.5.65-1,1.23-1.36,1.73a13.35,13.35,0,0,1-2.16,2.39c-1,.53-.38,1,1.66,1.38h0a32.68,32.68,0,0,0,3.54.41h0l2,.1c-16.6,18.27-61.22,67.49-66.86,75-7,9.18-7,24.8,2.61,14.69,4.86-5.13,28.6-31.4,50.77-56,7.68-.45,25.4-7.87,42.8-13.58,21.46-7,46.14,14.1,80.36,15.1.54,4.54,3.41,10.71,13,16.82l.07-.23,36.07,44.24c-8.19,2.13-7.44,12.24-5.93,8.68s9.18-7,13.53.44C246,309,243.66,317,243,318.83c0,.06.06.09.1,0,4.76-6.86,3.32-12.74,2-15.68a.4.4,0,0,1,.65-.43c5.43,5.79,1.62,13.16.56,14.94,0,.07.06.15.13.1,9.86-6.64,3.48-18.16,2.14-19.57a0,0,0,0,1,0-.05c7,4.38,5.3,10.78,4.86,13.61a.1.1,0,0,0,.19,0c6-15.34-6.45-19-6.45-19-1.08-9.31-8.37-7.3-8.37-7.3l-35-41.76.76.52a5.29,5.29,0,0,1,.28-6.59,62.23,62.23,0,0,0,7.52-12.53,99.19,99.19,0,0,0,10.29-4c.61-.27,1.2-.55,1.8-.83.55,2.81,3.24,9.48,16.29,10.62l0-.17L280.54,248c-4.77,4.3-.72,10.86-1,7.93s3.75-7.91,9.27-4.45c6.57,4.1,8.19,9.61,8.57,11.68a.12.12,0,0,0,.23,0c.63-6.56-3-9.91-4.72-11.14a.18.18,0,0,1,.15-.33c6.75,1.85,6.34,9.34,6.25,10.31a0,0,0,0,0,0,0c4.13-9-3-13-5.83-14.23a.1.1,0,0,1,.06-.19,12,12,0,0,1,8,6.46.27.27,0,0,0,.51-.17c-1.88-10.94-10.8-9.17-10.8-9.17-4-5.9-8.21-2-8.21-2l-38.23-15.85.69.08a4,4,0,0,1-2.12-4.55,47.73,47.73,0,0,0,.51-13.17,131,131,0,0,0,41.88-48.87,144.81,144.81,0,0,0,12.81-37,11.78,11.78,0,0,0,.88-5.49s0-22.75,15.17-48.35A78.46,78.46,0,0,0,322,54.24Zm-23.57,63.33.19.07Zm.54.18-.14,0Zm.39.12h0Zm-.22-.06.1,0Z"/></svg>