<svg id="Layer_1" data-name="Layer 1" xmlns="http://www.w3.org/2000/svg" viewBox="0 0 389.7 180"><defs><style>.cls-1{fill:#797977;}.cls-1,.cls-10,.cls-11,.cls-12,.cls-13,.cls-14,.cls-15,.cls-16,.cls-17,.cls-2,.cls-3,.cls-4,.cls-5,.cls-6,.cls-7,.cls-8,.cls-9{stroke:#000;stroke-miterlimit:10;}.cls-1,.cls-10,.cls-11,.cls-12,.cls-13,.cls-2,.cls-3,.cls-4,.cls-5,.cls-6,.cls-7,.cls-8,.cls-9{stroke-width:0.87px;}.cls-2{fill:#262626;}.cls-3{fill:#3b3b3d;}.cls-4{fill:#616161;}.cls-5{fill:#7a7a78;}.cls-6{fill:#636362;}.cls-7{fill:#bababa;}.cls-8{fill:#f2695a;}.cls-9{fill:#f6adaf;}.cls-10{fill:#c14639;}.cls-11,.cls-17{fill:#fefefe;}.cls-12{fill:#a7a7a7;}.cls-13,.cls-15{fill:#f0f0f0;}.cls-14{fill:#111;}.cls-14,.cls-15,.cls-16,.cls-17{stroke-width:0.33px;}.cls-16{fill:#090909;}</style></defs><path class="cls-1" d="M235.63,77.75v0h0Zm-81.23,0,0,0h0Z"/><path class="cls-1" d="M241.16,3.93c-5.37-1.06-8.8,2.41-12.39,5.4-5.84,4.86-10.17,11-14.43,17.21-1.4,2-3.07,3.87-4.54,5.84-3.18,4.27-4.37,9.29-5.29,14.39a86.66,86.66,0,0,0-1,12c-.09,2.21-.1,2.26-2.1,1.31a9.5,9.5,0,0,1-.88-.5,26.55,26.55,0,0,0-11,0c-.87.45-1.79,1.52-2.67,1s-.26-1.77-.31-2.69c-.31-6.9-.89-13.75-3.39-20.27a25.16,25.16,0,0,0-4.87-7.83c-2.61-2.9-4.53-6.26-6.84-9.36a64.71,64.71,0,0,0-14-14.18c-2.21-1.6-4.56-3.18-7.59-2.35-.15,0-.37-.19-.56-.3a6.92,6.92,0,0,0-2.73,3.11,17.65,17.65,0,0,0-.93,13.79A31.31,31.31,0,0,1,147,28.3c.42,6.92.05,13.86.61,20.79.78,9.53,2.4,18.87,6.54,27.61.15.32.46.63.24,1,.33-.11.29.16.32.36l4.83,7.7c-.13,1-.26,1.92-.4,2.88-.27,2.29.66,4.41,1,6.62.41.14.55.51.75.85,4.61,8.09,13.67,10.3,21.48,5.26a6.51,6.51,0,0,1,.74-.39c.09.84-.55,1.13-1.11,1.52-5.4,3.75-16.2,3.17-21.34-3.17-.2-.25-.31-.61-.73-.59a14.56,14.56,0,0,0,1.86,7.69c5.33,5.63,12.47,8,19.39,10.87,2.9,1.18,5.59,2.86,8.8,3.28,5.81.76,11.4.49,16.74-2.29,2.33-1.22,4.88-2,7.31-3,5.21-2.19,10.27-4.6,14.21-8.83a14,14,0,0,0,1.86-7.67c-1.91,1.7-3.63,3.64-6.1,4.59-5.45,2.08-10.81,2.31-16-.84-.58-.36-1.2-.68-1.09-1.52,2.76,1.81,5.7,3.17,9.08,3.07a14.61,14.61,0,0,0,13-7.62c.25-.42.35-1,.89-1.17.43-2.19,1.29-4.32,1-6.62l-.39-2.9h0l4.82-7.67c0-.21,0-.43.33-.36-.19-.68.31-1.15.55-1.68a63.69,63.69,0,0,0,3.87-11.31,111.61,111.61,0,0,0,2.73-25.3,119.57,119.57,0,0,1,.64-15c.37-2.74,1.76-5.24,1.86-8C245.45,11.74,245,7.28,241.16,3.93Zm-60,59.94a57.72,57.72,0,0,0-11.72,8.47l-.25.25-.24.27c-.32.36-.62.72-.91,1.1-.74.94-1.42,1.92-2.13,2.88,0,.13,0,.26,0,.39l-2.69,2.26c-3.06-2.41-4.34-5.93-5.77-9.33a43.29,43.29,0,0,1-3.14-17.09c0-3.89-.81-7.77-1.14-11.67-.5-5.87-1.12-11.76.26-17.59.39-1.64.64-3.67,3-3.92h0l.53-.35a5.22,5.22,0,0,1,4.26,1.57,16.33,16.33,0,0,1,4.47,6.4c.72,1.86,1.51,3.7,2.26,5.55.13.12.27.25.41.36,3.57,5.32,7.26,10.56,10.43,16.13a30.85,30.85,0,0,1,3.74,11.8A2.25,2.25,0,0,1,181.13,63.87Zm14.78,27.66a14.58,14.58,0,0,1,2.81,5.28c.11.39.23.93-.29,1.2a1.16,1.16,0,0,1-1.12-.15A2.32,2.32,0,0,1,196,96.25,12.68,12.68,0,0,1,195.91,91.53Zm-4.6,5.54a14.06,14.06,0,0,1,2.81-5.57,11.48,11.48,0,0,1-.11,5,2.17,2.17,0,0,1-1.5,1.47C191.68,98.3,191.11,98,191.31,97.07ZM201,111.51A10.45,10.45,0,0,1,195.2,114a7.34,7.34,0,0,1-6-2.59c-.23-.26-.44-.6-.14-.89s.61,0,.82.25c3.28,3.38,6.71,2.49,9.72.49.28-.19.58-.35.87-.51s.59-.19.76.09S201.16,111.31,201,111.51Zm2.2-6.33c-.56,0-1.12-.05-1.68-.08a10.33,10.33,0,0,1-1.44,3.58,6,6,0,0,1-10.33-.59,10.26,10.26,0,0,1-1.11-3c-.73,0-1.46.07-2.18.05a.77.77,0,0,1-.8-.73.72.72,0,0,1,.66-.83c2.35.11,4.3-1.17,6.43-1.8,2.68-.8,5.08.07,7.49,1a6.84,6.84,0,0,0,3.08.73c.61-.05,1.2.14,1.15.88S203.73,105.2,203.15,105.18Zm34-67.18c-.32,3.9-.85,7.78-1.19,11.69-.55,6.24-.18,12.6-2.67,18.57a58.24,58.24,0,0,1-4.05,8.7,13,13,0,0,1-2.45,2.51l-2.71-2.26c0-.12,0-.24,0-.37a40.35,40.35,0,0,0-3.51-4.51,57.34,57.34,0,0,0-11.88-8.53,2.17,2.17,0,0,1-1.24-2.44,33,33,0,0,1,5.53-14.85c2.85-4.39,5.76-8.73,8.64-13.08l.39-.37c1.81-4,2.88-8.45,6.33-11.58,1.33-1.21,2.74-2.18,4.66-1.94l.52.35h0c1.18-.14,1.66.72,2.14,1.56a14.08,14.08,0,0,1,1.49,5.14A50.62,50.62,0,0,1,237.19,38Z"/><path class="cls-2" d="M283.77,105.71c-.47,4.75-1,9.5-1.71,14.22q-.85,5.66-1.72,11.32c-.61.68,0,1.72-.71,2.39l-4.09-1.94c.12-.89.29-1.77.37-2.66.52-5.41,1.25-10.8,1.8-16.21.63-6.14.79-12.3,1.24-18.46a69.32,69.32,0,0,0-.29-8.76,26.17,26.17,0,0,0-1.39-7.75A5.78,5.78,0,0,0,270.06,74a14.16,14.16,0,0,0-4.9,2.18,52.67,52.67,0,0,0-17,19.73A203.46,203.46,0,0,0,238,120.54c-1.79,5-3.6,10.06-5,15.21a16.78,16.78,0,0,0-8,11.5c-1.63,7.36-6.08,13-12,17.41s-11.76,8.54-16.85,13.79a1.28,1.28,0,0,1-2.14,0c-5-5.2-10.91-9.38-16.71-13.68-6.4-4.74-10.85-10.89-12.5-18.82-1-4.62-3.79-7.8-7.67-10.21-1.47-5.14-3.3-10.15-5-15.2-2.61-7.55-5.59-15-8.88-22.24a58.87,58.87,0,0,0-14.85-19.67,19.94,19.94,0,0,0-7.67-4.49c-4-1.14-6.65.33-8,4.24s-1.37,8.08-1.47,12.14c-.18,6.91.53,13.8,1,20.69.15,2.41.43,4.81.72,7.19.53,4.45,1.12,8.89,1.68,13.34l-4.12,1.93c-.22-.8-.45-1.6-.68-2.41a15.59,15.59,0,0,0-.5-3.66c-1.21-7.32-2.31-14.65-2.94-22-.3-3.47-.49-7-.73-10.42a105.54,105.54,0,0,1,.66-21.4c.89-6.62,2.09-13.2,3.19-19.79.79-4.73,1.64-9.44,2.47-14.23.67.34.62.93.78,1.37a79.2,79.2,0,0,0,7,14.39c5.19,8.45,12.23,15.1,20.14,20.94a129,129,0,0,0,19.36,12.3c-.27,2.29.66,4.41,1,6.62.15,1.17-.52,2.3-.21,3.48a14.56,14.56,0,0,0,1.86,7.69,16.75,16.75,0,0,0-4.56,8.31,20.76,20.76,0,0,0,1.23,13.69c.19.42.38.91.87,1s.88-.43,1.13-.87a18.63,18.63,0,0,1,1-1.92c.69-.93,1.37-.76,1.62.34a27.16,27.16,0,0,1,.33,3c.59,5.62,2.57,10.56,7,14.32a5.35,5.35,0,0,0,4.53,5.89A18.33,18.33,0,0,0,179,155c.24.78-.41,1.24-.72,1.8a8.58,8.58,0,0,0-1.27,5,2.52,2.52,0,0,0,1.43,2.33,91.15,91.15,0,0,0,9.65,3.25,1.33,1.33,0,0,0,1.61-.61,1.46,1.46,0,0,0-.14-1.74c-.45-.57-.94-1.12-1.39-1.7-.6-.77-1.33-1.73-.17-2.42a1.81,1.81,0,0,1,2.68.92c.37.77.65,1.72,1.68,1.6s1.37-1.06,1.64-1.95a2.15,2.15,0,0,1,2.51,1c.88,1.5,1.83,1.35,2.62-.29a2.38,2.38,0,0,1,1.61-1.55c2,.22,2.31,1,1.16,2.59a18,18,0,0,1-1.2,1.42c-.56.63-.94,1.34-.39,2.12a1.6,1.6,0,0,0,2,.49c1.65-.51,3.29-1,5-1.44,1.31-.32,2.55-1.08,3.89-1.52a2.74,2.74,0,0,0,1.84-2.74c.15-2.41-.91-4.35-2.18-6.25a28.46,28.46,0,0,0,2.22-2.31c1.86-2.39,3.83-4.72,4.66-7.74a11.43,11.43,0,0,0,1.11-.54c.11-.07.23-.13.34-.21a10.59,10.59,0,0,0,1.82-1.4,19.29,19.29,0,0,0,4.29-7.1,21.8,21.8,0,0,0,1.42-7.27c0-.91-.19-2.28.88-2.52s1.34,1.1,1.78,1.91c.08.14.13.31.22.45.26.44.54.94,1.12.9s.67-.53.88-.94c3.53-6.72,2-16.64-3.33-22a14,14,0,0,0,1.86-7.67c.32-1.18-.27-2.32-.22-3.49.43-2.19,1.29-4.32,1-6.62A114.19,114.19,0,0,0,248.07,78a98.72,98.72,0,0,0,13.38-11.09A72.6,72.6,0,0,0,277.58,40.6c.11-.32,0-.84.66-.8q1.88,11,3.76,21.92c1.27,7.37,2.55,14.74,2.7,22.24A177.66,177.66,0,0,1,283.77,105.71Z"/><path class="cls-3" d="M357.86,105.12A201.92,201.92,0,0,0,330,108.47c-14,2.67-27.22,7.15-38.86,15.63a1.25,1.25,0,0,1-.31.12c-.11-1.57.59-3,1-4.41,2.75-10.25,3.57-20.75,4-31.28.18-4.43,0-8.88-.17-13.33-.24-5.72-.76-11.47-.42-17.21a7.93,7.93,0,0,1,3.5-6.59c2.36-1.53,4.9-1.27,7.46-.5,5.94,1.79,10.58,5.62,15,9.72a158.54,158.54,0,0,1,12.95,14Q343.89,86.09,353,98.13C354.66,100.4,356.7,102.46,357.86,105.12Z"/><path class="cls-3" d="M99.19,124.2a95.3,95.3,0,0,0-17.89-9.79c-9.81-3.88-20.09-5.87-30.45-7.52-6.18-1-12.43-1.4-18.67-1.77a3.14,3.14,0,0,1,.72-1.5C40.24,94,47.61,84.36,55.54,75.19c5.58-6.46,11-13,17.76-18.39a30.81,30.81,0,0,1,11.34-6.12c6.28-1.64,10,2.19,10.15,8,.13,6.74-.42,13.48-.6,20.22a170,170,0,0,0,1.27,25.71c.55,4.34,1.28,8.63,2.22,12.9C98.17,119.73,99.17,121.86,99.19,124.2Z"/><path class="cls-3" d="M114.51,131.72c-.56-4.45-1.15-8.89-1.68-13.33-.29-2.4-.57-4.79-.72-7.2-.44-6.89-1.15-13.78-1-20.69.1-4.06.1-8.2,1.47-12.14s4-5.39,8-4.24a19.83,19.83,0,0,1,7.67,4.5,58.73,58.73,0,0,1,14.85,19.66c3.29,7.28,6.27,14.69,8.88,22.24,1.75,5,3.58,10.07,5,15.21-9.1-4.36-18.81-5.94-28.78-6.13A43,43,0,0,0,114.51,131.72Z"/><path class="cls-3" d="M233,135.74c1.44-5.15,3.25-10.17,5-15.2a203.46,203.46,0,0,1,10.12-24.65,52.57,52.57,0,0,1,17-19.72,14,14,0,0,1,4.9-2.19,5.78,5.78,0,0,1,7.21,3.88,26.23,26.23,0,0,1,1.39,7.75,69.32,69.32,0,0,1,.29,8.76c-.45,6.16-.61,12.32-1.24,18.47-.56,5.4-1.28,10.79-1.79,16.2-.09.89-.25,1.77-.38,2.66C260.83,127.57,246.73,129.82,233,135.74Z"/><path class="cls-3" d="M29.2,88.26c-.18-5.8-.42-11.59-1-17.38C27.2,59.57,23.15,49.43,17,40A147.56,147.56,0,0,0,3.41,22.57c5.81-.43,11.62-1,17.43-1.29,6.17-.34,12.36-.76,18.53-.64,4.53.09,9.11-.07,13.62.61,3.1.46,6.24.86,9,2.51a4.47,4.47,0,0,1,2.34,3.83c.14,2.15-1,3.81-2.14,5.37-5.87,7.82-11.66,15.69-16.85,24A176.42,176.42,0,0,0,30.43,86.2C30.14,86.93,30.14,87.9,29.2,88.26Z"/><path class="cls-3" d="M386.64,22.58a158.26,158.26,0,0,0-13.78,17.69A69.72,69.72,0,0,0,361.3,76.61c-.17,3.88-.3,7.76-.45,11.65-1.26-1-1.41-2.6-2-3.94a163.55,163.55,0,0,0-10.36-21,264.21,264.21,0,0,0-19.92-29.2,20,20,0,0,1-1.73-2.7c-2.39-4.4-1-7.39,3.77-8.82,6.84-2,13.9-1.77,20.88-1.89,3.28-.05,6.62.07,9.93.22,2.47.11,4.94.21,7.41.38C374.8,21.68,380.72,22.14,386.64,22.58Z"/><path class="cls-2" d="M386.64,22.58c-5.92-.44-11.84-.9-17.76-1.31-2.47-.17-4.94-.27-7.41-.38-3.31-.15-6.65-.27-9.93-.22-7,.12-14-.16-20.88,1.89-4.79,1.43-6.16,4.42-3.77,8.82a20,20,0,0,0,1.73,2.7,264.21,264.21,0,0,1,19.92,29.2,163.55,163.55,0,0,1,10.36,21c.54,1.34.69,2.93,2,3.94l.69,14.85A190.53,190.53,0,0,0,350,75.59c-5.49-10.43-12-20.1-20.55-28.31a219.06,219.06,0,0,0-26.08-21.7,72.71,72.71,0,0,0-9.5-6.1c-.1-.5-.94-.45-.84-1.25,3.54-.79,7.08-1.63,10.66-2.36a140.11,140.11,0,0,1,22.91-2.75,181.46,181.46,0,0,1,29.64,1.63A278,278,0,0,1,384.75,20c1.09.26,2.38.22,3.24,1.2Z"/><path class="cls-2" d="M29.2,88.26c.94-.36.94-1.33,1.23-2.06A176.42,176.42,0,0,1,45.37,56.94c5.19-8.29,11-16.16,16.85-24,1.17-1.56,2.28-3.22,2.14-5.37A4.47,4.47,0,0,0,62,23.76c-2.79-1.65-5.93-2.05-9-2.51-4.51-.68-9.09-.52-13.62-.61-6.17-.12-12.36.3-18.53.64-5.81.33-11.62.86-17.43,1.29L2.05,21.22c.34-.55.92-.57,1.46-.71,6.49-1.68,13-3,19.64-4.14a223.28,223.28,0,0,1,28.12-3.21A143.72,143.72,0,0,1,86.2,15.82c3.66.73,7.32,1.5,11.15,2.63L96.16,19.5a2.77,2.77,0,0,0-.63.22A203.94,203.94,0,0,0,58.91,49C50.36,57.53,44,67.63,38.64,78.38a176.22,176.22,0,0,0-8.87,21.19c-.26.77-.15,1.83-1.23,2.18Z"/><path class="cls-2" d="M99.19,124.2c0-2.34-1-4.47-1.51-6.7-.94-4.27-1.67-8.56-2.22-12.9a170,170,0,0,1-1.27-25.71c.18-6.74.73-13.48.6-20.22-.11-5.8-3.87-9.63-10.15-8A30.81,30.81,0,0,0,73.3,56.8c-6.74,5.34-12.18,11.93-17.76,18.39C47.61,84.36,40.24,94,32.9,103.62a3.14,3.14,0,0,0-.72,1.5l-3.38.07c.88-2.28,2.4-4.21,3.4-6.42a3.57,3.57,0,0,0,.57-.6c4.59-7.9,9.62-15.5,14.95-22.91A141.39,141.39,0,0,1,69.9,50.76a280.15,280.15,0,0,1,30.36-22.52,43.18,43.18,0,0,1,6-3.63c-.45,2.38-.86,4.57-1.27,6.76-.11.38-.24.75-.32,1.13q-2,10.19-3.51,20.46a220.31,220.31,0,0,0-2.21,23.35,131.11,131.11,0,0,0,.59,19.91A138.82,138.82,0,0,0,106,125c.79,2.32,2.07,4.49,2.31,7C105.4,129.24,102.3,126.71,99.19,124.2Z"/><path class="cls-2" d="M357.86,105.12c-1.16-2.66-3.2-4.72-4.9-7q-9-12.06-18.81-23.53a158.54,158.54,0,0,0-12.95-14c-4.41-4.1-9.05-7.93-15-9.72-2.56-.77-5.1-1-7.46.5a7.93,7.93,0,0,0-3.5,6.59c-.34,5.74.18,11.49.42,17.21.19,4.45.35,8.9.17,13.33-.43,10.53-1.25,21-4,31.28-.39,1.45-1.09,2.84-1,4.41L281.71,132c-.22-.85.3-1.52.58-2.23a132,132,0,0,0,5.41-17.24,129.3,129.3,0,0,0,3.46-36,252.1,252.1,0,0,0-3.57-32.2,130.94,130.94,0,0,0-2.51-12.89l-1.27-6.88c.65.38,1.12.62,1.56.91,4.56,3,9.15,6,13.65,9.07a227.28,227.28,0,0,1,24.63,19.45c10,9.12,18,19.81,25.41,31,3,4.55,5.86,9.2,8.78,13.81,1,2.23,2.59,4.12,3.4,6.44Z"/><path class="cls-4" d="M154.4,77.78h0Z"/><path class="cls-4" d="M159.57,85.81c-.13,1-.26,1.92-.4,2.88a129,129,0,0,1-19.36-12.3c-7.91-5.84-15-12.49-20.14-20.94a79.2,79.2,0,0,1-7-14.39c-.16-.44-.11-1-.78-1.37-.83,4.79-1.68,9.5-2.47,14.23-1.1,6.59-2.3,13.17-3.19,19.79a105.54,105.54,0,0,0-.66,21.4c.24,3.47.43,7,.73,10.42.63,7.4,1.73,14.73,2.94,22a15.59,15.59,0,0,1,.5,3.66c-.8,0-.77-.76-.91-1.24A146.54,146.54,0,0,1,103,92.76a168.34,168.34,0,0,1,1.21-30.26A112.59,112.59,0,0,1,108,44.1c1.32-4.13,1.13-7.79-1.71-11.18-.43-.51-.86-1-1.28-1.55.41-2.19.82-4.38,1.27-6.76a43.18,43.18,0,0,0-6,3.63A278.93,278.93,0,0,0,69.9,50.77,141,141,0,0,0,47.72,75.26c-5.33,7.41-10.36,15-14.95,22.91a4,4,0,0,1-.57.6,3.15,3.15,0,0,1,.59-1.9c3.06-6,6.41-11.74,9.79-17.52A117.33,117.33,0,0,1,61.45,54.46q6.8-6.66,14.08-12.82A199.24,199.24,0,0,1,93,28.19c1.54-1,3.29-1.75,4.59-3.12s1.28-2.56,0-4c-.46-.52-1.32-.71-1.41-1.57l1.19-1.05c-3.83-1.13-7.49-1.9-11.15-2.63a144.3,144.3,0,0,0-34.94-2.67,225.22,225.22,0,0,0-28.11,3.22C16.55,17.52,10,18.83,3.52,20.51c-.55.14-1.13.16-1.46.71-.43,0-.94.11-1.16-.52l7.59-2.84c.55.55,1.11,0,1.57-.08,8.07-2.14,16.17-4.19,24.43-5.53a95.41,95.41,0,0,1,13.69-1.52,213,213,0,0,1,22.59.66c3,.29,6,.38,9,.76,5.49.71,11,1.26,16.46,2.31a33,33,0,0,1,10.86,4.37c.57.36.91,1.38,1.8.86a2.79,2.79,0,0,0,1.44-2.36c0-.95,0-1.91,0-2.87,0-.32-.1-.78.35-.83s.64.41.63.8a8.54,8.54,0,0,0,.55,2.45c.76,2.79,1.48,5.53-.36,8.27a4.45,4.45,0,0,0-.61,3.38c1.55,7.24,4.66,13.83,8.22,20.23a86,86,0,0,0,16.37,20.49,95,95,0,0,0,15.91,11.86,1.44,1.44,0,0,0,1.7,0,1.24,1.24,0,0,0,.52-1.48c-.16-.77-.4-1.52-.61-2.27l1.31.45c0,.24.18.3.37.34Z"/><path class="cls-4" d="M235.66,77.76h0Z"/><path class="cls-4" d="M388.89,21c-.14.36-.59.18-.9.26-.86-1-2.15-.94-3.24-1.2a278,278,0,0,0-28.5-5.28,181.52,181.52,0,0,0-29.65-1.63,141.22,141.22,0,0,0-22.9,2.75c-3.58.72-7.12,1.57-10.66,2.36-.1.8.74.75.84,1.25s-.35.65-.64.91c-2.43,2.14-2.32,3.8.41,5.62,1.22.81,2.53,1.47,3.73,2.31,5.19,3.65,10.23,7.48,15.07,11.59a222.77,222.77,0,0,1,19.26,17.87,116.14,116.14,0,0,1,12.31,16c5,7.74,9.34,15.89,13.81,24,.18.32.51.68,0,1-2.92-4.61-5.78-9.26-8.78-13.81-7.4-11.21-15.46-21.9-25.41-31A228.43,228.43,0,0,0,299,34.47c-4.5-3.1-9.09-6-13.65-9.07-.44-.29-.91-.53-1.56-.9.46,2.48.86,4.67,1.27,6.86A14.75,14.75,0,0,0,284,32.65c-1.93,2.94-3.57,5.83-2.35,9.69,3.43,10.81,4.85,22,5.36,33.27a171,171,0,0,1-.17,19.6c-.36,5.09-.72,10.17-1.42,15.23a121.73,121.73,0,0,1-4.29,19.87c-.12.41-.17.92-.79.94q.87-5.66,1.72-11.32c.72-4.72,1.24-9.47,1.71-14.22A177.66,177.66,0,0,0,284.7,84c-.15-7.5-1.43-14.87-2.7-22.24s-2.51-14.61-3.76-21.92c-.64,0-.55.48-.66.8a72.6,72.6,0,0,1-16.13,26.31A98.72,98.72,0,0,1,248.07,78a114.19,114.19,0,0,1-17.2,10.68l-.39-2.9h0l4.82-7.67c.19,0,.39-.09.36-.34l1.33-.43a3.82,3.82,0,0,1-.4,1.79c-.23.73-.51,1.4.31,2s1.28.23,2-.18a87,87,0,0,0,24.2-20.71A81.9,81.9,0,0,0,278.8,30c.41-1.49.9-3,0-4.4-1.94-2.82-1.66-5.7-.58-8.69a11.78,11.78,0,0,0,.44-2.14c.08-.48,0-1.23.62-1.17s.36.82.39,1.28c.13,1.48-.37,3.06.9,4.33a1.17,1.17,0,0,0,1.85.11,26.56,26.56,0,0,1,11.33-4.88c6.35-1.13,12.75-1.84,19.16-2.47,6.88-.67,13.75-1.2,20.66-1.29a105.73,105.73,0,0,1,17.34.74,239.42,239.42,0,0,1,23.7,4.89,66.25,66.25,0,0,0,8.47,2.08l5.33,2.05C388.63,20.58,389,20.61,388.89,21Z"/><path class="cls-5" d="M383.05,18.43a68,68,0,0,1-8.47-2.08,236.58,236.58,0,0,0-23.7-4.89,105.73,105.73,0,0,0-17.34-.74c-6.91.09-13.78.62-20.66,1.29-6.42.62-12.81,1.34-19.15,2.47a26.33,26.33,0,0,0-11.33,4.88,1.19,1.19,0,0,1-1.87-.11c-1.27-1.27-.76-2.86-.89-4.33,0-.46.29-1.22-.39-1.28s-.54.69-.62,1.17a12.69,12.69,0,0,1-.44,2.14c-1.08,3-1.36,5.87.58,8.69.93,1.37.44,2.91,0,4.4A81.9,81.9,0,0,1,263.08,60.2a87.3,87.3,0,0,1-24.19,20.71c-.71.41-1.26.67-2,.18s-.54-1.23-.31-2a3.75,3.75,0,0,0,.39-1.8,73.22,73.22,0,0,0,14.47-10.76c7.79-7.81,12.84-17.31,17-27.36,3.3-7.92,5.44-16.22,7.73-24.45,2-7.13,7.41-10.57,13.51-13.46a.92.92,0,0,1,1.22.18.91.91,0,0,1-.13,1.23c-1,1.18-2,2.28-2.95,3.48-.48.64-1.33,1.32-.86,2.21s1.62.68,2.46.56c4.86-.68,9.73-1.19,14.61-1.74,24.28-2.7,48.05-1,71,8.06C377.72,16.34,380.49,17.12,383.05,18.43Z"/><path class="cls-5" d="M153.06,77.32c.21.76.45,1.5.61,2.27a1.23,1.23,0,0,1-.52,1.48,1.45,1.45,0,0,1-1.7.05,95.57,95.57,0,0,1-15.91-11.87,85.71,85.71,0,0,1-16.37-20.49c-3.56-6.4-6.67-13-8.22-20.23a4.45,4.45,0,0,1,.61-3.38c1.84-2.74,1.13-5.48.36-8.27a8.89,8.89,0,0,1-.55-2.45c0-.39-.11-.87-.63-.8s-.34.51-.35.83c0,1,0,1.92,0,2.87a2.76,2.76,0,0,1-1.43,2.36c-.89.52-1.23-.5-1.8-.86a32.76,32.76,0,0,0-10.86-4.37c-5.45-1.05-11-1.59-16.46-2.31-3-.39-6-.47-9-.75a213.09,213.09,0,0,0-22.6-.67,95.43,95.43,0,0,0-13.68,1.52c-8.26,1.34-16.36,3.39-24.44,5.52-.45.13-1,.64-1.56.09a167.4,167.4,0,0,1,17.82-6.29A122.47,122.47,0,0,1,65.83,6.1,266.25,266.25,0,0,1,100,8.91a1.27,1.27,0,0,0,.34.05c.92,0,2.09.49,2.66-.5s-.45-1.75-1-2.46c-.79-1-1.73-1.94-2.54-2.95-.36-.45-.89-1-.28-1.63s1-.14,1.54.08c7.39,3.17,12.23,8.29,14.12,16.44A132.77,132.77,0,0,0,126.23,49.3,65.49,65.49,0,0,0,153.06,77.32Z"/><path class="cls-1" d="M96.16,19.5c.09.86,1,1.05,1.42,1.57,1.26,1.44,1.3,2.61,0,4s-3,2.09-4.59,3.12A197.43,197.43,0,0,0,75.53,41.65q-7.29,6.14-14.08,12.81A117.71,117.71,0,0,0,42.57,79.35c-3.38,5.78-6.72,11.57-9.78,17.52a3.15,3.15,0,0,0-.59,1.9c-1,2.21-2.52,4.14-3.4,6.42-.39.41-.39,1.16-1.29,1.38a14.73,14.73,0,0,0,1-4.82c1.08-.35,1-1.41,1.23-2.18a176.22,176.22,0,0,1,8.87-21.19C44,67.63,50.36,57.53,58.91,49A203.94,203.94,0,0,1,95.53,19.72,2.77,2.77,0,0,1,96.16,19.5Z"/><path class="cls-1" d="M357.84,98.75c.5-.34.17-.7,0-1-4.49-8.06-8.8-16.21-13.82-24a115.54,115.54,0,0,0-12.31-16,222.77,222.77,0,0,0-19.26-17.87c-4.84-4.11-9.88-7.94-15.07-11.59-1.2-.84-2.51-1.5-3.73-2.31-2.73-1.82-2.84-3.48-.41-5.62.3-.26.65-.44.64-.91a72.71,72.71,0,0,1,9.5,6.1,219.06,219.06,0,0,1,26.08,21.7C338,55.49,344.52,65.16,350,75.59a190.53,190.53,0,0,1,11.53,27.52l.86,3.29-.24.21-.92-1.42C360.43,102.87,358.81,101,357.84,98.75Z"/><path class="cls-1" d="M280.34,131.25c.62,0,.66-.53.79-.94a122.81,122.81,0,0,0,4.3-19.87c.69-5.06,1.05-10.14,1.41-15.23a171,171,0,0,0,.17-19.6c-.51-11.27-1.93-22.46-5.36-33.27-1.22-3.86.42-6.75,2.35-9.69a14.62,14.62,0,0,1,1.08-1.28,130.94,130.94,0,0,1,2.51,12.89,252.1,252.1,0,0,1,3.57,32.2,129.3,129.3,0,0,1-3.46,36,132,132,0,0,1-5.41,17.24c-.28.71-.8,1.38-.58,2.23v0c-.32,0-.29.32-.37.52l-2,3.87,0,0c-.27-.94.39-1.78.29-2.71C280.3,133,279.72,131.93,280.34,131.25Z"/><path class="cls-1" d="M105,31.37c.42.52.85,1,1.28,1.55,2.83,3.39,3,7,1.71,11.18a112.59,112.59,0,0,0-3.73,18.4A168.34,168.34,0,0,0,103,92.76,146.54,146.54,0,0,0,108.8,130c.14.48.11,1.2.91,1.24l.68,2.41c-.07.75.54,1.44.21,2.38l-1.91-3.59c-.07-.21,0-.49-.37-.51v0c-.24-2.5-1.52-4.67-2.31-7a138.82,138.82,0,0,1-6.5-28.76,131.11,131.11,0,0,1-.59-19.91A220.31,220.31,0,0,1,101.14,53q1.45-10.29,3.51-20.46C104.73,32.12,104.86,31.75,105,31.37Z"/><path class="cls-6" d="M241.16,3.93c-5.37-1.06-8.8,2.41-12.39,5.4-5.84,4.86-10.17,11-14.43,17.21-1.4,2-3.07,3.87-4.54,5.84-3.18,4.27-4.37,9.29-5.29,14.39a86.66,86.66,0,0,0-1,12c-.09,2.21-.1,2.26-2.1,1.31a9.5,9.5,0,0,1-.88-.5c-.08-12.23,2.58-23.75,9-34.26a25.27,25.27,0,0,1,8.4-8.85,37.41,37.41,0,0,0,8.37-7,22.31,22.31,0,0,1,9-6.37C237.41,2.38,239.4,2.34,241.16,3.93Z"/><path class="cls-6" d="M189.54,59.59c-.87.45-1.79,1.52-2.67,1s-.26-1.77-.31-2.69c-.31-6.9-.89-13.75-3.39-20.27a25.16,25.16,0,0,0-4.87-7.83c-2.61-2.9-4.53-6.26-6.84-9.36a64.71,64.71,0,0,0-14-14.18c-2.21-1.6-4.56-3.18-7.59-2.35-.15,0-.37-.19-.56-.3A5.08,5.08,0,0,1,154,2.88a17.41,17.41,0,0,1,7.88,4.75,65,65,0,0,0,11.95,10.11c3.14,2,5.21,5.1,7.11,8.27C187.08,36.35,189.61,47.63,189.54,59.59Z"/><path class="cls-1" d="M362.4,106.4c.17.22.3.46.07.72l-.31-.51Z"/><polygon class="cls-1" points="279.32 136.32 279.23 136.39 279.34 136.34 279.32 136.32"/><path class="cls-2" d="M281.35,132.45c.08-.2,0-.48.37-.52Z"/><path class="cls-2" d="M108.32,131.93c.33,0,.3.3.37.51Z"/><path class="cls-7" d="M228.25,106.46c-3.94,4.23-9,6.64-14.21,8.83-2.43,1-5,1.83-7.31,3-5.34,2.78-10.93,3-16.74,2.29-3.21-.42-5.9-2.1-8.8-3.28-6.92-2.82-14.06-5.24-19.39-10.87a16.75,16.75,0,0,0-4.56,8.31,20.76,20.76,0,0,0,1.23,13.69c.19.42.38.91.87,1s.88-.43,1.13-.87a18.63,18.63,0,0,1,1-1.92c.69-.93,1.37-.76,1.62.34a27.16,27.16,0,0,1,.33,3c.59,5.62,2.57,10.56,7,14.32,2.61.95,2.91.74,2.9-2.05v-2.62c.38.2.58.24.64.35,2.89,5.56,8.49,7.65,13.48,10.52a1.72,1.72,0,0,0,2.06-.14,1.78,1.78,0,0,1,2.58,0c1.93,1.73,3.85,1.81,5.81,0a1.76,1.76,0,0,1,2.58-.1,1.78,1.78,0,0,0,2.06.19,46.83,46.83,0,0,0,11.19-7.18c1.07-1,1.75-2.39,3-3.56v4.61c.31.27.79.35.94.81q.59-.25,1.11-.54c.11-.07.23-.13.34-.21a10.59,10.59,0,0,0,1.82-1.4,19.29,19.29,0,0,0,4.29-7.1,21.8,21.8,0,0,0,1.42-7.27c0-.91-.19-2.28.88-2.52s1.34,1.1,1.78,1.91c.08.14.13.31.22.45.26.44.54.94,1.12.9s.67-.53.88-.94C235.11,121.79,233.61,111.87,228.25,106.46Zm-9.51,24.4c-1.23,1.77-2,2-3.93,1.14-1.7-.8-2.84-.3-4.19,1.92a22.24,22.24,0,0,1-6.45,6.79c-1.17.8-2.3,1.87-3.95.82-.56-.36-1.16.21-1.66.56s-.91.66-1.35,1c-2,1.55-2.35,1.55-4.35,0-1.27-1-2.39-2.25-4.31-1.15-.59.35-1.37-.37-2-.76a23.58,23.58,0,0,1-7.16-7.25c-1.41-2.32-2.35-2.64-4.92-1.57a2.08,2.08,0,0,1-2.2-.36c-2.69-2-4.43-9.9-2.8-13.1a25.3,25.3,0,0,0,2.79,8.82c.55,1,1.14,1.76,2.2.31.71-1,2.41-.75,3.6.34a38.11,38.11,0,0,1,5,5.48,15.1,15.1,0,0,0,4.2,3.58c.81.51,1.84,1,2.75,0,.27-.33.57-.27.86,0s.39.41.6.6c2.92,2.68,4.27,2.67,7.14-.11.56-.55.92-1,1.75-.23s1.81,0,2.62-.41a19.26,19.26,0,0,0,5.68-5.44,33.94,33.94,0,0,1,3.24-3.43c1.4-1.36,2.79-1.26,4.14.24.84.94,1.11.2,1.42-.41a29.22,29.22,0,0,0,2-4.47,27,27,0,0,0,1-4.71c.35-.12.5.1.51.3C221.28,123.4,221.18,127.36,218.74,130.86Z"/><path class="cls-8" d="M225.92,39.15a79.08,79.08,0,0,0-1,9.53c0,3.57.8,7.13,1.08,10.7.4,5.2.36,10.28-5.39,12.95a57.34,57.34,0,0,0-11.88-8.53,2.17,2.17,0,0,1-1.24-2.44,33,33,0,0,1,5.53-14.85c2.85-4.39,5.76-8.73,8.64-13.08l.39-.37c1.22-.42,2.42-.86,3.65-1.24.65-.2,1-.11.9.81C226.33,34.79,226.15,37,225.92,39.15Z"/><path class="cls-8" d="M181.13,63.87a57.72,57.72,0,0,0-11.72,8.47h0c-3.79-1.77-5.39-4.87-5.51-8.91a57.09,57.09,0,0,1,.49-7.39c.25-2.73.92-5.46.69-8.19-.43-5.08-1.06-10.15-1.67-15.21-.11-.89.21-1,.89-.82,1.23.38,2.43.82,3.65,1.24.13.12.27.25.41.36,3.57,5.32,7.26,10.56,10.43,16.13a30.85,30.85,0,0,1,3.74,11.8A2.25,2.25,0,0,1,181.13,63.87Z"/><path class="cls-9" d="M169.41,72.34l-.25.25-.24.27c-.32.36-.62.72-.91,1.1-.74.94-1.42,1.92-2.13,2.88a10.36,10.36,0,0,1-3-3.57,52.35,52.35,0,0,1-6.79-25.16c0-2.25,0-4.5-.17-6.75a121.65,121.65,0,0,1-.83-16.52,8.8,8.8,0,0,1,1.4-4.95h0l.53-.35a5.22,5.22,0,0,1,4.26,1.57,16.33,16.33,0,0,1,4.47,6.4c.72,1.86,1.51,3.7,2.26,5.55-1.22-.42-2.42-.86-3.65-1.24-.68-.21-1-.07-.89.82.61,5.06,1.24,10.13,1.67,15.21.23,2.73-.44,5.46-.69,8.19a57.09,57.09,0,0,0-.49,7.39C164,67.47,165.62,70.57,169.41,72.34Z"/><path class="cls-9" d="M234,46.76c.29,8.67-2,16.71-5.65,24.45a13.66,13.66,0,0,1-4.2,5.63,40.35,40.35,0,0,0-3.51-4.51c5.75-2.67,5.79-7.75,5.39-12.95-.28-3.57-1-7.13-1.08-10.7a79.08,79.08,0,0,1,1-9.53c.23-2.18.41-4.36.72-6.52.14-.92-.25-1-.9-.81-1.23.38-2.43.82-3.65,1.24,1.81-4,2.88-8.45,6.33-11.58,1.33-1.21,2.74-2.18,4.66-1.94l.52.35h0a7.8,7.8,0,0,1,1.4,4.6c0,1.75,0,3.5,0,5.24C235,35.43,233.81,41.06,234,46.76Z"/><path class="cls-4" d="M237.19,38c-.32,3.9-.85,7.78-1.19,11.69-.55,6.24-.18,12.6-2.67,18.57a58.24,58.24,0,0,1-4.05,8.7,13,13,0,0,1-2.45,2.51l-2.71-2.26c0-.12,0-.24,0-.37a13.66,13.66,0,0,0,4.2-5.63C232,63.47,234.3,55.43,234,46.76c-.2-5.7,1-11.33,1-17,0-1.74,0-3.49,0-5.24a7.8,7.8,0,0,0-1.4-4.6h0c1.18-.14,1.66.72,2.14,1.56a14.08,14.08,0,0,1,1.49,5.14A50.62,50.62,0,0,1,237.19,38Z"/><path class="cls-4" d="M165.92,77.23l-2.69,2.26c-3.06-2.41-4.34-5.93-5.77-9.33a43.29,43.29,0,0,1-3.14-17.09c0-3.89-.81-7.77-1.14-11.67-.5-5.87-1.12-11.76.26-17.59.39-1.64.64-3.67,3-3.92a8.8,8.8,0,0,0-1.4,4.95,121.65,121.65,0,0,0,.83,16.52c.2,2.25.17,4.5.17,6.75a52.35,52.35,0,0,0,6.79,25.16,10.36,10.36,0,0,0,3,3.57C165.89,77,165.91,77.1,165.92,77.23Z"/><path class="cls-10" d="M201.47,105.1a10.33,10.33,0,0,1-1.44,3.58,6,6,0,0,1-10.33-.59,10.26,10.26,0,0,1-1.11-3l1.28-.43,2.41,3.75v-4.71a6.43,6.43,0,0,1,5.49,0v4.78l2.41-3.81h0Z"/><path class="cls-3" d="M204.42,104.42c0,.74-.69.78-1.27.76s-1.12-.05-1.68-.08l-1.29-.42a5.9,5.9,0,0,0-2.41-1,6.43,6.43,0,0,0-5.49,0,6.33,6.33,0,0,0-2.41,1l-1.28.43c-.73,0-1.46.07-2.18.05a.77.77,0,0,1-.8-.73.72.72,0,0,1,.66-.83c2.35.11,4.3-1.17,6.43-1.8,2.68-.8,5.08.07,7.49,1a6.84,6.84,0,0,0,3.08.73C203.88,103.49,204.47,103.68,204.42,104.42Z"/><path class="cls-4" d="M230.11,98.79c-1.91,1.7-3.63,3.64-6.1,4.59-5.45,2.08-10.81,2.31-16-.84-.58-.36-1.2-.68-1.09-1.52,2.76,1.81,5.7,3.17,9.08,3.07a14.61,14.61,0,0,0,13-7.62c.25-.42.35-1,.89-1.17C229.84,96.47,230.43,97.61,230.11,98.79Z"/><path class="cls-4" d="M182,102.55c-5.4,3.75-16.2,3.17-21.34-3.17-.2-.25-.31-.61-.73-.59-.31-1.18.36-2.31.21-3.48.41.14.55.51.75.85,4.61,8.09,13.67,10.3,21.48,5.26a6.51,6.51,0,0,1,.74-.39C183.21,101.87,182.57,102.16,182,102.55Z"/><path class="cls-4" d="M201,111.51A10.45,10.45,0,0,1,195.2,114a7.34,7.34,0,0,1-6-2.59c-.23-.26-.44-.6-.14-.89s.61,0,.82.25c3.28,3.38,6.71,2.49,9.72.49.28-.19.58-.35.87-.51s.59-.19.76.09S201.16,111.31,201,111.51Z"/><path class="cls-3" d="M198.43,98a1.16,1.16,0,0,1-1.12-.15A2.32,2.32,0,0,1,196,96.25a12.68,12.68,0,0,1-.07-4.72,14.58,14.58,0,0,1,2.81,5.28C198.83,97.2,199,97.74,198.43,98Z"/><path class="cls-3" d="M194,96.49a2.17,2.17,0,0,1-1.5,1.47c-.83.34-1.4.07-1.2-.89a14.06,14.06,0,0,1,2.81-5.57A11.48,11.48,0,0,1,194,96.49Z"/><path class="cls-11" d="M154.74,78.11c-.19,0-.38-.1-.37-.34h0C154.75,77.64,154.71,77.91,154.74,78.11Z"/><path class="cls-11" d="M235.66,77.76h0c0,.25-.17.3-.36.34,0-.21,0-.43.33-.36Z"/><path class="cls-1" d="M216.78,144.42c.31.27.79.35.94.81-.84,3-2.81,5.35-4.66,7.74a28.46,28.46,0,0,1-2.22,2.31c-.43,0-.58.3-.59.69-1.6.63-2.91,1.92-4.73,2.05-1.28-.44-2.27.53-3.43.7a1.43,1.43,0,0,0-1.32,1.89,2.35,2.35,0,0,0-1.59,1.55c-.8,1.64-1.75,1.78-2.63.29a2.15,2.15,0,0,0-2.51-1c-.2-.41-.59-.39-1-.41l-1.11-.4c-.07-.14-.18-.42-.21-.41a2.3,2.3,0,0,1-2.89-1.11.84.84,0,0,0-1.3-.09,29,29,0,0,1-7.78-3c0-.52,0-1-.75-1a18.33,18.33,0,0,1-4.07-4.75c2.1-.76,3.59.44,5,1.68,2.16,2,4.72,3.2,7.52,2.59,2.32-.5,4.25.08,6.31.67a1.92,1.92,0,0,0,1.47-.14c3.61-1.78,7.75-2.37,11-4.87a5.22,5.22,0,0,1,6-.59c.82.42,1.21.14,1.74-.6C215,147.51,215.27,145.57,216.78,144.42Zm-18.09,16.22a5.57,5.57,0,0,0-.82.1c-.44.12-.9.27-.8.88a.86.86,0,0,0,.62.72c.67.15.65-.46.82-.82a7.35,7.35,0,0,0,.27-.79l.12-.2Z"/><path class="cls-4" d="M216.78,144.42c-1.51,1.15-1.75,3.09-2.8,4.54-.53.74-.92,1-1.74.6a5.22,5.22,0,0,0-6,.59c-3.28,2.5-7.42,3.09-11,4.87a1.92,1.92,0,0,1-1.47.14c-2.06-.59-4-1.17-6.31-.67-2.8.61-5.36-.62-7.52-2.59-1.37-1.24-2.86-2.44-5-1.68a5.35,5.35,0,0,1-4.53-5.89c2.61.95,2.91.74,2.9-2.05v-2.62c.38.2.58.24.64.35,2.89,5.56,8.49,7.65,13.47,10.52a1.72,1.72,0,0,0,2.06-.14,1.79,1.79,0,0,1,2.59,0c1.93,1.72,3.85,1.82,5.81,0a1.76,1.76,0,0,1,2.58-.1,1.78,1.78,0,0,0,2.06.19,46.83,46.83,0,0,0,11.19-7.18c1.07-1,1.75-2.39,3-3.56Z"/><path class="cls-5" d="M193.08,161c.37,0,.76,0,1,.41-.28.89-.63,1.82-1.64,1.95s-1.31-.83-1.68-1.61a1.81,1.81,0,0,0-2.69-.91c-1.15.69-.42,1.65.18,2.43.45.57.94,1.12,1.39,1.69a1.45,1.45,0,0,1,.14,1.74,1.33,1.33,0,0,1-1.61.61,90.39,90.39,0,0,1-9.65-3.25,2.47,2.47,0,0,1-1.42-2.32,8.58,8.58,0,0,1,1.26-5c.31-.55,1-1,.72-1.79.74,0,.75.49.75,1a11.54,11.54,0,0,0-1.89,4.46,2.66,2.66,0,0,0,1.17,2.93c.82.49,1.51.63,1.4-.76a5.09,5.09,0,0,1,.16-1.83c.19-.66.27-1.89,1-1.68,1,.29,0,1.08-.16,1.63-.44,2.16,0,3.76,1.4,4.22.83.28,1.49.35,1.14-.94a3.43,3.43,0,0,1,.61-3.2,9.32,9.32,0,0,1,.22,2.45,2.6,2.6,0,0,0,1.67,2.67c.75.3,1.66,1,2.28.22.5-.66-.47-1.27-.89-1.81a4.57,4.57,0,0,1-1.36-2.62c-.05-1.28,1-1.69,1.93-2.17l-.91-.54a.84.84,0,0,1,1.3.09,2.3,2.3,0,0,0,2.89,1.11s.14.27.21.41c-1.23.2-.24.91-.29,1.37,0,.27.13.56.51.45C192.9,162.23,193.05,161.67,193.08,161Z"/><path class="cls-5" d="M200.77,160.61a1.43,1.43,0,0,1,1.32-1.89c1.16-.17,2.15-1.14,3.43-.7l-3.89,1.48c2.28,1.33,2.46,2.51.79,4.5-.36.43-.73.86-1,1.33-.52.76-.27,1.14.64,1.12a3.29,3.29,0,0,0,3.19-3.1,7,7,0,0,1,.23-2.78c1,1.14.68,2.28.7,3.35,0,.37-.45.79,0,1.08s.87.06,1.29-.15a2,2,0,0,0,1.2-1.5,4.88,4.88,0,0,0-.31-3.28c-.15-.3-.57-.76,0-1s.76.31.93.72a6.14,6.14,0,0,1,.42,2.48c0,.46-.32,1.13.26,1.36a1.53,1.53,0,0,0,1.63-.66,2.92,2.92,0,0,0,.66-2.52,11.77,11.77,0,0,0-1.91-4.47c0-.39.16-.65.59-.69,1.26,1.9,2.33,3.84,2.18,6.25a2.76,2.76,0,0,1-1.85,2.75c-1.33.43-2.57,1.19-3.88,1.51-1.68.41-3.32.93-5,1.44a1.6,1.6,0,0,1-2-.49c-.55-.78-.17-1.49.39-2.12a18,18,0,0,0,1.2-1.42C203.09,161.58,202.75,160.83,200.77,160.61Z"/><path class="cls-12" d="M169.51,118.92a25.1,25.1,0,0,0,2.79,8.82c.55,1,1.14,1.76,2.2.31.71-1,2.41-.75,3.6.34a38.11,38.11,0,0,1,5,5.48,15.1,15.1,0,0,0,4.2,3.58c.81.51,1.84,1,2.75,0,.27-.33.57-.27.86,0s.39.41.6.6c2.92,2.68,4.27,2.67,7.14-.11.56-.55.92-1,1.75-.23s1.81,0,2.62-.41a19.26,19.26,0,0,0,5.68-5.44,32.91,32.91,0,0,1,3.24-3.43c1.4-1.36,2.79-1.26,4.14.24.84.94,1.11.2,1.42-.41a29.77,29.77,0,0,0,2-4.47,27.73,27.73,0,0,0,1-4.71c.34-.11.49.1.5.3.28,4,.19,8-2.26,11.49-1.23,1.77-2,2-3.93,1.13-1.7-.79-2.83-.29-4.19,1.93a22.09,22.09,0,0,1-6.45,6.78c-1.17.81-2.3,1.88-3.94.83-.57-.36-1.17.21-1.67.56s-.91.66-1.35,1c-2,1.56-2.35,1.56-4.35,0-1.27-1-2.39-2.25-4.31-1.14-.59.34-1.37-.38-2-.77a23.58,23.58,0,0,1-7.16-7.25c-1.41-2.32-2.35-2.64-4.92-1.57a2.08,2.08,0,0,1-2.2-.36C169.62,130,167.88,122.12,169.51,118.92Z"/><path class="cls-13" d="M197.77,103.71a6,6,0,0,1,2.41,1l-2.41,3.82Z"/><path class="cls-13" d="M189.87,104.67a6.15,6.15,0,0,1,2.41-1v4.7Z"/><path class="cls-3" d="M187.57,159l.91.54c-1,.48-2,.89-1.93,2.17a4.57,4.57,0,0,0,1.36,2.62c.42.54,1.39,1.15.89,1.81-.62.81-1.53.08-2.28-.22a2.6,2.6,0,0,1-1.67-2.67,9.32,9.32,0,0,0-.22-2.45A3.43,3.43,0,0,0,184,164c.35,1.29-.31,1.22-1.14.94-1.38-.46-1.84-2.06-1.4-4.22.11-.55,1.18-1.34.16-1.63-.74-.21-.82,1-1,1.68a5.09,5.09,0,0,0-.16,1.83c.11,1.39-.58,1.25-1.4.76a2.66,2.66,0,0,1-1.17-2.93,11.54,11.54,0,0,1,1.89-4.46A29,29,0,0,0,187.57,159Z"/><path class="cls-3" d="M210.25,156a11.77,11.77,0,0,1,1.91,4.47,2.92,2.92,0,0,1-.66,2.52,1.53,1.53,0,0,1-1.63.66c-.58-.23-.26-.9-.26-1.36a6.14,6.14,0,0,0-.42-2.48c-.17-.41-.36-1-.93-.72s-.12.71,0,1a4.88,4.88,0,0,1,.31,3.28,2,2,0,0,1-1.2,1.5c-.42.21-.89.42-1.29.15s0-.71,0-1.08c0-1.07.3-2.21-.7-3.35a7,7,0,0,0-.23,2.78,3.29,3.29,0,0,1-3.19,3.1c-.91,0-1.16-.36-.64-1.12.32-.47.69-.9,1-1.33,1.67-2,1.49-3.17-.79-4.5l3.89-1.48C207.34,157.89,208.65,156.6,210.25,156Z"/><path class="cls-3" d="M193.08,161c0,.65-.18,1.21-.89,1.42-.38.11-.54-.18-.51-.45,0-.46-.94-1.17.29-1.37Z"/><path class="cls-3" d="M198.78,160.73a7.35,7.35,0,0,1-.27.79c-.17.36-.15,1-.82.82a.86.86,0,0,1-.62-.72c-.1-.61.36-.76.8-.88a5.57,5.57,0,0,1,.82-.1Z"/><path class="cls-3" d="M198.69,160.64l.21-.11-.12.2Z"/><path class="cls-14" d="M221,89.22l-.15-1.08a7.81,7.81,0,0,0-1.37-2.37l-1-.84-.74-.35a5.58,5.58,0,0,0-6.54,1.52,5.5,5.5,0,0,0,.84,7.74,5.85,5.85,0,0,0,3.4,1.15,5.48,5.48,0,0,0,4.87-2.85c.09-.16.13-.37.33-.44A7.73,7.73,0,0,0,221,89.22Zm-5.53,5.41a5.09,5.09,0,1,1,5.17-5.06A5.14,5.14,0,0,1,215.45,94.63Z"/><path class="cls-15" d="M215.45,84.44a5.1,5.1,0,1,1-5.17,5.06A5.13,5.13,0,0,1,215.45,84.44Zm-4.63,5.07A4.64,4.64,0,1,0,215.44,85,4.6,4.6,0,0,0,210.82,89.51Z"/><path class="cls-16" d="M210.82,89.51a4.64,4.64,0,0,1,9.27,0,4.64,4.64,0,0,1-9.27,0Zm6.27-1.09a1.33,1.33,0,0,0,1.35-1.3,1.33,1.33,0,0,0-2.65-.05A1.33,1.33,0,0,0,217.09,88.42Zm-3.43,0a.48.48,0,0,0-.52-.49.47.47,0,0,0-.51.5.47.47,0,0,0,.51.51A.5.5,0,0,0,213.66,88.4Z"/><path class="cls-17" d="M217.09,88.42a1.33,1.33,0,0,1-1.3-1.35,1.33,1.33,0,0,1,2.65.05A1.33,1.33,0,0,1,217.09,88.42Z"/><path class="cls-15" d="M213.66,88.4a.5.5,0,0,1-.52.52.47.47,0,0,1-.51-.51.47.47,0,0,1,.51-.5A.48.48,0,0,1,213.66,88.4Z"/><path class="cls-14" d="M180.33,89.22c-.06-.36-.1-.72-.15-1.08a8,8,0,0,0-1.37-2.37l-1-.84-.75-.35a5.57,5.57,0,0,0-6.53,1.52,5.5,5.5,0,0,0,.84,7.74,5.82,5.82,0,0,0,3.4,1.15,5.5,5.5,0,0,0,4.87-2.85c.09-.16.13-.37.33-.44A7.73,7.73,0,0,0,180.33,89.22Zm-5.54,5.41A5.09,5.09,0,1,1,180,89.57,5.13,5.13,0,0,1,174.79,94.63Z"/><path class="cls-15" d="M174.8,84.44a5.1,5.1,0,1,1-5.17,5.06A5.12,5.12,0,0,1,174.8,84.44Zm-4.63,5.07A4.64,4.64,0,1,0,174.79,85,4.6,4.6,0,0,0,170.17,89.51Z"/><path class="cls-16" d="M170.17,89.51a4.64,4.64,0,0,1,9.27,0,4.64,4.64,0,0,1-9.27,0Zm6.26-1.09a1.34,1.34,0,0,0,1.36-1.3,1.33,1.33,0,0,0-2.66-.05A1.33,1.33,0,0,0,176.43,88.42Zm-3.43,0a.48.48,0,0,0-.52-.49.47.47,0,0,0-.51.5.48.48,0,0,0,.52.51A.49.49,0,0,0,173,88.4Z"/><path class="cls-17" d="M176.43,88.42a1.33,1.33,0,0,1-1.3-1.35,1.33,1.33,0,0,1,2.66.05A1.34,1.34,0,0,1,176.43,88.42Z"/><path class="cls-15" d="M173,88.4a.49.49,0,0,1-.51.52.48.48,0,0,1-.52-.51.47.47,0,0,1,.51-.5A.48.48,0,0,1,173,88.4Z"/></svg>