<svg id="Layer_1" data-name="Layer 1" xmlns="http://www.w3.org/2000/svg" viewBox="0 0 434.04 361.14"><defs><style>.cls-1{fill:#8f5023;}.cls-2{fill:#232322;}.cls-3{fill:#713d19;}.cls-4{fill:#382115;}.cls-5{fill:#6c3c1a;}.cls-6{fill:#d7a389;}.cls-10,.cls-16,.cls-17,.cls-6,.cls-8{stroke:#000;stroke-miterlimit:10;}.cls-10,.cls-16,.cls-6,.cls-8{stroke-width:0.25px;}.cls-7{fill:#ad785d;}.cls-18,.cls-8{fill:#9b5c30;}.cls-9{fill:#643615;}.cls-10,.cls-13{fill:#fff8e6;}.cls-11{fill:#191210;}.cls-12{fill:#2b1108;}.cls-14,.cls-17{fill:#c46e30;}.cls-15,.cls-16{fill:#452816;}.cls-17{stroke-width:0.5px;}.cls-19{fill:#3d2d29;}</style></defs><path class="cls-1" d="M43.68,301.75,17.94,193.64s-5.15-15.45-3.86-20.6-6.44,10.3-6.44,10.3a39,39,0,0,1,0-18.66c2.58-9.65,12.87-38,12.87-40.54s-4.41,5.14-4.78,0L15.36,119l-5.14,2.57s-4.87-2.39-3.72-11.49L7.64,101s-3.49,10.3-4.32,0S23.09,72.65,38.53,67.51c7.72-15.45,30.89-48.91,61.78-54.06,12.87-2.57,12.87-7.72,12.87-7.72s70-5.15,78.79,0,26.75,20.59,37,20.59,72.08-7.72,123.56,28.32v5.79c0,1.93,28.31,17.37,30.89,25.1,7.72,0,15.44,0,18-2.58s15.44-7.72,18,2.58c0,10.29-5.15,23.16-10.3,28.31,7.72,5.15,7.72,20.59,5.15,28.32,0,7.72-2.58,30.88-5.15,33.46,0,0,10.3,20.59,18,25.74s0,28.31-7.72,33.46c-5.15,0-18,5.15-20.6,7.72s-23.16,2.58-59.2-25.74c-7.72,2.58-5.15,5.15-10.3,2.58-2.57,25.74-18,54.05-30.89,64.35-5.14,12.87-5.14,33.46-2.57,36s15.44,2.57,20.59,18c0,10.29-54,5.14-54,5.14s-5.15,2.58-10.3-20.59c-7.72-23.17-12.87-36-12.87-38.61s-5.15-20.59-2.57-23.17C229,276,215,282.08,216.86,312.5c1.14,17.1,1.86,20.14,7,22.71s5.14,5.15,5.14,7.72-36,10.3-46.33,5.15c-7.72,0-20.59-20.59-25.74-43.76s-5.15-56.63-5.15-56.63-28.31,2.58-33.46-2.57c0,15.44-5.15,54.05,5.15,64.35s15.44,10.3,15.44,15.45S108,335.21,95.16,330.06c-15.44-2.57-33.46-5.14-36-7.72S48.83,322.34,43.68,301.75Z"/><path class="cls-2" d="M428.65,199.22c-5.49-3.66-13.28-17.26-16.54-23.56,3.06-6.94,4.71-27.94,4.81-33.09,2.19-7,2.89-21.77-4.07-29,5.15-6.71,9.22-18.76,9.22-28v-.32L422,84.9a10.09,10.09,0,0,0-10.42-8.11c-4.94,0-10.09,2.52-11.91,4.34s-8.76,1.81-14.6,1.82c-3.06-5.06-12-11.3-22.51-18.27-2.92-2-6.19-4.12-7.41-5.15V53.3l-1.09-.77C326.11,33,291.27,23.05,250.51,23.05c-7,0-12.65.29-16.76.5-2.08.11-3.69.2-4.74.2-6.67,0-18.25-8.18-26.7-14.15-3.52-2.48-6.57-4.63-9-6.09C191.35,2.38,186.6.87,167.66.87,144.49.87,113.3,3.14,113,3.16l-2.86-.44.49,2.8c-.18.94-2.47,3.74-10.73,5.39C69.47,16,46.12,47.11,36.7,65.42,21.73,70.88-.23,88.89.76,101.18c.16,2.1.5,6.33,3.4,6.88l-.22,1.69c-1.35,10.8,4.87,14,5.14,14.12l1.15.57L13.07,123l.09,1.31c.28,3.89,2.77,4.2,3.53,4.2-1.19,3.8-3,9.28-4.63,14C9.27,150.84,6.38,159.41,5.15,164a41.32,41.32,0,0,0,0,20l4.77.44c.62-1.23,1.29-2.54,2-3.79a104.65,104.65,0,0,0,3.54,13.53L41.18,302.37c4,15.9,9.61,19.22,14.58,21.09a7,7,0,0,1,1.54.7c2.53,2.53,11.31,4.18,30.72,7.34l6.46,1.06c4.75,1.82,11,2.21,15.4,2.21,6.27,0,31.61-1.75,31.61-9.85,0-4.28-2.6-6.19-6.2-8.82a78.87,78.87,0,0,1-10-8.45c-7.24-7.24-5.85-32.67-4.92-49.5.18-3.27.34-6.25.43-8.87,3,.92,7.9,1.63,16.18,1.63,4.88,0,9.45-.25,12.25-.44.12,8.57.84,34.85,5.19,54.41,4.7,21.17,17.37,44.79,27.61,45.75,2.68,1.18,6.51,1.76,11.68,1.76,7.23,0,37.87-3.15,37.87-9.46,0-3.55-.5-7-6.57-10-3.7-1.85-4.45-3.54-5.59-20.56-1.28-21,5.11-29.6,11.87-38.75.91-1.23,1.83-2.47,2.74-3.76.43,2.64,1,5.64,1.74,8.9.42,2,.94,4.42,1,5,0,1.87,1.29,5.65,5,16.3,2.14,6.09,4.8,13.65,7.92,23,3.38,15.18,7.41,22.56,12.3,22.56a4.72,4.72,0,0,0,.68,0c2.46.22,14.71,1.26,26.82,1.26,20.48,0,29.61-2.78,29.61-9v-.42L319,337c-4.21-12.64-13.45-16-18.41-17.84a23.3,23.3,0,0,1-2.7-1.07c-1.49-2.31-2-20.14,2.81-32.76,12.58-10.49,27.38-37.22,30.9-62.35a5.79,5.79,0,0,0,.82.07,5.22,5.22,0,0,0,3.28-1.32,13.82,13.82,0,0,1,3.57-2c31.6,24.53,50.06,26.46,55,26.46h0c3.09,0,5.27-.61,6.47-1.81,2-2,14.21-7,18.78-7h.78l.64-.44c6.21-4.13,12.07-17.42,12.07-27.35C433,203.42,430.63,200.54,428.65,199.22Zm-9.15,35.6c-5.15,0-18,5.15-20.6,7.72s-23.16,2.58-59.2-25.74c-7.72,2.58-5.15,5.15-10.3,2.58-2.57,25.74-18,54.05-30.89,64.35-5.14,12.87-5.14,33.46-2.57,36s15.44,2.57,20.59,18c0,10.29-54,5.14-54,5.14s-5.15,2.58-10.3-20.59c-7.72-23.17-12.87-36-12.87-38.61,0-2.39-4.44-18.1-3-22.38-7.8,14.86-21.28,21.26-19.45,51.15,1.14,17.1,1.86,20.14,7,22.71s5.14,5.15,5.14,7.72-36,10.3-46.33,5.15c-7.72,0-20.59-20.59-25.74-43.76s-5.15-56.63-5.15-56.63-28.31,2.58-33.46-2.57c0,15.44-5.15,54.05,5.15,64.35s15.44,10.3,15.44,15.45S108,335.21,95.16,330.06c-15.44-2.57-33.46-5.14-36-7.72s-10.29,0-15.44-20.59L17.94,193.64s-5.15-15.45-3.86-20.6-6.44,10.3-6.44,10.3a39,39,0,0,1,0-18.66c2.58-9.65,12.87-38,12.87-40.54s-4.41,5.14-4.78,0L15.36,119l-5.14,2.57s-4.87-2.39-3.72-11.49L7.64,101s-3.49,10.3-4.32,0S23.09,72.65,38.53,67.51c7.72-15.45,30.89-48.91,61.78-54.06,12.87-2.57,12.87-7.72,12.87-7.72s70-5.15,78.79,0,26.75,20.59,37,20.59,72.08-7.72,123.56,28.32v5.79c0,1.93,28.31,17.37,30.89,25.1,7.72,0,15.44,0,18-2.58s15.44-7.72,18,2.58c0,10.29-5.15,23.16-10.3,28.31,7.72,5.15,7.72,20.59,5.15,28.32,0,7.72-2.58,30.88-5.15,33.46,0,0,10.3,20.59,18,25.74S427.22,229.67,419.5,234.82Z"/><path class="cls-3" d="M151.79,250.27s-28.31,2.57-33.46-5.15c0,10.3-7.72,57,16.73,74.83,5.15,7.36-11.58,23-34.75,10.11-18-12.87-23.17-33.46-25.74-48.9S66.85,198.79,72,175.62s10.3-43.76,12.87-46.34c0,0,7.73,48.91,64.36,41.19,10.29,28.32,10.29,25.74,10.29,30.89S151.79,222,151.79,250.27Z"/><path class="cls-4" d="M154.37,250.27s0,61.78,7.72,72.07c-18,0-30.89-2.57-33.47-12.87,0,0-10.29-25.74-10.29-38.61v-27c0,1.29,36,1.29,36,6.44Z"/><path class="cls-5" d="M355.14,227.1s-28.31-20.59-30.89-20.59-20.59,0-25.74-5.15S267.63,185.91,270,129.28c0,0,2.75-15.44,10.48-20.59,0,0-15.45,10.3-25.75,56.63C231.59,193.64,229,196.21,229,196.21s7.73,0,12.87-5.15-10.29,10.3-18,15.45-10.3,7.72-10.3,7.72,10.3,0,12.87-2.57-21.33,20.44-24.82,32.1-3.5,50.27-3.5,55.41-2.57,10.3-2.57,20.6-2.57,20.59-7.72,23.16a25.62,25.62,0,0,1-10.3,2.58s9.77,7.8,28.32,5.15c36-5.15,20.59-15.45,15.44-18,0,0-7.72-18-2.57-36,4.47-15.65,15.44-33.46,20.59-38.61,0,0-5.15-28.32-2.57,7.72s17.19,66.7,20.59,72.08,2.57,5.14,5.15,5.14,23.16,2.58,25.74,2.58,28.31-2.58,28.31-2.58,2.58-15.44-20.59-23.16c-2.57-18,0-15.45,0-25.74,0-11.52,20.37-25.82,25.74-41.19A195.2,195.2,0,0,0,329.4,222C328.33,229.15,332,209.08,355.14,227.1Z"/><path class="cls-5" d="M277.92,178.19c-2.19-9.66,10.3,33.47,48.18,29l31.62,22.45s5.15-10.29-5.15-18-18-18-20.59-18-43.76,0-54.06-23.17Z"/><path class="cls-6" d="M408.74,173s-12.41-5.14-20.13,7.73c-7.73,7.72-20.6,2.57-23.17,5.14s-23.17,7.18-12.87,38.34c10.3,8.27,30.89,20.87,38.61,18.29s18-5.14,20.59-5.14,6.31-6.31,12.87-12.87c5.15-5.15,7.73-15.45,2.58-23.17-1.86-2.78-15.45-18-18-25.74C408.39,173.18,414.09,168.23,408.74,173Z"/><path class="cls-7" d="M429.79,203.93s-22.93,7.6-26.91,16.67c-5.38,10.42-31.56,19.87-46.08,6.75,19.86,17.52,34.38,20.34,49.83,12.62,5.14-2.57,7.72-2.57,12.87-5.15s9.49-11.31,10.29-18A58,58,0,0,0,429.79,203.93Z"/><path class="cls-8" d="M378.31,87.09l12.87,16.45s8.53-18.42,18-23.16c10.3-5.15,18,10.29,0,33.46-5.15,0-20.59-7.72-20.59-7.72Z"/><path class="cls-5" d="M393.76,108.69a32.07,32.07,0,0,1,3.21-9c4.71-8.74,14-16.14,17.38-14.15,3.16,1.87.31,11.78,0,12.87a29.91,29.91,0,0,1-7.72,12.87,1.41,1.41,0,0,1-.2,1Q405,114.23,393.76,108.69Z"/><path class="cls-9" d="M325.44,91.39s-30.6-.72-18.47,35.32l11.4,7.72,23.9-12.87S331.78,92.11,325.44,91.39Z"/><path class="cls-8" d="M319.11,134.43s-8.28-15.64-10.3-25.74c-2.57-12.87,20.59-28.15,29.6-6.35l3.86,19.22A50.23,50.23,0,0,1,332,129.28a51.06,51.06,0,0,1-12.87,5.15"/><path class="cls-5" d="M326.37,126.71s-12.41-12.87-9.84-23.17,15.45-7.72,18,5.15l2.58,12.87Z"/><path class="cls-2" d="M290.53,332.28s10-6.73,17.76,8.71c0,10.3,0,18-2.57,5.15S290.53,332.28,290.53,332.28Z"/><path class="cls-2" d="M285.38,332.28s10-6.73,17.77,8.71c0,10.3,0,18-2.58,5.15S285.38,332.28,285.38,332.28Z"/><path class="cls-2" d="M296.84,330.82s14-.13,16.6,15.32c-2.57,2.57,0,5.15-5.15-2.57s-8.61-10.46-8.61-10.46l-3.91-1.95"/><path class="cls-2" d="M303.15,328.12s15.44,0,15.44,18c0,0,0,4.55-5.15-4.16s-15.23-11.06-15.23-11.06S295.42,328.12,303.15,328.12Z"/><path class="cls-2" d="M208.16,340s10-6.73,17.76,8.71c0,10.3,0,18-2.57,5.15S208.16,340,208.16,340Z"/><path class="cls-2" d="M203,340s10-6.73,17.76,8.71c0,10.3,0,18-2.57,5.15S203,340,203,340Z"/><path class="cls-2" d="M214.47,338.54s14-.12,16.6,15.32c-2.57,2.58,0,5.15-5.15-2.57s-8.61-10.46-8.61-10.46l-3.91-1.95"/><path class="cls-2" d="M220.77,335.84s15.45,0,15.45,18c0,0,0,4.55-5.15-4.16s-15.23-11.06-15.23-11.06S213.05,335.84,220.77,335.84Z"/><path class="cls-2" d="M118.07,324.56s10-6.74,17.76,8.71c0,10.3,0,18-2.57,5.15S118.07,324.56,118.07,324.56Z"/><path class="cls-2" d="M112.92,324.56s10-6.74,17.76,8.71c0,10.3,0,18-2.57,5.15S112.92,324.56,112.92,324.56Z"/><path class="cls-2" d="M124.37,323.1s14-.13,16.61,15.32c-2.58,2.57,0,5.15-5.15-2.58s-8.62-10.45-8.62-10.45l-3.91-2"/><path class="cls-2" d="M130.68,320.4s15.45,0,15.45,18c0,0,0,4.54-5.15-4.16s-15.23-11.06-15.23-11.06S123,320.4,130.68,320.4Z"/><path class="cls-10" d="M414.35,142.52c-12.87-2.94-15.45,15.08-2.58,20.23C414.35,144.73,414.35,142.52,414.35,142.52Z"/><path d="M416.92,132.58a9.57,9.57,0,0,0-4.28-1,11,11,0,0,0-4.29.8,16.53,16.53,0,0,0-3.84,2.16c-.59.46-1.15.94-1.73,1.42s-1.07,1-1.63,1.54c.48-.58,1-1.15,1.46-1.72s1.09-1,1.66-1.54c.3-.23.6-.46.91-.68a7.37,7.37,0,0,1,.95-.62l1-.57,1.05-.45a10.93,10.93,0,0,1,4.49-.73A8.42,8.42,0,0,1,416.92,132.58Z"/><path class="cls-11" d="M403.31,154.11s7.55-8.28,9.29,2.75c-1.65,6.62-.83,5.89-.83,5.89S405.15,160.91,403.31,154.11Z"/><ellipse class="cls-12" cx="364.15" cy="151.87" rx="14.16" ry="14.87"/><ellipse class="cls-10" cx="365.44" cy="153.74" rx="14.16" ry="12.87" transform="translate(179.81 504.06) rotate(-84.9)"/><path class="cls-11" d="M354,160.23c1.13-12.93,21.73-15.5,23.43-1.39A12.67,12.67,0,0,1,368,167.9,12.85,12.85,0,0,1,354,160.23Z"/><circle class="cls-13" cx="406.63" cy="149.88" r="2.57"/><path d="M345.67,139a29.61,29.61,0,0,1,5.58-5.88,23.57,23.57,0,0,1,7.13-4,15.1,15.1,0,0,1,8.16-.37,16.33,16.33,0,0,1,7.09,3.9,21.68,21.68,0,0,0-3.45-2.06,14.66,14.66,0,0,0-3.76-1.28,15,15,0,0,0-7.81.52,24.89,24.89,0,0,0-7,3.72,34.39,34.39,0,0,0-3.09,2.56A35,35,0,0,0,345.67,139Z"/><path d="M370.74,237.77Q359.3,230.52,348,223.12c-3.76-2.49-7.52-5-11.24-7.56-1.85-1.28-3.7-2.57-5.53-3.9-.91-.66-1.82-1.34-2.71-2A14.58,14.58,0,0,1,326,207.3l.2.08a25.61,25.61,0,0,1-4.65,1.2,26.59,26.59,0,0,1-4.8.24,30.07,30.07,0,0,1-9.36-2,48.73,48.73,0,0,1-15.93-10.49,71.65,71.65,0,0,1-11.86-15,78.58,78.58,0,0,1-7.74-17.49,70.17,70.17,0,0,1-3.07-18.86A59.4,59.4,0,0,1,271.34,126a55.09,55.09,0,0,1,8.75-16.93l10.7-15.84-10.55,15.94a56.05,56.05,0,0,0-8.62,16.92,58.73,58.73,0,0,0-2.52,18.81,69.75,69.75,0,0,0,3.11,18.75A76.85,76.85,0,0,0,291.74,196a48.2,48.2,0,0,0,15.75,10.46,29.91,29.91,0,0,0,9.23,2,26.8,26.8,0,0,0,4.74-.22,25.34,25.34,0,0,0,4.59-1.17l.11,0,.09.11a15,15,0,0,0,2.44,2.24q1.33,1,2.7,2c1.81,1.33,3.66,2.63,5.51,3.91q5.57,3.85,11.21,7.59Q359.36,230.43,370.74,237.77Z"/><path class="cls-14" d="M382.74,84.08S359,62.36,352.57,60.43c2.57-6.44,0-5.79,0-5.79S315.25,17.31,230.3,25c0,7.73-24.5-10.34-39.9-21.88L113.18,5.73s0,7.72-20.59,7.72C79,18.74,46,46.1,39.07,66.46c-13.95,4.67-46,26.92-34.2,39.08.4-4,2.6-3.19,2.6-3.19s-5,14.06.93,17.91c3.19-7.2,7-14.17,10.43-21.29-1.17-1.78-2.68-3.94.4-7,5.14-5.15,28.31-12.87,30.88-18s20.6-38.61,33.47-43.76S114.47,22.46,117,17.31,129.91,7,147.93,9.59s25.74,2.57,30.89,2.57c17.32,0,20.75,18.77,36,20.6,3.68.44,2.44-.69,14.15-1.29,0,0,8.54-.44,18,0,11.53.54,40.64,5.49,78.41,16.27,8,1,15.55,5,15.55,10.76v5.15Z"/><path d="M102.88,183.34c3,9.5,5.89,19.07,8.4,28.73a278.15,278.15,0,0,1,6.29,29.27c.22,1.23.3,2.48.46,3.72.06.62.14,1.24.2,1.86l.09,1.88.1,1.88c0,.62,0,1.25,0,1.87,0,1.25,0,2.5,0,3.74-.09,5-.34,10-.49,15a123.9,123.9,0,0,0,.21,14.93,47.73,47.73,0,0,0,1.2,7.35,29.77,29.77,0,0,0,2.72,6.9v0a59,59,0,0,0,2.68,7.3,35.71,35.71,0,0,0,4,6.69,27.2,27.2,0,0,0,5.53,5.45,36.56,36.56,0,0,0,6.75,3.9,36.75,36.75,0,0,1-6.81-3.82,27.49,27.49,0,0,1-5.63-5.41,33.74,33.74,0,0,1-4-6.69,58.29,58.29,0,0,1-2.73-7.34v0a30.16,30.16,0,0,1-2.79-7,47.84,47.84,0,0,1-1.24-7.4,124.81,124.81,0,0,1-.28-15c.14-5,.35-10,.43-14.95,0-1.25,0-2.5,0-3.74,0-.62,0-1.25,0-1.87l-.09-1.86-.09-1.86c0-.62-.12-1.24-.19-1.86-.15-1.23-.22-2.47-.43-3.7A277.83,277.83,0,0,0,111,212.15Q107.24,197.66,102.88,183.34Z"/><path d="M162.09,322.34a199.79,199.79,0,0,1-6.34-29.23,246.06,246.06,0,0,1-2.61-29.82c-.07-2.49-.14-5-.06-7.48l.12-7.49.45-7.48c.09-1.24.12-2.49.26-3.73l.41-3.72a205.5,205.5,0,0,1,5.19-29.46L158,211.25l-.77,3.66c-.25,1.22-.39,2.47-.59,3.7L155.46,226c-.34,2.47-.54,5-.81,7.43l-.39,3.72c-.13,1.24-.15,2.49-.23,3.73l-.41,7.46-.09,7.48c-.06,2.49,0,5,.11,7.47a245.34,245.34,0,0,0,2.44,29.78c.33,2.47.77,4.93,1.15,7.39s.9,4.9,1.38,7.35C159.6,312.68,160.7,317.55,162.09,322.34Z"/><path d="M268.9,224l-4.46,4.07-2.23,2c-.72.71-1.41,1.44-2.11,2.15l-4.23,4.3-4,4.52c-.66.76-1.34,1.5-2,2.28L248,245.68c-1.23,1.59-2.54,3.11-3.71,4.74l-3.52,4.89c-1.17,1.63-2.21,3.35-3.32,5a181.34,181.34,0,0,0-11.73,21c-1.71,3.64-3.35,7.31-4.77,11.07a69.89,69.89,0,0,0-3.69,11.46,38.63,38.63,0,0,1,1.35-5.89c.6-1.92,1.18-3.85,1.88-5.74,1.34-3.81,2.9-7.53,4.53-11.22a169.08,169.08,0,0,1,11.59-21.23,151.49,151.49,0,0,1,14.67-19.24l4.09-4.46,4.35-4.21c.73-.69,1.45-1.39,2.19-2.08l2.31-1.94Z"/><path class="cls-15" d="M232.31,267.82s18.23,67.37,23.55,73.17c8.08,6.46,17.49,3,17.49,3,.71.22,25.42,1.48,32.37,2.14s-16.22-8.13-25.22-7.6-23.65-6.63-20.41-14.73c1.1-2.76-4-33.64-4-33.64h-5.15l-2.12-19.89-.27-2.46s15.26-11.49,17.84-19,6.43-11,6.43-11,18.53-6.31,26.64-10.42c0,0-26.17,4.16-37.34,2.6C250,244.84,231.74,263.49,232.31,267.82Z"/><path class="cls-16" d="M113.59,222s6.28,5.61,17.09,5.36l7.78-.18,3-.07h0L135.83,230s12.1-2.35,15.32-2.6l3.22-.25-1.11,21.72s-29.78-6.28-34.93-5c-2.58-5.15-4.28-19.85-4.28-19.85Z"/><path class="cls-14" d="M39.07,66.46l-27,76.09S1.21,179.48,7.64,183.34C15.36,173,13.23,173,13.23,173l14.65,62.37S17.72,182.05,22.33,173s2.78-25.74,2.78-25.74l-7.72,6.44s5.88-18,11.58-27,9.35-37.32,10.1-33.46l-.75-3.86,13.12-18L68.17,44.73S43.46,48.67,39.07,66.46Z"/><line class="cls-17" x1="17.35" y1="127.63" x2="40.55" y2="62.36"/><path d="M159.51,201.36c-1.43-3.06-2.76-6.17-4-9.3s-2.42-6.32-3.5-9.52a95,95,0,0,1-2.73-9.77,38.64,38.64,0,0,1-.76-5,9.18,9.18,0,0,1,.71-5,9.17,9.17,0,0,0-.47,4.95,39.64,39.64,0,0,0,.89,5c.78,3.28,1.75,6.51,2.83,9.7s2.2,6.38,3.38,9.54S158.25,198.23,159.51,201.36Z"/><path d="M429.79,222a23.43,23.43,0,0,1-3.1,3.57,26.42,26.42,0,0,1-3.68,3,25.87,25.87,0,0,1-4.14,2.33,29.36,29.36,0,0,1-4.47,1.6h0c-4.28,1.6-8.67,3.37-13.34,3.67a25.76,25.76,0,0,1-13.51-2.66c-.52-.26-1.07-.47-1.56-.77l-1.47-.93-1.47-.92a14.41,14.41,0,0,1-1.38-1.06c-.9-.73-1.82-1.44-2.69-2.2l-2.45-2.45c-.41-.41-.84-.79-1.22-1.23l-1.11-1.33L372,219.88c-1.37-1.86-2.65-3.77-4-5.65,1.39,1.85,2.72,3.72,4.14,5.54l2.26,2.6,1.13,1.31c.38.43.81.81,1.22,1.21l2.48,2.4c.87.74,1.79,1.43,2.69,2.14a13.62,13.62,0,0,0,1.37,1l1.46.91,1.46.91c.49.3,1,.5,1.54.75A25.93,25.93,0,0,0,401,235.62c4.59-.27,8.9-2,13.25-3.56h0a28.66,28.66,0,0,0,4.44-1.51,26.27,26.27,0,0,0,4.14-2.24,28.09,28.09,0,0,0,3.73-2.88A23.84,23.84,0,0,0,429.79,222Z"/><path d="M362.87,216.8a25.45,25.45,0,0,1,1.74-3.36,30.49,30.49,0,0,1,2.2-3.1,15.35,15.35,0,0,1,2.79-2.61,5.59,5.59,0,0,1,3.56-1.22,6.42,6.42,0,0,0-3.34,1.53,16.65,16.65,0,0,0-2.62,2.62A52.14,52.14,0,0,0,362.87,216.8Z"/><path d="M396.33,188.49a42.56,42.56,0,0,1,4.75-3,41.46,41.46,0,0,1,5.1-2.38,21.45,21.45,0,0,1,5.48-1.35,8.69,8.69,0,0,1,2.83.18,4.72,4.72,0,0,1,2.43,1.39,4.94,4.94,0,0,0-2.48-1.15,8.68,8.68,0,0,0-2.74,0,23,23,0,0,0-5.34,1.43,50.36,50.36,0,0,0-5.1,2.26C399.59,186.67,398,187.56,396.33,188.49Z"/><path class="cls-14" d="M382.74,84.08H398.9s9-9.69,18-6c-7.72,2.12-16.73,8.78-25.74,25.51L378.31,88.1l-.87-8Z"/><path class="cls-18" d="M315.12,139.55s4.86-7.17,16.14-8.84c0,0,13.63-12.12,18.74-14.22"/><path d="M315.12,139.55a18.74,18.74,0,0,1,3.26-3.4,24.57,24.57,0,0,1,3.92-2.62,27.28,27.28,0,0,1,4.35-1.84,31.39,31.39,0,0,1,4.6-1.09l-.06,0c2.93-2.62,6-5.12,9-7.57,1.54-1.22,3.11-2.41,4.71-3.55a30.07,30.07,0,0,1,5.06-3,31.37,31.37,0,0,0-5,3.12c-1.59,1.16-3.14,2.36-4.67,3.58-3.06,2.46-6,5-9,7.61l0,0h0a30,30,0,0,0-4.57,1,26,26,0,0,0-4.33,1.79,24.82,24.82,0,0,0-3.93,2.57A18.31,18.31,0,0,0,315.12,139.55Z"/><path class="cls-5" d="M318.59,259.3l-5.15,15.15a5.87,5.87,0,0,0-.94-7.58s-2.15,13.92-4.21,12.82a28.8,28.8,0,0,1-.13-8.83l-.26-1.34s-2.7,10.27-4.75,13.53v-8.6L314,252.84Z"/><path class="cls-5" d="M298.7,188.49a19.41,19.41,0,0,1-5.33-12.87s6.07,12.8,10.76,14.12c0,0-2.86-5.15-2.95-7.06l.09,1.91a27.25,27.25,0,0,0,9.6,6.83l-2.26,6.15C301.09,196.21,298.7,188.49,298.7,188.49Z"/><path class="cls-5" d="M95.16,142.2s0,15.4,7.72,20.55V155c0-7.73-5.65-12.83-5.65-12.83"/><path class="cls-5" d="M114.65,157s.33,8.37,7.15,13.52L134,173S118.7,166.6,114.65,157Z"/><path class="cls-5" d="M71,181.9l-4.06,10.53-4.43,11.5s4.88-9.16,8.49-11c0,0-7.71,13.59-8.49,18.74,0,0,5.93-8.44,11.58-10.66,0,0-6.75,8.08-8.27,15.8,0,0,1.06-.1,6.2-2.62s8.28-10.25,8.28-10.25"/><path class="cls-5" d="M73,267.94s-5.37,17-3.17,25.4c0,0-.37-12.18,7.35-14.76,0,0-2.73,4-3.94,12.27,0,0-1.21-1.06,3.94-4.09s7.72-13.33,7.72-13.33Z"/><circle class="cls-13" cx="357.72" cy="152.45" r="2.57"/><path class="cls-14" d="M232,31.36c-.39.11,12.48,2.68,17.63,7.83,0,0-3-8-6.63-7.86,0,0,11.77.14,16.92,5.29l-5.15-5.15s10.67-.14,13.06,3.79c0,0,10.08-1.95,1.09-5.45S232,31.36,232,31.36Z"/><path class="cls-14" d="M64,50.5S74,39.19,79.44,39.19c0,0-4.13,1.72-9.65,3.44,0,0,1.28-6.33,10.75-8.74,0,0,9.47-5-.82-2.42S66.29,46.36,64,50.5Z"/><path class="cls-14" d="M34.27,112s7.85-11.26,12.49-15c0,0-9,3.26-12.49,7.49,0,0,2-9.78,9.59-13.07,0,0,1.28-5.77-3.31-3.24s-2.23,1.24-2.23,1.24S32.58,107.49,34.27,112Z"/><path class="cls-14" d="M22.33,173s-.39-7.67,6.62-10.27c0,0,1.82-8.05-3.31-4S19,165,19,165A31.78,31.78,0,0,1,29,152.45S25.29,148.58,19,157s2.53,18.67,2.53,18.67"/><path d="M403.4,152.45a12.52,12.52,0,0,1,.18-4.68,10,10,0,0,1,2.24-4.2,7.59,7.59,0,0,1,4.12-2.39,5.44,5.44,0,0,1,2.41.12,4.54,4.54,0,0,1,2,1.22,5.16,5.16,0,0,0-4.29-.78,7.9,7.9,0,0,0-3.69,2.34,11,11,0,0,0-2.24,3.85A18.32,18.32,0,0,0,403.4,152.45Z"/><path class="cls-19" d="M402.67,221.73s-3.7-5.86-2.22-12,19.57-13.45,25.85-4.79c6.56,13.18,2.62,17.18.09,17.65S412.61,233,402.67,221.73Z"/><ellipse class="cls-11" cx="412.07" cy="216.44" rx="2.54" ry="6.67" transform="translate(-46.19 134.94) rotate(-17.63)"/><ellipse class="cls-11" cx="421.72" cy="212.03" rx="2.54" ry="6.67" transform="translate(-44.41 137.66) rotate(-17.63)"/></svg>