<svg id="Layer_1" data-name="Layer 1" xmlns="http://www.w3.org/2000/svg" viewBox="0 0 252.36 205.43"><defs><style>.cls-1{fill:#2f3863;}.cls-2{fill:#c64736;}.cls-2,.cls-29{stroke:#0f0f39;stroke-miterlimit:10;}.cls-3{fill:#1f2344;}.cls-4{fill:#0e0f1c;}.cls-5{fill:#bc4632;}.cls-6{fill:#8b3120;}.cls-7{fill:#4b2d15;}.cls-8{fill:#915d32;}.cls-9{fill:#9b6531;}.cls-10{fill:#8d5627;}.cls-11{fill:#af3d28;}.cls-12{fill:#1e110b;}.cls-13{fill:#681f12;}.cls-14{fill:#471610;}.cls-15{fill:#1f130a;}.cls-16{fill:#16100d;}.cls-17{fill:#81331f;}.cls-18{fill:#3e2413;}.cls-19{fill:#756a65;}.cls-20{fill:#aea8a7;}.cls-21{fill:#24120a;}.cls-22{fill:#0d0a08;}.cls-23{fill:#dad6d4;}.cls-24{fill:#75271d;}.cls-25{fill:#935d31;}.cls-26{fill:#894d21;}.cls-27{fill:#d7c6bb;}.cls-28{opacity:0.2;}.cls-29{fill:none;}</style></defs><path class="cls-1" d="M249.34,149.39c-1.71-7.62-4.33-15-6.11-22.61a79,79,0,0,1-1.85-11.94c-.31-4.17-.45-8.34-.91-12.5s-1.1-8.15-1.8-12.2a50.61,50.61,0,0,0-2.78-10.77A24.52,24.52,0,0,0,230.07,71a34.84,34.84,0,0,0-8.95-6.46,28.45,28.45,0,0,1,3.32,10.73c.09.75.16,1.51.2,2.27l0,0a16.22,16.22,0,0,1,1.14,2.89A31.52,31.52,0,0,1,227,86.83a61.29,61.29,0,0,1-.57,13.26c-.6,4.66-1.39,9.29-1.59,14a48.4,48.4,0,0,0,1.23,13c1,4.17,6.08,13.51,6,13.11a49.58,49.58,0,0,1-1.3-10.78c.51,2.5,1.15,5,1.88,7.42,1.06,3.59,2.32,7.11,3.58,10.63a63.78,63.78,0,0,1,2.08,6.73c-.07-1.21-.19-2.42-.33-3.63-.39-3.39-1-6.76-1.58-10.14,1.38,3.17,2.94,6.26,4.21,9.48a27.91,27.91,0,0,1,2.32,11.73,31.28,31.28,0,0,0,.62-5.89c-.07-1-.19-2.08-.34-3.12l.51,1.29a57.76,57.76,0,0,1,2.81,9.83c.4,2.07.7,4.17,1,6.26a72.91,72.91,0,0,0-.59-13,89.71,89.71,0,0,0-3.29-14.2l-.51-1.63c2.85,6.63,5.83,13.21,6.83,20.42.55,3.92.53,11.84.54,11.82h0s.34-2.92.44-4.38A68.21,68.21,0,0,0,249.34,149.39Z"/><path class="cls-2" d="M249.34,149.73c-1.71-7.63-4.33-15-6.11-22.62a78.91,78.91,0,0,1-1.85-11.93c-.31-4.17-.45-8.35-.91-12.5s-1.1-8.15-1.8-12.2a50.61,50.61,0,0,0-2.78-10.77,24.52,24.52,0,0,0-5.82-8.37,34.84,34.84,0,0,0-8.95-6.46l-.21-.38c-.36-.61-.75-1.2-1.16-1.79-4.61-6.4-12.05-10.19-19.75-11.32a42.7,42.7,0,0,0-13.11.17,27.56,27.56,0,0,0-6.48,1.84,56,56,0,0,0-5.86,3l-2.47,1.4c-.62.16-1.25.31-1.88.45-2.09.44-4.21.74-6.32,1-4.1.49-8.22.83-12.34,1-1.54.06-3.82.1-6.29.1-4.09,0-8.68-.08-11.23-.27a79.91,79.91,0,0,1-12-1.77,66,66,0,0,1-11.46-3.68c-.28-.27-.57-.54-.87-.8a15.45,15.45,0,0,0-4.18-2.75h0l-.34-.14-.17-.07c-.42-.16-.84-.29-1.27-.41-2.79-1-7.9-2.84-8.44-3.09a12.87,12.87,0,0,0-1.81-.72,13.53,13.53,0,0,0-1.68-.35c-.61-.25-1.2-.53-1.79-.82-.39-.46-.73-1-1.09-1.45a10.51,10.51,0,0,0-1.63-1.77c-2.34-2.05-5.28-3.21-7.7-5.15a16.56,16.56,0,0,1-1.83-1.62,7.66,7.66,0,0,1-.8-.91c-.24-.33-.47-.66-.72-1a.16.16,0,0,0-.16-.07,19.93,19.93,0,0,0-1.28-1.63,24.75,24.75,0,0,0-4.55-3.8c-1-.7-2.27-1.49-3.5-2.24a31.5,31.5,0,0,0-2.81-1.67h0c-.86-.45-1.75-.87-2.65-1.25-1.3-.74-2.58-1.53-3.85-2.32-1.79-1.11-3.57-2.23-5.4-3.28a38.05,38.05,0,0,0-11.41-4.74c-.4-.08-.8-.14-1.2-.2l-.06,0a19,19,0,0,0-2.27-.3,41.84,41.84,0,0,0-4.19-3.3c-1.7-1.43-2.55-4.94-3.69-6.14A7.49,7.49,0,0,0,25.5,1.12c-.1,0-.16-.05-.16,0a7.45,7.45,0,0,0,.12,2.58,4.83,4.83,0,0,0,.22.64,13.82,13.82,0,0,1,.74,2.34c.12.6.23,1.21.34,1.82a29.82,29.82,0,0,0,.66,3.23q.13.44.3.87a4.6,4.6,0,0,1-.77.82,7.45,7.45,0,0,1-1.62.94,31.7,31.7,0,0,0-3.12-1.66c-2-.86-2.95-3.1-3.4-3.78a2.3,2.3,0,0,0-1.9-1.13s-.06,0-.07,0a6.58,6.58,0,0,0,.32,3.29c.31,1,.69,1.88,1.09,2.8s.81,1.8,1.27,2.67c.11.21.22.42.34.63l-.24.16a5.9,5.9,0,0,0-1.76,2.11c0,.06.05.11.09.05a5.24,5.24,0,0,1,1.89-1.7l.28-.15.29.52a10.08,10.08,0,0,0-1.72,1.79,8.28,8.28,0,0,0-.81,1.42,16.62,16.62,0,0,0-1.59,2.93,18.55,18.55,0,0,0-.87,2.54,23.5,23.5,0,0,0-.41,2.7s.05.06.07,0c.31-.82.59-1.64,1-2.44.2-.42.41-.83.65-1.24-.19.49-.35,1-.5,1.5-.42,1.54-.76,3.09-1.22,4.61S14,34.9,13.49,36.33a66.14,66.14,0,0,1-3.86,8.38L8.88,46l-.36.55c-.83,1.29-1.72,2.56-2.64,3.79S4.09,52.64,3.24,53.8a12.28,12.28,0,0,0-2,3.63s0,.1,0,.15A9.25,9.25,0,0,0,1,59,11.13,11.13,0,0,0,1,61.89c0,.33.1.65.17,1a24.46,24.46,0,0,0,1,3.34v0a12.66,12.66,0,0,0,.86,2l.23.37a5.33,5.33,0,0,0,.94,1.13,5.92,5.92,0,0,0,3.37,1.44h0l.17,0a6.84,6.84,0,0,0,4.89-1.08l.26,0a6.83,6.83,0,0,0,.92-.2l.07,0a5,5,0,0,0,1.13-.51,5,5,0,0,0,.46-.34,4.64,4.64,0,0,0,1.08-1.76l.21-.47h0l.55-.57.54-.57.18-.18h0c.51-.45,1-.91,1.52-1.35.33-.29.66-.57,1-.84a50.34,50.34,0,0,1,5.72-3.87c1.91-1.13,3.89-2.15,5.81-3.26l1.21-.28a12.13,12.13,0,0,0,1.77-.56,9.94,9.94,0,0,0,2.87-2,27.64,27.64,0,0,0,2-2.05A6,6,0,0,1,44,50.73c.33.07.88.69,1.51,1.58.31.43.64.93,1,1.45a69.75,69.75,0,0,1,3.37,8.56c1,2.94,1.95,5.89,3.12,8.76a49.44,49.44,0,0,0,4.63,8.71c1.94,2.93,4,5.81,6,8.7A28.27,28.27,0,0,0,65.36,102a43.53,43.53,0,0,0,8.11,13.33q1.61,1.86,3.35,3.6a26.58,26.58,0,0,1,1.54,5.22,48.09,48.09,0,0,1,.68,8.89c0,1,0,2.09-.08,3.13-.07,1.79-.16,9.82-.75,18.7l-.66,8.21h0L76.39,174.8c-.38,3.61-.67,6.28-.72,7.22a3,3,0,0,1,0,.31,8.8,8.8,0,0,1-1.27,3.91v0A14.13,14.13,0,0,0,72.89,188c-.17.27-.35.54-.54.79s-.58.69-.71.84l-.29.31c-.21.22-.42.44-.64.65a16.88,16.88,0,0,0-1.21,1.33l-.11.16,0-.1a16.43,16.43,0,0,0-2.75,3.55,6.49,6.49,0,0,0-.73,1.69,8.11,8.11,0,0,0-.26,2.34l0,.21c0,.1,5.17,2,13.39.09.7-.16,1-.82,1.31-1.46s.69-1.36,1-2.08a13.28,13.28,0,0,0,.75-2.44,6.94,6.94,0,0,0,0-1.82l0-.06a2.49,2.49,0,0,0,.21-.27,6.54,6.54,0,0,1,.34-1.37l.09-.2a4.08,4.08,0,0,1,.55-.79c.1-.11.2-.21.31-.31a2.49,2.49,0,0,0,1.1-1.11,1.71,1.71,0,0,0,.13-.23,2.16,2.16,0,0,0,.13-1.21h0a3.35,3.35,0,0,0-.1-.6h0l-.18-.94c0-.32-.08-.65-.1-1,0,0,0-.05,0-.07a70.17,70.17,0,0,1,.49-7.66c.35-2.62.82-5.43,1.23-8.19a42,42,0,0,1,1.21-5.22c0-.11.08-.23.11-.34l.06-.18c0-.13.09-.25.13-.38A22.24,22.24,0,0,1,89,159.27c.45-.86.89-1.74,1.29-2.63h0c.36-.81.7-1.63,1-2.47.2-.58.38-1.17.53-1.76,0-.76-.15-1.51-.25-2.26-.69-4.81.44-9.6.37-14.41,0-.32,0-.64,0-1,.72,1.28,1.38,2.59,2,3.9,1.27,2.59,2.51,5.19,3.77,7.79.49,1,1,2,1.48,3l.47,1c0,.13.07.26.11.39.1.38.19.77.28,1.15l.06.24c.32,1.32.61,2.64.94,3.95.12.46.24.92.38,1.37h0s.13.45.35,1.13c0,.08,0,.16.08.24a32.08,32.08,0,0,0,1.89,4.68c.34.77.68,1.54,1,2.33.89,2.49,1.69,5.57,1.78,5.94.86,3.6,1.53,7.25,2.26,10.87,0,.23.09.45.14.68a25.84,25.84,0,0,1,.4,4.49c0,.09,0,.19,0,.28v.06a8.38,8.38,0,0,1-2.1,4.25,2.69,2.69,0,0,1-.28.22.59.59,0,0,0-.23.27l-1,.86a1.5,1.5,0,0,0-.4.47h0l0,0a1,1,0,0,0-.11.56v0a1.52,1.52,0,0,0,.29.87,19.45,19.45,0,0,0-3,3.46,6.27,6.27,0,0,0-.85,1.7,7,7,0,0,0-.3,2.34,1.55,1.55,0,0,0,0,.21c0,.09,6,2,15.46.09.8-.16,1.12-.83,1.5-1.46a23.55,23.55,0,0,0,1.15-2.09,12.35,12.35,0,0,0,.87-2.43,7,7,0,0,0-.06-2.14c.32-.44.41-.7.23-1.57a13.22,13.22,0,0,0-.57-2.29l0-.16h0a1.24,1.24,0,0,0,0-.16c0-.06,0-.12,0-.19a5,5,0,0,1,.29-3.2,3.54,3.54,0,0,1,.48-.73c.23-.2.45-.35.61-.5a2.72,2.72,0,0,1,.83-.24.86.86,0,0,0,.83-.49,1.16,1.16,0,0,0,.2-.42h0c.58-1.47-1.78-6.43-1.78-6.43l0-.09a1.6,1.6,0,0,0-.1-.23q-.39-.88-.84-1.74c-.28-.73-.6-1.44-.92-2.15-1-2-2-4-3-6l-.21-.43-2.62-10.13c-.08-.61-.13-1.22-.18-1.83a38.74,38.74,0,0,0-.29-6.2,29.23,29.23,0,0,0-.56-4.26c-.07-.33-.15-.65-.24-1v0c0-.1,0-.13,0-.1a18.11,18.11,0,0,0-.73-2.07c-.44-1-.94-2-1.38-3.08a19.05,19.05,0,0,1-1.39-6.49,51.14,51.14,0,0,1,.2-6.55,55.73,55.73,0,0,1,.78-5.92c.19-.94.4-1.88.65-2.8l.21,0c8.53,1.41,17.85,3,26.48,2.88a118,118,0,0,0,18.56-2.09,51.74,51.74,0,0,0,6.78-2l.15-.06c2.19-.83,4.3-1.84,6.49-2.66a19.25,19.25,0,0,1,6.2-1.39,5.67,5.67,0,0,1,.61.28l.91.8,1.81,1.58c.5.61.95,1.26,1.37,1.89a60.34,60.34,0,0,1,3.72,6.36c.22.42.43.84.63,1.27a85.72,85.72,0,0,1,4.75,12.5c.72,2.4,1.37,4.81,2,7.24.31,1.2.6,2.41.89,3.61s.63,2.54.83,3.83a11.33,11.33,0,0,1-.1,4c-.2,1-.45,1.91-.71,2.85-.08.24-3.3,10.16-3.41,11.15-.35,1-.7,2.11-1.06,3.17-1.59,4.3-4.47,11.6-5.18,13l-.12.2c-.43.59-2.24,3.2-3.15,4.52l-.23.32c-.06.09-.12.19-.19.28l-.11.17h0l-.09.13c-3.53,2.63-2.73,3.16-2.73,3.16a2.12,2.12,0,0,0,.28.8,20,20,0,0,0-3,3.45,6.57,6.57,0,0,0-.85,1.7,7.29,7.29,0,0,0-.3,2.34,1.55,1.55,0,0,0,0,.21c0,.09,6,2,15.46.09.81-.16,1.12-.83,1.51-1.46a23.45,23.45,0,0,0,1.14-2.09,11.74,11.74,0,0,0,.87-2.43,6.78,6.78,0,0,0-.05-2.1c.77-1.17-.41-4.15-.41-4.15s0-.22.06-.32a2.43,2.43,0,0,1,.69-1.26,5.6,5.6,0,0,1,1.95-.57h0a2.1,2.1,0,0,0,1.14-.57c.94-.85,1-2.19.9-4.27.17-1,.4-2,.66-3,.1-.41.22-.81.33-1.21.23-.8.5-1.66.78-2.56.23-.72.47-1.43.71-2.14,1.33-4,2.63-8,4-12a57.64,57.64,0,0,1,2.18-5.41c.42-.9.87-1.78,1.36-2.63s1-1.61,1.48-2.46a3.84,3.84,0,0,0,.41-2.83,11.73,11.73,0,0,0-1.28-2.49,17.6,17.6,0,0,1-1.15-2.59l-.15-.46c0-.13,0-.26-.05-.39a27.91,27.91,0,0,1-.2-3.65c0-2.25.25-4.49.47-6.73a89,89,0,0,1,5.13,7.37,137.93,137.93,0,0,1,7.39,13.9c2,4.47,4.75,12.11,4.9,12.53l0,.08c.51,2.32.91,4.37,1.23,6.19l.12.72c.2,1.28.41,2.55.6,3.84.26,1.94.39,3.46.46,4.65a18.79,18.79,0,0,1-.66,6.25c-.83,1.66-2.49,3-3.92,4.47a1.65,1.65,0,0,0-.43.56,1.19,1.19,0,0,0,.08,1.5,19.93,19.93,0,0,0-2.92,3.36,6.27,6.27,0,0,0-.85,1.7,7,7,0,0,0-.3,2.34,1.55,1.55,0,0,0,0,.21c0,.09,6,2,15.46.09.8-.16,1.12-.83,1.5-1.46a23.55,23.55,0,0,0,1.15-2.09,12.35,12.35,0,0,0,.87-2.43,6.76,6.76,0,0,0,0-2.05c.8-1.57-.48-4.46-.48-4.46a6.08,6.08,0,0,1-.11-.87,3.19,3.19,0,0,1,1.21-2.56,4,4,0,0,1,1.06-.63h0c2,0,1.3-.86,1.3-.86-.42-1.5-.82-3-1.21-4.51-.88-4-1.92-9.41-2.53-11.14-.18-.88-.35-1.76-.51-2.65-.22-1.15-.42-2.31-.61-3.47-.94-6.46-2-15.61-2.1-16.69s-.17-2.11-.24-3.16a11.58,11.58,0,0,0-.69-4.26,14.81,14.81,0,0,0-2.65-3.11,15.71,15.71,0,0,1-2.35-3.26,11.17,11.17,0,0,1-1.1-4.17,26.26,26.26,0,0,0-.7-4.48c-.39-1.45-.9-2.86-1.27-4.32a21.64,21.64,0,0,1-.59-4.61c-.09-3.16.15-6.35.31-9.52l.18-3.42c1.12-5.94,2.55-11.83,3.13-17.86a49.41,49.41,0,0,0,.17-7.7h0a16.53,16.53,0,0,1,1.14,2.89A31.61,31.61,0,0,1,227,87.17a61.32,61.32,0,0,1-.57,13.26c-.6,4.65-1.39,9.29-1.59,14a48.44,48.44,0,0,0,1.23,13c1,4.16,6.08,13.51,6,13.11a49.65,49.65,0,0,1-1.3-10.78c.51,2.49,1.15,5,1.88,7.42,1.06,3.59,2.32,7.11,3.58,10.63a63.78,63.78,0,0,1,2.08,6.73c-.07-1.21-.19-2.42-.33-3.63-.39-3.39-1-6.76-1.58-10.14,1.38,3.17,2.94,6.26,4.21,9.47a28,28,0,0,1,2.32,11.74,31.4,31.4,0,0,0,.62-5.89c-.07-1.05-.19-2.09-.34-3.12l.51,1.28a57.87,57.87,0,0,1,2.81,9.84c.4,2.07.7,4.16,1,6.26a72.91,72.91,0,0,0-.59-13,90.09,90.09,0,0,0-3.29-14.21l-.51-1.62c2.85,6.63,5.83,13.2,6.83,20.42.55,3.92.53,11.83.54,11.81h0s.34-2.92.44-4.37A68.21,68.21,0,0,0,249.34,149.73Zm-60.43-12.28c.85,2.82,1.38,4.86,2,7.24m-179-88.22h0l0,0ZM115.37,197.32a21.1,21.1,0,0,0,2.44-.48h0A9,9,0,0,1,115.37,197.32Zm70.76,0a15.19,15.19,0,0,0,1.92-.41l.27-.06A8.84,8.84,0,0,1,186.13,197.3Zm43.31,0-.56,0a25.56,25.56,0,0,0,2.89-.46l.31-.06A9.12,9.12,0,0,1,229.44,197.33Z"/><path class="cls-3" d="M177.44,203.39c2,0,4.34.08,6-1.19a3.56,3.56,0,0,0,1.36-2.09,1.63,1.63,0,0,0-.1-1.08c-.18-.25-.7-.18-1-.16a23.56,23.56,0,0,1-3.66-.09c-1.19-.12-2.34-.38-3.52-.59a5.37,5.37,0,0,0-1.6-.1,3.92,3.92,0,0,0-1.48.6l-.94.6a6.21,6.21,0,0,0-.84,1.7,7,7,0,0,0-.3,2.34,13.8,13.8,0,0,0,2,.12C174.75,203.45,176.1,203.41,177.44,203.39Z"/><path class="cls-4" d="M189.64,196.26a4.37,4.37,0,0,1-1.6.57,9.18,9.18,0,0,1-2.65.5l-.55,0c-.4.05-.79.08-1.19.11a29.31,29.31,0,0,1-4.19-.07c-2.43-.2-3.45-.95-3.89-1.58a19.35,19.35,0,0,0-3.07,3.48l.94-.6a3.92,3.92,0,0,1,1.48-.6,5.37,5.37,0,0,1,1.6.1c1.18.21,2.33.47,3.52.59a23.56,23.56,0,0,0,3.66.09c.32,0,.84-.09,1,.16a1.63,1.63,0,0,1,.1,1.08,3.56,3.56,0,0,1-1.36,2.09c-1.68,1.27-4,1.16-6,1.19-1.34,0-2.69.06-4,.06a13.8,13.8,0,0,1-2-.12l0,.21c0,.09,6,2,15.47.09.8-.16,1.12-.83,1.5-1.46a21.15,21.15,0,0,0,1.14-2.09,11.77,11.77,0,0,0,.88-2.43,7.37,7.37,0,0,0-.07-2.19A2.07,2.07,0,0,1,189.64,196.26Z"/><path class="cls-3" d="M107,203.39c2,0,4.34.08,6-1.19a3.53,3.53,0,0,0,1.37-2.09,1.69,1.69,0,0,0-.1-1.08c-.18-.25-.7-.18-1-.16a23.56,23.56,0,0,1-3.66-.09c-1.19-.12-2.35-.38-3.52-.59a5.39,5.39,0,0,0-1.6-.1,4,4,0,0,0-1.49.6l-.93.6a6.57,6.57,0,0,0-.85,1.7,7.29,7.29,0,0,0-.3,2.34,13.88,13.88,0,0,0,2,.12C104.28,203.45,105.63,203.41,107,203.39Z"/><path class="cls-4" d="M119.18,196.26a4.44,4.44,0,0,1-1.6.57,9.18,9.18,0,0,1-2.65.5l-.56,0c-.39.05-.79.08-1.18.11a29.29,29.29,0,0,1-4.19-.07c-2.23-.18-3.28-.83-3.77-1.42l-.12-.16a19.35,19.35,0,0,0-3.07,3.48l.93-.6a4,4,0,0,1,1.49-.6,5.39,5.39,0,0,1,1.6.1c1.17.21,2.33.47,3.52.59a23.56,23.56,0,0,0,3.66.09c.32,0,.84-.09,1,.16a1.69,1.69,0,0,1,.1,1.08A3.53,3.53,0,0,1,113,202.2c-1.67,1.27-4,1.16-6,1.19-1.35,0-2.7.06-4,.06a13.88,13.88,0,0,1-2-.12c0,.07,0,.14,0,.21s6,2,15.46.09c.81-.16,1.12-.83,1.51-1.46a23.45,23.45,0,0,0,1.14-2.09,11.74,11.74,0,0,0,.87-2.43,7,7,0,0,0-.06-2.19A2.16,2.16,0,0,1,119.18,196.26Z"/><path class="cls-3" d="M70.6,199.64c1.72,0,3.75.08,5.2-1.2A3.54,3.54,0,0,0,77,196.36a1.82,1.82,0,0,0-.08-1.08c-.16-.25-.61-.18-.89-.17a18.54,18.54,0,0,1-3.16-.08c-1-.13-2-.39-3.06-.6a4,4,0,0,0-1.38-.09,3.11,3.11,0,0,0-1.29.6l-.81.6a7.25,7.25,0,0,0-.73,1.69,8.5,8.5,0,0,0-.26,2.34,9.46,9.46,0,0,0,1.77.12C68.26,199.69,69.43,199.66,70.6,199.64Z"/><path class="cls-4" d="M76.34,194.26a6.71,6.71,0,0,1-1.1.08c-1,0-2,0-3-.06a7.19,7.19,0,0,1-2.66-.33,1.21,1.21,0,0,1-.45-1.86l-.06-.1a16.78,16.78,0,0,0-2.75,3.55l.81-.6a3.11,3.11,0,0,1,1.29-.6,4,4,0,0,1,1.38.09c1,.21,2,.47,3.06.6a18.54,18.54,0,0,0,3.16.08c.28,0,.73-.08.89.17a1.82,1.82,0,0,1,.08,1.08,3.54,3.54,0,0,1-1.18,2.08c-1.45,1.28-3.48,1.17-5.2,1.2-1.17,0-2.34.05-3.51.05a9.46,9.46,0,0,1-1.77-.12l0,.21c0,.1,5.17,2,13.4.09.69-.16,1-.82,1.3-1.46a20.9,20.9,0,0,0,1-2.08,13.3,13.3,0,0,0,.76-2.44,7.4,7.4,0,0,0,0-1.82A6.85,6.85,0,0,1,76.34,194.26Z"/><path class="cls-3" d="M221.21,203.39c2,0,4.34.08,6-1.19a3.53,3.53,0,0,0,1.37-2.09,1.63,1.63,0,0,0-.1-1.08c-.18-.25-.7-.18-1-.16a23.56,23.56,0,0,1-3.66-.09c-1.19-.12-2.34-.38-3.52-.59a5.37,5.37,0,0,0-1.6-.1,3.92,3.92,0,0,0-1.48.6l-.94.6a6.57,6.57,0,0,0-.85,1.7,7.09,7.09,0,0,0-.29,2.34,13.75,13.75,0,0,0,2,.12C218.51,203.45,219.86,203.41,221.21,203.39Z"/><path class="cls-4" d="M233.41,196.26a4.44,4.44,0,0,1-1.6.57,9.18,9.18,0,0,1-2.65.5l-.56,0c-.39.05-.79.08-1.18.11a29.29,29.29,0,0,1-4.19-.07c-2.43-.2-3.45-.95-3.89-1.58a19.35,19.35,0,0,0-3.07,3.48l.94-.6a3.92,3.92,0,0,1,1.48-.6,5.37,5.37,0,0,1,1.6.1c1.18.21,2.33.47,3.52.59a23.56,23.56,0,0,0,3.66.09c.32,0,.84-.09,1,.16a1.63,1.63,0,0,1,.1,1.08,3.53,3.53,0,0,1-1.37,2.09c-1.67,1.27-4,1.16-6,1.19-1.35,0-2.7.06-4.05.06a13.75,13.75,0,0,1-2-.12,1.52,1.52,0,0,0,0,.21c0,.09,6,2,15.47.09.8-.16,1.12-.83,1.5-1.46a23.45,23.45,0,0,0,1.14-2.09,11.74,11.74,0,0,0,.87-2.43,7,7,0,0,0-.06-2.19A2.07,2.07,0,0,1,233.41,196.26Z"/><path class="cls-5" d="M17.5,8.54c.17.37.34.75.54,1.11a11.92,11.92,0,0,0,1.42,2.1c.58.67,1.26,1.25,1.82,1.95a7.53,7.53,0,0,1,1.08,1.89c.72-.36,1.45-.7,2.18-1l.51-.23a31.7,31.7,0,0,0-3.12-1.66c-2-.86-2.95-3.1-3.4-3.78a2.27,2.27,0,0,0-1.89-1.13A2.32,2.32,0,0,1,17.5,8.54Z"/><path class="cls-6" d="M22.36,15.59a7.53,7.53,0,0,0-1.08-1.89c-.56-.7-1.24-1.28-1.82-1.95A11.92,11.92,0,0,1,18,9.65c-.2-.36-.37-.74-.54-1.11a2.32,2.32,0,0,0-.86-.78s-.07,0-.07,0a6.47,6.47,0,0,0,.31,3.29c.31,1,.69,1.88,1.09,2.8s.82,1.8,1.28,2.67l.33.63a17.26,17.26,0,0,1,2.2-1.28Z"/><path class="cls-7" d="M21.84,16.82a17.42,17.42,0,0,0-2,.81l.3.52.47-.39C21,17.44,21.42,17.12,21.84,16.82Z"/><path class="cls-8" d="M30.5,18.6l.06,0,.15,0,.05,0,.2.06c0-.42,0-.85,0-1.28a4,4,0,0,1-.58,1.12Z"/><path class="cls-9" d="M32.23,19a1.25,1.25,0,0,1,0,.22.17.17,0,0,0,0-.14Z"/><path class="cls-10" d="M27.68,33l0,0h0Z"/><path class="cls-11" d="M24,36.67l.26.06.27.05.14,0,.41,0h.68a2.83,2.83,0,0,0,.41,0l.22,0A3,3,0,0,0,27,36.6l.18-.08a2.46,2.46,0,0,0,.42-.23l.28-.2L28,36a7.54,7.54,0,0,0,1.61-2.11l.13-.22c0-.08.09-.15.13-.22a1.59,1.59,0,0,1,.13-.22l.06-.11.14-.22.14-.21c.07-.11.15-.21.23-.32l.08-.11s0-.08-.14-.17-.27-.23-.48-.39l-.15-.1-.32-.24-.18-.12-.09-.07-.18-.13-.39-.26-.29-.2-.4-.26-.19-.13-.19-.13L27.5,30l-.18-.12L27,29.67l-.23-.15-.15-.09-.13-.08-.12-.07-.1-.05-.13-.07L26,29.09c-.3-.14-.6-.26-.87-.36a8.2,8.2,0,0,0-1-.31,3.14,3.14,0,0,0-.75-.09l-.29,0a1.87,1.87,0,0,0-.46.09,1.77,1.77,0,0,0-.45.18L22,28.7a3.2,3.2,0,0,0-.51.4c-.11.11-.22.24-.32.36a3.9,3.9,0,0,0-.6,1.31c0,.11-.06.23-.08.34a4.85,4.85,0,0,0-.08.53c0,.11,0,.23,0,.34s0,.11,0,.17c0,.29,0,.58,0,.86a2.89,2.89,0,0,1,0,.29.39.39,0,0,1,0,.14,1.17,1.17,0,0,1-.2.44l-.05,0L20,34a.19.19,0,0,0,0,.26l.38.35a8.94,8.94,0,0,0,3.11,1.88ZM22.28,35l-.52-.36c-.17-.11-.41-.21-.46-.43a.7.7,0,0,1,0-.35l0-.2s0-.06,0-.09a2.93,2.93,0,0,0,.05-.29,7,7,0,0,1,.12-2.23c.26-.58.81-2,3.09-1.43a11.4,11.4,0,0,1,4.47,2.86l.12.05c.05,0-.16.19-.37.37h0A21.15,21.15,0,0,0,27.68,35a2.92,2.92,0,0,1-2.55,1.27,6.59,6.59,0,0,1-2.69-1.19Z"/><path class="cls-12" d="M13.21,68.68c.12-.33.18-.68.28-1a4,4,0,0,1,.93-1.73,7.36,7.36,0,0,0,1.15-1.28,1.21,1.21,0,0,0,.19-.9l0,0h0V63.6l0,0h0v0l0,0v0h0v0l0,0h0l0,0h0l0,0h0l0,0h0a.52.52,0,0,0-.16-.06H15.2c-.63-.11-1,.44-1.34.9l-.07.11-.09.17c-.08.14-.17.31-.26.5a14.6,14.6,0,0,0-.75,2.32,2.94,2.94,0,0,1-.53,1.1,5.68,5.68,0,0,1-.75.8,6.48,6.48,0,0,1-6.25,1,6.56,6.56,0,0,1-1.65-1.09A3.5,3.5,0,0,1,3,68.56a6,6,0,0,0,.94,1.13,5.92,5.92,0,0,0,3.37,1.44h0l.17,0a6.84,6.84,0,0,0,4.89-1.08q.21-.27.39-.54A4.61,4.61,0,0,0,13.21,68.68Z"/><path class="cls-13" d="M17.8,64.56c0-.21,0-.42.05-.63a3.46,3.46,0,0,0-.37-1.62,2.34,2.34,0,0,0-1.1-1.05,3.27,3.27,0,0,0-1.63-.3,6.45,6.45,0,0,0-1.79.4,3.16,3.16,0,0,0-1.4,1c-.73.89-1.2,2-1.93,2.85a3.58,3.58,0,0,1-2.4,1.46l.1-.22c.09-.21.17-.43.24-.65l.06-.22c0-.12.06-.24.08-.36a7.66,7.66,0,0,0,.16-1.66,8.77,8.77,0,0,0,0-1.15,6.09,6.09,0,0,0-1.39-3.66c-.79-.87-2.28-1.68-3.33-.77a2.37,2.37,0,0,0-.57.76,3.24,3.24,0,0,0-.29.75,5.76,5.76,0,0,0-.16,1.37,5.63,5.63,0,0,0,.09,1,7.61,7.61,0,0,0,.35,1.24,6.69,6.69,0,0,1-1.15-2.92,4.17,4.17,0,0,0-.1-.79A.55.55,0,0,0,.69,59h0a11.13,11.13,0,0,0,.06,2.94c.05.33.1.65.17,1a26,26,0,0,0,1,3.34l.27.27a1.76,1.76,0,0,0,.94.54.9.9,0,0,0,.79-.26,1,1,0,0,0,.17-.59A3.75,3.75,0,0,0,4,65.55c-.14-.7-.45-1.36-.65-2a11.14,11.14,0,0,1-.44-2.14,2.82,2.82,0,0,1,.39-2,1.71,1.71,0,0,1,1.81-.68c.75.23,1.1,1.07,1.31,1.77a7.24,7.24,0,0,1,.26,2.13v0a6.22,6.22,0,0,1,0,1.43C6.52,65.52,6.31,67,5,68a2.43,2.43,0,0,0-.25.2,4.35,4.35,0,0,0,3.46.74,4.26,4.26,0,0,0,1.7-.78,4.62,4.62,0,0,0,1.23-1.48c.66-1.24.92-2.67,1.83-3.79a3.13,3.13,0,0,1,1.62-1.09,2.23,2.23,0,0,1,1.86.28,2.55,2.55,0,0,1,1,1.59,2.73,2.73,0,0,1,.06.49,2.43,2.43,0,0,1,0,.6,9.14,9.14,0,0,1-.27,1.15c0,.08,0,.17-.08.26l.55-.57c0-.17.07-.34.1-.52A4.34,4.34,0,0,0,17.8,64.56Z"/><path class="cls-14" d="M17.42,64.76a2.43,2.43,0,0,0,0-.6,2.73,2.73,0,0,0-.06-.49,2.55,2.55,0,0,0-1-1.59,2.23,2.23,0,0,0-1.86-.28A3.13,3.13,0,0,0,13,62.89c-.91,1.12-1.17,2.55-1.83,3.79a4.62,4.62,0,0,1-1.23,1.48,4.26,4.26,0,0,1-1.7.78,4.35,4.35,0,0,1-3.46-.74A2.43,2.43,0,0,1,5,68c1.31-1,1.52-2.48,1.66-3.91a6.22,6.22,0,0,0,0-1.43v0a7.24,7.24,0,0,0-.26-2.13c-.21-.7-.56-1.54-1.31-1.77a1.71,1.71,0,0,0-1.81.68,2.82,2.82,0,0,0-.39,2,11.14,11.14,0,0,0,.44,2.14c.2.68.51,1.34.65,2a3.75,3.75,0,0,1,.09.61,1,1,0,0,1-.17.59.9.9,0,0,1-.79.26,1.76,1.76,0,0,1-.94-.54l-.27-.27,0,0a11.73,11.73,0,0,0,.85,2l.23.37a3.5,3.5,0,0,0,.53.49,6.56,6.56,0,0,0,1.65,1.09,6.48,6.48,0,0,0,6.25-1,5.68,5.68,0,0,0,.75-.8,2.94,2.94,0,0,0,.53-1.1A14.6,14.6,0,0,1,13.44,65c.09-.19.18-.36.26-.5l.09-.17.07-.11c.29-.46.71-1,1.34-.9h.08a1.11,1.11,0,0,1,.79.29,1.25,1.25,0,0,1,.41.76,1.5,1.5,0,0,1-.22,1,2.74,2.74,0,0,1-.73.71,5.53,5.53,0,0,0-.88.72,3.4,3.4,0,0,0-.62,1A5.59,5.59,0,0,0,13.75,69c-.05.28-.09.58-.17.87l.07,0a5.14,5.14,0,0,0,1.12-.51,5,5,0,0,0,.46-.34,4.79,4.79,0,0,0,1.09-1.76l.2-.47h0l.55-.57c0-.09.06-.18.08-.26A9.14,9.14,0,0,0,17.42,64.76ZM4.6,67.14a2.85,2.85,0,0,0,.1-1A6.79,6.79,0,0,0,4.48,65c-.09-.36-.21-.72-.31-1.09S4,63.21,3.9,62.83s-.21-.67-.27-1a6.38,6.38,0,0,1-.09-1,1.24,1.24,0,0,1,.19-.8,1.09,1.09,0,0,1,.53-.39,1.07,1.07,0,0,1,1.23.49,3.3,3.3,0,0,1,.42,1.74,8.46,8.46,0,0,1-.41,3.84,5.06,5.06,0,0,1-.83,1.35Z"/><path class="cls-15" d="M14,67.76a3.4,3.4,0,0,1,.62-1,5.53,5.53,0,0,1,.88-.72,2.74,2.74,0,0,0,.73-.71,1.5,1.5,0,0,0,.22-1,1.25,1.25,0,0,0-.41-.76,1.11,1.11,0,0,0-.79-.29h0a.52.52,0,0,1,.16.06h0l0,0h0l0,0h0l0,0h0l0,0v0h0v0l0,0v0h0l0,0v.09h0l0,0a1.21,1.21,0,0,1-.19.9,7.36,7.36,0,0,1-1.15,1.28,4,4,0,0,0-.93,1.73c-.1.34-.16.69-.28,1a4.61,4.61,0,0,1-.43.86q-.18.27-.39.54l.27,0a7.18,7.18,0,0,0,.92-.2c.08-.29.12-.59.17-.87A5.59,5.59,0,0,1,14,67.76Z"/><path class="cls-16" d="M5.91,61.88a3.3,3.3,0,0,0-.42-1.74,1.07,1.07,0,0,0-1.23-.49,1.09,1.09,0,0,0-.53.39,1.24,1.24,0,0,0-.19.8,6.38,6.38,0,0,0,.09,1c.06.34.19.67.27,1s.17.75.27,1.12.22.73.31,1.09a6.79,6.79,0,0,1,.22,1.09,2.85,2.85,0,0,1-.1,1l.07-.07a5.06,5.06,0,0,0,.83-1.35A8.46,8.46,0,0,0,5.91,61.88Z"/><path class="cls-11" d="M26,48a1.67,1.67,0,0,0-.08-.2,1.82,1.82,0,0,0-.29-.45l-.13-.13a1.24,1.24,0,0,0-.23-.17,1.42,1.42,0,0,0-.25-.12l-.18-.07-.18,0-.28,0h-.1a3,3,0,0,0-1.11.21,4.88,4.88,0,0,0-.66.29l-.39.2a6.27,6.27,0,0,0-.86.65l-.14.11-1.23,1-.1.09-.52.44-.21.18-.33.28-.23.19-.81.7-.23.2-.36.31-.24.2-.47.41-.12.1-1.15,1-.33.29-1,.91-.09.09c-1.12,1-1.9,1.69-2,1.79l0,0,0,0v0h0l0,0-.14.19-.22.28-.42.55s0,0,0,.08a.41.41,0,0,0,0,.31.56.56,0,0,0,0,.08l0,0,0,0a.24.24,0,0,0,.11.06l.06,0h.06a.25.25,0,0,0,.12,0l.58-.18.08,0c.23-.07.45-.13.68-.18l.35-.08.34-.08.37-.06.18,0h.07l.18,0,.52,0h.94l.16,0,.16,0a4.21,4.21,0,0,1,.48.12l.16.06.08,0,.07,0,.1,0,0,0a1.12,1.12,0,0,1,.24.13l.17.11.13.07.38.16c.18.07.37.13.55.18l.08,0,.34.09h.06l.11,0,.08,0h.19l.15,0h0l.09,0,.1,0,.25-.08.19-.09.28-.16a4.56,4.56,0,0,0,.73-.6l.14-.15.18-.2a.39.39,0,0,0,.08-.1l.12-.13.33-.41.24-.3c.57-.71,1.12-1.44,1.65-2.18L23.8,54c.07-.1.13-.19.21-.29l.2-.3.21-.29.21-.3.1-.15.19-.3c.13-.21.25-.41.36-.62s.18-.34.26-.51a7.83,7.83,0,0,0,.4-1l.09-.37,0-.18a4.76,4.76,0,0,0,.07-.75,3.08,3.08,0,0,0-.08-.75Z"/><path class="cls-11" d="M37.53,31.4a3.48,3.48,0,0,0-3.4-.46,3.47,3.47,0,0,0-.25.29l-.06.09-.07.11h0l-.07.11h0l-.06.1v0l-.06.1v0a.47.47,0,0,1,0,.1v0a1,1,0,0,1,0,.1l0,0a.42.42,0,0,1,0,.1v0a1,1,0,0,0,0,.1v0a.36.36,0,0,1,0,.09v0l0,.09,0,0a.24.24,0,0,1,0,.08l0,.05s0,.06,0,.08l0,.06,0,.08,0,.06v.07a.31.31,0,0,0,0,.08l0,0,0,.14c-.05.25-.09.51-.12.76l0,.31,0,.3c0,.36,0,.72,0,1.09,0,.58,0,1.16-.06,1.75,0,.19,0,.38-.05.58s-.06.51-.1.77a5.59,5.59,0,0,1-.12.56,4.94,4.94,0,0,1-.15.55c-.08.25-.17.48-.27.72s-.16.34-.26.51a4.8,4.8,0,0,1-.3.48,5.64,5.64,0,0,1-2.22,1.86,20.39,20.39,0,0,1-2.68,1l-.63.2a.88.88,0,0,0-.3.13l-.05.06v0a.29.29,0,0,0,0,.09.59.59,0,0,0,0,.13.79.79,0,0,0,.13.26,1.61,1.61,0,0,0,.48.34l.15.07.15.07a2,2,0,0,0,.31.12h0c.23.06.46.1.7.14l.23,0,.3,0a8.65,8.65,0,0,0,.88.05h.48l.47,0,.71-.08.51-.09.17,0c.3-.07.6-.15.89-.24a9.9,9.9,0,0,0,1.08-.39l.22-.09.42-.2.2-.1a12.18,12.18,0,0,0,2.16-1.38l.36-.29.52-.47.16-.16.31-.32.45-.5.28-.34h0l.21-.28,0-.06c.07-.1.14-.19.2-.29h0a8.12,8.12,0,0,0,.69-1.13,5.56,5.56,0,0,0,.62-2.36,8,8,0,0,0-.36-2.38A6.75,6.75,0,0,0,37.53,31.4Z"/><path class="cls-17" d="M19.91,29.85a3,3,0,0,1,.13-.52,1.9,1.9,0,0,1,.39-.69l.06-.07a2.83,2.83,0,0,1,.25-.24A3.39,3.39,0,0,1,22,27.72l.34-.08.18,0,.52,0h.52a4,4,0,0,1,.5.06l.51.08.33.08.33.08.65.2a20,20,0,0,1,2.84,1.18l.3.16.61.33.88.54.28.19.29.2a11.93,11.93,0,0,0-2-3L29,27.53l-.36-.4-.18-.2-.1-.09-.2-.19a4.55,4.55,0,0,0-.65-.48L27,25.92l-.33-.15a5.59,5.59,0,0,0-1.05-.34,7.09,7.09,0,0,0-1.52-.18h-.47a7.57,7.57,0,0,0-1.42.19l-.51.14-.12.05-.32.14-.21.11L20.9,26c-.12.1-.24.2-.35.31a2.71,2.71,0,0,0-.36.46l-.06.09a3.85,3.85,0,0,0-.5,1.59,5.42,5.42,0,0,0,0,.57,1.64,1.64,0,0,0,0,.23s0,.08,0,.12a1.7,1.7,0,0,0,0,.22.36.36,0,0,0,0,.11c0,.19.08.38.13.57h0C19.86,30.14,19.89,30,19.91,29.85Z"/><path class="cls-17" d="M26.74,38.76l.39-.08a7.58,7.58,0,0,0,1-.28l.17-.08a1.35,1.35,0,0,0,.26-.15h0a2.8,2.8,0,0,0,.42-.22l.14-.09.15-.1.16-.13.16-.13a2.61,2.61,0,0,0,.23-.24,3.16,3.16,0,0,0,.41-.58,3.41,3.41,0,0,0,.18-.48,9.68,9.68,0,0,0,.21-1.13l0-.36a1.64,1.64,0,0,0,0-.22c0-.14,0-.28,0-.4s0-.23,0-.32v-.13c0-.16,0-.25,0-.25s0,.13-.13.34l0,.05a.61.61,0,0,1-.05.12l-.21.49s0,.11-.08.16c-.1.21-.21.44-.34.67s-.28.47-.43.69l-.23.33a3.6,3.6,0,0,1-.48.47l-.17.13a4.77,4.77,0,0,1-.91.49l-.28.11a6.39,6.39,0,0,1-1.62.31,4.85,4.85,0,0,1-.67,0h-.17l-.17,0a6.29,6.29,0,0,1-1.76-.48l-.15-.07-.3-.14L22.33,37l-.15-.08-.51-.32-.17-.12c-.17-.11-.33-.24-.49-.36L20.86,36a8.77,8.77,0,0,0,1.23,1.35l.16.15a8.34,8.34,0,0,0,.65.53,4.93,4.93,0,0,0,.54.34l.18.08.18.08.37.14a5.45,5.45,0,0,0,.58.14l.19,0a5.23,5.23,0,0,0,.79,0h.41C26.34,38.82,26.54,38.79,26.74,38.76Z"/><path class="cls-11" d="M3.6,56a1.91,1.91,0,0,0,.63,0,3.07,3.07,0,0,0,2.08-1.46A12.22,12.22,0,0,0,7,53.34c.2-.38.41-.76.62-1.14a37.32,37.32,0,0,1,2.8-4.34,23.91,23.91,0,0,1,3.48-3.77,20.34,20.34,0,0,1,2-1.53A18.1,18.1,0,0,0,18.09,41a3.94,3.94,0,0,0,.47-.44,1.56,1.56,0,0,0,.4-.55.47.47,0,0,0,0-.31,1.86,1.86,0,0,0-.65-1.63c-.48-.47-1.13-.7-1.65-1.13a1.91,1.91,0,0,1-.56-.73,2,2,0,0,1-.15-.81c0-1.25.64-2.53.19-3.77a.22.22,0,0,0-.31-.13,3.49,3.49,0,0,0-.35.32,3.94,3.94,0,0,0-.64,1.72c-.2.74-.4,1.49-.63,2.22-.48,1.52-1.05,3-1.67,4.48s-1.42,2.88-2.15,4.28-1.51,2.81-2.29,4.2c-.39.71-.8,1.42-1.19,2.14l-.39.72-.4.56c-.84,1.18-1.7,2.34-2.6,3.47C3.45,55.75,3.46,55.92,3.6,56Z"/><path class="cls-18" d="M22.21,30.74a2.22,2.22,0,0,1,1.49-.44,5.32,5.32,0,0,1,1.61.42,17.94,17.94,0,0,1,1.77.74c.51.25,1,.53,1.51.82l.51.2a11.4,11.4,0,0,0-4.47-2.86c-2.28-.56-2.83.85-3.09,1.43a7,7,0,0,0-.12,2.23c0-.42,0-.84.09-1.26A1.93,1.93,0,0,1,22.21,30.74Z"/><path class="cls-18" d="M27.68,35a21.15,21.15,0,0,1,1.17-2.12h0a4,4,0,0,0-.4.36c-.21.22-.39.47-.58.71a5.14,5.14,0,0,1-1.41,1.34,3.51,3.51,0,0,1-2.09.39,5.14,5.14,0,0,1-1.11-.18,3.53,3.53,0,0,1-.82-.42,6.59,6.59,0,0,0,2.69,1.19A2.92,2.92,0,0,0,27.68,35Z"/><path class="cls-19" d="M27,33.73a5.92,5.92,0,0,1,.69-.73l0,0h0a.94.94,0,0,1,.18-.12l.1-.06-.36-.1-.19-.06a7.71,7.71,0,0,1-.8-.3l-.14-.06a1.83,1.83,0,0,1,.15.73,1.94,1.94,0,0,1-1.46,1.78,2.23,2.23,0,0,1-.72.13c-.23,0-1-.08-1.14-.28h0a1.84,1.84,0,0,1-.9-1.27.76.76,0,0,1,0,.15,1.06,1.06,0,0,1-.16.52h0a.82.82,0,0,1,.32.21c.19.12.36.27.53.38a2.47,2.47,0,0,0,1.37.41A3.32,3.32,0,0,0,27,33.73Z"/><path class="cls-17" d="M24.37,35.7a3.51,3.51,0,0,0,2.09-.39A5.14,5.14,0,0,0,27.87,34c.19-.24.37-.49.58-.71a4,4,0,0,1,.4-.36c.21-.18.42-.36.37-.37l-.12-.05-.51-.2c-.49-.29-1-.57-1.51-.82a17.94,17.94,0,0,0-1.77-.74,5.32,5.32,0,0,0-1.61-.42,2.22,2.22,0,0,0-1.49.44,1.93,1.93,0,0,0-.7,1.28c-.06.42-.05.84-.09,1.26a2.93,2.93,0,0,1-.05.29s0,.06,0,.09l0,.2a.7.7,0,0,0,0,.35c.05.22.29.32.46.43l.52.36.16.1a3.53,3.53,0,0,0,.82.42A5.14,5.14,0,0,0,24.37,35.7Zm-1.8-1c-.21-.17-.74-.41-.75-.44a.19.19,0,0,1-.07-.14.17.17,0,0,1,.12-.16c.25-.1.18-.52.17-.73a2.29,2.29,0,0,1,.1-.78,1.91,1.91,0,0,1,1-1.19,2.7,2.7,0,0,1,1.84,0,5.75,5.75,0,0,1,.66.23l.07,0,.07,0,.11.05c.24.11.47.23.7.35l.86.46.14.07.83.3a8.34,8.34,0,0,0-.72.73l-.39.48c-.16.19-.31.39-.48.56a3.3,3.3,0,0,1-.6.46,3.05,3.05,0,0,1-2.94.22A4.57,4.57,0,0,1,22.57,34.68Z"/><path class="cls-20" d="M24.22,34.85a1.75,1.75,0,0,1-.88-.23h0c.16.2.91.25,1.14.28a2.23,2.23,0,0,0,.72-.13A1.94,1.94,0,0,0,26.66,33a1.83,1.83,0,0,0-.15-.73l-.86-.36A1.86,1.86,0,0,1,26,33,1.81,1.81,0,0,1,24.22,34.85Z"/><path class="cls-21" d="M23.34,34.62a1.75,1.75,0,0,0,.88.23A1.81,1.81,0,0,0,26,33a1.86,1.86,0,0,0-.39-1.13l-.59-.2a4,4,0,0,0-.77-.14,1.86,1.86,0,0,0-.91.09A1.72,1.72,0,0,0,22.45,33c0,.11,0,.22,0,.33A1.84,1.84,0,0,0,23.34,34.62ZM24,32a1,1,0,0,1,.45.11.59.59,0,0,1,.23,0,.71.71,0,0,1,.71.71.7.7,0,0,1-.44.65,1,1,0,0,1-.95.64A1,1,0,1,1,24,32Z"/><path class="cls-22" d="M24,34.06a1,1,0,0,0,.95-.64.6.6,0,0,1-.27.06.71.71,0,0,1-.71-.71.7.7,0,0,1,.48-.67A1,1,0,0,0,24,32a1,1,0,1,0,0,2.07Z"/><path class="cls-23" d="M23.92,32.77a.71.71,0,0,0,.71.71.6.6,0,0,0,.27-.06.7.7,0,0,0,.44-.65.71.71,0,0,0-.71-.71.59.59,0,0,0-.23,0A.7.7,0,0,0,23.92,32.77Z"/><path class="cls-22" d="M26.19,34.93a3.3,3.3,0,0,0,.6-.46c.17-.17.32-.37.48-.56l.39-.48h0l0,0s.5-.77.47-.77l-.55-.3h0l-.14-.07-.86-.46c-.23-.12-.46-.24-.7-.35l-.11-.05-.07,0-.07,0a5.75,5.75,0,0,0-.66-.23,2.7,2.7,0,0,0-1.84,0,1.91,1.91,0,0,0-1,1.19,2.29,2.29,0,0,0-.1.78c0,.21.08.63-.17.73a.17.17,0,0,0-.12.16.19.19,0,0,0,.07.14s.54.27.75.44a4.57,4.57,0,0,0,.68.47A3.05,3.05,0,0,0,26.19,34.93Zm-3-.32c-.17-.11-.34-.26-.53-.38A.82.82,0,0,0,22.3,34h0a1.06,1.06,0,0,0,.16-.52.76.76,0,0,0,0-.15c0-.11,0-.22,0-.33a1.72,1.72,0,0,1,.93-1.37,1.86,1.86,0,0,1,.91-.09,4,4,0,0,1,.77.14l.59.2.86.36.14.06a7.71,7.71,0,0,0,.8.3l.19.06.36.1-.1.06a.94.94,0,0,0-.18.12l0,0a5.92,5.92,0,0,0-.69.73A3.32,3.32,0,0,1,24.52,35,2.47,2.47,0,0,1,23.15,34.61Z"/><path class="cls-22" d="M28.1,32.7s-.47.77-.47.77l0,0h0a8.34,8.34,0,0,1,.72-.73l-.83-.3h0Z"/><path class="cls-11" d="M95.69,139a47.42,47.42,0,0,0-3.27-6.91A46,46,0,0,0,88,125.92c-3.23-3.85-6.9-7.29-10.27-11a42.51,42.51,0,0,1-8.18-12c-1.79-4.33-2.51-9.31-1.12-13.85.14-.23.3-.45.46-.67a18.18,18.18,0,0,0,1.16-1.57,2.41,2.41,0,0,0-.49-3.14c-.87-.8-2-1.33-2.88-2.08-4-3.31-6.47-8.19-8.77-12.78a157.32,157.32,0,0,1-7.21-16.6,73.4,73.4,0,0,1-2.3-8.07,23,23,0,0,0-2.57-7.08,2.13,2.13,0,0,0-.16-.25h0c-.08-.23-.17-.46-.26-.69l0,0a2.33,2.33,0,0,0-.11-.28l0-.07a2.92,2.92,0,0,0-.14-.31A11.06,11.06,0,0,0,43,32.42l-.39-.37A12.4,12.4,0,0,1,39.87,43.6l-.24.26,0,0-.23.24,0,0-.5.47-.05,0-.25.22,0,0-.24.2,0,0-.26.2-.06,0-.27.19a13,13,0,0,1-1.78,1l-.46.21c-.36.15-.71.29-1.07.42l-.37.13-.25.08-.26.09-.51.15-1,.3-.73.19-.24.06-.49.13-.48.14-.21.07-.11,0-.22.08a5.17,5.17,0,0,0-.74.38l-.22.16-.13.1-.25.25a3.92,3.92,0,0,0-.56.89l-.09.22-.09.22c-.08.23-.15.46-.23.69l-.07.23c-.05.15-.1.31-.16.46s-.11.3-.17.45a11.34,11.34,0,0,1-.84,1.67,14.31,14.31,0,0,1-1.21,1.68l-.38.45-.2.22c-.4.44-.81.86-1.24,1.27h0l-1.61,1.54-.32.29-.13.13-.27.23-.09.08-.27.15a3.76,3.76,0,0,1-.54.25l-.27.09-.14,0a2.5,2.5,0,0,1-.54.07,1.74,1.74,0,0,1-.39,0l-.11-.11h0l-.06-.06h0l-.05-.06h0l-.05,0h0l-.05,0h0l-.05,0h0l0,0h0l-.05,0h0l-.05,0h0l0,0,0,0h0l-.05,0,0,0h0l0,0,0,0,0,0,0,0,0,0-.07,0-.16-.09a5.14,5.14,0,0,0-.84-.35,2.37,2.37,0,0,0-.36-.09,5.41,5.41,0,0,0-1.45-.14l-.37,0-.56.08-.18,0L13,59.6a8.56,8.56,0,0,0-1.09.44l-.37.14-.15,0-.07,0-.08,0-.43-.09-.16,0-.31-.09-.16,0a2,2,0,0,1-.6-.31,1.59,1.59,0,0,1-.13-.22l-.27-.32C9.1,59,9,58.84,9,58.69a4.72,4.72,0,0,0-.7-1,4.61,4.61,0,0,0-2-1.23,4.69,4.69,0,0,0-2.6,0,5.38,5.38,0,0,0-1.19.56l-.56.34-.28.15c-.09,0-.16.09-.25.14h0A1.08,1.08,0,0,1,1,57.58,8.1,8.1,0,0,0,.69,59h0a.55.55,0,0,1,.58.43,4.17,4.17,0,0,1,.1.79,6.69,6.69,0,0,0,1.15,2.92,7.61,7.61,0,0,1-.35-1.24,5.63,5.63,0,0,1-.09-1,5.76,5.76,0,0,1,.16-1.37,3.24,3.24,0,0,1,.29-.75A2.37,2.37,0,0,1,3.1,58c1.05-.91,2.54-.1,3.33.77A6.09,6.09,0,0,1,7.82,62.4a8.77,8.77,0,0,1,0,1.15,7.66,7.66,0,0,1-.16,1.66c0,.12,0,.24-.08.36l-.06.22c-.07.22-.15.44-.24.65l-.1.22a3.58,3.58,0,0,0,2.4-1.46c.73-.89,1.2-2,1.93-2.85a3.16,3.16,0,0,1,1.4-1,6.45,6.45,0,0,1,1.79-.4,3.27,3.27,0,0,1,1.63.3,2.34,2.34,0,0,1,1.1,1.05,3.46,3.46,0,0,1,.37,1.62c0,.21,0,.42-.05.63a4.34,4.34,0,0,1-.08.52c0,.18-.06.35-.1.52l.18-.18h0c.5-.45,1-.91,1.51-1.35.33-.29.66-.57,1-.84A51.37,51.37,0,0,1,26,59.36c1.91-1.13,3.88-2.15,5.8-3.26l1.21-.28a12.25,12.25,0,0,0,1.78-.56,10.08,10.08,0,0,0,2.87-2c.69-.65,1.36-1.33,2-2.05a6,6,0,0,1,4.06-.46c.32.07.87.69,1.51,1.58.31.43.64.93,1,1.45a71.45,71.45,0,0,1,3.38,8.56c1,2.94,1.94,5.89,3.11,8.76a50.11,50.11,0,0,0,4.63,8.71c1.94,2.93,4,5.81,6,8.7A28.52,28.52,0,0,0,65.08,102a43.72,43.72,0,0,0,8.11,13.33q1.61,1.86,3.35,3.6c.67.67,1.36,1.33,2,2,1.94,1.8,4,3.47,6,5.18a27.86,27.86,0,0,1,5.27,5.84c.62.93,1.19,1.88,1.73,2.85.71,1.28,1.37,2.59,2,3.9,1.27,2.59,2.52,5.19,3.77,7.79.49,1,1,2,1.48,3-.23-1.07-.53-2.13-.81-3.17A72.9,72.9,0,0,0,95.69,139Z"/><path class="cls-5" d="M220.85,64.88l-.22-.38a27.89,27.89,0,0,1,1.28,4.7c.54,3-1.09,16.22-1.43,18.58q-1.35,9.56-3,19.06a67.72,67.72,0,0,0-1,16.75c.37,4.57,1.25,9.5,3.93,13.34,1.33,1.89,3.19,3.24,4.78,4.89a8.26,8.26,0,0,1,1.91,2.93,21.12,21.12,0,0,1,.78,4.41c.8,6.37,1.71,12.73,2.29,19.12.28,3.17.64,6.35.84,9.52a30.53,30.53,0,0,1-.4,8.32,40.61,40.61,0,0,0-1.09,3.92c-.11,1,.15,2.19-.36,3.07-1.19,2.07-4.5,1.91-6.49,1.57a19.87,19.87,0,0,1-3.12-.81,1.29,1.29,0,0,0-.53,1.06,1.89,1.89,0,0,0,.16.6,2.79,2.79,0,0,0,.16.28c.44.63,1.46,1.38,3.89,1.58a29.29,29.29,0,0,0,4.19.07c.39,0,.79-.06,1.18-.11a26.1,26.1,0,0,0,2.9-.46l.31-.06a4.44,4.44,0,0,0,1.6-.57,2.07,2.07,0,0,0,.67-.8,2.29,2.29,0,0,0,.21-.64c.22-1.27-.42-2.45-.67-3.68a6.56,6.56,0,0,1-.12-1.18,3.5,3.5,0,0,1,3.08-3,.56.56,0,0,0,.54-.71q-2.53-9-4.25-18.3t-2.58-18.64c-.14-1.56-.26-3.12-.37-4.68a11.58,11.58,0,0,0-.69-4.26,14.24,14.24,0,0,0-2.65-3.11,15.71,15.71,0,0,1-2.35-3.26,11.35,11.35,0,0,1-1.09-4.17,27.28,27.28,0,0,0-.7-4.48c-.4-1.45-.91-2.86-1.28-4.32a21,21,0,0,1-.58-4.61c-.1-3.16.14-6.35.31-9.52.05-1.14.12-2.28.18-3.42,1.11-5.94,2.54-11.83,3.12-17.86a50.67,50.67,0,0,0,.18-7.7c-.05-.76-.11-1.52-.2-2.27A28.76,28.76,0,0,0,220.85,64.88Z"/><path class="cls-5" d="M224.8,188.13c.74-1.9.59-4.08.55-6.08a96.24,96.24,0,0,0-1.16-13.67,65.81,65.81,0,0,0-9.57-25.68c-2.21-3.62-4.61-7.12-7-10.63-1.15-1.85-2.4-3.64-3.69-5.4l-1.26-1.79a45.71,45.71,0,0,0-4.19-5.21,1.85,1.85,0,0,1-.14-.14,43.36,43.36,0,0,0-6.69-6.44,38.65,38.65,0,0,0-22.8-7.8,53.23,53.23,0,0,0-13.15,2c-4.66,1.15-9.31,2.23-14.15,2A29.92,29.92,0,0,1,129.07,106a25.51,25.51,0,0,1-8.94-7.73c-2.19-3-4-6.41-6.83-8.89a10.47,10.47,0,0,0-2.18-1.48.14.14,0,0,0-.14.24l0,0a.11.11,0,0,0-.06.16s0,0,0,0l.07.16a12.56,12.56,0,0,1,1.14,1.17A20.84,20.84,0,0,1,116,96.56a38.83,38.83,0,0,1,1.5,7.55,18.86,18.86,0,0,0,1,4.07,10.66,10.66,0,0,0,1.1,1.87,16.2,16.2,0,0,0,2.33,2.28,28,28,0,0,0,5.59,3.15,40.91,40.91,0,0,0,9.68,2.56c1.42.18,2.85.3,4.29.38a90.81,90.81,0,0,0,16.31-.73,37.3,37.3,0,0,0,4.31-.85l.08,0c2.18-.83,4.3-1.84,6.49-2.66a19.19,19.19,0,0,1,6.2-1.39h.6a17.57,17.57,0,0,1,6.93,2,65.65,65.65,0,0,1,7.09,3.86,112.45,112.45,0,0,1,10.16,9.73q2.43,2.69,4.65,5.55,2.74,3.56,5.14,7.37a154.81,154.81,0,0,1,8.38,16,57.9,57.9,0,0,1,3.42,8.6,76.08,76.08,0,0,1,1.85,8.83,74.35,74.35,0,0,1,1.05,8.28,17.49,17.49,0,0,1-1,7.42l-.16.2,0,0A5.4,5.4,0,0,0,224.8,188.13Z"/><path class="cls-24" d="M157.76,117.69a90.81,90.81,0,0,1-16.31.73c-1.44-.08-2.87-.2-4.29-.38a40.91,40.91,0,0,1-9.68-2.56,28,28,0,0,1-5.59-3.15,16.2,16.2,0,0,1-2.33-2.28,10.66,10.66,0,0,1-1.1-1.87,18.86,18.86,0,0,1-1-4.07,38.83,38.83,0,0,0-1.5-7.55,20.84,20.84,0,0,0-3.81-6.92A12.56,12.56,0,0,0,111,88.47l0,.11v0l.33.7v0l0,0,.06.13,0,.09,0,.12.06.13.07.16.06.12,0,.11,0,.12,0,.1.07.16,0,.07c0,.07,0,.14.07.2l0,.08.06.15,0,.09.06.16,0,.06c0,.08,0,.15.07.23l0,.05a1.21,1.21,0,0,1,0,.18l0,.08,0,.16,0,.07.06.23c.17.71.39,1.4.56,2.11s.33,1.44.44,2.18a25.46,25.46,0,0,1,.31,4.28,23.82,23.82,0,0,1-.52,4.37c-.33,1.54-.75,3.06-1.14,4.59s-.78,3.08-1.17,4.62c-.3,1.19-.61,2.37-.89,3.56,8.52,1.41,17.84,3,26.48,2.88a118.1,118.1,0,0,0,18.56-2.09,51.15,51.15,0,0,0,6.77-2l.16-.06-.08,0A37.3,37.3,0,0,1,157.76,117.69Z"/><path class="cls-9" d="M111.43,89.3l-.33-.7v0c.11.25.23.5.35.74Z"/><path class="cls-5" d="M112.24,109.93c.39-1.53.81-3.05,1.14-4.59a23.82,23.82,0,0,0,.52-4.37,25.46,25.46,0,0,0-.31-4.28c-.11-.74-.26-1.46-.44-2.18s-.39-1.4-.56-2.11l-.06-.23,0-.07,0-.16,0-.08a1.21,1.21,0,0,0,0-.18l0-.05c0-.08-.05-.15-.07-.23l0-.06-.06-.16,0-.09-.06-.15,0-.08c0-.06,0-.13-.07-.2l0-.07-.07-.16,0-.1,0-.12,0-.11-.06-.12-.07-.16-.06-.13,0-.12,0-.09-.06-.13,0,0c-.12-.24-.24-.49-.35-.74l0-.11-.07-.16s0,0,0,0c.36,2.19,1.18,3.84,1.2,6,0,4.2-.26,8.62-2.29,12.39a27.23,27.23,0,0,1-1.66,2.6,8.59,8.59,0,0,1-.92,1.15c-.18.35-.37.7-.56,1.05a31,31,0,0,1-3.54,5.06,29.46,29.46,0,0,1-2.12,2.21,10,10,0,0,0-2.11,2.09,2.12,2.12,0,0,0,.54,2.5,12.08,12.08,0,0,1,1.9,2.7,17.35,17.35,0,0,1,1.51,6.66c.17,2.67,0,5.36.38,8a31.74,31.74,0,0,0,2,7.28,39.28,39.28,0,0,1,2.08,7.28c.42,2.58.63,5.2,1.16,7.76,1,4.73,3.32,9,5.08,13.48a25.07,25.07,0,0,1,2,7,4.56,4.56,0,0,1-.19,1.8,17.69,17.69,0,0,1-.78,1.65,3.71,3.71,0,0,0-.13,2.92c.35,1,.94,2.06.25,3.07a7,7,0,0,1-2.4,2,10.19,10.19,0,0,1-6,1.17c-.37,0-.75-.11-1.13-.19.49.59,1.54,1.24,3.77,1.42a29.29,29.29,0,0,0,4.19.07c.39,0,.79-.06,1.18-.11a25.56,25.56,0,0,0,2.89-.46l.32-.06a4.44,4.44,0,0,0,1.6-.57,2.16,2.16,0,0,0,.67-.8,2.29,2.29,0,0,0,.21-.64c.22-1.27-.42-2.45-.67-3.68a5,5,0,0,1,.3-3.2,2.8,2.8,0,0,1,1.08-1.23c.49-.28,1.11-.16,1.53-.57.8-.79.22-2.23,0-3.12a33.12,33.12,0,0,0-1.54-4.21q-.41-.88-.84-1.74c-.29-.73-.6-1.44-.93-2.15-1-2.11-2.11-4.14-3.11-6.25l-.08-.17c-.26-.78-.52-1.55-.78-2.34a47,47,0,0,1-1.67-6.63c-.75-4.45-.24-9-1.2-13.45a17.71,17.71,0,0,0-1-3.17c-.43-1-.94-2-1.38-3.08a19.05,19.05,0,0,1-1.39-6.49,53,53,0,0,1,.2-6.55,55.75,55.75,0,0,1,.79-5.92c.18-.94.4-1.88.65-2.8l.21,0c.28-1.19.59-2.37.89-3.56C111.46,113,111.84,111.47,112.24,109.93Z"/><path class="cls-25" d="M104.87,51l-.17-.07c-.42-.16-.84-.29-1.27-.41l.81.28Z"/><path class="cls-25" d="M93,50.79l-.2,0-.18,0H93Z"/><path class="cls-11" d="M189.46,118.59a65.65,65.65,0,0,0-7.09-3.86,17.57,17.57,0,0,0-6.93-2h-.6c.21.08.41.18.61.28l.9.8,1.82,1.58c.49.61.94,1.26,1.36,1.89a62.21,62.21,0,0,1,3.73,6.36c.21.42.42.84.62,1.27a5.85,5.85,0,0,1,3.27-.07,9,9,0,0,1,4.84,3.58,24,24,0,0,1,2.79,5.88c.8,2.26,1.55,4.53,2.27,6.82,1.41,4.51,3.15,9.27,1.9,14a36.17,36.17,0,0,1-2.39,6,46.44,46.44,0,0,0-2.45,6.2c-.69,2.35-1.24,4.74-1.83,7.12s-1.18,4.79-1.78,7.19a7.5,7.5,0,0,1-1.22,3,9.44,9.44,0,0,1-1.91,1.6,8.51,8.51,0,0,0-1.86,1.63,4.14,4.14,0,0,0-.83,2.55,7.13,7.13,0,0,1-.26,3.05,3.08,3.08,0,0,1-1.8,1.46,15.82,15.82,0,0,1-5.86.42l-1.43-.06a1.8,1.8,0,0,0,.08.21,2.79,2.79,0,0,0,.16.28c.44.63,1.46,1.38,3.89,1.58a29.31,29.31,0,0,0,4.19.07c.4,0,.79-.06,1.19-.11a25.92,25.92,0,0,0,2.89-.46l.31-.06a4.37,4.37,0,0,0,1.6-.57,2.07,2.07,0,0,0,.67-.8,2.29,2.29,0,0,0,.21-.64,8.28,8.28,0,0,0-.61-3.42,2.56,2.56,0,0,1,.76-1.58c.52-.51,1.26-.44,2-.57a2.14,2.14,0,0,0,1.14-.57,2.25,2.25,0,0,0,.54-1.31c.13-1,.18-2,.35-3s.4-2,.66-3c.52-2,1.16-3.95,1.82-5.91,1.34-4,2.63-8,4-12a57.64,57.64,0,0,1,2.18-5.41c.42-.9.87-1.78,1.36-2.63s1-1.61,1.48-2.46a3.89,3.89,0,0,0,.42-2.83,12.25,12.25,0,0,0-1.29-2.49,16.56,16.56,0,0,1-1.14-2.59,4.11,4.11,0,0,1-.15-.46c0-.13,0-.26-.05-.39a26.28,26.28,0,0,1-.21-3.65c0-2.25.26-4.49.47-6.73q-2.22-2.87-4.65-5.55A112.45,112.45,0,0,0,189.46,118.59Z"/><path class="cls-11" d="M76.46,190.84a5.09,5.09,0,0,0,2.77-2.25,14.35,14.35,0,0,0,1.21-4.18c1.19-5.76,1.65-13.92,2.72-19.71s2.56-9,2.22-14.76a52.09,52.09,0,0,0-1.24-8.61c-.5-2.22-1-4.7-2.41-6.56a4.15,4.15,0,0,0-2.5-1.67,4,4,0,0,0-.47,0c0,1,0,2.09-.07,3.13-.08,1.92-.18,11-.89,20.59-.83,11.15-2.29,23-2.4,25.25-.21,4.14-2.27,5.08-2.71,5.86A10.37,10.37,0,0,1,71.08,190l-.65.65A9.18,9.18,0,0,0,76.46,190.84Z"/><path class="cls-11" d="M84.57,126.09c-2-1.71-4-3.38-6-5.18-.69-.64-1.38-1.3-2-2a25.91,25.91,0,0,1,1.54,5.22,47.24,47.24,0,0,1,.68,8.89,4,4,0,0,1,.47,0,4.15,4.15,0,0,1,2.5,1.67c1.4,1.86,1.91,4.34,2.41,6.56a52.09,52.09,0,0,1,1.24,8.61c.34,5.77-1.17,9.1-2.22,14.76s-1.53,14-2.72,19.71a14.35,14.35,0,0,1-1.21,4.18,5.09,5.09,0,0,1-2.77,2.25,9.18,9.18,0,0,1-6-.24,16.75,16.75,0,0,0-1.2,1.33l-.11.16a1.21,1.21,0,0,0,.45,1.86,7.19,7.19,0,0,0,2.66.33c1,0,2,.07,3,.06a6.71,6.71,0,0,0,1.1-.08,6.85,6.85,0,0,0,5.45-2.19l.21-.27,0-.06a8.07,8.07,0,0,1,.34-1.37,4.76,4.76,0,0,1,1.47-1.77,2.5,2.5,0,0,0,.71-.87,2.16,2.16,0,0,0,.13-1.21,21.2,21.2,0,0,1-.38-2.62,81.54,81.54,0,0,1,1.24-13c.64-3.94,1.27-8,3.14-11.59a37.53,37.53,0,0,0,2.27-5.1c.2-.58.37-1.17.52-1.76a21.39,21.39,0,0,0-.25-2.26c-.68-4.81.45-9.6.37-14.41,0-.32,0-.64,0-1-.54-1-1.11-1.92-1.73-2.85A27.86,27.86,0,0,0,84.57,126.09Z"/><path class="cls-11" d="M95.85,124.46c-.5-.33-1-.6-1.54-.89a5,5,0,0,0-1.12-.46,2.55,2.55,0,0,0-1.37.07,1.12,1.12,0,0,0-.82,1.08l0,.28a3.35,3.35,0,0,0,.08.54,2.31,2.31,0,0,0,.45.75l0,0,.15.21a3.86,3.86,0,0,0,.49.5,14.74,14.74,0,0,1,1.36,1.49l-.34-.43c.37.48.8.91,1.19,1.37a8.15,8.15,0,0,1,.71,1.21,20.16,20.16,0,0,1,.67,2.26c.22.94.47,1.86.72,2.79s.52,1.86.8,2.78a12.72,12.72,0,0,0,.55,1.61l.14.27s0,0,0,.06c.07.27.17.54.25.81.27.87.54,1.74.79,2.61.07.22.13.45.2.67s.16.37.24.56.09.37,0,.1c.11.45.24.91.36,1.36.47,1.81.93,3.63,1.44,5.44a53.29,53.29,0,0,0,1.72,5.23c.53,1.35,3.94,12.14,5.43,16.86-.31-2.37-.63-4.75-1-7.11-.38-2.63-.75-5.28-1.31-7.88q-.14-.45-.24-.75c-1-2.91-1.9-5.86-2.69-8.83-.42-1.63-.81-3.28-1.14-4.93V144c0-.11,0-.23,0-.34,0-.3-.09-.61-.14-.91s-.15-.85-.21-1.28l-.36-2.3a10.66,10.66,0,0,0-.09-1.25c0-.36-.11-.72-.17-1.08-.1-.64-.2-1.28-.32-1.92-.25-1.29-.49-2.59-.78-3.88a11.33,11.33,0,0,0-1.41-3.73A9.65,9.65,0,0,0,95.85,124.46Z"/><path class="cls-5" d="M225.59,170.29c0,.14,0,.28,0,.42l0,.09,0,.23c.08.61.15,1.23.22,1.84.14,1.24.26,2.48.47,3.71s.42,2.57.54,3.88l.18,2.06a13.08,13.08,0,0,0,.42,2c.1.44.69.3.73-.1s.11-1,.15-1.53a9.28,9.28,0,0,0-.06-1.58c-.06-1-.12-2-.15-3.07s0-2.08-.09-3.1-.22-2-.34-3.06-.23-2-.36-3c-.06-.53-.13-1.05-.2-1.58,0-.24-.06-.49-.1-.73s0-.36-.07-.53,0-.11,0-.16V166a.08.08,0,0,1,0,0,13.25,13.25,0,0,0-.15-1.52l-.15-1.56c-.11-1.1-.19-2.21-.35-3.3-.33-2.23-.65-4.48-1.05-6.7-.08-.85-.18-1.71-.34-2.53a12.48,12.48,0,0,0-.65-2.34,17.93,17.93,0,0,0-1.22-2.49,20.57,20.57,0,0,0-1.54-2.27c-.24-.3-.47-.61-.7-.92a4.52,4.52,0,0,0-1-1.1l-.11-.08,0,0c-.61-.92-1.2-1.84-1.78-2.76-1.15-1.83-2.25-3.67-3.35-5.53-.3-.52-.69-1-1-1.5-.22-.3-.51-.52-.75-.8s-.38-.42-.63-.66a.71.71,0,0,0-1.18.7c.05.22,0,.3.09.49s.11.28.17.48.06.3.09.45a3.64,3.64,0,0,0,.26.72l.37.87.12.26c-.07-.14-.18-.33.09.22.08.17.18.34.27.51.65,1.21,1.31,2.41,2,3.61s1.35,2.35,2,3.51l.54.89s.11.17.17.27l0,.09c0,.1,0,.2,0,.3a5.05,5.05,0,0,0,.6,1.15l.53.92a38.49,38.49,0,0,1,2.07,3.57c.39,1,.71,2,1.06,3s.68,2.23,1,3.37c.58,2.34,1.05,4.71,1.63,7.05.28,1.16.53,2.32.78,3.49s.4,2.4.57,3.6C225.51,169.7,225.55,170,225.59,170.29Z"/><path class="cls-11" d="M110.59,190.76v0l-.09.07-.28.2c-.43.32-.86.67-1.26,1s-.73.7-1.08,1.06a4.14,4.14,0,0,0-.93,1.34.59.59,0,0,0,.57.76,7,7,0,0,0,2.5-1.12c.38-.23.73-.5,1.08-.75a10.23,10.23,0,0,0,1.09-.88,2.36,2.36,0,0,0,.69-1.19,2.33,2.33,0,0,0-.37-1.68c-.1-.16-.18-.32-.27-.48l0-.08c0-.11-.08-.21-.11-.32s0-.17-.07-.25a1.55,1.55,0,0,0,0-.17s0-.15,0-.18,0-.23,0-.34,0-.4,0-.53a1.83,1.83,0,0,0,0-.67.78.78,0,0,0-.73-.68.36.36,0,0,0-.34.48h0l-.13.2a3.27,3.27,0,0,0-.32.5,4.6,4.6,0,0,0-.38,1.5,4,4,0,0,0,.14,1.38A7.38,7.38,0,0,0,110.59,190.76Z"/><path class="cls-11" d="M225.25,192.93a4.28,4.28,0,0,0,.61-.44,4.86,4.86,0,0,0,.68-.68,6.61,6.61,0,0,0,.44-.6,5.44,5.44,0,0,0,.3-.65,6.1,6.1,0,0,0,.29-1,3.65,3.65,0,0,0,.07-.46s0,0,0,0V189c0-.23.06-.46.08-.69a.67.67,0,0,0-1.32-.18l0,.12-.1.2s0,0,0,0l0,0-.26.36,0,0,0,0-.15.17c-.11.12-.22.24-.34.35l-.69.66-.38.34-.09.08-.1.08a1.8,1.8,0,0,0-.68.66,1.28,1.28,0,0,0,.19,1.5A1.36,1.36,0,0,0,225.25,192.93Z"/><path class="cls-4" d="M232.47,129.57a98.27,98.27,0,0,1-1.95-20.75,78.11,78.11,0,0,0-1.61,17.85,24.14,24.14,0,0,1-1.79-5.67,52.65,52.65,0,0,1,0-10.87c.76-9,2.68-18.06.43-27a23.18,23.18,0,0,0-3.35-7.54c.09.75.15,1.51.2,2.27h0a16.53,16.53,0,0,1,1.14,2.89,30.29,30.29,0,0,1,1.21,6.39,61.32,61.32,0,0,1-.57,13.26c-.6,4.65-1.39,9.29-1.59,14a48.85,48.85,0,0,0,1.23,13c1,4.16,6.09,13.51,6,13.11a50.28,50.28,0,0,1-1.3-10.78c.52,2.49,1.15,5,1.88,7.42,1.07,3.59,2.32,7.11,3.58,10.63A63.78,63.78,0,0,1,238,154.5c-.07-1.21-.18-2.42-.32-3.63-.4-3.39-1-6.76-1.59-10.14l-.24-.54A59.2,59.2,0,0,1,232.47,129.57Z"/><path class="cls-4" d="M238.49,133.77c1.15,6.39,3.5,12.71,4.44,19.16l.51,1.28a57,57,0,0,1,2.81,9.84c.4,2.07.71,4.16,1,6.26a72.92,72.92,0,0,0-.6-13,90.09,90.09,0,0,0-3.29-14.21c-.16-.54-.33-1.08-.5-1.62a84.24,84.24,0,0,1-5-14.07A39.26,39.26,0,0,0,238.49,133.77Z"/><path class="cls-3" d="M249.06,149.73c-1.71-7.63-4.33-15-6.1-22.62a78.93,78.93,0,0,1-1.86-11.93c-.31-4.17-.45-8.35-.91-12.5s-1.09-8.15-1.8-12.2a50,50,0,0,0-2.77-10.77,24.54,24.54,0,0,0-5.83-8.37,34.79,34.79,0,0,0-8.94-6.46,28.76,28.76,0,0,1,3.32,10.73,23.18,23.18,0,0,1,3.35,7.54c2.25,8.92.33,18-.43,27a52.65,52.65,0,0,0,0,10.87,24.14,24.14,0,0,0,1.79,5.67,78.11,78.11,0,0,1,1.61-17.85,98.27,98.27,0,0,0,1.95,20.75,59.2,59.2,0,0,0,3.41,10.62l.24.54c1.38,3.17,2.94,6.26,4.21,9.47a28,28,0,0,1,2.32,11.74,31.4,31.4,0,0,0,.62-5.89c-.07-1.05-.19-2.09-.34-3.12-.94-6.45-3.29-12.77-4.44-19.16a39.26,39.26,0,0,1-.68-6.4,84.24,84.24,0,0,0,5,14.07c2.84,6.63,5.82,13.2,6.83,20.42.54,3.92.53,11.83.53,11.81h0s.35-2.92.45-4.37A68.58,68.58,0,0,0,249.06,149.73Zm-15-24.57a71.07,71.07,0,0,1-1.95-12.81c-.28-4.57-.09-9.15-.12-13.73a68.76,68.76,0,0,0-.68-10,78.46,78.46,0,0,1,1.87,8.84c.65,4.29,1,8.62,1.2,13s.45,8.66.86,13A80.24,80.24,0,0,0,236.9,134,70.37,70.37,0,0,1,234.07,125.16Zm7.1,5a123.57,123.57,0,0,1-3.52-15.2c-.94-5.46-1.64-11-2.35-16.43-.36-2.73-.71-5.45-1.11-8.17a57.83,57.83,0,0,0-1.55-7.82c-1.23-4.3-3.36-8.48-6.93-11.31-.19-.21-.38-.42-.59-.62a12.58,12.58,0,0,0-1.3-1.1l.29.12a15.75,15.75,0,0,1,6.26,5,26.15,26.15,0,0,1,3.59,7,72.81,72.81,0,0,1,2.31,8.29c1.3,5.83,2.1,11.75,2.82,17.67s1.36,11.9,2.34,17.81a107,107,0,0,0,3.16,13.95A76.79,76.79,0,0,1,241.17,130.13Z"/><path class="cls-1" d="M234.39,110.37c-.24-4.33-.55-8.66-1.2-13a78.46,78.46,0,0,0-1.87-8.84,68.76,68.76,0,0,1,.68,10c0,4.58-.16,9.16.12,13.73A70.65,70.65,0,0,0,236.9,134a80.24,80.24,0,0,1-1.65-10.69C234.84,119,234.64,114.7,234.39,110.37Z"/><path class="cls-1" d="M239.09,107.56c-.72-5.92-1.52-11.84-2.82-17.67A72.81,72.81,0,0,0,234,81.6a26.15,26.15,0,0,0-3.59-7,15.75,15.75,0,0,0-6.26-5l-.29-.12a12.58,12.58,0,0,1,1.3,1.1c.21.2.4.41.59.62,3.57,2.83,5.7,7,6.93,11.31a57.83,57.83,0,0,1,1.55,7.82c.4,2.72.75,5.44,1.11,8.17.71,5.48,1.41,11,2.35,16.43a123.57,123.57,0,0,0,3.52,15.2,76.79,76.79,0,0,0,3.42,9.19,107,107,0,0,1-3.16-13.95C240.45,119.46,239.81,113.5,239.09,107.56Z"/><path class="cls-4" d="M28.8,14.91a21.8,21.8,0,0,1-1.93,1.24,34.3,34.3,0,0,0-3.74,2.56,19.42,19.42,0,0,0-1.77,1.88,20.78,20.78,0,0,1,4-2.53c1.06-.56,2.17-1.09,3.2-1.74a5.19,5.19,0,0,1-.83,1A11.07,11.07,0,0,1,25.9,18.7c-.75.47-1.48,1-2.22,1.46a16.19,16.19,0,0,0,2.78-.89,8.65,8.65,0,0,0,2.19-1.39A6,6,0,0,0,30,16.07l-.37-.3A9.37,9.37,0,0,1,28.8,14.91Z"/><path class="cls-6" d="M28.43,14.42l.11.15c.08.12.17.23.26.34a9.37,9.37,0,0,0,.81.86l.37.3.41.32a3.33,3.33,0,0,1,.39.36A2.17,2.17,0,0,1,31,17l.06.1a1.42,1.42,0,0,1,.08.18,4.73,4.73,0,0,1,.2.67,5.54,5.54,0,0,0,.51,1.07,4.89,4.89,0,0,1,.33.64s.08,0,.08,0-.05-.31-.07-.47a1.25,1.25,0,0,0,0-.22c0-.76,0-3.24-.08-4.41A15.27,15.27,0,0,0,31,10.46a16.88,16.88,0,0,1-.63-2c-.15-.62-.27-1.25-.41-1.88a7.9,7.9,0,0,0-1.43-3.43,9.84,9.84,0,0,0-3.28-2c-.11,0-.16-.05-.17,0a7.46,7.46,0,0,0,.13,2.58,4.79,4.79,0,0,0,.21.64,13,13,0,0,1,.74,2.34c.13.6.23,1.21.34,1.82a27.64,27.64,0,0,0,.67,3.23c.08.29.18.58.29.87l.24.56A8.33,8.33,0,0,0,28.43,14.42Z"/><path class="cls-26" d="M63.64,24.21c.87.49,1.84,1.07,2.82,1.67C65.55,25.28,64.61,24.72,63.64,24.21Z"/><path class="cls-26" d="M81.56,40.1l-1.24-.76a10.19,10.19,0,0,0,1.13.71Z"/><path class="cls-26" d="M105.22,51.1h0l-.35-.14-.63-.2Z"/><path class="cls-26" d="M83,49.64a7.12,7.12,0,0,0,1.17.59,14.77,14.77,0,0,1-1.37-.84Z"/><path class="cls-26" d="M95.11,51.14,94.8,51l-.3.06A3.63,3.63,0,0,0,95.11,51.14Z"/><path class="cls-5" d="M28.51,3.17A7.9,7.9,0,0,1,29.94,6.6c.14.63.26,1.26.41,1.88a16.88,16.88,0,0,0,.63,2,15.27,15.27,0,0,1,1.17,4.12c.09,1.17.09,3.65.08,4.41v.08a.17.17,0,0,1,0,.14c0,.16,0,.31.07.47l0-.16c.25-.72,1.24-3.77.93-5.51-.35-2,.63-1.07,2.43.55s.55,2.31,1.11,5.49c.43,2.51,1.62,3.07,2,2.85a.23.23,0,0,0,.07-.31l0-.08v0a.14.14,0,0,1,0-.06v0a.64.64,0,0,0,0-.07v0a.29.29,0,0,1,0-.09h0s0-.05,0-.08v-.21a.28.28,0,0,1,0-.09v0a.19.19,0,0,1,0-.08v-.09h0v-.12a.28.28,0,0,1,0-.09v-.33a.28.28,0,0,0,0-.09v-.23s0-.06,0-.08h0s0-.07,0-.1v0l0-.08v0l0-.08v0c0-.06,0-.13,0-.19h0l0-.08V20h0c0-.06,0-.12,0-.18h0l0-.08h0l0-.09h0a1.09,1.09,0,0,1,0-.17h0c.12-.4.24-.71.29-.86v0h0v0h0a2.48,2.48,0,0,0,.07-.63,7.11,7.11,0,0,0-.74-3,10.27,10.27,0,0,0-.52-1v0c-.17-.27-.35-.55-.55-.82a8.65,8.65,0,0,0-.79-.95,44.25,44.25,0,0,0-4.19-3.3c-1.71-1.43-2.55-4.94-3.69-6.14a7.57,7.57,0,0,0-3.68-1.53A9.84,9.84,0,0,1,28.51,3.17Z"/><path class="cls-11" d="M36.8,20.05c-.56-3.18.69-3.87-1.11-5.49S32.91,12,33.26,14c.31,1.74-.68,4.79-.93,5.51h0a.15.15,0,0,0,.19.15,3,3,0,0,1,2-.23,1.82,1.82,0,0,1,.95,1,13.61,13.61,0,0,0,.65,1.33,2.88,2.88,0,0,0,2.35,1.34.2.2,0,0,0,.17,0h.19c.1,0,.1-.17,0-.17s0,0,0,0C38.42,23.12,37.23,22.56,36.8,20.05Z"/><path class="cls-4" d="M30.7,16.92a4.48,4.48,0,0,0-.4-.36l-.41-.32a5.82,5.82,0,0,1-1.33,1.81,8.48,8.48,0,0,1-2.19,1.39,16.47,16.47,0,0,1-2.77.89c.73-.49,1.46-1,2.22-1.46a11,11,0,0,0,1.86-1.39,5.19,5.19,0,0,0,.83-1c-1,.65-2.13,1.18-3.2,1.74a21.4,21.4,0,0,0-4,2.53A18.27,18.27,0,0,1,23,18.88a34.43,34.43,0,0,1,3.75-2.56,20.28,20.28,0,0,0,1.92-1.24l-.26-.34-.11-.15a8.27,8.27,0,0,1-.74-1.29c-.09-.19-.17-.37-.24-.56a4.6,4.6,0,0,1-.77.82A7.69,7.69,0,0,1,25,14.5l-.52.23c-.73.33-1.46.67-2.18,1l-.58.29a17.26,17.26,0,0,0-2.2,1.28l-.23.16a5.92,5.92,0,0,0-1.77,2.11c0,.06.06.11.1,0A5.08,5.08,0,0,1,19.48,18l.28-.15a17.27,17.27,0,0,1,2-.81c-.41.3-.82.62-1.23.94l-.47.39a9.74,9.74,0,0,0-1.72,1.79,7.66,7.66,0,0,0-.81,1.42,16.62,16.62,0,0,0-1.59,2.93A18.89,18.89,0,0,0,15.06,27a21.71,21.71,0,0,0-.41,2.71c0,.05,0,.06.07,0,.3-.82.58-1.64,1-2.44.2-.42.41-.83.64-1.24s.38-.64.58-.95a19.28,19.28,0,0,1,1.57-2c.18-.2.37-.39.56-.59a10.4,10.4,0,0,0-.69,1.27,12.52,12.52,0,0,0-.67,1.66c-.15.43-.37,1.34-.37,1.34s0,.07,0,.08a3.47,3.47,0,0,0,.35-.63l.27-.58c.19-.38.39-.76.6-1.13A16.2,16.2,0,0,1,20,22.38c.22-.25.44-.5.67-.74l.39-.28a7.33,7.33,0,0,0-1.39,2.2c0,.06-.3,1.69-.28,1.64l.12-.36A3.52,3.52,0,0,1,20,24.1a9.53,9.53,0,0,1,.71-.73,7.85,7.85,0,0,1,1.84-1.28A14.76,14.76,0,0,1,26.88,21a8.09,8.09,0,0,0,2.72-1.44,4.53,4.53,0,0,0,.73-.79,4.26,4.26,0,0,0,.58-1.12l.09-.32-.06-.1A2.17,2.17,0,0,0,30.7,16.92Z"/><path class="cls-4" d="M89.45,49.56c.71,0,1.41.14,2.12.15a15.33,15.33,0,0,0,2.14-.1s.05,0,.06-.06c.78,0,1.56,0,2.34,0a55.5,55.5,0,0,1,8,1.4l-.8-.28c-2.79-1-7.9-2.84-8.45-3.09a12.75,12.75,0,0,0-1.8-.72,16.21,16.21,0,0,0-1.68-.36c-.61-.24-1.21-.52-1.79-.81-.39-.46-.73-1-1.09-1.45a10.94,10.94,0,0,0-1.63-1.77c-2.34-2.05-5.28-3.21-7.7-5.15a16.56,16.56,0,0,1-1.83-1.62,7.66,7.66,0,0,1-.8-.91c-.24-.33-.47-.66-.73-1a.15.15,0,0,0-.15-.07,19.93,19.93,0,0,0-1.28-1.63,24.75,24.75,0,0,0-4.55-3.8c-1-.7-2.27-1.49-3.5-2.24-1-.6-2-1.18-2.81-1.67h0c-.85-.45-1.74-.87-2.64-1.25-1.3-.74-2.58-1.53-3.85-2.32-1.79-1.11-3.58-2.23-5.4-3.28a38.05,38.05,0,0,0-11.41-4.74c-.4-.08-.8-.15-1.21-.21H39a19.32,19.32,0,0,0-2.27-.3,7.65,7.65,0,0,1,.79,1A7.83,7.83,0,0,1,38,14l0,0a10.11,10.11,0,0,1,.51,1,7.15,7.15,0,0,1,.75,3,3.91,3.91,0,0,1-.07.63h0v0h0v0c-.06.15-.18.46-.3.86h0l-.05.17h0l0,.09h0l0,.08h0c0,.06,0,.12,0,.18h0l0,.08v.1h0a1.29,1.29,0,0,1,0,.19v.22s0,.06,0,.1h0s0,.05,0,.08v.23a.28.28,0,0,0,0,.09v.54a5.48,5.48,0,0,0,1.14,1.65,37.72,37.72,0,0,0,3.64,2.62,15.14,15.14,0,0,1,1.73,1.56,28.67,28.67,0,0,1,1.86,2.91,10.54,10.54,0,0,0-.11-1.37A8,8,0,0,0,46,26.94c-.3-.58-.61-1.16-.94-1.73l.67.53A13.5,13.5,0,0,1,49,29.42a17.67,17.67,0,0,1,1.37,3c0-.33-.07-.66-.13-1a10.52,10.52,0,0,0-.91-2.83A16,16,0,0,0,47.76,26c.78.67,1.57,1.31,2.37,1.95A23.69,23.69,0,0,1,53,30.55a15.07,15.07,0,0,1,1.68,1.71,18,18,0,0,1,2.28,3.89c.3.63.59,1.28.84,1.93a5.9,5.9,0,0,0,0-1.11,10.42,10.42,0,0,0-.16-1.25c0-.26-.1-.52-.16-.78a16.33,16.33,0,0,0,2.09,2.66,35.51,35.51,0,0,0,4,3.32A16.9,16.9,0,0,1,67.4,44.4a19.52,19.52,0,0,1,2.22,4.47c0-.22-.07-.44-.11-.66a22.51,22.51,0,0,1,.8,2.62.22.22,0,0,0,0,.11c0,.82.07,1.64.12,2.45.14-.29.27-.59.39-.89.22-.53.38-1.09.55-1.65a11.3,11.3,0,0,1,.52-1.41c.13-.63.24-1.26.31-1.89a8.54,8.54,0,0,0,0-1.34A27.27,27.27,0,0,0,74,48.48a12.48,12.48,0,0,0,2.42,2.34,18.24,18.24,0,0,0,2.93,1.55c1.18.54,2.35,1.11,3.56,1.59a5.52,5.52,0,0,1,1.88,1.21,4.81,4.81,0,0,0,.37.51c.1.12.19.2.23.19s0-.11,0-.31a23,23,0,0,0-1.86-4.87c-.19-.3-.4-.59-.61-.88l-.19-.25A14.62,14.62,0,0,0,84,50.4a12.61,12.61,0,0,0,1.54.71,11.8,11.8,0,0,0,4.33.64,20,20,0,0,0,2.55-.23c.65-.08,1.31-.18,2-.3l.31-.06.3,0c.08,0-.22,0-.63-.08-.47-.19-1-.42-1.11-.43s-.27,0-.4-.05-.49-.11-.74-.15c-.49-.08-1-.17-1.47-.27-1-.21-1.93-.47-2.88-.77l-.26-.09c.32.07.63.12,1,.16A8.06,8.06,0,0,0,89.45,49.56Zm-8-9.29-.1-.05a10.32,10.32,0,0,1-1.14-.71ZM92.72,50.94l.2,0h-.37Z"/><path class="cls-27" d="M77.93,154.87c-.11,2.3.58,2.57.36,3.82a4.22,4.22,0,0,1,2.56-3.56c-.82,1.49,0,2.87,0,4.08,1.35-1.47,1.67-5.35,3.89-7.29a17.74,17.74,0,0,0-.13,6.29c.74-1.28.68-3.8,2.34-4.63,0,2.49,1.38,2.49.55,4.7.83-1.38,1.66-.83,2.47-1.64a31.67,31.67,0,0,0-4,11.41c-1,6.82-2.4,14-1.43,17.86a2.72,2.72,0,0,1-1.26,3.16A4,4,0,0,0,82,191.74s-1.52,2.38-5.49,2.57a36.2,36.2,0,0,1-6.44-.18s-2-.3-1-2c0,0,1.65-1.77,2.19-2.39a11.56,11.56,0,0,0,1.3-1.68,13.92,13.92,0,0,1,1.49-1.76,8.72,8.72,0,0,0,1.28-3.95c.23-2.46.73-7.51.73-7.51l1.16-11.71Z"/><path class="cls-28" d="M84.57,126.09c-2-1.71-4-3.38-6-5.18-.69-.64-1.38-1.3-2-2a25.91,25.91,0,0,1,1.54,5.22,47.24,47.24,0,0,1,.68,8.89,4,4,0,0,1,.47,0,4.15,4.15,0,0,1,2.5,1.67c1.4,1.86,1.91,4.34,2.41,6.56a52.09,52.09,0,0,1,1.24,8.61c.34,5.77-1.17,9.1-2.22,14.76s-1.53,14-2.72,19.71a14.35,14.35,0,0,1-1.21,4.18,5.09,5.09,0,0,1-2.77,2.25,9.18,9.18,0,0,1-6-.24,16.75,16.75,0,0,0-1.2,1.33l-.11.16a1.21,1.21,0,0,0,.45,1.86,7.19,7.19,0,0,0,2.66.33c1,0,2,.07,3,.06a6.71,6.71,0,0,0,1.1-.08,6.85,6.85,0,0,0,5.45-2.19l.21-.27,0-.06a8.07,8.07,0,0,1,.34-1.37,4.76,4.76,0,0,1,1.47-1.77,2.5,2.5,0,0,0,.71-.87,2.16,2.16,0,0,0,.13-1.21,21.2,21.2,0,0,1-.38-2.62,81.54,81.54,0,0,1,1.24-13c.64-3.94,1.27-8,3.14-11.59a37.53,37.53,0,0,0,2.27-5.1c.2-.58.37-1.17.52-1.76a21.39,21.39,0,0,0-.25-2.26c-.68-4.81.45-9.6.37-14.41,0-.32,0-.64,0-1-.54-1-1.11-1.92-1.73-2.85A27.86,27.86,0,0,0,84.57,126.09Z"/><path class="cls-27" d="M99.54,151.38s2.34,6.35,3.17,6.62c0,0-1.94-7.19,0-10.5,0,0,1,4.42,2.31,5.25l.79-3.25,1.56,5.82s1.38-4.21,1.13-7,2.61,5.31,2.42,6.79,1.25-8.87.94-10,1.56,6.84,1,12.37l2.86,11.05,5.1,10.63s2.35,5,1.78,6.43-1.22.54-1.87,1.15-2.23,1.22-1.3,4.78.91,3.32.1,4.41-7.19,2.22-11.47,1.38-3.18-2.94-3.18-2.94,3.59-2.64,4-6.08-2.76-16.33-2.76-16.33-1.53-6-2.77-8.31a38.65,38.65,0,0,1-2.33-6.05Z"/><path class="cls-28" d="M112.24,109.93c.39-1.53.81-3.05,1.14-4.59a23.82,23.82,0,0,0,.52-4.37,25.46,25.46,0,0,0-.31-4.28c-.11-.74-.26-1.46-.44-2.18s-.39-1.4-.56-2.11l-.06-.23,0-.07,0-.16,0-.08a1.21,1.21,0,0,0,0-.18l0-.05c0-.08-.05-.15-.07-.23l0-.06-.06-.16,0-.09-.06-.15,0-.08c0-.06,0-.13-.07-.2l0-.07-.07-.16,0-.1,0-.12,0-.11-.06-.12-.07-.16-.06-.13,0-.12,0-.09-.06-.13,0,0c-.12-.24-.24-.49-.35-.74l0-.11-.07-.16s0,0,0,0c.36,2.19,1.18,3.84,1.2,6,0,4.2-.26,8.62-2.29,12.39a27.23,27.23,0,0,1-1.66,2.6,8.59,8.59,0,0,1-.92,1.15c-.18.35-.37.7-.56,1.05a31,31,0,0,1-3.54,5.06,29.46,29.46,0,0,1-2.12,2.21,10,10,0,0,0-2.11,2.09,2.12,2.12,0,0,0,.54,2.5,12.08,12.08,0,0,1,1.9,2.7,17.35,17.35,0,0,1,1.51,6.66c.17,2.67,0,5.36.38,8a31.74,31.74,0,0,0,2,7.28,39.28,39.28,0,0,1,2.08,7.28c.42,2.58.63,5.2,1.16,7.76,1,4.73,3.32,9,5.08,13.48a25.07,25.07,0,0,1,2,7,4.56,4.56,0,0,1-.19,1.8,17.69,17.69,0,0,1-.78,1.65,3.71,3.71,0,0,0-.13,2.92c.35,1,.94,2.06.25,3.07a7,7,0,0,1-2.4,2,10.19,10.19,0,0,1-6,1.17c-.37,0-.75-.11-1.13-.19.49.59,1.54,1.24,3.77,1.42a29.29,29.29,0,0,0,4.19.07c.39,0,.79-.06,1.18-.11a25.56,25.56,0,0,0,2.89-.46l.32-.06a4.44,4.44,0,0,0,1.6-.57,2.16,2.16,0,0,0,.67-.8,2.29,2.29,0,0,0,.21-.64c.22-1.27-.42-2.45-.67-3.68a5,5,0,0,1,.3-3.2,2.8,2.8,0,0,1,1.08-1.23c.49-.28,1.11-.16,1.53-.57.8-.79.22-2.23,0-3.12a33.12,33.12,0,0,0-1.54-4.21q-.41-.88-.84-1.74c-.29-.73-.6-1.44-.93-2.15-1-2.11-2.11-4.14-3.11-6.25l-.08-.17c-.26-.78-.52-1.55-.78-2.34a47,47,0,0,1-1.67-6.63c-.75-4.45-.24-9-1.2-13.45a17.71,17.71,0,0,0-1-3.17c-.43-1-.94-2-1.38-3.08a19.05,19.05,0,0,1-1.39-6.49,53,53,0,0,1,.2-6.55,55.75,55.75,0,0,1,.79-5.92c.18-.94.4-1.88.65-2.8l.21,0c.28-1.19.59-2.37.89-3.56C111.46,113,111.84,111.47,112.24,109.93Z"/><path class="cls-27" d="M191.52,159a9.43,9.43,0,0,1,0,4c.65-1.43,2.16-1.93,3.84-5.71-.33,2.66-.57,5.43-1.68,6.82,1.32,0,2.67-1.9,4-4-.51,2.09-1.58,5.35-2.08,5.12.55.28,2.84-2.59,2.76-2.21a2.37,2.37,0,0,0-.27,1.94c.5-1.82,2.49-3.32,3.59-6.09-.27,2.77-1.51,4.52-.95,6,0,0-6.17,17.53-6.07,19.61s0,3.42-.89,4.27-2.54.61-3.12,1.14a2.27,2.27,0,0,0-.76,1.58s1.36,3.42.22,4.37-4,2-9.35,1.73c0,0-5.16.28-5.53-2.46,0,0-.8-.53,2.74-3.16s.08-.13.08-.13,3.1-4.49,3.69-5.29,6.31-15.52,6.35-16.32S191.52,159,191.52,159Z"/><path class="cls-28" d="M189.46,118.59a65.65,65.65,0,0,0-7.09-3.86,17.57,17.57,0,0,0-6.93-2h-.6c.21.08.41.18.61.28.3.27.79.71,1.1,1l1.62,1.41c.49.61.94,1.26,1.36,1.89a62.21,62.21,0,0,1,3.73,6.36c.21.42.42.84.62,1.27a5.85,5.85,0,0,1,3.27-.07,9,9,0,0,1,4.84,3.58,24,24,0,0,1,2.79,5.88c.8,2.26,1.55,4.53,2.27,6.82,1.41,4.51,3.15,9.27,1.9,14a36.17,36.17,0,0,1-2.39,6,46.44,46.44,0,0,0-2.45,6.2c-.69,2.35-1.24,4.74-1.83,7.12s-1.18,4.79-1.78,7.19a7.5,7.5,0,0,1-1.22,3,9.44,9.44,0,0,1-1.91,1.6,8.51,8.51,0,0,0-1.86,1.63,4.14,4.14,0,0,0-.83,2.55,7.13,7.13,0,0,1-.26,3.05,3.08,3.08,0,0,1-1.8,1.46,15.82,15.82,0,0,1-5.86.42l-1.43-.06a1.8,1.8,0,0,0,.08.21,2.79,2.79,0,0,0,.16.28c.44.63,1.46,1.38,3.89,1.58a29.31,29.31,0,0,0,4.19.07c.4,0,.79-.06,1.19-.11a25.92,25.92,0,0,0,2.89-.46l.31-.06a4.37,4.37,0,0,0,1.6-.57,2.07,2.07,0,0,0,.67-.8,2.29,2.29,0,0,0,.21-.64,8.28,8.28,0,0,0-.61-3.42,2.56,2.56,0,0,1,.76-1.58c.52-.51,1.26-.44,2-.57a2.14,2.14,0,0,0,1.14-.57,2.25,2.25,0,0,0,.54-1.31c.13-1,.18-2,.35-3s.4-2,.66-3c.52-2,1.16-3.95,1.82-5.91,1.34-4,2.63-8,4-12a57.64,57.64,0,0,1,2.18-5.41c.42-.9.87-1.78,1.36-2.63s1-1.61,1.48-2.46a3.89,3.89,0,0,0,.42-2.83,12.25,12.25,0,0,0-1.29-2.49,16.56,16.56,0,0,1-1.14-2.59,4.11,4.11,0,0,1-.15-.46c0-.13,0-.26-.05-.39a26.28,26.28,0,0,1-.21-3.65c0-2.25.26-4.49.47-6.73q-2.22-2.87-4.65-5.55A112.45,112.45,0,0,0,189.46,118.59Z"/><path class="cls-27" d="M216.79,155.13c1.5,1.77,2.06,1.22,3.71,3.7-1.76-2.15-1.65-6.08-1.1-8.29a21.09,21.09,0,0,0,4.15,6.91c-1.66-3,.55-5,0-8.61,1.93,3.36,1.95,6.42,2.76,6.95-.39-1.66-.38-3.16.83-4.15.4,1.1,1.66,1.52,1.5,3.41-.39-3.41,1.27-3.68,1.51-7.41,0,0,2.28,20.25,3.23,22.91s2.94,14.29,3.74,15.66c0,0,.74.89-1.3.86a3.43,3.43,0,0,0-2.2,4.07s2,4.53-.58,5.33c0,0-7.57,2-12.13.45,0,0-3.43-.91-1.36-3s4.6-4,4.44-6.92c0,0,1.13-3.48-2.29-19.25C221.7,167.7,218.89,159.73,216.79,155.13Z"/><path class="cls-28" d="M220.85,64.88l-.22-.38a27.89,27.89,0,0,1,1.28,4.7c.54,3-1.09,16.22-1.43,18.58q-1.35,9.56-3,19.06a67.72,67.72,0,0,0-1,16.75c.37,4.57,1.25,9.5,3.93,13.34,1.33,1.89,3.19,3.24,4.78,4.89a8.26,8.26,0,0,1,1.91,2.93,21.12,21.12,0,0,1,.78,4.41c.8,6.37,1.71,12.73,2.29,19.12.28,3.17.64,6.35.84,9.52a30.53,30.53,0,0,1-.4,8.32,40.61,40.61,0,0,0-1.09,3.92c-.11,1,.15,2.19-.36,3.07-1.19,2.07-4.5,1.91-6.49,1.57a19.87,19.87,0,0,1-3.12-.81,1.29,1.29,0,0,0-.53,1.06,1.89,1.89,0,0,0,.16.6,2.79,2.79,0,0,0,.16.28c.44.63,1.46,1.38,3.89,1.58a29.29,29.29,0,0,0,4.19.07c.39,0,.79-.06,1.18-.11a26.1,26.1,0,0,0,2.9-.46l.31-.06a4.44,4.44,0,0,0,1.6-.57,2.07,2.07,0,0,0,.67-.8,2.29,2.29,0,0,0,.21-.64c.22-1.27-.42-2.45-.67-3.68a6.56,6.56,0,0,1-.12-1.18,3.5,3.5,0,0,1,3.08-3,.56.56,0,0,0,.54-.71q-2.53-9-4.25-18.3t-2.58-18.64c-.14-1.56-.26-3.12-.37-4.68a11.58,11.58,0,0,0-.69-4.26,14.24,14.24,0,0,0-2.65-3.11,15.71,15.71,0,0,1-2.35-3.26,11.35,11.35,0,0,1-1.09-4.17,27.28,27.28,0,0,0-.7-4.48c-.4-1.45-.91-2.86-1.28-4.32a21,21,0,0,1-.58-4.61c-.1-3.16.14-6.35.31-9.52.05-1.14.12-2.28.18-3.42,1.11-5.94,2.54-11.83,3.12-17.86a50.67,50.67,0,0,0,.18-7.7c-.05-.76-.11-1.52-.2-2.27A28.76,28.76,0,0,0,220.85,64.88Z"/><path class="cls-28" d="M224.8,188.13c.74-1.9.59-4.08.55-6.08a96.24,96.24,0,0,0-1.16-13.67,65.81,65.81,0,0,0-9.57-25.68c-2.21-3.62-4.61-7.12-7-10.63-1.15-1.85-2.4-3.64-3.69-5.4l-1.26-1.79a45.71,45.71,0,0,0-4.19-5.21,1.85,1.85,0,0,1-.14-.14,43.36,43.36,0,0,0-6.69-6.44,38.65,38.65,0,0,0-22.8-7.8,53.23,53.23,0,0,0-13.15,2c-4.66,1.15-9.31,2.23-14.15,2A29.92,29.92,0,0,1,129.07,106a25.51,25.51,0,0,1-8.94-7.73c-2.19-3-4-6.41-6.83-8.89a10.47,10.47,0,0,0-2.18-1.48.14.14,0,0,0-.14.24l0,0a.11.11,0,0,0-.06.16s0,0,0,0l.07.16a12.56,12.56,0,0,1,1.14,1.17A20.84,20.84,0,0,1,116,96.56a38.83,38.83,0,0,1,1.5,7.55,18.86,18.86,0,0,0,1,4.07,10.66,10.66,0,0,0,1.1,1.87,16.2,16.2,0,0,0,2.33,2.28,28,28,0,0,0,5.59,3.15,40.91,40.91,0,0,0,9.68,2.56c1.42.18,2.85.3,4.29.38a90.81,90.81,0,0,0,16.31-.73,37.3,37.3,0,0,0,4.31-.85l.08,0c2.18-.83,4.3-1.84,6.49-2.66a19.19,19.19,0,0,1,6.2-1.39h.6a17.57,17.57,0,0,1,6.93,2,65.65,65.65,0,0,1,7.09,3.86,112.45,112.45,0,0,1,10.16,9.73q2.43,2.69,4.65,5.55,2.74,3.56,5.14,7.37a154.81,154.81,0,0,1,8.38,16,57.9,57.9,0,0,1,3.42,8.6,76.08,76.08,0,0,1,1.85,8.83,74.35,74.35,0,0,1,1.05,8.28,17.49,17.49,0,0,1-1,7.42l-.16.2,0,0A5.4,5.4,0,0,0,224.8,188.13Z"/><path class="cls-28" d="M225.59,170.29c0,.14,0,.28,0,.42l0,.09,0,.23c.08.61.15,1.23.22,1.84.14,1.24.26,2.48.47,3.71s.42,2.57.54,3.88l.18,2.06a13.08,13.08,0,0,0,.42,2c.1.44.69.3.73-.1s.11-1,.15-1.53a9.28,9.28,0,0,0-.06-1.58c-.06-1-.12-2-.15-3.07s0-2.08-.09-3.1-.22-2-.34-3.06-.23-2-.36-3c-.06-.53-.13-1.05-.2-1.58,0-.24-.06-.49-.1-.73s0-.36-.07-.53,0-.11,0-.16V166a.08.08,0,0,1,0,0,13.25,13.25,0,0,0-.15-1.52l-.15-1.56c-.11-1.1-.19-2.21-.35-3.3-.33-2.23-.65-4.48-1.05-6.7-.08-.85-.18-1.71-.34-2.53a12.48,12.48,0,0,0-.65-2.34,17.93,17.93,0,0,0-1.22-2.49,20.57,20.57,0,0,0-1.54-2.27c-.24-.3-.47-.61-.7-.92a4.52,4.52,0,0,0-1-1.1l-.11-.08,0,0c-.61-.92-1.2-1.84-1.78-2.76-1.15-1.83-2.25-3.67-3.35-5.53-.3-.52-.69-1-1-1.5-.22-.3-.51-.52-.75-.8s-.38-.42-.63-.66a.71.71,0,0,0-1.18.7c.05.22,0,.3.09.49s.11.28.17.48.06.3.09.45a3.64,3.64,0,0,0,.26.72l.37.87.12.26c-.07-.14-.18-.33.09.22.08.17.18.34.27.51.65,1.21,1.31,2.41,2,3.61s1.35,2.35,2,3.51l.54.89s.11.17.17.27l0,.09c0,.1,0,.2,0,.3a5.05,5.05,0,0,0,.6,1.15l.53.92a38.49,38.49,0,0,1,2.07,3.57c.39,1,.71,2,1.06,3s.68,2.23,1,3.37c.58,2.34,1.05,4.71,1.63,7.05.28,1.16.53,2.32.78,3.49s.4,2.4.57,3.6C225.51,169.7,225.55,170,225.59,170.29Z"/><path class="cls-29" d="M249.34,149.73c-1.71-7.63-4.33-15-6.11-22.62a78.91,78.91,0,0,1-1.85-11.93c-.31-4.17-.45-8.35-.91-12.5s-1.1-8.15-1.8-12.2a50.61,50.61,0,0,0-2.78-10.77,24.52,24.52,0,0,0-5.82-8.37,34.84,34.84,0,0,0-8.95-6.46l-.21-.38c-.36-.61-.75-1.2-1.16-1.79-4.61-6.4-12.05-10.19-19.75-11.32a42.7,42.7,0,0,0-13.11.17,27.56,27.56,0,0,0-6.48,1.84,56,56,0,0,0-5.86,3l-2.47,1.4c-.62.16-1.25.31-1.88.45-2.09.44-4.21.74-6.32,1-4.1.49-8.22.83-12.34,1-1.54.06-3.82.1-6.29.1-4.09,0-8.68-.08-11.23-.27a79.91,79.91,0,0,1-12-1.77,66,66,0,0,1-11.46-3.68c-.28-.27-.57-.54-.87-.8a15.45,15.45,0,0,0-4.18-2.75h0l-.34-.14-.17-.07c-.42-.16-.84-.29-1.27-.41-2.79-1-7.9-2.84-8.44-3.09a12.87,12.87,0,0,0-1.81-.72,13.53,13.53,0,0,0-1.68-.35c-.61-.25-1.2-.53-1.79-.82-.39-.46-.73-1-1.09-1.45a10.51,10.51,0,0,0-1.63-1.77c-2.34-2.05-5.28-3.21-7.7-5.15a16.56,16.56,0,0,1-1.83-1.62,7.66,7.66,0,0,1-.8-.91c-.24-.33-.47-.66-.72-1a.16.16,0,0,0-.16-.07,19.93,19.93,0,0,0-1.28-1.63,24.75,24.75,0,0,0-4.55-3.8c-1-.7-2.27-1.49-3.5-2.24a31.5,31.5,0,0,0-2.81-1.67h0c-.86-.45-1.75-.87-2.65-1.25-1.3-.74-2.58-1.53-3.85-2.32-1.79-1.11-3.57-2.23-5.4-3.28a38.05,38.05,0,0,0-11.41-4.74c-.4-.08-.8-.14-1.2-.2l-.06,0a19,19,0,0,0-2.27-.3,41.84,41.84,0,0,0-4.19-3.3c-1.7-1.43-2.55-4.94-3.69-6.14A7.49,7.49,0,0,0,25.5,1.12c-.1,0-.16-.05-.16,0a7.45,7.45,0,0,0,.12,2.58,4.83,4.83,0,0,0,.22.64,13.82,13.82,0,0,1,.74,2.34c.12.6.23,1.21.34,1.82a29.82,29.82,0,0,0,.66,3.23q.13.44.3.87a4.6,4.6,0,0,1-.77.82,7.45,7.45,0,0,1-1.62.94,31.7,31.7,0,0,0-3.12-1.66c-2-.86-2.95-3.1-3.4-3.78a2.3,2.3,0,0,0-1.9-1.13s-.06,0-.07,0a6.58,6.58,0,0,0,.32,3.29c.31,1,.69,1.88,1.09,2.8s.81,1.8,1.27,2.67c.11.21.22.42.34.63l-.24.16a5.9,5.9,0,0,0-1.76,2.11c0,.06.05.11.09.05a5.24,5.24,0,0,1,1.89-1.7l.28-.15.29.52a10.08,10.08,0,0,0-1.72,1.79,8.28,8.28,0,0,0-.81,1.42,16.62,16.62,0,0,0-1.59,2.93,18.55,18.55,0,0,0-.87,2.54,23.5,23.5,0,0,0-.41,2.7s.05.06.07,0c.31-.82.59-1.64,1-2.44.2-.42.41-.83.65-1.24-.19.49-.35,1-.5,1.5-.42,1.54-.76,3.09-1.22,4.61S14,34.9,13.49,36.33a66.14,66.14,0,0,1-3.86,8.38L8.88,46l-.36.55c-.83,1.29-1.72,2.56-2.64,3.79S4.09,52.64,3.24,53.8a12.28,12.28,0,0,0-2,3.63s0,.1,0,.15A9.25,9.25,0,0,0,1,59,11.13,11.13,0,0,0,1,61.89c0,.33.1.65.17,1a24.46,24.46,0,0,0,1,3.34v0a12.66,12.66,0,0,0,.86,2l.23.37a5.33,5.33,0,0,0,.94,1.13,5.92,5.92,0,0,0,3.37,1.44h0l.17,0a6.84,6.84,0,0,0,4.89-1.08l.26,0a6.83,6.83,0,0,0,.92-.2l.07,0a5,5,0,0,0,1.13-.51,5,5,0,0,0,.46-.34,4.64,4.64,0,0,0,1.08-1.76l.21-.47h0l.55-.57.54-.57.18-.18h0c.51-.45,1-.91,1.52-1.35.33-.29.66-.57,1-.84a50.34,50.34,0,0,1,5.72-3.87c1.91-1.13,3.89-2.15,5.81-3.26l1.21-.28a12.13,12.13,0,0,0,1.77-.56,9.94,9.94,0,0,0,2.87-2,27.64,27.64,0,0,0,2-2.05A6,6,0,0,1,44,50.73c.33.07.88.69,1.51,1.58.31.43.64.93,1,1.45a69.75,69.75,0,0,1,3.37,8.56c1,2.94,1.95,5.89,3.12,8.76a49.44,49.44,0,0,0,4.63,8.71c1.94,2.93,4,5.81,6,8.7A28.27,28.27,0,0,0,65.36,102a43.53,43.53,0,0,0,8.11,13.33q1.61,1.86,3.35,3.6a26.58,26.58,0,0,1,1.54,5.22,48.09,48.09,0,0,1,.68,8.89c0,1,0,2.09-.08,3.13-.07,1.79-.16,9.82-.75,18.7l-.66,8.21h0L76.39,174.8c-.38,3.61-.67,6.28-.72,7.22a3,3,0,0,1,0,.31,8.8,8.8,0,0,1-1.27,3.91v0A14.13,14.13,0,0,0,72.89,188c-.17.27-.35.54-.54.79s-.58.69-.71.84l-.29.31c-.21.22-.42.44-.64.65a16.88,16.88,0,0,0-1.21,1.33l-.11.16,0-.1a16.43,16.43,0,0,0-2.75,3.55,6.49,6.49,0,0,0-.73,1.69,8.11,8.11,0,0,0-.26,2.34l0,.21c0,.1,5.17,2,13.39.09.7-.16,1-.82,1.31-1.46s.69-1.36,1-2.08a13.28,13.28,0,0,0,.75-2.44,6.94,6.94,0,0,0,0-1.82l0-.06a2.49,2.49,0,0,0,.21-.27,6.54,6.54,0,0,1,.34-1.37l.09-.2a4.08,4.08,0,0,1,.55-.79c.1-.11.2-.21.31-.31a2.49,2.49,0,0,0,1.1-1.11,1.71,1.71,0,0,0,.13-.23,2.16,2.16,0,0,0,.13-1.21h0a3.35,3.35,0,0,0-.1-.6h0l-.18-.94c0-.32-.08-.65-.1-1,0,0,0-.05,0-.07a70.17,70.17,0,0,1,.49-7.66c.35-2.62.82-5.43,1.23-8.19a42,42,0,0,1,1.21-5.22c0-.11.08-.23.11-.34l.06-.18c0-.13.09-.25.13-.38A22.24,22.24,0,0,1,89,159.27c.45-.86.89-1.74,1.29-2.63h0c.36-.81.7-1.63,1-2.47.2-.58.38-1.17.53-1.76,0-.76-.15-1.51-.25-2.26-.69-4.81.44-9.6.37-14.41,0-.32,0-.64,0-1,.72,1.28,1.38,2.59,2,3.9,1.27,2.59,2.51,5.19,3.77,7.79.49,1,1,2,1.48,3l.47,1c0,.13.07.26.11.39.1.38.19.77.28,1.15l.06.24c.32,1.32.61,2.64.94,3.95.12.46.24.92.38,1.37h0s.13.45.35,1.13c0,.08,0,.16.08.24a32.08,32.08,0,0,0,1.89,4.68c.34.77.68,1.54,1,2.33.89,2.49,1.69,5.57,1.78,5.94.86,3.6,1.53,7.25,2.26,10.87,0,.23.09.45.14.68a25.84,25.84,0,0,1,.4,4.49c0,.09,0,.19,0,.28v.06a8.38,8.38,0,0,1-2.1,4.25,2.69,2.69,0,0,1-.28.22.59.59,0,0,0-.23.27l-1,.86a1.5,1.5,0,0,0-.4.47h0l0,0a1,1,0,0,0-.11.56v0a1.52,1.52,0,0,0,.29.87,19.45,19.45,0,0,0-3,3.46,6.27,6.27,0,0,0-.85,1.7,7,7,0,0,0-.3,2.34,1.55,1.55,0,0,0,0,.21c0,.09,6,2,15.46.09.8-.16,1.12-.83,1.5-1.46a23.55,23.55,0,0,0,1.15-2.09,12.35,12.35,0,0,0,.87-2.43,7,7,0,0,0-.06-2.14c.32-.44.41-.7.23-1.57a13.22,13.22,0,0,0-.57-2.29l0-.16h0a1.24,1.24,0,0,0,0-.16c0-.06,0-.12,0-.19a5,5,0,0,1,.29-3.2,3.54,3.54,0,0,1,.48-.73c.23-.2.45-.35.61-.5a2.72,2.72,0,0,1,.83-.24.86.86,0,0,0,.83-.49,1.16,1.16,0,0,0,.2-.42h0c.58-1.47-1.78-6.43-1.78-6.43l0-.09a1.6,1.6,0,0,0-.1-.23q-.39-.88-.84-1.74c-.28-.73-.6-1.44-.92-2.15-1-2-2-4-3-6l-.21-.43-2.62-10.13c-.08-.61-.13-1.22-.18-1.83a38.74,38.74,0,0,0-.29-6.2,29.23,29.23,0,0,0-.56-4.26c-.07-.33-.15-.65-.24-1v0c0-.1,0-.13,0-.1a18.11,18.11,0,0,0-.73-2.07c-.44-1-.94-2-1.38-3.08a19.05,19.05,0,0,1-1.39-6.49,51.14,51.14,0,0,1,.2-6.55,55.73,55.73,0,0,1,.78-5.92c.19-.94.4-1.88.65-2.8l.21,0c8.53,1.41,17.85,3,26.48,2.88a118,118,0,0,0,18.56-2.09,51.74,51.74,0,0,0,6.78-2l.15-.06c2.19-.83,4.3-1.84,6.49-2.66a19.25,19.25,0,0,1,6.2-1.39,5.67,5.67,0,0,1,.61.28l.91.8,1.81,1.58c.5.61.95,1.26,1.37,1.89a60.34,60.34,0,0,1,3.72,6.36c.22.42.43.84.63,1.27a85.72,85.72,0,0,1,4.75,12.5c.72,2.4,1.37,4.81,2,7.24.31,1.2.6,2.41.89,3.61s.63,2.54.83,3.83a11.33,11.33,0,0,1-.1,4c-.2,1-.45,1.91-.71,2.85-.08.24-3.3,10.16-3.41,11.15-.35,1-.7,2.11-1.06,3.17-1.59,4.3-4.47,11.6-5.18,13l-.12.2c-.43.59-2.24,3.2-3.15,4.52l-.23.32c-.06.09-.12.19-.19.28l-.11.17h0l-.09.13c-3.53,2.63-2.73,3.16-2.73,3.16a2.12,2.12,0,0,0,.28.8,20,20,0,0,0-3,3.45,6.57,6.57,0,0,0-.85,1.7,7.29,7.29,0,0,0-.3,2.34,1.55,1.55,0,0,0,0,.21c0,.09,6,2,15.46.09.81-.16,1.12-.83,1.51-1.46a23.45,23.45,0,0,0,1.14-2.09,11.74,11.74,0,0,0,.87-2.43,6.78,6.78,0,0,0-.05-2.1c.77-1.17-.41-4.15-.41-4.15s0-.22.06-.32a2.43,2.43,0,0,1,.69-1.26,5.6,5.6,0,0,1,1.95-.57h0a2.1,2.1,0,0,0,1.14-.57c.94-.85,1-2.19.9-4.27.17-1,.4-2,.66-3,.1-.41.22-.81.33-1.21.23-.8.5-1.66.78-2.56.23-.72.47-1.43.71-2.14,1.33-4,2.63-8,4-12a57.64,57.64,0,0,1,2.18-5.41c.42-.9.87-1.78,1.36-2.63s1-1.61,1.48-2.46a3.84,3.84,0,0,0,.41-2.83,11.73,11.73,0,0,0-1.28-2.49,17.6,17.6,0,0,1-1.15-2.59l-.15-.46c0-.13,0-.26-.05-.39a27.91,27.91,0,0,1-.2-3.65c0-2.25.25-4.49.47-6.73a89,89,0,0,1,5.13,7.37,137.93,137.93,0,0,1,7.39,13.9c2,4.47,4.75,12.11,4.9,12.53l0,.08c.51,2.32.91,4.37,1.23,6.19l.12.72c.2,1.28.41,2.55.6,3.84.26,1.94.39,3.46.46,4.65a18.79,18.79,0,0,1-.66,6.25c-.83,1.66-2.49,3-3.92,4.47a1.65,1.65,0,0,0-.43.56,1.19,1.19,0,0,0,.08,1.5,19.93,19.93,0,0,0-2.92,3.36,6.27,6.27,0,0,0-.85,1.7,7,7,0,0,0-.3,2.34,1.55,1.55,0,0,0,0,.21c0,.09,6,2,15.46.09.8-.16,1.12-.83,1.5-1.46a23.55,23.55,0,0,0,1.15-2.09,12.35,12.35,0,0,0,.87-2.43,6.76,6.76,0,0,0,0-2.05c.8-1.57-.48-4.46-.48-4.46a6.08,6.08,0,0,1-.11-.87,3.19,3.19,0,0,1,1.21-2.56,4,4,0,0,1,1.06-.63h0c2,0,1.3-.86,1.3-.86-.42-1.5-.82-3-1.21-4.51-.88-4-1.92-9.41-2.53-11.14-.18-.88-.35-1.76-.51-2.65-.22-1.15-.42-2.31-.61-3.47-.94-6.46-2-15.61-2.1-16.69s-.17-2.11-.24-3.16a11.58,11.58,0,0,0-.69-4.26,14.81,14.81,0,0,0-2.65-3.11,15.71,15.71,0,0,1-2.35-3.26,11.17,11.17,0,0,1-1.1-4.17,26.26,26.26,0,0,0-.7-4.48c-.39-1.45-.9-2.86-1.27-4.32a21.64,21.64,0,0,1-.59-4.61c-.09-3.16.15-6.35.31-9.52l.18-3.42c1.12-5.94,2.55-11.83,3.13-17.86a49.41,49.41,0,0,0,.17-7.7h0a16.53,16.53,0,0,1,1.14,2.89A31.61,31.61,0,0,1,227,87.17a61.32,61.32,0,0,1-.57,13.26c-.6,4.65-1.39,9.29-1.59,14a48.44,48.44,0,0,0,1.23,13c1,4.16,6.08,13.51,6,13.11a49.65,49.65,0,0,1-1.3-10.78c.51,2.49,1.15,5,1.88,7.42,1.06,3.59,2.32,7.11,3.58,10.63a63.78,63.78,0,0,1,2.08,6.73c-.07-1.21-.19-2.42-.33-3.63-.39-3.39-1-6.76-1.58-10.14,1.38,3.17,2.94,6.26,4.21,9.47a28,28,0,0,1,2.32,11.74,31.4,31.4,0,0,0,.62-5.89c-.07-1.05-.19-2.09-.34-3.12l.51,1.28a57.87,57.87,0,0,1,2.81,9.84c.4,2.07.7,4.16,1,6.26a72.91,72.91,0,0,0-.59-13,90.09,90.09,0,0,0-3.29-14.21l-.51-1.62c2.85,6.63,5.83,13.2,6.83,20.42.55,3.92.53,11.83.54,11.81h0s.34-2.92.44-4.37A68.21,68.21,0,0,0,249.34,149.73Zm-60.43-12.28c.85,2.82,1.38,4.86,2,7.24m-179-88.22h0l0,0ZM115.37,197.32a21.1,21.1,0,0,0,2.44-.48h0A9,9,0,0,1,115.37,197.32Zm70.76,0a15.19,15.19,0,0,0,1.92-.41l.27-.06A8.84,8.84,0,0,1,186.13,197.3Zm43.31,0-.56,0a25.56,25.56,0,0,0,2.89-.46l.31-.06A9.12,9.12,0,0,1,229.44,197.33Z"/><path class="cls-4" d="M83,49.64c-.06-.09-.13-.17-.2-.26a12.89,12.89,0,0,0,1.37.84,12.61,12.61,0,0,0,1.54.71,11.8,11.8,0,0,0,4.33.64,19.64,19.64,0,0,0,2.54-.22c.66-.09,1.31-.19,2-.31l.31,0,.3-.06a2.16,2.16,0,0,0-.63-.08c-.46,0-1.07-.07-1.47-.07h-.37c-.69,0-1.37,0-2.06,0A12.67,12.67,0,0,1,86.49,50a14.6,14.6,0,0,1-3.29-1.74,22.55,22.55,0,0,1-2.82-2.53,5.91,5.91,0,0,0-1.76-1.31,4.34,4.34,0,0,0-.47-.16A1.74,1.74,0,0,1,77.7,44a2,2,0,0,1-.73-.67c-.09-.15,0,.64.22.86s.29.3.43.45a.08.08,0,0,0,0,.1l.37.34c.1.11.21.21.32.32.39.39.76.79,1.13,1.2A15,15,0,0,1,81,48.65c.92,1.46,1.87,2.92,2.74,4.42l.19.33c-.41-.28-.82-.56-1.24-.81s-1-.57-1.55-.85c-1-.54-2.1-1-3.11-1.56a9.54,9.54,0,0,1-2.52-2,26.38,26.38,0,0,1-3.73-5.46A35.8,35.8,0,0,0,68.61,37a22.59,22.59,0,0,0-5.51-4.5c-.13-.08.16.41.3.52l0,0a13,13,0,0,1,1.42,1.36,18.29,18.29,0,0,1,1.27,1.5,19.84,19.84,0,0,1,2,3.45,21.22,21.22,0,0,1,1.32,3.89c.37,1.58.52,3.18.76,4.77.13.91.19,1.81.24,2.72s.07,1.63.12,2.45c.14-.3.27-.59.39-.89.22-.53.37-1.1.55-1.66A9.91,9.91,0,0,1,72,49.26c.13-.62.24-1.25.31-1.89a8.45,8.45,0,0,0,0-1.33c.52.78,1.09,1.54,1.69,2.27a12.37,12.37,0,0,0,2.41,2.33,17.92,17.92,0,0,0,2.94,1.55c1.18.55,2.35,1.12,3.55,1.59A5.56,5.56,0,0,1,84.87,55a3.52,3.52,0,0,0,.36.51c.11.12.2.21.24.19a1.21,1.21,0,0,0-.06-.31,22.64,22.64,0,0,0-1.85-4.87C83.36,50.21,83.16,49.92,83,49.64Z"/><path class="cls-4" d="M21.47,17.55c1.37-.86,2.91-1.42,4.24-2.35a6.52,6.52,0,0,0,2-2.08l-.24-.56a4.23,4.23,0,0,1-.76.82,8,8,0,0,1-1.62.94l-.52.23c-.73.33-1.46.68-2.18,1l-.58.29a17.26,17.26,0,0,0-2.2,1.28l-.23.17a5.81,5.81,0,0,0-1.77,2.1c0,.06.06.11.1,0a5.05,5.05,0,0,1,1.89-1.69l.27-.16a17.42,17.42,0,0,1,2-.81c-.42.3-.82.62-1.23.94l-.47.39a9.73,9.73,0,0,0-1.72,1.79,7.66,7.66,0,0,0-.81,1.42A13.31,13.31,0,0,1,21.47,17.55Z"/><path class="cls-3" d="M18.56,22.88c.18-.2.36-.39.55-.58a11.74,11.74,0,0,0-.68,1.26,11.3,11.3,0,0,0-.67,1.66c-.15.43-.37,1.34-.37,1.35s0,.06,0,.07a4.55,4.55,0,0,0,.35-.62l.27-.58c.19-.39.38-.76.6-1.13a14.7,14.7,0,0,1,1.48-2.1,9.51,9.51,0,0,1,.67-.74l.39-.29a7.33,7.33,0,0,0-1.39,2.2c0,.06-.3,1.69-.28,1.64s.07-.24.11-.36a4,4,0,0,1,.53-.74,9.53,9.53,0,0,1,.71-.73,8,8,0,0,1,1.47-1.38,8.22,8.22,0,0,1,1.63-.87c.62-.27,1.24-.53,1.88-.76A15.52,15.52,0,0,0,28.77,19a3.38,3.38,0,0,0,1.59-2.4l0-.26L30,16.06a5.86,5.86,0,0,1-1.33,1.81,8.38,8.38,0,0,1-2.19,1.39,16.59,16.59,0,0,1-2.78.9c.74-.5,1.47-1,2.23-1.47a11.4,11.4,0,0,0,1.86-1.39,4.9,4.9,0,0,0,.83-1c-1,.65-2.13,1.18-3.2,1.74a20.82,20.82,0,0,0-4,2.54,17.25,17.25,0,0,1,1.77-1.88,31,31,0,0,1,3.75-2.56c.64-.4,1.32-.79,1.92-1.25-.09-.11-.18-.22-.26-.34l-.11-.15a8.33,8.33,0,0,1-.75-1.29,6.52,6.52,0,0,1-2,2.08c-1.33.93-2.87,1.49-4.24,2.35a13.31,13.31,0,0,0-3.86,3.8A17.34,17.34,0,0,0,16,24.28a22.36,22.36,0,0,0-.87,2.54,26.08,26.08,0,0,0-.41,2.7,0,0,0,0,0,.08,0c.3-.82.58-1.64.95-2.43.2-.43.42-.84.65-1.25s.38-.64.58-.94A17.28,17.28,0,0,1,18.56,22.88Z"/><path class="cls-4" d="M30.79,16.74c-.13-.13-.26-.24-.4-.36l0,.26A3.38,3.38,0,0,1,28.77,19a15.52,15.52,0,0,1-2.95,1.14c-.64.23-1.26.49-1.88.76a8.22,8.22,0,0,0-1.63.87,8,8,0,0,0-1.47,1.38,7.66,7.66,0,0,1,1.83-1.27A14.61,14.61,0,0,1,27,20.8a8.18,8.18,0,0,0,2.72-1.44,4.89,4.89,0,0,0,.73-.78A4.29,4.29,0,0,0,31,17.45a1.68,1.68,0,0,0,.09-.32A.47.47,0,0,0,31,17,1.33,1.33,0,0,0,30.79,16.74Z"/><path class="cls-3" d="M51.32,21.27c.52.89,1,1.78,1.63,2.62.39.56.81,1.1,1.23,1.65l.32.39c.65.78,1.28,1.56,2,2.31.34.36.67.73,1,1.07s.76.69,1.11,1.06a5.19,5.19,0,0,1-1.48-.81c-.41-.36-.83-.73-1.23-1.11-.79-.77-1.56-1.57-2.29-2.4-2.6-2.95-5.1-6.11-8.25-8.48A23.32,23.32,0,0,0,40,14.52c-.61-.25-1.22-.47-1.84-.67v0a10.27,10.27,0,0,1,.52,1,7.15,7.15,0,0,1,.75,3c.67,1.12,1.27,2.29,2,3.36a14.39,14.39,0,0,0,2.62,3l.14.13c.36.22.7.46,1,.71l.67.53a13.67,13.67,0,0,1,3.22,3.68,17.67,17.67,0,0,1,1.37,3c0-.33-.07-.66-.13-1a10.69,10.69,0,0,0-.91-2.82,16.12,16.12,0,0,0-1.55-2.54c.77.67,1.57,1.31,2.37,1.95A23.67,23.67,0,0,1,53,30.37a13.56,13.56,0,0,1,1.68,1.71A18.32,18.32,0,0,1,57,36c.3.63.58,1.28.84,1.93a6.83,6.83,0,0,0,0-1.11,10.42,10.42,0,0,0-.16-1.25c0-.26-.1-.52-.16-.78a10,10,0,0,1-.72-1.38,14.92,14.92,0,0,0-1.06-2,8.55,8.55,0,0,0-1.41-1.81.08.08,0,0,1,.1-.13,7.72,7.72,0,0,1,1.92,1.73c.54.68,1,1.4,1.56,2.1s.89,1.34,1.4,2a19.17,19.17,0,0,0,1.72,1.89c1.29,1.24,2.81,2.18,4.15,3.35A13.38,13.38,0,0,1,69.6,48a22,22,0,0,1,.8,2.61.17.17,0,0,0,0,.12c0-.91-.11-1.81-.24-2.72-.24-1.59-.39-3.19-.76-4.77a21.22,21.22,0,0,0-1.32-3.89,19.84,19.84,0,0,0-2-3.45,18.29,18.29,0,0,0-1.27-1.5,13,13,0,0,0-1.42-1.36l0,0c-.14-.11-.43-.6-.3-.52A22.59,22.59,0,0,1,68.61,37a35.8,35.8,0,0,1,3.2,5.66,26.38,26.38,0,0,0,3.73,5.46,9.54,9.54,0,0,0,2.52,2c1,.56,2.08,1,3.11,1.56.52.28,1,.56,1.55.85s.83.53,1.24.81l-.19-.33c-.87-1.5-1.82-3-2.74-4.42a15,15,0,0,0-1.58-2.06c-.37-.41-.74-.81-1.13-1.2-.11-.11-.22-.21-.32-.32l-.37-.34a.08.08,0,0,1,0-.1c-.14-.15-.3-.29-.43-.45s-.31-1-.22-.86a2,2,0,0,0,.73.67,1.74,1.74,0,0,0,.45.23,4.34,4.34,0,0,1,.47.16,5.91,5.91,0,0,1,1.76,1.31,22.55,22.55,0,0,0,2.82,2.53A14.6,14.6,0,0,0,86.49,50a12.67,12.67,0,0,0,4.09.82c.69,0,1.37,0,2.06,0l.17,0a.76.76,0,0,1,.2,0c.4,0,1,0,1.47.07-.47-.19-1-.42-1.12-.43a2.6,2.6,0,0,1-.39-.05l-.75-.15c-.49-.08-1-.17-1.46-.27-1-.21-1.93-.47-2.88-.77l-.26-.08.95.16a7.79,7.79,0,0,0,1,.12c.71,0,1.41.14,2.12.16a15.12,15.12,0,0,0,2.13-.11.08.08,0,0,0,.07,0c.78,0,1.56-.05,2.34,0a54.19,54.19,0,0,1,8,1.39l-.81-.28c-2.78-1-7.9-2.83-8.44-3.09a12.75,12.75,0,0,0-1.8-.72,13.69,13.69,0,0,0-1.69-.35c-.6-.25-1.2-.52-1.79-.82a4.4,4.4,0,0,0,.35.39,7.47,7.47,0,0,0,1.78,1.49c.69.37,1.41.71,2.12,1,.18.08.05.37-.13.32a14.44,14.44,0,0,1-3.48-1.41A6.72,6.72,0,0,1,88,45.63c-.66-.68-1.31-1.37-2-2A8.67,8.67,0,0,0,83.33,42a14.83,14.83,0,0,1-3-1.42l-.07,0c.47.79,1,1.58,1.44,2.36a11.06,11.06,0,0,0,1.87,2.17c.36.33.72.67,1.1,1s.78.57,1.17.86A11,11,0,0,1,83,45.56a17.7,17.7,0,0,1-2.31-2.27,19.83,19.83,0,0,1-1.8-2.79c-.58-1-1.19-1.94-1.81-2.9a48.24,48.24,0,0,0-3.74-5.23,32,32,0,0,0-4.36-4,67.05,67.05,0,0,0-5.4-4.13c-.08-.05,0-.05.06,0-.86-.45-1.74-.87-2.64-1.24-1.3-.75-2.58-1.54-3.85-2.33-1.79-1.11-3.58-2.23-5.4-3.28a38.08,38.08,0,0,0-11.42-4.73c-.39-.08-.8-.15-1.2-.21A18.25,18.25,0,0,1,48,17,18.45,18.45,0,0,1,51.32,21.27Zm-3.8-5.93.52.28c.17.08.35.12.53.19s.64.33,1,.48a21.08,21.08,0,0,1,1.85,1.06l.13.08a32.56,32.56,0,0,1,3.71,2.62,26.89,26.89,0,0,1,2.47,2.3c.78.83,1.49,1.72,2.21,2.59s1.43,1.77,2.24,2.58a20.09,20.09,0,0,0,2.56,2.13c1.84,1.3,3.77,2.46,5.54,3.86a17.87,17.87,0,0,1,2.32,2.2,9,9,0,0,1,1.62,2.5,17.63,17.63,0,0,1,1.48,3.9c0,.17-.22.29-.29.12a26.47,26.47,0,0,0-2.11-4.1,10.81,10.81,0,0,0-2.86-2.9c-2-1.4-4.28-2.32-6.39-3.51a18,18,0,0,1-5.9-5.14c-.82-1.15-1.41-2.45-2.19-3.63a15.39,15.39,0,0,0-2.39-2.83,24.9,24.9,0,0,0-3-2.36L49,16.64a5,5,0,0,1-.79-.57,3.91,3.91,0,0,0-.78-.55A.1.1,0,0,1,47.52,15.34Z"/><path class="cls-4" d="M38.13,13.85c.62.2,1.23.42,1.84.67a23.32,23.32,0,0,1,5.39,3.05c3.15,2.37,5.65,5.53,8.25,8.48.73.83,1.5,1.63,2.29,2.4.4.38.82.75,1.23,1.11a5.19,5.19,0,0,0,1.48.81c-.35-.37-.74-.7-1.11-1.06s-.69-.71-1-1.07c-.69-.75-1.32-1.53-2-2.31l-.32-.39c-.42-.55-.84-1.09-1.23-1.65-.6-.84-1.11-1.73-1.63-2.62A18.45,18.45,0,0,0,48,17a18.25,18.25,0,0,0-8.88-4.59h0a17.44,17.44,0,0,0-2.27-.31,10.81,10.81,0,0,1,1.34,1.77Z"/><path class="cls-4" d="M49,16.64l1.58,1.12a24.9,24.9,0,0,1,3,2.36A15.39,15.39,0,0,1,55.92,23c.78,1.18,1.37,2.48,2.19,3.63A18,18,0,0,0,64,31.72c2.11,1.19,4.4,2.11,6.39,3.51a10.81,10.81,0,0,1,2.86,2.9,26.47,26.47,0,0,1,2.11,4.1c.07.17.33.05.29-.12a17.63,17.63,0,0,0-1.48-3.9,9,9,0,0,0-1.62-2.5,17.87,17.87,0,0,0-2.32-2.2c-1.77-1.4-3.7-2.56-5.54-3.86a20.09,20.09,0,0,1-2.56-2.13c-.81-.81-1.51-1.7-2.24-2.58s-1.43-1.76-2.21-2.59a26.89,26.89,0,0,0-2.47-2.3,32.56,32.56,0,0,0-3.71-2.62l-.13-.08a21.08,21.08,0,0,0-1.85-1.06c-.32-.15-.63-.36-1-.48s-.36-.11-.53-.19l-.52-.28a.1.1,0,0,0-.1.18,3.91,3.91,0,0,1,.78.55A5,5,0,0,0,49,16.64Z"/><path class="cls-4" d="M63.56,24.21A67.05,67.05,0,0,1,69,28.34a32,32,0,0,1,4.36,4,48.24,48.24,0,0,1,3.74,5.23c.62,1,1.23,1.92,1.81,2.9a19.83,19.83,0,0,0,1.8,2.79A17.7,17.7,0,0,0,83,45.56a11,11,0,0,0,2.91,1.37c-.39-.29-.79-.56-1.17-.86s-.74-.64-1.1-1a11.06,11.06,0,0,1-1.87-2.17c-.49-.78-1-1.57-1.44-2.36l.07,0a14.83,14.83,0,0,0,3,1.42A8.67,8.67,0,0,1,86,43.63c.69.63,1.34,1.32,2,2a6.72,6.72,0,0,0,2.32,1.67,14.44,14.44,0,0,0,3.48,1.41c.18,0,.31-.24.13-.32-.71-.31-1.43-.65-2.12-1a7.47,7.47,0,0,1-1.78-1.49,4.4,4.4,0,0,1-.35-.39c-.38-.46-.72-1-1.08-1.45A11.41,11.41,0,0,0,87,42.27c-2.34-2.05-5.28-3.21-7.7-5.15a17.56,17.56,0,0,1-1.83-1.61,8.54,8.54,0,0,1-.8-.91c-.24-.34-.48-.67-.73-1a.15.15,0,0,0-.15-.07,16.66,16.66,0,0,0-1.29-1.62A24.3,24.3,0,0,0,70,28.12c-1-.71-2.27-1.5-3.5-2.25-1-.6-1.95-1.18-2.82-1.66l0,0C63.54,24.16,63.48,24.16,63.56,24.21Zm18,15.88-.1-.05a8.36,8.36,0,0,1-1.14-.71Z"/><path class="cls-4" d="M44,24.19a14.39,14.39,0,0,1-2.62-3c-.7-1.07-1.3-2.24-2-3.36a3.79,3.79,0,0,1-.07.63v0h0v0h0v0h0v0c-.06.15-.18.46-.3.86h0a1.54,1.54,0,0,0,0,.17h0l0,.08h0l0,.08h0a1.21,1.21,0,0,0,0,.18h0l0,.08v0l0,.08h0c0,.07,0,.13,0,.19v0l0,.08v0l0,.08v0a.36.36,0,0,1,0,.1h0s0,.05,0,.08V21a.38.38,0,0,1,0,.1h0v.52a5.36,5.36,0,0,0,1.14,1.65,37.82,37.82,0,0,0,3.64,2.63,14.17,14.17,0,0,1,1.73,1.56A29.31,29.31,0,0,1,47,30.37,10.4,10.4,0,0,0,46.91,29a8.08,8.08,0,0,0-.79-2.24c-.3-.58-.61-1.16-.94-1.73-.34-.25-.68-.49-1-.71Z"/><path class="cls-4" d="M65.23,40.47c-1.34-1.17-2.86-2.11-4.15-3.35a19.17,19.17,0,0,1-1.72-1.89c-.51-.64-.91-1.34-1.4-2s-1-1.42-1.56-2.1a7.72,7.72,0,0,0-1.92-1.73.08.08,0,0,0-.1.13,8.55,8.55,0,0,1,1.41,1.81,14.92,14.92,0,0,1,1.06,2,10,10,0,0,0,.72,1.38,15.91,15.91,0,0,0,2.09,2.66,36.31,36.31,0,0,0,4,3.32,16.93,16.93,0,0,1,3.83,3.48,19.7,19.7,0,0,1,2.22,4.48c0-.22-.07-.44-.11-.66A13.38,13.38,0,0,0,65.23,40.47Z"/></svg>