<svg xmlns="http://www.w3.org/2000/svg" viewBox="0 0 402.53 473.36"><defs><style>.cls-1{isolation:isolate;}.cls-18,.cls-19,.cls-2,.cls-20,.cls-8,.cls-9{fill:#ecb88d;}.cls-10,.cls-11,.cls-12,.cls-13,.cls-14,.cls-15,.cls-16,.cls-17,.cls-18,.cls-19,.cls-2,.cls-20,.cls-3,.cls-4,.cls-5,.cls-6,.cls-7,.cls-8{stroke:#000;stroke-miterlimit:10;}.cls-2{stroke-width:0.94px;}.cls-3{fill:#ffec00;}.cls-3,.cls-4,.cls-5,.cls-6,.cls-7{stroke-width:0.25px;}.cls-4{fill:#ffcf29;}.cls-23,.cls-4{mix-blend-mode:multiply;opacity:0.5;}.cls-5{fill:#ffb629;}.cls-7{fill:#fffc9c;}.cls-10,.cls-11,.cls-13,.cls-14,.cls-8{stroke-width:1.07px;}.cls-10{fill:#d5a47d;}.cls-11{fill:#942812;}.cls-12,.cls-21{fill:none;}.cls-12{stroke-width:1.6px;}.cls-13{fill:#8f2c10;}.cls-14{fill:#eebd8c;}.cls-15{fill:#edf2ee;}.cls-15,.cls-16,.cls-17{stroke-width:0.53px;}.cls-16{fill:#386681;}.cls-17{fill:#000310;}.cls-18{stroke-width:1.54px;}.cls-19{stroke-width:1.44px;}.cls-20{stroke-width:1.29px;}.cls-22{fill:#95614d;}.cls-24{fill:#618d2c;}.cls-25{fill:#aece37;}</style></defs><g class="cls-1"><g id="Layer_1" data-name="Layer 1"><path class="cls-2" d="M20.33,338.4s22.53,5.47,30,4.22,10-3.75,10-3.75l-2.49-15-4.48-5.35-14.27-5.9H30.36"/><path class="cls-3" d="M31.37,358.94A14,14,0,0,0,39,364.67c3.56,1.16,6.63,2.14,9.59,4.53a.67.67,0,0,0,.92,0,2.7,2.7,0,0,0,1.75-1.52,3.69,3.69,0,0,0,.38-1.19.69.69,0,0,0,.33-.8c-.67-2.32,1.32-4.62,1.39-7,.09-2.71-2.07-5.57-3.23-7.88a37.7,37.7,0,0,1-3.66-20.75,66,66,0,0,1,1.69-9.88c.78-3.09,2-6.08,2.65-9.19a20,20,0,0,0,0-9.17c-.64-2.76-2.18-4.59-3.45-6.9a7.58,7.58,0,0,1,.34-1.61,35.17,35.17,0,0,1,1.8-3.95.36.36,0,0,0-.11-.49c-.29-.88-1.45-1.39-2.25-1.66a9.71,9.71,0,0,0-2.2-.55.26.26,0,0,0-.16-.09c-1.58-.29-1.9,2.27-2.1,3.3a23.35,23.35,0,0,1-.93,3.77c-2.67,1.91-5.61,3.4-8.13,5.5a20.09,20.09,0,0,0-6.09,9.08c-2.82,8.11-2.89,17-2.2,25.45S26.58,351.65,31.37,358.94Z"/><path class="cls-4" d="M25.36,333.67c-.69-8.47-.62-17.34,2.2-25.45a20.09,20.09,0,0,1,6.09-9.08A87,87,0,0,1,41,294.2c1.92.16,3.78-.17,5-1.89.78-1.11,2.37-3.13,2.17-4.69a2.42,2.42,0,0,1,1.27,1.25.36.36,0,0,1,.11.49,35.17,35.17,0,0,0-1.8,3.95,7.34,7.34,0,0,0-.33,1.5c-4.31-.78-6.66,5.79-7.7,9.44a75,75,0,0,0-3,25.62,155,155,0,0,0,2.07,18c.92,4.95,2.6,10.11,6.43,13.61,1.06,1,2.64,2.71,4.29,2.4a6.2,6.2,0,0,0,2.85-1.45,5.17,5.17,0,0,0-.33,3.23.69.69,0,0,1-.33.8,3.69,3.69,0,0,1-.38,1.19,2.7,2.7,0,0,1-1.75,1.52.67.67,0,0,1-.92,0c-3-2.39-6-3.37-9.59-4.53a14,14,0,0,1-7.65-5.73C26.58,351.65,26.05,342.1,25.36,333.67Z"/><path class="cls-5" d="M52,365.65a.69.69,0,0,1-.33.8,3.49,3.49,0,0,1-.2.77c-.13-.32-.25-.65-.35-1a4.76,4.76,0,0,1,.13-3.86,6.92,6.92,0,0,0,.47-2c.32-3.28-2.74-6.13-4.34-8.72-5.15-8.32-3.52-19.12-1.82-28.27,1.12-6,2.8-12.18,3-18.32.12-4.06-.44-8.84-4.39-10.65a5.41,5.41,0,0,0,3-2.78c.63-1.13,1.6-2.53,1.4-3.83a2.07,2.07,0,0,1,.91,1,.36.36,0,0,1,.11.49,35.17,35.17,0,0,0-1.8,3.95,7.58,7.58,0,0,0-.34,1.61c1.27,2.31,2.81,4.14,3.45,6.9a20,20,0,0,1,0,9.17c-.69,3.11-1.87,6.1-2.65,9.19a66,66,0,0,0-1.69,9.88,37.7,37.7,0,0,0,3.66,20.75c1.16,2.31,3.32,5.17,3.23,7.88C53.31,361,51.32,363.33,52,365.65Z"/><path class="cls-6" d="M48.58,368.23c0-.09.08-.18.13-.27a1.67,1.67,0,0,1,.19-.79,2.89,2.89,0,0,1,2.84-1.48.65.65,0,0,1,.53.54.34.34,0,0,0,0,.1,1.28,1.28,0,0,1,.07,1.22,2.64,2.64,0,0,1-2.7,1.63,1,1,0,0,1-.18-.06h-.39A.65.65,0,0,1,48.58,368.23Z"/><path class="cls-7" d="M43.31,293.42a10.41,10.41,0,0,0,1-3.13,9.67,9.67,0,0,1,.83-3c.27-.48,1.22-.55,1.22.17a8.59,8.59,0,0,1-1,3.49,8.46,8.46,0,0,1-1.76,2.75C43.48,293.82,43.2,293.61,43.31,293.42Z"/><path class="cls-7" d="M44.68,295.93a.13.13,0,0,1,.24.1,121.14,121.14,0,0,0-6.54,28c0,.23-.41.23-.42,0C37.54,314.58,40.49,304.36,44.68,295.93Z"/><path class="cls-7" d="M42.1,330.36a.12.12,0,1,1,.23,0,73.77,73.77,0,0,0,2.08,12.19,39.67,39.67,0,0,0,5.93,11.8c.08.11-.07.27-.17.17a23.51,23.51,0,0,1-6.68-10.79C42.34,339.41,42.21,334.78,42.1,330.36Z"/><path class="cls-8" d="M174.47,146.38c1.49,6,7.45,11.91,9.31,14.09,3.95,1.79,10.06,5.27,10.06,5.27s1.49-13.4,3-11.92,0,6,1.49,7.45,5.95-8.93,8.93-7.45a1.7,1.7,0,0,1,.75.65,6.77,6.77,0,0,0,3.9-6.62.55.55,0,0,1-.18,0c-4,0-5.58-4.71-5.9-6.8a4.93,4.93,0,0,1-6,2.33c-4.47-1.49-3-10.43-3.53-10.65a12.12,12.12,0,0,0,2-5.74,1.77,1.77,0,0,0-.73-1.58,1.68,1.68,0,0,0-.47-.21c-2.22-.78-7.13,1.12-10.66,1.66a9.62,9.62,0,0,1-1.55.13C180.43,127,173,140.42,174.47,146.38Z"/><path class="cls-8" d="M196.82,152.34c4.46-11.92-7.45-13.41-7.45-13.41,1.86,0,4.88-2.91,6.9-6.18"/><path class="cls-8" d="M186.45,126.88c3.53-.54,8.44-2.44,10.66-1.66.64-2.77-.61-5.66-4.76-5.66C187.66,119.56,186.66,124.2,186.45,126.88Z"/><path class="cls-9" d="M205.81,141.07a4.58,4.58,0,0,1-.06-.65"/><path class="cls-9" d="M101.48,274.48c6,1.49,7.45,1.49,13.41,1.49,0,0-10,22.82,11.93,32.19h0c.47.19,1,.39,1.46.58a42.13,42.13,0,0,0,7,.66c14.24.22,28.51-6.19,36.18-12.58a42.26,42.26,0,0,0,3.38-5.06c4.61-7.95,10.92-23.83-1.89-36.64,0,0,14.9-26.82-11.91-44.69-17.88-7.45-32.77,11.92-32.77,20.85,0,0-26.82-10.42-34.26,7.45C86.59,255.12,95.52,273,101.48,274.48Zm31.46-6c2.27-15.92,17.7-8.91,17.7-8.91-3.37,1.69-6.55,5.28-6.3,12.79C140.14,268.05,136.24,267.6,132.94,268.49Z"/><path class="cls-10" d="M132.94,268.49c3.3-.89,7.2-.44,11.4,3.88-.25-7.51,2.93-11.1,6.3-12.79C150.64,259.58,135.21,252.57,132.94,268.49Z"/><path class="cls-11" d="M84.46,268.3a26.47,26.47,0,0,0,8.09,6.18A44.9,44.9,0,0,0,91,279.16c-.16.61-.31,1.26-.46,1.95-.92,4.35-1.3,9.71,1.52,12.35l.51-.61c.11-1.79.46-5,1.43-5a19.38,19.38,0,0,0,.22,2.54c.56,3.59,2.43,9.82,8.71,10.86v-4.47s4.47,10.43,8.94,10.43c0,0-1.49-4.47,0-6,0,0,2.43,8.48,14.91,6.87C104.89,298.79,114.89,276,114.89,276c-6,0-7.45,0-13.41-1.49S86.59,255.12,94,238.73c7.44-17.87,34.26-7.45,34.26-7.45,0-8.93,14.89-28.3,32.77-20.85C187.88,228.3,173,255.12,173,255.12c12.81,12.81,6.5,28.69,1.89,36.64,4.77-2.8,11.68-9.19,14.5-23.24,0,0,4.44-1.47,4.47,0,0-1.24-.21-9.13-1.49-10.41a4.63,4.63,0,0,1,3,1.48s1.49-8.93-3-11.91c0,0,3-1.49,4.47-1.49,0,0-.17-.21-.44-.57-1.19-1.5-4.6-5.67-7-6.88,0,0,0-.21,0-.6h0a82.05,82.05,0,0,0-2.19-16.8C185.35,214,182,206.36,176,203c.1.22,1.41,3,0,4.45-1.49,0-8.94-13.41-19.36-14.9,0,0,3,4.47,1.49,6,0,0-11.92-11.91-20.86-8.94,0,0,3,3,3,4.47a87,87,0,0,0-20.85-3c-8.94,0-8.94-4.46-8.94-4.46S101.48,195.53,100,206c0,0-3-1.49-3-3s-7.44,6-7.44,14.9c0,0-4.47-1.49-3-4.47s-11.92,11.91-6,23.83c-1.49,0-4.47,0-4.47-1.49C76.16,234.5,73,255.44,84.46,268.3Z"/><path class="cls-12" d="M92.1,293.46a2.43,2.43,0,0,0,.45.39c0,.52,0-.05.06-1"/><path class="cls-12" d="M176,203l0,0"/><path class="cls-12" d="M193.84,268.51v.16"/><path class="cls-12" d="M171.49,265.54s-8.93,37.24-46.17,26.82"/><path class="cls-12" d="M161.07,293.85s-6,4.46-10.43,4.46"/><path class="cls-12" d="M150.64,259.58a15.3,15.3,0,0,1,7.45-1.48"/><path class="cls-12" d="M132.94,268.49c-4.27,1.13-7.53,4.5-9.11,4.5"/><path class="cls-8" d="M187.16,221.32a82.05,82.05,0,0,1,2.19,16.8h0c0,.39,0,.6,0,.6,2.41,1.21,5.82,5.38,7,6.88,21.11,3.22,19.64-23.68,16.82-30.71-5.11-4.55-10.22-4.55-14.58-2.8C193.15,214.27,188.85,219.17,187.16,221.32Z"/><path class="cls-12" d="M210.22,231.28s-1.49-17.87-11.91-8.93a30.88,30.88,0,0,0-5.16,7.1,55.23,55.23,0,0,0-3.8,8.67"/><path class="cls-12" d="M201.28,234.26s-3-10.42-10.42-3"/><path class="cls-8" d="M76.16,298.31c5.77,0,11.54,0,15.94-4.85-2.82-2.64-2.44-8-1.52-12.35-.46-.48-1-1-1.58-1.59.78-.15,1.48-.27,2-.36a44.9,44.9,0,0,1,1.51-4.68,26.47,26.47,0,0,1-8.09-6.18c-7.2-2.89-18.35-5.51-23.2,3.2C53.82,283.42,68.71,298.31,76.16,298.31Z"/><path class="cls-12" d="M68.71,277.46c7.11-8.12,15.61-2.4,20.29,2.06"/><path class="cls-12" d="M79.14,284.91c0-3,5.9-4.62,9.86-5.39"/><path class="cls-13" d="M50.84,343H51c4.13.06,40.19,1.49,49,1.49,8.94,0,31.28-8.94,34.26-10.43s6,0,4.47,3-1.49,13.41,1.49,29.79a29.61,29.61,0,0,0,1.31,4.86c4.73,13.11,18.12,20.68,35.07,24.73h0l.85.21c9.65,2.23,20.8-1.84,29.9-9.08s16.28-17.71,17.77-28.16c0-.15,0-.29,0-.44,1.12-22.34-26.85-56.2-31.29-60.64a16.09,16.09,0,0,1-4.47-10.42c23.83-23.84,34.26-68.52,34.26-68.52l-6,3c6-8.94,4.47-20.86,4.47-22.35,0,3-3,6-3,4.47,1.49-1.49,0-17.87,0-17.87-1.31,3.9-3.75,3.26-4.33,4,4.08-13.2-7.6-23.44-9.08-27.87-1.29-3.9,3.07-6.66,2.24-8.29a1.7,1.7,0,0,0-.75-.65c-3-1.48-7.44,8.94-8.93,7.45s0-6-1.49-7.45-3,11.92-3,11.92-6.11-3.48-10.06-5.27c-3.35-1.52-5.15-1.8-.37,2.29,17.67,13.89,16.09,40.59,15.21,49.34,4.36-1.75,9.47-1.75,14.58,2.8,2.82,7,4.29,33.93-16.82,30.71.27.36.44.57.44.57-1.49,0-4.47,1.49-4.47,1.49,4.47,3,3,11.91,3,11.91a4.63,4.63,0,0,0-3-1.48c1.28,1.28,1.46,9.17,1.49,10.41,0-1.46-4.47,0-4.47,0-2.82,14.05-9.73,20.44-14.5,23.24a42.26,42.26,0,0,1-3.38,5.06c-7.67,6.39-21.94,12.8-36.18,12.58-2.93,2.74-9.87,7.74-24.89,12.75-22.34,7.45-55.11-3-55.11-3s-2-1-2.74-.52a.57.57,0,0,0-.24.52c0,1.49,4.47,6,4.47,6s-8.94-1.49-8.94,0,6,5.95,4.47,7.44-10.43,0-10.43,1.49,11.92,3,14.9,4.47S47.86,343,50.84,343Z"/><path class="cls-12" d="M214.81,190.65a0,0,0,0,1,0,0,0,0,0,0,0,0,0"/><path class="cls-14" d="M163.3,315.44s14.15-2.23,26.07,17.13,6,44.69-4.47,47.67-26.81-7.45-32.77-20.85-.75-41,11.17-43.95Z"/><path class="cls-13" d="M232.57,395.14c0,1.49-22.35,28.3-22.35,28.3a15,15,0,0,0,3.8.64,7.48,7.48,0,0,0,3.65-.64c3-1.49,0,4.47,0,6s4.47-1.49,6-4.47,1.49,11.91,3,11.91,1.49-5.95,3-8.93,6,8.93,6,8.93V420.46c0-3,17.87-22.34,17.87-31.28,0-7.57-20.24-23.64-28.29-30.23,0,.15,0,.29,0,.44-1.49,10.45-8.6,20.91-17.77,28.16C215.63,393.65,232.57,393.74,232.57,395.14Z"/><path class="cls-14" d="M204.26,456.21c4.47,7.45,10.43-1.49,10.43-3s0-7.45,3-7.45c4.47,1.49,3,13.41,1.49,17.88s5.12,13.72,9.76,5.64c2.23,2.42,7.22,3.79,11.09-2.66a35.12,35.12,0,0,0,.57-4.71c8.77-4.2-1.09-23.16-5-30v4.94s-4.47-11.91-6-8.93-1.49,8.93-3,8.93-1.49-14.89-3-11.91-6,6-6,4.47,3-7.45,0-6a7.48,7.48,0,0,1-3.65.64,102.09,102.09,0,0,0-6.78,11.27C205.75,438.33,199.8,448.76,204.26,456.21Z"/><path class="cls-12" d="M234.06,447.27s7.16,2.38,6.52,14.66"/><path class="cls-12" d="M226.61,447.27s7.58,11.25,2.31,22h0"/><path class="cls-13" d="M113.4,389.18c1.49,7.45,19.36,31.28,19.36,34.26a65.22,65.22,0,0,0,.76,7.13c.36,2.58.73,4.78.73,4.78s4.47-8.93,6-7.44,4.47,8.93,4.47,8.93,0-11.91,1.49-11.91c1,0,4.39,1.23,6.72,1.71h0c1.27.27,2.21.3,2.21-.22,0-1.49-7.45-8.94-8.94-10.43s-11.92-17.87-11.92-17.87,29.6,0,42.34-1.7c-17-4.05-30.34-11.62-35.07-24.73C135.43,373.19,114.67,379,113.4,389.18Z"/><path class="cls-14" d="M106.18,453.83a8.93,8.93,0,0,0-.23.89c-1.49,7.45,7.45,8.94,8.94,7.45a61.92,61.92,0,0,0,4.84-7.12,11.77,11.77,0,0,0,10.06,1.16c4.46-1.49,14.89-8.94,20.85-16.39a13.32,13.32,0,0,0,2.26-13.18h0c-2.33-.48-5.75-1.71-6.72-1.71-1.49,0-1.49,11.91-1.49,11.91s-3-7.44-4.47-8.93-6,7.44-6,7.44-.37-2.2-.73-4.78a73.85,73.85,0,0,0-17.14.32c-10.64,2.36-11.89,9.41-12,12.23a16.44,16.44,0,0,0-2.94,7.13C101.48,451.22,104,452.81,106.18,453.83Z"/><path class="cls-12" d="M119.73,455.05c-.13-.11-.27-.23-.37-.33-1.49-1.49-4.47-7.45,8.94-8.94"/><path class="cls-12" d="M106.18,453.83c2.08-7,11.81-12.52,14.67-12.52"/><path class="cls-12" d="M104.42,443.12a18.19,18.19,0,0,1,13.45-7.77"/><ellipse class="cls-15" cx="152.87" cy="234.26" rx="11.92" ry="17.13" transform="matrix(0.84, -0.54, 0.54, 0.84, -102.55, 120.21)"/><ellipse class="cls-16" cx="152.58" cy="238.18" rx="7.12" ry="10.24" transform="translate(-104.72 120.67) rotate(-32.81)"/><ellipse class="cls-17" cx="152.53" cy="239.59" rx="4.17" ry="5.99" transform="translate(-105.49 120.87) rotate(-32.81)"/><ellipse class="cls-15" cx="114.14" cy="252.14" rx="11.92" ry="17.13" transform="translate(-118.41 102.07) rotate(-32.81)"/><ellipse class="cls-16" cx="113.85" cy="256.05" rx="7.12" ry="10.24" transform="matrix(0.84, -0.54, 0.54, 0.84, -120.58, 102.54)"/><ellipse class="cls-17" cx="113.8" cy="257.47" rx="4.17" ry="5.99" transform="translate(-121.36 102.74) rotate(-32.81)"/><ellipse class="cls-18" cx="24.74" cy="331.37" rx="13.12" ry="7.72"/><ellipse class="cls-19" cx="23.49" cy="321.38" rx="11.87" ry="7.5"/><ellipse class="cls-20" cx="24.12" cy="311.49" rx="11.25" ry="6.36"/><path class="cls-2" d="M55.36,321.38c0-1.25-7.21-13.8-14.86-15s-5.14,11.28-.14,12.53,10,3.75,8.75,5"/><path class="cls-21" d="M100.13,155.69c-1.68-1.87-1.87-1.91.67-3.31-.22,1.1-.44,2.2-.67,3.31C99.93,155.47,100.22,154.61,100.13,155.69Z"/><path class="cls-22" d="M394.06,216.3s-32.24.48-70.18-14.2c-23.95-7.68-31.84-9-40.42-12.42s-22.82-5.42-35.9-11.52c-14.69-6.32-29.14-7.22-39.53-9s-43.8-12.65-59.4-19.65c-15.79-6.55-36.56-18.74-49-26.19C92,119,90.82,117,86.55,112.89s-25.1-18.74-25.1-18.74l3.86-6.54a264.19,264.19,0,0,1,24.38,15.13c8.14,5.86,14,8.13,26.65,13.09s15.13,5.65,15.13,5.65-4.51-9-9.25-14.91-16.71-19.19-16.71-19.19l3.62-2.49s13.77,11.3,17.6,16.26,6.55,12.2,11.75,17.39,5.43,8.36,37.47,14.23c23.72,4.29,44.72,5.42,52.85,7.67s17.86,8.05,23.95,9.72c9,2.49,19,2.48,27.33,1.81,9.94-1.13,44.71,9,52.82,11.51a218.77,218.77,0,0,0,36.38,8.59c16.26,2.26,19.19,3.83,24.6,3.61l5.43-.23s2.93-.22,1.57,18.52C400,204.13,396.72,213.32,394.06,216.3Z"/><path class="cls-22" d="M323.73,202.56c-11.67-3.74-19.68-6-25.51-7.68a154.44,154.44,0,0,1-15-4.75A119.4,119.4,0,0,0,271,186.44c-7.33-1.94-15.65-4.12-23.59-7.82-11.47-4.94-22.94-6.58-32.15-7.9-2.58-.36-5-.72-7.28-1.1-10.11-1.77-43.78-12.63-59.48-19.68-15.53-6.43-35.43-18.05-49.06-26.23a39.71,39.71,0,0,1-10.83-8.15c-.71-.71-1.48-1.47-2.38-2.3-4.2-4-24.81-18.57-25-18.71l-.35-.26L65.11,87l.43.22A271.24,271.24,0,0,1,90,102.34c7.92,5.73,13.53,7.93,25.87,12.77l.66.27c8.36,3.28,12.29,4.69,14,5.27a92.29,92.29,0,0,0-8.65-13.77c-4.68-5.8-16.57-19-16.71-19.18l-.37-.41,4.39-3,.28.24c.57.46,13.87,11.38,17.7,16.33a64.34,64.34,0,0,1,4.32,6.81c2.11,3.67,4.3,7.46,7.38,10.54.49.5.94,1,1.36,1.42,4.05,4.29,7,7.38,35.86,12.67,12.22,2.21,23.8,3.6,33.11,4.7,8.83,1.06,15.81,1.88,19.78,3a96.64,96.64,0,0,1,13.68,5.51,75.91,75.91,0,0,0,10.25,4.21c7.44,2,16.56,2.64,27.14,1.8a14.24,14.24,0,0,1,1.8-.1c13.05,0,49.7,11.15,51.26,11.62l1.43.45a209.59,209.59,0,0,0,34.85,8.12c7.3,1,11.91,1.89,15.27,2.54,4.09.77,6.3,1.19,9.24,1.08l5.45-.24a1.09,1.09,0,0,1,.8.43c1.1,1.18,2.23,5.38,1.26,18.63-.91,10.32-4.25,19.6-6.95,22.6l-.14.16h-.59C390.28,216.79,359.45,216.39,323.73,202.56Zm76.66-8.62c1.24-17-1.11-18-1.06-18l-5.43.23c-3,.12-5.31-.32-9.44-1.09-3.37-.65-8-1.52-15.25-2.53a211.28,211.28,0,0,1-35-8.15l-1.45-.45c-1.53-.47-38.05-11.58-50.95-11.58a15,15,0,0,0-1.71.08q-16.11,1.31-27.49-1.82a77.38,77.38,0,0,1-10.41-4.27,94.94,94.94,0,0,0-13.51-5.44c-3.91-1.09-10.86-1.91-19.65-3-9.33-1.11-20.91-2.5-33.16-4.71-29.2-5.34-32.21-8.54-36.39-13l-1.36-1.41c-3.16-3.16-5.39-7-7.53-10.72a60.65,60.65,0,0,0-4.25-6.71c-3.45-4.48-15.27-14.3-17.27-15.94l-2.84,2c2.07,2.3,12.12,13.57,16.35,18.79,4.72,5.86,9.28,14.91,9.33,15l.47,1-1-.28c-.12,0-2.66-.74-15.18-5.66l-.69-.26c-12-4.72-18-7.1-26.08-12.9A256.68,256.68,0,0,0,65.47,88.27L62.11,94c2.89,2,20.77,14.73,24.76,18.53.9.86,1.67,1.62,2.38,2.34a39.7,39.7,0,0,0,10.64,8c13.61,8.16,33.49,19.76,49,26.16,15.67,7,49.2,17.87,59.29,19.62,2.23.39,4.65.73,7.23,1.11,9.29,1.32,20.82,3,32.41,8,7.87,3.67,16.14,5.85,23.42,7.78a114,114,0,0,1,12.43,3.72c4.37,1.73,8.56,2.92,14.85,4.72,5.86,1.66,13.87,3.94,25.59,7.7,35.58,13.78,66.25,14.17,69.63,14.17h.14C396.39,212.76,399.52,203.86,400.39,193.94Z"/><g class="cls-23"><path class="cls-22" d="M61.45,94.15s20.8,14.68,25.1,18.74,5.4,6.1,13.09,10.4c12.43,7.45,33.2,19.64,49,26.19,15.6,7,49,17.84,59.4,19.65s24.84,2.71,39.53,9c13.08,6.1,27.32,8.13,35.9,11.52s16.47,4.74,40.42,12.42c37.94,14.68,70.18,14.2,70.18,14.2,2.66-3,5.93-12.17,6.82-22.33,1.36-18.74-1.57-18.52-1.57-18.52l-5.43.23c-5.41.22-8.34-1.35-24.6-3.61a218.77,218.77,0,0,1-36.38-8.59C324.79,161,290,150.84,280.08,152c-8.37.67-18.31.68-27.33-1.81-5.57-1.53-14.19-6.5-21.86-9.06,5.43,2.76,16.57,8.27,24.61,11.17,11,4,23.52,1.53,32.68,3.37s7.66,1.83,11.33,4S313,163,319.67,164.8s7.64.3,24.16,4.29,22.91,11.3-1.23,4-51-13.45-41.26-8.87,43.4,14.06,66,18.64,19.27,7.33-1.23,4.28S313.56,171.53,298,168.17a174.31,174.31,0,0,1-22.49-6.7c6.91,3.53,19.13,10.58,38.07,15.25C337.1,182.53,370.21,195,385.82,198s-.12,5-12.36,2.55c-25.66-4.58-40.66-12.22-54.71-16.81s-42.79-8.55-40-6.72,31.8,8.25,47.68,14.37,60.53,20.52,48,16.85S313,192,291.87,184.67s-30-8.86-20.18-10.39c11.91-1.83-1.84-12.23-21.39-20.48-32.4-14.67-85.58-17.12-85.27-10.39s7.63,8.25,13.44,12.83,4,3.06-21.71-5.19c-23.52-7.34-44-24.14-40.32-22s18,9.16,26.57,13.45,22.33,7.33,22.33,7.33-5.81-4.89-22.63-12.23-33.93-20.48-40-23.53,5.19-.92,15,4,21.68,11.62,18.63,7.34-5.19-7.95-8.86-14.06-11.91-16.51-9.77-16.2,7.33,5.19,11.91,13.14,6.72,9.17,11.3,14.66c4.3,5.18,21.81,9.53,39.13,10.56l-4.05-.71c-32-5.87-32.28-9-37.47-14.23s-7.9-12.42-11.75-17.39-17.6-16.26-17.6-16.26l-3.62,2.49s12,13.33,16.71,19.19,9.25,14.91,9.25,14.91-2.49-.68-15.13-5.65-18.51-7.23-26.65-13.09A264.19,264.19,0,0,0,65.31,87.61Zm172.64,74.33c9.16,0,22.63.61,17.13-4s-26-10.1-26-10.1c-17.1-4-.3-2.75,14.67,1.23s25.37,12.53,15.6,14.36S224.93,168.48,234.09,168.48Zm-10.57-6.23c-3.79-.65-8.18-1.69-11-4.49-.18-.19-.56-1.07-.09-1.19,3.88-1,7.07-.22,10.79.46,1.29.24,2.58.32,3.87.53,3,.51,6.91,1.06,8.67,3.89.12.2.38.93,0,1C231.86,163.57,227.44,162.93,223.52,162.25Zm-29.47-1.42c-13.75-7-22.6-12.22-22-15.59s60.2,1.54,46.15,3.06c0,0-19.55-2.44-29.05-.61s8.55,15,29.66,19.26C229.2,169.09,207.82,167.86,194.05,160.83Z"/></g><path class="cls-22" d="M390.4,184l-3.95-.91c-1.26-.27-2.82-.53-4.58-.86s-3.78-.67-5.95-1.1-4.44-1.16-6.86-1.84-5-1.41-7.73-2c-1.36-.31-2.72-.61-4.16-.83l-4.23-.77c-2.89-.45-5.71-1.22-8.57-1.87s-5.71-1.45-8.51-2.17-5.55-1.53-8.22-2.25l-14.57-4c-4.26-1.15-7.83-2.08-10.34-2.65l-4-.92,3.92,1.11c1.22.33,2.75.75,4.47,1.28l5.78,1.71c4.23,1.27,9.19,2.74,14.47,4.33l8.23,2.32c2.79.74,5.64,1.54,8.5,2.25s5.78,1.37,8.65,1.81l4.25.74c1.41.2,2.78.49,4.11.78,2.69.6,5.27,1.26,7.74,1.88s4.77,1.24,6.95,1.7,4.21.64,6,.91,3.34.47,4.6.7Z"/><path class="cls-22" d="M393.57,189.66s-.47-.16-1.15-.33c-.33-.09-.73-.15-1.15-.25s-.87-.16-1.32-.22c-.91-.08-1.81-.23-2.51-.23a7.82,7.82,0,0,0-1.2.05,7.54,7.54,0,0,0,1.08.5,10.42,10.42,0,0,0,1.15.37,6.37,6.37,0,0,0,1.34.27c.47.05.94.11,1.39.12a9,9,0,0,0,1.2-.06A5.43,5.43,0,0,0,393.57,189.66Z"/><path class="cls-22" d="M392.58,193.33l-1.45,0c-1,0-2.35-.08-4.14-.23a58.68,58.68,0,0,1-6.32-.93c-2.39-.56-5.1-1.37-8-2.16s-6.15-1.65-9.53-2.54l-10.65-2.79-5.64-1.46c-1.88-.51-3.78-1.1-5.71-1.63-1-.29-1.92-.56-2.89-.84l-2.89-.94-5.8-1.89-22.78-7.31-10.47-3.34c-3.36-1-6.44-2.24-9.26-3.36-5.64-2.32-10.39-4.25-13.82-5.25l-2.28-.63c-.68-.16-1.27-.24-1.74-.33l-1.43-.27,1.43.3,1.72.39,2.25.69c1.69.57,3.72,1.33,6,2.31l7.66,3.31c2.83,1.17,5.88,2.43,9.24,3.51l10.43,3.47,22.75,7.44,5.83,1.85c1,.32,1.93.63,2.89.93l2.91.82c1.93.55,3.86,1.12,5.76,1.61l5.64,1.44c7.38,1.91,14.33,3.49,20.23,5,3,.75,5.66,1.48,8.13,2a48.89,48.89,0,0,0,6.39.74c1.79.12,3.17.12,4.14.12Z"/><path class="cls-22" d="M391.85,206l-17.57-2.47-2-.31-2.07-.41-2.13-.43-2.19-.52c-1.48-.33-3-.71-4.56-1.13s-3.12-.81-4.72-1.28-3.22-.91-4.84-1.43-3.27-1.06-4.91-1.62c-.82-.27-1.65-.59-2.45-.91s-1.64-.61-2.44-1c-1.62-.72-3.24-1.45-4.84-2.2-3.22-1.47-6.46-2.92-9.71-4.28-1.59-.67-3.24-1.28-4.84-1.91s-3.22-1.13-4.79-1.69a65.41,65.41,0,0,0-9.35-2.37c-3-.61-5.87-.88-8.46-1.45-1.32-.24-2.56-.5-3.74-.77s-2.3-.49-3.36-.75l-5.43-1.32c-.77-.18-1.43-.34-2-.44a12.9,12.9,0,0,0-1.51-.27l-1.26-.13,1.26.17a14.33,14.33,0,0,1,1.49.31c.61.13,1.27.31,2,.52l5.4,1.5c2.07.58,4.44,1.2,7.07,1.72s5.48.95,8.44,1.62a71.84,71.84,0,0,1,9.21,2.47c1.55.56,3.15,1.06,4.75,1.7s3.19,1.26,4.79,1.94c3.22,1.36,6.44,2.83,9.66,4.32,1.62.74,3.24,1.47,4.86,2.16.8.38,1.67.67,2.47,1s1.67.63,2.49.91c1.67.56,3.31,1.12,5,1.59s3.27,1,4.89,1.42,3.17.87,4.74,1.24,3.08.74,4.59,1.06c.75.15,1.47.31,2.2.47l2.17.38,2.09.38,2,.27c2.66.37,5.07.59,7.21.82l5.6.6Z"/><path class="cls-22" d="M368.17,209.21s-1.65-.3-4.44-1c-1.41-.29-3.1-.72-5.05-1.24s-4.14-1-6.49-1.78-5-1.41-7.59-2.42-5.5-1.93-8.39-3-5.85-2.24-8.9-3.34l-4.61-1.68-2.32-.85-2.38-.75c-3.15-.95-6.29-2.08-9.47-2.72s-6.27-1.48-9.28-2.2-5.92-1.34-8.69-2-5.38-1.14-7.78-1.78c-4.82-1.16-8.81-2.14-11.61-2.82s-4.42-1.05-4.42-1.05,1.6.43,4.37,1.22L282.64,185c2.37.68,5,1.24,7.75,1.93l8.65,2.09,9.26,2.27c3.19.67,6.25,1.8,9.4,2.76l2.35.74,2.32.82L327,197.3c3,1.08,6.06,2.22,8.95,3.27s5.76,2,8.44,2.92,5.29,1.61,7.66,2.28c1.2.31,2.32.67,3.43.91l3.12.69c2,.44,3.69.81,5.1,1C366.52,209,368.17,209.21,368.17,209.21Z"/><path class="cls-22" d="M262.36,175.74s1.81-.31,5.14-1a46,46,0,0,0,6.07-1.69,5.55,5.55,0,0,0,.84-.43,1.1,1.1,0,0,0,.38-.33.8.8,0,0,0,.07-.52,4.57,4.57,0,0,0-1.18-1.73,43.62,43.62,0,0,0-3.31-3.08c-1.22-1-2.49-2.12-3.83-3.27-.68-.55-1.31-1.19-2.09-1.74l-2.26-1.68c-1.69-.95-3.38-2.07-5.26-2.95l-2.84-1.43c-1-.44-2-.9-3-1.34-4.06-1.84-8.51-3.52-13.2-5.15a141.82,141.82,0,0,0-15.21-4.08c-5.35-1.1-11-2.06-16.84-2.82a146.13,146.13,0,0,0-18.26-1.1c-3.15,0-6.32.22-9.54.45A71.51,71.51,0,0,0,168.3,143a7,7,0,0,0-1.22.41,3.24,3.24,0,0,0-.62.35l-.28.28a1.4,1.4,0,0,0-.19.43v.23a1.31,1.31,0,0,0,0,.25,2.46,2.46,0,0,0,.21.35c.17.19.31.34.47.49.31.3.64.57,1,.83,1.32,1,2.68,2,4.07,3,2.79,1.89,5.66,3.72,8.58,5.51a134.12,134.12,0,0,0,18.42,9.81,78.56,78.56,0,0,0,20.7,5.42c.9.09,1.78.22,2.68.29l2.72.15c1.81.12,3.6.12,5.41.18l10.88.25c3.64.1,7.28.08,11,.11l5.5-.19a13.32,13.32,0,0,0,2.79-.43,2,2,0,0,0,1.39-1,1,1,0,0,0,.12-.53,1.7,1.7,0,0,0-.1-.48,2.71,2.71,0,0,0-.37-.72,25.68,25.68,0,0,0-4-3.86c-.71-.6-1.48-1.15-2.21-1.68a25.74,25.74,0,0,0-2.26-1.55c-.8-.48-1.57-1-2.37-1.44l-2.45-1.25-1.24-.63L245.6,157l-2.53-1.08a98,98,0,0,0-21-5.51l-2.66-.44c-.92-.13-1.79-.22-2.68-.32-1.76-.2-3.55-.38-5.33-.54-3.55-.32-7.1-.57-10.65-.54a28,28,0,0,0-5.31.42,6.29,6.29,0,0,0-2.56,1.07,1.94,1.94,0,0,0-.75,1.39v.24l.05.16,0,.33c.1.22.19.46.31.69a15.23,15.23,0,0,0,3.57,3.95,30.41,30.41,0,0,0,4.25,3,39.46,39.46,0,0,0,9.38,4.11,83.81,83.81,0,0,0,9.82,1.92c6.51,1,12.92,1.79,19.2,2.13,1.57.08,3.15.13,4.7.09a19.63,19.63,0,0,0,4.63-.52,3.3,3.3,0,0,0,1.13-.48,1.75,1.75,0,0,0,.51-.48l.14-.25c0-.11.07-.24.12-.37a1.72,1.72,0,0,0-.42-1.26,4,4,0,0,0-.85-.85,18.07,18.07,0,0,0-4-2.16,87.3,87.3,0,0,0-16.47-4.59c-2.7-.52-5.33-1-7.92-1.45a31.26,31.26,0,0,0-7.68-.56,4.56,4.56,0,0,0-1.86.56,1.82,1.82,0,0,0-.73.7,1.11,1.11,0,0,0-.23,1,2.87,2.87,0,0,0,1.31,1.41,11.07,11.07,0,0,0,1.6.83,38.88,38.88,0,0,0,6.6,2.07,77.68,77.68,0,0,0,12.32,1.87l5.49.53a8.69,8.69,0,0,0,1.35,0,.48.48,0,0,0,.35-.14c.11-.21-.05-.32-.1-.4a2.87,2.87,0,0,0-.51-.41,14.57,14.57,0,0,0-2.12-1.28,56.73,56.73,0,0,0-7.94-3.08,54.76,54.76,0,0,0-6.09-1.59,16.3,16.3,0,0,0-3.87-.36,3.44,3.44,0,0,0-1,.2l-.31.14.31-.14a3.91,3.91,0,0,1,1-.19,15.42,15.42,0,0,1,3.85.39,55.26,55.26,0,0,1,6.08,1.63A60.26,60.26,0,0,1,236,162a15.53,15.53,0,0,1,2.09,1.29,3.6,3.6,0,0,1,.47.39.63.63,0,0,1,.1.15.43.43,0,0,1-.24.07,8,8,0,0,1-1.29,0l-5.5-.57a76.65,76.65,0,0,1-12.27-2,41,41,0,0,1-6.51-2.09,12.61,12.61,0,0,1-1.54-.82,2.72,2.72,0,0,1-1.11-1.18.75.75,0,0,1,.16-.67A1.58,1.58,0,0,1,211,156a4.11,4.11,0,0,1,1.66-.48,32.4,32.4,0,0,1,7.57.59c2.56.43,5.19.95,7.87,1.45a87.21,87.21,0,0,1,16.36,4.62,18.37,18.37,0,0,1,3.85,2.09c.54.43,1.08,1,1,1.56a.58.58,0,0,0,0,.18l-.14.24a1.2,1.2,0,0,1-.33.28,3.34,3.34,0,0,1-1,.4,20.15,20.15,0,0,1-4.5.48c-1.52,0-3.07,0-4.62-.11-6.25-.35-12.64-1.17-19.13-2.18a80.36,80.36,0,0,1-9.75-1.92,39,39,0,0,1-9.19-4.05,31.26,31.26,0,0,1-4.16-2.95,15.07,15.07,0,0,1-3.36-3.7l-.24-.49,0-.32,0-.17c0-.06,0,0,0-.06A1.06,1.06,0,0,1,193,151c.05-.15.22-.25.33-.38a5.5,5.5,0,0,1,2.24-.9,29.15,29.15,0,0,1,5.14-.39c3.5,0,7,.24,10.58.57,1.76.16,3.52.35,5.31.55.89.12,1.78.2,2.65.33l2.63.45a97.2,97.2,0,0,1,20.85,5.52l2.49,1.07,1.24.53,1.2.62,2.4,1.25c.78.44,1.53.92,2.3,1.4a21.93,21.93,0,0,1,2.23,1.52c.76.55,1.46,1.07,2.16,1.66a25,25,0,0,1,3.86,3.66c.24.33.33.69.26.8s-.4.36-.78.46a13.43,13.43,0,0,1-2.61.41l-5.42.2c-3.65,0-7.27,0-10.91-.09L230.28,170c-1.78-.06-3.62-.06-5.4-.17l-2.68-.14c-.89-.07-1.76-.19-2.65-.28a77.84,77.84,0,0,1-20.49-5.3,135.51,135.51,0,0,1-18.36-9.72c-2.91-1.77-5.75-3.58-8.55-5.46-1.36-.94-2.75-1.89-4-2.92l-.92-.79c-.28-.27-.59-.58-.51-.71s.35-.41.68-.55a7.92,7.92,0,0,1,1.1-.38,71.48,71.48,0,0,1,9.63-1.16c3.2-.23,6.37-.41,9.5-.46a145.51,145.51,0,0,1,18.19,1c5.85.74,11.46,1.68,16.82,2.77a144.26,144.26,0,0,1,28.36,9l3,1.32,2.82,1.4c1.9.87,3.57,2,5.24,2.89l2.3,1.65c.73.53,1.39,1.17,2.07,1.72l3.85,3.24a44.81,44.81,0,0,1,3.37,3.05,4.89,4.89,0,0,1,1.12,1.65.68.68,0,0,1,0,.45,1.32,1.32,0,0,1-.35.31,5.59,5.59,0,0,1-.85.42,42.75,42.75,0,0,1-6,1.74C264.17,175.42,262.36,175.74,262.36,175.74Z"/><path class="cls-22" d="M171.21,137.13s-.45-.19-1.27-.49-2-.77-3.41-1.25-3.05-1.08-4.84-1.66-3.66-1.19-5.57-1.79l-5.59-1.68c-.89-.3-1.79-.53-2.54-.85s-1.52-.61-2.21-.92a35.5,35.5,0,0,1-3.19-1.64c-.78-.44-1.17-.72-1.17-.72a8.92,8.92,0,0,0,1.05.87,27.32,27.32,0,0,0,3.05,2c.69.36,1.39.75,2.19,1.09a25.35,25.35,0,0,0,2.54,1c.89.32,1.81.6,2.75.9l2.84.9c1.9.57,3.81,1.16,5.62,1.66s3.48,1,4.91,1.38,2.65.67,3.5.89Z"/><path class="cls-22" d="M144.82,133.71a11.41,11.41,0,0,0-1.39-1,33.74,33.74,0,0,0-3.26-1.86,34.94,34.94,0,0,0-3.46-1.5,15.4,15.4,0,0,0-1.66-.51,16.26,16.26,0,0,0,1.4,1,35.17,35.17,0,0,0,3.27,1.87,34.66,34.66,0,0,0,3.46,1.49A14.92,14.92,0,0,0,144.82,133.71Z"/><path class="cls-22" d="M161.2,148.61l-3.5-1.49c-2.21-1-5.38-2.36-9.19-4l-6.08-2.79-3.32-1.51-3.41-1.72c-2.3-1.17-4.74-2.32-7.09-3.62s-4.77-2.75-7.08-4.25l-3.4-2.28c-1.13-.79-2.21-1.64-3.29-2.44s-2.16-1.66-3.22-2.47l-1.6-1.21-1.62-1.12c-2.07-1.54-4.3-2.78-6.27-4.07a53.13,53.13,0,0,1-5.38-3.93,36.31,36.31,0,0,0-4.66-3.26c-1.45-.87-2.77-1.54-3.85-2.08s-2-.88-2.59-1.13l-.91-.34.89.39c.59.28,1.46.69,2.51,1.25s2.35,1.3,3.76,2.21c.68.47,1.46,1,2.19,1.53s1.53,1.18,2.3,1.86a57.61,57.61,0,0,0,5.33,4.1c2,1.35,4.1,2.62,6.21,4.17l1.6,1.12c.51.41,1,.81,1.55,1.21,1,.83,2.11,1.65,3.19,2.49s2.17,1.69,3.29,2.49l3.46,2.35c2.35,1.5,4.77,2.8,7.12,4.2s4.86,2.42,7.19,3.6c1.15.56,2.3,1.16,3.43,1.68l3.38,1.43,6.16,2.64c1.9.81,3.69,1.47,5.26,2.09l4.07,1.6Z"/><path class="cls-8" d="M196.27,132.75c.55.22-.94,9.16,3.53,10.65a4.93,4.93,0,0,0,6-2.33,9.52,9.52,0,0,0,1.43-5.12,45.18,45.18,0,0,0-.68-9.46c-.42-1.88-1.13-3.37-2.3-3.95-2.22-1.11-5.27-.56-6.68,2.89a1.77,1.77,0,0,1,.73,1.58A12.12,12.12,0,0,1,196.27,132.75Z"/><path class="cls-8" d="M205.81,141.07c.32,2.09,1.92,6.8,5.9,6.8a.55.55,0,0,0,.18,0c4.34-.42,5.74-16.43,2.8-20.84-2.31-3.45-6.4-1.56-8.13-.52a45.18,45.18,0,0,1,.68,9.46A9.52,9.52,0,0,1,205.81,141.07Z"/><path class="cls-21" d="M167,138.9s-13.37-3.92-21.66-8.07-3.93-.91,2.77,3.69-7.85-.69-14.08-3.22,11.07,6.45,20.07,9.68,12,2.76,5.08-.92S173.91,141,167,138.9Z"/><path class="cls-24" d="M115.4,17c-1.83-11.17-10.06-3-10.49,5.55-5.13-6.82-13.39-7-9.49,5.29-9.61-4.84-17.51.66-8.59,10-5.67.41-7.83,7.76-4.3,11.86-.71.26-13.87,5.37-7.58,7.71,4.45,1.66,9-1.84,12.55.11-4,2.93-8.92,7.34-10.25,12.79-1,4.26,1,8.6,5,7.33-2.55,4.62-5.76,7.53-7.62,12.89a8.48,8.48,0,0,0-6.42-3.81c8.39-6.59,3.33-15.9-3.63-16.51C70,65.81,78.41,53.91,68.68,51.05c2.19-2.28,12.51-23.46,5.1-18.76-7.13,4.52-6.46,12.65-10.52,16.49,5.58-17-6.9-27.11-16-8.8-.12-13.27-6-20.09-10.76-2.84C35.75,35,34,27.57,31.09,28.08c-5.63,1,2,15,2.92,16.59C24.56,31.17,28.47,57.56,30.43,63c-4.85-2.8-13.8-3.36-9,5.41A20.9,20.9,0,0,0,2.91,70.59c-3.65,2.28,10,11.09,11.41,11.92-4.1.84-19.88,10.94-10,13.25a12.73,12.73,0,0,0,6.49-.29,7.85,7.85,0,0,0,3.33,6.13c4,2,9.14-2.86,12.18-6.16-2.55,10.34,1.19,18.37,2.45,27.4.8,5.78,5.7-6,5.89-7.23.51-3.39-1.71-6.22-.36-9,.87,6,3.3,12.4,5.28,17.83-9.47-2.87-4.76,7.34-.82,10.23-5.88,1.74-9.4,5.95-1.29,7-2.62,2.74-9.71,13.83-1.8,11.93-3.41,4.16-5.68,17.63,1.49,9.57,4.31-4.84,2.08-10.35,6.32-14.65-2.11,14.83,10.68,14.37,9.22-1.9,7.83,4.46,17.3-3.45,7-9.91,8.56-6.16,2.61-9.88-4-8.13,3.52-7.32-.72-21.62-6.74-9.48-1.55-3.57-5.63-4.44-5-8.58,6.64,9.16,9.57.89,8.89-8.28,2.12,2.69,10.15,10.43,14.27,7,3.37-2.83-.89-12.38-2.11-14.61,4.48,2.89,11.49.84,15.37-3.88,5.53-6.76,3.39-12.87,8.2-17A67.64,67.64,0,0,0,84.92,93.9c-.24,6.15,7.33-5.48,7.75-6.41,2.89,15.33,10,8.24,9.61-5.34,3.22,3.53-.21,26.11,10.35,23.1,8.25-2.36-2-20.2-1.58-23.51,2.21,4.74,5.72,8.48,10.53,9.54,6.62,1.46-1.34-12.93-3.73-14.12,2.64-.41,4.54-2.08,5.74-5,9.93,10.65,11.87-.34,4.59-8.35-1.82-.48,7.17,4.93,5.71,4.28,1.77.79,13.23.52,8.63-4.75-1.63-1.87-17.91-9.95-17-2-1.37-1-2.85-.87-3.65-2.21,4.44-1.27,12-7.06,6.89-12,12.13-5,11-15.53-1.52-11.17,2-4.11,3.33-12.67-2.94-10,1.68-6.65-2.37-18-8.86-8.91C114.85,13.68,120.57,9.83,115.4,17Zm-1.51,59.2c-2.39.78-2.5.94-2.75-2l2.75,2C113.61,76.33,112.94,75.71,113.89,76.23Z"/><path class="cls-25" d="M170.11,82.43c9.48-6.19-1.35-10.4-9.32-7.36,4.18-7.44,1-15.07-8.66-6.54.54-10.75-7.68-15.76-12.66-3.8-2.66-5-10.26-4-12.58.85-.53-.54-10.52-10.52-10.12-3.82.28,4.75,5.3,7.46,5,11.53-4.28-2.44-10.32-5.2-15.84-4.22-4.32.77-7.48,4.37-4.68,7.55C96,76.15,92,74.39,86.35,74.85a8.48,8.48,0,0,0,.89-7.41c9.41,5,15.89-3.37,13.64-10,6.27,3.14,20.55,6,19.24-4,3,1.09,26.52,2,19.22-2.92-7-4.69-14.18-.8-19.33-2.95,17.85-1.78,22-17.27,1.59-18.2,12.09-5.46,16-13.57-1.75-11,1.69-1.57,7.76-6.12,6.11-8.61-3.15-4.76-12.9,7.89-14,9.38,8.53-14.1-14,.13-18.23,4.13.6-5.57-2.49-14-8.58-6.05A20.84,20.84,0,0,0,75.68,1.16c-3.55-2.43-6.1,13.63-6.29,15.24C67,13,51.35,2.64,53.22,12.59a12.87,12.87,0,0,0,2.88,5.82,7.78,7.78,0,0,0-4.25,5.52c-.26,4.44,6.3,7.21,10.54,8.66-10.48,1.84-16.32,8.51-24.07,13.3-5,3.07,7.79,2.8,9,2.47,3.32-.9,5-4.07,8.11-4-5.14,3.22-10,8-14.18,12C40,46.59,32.6,55,31.55,59.8c-4-4.67-9.23-6.19-6.91,1.64C21.08,60.15,8.07,58.15,13,64.62c-5.18-1.45-18.42,1.92-8.15,5.22,6.17,2,10.31-2.27,16-.13C6.38,73.77,12,85.28,26.27,77.38c-.92,9,10.14,14.42,11.88,2.39,9.1,5.34,10.09-1.61,5.85-6.91,8.12.26,19.48-9.39,6-10,2.64-2.86,1.79-6.95,5.83-8-5.7,9.78,3,9.11,11.16,4.79-1.6,3-5.44,13.51-.61,15.88,4,1.94,11-5.82,12.51-7.84C78,72.93,82.71,78.51,88.6,80.15c8.42,2.34,13.14-2.09,18.88.64a67.6,67.6,0,0,0-20,4.8c-5.72,2.27,8,4.49,9,4.5-12.86,8.84-3.52,12.43,8.76,6.63-1.93,4.38-24,10.36-16.95,18.81,5.49,6.59,17.69-10,20.86-10.94-3.44,3.93-5.44,8.66-4.46,13.48C106,124.72,116,111.63,116.1,109q2.15,3.36,6.89,3.22c-5.73,13.39,5.11,10.73,9.49.83-.29-1.85-1.6,8.55-1.6,6.95,0,1.94,4.86,12.32,7.83,6,1-2.24,1.87-20.41-5.07-16.39.36-1.66-.36-3,.54-4.23,3,3.55,11.29,8.08,13.75,1.47,9.49,9.07,18.65,3.81,9.61-5.91,4.54.12,12.93-2.07,8-6.75,6.76-1.15,15.48-9.42,4.57-11.7C173,80.58,178.79,84.25,170.11,82.43ZM115.34,105c-1.67-1.87-1.86-1.91.68-3.31-.22,1.11-.45,2.21-.68,3.31C115.15,104.74,115.44,103.88,115.34,105Z"/></g></g></svg>