<svg id="Layer_1" data-name="Layer 1" xmlns="http://www.w3.org/2000/svg" viewBox="0 0 356.09 183.96"><defs><style>.cls-1,.cls-17,.cls-4{fill:#f9b7a0;}.cls-1,.cls-10,.cls-11,.cls-13,.cls-14,.cls-2,.cls-3,.cls-4,.cls-5,.cls-9{stroke:#231f20;stroke-miterlimit:10;}.cls-2{fill:#f8b59c;}.cls-3{fill:#eb7e61;}.cls-10,.cls-14,.cls-3,.cls-5{stroke-width:0.5px;}.cls-11,.cls-12,.cls-13,.cls-14,.cls-3,.cls-4,.cls-5,.cls-7{fill-rule:evenodd;}.cls-11,.cls-4{stroke-width:0.75px;}.cls-5{fill:#902a24;}.cls-6{fill:#fdf9fc;}.cls-11,.cls-7{fill:#da4831;}.cls-8{fill:#040004;}.cls-10,.cls-14,.cls-9{fill:none;}.cls-12{fill:#060009;}.cls-13,.cls-19{fill:#ec866c;}.cls-13{stroke-width:0.25px;}.cls-15{fill:#231f20;}.cls-16{fill:#5c6771;}.cls-18{fill:#d3725f;}.cls-20{fill:#4c3836;}</style></defs><path class="cls-1" d="M270.47,157.55c-6.35-9.61-6-12-7.54-23.63-.32-2.42-.74-5.85-.91-9.47a77.43,77.43,0,0,1,.11-8.48l4,2.14a9,9,0,0,1,2.17-7.68c.65-.74,1.27-1.5,1.89-2.27l.3-.39c.25-.35.5-.69.74-1,1.18-1.67,2.29-3.4,3.33-5.17q2.1-3.59,3.88-7.35.57-2.71,1-5.46a175.1,175.1,0,0,1,22.87-62.17c-23.7-12.44-42.69-17.76-61.92-20.34-18-2.42-39.89-3.32-67.5-4.11-27-.77-59.81-2.17-77.42.45C79,5,57.85,14.26,41.87,27.7c-.63.53-3.2,2.48-3.28,2.58,3.35,18.39-11.21,27.64-16.47,28.09C28.58,54.94,36.86,46.37,37,36a19.09,19.09,0,0,0-.3-5.18,9.72,9.72,0,0,0-4.4-6.71,6.89,6.89,0,0,0-3.55-.95,6.51,6.51,0,0,0-3.47,1c-7.88,5.44-4.69,17.89.74,18.23-1.48,5.13-7.42,13.83-19.07,17.07-4.75,1.33-10.49,3.49-.72,3A37.71,37.71,0,0,0,14.82,61a38.82,38.82,0,0,0,4.92-1.81C16.46,71.09,19,82.12,24.5,93c.61,1.2,1.26,2.39,1.93,3.56L26,96.2A121.61,121.61,0,0,0,35.34,110c1.63,5.64-9.66,9.63-4.65,19.89.64,1.3,1.22,2.64,1.78,4s1.29,5.38,2,7.3c1.24,3.38,1.79,6.65,5,11.44,2,3-2.44,8.21.44,15.08.25.62,1.79.36,3.4-.53l-.13,7.09c0,1.83,2.54,3.67,3.69,4.43,2,1.31,4.72-5.63,6-7.82A24.48,24.48,0,0,0,56,162.21c1.12-5-4.4-20.62-2.82-25.15,1-4,6-7.85,8.1-11.5l2.17-2.22a18.37,18.37,0,0,1,.27,12.5,25.56,25.56,0,0,0-1.88,7.63q1.45,3.48,2.68,7.26c1.43,4.16,4.75,6.16,6.91,9.54a21.42,21.42,0,0,1,2.75,5.33,56.42,56.42,0,0,0,1.75,6.59c1,2.77,2.35,5.45,4.35,6.57,2.68,1.51,2.72-1.8,3.77-.57,1.39,1.61,4.8,5.08,7.12,4.85,2.48-.29,6.56-.42,9-1.17a3.91,3.91,0,0,0,1.77-1,4,4,0,0,0,.35-.49c3.14.24,4-1,3.46-2.61a21,21,0,0,0-5.24-7,108.54,108.54,0,0,1-9.24-9.88c-.53-4.32-3.31-10.51-5-14.5l.57-1.3c7.37-9.84,8.68-10.86,10.94-23.55,21,7.08,34,10.68,57.3,11.21,17.16.38,31.54-1.18,52.2-7.73-.07,9.44,3.5,16.7,4.3,21l.06.3c.38.78-.35,6.46-.5,7.7a30.21,30.21,0,0,0-.18,9,22.59,22.59,0,0,0,.78,3.12c.67,2.16,2.67,4.77,4.81,2.46a9.15,9.15,0,0,0,4.49,4c3.1,1.45,12.17,3.21,14.11-.69,5.38-1.37.1-6.5-2.44-8.82-2-1.83-2.92-9.8-3.42-12.76-.9-5.33,0-10.15,1.12-15.43.11.07,22,22.67,22.93,24s1.78,5.17,2.11,6.62a57.65,57.65,0,0,0,1.77,6.68c.87,2.45,7.22,7.91,8.39,4.69,4.12,4.42,14.16,2.23,16.31.92,1.23-.74.79-3.72.08-5.15C278.55,165.47,273.06,161.47,270.47,157.55Zm-248-126c1.59-3.43,5.49-6.89,7-1.46C30.71,34.58,28,40,28,40,28.74,36.11,29,23.81,22.51,31.52Z"/><path class="cls-2" d="M316.85,33.23s1.76-6.8,11.13-8,13.92-6.17,18.41-10.92,5.49,3,4.24,6.75-2,16.27-2.76,19.28-12.58,11-12.58,11-8.09-9.89-13.65-13.56S316.85,33.23,316.85,33.23Z"/><path class="cls-3" d="M323.06,39.15s4.38-7.24,11.9-8.58,7.69-4.48,9.86-8c0,0,1,16.54-6.56,20.89s-7.28,2.84-7.53,4.34h0S326.4,39.3,323.06,39.15Z"/><path class="cls-4" d="M283.05,21.85s17.77,5,21.27,6.26,28.83,12.34,33.94,31.08c3.21,17.44,3.06,14.65,3.21,17.44s.43,7.26,1.79,7.28,6.87-1.92,10.37,9.56c3.5,10.7-.57,16.33-3.54,16.28s-9.69-1.49-13.84.49c-4-.31-11.26,0-11.26,0s4.93,4,5.15,6.63,3.93,13.23-13.2,6.66c-1.46,1.64-13.51.76-17.7-1.28-2.61,2.69-29,9.83-41.51-14.75-10.94-23.62,4.18-50.74,4.18-50.74-4.14-6.37-3.14-27.65.86-29.65s6.51-2.75,4.26-11c.8-8.2,2.8-9.2,7.11-5.68C276.8,12.59,283.05,21.85,283.05,21.85Z"/><path class="cls-3" d="M281.22,54.82S263.17,63.46,263.85,45c2.86-16.58,9.42-21.4,8.68-26l-.75-4.64s1.76,10.51,6.26,13.26,5.4,18.55,8.33,19.66C286.37,47.27,279.9,49,281.22,54.82Z"/><path class="cls-5" d="M305.68,102.81s8.42,11.59,10,14.06,14.14,8.91,12.23,2.56a41.87,41.87,0,0,0-7.41-9.68s-10.15-5.35-12.15-8.35C306.7,99,305.68,102.81,305.68,102.81Z"/><ellipse class="cls-6" cx="333.11" cy="71.41" rx="4.51" ry="6.51"/><ellipse cx="332.35" cy="73.04" rx="3.06" ry="3.88"/><ellipse class="cls-6" cx="303.32" cy="72.91" rx="5.82" ry="6.98"/><ellipse cx="303.32" cy="73.41" rx="3.25" ry="3.9"/><ellipse class="cls-6" cx="304" cy="72.74" rx="1.46" ry="1.75"/><ellipse class="cls-6" cx="332.8" cy="72.44" rx="1.36" ry="1.38"/><path class="cls-7" d="M312.76,73.16s2.93,3.33,0,6.17-5,.56-3.7-1.43S312.44,75.42,312.76,73.16Z"/><path class="cls-7" d="M291.81,79.17s9.37-5.61,15.32,1.33"/><path class="cls-8" d="M297.15,61.71s1.58-7,8.63-7.52c0,0,6.41,1,1.35,5C302,59.36,298.24,60.52,297.15,61.71Z"/><path class="cls-8" d="M335.29,61.71s-2.6-3-5.15-2.52-4.08-1.27-2.06-2.53S333.46,57.27,335.29,61.71Z"/><path class="cls-9" d="M259.66,68a12.26,12.26,0,0,1,1.93-11.1s-7.7-14.6,1.18-29.74c5-4.25,4.56-1.56,4.47-12.23s5.29-6.6,7.86-3.26"/><path class="cls-10" d="M272.37,67.26a6.15,6.15,0,0,1,0-5.55s-1.6-3.1,1.93-5"/><path class="cls-7" d="M308.33,103.4s2.75,8.31,8.13,11.19,7.74,4.34,7.56,1.61-3-6.45-3-6.45-1.64-.35-4.1-1C315.08,108.33,307.7,101.65,308.33,103.4Z"/><path class="cls-11" d="M348.12,83.93s-3.75.25-6.75,5.25c-4,4.76-12.48,12.2-9.12,18.61s6.52-.62,13.32.65,11.64-.41,9-11.21S349.37,84.68,348.12,83.93Z"/><path class="cls-12" d="M340.86,96.19s-5.9,3.58-3.32,5.67S342.87,101.7,340.86,96.19Z"/><path class="cls-12" d="M347.09,96.19s5.9,3.58,3.32,5.67S345.09,101.7,347.09,96.19Z"/><path class="cls-13" d="M338.26,92.85s-7.91,9.6-5.4,12.6,5.38.72,8.69,1.24,8.79,1.93,10.31.35,1.16,3-2.41,2.71a63.1,63.1,0,0,0-12.56.49c-2,.47-10-1.79-5.39-9S338.26,92.85,338.26,92.85Z"/><path class="cls-14" d="M307.13,99.93s6.35,8.87,15.28,9.82,12,0,14.48.49"/><path class="cls-15" d="M328.6,66.91a43.06,43.06,0,0,0,.72,5.57A25.32,25.32,0,0,0,331,77.76,10.73,10.73,0,0,0,334.21,82a7.59,7.59,0,0,0,2.35,1.16,9.69,9.69,0,0,0,2.64.31l-.08,0a24.27,24.27,0,0,1,5.78-.71,6.8,6.8,0,0,1,2.87.65,4.53,4.53,0,0,1,2.08,2,4.75,4.75,0,0,0-2.21-1.69,7.75,7.75,0,0,0-2.75-.37,28.48,28.48,0,0,0-5.57,1h-.08a9.73,9.73,0,0,1-2.94-.28,8.49,8.49,0,0,1-2.69-1.3,11.11,11.11,0,0,1-3.45-4.68,22.08,22.08,0,0,1-1.41-5.55A26.8,26.8,0,0,1,328.6,66.91Z"/><path class="cls-16" d="M341.4,83.93s-5.29,1.25-7.29,1.5"/><path class="cls-15" d="M305.68,107.5a6.83,6.83,0,0,1-1.32-3.61,6.28,6.28,0,0,1,1-4,6.22,6.22,0,0,1,3.26-2.46,9.19,9.19,0,0,1,1.92-.38,11,11,0,0,1,1.91.13c-.57.33-1.13.57-1.67.82l-.76.43a5.15,5.15,0,0,0-.73.42,6.86,6.86,0,0,0-3.35,5A22.06,22.06,0,0,0,305.68,107.5Z"/><path class="cls-17" d="M299.24,122.25a11.6,11.6,0,0,1-6.84-3.15"/><path class="cls-15" d="M299.24,122.25a5.28,5.28,0,0,1-2,0,7.53,7.53,0,0,1-1.91-.58,6.17,6.17,0,0,1-3-2.6c.61.29,1.14.61,1.7.89s1.1.56,1.66.8C296.88,121.31,298,121.74,299.24,122.25Z"/><path class="cls-17" d="M230.4,134.86s-26.72-19.66-28.35-29.09-2.6-21.26-1.79-21.84"/><path class="cls-15" d="M230.1,135.27q-6.3-4.8-12.24-10a108.35,108.35,0,0,1-11.2-11.17,26.36,26.36,0,0,1-4.31-6.65,17.63,17.63,0,0,1-.82-3.89c-.2-1.31-.37-2.61-.53-3.92q-.5-3.91-.8-7.85c-.1-1.32-.18-2.63-.22-3.94,0-.66,0-1.32,0-2,0-.33,0-.66,0-1a1.79,1.79,0,0,1,.25-.94,1.77,1.77,0,0,0-.23.94c0,.32,0,.65,0,1,0,.66,0,1.32,0,2,.06,1.32.16,2.63.28,3.94q.38,3.93.92,7.83c.19,1.3.38,2.6.6,3.9a17.07,17.07,0,0,0,.86,3.8,25.84,25.84,0,0,0,4.34,6.47,109,109,0,0,0,11.31,10.92q6,5.12,12.34,9.78Z"/><line class="cls-1" x1="213.35" y1="120.67" x2="206.43" y2="125.28"/><path class="cls-1" d="M63.46,123.34S76.6,107.4,79.2,102.52s0-23.72-2.27-29.25"/><path class="cls-1" d="M74.49,109.39s19.14,11.68,26.23,13.13"/><path class="cls-18" d="M207.37,125s.27,9.57,2.67,15.67c1.57,5.38,2,5.29,1.4,10.73S210,164.88,213,168.47c2.35,1,1.74,1.42,3.51.07,1.57,1.86,2.83,4.18,11.39,5.64,3.49,0,6.49-.88,7.21-2.31,1.42-.58,3.48-1.65,1.61-4.3,0,0-3.5-4.27-4.47-5.25s-2.8-7.75-2.86-11.19c0,0-1.22-9.6,1-16.27-7-4.88-16.14-13.58-17.05-14.19C208.3,124.34,207.37,125,207.37,125Z"/><path class="cls-18" d="M63.46,123.34s3.13,7.21-.31,14.16c-1,4.8-1.44,6-1.3,6s3.26,8.41,3.48,9.08,5.83,7,6.11,7.72,2.43,2.46,3.31,7.78c1.43,5.12,3.17,9.72,5.11,10.44,2.26.81,2,.95,3.28-.3.89.11.2-.49.89.11s4.44,4.53,6.31,4.68a14,14,0,0,0,4.1-.24c2-.27,5.62-.65,6.4-1.11s.87-1.12,1.48-1.28,2.48.05,3-.54,1.51-1.61-1.08-4.84c-2.45-3.06-13.5-14.11-13.5-14.11a35.18,35.18,0,0,0-1.95-8.45c-1-2.43-1.47-3.65-1.63-3.9a4.12,4.12,0,0,1-.9-2.13A3.57,3.57,0,0,1,87.49,144a52,52,0,0,0,7.68-11.77l2.6-10.66h0L74.49,109.39Z"/><path class="cls-19" d="M74.49,109.39s47.41,34.42,116.25,20.12c14.83-3.92,19.94-6.28,22.61-8.84,0,0-9-9-9.81-11.28s-4.41-14-3.44-20.84V84s-8.31,9.12-11.95,14.31-13.84,5.14-18.49,1.1c0,0-8-.12-8.47-3.22s-3.8,3.65,4.39,8.89-30.27,2.92-35.41-5.67-29.75,6.84-37.92-6.56S76.11,66.73,78.15,61.71c0,0-3.5,9-1.22,11.56C80.18,77.17,83.75,97.32,74.49,109.39Z"/><path class="cls-19" d="M201.73,78.76s-5.18,21.1,2.53,31.77c9.33,11.65,26.14,24.33,26.14,24.33l20.71,21.55a11,11,0,0,1,3,4.28c.86,2.93,1.62,6.11,1.62,6.11s.43-3.34,3.68-1.39a16.88,16.88,0,0,0,6.18,2.27,19.63,19.63,0,0,1-6.18-5.85c-2.6-3.9-3.83-6.36-5.65-8.05s-11.67-12.1-14.22-15-5.8-9.1-5.8-9.1l-.93,4.27s-14.4-13.79-17.63-20.89-5.29-8.28-5.29-8.28v2.74a35.63,35.63,0,0,1-5.73-18.79C204.16,78,201.73,78.76,201.73,78.76Z"/><path class="cls-19" d="M25.56,57.34S20.21,80.58,36.46,104c5.2,6.5,1.95,15.09,0,17.62s-.65,12.61,1,16.18,2,14.86,2,14.86a77.36,77.36,0,0,1-4-8.48c-.94-2.8-3-10.26-3-10.26s-5.3-7.91-2.11-13.23c3.44-5.43,6.1-8.75,3.18-13.69-2.6-2-14.09-21.1-14.68-30.25s.7-16.3,1.68-17.92S25.56,57.34,25.56,57.34Z"/><path class="cls-19" d="M254.7,98s2.6,13.36,10.56,19.68c7.48,5.17,11.27,7,19.2,7.63,0,0,9.28.13,14.78-3-1.66-.14-5.87-1.85-6.84-3.15,0,0-15.6,5.85-24.7-3.9C259.25,108.7,255,99.27,254.7,98Z"/><path class="cls-19" d="M292.4,119.1s19.82,5.2,23.72,2.27c1.63,1.63,9.1,2.6,11.38,2.6s2.25-1.39,2.59-3.3,0-2.31,0-2.31,2.48,6.94-3.63,7.25c-5.39-.68-8.39-1.64-9.36-2.29-1.3.65-6.14,2.74-17.86-1.07C294.33,121.14,293.05,120.4,292.4,119.1Z"/><path class="cls-20" d="M255.73,166.8s1.2,7.25,4.55,9.1,4.36,2.4,5.32,1c.95.76,4.41,4.15,14.38,1.69,2.41-1,4.62-2,.48-8.73a83.88,83.88,0,0,0-6.39-8s-18.37,4.07-18.79,3S255.73,166.8,255.73,166.8Z"/><path class="cls-20" d="M210.69,158.9s-.2,9.22,3.62,10.47c1.15-.12,1.6,0,2.23-.83.92,1.53,1.54,3.81,7.79,4.86,3,1,8.76,1.43,10.81-1.53,1.1-.58,2.46-.24,2.35-2.21-.16-3.26-5.38-7.5-5.21-7.34s-1.65-3.48-1.88-5.39C227,158,221.12,160.85,210.69,158.9Z"/><path class="cls-20" d="M75.94,172.19s2.64,8.4,6.28,6.82l1.11-.88s.87.16.73.06,3.47,3.41,4.1,3.77,1.42,2.69,8.66.54c4.09-.71,4.55-1.12,4.76-1.31s-.14-.93,2.47-.88c1.33-.55,3.91-.94.82-4.51a128.75,128.75,0,0,0-8.82-9.53s-21.18,3-21,2.69S75.94,172.19,75.94,172.19Z"/><path class="cls-20" d="M39.47,152.64s1.38,1.65,0,5.58c-.48,3.65-1,6.94.44,9.5a3.16,3.16,0,0,0,3.4-.53l-.13,7.09a9.41,9.41,0,0,0,3.69,4.43c2.26.37,4-3.88,4-3.88s4.35-8.23,4.73-10.45,1.36-4.82.06-9.7c-1.3-5.2-.91-3.74-.91-3.74S52.39,154.68,39.47,152.64Z"/><path class="cls-17" d="M256.26,64.49s-10.82,15.12-7.9,22.92.24,11,3.7,12,7.12-2.18,7.12-2.18c5.76-4,8.26-8,3.76-16.73s-4.07-7.11-4.45-11,.34-2.41-.18-4.61-1-2.47-1.75-2S256.26,64.49,256.26,64.49Z"/><path class="cls-19" d="M38.59,30.28,36.81,31.4s2.9,18.31-16.27,27.41a24,24,0,0,0,11.37-4.55C32.89,53.61,42.66,41.08,38.59,30.28Z"/><path class="cls-15" d="M83.89,26.1c-.07,1.88-.13,3.75-.22,5.61s-.17,3.72-.2,5.58-.08,3.72,0,5.57a43.7,43.7,0,0,0,.45,5.57,21.65,21.65,0,0,1-1.23-5.52,42.53,42.53,0,0,1-.19-5.64A53.89,53.89,0,0,1,83.89,26.1Z"/><path class="cls-15" d="M87.6,54.19A79.76,79.76,0,0,1,88.36,46c.37-2.71.89-5.4,1.48-8.07A80.9,80.9,0,0,1,92.09,30a51.29,51.29,0,0,1,3.29-7.52c-.44,1.3-1,2.56-1.34,3.87s-.82,2.59-1.22,3.89c-.71,2.62-1.4,5.24-2,7.89s-1.15,5.31-1.69,8c-.28,1.33-.53,2.67-.77,4S87.86,52.84,87.6,54.19Z"/><path class="cls-9" d="M39.57,74.17s-6,12.26,4,18.68"/><path class="cls-9" d="M222.43,12.54a51.86,51.86,0,0,1,34.13,9.09"/><path class="cls-9" d="M222.43,101.1S214,103,224.09,112.52"/><path class="cls-9" d="M253.76,141.24s-5.49,4.32,0,12.54"/><path class="cls-9" d="M52.76,113.39s4.9,7.46-5.13,16"/><path class="cls-15" d="M314.45,75.5a3.54,3.54,0,0,1,0,1.68,4.54,4.54,0,0,1-.65,1.56A3.88,3.88,0,0,1,312.61,80a3.26,3.26,0,0,1-1.59.55c.39-.43.77-.76,1.09-1.14a9.94,9.94,0,0,0,.88-1.17A24.81,24.81,0,0,0,314.45,75.5Z"/></svg>