<svg id="Layer_1" data-name="Layer 1" xmlns="http://www.w3.org/2000/svg" xmlns:xlink="http://www.w3.org/1999/xlink" viewBox="0 0 336.26 356.41"><defs><style>.cls-1{fill:#f69e60;}.cls-2,.cls-33,.cls-37{fill:none;}.cls-3{fill:#dd8b4e;}.cls-4{clip-path:url(#clip-path);}.cls-5,.cls-6,.cls-7{fill:#f9a963;}.cls-5{stroke:#231f20;}.cls-30,.cls-31,.cls-32,.cls-33,.cls-35,.cls-36,.cls-37,.cls-5,.cls-7,.cls-9{stroke-miterlimit:10;stroke-width:0.75px;}.cls-7{stroke:#000;}.cls-8{fill:#f4b574;}.cls-13,.cls-9{fill:#fff;}.cls-9{stroke:#6f471d;}.cls-10{fill:#442b19;}.cls-11{fill:#b03c26;}.cls-12{fill:#e8794e;}.cls-14{clip-path:url(#clip-path-2);}.cls-15{fill:url(#linear-gradient);}.cls-16{fill:#fdc983;}.cls-17{fill:#4e3216;}.cls-18{opacity:0.72;}.cls-19{clip-path:url(#clip-path-3);}.cls-20{clip-path:url(#clip-path-4);}.cls-21{fill:#fff3e9;}.cls-22{fill:#952e2d;}.cls-23{clip-path:url(#clip-path-5);}.cls-24{clip-path:url(#clip-path-6);}.cls-25{clip-path:url(#clip-path-7);}.cls-26{fill:url(#linear-gradient-2);}.cls-27{fill:#531817;}.cls-28{fill:#543218;}.cls-29,.cls-30,.cls-31,.cls-32,.cls-35{fill:#fae0cc;}.cls-30{stroke:#4e3216;}.cls-31{stroke:#422c18;}.cls-32{stroke:#543b19;}.cls-33{stroke:#68421b;}.cls-34{fill:#553817;}.cls-35{stroke:#4e3814;}.cls-36{fill:#fbdec9;stroke:#6f461c;}.cls-37{stroke:#553817;}</style><clipPath id="clip-path"><path id="SVGID" class="cls-1" d="M53.24,18.88C44.75,23,37.84,27.86,38,46.67S32.37,75.18,27.61,76.16c-9.7,2-13.84-13.11-16.95-20.13-4.28-9.66-3-18.68,2.3-22.63,7.12-5.32,21.81-14.67,28.82-17.6a14,14,0,0,1,10.59-.12c2,.93,2.73,2.3.87,3.2"/></clipPath><clipPath id="clip-path-2"><path id="SVGID-2" data-name="SVGID" class="cls-2" d="M108.31,18.22c8.17,9.87,14,19.77,3.18,42.9s-9.14,38.37-3.81,42.26c10.85,7.93,24.48-8.39,32.27-15.3,10.72-9.52,14.2-21.38,9.91-29.23-5.8-10.59-18.66-30.42-25.65-38a19,19,0,0,0-13-6.11c-3,0-4.67,1.3-2.88,3.46"/></clipPath><linearGradient id="linear-gradient" x1="-143.46" y1="915.75" x2="-142.53" y2="915.75" gradientTransform="matrix(0, -98.05, 98.05, 0, -89662.56, -13960.55)" gradientUnits="userSpaceOnUse"><stop offset="0" stop-color="#f6975a"/><stop offset="0.51" stop-color="#f5a969"/><stop offset="1" stop-color="#f4b573"/></linearGradient><clipPath id="clip-path-3"><rect id="SVGID-3" data-name="SVGID" class="cls-2" x="19.47" y="110.37" width="29.62" height="19.3"/></clipPath><clipPath id="clip-path-4"><path id="SVGID-4" data-name="SVGID" class="cls-2" d="M23.92,110.37s-.76,6-3.87,9.26,6.77,12.47,17.07,9.44c6.82-2.45,8.6-4.56,12-7.39-.25-6.19-25.17-11.31-25.17-11.31"/></clipPath><clipPath id="clip-path-5"><rect id="SVGID-5" data-name="SVGID" class="cls-2" x="1.22" y="81.23" width="45.34" height="34.98"/></clipPath><clipPath id="clip-path-6"><path id="SVGID-6" data-name="SVGID" class="cls-2" d="M12.33,81.23S12,82.71,3.9,85.68s3.93,22.48,11.15,26.5,5-5.72,5-5.72,4.32,9.72,14.24,9.75c7.44,0,5.79-4.24,11-7.61,8.2-5.31-24.46-25-32.93-27.37"/></clipPath><clipPath id="clip-path-7"><path id="SVGID-7" data-name="SVGID" class="cls-2" d="M11.22,85.16c.06,3.66,4.23,10.5,7.31,12.09s11.64-5.72,12.15-9c.67-4.25-2.63-8-8.39-9.2a23.11,23.11,0,0,0-4.6-.55c-5.1,0-6.54,2.74-6.47,6.61"/></clipPath><linearGradient id="linear-gradient-2" x1="-134.01" y1="885.09" x2="-133.08" y2="885.09" gradientTransform="translate(2708.42 -17718.59) scale(20.12)" gradientUnits="userSpaceOnUse"><stop offset="0" stop-color="#711d14"/><stop offset="0.31" stop-color="#751f15"/><stop offset="0.64" stop-color="#812319"/><stop offset="0.96" stop-color="#962b20"/><stop offset="1" stop-color="#992c21"/></linearGradient></defs><path class="cls-3" d="M276.11,259.68c-11.07,11-25.28,46.13-25.28,52.31,0,1.73-.07,3.58-.19,5.45a31.91,31.91,0,0,1-26.16-4.21c20.88-26.69,16.54-60.89,14.09-65-6.88-4.12-18.51-22.09-24.14-32.12,11.55-3.6,22-6.91,26.81-7.23C247,220.1,261.85,245,276.11,259.68Z"/><path id="SVGID-8" data-name="SVGID" class="cls-1" d="M53.24,18.88C44.75,23,37.84,27.86,38,46.67S32.37,75.18,27.61,76.16c-9.7,2-13.84-13.11-16.95-20.13-4.28-9.66-3-18.68,2.3-22.63,7.12-5.32,21.81-14.67,28.82-17.6a14,14,0,0,1,10.59-.12c2,.93,2.73,2.3.87,3.2"/><g class="cls-4"><rect class="cls-1" x="-9.02" y="23.09" width="71.46" height="39.96" transform="translate(-23.61 49.08) rotate(-64.99)"/></g><path class="cls-5" d="M146.71,241.49l-.09,0-.16.07c-1.4-10.2-3-17-3.57-17.31-2.29-.76-4.73-3.48-6.84-6.51-24.46,1.67-33.73,12.23-36.92,18.46-4.89-2.93-8.28-5.2-8.28-5.2s-5.63-4.83-13.21-12.27c-.72-.7-1.46-1.43-2.21-2.19-8.67-8.67-15-21.31-11.16-31.91,1.68-4.62,7.31-14.35,7.31-20.13s1-26,3.85-28.91c-.78-3.12-10.44-12-15.6-15.7a13.51,13.51,0,0,0-2.71-1.65L104,88.66l18.68-11.82c.21,1.89.45,3.71.74,5.49,3.72,23.58,13.72,36.92,13.72,36.92,16.38,1,26,7.71,30.84,8.67s1,0,7.71,1c27,2.89,62.64-13.49,90.59-7.71,6,1.25,11.31,5.07,15.92,10.43,6.46,7.47,11.6,17.93,15.52,28.5,6.18,16.62,9.64,40.08,9.92,42.16.12.92-14.86,2-32.72,4-8.14.91-16.89,2-25.15,3.25-2.59.4-5.13.82-7.58,1.26l-.26,0A261.78,261.78,0,0,0,194,224.29c-2,.79-3.91,1.28-5,1.74"/><path class="cls-6" d="M242.16,209.25h-.39l-.53,0c-.45,0-.94.08-1.47.14a105.68,105.68,0,0,0-13.15,3c-3.28.91-6.87,2-10.67,3.15l-.93.29c-8.53,2.65-18,5.84-27.12,9l-.34.12-3.84,1.35"/><path class="cls-7" d="M307.38,200.55c0,.25.19.93.1,1.16"/><path class="cls-6" d="M279.74,132.74a59,59,0,0,0,26-22.17c15.72-25,5.15-52.65,3.85-55.89a6.22,6.22,0,0,1,11.57-2.9c2.51,4,20.21,33.07,8.67,67.47-8.78,26.17-29,39-34.7,42.4"/><path class="cls-3" d="M322.15,51.78a6.27,6.27,0,0,0-6.75-2.89,5.81,5.81,0,0,0-1.3.49,5.85,5.85,0,0,1,.34.48c2.51,4,20.21,33.06,8.67,67.46-7,20.92-21.34,33.34-29.72,39.2l2.74,5.13c5.7-3.37,25.91-16.23,34.69-42.4C342.36,84.85,324.66,55.76,322.15,51.78Z"/><path class="cls-6" d="M307.06,201.12c4.35,19.15,5.7,55.58,8.15,61.29,2.89,6.74,10.6,4.82,12.53,5.78s2.89,3.85,0,14.45c-4.12,11.52-6.12,33.57-6.62,42.18-.95,3.28-2.9,7.2-6.91,7.55-2.67-7.87-9.51-2.49-11.8-.95a2.32,2.32,0,0,1-.69.38c-1.85-6.77-7.23-5.3-11.13-3.09,10.63-20.72,6.84-53,.53-56.67-6.57-1.4-16.43-11.15-16.43-11.15s-26.52-18.65-33-53.07"/><path class="cls-3" d="M327.74,268.32c-1.07-.53-3.47.19-7.17-1,.63,1.93.42,5.56-1.5,12.61-4.12,11.52-6.12,33.57-6.63,42.17-.65,2.28-1.79,4.85-3.76,6.34,2.16-.34,4.29.46,5.53,4.11,4-.36,6-4.27,6.91-7.56.5-8.6,2.5-30.65,6.62-42.17C330.63,272.18,329.66,269.29,327.74,268.32Z"/><path class="cls-3" d="M306.74,201.76v-.06c0-.25,0-.6,0-1a5,5,0,0,0,0-.51c-.47-5.61-3.65-23-10-40.1-3.93-10.57-9.06-21-15.52-28.5-4.62-5.36-9.92-9.18-15.92-10.43-.69-.14-1.38-.26-2.07-.37a35.52,35.52,0,0,1,9.32,7.91c6.45,7.47,11.59,17.93,15.51,28.5,6.35,17.09,9.53,34.49,10,40.1a5,5,0,0,1,0,.51v1.05c.22,1,.44,2.09.64,3.2.1.49.19,1,.27,1.5,3.47,19.83,4.56,50.22,6.79,55.42s7.23,5.24,10.34,5.43a8.24,8.24,0,0,1-1.67-2.54C312,256.24,311,221.08,306.74,201.76Z"/><path class="cls-3" d="M112.27,303.41q.11.72.24,1.41C97.22,330.76,83,314.48,81,311.88h0c.08-.16.16-.3.23-.45a63.93,63.93,0,0,0,4.38-10.51A50.56,50.56,0,0,0,88,286c.08-16.43-8.17-24.21-10.6-44.33a87.71,87.71,0,0,1,.28-22.87C85.22,226.21,90.85,231,90.85,231s3.39,2.27,8.28,5.2c6.76,4.06,16.35,9.42,23.75,11.85C111.77,258.65,109.77,287.8,112.27,303.41Z"/><path class="cls-8" d="M71.13,2.5c-5.61.74-12.94,4.2-17.9,6.33-12,5.13-21.51,14.8-25.93,31.5C21,64,20.66,107.14,39.32,118s60.76,4.69,77.38-20.73C134.53,70,132.58,18.3,103.1,8,95.23,5.21,83.16.9,71.13,2.5"/><path class="cls-1" d="M23.45,70.81a111.38,111.38,0,0,1,3.38-25.73A9.51,9.51,0,0,1,33,43.7c9.45,1.5,7.77,16.93,5.21,22C36.9,68.17,29.52,72,23.45,70.81"/><path class="cls-9" d="M63.83,66.89c.05,6.09,3.71,8.84,8.88,8.79s9.32-2.9,9.85-9c.34-3.89-2.72-10.9-9.34-10.84-6.43.06-9.43,4.92-9.39,11"/><path class="cls-10" d="M66.89,68c0,4.37,2.85,6.34,6.83,6.3s7.17-2.08,7.57-6.43c.27-2.79-2.08-7.82-7.17-7.77s-7.26,3.53-7.23,7.9"/><path class="cls-9" d="M24,61.68c0,5.06,3,7.34,7.27,7.3s7.63-2.4,8.06-7.44c.28-3.23-2.22-9-7.65-9C26.42,52.6,24,56.63,24,61.68"/><path class="cls-10" d="M27.2,62.81c0,3.36,2.19,4.87,5.24,4.84s5.5-1.6,5.81-4.94c.21-2.14-1.6-6-5.51-6s-5.56,2.71-5.54,6.06"/><path class="cls-11" d="M71.07,44.56c-1.49,2.65,2,1.32,8.73,3.8,9.3,3.42,7.22,9.19,8.67,6.51,1.81-3.36-1.85-7.49-3.7-8.72-2.59-1.72-5.39-3.23-10.06-.74,3.68-4.88-2.84-2.29-3.64-.85"/><path class="cls-12" d="M83.68,60.94s.79-5.8-4-8.55-8,1.65-8,1.65a8.29,8.29,0,0,1,7.63.43,9,9,0,0,1,4.37,6.47"/><path class="cls-12" d="M37.62,53S36.39,48.36,32,48.12s-5.48,4.25-5.48,4.25a7.18,7.18,0,0,1,5.83-2.56A6.65,6.65,0,0,1,37.62,53"/><path class="cls-13" d="M76.58,65.94a1.79,1.79,0,1,0,1.78-2,1.87,1.87,0,0,0-1.78,2"/><path class="cls-13" d="M34.22,61.62a1.79,1.79,0,1,0,1.78-2,1.87,1.87,0,0,0-1.78,2"/><g class="cls-14"><rect class="cls-15" x="100.31" y="14.54" width="54.24" height="96.98" transform="translate(-0.51 1.05) rotate(-0.47)"/></g><path class="cls-3" d="M100.68,101.34a10.66,10.66,0,0,0,8.48,2.35c-.41-.22-.78-.51-1.22-.73-5-2.53-5.22-14.27,3.56-41.65,6.84-21.34,6.73-29.89,0-38.55,5.44,8.86,5.15,17.68-4.86,36.57C94.69,81.88,95.56,97.19,100.68,101.34Z"/><path class="cls-16" d="M111.49,61.12c10.78-23.13,5-33-3.18-42.9-.72-.87-.88-1.6-.62-2.16,15.23,3.08,24,23.07,14.87,38.33-7.51,13.67-18.85,26.34-16.82,43.07.24,1.73,2.24,6.41,1.06,5.14-4.29-4.66-4.5-19,4.69-41.48"/><path class="cls-17" d="M108.9,17.71c21.39,28.15-11.74,60.55-4.13,79.92a20.15,20.15,0,0,0,2.48,4.9,10.9,10.9,0,0,0,4.81,2.47c5.54,1.33,10.93-1.84,14.8-5.56-3.86,3.77-9.25,7-14.83,5.69a11.16,11.16,0,0,1-4.91-2.47,20.23,20.23,0,0,1-2.56-5c-2.11-5.29-1.3-11.11.22-16.43,2-7.15,4.83-14,7-21.07,4.62-13.9,6.38-29.95-3.49-42l.59-.46Z"/><path class="cls-8" d="M23.92,110.37s-.75,6-3.87,9.26,6.77,12.47,17.07,9.44S48.65,119,54.88,119.71s17,6.1,20.9,1.9c0,0-11.86-24.87-26.22-16s-25.64,4.77-25.64,4.77"/><g class="cls-18"><g class="cls-19"><g class="cls-20"><rect class="cls-21" x="16.93" y="110.37" width="32.15" height="21.73"/></g></g></g><path class="cls-22" d="M23.43,108.81s.43,8.33-1.72,10,12.46,6.67,15.68,4.17,10.35-16.17,16.36-16.45-5.12-5.25-9-1.36-13.6,14.48-21.33,3.64"/><path class="cls-8" d="M31.51,71S11.82,82.71,3.87,85.68s3.87,22.48,11,26.51,4.89-5.73,4.89-5.73,4.28,9.33,14.06,9.75,11-15.27,21.2-12.3S39.86,73.28,31.51,71"/><g class="cls-18"><g class="cls-23"><g class="cls-24"><rect class="cls-21" x="-4.15" y="81.23" width="57.61" height="35.01"/></g></g></g><path class="cls-8" d="M35.27,106.34a1.4,1.4,0,0,1-1.84.94,1.62,1.62,0,0,1-.86-2,1.41,1.41,0,0,1,1.84-.94,1.63,1.63,0,0,1,.86,2"/><g class="cls-25"><rect class="cls-26" x="9.54" y="77.01" width="23.43" height="23.36" transform="translate(-69.76 94.52) rotate(-80.19)"/></g><path class="cls-27" d="M16.09,86.71c1.35,1.8.75,4.8-1.36,6.69a18.76,18.76,0,0,1-3.44-7.48c1.8-.87,3.74-.63,4.8.79"/><path class="cls-27" d="M26.79,88.37a5.9,5.9,0,0,1,2.54,2.5A23.28,23.28,0,0,1,23.51,96c-2.45-1.27-3.7-4-2.8-6.12s3.62-2.8,6.08-1.52"/><path class="cls-11" d="M24.66,83.13c-.1.66-2.3.8-4.9.33s-4.62-1.38-4.53-2,2.29-.8,4.89-.32,4.63,1.38,4.54,2"/><path class="cls-27" d="M20.11,97.42a2.62,2.62,0,0,1-1.58-.18,4.76,4.76,0,0,1-.81-.52,51.32,51.32,0,0,1,1.39-9.3,36.69,36.69,0,0,0,1,10"/><path class="cls-8" d="M34.5,98.48a1.41,1.41,0,0,1-1.84,1,1.63,1.63,0,0,1-.86-2,1.4,1.4,0,0,1,1.83-1,1.63,1.63,0,0,1,.87,2"/><path class="cls-8" d="M28.38,104a1.4,1.4,0,0,1-1.83.95,1.62,1.62,0,0,1-.86-2,1.4,1.4,0,0,1,1.83-1,1.62,1.62,0,0,1,.86,2"/><path class="cls-8" d="M8.62,90.55a1.4,1.4,0,0,1-1.83,1,1.63,1.63,0,0,1-.86-2,1.4,1.4,0,0,1,1.83-.94,1.6,1.6,0,0,1,.86,2"/><path class="cls-8" d="M13.06,97.79a1.41,1.41,0,0,1-1.84.95,1.63,1.63,0,0,1-.86-2,1.4,1.4,0,0,1,1.84-.94,1.62,1.62,0,0,1,.86,2"/><path class="cls-8" d="M7.16,98.4a1.4,1.4,0,0,1-1.84.94,1.62,1.62,0,0,1-.86-2,1.4,1.4,0,0,1,1.83-.94,1.62,1.62,0,0,1,.87,2"/><path class="cls-28" d="M21.49,109.53c4.28,3.46,9.94,7.62,15.55,5.4,2.24-1,3.68-3.19,5.41-4.92,3.3-3.62,8.71-9.47,13.29-4.18-3.37-2.3-6-1-8.5,1.67-3.12,2.94-5.51,7.12-9.53,9-6.22,2.37-12.47-2.48-16.22-7"/><path class="cls-2" d="M79.85,313.76c0-.19-.08-.32-.08-.32"/><path class="cls-29" d="M85.31,312.88c-12.79.67-9.61,14.95-8.65,18.91-1.67-.71-3.23-1.5-4.37-2.06-3.07-1.53-14.76-6.28-7.05-17.85C69.09,306.1,86.07,312.84,85.31,312.88Z"/><path class="cls-30" d="M249.36,326.71c-12.66,11.76-19,10.86-22.61,10a6.77,6.77,0,0,1-.2-.74,9.3,9.3,0,0,1-7,.74,2.54,2.54,0,0,1-1-.64c-.14.26-.56.64-1.72.64-1.81,0-7.24-1.81-8.15-9s6.34-14.48,9.95-13.57a19.28,19.28,0,0,0,4.26.4c2.6-1.5,5.69-5.83,5.69-5.83,10,12.67,22.62.91,22.62,1.81S252.07,320.38,249.36,326.71Z"/><path class="cls-30" d="M218.6,335.76a.58.58,0,0,1-.08.26"/><path class="cls-30" d="M218.52,336c-2.11-2.08-3.19-8.19-.82-12.93,2.71-5.42,9.05-5.42,9.05-5.42"/><path class="cls-30" d="M226.75,335.76a1.75,1.75,0,0,1-.2.16"/><path class="cls-30" d="M226.55,335.92c-2.85-11.28,10.15-17.35,10.15-17.35"/><path class="cls-29" d="M292.55,339.12a50,50,0,0,0,.92,10.11s-1.84,2.76-9.2,2.76c-8.27-2.76-5.51-20.22-5.51-20.22s6.43-6.44,11.76-4.23a6.94,6.94,0,0,1,3,2.39A50.92,50.92,0,0,0,292.55,339.12Z"/><path class="cls-30" d="M306.34,336.36a91.4,91.4,0,0,0,0,11.95c-6.44,7.36-12.87.92-12.87.92a50,50,0,0,1-.92-10.11,50.92,50.92,0,0,1,.92-9.19s7.27-10.9,13.68-1.1C306.79,331.17,306.51,333.69,306.34,336.36Z"/><path class="cls-30" d="M326.56,339.12c-.92,2.76,0,.92-5.52,6.44s-14.7,2.75-14.7,2.75a91.4,91.4,0,0,1,0-11.95c.17-2.67.45-5.19.81-7.53-6.41-9.8-13.68,1.1-13.68,1.1a6.94,6.94,0,0,0-3-2.39c2.76-2.32,4.16-9.28,4.16-9.28,20.88,7.76,28.41-12.14,28.81-16-1.42,4.56-.61,16.9-.61,20.34C322.88,326.25,327.48,336.36,326.56,339.12Z"/><path class="cls-30" d="M307.21,329.82c0,.06,0-.87.05-.81,0-.92,9.19-11,11.95,5.51"/><path class="cls-30" d="M307.26,328.09l-.11.74"/><path class="cls-6" d="M188.15,226.26c-.9,3.12-2.08,6.58-3.57,10.43-10.1,38-11.41,66.52-11.15,83.69-14.17,21.95-31,8.69-34.79,5.22,13.25-21.35,10.47-61.46,7.35-84.34.14-.06-.11-.65,0-.71"/><path class="cls-3" d="M187.77,226.06l-6.45,2.19c-.79,2.53-1.62,4.63-2.77,7.61-10.1,38-11.41,66.52-11.15,83.69-5.12,7.93-10.58,11.25-15.66,12.11,6.49,1.07,14.3-1.05,21.44-12.11-.26-17.17,1-45.67,11.15-83.69C185.82,232,186.87,229.18,187.77,226.06Z"/><path class="cls-29" d="M137.14,333.79a29.45,29.45,0,0,0-1.87,6.56,29.15,29.15,0,0,0-.17,8.16c-.11.37-.21.71-.32,1a7.88,7.88,0,0,1-.39,1c-.88,1.94-2.31,2.92-5.69,2.92-12.19-5.63-3.75-19.69-3.75-19.69s6.93-5.94,10.36-4.87C136.61,329.32,137.39,330.71,137.14,333.79Z"/><path class="cls-31" d="M149.36,350.67c-.3.42-.61.79-.91,1.14"/><path class="cls-32" d="M173.69,321.2c0,2.81-2.37,12.53-2.37,14.41a21.89,21.89,0,0,1-8.86,16.93c-7.83,5-13,1.32-15-.73-5.95,6.87-11.16.11-12.7-2.26.11-.33.21-.67.32-1a29.15,29.15,0,0,1,.17-8.16,29.45,29.45,0,0,1,1.87-6.56c.25-3.08-.53-4.47-1.83-4.87a41.49,41.49,0,0,0,4.64-5.44s4.68,3.82,17.81,3.82S173.69,318.38,173.69,321.2Z"/><path class="cls-32" d="M151.2,335.66a27.41,27.41,0,0,0-3.75,15.94"/><path class="cls-33" d="M329.86,119.25c11.54-34.4-6.16-63.49-8.67-67.47a6.22,6.22,0,0,0-11.57,2.9c1.3,3.24,11.87,30.89-3.85,55.89a58.49,58.49,0,0,1-23.6,21c-4.61-5.36-9.91-9.18-15.92-10.43-27.95-5.78-63.6,10.6-90.59,7.71-6.75-1-2.89,0-7.71-1s-14.46-7.71-30.84-8.67c0,0-5.26-7-9.57-19.87,4.75-3.75,9.1-8.37,12.41-11.3,10.72-9.52,14.2-21.38,9.91-29.23-5.8-10.59-18.66-30.42-25.65-38a19.71,19.71,0,0,0-9.68-5.67A30.52,30.52,0,0,0,103.1,8C95.23,5.21,83.16.9,71.13,2.5c-5.61.74-12.94,4.2-17.9,6.33A44.52,44.52,0,0,0,42,15.7l-.25.1c-7,2.93-21.69,12.28-28.82,17.6-5.28,4-6.58,13-2.3,22.63,2.43,5.5,5.5,16,11.38,19.27-1.65,1.07-3.39,2.19-5.14,3.28-2.85.17-4.4,1.33-5.13,3.09a59.49,59.49,0,0,1-7.9,4c-7.95,3,3.87,22.48,11,26.51a5.73,5.73,0,0,0,3.09,1c2.87,0,2.46-4.25,2.17-6a19.64,19.64,0,0,0,2,2.86l-.63-.5c.59.7,1.25,1.42,2,2.11,0,.41,0,.85-.06,1.29a20.73,20.73,0,0,1-1.28,3.57,12,12,0,0,1-2.06,3.13c-2.14,2.24,1.86,7.3,7.92,9.25a15.43,15.43,0,0,0,9.15.19,23.27,23.27,0,0,0,7.12-3.45l.29-.19,0,0c1.64-1.16,2.91-2.36,4.55-3.74h0a59.19,59.19,0,0,0,14.67,1.38c5.07,4.26,11,10.15,11.66,12.58-2.89,2.89-3.85,23.13-3.85,28.91s-5.22,11.81-8.27,21.09c-3.45,10.49,3.45,22.28,12.12,31,.75.76,1.49,1.49,2.21,2.19a87.71,87.71,0,0,0-.28,22.87C79.79,261.76,88,269.54,88,286a50.56,50.56,0,0,1-2.37,14.94,63.93,63.93,0,0,1-4.38,10.51,2.12,2.12,0,0,1-.11.21c-2.32-.62-7.22-5.75-15.86.25C56.46,321,67.9,330,72,329.23c.16,4.87,8.48,4.54,10.7,4.4a5.38,5.38,0,0,0,1.86-.07A58.74,58.74,0,0,1,96,332a16.4,16.4,0,0,0,9.19-2.29c7.85-4.49,7.12-25.84,7-26.32-2.5-15.61-.5-44.76,10.61-55.32a25.3,25.3,0,0,0,5.56,1.26c10.82.91,7.82-3.33,17.7-7.82,3.08,22.61,5.45,61.91-7.3,83.43a32.43,32.43,0,0,1-3.53,4c-3.43-1.07-10.36,4.87-10.36,4.87s-8.44,14.06,3.75,19.69c3.38,0,4.81-1,5.69-2.92a7.88,7.88,0,0,0,.39-1c1.54,2.37,6.75,9.13,12.7,2.26h0c2,2.05,7.15,5.71,15,.73,8.43-6.56,9.37-15,9.37-16.88s3.42-12.91,1.42-15.47c-.26-17.18,1-45.35,11.08-83.37,1.49-3.85,2.67-7.31,3.57-10.43,9.12-3.17,18.59-6.36,27.12-9,5.63,10,16.41,26.88,23.28,31,2.72,3.62,6.27,37.89-13.34,64.4a11.72,11.72,0,0,1-2.1,1.66,19.28,19.28,0,0,1-4.26-.4c-3.61-.91-10.85,6.33-9.95,13.57s6.34,9,8.15,9c1.16,0,1.58-.38,1.72-.64a2.54,2.54,0,0,0,1,.64,9.3,9.3,0,0,0,7-.74,6.77,6.77,0,0,0,.2.74c3.61.91,9.95,1.81,22.61-10,2.34-5.46,2-12.93,1.85-15.46,2.19-10.34,13.71-40,23.68-49.92,5.5,5.66,11.11,9.82,16.42,11.15,6,3.42,9.68,32.61,1,53.29a22.72,22.72,0,0,1-1.82,1.77,7.08,7.08,0,0,0-4.76-.1,10.62,10.62,0,0,0-7.44,10.19c-.06,5.34.84,12.66,5.95,14.36,7.36,0,9.2-2.76,9.2-2.76s6.43,6.44,12.87-.92c0,0,9.19,2.76,14.7-2.75s4.6-3.68,5.52-6.44-3.68-12.87-3.68-16.55c0-2.11-.3-7.58-.21-12.55,1.08-9.32,2.79-20,5.26-26.94,2.89-10.6,1.93-13.49,0-14.45s-9.64,1-12.53-5.79c-2.45-5.73-3.51-42-7.92-61.13.18-.1-4-26.16-9.79-41.61h0C305.39,155.13,322.09,142.39,329.86,119.25Z"/><path class="cls-17" d="M63.74,122.68c9.32-.56,18.72-.85,28,.37-9.28-1-18.66-.43-27.92.37l-.07-.74Z"/><path class="cls-17" d="M274.67,261.64c-17.58-13.85-30.36-34.24-33.43-56.54,2.45,16.64,10.41,32.16,21.63,44.58A87.49,87.49,0,0,0,275.1,261l-.43.61Z"/><path class="cls-17" d="M214.91,217c8.8-2.42,17.6-5.41,26.71-6.34l.89.05-.89,0c-9.06,1.17-17.77,4.39-26.49,7l-.22-.71Z"/><path class="cls-34" d="M127.16,151.33c-2.14,2.67-5.17,6.37-7.22,9a46.72,46.72,0,0,0-4.82,7.13,4.29,4.29,0,0,0-.62,2.72c-1.2-4.73,9.18-15.62,12.66-18.88Z"/><path class="cls-32" d="M137.14,333.79S147.26,324.72,151,336c1-1.92,9.57-7.81,12.38.63"/><path class="cls-35" d="M105.22,329.73A16.4,16.4,0,0,1,96,332a58.74,58.74,0,0,0-11.49,1.54c-.54.13-1.21-.16-1.86.07-2,.42-10.7.42-10.7-3.44-1-4-2.18-17.63,10.6-18.31,0,0,24.17,5.59,28.76-10.49C111.34,302.16,115.94,323.6,105.22,329.73Z"/><path class="cls-35" d="M82.62,333.63c-.88-4.91-2.83-20.12,6.71-20.79"/><path class="cls-34" d="M23,75.82A83.68,83.68,0,0,1,35.64,23.44,82.13,82.13,0,0,0,23.45,62.12a77.05,77.05,0,0,0,.25,13.59l-.74.11Z"/><path class="cls-11" d="M37.2,42.74c.9,2.57-1.39.56-6,.82-6.41.35-5.24,5.65-6.11,3.06C24,43.37,26.62,41,27.91,40.42c1.81-.73,3.76-1.24,6.8,2-2.27-5,2-1.13,2.49.27"/><path class="cls-36" d="M146.46,241.6c-9.88,4.49-7.2,8.66-18,7.75a25.3,25.3,0,0,1-5.56-1.26c-7.4-2.43-17-7.79-23.75-11.85,2.15-4.19,7.05-10.35,17.49-14.44a65.32,65.32,0,0,1,19.43-4c2.11,3,4.55,5.75,6.84,6.51C143.45,224.57,145.06,231.4,146.46,241.6Z"/><path class="cls-34" d="M52.2,98.72c2.95,0,8.11,1.71,7.09,5.51-.2-3.58-4.34-4.34-7.09-5.51Z"/><path class="cls-37" d="M99.13,236.24c-5.45-2.73-17.6-13.56-21.49-17.47"/></svg>