<svg id="Layer_1" data-name="Layer 1" xmlns="http://www.w3.org/2000/svg" viewBox="0 0 106.02 137.88"><defs><style>.cls-1,.cls-11{fill:#ffc952;}.cls-1,.cls-16,.cls-17{stroke:#000;stroke-miterlimit:10;stroke-width:0.25px;}.cls-2{fill:#f9af33;}.cls-3{fill:#f49e2c;}.cls-4{fill:#ffd80e;}.cls-5{fill:#9b6218;}.cls-6{fill:#ec8100;}.cls-7{fill:#f39200;}.cls-8{fill:#683c11;}.cls-16,.cls-17,.cls-9{fill:#e3062c;}.cls-10{fill:#ffc257;}.cls-12{fill:#f98b29;}.cls-13{fill:#692015;}.cls-14{fill:#fff;}.cls-15{fill:#d1062c;}.cls-17{isolation:isolate;opacity:0.47;}.cls-18{fill:#e59a20;}.cls-19{fill:#a35f05;}</style></defs><path class="cls-1" d="M16.26,11.57c-2.13,1-2.15,4-1.85,6.33q.94,7.25,1.9,14.48a11.22,11.22,0,0,0-1.26-4.78c-.89-1.4-2.67-2.4-4.23-1.82-1.9.7-2.42,3.11-2.45,5.12a30.37,30.37,0,0,0,2.38,12.3c.64-2-1.63-4-3.66-3.62S3.69,42,3.48,44.09a12.47,12.47,0,0,0,1.31,6A21.57,21.57,0,0,1,6.72,56C7,54.36,5.05,53,3.5,53.5a4,4,0,0,0-2.43,3.86A103.24,103.24,0,0,0,3,68.81C6.76,82.89,14,90.5,16.07,94.22c-.93-11.29-.61-23,3.92-33.41s14-19.19,25.26-20.3A42.83,42.83,0,0,1,22.89,17.22a14,14,0,0,0-2.22-4.36A3.94,3.94,0,0,0,16.26,11.57Z"/><path class="cls-2" d="M15,38.23a3.7,3.7,0,0,0-.33,2.63,35.93,35.93,0,0,0,1.74,7.3c.17-1.22-1.49-2-2.62-1.55a4.31,4.31,0,0,0-2.06,2.93,14.66,14.66,0,0,0,.77,10.1c-.22-1.43-2.39-1.77-3.48-.8a5.31,5.31,0,0,0-1.33,4A33,33,0,0,0,11.17,77.1a98.88,98.88,0,0,0,7.56,12.68A40.91,40.91,0,0,1,20.1,65.87,56.74,56.74,0,0,1,33.17,45.59c1.91-2,4.32-3.93,7-3.58A58.07,58.07,0,0,1,24.89,26.16c-.71-1.1-1.9-2.39-3.07-1.82a2.57,2.57,0,0,0-1.1,2.11,41.26,41.26,0,0,0,.17,13.26,7.66,7.66,0,0,0-2.69-2.17A2.66,2.66,0,0,0,15,38.23Z"/><path class="cls-3" d="M75,106.51c-4.17,1.94-8.9,3.74-11.1,7.78-.91,1.67-1.29,3.57-2.06,5.3s-2.11,3.41-4,3.74c-3.48.62-5.73-3.35-8.2-5.87-5.09-5.2-10.18-6-16.85-8.94-6-2.61-13.81-6.76-16.37-12.75a42.79,42.79,0,0,1-2.88-19.16C14.13,65.92,17.74,55,25.4,47.54S45.21,36.7,55,41.12c2.17,1,4.38,2.35,6.73,2A6.82,6.82,0,0,0,66.5,39a31.34,31.34,0,0,0,1.72-6.38,38.12,38.12,0,0,1,8.77-17c2.27-2.54,5-4.83,8.28-5.75s7.19-.18,9.33,2.47c1.6,2,2,4.64,2.32,7.16l4.41,33.35c1,7.64,2,15.45.46,23C99,89.59,87.78,100.55,75,106.51Z"/><path class="cls-4" d="M61.69,43.1a4.32,4.32,0,0,0,.71-.17c.24,2.89,2.11,5.69,4.07,8A64.79,64.79,0,0,0,93.06,69.44a30.69,30.69,0,0,0,9.35,2.12,37.31,37.31,0,0,1-.62,4.22,32.92,32.92,0,0,1-1.25,4.47,2.81,2.81,0,0,1-2.46-1.4c-.64-1-1-2.15-1.66-3.07a5.1,5.1,0,0,1-9.61-2.35A5.41,5.41,0,0,1,78,69.89a6.53,6.53,0,0,1-8.09-4.43,6.63,6.63,0,0,1-.25-2.12,5.34,5.34,0,0,1-6.28-7.06,3.1,3.1,0,0,1-2.63-4.39,9,9,0,0,1-.26-8.76A4.82,4.82,0,0,0,61.69,43.1Z"/><path class="cls-2" d="M27.33,55.14a2.47,2.47,0,0,1,1.32-.79c3.3-1,6.93.07,9.84,1.94s5.24,4.45,7.72,6.85a41.7,41.7,0,0,0,13.09,9,22,22,0,0,0,15.63.7c-1.93,7.4-7.41,13.6-14.11,17.28s-14.54,5-22.18,4.64C33,94.52,27,93.26,22.83,89.41a20.81,20.81,0,0,1-5.63-9.9A61.83,61.83,0,0,1,15.53,68.1a19.37,19.37,0,0,0,8.76,2.48,14.62,14.62,0,0,1-7.12-6.07c4.78-1.63,10.23,3.1,14.8.95a13,13,0,0,1-9-3.82c-.82-.83-1.54-2.17-.83-3.09s1.81-.67,2.79-.48l8.22,1.65c-1.07-1-2.66-1-4-1.4S26.48,56.29,27.33,55.14Z"/><polygon class="cls-5" points="56.2 120.15 58.53 119.7 59.4 136.12 57.27 136.24 56.2 120.15"/><path class="cls-5" d="M52.93,137c1.82-.22,6.41.21,8.23,0-1.74-1.55-6.16-2.5-8.73-2.2-.31,0-2,.19-1.41.35-.29.13-.77,1-.58,1.07a1.9,1.9,0,0,0,.91.82A8.33,8.33,0,0,0,52.93,137Z"/><path class="cls-5" d="M65.34,135.25l4.44-.5c1.82-.15,3.09-.69,3.14-1.23a1.34,1.34,0,0,0-.21-.77c-.07-.1.11-.31-.09-.4a2.38,2.38,0,0,0-.8,0c-3.47.64-3.63.43-7,1.47a28,28,0,0,1,4-1.46,1.67,1.67,0,0,0,1.29-1,1,1,0,0,0,.06-.8,1.08,1.08,0,0,0-.86-.68,3.12,3.12,0,0,0-1.45.08l-9.59,4.9c-.19.09-.88.79-.72.93-.91.3-2.62.46-3.56.66a120.74,120.74,0,0,0,17.84.49,2.07,2.07,0,0,0,1.28-.23c1.18-1.42-1.61-1.42-2-1.42A26.59,26.59,0,0,0,65.34,135.25Z"/><polygon class="cls-5" points="34.48 132.88 34.69 117.23 37.09 117.66 36.85 132.93 34.48 132.88"/><path class="cls-5" d="M30,133.18c1.84-.08,7.33,1.25,8.29.37-2.09-1.22-6.57-2.59-9.17-2.26-.3,0-.38.13-.67.22s-.39.67-.38,1a1.07,1.07,0,0,0,.58.68A6.77,6.77,0,0,0,30,133.18Z"/><path class="cls-5" d="M44.33,132.57l5.31-.5c.37,0,.6-.41.92-.58s0-.57-.2-.94-1.25-.56-1.68-.51a53.22,53.22,0,0,0-8.11,1.45L47,129.55a1.88,1.88,0,0,0,1-1.41.83.83,0,0,0-.8-.88,2.94,2.94,0,0,0-1.45.1L35.6,131.49c-.19.08-.86.27-.72.42s-4.6.92-4.42,1a139.86,139.86,0,0,0,19.18,1.92c.35.06,1.31-.09,1.18-.53.89-.84-1.49-1.75-1.86-1.78C46.36,132.2,47,132.42,44.33,132.57Z"/><path class="cls-6" d="M97.1,22.87c0,1-.09,2-.14,3a17.77,17.77,0,0,0,7.61-5.41c-2-.1-4.27,1.14-6,2a3.43,3.43,0,0,0-1.3.89C96.89,23.77,96.76,22.47,97.1,22.87Z"/><path class="cls-7" d="M96.89,20.06A1.53,1.53,0,0,1,98,19.44a10.15,10.15,0,0,1,6.72,1.16A20.86,20.86,0,0,0,96.89,24c0-1-.06-2.07-.1-3.1A1.73,1.73,0,0,1,96.89,20.06Z"/><path class="cls-8" d="M98.09,20.9a2.12,2.12,0,0,0,.84-.3,1.35,1.35,0,0,0-1-.16c-.14,0-.3.13-.28.27S97.89,20.92,98.09,20.9Z"/><path class="cls-9" d="M93.73,13.24c.43.54.8,1.22,1.47,1.4a2.4,2.4,0,0,0,2.45-1A14.91,14.91,0,0,0,100,9.45a8.72,8.72,0,0,0-.08-5.62,4.34,4.34,0,0,0-4-2.53c-1.73.14-3.22,1.25-3.12,3,0-2.2-1.8-3.51-4-3.53-.17,0-.57-.05-.7.07a3.58,3.58,0,0,0-3,4.36,4.16,4.16,0,0,0,.17.63c-.08-2-2.59-2.73-4.38-1.81a5.46,5.46,0,0,0-2.64,5.12,14.86,14.86,0,0,0,2.12,5.45,2.11,2.11,0,0,1,1-2.12,6.43,6.43,0,0,1,2.33-.82A19.79,19.79,0,0,1,89,11,6.55,6.55,0,0,1,93.73,13.24Z"/><path class="cls-10" d="M62.26,43a7.15,7.15,0,0,0,4.24-4,31.34,31.34,0,0,0,1.72-6.38,38.12,38.12,0,0,1,8.77-17c2.27-2.54,5-4.83,8.28-5.75s7.19-.18,9.33,2.47c1.6,2,2,4.64,2.32,7.16l4.41,33.35c1,7.64,2,15.45.46,23a32.41,32.41,0,0,1-1.2,4.31,4.22,4.22,0,0,1-2-1.37,8.67,8.67,0,0,1-1.52-4,5,5,0,0,1-9.18-3.39,4.33,4.33,0,0,1-7.24-4.18,3.63,3.63,0,0,1-6-4,4.62,4.62,0,0,1-6.9-5.16,4.62,4.62,0,0,1-4.67-6.82c-1.56-.52-2.32-2.36-2.2-4A13.18,13.18,0,0,1,62.26,43Z"/><path class="cls-11" d="M66,50.37A3.12,3.12,0,0,1,66,46a3.47,3.47,0,0,1,.42-.34h0a2.88,2.88,0,0,1-3.64-1.82,2.91,2.91,0,0,1-.15-.92h0A7.29,7.29,0,0,0,66.5,39a31.34,31.34,0,0,0,1.72-6.38,38.12,38.12,0,0,1,8.77-17c2.77-3.1,6.23-5.84,10.54-6.15a8.9,8.9,0,0,1,3.12.35c5.1,1.51,5.75,5.77,6.27,9.68l4.41,33.35c.45,3.44.9,6.92,1.12,10.4a4.09,4.09,0,0,1-1.82,1,3.42,3.42,0,0,1-3.23-1.67,10,10,0,0,1-1.22-3.62,3.59,3.59,0,0,1-7,1.74,3.55,3.55,0,0,1,.23-2.38,4.12,4.12,0,1,1-8-2h0a3.25,3.25,0,1,1-5.76-3l.15-.25a3.18,3.18,0,0,1-5.6-3h0A3.14,3.14,0,0,1,66,50.37Z"/><path class="cls-9" d="M81.19,19.92a6.91,6.91,0,1,0,6.53-7.27h0A6.91,6.91,0,0,0,81.19,19.92Z"/><path class="cls-12" d="M42.16,115.92c-.61,1.47-1,2.88-2.11,3.88-1.39,1.48-3.37,1.32-5,.63a7.18,7.18,0,0,1-3.92-3.25c-1.65-2.45-2.59-8.64-2.56-11.59,5.75,1.59,11.82,5.91,17.74,6.64A9.62,9.62,0,0,0,42.16,115.92Z"/><path class="cls-12" d="M87.75,14.77a5.15,5.15,0,1,0,5.27,5v0A5.14,5.14,0,0,0,87.75,14.77Z"/><path class="cls-13" d="M87.76,15.48a4.44,4.44,0,1,0,4.55,4.33,4.44,4.44,0,0,0-4.55-4.33Z"/><path class="cls-14" d="M89.89,16.25A1.81,1.81,0,1,0,91.76,18a1.81,1.81,0,0,0-1.87-1.75Z"/><path class="cls-9" d="M92.31,28.12a10.93,10.93,0,0,1-12.21-2.2,6.95,6.95,0,0,0,12.21,2.2Z"/><path class="cls-9" d="M97.75,25.36c-2.39,5.79-.73,12.26,2.4,17.69A3.3,3.3,0,0,0,104,41.61a4.83,4.83,0,0,0,.47-5c-.77-1.5-2.27-2.46-3.43-3.68C99.18,31,98.71,28,97.75,25.36Z"/><path class="cls-12" d="M16.44,95.77a42.79,42.79,0,0,1-2.88-19.16A52.51,52.51,0,0,1,16.09,63a29.43,29.43,0,0,0,5.45,21.58C27,92,35.48,97,44.44,99.27a51.76,51.76,0,0,0,57.38-23.62v.13C99,89.59,87.82,100.55,75,106.51c-4.17,1.94-8.9,3.74-11.1,7.78-.91,1.67-1.29,3.57-2.06,5.3s-2.11,3.41-4,3.74c-3.44,1-5.93-3.21-8.2-5.87-5.2-4.94-10.18-6-16.85-8.94C26.93,106.17,19,101.76,16.44,95.77Z"/><path class="cls-2" d="M14.23,68.38a1.41,1.41,0,0,1,1.89-1.9,36.34,36.34,0,0,0,11.21,3.66A12.68,12.68,0,0,1,19,65.74,1.36,1.36,0,0,1,20.3,63.5a56,56,0,0,0,15.35.71A16.75,16.75,0,0,1,23.4,60.13,1.51,1.51,0,0,1,23.26,58a1.53,1.53,0,0,1,1.24-.51l13.77,1a15.67,15.67,0,0,1-8.87-2.15,1.59,1.59,0,0,1,1-2.92c9.25,1.14,20.09-1.12,27.16-2.14l-9.12,14c-3.14,4.82-6.55,9.88-11.77,12.3-3.35,1.56-6.19,1.8-7.36,5.3C21.5,80.18,17.24,74.54,14.23,68.38Z"/><path class="cls-11" d="M21.41,78.42c11,10.23,28.07,13.64,41.78,7.45,4.07-1.84,7.92-4.5,10.29-8.29,4-6.34,2.85-15.28-2.27-20.73s-13.68-7.17-20.67-4.52c-6.27,2.37-9.78,9.17-13.83,14.52S27.89,76.79,21.41,78.42Z"/><path class="cls-15" d="M87.89,10.8a2.4,2.4,0,0,0-1,.07.49.49,0,0,1-.25-.94,3.32,3.32,0,0,1,1.47-.06C88.77,10,88.51,10.89,87.89,10.8Z"/><path class="cls-15" d="M84.16,11.64a2.2,2.2,0,0,0-1.1.43c-.48.38-1.17-.3-.68-.69a3.4,3.4,0,0,1,1.78-.71C84.77,10.6,84.77,11.57,84.16,11.64Z"/><path class="cls-15" d="M83.3,13.76a2.52,2.52,0,0,0-1,.67c-.42.46-1.1-.22-.68-.69A3.53,3.53,0,0,1,83,12.82C83.63,12.59,83.89,13.53,83.3,13.76Z"/><path class="cls-15" d="M80.89,13.6a15,15,0,0,1-1.41.94c-.57.26-1.06-.58-.49-.84s1-.6,1.41-.93a.48.48,0,0,1,.66.17.49.49,0,0,1-.17.66Z"/><path class="cls-15" d="M80.54,17a2.45,2.45,0,0,0-.63.73.49.49,0,0,1-.69.09.48.48,0,0,1-.15-.58,3.78,3.78,0,0,1,1-1.07C80.55,15.83,81,16.67,80.54,17Z"/><path class="cls-15" d="M78.18,16.32a10.71,10.71,0,0,0-1.53,1.48c-.43.45-1.12-.24-.69-.69a14,14,0,0,1,1.73-1.63C78.19,15.1,78.67,16,78.18,16.32Z"/><path class="cls-15" d="M78.49,20.26a5.66,5.66,0,0,0-.95,1.18.49.49,0,0,1-.69.09A.48.48,0,0,1,76.7,21a6.12,6.12,0,0,1,1.11-1.37C78.26,19.15,79,19.84,78.49,20.26Z"/><path class="cls-15" d="M75.24,19.73c-.28.53-.73,1-1,1.53s-1.17.32-.93-.25a17.62,17.62,0,0,1,1.06-1.77A.5.5,0,0,1,75.24,19.73Z"/><path class="cls-15" d="M76,24.35c-.14.42-.3.83-.48,1.24-.25.57-1.08.07-.83-.49a9.25,9.25,0,0,0,.37-1C75.29,23.5,76.23,23.75,76,24.35Z"/><path class="cls-15" d="M72.72,24.24A3.23,3.23,0,0,0,72,25.55c-.21.58-1.15.33-.94-.26a4,4,0,0,1,1-1.73C72.51,23.16,73.2,23.84,72.72,24.24Z"/><path class="cls-15" d="M74.63,27.72A11.79,11.79,0,0,0,74,29.83c-.08.61-1.05.62-1,0a13.93,13.93,0,0,1,.63-2.36C73.89,26.87,74.82,27.13,74.63,27.72Z"/><path class="cls-15" d="M71,27.79a7.57,7.57,0,0,1-1.14,3c-.29.55-1.13.06-.83-.49a6.69,6.69,0,0,0,1-2.51C70.06,27.17,71,27.17,71,27.79Z"/><path class="cls-15" d="M72.82,32.1a8.58,8.58,0,0,1-.31,1.49.49.49,0,0,1-.94-.26,6.55,6.55,0,0,0,.32-1.23C71.89,31.48,72.89,31.47,72.82,32.1Z"/><path class="cls-15" d="M69.41,32.9l-.18,1.23c-.08.62-1,.36-.93-.26l.18-1.23C68.57,32,69.5,32.29,69.41,32.9Z"/><path class="cls-15" d="M77,28.21a4.34,4.34,0,0,0-.26,1.47.5.5,0,0,1-1,0A5.08,5.08,0,0,1,76,28C76.24,27.36,77.17,27.61,77,28.21Z"/><path class="cls-15" d="M75.89,32.79c-.11.37-.21.75-.31,1.12a.47.47,0,0,1-.6.33.48.48,0,0,1-.33-.59h0l.3-1.12a.49.49,0,0,1,.94.26Z"/><path class="cls-15" d="M74.89,36.27a5.94,5.94,0,0,0-.16,1.11.5.5,0,0,1-1,0A6.42,6.42,0,0,1,73.89,36a.52.52,0,0,1,.63-.37A.53.53,0,0,1,74.89,36.27Z"/><path class="cls-15" d="M71.12,36.1l-.78,1.39a.49.49,0,0,1-.69.09A.48.48,0,0,1,69.5,37c.27-.46.52-.93.78-1.39a.48.48,0,0,1,.69-.09A.49.49,0,0,1,71.12,36.1Z"/><path class="cls-15" d="M67.59,40.94a3.91,3.91,0,0,1-1.22,1.21c-.52.34-1-.5-.48-.84a2.75,2.75,0,0,0,.87-.86.48.48,0,0,1,.66-.17A.49.49,0,0,1,67.59,40.94Z"/><path class="cls-15" d="M72.21,38.86a3.62,3.62,0,0,1-.81,2.36c-.37.49-1.22,0-.84-.49a2.78,2.78,0,0,0,.68-1.87C71.2,38.23,72.17,38.23,72.21,38.86Z"/><path class="cls-15" d="M68.71,43.44A7.27,7.27,0,0,1,67,44.92c-.5.38-1-.46-.48-.83A6.21,6.21,0,0,0,67.89,43C68.23,42.46,69.07,42.94,68.71,43.44Z"/><path class="cls-15" d="M74.64,41.3A7.7,7.7,0,0,1,73.18,44c-.39.49-1.07-.2-.68-.69A6.5,6.5,0,0,0,73.7,41a.49.49,0,0,1,.61-.33A.5.5,0,0,1,74.64,41.3Z"/><path class="cls-15" d="M69.64,46.42c-.39.5-.85.94-1.26,1.42s-1.1-.22-.69-.69.87-.92,1.27-1.41S70,45.94,69.64,46.42Z"/><path class="cls-15" d="M78.81,23.58c-.27.68-.75,1.23-1,1.89s-1.1.07-.84-.49.72-1.06,1-1.65S79,23,78.81,23.58Z"/><path class="cls-15" d="M80.58,22a11.24,11.24,0,0,0,0,2.32c0,.62-.94.62-1,0a12.84,12.84,0,0,1,0-2.32C79.69,21.4,80.66,21.4,80.58,22Z"/><path class="cls-15" d="M78.73,28.35a5.11,5.11,0,0,0,.21,1.82c.23.58-.7.83-.94.26a6.09,6.09,0,0,1-.24-2.08C77.73,27.73,78.7,27.73,78.73,28.35Z"/><path class="cls-15" d="M91.37,11.66a3.68,3.68,0,0,0-1.13-.5c-.61-.13-.35-1.07.26-.93a4.57,4.57,0,0,1,1.36.59.49.49,0,0,1-.49.84Z"/><path class="cls-15" d="M81.14,32.07a4.08,4.08,0,0,1-.8-1.4c-.19-.6.74-.85.93-.26a2.9,2.9,0,0,0,.56,1C82.23,31.85,81.55,32.54,81.14,32.07Z"/><path class="cls-15" d="M79.2,32.72c.17.64.22,1.29.35,1.94s-.82.87-.94.26-.17-1.3-.35-1.94a.49.49,0,0,1,.94-.26Z"/><path class="cls-15" d="M77.89,38.18v.73c0,.63-.94.62-1,0v-.73A.5.5,0,0,1,77.89,38.18Z"/><path class="cls-16" d="M77.14,42a4.13,4.13,0,0,1-.39,2.24c-.23.57-1.16.32-.93-.26a3.31,3.31,0,0,0,.38-1.72C76.1,41.65,77,41.39,77.14,42Z"/><path class="cls-16" d="M75.17,46.53a6.83,6.83,0,0,1-.69,1.86c-.27.57-1.1.07-.84-.49a5.59,5.59,0,0,0,.59-1.63C74.32,45.65,75.25,45.92,75.17,46.53Z"/><path class="cls-16" d="M68.79,50.62A2.75,2.75,0,0,1,66,49.54c-.37-.51.47-1,.84-.49a1.68,1.68,0,0,0,1.7.63C69.15,49.59,69.41,50.52,68.79,50.62Z"/><path class="cls-16" d="M74.67,53.49c-1,1-2.32.6-3.52.16-.59-.21-.33-1.14.26-.93.81.29,1.85.79,2.58.08C74.44,52.37,75.12,53.05,74.67,53.49Z"/><path class="cls-16" d="M72.45,47a15,15,0,0,0-.84,1.52c-.23.58-1.17.33-.94-.25a16.48,16.48,0,0,1,.94-1.76.48.48,0,0,1,.69-.09A.49.49,0,0,1,72.45,47Z"/><path class="cls-16" d="M80.22,56.11c-1,.39-2.86,1.33-3.28-.31a.49.49,0,0,1,.33-.6.49.49,0,0,1,.6.34h0c.18.67,1.69-.21,2.09-.36C80.55,55,80.8,55.89,80.22,56.11Z"/><path class="cls-16" d="M88,58.78c-.56,1.28-2.52,1.42-3.56.7-.52-.35,0-1.19.48-.84s1.89.47,2.25-.35C87.42,57.72,88.25,58.21,88,58.78Z"/><path class="cls-16" d="M97.76,80.06a17.66,17.66,0,0,1-1.35,2.19c-.35.52-1.19,0-.83-.49a17.36,17.36,0,0,0,1.31-2.19C97.19,79,98,79.5,97.76,80.06Z"/><path class="cls-17" d="M94.49,84.41c-.55.42-1,.94-1.55,1.38s-1.17-.28-.69-.68,1-1,1.56-1.39S95,84,94.49,84.41Z"/><path class="cls-17" d="M91.07,87.36a7.06,7.06,0,0,1-1.67,1.31.49.49,0,0,1-.49-.84,5.84,5.84,0,0,0,1.47-1.15C90.81,86.22,91.49,86.91,91.07,87.36Z"/><path class="cls-17" d="M87,90.36a5.74,5.74,0,0,1-1.51,1.13c-.56.28-1-.56-.49-.84a4.56,4.56,0,0,0,1.31-1C86.73,89.22,87.42,89.9,87,90.36Z"/><path class="cls-17" d="M82.33,93.45l-1.58,1.07c-.52.34-1-.5-.48-.84s1-.72,1.57-1.06A.48.48,0,1,1,82.33,93.45Z"/><path class="cls-17" d="M78.41,95.5a4.32,4.32,0,0,0-1.52.5.49.49,0,0,1-.49-.84,5,5,0,0,1,1.72-.62C78.76,94.46,79,95.4,78.41,95.5Z"/><path class="cls-17" d="M73.62,97.39c-.65.14-1.3.24-1.93.43a.49.49,0,0,1-.6-.34.48.48,0,0,1,.34-.59c.63-.19,1.29-.29,1.93-.43S74.23,97.26,73.62,97.39Z"/><path class="cls-17" d="M68,98.51a8.11,8.11,0,0,1-2.71.49.5.5,0,1,1,0-1,7.38,7.38,0,0,0,2.46-.45C68.31,97.38,68.56,98.32,68,98.51Z"/><path class="cls-17" d="M62,99.5l-1.63.09c-.62,0-.62-.94,0-1L62,98.5A.5.5,0,0,1,62,99.5Z"/><path class="cls-17" d="M57,99.61l-1.09.06c-.62,0-.62-.93,0-1L57,98.61C57.6,98.61,57.6,99.58,57,99.61Z"/><path class="cls-17" d="M52.56,99.36a14.48,14.48,0,0,1-1.47-.08c-.61-.07-.62-1,0-1a14.48,14.48,0,0,0,1.47.08.5.5,0,1,1,0,1Z"/><path class="cls-17" d="M48.34,99.59l-1.45.08c-.62,0-.62-.94,0-1l1.47-.08C49,98.59,49,99.56,48.34,99.59Z"/><path class="cls-17" d="M43.06,98.74c.12.13-.1,0-.22,0s-.5-.1-.75-.14a4.94,4.94,0,0,1-1.41-.45c-.55-.29-.06-1.13.49-.83a5.7,5.7,0,0,0,1.52.41,1.83,1.83,0,0,1,1.06.34C44.16,98.52,43.48,99.21,43.06,98.74Z"/><path class="cls-17" d="M38.54,96.85a4.45,4.45,0,0,1-2.23-.22c-.59-.2-.33-1.14.26-.93a3.44,3.44,0,0,0,1.71.22C38.89,95.81,39.15,96.75,38.54,96.85Z"/><path class="cls-17" d="M44.49,97.17c-.83-.13-1.66-.26-2.5-.33-.62-.06-.62-1,0-1,.93.08,1.84.22,2.76.36C45.36,96.33,45.1,97.26,44.49,97.17Z"/><path class="cls-17" d="M49.42,95.46l-2,.1a.5.5,0,0,1,0-1l2-.1C50,94.45,50,95.42,49.42,95.46Z"/><path class="cls-17" d="M50,96.88a12.29,12.29,0,0,1-2.56.32.5.5,0,0,1,0-1,10.47,10.47,0,0,0,2.3-.2A.46.46,0,1,1,50,96.88Z"/><path class="cls-17" d="M54.44,93.34a3.62,3.62,0,0,1-2.18.49.5.5,0,0,1,0-1A2.77,2.77,0,0,0,54,92.46.51.51,0,0,1,54.44,93.34Z"/><path class="cls-17" d="M54.13,95.84c-.63.12-1.26.22-1.91.28s-.61-.91,0-1,1.11-.12,1.67-.21S54.75,95.73,54.13,95.84Z"/><path class="cls-17" d="M57,97.48a9.88,9.88,0,0,1-2.23.29.5.5,0,0,1,0-1,10.44,10.44,0,0,0,2-.26C57.35,96.43,57.61,97.36,57,97.48Z"/><path class="cls-17" d="M59.89,92.22c-.67.32-1.31.71-2,1s-.84-.72-.26-.93,1.19-.59,1.79-.87S60.49,92,59.89,92.22Z"/><path class="cls-17" d="M64,89.88c-.57.38-1.19.67-1.74,1.07s-1-.47-.49-.83S63,89.42,63.55,89,64.55,89.54,64,89.88Z"/><path class="cls-17" d="M59.45,94.74a5.55,5.55,0,0,0-1.33.35c-.56.24-1.06-.59-.49-.83a6.59,6.59,0,0,1,1.57-.46C59.81,93.71,60.07,94.64,59.45,94.74Z"/><path class="cls-17" d="M62.47,96.2c-.59.16-1.18.31-1.77.43s-.87-.81-.26-.94,1.18-.27,1.77-.42a.48.48,0,0,1,.59.33A.47.47,0,0,1,62.47,96.2Z"/><path class="cls-17" d="M64.48,92.14c-.36.19-.73.37-1.11.55-.56.26-1-.57-.49-.84s.75-.36,1.12-.55C64.55,91,65,91.85,64.48,92.14Z"/><path class="cls-17" d="M68.27,94.91a9.1,9.1,0,0,1-2.07.45c-.62,0-.62-.94,0-1A8.07,8.07,0,0,0,68,94a.48.48,0,0,1,.53.42A.49.49,0,0,1,68.27,94.91Z"/><path class="cls-17" d="M68,87.38c-.66.49-1.31,1-1.94,1.51s-1.17-.29-.68-.69q1-.86,2.13-1.65C68,86.18,68.48,87,68,87.38Z"/><path class="cls-17" d="M74.38,94.21a7.08,7.08,0,0,1-2,.64c-.61.13-.87-.8-.26-.93a6.5,6.5,0,0,0,1.77-.55A.49.49,0,0,1,74.38,94.21Z"/><path class="cls-17" d="M81.07,91.4c-.46.32-.93.62-1.41.89s-1-.53-.49-.83a14.48,14.48,0,0,0,1.42-.9C81,90.24,81.58,91.05,81.07,91.4Z"/><path class="cls-17" d="M86.94,88.31c-.27.16-.53.34-.79.53-.49.38-1-.46-.49-.83.26-.2.52-.37.79-.54a.49.49,0,0,1,.49.84Z"/><path class="cls-15" d="M30.89,42.82c-.83-.91-1.3-2.07-2.12-3-.42-.46.26-1.15.68-.68.83.91,1.3,2.07,2.12,3C32,42.6,31.32,43.29,30.89,42.82Z"/><path class="cls-15" d="M27.31,38.19a18.34,18.34,0,0,1-1.17-2.83c-.23-.58.7-.83.93-.25a16.28,16.28,0,0,0,1.08,2.59C28.48,38.23,27.64,38.72,27.31,38.19Z"/><path class="cls-15" d="M24.21,32.16A11.5,11.5,0,0,1,23,29a.49.49,0,0,1,.94-.26,10.19,10.19,0,0,0,1.09,2.92C25.39,32.2,24.55,32.69,24.21,32.16Z"/><path class="cls-15" d="M22.37,50.11A3.1,3.1,0,0,1,21.1,49a4.58,4.58,0,0,1-1-1.9c-.1-.61.83-.87.94-.25a3.43,3.43,0,0,0,.67,1.35,3.58,3.58,0,0,0,.93,1C23.21,49.38,23,50.31,22.37,50.11Z"/><path class="cls-15" d="M18.89,45.49c-.38-.73-.69-1.5-1.1-2.22a.48.48,0,1,1,.83-.49c.42.72.73,1.49,1.1,2.22C20,45.56,19.19,46.05,18.89,45.49Z"/><path class="cls-15" d="M16.63,41.32A2.36,2.36,0,0,1,15.79,40a.49.49,0,0,1,.94-.26,1.48,1.48,0,0,0,.59.89C17.81,41,17.12,41.7,16.63,41.32Z"/><path class="cls-15" d="M17.49,58.47A4.12,4.12,0,0,1,16.1,56.9c-.25-.57.59-1.06.84-.49a3.05,3.05,0,0,0,1,1.22C18.48,58,18,58.84,17.49,58.47Z"/><path class="cls-15" d="M14.47,54.58a9.85,9.85,0,0,0-.69-1.47c-.35-.52.49-1,.83-.49a9.48,9.48,0,0,1,.79,1.71C15.64,54.9,14.7,55.15,14.47,54.58Z"/><path class="cls-15" d="M13.27,49.88a5,5,0,0,1-.47-1.69c-.05-.63.92-.62,1,0a3.59,3.59,0,0,0,.34,1.2C14.38,50,13.55,50.44,13.27,49.88Z"/><path class="cls-15" d="M13.62,71.24a2.5,2.5,0,0,1-1.27-1.54c-.19-.6.75-.85.94-.26a1.5,1.5,0,0,0,.82,1C14.67,70.67,14.18,71.5,13.62,71.24Z"/><path class="cls-15" d="M10.94,67.66c-.29-1-.59-1.92-.81-2.9-.14-.6.8-.86.93-.25.22,1,.52,1.93.81,2.89a.48.48,0,0,1-.34.59A.47.47,0,0,1,10.94,67.66Z"/><path class="cls-15" d="M9.48,61A4.62,4.62,0,0,1,9,59.14c0-.62.94-.62,1,0a3.46,3.46,0,0,0,.34,1.37C10.59,61.08,9.75,61.57,9.48,61Z"/><path class="cls-15" d="M95.18,59.66c-.77,1.17-1.8,2.44-3.34,1.78-.58-.24-.08-1.08.49-.83.9.38,1.61-.82,2-1.44A.49.49,0,1,1,95.18,59.66Z"/><path class="cls-18" d="M85.67,70.93a2.74,2.74,0,0,1-3.82-.72,2.58,2.58,0,0,1-.39-.84.49.49,0,0,1,.94-.26,1.78,1.78,0,0,0,2.16,1.29,1.67,1.67,0,0,0,.62-.29C85.7,69.74,86.18,70.58,85.67,70.93Z"/><path class="cls-18" d="M94.41,74.9c-2.16.81-3.65-.37-5.13-1.82a.5.5,0,0,1,0-.69.49.49,0,0,1,.69,0c1.24,1.21,2.37,2.26,4.19,1.58C94.74,73.75,95,74.69,94.41,74.9Z"/><path class="cls-18" d="M62.19,45.52a3.08,3.08,0,0,0,0,2.89c.36.51-.48,1-.84.49a3.91,3.91,0,0,1-.06-3.64C61.46,44.68,62.4,44.93,62.19,45.52Z"/><path class="cls-19" d="M.45,57.36A99.89,99.89,0,0,0,2.4,69a66.85,66.85,0,0,0,11,22.43c.58.82,1.09,1.54,1.5,2.16v.13c.27.79.57,1.57.89,2.32,1.7,4,5.68,7.55,12.16,10.92.21,3,1.18,8.16,2.76,10.51a9.42,9.42,0,0,0,3.65,3.38l-.19,10.66a30.82,30.82,0,0,0-4.59-.59H29.2a1.84,1.84,0,0,0-.77.13,1.25,1.25,0,0,0,.07,2.4,2.37,2.37,0,0,0,.7.1H30c.49,0,1.15,0,2.09.07,3.51.74,9.37,1.22,17.43,1.43h.17a1.73,1.73,0,0,0,1.25-.4.89.89,0,0,0,.28-1c-.08-.22-.28-.8-2.53-1.16H49a2.8,2.8,0,0,0,1.35-.38,1.36,1.36,0,0,0,.51-1.77,1.43,1.43,0,0,0-1.38-.68h-.38c-.73.07-1.48.16-2.23.25.43-.15,1.33-.52,1.44-1.4a1.56,1.56,0,0,0-1.41-1.64,1.22,1.22,0,0,0-.27,0,3.61,3.61,0,0,0-1.44.37l-8,3.33.17-9.12a4.74,4.74,0,0,0,2.93-1.16,7.89,7.89,0,0,0,1.79-2.8c.2-.43.38-.83.6-1.22a7.84,7.84,0,0,1,1.71-2.09,21.9,21.9,0,0,1,4.81,3.76c.53.54,1,1.14,1.58,1.77l.69.8c1.26,1.44,2.74,3,4.62,3.43l.61,11a37.24,37.24,0,0,0-3.95-.26H51.9a2.29,2.29,0,0,0-1,.2,1.27,1.27,0,0,0,.25,2.42,2,2,0,0,0,.48.06h.52c.63-.08,1.69-.11,2.56-.14a63,63,0,0,0,7.89.4c2.74,0,6-.09,9.6-.27a2,2,0,0,0,1.38-.51.87.87,0,0,0,.21-1c-.09-.21-.33-.78-2.6-1h.29a2.82,2.82,0,0,0,1.31-.48A1.3,1.3,0,0,0,72,132a3.79,3.79,0,0,0-.58.05l-2.2.42c.41-.18,1.28-.62,1.33-1.5A1.58,1.58,0,0,0,69,129.41h-.07a3.43,3.43,0,0,0-1.56.48l-7.75,3.92L59,123.72A7.3,7.3,0,0,0,62.38,120c.1-.22.19-.45.28-.68.21-.54.39-1.09.58-1.64a23.38,23.38,0,0,1,.87-2.34,6.54,6.54,0,0,1,.3-.59,10.72,10.72,0,0,1,3.2-3.53,34.54,34.54,0,0,1,6-3.27l.25-.11,1.34-.62c1.21-.56,2.42-1.17,3.59-1.82s2.34-1.35,3.46-2.08l1.13-.75a50,50,0,0,0,12.5-12c.26-.36.51-.73.76-1.09a31.25,31.25,0,0,0,2-3.41,36.76,36.76,0,0,0,1.7-3.59c.34-.82.65-1.66.92-2.49s.55-1.81.78-2.76c.09-.37.17-.74.25-1.12.11-.57.22-1.18.33-1.92,0,0,.13-.87.14-1,.06-.46.11-.93.15-1.4a54.35,54.35,0,0,0,.11-7.33,8.82,8.82,0,0,0-.08-1.46c0-.75-.12-1.51-.19-2.27v-.63l-.15-1.46-.08-.64c-.09-.75-.17-1.5-.27-2.25v-.37c-.1-.84-.21-1.67-.32-2.5l-1.18-8.93h.5A3.87,3.87,0,0,0,104.48,42a5.41,5.41,0,0,0,.53-5.67,10.08,10.08,0,0,0-2.38-2.74c-.41-.37-.79-.71-1.15-1.09-1.28-1.35-1.86-3.25-2.48-5.25q-.19-.67-.42-1.35a19,19,0,0,0,6.15-4.65h.18v-.33h0v-.16l.11-.69-.18-.07h0l-.13.24h0l.13-.24a11,11,0,0,0-5.1-1.3,10.2,10.2,0,0,0-1.83.16,4.21,4.21,0,0,0-.48.12l-.09-.65a4.16,4.16,0,0,0-.11-.69v-.3a3.89,3.89,0,0,0-.13-.68v-.22c-.06-.29-.13-.59-.21-.87l-.06-.21a1.12,1.12,0,0,0-.12-.38,4.7,4.7,0,0,0,1.33-1.3,16.45,16.45,0,0,0,2.5-4.53,7.17,7.17,0,0,0-.2-5.33A5,5,0,0,0,96,1h-.3a3.9,3.9,0,0,0-2.87,1.66A4.7,4.7,0,0,0,88.89.3a3.31,3.31,0,0,0-.63,0,4.64,4.64,0,0,0-3.57,3.49A4.13,4.13,0,0,0,82.27,3a3.7,3.7,0,0,0-1.63.37,5.76,5.76,0,0,0-2.75,5.67,11.76,11.76,0,0,0,1,3.77l-.42.38-.15.15c-.28.26-.55.52-.82.8l-.13.13c-.3.32-.57.6-.82.89a38.69,38.69,0,0,0-8.91,17.31c-.11.48-.21,1-.32,1.47A20.88,20.88,0,0,1,66,38.73c-.1.21-.21.43-.33.64l-.18.29-.2.31-.1.13-.18.25-.14.18-.1.11-.28.3-.19.19c-.11.11-.23.21-.35.31l-.1.08-.45.31-.11.07a4,4,0,0,1-.46.24l-.15.07a4.76,4.76,0,0,1-.53.19,3.89,3.89,0,0,1-.49.12,3,3,0,0,1-.6,0H60.2a14.06,14.06,0,0,1-3.87-1.42l-1.09-.51a23.29,23.29,0,0,0-9.7-2,26,26,0,0,0-2.65.13A42.37,42.37,0,0,1,23.46,17l-.21-.54a12.62,12.62,0,0,0-2.12-4,5.08,5.08,0,0,0-3.64-1.76A3.66,3.66,0,0,0,16,11c-1.94.92-2.68,3.26-2.2,7l1.09,8.44A4.57,4.57,0,0,0,11.76,25a3.26,3.26,0,0,0-1.16.21c-1.79.66-2.8,2.68-2.85,5.69a30.73,30.73,0,0,0,1,8.21A3.5,3.5,0,0,0,7.59,39,3.11,3.11,0,0,0,7,39c-2.41.45-3.89,2.88-4.11,5a13,13,0,0,0,1.35,6.29l.3.7c.27.64.55,1.29.8,2a3.1,3.1,0,0,0-1.13-.21,2.89,2.89,0,0,0-.88.14A4.62,4.62,0,0,0,.45,57.36Zm.62,0A4,4,0,0,1,3.5,53.5a2.69,2.69,0,0,1,3,1.2,31.37,31.37,0,0,0-1.71-4.6,12.47,12.47,0,0,1-1.31-6c.21-2,1.59-4.12,3.61-4.5a3.28,3.28,0,0,1,2.62.75,30.14,30.14,0,0,1-1.34-9.43c0-2,.55-4.43,2.45-5.12,1.56-.58,3.34.41,4.23,1.82a7.84,7.84,0,0,1,1,2.89L14.41,17.93c-.3-2.34-.28-5.32,1.85-6.33a3.93,3.93,0,0,1,4.4,1.29,14,14,0,0,1,2.23,4.35A42.8,42.8,0,0,0,42.75,39.32,23.46,23.46,0,0,1,55,41.15c1.79.81,3.62,1.88,5.53,2h0a6,6,0,0,0,1.2,0c.19,0,.38-.08.57-.13s.41-.14.61-.22l.16-.08c.16-.07.32-.16.48-.25l.16-.1c.15-.09.3-.2.44-.3l.15-.12h0c.14-.11.27-.23.4-.35l.11-.1.09-.1a2.35,2.35,0,0,0,.3-.33l.11-.12.15-.19.2-.27a.76.76,0,0,0,.11-.14l.21-.33a.86.86,0,0,0,.1-.16c0-.06.07-.11.1-.16a6.24,6.24,0,0,0,.35-.68,32,32,0,0,0,1.72-6.38,38.12,38.12,0,0,1,8.77-17l.77-.84c.06-.05.11-.11.16-.16.26-.27.53-.53.8-.78l.15-.15c.25-.22.5-.45.75-.66a11.88,11.88,0,0,1-1.16-4A5.13,5.13,0,0,1,80.89,4a3.33,3.33,0,0,1,4.29,1.4A4.06,4.06,0,0,1,88.35,1,4,4,0,0,1,92.8,4.49v0a3.25,3.25,0,0,1,3-2.87,4.26,4.26,0,0,1,4,2.49A6.71,6.71,0,0,1,99.89,9a15.42,15.42,0,0,1-2.42,4.34,3.37,3.37,0,0,1-1.58,1.31l.09.25c.07.21.14.42.2.63l.06.2c.07.28.14.56.2.84v.21c0,.22.09.44.13.67a.63.63,0,0,1,0,.29c0,.1.07.41.1.62a.38.38,0,0,0,0,.15.24.24,0,0,0,0,.12,5.9,5.9,0,0,0,.11.83l.07.54a1.71,1.71,0,0,1,1.08-.53,10,10,0,0,1,6.49,1h0l.22.11-.4.1a18.15,18.15,0,0,1-6.57,4.87c.91,2.61,1.4,5.45,3.21,7.36,1.16,1.22,2.66,2.18,3.43,3.68a4.83,4.83,0,0,1-.47,5A3.3,3.3,0,0,1,100,43l-.15-.27c.44,3.33.88,6.67,1.33,10,.11.83.21,1.66.32,2.5v.11a1.13,1.13,0,0,1,0,.26l.27,2.24V58l.06.53c0,.48.11,1,.15,1.45v.63c.07.75.13,1.5.18,2.26,0,.48.06,1,.09,1.44a54.81,54.81,0,0,1-.11,7.25h0a10.78,10.78,0,0,1-.15,1.38,4.13,4.13,0,0,1-.07.49,1.43,1.43,0,0,1-.07.46q-.13.94-.33,1.89c-.07.37-.16.73-.24,1.1-.22.91-.48,1.82-.77,2.71s-.57,1.64-.9,2.44a35.7,35.7,0,0,1-1.67,3.54c-.62,1.15-1.29,2.27-2,3.35-.24.37-.49.72-.75,1.08a49.54,49.54,0,0,1-12.35,11.9l-1.11.74c-1.12.73-2.27,1.42-3.43,2.06S76,106,74.75,106.5l-1.58.73A33.44,33.44,0,0,0,67,110.56a11.51,11.51,0,0,0-3.14,3.76c-.11.21-.22.42-.32.64-.59,1.28-1,2.68-1.47,4q-.12.33-.27.66a6.29,6.29,0,0,1-3.44,3.59L59,134.69l8.58-4.35a2.88,2.88,0,0,1,1.37-.41,1,1,0,0,1,1,.88c0,.48-.58.82-1.06,1L61.27,135a90.84,90.84,0,0,1,10.28-2.44.88.88,0,0,1,1,.42c.19.35-.06.59-.39.81a2.33,2.33,0,0,1-1,.42l-9.26,1.53a48.56,48.56,0,0,1,7.81-.4c.38,0,4.35.08,3.52,1a1.39,1.39,0,0,1-1,.31c-4.73.23-12.72.52-17.42-.12a24.8,24.8,0,0,0-2.67.14,2,2,0,0,1-.77,0,.69.69,0,0,1-.54-.5c0-.31-.15-.48.13-.61a6.84,6.84,0,0,1,1.48-.31,30.35,30.35,0,0,1,4.94.37l-.69-12.2c-1.83-.21-3.32-1.68-4.74-3.3-.77-.89-1.52-1.82-2.29-2.61a23.1,23.1,0,0,0-5.31-4.06A8.48,8.48,0,0,0,42.16,116c-.73,1.31-1.15,2.86-2.27,3.86a4.3,4.3,0,0,1-3.11,1l-.2,10.67,8.89-3.69a2.7,2.7,0,0,1,1.39-.31,1,1,0,0,1,.88,1c-.07.51-.64.77-1.13.93L38.77,132a91.65,91.65,0,0,1,10.43-1.66c.43,0,.95,0,1.16.35a.77.77,0,0,1-.32,1A2.33,2.33,0,0,1,49,132l-9.67.88a46.43,46.43,0,0,1,7.82.19c.37,0,4.33.4,3.44,1.24a1.32,1.32,0,0,1-1,.23c-4.68-.26-12.68-.54-17.35-1.54-1.09-.05-2.06-.08-2.68-.05a2,2,0,0,1-.77-.07,1,1,0,0,1-.5-1c.06-.23.27-.16.5-.22a2.28,2.28,0,0,1,.9-.08,32.55,32.55,0,0,1,5.2.73l.22-11.81a8.61,8.61,0,0,1-3.77-3.32c-1.49-2.22-2.51-7.4-2.67-10.56-5-2.57-10.2-6.11-12.19-10.77q-.48-1.12-.87-2.28a1.18,1.18,0,0,1-.07-.2c-2.61-4-9-11.48-12.5-24.48a101.5,101.5,0,0,1-1.95-11.5Z"/></svg>