<svg xmlns="http://www.w3.org/2000/svg" viewBox="0 0 29.28 83.3"><defs><style>.cls-1{isolation:isolate;}.cls-2{fill:#ffec00;}.cls-2,.cls-3,.cls-4,.cls-5,.cls-6{stroke:#000;stroke-miterlimit:10;stroke-width:0.25px;}.cls-3{fill:#ffcf29;mix-blend-mode:multiply;opacity:0.5;}.cls-4{fill:#ffb629;}.cls-6{fill:#fffc9c;}</style></defs><g class="cls-1"><g id="Layer_1" data-name="Layer 1"><path class="cls-2" d="M6.92,72.66a13.92,13.92,0,0,0,7.65,5.73c3.55,1.16,6.63,2.15,9.59,4.53a.67.67,0,0,0,.92,0,2.69,2.69,0,0,0,1.75-1.51,3.77,3.77,0,0,0,.38-1.19.68.68,0,0,0,.32-.8c-.67-2.33,1.32-4.62,1.4-7,.09-2.71-2.07-5.56-3.23-7.87A37.72,37.72,0,0,1,22,43.78a64.64,64.64,0,0,1,1.69-9.87c.78-3.09,2-6.08,2.65-9.19a20.14,20.14,0,0,0,0-9.17c-.65-2.76-2.18-4.6-3.45-6.91A7.12,7.12,0,0,1,23.28,7a33.33,33.33,0,0,1,1.8-3.94.37.37,0,0,0-.11-.5c-.29-.87-1.46-1.38-2.25-1.66a10.9,10.9,0,0,0-2.2-.55.32.32,0,0,0-.16-.09c-1.58-.28-1.9,2.28-2.1,3.3a23.22,23.22,0,0,1-.93,3.78c-2.67,1.9-5.61,3.4-8.14,5.49A20.23,20.23,0,0,0,3.11,22C.28,30.05.22,38.93.91,47.39S2.13,65.37,6.92,72.66Z"/><path class="cls-3" d="M.91,47.39C.22,38.93.28,30.05,3.11,22a20.23,20.23,0,0,1,6.08-9.09c2.28-1.88,4.89-3.29,7.34-4.94,1.92.17,3.78-.17,5-1.89.78-1.1,2.38-3.13,2.18-4.69A2.46,2.46,0,0,1,25,2.59a.37.37,0,0,1,.11.5A33.33,33.33,0,0,0,23.28,7,7.29,7.29,0,0,0,23,8.54c-4.31-.79-6.66,5.78-7.7,9.43a75,75,0,0,0-3,25.63,157.3,157.3,0,0,0,2.06,18c.93,5,2.61,10.12,6.44,13.61,1.06,1,2.64,2.71,4.29,2.4a6.06,6.06,0,0,0,2.85-1.45,5.28,5.28,0,0,0-.34,3.24.68.68,0,0,1-.32.8,3.77,3.77,0,0,1-.38,1.19,2.69,2.69,0,0,1-1.75,1.51.67.67,0,0,1-.92,0c-3-2.38-6-3.37-9.59-4.53a13.92,13.92,0,0,1-7.65-5.73C2.13,65.37,1.6,55.82.91,47.39Z"/><path class="cls-4" d="M27.53,79.38a.68.68,0,0,1-.32.8A3,3,0,0,1,27,81c-.12-.33-.24-.66-.34-1a4.72,4.72,0,0,1,.13-3.86,7,7,0,0,0,.46-2c.33-3.27-2.73-6.12-4.33-8.71-5.15-8.32-3.52-19.13-1.82-28.27,1.12-6,2.8-12.19,3-18.32.13-4.07-.43-8.85-4.38-10.65a5.47,5.47,0,0,0,2.95-2.79c.63-1.13,1.6-2.53,1.4-3.83a2.12,2.12,0,0,1,.91,1,.37.37,0,0,1,.11.5A33.33,33.33,0,0,0,23.28,7a7.12,7.12,0,0,0-.34,1.61c1.27,2.31,2.8,4.15,3.45,6.91a20.14,20.14,0,0,1,0,9.17c-.69,3.11-1.87,6.1-2.65,9.19A64.64,64.64,0,0,0,22,43.78,37.72,37.72,0,0,0,25.7,64.54c1.16,2.31,3.32,5.16,3.23,7.87C28.85,74.76,26.86,77.05,27.53,79.38Z"/><path class="cls-5" d="M24.13,82a1.34,1.34,0,0,1,.13-.27,1.84,1.84,0,0,1,.18-.8,2.92,2.92,0,0,1,2.84-1.47.61.61,0,0,1,.53.54s0,.06,0,.09a1.33,1.33,0,0,1,.07,1.23,2.64,2.64,0,0,1-2.71,1.62L25,82.85h-.38A.64.64,0,0,1,24.13,82Z"/><path class="cls-6" d="M18.85,7.15a10.22,10.22,0,0,0,1-3.14,9.55,9.55,0,0,1,.83-3c.27-.48,1.21-.54,1.22.17a8.56,8.56,0,0,1-1,3.49A8.2,8.2,0,0,1,19.18,7.4C19,7.54,18.75,7.33,18.85,7.15Z"/><path class="cls-6" d="M20.23,9.66a.13.13,0,1,1,.23.1,122.18,122.18,0,0,0-6.54,28,.21.21,0,0,1-.41,0C13.09,28.3,16,18.09,20.23,9.66Z"/><path class="cls-6" d="M17.65,44.08a.12.12,0,0,1,.23,0A73.89,73.89,0,0,0,20,56.25,39.26,39.26,0,0,0,25.89,68c.08.11-.07.27-.17.17A23.44,23.44,0,0,1,19,57.43C17.89,53.13,17.76,48.5,17.65,44.08Z"/></g></g></svg>