<svg xmlns="http://www.w3.org/2000/svg" viewBox="0 0 499.11 132.95"><defs><style>.cls-1{isolation:isolate;}.cls-2{fill:#4a392d;}.cls-3{fill:#8f5c35;}.cls-4{fill:#ff7272;}.cls-5{fill:#ffe7b3;}.cls-6{fill:#6b5241;}.cls-7{fill:#d96161;}.cls-8{fill:#de8d4b;}.cls-9{fill:#6aba7f;}.cls-10{fill:#cbde52;}.cls-11{fill:#658c33;}.cls-12{fill:#ffe554;}.cls-13{fill:#c9b443;}.cls-14{fill:#c77e43;}.cls-15{fill:#ffa378;}.cls-16{fill:#ffd13f;}.cls-17{fill:#ffe8a9;}.cls-18{fill:#ffbc00;}.cls-19{fill:#fce09a;}.cls-20{fill:#ffd63f;}.cls-21{fill:#ffaa21;}.cls-22{fill:#fc9c12;}.cls-23{fill:#d48408;}.cls-24{fill:#60380e;}.cls-25{fill:#efe5ca;}.cls-26{fill:#76c91f;}.cls-27{fill:#8de044;}.cls-28{fill:#569b05;}.cls-29{fill:#f9f3e4;}.cls-30{fill:#ff402c;}.cls-31{fill:#0e5103;}.cls-32{fill:#137a04;}.cls-33{fill:#d9e0ba;}.cls-34{fill:#ed280d;}.cls-35{fill:#4f2510;}.cls-36{fill:#ffc200;}.cls-37{fill:#fc0;}.cls-38{fill:#1b7f03;}.cls-39{fill:#36b716;}.cls-40{fill:#1e9b04;}.cls-41{fill:#f9dc06;}.cls-42{fill:#ffb600;}.cls-43{fill:#f9e706;}.cls-44{fill:#f9e406;}.cls-45{fill:#ff7b22;}.cls-46{fill:#666636;}.cls-47{fill:#999964;}.cls-48{fill:#7f824d;}.cls-49{fill:#d85903;}.cls-50{fill:#bbc8a9;}.cls-51{fill:#bfcdb1;opacity:0.5;}.cls-51,.cls-53,.cls-55,.cls-56,.cls-57,.cls-59,.cls-63,.cls-64,.cls-65{mix-blend-mode:multiply;}.cls-52{fill:#678a32;}.cls-53{fill:#bbbaa3;}.cls-54,.cls-57{fill:#ffce00;}.cls-54,.cls-58,.cls-61{stroke:#544c39;stroke-miterlimit:10;}.cls-54,.cls-61{stroke-width:0.5px;}.cls-55{fill:#b8a139;}.cls-55,.cls-57,.cls-64{opacity:0.3;}.cls-56,.cls-65{fill:#c6a239;}.cls-56,.cls-59{opacity:0.4;}.cls-58{fill:#f6b400;stroke-width:0.75px;}.cls-59{fill:#cfae2a;}.cls-60{fill:#997500;}.cls-61{fill:#ffd86c;}.cls-62{fill:#e59e00;}.cls-63{fill:#e3a239;}.cls-63,.cls-65{opacity:0.2;}.cls-64{fill:#d58e63;}.cls-66{fill:#fcddb9;}.cls-67{fill:#f9c898;}.cls-68{fill:#f9974e;}.cls-69{fill:#f7883c;}.cls-70{fill:#ffae6c;}</style></defs><g class="cls-1"><g id="Layer_1" data-name="Layer 1"><g id="pigsty"><path class="cls-2" d="M396.56,76.26a68.79,68.79,0,0,0-11.29-1.07c2.72-8.11-2.45-20.93-7.81-25.22-6.53-5.22-16.26-7.51-24.45-5.19a20.78,20.78,0,0,0,.57-5.52A17.53,17.53,0,0,0,344,24.35c-5.68-2.66-14.77-1.84-19.71,2.31A12,12,0,0,0,322.92,28c-3-8.38-8.23-14.85-17.64-17.26a33.76,33.76,0,0,0-27.63,5.13,29,29,0,0,0-5.38,5l-.11.13A26.49,26.49,0,0,0,270,16.64,29.36,29.36,0,0,0,258,5.64,48.59,48.59,0,0,0,224.81,1.8a43,43,0,0,0-25.57,18.29,17.7,17.7,0,0,0-9.92-1.86A26.5,26.5,0,0,0,168,35c-5.38-5.82-15.46-6-22.74-3-8.87,3.7-15.93,12.31-17.31,21.88a9.9,9.9,0,0,0-.05,2.38,30.37,30.37,0,0,0-6.34-.3A23.78,23.78,0,0,0,98.87,78.28c-4-1.35-8.8.28-12.06,3-4.17,3.41-6.41,9.43-4,14.51,4.47,9.55,19.4,14.3,28.77,16.34,15.53,3.39,30.42,1,44.77-5.19,1.92,3.83,5.9,7.14,9.22,8.94,22.7,12.31,51.06,14.81,76.17,6.86,8.82-2.8,17.61-7.43,23-14.76a24.72,24.72,0,0,0,18,4.9c5.47-.72,11.11-4.81,15.92-8a15.58,15.58,0,0,0,3,3c19.92,15.84,50.8,17.39,73.39,7,4.69-2.15,9.33-5,12-9.38a13.88,13.88,0,0,0,2-7.53A36.94,36.94,0,0,0,396.78,99c5,.13,10.14-1.55,13.33-5.34C416.19,86.42,403,77.34,396.56,76.26Z"/><path class="cls-3" d="M231.25,31.52a.87.87,0,0,0-1.07-.6,8.42,8.42,0,0,0-4.63,3.35.86.86,0,0,0,.22,1.2.88.88,0,0,0,.49.15.85.85,0,0,0,.71-.37,6.79,6.79,0,0,1,3.69-2.66A.87.87,0,0,0,231.25,31.52Z"/><path class="cls-4" d="M223,37.58c-.89-.46-1-1.32-1.52-2.06s-.71-1.59-1.16-2.39a11.3,11.3,0,0,1-.59-1.08,1.23,1.23,0,0,1,1.11-1.86,4.89,4.89,0,0,1,2.69.49,6.41,6.41,0,0,1,2,1.76c.49.61.83,1.5,1.62,1.82a12,12,0,0,0,2.19.29,4.65,4.65,0,0,1,3.77,3c.23.64,1,3-.46,2.5-.93-.31-1.85-.62-2.79-.87-1.81-.48-3.64-.84-5.48-1.21A5.2,5.2,0,0,1,223,37.58Z"/><path class="cls-4" d="M210.72,56.24a5.55,5.55,0,0,1,2.81,1.9,4.11,4.11,0,0,0,2.07,1.71,7.4,7.4,0,0,0,3.32.57c1-.08,3.75-.81,2.7-2.2a13.82,13.82,0,0,0-3-2.34A14.89,14.89,0,0,0,215,54a6.93,6.93,0,0,1-2.66-1.24c-.59-.56-.7-1.38-1.21-2a8,8,0,0,0-1.93-1.4c-.79-.45-1.3-.82-1.59.25a5.78,5.78,0,0,0-.15,1.76,5.38,5.38,0,0,0,3.2,4.77Z"/><path class="cls-5" d="M216.92,56.3a2.64,2.64,0,0,0,1,1.38,1.63,1.63,0,0,0,2.28-.35c-.28.53.72,1.42,1.16,1.55a.53.53,0,0,0,.35,0c.23-.09.27-.38.27-.61,0-.82-.25-1.64-.31-2.47a22.74,22.74,0,0,1,0-2.86,22,22,0,0,1,1-5.5c.64-2,2.4-3.36,4.25-4.36a42,42,0,0,1,5.44-2.53c.75-.27,1.32-.38.75-1.14a3.76,3.76,0,0,0-1.08-.94c-.17-.1-2.25-.79-2.27-.42a2.2,2.2,0,0,0-1.26-2,2.46,2.46,0,0,0-2.47.22,3.2,3.2,0,0,0-1.36-2.41,3.58,3.58,0,0,0-2.83-.54,3.62,3.62,0,0,0-.36-1.83,1.41,1.41,0,0,0-1.2-.93,1.15,1.15,0,0,0-.91.62,2.75,2.75,0,0,0-.25,1.07c-.29,3.81.32,8.63-2.62,11.66a18.22,18.22,0,0,1-3.28,2.65,13.28,13.28,0,0,1-3.9,1.93l-1,.22c-1.46.33.82,2,1.6,2a1.1,1.1,0,0,1,.68.14c.24.18.2.52.22.81a2.23,2.23,0,0,0,2.48,2,3,3,0,0,0,1.1,2.14,1.68,1.68,0,0,0,2.28-.27A4.58,4.58,0,0,0,216.92,56.3Z"/><path class="cls-3" d="M219.93,40.67l-1.3.76a.86.86,0,0,0,.44,1.61.85.85,0,0,0,.43-.12l1.3-.76a.86.86,0,0,0,.31-1.18A.86.86,0,0,0,219.93,40.67Z"/><path class="cls-3" d="M223.23,41.86a.86.86,0,0,0-1,.65l-.41,1.77a.85.85,0,0,0,.65,1l.19,0a.87.87,0,0,0,.85-.67l.4-1.77A.86.86,0,0,0,223.23,41.86Z"/><path class="cls-3" d="M217.74,44a.86.86,0,0,0-1,.65l-.41,1.74a.88.88,0,0,0,.65,1l.2,0a.86.86,0,0,0,.84-.67l.4-1.75A.86.86,0,0,0,217.74,44Z"/><path class="cls-3" d="M39.65,104.85a1,1,0,0,0,0-1.48,10.2,10.2,0,0,0-6.34-2.79,1,1,0,0,0-1.11,1,1,1,0,0,0,.14.6,1.06,1.06,0,0,0,.83.52,8.13,8.13,0,0,1,5,2.22A1,1,0,0,0,39.65,104.85Z"/><path class="cls-4" d="M28.28,100c-.05-1.21.75-1.88,1.22-2.85s1.23-1.71,1.8-2.67a12.68,12.68,0,0,1,.76-1.28,1.49,1.49,0,0,1,2.63,0,5.91,5.91,0,0,1,1.13,3.1,7.66,7.66,0,0,1-.59,3.21c-.34.88-1,1.79-.91,2.81a13.84,13.84,0,0,0,1,2.46,5.63,5.63,0,0,1-.88,5.81c-.52.63-2.51,2.92-2.89,1-.24-1.16-.48-2.3-.8-3.45-.6-2.18-1.35-4.32-2.08-6.46A6.4,6.4,0,0,1,28.28,100Z"/><path class="cls-4" d="M1.24,98.52a6.65,6.65,0,0,1-.26,4.1,4.92,4.92,0,0,0-.52,3.21,9,9,0,0,0,1.44,3.83c.68,1,3.14,3.41,4,1.47a16.75,16.75,0,0,0,.59-4.61,18.28,18.28,0,0,0-.27-4.89,8.59,8.59,0,0,1-.34-3.54c.23-1,1-1.58,1.32-2.47a9.73,9.73,0,0,0,.28-2.86c0-1.11.06-1.87-1.23-1.52a6.92,6.92,0,0,0-1.94.92,6.55,6.55,0,0,0-3,6.27Z"/><path class="cls-5" d="M5,105a3.2,3.2,0,0,0-.85,1.87c-.07,1,.71,2.22,1.77,2.17-.73,0-1.05,1.62-.92,2.16a.71.71,0,0,0,.2.37c.23.19.56.06.8-.09.87-.49,1.57-1.26,2.4-1.83a27,27,0,0,1,9.36-4c2.48-.55,5,.46,7.16,1.78a51.59,51.59,0,0,1,6,4.13c.75.62,1.21,1.15,1.66.09a4.67,4.67,0,0,0,.32-1.7c0-.24-.56-2.84-1-2.63a2.69,2.69,0,0,0,1.34-2.56,3,3,0,0,0-1.75-2.45,3.84,3.84,0,0,0,1.69-2.89A4.36,4.36,0,0,0,32,96.13a4.52,4.52,0,0,0,1.7-1.49,1.73,1.73,0,0,0,.22-1.83,1.37,1.37,0,0,0-1.19-.57,3.19,3.19,0,0,0-1.27.39c-4.17,2-8.84,5.62-13.81,4.4a21.57,21.57,0,0,1-4.77-1.81,16.12,16.12,0,0,1-4.4-2.89l-.83-.88c-1.24-1.33-1.59,2.08-1.14,2.91a1.45,1.45,0,0,1,.27.8c0,.36-.42.53-.71.72a2.71,2.71,0,0,0-.53,3.79A3.65,3.65,0,0,0,4,102.13a2,2,0,0,0,1.68,2.21A5.79,5.79,0,0,0,5,105Z"/><path class="cls-3" d="M23.16,98.62l-1.6-.89a1,1,0,0,0-1.42.4,1,1,0,0,0,0,1,1,1,0,0,0,.39.38l1.6.89a1,1,0,0,0,1-1.82Z"/><path class="cls-3" d="M23.93,102.79a1,1,0,0,0-1.31-.68l-2.1.66a1,1,0,0,0-.69,1.31,1.36,1.36,0,0,0,.1.21,1,1,0,0,0,1.21.47l2.11-.65A1.06,1.06,0,0,0,23.93,102.79Z"/><path class="cls-3" d="M18.34,98.37A1,1,0,0,0,17,97.69L15,98.33a1.05,1.05,0,0,0-.69,1.31.74.74,0,0,0,.1.22,1,1,0,0,0,1.21.47l2.07-.65A1,1,0,0,0,18.34,98.37Z"/><path class="cls-6" d="M182.84,59.12c-5.89-.64-11.9,3.11-14.32,8.46A15.4,15.4,0,0,0,165,63.73c-2.64-1.64-6.61-.84-9,.74A13.87,13.87,0,0,0,152.19,69a1.08,1.08,0,0,0,.34,1.49A1.09,1.09,0,0,0,154,70.1a12.35,12.35,0,0,1,3.19-3.83c1.84-1.21,5-1.78,6.68-.71,1.14.71,3.76,4.17,3.69,5.08a1.08,1.08,0,0,0,2.13.36h0a11.79,11.79,0,0,1,23.39,2.55,1.07,1.07,0,0,0,1,1.13h.05a1.09,1.09,0,0,0,1.08-1A14.52,14.52,0,0,0,182.84,59.12Z"/><path class="cls-6" d="M309.26,73.72A16.32,16.32,0,0,0,299.39,77a13.34,13.34,0,0,0-2.86,3.2A21.16,21.16,0,0,1,295.15,82c-4.14-9.41-10.28-15.3-18.72-18A34.36,34.36,0,0,0,249,67.51c-6.55,3.89-11.14,9.07-14.88,16.78a1.08,1.08,0,0,0,.5,1.45,1.12,1.12,0,0,0,.47.11,1.09,1.09,0,0,0,1-.61c3.55-7.32,7.88-12.21,14-15.88a32.16,32.16,0,0,1,25.72-3.3c8.2,2.61,14.08,8.54,18,18.14a1.05,1.05,0,0,0,.7.63,1.1,1.1,0,0,0,.93-.16,13.33,13.33,0,0,0,2.91-3.23,11.82,11.82,0,0,1,2.39-2.72,13.82,13.82,0,0,1,20.19,3.78,1.08,1.08,0,1,0,1.84-1.12A16.4,16.4,0,0,0,309.26,73.72Z"/><path class="cls-6" d="M244.44,40.79a1.08,1.08,0,0,0,1.92.69A9.53,9.53,0,0,1,253.63,38h.05A9.57,9.57,0,0,1,261,41.56a1.08,1.08,0,0,0,1.7-1.33,11.59,11.59,0,0,0-9-4.39,11.46,11.46,0,0,0-7.27,2.55A17,17,0,0,0,235,25.05c-7.13-2.14-15.91-.57-22.92,4.09a14.68,14.68,0,0,0-6.43,8.73,1.08,1.08,0,0,0,2.11.48,12.67,12.67,0,0,1,5.52-7.41c6.48-4.32,14.57-5.78,21.1-3.82A14.63,14.63,0,0,1,244.44,40.79Z"/><path class="cls-6" d="M372.06,80.71a12.26,12.26,0,0,0-21.16-2.42,1.08,1.08,0,0,0,1.75,1.28,10.1,10.1,0,0,1,17.43,2,1.07,1.07,0,0,0,1,.66,1.11,1.11,0,0,0,.43-.09A1.08,1.08,0,0,0,372.06,80.71Z"/><path class="cls-6" d="M139,77.45a6.74,6.74,0,0,0-1.23.58c-.09-.35-.2-.71-.32-1.07-1.74-5-7.72-8.23-13.33-7.15a10.52,10.52,0,0,0-8.11,7,1.08,1.08,0,1,0,2.07.63,8.44,8.44,0,0,1,6.45-5.46c4-.78,9.35,1.35,10.88,5.74a17.2,17.2,0,0,1,.55,2.17c0,.2.08.41.13.61a1.07,1.07,0,0,0,.93.85,1.09,1.09,0,0,0,1.1-.62,2.76,2.76,0,0,1,1.59-1.19A6,6,0,0,1,146,81.24a1.1,1.1,0,0,0,.83.38,1.07,1.07,0,0,0,.82-1.77A8.11,8.11,0,0,0,139,77.45Z"/><path class="cls-6" d="M189.82,56.62a13.37,13.37,0,0,1,3.89-3.18,5.69,5.69,0,0,1,4.45-.39c1.62.61,2.78,2.17,3.71,3.61a1,1,0,0,0,.91.5,1,1,0,0,0,.58-.17,1.08,1.08,0,0,0,.33-1.49c-1.05-1.64-2.54-3.63-4.76-4.47a7.82,7.82,0,0,0-6.17.47,15.36,15.36,0,0,0-4.55,3.68,1.08,1.08,0,1,0,1.61,1.44Z"/><path class="cls-6" d="M320.79,48.66a8.18,8.18,0,0,0-6.89,2.84,1.08,1.08,0,1,0,1.65,1.4,5.93,5.93,0,0,1,9.67.84,1.07,1.07,0,0,0,.93.54,1,1,0,0,0,.54-.15,1.07,1.07,0,0,0,.39-1.47A8.19,8.19,0,0,0,320.79,48.66Z"/><path class="cls-7" d="M247.44,61.77a6.77,6.77,0,0,0-10.38,6.41.87.87,0,0,0,.86.78H238a.86.86,0,0,0,.77-1,5,5,0,0,1,7.73-4.78.86.86,0,1,0,.93-1.45Z"/><path class="cls-7" d="M357.51,50.06a10,10,0,0,0-5.71-2.22h-.07a5.43,5.43,0,0,0-5.23,3.48.87.87,0,0,0,.57,1.08.78.78,0,0,0,.26,0,.85.85,0,0,0,.82-.61,3.74,3.74,0,0,1,3.63-2.26,8.32,8.32,0,0,1,4.72,1.89.86.86,0,1,0,1-1.4Z"/><path class="cls-7" d="M308.74,85.59a5.16,5.16,0,0,0-3.94,4.28.87.87,0,0,0,.75,1h.11a.87.87,0,0,0,.86-.75,3.34,3.34,0,0,1,6.13-1.35.87.87,0,0,0,1.2.26.86.86,0,0,0,.26-1.19A5.16,5.16,0,0,0,308.74,85.59Z"/><path class="cls-7" d="M184.37,91.87a5.8,5.8,0,0,0-4.57,3.28.87.87,0,0,0,.43,1.15.94.94,0,0,0,.36.08.85.85,0,0,0,.78-.51,4,4,0,0,1,6.76-.71.87.87,0,1,0,1.39-1A5.8,5.8,0,0,0,184.37,91.87Z"/><path class="cls-7" d="M241.77,14.34a6.52,6.52,0,0,0-5.18,2.54A.86.86,0,0,0,237.93,18a4.82,4.82,0,0,1,3.77-1.9,3.08,3.08,0,0,1,2.92,2.3.87.87,0,0,0,.85.7h.16a.86.86,0,0,0,.69-1A4.8,4.8,0,0,0,241.77,14.34Z"/><path class="cls-7" d="M129.87,89a6.87,6.87,0,0,0-8.45,3.25.87.87,0,0,0,.78,1.24A.84.84,0,0,0,123,93a5.13,5.13,0,0,1,6.26-2.4.87.87,0,0,0,.64-1.61Z"/><path class="cls-7" d="M146.58,64.92a9.55,9.55,0,0,0-9,6.11.85.85,0,0,0,.51,1.1.8.8,0,0,0,.3.06.87.87,0,0,0,.81-.57,7.79,7.79,0,0,1,7.37-5,.87.87,0,0,0,.89-.83A.88.88,0,0,0,146.58,64.92Z"/><path class="cls-7" d="M169.05,54.42a7.8,7.8,0,0,0-5.51,2.41.87.87,0,0,0,.63,1.46.84.84,0,0,0,.63-.28,6,6,0,0,1,4.26-1.86h0A6,6,0,0,1,173.35,58a.87.87,0,0,0,1.22,0,.85.85,0,0,0,0-1.22A7.72,7.72,0,0,0,169.05,54.42Z"/><path class="cls-8" d="M140.16,49.69a1.19,1.19,0,0,1,.59-.07c.25,0,.48.15.73.2a2.06,2.06,0,0,0,2-.9,9,9,0,0,0,1-2.05,12.64,12.64,0,0,1,3.93-5.16,3.14,3.14,0,0,1,1.63-.78,1.34,1.34,0,0,1,1.44.86c.17.66-.32,1.44.07,2a1,1,0,0,0,1.25.24,3.13,3.13,0,0,0,1-.91c1.55-1.81,4-5.08,6.68-5a2.34,2.34,0,0,1,.91.18,1.72,1.72,0,0,1,.83,2.18,2.15,2.15,0,0,0-.32.86.89.89,0,0,0,.83.74,3,3,0,0,0,1.19-.2,9.4,9.4,0,0,1,3.12-.36,3.73,3.73,0,0,1,2.24.7,2.24,2.24,0,0,1,.32,3.15c-.81,1-2.49.31-2.93,1.6a12.11,12.11,0,0,0-.07,1.91c-.21,1.25-1.69,1.9-3,1.87s-2.51-.49-3.78-.47a1.83,1.83,0,0,0-1.38.5c-.56.65-.2,1.65.25,2.38s1,1.55.74,2.37a1.87,1.87,0,0,1-1.85,1.11,6.77,6.77,0,0,1-2.21-.62,21.13,21.13,0,0,0-3.75-1.07c-.77-.15-1.79-.12-2.08.62s.53,1.48,1.13,2.07c2.53,2.42-.6,3.3-2.63,3.37a26.79,26.79,0,0,1-3.23,0,16.34,16.34,0,0,1-4.72-1.12,5.15,5.15,0,0,1-1.74-1c-1.19-1.12-.86-3.32-.62-4.77a7.55,7.55,0,0,1,1.44-3.67A2.38,2.38,0,0,1,140.16,49.69Z"/><path class="cls-8" d="M199.71,110.69a5.77,5.77,0,0,1,1.49-.69,16.47,16.47,0,0,1,5.38-.49,51.94,51.94,0,0,1,8.34.85,23.18,23.18,0,0,1,2.6.57,7.43,7.43,0,0,1,2.25.88,1.17,1.17,0,0,1,.55.79,1.24,1.24,0,0,1-.27.79,12.62,12.62,0,0,1-3.12,2.84,25.51,25.51,0,0,1-5.12,3.06c-4.15,1.86-9.33,2.64-13.18-.33C195.45,116.5,196.85,112.49,199.71,110.69Z"/><path class="cls-9" d="M254.15,104.69c-5.73-7.44-16.65,1.86-20.65,5.91a1.35,1.35,0,0,0-.4.6c-.19.82,1,1.2,1.86,1.16C239.32,112.14,259.75,112,254.15,104.69Z"/><path class="cls-9" d="M315.56,34.79c.3.52.8,1.12,1.36.93a1.1,1.1,0,0,0,.54-.48c1-1.44.69-3.35.1-5-1.93-5.19-2-9.94-7.3-12.87-4.53-2.5-10.34-3.31-15.45-2.93a2.72,2.72,0,0,0-1.36.34,1,1,0,0,0-.34,1.24,1.35,1.35,0,0,0,.68.4,44.46,44.46,0,0,0,4.95,1.43c1.56.36,3.4.85,3.95,2.36a2.31,2.31,0,0,0,.39.89,1.74,1.74,0,0,0,.84.37C311.07,23.21,312.35,29.27,315.56,34.79Z"/><path class="cls-9" d="M141.84,99.53c.43.2.73.61,1.15.83a2.72,2.72,0,0,0,2.63-.6,16.28,16.28,0,0,0,3.25-3A4,4,0,0,0,150,94.13c-.54-8.71-15.16,3.9-16.5,5.72a2.46,2.46,0,0,0-.67,2.07c2.4.22,4.63-1.11,6.82-2.11A2.66,2.66,0,0,1,141.84,99.53Z"/><path class="cls-9" d="M198.12,94.43a2.24,2.24,0,0,0-2.94-.65c-1.75.88-3.66,4.13-4.63,5.78-1.63,2.8-3.47,5.63-5.11,8.5-.51.9-1,2.1-.28,2.88s2.15.39,3-.32,1.72-1.65,2.84-1.68,1.9.73,2.91.7a2.72,2.72,0,0,0,2.3-2.09,10.78,10.78,0,0,0,.17-3.31C196.34,102,199,96.08,198.12,94.43Z"/><path class="cls-9" d="M377.11,62.77l-.87-1.88A14.86,14.86,0,0,0,373.11,56c-2.5-2.28-7.53-2.87-10.66-1.88A2.65,2.65,0,0,0,361,55a2,2,0,0,0,.19,2.22,4,4,0,0,0,2,1.25c2.3.75,4.81.51,7.18,1s4.87,2.11,5,4.53c0,.7-.09,1.55.47,2s1.62-.12,1.81-.9A3.71,3.71,0,0,0,377.11,62.77Z"/><path class="cls-9" d="M333,61.51c-2.54-1.3-6.72.91-8,3.1-.67,1.15-1,2.55-1.94,3.47-1.33,1.26-3.5,1.26-4.84,2.51-.51.49-.69,1.58,0,1.72a1.13,1.13,0,0,0,.66-.15c1.54-.7,3.08-1.65,4.78-1.64.85,0,1.69.25,2.54.3a2.64,2.64,0,0,0,2.3-.84,9,9,0,0,0,.61-1.34,2.82,2.82,0,0,1,2.23-1.52C334.44,66.83,336.77,63.46,333,61.51Z"/><path class="cls-9" d="M150.94,28.16c-4.24.12-10.77,5.45-3.13,6.36,2.11.25,2.3,0,4.22-.62,1.34-.41,1.67-1.66,3.07.14.53.68,1.21,1.49,2.07,1.35S158.49,34,158.3,33C157.66,29.72,154,28.07,150.94,28.16Z"/><path class="cls-9" d="M114.75,62.64a3,3,0,0,0-2.35-.14c-4.22,1.49-4.65,8.44-4.88,12a1.7,1.7,0,0,0,.21,1.14c.56.74,1.8,0,2.08-.87.69-2.19,1-6,2.51-7.78.65-.75,1.63-1.14,2.34-1.84C115.82,64,115.54,63.1,114.75,62.64Z"/><path class="cls-10" d="M288.68,43.62a3,3,0,0,0-1.8-1.08c-1.17-.08-2,1.07-3,1.6-1.91,1-4.14-.23-6.1-1.09s-4.81-1.1-5.72.84c-.36.75-.34,1.73-1,2.26a2.41,2.41,0,0,1-1.21.42c-2.1.3-4.32.2-6.2,1.17s-3.14,3.61-1.78,5.23c.52.63,1.38,1,1.57,1.84.3,1.2-1.12,2.14-1.38,3.36-.35,1.57,1.44,2.91,3,2.85s3-1,4.48-1.66a10.89,10.89,0,0,1,6.35-1.12,5.33,5.33,0,0,0,2,.16c3-.65,3.3-3.43,7.13-2.2,3.28,1,3.4,4.46,4.33,7.38,1.8.1,3.24-1.57,3.79-3.28C295.22,53.87,293.29,48.34,288.68,43.62Z"/><path class="cls-10" d="M349.12,80.6c-.58-1.37-2.12-2.16-2.61-3.56-.45-1.24-.09-2.91-1.17-3.65-.72-.49-1.69-.26-2.55-.34-2.07-.18-3.52-2.13-5.47-2.84a1.46,1.46,0,0,0-1.46.09,1.56,1.56,0,0,0-.36,1.12c-.12,4.9,2.21,8.93,1.05,14.08-.53,2.37-1.5,4.79-.9,7.15.27,1.08,1.18,2.22,2.27,2,.67-.14,1.11-.74,1.6-1.22s1.24-.86,1.82-.51c.38.24.53.71.76,1.09a2.32,2.32,0,0,0,4.21-.59c.31-1.1-.21-2.25-.22-3.4,0-1.7,1.08-3.18,2-4.61S349.78,82.16,349.12,80.6Z"/><path class="cls-10" d="M177.74,71.42a2.22,2.22,0,0,0-2.13.27A8.17,8.17,0,0,0,173,75.47a74.08,74.08,0,0,1-3.17,7.13q-.27.47-.57.9c-1.34,1.93-2.76,3.11-3,5.7-.07.8.16,1.82.95,2,1.11.2,2-1.61,3-1.2.66.93.65,2.17,1,3.27s1.38,2.21,2.45,1.82,1.17-2,.87-3.16-.65-2.6.22-3.43,2.29-.59,2.86-1.54c.69-1.12-.48-3.32-.37-4.69.19-2.52,1.13-5.1,1.48-7.62C178.81,73.44,178.8,72,177.74,71.42Z"/><path class="cls-10" d="M206.48,18c-1.81-.12-4,3.55-4.91,4.74-.79.22-.14-2.37-2.37-1.68-1.39.42-2.28,2.45-2.3,3.77,0,.79.17,1.7-.35,2.29a4.32,4.32,0,0,1-1.46.76,3.48,3.48,0,0,0-1.81,2.72,5.44,5.44,0,0,0,.46,2.83c.06.15.13.31.2.45a6.13,6.13,0,0,1,.54,1.23,4.75,4.75,0,0,1,.1,1.36,22.47,22.47,0,0,0,1.16,8.31,3.94,3.94,0,0,0,1.27,2,1.47,1.47,0,0,0,2.11-.31A2.61,2.61,0,0,0,199,44.6a9.42,9.42,0,0,1,1-6.76c.92-1.69,4.07-3.24,4.32-5.07.09-.64-.18-1.3-.07-1.93.24-1.31,1.72-1.46,2.23-2.47,1-2-.51-2.8-.32-4.71.13-1.36,1.65-2,1.8-3.52A1.88,1.88,0,0,0,206.48,18Z"/><path class="cls-11" d="M176.73,98.18c-2.88-1.71-10.95.29-8.17,4.88a5.05,5.05,0,0,0,2.57,1.94,6.32,6.32,0,0,0,5.63-.27,4,4,0,0,0,1.52-5.07A4.23,4.23,0,0,0,176.73,98.18Z"/><path class="cls-11" d="M237.37.76c-.27,0-.53.08-.79.13-2.33.45-4.15,1.65-2.86,4.53a2.74,2.74,0,0,0,1.86,1.28c2.55.73,8,1.34,8.09-2.48C243.75.87,239.78.46,237.37.76Z"/><path class="cls-11" d="M305.54,58.87c-1.63-.94-3.58-1.12-5,.23A3.41,3.41,0,0,0,300,63a6.94,6.94,0,0,0,3,2.86c1.44.81,3.41,1.31,4.61.16C309.93,63.78,308.13,60.37,305.54,58.87Z"/><path class="cls-11" d="M397.15,79.69c-1.63-.93-3.57-1.12-5,.23a3.4,3.4,0,0,0-.5,3.89,6.9,6.9,0,0,0,3,2.85c1.44.81,3.42,1.31,4.61.17C401.54,84.6,399.75,81.19,397.15,79.69Z"/><path class="cls-11" d="M348.91,26.07c-2.89-.6-6.82,1.33-5.83,4.44a3.48,3.48,0,0,0,2.62,2,5.82,5.82,0,0,0,4.05-.26,3.48,3.48,0,0,0,2-3.36A3.26,3.26,0,0,0,348.91,26.07Z"/><path class="cls-11" d="M288.69,97.5c-2.89-.59-6.82,1.33-5.83,4.45a3.47,3.47,0,0,0,2.62,2,5.73,5.73,0,0,0,4-.26,3.48,3.48,0,0,0,2-3.36A3.26,3.26,0,0,0,288.69,97.5Z"/><path class="cls-11" d="M162.3,76.14a2.68,2.68,0,0,0-.86-.64c-2.74-1.39-9.08,5.72-5.38,7.92a1.82,1.82,0,0,0,1.36.07C159.53,83,164.35,78.46,162.3,76.14Z"/><path class="cls-11" d="M136.4,41.42a7.63,7.63,0,0,0-2.87,4.92c.27,4.81,6.51-1.12,4.94-4.22C137.91,41,137.15,41,136.4,41.42Z"/><path class="cls-11" d="M364.11,64.8a5.93,5.93,0,0,0-4.41,2c-.78,1-1.2,2.62-.27,3.52s2.41.46,3.56-.07a4.58,4.58,0,0,0,2.72-2.44C366.36,65.69,365.44,64.86,364.11,64.8Z"/><path class="cls-3" d="M276.83,15.51A7.26,7.26,0,0,1,275.35,12a.85.85,0,0,0-1-.75.87.87,0,0,0-.75,1,9.08,9.08,0,0,0,1.84,4.42.89.89,0,0,0,.76.33.93.93,0,0,0,.46-.19A.86.86,0,0,0,276.83,15.51Z"/><path class="cls-4" d="M277.6,11.57a3.64,3.64,0,0,1,1.6-.66,5.42,5.42,0,0,1,1.45,0c.41.05,1.35.22,1.46.74s-.55.94-.8,1.25A24.61,24.61,0,0,0,279.86,15c-.43.67-.83,1.36-1.27,2A19.19,19.19,0,0,1,276,19.92a18.68,18.68,0,0,0-1.37,1.58c-.18.22-1,1.5-1.22,1.42a.35.35,0,0,1-.18-.16,5.32,5.32,0,0,1-.82-4.61,5.29,5.29,0,0,1,1.27-1.76c.44-.43,1-.7,1.47-1.09a2.42,2.42,0,0,0,.63-1.23,4.91,4.91,0,0,1,.7-1.39A4.64,4.64,0,0,1,277.6,11.57Z"/><path class="cls-4" d="M292.59,19.43a1.6,1.6,0,0,0-.21-.23.23.23,0,0,0-.12-.08l-.14,0a1.53,1.53,0,0,0-.81.58,3.16,3.16,0,0,0-.29.68c-.33.89-1.47,1.56-2.09,2.27-1.64,1.89-2.72,4.25-4.59,5.91a3.88,3.88,0,0,0-1,1.15,1.25,1.25,0,0,0,.13,1.29c.33.33.84.1,1.25,0a5.28,5.28,0,0,0,2.82-1.32c.73-.79.6-2,1.31-2.81.95-1.11,2.52-1.37,3.43-2.65a4.64,4.64,0,0,0,.9-2.4A4,4,0,0,0,292.59,19.43Z"/><path class="cls-5" d="M278,22.08a7.79,7.79,0,0,1,1,.07,4.62,4.62,0,0,1,3,2,7.83,7.83,0,0,1,1,2.69,12.15,12.15,0,0,1,.08,2.7c0,.31-.09,1.38.36,1.4.29,0,.64-.49.74-.72a3.73,3.73,0,0,0,.24-1.05.81.81,0,0,0,1.09.07,1.85,1.85,0,0,0,.71-1.13,5.64,5.64,0,0,0,.11-1.36.64.64,0,0,0,.78.19,1.81,1.81,0,0,0,1-1,3.88,3.88,0,0,0,.33-1.39,2.07,2.07,0,0,0,2.33-2.3,2.13,2.13,0,0,0,1.41-1,2.52,2.52,0,0,0,.25-2c-.34-.58-1.35-.44-1.89-.38-.75.08-1.5,0-2.25.09a6.79,6.79,0,0,1-2.33.14,2.66,2.66,0,0,1-1-.62,5.7,5.7,0,0,1-1.46-2.38,14.17,14.17,0,0,1-.59-2.75,3.09,3.09,0,0,0-.71-1.85.36.36,0,0,0-.16-.11.43.43,0,0,0-.25,0,2.23,2.23,0,0,0-.91.42,2.75,2.75,0,0,0-.9,2.87,1.78,1.78,0,0,0-1.66-.18,1.63,1.63,0,0,0-.61,1.41,6.53,6.53,0,0,0,.12,1.39,2.13,2.13,0,0,0-2.15.52,1.76,1.76,0,0,0-.19,2.15,2,2,0,0,0-1.78.54,2.08,2.08,0,0,0-.47,1.86c.11,1,1.1.31,1.64.07a6.13,6.13,0,0,1,2.2-.49Z"/><path class="cls-12" d="M192.31,82.16c-1,1.34-1.95,2.71-2.91,4.09-.51.75-.75,1.34-.1,2,.37.36,14.56-15.23,16.13-16.47a202.64,202.64,0,0,0-3,22.49c3.14-7.33,6.25-14.36,7.79-22.21-.29,1.48,3.83,7,4.78,8.3,2.94,3.89,6.53,6.2,9.16,10.37-.74-4.55-3-8.7-5.19-12.74-.22-.4-4.12-6.26-4-6.28,7.57-.79,14.9-1.46,19.34-8.9a7.78,7.78,0,0,0-4.33.81,51.13,51.13,0,0,1-13.47,3.11c-3.77.34-3.82-1.22-5.81-3.52s-3.36,2.15-3.89,3c-1,1.77-2.41,2.55-4,4A76.49,76.49,0,0,0,192.31,82.16Z"/><path class="cls-13" d="M206.79,71l.14,0a.42.42,0,0,0,.4-.29l.88-2.59a.43.43,0,0,0-.27-.55.44.44,0,0,0-.55.27l-.87,2.59A.43.43,0,0,0,206.79,71Z"/><path class="cls-13" d="M208.8,69.63a.44.44,0,0,0-.59.15,9,9,0,0,0-1.06,2.78.44.44,0,0,0,.34.51h.09a.43.43,0,0,0,.42-.35,8.15,8.15,0,0,1,1-2.51A.43.43,0,0,0,208.8,69.63Z"/><path class="cls-13" d="M206.79,74.82a.44.44,0,0,0-.55.27,36.14,36.14,0,0,0-1.49,6.41.44.44,0,0,0,.37.49h.06a.44.44,0,0,0,.43-.37,35.21,35.21,0,0,1,1.45-6.25A.43.43,0,0,0,206.79,74.82Z"/><path class="cls-13" d="M211.62,70a.43.43,0,0,0-.1.6,7.18,7.18,0,0,1,1.29,3.3.44.44,0,0,0,.43.37h.06a.43.43,0,0,0,.37-.48,8.21,8.21,0,0,0-1.44-3.69A.44.44,0,0,0,211.62,70Z"/><path class="cls-13" d="M215.09,76.11a.43.43,0,0,0-.71.5l2.26,3.2A.41.41,0,0,0,217,80a.45.45,0,0,0,.25-.07.44.44,0,0,0,.1-.61Z"/><path class="cls-13" d="M230.63,66.66a.44.44,0,0,0-.59-.18,20.27,20.27,0,0,1-15.26,1.6.43.43,0,1,0-.25.82,21.13,21.13,0,0,0,15.92-1.66A.43.43,0,0,0,230.63,66.66Z"/><path class="cls-13" d="M209.86,63.09a1.23,1.23,0,0,1-1.07.18.45.45,0,0,0-.54.3.44.44,0,0,0,.3.53,2,2,0,0,0,.58.09,2.13,2.13,0,0,0,1.24-.4.43.43,0,0,0,.09-.6A.42.42,0,0,0,209.86,63.09Z"/><path class="cls-13" d="M195.91,79.17a.43.43,0,0,0-.6.12l-1.48,2.28a.42.42,0,0,0,.12.59.44.44,0,0,0,.24.07.41.41,0,0,0,.36-.19L196,79.76A.42.42,0,0,0,195.91,79.17Z"/><path class="cls-13" d="M198.81,75.26,198,76.41a.43.43,0,0,0,.09.6.38.38,0,0,0,.25.09.43.43,0,0,0,.35-.17l.86-1.16a.42.42,0,0,0-.08-.6A.44.44,0,0,0,198.81,75.26Z"/><path class="cls-13" d="M202.49,70.8a1.72,1.72,0,0,0-1.19,1.52.43.43,0,0,0,.4.46h0a.44.44,0,0,0,.43-.41.87.87,0,0,1,.59-.75.43.43,0,1,0-.26-.82Z"/><path class="cls-13" d="M201.39,74.36,200,76.11a.43.43,0,0,0,.07.61.45.45,0,0,0,.27.1.44.44,0,0,0,.33-.16l1.41-1.76a.43.43,0,0,0-.06-.6A.44.44,0,0,0,201.39,74.36Z"/><path class="cls-13" d="M205,68.9a.43.43,0,0,0-.61,0L203.19,70a.44.44,0,0,0,0,.61.48.48,0,0,0,.31.13.39.39,0,0,0,.3-.13L205,69.51A.43.43,0,0,0,205,68.9Z"/><path class="cls-13" d="M221,68.46l.24,0a2.79,2.79,0,0,0,2.16-1,.44.44,0,0,0-.08-.61.43.43,0,0,0-.61.08,1.83,1.83,0,0,1-1.63.7.44.44,0,0,0-.47.39A.43.43,0,0,0,221,68.46Z"/><path class="cls-13" d="M225.51,66.94a.42.42,0,0,0,.43.42h0l1.15,0a.43.43,0,1,0,0-.86l-1.15,0A.43.43,0,0,0,225.51,66.94Z"/><path class="cls-13" d="M224.5,66.45l.14,0,.86-.28a.43.43,0,0,0,.27-.55.42.42,0,0,0-.54-.27l-.87.28a.44.44,0,0,0,.14.85Z"/><path class="cls-13" d="M229.1,66.15a.46.46,0,0,0,.24-.08l.86-.57a.43.43,0,0,0-.48-.72l-.86.57a.44.44,0,0,0-.12.6A.42.42,0,0,0,229.1,66.15Z"/><path class="cls-13" d="M217.16,68.15l.87.29.13,0a.43.43,0,0,0,.41-.29.42.42,0,0,0-.27-.55l-.86-.29a.44.44,0,0,0-.55.27A.43.43,0,0,0,217.16,68.15Z"/><path class="cls-13" d="M215.08,73.65a.43.43,0,0,0-.5.35,1.5,1.5,0,0,0,.8,1.61.45.45,0,0,0,.19,0,.44.44,0,0,0,.39-.24.43.43,0,0,0-.2-.58.67.67,0,0,1-.33-.68A.44.44,0,0,0,215.08,73.65Z"/><path class="cls-13" d="M218.47,81a.43.43,0,0,0-.61.61l.29.29a.42.42,0,0,0,.3.12.47.47,0,0,0,.31-.12.43.43,0,0,0,0-.61Z"/><path class="cls-13" d="M218.58,77.9a.43.43,0,0,0-.58-.19.42.42,0,0,0-.19.58l.28.57a.44.44,0,0,0,.39.24.32.32,0,0,0,.19,0,.43.43,0,0,0,.2-.58Z"/><path class="cls-13" d="M220.82,82.56a.43.43,0,1,0-.79.35l.62,1.42a.43.43,0,0,0,.39.26.58.58,0,0,0,.18,0,.45.45,0,0,0,.22-.57Z"/><path class="cls-13" d="M205.51,82.38a.43.43,0,0,0-.08.6.73.73,0,0,1,0,.88.43.43,0,0,0,.07.61.39.39,0,0,0,.27.1.44.44,0,0,0,.33-.16,1.62,1.62,0,0,0,0-2A.44.44,0,0,0,205.51,82.38Z"/><path class="cls-13" d="M209.12,74.83a.43.43,0,0,0-.54.28l-.28.86a.44.44,0,0,0,.28.55l.13,0a.44.44,0,0,0,.41-.3l.28-.87A.42.42,0,0,0,209.12,74.83Z"/><path class="cls-12" d="M77.87,74.25c-.81-.84-1.64-1.67-2.48-2.48-.46-.45-.84-.68-1.38-.31-.29.21,8.81,11.83,9.48,13.06a141.36,141.36,0,0,0-15.17-4.68c4.69,3,9.18,6,14.41,8-1-.38-5.29,1.82-6.29,2.32-3,1.58-5,3.78-8.21,5.11,3.22,0,6.34-1,9.39-2.09.3-.1,4.8-2.11,4.79-2-.33,5.32-.73,10.45,3.89,14.38a5.36,5.36,0,0,0-.06-3.07,36,36,0,0,1-.57-9.66c.21-2.64,1.29-2.5,3.11-3.6s-1.09-2.57-1.65-3a11.76,11.76,0,0,1-2.27-3.24A54.16,54.16,0,0,0,77.87,74.25Z"/><path class="cls-13" d="M83.86,85.54a.16.16,0,0,0,0,.09A.28.28,0,0,0,84,86l1.68.91a.31.31,0,0,0,.29-.54l-1.68-.9A.3.3,0,0,0,83.86,85.54Z"/><path class="cls-13" d="M84.59,87.09a.3.3,0,0,0,0-.42,6.28,6.28,0,0,0-1.8-1.06.3.3,0,0,0-.39.18s0,0,0,0a.3.3,0,0,0,.19.34,5.4,5.4,0,0,1,1.62.95A.3.3,0,0,0,84.59,87.09Z"/><path class="cls-13" d="M81.24,85.1a.31.31,0,0,0-.12-.41,25.47,25.47,0,0,0-4.25-1.78.3.3,0,0,0-.38.2s0,0,0,0a.31.31,0,0,0,.21.34,24.63,24.63,0,0,1,4.14,1.73A.31.31,0,0,0,81.24,85.1Z"/><path class="cls-13" d="M84,89a.31.31,0,0,0-.41-.14,5.07,5.07,0,0,1-2.42.51.29.29,0,0,0-.31.25s0,0,0,0a.32.32,0,0,0,.29.31,5.78,5.78,0,0,0,2.72-.56A.31.31,0,0,0,84,89Z"/><path class="cls-13" d="M79.38,90.67a.3.3,0,1,0-.26-.54l-2.47,1.18a.27.27,0,0,0-.17.22.37.37,0,0,0,0,.18.31.31,0,0,0,.41.14Z"/><path class="cls-13" d="M84.09,102.5a.31.31,0,0,0,.19-.38A14.18,14.18,0,0,1,85,91.4a.31.31,0,0,0-.14-.41.3.3,0,0,0-.4.14,14.46,14.46,0,0,0-1.28,4,14.79,14.79,0,0,0,.56,7.2A.31.31,0,0,0,84.09,102.5Z"/><path class="cls-13" d="M89,88.59a.92.92,0,0,1,0-.76.31.31,0,0,0-.14-.41.3.3,0,0,0-.4.14,1.87,1.87,0,0,0-.13.4,1.48,1.48,0,0,0,.13.9.3.3,0,0,0,.41.13A.29.29,0,0,0,89,88.59Z"/><path class="cls-13" d="M79.51,77.08a.29.29,0,0,0,0-.42l-1.4-1.29a.3.3,0,0,0-.43,0,.33.33,0,0,0-.07.16.29.29,0,0,0,.09.27l1.4,1.29A.29.29,0,0,0,79.51,77.08Z"/><path class="cls-13" d="M81.87,79.54l-.69-.73a.31.31,0,0,0-.43,0,.32.32,0,0,0-.09.17.29.29,0,0,0,.08.26l.69.73a.3.3,0,0,0,.44-.42Z"/><path class="cls-13" d="M84.52,82.6a1.22,1.22,0,0,0-.91-1,.3.3,0,0,0-.37.23h0a.3.3,0,0,0,.23.35.6.6,0,0,1,.45.49.3.3,0,0,0,.34.26A.3.3,0,0,0,84.52,82.6Z"/><path class="cls-13" d="M82.19,81.43l-1-1.18a.29.29,0,0,0-.42,0,.27.27,0,0,0-.1.18.29.29,0,0,0,.07.25l1,1.18a.31.31,0,0,0,.43,0A.29.29,0,0,0,82.19,81.43Z"/><path class="cls-13" d="M85.54,84.53a.3.3,0,0,0,.07-.42L85,83.17a.3.3,0,0,0-.42-.07.35.35,0,0,0-.13.19.37.37,0,0,0,0,.23l.66.93A.3.3,0,0,0,85.54,84.53Z"/><path class="cls-13" d="M84,95.65l0,.16a1.93,1.93,0,0,0,.47,1.61.31.31,0,0,0,.43,0,.3.3,0,0,0,0-.43,1.3,1.3,0,0,1-.29-1.21.31.31,0,0,0-.22-.37A.31.31,0,0,0,84,95.65Z"/><path class="cls-13" d="M84.49,98.93a.3.3,0,0,0-.34.25h0L84,100a.3.3,0,0,0,.26.34.31.31,0,0,0,.34-.26l.11-.8A.3.3,0,0,0,84.49,98.93Z"/><path class="cls-13" d="M85,98.29a.17.17,0,0,0,0,.1l.1.63a.3.3,0,0,0,.59-.09l-.1-.63a.29.29,0,0,0-.34-.25A.3.3,0,0,0,85,98.29Z"/><path class="cls-13" d="M84.62,101.5a.28.28,0,0,0,0,.18l.3.66a.3.3,0,0,0,.4.15.3.3,0,0,0,.15-.4l-.3-.66a.3.3,0,0,0-.4-.15A.29.29,0,0,0,84.62,101.5Z"/><path class="cls-13" d="M84.63,93l-.3.57a.16.16,0,0,0,0,.09.33.33,0,0,0,.15.32.31.31,0,0,0,.41-.13l.3-.56a.3.3,0,0,0-.12-.41A.31.31,0,0,0,84.63,93Z"/><path class="cls-13" d="M81.08,91a.32.32,0,0,0-.18-.39,1.06,1.06,0,0,0-1.21.36.24.24,0,0,0,0,.13.28.28,0,0,0,.12.29.3.3,0,0,0,.42-.06.47.47,0,0,1,.51-.16A.31.31,0,0,0,81.08,91Z"/><path class="cls-13" d="M75.63,92.44A.3.3,0,0,0,75.7,92a.3.3,0,0,0-.42-.08l-.23.17a.28.28,0,0,0-.12.2.26.26,0,0,0,0,.22.29.29,0,0,0,.42.07Z"/><path class="cls-13" d="M77.74,92.87a.3.3,0,0,0-.18-.58l-.43.13a.32.32,0,0,0-.21.24.22.22,0,0,0,0,.14.3.3,0,0,0,.38.2Z"/><path class="cls-13" d="M74.26,93.87a.3.3,0,1,0-.15-.58l-1,.26a.3.3,0,0,0-.22.24.24.24,0,0,0,0,.12.3.3,0,0,0,.37.22Z"/><path class="cls-13" d="M76.18,83.33a.31.31,0,0,0-.41-.12.53.53,0,0,1-.61-.11.3.3,0,0,0-.43,0,.31.31,0,0,0-.09.18.27.27,0,0,0,.07.25,1.11,1.11,0,0,0,1.34.24A.31.31,0,0,0,76.18,83.33Z"/><path class="cls-13" d="M81,86.71a.3.3,0,0,0-.13-.41l-.56-.3a.31.31,0,0,0-.41.13.16.16,0,0,0,0,.09.3.3,0,0,0,.16.32l.56.3A.31.31,0,0,0,81,86.71Z"/><path class="cls-12" d="M286.12,38.65a1.72,1.72,0,0,0-.36-1.16c-2.28-3.49-7.36-5-11.23-5.73-4.08-.76-11.45-.18-12.35.74-.29.29,8.56,2.26,15.37,5.22a25.12,25.12,0,0,0,7.08,1.9A1.35,1.35,0,0,0,286.12,38.65Z"/><path class="cls-13" d="M274.7,32.85a.43.43,0,0,0-.42-.44l-2.88,0a.44.44,0,0,0-.44.43.42.42,0,0,0,.09.27.47.47,0,0,0,.34.17l2.87,0A.43.43,0,0,0,274.7,32.85Z"/><path class="cls-13" d="M273,33.89l-1-.3a.43.43,0,0,0-.54.29.45.45,0,0,0,.07.39.48.48,0,0,0,.22.15l1,.3a.43.43,0,1,0,.25-.83Z"/><path class="cls-13" d="M278.93,35.58a.43.43,0,1,0,.37-.78l-.59-.27a.43.43,0,0,0-.57.21.43.43,0,0,0,.05.45.48.48,0,0,0,.16.12Z"/><path class="cls-13" d="M278.74,36l-.59-.26a.42.42,0,0,0-.57.21.43.43,0,0,0,.05.45.48.48,0,0,0,.16.12l.59.27a.44.44,0,0,0,.57-.21A.44.44,0,0,0,278.74,36Z"/><path class="cls-13" d="M282.69,37.67a.42.42,0,0,0-.17-.58L280.6,36a.43.43,0,0,0-.58.17.42.42,0,0,0,0,.48.36.36,0,0,0,.13.11l1.91,1.06A.43.43,0,0,0,282.69,37.67Z"/><path class="cls-13" d="M276.05,34.45l-.59-.27a.43.43,0,0,0-.57.22.41.41,0,0,0,.05.44.4.4,0,0,0,.16.13l.59.27a.43.43,0,0,0,.36-.79Z"/><path class="cls-12" d="M310.6,99.45c.06.26.49.47,1.45.58,2.45.28,4.91-.26,7.37-.26,3.88,0,8.28,3.19,11,5.8,3.65,3.5,6.07,2.09,3.57-2.45a13,13,0,0,0-8.5-6.35,24.34,24.34,0,0,0-9.62-.17C315.07,96.75,310.35,98.47,310.6,99.45Z"/><path class="cls-13" d="M322.81,97.51a2.72,2.72,0,0,0-2.07-.28.44.44,0,0,0,.23.84,1.84,1.84,0,0,1,1.41.19.39.39,0,0,0,.21.06.44.44,0,0,0,.38-.22A.43.43,0,0,0,322.81,97.51Z"/><path class="cls-13" d="M327.5,99.7a.42.42,0,0,0-.61-.09.43.43,0,0,0-.09.6l2,2.64a.46.46,0,0,0,.35.17.44.44,0,0,0,.25-.08.43.43,0,0,0,.09-.61Z"/><path class="cls-13" d="M334.15,105.17l-.57-.86a.43.43,0,1,0-.72.47l.57.87a.41.41,0,0,0,.36.19.42.42,0,0,0,.24-.07A.43.43,0,0,0,334.15,105.17Z"/><path class="cls-13" d="M330.39,99.43a.43.43,0,1,0-.72.47l1.13,1.74a.44.44,0,0,0,.37.19.39.39,0,0,0,.23-.07.42.42,0,0,0,.13-.59Z"/><path class="cls-13" d="M316.29,97.83a3.33,3.33,0,0,1-2,.52.44.44,0,0,0-.05.87h.27a4.31,4.31,0,0,0,2.29-.67.43.43,0,0,0-.47-.73Z"/><path class="cls-13" d="M322.39,99a3.67,3.67,0,0,1-.45-.17,1.47,1.47,0,0,0-1.46-.08.43.43,0,0,0-.15.59.45.45,0,0,0,.6.15c.14-.09.29,0,.66.13a4.92,4.92,0,0,0,.59.22h.1a.43.43,0,0,0,.42-.32A.44.44,0,0,0,322.39,99Z"/><path class="cls-8" d="M260.43,77.62c.15-.22.31-.45.47-.65a5.37,5.37,0,0,1,3-2,2.89,2.89,0,0,1,2,.11,1.47,1.47,0,0,1,.8,1.67c-.21.65-1,1.14-.85,1.81a1,1,0,0,0,.4.58,2.41,2.41,0,0,0,2.66-.12A22,22,0,0,0,271,77.23a7,7,0,0,1,3.2-1.41,3.25,3.25,0,0,1,2.45.44,1.62,1.62,0,0,1,.4,2.24,7,7,0,0,1-1.11.76c-.36.28-.61.82-.32,1.16a.93.93,0,0,0,.57.27c2.11.39,4.06-1.18,6.17-1.54a2.63,2.63,0,0,1,2.76.94,1.69,1.69,0,0,1,0,1.71c-.55.88-3.29,1.29-.73,2.09a9.61,9.61,0,0,1,2.12,1,.78.78,0,0,1,.4.4c0,.12,0,.24,0,.35.06.31.38.48.65.64a5,5,0,0,1,2,2.3,2.47,2.47,0,0,1,.22,1.36c-.2,1.15-1.43,1.24-2.43,1-.53-.11-1.1-.36-1.56-.1-1.15.65-1,.43-2.11-.12a.86.86,0,0,0-.9,0,1,1,0,0,0-.25,1c.14,1.26-.1,2.59-1.5,3s-2.26-.79-2.86-1.76a3.8,3.8,0,0,0-1.31-1.47,1.36,1.36,0,0,0-1.78.32c-.37.62,0,1.41-.11,2.12a1.74,1.74,0,0,1-1.27,1.35,2.18,2.18,0,0,1-1.84-.42,8,8,0,0,1-1.66-2.72,6.62,6.62,0,0,0-1.08-1.44,2.85,2.85,0,0,0-1.63-.91,1.34,1.34,0,0,0-1.46.94c-.16.79.62,1.48.66,2.29.15,2.78-4.33,1.21-5.36.28s-1.69-2.21-3-2.55c-.4-.11-.82-.1-1.22-.22a3.28,3.28,0,0,1-1.22-.77c-1.34-1.22-2.7-3.42-2.56-5.31s1.5-3.92,2.63-5.33a2.75,2.75,0,0,1,1-.86,1,1,0,0,1,1.21.21c.11.14.19.32.34.4a.56.56,0,0,0,.42,0A2.86,2.86,0,0,0,260.43,77.62Z"/><path class="cls-14" d="M248.76,86.13a0,0,0,0,0,0,0,.68.68,0,0,1,.54-.8,76.45,76.45,0,0,1,31.63.44.68.68,0,0,1-.3,1.33,75,75,0,0,0-31.07-.43A.69.69,0,0,1,248.76,86.13Z"/><path class="cls-15" d="M210.62,10.72a13.48,13.48,0,0,0,6.36,9c1.87,1.06,4.2,1.67,6.17.8s3.38-3.25,3.8-5.35c.73-3.55.39-7.92-1.54-11-.55.73-1.2.49-1.74.95s-.8,1.22-1.32,1.69-1.08.13-1.53-.19-.94-.72-1.49-.65a19.85,19.85,0,0,0,.07,5.39c.06.41.1.91-.23,1.16-.8.62-1.89-1.26-2.72-.69-.39.27-.32.86-.28,1.33s-.17,1.11-.64,1.07a.82.82,0,0,1-.44-.21Z"/><path class="cls-2" d="M158.78,118.24c-3.85-3.12-9.09-3.83-13.87-2.91-2.26.42-4.37,1-5.76,3-1.18,1.65-1.5,3.76.53,4.88l.25.13a11.2,11.2,0,0,0,2.51.75,16.85,16.85,0,0,0,6.33.21c2.14-.34,4.15-1.19,6.34-1.34,1.24-.09,2.49.23,3.61-.42a2.5,2.5,0,0,0,1.35-2.56A3.25,3.25,0,0,0,158.78,118.24Z"/><path class="cls-2" d="M270.25,116.68a4.31,4.31,0,0,0-1.81.63,6.93,6.93,0,0,0-1.32,1.33,10.42,10.42,0,0,1-.89.87c-.62.55-1.29,1.06-1.92,1.61a2.88,2.88,0,0,0-1.1,1.53,1.82,1.82,0,0,0,1.2,1.88,7.11,7.11,0,0,0,2.91.1,11,11,0,0,0,3.6-1c1.7-.74,3.44-2.16,3.35-4S272.1,116.46,270.25,116.68Z"/><path class="cls-2" d="M296.75,114.31a4.62,4.62,0,0,0-3.43.83,32.35,32.35,0,0,0-2.78,2.33,6.52,6.52,0,0,1-3.17,1.65c-1.43.21-4.22-.21-5,1.5-1,2.2,2,3.36,3.63,3.54a38.63,38.63,0,0,0,5.16,0,11.27,11.27,0,0,0,5.2-1.28,5.52,5.52,0,0,0,2.95-4.6C299.32,116.68,298.48,114.69,296.75,114.31Z"/><path class="cls-2" d="M429.42,91.43a5.86,5.86,0,0,0-1.29-.47c-.76-.21-1.54-.31-2.31-.51a11.52,11.52,0,0,0-4.42-.57c-1.63.21-3.64,1.58-3.68,3.4a2.18,2.18,0,0,0,1,1.76,4.81,4.81,0,0,0,1.95.73,12.88,12.88,0,0,0,6-.27A8.75,8.75,0,0,0,429,94.4a2.57,2.57,0,0,0,1.16-1.63A1.47,1.47,0,0,0,429.42,91.43Z"/><path class="cls-2" d="M406.37,104.69c-1.23.19-2.43-.48-3.67-.18a1.9,1.9,0,0,0-1.63,1.83c.07,1,.95,1.43,1.91,1.5a8.24,8.24,0,0,0,2.66-.25c.83-.22,2.19-.64,2.41-1.58C408.34,104.78,407.27,104.55,406.37,104.69Z"/><path class="cls-2" d="M329.26,124.4a12.16,12.16,0,0,0-4.88-.29,9.21,9.21,0,0,0-4.62,1.09,3,3,0,0,0-1.29,3.54,3.87,3.87,0,0,0,3.25,1.85,13,13,0,0,1,3.85.57c.94.4,1.73,1.2,2.69,1.53a3.85,3.85,0,0,0,3.11-.68c1.66-1.17,1.89-2.84,1.23-4.65A5.25,5.25,0,0,0,329.26,124.4Z"/><path class="cls-2" d="M346.22,127.47a2.32,2.32,0,0,0-3.05.76,1.31,1.31,0,0,0,1.17,1.87,5.34,5.34,0,0,0,2.42,0l.12-.07C348.23,129.15,347.15,128,346.22,127.47Z"/><path class="cls-2" d="M62.7,100.11c-1.05-.18-2.32.12-2.47,1.12-.25,1.71,3,1.62,3.66.66S63.74,100.3,62.7,100.11Z"/><path class="cls-2" d="M310.68,118.38l-.1,0c-.52-.07-1,0-1.56,0a4.09,4.09,0,0,0-1.56,0,1.63,1.63,0,0,0-1.3,1.63,1.9,1.9,0,0,0,1.21,1.36c1.32.61,4,.75,4.59-1a1.45,1.45,0,0,0-.21-1.32A1.69,1.69,0,0,0,310.68,118.38Z"/><path class="cls-2" d="M419.62,87c.58-.12,1.32-.43.91-1.13a4.2,4.2,0,0,0-2.17-1.59,3.22,3.22,0,0,0-2.79.15,1.47,1.47,0,0,0-.22,2.22,2.85,2.85,0,0,0,1.72.58,7.43,7.43,0,0,0,1.53,0Z"/><path class="cls-2" d="M309.79,125.06a3.86,3.86,0,0,0-3.05-.36,14.4,14.4,0,0,0-1.81.64c-1.18.51-2.31,1.11-3.49,1.61a2,2,0,0,0-1.28,1,1.37,1.37,0,0,0,.75,1.52,3.77,3.77,0,0,0,1.8.31,24.91,24.91,0,0,0,4.14-.29,13.75,13.75,0,0,0,2.44-.66,2.41,2.41,0,0,0,1.66-1.45A2.26,2.26,0,0,0,309.79,125.06Z"/><path class="cls-2" d="M171,126.45a12.88,12.88,0,0,1-2.14-1.39c-.42-.43-.74-1-1.32-1.21a1.43,1.43,0,0,0-1.53.56,2.37,2.37,0,0,0-.36,1.67,4.24,4.24,0,0,0,2.72,3.68,3.18,3.18,0,0,0,3-.45C172.5,128.4,172,127.17,171,126.45Z"/><path class="cls-2" d="M75,95.45a1.51,1.51,0,0,0-.18-2.12,4.08,4.08,0,0,0-1.95-.82,16.22,16.22,0,0,0-2-.28,8.94,8.94,0,0,0-2.58.13c-1.1.22-2.44,1.13-2.46,2.38s1.66,1.68,2.56,1.75a8.46,8.46,0,0,0,2.5-.28A9.68,9.68,0,0,1,73,95.9C73.66,95.91,74.54,96,75,95.45Z"/><path class="cls-2" d="M82.25,105.12a21.55,21.55,0,0,0-2.84-.74,8.55,8.55,0,0,0-3.26-.24,5.24,5.24,0,0,0-3.72,2.19,3.64,3.64,0,0,0,.06,4.16c1.1,1.39,3.13,1.58,4.89,1.33A14.74,14.74,0,0,0,82.65,110c.92-.53,2-1.42,1.95-2.61S83.14,105.48,82.25,105.12Z"/><path class="cls-2" d="M94.37,111.62c-1.13,0-2.79.8-3.08,2a.88.88,0,0,0,.44.92,2.23,2.23,0,0,0,.84.26,8.81,8.81,0,0,0,1.36.12c.22,0,.43,0,.65,0a2.19,2.19,0,0,0,1.31-.4,1.43,1.43,0,0,0,.4-1.38A1.91,1.91,0,0,0,94.37,111.62Z"/><path class="cls-2" d="M130.6,118.29c-1.64-.44-4.22-.13-5,1.61a1.06,1.06,0,0,0,0,.87,1.39,1.39,0,0,0,.81.58,6,6,0,0,0,1.32.31,3.88,3.88,0,0,0,3.56-1.33,1.37,1.37,0,0,0,.32-1.43A1.43,1.43,0,0,0,130.6,118.29Z"/></g><g id="waste_peels" data-name="waste peels"><path class="cls-16" d="M277.4,42.55c-.95.17-1.74-1.73-3.78-3.28L272,41c.57.76,2.46,2.59,1.59,4Z"/><path class="cls-17" d="M273.66,47.51c4.71,10.52,11.51,18.92,8.52,25.26-1.39,3-7.95,6.41-11.45,5.78-.38-.07-.64-.84-.57-1C281.66,70.61,272.52,60.91,273.66,47.51Z"/><path class="cls-18" d="M273.39,46.93c4.71,10.52,11.51,18.91,8.52,25.26-1.39,3-8,6.56-11.45,5.77a.41.41,0,0,1-.1-.75C281.86,70.32,272.25,60.32,273.39,46.93Z"/><path class="cls-17" d="M275.22,43.85c-5.79,4.59,8.09,26.48,3.85,33.6a35.68,35.68,0,0,1-4.28,7c-.16.4.33,1,.91,1,0,0,12-.72,14.43-11.18C292.18,65.64,283,49.47,275.22,43.85Z"/><path class="cls-19" d="M288.61,54.78a34.29,34.29,0,0,0,5,1.75c7.86,2,19.25-3.14,19.25-3.14a1.08,1.08,0,0,1-.13,1.24c-6.54,6-12.61,8.18-19.52,7.85A28.86,28.86,0,0,1,288.61,54.78Z"/><path class="cls-18" d="M288.24,53.83a24.28,24.28,0,0,0,4.81,1.83c8,2,17.64-4,19.74-2.43a.26.26,0,0,1,0,.41c-6.68,6-13.4,8.51-20.15,8.11A28.9,28.9,0,0,1,288.24,53.83Z"/><path class="cls-17" d="M274.82,43c10.43,20.71,25.91,31.17,44.89,20.65a.93.93,0,0,0,.39-1.4c-.33-.43-12.25,2.42-19.44-1.32C291.06,55.93,281,42.28,274.82,43Z"/><path class="cls-20" d="M274.82,43c-5.79,4.6,8.09,26.48,3.85,33.6-2.37,5.07-3.43,7.11-3.88,7.9a.3.3,0,0,0,.29.46c2.51-.25,12.09-1.79,14.5-10.79C291.56,66.76,282.58,48.61,274.82,43Z"/><path class="cls-20" d="M274.82,43C286.71,63.48,301.11,72.86,320,62.57a.28.28,0,0,0,.1-.42c-1.72-2-12.43,1.6-19.76-2.21C290.68,55,283.26,39.76,274.82,43Z"/><path class="cls-21" d="M303.85,63.74s-.13-.05-.37-.08l-.44,0-.59-.12A10.76,10.76,0,0,1,299,61.89a33.71,33.71,0,0,1-4.39-3.69c-1.56-1.51-3.2-3.25-4.94-5.07s-3.45-3.52-5.08-5a30.23,30.23,0,0,0-4.67-3.51c-1.44-.85,2.63,2.53,4.23,4s3.26,3.18,5,5,3.41,3.54,5,5a30.45,30.45,0,0,0,4.57,3.64,9.85,9.85,0,0,0,3.68,1.46l.62.06.46,0C303.72,63.79,303.85,63.76,303.85,63.74Z"/><path class="cls-22" d="M278.22,81.53a3.71,3.71,0,0,0,1.17-1.1,9.22,9.22,0,0,0,1.83-4,18.59,18.59,0,0,0,0-6.5,50.67,50.67,0,0,0-1.94-7.69c-1.75-5.32-5.39-15.25-5-13.44.72,3.64,2.61,8.37,4.34,13.66a53.41,53.41,0,0,1,2,7.57,18.85,18.85,0,0,1,.15,6.31,9.65,9.65,0,0,1-1.55,3.92C278.59,81.1,278.18,81.49,278.22,81.53Z"/><path class="cls-18" d="M285.86,57.91c.12-.12-1.93-2.2-4.14-5s-3.75-5.29-3.87-5.23,1.2,2.72,3.46,5.56a34.36,34.36,0,0,0,3.08,3.45A6.24,6.24,0,0,0,285.86,57.91Z"/><path class="cls-23" d="M282.83,68c-.11-.5,0-.95.16-1s.43.34.53.85,0,1-.16,1S282.93,68.5,282.83,68Z"/><path class="cls-23" d="M286.05,67.21c.16-.1.61.33.85,1s.15,1.33,0,1.35-.41-.5-.63-1.12S285.88,67.31,286.05,67.21Z"/><path class="cls-23" d="M284,70.58c.19,0,.42.53.4,1.25s-.28,1.25-.48,1.22-.25-.59-.23-1.25S283.77,70.6,284,70.58Z"/><path class="cls-23" d="M285.72,70.7c-.19,0-.4-.14-.47-.41s0-.53.23-.58.4.14.46.41S285.91,70.65,285.72,70.7Z"/><path class="cls-23" d="M286.92,72.81c.19,0,.36.58.24,1.28s-.46,1.2-.64,1.13-.16-.61-.06-1.24S286.72,72.82,286.92,72.81Z"/><path class="cls-23" d="M283.22,75.76c.19,0,.22.56.07,1.15s-.43,1-.62,1-.22-.57-.07-1.15S283,75.71,283.22,75.76Z"/><path class="cls-23" d="M282,80c.49-.57,1-1,1.13-.89s-.07.74-.58,1.35-1.11,1-1.24.8S281.52,80.6,282,80Z"/><path class="cls-23" d="M289.71,58c-.48-.44-.76-.92-.62-1.07s.63.11,1.11.56.76.92.62,1.07S290.19,58.44,289.71,58Z"/><path class="cls-23" d="M293.22,59.12c.39.23.62.55.52.72s-.5.12-.88-.11-.62-.56-.51-.73S292.84,58.89,293.22,59.12Z"/><path class="cls-23" d="M289.89,59.68c.13-.15.64.07,1.13.5s.79.89.66,1-.63-.08-1.12-.5S289.77,59.83,289.89,59.68Z"/><path class="cls-23" d="M294.37,61.31c.32.19.49.48.39.64s-.44.16-.75,0-.5-.48-.39-.65S294.05,61.12,294.37,61.31Z"/><path class="cls-23" d="M284.1,61.2c.24-.08.53.12.64.45a.48.48,0,1,1-.64-.45Z"/><path class="cls-23" d="M281.52,58.6c.24-.09.55.16.71.57s.09.81-.15.9-.56-.17-.71-.57S281.28,58.69,281.52,58.6Z"/><path class="cls-23" d="M282.34,64.76c-.24.07-.64-.53-.88-1.35s-.24-1.54,0-1.61.64.53.88,1.35S282.58,64.69,282.34,64.76Z"/><path class="cls-23" d="M312.84,64c.85-.22,1.6-.21,1.66,0s-.57.63-1.42.85-1.59.22-1.66,0S312,64.19,312.84,64Z"/><path class="cls-23" d="M308.61,63.27c.57.1,1,.38,1,.63s-.54.38-1.12.28-1-.38-1-.63S308,63.18,308.61,63.27Z"/><path class="cls-23" d="M306.48,64.51c.59,0,1.08.17,1.09.42s-.46.48-1.06.5-1.08-.16-1.09-.42S305.89,64.53,306.48,64.51Z"/><ellipse class="cls-23" cx="307.12" cy="55.21" rx="0.54" ry="0.46" transform="translate(5.44 134.95) rotate(-25)"/><path class="cls-23" d="M303.35,56.84c-.4.15-.79.07-.88-.17s.16-.55.56-.7.8-.07.89.17S303.75,56.69,303.35,56.84Z"/><path class="cls-23" d="M303.64,57.68c-.11-.23.18-.6.64-.82s.92-.22,1,0-.17.59-.63.82S303.76,57.91,303.64,57.68Z"/><path class="cls-23" d="M300.87,57.62c.73-.14,1.36,0,1.41.2s-.51.56-1.24.7-1.37,0-1.42-.2S300.13,57.76,300.87,57.62Z"/><path class="cls-23" d="M272.61,38.5c-.12-.09-.24,0-.41,0a1,1,0,0,0-.71.25l-.71.78c-.16.18.08.26,0,.46a.35.35,0,0,0,.26.51,3.4,3.4,0,0,1,1,.49l1.6-1.71Z"/><path class="cls-18" d="M273.67,44.83c.69-1.37-1.09-3.11-1.65-3.85l.46-.49a5.85,5.85,0,0,0,1.27.95,3.09,3.09,0,0,0,2.34.31h0c.49.54.88.88,1.31.8h0c-1.79.95-.82,3.46-.82,3.46S274.83,44.15,273.67,44.83Z"/><path class="cls-16" d="M79.57,28.13c.55-.17.45-1.4,1.12-2.78l1.32.47c-.1.56-.61,2.05.24,2.56Z"/><path class="cls-17" d="M82.92,29.75c.36,6.9-1,13.24,2.37,15.8,1.55,1.2,6,1.24,7.68,0,.18-.14.11-.63,0-.72C85,44.26,87.19,36.58,82.92,29.75Z"/><path class="cls-18" d="M82.9,29.36c.37,6.9-1,13.24,2.37,15.81,1.55,1.19,6,1.31,7.69-.06a.25.25,0,0,0-.15-.43C84.79,44.16,87.17,36.2,82.9,29.36Z"/><path class="cls-17" d="M81.08,28.23c4.35.86,2.94,16.33,7.14,19a21.83,21.83,0,0,0,4.22,2.58.54.54,0,0,1-.22.79s-6.56,2.89-10.74-2C78,44.49,78.49,33.35,81.08,28.23Z"/><path class="cls-19" d="M76.94,37.72A21.28,21.28,0,0,1,74.73,40c-3.65,3.2-11.12,3.59-11.12,3.59a.66.66,0,0,0,.41.63c5.12,1.39,9,.91,12.55-1.16A17.31,17.31,0,0,0,76.94,37.72Z"/><path class="cls-18" d="M76.87,37.11a14.76,14.76,0,0,1-2.06,2.29c-3.73,3.27-10.49,2.71-11.19,4.11a.16.16,0,0,0,.11.22c5.21,1.39,9.47.87,13-1.19A17.06,17.06,0,0,0,76.87,37.11Z"/><path class="cls-17" d="M81.06,27.66c.11,13.9-5.28,23.71-18.28,23.29-.43,0-.65-.32-.59-.64s7.19-2.06,10-6C75.94,39,77.59,29,81.06,27.66Z"/><path class="cls-20" d="M81.06,27.66c4.35.86,2.94,16.33,7.14,19,2.66,2,3.78,2.84,4.24,3.15a.18.18,0,0,1,0,.32c-1.4.55-6.93,2.35-10.68-1.79C78.64,44.91,78.46,32.78,81.06,27.66Z"/><path class="cls-20" d="M81.06,27.66c-.73,14.18-5.84,23.12-18.7,22.79a.17.17,0,0,1-.17-.2c.38-1.52,7.07-2.55,9.93-6.59C75.88,38.37,75.68,28.24,81.06,27.66Z"/><path class="cls-21" d="M71.26,46.66a.75.75,0,0,1,.18-.14l.22-.14.29-.23a6.59,6.59,0,0,0,1.4-1.8,20.75,20.75,0,0,0,1.33-3.17c.41-1.23.82-2.61,1.25-4s.87-2.82,1.34-4.05a18.54,18.54,0,0,1,1.53-3.15c.53-.85-.71,2.07-1.16,3.29s-.87,2.58-1.3,4-.85,2.82-1.29,4.06a19.3,19.3,0,0,1-1.44,3.19,6,6,0,0,1-1.56,1.78l-.32.21-.25.11C71.34,46.65,71.27,46.68,71.26,46.66Z"/><path class="cls-22" d="M89.79,49.14a2.4,2.4,0,0,1-.92-.27,5.53,5.53,0,0,1-2.07-1.63A11.22,11.22,0,0,1,85,43.78,29.74,29.74,0,0,1,84,39.15c-.53-3.32-1.3-9.61-1-8.54.62,2.14.9,5.18,1.43,8.47a31,31,0,0,0,1,4.58A11.46,11.46,0,0,0,87,47.06a5.88,5.88,0,0,0,1.9,1.66C89.48,49,89.81,49.1,89.79,49.14Z"/><path class="cls-18" d="M79.26,38.63c-.1,0,.43-1.7.83-3.81s.56-3.84.64-3.84a12.64,12.64,0,0,1-.33,3.91,19.87,19.87,0,0,1-.7,2.68A3.39,3.39,0,0,1,79.26,38.63Z"/><path class="cls-23" d="M83.63,43.18c-.08-.3-.24-.52-.35-.48s-.14.3-.06.59.25.52.36.49S83.72,43.48,83.63,43.18Z"/><path class="cls-23" d="M81.7,43.64c-.11,0-.23.35-.17.79s.29.75.39.71.09-.38,0-.77S81.82,43.65,81.7,43.64Z"/><path class="cls-23" d="M83.74,44.87c-.11,0-.08.4.13.77s.49.6.58.52,0-.38-.21-.72S83.85,44.83,83.74,44.87Z"/><path class="cls-23" d="M82.83,45.41c.12,0,.18-.18.14-.34s-.17-.28-.28-.25-.17.18-.14.35S82.72,45.44,82.83,45.41Z"/><path class="cls-23" d="M82.77,46.87c-.1.05,0,.4.22.75s.58.51.66.42-.09-.37-.32-.68S82.88,46.82,82.77,46.87Z"/><path class="cls-23" d="M85.55,47.43c-.09.08,0,.36.28.63s.51.42.59.34,0-.36-.27-.63S85.64,47.35,85.55,47.43Z"/><path class="cls-23" d="M87.36,49.37c-.42-.17-.79-.27-.85-.17s.24.38.69.56.84.21.87.09S87.78,49.55,87.36,49.37Z"/><path class="cls-23" d="M77.23,39.73c.13-.37.15-.7,0-.74s-.31.23-.44.6-.15.7,0,.74S77.1,40.1,77.23,39.73Z"/><path class="cls-23" d="M75.66,41.29c-.14.23-.17.46-.07.53s.29-.08.43-.3.18-.47.08-.53S75.8,41.06,75.66,41.29Z"/><path class="cls-23" d="M77.59,40.68c-.11,0-.31.21-.46.58S77,42,77.06,42s.32-.21.46-.57S77.7,40.72,77.59,40.68Z"/><path class="cls-23" d="M75.65,42.77c-.12.19-.13.39,0,.46s.27,0,.39-.23.13-.39,0-.45S75.77,42.59,75.65,42.77Z"/><path class="cls-23" d="M81.1,39.91c-.15,0-.25.2-.22.41s.17.36.33.33.25-.2.22-.41S81.25,39.88,81.1,39.91Z"/><path class="cls-23" d="M81.76,37.81c-.15,0-.25.24-.22.5s.17.46.33.44.25-.24.22-.5S81.91,37.8,81.76,37.81Z"/><path class="cls-23" d="M83,41.32c.15,0,.19-.46.1-1s-.29-.88-.44-.86-.2.46-.1,1S82.86,41.35,83,41.32Z"/><path class="cls-23" d="M66.53,49.24c-.52.11-.91.33-.88.48s.48.18,1,.06.91-.32.87-.47S67.05,49.13,66.53,49.24Z"/><path class="cls-23" d="M68.6,47.72c-.28.2-.44.47-.34.6s.39,0,.67-.16.43-.48.34-.6S68.88,47.51,68.6,47.72Z"/><path class="cls-23" d="M70.07,47.79c-.32.15-.53.39-.47.53s.38.13.7,0,.54-.39.47-.53S70.39,47.64,70.07,47.79Z"/><ellipse class="cls-23" cx="67.19" cy="43.01" rx="0.33" ry="0.28" transform="translate(-1.58 2.57) rotate(-2.17)"/><path class="cls-23" d="M69.64,42.85c.25,0,.44-.18.43-.33s-.24-.25-.5-.22-.44.18-.42.33S69.39,42.88,69.64,42.85Z"/><path class="cls-23" d="M69.71,43.38c0-.16-.25-.27-.56-.27s-.55.14-.55.29.26.27.56.26S69.72,43.53,69.71,43.38Z"/><path class="cls-23" d="M71.18,42.58c-.43.13-.74.35-.7.5s.43.16.85,0,.75-.34.7-.49S71.61,42.46,71.18,42.58Z"/><path class="cls-23" d="M81,24.66c0-.08.13-.07.22-.12a.53.53,0,0,1,.44-.05l.59.21c.14.05,0,.16.16.24a.21.21,0,0,1,0,.34,1.86,1.86,0,0,0-.41.54l-1.32-.47S80.93,24.82,81,24.66Z"/><path class="cls-18" d="M82.18,28.33c-.75-.55-.27-2-.17-2.51l-.38-.13a3.74,3.74,0,0,1-.42.85,1.88,1.88,0,0,1-1.16.81h0c-.11.42-.23.7-.47.78h0c1.21,0,1.38,1.62,1.38,1.62S81.37,28.28,82.18,28.33Z"/><path class="cls-24" d="M208.22,53.12c-.42.14-.73.32-.7.4s0,0,0,0,.22.33.42.66.37.68.45.66.06-.41-.2-.81c.24.19.41.33.47.29s0-.26-.26-.48c.27.06.47.07.49,0s-.18-.19-.46-.3c.31,0,.54,0,.56-.08s-.18-.16-.47-.19c.29-.12.49-.25.47-.31S208.64,53,208.22,53.12Z"/><path class="cls-25" d="M191.55,39.46c1.43,1.89,1.73,6.06,5.11,7.61,3,1.37,7.66.56,11.91-.76L204.08,60c-2.67-3-5.27-6.52-8.72-7-2.74-.39-5.74,1.26-9.07,2.78Z"/><path class="cls-26" d="M191.55,39.46a13.28,13.28,0,0,0-4.25,3.76c-.69,1.11-.27,2.41-.6,3.67s-1.46,2.59-1.52,3.93a17.73,17.73,0,0,0,1.11,4.92,21.45,21.45,0,0,0,3.07-2.58,7.6,7.6,0,0,1,2.31-6.83c-.45-1.29-.52-3.35.55-4.18A2.83,2.83,0,0,0,191.55,39.46Z"/><path class="cls-24" d="M187.43,47.3a10.56,10.56,0,0,0-5.2,0c-.35.09-.64.18-.84.25l-.33.12c-.09,0-.25-.19-.36-.48s-.11-.57,0-.6l.37-.12c.23-.05.56-.14.95-.2a10.09,10.09,0,0,1,2.85-.1,9.84,9.84,0,0,1,1.49.27,8.07,8.07,0,0,1,1.22.45Z"/><path class="cls-27" d="M190.59,40.69a3.44,3.44,0,0,0-2,1.74,3,3,0,0,0-1,2.24c0,1,.87,1.44,1.11,2.32.14.52.28,1.41,1,1.44a.42.42,0,0,0,.39-.24A9.39,9.39,0,0,0,191,46c.23-.78-.11-1.43,0-2.21C191.05,43.25,191.93,40.44,190.59,40.69Z"/><path class="cls-28" d="M187.35,45.27s.17.14.29.47a2.22,2.22,0,0,1-.76,2.46c-.28.21-.5.26-.51.23s.15-.15.37-.38a2.45,2.45,0,0,0,.7-2.25C187.39,45.48,187.31,45.29,187.35,45.27Z"/><path class="cls-27" d="M187.34,49.47c-.64.08-1.37.09-1.65.77a1.07,1.07,0,0,0-.09.48,1.22,1.22,0,0,0,0,.43c.2.78.57,1.48.79,2.24a.67.67,0,0,0,1.12.41,2.55,2.55,0,0,0,.54-.64c.2-.28.5-.47.68-.76a1.16,1.16,0,0,0,0-1.25,4.91,4.91,0,0,0,.39-.7,1.14,1.14,0,0,0,0-.85C188.82,49.06,187.83,49.41,187.34,49.47Z"/><path class="cls-27" d="M204.26,60.33A12.13,12.13,0,0,0,207.69,57c.57-1,.28-2.09.58-3.19s1.21-2.28,1.3-3.45a16,16,0,0,0-.73-4.22,18.77,18.77,0,0,0-2.47,2.32c.18,2-.54,4.58-2.18,5.69a9.26,9.26,0,0,1,0,3.19C204.07,58.32,203.61,59.22,204.26,60.33Z"/><path class="cls-26" d="M204.91,59.26a3.43,3.43,0,0,0,1.41-1.63,3.49,3.49,0,0,0,.8-2c0-.82-.49-1.17-.58-1.91-.06-.43-.1-1.17-.55-1.16-.12,0-.2.1-.27.23a10.88,10.88,0,0,0-.71,1.93,13.61,13.61,0,0,0-.15,1.89C204.77,57.1,204,59.56,204.91,59.26Z"/><path class="cls-26" d="M207.71,51.17c.43-.11.91-.17,1.14-.77A1.29,1.29,0,0,0,209,50a1.55,1.55,0,0,0,0-.37c-.08-.65-.28-1.22-.37-1.85-.07-.47-.36-.61-.71-.28a2.45,2.45,0,0,0-.4.59c-.16.25-.37.43-.51.69a1.26,1.26,0,0,0-.11,1.07c-.09.21-.24.42-.3.62a1.15,1.15,0,0,0,0,.73C206.7,51.62,207.38,51.26,207.71,51.17Z"/><path class="cls-26" d="M209.27,49.83a4.53,4.53,0,0,1-.91,2,3.7,3.7,0,0,0-1,1.31,3.67,3.67,0,0,0,.09,1.43,4.68,4.68,0,0,1-.41,2.44,9.35,9.35,0,0,1-.68,1.29,4.13,4.13,0,0,0-.36.6,8.28,8.28,0,0,0,1.66-2c.57-1,.28-2.09.58-3.19s1.21-2.28,1.3-3.45a7.3,7.3,0,0,0-.14-1.74A9,9,0,0,1,209.27,49.83Z"/><path class="cls-29" d="M203,57.92c.44.44.06-1.16-.25-1.64a4.73,4.73,0,0,1-.74-1.12,1.12,1.12,0,0,1,.54-1.27c.48-.26,1.17-.17,1.48-.62a1,1,0,0,0-.12-1.1,5.1,5.1,0,0,0-.87-.8c-.34-.31-.64-.83-.39-1.21a1.19,1.19,0,0,1,.38-.33l3.41-2.12c.48-.31-.51-.33-.81-.31a3.39,3.39,0,0,0-.87.23,15.42,15.42,0,0,1-7.31.27c-.35,0-1.36-.16-1,.18a26.07,26.07,0,0,0,2.41,1.3,1.25,1.25,0,0,1,.42.37.42.42,0,0,1,0,.52.63.63,0,0,1-.45.09l-1.28-.06a.68.68,0,0,0-.54.13.48.48,0,0,0-.06.53,1.32,1.32,0,0,0,.36.42c.7.64,2.23,1.53,2.09,1.91s-1.56-.65-1.73-.52.9.91,1.25,1.24l1.38,1.31C201.19,56.19,202.59,57.49,203,57.92Z"/><path class="cls-29" d="M195.74,52.21c.26,0,.56,0,.69-.24a.47.47,0,0,0-.18-.56,1.49,1.49,0,0,0-.59-.25c-.89-.26-2.62-1.35-2.31-1.49a7.78,7.78,0,0,1,1.81.07c.1,0,.23,0,.28-.09s0-.24-.09-.34a21.88,21.88,0,0,1-1.7-2.05c-.1-.3,1.23.29,1.85.44a.33.33,0,0,0,.17,0,.21.21,0,0,0,.08-.31.8.8,0,0,0-.29-.22c-1.51-.87-3.1-5.05-3.21-4.07s.61,2.7.5,3.1-.92.55-.92.55-.45.29-.43.54a.83.83,0,0,0,.4.54l.73.56c.16.12.34.29.3.49s-.41.32-.67.25-.54-.22-.79-.11a.6.6,0,0,0-.13.89c.21.27,1,.68,1.24,1.1s-1.19.64-1.68,1-1.16.85-1.17,1.34.43.12.67,0,.64-.27,1-.39a13.25,13.25,0,0,1,2.06-.53A12.12,12.12,0,0,1,195.74,52.21Z"/><path class="cls-30" d="M127.67,48.75a10,10,0,0,0,.93,6.12,16.91,16.91,0,0,0,2.17,3,9.12,9.12,0,0,0,2.31,1.65c1.61,1,1.63,1.64,3.26,2.47.47.24,2.08-.52,3-.07s1.42,0,2-.26c1.28-.41,2.12-.84,3.88.49s3.42-1.8,8-3.71c0,0-3.34,13.55-16.33,8.33C123.05,61.17,127.67,48.75,127.67,48.75Z"/><path class="cls-31" d="M128.42,42.9c-3.94,7.16-1.34,18.54,5.88,22.84,7.07,4.2,3.29,7.47-4.32,1.13-4.25-3.54-9.6-10.4-10-15.21.58-3.69,3.26-7,6.1-10.2Z"/><path class="cls-32" d="M128.42,42.9c-3.94,7.16-1.34,18.54,5.88,22.84,7.07,4.2,17.54,1,20-6.66l.68.43c-3,9.93-13,14.87-22.16,9.5-9.38-5.52-12.15-18.52-6.75-27.55Z"/><path class="cls-33" d="M129,43.26c-3.94,7.23-1.56,17.25,5.7,21.58,7.1,4.24,16,1.29,18.59-6.41l1.06.65c-2.91,9.32-12.38,13.85-21,8.77-8.83-5.21-11.53-17.41-6.51-25.92Z"/><path class="cls-34" d="M129.28,43.43a.32.32,0,0,1,0,.53,2.69,2.69,0,0,0-.76.87,3.11,3.11,0,0,0,.19,3.27,1.24,1.24,0,0,1,0,1.4,3,3,0,0,0-.35.72,3.36,3.36,0,0,0,.42,3,2.85,2.85,0,0,0,.55.59,1.12,1.12,0,0,1,.22,1.42,3.1,3.1,0,0,0-.26.55,3.5,3.5,0,0,0,1,3.91,2.56,2.56,0,0,0,.79.43,3.86,3.86,0,0,1,2.29,2.3A3,3,0,0,0,135,64.17a2.59,2.59,0,0,0,3.11-1,3.4,3.4,0,0,0,.38-.63.77.77,0,0,1,1.15-.37l0,0a2.31,2.31,0,0,0,2.44,0,.74.74,0,0,1,1,.3,2.84,2.84,0,0,0,1.41,1.2c1,.38,2.34.44,4.48-1.93a15.46,15.46,0,0,1,4.27-3.39c-2.53,7.91-11.07,12.79-19.26,7.92-8.39-5-10.2-16.43-6-23.7Z"/><path class="cls-35" d="M139.63,63.49c-.26-.17-1,.83-1.17,1.24a.86.86,0,0,0,.14,1.06c.26.17.62,0,.8-.43S139.89,63.66,139.63,63.49Z"/><path class="cls-35" d="M142,64c-.28,0-.51,1.24-.51,1.68s.24.8.54.79.52-.36.51-.79S142.3,64,142,64Z"/><path class="cls-35" d="M144.71,65.55c-.05-.43-.27-1-.53-1s-.46.65-.42,1.08.3.76.57.74S144.76,66,144.71,65.55Z"/><path class="cls-25" d="M461.3,28.5a9.47,9.47,0,0,0-2,4.51,8.67,8.67,0,0,0,1.45,4.75c.81,1.54,1.73,3.16,3.47,3.86a9.45,9.45,0,0,0,4.52.28,47.15,47.15,0,0,0,17.91-5.84c.4-.23-2.34-7.32-2.61-8q-1.51-4.07-3.38-8c-1-2-1.61-2.73-4.31-2a29.3,29.3,0,0,0-7.9,3.62A26.93,26.93,0,0,0,461.3,28.5Z"/><path class="cls-29" d="M460.68,34.77c-.15-.37-1.36-.18-1.74,0a.76.76,0,0,0-.41,1,.7.7,0,0,0,1,.35C459.88,35.92,460.83,35.14,460.68,34.77Z"/><path class="cls-29" d="M464.72,35.64c-.41-.16-1.46.84-1.72,1.24a.65.65,0,0,0,.26,1,1,1,0,0,0,1.19-.43C464.71,37.06,465.12,35.8,464.72,35.64Z"/><path class="cls-29" d="M461.71,36.88c-.36-.22-1.59.7-1.93,1.08a.71.71,0,0,0,0,1.1,1,1,0,0,0,1.25-.3C461.41,38.37,462.07,37.1,461.71,36.88Z"/><path class="cls-29" d="M463.79,39.19c-.46,0-1.24,1.19-1.38,1.64a.66.66,0,0,0,.55.91,1.08,1.08,0,0,0,1.09-.72C464.19,40.56,464.24,39.24,463.79,39.19Z"/><path class="cls-29" d="M467.26,39a.92.92,0,0,0,1.16-.14c.3-.31.88-1.4.54-1.64s-1.47.46-1.77.78A.64.64,0,0,0,467.26,39Z"/><path class="cls-29" d="M466.47,35.56a.86.86,0,0,0,1.17.2c.46-.24,1.62-1.21,1.43-1.56s-1.64,0-2.1.28A.85.85,0,0,0,466.47,35.56Z"/><path class="cls-29" d="M464.49,32.78a3.18,3.18,0,0,0-1.21-.26,1,1,0,0,0-1,.83.71.71,0,0,0,.81.68,7,7,0,0,0,1.1-.18c.43-.11.83-.23.92-.43S464.89,33,464.49,32.78Z"/><path class="cls-29" d="M467,31.79c.34.06,1.41-.11,1.58-.52s-.65-.91-1-1a.92.92,0,0,0-.89.64C466.51,31.35,466.65,31.73,467,31.79Z"/><path class="cls-29" d="M463.45,27.36a1.19,1.19,0,0,0-1.36.58c-.13.42.21.81.75.91s2.2.19,2.44-.18S464.09,27.45,463.45,27.36Z"/><path class="cls-29" d="M462.75,29.73a1,1,0,0,0-1,.72.64.64,0,0,0,.65.8c.45,0,1.82-.27,1.93-.69S463.21,29.75,462.75,29.73Z"/><path class="cls-29" d="M459.18,31.27a1,1,0,0,0-1,.66.61.61,0,0,0,.49.85c.41,0,1.69-.14,1.83-.55S459.59,31.33,459.18,31.27Z"/><path class="cls-29" d="M460.68,28.49a1,1,0,0,0-1.12.34c-.3.37-.27.81.06,1s1.48.38,1.78,0S461,28.67,460.68,28.49Z"/><path class="cls-29" d="M465.07,25.41c-.33.35-.06,1,.59,1.43s2.75,1.4,3.07,1.06-1.25-1.88-1.9-2.33S465.39,25.06,465.07,25.41Z"/><path class="cls-29" d="M467.16,23.17c.34.62,1.65,2.18,2.08,1.95s-.18-2.17-.52-2.79-1-.93-1.4-.7S466.82,22.55,467.16,23.17Z"/><path class="cls-29" d="M464.3,23.91c.37.24,1.68.66,2,.31s-.46-1.33-.83-1.58a1,1,0,0,0-1.25.19A.69.69,0,0,0,464.3,23.91Z"/><path class="cls-29" d="M464.28,26.49c.33-.35-.63-1.47-1.06-1.76a1.07,1.07,0,0,0-1.36.09.76.76,0,0,0,.19,1.17C462.48,26.28,464,26.84,464.28,26.49Z"/><path class="cls-29" d="M470.46,28.81c.05-.42-1.87-.62-2.56-.58s-1.28.43-1.32.85.48.71,1.17.67S470.42,29.23,470.46,28.81Z"/><path class="cls-29" d="M469.61,32.92c.49-.3,1.7-1.42,1.48-1.76s-1.79.25-2.28.55-.71.82-.49,1.15A1,1,0,0,0,469.61,32.92Z"/><path class="cls-29" d="M471.74,33.91c-.23-.33-1.17-.13-1.44,0a.63.63,0,0,0-.07.9.7.7,0,0,0,.89.3C471.39,35,472,34.24,471.74,33.91Z"/><path class="cls-29" d="M472.29,38c.21-.38.46-1.57,0-1.7s-1.36.85-1.56,1.23a.62.62,0,0,0,.37.92A1,1,0,0,0,472.29,38Z"/><path class="cls-29" d="M466.39,40.58c-.45-.08-1.32,1.15-1.5,1.61a.67.67,0,0,0,.47,1,1.08,1.08,0,0,0,1.13-.69C466.67,42,466.83,40.65,466.39,40.58Z"/><path class="cls-29" d="M470.33,39c-.45-.06-1.26,1.18-1.42,1.63a.66.66,0,0,0,.52.94,1.1,1.1,0,0,0,1.11-.71C470.7,40.42,470.78,39.08,470.33,39Z"/><path class="cls-29" d="M474.23,40.4a.86.86,0,0,0,1.17.3.84.84,0,0,0,.4-1.13c-.21-.4-1.17-1.33-1.61-1.1S474,40,474.23,40.4Z"/><path class="cls-29" d="M473.16,41.32c0-.41-.19-1.56-.65-1.53s-1,1.2-1.05,1.61a.65.65,0,0,0,.76.7A1,1,0,0,0,473.16,41.32Z"/><path class="cls-36" d="M469.5,20.69c-.19,4.5,1.82,8.53,3.67,12.51a26.77,26.77,0,0,0,3.64,6.5,10.48,10.48,0,0,0,2.7,2.15c1.89-.88,3.42-1.66,4.34-2.13,5.21-2.66,9.4-8.49,1.74-15.57C484.45,14,477.17,13.78,472,16.44c-.57.29-1.37.7-2.31,1.21C469.7,18.63,469.55,19.42,469.5,20.69Z"/><path class="cls-37" d="M473.17,33.2a26.77,26.77,0,0,0,3.64,6.5c1.41,1.62,3.13,2.38,4.94,3.4s2.95,3.23,4.59,4.44c4.08-3.64,6.45-10.8-1.84-18.17-3.94-7.7-9.55-10.75-14.76-8.09l-.25.12C469.53,25.62,471.42,29.43,473.17,33.2Z"/><path class="cls-37" d="M469.5,16.51a15,15,0,0,1,0,4.18c-.19,4.5,1.82,8.53,3.67,12.51a27,27,0,0,0,3.61,6.47l1.85-1c5.21-2.66,6-9,2.1-16.7-.84-8.31-5.13-11.65-9.47-12.3C469.24,11.47,469,14,469.5,16.51Z"/><path class="cls-38" d="M485.18,32.25c-.85.43-3-2-4.74-5.46s-2.5-6.61-1.64-7,3.53,1.73,5.3,5.18S486,31.81,485.18,32.25Z"/><path class="cls-39" d="M480.47,23.34c7.79-3.29,13.69-1.2,18.25,4.66l-1.78,1.41c-3.87-4.76-8.34-5.39-13.62-.29C481,27.82,479.93,25.94,480.47,23.34Z"/><path class="cls-40" d="M480.47,23.34a20.34,20.34,0,0,1,2.6-.92c-.65,3.85,4.5,1.3,8.68,1.86,3.57.48,6.21,4.32,6.21,4.32l-1,.81c-3.87-4.76-8.34-5.39-13.62-.29C481,27.82,479.93,25.94,480.47,23.34Z"/><path class="cls-41" d="M469.5,20.69c-.19,4.5,1.82,8.53,3.67,12.51a26.77,26.77,0,0,0,3.64,6.5,11.37,11.37,0,0,0,3.28,2.48c3.76-2.49,6.46-7.22,3.4-12.31a34.11,34.11,0,0,1-2.34-3.45A26,26,0,0,1,480,23c-1.86-5.19-6.33-6.27-10.32-5.25C469.69,18.69,469.55,19.47,469.5,20.69Z"/><path class="cls-42" d="M481.24,40.59c-.54.41-1.15.81-1.8,1.22l1.06.6c.48-.35.94-.71,1.35-1.07A10,10,0,0,0,484.5,38a2.35,2.35,0,0,0,.07-1.72,3.25,3.25,0,0,1-.54,1.47A11.71,11.71,0,0,1,481.24,40.59Z"/><path class="cls-42" d="M469.65,18.34l.19-.06a11.62,11.62,0,0,1,3.94-.6c.94.05,1.45.24,1.49.14s-.42-.44-1.42-.67a10,10,0,0,0-4.23.19A8.54,8.54,0,0,1,469.65,18.34Z"/><path class="cls-43" d="M475.6,22.07a1.12,1.12,0,0,1-.81-1.05.93.93,0,0,1,1.11-.95,2.88,2.88,0,0,1,1.29.66c.41.36.62.8.47,1s-.58.26-1,.29A8,8,0,0,1,475.6,22.07Z"/><path class="cls-43" d="M473.81,24.78a.78.78,0,0,1-1-.58.86.86,0,0,1,.42-1.09c.38-.15,1.58-.17,1.73.29S474.19,24.64,473.81,24.78Z"/><path class="cls-43" d="M477.53,25.08a.89.89,0,0,1-1.21-.2.87.87,0,0,1-.18-1.21c.28-.28,1.4-.76,1.78-.37S477.81,24.8,477.53,25.08Z"/><path class="cls-44" d="M489.07,39.61a1.34,1.34,0,0,1-1.88,1,1.62,1.62,0,0,1-.93-1.68,15.16,15.16,0,0,1,.56-1.45c.24-.56.47-1.16.86-1.25s.89.41,1.18,1.17A4,4,0,0,1,489.07,39.61Z"/><path class="cls-45" d="M250.22,73.46c-1.33.69-2.23,1.17-2.56,1.37-3.78,2.21-4.34,8.27-1.25,13.55s8.65,7.76,12.43,5.55c.26-.16.88-.55,1.73-1.11C262.08,86.83,255.51,75.9,250.22,73.46Z"/><path class="cls-46" d="M250.35,86.45l0-.08a.56.56,0,0,0-.65-.3A23.28,23.28,0,0,0,243.61,90l.5,1a22.37,22.37,0,0,1,5.86-3.8A.54.54,0,0,0,250.35,86.45Z"/><path class="cls-47" d="M249.43,85c-1.12,0-3.74.82-7.29,2.45.22.34.43.68.63,1a23,23,0,0,1,6.7-2.25.62.62,0,0,0,.57-.43.69.69,0,0,0,0-.2A.62.62,0,0,0,249.43,85Z"/><path class="cls-48" d="M250.41,85.89a.65.65,0,0,0-.91.08v0s-2.27,2.74-4.94,5.74c.16.3.32.6.49.9,1.31-1.31,2.55-2.57,3.48-3.61l2-2.2,0,0A.66.66,0,0,0,250.41,85.89Z"/><path class="cls-48" d="M249.7,85.2a.52.52,0,0,0-.31-.12.53.53,0,0,0-.45.2c-.64.78-3.13,1.42-7,1.86.22.33.44.67.64,1,3.53-.44,6.3-1.13,7.17-2.21A.53.53,0,0,0,249.7,85.2Z"/><path class="cls-48" d="M249.74,85.24a.54.54,0,0,0-.35-.16.53.53,0,0,0-.41.15,49.67,49.67,0,0,1-5.41,4.67l.51,1A50.19,50.19,0,0,0,249.74,86,.54.54,0,0,0,249.74,85.24Z"/><rect class="cls-45" x="246.92" y="84.68" width="5.7" height="3.46" transform="matrix(-0.51, -0.86, 0.86, -0.51, 301.39, 345.62)"/><path class="cls-49" d="M245.37,83.78c.17-.34,2.36.56,3.79,3s1.14,4.78.76,4.76-.83-2-2-4S245.14,84.15,245.37,83.78Z"/><path class="cls-49" d="M246.84,78.11c-.15.16.5,1,1.3,2s1.49,1.74,1.67,1.62-.24-1.1-1.08-2.12S247,78,246.84,78.11Z"/><path class="cls-49" d="M254.64,81.07c.18-.1-.29-1.27-1.23-2.48s-1.94-2-2.08-1.82.58,1.12,1.48,2.29S254.45,81.18,254.64,81.07Z"/><path class="cls-49" d="M255.38,88.08c.2,0,.12-1.2-.4-2.5s-1.26-2.2-1.44-2.09.23,1.13.73,2.37S255.17,88.12,255.38,88.08Z"/><path class="cls-49" d="M258.49,88.9c-.26-1-.89-1.6-1.05-1.48s.09.82.31,1.68.32,1.59.54,1.61S258.75,89.91,258.49,88.9Z"/><path class="cls-49" d="M255.15,91c-.21,0-.29.8-.17,1.72s.39,1.65.6,1.63.28-.8.16-1.73S255.36,90.93,255.15,91Z"/><path class="cls-50" d="M65.7,53.69c-.07-.45,2.74-.95,3.06-.7a15.06,15.06,0,0,1,2.74,2.87,15.73,15.73,0,0,0,5.16,4.46c1.85.83,5.93,2.17,8.35,1.53A16.09,16.09,0,0,1,89.22,61a18.86,18.86,0,0,0,7.26-2.42,22.54,22.54,0,0,0,5.35-4c1-1.21,2-3.25,3.32-4.53s2.29-4.52,2.8-7,0-3.06.45-3.82a6,6,0,0,0,.38-3.51,7.17,7.17,0,0,1,.13-3.76,1.85,1.85,0,0,1,2.23-.31c.44.44.64,1.65,1.08,2.86a28.56,28.56,0,0,1,.77,6.31,22.92,22.92,0,0,1-2,9.37c-1.53,3.82-2.36,6.12-7.14,9.81A33.11,33.11,0,0,1,89,66.82c-4.78.7-12.68-.57-17-3.31S65.89,54.84,65.7,53.69Z"/><path class="cls-51" d="M113,40.88a28.56,28.56,0,0,0-.77-6.31c-.44-1.21-.64-2.42-1.08-2.86a1.2,1.2,0,0,0-.89-.25A4.63,4.63,0,0,1,110.6,33c.11,1,.42,2.57.41,3.57,0,2.82.15,4.53-.2,6.17-.23,1.09-.49,1.92-.81,3-.19.67-.43,1.18-.64,1.84a13.86,13.86,0,0,1-.4,1.75c-.52,1.56-1.43,2.1-2.12,3.59a14,14,0,0,1-4.85,6.2,25.3,25.3,0,0,1-7.56,3.37,35,35,0,0,1-3.45,1c-.65.1-1.56-.08-2.22,0a8.42,8.42,0,0,1-1.87.25c-1.26-.08-2.49-.34-3.75-.4A17.27,17.27,0,0,1,79.56,63a19.3,19.3,0,0,1-3.14-1.14,31.42,31.42,0,0,1-2.91-1.69c-3-1.78-6.14-6.44-6.42-7.08-.74.15-1.43.39-1.39.62.19,1.15,1.91,7.08,6.25,9.82s12.23,4,17,3.31a33.11,33.11,0,0,0,14.91-6.76c4.78-3.69,5.61-6,7.14-9.81A22.92,22.92,0,0,0,113,40.88Z"/><path class="cls-52" d="M113,40.88a28.56,28.56,0,0,0-.77-6.31c-.44-1.21-.64-2.42-1.08-2.86a1.29,1.29,0,0,0-1-.24c1,.25,1.51,5.83,1.49,7.88-.07,5.45-.83,6.33-2.39,10.44A20.72,20.72,0,0,1,98.6,61.52c-6,2.76-11.19,3.7-17.52,2.4s-9.63-3.23-12-6.19c-3.44-4.22-3.38-4.27-3.34-4,.19,1.15,1.91,7.08,6.25,9.82s12.23,4,17,3.31a33.11,33.11,0,0,0,14.91-6.76c4.78-3.69,5.61-6,7.14-9.81A22.92,22.92,0,0,0,113,40.88Z"/><path class="cls-53" d="M251.33,111.5a.8.8,0,0,0-.59-.09c-.35,0-.7.1-1.06.11-.91,0-1.81.07-2.72.13a11.32,11.32,0,0,1-2.79,0c-.46-.09-.93-.12-1.4-.19s-1-.21-1.45-.32c-.95-.2-1.89-.47-2.84-.66s-2-.29-3-.4a5.48,5.48,0,0,0-2.51.22,18,18,0,0,0-1.86.8,15,15,0,0,1-3.59.58c-1.37,0-2.73.13-4.1.22s-2.76.19-4.14.26c-.71,0-1.42.06-2.13,0a7,7,0,0,1-2.15-.55,23.63,23.63,0,0,1-3.44-2,4.37,4.37,0,0,0-3.37-.5,21.46,21.46,0,0,0-3.42,1.38,32.52,32.52,0,0,1-3.94.87,7.82,7.82,0,0,0-2.13,1,3,3,0,0,0-1.38,1.49.14.14,0,0,0-.1.17c0,.24.53.23.69.23a3.42,3.42,0,0,1,.79.09,2.49,2.49,0,0,0,.9,0,4.29,4.29,0,0,0,.77-.24l.44-.17c.29-.12.5.07.75.15a4.45,4.45,0,0,0,1.74.23,14,14,0,0,0,1.76-.5,11.19,11.19,0,0,1,1.64-.07,2.94,2.94,0,0,0-.46,1,3.22,3.22,0,0,0,0,1.38,2.26,2.26,0,0,1,0,.86c-.61.44-1.18.94-1.79,1.39a0,0,0,0,0-.07,0,.08.08,0,0,1,0,0h0a0,0,0,0,0,0,.06c-.13.3-.57.86-.25,1a2.23,2.23,0,0,0,1,.11,8.57,8.57,0,0,0,.87,0l.38,0a3.24,3.24,0,0,0,1.2-.14,2.58,2.58,0,0,1,.72-.26l.74,0c.33,0,.66,0,1,0s.49.06.72,0a13.88,13.88,0,0,0,3.06-.51,6.44,6.44,0,0,0,.74-.25,9.54,9.54,0,0,0,1.52-.32c.67-.16,1.35-.25,2-.43a28.1,28.1,0,0,0,4.1-1.35c.32-.14.63-.29,1-.42s.8-.45,1-.14a2.11,2.11,0,0,1,.17.7,5.54,5.54,0,0,0,.23.89,2.94,2.94,0,0,0,1,1.28.31.31,0,0,0,.28.06,1.53,1.53,0,0,0,.13.68.18.18,0,0,0,.29-.06,3.19,3.19,0,0,1,1-1.19,5.71,5.71,0,0,1,1.24-.61,9.2,9.2,0,0,0,1.07-.68,9.57,9.57,0,0,0,1.25-.95c.39-.35.75-.73,1.14-1.09s.52-.79,1-1c.92-.33,1.9-.27,2.84-.51.73-.19,1.47-.36,2.21-.52a7.12,7.12,0,0,0,1.22,0,14.44,14.44,0,0,0,1.74,0c1.3-.11,2.59-.26,3.89-.33.66,0,1.32-.08,2-.1a11.33,11.33,0,0,0,1.84-.16c.61-.11,1.22-.14,1.84-.24.31-.06.73,0,.88-.34A.14.14,0,0,0,251.33,111.5Z"/><path class="cls-54" d="M249.72,110.43a11.83,11.83,0,0,1-2.14-.64,31.85,31.85,0,0,0-4.55-.64,8.21,8.21,0,0,1-1.89-.49,8.41,8.41,0,0,0-1.78-.65c-1.27-.22-2.61-.26-3.9-.38a9.19,9.19,0,0,0-4.18.61,5,5,0,0,0-1.83,1.05,4.36,4.36,0,0,1-.4.35,1.85,1.85,0,0,0,.14.81,3.06,3.06,0,0,0,.92,1.24,3.59,3.59,0,0,0,3.15.67,13.11,13.11,0,0,1,1.88,0,17.67,17.67,0,0,1,1.91.31c2.93.31,5.84-.44,8.73-.81a31.76,31.76,0,0,0,4.48-.43,2.51,2.51,0,0,0,.91-.5C251.38,110.78,250.89,110.48,249.72,110.43Z"/><path class="cls-55" d="M248.42,111.29a7.57,7.57,0,0,0-2,0c-1.07.14-2.11.43-3.17.61-.45.08-.9.12-1.35.17s-1.1.23-1.66.32a17.26,17.26,0,0,1-3,.2,12.87,12.87,0,0,1-1.39-.17,6.31,6.31,0,0,0-1.5-.06h.71a17.67,17.67,0,0,1,1.91.31c2.93.31,5.84-.44,8.73-.81a31.76,31.76,0,0,0,4.48-.43l.33-.12A5.29,5.29,0,0,1,248.42,111.29Z"/><path class="cls-56" d="M239.12,110.08a1.79,1.79,0,0,0-1.09-.14c-.19.06-.36,0-.56-.06s-.4,0-.59,0a0,0,0,0,0,0,.07,1.61,1.61,0,0,0,.36.1c.21,0,.43.15.64.18s.22-.06.31-.06h.42a1.35,1.35,0,0,0,.53,0A.06.06,0,0,0,239.12,110.08Z"/><path class="cls-56" d="M234.62,109.88c-.16-.22-.63-.19-.87-.18s-.45.06-.67.07-.36.22-.53.19,0,0,0,0a.23.23,0,0,0,.24,0c.19,0,.38,0,.57-.09a8.83,8.83,0,0,1,1.26,0A0,0,0,0,0,234.62,109.88Z"/><path class="cls-57" d="M239.39,108c.71.33,1.25.92,2,1.26a3.14,3.14,0,0,0,2.41-.05l-.72-.09a8.21,8.21,0,0,1-1.89-.49,8.41,8.41,0,0,0-1.78-.65h0Z"/><path class="cls-58" d="M227.64,116.5a6.48,6.48,0,0,1,1.63-.34,4.34,4.34,0,0,0,1.49-.48,12.38,12.38,0,0,0,1-.82,3.8,3.8,0,0,0,.94-.8,7.46,7.46,0,0,0,.71-1.48c.09-.3-.16-.64-.25-.94a3.08,3.08,0,0,0-.57-.89,13.28,13.28,0,0,1-.84-1.1,4.94,4.94,0,0,0-.52-1,12.71,12.71,0,0,1-.82-1.11c-.14-.22-.27-.47-.41-.69a3.17,3.17,0,0,0-.16-.32,9.65,9.65,0,0,1-.67-1.22,2.59,2.59,0,0,0-.66-1.19,3.21,3.21,0,0,0-2.36-.31,11.49,11.49,0,0,0-1.44.3c-.52.15-1.07.22-1.59.38s-1,.26-1.42.4a8.69,8.69,0,0,0-1.26.54,8.28,8.28,0,0,1-1.55.43l-.25.06a13.54,13.54,0,0,1-1.47.63,6.11,6.11,0,0,0-.74.32,2.87,2.87,0,0,0-.65.27,2.36,2.36,0,0,1-.7.38.11.11,0,0,1-.13-.07,1.88,1.88,0,0,1,0-.63c0-.61,0-1.23-.1-1.83l-.06-.64a3,3,0,0,0-.09-.32,1.17,1.17,0,0,0-.06-.2,5.77,5.77,0,0,0-.29-.55c-.32-.54-.65-1.09-1-1.6a8.76,8.76,0,0,0-1.38-1.66,4.33,4.33,0,0,0-1-.6,1.41,1.41,0,0,0-1.23.48c-.18.19-.34.39-.5.59a6,6,0,0,0-.56,1,14.07,14.07,0,0,1-.78,1.36,8,8,0,0,0-.62,1.4l-.48,1.4a4.48,4.48,0,0,0-.16.52l-.12.38c-.18.33-.39.63-.6,1-.36.54-.65,1.08-1.31,1.27-.45.12-.91.18-1.36.29a9.66,9.66,0,0,0-1.74.68,12.2,12.2,0,0,1-1.68.34,2.78,2.78,0,0,0-1.31.93,4.62,4.62,0,0,0-.73,1.32,7.11,7.11,0,0,0-.66,1.36c-.05.32.35.32.55.31a3.25,3.25,0,0,0,1.62-.53,2.66,2.66,0,0,1,.92-.24,1.82,1.82,0,0,1,.74.29,2.38,2.38,0,0,0,1.56.08c.6-.1,1.19-.27,1.78-.42a3.9,3.9,0,0,0,1.43-.52c.22-.17.39-.38.6-.55a1.63,1.63,0,0,1,.95-.31,8.28,8.28,0,0,1,.87-.07h.18L208,112a6.54,6.54,0,0,1-1.14,1.09,2.93,2.93,0,0,0-.85.67,2.44,2.44,0,0,0-.33,1.06,6.37,6.37,0,0,0-.09,1.31,1.56,1.56,0,0,1-.84,1.41c-.24.17-.66.43-.66.76,0,.12.12.21.19.3s.28.39.44.57c.51.62,1.17.14,1.8-.06.37-.12.67-.44,1-.6a3.49,3.49,0,0,1,1.64-.12c.93.07,1.82.39,2.76.42h0a3.24,3.24,0,0,0,.62,0,5.13,5.13,0,0,0,1.17-.21,23.59,23.59,0,0,0,4.09-1.51,16,16,0,0,1,2.13-.93c.74-.24,1.47-.36,2.19-.66s1.45-.47,2.14-.79l.39-.19a7.57,7.57,0,0,0-.06.86,19.71,19.71,0,0,0,0,2.43,1.61,1.61,0,0,0,.36.91c.14.16.34.25.48.41a1.66,1.66,0,0,0,.26.27.17.17,0,0,0,.18,0,1.39,1.39,0,0,0,.3-.65,6.91,6.91,0,0,1,.48-1.24A2.4,2.4,0,0,1,227.64,116.5Z"/><path class="cls-54" d="M233.13,111.64a3.08,3.08,0,0,0-.57-.89,13.28,13.28,0,0,1-.84-1.1,4.94,4.94,0,0,0-.52-1,12.71,12.71,0,0,1-.82-1.11c-.14-.22-.27-.47-.41-.69a3.17,3.17,0,0,0-.16-.32,9.65,9.65,0,0,1-.67-1.22,2.59,2.59,0,0,0-.66-1.19,3.21,3.21,0,0,0-2.36-.31,11.49,11.49,0,0,0-1.44.3c-.52.15-1.07.22-1.59.38s-1,.26-1.42.4a8.69,8.69,0,0,0-1.26.54,8.28,8.28,0,0,1-1.55.43l-.25.06a13.54,13.54,0,0,1-1.47.63,6.11,6.11,0,0,0-.74.32,2.87,2.87,0,0,0-.65.27,2.36,2.36,0,0,1-.7.38.11.11,0,0,1-.13-.07,1.88,1.88,0,0,1,0-.63c0-.61,0-1.23-.1-1.83l-.06-.64a3,3,0,0,0-.09-.32,1.17,1.17,0,0,0-.06-.2,5.77,5.77,0,0,0-.29-.55c-.32-.54-.65-1.09-1-1.6a8.76,8.76,0,0,0-1.38-1.66,4.33,4.33,0,0,0-1-.6,1.74,1.74,0,0,0-.71.11c1.91,1.3,1.31,4.34,1.42,6.39a5,5,0,0,1-.2,2.1,9.22,9.22,0,0,1-1.26,1.73,17.05,17.05,0,0,1-1.89,2L208,112a6.54,6.54,0,0,1-1.14,1.09,2.93,2.93,0,0,0-.85.67,2.44,2.44,0,0,0-.33,1.06,6.37,6.37,0,0,0-.09,1.31,1.56,1.56,0,0,1-.84,1.41c-.24.17-.66.43-.66.76,0,.12.12.21.19.3s.28.39.44.57c.51.62,1.17.14,1.8-.06.37-.12.67-.44,1-.6a3.49,3.49,0,0,1,1.64-.12c.93.07,1.82.39,2.76.42h0a3.24,3.24,0,0,0,.62,0,5.13,5.13,0,0,0,1.17-.21,23.59,23.59,0,0,0,4.09-1.51,16,16,0,0,1,2.13-.93c.74-.24,1.47-.36,2.19-.66s1.45-.47,2.14-.79l.39-.19a7.57,7.57,0,0,0-.06.86,19.71,19.71,0,0,0,0,2.43,1.61,1.61,0,0,0,.36.91c.14.16.34.25.48.41a1.66,1.66,0,0,0,.26.27.17.17,0,0,0,.18,0,1.39,1.39,0,0,0,.3-.65,6.91,6.91,0,0,1,.48-1.24,2.4,2.4,0,0,1,1-1.08,6.48,6.48,0,0,1,1.63-.34,4.34,4.34,0,0,0,1.49-.48,12.38,12.38,0,0,0,1-.82,3.8,3.8,0,0,0,.94-.8,7.46,7.46,0,0,0,.71-1.48C233.47,112.28,233.22,111.94,233.13,111.64Z"/><path class="cls-59" d="M216.93,117.43c-.69.29-1.43.44-2.13.7-.38.14-.89.44-1.29.21a2.16,2.16,0,0,0-1.09-.2.86.86,0,0,1-.49-.25.52.52,0,0,1-.1-.68c.24-.37.61-.62.88-1s.49-.63.75-.94a7.18,7.18,0,0,1-.91.65c-.6.33-1.19.68-1.79,1a4.61,4.61,0,0,1-3.35.23,1,1,0,0,0-1.17.24,1.73,1.73,0,0,1-.4.41c-.19.11-.51.22-.7,0a.57.57,0,0,1-.16-.47l-.2.14c-.24.17-.66.43-.66.76,0,.12.12.21.19.3s.28.39.44.57c.51.62,1.17.14,1.8-.06.37-.12.67-.44,1-.6a3.49,3.49,0,0,1,1.64-.12c.93.07,1.82.39,2.76.42h0a3.24,3.24,0,0,0,.62,0,5.13,5.13,0,0,0,1.17-.21,23.31,23.31,0,0,0,4-1.49A4,4,0,0,0,216.93,117.43Z"/><path class="cls-60" d="M205.37,119.05a3,3,0,0,0-.45-.65c-.16-.12-.29-.19-.37-.37a.38.38,0,0,1,.08-.36c-.23.16-.51.38-.51.65s.12.21.19.3.28.39.44.57c.36.44.79.33,1.24.15A.68.68,0,0,1,205.37,119.05Z"/><path class="cls-59" d="M210.74,110.46a5.89,5.89,0,0,0-1.26,1.33c-.28.45-.51.94-.81,1.38a3.8,3.8,0,0,1-1,1,3.37,3.37,0,0,0-1.29,1.28,2.6,2.6,0,0,0-.1.25c.31-.38.86-.32,1.25-.63a8.56,8.56,0,0,0,1.11-1.36c.39-.48.55-1.19,1-1.66a21.83,21.83,0,0,1,2.52-2.57A10.71,10.71,0,0,0,210.74,110.46Z"/><path class="cls-59" d="M214.13,108.08c.28-.17.54-.37.81-.56,0,0,0,0,0,0a1.88,1.88,0,0,1,0-.63c0-.61,0-1.23-.1-1.83l-.06-.64a3,3,0,0,0-.09-.32,1.17,1.17,0,0,0-.06-.2,5.77,5.77,0,0,0-.29-.55c-.32-.54-.65-1.09-1-1.6v0c-.25,0-.26.47-.19.73a4.73,4.73,0,0,1,.29,1.15,4.27,4.27,0,0,1-.18,1.18,12.15,12.15,0,0,0-.14,1.48,3.9,3.9,0,0,1-.38,1.24l-.09.2a3.07,3.07,0,0,1-.17.31c-.08.16-.16.32-.24.5a4,4,0,0,1-.4.77q-.2.47-.42.9a14.79,14.79,0,0,1,1.14-1"/><path class="cls-61" d="M233.13,111.64a3.22,3.22,0,0,0-.57-.89,11.4,11.4,0,0,1-.84-1.1,4.63,4.63,0,0,0-.53-1c-.29-.36-.56-.74-.81-1.12-.14-.22-.27-.46-.42-.68a2.63,2.63,0,0,0-.15-.33,9.72,9.72,0,0,1-.68-1.22c-.28-.74-.25-.86-.66-1.19a1.73,1.73,0,0,0-.82-.34c.14.08.27.17.4.26s.07.09.1.19a4.07,4.07,0,0,1,.65,2.15,4.86,4.86,0,0,1-1,2.51,4.36,4.36,0,0,1-.2.73,3.1,3.1,0,0,1-.15.46,1.43,1.43,0,0,1-.48.58c-.29.24-.32.55-.52.83a6.09,6.09,0,0,1-1,1l-.34.4a2.77,2.77,0,0,0-.39,1.7,7.74,7.74,0,0,0-.06.86,19.71,19.71,0,0,0,0,2.43,1.5,1.5,0,0,0,.36.91c.14.16.34.25.48.41a1.6,1.6,0,0,0,.25.27.17.17,0,0,0,.19,0,1.35,1.35,0,0,0,.3-.65,6.91,6.91,0,0,1,.48-1.24,2.32,2.32,0,0,1,1-1.07,6.09,6.09,0,0,1,1.63-.35,4.22,4.22,0,0,0,1.48-.48,9.55,9.55,0,0,0,1-.82,3.47,3.47,0,0,0,.94-.8,6.94,6.94,0,0,0,.71-1.48C233.47,112.28,233.22,111.94,233.13,111.64Z"/><path class="cls-62" d="M202.27,111.4a27,27,0,0,1-2.79.67,3.47,3.47,0,0,0-1,.41,3,3,0,0,0-.54.39c-.16.14-.25.35-.41.5,0,0,0,0,0,0,.33-.2.56-.51.91-.7a4.73,4.73,0,0,1,1.32-.47,16,16,0,0,0,2.53-.77C202.34,111.45,202.31,111.39,202.27,111.4Z"/><path class="cls-62" d="M210.1,106.29a6,6,0,0,1-2.7,3c-.52.34-1.06.61-1.61.9a5.43,5.43,0,0,1-1,.31c-.14,0-.29,0-.44.07s-.29.13-.46.17,0,0,0,0c.3,0,.61-.08.92-.09a3.81,3.81,0,0,0,.93-.22,10.42,10.42,0,0,0,1.8-1c1.09-.66,2.55-1.76,2.61-3.17C210.17,106.26,210.11,106.24,210.1,106.29Z"/><path class="cls-56" d="M229.65,108.52a0,0,0,0,0-.06,0,4.19,4.19,0,0,1,.32,1.31s.07,0,.07,0A2.68,2.68,0,0,0,229.65,108.52Z"/><path class="cls-56" d="M229.48,110.2s-.11,0-.09,0,.06.34.09.51.11.06.11,0A1.41,1.41,0,0,0,229.48,110.2Z"/><path class="cls-56" d="M229,111.76c0-.05-.09,0-.08,0a1.82,1.82,0,0,1,0,.33s.07.05.07,0A1.37,1.37,0,0,0,229,111.76Z"/><path class="cls-56" d="M229.89,107.84a.6.6,0,0,0-.09-.22s-.07,0-.06,0,0,.14,0,.21S229.91,107.91,229.89,107.84Z"/><path class="cls-56" d="M229.4,110.54s-.06,0-.05,0,0,.25.07.38.06,0,.05,0A1,1,0,0,0,229.4,110.54Z"/><path class="cls-56" d="M232.66,113.32a2.83,2.83,0,0,1-.87,1,1.77,1.77,0,0,0-.47.55,2.55,2.55,0,0,1-1.95,1.21s0,0,0,0a2.33,2.33,0,0,0,1.87-.84c.12-.17.18-.38.29-.56a2.07,2.07,0,0,1,.54-.48,2.47,2.47,0,0,0,.62-.88S232.67,113.3,232.66,113.32Z"/><path class="cls-63" d="M225,113.44a4.2,4.2,0,0,1,1.46-1,1.82,1.82,0,0,0,1.13-1.76,2.61,2.61,0,0,1,.25-1.41c.39-.59,1.33-.58,1.53-1.29a3.34,3.34,0,0,0-.45-2.48,4.4,4.4,0,0,0-.45-.65,4.33,4.33,0,0,1,.35,1.61,4.86,4.86,0,0,1-1,2.51,4.36,4.36,0,0,1-.2.73,3.1,3.1,0,0,1-.15.46,1.43,1.43,0,0,1-.48.58c-.29.24-.32.55-.52.83a6.09,6.09,0,0,1-1,1l-.34.4a2.44,2.44,0,0,0-.33.82A3.17,3.17,0,0,1,225,113.44Z"/><path class="cls-64" d="M233.13,111.64a1.32,1.32,0,0,0-.21-.41,2.83,2.83,0,0,0,.09.37,2.79,2.79,0,0,1,.14.71c0,.43-.24.57-.49.88s-.22.76-.61,1c-.21.13-.44.21-.65.33a2.93,2.93,0,0,0-.58.64,2.18,2.18,0,0,1-2.07.54c-.29,0-.64-.13-1-.16a1.23,1.23,0,0,0-1.08.56,3.11,3.11,0,0,0-.44,1.68,3.47,3.47,0,0,1-.31,1.63,1.59,1.59,0,0,0,.25-.6,6.91,6.91,0,0,1,.48-1.24,2.32,2.32,0,0,1,1-1.07,6.09,6.09,0,0,1,1.63-.35,4.22,4.22,0,0,0,1.48-.48,9.55,9.55,0,0,0,1-.82,3.47,3.47,0,0,0,.94-.8,6.94,6.94,0,0,0,.71-1.48C233.47,112.28,233.22,111.94,233.13,111.64Z"/><path class="cls-65" d="M210.69,107.78a3.12,3.12,0,0,1-.51,1.41,5.89,5.89,0,0,1-.93,1.12,2.65,2.65,0,0,1-2.26.92c-.35-.1-.87-.26-1.08.15-.08.16-.12.32-.19.48a1.15,1.15,0,0,1-.55.62,7.26,7.26,0,0,1-1.22.4,14.43,14.43,0,0,1-1.47.39,1.83,1.83,0,0,1-1-.08c-.44-.21-.92-.77-1.45-.59s-.85.77-1.27,1.16a4,4,0,0,0,.5-.26,2.66,2.66,0,0,1,.92-.24,1.82,1.82,0,0,1,.74.29,2.38,2.38,0,0,0,1.56.08c.6-.1,1.19-.27,1.78-.42a3.9,3.9,0,0,0,1.43-.52c.22-.17.39-.38.6-.55a1.63,1.63,0,0,1,.95-.31,8.28,8.28,0,0,1,.87-.07h.16a5.33,5.33,0,0,0,.68-.56c.61-.61,1.13-1.3,1.73-1.93l.38-.4a3.88,3.88,0,0,0,.65-1.84c0-.38,0-.76,0-1.13A3.77,3.77,0,0,0,210.69,107.78Z"/><polygon class="cls-66" points="297.32 96.12 295.22 96.42 295.14 99.99 293.18 100.83 293.01 101.9 291.13 102.61 291.16 104.37 289.71 104.84 290.67 106.73 292.68 106.53 297.49 99.53 297.32 96.12"/><polygon class="cls-66" points="272.05 94.77 275.21 100.19 286.23 99.66 284.79 97.56 283.96 97.49 282.18 95.79 278.77 95.48 277.76 93.48 276.75 93.61 276.1 93.07 274.68 93.03 274.25 93.62 273.06 93.53 272.05 94.77"/><path class="cls-67" d="M283.41,98.29a4.64,4.64,0,0,0-2.13-1.43c-.47-.16-1-.17-1.44-.29a8.26,8.26,0,0,1-2.24-1.24,5.21,5.21,0,0,0-5.41.1c-.56.36-.09.93.48,1.17-.1.37.8.91,1.18,1a1.63,1.63,0,0,0,1.18.75c.14.39,1,.78,1.26.79q3.3.09,6.58,0C283.3,99.09,283.82,98.76,283.41,98.29Z"/><path class="cls-68" d="M288,103.09a9,9,0,1,1-16-8.32c.48.2,1.05.19,1.53.39l.21,1,2,.7.51,1.18,1.72-.8,1.05.54.77-.52,1.47.57,1.77-.63,1.49,1.5,1-.55,1.55.68,2.08.25.25,1.33Z"/><path class="cls-69" d="M274.81,103.53a11.2,11.2,0,0,1-3.64-3A9,9,0,0,0,288,103.09l1.42-2.71-.11-.59A11.21,11.21,0,0,1,274.81,103.53Z"/><path class="cls-68" d="M290.67,106.73c3.73,1.78,10,1.64,12.25-1.06s1.29-9.32-2.72-14l-.61,1.42-.82,0-.95,1.92-1.05,0v1.63l-.85.13.23.85-1.24.53.67,2.28-1.93.41.22,2-1.9.78v2.53Z"/><path class="cls-69" d="M301.24,93c1.86,4,2,8.31.33,10.27-1.78,2.13-6.05,2.67-9.6,1.93v1l-1.3.48c3.73,1.78,10,1.64,12.25-1.06C304.89,103.31,304.34,97.56,301.24,93Z"/><path class="cls-70" d="M272.53,96.73c-.17,0-.36.28-.49.66a3,3,0,0,0-.17,1.06c0,.47.36.81.69.75a.74.74,0,0,0,.54-.82,5.32,5.32,0,0,0-.19-1C272.82,97.07,272.7,96.75,272.53,96.73Z"/><path class="cls-70" d="M275.09,100.22a.64.64,0,0,0,.53-.73c-.05-.35-.45-1.32-.79-1.28s-.48,1.09-.44,1.44A.64.64,0,0,0,275.09,100.22Z"/><path class="cls-70" d="M275.14,101.58a6.66,6.66,0,0,0-.78-.48c-.3-.16-.6-.3-.74-.2s-.08.45.1.8a2.93,2.93,0,0,0,.64.85.68.68,0,0,0,1,0A.74.74,0,0,0,275.14,101.58Z"/><path class="cls-70" d="M301,96.34c.24-.07.33-.55.19-1.08s-.46-.9-.7-.84-.33.55-.19,1.08S300.79,96.4,301,96.34Z"/><path class="cls-70" d="M298.72,96.37c-.23.11-.24.58-.23,1.1s.07,1,.32,1.09.27-.06.39-.26a1.54,1.54,0,0,0,.21-.86,1.56,1.56,0,0,0-.27-.85C299,96.4,298.83,96.32,298.72,96.37Z"/><path class="cls-70" d="M301.63,97.31c-.09-.18-.22-.26-.34-.24a.45.45,0,0,0-.3.26,1.69,1.69,0,0,0-.18.51c-.08.38-.08.78.14.91s.63-.15.75-.72A1.12,1.12,0,0,0,301.63,97.31Z"/></g></g></g></svg>