<svg id="Layer_1" data-name="Layer 1" xmlns="http://www.w3.org/2000/svg" viewBox="0 0 202 64"><defs><style>.cls-1{fill:#72331d;}</style></defs><path class="cls-1" d="M63.88,41.88a25.63,25.63,0,0,1-.94,7.52,13.14,13.14,0,0,1-2.54,4.85,9.31,9.31,0,0,1-3.83,2.64,14.07,14.07,0,0,1-4.81.8,41.73,41.73,0,0,1-4.95-.3,17.86,17.86,0,0,1-4.68-1.2v-5.6a29.65,29.65,0,0,0,4.25,1.19A18.35,18.35,0,0,0,50,52.2a6.23,6.23,0,0,0,2.65-.56,5.26,5.26,0,0,0,2.07-1.77A9.32,9.32,0,0,0,56,46.65a20.94,20.94,0,0,0,.48-4.83V39.38a8.52,8.52,0,0,1-3.17,1.86,12.7,12.7,0,0,1-3.44.42,10.74,10.74,0,0,1-4.32-.84,9.33,9.33,0,0,1-3.31-2.33,10.47,10.47,0,0,1-2.1-3.63,14.3,14.3,0,0,1-.75-4.75,14.07,14.07,0,0,1,1.15-5.8,12.34,12.34,0,0,1,3.29-4.41A14.73,14.73,0,0,1,49,17.1a22.38,22.38,0,0,1,6.86-1c.79,0,1.48,0,2.08,0a17.13,17.13,0,0,1,1.77.14q.87.11,1.86.3c.66.13,1.42.31,2.28.53ZM56.5,23.34c-.65-.11-1.14-.18-1.46-.22a11.2,11.2,0,0,0-1.28-.05,7,7,0,0,0-5.12,1.8,6.59,6.59,0,0,0-1.85,5A4.74,4.74,0,0,0,48,33.33a4.15,4.15,0,0,0,3.06,1.22,8.82,8.82,0,0,0,2-.22,3.51,3.51,0,0,0,1.74-1A5.45,5.45,0,0,0,56,31.08a13.59,13.59,0,0,0,.46-4Z"/><path class="cls-1" d="M88.57,23.51c-.52-.11-.92-.18-1.22-.22a7.57,7.57,0,0,0-1-.06,5.63,5.63,0,0,0-4.8,2.17q-1.64,2.16-1.64,6.45V41.1H72.53v-16c0-.9,0-1.69,0-2.36s-.07-1.29-.14-1.87-.18-1.15-.31-1.71-.3-1.21-.52-1.93h7c.12.45.22.84.32,1.16a7.32,7.32,0,0,1,.2.92c0,.28.07.58.11.91a9.58,9.58,0,0,1,.06,1.16,12.57,12.57,0,0,1,3.15-3.61,6.1,6.1,0,0,1,3.53-1.06,4.79,4.79,0,0,1,1.3.15,11,11,0,0,1,1.47.54Z"/><path class="cls-1" d="M109,41.1c0-.26,0-.57-.05-.94s-.07-.65-.09-1.06-.05-.83-.09-1.27a8.76,8.76,0,0,1-3.61,2.85,11.68,11.68,0,0,1-4.73,1,8.76,8.76,0,0,1-7.09-3q-2.53-3-2.53-8.55,0-6.7,4.08-10.35c2.71-2.42,6.59-3.63,11.61-3.63q1.24,0,2.25.06c.68,0,1.35.1,2,.19s1.37.21,2.08.36,1.5.35,2.36.61V33.11c0,.85,0,1.75.06,2.69s.09,1.8.16,2.58.15,1.83.23,2.72ZM107.88,23a11.46,11.46,0,0,0-1.75-.28c-.53,0-1-.05-1.47-.05a5.9,5.9,0,0,0-4.74,2,8.09,8.09,0,0,0-1.69,5.46,5.39,5.39,0,0,0,1,3.55,3.53,3.53,0,0,0,2.88,1.23,5.13,5.13,0,0,0,2.23-.5A5.73,5.73,0,0,0,106.19,33a6.75,6.75,0,0,0,1.24-2.16,8.28,8.28,0,0,0,.45-2.81Z"/><path class="cls-1" d="M132,10a3.05,3.05,0,0,1-1.28,2.47,4.74,4.74,0,0,1-3.05,1,4.79,4.79,0,0,1-3.11-1,3.34,3.34,0,0,1-1.33-2.54,3,3,0,0,1,1.22-2.55,5,5,0,0,1,3.22-1,4.88,4.88,0,0,1,1.64.28,4.48,4.48,0,0,1,1.39.78,4.11,4.11,0,0,1,.94,1.17A3.07,3.07,0,0,1,132,10ZM123.7,41.1V16.68h7.38V41.1Z"/><path class="cls-1" d="M155.21,41.1V27.25a5.61,5.61,0,0,0-.36-2.25,3.11,3.11,0,0,0-.86-1.21,2.27,2.27,0,0,0-1.05-.48,7.42,7.42,0,0,0-.94-.08,5.21,5.21,0,0,0-1.17.22,4,4,0,0,0-1.69,1,6.93,6.93,0,0,0-1.53,2.36A10.82,10.82,0,0,0,147,31V41.1h-7.39V25a27.83,27.83,0,0,0-.33-4.21,13.61,13.61,0,0,0-.89-3.4h7.39a12.09,12.09,0,0,1,.47,1.28q.13.5.3,1.44a11.39,11.39,0,0,1,3.81-2.55,10.85,10.85,0,0,1,4.13-.84,8,8,0,0,1,3.23.65,7.76,7.76,0,0,1,2.59,1.81A8.49,8.49,0,0,1,162,22a10.86,10.86,0,0,1,.62,3.8V41.1Z"/></svg>