<svg id="Layer_1" data-name="Layer 1" xmlns="http://www.w3.org/2000/svg" viewBox="0 0 202 64"><defs><style>.cls-1{fill:#72331d;}</style></defs><path class="cls-1" d="M73.05,43.08V28.84a7.33,7.33,0,0,0-.27-2.21,2.88,2.88,0,0,0-.73-1.27,2.2,2.2,0,0,0-1-.58,5.45,5.45,0,0,0-1.23-.14,3.44,3.44,0,0,0-1.9.58,6,6,0,0,0-1.61,1.57,8.71,8.71,0,0,0-1.14,2.35A9.22,9.22,0,0,0,64.68,32v11.1H57.06V3.85h7.57V20.74a8.76,8.76,0,0,1,3.16-2.2,10.52,10.52,0,0,1,3.84-.66,12.17,12.17,0,0,1,3.3.45,8.09,8.09,0,0,1,2.88,1.42,7,7,0,0,1,2.06,2.59,8.93,8.93,0,0,1,.8,4V43.08Z"/><path class="cls-1" d="M107.53,43.08a9.6,9.6,0,0,0-.06-1c0-.3-.07-.67-.09-1.09s0-.86-.09-1.32a9,9,0,0,1-3.74,2.95,12,12,0,0,1-4.88,1,9.06,9.06,0,0,1-7.32-3.1q-2.61-3.09-2.61-8.82,0-6.93,4.21-10.68t12-3.75c.86,0,1.63,0,2.33.05s1.39.11,2.09.2,1.41.22,2.15.38,1.55.36,2.44.63V34.84c0,.87,0,1.8,0,2.77s.1,1.87.17,2.67.16,1.89.23,2.8Zm-1.2-18.67a12.47,12.47,0,0,0-1.81-.29c-.54,0-1-.05-1.52-.05a6.08,6.08,0,0,0-4.89,2,8.37,8.37,0,0,0-1.75,5.64,5.6,5.6,0,0,0,1,3.67,3.65,3.65,0,0,0,3,1.26,5.17,5.17,0,0,0,2.3-.52,5.8,5.8,0,0,0,1.9-1.46,7.07,7.07,0,0,0,1.28-2.23,8.46,8.46,0,0,0,.47-2.89Z"/><path class="cls-1" d="M144.13,51.32a12.51,12.51,0,0,1-2.5,5.27,9,9,0,0,1-4.35,2.77,22.14,22.14,0,0,1-6.33.79,18.38,18.38,0,0,1-3.68-.37,38.69,38.69,0,0,1-3.86-1V53.06c1.26.1,2.46.18,3.59.24s2.25.1,3.36.1a8.16,8.16,0,0,0,3.08-.53,4.64,4.64,0,0,0,2.12-1.74A8.16,8.16,0,0,0,136.77,48a26.57,26.57,0,0,0,.38-4.87V40A9.85,9.85,0,0,1,130,43.08a8.29,8.29,0,0,1-3.3-.67A7.72,7.72,0,0,1,124,40.48a9.79,9.79,0,0,1-1.83-3,11,11,0,0,1-.69-4c0-1.34,0-2.63.06-3.86s0-2.47,0-3.7,0-2.5,0-3.81-.09-2.71-.21-4.2H129c.12,1.52.18,2.93.2,4.22s0,2.52,0,3.67,0,2.25-.05,3.3,0,2.11,0,3.14a4.7,4.7,0,0,0,.85,3.14,3,3,0,0,0,2.42,1,4.58,4.58,0,0,0,3.51-1.58,6,6,0,0,0,1.47-4.25V17.88h7.62v25.2A35.18,35.18,0,0,1,144.13,51.32Z"/></svg>