<svg id="Layer_1" data-name="Layer 1" xmlns="http://www.w3.org/2000/svg" viewBox="0 0 522.57 64"><defs><style>.cls-1{fill:#72331d;}</style></defs><path class="cls-1" d="M54.78,37.1V31.52a3.68,3.68,0,0,0-.43-2.09,1.38,1.38,0,0,0-1.17-.58,1.76,1.76,0,0,0-.76.18,1.86,1.86,0,0,0-.7.6,2.91,2.91,0,0,0-.51,1.12A6.68,6.68,0,0,0,51,32.5v4.6H47.61V31.52a4,4,0,0,0-.4-2,1.44,1.44,0,0,0-1.32-.64,1.85,1.85,0,0,0-1.51.86,4.75,4.75,0,0,0-.64,2.79v4.6H40.33V30c0-.42,0-.79,0-1.13a9.22,9.22,0,0,0-.09-1,6.09,6.09,0,0,0-.18-.87c-.07-.28-.16-.58-.27-.89h3.41c.09.26.15.46.19.59s.09.33.15.57a7.63,7.63,0,0,1,1.77-1.08,5.59,5.59,0,0,1,2.34-.43,4.12,4.12,0,0,1,1.75.37,2.6,2.6,0,0,1,1.15,1,3.87,3.87,0,0,1,1.72-1.05,7.1,7.1,0,0,1,2.21-.36,3.66,3.66,0,0,1,2.77,1,4.14,4.14,0,0,1,1,3V37.1Z"/><path class="cls-1" d="M66.22,22.73a1.41,1.41,0,0,1-.59,1.14,2.24,2.24,0,0,1-1.41.47,2.2,2.2,0,0,1-1.44-.48,1.52,1.52,0,0,1-.61-1.18,1.38,1.38,0,0,1,.56-1.17A2.28,2.28,0,0,1,64.22,21a2.19,2.19,0,0,1,.75.13,2.09,2.09,0,0,1,.64.36,1.77,1.77,0,0,1,.44.54A1.42,1.42,0,0,1,66.22,22.73ZM62.37,37.1V25.82h3.41V37.1Z"/><path class="cls-1" d="M76.24,37.1l-2-3.59-2.1,3.59H68.21l4.05-6-3.51-5.31h4l1.69,3,1.62-3h4l-3.61,5.41,3.74,5.87Z"/><path class="cls-1" d="M83.36,37.1V28.26H81.11V25.82h2.25V23h3.36v2.84h2.9v2.44h-2.9V37.1Z"/><path class="cls-1" d="M99.33,36.79a4.62,4.62,0,0,1-.22-.59c0-.15-.09-.37-.14-.66a5,5,0,0,1-3.61,1.56,3.7,3.7,0,0,1-1.53-.31,4,4,0,0,1-1.23-.86,3.8,3.8,0,0,1-.81-1.33,5.13,5.13,0,0,1-.28-1.72c0-.69,0-1.34,0-1.94s.06-1.17.08-1.72,0-1.1,0-1.65-.06-1.13-.13-1.75h3.41q.08.84.09,1.62c0,.52,0,1,0,1.55s0,1-.05,1.55,0,1.09,0,1.68a2.69,2.69,0,0,0,.16,1.05,1.32,1.32,0,0,0,.41.56A1.4,1.4,0,0,0,96,34a4.36,4.36,0,0,0,.45,0A3.1,3.1,0,0,0,97,34a2,2,0,0,0,.77-.47,3,3,0,0,0,.68-1.09,5.1,5.1,0,0,0,.3-1.93V25.82h3.4v7.46a13,13,0,0,0,.16,1.94,6.16,6.16,0,0,0,.41,1.57Z"/><path class="cls-1" d="M114.09,29a5.33,5.33,0,0,0-.56-.11l-.46,0a2.59,2.59,0,0,0-2.22,1,4.94,4.94,0,0,0-.76,3V37.1h-3.41V29.7c0-.42,0-.78,0-1.09s0-.6-.06-.87-.08-.53-.14-.79-.14-.56-.25-.89h3.24c.05.21.1.39.14.54a2.53,2.53,0,0,1,.1.42c0,.13,0,.27,0,.42a4.16,4.16,0,0,1,0,.54,5.82,5.82,0,0,1,1.45-1.67,2.78,2.78,0,0,1,1.63-.49,2.06,2.06,0,0,1,.6.07,5.09,5.09,0,0,1,.68.25Z"/><path class="cls-1" d="M125.45,28.92a2.84,2.84,0,0,1-.46,1.59,3.76,3.76,0,0,1-1.28,1.22,7.32,7.32,0,0,1-2,.78,11.05,11.05,0,0,1-2.61.28h-.73a2.35,2.35,0,0,0,.77,1.52,2.43,2.43,0,0,0,1.66.55,7.57,7.57,0,0,0,3.78-1.15v2.69a7.41,7.41,0,0,1-1.86.81,7.91,7.91,0,0,1-2,.24,6.53,6.53,0,0,1-2.32-.38,4.74,4.74,0,0,1-2.86-2.86,6.32,6.32,0,0,1-.39-2.29,7.13,7.13,0,0,1,.45-2.58,5.92,5.92,0,0,1,1.26-2A5.64,5.64,0,0,1,118.78,26a6.46,6.46,0,0,1,2.49-.46,4.73,4.73,0,0,1,3,.92A3,3,0,0,1,125.45,28.92Zm-3.41.26a.89.89,0,0,0-.35-.7,1.33,1.33,0,0,0-.89-.3,2,2,0,0,0-1.46.6,2.91,2.91,0,0,0-.79,1.66,2.63,2.63,0,0,0,.41,0h.38C121.14,30.49,122,30.05,122,29.18Z"/><path class="cls-1" d="M147.41,31.43a6.49,6.49,0,0,1-.42,2.42,4.91,4.91,0,0,1-1.2,1.78,5.25,5.25,0,0,1-1.86,1.1,8,8,0,0,1-4.82,0,5.2,5.2,0,0,1-1.87-1.1A5.07,5.07,0,0,1,136,33.85a7,7,0,0,1,0-4.79,4.92,4.92,0,0,1,1.18-1.76,5,5,0,0,1,1.87-1.1,7.54,7.54,0,0,1,2.45-.38,7.34,7.34,0,0,1,2.41.37,5,5,0,0,1,1.86,1.07A4.67,4.67,0,0,1,147,29,6.44,6.44,0,0,1,147.41,31.43Zm-3.41,0a2.57,2.57,0,0,0-.68-1.9,2.5,2.5,0,0,0-1.85-.68,2.35,2.35,0,0,0-1.83.68,2.67,2.67,0,0,0-.63,1.9,2.81,2.81,0,0,0,.62,2,2.33,2.33,0,0,0,1.84.69,2.49,2.49,0,0,0,1.87-.68A2.73,2.73,0,0,0,144,31.43Z"/><path class="cls-1" d="M158.71,22.39a4.53,4.53,0,0,0-.92-.35A3.67,3.67,0,0,0,157,22a2.35,2.35,0,0,0-1.06.21,1.44,1.44,0,0,0-.64.65,3.71,3.71,0,0,0-.32,1.19,15.52,15.52,0,0,0-.09,1.82h2.72v2.49h-2.69V37.1h-3.41V28.26h-2.13V25.82h2.08a14.73,14.73,0,0,1,.28-3.16,5.29,5.29,0,0,1,.86-2A3.11,3.11,0,0,1,154,19.56a5.48,5.48,0,0,1,2-.32,8.87,8.87,0,0,1,3.05.51Z"/><path class="cls-1" d="M178.3,37.46a11.82,11.82,0,0,1-.44,3.47,6,6,0,0,1-1.17,2.24,4.28,4.28,0,0,1-1.77,1.22,6.39,6.39,0,0,1-2.22.37,17.92,17.92,0,0,1-2.29-.14,7.88,7.88,0,0,1-2.16-.55V41.48a13.2,13.2,0,0,0,2,.55,8.53,8.53,0,0,0,1.66.2,2.9,2.9,0,0,0,1.22-.26,2.4,2.4,0,0,0,1-.82,4.49,4.49,0,0,0,.62-1.49,10.05,10.05,0,0,0,.22-2.23V36.31a3.87,3.87,0,0,1-1.46.85,5.91,5.91,0,0,1-1.59.2,5,5,0,0,1-2-.39,4.27,4.27,0,0,1-1.53-1.07,5,5,0,0,1-1-1.68A6.64,6.64,0,0,1,167,32a6.37,6.37,0,0,1,.54-2.67,5.58,5.58,0,0,1,1.52-2A6.61,6.61,0,0,1,171.44,26a10.33,10.33,0,0,1,3.17-.45h1c.28,0,.55,0,.82.06s.55.08.85.14.66.15,1.06.25Zm-3.41-8.56c-.3,0-.53-.09-.68-.1a4.58,4.58,0,0,0-.59,0,3.26,3.26,0,0,0-2.36.83,3.07,3.07,0,0,0-.86,2.3,2.15,2.15,0,0,0,.57,1.61,1.92,1.92,0,0,0,1.41.57,3.93,3.93,0,0,0,.92-.11,1.66,1.66,0,0,0,.81-.46,2.44,2.44,0,0,0,.57-1,6.38,6.38,0,0,0,.21-1.83Z"/><path class="cls-1" d="M189.7,29c-.24-.06-.43-.09-.56-.11l-.46,0a2.59,2.59,0,0,0-2.22,1,4.94,4.94,0,0,0-.76,3V37.1h-3.41V29.7c0-.42,0-.78,0-1.09s0-.6-.06-.87-.08-.53-.14-.79-.14-.56-.25-.89h3.24c.05.21.1.39.14.54a2.53,2.53,0,0,1,.1.42c0,.13,0,.27.05.42a4.16,4.16,0,0,1,0,.54,5.67,5.67,0,0,1,1.45-1.67,2.78,2.78,0,0,1,1.63-.49,2.06,2.06,0,0,1,.6.07,5.09,5.09,0,0,1,.68.25Z"/><path class="cls-1" d="M199.16,37.1a4,4,0,0,0,0-.44c0-.13,0-.29,0-.48s0-.39,0-.59a4,4,0,0,1-1.67,1.32,5.35,5.35,0,0,1-2.18.45A4,4,0,0,1,191.92,36,6,6,0,0,1,190.75,32a6.07,6.07,0,0,1,1.89-4.78A7.82,7.82,0,0,1,198,25.57c.38,0,.73,0,1,0s.63.05.94.09.63.1,1,.17.69.16,1.09.28v7.28c0,.39,0,.81,0,1.24s0,.84.07,1.19.07.85.11,1.26Zm-.54-8.36a5.13,5.13,0,0,0-.81-.12l-.67,0a2.75,2.75,0,0,0-2.2.91,3.76,3.76,0,0,0-.78,2.52,2.55,2.55,0,0,0,.47,1.65,1.65,1.65,0,0,0,1.33.56,2.39,2.39,0,0,0,1-.23,2.54,2.54,0,0,0,.85-.65,3.38,3.38,0,0,0,.57-1,3.81,3.81,0,0,0,.21-1.3Z"/><path class="cls-1" d="M209.77,22.73a1.41,1.41,0,0,1-.59,1.14,2.36,2.36,0,0,1-2.84,0,1.53,1.53,0,0,1-.62-1.18,1.38,1.38,0,0,1,.56-1.17,2.3,2.3,0,0,1,1.49-.48,2.21,2.21,0,0,1,1.4.49,1.74,1.74,0,0,1,.43.54A1.31,1.31,0,0,1,209.77,22.73ZM205.93,37.1V25.82h3.4V37.1Z"/><path class="cls-1" d="M220.48,37.1V30.7a2.67,2.67,0,0,0-.16-1,1.51,1.51,0,0,0-.4-.55,1,1,0,0,0-.49-.23l-.43,0a2.31,2.31,0,0,0-.54.1,1.72,1.72,0,0,0-.78.47A3.07,3.07,0,0,0,217,30.5a5.1,5.1,0,0,0-.3,1.93V37.1h-3.41V29.65a13.14,13.14,0,0,0-.16-1.95,6.28,6.28,0,0,0-.41-1.57h3.41a5.26,5.26,0,0,1,.22.59c0,.15.09.38.14.67a5.24,5.24,0,0,1,1.76-1.18,5,5,0,0,1,1.91-.39,3.71,3.71,0,0,1,1.49.3,3.48,3.48,0,0,1,1.19.84,3.78,3.78,0,0,1,.79,1.32,4.89,4.89,0,0,1,.29,1.76V37.1Z"/><path class="cls-1" d="M232.45,36.07a6.29,6.29,0,0,1-.1,1.17,3.4,3.4,0,0,1-.38,1.08,5.61,5.61,0,0,1-.8,1.07,12.66,12.66,0,0,1-1.32,1.2l-2-.77a6.83,6.83,0,0,0,1.24-1.48A2.57,2.57,0,0,0,229.4,37a1.12,1.12,0,0,0-.16-.6c-.11-.18-.22-.36-.35-.54a6.36,6.36,0,0,1-.35-.58,1.53,1.53,0,0,1-.16-.74,1,1,0,0,1,.42-.84,1.75,1.75,0,0,1,1.13-.34,2.38,2.38,0,0,1,1.8.78A2.81,2.81,0,0,1,232.45,36.07Z"/><path class="cls-1" d="M251.42,22.39a5,5,0,0,0-.92-.35,3.76,3.76,0,0,0-.85-.09,2.28,2.28,0,0,0-1.05.21,1.39,1.39,0,0,0-.64.65,3.71,3.71,0,0,0-.32,1.19,15.52,15.52,0,0,0-.09,1.82h2.72v2.49h-2.7V37.1h-3.4V28.26H242V25.82h2.07a14.66,14.66,0,0,1,.29-3.16,5.14,5.14,0,0,1,.85-2,3.22,3.22,0,0,1,1.44-1.07,5.5,5.5,0,0,1,2-.32,8.92,8.92,0,0,1,3,.51Z"/><path class="cls-1" d="M260,29c-.24-.06-.43-.09-.56-.11l-.47,0a2.59,2.59,0,0,0-2.21,1,4.87,4.87,0,0,0-.76,3V37.1h-3.41V29.7c0-.42,0-.78,0-1.09s0-.6-.06-.87-.09-.53-.15-.79-.14-.56-.24-.89h3.24c.05.21.1.39.14.54a1.76,1.76,0,0,1,.09.42q0,.19.06.42c0,.15,0,.33,0,.54a5.83,5.83,0,0,1,1.46-1.67,2.75,2.75,0,0,1,1.63-.49,2.06,2.06,0,0,1,.6.07,5.66,5.66,0,0,1,.68.25Z"/><path class="cls-1" d="M269.85,36.79a3.47,3.47,0,0,1-.22-.59c0-.15-.09-.37-.14-.66a5,5,0,0,1-3.62,1.56,3.69,3.69,0,0,1-1.52-.31,4,4,0,0,1-1.23-.86,3.8,3.8,0,0,1-.81-1.33,4.89,4.89,0,0,1-.28-1.72c0-.69,0-1.34.05-1.94s.06-1.17.08-1.72,0-1.1,0-1.65-.06-1.13-.13-1.75h3.41q.07.84.09,1.62c0,.52,0,1,0,1.55s0,1,0,1.55,0,1.09,0,1.68a2.69,2.69,0,0,0,.16,1.05,1.24,1.24,0,0,0,.41.56,1.36,1.36,0,0,0,.52.21,4.53,4.53,0,0,0,.46,0,3,3,0,0,0,.54-.1,1.92,1.92,0,0,0,.78-.47,3.19,3.19,0,0,0,.68-1.09,5.33,5.33,0,0,0,.29-1.93V25.82h3.41v7.46a11.8,11.8,0,0,0,.16,1.94,6.16,6.16,0,0,0,.41,1.57Z"/><path class="cls-1" d="M280.87,22.73a1.41,1.41,0,0,1-.59,1.14,2.2,2.2,0,0,1-1.41.47,2.23,2.23,0,0,1-1.44-.48,1.55,1.55,0,0,1-.61-1.18,1.38,1.38,0,0,1,.56-1.17,2.28,2.28,0,0,1,1.49-.48,2.21,2.21,0,0,1,1.4.49,1.74,1.74,0,0,1,.43.54A1.42,1.42,0,0,1,280.87,22.73ZM277,37.1V25.82h3.41V37.1Z"/><path class="cls-1" d="M285.15,37.1V28.26h-2.26V25.82h2.26V23h3.36v2.84h2.89v2.44h-2.89V37.1Z"/><path class="cls-1" d="M301.58,34a3.23,3.23,0,0,1-1.09,2.57,4.49,4.49,0,0,1-3.05.94,12.82,12.82,0,0,1-2.6-.25,7.55,7.55,0,0,1-2-.69l.43-2.62a8.78,8.78,0,0,0,3.9,1.16,1.15,1.15,0,0,0,.81-.25.75.75,0,0,0,.24-.55,1,1,0,0,0-.19-.63,3,3,0,0,0-.94-.6,15.92,15.92,0,0,1-1.81-.92,6.41,6.41,0,0,1-1.23-1,3.49,3.49,0,0,1-.69-1.07,3.61,3.61,0,0,1-.22-1.28,2.9,2.9,0,0,1,1.24-2.5,5.47,5.47,0,0,1,3.24-.88,10,10,0,0,1,1.91.16,8.89,8.89,0,0,1,1.91.66L301,28.85a6.08,6.08,0,0,0-1.76-.71,7.73,7.73,0,0,0-1.68-.19,1.15,1.15,0,0,0-.82.22.79.79,0,0,0-.22.57.85.85,0,0,0,.35.71,7.38,7.38,0,0,0,1.37.7,17,17,0,0,1,1.56.89,5.5,5.5,0,0,1,1,.87,2.52,2.52,0,0,1,.58.95A3.23,3.23,0,0,1,301.58,34Z"/><path class="cls-1" d="M320.7,37.1a4,4,0,0,0,0-.44c0-.13,0-.29,0-.48s0-.39,0-.59a4.1,4.1,0,0,1-1.67,1.32,5.39,5.39,0,0,1-2.18.45A4,4,0,0,1,313.46,36,6,6,0,0,1,312.29,32a6.07,6.07,0,0,1,1.89-4.78,7.82,7.82,0,0,1,5.36-1.67c.38,0,.73,0,1,0l.94.09c.31,0,.63.1,1,.17s.69.16,1.09.28v7.28c0,.39,0,.81,0,1.24s.05.84.08,1.19.07.85.1,1.26Zm-.54-8.36a5.48,5.48,0,0,0-.81-.12l-.68,0a2.72,2.72,0,0,0-2.19.91A3.76,3.76,0,0,0,315.7,32a2.55,2.55,0,0,0,.47,1.65,1.65,1.65,0,0,0,1.33.56,2.42,2.42,0,0,0,1-.23,2.64,2.64,0,0,0,.85-.65,3.38,3.38,0,0,0,.57-1,3.81,3.81,0,0,0,.21-1.3Z"/><path class="cls-1" d="M334.61,37.1V30.7a2.67,2.67,0,0,0-.16-1,1.51,1.51,0,0,0-.4-.55,1,1,0,0,0-.49-.23l-.43,0a2.4,2.4,0,0,0-.54.1,1.72,1.72,0,0,0-.78.47,3.07,3.07,0,0,0-.71,1.08,5.1,5.1,0,0,0-.3,1.93V37.1h-3.41V29.65a11.92,11.92,0,0,0-.16-1.95,6.28,6.28,0,0,0-.41-1.57h3.41a5.26,5.26,0,0,1,.22.59c0,.15.09.38.14.67a5.24,5.24,0,0,1,1.76-1.18,5,5,0,0,1,1.91-.39,3.71,3.71,0,0,1,1.49.3,3.48,3.48,0,0,1,1.19.84,3.78,3.78,0,0,1,.79,1.32A4.89,4.89,0,0,1,338,30V37.1Z"/><path class="cls-1" d="M350.48,37.1c0-.1,0-.22-.05-.36s0-.26-.06-.41,0-.34-.05-.56A4.68,4.68,0,0,1,348.63,37a5.44,5.44,0,0,1-2,.37,5.17,5.17,0,0,1-2.05-.4,4.42,4.42,0,0,1-1.55-1.1,5,5,0,0,1-1-1.71,6.52,6.52,0,0,1-.36-2.23,7.59,7.59,0,0,1,.42-2.58,6,6,0,0,1,1.18-2A5.07,5.07,0,0,1,345.05,26a5.48,5.48,0,0,1,2.3-.48,8.12,8.12,0,0,1,1.13.08,6.57,6.57,0,0,1,1.26.33V19.24h3.4v14c0,.29,0,.66,0,1.11s.06.87.09,1.28.08,1,.13,1.51Zm-.74-8.23a3.83,3.83,0,0,0-.95-.25,6.77,6.77,0,0,0-.92-.06,2.56,2.56,0,0,0-2.06.89,3.58,3.58,0,0,0-.76,2.42,2.62,2.62,0,0,0,.53,1.76,1.8,1.8,0,0,0,1.46.63,3.06,3.06,0,0,0,1.06-.18,2,2,0,0,0,.85-.62,3.2,3.2,0,0,0,.57-1.14,6.19,6.19,0,0,0,.22-1.76Z"/><path class="cls-1" d="M371.55,35.43c-.14.3-.27.56-.39.77a1.87,1.87,0,0,1-.41.53,1.46,1.46,0,0,1-.52.28,2.55,2.55,0,0,1-.73.09,2,2,0,0,1-1.19-.32,2.78,2.78,0,0,1-.81-1.23l-4-9.73H367l1.9,5.19c.13.37.26.72.37,1.05a8.43,8.43,0,0,1,.24.85c.09-.23.2-.52.34-.86s.27-.68.41-1l2-5.22h3.51Z"/><path class="cls-1" d="M387.67,28.92a2.84,2.84,0,0,1-.46,1.59,3.76,3.76,0,0,1-1.28,1.22,7.32,7.32,0,0,1-2,.78,11.05,11.05,0,0,1-2.61.28h-.72a2.3,2.3,0,0,0,.76,1.52,2.45,2.45,0,0,0,1.66.55,7.57,7.57,0,0,0,3.78-1.15v2.69a7.11,7.11,0,0,1-1.86.81,7.91,7.91,0,0,1-2,.24,6.53,6.53,0,0,1-2.32-.38,4.78,4.78,0,0,1-1.76-1.12,4.88,4.88,0,0,1-1.1-1.74,6.32,6.32,0,0,1-.38-2.29,7.35,7.35,0,0,1,.44-2.58,5.92,5.92,0,0,1,1.26-2A5.59,5.59,0,0,1,381,26a6.44,6.44,0,0,1,2.48-.46,4.71,4.71,0,0,1,3,.92A3,3,0,0,1,387.67,28.92Zm-3.41.26a.89.89,0,0,0-.35-.7,1.31,1.31,0,0,0-.89-.3,2,2,0,0,0-1.46.6,3,3,0,0,0-.79,1.66,2.63,2.63,0,0,0,.41,0h.38C383.36,30.49,384.26,30.05,384.26,29.18Z"/><path class="cls-1" d="M401.23,37.46a12.2,12.2,0,0,1-.43,3.47,6,6,0,0,1-1.18,2.24,4.28,4.28,0,0,1-1.77,1.22,6.39,6.39,0,0,1-2.22.37,17.92,17.92,0,0,1-2.29-.14,8,8,0,0,1-2.16-.55V41.48a13.31,13.31,0,0,0,2,.55,8.36,8.36,0,0,0,1.65.2A2.87,2.87,0,0,0,396,42a2.4,2.4,0,0,0,1-.82,4.29,4.29,0,0,0,.62-1.49,9.49,9.49,0,0,0,.22-2.23V36.31a3.8,3.8,0,0,1-1.46.85,5.85,5.85,0,0,1-1.59.2,5,5,0,0,1-2-.39,4.27,4.27,0,0,1-1.53-1.07,5.14,5.14,0,0,1-1-1.68,6.64,6.64,0,0,1-.35-2.2,6.37,6.37,0,0,1,.54-2.67,5.58,5.58,0,0,1,1.52-2A6.7,6.7,0,0,1,394.37,26a10.33,10.33,0,0,1,3.17-.45h1c.28,0,.55,0,.82.06l.86.14c.3.06.65.15,1.05.25Zm-3.41-8.56c-.3,0-.52-.09-.67-.1a4.75,4.75,0,0,0-.6,0,3.26,3.26,0,0,0-2.36.83,3.07,3.07,0,0,0-.86,2.3,2.15,2.15,0,0,0,.57,1.61,1.92,1.92,0,0,0,1.41.57,4.08,4.08,0,0,0,.93-.11,1.68,1.68,0,0,0,.8-.46,2.44,2.44,0,0,0,.57-1,6.38,6.38,0,0,0,.21-1.83Z"/><path class="cls-1" d="M414.71,28.92a2.84,2.84,0,0,1-.46,1.59A3.76,3.76,0,0,1,413,31.73a7.32,7.32,0,0,1-2,.78,11.05,11.05,0,0,1-2.61.28h-.72a2.34,2.34,0,0,0,.76,1.52,2.45,2.45,0,0,0,1.66.55,7.57,7.57,0,0,0,3.78-1.15v2.69a7.11,7.11,0,0,1-1.86.81,7.91,7.91,0,0,1-2,.24,6.53,6.53,0,0,1-2.32-.38,4.78,4.78,0,0,1-1.76-1.12,4.88,4.88,0,0,1-1.1-1.74,6.32,6.32,0,0,1-.38-2.29,7.35,7.35,0,0,1,.44-2.58,5.92,5.92,0,0,1,1.26-2A5.59,5.59,0,0,1,408.05,26a6.44,6.44,0,0,1,2.48-.46,4.71,4.71,0,0,1,3,.92A3,3,0,0,1,414.71,28.92Zm-3.41.26a.89.89,0,0,0-.35-.7,1.31,1.31,0,0,0-.89-.3,2,2,0,0,0-1.46.6,3,3,0,0,0-.79,1.66,2.63,2.63,0,0,0,.41,0h.38C410.4,30.49,411.3,30.05,411.3,29.18Z"/><path class="cls-1" d="M417.84,37.1V28.26h-2.26V25.82h2.26V23h3.35v2.84h2.9v2.44h-2.9V37.1Z"/><path class="cls-1" d="M433.52,37.1a4,4,0,0,0,0-.44c0-.13,0-.29,0-.48s0-.39,0-.59a4,4,0,0,1-1.67,1.32,5.35,5.35,0,0,1-2.18.45A4,4,0,0,1,426.29,36,6,6,0,0,1,425.12,32,6.06,6.06,0,0,1,427,27.24a7.85,7.85,0,0,1,5.37-1.67c.38,0,.72,0,1,0s.62.05.93.09.63.1,1,.17.7.16,1.09.28v7.28c0,.39,0,.81,0,1.24s0,.84.08,1.19.06.85.1,1.26ZM433,28.74a5.18,5.18,0,0,0-.8-.12l-.68,0a2.72,2.72,0,0,0-2.19.91,3.76,3.76,0,0,0-.79,2.52,2.55,2.55,0,0,0,.47,1.65,1.66,1.66,0,0,0,1.33.56,2.39,2.39,0,0,0,1-.23,2.45,2.45,0,0,0,.85-.65,3.2,3.2,0,0,0,.58-1,3.82,3.82,0,0,0,.2-1.3Z"/><path class="cls-1" d="M451.49,30.65a7.67,7.67,0,0,1-.44,2.65,5.7,5.7,0,0,1-1.27,2,5.62,5.62,0,0,1-2,1.31,6.8,6.8,0,0,1-2.57.46,13,13,0,0,1-2.56-.27,12,12,0,0,1-2.41-.72V19.52h3.41v7.62a4.11,4.11,0,0,1,1.46-1,5,5,0,0,1,1.86-.33,5,5,0,0,1,1.84.34,4,4,0,0,1,1.42,1,4.55,4.55,0,0,1,.92,1.52A5.93,5.93,0,0,1,451.49,30.65Zm-3.41.61a2.21,2.21,0,0,0-.52-1.56,1.83,1.83,0,0,0-1.44-.57,2.37,2.37,0,0,0-1.82.78,2.36,2.36,0,0,0-.49.82,2.86,2.86,0,0,0-.16,1v1.95a2.76,2.76,0,0,0,.8.3,4.8,4.8,0,0,0,.94.07,2.62,2.62,0,0,0,2-.73A2.75,2.75,0,0,0,448.08,31.26Z"/><path class="cls-1" d="M454.72,37.1V19.24h3.41V37.1Z"/><path class="cls-1" d="M471.89,28.92a2.92,2.92,0,0,1-.45,1.59,3.88,3.88,0,0,1-1.29,1.22,7.2,7.2,0,0,1-2,.78,10.94,10.94,0,0,1-2.61.28h-.72a2.31,2.31,0,0,0,.77,1.52,2.4,2.4,0,0,0,1.65.55A7.57,7.57,0,0,0,471,33.69v2.69a7.11,7.11,0,0,1-1.86.81,7.86,7.86,0,0,1-2,.24,6.57,6.57,0,0,1-2.32-.38,4.78,4.78,0,0,1-1.76-1.12,5,5,0,0,1-1.1-1.74,6.54,6.54,0,0,1-.38-2.29,7.13,7.13,0,0,1,.45-2.58,5.89,5.89,0,0,1,1.25-2A5.69,5.69,0,0,1,465.23,26a6.44,6.44,0,0,1,2.48-.46,4.71,4.71,0,0,1,3,.92A3,3,0,0,1,471.89,28.92Zm-3.41.26a.86.86,0,0,0-.35-.7,1.3,1.3,0,0,0-.88-.3,2,2,0,0,0-1.47.6,2.91,2.91,0,0,0-.78,1.66,2.53,2.53,0,0,0,.4,0h.38C467.58,30.49,468.48,30.05,468.48,29.18Z"/><path class="cls-1" d="M482.81,34a3.26,3.26,0,0,1-1.08,2.57,4.54,4.54,0,0,1-3.06.94,12.82,12.82,0,0,1-2.6-.25,7.67,7.67,0,0,1-2.05-.69l.43-2.62a8.78,8.78,0,0,0,3.9,1.16,1.12,1.12,0,0,0,.81-.25.75.75,0,0,0,.24-.55,1,1,0,0,0-.19-.63,3,3,0,0,0-.94-.6,14.92,14.92,0,0,1-1.8-.92,5.84,5.84,0,0,1-1.23-1,3.35,3.35,0,0,1-.7-1.07,3.62,3.62,0,0,1-.21-1.28,2.88,2.88,0,0,1,1.24-2.5,5.41,5.41,0,0,1,3.23-.88,10,10,0,0,1,1.91.16,9,9,0,0,1,1.92.66l-.41,2.59a6.31,6.31,0,0,0-1.76-.71,7.82,7.82,0,0,0-1.69-.19,1.11,1.11,0,0,0-.81.22.75.75,0,0,0-.22.57.83.83,0,0,0,.35.71,7.2,7.2,0,0,0,1.36.7A17,17,0,0,1,481,31a5.28,5.28,0,0,1,1.05.87,2.8,2.8,0,0,1,.58.95A3.5,3.5,0,0,1,482.81,34Z"/></svg>