<svg id="Layer_1" data-name="Layer 1" xmlns="http://www.w3.org/2000/svg" xmlns:xlink="http://www.w3.org/1999/xlink" width="1920" height="900" viewBox="0 0 1920 900">
  <defs>
    <style>
      .cls-1 {
        fill: none;
      }

      .cls-2 {
        clip-path: url(#clip-path);
      }

      .cls-3 {
        fill: url(#linear-gradient);
      }

      .cls-4 {
        fill: url(#linear-gradient-2);
      }

      .cls-5 {
        fill: url(#linear-gradient-3);
      }

      .cls-6 {
        fill: url(#linear-gradient-4);
      }

      .cls-7 {
        fill: url(#linear-gradient-5);
      }

      .cls-8 {
        fill: #73d35f;
      }

      .cls-9 {
        fill: #a5eb98;
        opacity: 0.49;
      }

      .cls-10 {
        opacity: 0.53;
        fill: url(#linear-gradient-6);
      }

      .cls-11 {
        fill: url(#linear-gradient-7);
      }

      .cls-12 {
        fill: url(#linear-gradient-8);
      }

      .cls-13 {
        fill: #3eaf77;
      }

      .cls-14 {
        fill: url(#linear-gradient-9);
      }

      .cls-15 {
        fill: url(#linear-gradient-10);
      }

      .cls-16 {
        fill: url(#linear-gradient-11);
      }

      .cls-17 {
        fill: url(#linear-gradient-12);
      }

      .cls-18 {
        fill: url(#linear-gradient-13);
      }

      .cls-19 {
        fill: url(#linear-gradient-14);
      }

      .cls-20 {
        fill: url(#linear-gradient-15);
      }

      .cls-21 {
        fill: url(#linear-gradient-16);
      }

      .cls-22 {
        fill: #68bc45;
      }

      .cls-23 {
        fill: url(#linear-gradient-17);
      }

      .cls-24 {
        fill: #71c14c;
      }

      .cls-25 {
        fill: url(#linear-gradient-18);
      }

      .cls-26 {
        fill: url(#linear-gradient-19);
      }

      .cls-27 {
        fill: url(#linear-gradient-20);
      }

      .cls-28 {
        fill: url(#linear-gradient-21);
      }

      .cls-29 {
        fill: url(#linear-gradient-22);
      }

      .cls-30 {
        fill: #09a53f;
      }

      .cls-31 {
        fill: #7be57f;
      }

      .cls-32 {
        fill: #3dbf47;
      }

      .cls-33 {
        fill: #cc9860;
      }

      .cls-34 {
        fill: #3a3937;
      }

      .cls-35, .cls-61 {
        fill: #565551;
      }

      .cls-36 {
        fill: #141412;
      }

      .cls-37, .cls-68 {
        fill: #11100c;
      }

      .cls-38 {
        fill: #0a0a0a;
      }

      .cls-39 {
        fill: #111110;
      }

      .cls-40 {
        fill: #2d2d2d;
      }

      .cls-41 {
        fill: #44433e;
      }

      .cls-42 {
        fill: #7c7c7b;
      }

      .cls-43 {
        fill: #9c9f9a;
      }

      .cls-44 {
        fill: #abafa9;
      }

      .cls-45 {
        fill: #5b5b5a;
      }

      .cls-46 {
        fill: #4f4f4e;
      }

      .cls-47 {
        fill: #594a4c;
      }

      .cls-48 {
        fill: #727272;
      }

      .cls-49 {
        fill: #838482;
      }

      .cls-50 {
        fill: #444442;
      }

      .cls-51 {
        fill: #474746;
      }

      .cls-52 {
        fill: #929292;
      }

      .cls-53 {
        fill: #989a98;
      }

      .cls-54 {
        fill: #878986;
      }

      .cls-55 {
        fill: #6d6d6d;
      }

      .cls-56 {
        fill: #3f3f3f;
      }

      .cls-57 {
        fill: #b5b5b4;
      }

      .cls-58 {
        fill: #8f918f;
      }

      .cls-59 {
        fill: #191919;
      }

      .cls-60 {
        fill: #232323;
      }

      .cls-61 {
        opacity: 0.31;
      }

      .cls-62 {
        fill: #262626;
      }

      .cls-63 {
        fill: #454441;
      }

      .cls-64 {
        fill: #d1d0bd;
      }

      .cls-65 {
        fill: #888988;
      }

      .cls-66 {
        fill: #a7aaa5;
      }

      .cls-67 {
        fill: #b58454;
      }

      .cls-68 {
        opacity: 0.57;
      }

      .cls-69 {
        fill: #c8bcb0;
      }

      .cls-70 {
        fill: #7789af;
        opacity: 0.3;
      }
    </style>
    <clipPath id="clip-path">
      <rect class="cls-1" width="1920" height="900"/>
    </clipPath>
    <linearGradient id="linear-gradient" x1="797.32" y1="1032.47" x2="1033.73" y2="-136.25" gradientUnits="userSpaceOnUse">
      <stop offset="0.2" stop-color="#d9fafc"/>
      <stop offset="0.74" stop-color="#b0e9f9"/>
      <stop offset="0.82" stop-color="#aae6f9"/>
    </linearGradient>
    <linearGradient id="linear-gradient-2" x1="1255.32" y1="229.27" x2="1311.93" y2="172.63" gradientUnits="userSpaceOnUse">
      <stop offset="0.15" stop-color="#82cdd9"/>
      <stop offset="0.82" stop-color="#d7eef4"/>
    </linearGradient>
    <linearGradient id="linear-gradient-3" x1="862.51" y1="168.92" x2="929.92" y2="101.46" xlink:href="#linear-gradient-2"/>
    <linearGradient id="linear-gradient-4" x1="738.84" y1="1573.92" x2="790.68" y2="1522.04" gradientTransform="matrix(0.97, -0.09, 0.07, 0.77, 334.66, -961.58)" gradientUnits="userSpaceOnUse">
      <stop offset="0.4" stop-color="#adcff1"/>
      <stop offset="0.51" stop-color="#b9d9f5"/>
      <stop offset="0.8" stop-color="#d2f0fc"/>
      <stop offset="0.98" stop-color="#dbf8ff"/>
    </linearGradient>
    <linearGradient id="linear-gradient-5" x1="1517.3" y1="311.51" x2="1606.54" y2="222.21" gradientUnits="userSpaceOnUse">
      <stop offset="0.15" stop-color="#82cdd9"/>
      <stop offset="0.9" stop-color="#d7eef4"/>
    </linearGradient>
    <linearGradient id="linear-gradient-6" x1="1006.26" y1="706.25" x2="1613.03" y2="73.41" gradientUnits="userSpaceOnUse">
      <stop offset="0.03" stop-color="#77c4f9"/>
      <stop offset="0.33" stop-color="#8acbf7"/>
      <stop offset="0.87" stop-color="#b4daf3"/>
    </linearGradient>
    <linearGradient id="linear-gradient-7" x1="914.32" y1="577.35" x2="1320.2" y2="154.02" gradientUnits="userSpaceOnUse">
      <stop offset="0.01" stop-color="#987ce4"/>
      <stop offset="0.23" stop-color="#919fdf"/>
      <stop offset="0.45" stop-color="#8bbcdb"/>
      <stop offset="0.64" stop-color="#87cdd9"/>
      <stop offset="0.78" stop-color="#86d3d8"/>
    </linearGradient>
    <linearGradient id="linear-gradient-8" x1="111.8" y1="700.09" x2="924.87" y2="25" gradientUnits="userSpaceOnUse">
      <stop offset="0.17" stop-color="#25ae74"/>
      <stop offset="0.19" stop-color="#31b581"/>
      <stop offset="0.25" stop-color="#49c39c"/>
      <stop offset="0.31" stop-color="#5ccfb2"/>
      <stop offset="0.38" stop-color="#6cd8c3"/>
      <stop offset="0.47" stop-color="#76decf"/>
      <stop offset="0.6" stop-color="#7ce2d6"/>
      <stop offset="0.94" stop-color="#7ee3d8"/>
    </linearGradient>
    <linearGradient id="linear-gradient-9" x1="518.75" y1="541.5" x2="875.35" y2="431.15" gradientUnits="userSpaceOnUse">
      <stop offset="0.03" stop-color="#219f68"/>
      <stop offset="0.84" stop-color="#3fe28c"/>
      <stop offset="0.94" stop-color="#43ea90"/>
    </linearGradient>
    <linearGradient id="linear-gradient-10" x1="885.59" y1="507.85" x2="1752.01" y2="437.66" gradientUnits="userSpaceOnUse">
      <stop offset="0.01" stop-color="#987ce4"/>
      <stop offset="0.17" stop-color="#919fdf"/>
      <stop offset="0.32" stop-color="#8bbcdb"/>
      <stop offset="0.46" stop-color="#87cdd9"/>
      <stop offset="0.56" stop-color="#86d3d8"/>
    </linearGradient>
    <linearGradient id="linear-gradient-11" x1="119.4" y1="536.09" x2="520.14" y2="412.08" xlink:href="#linear-gradient-9"/>
    <linearGradient id="linear-gradient-12" x1="299.49" y1="585.03" x2="421.3" y2="370.84" gradientUnits="userSpaceOnUse">
      <stop offset="0" stop-color="#21607b"/>
      <stop offset="0.23" stop-color="#238c77"/>
      <stop offset="0.45" stop-color="#25af74"/>
      <stop offset="0.62" stop-color="#27c472"/>
      <stop offset="0.74" stop-color="#27cc71"/>
    </linearGradient>
    <linearGradient id="linear-gradient-13" x1="874.54" y1="660.81" x2="1172.05" y2="361.48" gradientUnits="userSpaceOnUse">
      <stop offset="0.03" stop-color="#2eb691"/>
      <stop offset="0.85" stop-color="#42d984"/>
    </linearGradient>
    <linearGradient id="linear-gradient-14" x1="689.52" y1="641.88" x2="731.67" y2="405.82" gradientUnits="userSpaceOnUse">
      <stop offset="0.55" stop-color="#5fc687"/>
      <stop offset="0.62" stop-color="#67ca89"/>
      <stop offset="0.73" stop-color="#7dd68d"/>
      <stop offset="0.85" stop-color="#9ee793"/>
    </linearGradient>
    <linearGradient id="linear-gradient-15" x1="49.01" y1="606.99" x2="196.02" y2="1.71" gradientUnits="userSpaceOnUse">
      <stop offset="0" stop-color="#a3513f"/>
      <stop offset="0.08" stop-color="#9f513f"/>
      <stop offset="0.18" stop-color="#915040"/>
      <stop offset="0.27" stop-color="#7b4f40"/>
      <stop offset="0.37" stop-color="#5d4e41"/>
      <stop offset="0.47" stop-color="#364c43"/>
      <stop offset="0.49" stop-color="#2d4c43"/>
    </linearGradient>
    <linearGradient id="linear-gradient-16" x1="311.91" y1="122.3" x2="487.08" y2="-59.57" gradientUnits="userSpaceOnUse">
      <stop offset="0" stop-color="#0d5f3f"/>
      <stop offset="0.16" stop-color="#07724a"/>
      <stop offset="0.28" stop-color="#018455"/>
      <stop offset="0.41" stop-color="#24995c"/>
      <stop offset="0.56" stop-color="#43ac62"/>
      <stop offset="0.68" stop-color="#56b766"/>
      <stop offset="0.76" stop-color="#5dbb67"/>
    </linearGradient>
    <linearGradient id="linear-gradient-17" x1="-4.78" y1="233.19" x2="318.92" y2="-277.77" gradientUnits="userSpaceOnUse">
      <stop offset="0" stop-color="#0d5f3f"/>
      <stop offset="0.26" stop-color="#157d66"/>
      <stop offset="0.41" stop-color="#198a77"/>
      <stop offset="0.89" stop-color="#66b232"/>
    </linearGradient>
    <linearGradient id="linear-gradient-18" x1="4119.57" y1="125.13" x2="3989.54" y2="-138.45" gradientTransform="matrix(-1, 0, 0, 1, 4502.86, 0)" gradientUnits="userSpaceOnUse">
      <stop offset="0" stop-color="#0d5f3f"/>
      <stop offset="0.12" stop-color="#07724a"/>
      <stop offset="0.22" stop-color="#018455"/>
      <stop offset="0.34" stop-color="#24995c"/>
      <stop offset="0.48" stop-color="#43ac62"/>
      <stop offset="0.59" stop-color="#56b766"/>
      <stop offset="0.67" stop-color="#5dbb67"/>
    </linearGradient>
    <linearGradient id="linear-gradient-19" x1="163.19" y1="243.29" x2="287.85" y2="-160.53" gradientUnits="userSpaceOnUse">
      <stop offset="0.06" stop-color="#0d453f"/>
      <stop offset="0.22" stop-color="#095846"/>
      <stop offset="0.52" stop-color="#018455"/>
      <stop offset="0.64" stop-color="#31a05e"/>
      <stop offset="0.76" stop-color="#5dbb67"/>
    </linearGradient>
    <linearGradient id="linear-gradient-20" x1="566.92" y1="636.64" x2="784.82" y2="336.37" gradientUnits="userSpaceOnUse">
      <stop offset="0.02" stop-color="#10a159"/>
      <stop offset="0.23" stop-color="#12a45a"/>
      <stop offset="0.35" stop-color="#17ac5e"/>
      <stop offset="0.46" stop-color="#20bb64"/>
      <stop offset="0.55" stop-color="#2ccf6d"/>
      <stop offset="0.59" stop-color="#33da71"/>
    </linearGradient>
    <linearGradient id="linear-gradient-21" x1="623.15" y1="710.71" x2="802.95" y2="394.54" xlink:href="#linear-gradient-12"/>
    <linearGradient id="linear-gradient-22" x1="208.96" y1="729.09" x2="511.08" y2="483.19" gradientUnits="userSpaceOnUse">
      <stop offset="0.15" stop-color="#108937"/>
      <stop offset="0.33" stop-color="#1c9c45"/>
      <stop offset="0.69" stop-color="#3bcc67"/>
      <stop offset="0.73" stop-color="#3fd26c"/>
    </linearGradient>
  </defs>
  <g id="SC_37">
    <g class="cls-2">
      <g>
        <g>
          <rect class="cls-3" x="-68" width="2053" height="471.32"/>
          <g>
            <path class="cls-4" d="M1254,197s1.16-7.74,15.8-13,27-8.15,39.7-2,10,20,7.33,21.6c-5.24,3.17-16.52,7.33-46.64,3.26C1252,204.38,1254,197,1254,197Z"/>
            <path class="cls-5" d="M860.88,130.54s1.37-9.23,18.81-15.54,32.13-9.7,47.28-2.42,11.93,23.78,8.72,25.72c-6.24,3.77-19.67,8.72-55.54,3.88C858.58,139.27,860.88,130.54,860.88,130.54Z"/>
            <path class="cls-6" d="M1158.09,156.18s2.28-6.6,18.31-10.47,26.47-5.77,35.41.59,4.48,17-1.82,18.34-32.56,2.41-48.39-1.87C1161.6,162.77,1156,160.8,1158.09,156.18Z"/>
            <path class="cls-7" d="M1514.08,260.41s1.87-11,25.58-18.44,43.68-11.52,64.27-2.88,16.23,28.24,11.86,30.54c-8.48,4.48-26.75,10.36-75.5,4.61C1511,270.78,1514.08,260.41,1514.08,260.41Z"/>
          </g>
        </g>
        <path class="cls-8" d="M-39,483s793.05-16.26,1328.12.76c381.24,12.13,668.31-10,668.31-10L1955.66,687l-1.25,168H-39Z"/>
        <path class="cls-9" d="M732.15,490.76s191,48.89,620,47.4S1761,540,1761,540l-1-38-464.57-7.68-102.64-.65Z"/>
        <g>
          <path class="cls-10" d="M805.72,333.52s359.49,79.37,546.39-5.37C1530.49,247.26,1388,484.24,1764,412l-4,90-954.28-9.95Z"/>
          <path class="cls-11" d="M785.08,377.65S910.6,426.07,1017,206.32c0,0,42.92-81.19,108.17-77.33,52.4,3.09,157.31,74.77,190.12,292,0,0,4.74,46.29.53,72.14L780,488.19Z"/>
          <path class="cls-12" d="M610-13.3l10-1.82c33.59-3.22,60.3,12.08,67.3,18.27C715.31,27.84,795,114.05,832.23,263c27.38,109.64,28.13,220,28.13,220H-113.93S218.68,429.1,310.76,300C397.08,178.91,512.13,31.74,589.05-5.47A96.65,96.65,0,0,1,610-13.3Z"/>
        </g>
        <path class="cls-13" d="M220.67,391.73s.64-43.11,30.19-48.68S299.05,359,299.05,359s7.07-21.49,28.27-24.27,37.86,20.17,37.86,20.17,43.73-11.83,46.94,22.25c0,0,38.55-14.6,45.62,27.82,0,0,27.63-4.87,31.48,24.34,0,0,51.4-8.35,43.69,23.64,0,0,40.48-6.95,27,22.95H263.07Z"/>
        <path class="cls-14" d="M511.61,504.77s-41.19-29.18,28.65-41c0,0-23.28-21.3,0-39.44,0,0,17-15,46.57-5.52,0,0,34-31.56,81.49-11.83,0,0,42.09-11.84,69.85,2.36s17.91,43.3,17.91,43.3,45.67-13.32,65.37,3.24c0,0,43.87-.78,48.35,20.51,0,0,69.85-11.83,69,17.36,0,0,57.32-3.16,44.78,15L962,517.39l-440.58-7.1Z"/>
        <path class="cls-15" d="M799,449.89c130,19.79,378,17.2,442.51,15.45S1579.27,445.85,1635,439.2s-89.29-19.46,125,10.8v52L796.22,491.61"/>
        <path class="cls-16" d="M112.45,500.57s-46.37-37.68,32.25-52.95c0,0-26.21-27.5,0-50.92,0,0,19.16-19.34,52.42-7.12,0,0,38.31-40.74,91.73-15.28,0,0,47.38-15.27,78.63,3.06s20.16,55.89,20.16,55.89,45.74-17.76,64.86,21.46c0,0,60.58-13.31,60.59,26.43,0,0,46-11.6,80.73,27.28,0,0,64-26.18,49.86-2.76l-24.19,11.21-496-9.17Z"/>
        <path class="cls-17" d="M178.23,519.58s-35-45.35,6.46-89c31.25-32.86,68.53-25.3,68.53-25.3s24.11-20.44,50.71-22.14S356,404.38,356,404.38s43.64-8.29,63.76,8.4c28.61,23.73,22,39.22,22,39.22S464,445,489,497.56c0,0,46.95-13.56,53.21,22L470.57,530.1l-292.34.17Z"/>
        <path class="cls-18" d="M772.46,500.9s-5.71-69.28,58.53-96.33c27.63-11.63,39.39,4.78,39.39,4.78s19.29-21.7,43.4-19.22,46.63,27.2,46.63,27.2,50.64-14.35,66.71,5.58c0,0,8,7.62,3.22,18.16,0,0,69.13-19.76,76.36,29.67,0,0,41-5,48.23,29.41,0,0,58.21-17.82,81.78,19.32,0,0,54.28-1.43,68.57,18.57l-17.42.13L783.8,533.65Z"/>
        <path class="cls-19" d="M496.13,531.43S486.06,504,520.06,492.34c0,0-19.44-20.3,0-37.59,0,0,14.2-14.28,38.88-5.26,0,0,22.82-33.17,68-11.27,0,0,35.15-11.28,58.32,2.25s19.31,35.85,19.31,35.85,30.71-15.71,50.23,8.5c0,0,36.19-7.79,40.38,19.55,0,0,41.52-17.34,57.57,16.53,0,0,53.41-8.41,72.38,14.44H879.88l-362-1.44Z"/>
        <g>
          <path class="cls-20" d="M73,172.4s38.49,22.55,37.76,55.31c-.13,5.76.36,23.36-12.64,31-9.05,5.35-20,3.22-21.65,2.88-20.42-4.25-32.58-26.86-44.49-49-9.75-18.12-14.22-32.26-25.79-33.82-1.38-.19-5.89-.8-8.66,1.58-8.62,7.38,6.27,37.82,23,59.32C33.6,256.58,45,264.28,42,274.54c-2.29,8-11.67,12-12.56,12.38C22,290,13.59,289,1.84,284.85A137.31,137.31,0,0,1-43,258.39c-29.24-27.14-52.62-56.15-67.08-75.42l-10,9,18.66,28.37c-2.37-3.54-13.28-19-34.45-23.21a56.36,56.36,0,0,0-21.53,0c11,3.79,26.88,10.85,40.19,24.5,14.53,14.91,15.21,26.6,30.14,47.72C-76,285.1-62.68,298-52.7,305.48-18,331.42,28.67,330.75,52.07,328.7c9.77,1.06,22.82,4.05,33,12.89,20.39,17.7,16,47.27,10.21,82.64-9.51,58-39.17,128.54-53.09,143.09-13,13.56,154.05,32.21,199,19.78,29.4-.2,42-8.5,48.19-15.33,37-41.07-69.47-130.51-39.22-232.76,3.25-11,14.06-47.53,44.49-58,17.95-6.19,26.19,2.39,51.67,0,49.56-4.65,81.94-43.07,84.68-46.42,25.23-30.84,32.49-75.22,32.49-75.23h0l-21.38,2.81c-1,7.78-7,48.82-41.25,64.68-4.07,1.88-22.82,10.55-34.3,3.5-16.14-9.91-6.24-43.55-4.43-46.7,6.91-12.06,23-35,23-35l-53.21,6c2.52,29.08-8.85,54.65-30.57,65.34-2.89,1.42-19.46,9.57-32.63,3.49-15.94-7.35-22.72-33.62-10.29-64.1l-19.59-6.42s-12,102-29.94,112.43c-31.1,18.14-54.14-43.63-46.08-106h-23s15,68.22-3.45,43.85S99.49,172.4,99.49,172.4h0"/>
          <path class="cls-21" d="M279.61,25.9s39-17.54,100.28-17.28,129.92,39,111,63.63-30.51,38.82-115.44,38.61S193.81,73,279.61,25.9Z"/>
          <path class="cls-22" d="M264.25-99.88C427.76-55.84,444-3.18,440.66,20.94c0,0,.35,41.3-168.46,83h0s-99,34.12-281.84,16.22c-55.48-5.43-147-27-159.68-75.23-9.32-35.48,28.77-71.61,42.54-84.68C-14.55-146.22,209.25-109.95,264.25-99.88Z"/>
          <path class="cls-23" d="M259.1-98.88C422.62-55,438.89-2.5,435.56,21.51c0,0,.37,41.14-168.41,82.61h0s-99,33.95-281.82,16c-55.49-5.43-147-27-159.72-75-9.33-35.33,28.74-71.31,42.5-84.32C-19.71-145.14,204.09-108.94,259.1-98.88Z"/>
          <path class="cls-24" d="M524.42,113.22S482,123.6,293,124.88l.31-137c4.45-1.27,36.84-8,118.89,15,99.67,27.87,187,87.39,122.48,107.59"/>
          <path class="cls-25" d="M523.81,118.75s-43.22,10.5-235.78,11.8L288.34-8C292.87-9.26,325.88-16,409.48,7.15,511,35.34,600,95.54,534.27,116"/>
          <path class="cls-22" d="M40.51,188.27c18.13,2.28,21.18,1.41,91.76,1.35,15,0,78.87,0,207.25-3.66,54-1.52,135.33-12.6,157.46-21.77,7.4-3.06,22.13-10.4,22.66-30.5,1.2-45.81-43.41-72.18-57.46-85-13.12-12-46.29-26.47-55.1-29.67C299.84-19.93,212.66-31.77,212.66-31.77,191.8-36.08,27.4-67.85-66.33,20.87c-8.62,8.15-61.61,57.74-46.1,100.8C-94.56,171.26,3.84,183.65,40.51,188.27Z"/>
          <path class="cls-26" d="M38.37,192.6c18.22,2.3,21.28,1.43,92.22,1.36,15.1,0,79.27,0,208.3-3.67,54.27-1.53,136-12.67,158.27-21.88,7.43-3.07,22.24-10.44,22.77-30.64,1.21-46-43.63-72.51-57.75-85.41-13.19-12-46.53-26.59-55.38-29.8-107.79-39.12-195.41-51-195.41-51C190.43-32.79,25.19-64.7-69,24.42c-8.66,8.2-61.92,58-46.33,101.27C-97.39,175.51,1.51,188,38.37,192.6Z"/>
        </g>
        <path class="cls-27" d="M447.91,538.54s22.84-18.31,66.85-12.11c0,0,8,2.48,5.6-7.44-2.06-8.53.7-20.23,24.81-13.63,13.6,3.72,24.81,12.39,24.81,12.39s3.2,1.86,0-5.57.8-13.64,12.8-13.64,23.21,6.2,23.21,6.2,8-11.16,28.81-12.4,30.4,3.72,30.4,3.72,4.8-15.57,30.41-16.74c13.61-.62,25.61,8.68,25.61,8.68s32-4.34,56.82,14.26c0,0,5.6-7.44,19.2-6.2s25.61,18,31.21,33.47l1.44,6.82Z"/>
        <g>
          <path class="cls-28" d="M376.51,583s-47.35-35.59,8.74-69.84c42.23-25.79,92.61-19.85,92.61-19.85s32.57-16.05,68.52-17.37,70.38,16.66,70.38,16.66,59-6.5,86.17,6.59c38.66,18.62,29.7,30.78,29.7,30.78s47.43,0,81.26,41.22c0,0,224.91,10.73,234.89,26l-277.21-6-395.06.13Z"/>
          <path class="cls-29" d="M123.26,588.24S197,500.67,278.41,526c0,0,65.54-45.22,113.9,11.62,0,0,84.46-5,100.8,28.2,0,0,78.59-6.64,101,31.51l22,14.91-500.9,1.67Z"/>
        </g>
        <g>
          <path class="cls-30" d="M751.35,582.93a220.72,220.72,0,0,0-24.66,3.91c-22.6,4.82-54.82,15.08-70.4,35.93-24.7-10.85-3.61-94.31,71-62,11.2,2.59,6.16-9.52-10.57-12.3s-56.64-7.17-64.49-4.66,55.22-67.69,87.13-33.23c14.1,13.63,23.28,35.53,21.18,41.94,4.32-.53,9.31-26.53-3.52-41.94s2.15-33.85,10-22.11c5.24,7.86,6.42,16.95,6.62,22.11a38.26,38.26,0,0,1,0,4.16L778,634s-9.63-19.57-17.43-15.78-41.34,31.56-43.82,18.94,16.78-44.2,36-40.41,1.43-6,1.43-6-37.49,8.76-48.69,32c-16.18-7.69,1.76-31.72,18.09-32A56.53,56.53,0,0,0,751.35,582.93Z"/>
          <path class="cls-30" d="M748,572.16c-1.89,0-92.36-20.43-91.72,50.61"/>
          <path class="cls-30" d="M757.45,567.56s-15.48-86.94-97.88-28"/>
        </g>
        <g>
          <path class="cls-8" d="M596.67,613.27s-26,.12-39.11-8.79,18.53-4.68,43.91-.4c0,0-2.35-2.1-22-12.33s-14.07-18.41,1.46-11,31,19,31,19-28.25-23.06-28.54-27.57,5.1-4.68,31.22,24.28c0,0-24.07-24.22-18.91-36.05s23.27,33.5,23.27,33.5-15.88-48.61-4.86-50.71,8.73,48.54,8.73,48.54,10.91-28.05,27.85-27.58-21.93,30.16-25.56,30.57c0,0,1.52,2,7,.94s21.11-16,30-16.57c9-.59,21.92,10.07-29.55,33.61Z"/>
          <g>
            <path class="cls-31" d="M916.33,538.27s-11.66-8-14.81-7.22,3.2-7,12.61,1.72C917.91,536.28,916.33,538.27,916.33,538.27Z"/>
            <path class="cls-31" d="M918.85,538.27s-4.9-18.15-10.17-20,8.38-4.66,11.12,7.58C921.69,534.29,918.85,538.27,918.85,538.27Z"/>
            <path class="cls-31" d="M920.45,538.27s5.65-12.93,17-13.43-17,14.18-17,14.18"/>
          </g>
          <g>
            <path class="cls-31" d="M504.72,613.88s-11.66-8-14.81-7.21,3.2-7,12.6,1.71C506.29,611.89,504.72,613.88,504.72,613.88Z"/>
            <path class="cls-31" d="M504.69,614.78s-4.91-18.15-10.17-20,8.37-4.66,11.11,7.58C507.52,610.8,504.69,614.78,504.69,614.78Z"/>
            <path class="cls-31" d="M505,613.14s5.66-12.93,17-13.43-17,14.17-17,14.17"/>
          </g>
          <g>
            <path class="cls-31" d="M777.4,592.78s-11.66-8-14.81-7.22,3.2-7,12.61,1.71C779,590.79,777.4,592.78,777.4,592.78Z"/>
            <path class="cls-31" d="M779.92,592.78s-4.9-18.15-10.17-20,8.38-4.66,11.12,7.59C782.76,588.8,779.92,592.78,779.92,592.78Z"/>
            <path class="cls-31" d="M781.52,592.78s5.65-12.93,17-13.43-17,14.17-17,14.17"/>
          </g>
          <g>
            <path class="cls-31" d="M786,538.09s-9.45-6.94-12-6.29,2.59-6.12,10.21,1.49C787.32,536.36,786,538.09,786,538.09Z"/>
            <path class="cls-31" d="M788.08,538.09s-4-15.81-8.24-17.44,6.79-4.06,9,6.61C790.38,534.62,788.08,538.09,788.08,538.09Z"/>
            <path class="cls-31" d="M789.38,538.09s4.58-11.26,13.77-11.7-13.77,12.35-13.77,12.35"/>
          </g>
        </g>
        <g>
          <path class="cls-30" d="M192.56,632.81s-22.76-49.95-12.21-74.36,38.84,26.31,38.29,63.38c.55,16,7.21,4.32,11.65-10.67s20.54-35,40-41.62,20,15.54-12.77,43.29-24.41,35-8.32,20c18.31-16.65,13.32-11.6,21.64-15.24s42.12,1.36,2.75,34.11L255.82,660H173.13l-3.33-19.1s17.76,1.9,9.44-2.54S138.17,609.21,152.05,606,169.8,602.29,192.56,632.81Z"/>
          <path class="cls-30" d="M214.65,650.74s41.93-67,61.19-74"/>
          <line class="cls-30" x1="210.54" y1="650.74" x2="187.85" y2="564.67"/>
          <line class="cls-30" x1="233.72" y1="653.65" x2="282.06" y2="625.54"/>
        </g>
        <g>
          <path class="cls-32" d="M606.1,669.29c356.49,56.15,635.27,48.63,824.61,31.18,174-16,509.81-62.3,546.41,8.53,4.44,8.6,1.64,13.46,0,76-1.29,49-.7,89,0,115H-55.51V657Z"/>
          <g>
            <path class="cls-32" d="M1754.56,699.78s6.88-5.58,20.15-6.95-14.25-7.33-24.08,6.95C1750.63,699.78,1746.21,706.12,1754.56,699.78Z"/>
            <path class="cls-32" d="M1735.89,700.57s20.15-17.84,31.94-22.6-11.3-5.16-27,9.71C1740.8,687.68,1732.94,696.61,1735.89,700.57Z"/>
            <path class="cls-32" d="M1730,700.57s13.39-29,19.47-32.52-9.64-5.55-19.47,18.05C1730,686.1,1726.06,698.59,1730,700.57Z"/>
            <path class="cls-32" d="M1722.86,700.57S1728,674,1732.94,670,1714.26,674.4,1722.86,700.57Z"/>
            <path class="cls-32" d="M1719.92,700.57s.24-22.13-10.32-25.54S1715.74,689.47,1719.92,700.57Z"/>
            <path class="cls-32" d="M1716.48,700.57s-6.64-25.36-22.86-26S1706.4,683.92,1716.48,700.57Z"/>
            <path class="cls-32" d="M1715.08,700.57a30.18,30.18,0,0,0-23.42-9.52C1676.92,691.85,1711.48,697.4,1715.08,700.57Z"/>
          </g>
        </g>
        <path class="cls-33" d="M1102.83,582.75s-49.7-1.72-101.66,15.76-51.65,30.59-115.8,36.54-187.12,22.68-101.64,28.82,272.72,78,487.11,52.54C1416.7,699.12,1433.75,683.92,1473,676s69.84-6.37,85.75-5.9c47,1.38,108.75,1.31,192.22,0,1-2.31,24.89-58.58-.63-90s-98-34.39-154.87,20.8l-7.76-9.33Z"/>
        <g>
          <path class="cls-34" d="M833.3,629,811.19,464.15l16.29-9.85,9.67-46.53L938.1,281l40.22-61.72,29.82-72.09,83.78-25.69,46.33-21.5,67.42,5.44,98.68-71.32L1466-34.65l72.69-45.44,122.82-70.09L1857.06-267q-8.86,330.48-3.76,660.69,1.38,88.92,3.76,177.83l-3.76,62.31-133.19-73.68s-153.3-9.38-161.26,5.52-115.69,47.15-115.69,47.15l-409.69-6.65Z"/>
          <path class="cls-35" d="M1740,158.93l200.07,81.26c-2.41,92.17-13.92,218.3-16.34,310.47-118.46-47-137.26-203-170.68-274Z"/>
          <path class="cls-36" d="M1181.84,250.42s103.69,30.5,117.15,43.73a100.17,100.17,0,0,1,19.51,26.33l41.77,13.15,24.54,45.53-76.58-44.59-97.29,80.18s-31.7,5.6-22.74,56.44-5.91,131.08-5.91,131.08l-59.21-1.13s-73.15,26.18-122.29-31.35-114.35-169.28-24.5-233.72S1181.84,250.42,1181.84,250.42Z"/>
          <path class="cls-37" d="M1258.08,484.23s67.17,35.21,77.37-51.68,49.36-53.39,49.36-53.39l-24.54-45.53-47.56-23s-130.91,86-137.36,132.22-2.77,159.24-2.77,159.24l98.19,1.83s31.12-49.33,33.89-63.93Z"/>
          <polygon class="cls-38" points="1384.81 379.16 1426.52 459.79 1425.17 537.65 1461.65 594.48 1468.56 614.29 1409.35 613.18 1264.57 610.48 1208.51 518.35 1238.73 415.27 1322.99 366 1359.9 354.91 1384.81 379.16"/>
          <path class="cls-39" d="M1127.82,329.3c-1.71,7.95-9.94,42.2-40.57,60.58A77.78,77.78,0,0,1,1058.89,400q2.83,17.58,5.66,35.16l-16.36,3.59q8.26,21.35,16.54,42.71l-18,44.14,21.3.4,55.1,75.12s74.78,24.77-38.84-.72-112.18-21.15-112.18-21.15l-40.38-144,56-87.32,124.39-52.76,31.54,11Z"/>
          <path class="cls-40" d="M1101.78,600.75l-210.7-3.94s-25.14-57.59-25-68,.09-5.38.09-5.38L984.49,534S1088,601.79,1101.78,600.75Z"/>
          <path class="cls-35" d="M984.49,534s-17.31-50-11-55.1S867.4,455.05,867.4,455.05l-1.19,68.41Z"/>
          <path class="cls-41" d="M973.54,478.92s-6.43-27,6.94-56.81,42.23-31.85,51.5-60.24,29-82.55,68-92.21,81.82-19.24,81.82-19.24l16.6-17.87,73-15.51,39.43-33-30.23,8.53-66.44-10.33-10.34,28.37-36.41,3.21-59.33,23.75-35-3.44,57.34-53.46-96.3,59.22,9.53,28.74s-49.94,60.83-106.44,65.89l-26.91-7.36S858,418.71,867.4,455.05Z"/>
          <path class="cls-42" d="M910.28,327.14,989.39,252s34.67-11,54.24,16.59C1043.63,268.61,961.58,363.15,910.28,327.14Z"/>
          <polygon class="cls-35" points="1034.1 239.87 1006.54 239.36 1074.01 179.6 1151.98 165.48 1152.48 136.56 1205.67 105.46 1353.22 126.39 1326.43 153.16 1221.24 147.3 1191.76 174.01 1149.87 173.23 1130.4 180.65 1034.1 239.87"/>
          <polygon class="cls-43" points="1130.4 180.65 1073.06 234.11 1108.1 237.54 1167.43 213.8 1186.79 181.71 1221.24 147.3 1130.4 180.65"/>
          <polygon class="cls-34" points="1167.43 213.8 1214.18 182.22 1275.54 175.57 1310.85 184.02 1290.85 200.77 1387.97 197.79 1388.18 185.47 1301.16 164.37 1205.93 162.59 1186.79 181.71 1167.43 213.8"/>
          <path class="cls-43" d="M1205.67,105.46s75.57-20.66,89.42-24.29,114,15.11,114,15.11l-55.86,30.11Z"/>
          <polyline class="cls-43" points="1188.95 242.76 1198.44 232.56 1263.56 215.59 1387.33 234.41 1493.59 271.82 1539.24 385.62 1533.82 408.88 1505.12 401.86 1465.13 301.8 1387.06 250.36 1296.72 255.27 1237.29 243.67 1181.84 250.42"/>
          <polygon class="cls-35" points="1326.43 153.16 1353.22 126.39 1409.08 96.28 1428.73 145.33 1388.73 154.32 1326.43 153.16"/>
          <polygon class="cls-44" points="1388.73 154.32 1407.65 178.04 1448.54 167.12 1491.84 179.61 1523.46 168.52 1456.67 128.32 1388.73 154.32"/>
          <polygon class="cls-43" points="1205.93 162.59 1301.16 164.37 1388.18 185.47 1396.24 185.62 1377.49 154.11 1221.24 147.3 1205.93 162.59"/>
          <polygon class="cls-43" points="1388.18 185.47 1559.38 236.7 1623.62 247.17 1613.55 200.8 1533.99 188.19 1490.38 193.86 1407.65 178.04 1388.18 185.47"/>
          <polygon class="cls-43" points="1281.92 208.24 1387.62 217.91 1387.97 197.79 1296.44 196.09 1281.92 208.24"/>
          <polygon class="cls-41" points="1271.42 217.04 1382.14 233.62 1406.81 226.82 1387.97 197.79 1387.62 217.91 1281.92 208.24 1271.42 217.04"/>
          <polygon class="cls-35" points="1388.73 154.32 1448.54 167.12 1491.84 179.61 1523.46 168.52 1533.99 188.19 1490.38 193.86 1396.24 185.62 1377.49 154.11 1388.73 154.32"/>
          <polyline class="cls-40" points="1376.11 233.51 1505.23 254.97 1552.7 332.64 1675.13 428.4 1593.48 438.56 1539.15 390.81 1493.59 271.82 1371.23 233.42"/>
          <path class="cls-35" d="M1388.18,185.47l171.2,51.23L1585.3,332l90.42,62.66-.59,33.79L1552.7,332.64,1505.23,255l-50.64-7.25-67-29.81Z"/>
          <polygon class="cls-43" points="1559.33 236.77 1623.58 247.17 1684.92 339.69 1627.28 316.5 1585.35 331.99 1559.33 236.77"/>
          <polygon class="cls-35" points="1181.84 250.42 1232.05 243.57 1287.45 255.1 1383.68 249 1383.2 276.48 1309.14 282.39 1181.84 250.42"/>
          <path class="cls-35" d="M1383.2,276.48l63.9,73.66,19.72,86.05L1478.53,561,1527,589.63,1512.6,476l-7.46-75.44-40-98.76L1383.68,249S1383.19,276.71,1383.2,276.48Z"/>
          <path class="cls-40" d="M1505.14,400.56s16,26.26,25,8.25l9-18,22.31,25.05L1527,589.63Z"/>
          <path class="cls-45" d="M1181.84,250.42l-54,78.88-68.25,31.78-17.13-23.78s12.1-48.24,39.25-59.16S1181.84,250.42,1181.84,250.42Z"/>
          <path class="cls-46" d="M1059.57,361.08,1027,428l-29-.54,23.85,13.43,5.17,55.55-25.13,10.8,24.93.46,75,93.07-122.6-67.21L968.11,477.7s-5-45.3,19.18-67.13,40-38.53,40-38.53l15.19-34.74Z"/>
          <path class="cls-43" d="M1181.84,250.42s109.86,35.8,117.15,43.73,13.72,16.48,13.72,16.48l70.49-34.15-74.06,5.91L1189.8,249.33Z"/>
          <polygon class="cls-41" points="1312.71 310.63 1360.27 333.63 1392.61 394.23 1447.1 350.14 1413.33 311.21 1383.2 276.48 1312.71 310.63"/>
          <path class="cls-35" d="M1309.14,282.39l24.06,20.84L1374.68,316,1416,375.34l25.82,64.28q3.84,46.76,7.66,93.52l35,51.38L1499,614.86l-30.41-.57-43.39-76.64,1.35-77.86L1359.9,354.91l-17.22-26.82-30-17.46Z"/>
          <polygon class="cls-40" points="1415.95 375.34 1447.1 350.14 1465.65 431.07 1478.53 561.04 1449.44 533.14 1445.38 449.15 1415.95 375.34"/>
          <polygon class="cls-47" points="1449.44 533.14 1484.39 584.52 1498.97 614.86 1527.01 589.63 1476.8 557.39 1449.44 533.14"/>
          <polygon class="cls-47" points="808.91 595.28 866.21 523.46 891.08 596.81 808.91 595.28"/>
          <path class="cls-48" d="M910.28,327.14l-56.34,42.53-42.47,78.64q-1.28,73.49-2.56,147l57.3-71.82,1.19-68.41S886.6,350.07,910.28,327.14Z"/>
          <path class="cls-49" d="M910.28,327.14,989.39,252,1074,179.6l-58.21,11.25L934.86,252.3l-.68,15.8-23,5.54-57.27,96Z"/>
          <path class="cls-43" d="M1007.27,197.32l.87-50.11,83.78-25.69,46.33-21.5q6.87,32.73,13.73,65.46L1015.8,190.85"/>
          <path class="cls-44" d="M1683.38,428.55l17.34,42.05,41.89.79,29.94,38.95,97.62,40.21,67.83-8.29L1841.07,473l-43.86-.82-28.3-30.39Z"/>
          <polygon class="cls-35" points="1700.72 470.6 1698.08 622.26 1738.36 623.01 1729.05 509.52 1742.61 471.39 1700.72 470.6"/>
          <polygon class="cls-35" points="1742.61 471.39 1772.55 510.34 1870.17 550.55 1834.44 637.79 1757.69 623.38 1742.61 471.39"/>
          <path class="cls-41" d="M1870.17,550.55c-.36-.38,67.83-8.29,67.83-8.29l-35.24,80.13-68.32,15.4Z"/>
          <polygon class="cls-44" points="1684.66 354.58 1777.46 413.43 1905.5 444.38 1879.17 403.32 1730.35 342.45 1684.66 354.58"/>
          <polygon class="cls-35" points="1684.66 354.58 1777.46 413.43 1768.91 441.83 1744.51 454.98 1706.28 428.98 1675.13 428.4 1684.66 354.58"/>
          <path class="cls-50" d="M1777.46,413.43l30.5,7.37q-.42,29.06-.83,58.1l-9.92-6.68-28.3-30.39Z"/>
          <polygon class="cls-41" points="1807.96 420.8 1905.5 444.38 1877.9 493.26 1841.07 473.04 1806.95 478.89 1807.96 420.8"/>
          <polygon class="cls-44" points="1561.46 415.86 1543.58 506.06 1627.05 536.46 1700.72 470.6 1683.38 428.55 1593.48 438.56 1539.15 390.81 1561.46 415.86"/>
          <polygon class="cls-46" points="1543.58 506.06 1527.01 589.63 1526.49 619.06 1636.86 621.12 1627.05 536.46 1543.58 506.06"/>
          <polygon class="cls-40" points="1627.05 536.46 1700.72 470.42 1698.08 622.26 1636.86 621.12 1627.05 536.46"/>
          <polygon class="cls-41" points="1742.08 471.19 1729.05 509.52 1738.36 623.01 1757.69 623.38 1742.08 471.19"/>
          <polygon class="cls-44" points="1585.35 331.99 1627.28 316.5 1684.92 339.69 1730.35 342.45 1684.66 354.58 1675.72 394.61 1585.35 331.99"/>
          <polygon class="cls-35" points="1623.58 247.17 1732.93 276.29 1730.35 342.45 1684.92 339.69 1623.58 247.17"/>
          <polygon class="cls-41" points="1732.93 276.29 1809.99 303.69 1809.16 351.61 1879.17 403.32 1730.35 342.45 1732.93 276.29"/>
          <polygon class="cls-43" points="1613.55 200.8 1732.54 216.65 1809.99 303.69 1732.93 276.29 1623.58 247.17 1613.55 200.8"/>
          <polygon class="cls-35" points="1732.54 216.65 1732.93 276.29 1809.99 303.69 1732.54 216.65"/>
          <polygon class="cls-44" points="1533.99 188.19 1579.31 153.98 1661.28 143.97 1739.99 158.93 1696.05 183.42 1660.18 207.01 1533.99 188.19"/>
          <path class="cls-51" d="M1740,158.93l13.68,81.47-21.13-23.75L1660.18,207S1727.38,163.24,1740,158.93Z"/>
          <g>
            <path class="cls-41" d="M1615,558.19l37.56,17.91q10.5,38.94,21,77.86c-.18-.06-15.68-4.59-31-10.26-11.18-4.14-16.77-6.21-18.56-7.88-2.86-2.67-8.2-9-9.69-40A288.08,288.08,0,0,1,1615,558.19Z"/>
            <path class="cls-35" d="M1647.93,576s1.17-7.51,28.07-1.63,43.45,10.49,43.45,10.49l52.8,10.29-6.3,63.74L1673.58,654Z"/>
            <path class="cls-41" d="M1772.25,595.17l29.37-16.28-11.22,48.2-5.7,12.81-18.75,19Z"/>
            <path class="cls-52" d="M1616,559.28A168,168,0,0,1,1678.68,540c14.41-1.44,45.1-4.16,77,10.64l46,28.24h0l-29.37,16.28c-14.22-1.88-29.47-4.46-45.57-8-14.33-3.15-27.74-6.7-40.17-10.43-21-1.82-36.44-2.86-36.94-2.69-1.07.36-1,.4-1.62.6C1641.92,576.63,1632.26,574.66,1616,559.28Z"/>
          </g>
          <g>
            <path class="cls-41" d="M1442.37,548.45a76.49,76.49,0,0,1,29.16,27.27c18.8,30.61,9,64.14,7.39,69.45l-34.21-11.53a257.08,257.08,0,0,1-4.77-55.54A253.64,253.64,0,0,1,1442.37,548.45Z"/>
            <polygon class="cls-41" points="1444.85 625.72 1443.16 612.82 1463.42 582.04 1444.85 625.72"/>
            <path class="cls-35" d="M1477.18,580.78l73.62-.61,23.3-3.52q6.53,28.83,13,57.66l-.33,18.81c-5.67.34-13.94.85-23.93,1.53-21.51,1.48-32.27,2.22-45,3.61-9.62,1.06-23.08,2.79-39.29,5.71"/>
            <path class="cls-43" d="M1457.23,542.44q-11.43,1.68-12.9,6.59-2.91,9.66,32.85,31.75l6.69.12,23-.56,44,.82,44.25-16-5.71-1.1-81.62-34.2Z"/>
            <path class="cls-41" d="M1573.8,576.64,1595,565.16l-4.75,53.37-4.38,32q-.83-7.12-1.66-14.26Z"/>
            <path class="cls-41" d="M1443.31,631.64,1478.6,664q.15-10.38.29-20.76Z"/>
          </g>
          <g>
            <path class="cls-41" d="M819.19,551.93l2.6,52.54,35.32,25c-12.14-6.6-37.3-22.6-54.09-54.08a133.71,133.71,0,0,1-13.47-38.85Z"/>
            <path class="cls-35" d="M819.19,551.93a592.54,592.54,0,0,1,122.67-16.75c-3.56,13.05-7,26.83-10.11,41.3-2.81,12.91-5.19,25.39-7.22,37.41l-67.42,15.6-35.32-25Q820.48,578.21,819.19,551.93Z"/>
            <path class="cls-41" d="M941.1,534.12s37.66-8.78,46-15c14.75,22.17,14.62,49.7.9,67.06-11.88,15-29.76,17.14-34.3,17.53l-30.2,9q3-15.49,6.46-31.51Q935.27,557,941.1,534.12Z"/>
            <path class="cls-53" d="M789.45,536.41c18.1-16.13,34.72-23.41,45.33-27,28.94-9.77,54.64-6.1,103.75,1.47,20.89,3.22,37.79,6.83,48.67,9.34a171,171,0,0,1-45.34,14.95c-19.31,3.45-32,2.17-46.26,2.34-18.47.22-44.59,2.93-76.82,14.33Z"/>
          </g>
          <polygon class="cls-43" points="1409.68 125.5 1486.59 97.72 1661.28 143.97 1579.31 153.98 1533.99 188.19 1523.46 168.52 1466.78 134.41 1428.73 145.33 1409.68 125.5"/>
          <path class="cls-43" d="M1602.24,151.18s68.13-56.38,112.38-62.76S1800,116.56,1800,116.56l-60,42.37Z"/>
          <polygon class="cls-41" points="1800.01 116.56 1860.55 213.25 1739.99 158.93 1800.01 116.56"/>
          <polygon class="cls-46" points="934.86 252.3 934.17 268.1 911.21 273.64 934.86 252.3"/>
          <polygon class="cls-46" points="811.47 448.31 827.48 454.31 811.19 464.15 811.47 448.31"/>
          <polygon class="cls-54" points="1181.84 250.42 1298.99 294.15 1312.71 310.63 1309.14 282.39 1198.17 245.53 1181.84 250.42"/>
          <path class="cls-35" d="M1127.82,329.3s54.93-33.42,62.29-37.18,65.87-14,65.87-14l-74.14-27.67Z"/>
          <path class="cls-46" d="M1181.72,256.91l-58.87,72.29-50.62-47.15S1173.47,258,1181.72,256.91Z"/>
          <polygon class="cls-40" points="826.33 531.06 811.26 551.71 808.85 582.75 824.73 549.3 826.33 531.06"/>
          <polygon class="cls-40" points="884.79 517.26 918.05 534.74 910.71 560.74 912.54 533.65 884.79 517.26"/>
          <path class="cls-40" d="M866.46,514.15s-41.56,7.06-46.65,11-19.1,16.71-19.1,16.71,18-14.86,21.67-15.63S866.46,514.15,866.46,514.15Z"/>
          <polygon class="cls-55" points="1044.35 392.33 1026.98 427.98 997.98 427.44 1020.95 422.03 1044.35 392.33"/>
          <polygon class="cls-43" points="1006.54 239.36 1024.08 242.28 1039.6 254.26 1047.14 231.86 1034.1 239.87 1006.54 239.36"/>
          <polygon class="cls-35" points="1205.67 105.46 1152.48 136.56 1138.25 100.02 1205.67 105.46"/>
          <polygon class="cls-35" points="1151.98 165.48 1109.99 129.09 1141.94 165.81 1151.98 165.48"/>
          <polygon class="cls-35" points="1465.13 301.8 1493.59 271.82 1468.16 309.39 1465.13 301.8"/>
          <polygon class="cls-41" points="1468.36 440.39 1505.14 400.56 1465.65 431.07 1468.36 440.39"/>
          <polygon class="cls-41" points="1383.2 276.48 1383.68 249 1394.52 289.54 1383.2 276.48"/>
          <path class="cls-56" d="M1483.87,580.9l-6,20.88,29-21.44Z"/>
          <polygon class="cls-56" points="1541.13 565.34 1573.8 576.64 1577.71 598.99 1578.14 574.29 1541.13 565.34"/>
          <polygon class="cls-56" points="1684.69 558.25 1649.58 574.05 1657.51 605.13 1657.79 576.2 1684.69 558.25"/>
          <polygon class="cls-56" points="1738.32 566.36 1772.25 595.17 1768.52 632.94 1764.27 594.06 1738.32 566.36"/>
          <polygon class="cls-35" points="1593.48 438.56 1543.58 506.06 1561.46 415.86 1593.48 438.56"/>
          <polygon class="cls-52" points="1593.48 438.56 1700.72 470.42 1683.38 428.55 1593.48 438.56"/>
          <path class="cls-52" d="M1744.51,455q14,27.67,28,55.36l34.4-31.45-38-37.06Z"/>
          <polygon class="cls-51" points="1232.05 243.57 1263.56 215.59 1247.56 243.58 1232.05 243.57"/>
          <path class="cls-51" d="M910.28,327.14l117,44.9-46.77,50.07L968.11,477.7,867.4,455.05S890.4,347.54,910.28,327.14Z"/>
          <polygon class="cls-57" points="1513.04 222.83 1559.33 236.77 1565.09 256.32 1572.62 237.18 1513.04 222.83"/>
          <polygon class="cls-35" points="1567.78 514.88 1605.49 478.98 1574.88 515.01 1574.47 538.01 1567.78 514.88"/>
          <polygon class="cls-35" points="1623.58 247.17 1627.28 316.5 1611.44 322.36 1623.58 247.17"/>
          <polygon class="cls-34" points="1409.68 125.5 1428.73 145.33 1401.91 149.27 1409.68 125.5"/>
          <path class="cls-35" d="M1524.81,535.13s-44,1-36.39,14.89,30.69,14.9,30.69,14.9-27.4-10.46-24.45-14.78S1511.82,530.19,1524.81,535.13Z"/>
          <polygon class="cls-35" points="1481.28 176.56 1470.32 162.52 1499.55 176.91 1493.8 187.44 1481.28 176.56"/>
          <path class="cls-55" d="M968.11,477.7l-53.39,32.74,35.19,5.34,14.54,17.86,14.73-.1Z"/>
          <path class="cls-58" d="M968.11,477.7l-53.39,32.74-42.55-14.09-4.77-41.3Z"/>
          <polygon class="cls-43" points="907.86 465.96 937.19 385.73 980.48 422.11 968.11 477.7 907.86 465.96"/>
          <polygon class="cls-54" points="937.19 385.73 976.29 336.07 1027.25 372.04 980.48 422.11 937.19 385.73"/>
          <path class="cls-54" d="M893.13,358l44.06,27.75L907.86,466,867.4,455.05S871.85,369.26,893.13,358Z"/>
          <path class="cls-46" d="M893.13,358l44.06,27.75,39.1-49.66-66-8.93Z"/>
          <path class="cls-55" d="M1043.63,268.61l-67.17,57.94-.17,9.52,51,36s17.41-38.87,20.91-49.65,19-39.59,33.53-44.25S1043.63,268.61,1043.63,268.61Z"/>
          <path class="cls-35" d="M1108.1,237.55l9.83,29.06-36.24,11.53-38.06-9.53,29.43-34.5Z"/>
          <path class="cls-46" d="M1020.18,367.05l-6.68-23.7,13.83,23.84-.08,4.85,1.46,23.15Z"/>
          <path class="cls-46" d="M914.72,510.44s-7-35.25,4.74-42.22,20-18.56,20.55-28.26c0,0,7.71,9.91-16.51,32.83C917.1,480.46,914.61,482.05,914.72,510.44Z"/>
          <polygon class="cls-59" points="1175.35 442.86 1094.96 411.26 1172.65 453.87 1175.35 442.86"/>
          <path d="M1208.51,518.35l-34.87,28,0-.1-.91,55.83v.21l-.21,0a57.85,57.85,0,0,1-12.63-3.23,62.18,62.18,0,0,1-6-2.59,56.72,56.72,0,0,1-5.7-3.18,58.71,58.71,0,0,1-18.43-18.22,62.92,62.92,0,0,1-5.82-11.67c-1.53-4.07-2.81-8.23-4-12.41-2.33-8.37-4.09-16.88-5.74-25.4s-3.11-17.08-4.86-25.57-3.76-17-7.25-24.92c-.44-1-.94-1.95-1.42-2.92s-1-1.9-1.66-2.78a24.6,24.6,0,0,0-4.12-5c-.78-.74-1.63-1.41-2.48-2.09l-2.54-2-5.1-4c-3.42-2.66-6.87-5.3-10.46-7.73a56.28,56.28,0,0,0-11.38-6.26,56.3,56.3,0,0,1,11.42,6.19c3.62,2.41,7.08,5,10.52,7.67l5.13,4,2.55,2c.85.67,1.7,1.34,2.51,2.09a24.36,24.36,0,0,1,4.17,5c.63.89,1.13,1.87,1.68,2.8s1,1.94,1.43,2.93c3.53,8,5.51,16.49,7.32,25s3.27,17.05,4.93,25.56,3.44,17,5.78,25.36c1.18,4.17,2.47,8.31,4,12.36a62.55,62.55,0,0,0,5.79,11.57c9.22,14.69,25.3,24.59,42.37,27.11l-.21.18,1-55.82v-.06l0,0Z"/>
          <path d="M1303.86,316.61l-20.17,5-20.21,4.86c-13.45,3.26-27,6.32-40.4,9.62a31,31,0,0,0-9.25,4.25,37.18,37.18,0,0,0-7.54,6.91c-4.45,5.25-7.74,11.38-11.15,17.39s-6.85,12.14-11.7,17.2a31.72,31.72,0,0,1-8.31,6.25,30.54,30.54,0,0,1-9.9,3.05,30.63,30.63,0,0,0,9.79-3.26,32,32,0,0,0,8.07-6.38c4.71-5.06,8.06-11.18,11.38-17.23s6.63-12.23,11.12-17.61a38.24,38.24,0,0,1,7.7-7.11,32,32,0,0,1,9.52-4.42l1.27-.36,1.26-.29,2.53-.59,5.07-1.17,10.12-2.34,20.25-4.65,20.27-4.59Z"/>
          <polygon class="cls-59" points="1171.55 517.25 1141.37 522.61 1171.55 529.16 1171.55 517.25"/>
          <polygon class="cls-59" points="1087.24 389.88 1058.89 400.02 1069.97 412.12 1087.24 389.88"/>
          <polygon class="cls-60" points="1127.82 329.3 1100.06 370.74 1136.69 339.06 1191.95 300.59 1190.11 292.12 1127.82 329.3"/>
          <path class="cls-60" d="M1001.87,507.22l25.13-10.8"/>
          <polygon class="cls-60" points="1127.82 329.3 1081.69 278.14 1134.54 313.45 1127.82 329.3"/>
          <polygon class="cls-59" points="1217.08 386.05 1238.73 415.27 1250.76 408.23 1217.08 386.05"/>
          <polygon class="cls-59" points="1208.51 518.35 1173.55 546.26 1208.31 529.85 1208.51 518.35"/>
          <polygon class="cls-40" points="1384.81 379.16 1415.95 375.34 1384.76 382.51 1384.81 379.16"/>
          <polygon class="cls-40" points="1421.02 449.15 1445.38 449.15 1426.52 459.79 1421.02 449.15"/>
          <polygon class="cls-40" points="1342.68 328.09 1374.68 315.96 1346.07 333.37 1342.68 328.09"/>
          <polygon class="cls-40" points="1425.17 537.65 1449.44 533.14 1429.54 544.47 1425.17 537.65"/>
          <polygon class="cls-40" points="1447.1 350.14 1457.47 297.11 1465.13 301.8 1468.16 309.39 1447.1 350.14"/>
          <polygon class="cls-40" points="1296.72 255.27 1299.25 279.65 1309.14 282.39 1296.72 255.27"/>
          <path class="cls-61" d="M1773.38,410.84s6.7-25.92-14.45-39.3-27.43-12.67-27.43-12.67,35.78,5.41,43.29,19.64,7,32.41,2.67,34.92S1773.38,410.84,1773.38,410.84Z"/>
          <path class="cls-61" d="M1534,188.19s89.21,34.49,89.59,59Z"/>
          <polygon class="cls-35" points="1579.31 153.98 1486.59 97.72 1574 157.78 1579.31 153.98"/>
          <polygon class="cls-62" points="1069.34 448.39 1085.97 463.3 1078.12 483.46 1067.98 526.02 1046.68 525.63 1064.73 481.48 1069.34 448.39"/>
          <path class="cls-35" d="M1656.88,154.25s-20.12-21.27,44.57-39.53l65.15-3s-113.5,8.36-96.64,42.53C1657.25,154.24,1656.88,154.25,1656.88,154.25Z"/>
          <path class="cls-35" d="M827.48,454.3c-.17-.18,41-62.1,41-62.1l-32.16,62.27"/>
          <polygon class="cls-41" points="1561.46 415.86 1593.48 438.56 1539.15 390.81 1561.46 415.86"/>
          <polygon class="cls-57" points="1084.95 234.33 1110.39 244.31 1129.56 228.96 1108.1 237.54 1084.95 234.33"/>
          <polygon class="cls-57" points="961.64 408.78 978.45 431.25 990.65 411.22 980.48 422.11 961.64 408.78"/>
          <polygon class="cls-59" points="1190.11 292.12 1186.14 265.48 1195.24 290.38 1190.11 292.12"/>
          <polygon class="cls-35" points="1177.7 164.01 1198.15 123.5 1192.79 157.34 1177.7 164.01"/>
          <path class="cls-35" d="M1505.33,664s-25.72-20.87-41.91-12.53-38.75,15.36-23.71,16.4S1505.33,664,1505.33,664Z"/>
          <path class="cls-54" d="M1433.2,667.84s15.3-29,22.81-23.06,21.17,3.94,21.17,3.94Z"/>
          <path class="cls-63" d="M1428.93,621.82s9.9-15.36,15.35-2.33l5.45,13Z"/>
          <path class="cls-57" d="M868.5,437.73l-2,35.72"/>
          <path class="cls-57" d="M932.8,305.75l-33.4,37.6"/>
          <polygon class="cls-57" points="1406.93 362.37 1420.66 387.16 1417.82 376.63 1425.47 367.87 1416.2 372.46 1406.93 362.37"/>
          <polygon class="cls-57" points="1041.42 335.78 1059.57 361.08 1127.82 329.3 1063.52 356.14 1041.42 335.78"/>
          <path class="cls-57" d="M1298.72,118.66l37.59,24.62q27.38-18.9,54.73-37.82Z"/>
          <path class="cls-64" d="M1601.87,527.29q11.36-2,23.33-3.8,9.79-1.44,19.24-2.58"/>
          <polygon class="cls-65" points="1505.23 254.97 1559.33 236.77 1585.35 331.99 1552.7 332.64 1505.23 254.97"/>
          <path class="cls-65" d="M1432.93,227.84l18.42-23.47,14.49,45Z"/>
          <polygon class="cls-44" points="1451.35 204.37 1465.84 249.33 1505.23 254.97 1559.33 236.77 1451.35 204.37"/>
          <path class="cls-35" d="M1214.18,182.22q-7.86,25.17-15.74,50.33l65.12-17L1310.85,184Z"/>
          <path class="cls-43" d="M1205.93,162.59l8.25,19.63,66.44,10.33L1342.08,168l-40.92-3.66Z"/>
          <polygon class="cls-40" points="1334.95 172.67 1344.88 193.86 1296.44 196.09 1334.95 172.67"/>
          <polygon class="cls-35" points="1426.52 459.79 1404.05 533.64 1425.17 537.65 1449.44 533.14 1445.38 449.15 1426.52 459.79"/>
          <polygon class="cls-40" points="1404.05 533.64 1436.96 623.75 1439.71 565.99 1425.17 537.65 1404.05 533.64"/>
          <polygon class="cls-35" points="1384.76 382.51 1379.9 433.36 1421.02 449.15 1384.76 382.51"/>
          <polygon class="cls-40" points="1379.9 433.36 1415.95 493.4 1426.52 459.79 1421.02 449.15 1379.9 433.36"/>
          <polygon class="cls-38" points="1263.56 600.75 1208.51 518.35 1173.55 546.26 1170.25 607.87 1263.56 600.75"/>
          <polygon class="cls-34" points="1409.08 96.28 1470.32 -37.44 1623.15 -139.37 1684.37 -257.91 1857.53 -266.4 1857.53 197.79 1800.01 116.56 1714.62 88.42 1625.58 134.52 1409.08 96.28"/>
          <polygon class="cls-54" points="1295.09 81.17 1470.32 -37.44 1409.08 96.28 1295.09 81.17"/>
          <path class="cls-43" d="M1470.32-37.44,1601.87-15.5l-40.41,132.06-93.3-18.84-59.08-1.44Z"/>
          <polygon class="cls-34" points="1601.87 -15.49 1714.62 88.42 1625.58 134.52 1561.46 116.56 1601.87 -15.49"/>
          <polygon class="cls-66" points="1205.67 105.46 1258.21 40.6 1363.26 34.14 1295.09 81.17 1205.67 105.46"/>
          <polygon class="cls-54" points="1561.46 116.56 1676.49 33.47 1601.87 -15.49 1561.46 116.56"/>
          <path class="cls-65" d="M1856.22,5.66,1698.08-65,1601.87-15.5l127.18,99.68-91.32,43.42-94.9-5.39Z"/>
          <polygon class="cls-54" points="1714.62 88.42 1800.01 116.56 1886.96 264.7 1985 250.4 1960.49 -31.47 1759.65 29.25 1714.62 88.42"/>
          <polygon class="cls-34" points="1676.49 33.47 1542.83 122.21 1625.58 134.52 1729.05 84.18 1759.65 29.25 1856.22 5.67 1676.49 33.47"/>
          <polygon class="cls-35" points="1698.08 -65.03 1860.55 -105.45 1856.22 5.67 1698.08 -65.03"/>
          <polygon class="cls-44" points="1470.32 -37.44 1490.88 55.73 1601.87 -15.49 1470.32 -37.44"/>
          <polygon class="cls-44" points="1475.34 -37.44 1263.22 40.6 1363.69 34.37 1475.34 -37.44"/>
        </g>
        <g>
          <path class="cls-30" d="M-40.19,836.62c68.05-3.08,319.75-10,428.19-7.62,30.68.69,81.72,2.18,153.72,6.38,186.23,10.87,330.62,29.2,354.67,32.15,126.52,15.5,619.1,16.54,1088.61-3.34-2.4,32.1,234.57,40,0,67.41-4.42.51-227.81-31.59-232.26-31.59C1224.1,901,512.9,933.66-15.68,934.66-17.35,884-38.52,887.28-40.19,836.62Z"/>
          <g>
            <path class="cls-30" d="M931.5,879.54s4.29-26,0-28.42-16.4,5.62-9.64,16.85A44.5,44.5,0,0,0,931.5,879.54Z"/>
            <path class="cls-30" d="M919.85,877.11s-1.92-23.47-10.85-26.42S919.85,877.11,919.85,877.11Z"/>
            <path class="cls-30" d="M801.13,860.89s13.93-7.84,6.78-12.18S790.77,860.55,801.13,860.89Z"/>
            <path class="cls-30" d="M787.91,858.83s14.29-17.34,4.29-26S782.2,854.49,787.91,858.83Z"/>
          </g>
          <g>
            <path class="cls-30" d="M404.43,829.84s.34-36.9-6.1-39.31-21.48,11.3-9.72,25.38C396.69,825.59,404.43,829.84,404.43,829.84Z"/>
            <path class="cls-30" d="M387.79,829s-7.7-32.05-20.68-34.21S387.79,829,387.79,829Z"/>
            <path class="cls-30" d="M403.59,828.9s22-11.14,18.89-19S405.43,815.48,403.59,828.9Z"/>
            <path class="cls-30" d="M295.8,827.76s.91-42.67-38.7-55.62c-11.85-3.87,6.72,6.63,21.41,38.16,0,0,2.7,7.33,2.11,9.37S255.7,781.53,238.8,778.8c0,0,31.58,34.47,34.6,46C273.4,824.83,283.85,850.21,295.8,827.76Z"/>
            <path class="cls-30" d="M215.66,823.92s17.58-13.85,6.77-18.31S201.26,825.67,215.66,823.92Z"/>
            <path class="cls-30" d="M201.37,832.05s16-27.06.33-36.9S192.53,827.28,201.37,832.05Z"/>
          </g>
        </g>
        <g>
          <g>
            <path class="cls-32" d="M1598.09,695.54s41.58-5.4,40.43-20.23S1598.09,695.54,1598.09,695.54Z"/>
            <path class="cls-32" d="M1590,701.54s23.1-37.09,40.43-46.53-30-10.21-40.43,28.61Z"/>
            <path class="cls-32" d="M1588.27,696.54s11.65-28.85-31.77-30.35C1536.86,665.52,1588.27,696.54,1588.27,696.54Z"/>
          </g>
          <g>
            <path class="cls-32" d="M1234.09,777.54s41.58-5.4,40.43-20.23S1234.09,777.54,1234.09,777.54Z"/>
            <path class="cls-32" d="M1226,783.54s23.1-37.09,40.43-46.53-30-10.21-40.43,28.61Z"/>
            <path class="cls-32" d="M1224.27,778.54s11.65-28.85-31.77-30.35C1172.86,747.52,1224.27,778.54,1224.27,778.54Z"/>
          </g>
          <g>
            <path class="cls-32" d="M1541.68,700.9s10.93-6.4,32-8-22.62-8.41-38.23,8C1535.44,700.9,1528.42,708.19,1541.68,700.9Z"/>
            <path class="cls-32" d="M1512,701.81s32-20.49,50.71-25.95-18-5.92-42.91,11.15C1519.84,687,1507.36,697.26,1512,701.81Z"/>
            <path class="cls-32" d="M1502.68,701.81s21.25-33.24,30.91-37.34-15.31-6.37-30.91,20.72C1502.68,685.19,1496.44,699.54,1502.68,701.81Z"/>
            <path class="cls-32" d="M1491.37,701.81s8.19-30.51,16-35.06S1477.72,671.76,1491.37,701.81Z"/>
            <path class="cls-32" d="M1486.69,701.81s.39-25.41-16.38-29.33S1480.06,689.06,1486.69,701.81Z"/>
            <path class="cls-32" d="M1481.23,701.81S1470.7,672.69,1445,672,1465.24,682.69,1481.23,701.81Z"/>
            <path class="cls-32" d="M1479,701.81s-13.78-11.84-37.19-10.93S1473.3,698.17,1479,701.81Z"/>
          </g>
        </g>
        <path class="cls-67" d="M913.16,614.94l122.42-11.39,61.9,4.42,34.52,0,90,3,125,1,4.52,18.44,18.5,13.07a333.18,333.18,0,0,0-54,3.49c-29.58,4.34-34.75,9.17-52,8-28.63-1.94-29.3-16.24-59-21-22.45-3.59-29,3.46-70,7a391.67,391.67,0,0,1-53,1c-50.26,12.91-63.83,13.16-65,10-1.49-4,17.62-12.44,16-18-2.11-7.26-37.32-2.12-67,0a534.5,534.5,0,0,1-108.41-3.56C860.21,628.15,863.23,625.88,913.16,614.94Z"/>
        <path class="cls-68" d="M1200.4,602.85,1088.79,608s95,17.45,144.12,10.24S1347,612,1347,612Z"/>
        <path class="cls-33" d="M1741,656c-146.52-8.08-245.12.82-303.11,9-87.3,12.28-203.08,37.76-253.75,43.43-40.92,4.59,91.61,1.24,182.84,19.42,122.58,24.41,153.52-9.92,248.68,1A818.87,818.87,0,0,1,1744,754Z"/>
        <g>
          <path class="cls-32" d="M1484.1,796s31.36-18.17,37.71-21.42c7.79-4-6.55-9.74-29.78,4.15C1492,778.74,1477.75,788.78,1484.1,796Z"/>
          <path class="cls-32" d="M1469.35,794.87s-6.32-16.84-41-16.34S1469.35,794.87,1469.35,794.87Z"/>
          <path class="cls-32" d="M1478.8,797.33s10.58-37.72,26-48.07C1518,740.4,1490,738,1474.3,759.13S1478.8,797.33,1478.8,797.33Z"/>
        </g>
        <path class="cls-32" d="M992.59,677.44s-187,28.87-178.81,27.22,61.37-2.23,100.29,11.56,23.84,18.93-14.12,18.85,26.82,12.91,98.43,15.42,96.72-.39,116.17,5.56,31.23,12.62-18.16,12.79,67.94-1.22,115.27-.53,56.38,7.81,56.38,7.81-56.94,21.57-120,16.23-161.22-24.48-231.63-26.92S785.32,746,721.66,747s-156.33-16.91-67-26,134.66-5.77,67-21.41-130.83-15.89-143.24-17.26,110.29-8.87,182.94-13.63,72.74,13.72,112.69,2.49S992.59,677.44,992.59,677.44Z"/>
        <path class="cls-32" d="M1321.61,798.69s58.57-23,93.48-17.85,37.78,32.75,91.35,6c18.21-9.11,46.37-11.34,101.88-17.51,84.52-9.4,173.55,1.17,200.68,4.71l-41.87,52.92-523.87-20.38Z"/>
        <g>
          <path class="cls-32" d="M795.56,604.81s-22.76-49.95-12.21-74.36,38.84,26.31,38.29,63.38c.55,16,7.21,4.32,11.65-10.67s20.54-35,40-41.62,20,15.54-12.77,43.29-24.41,35-8.32,20c18.31-16.65,13.32-11.6,21.64-15.24s42.12,1.36,2.75,34.11L858.82,632H776.13l-3.33-19.1s17.76,1.9,9.44-2.54S741.17,581.21,755.05,578,772.8,574.29,795.56,604.81Z"/>
          <path class="cls-32" d="M817.65,622.74s41.93-67,61.19-74"/>
          <line class="cls-32" x1="813.54" y1="622.74" x2="790.85" y2="536.67"/>
          <line class="cls-32" x1="836.72" y1="625.65" x2="885.06" y2="597.54"/>
        </g>
        <g>
          <g>
            <path class="cls-43" d="M511.28,692.18s-30.47-1.46-32.74-1.83-17.83-3.29-21.07-3.29S440,692.55,439,692.18s-12,5.12-12,5.12v16.83l-1.94,25.61s18.8,17.19,19.12,18.29,29.5,10.25,34.36,10.25,33.39-7,52.19-9.52,44.4-3.29,44.4-3.29l11.67-31.83S529.75,691.08,511.28,692.18Z"/>
            <path class="cls-46" d="M425.06,739.74s18.8,17.19,19.12,18.29,29.5,10.25,34.36,10.25,33.39-7,52.19-9.52,44.4-3.29,44.4-3.29l11.67-31.83s-44.73,9.52-59.64,7.71-23.34-5.51-26.9-5.15-18.16,5.49-26.26,5.13-22.69-7.32-26.26-7.69S427,697.3,427,697.3v16.83Z"/>
            <path class="cls-46" d="M476,731.31h0c-.7,0-1.37,0-2,0-8.1-.37-22.69-7.32-26.26-7.69S427,697.3,427,697.3v16.83l-1.94,25.61s18.8,17.19,19.12,18.29,27.13,9.5,33.62,10.19Z"/>
            <path class="cls-57" d="M586.8,723.64h0s-47.33-27-69.73-31c-14.53,1.71-38.87,4.4-40.8,4.65-2.76.37,19.93,4.21,23.34,4.94s5.83,2.56,1.94,2.93-11.34-1.83-6.16,1.1,42,15.73,60.46,15.91S586.8,723.64,586.8,723.64Z"/>
          </g>
          <g>
            <path class="cls-43" d="M1396.89,734.75s-33.22-1.13-35.7-1.41-19.43-2.53-23-2.53-19.08,4.22-20.14,3.94-13.08,3.93-13.08,3.93V751.6l-2.12,19.66s20.5,13.2,20.85,14,32.16,7.86,37.46,7.86,36.41-5.33,56.91-7.3,48.42-2.53,48.42-2.53l12.72-24.43S1417,733.9,1396.89,734.75Z"/>
            <path class="cls-35" d="M1302.88,771.26s20.5,13.2,20.85,14,32.16,7.86,37.46,7.86,36.41-5.33,56.91-7.3,48.42-2.53,48.42-2.53l12.72-24.43s-48.77,7.3-65,5.91-25.45-4.23-29.34-3.95-19.79,4.22-28.62,3.94-24.74-5.62-28.63-5.9S1305,738.68,1305,738.68V751.6Z"/>
            <path class="cls-41" d="M1358.42,764.78h0c-.76,0-1.5,0-2.18,0-8.84-.28-24.74-5.62-28.63-5.9S1305,738.68,1305,738.68V751.6l-2.12,19.66s20.5,13.2,20.85,14,29.58,7.29,36.66,7.82Z"/>
            <path class="cls-69" d="M1479.24,758.9h0s-51.61-20.74-76-23.79c-15.84,1.31-42.38,3.37-44.49,3.57-3,.28,21.74,3.23,25.45,3.79s6.36,2,2.12,2.25-12.37-1.41-6.72.84,45.77,12.07,65.92,12.21S1479.24,758.9,1479.24,758.9Z"/>
          </g>
          <g>
            <path class="cls-32" d="M1398.85,795.25s7.24-5.53,21.19-6.89-15-7.25-25.32,6.89C1394.72,795.25,1390.06,801.53,1398.85,795.25Z"/>
            <path class="cls-32" d="M1379.21,796s21.19-17.67,33.6-22.39-11.89-5.1-28.43,9.63C1384.38,783.27,1376.11,792.1,1379.21,796Z"/>
            <path class="cls-32" d="M1373,796s14.08-28.67,20.48-32.21-10.15-5.49-20.48,17.88C1373,781.7,1368.87,794.07,1373,796Z"/>
            <path class="cls-32" d="M1365.51,796s5.43-26.31,10.6-30.24S1356.47,770.11,1365.51,796Z"/>
            <path class="cls-32" d="M1362.41,796s.26-21.92-10.85-25.3S1358,785,1362.41,796Z"/>
            <path class="cls-32" d="M1358.79,796s-9-9-26-9.58S1348.2,779.54,1358.79,796Z"/>
            <path class="cls-32" d="M1357.33,796a32.54,32.54,0,0,0-24.64-9.42C1317.19,787.39,1353.54,792.89,1357.33,796Z"/>
          </g>
          <g>
            <path class="cls-32" d="M509.85,769.25s7.24-5.53,21.19-6.89-15-7.25-25.32,6.89C505.72,769.25,501.06,775.53,509.85,769.25Z"/>
            <path class="cls-32" d="M490.21,770s21.19-17.67,33.6-22.39-11.89-5.1-28.43,9.63C495.38,757.27,487.11,766.1,490.21,770Z"/>
            <path class="cls-32" d="M484,770s14.08-28.67,20.48-32.21S494.34,732.33,484,755.7C484,755.7,479.87,768.07,484,770Z"/>
            <path class="cls-32" d="M476.51,770s5.43-26.31,10.6-30.24S467.47,744.11,476.51,770Z"/>
            <path class="cls-32" d="M473.41,770s.26-21.92-10.85-25.3S469,759,473.41,770Z"/>
            <path class="cls-32" d="M469.79,770s-9-9-26-9.58S459.2,753.54,469.79,770Z"/>
            <path class="cls-32" d="M468.33,770a32.54,32.54,0,0,0-24.64-9.42C428.19,761.39,464.54,766.89,468.33,770Z"/>
          </g>
          <g>
            <path class="cls-32" d="M445.85,739.25s7.24-5.53,21.19-6.89-15-7.25-25.32,6.89C441.72,739.25,437.06,745.53,445.85,739.25Z"/>
            <path class="cls-32" d="M426.21,740s21.19-17.67,33.6-22.39-11.89-5.1-28.43,9.63C431.38,727.27,423.11,736.1,426.21,740Z"/>
            <path class="cls-32" d="M420,740s14.08-28.67,20.48-32.21S430.34,702.33,420,725.7C420,725.7,415.87,738.07,420,740Z"/>
            <path class="cls-32" d="M412.51,740s5.43-26.31,10.6-30.24S403.47,714.11,412.51,740Z"/>
            <path class="cls-32" d="M409.41,740s.26-21.92-10.85-25.3S405,729,409.41,740Z"/>
            <path class="cls-32" d="M405.79,740s-9-9-26-9.58S395.2,723.54,405.79,740Z"/>
            <path class="cls-32" d="M404.33,740a32.54,32.54,0,0,0-24.64-9.42C364.19,731.39,400.54,736.89,404.33,740Z"/>
          </g>
        </g>
        <rect class="cls-70" width="1920" height="900"/>
      </g>
    </g>
  </g>
</svg>
