<svg xmlns="http://www.w3.org/2000/svg" xmlns:xlink="http://www.w3.org/1999/xlink" width="1600" height="900" viewBox="0 0 1600 900">
  <defs>
    <style>
      .cls-1 {
        fill: none;
      }

      .cls-2 {
        isolation: isolate;
      }

      .cls-3 {
        clip-path: url(#clip-path);
      }

      .cls-4 {
        clip-path: url(#clip-path-2);
      }

      .cls-5 {
        fill: url(#linear-gradient);
      }

      .cls-6 {
        fill: #73d35f;
      }

      .cls-7 {
        fill: url(#linear-gradient-2);
      }

      .cls-8 {
        fill: #3eaf77;
      }

      .cls-9 {
        fill: url(#linear-gradient-3);
      }

      .cls-10 {
        fill: url(#linear-gradient-4);
      }

      .cls-11 {
        fill: url(#linear-gradient-5);
      }

      .cls-12 {
        fill: url(#linear-gradient-6);
      }

      .cls-13 {
        fill: #68bc45;
      }

      .cls-14 {
        fill: url(#linear-gradient-7);
      }

      .cls-15 {
        fill: #71c14c;
      }

      .cls-16 {
        fill: url(#linear-gradient-8);
      }

      .cls-17 {
        fill: url(#linear-gradient-9);
      }

      .cls-18 {
        fill: url(#linear-gradient-10);
      }

      .cls-19 {
        fill: url(#linear-gradient-11);
      }

      .cls-20 {
        fill: #09a53f;
      }

      .cls-21 {
        fill: #3dbf47;
      }

      .cls-22 {
        fill: #7789af;
        opacity: 0.3;
      }

      .cls-23 {
        clip-path: url(#clip-path-3);
      }

      .cls-24 {
        fill: url(#linear-gradient-12);
      }

      .cls-25 {
        fill: #fbdb57;
      }

      .cls-26 {
        fill: #776aa7;
      }

      .cls-27, .cls-33, .cls-35 {
        mix-blend-mode: multiply;
      }

      .cls-27 {
        opacity: 0.27;
      }

      .cls-28 {
        fill: #9e71a8;
      }

      .cls-29 {
        fill: #3baa6e;
      }

      .cls-30 {
        fill: #9fc45b;
      }

      .cls-31 {
        mix-blend-mode: overlay;
        opacity: 0.39;
      }

      .cls-32 {
        fill: #fff28f;
      }

      .cls-33 {
        opacity: 0.25;
      }

      .cls-34 {
        fill: #3b996f;
      }

      .cls-35 {
        opacity: 0.49;
      }

      .cls-36 {
        fill: #59b44a;
      }

      .cls-37 {
        fill: url(#linear-gradient-13);
      }

      .cls-38 {
        fill: url(#linear-gradient-14);
      }

      .cls-39 {
        fill: url(#linear-gradient-15);
      }

      .cls-40 {
        fill: url(#linear-gradient-16);
      }

      .cls-41 {
        fill: url(#linear-gradient-17);
      }

      .cls-42 {
        fill: url(#linear-gradient-18);
      }

      .cls-43 {
        fill: url(#linear-gradient-19);
      }

      .cls-44 {
        fill: url(#linear-gradient-20);
      }

      .cls-45 {
        fill: url(#linear-gradient-21);
      }

      .cls-46 {
        fill: url(#linear-gradient-22);
      }

      .cls-47 {
        fill: url(#linear-gradient-23);
      }

      .cls-48 {
        fill: url(#linear-gradient-24);
      }

      .cls-49 {
        fill: url(#linear-gradient-25);
      }

      .cls-50 {
        fill: url(#linear-gradient-26);
      }

      .cls-51 {
        fill: url(#linear-gradient-27);
      }

      .cls-52 {
        fill: url(#linear-gradient-28);
      }

      .cls-53 {
        fill: url(#linear-gradient-29);
      }

      .cls-54 {
        fill: url(#linear-gradient-30);
      }

      .cls-55 {
        fill: url(#linear-gradient-31);
      }

      .cls-56 {
        fill: url(#linear-gradient-32);
      }

      .cls-57 {
        fill: url(#linear-gradient-33);
      }

      .cls-58 {
        fill: url(#linear-gradient-34);
      }

      .cls-59 {
        fill: url(#linear-gradient-35);
      }

      .cls-60 {
        fill: url(#linear-gradient-36);
      }

      .cls-61 {
        fill: url(#linear-gradient-37);
      }

      .cls-62 {
        fill: url(#linear-gradient-38);
      }

      .cls-63 {
        fill: url(#linear-gradient-39);
      }

      .cls-64 {
        fill: url(#linear-gradient-40);
      }

      .cls-65 {
        fill: url(#linear-gradient-41);
      }

      .cls-66 {
        fill: url(#linear-gradient-42);
      }

      .cls-67 {
        fill: url(#linear-gradient-43);
      }

      .cls-68 {
        fill: url(#linear-gradient-44);
      }

      .cls-69 {
        fill: url(#linear-gradient-45);
      }

      .cls-70 {
        fill: url(#linear-gradient-46);
      }

      .cls-71 {
        fill: url(#linear-gradient-47);
      }

      .cls-72 {
        fill: url(#linear-gradient-48);
      }

      .cls-73 {
        fill: url(#linear-gradient-49);
      }

      .cls-74 {
        fill: url(#linear-gradient-50);
      }

      .cls-75 {
        fill: url(#linear-gradient-51);
      }

      .cls-76 {
        fill: url(#linear-gradient-52);
      }

      .cls-77 {
        fill: url(#linear-gradient-53);
      }

      .cls-78 {
        fill: url(#linear-gradient-54);
      }

      .cls-79 {
        fill: url(#linear-gradient-55);
      }

      .cls-80 {
        fill: url(#linear-gradient-56);
      }

      .cls-81 {
        fill: url(#linear-gradient-57);
      }

      .cls-82 {
        fill: url(#linear-gradient-58);
      }

      .cls-83 {
        fill: url(#linear-gradient-59);
      }

      .cls-84 {
        fill: url(#linear-gradient-60);
      }

      .cls-85 {
        fill: url(#linear-gradient-61);
      }

      .cls-86 {
        fill: url(#linear-gradient-62);
      }

      .cls-87 {
        fill: url(#linear-gradient-63);
      }

      .cls-88 {
        fill: url(#linear-gradient-64);
      }

      .cls-89 {
        fill: url(#linear-gradient-65);
      }

      .cls-90 {
        fill: url(#linear-gradient-66);
      }

      .cls-91 {
        fill: url(#linear-gradient-67);
      }

      .cls-92 {
        fill: url(#linear-gradient-68);
      }

      .cls-93 {
        fill: url(#linear-gradient-69);
      }

      .cls-94 {
        fill: url(#linear-gradient-70);
      }

      .cls-95 {
        fill: url(#linear-gradient-71);
      }

      .cls-96 {
        fill: url(#linear-gradient-72);
      }

      .cls-97 {
        fill: url(#linear-gradient-73);
      }

      .cls-98 {
        fill: url(#linear-gradient-74);
      }

      .cls-99 {
        fill: url(#linear-gradient-75);
      }

      .cls-100 {
        fill: url(#linear-gradient-76);
      }

      .cls-101 {
        fill: url(#linear-gradient-77);
      }

      .cls-102 {
        fill: url(#linear-gradient-78);
      }

      .cls-103 {
        fill: url(#linear-gradient-79);
      }

      .cls-104 {
        fill: url(#linear-gradient-80);
      }

      .cls-105 {
        fill: url(#linear-gradient-81);
      }

      .cls-106 {
        fill: url(#linear-gradient-82);
      }

      .cls-107 {
        fill: url(#linear-gradient-83);
      }

      .cls-108 {
        fill: url(#linear-gradient-84);
      }

      .cls-109 {
        fill: url(#linear-gradient-85);
      }

      .cls-110 {
        fill: url(#linear-gradient-86);
      }

      .cls-111 {
        fill: url(#linear-gradient-87);
      }
    </style>
    <clipPath id="clip-path">
      <rect class="cls-1" x="1850" width="800" height="900"/>
    </clipPath>
    <clipPath id="clip-path-2">
      <rect class="cls-1" x="1346.36" width="1600" height="900"/>
    </clipPath>
    <linearGradient id="linear-gradient" x1="2000.09" y1="951.39" x2="2212.44" y2="-98.41" gradientUnits="userSpaceOnUse">
      <stop offset="0.2" stop-color="#d9fafc"/>
      <stop offset="0.74" stop-color="#b0e9f9"/>
      <stop offset="0.82" stop-color="#aae6f9"/>
    </linearGradient>
    <linearGradient id="linear-gradient-2" x1="1298.17" y1="700.09" x2="2111.24" y2="25" gradientUnits="userSpaceOnUse">
      <stop offset="0.17" stop-color="#25ae74"/>
      <stop offset="0.19" stop-color="#31b581"/>
      <stop offset="0.25" stop-color="#49c39c"/>
      <stop offset="0.31" stop-color="#5ccfb2"/>
      <stop offset="0.38" stop-color="#6cd8c3"/>
      <stop offset="0.47" stop-color="#76decf"/>
      <stop offset="0.6" stop-color="#7ce2d6"/>
      <stop offset="0.94" stop-color="#7ee3d8"/>
    </linearGradient>
    <linearGradient id="linear-gradient-3" x1="1305.76" y1="536.09" x2="1706.51" y2="412.08" gradientUnits="userSpaceOnUse">
      <stop offset="0.03" stop-color="#219f68"/>
      <stop offset="0.84" stop-color="#3fe28c"/>
      <stop offset="0.94" stop-color="#43ea90"/>
    </linearGradient>
    <linearGradient id="linear-gradient-4" x1="1485.86" y1="585.03" x2="1607.67" y2="370.84" gradientUnits="userSpaceOnUse">
      <stop offset="0" stop-color="#21607b"/>
      <stop offset="0.23" stop-color="#238c77"/>
      <stop offset="0.45" stop-color="#25af74"/>
      <stop offset="0.62" stop-color="#27c472"/>
      <stop offset="0.74" stop-color="#27cc71"/>
    </linearGradient>
    <linearGradient id="linear-gradient-5" x1="1235.37" y1="606.99" x2="1382.38" y2="1.71" gradientUnits="userSpaceOnUse">
      <stop offset="0" stop-color="#a3513f"/>
      <stop offset="0.08" stop-color="#9f513f"/>
      <stop offset="0.18" stop-color="#915040"/>
      <stop offset="0.27" stop-color="#7b4f40"/>
      <stop offset="0.37" stop-color="#5d4e41"/>
      <stop offset="0.47" stop-color="#364c43"/>
      <stop offset="0.49" stop-color="#2d4c43"/>
    </linearGradient>
    <linearGradient id="linear-gradient-6" x1="1498.28" y1="122.3" x2="1673.44" y2="-59.57" gradientUnits="userSpaceOnUse">
      <stop offset="0" stop-color="#0d5f3f"/>
      <stop offset="0.16" stop-color="#07724a"/>
      <stop offset="0.28" stop-color="#018455"/>
      <stop offset="0.41" stop-color="#24995c"/>
      <stop offset="0.56" stop-color="#43ac62"/>
      <stop offset="0.68" stop-color="#56b766"/>
      <stop offset="0.76" stop-color="#5dbb67"/>
    </linearGradient>
    <linearGradient id="linear-gradient-7" x1="1181.59" y1="233.19" x2="1505.28" y2="-277.77" gradientUnits="userSpaceOnUse">
      <stop offset="0" stop-color="#0d5f3f"/>
      <stop offset="0.26" stop-color="#157d66"/>
      <stop offset="0.41" stop-color="#198a77"/>
      <stop offset="0.89" stop-color="#66b232"/>
    </linearGradient>
    <linearGradient id="linear-gradient-8" x1="10013.21" y1="125.13" x2="9883.17" y2="-138.45" gradientTransform="matrix(-1, 0, 0, 1, 11582.86, 0)" gradientUnits="userSpaceOnUse">
      <stop offset="0" stop-color="#0d5f3f"/>
      <stop offset="0.12" stop-color="#07724a"/>
      <stop offset="0.22" stop-color="#018455"/>
      <stop offset="0.34" stop-color="#24995c"/>
      <stop offset="0.48" stop-color="#43ac62"/>
      <stop offset="0.59" stop-color="#56b766"/>
      <stop offset="0.67" stop-color="#5dbb67"/>
    </linearGradient>
    <linearGradient id="linear-gradient-9" x1="1349.56" y1="243.29" x2="1474.21" y2="-160.53" gradientUnits="userSpaceOnUse">
      <stop offset="0.06" stop-color="#0d453f"/>
      <stop offset="0.22" stop-color="#095846"/>
      <stop offset="0.52" stop-color="#018455"/>
      <stop offset="0.64" stop-color="#31a05e"/>
      <stop offset="0.76" stop-color="#5dbb67"/>
    </linearGradient>
    <linearGradient id="linear-gradient-10" x1="1809.52" y1="710.71" x2="1989.32" y2="394.54" xlink:href="#linear-gradient-4"/>
    <linearGradient id="linear-gradient-11" x1="1395.32" y1="729.09" x2="1697.44" y2="483.19" gradientUnits="userSpaceOnUse">
      <stop offset="0.15" stop-color="#108937"/>
      <stop offset="0.33" stop-color="#1c9c45"/>
      <stop offset="0.69" stop-color="#3bcc67"/>
      <stop offset="0.73" stop-color="#3fd26c"/>
    </linearGradient>
    <clipPath id="clip-path-3">
      <rect class="cls-1" width="1600" height="900"/>
    </clipPath>
    <linearGradient id="linear-gradient-12" x1="800" y1="673.33" x2="800" y2="-19.03" gradientTransform="translate(1127.15 -472.85) rotate(90)" gradientUnits="userSpaceOnUse">
      <stop offset="0" stop-color="#cadef3"/>
      <stop offset="0.13" stop-color="#b1d4ef"/>
      <stop offset="0.55" stop-color="#62b5e2"/>
      <stop offset="0.85" stop-color="#31a2d9"/>
      <stop offset="1" stop-color="#1e9ad6"/>
    </linearGradient>
    <linearGradient id="linear-gradient-13" x1="849.41" y1="-2293.03" x2="849.41" y2="-2264.4" gradientTransform="matrix(-0.22, -0.57, 0.98, -0.27, 3594.16, 472.56)" gradientUnits="userSpaceOnUse">
      <stop offset="0" stop-color="#805a2c"/>
      <stop offset="1" stop-color="#b5a250"/>
    </linearGradient>
    <linearGradient id="linear-gradient-14" x1="7764.78" y1="-5315.75" x2="7764.78" y2="-5283.82" gradientTransform="matrix(-0.56, -0.14, 0.36, -1.01, 7425.25, -3701.43)" xlink:href="#linear-gradient-13"/>
    <linearGradient id="linear-gradient-15" x1="20244.96" y1="-2063.16" x2="20244.96" y2="-2031.23" gradientTransform="matrix(-0.27, 0.51, -0.9, -0.59, 4701.71, -11001.12)" gradientUnits="userSpaceOnUse">
      <stop offset="0" stop-color="#a99348"/>
      <stop offset="1" stop-color="#b4a269"/>
    </linearGradient>
    <linearGradient id="linear-gradient-16" x1="4751.4" y1="-4802.02" x2="4751.4" y2="-4776.53" gradientTransform="matrix(-0.49, -0.32, 0.64, -0.84, 6571.88, -1880.6)" xlink:href="#linear-gradient-13"/>
    <linearGradient id="linear-gradient-17" x1="13953.15" y1="-4699.24" x2="13953.15" y2="-4670.61" gradientTransform="matrix(-0.53, 0.24, -0.27, -1.05, 7310.82, -7674.84)" xlink:href="#linear-gradient-15"/>
    <linearGradient id="linear-gradient-18" x1="21146.48" y1="-235.92" x2="21146.48" y2="-207.29" gradientTransform="matrix(-0.1, 0.57, -1.01, -0.37, 3060.85, -11623.71)" xlink:href="#linear-gradient-15"/>
    <linearGradient id="linear-gradient-19" x1="5490.14" y1="-5068.25" x2="5490.14" y2="-5039.62" gradientTransform="matrix(-0.52, -0.27, 0.57, -0.9, 6877.06, -2438.88)" xlink:href="#linear-gradient-13"/>
    <linearGradient id="linear-gradient-20" x1="17745.88" y1="-2995.81" x2="17745.88" y2="-2967.18" gradientTransform="matrix(-0.38, 0.47, -0.67, -0.81, 5830.2, -10123.99)" xlink:href="#linear-gradient-13"/>
    <linearGradient id="linear-gradient-21" x1="215.16" y1="-351.75" x2="215.16" y2="-324.31" gradientTransform="matrix(0.12, -0.6, -0.91, -0.13, 808.64, 676.23)" xlink:href="#linear-gradient-15"/>
    <linearGradient id="linear-gradient-22" x1="4510.28" y1="-4716.33" x2="4510.28" y2="-4677.99" gradientTransform="matrix(0.48, -0.21, -0.45, -0.95, -3141.11, -2946.77)" xlink:href="#linear-gradient-13"/>
    <linearGradient id="linear-gradient-23" x1="20983.35" y1="-1648.21" x2="20983.35" y2="-1609.87" gradientTransform="matrix(0.17, 0.5, 0.99, -0.37, -787.53, -10460.5)" xlink:href="#linear-gradient-15"/>
    <linearGradient id="linear-gradient-24" x1="6685.1" y1="-5154.19" x2="6685.1" y2="-5096.11" gradientTransform="matrix(0.51, -0.11, -0.25, -1.03, -3580.54, -3930.64)" gradientUnits="userSpaceOnUse">
      <stop offset="0" stop-color="#81712c"/>
      <stop offset="1" stop-color="#b59f31"/>
    </linearGradient>
    <linearGradient id="linear-gradient-25" x1="4490.2" y1="-4714.36" x2="4490.2" y2="-4685.74" gradientTransform="matrix(0.48, -0.21, -0.45, -0.95, -3141.11, -2946.77)" xlink:href="#linear-gradient-13"/>
    <linearGradient id="linear-gradient-26" x1="2138.9" y1="-3605.57" x2="2138.9" y2="-3579.2" gradientTransform="matrix(0.39, -0.39, -0.68, -0.74, -2145.99, -1257.78)" xlink:href="#linear-gradient-13"/>
    <linearGradient id="linear-gradient-27" x1="-1137.41" y1="692.61" x2="-1137.41" y2="718.98" gradientTransform="matrix(0.02, -0.55, -1.01, -0.07, 1866.66, 12.6)" xlink:href="#linear-gradient-15"/>
    <linearGradient id="linear-gradient-28" x1="19610.41" y1="-2687.85" x2="19610.41" y2="-2661.49" gradientTransform="matrix(0.24, 0.48, 0.89, -0.53, -1187.24, -10230.45)" xlink:href="#linear-gradient-13"/>
    <linearGradient id="linear-gradient-29" x1="17217.41" y1="-3458.32" x2="17217.41" y2="-3421.13" gradientTransform="matrix(0.32, 0.42, 0.69, -0.82, -1920.12, -9557.71)" xlink:href="#linear-gradient-15"/>
    <linearGradient id="linear-gradient-30" x1="14903.2" y1="-4445.92" x2="14903.2" y2="-4413.16" gradientTransform="matrix(0.4, 0.41, 0.49, -0.89, -2552.57, -9520.39)" xlink:href="#linear-gradient-13"/>
    <linearGradient id="linear-gradient-31" x1="10194.75" y1="-5343" x2="10194.75" y2="-5295.72" gradientTransform="matrix(0.7, 0.09, 0.07, -1.09, -5624.04, -6160.27)" xlink:href="#linear-gradient-15"/>
    <linearGradient id="linear-gradient-32" x1="9933.04" y1="-4646.12" x2="9933.04" y2="-4598.84" gradientTransform="matrix(0.7, 0.08, 0.04, -1.24, -5636.83, -5929.03)" xlink:href="#linear-gradient-13"/>
    <linearGradient id="linear-gradient-33" x1="10743.01" y1="-4598.3" x2="10743.01" y2="-4551.01" gradientTransform="matrix(0.69, 0.14, 0.15, -1.23, -5581.5, -6570.84)" xlink:href="#linear-gradient-15"/>
    <linearGradient id="linear-gradient-34" x1="3557.47" y1="-2966.05" x2="3557.47" y2="-2918.76" gradientTransform="matrix(0.47, -0.56, -0.8, -0.67, -2881.33, 601.63)" xlink:href="#linear-gradient-15"/>
    <linearGradient id="linear-gradient-35" x1="18694.45" y1="-3380.53" x2="18694.45" y2="-3323.7" gradientTransform="matrix(-0.31, 0.33, -0.51, -0.93, 5226.74, -8665.43)" xlink:href="#linear-gradient-15"/>
    <linearGradient id="linear-gradient-36" x1="14830.85" y1="-4544.9" x2="14830.85" y2="-4488.07" gradientTransform="matrix(-0.39, 0.22, -0.22, -1.04, 5936.13, -7457.16)" xlink:href="#linear-gradient-13"/>
    <linearGradient id="linear-gradient-37" x1="18703.73" y1="-3377.1" x2="18703.73" y2="-3320.27" gradientTransform="matrix(-0.31, 0.33, -0.51, -0.93, 5226.74, -8665.43)" xlink:href="#linear-gradient-15"/>
    <linearGradient id="linear-gradient-38" x1="2075.84" y1="-20.9" x2="2075.84" y2="19.9" gradientTransform="matrix(0.12, -0.74, -1.02, -0.16, 890.61, 2116.18)" xlink:href="#linear-gradient-15"/>
    <linearGradient id="linear-gradient-39" x1="17250.59" y1="-3206.83" x2="17250.59" y2="-3166.02" gradientTransform="matrix(0.33, 0.53, 0.79, -0.72, -1932.97, -10754.48)" xlink:href="#linear-gradient-13"/>
    <linearGradient id="linear-gradient-40" x1="2221.49" y1="-5190.84" x2="2221.49" y2="-5150.04" gradientTransform="matrix(-0.38, -0.21, 0.69, -0.8, 5552.56, -3066.2)" xlink:href="#linear-gradient-13"/>
    <linearGradient id="linear-gradient-41" x1="-1611.09" y1="-3710.29" x2="-1611.09" y2="-3672.76" gradientTransform="matrix(-0.26, -0.35, 0.94, -0.45, 4216.39, -1637.5)" xlink:href="#linear-gradient-15"/>
    <linearGradient id="linear-gradient-42" x1="10547.54" y1="-5437.09" x2="10547.54" y2="-5384.54" gradientTransform="matrix(-0.42, 0.07, 0.11, -1.07, 6207.55, -5971.28)" xlink:href="#linear-gradient-13"/>
    <linearGradient id="linear-gradient-43" x1="4630.83" y1="-5771.69" x2="4630.83" y2="-5715.64" gradientTransform="matrix(0.37, 0.03, -0.25, -1.04, -2015.98, -5566.86)" xlink:href="#linear-gradient-13"/>
    <linearGradient id="linear-gradient-44" x1="-6315.18" y1="-3964.72" x2="-6315.18" y2="-3908.67" gradientTransform="matrix(0.27, -0.25, -0.94, -0.52, -851.97, -3043.3)" xlink:href="#linear-gradient-24"/>
    <linearGradient id="linear-gradient-45" x1="25858.02" y1="-167.6" x2="25858.02" y2="-111.55" gradientTransform="matrix(0, 0.38, 0.99, -0.4, 1299.27, -9215.66)" xlink:href="#linear-gradient-13"/>
    <linearGradient id="linear-gradient-46" x1="21263.52" y1="-2727.74" x2="21263.52" y2="-2671.69" gradientTransform="matrix(0.16, 0.34, 0.74, -0.78, -177.69, -8814.44)" xlink:href="#linear-gradient-13"/>
    <linearGradient id="linear-gradient-47" x1="-402.25" y1="-303.01" x2="-402.25" y2="-255.28" gradientTransform="matrix(0.2, -0.57, -0.9, -0.27, 19.7, 472.56)" xlink:href="#linear-gradient-13"/>
    <linearGradient id="linear-gradient-48" x1="4030.74" y1="-4989.28" x2="4030.74" y2="-4924.61" gradientTransform="matrix(0.51, -0.14, -0.33, -1.01, -3483.36, -3701.43)" xlink:href="#linear-gradient-13"/>
    <linearGradient id="linear-gradient-49" x1="18424.74" y1="-3984.63" x2="18424.74" y2="-3931.9" gradientTransform="matrix(0.24, 0.51, 0.82, -0.59, -993.44, -11001.12)" xlink:href="#linear-gradient-15"/>
    <linearGradient id="linear-gradient-50" x1="18438.32" y1="-3971.99" x2="18438.32" y2="-3919.26" gradientTransform="matrix(0.24, 0.51, 0.82, -0.59, -993.44, -11001.12)" xlink:href="#linear-gradient-15"/>
    <linearGradient id="linear-gradient-51" x1="1557.42" y1="-3792.54" x2="1557.42" y2="-3743.14" gradientTransform="matrix(0.45, -0.32, -0.59, -0.84, -2702.79, -1880.6)" xlink:href="#linear-gradient-13"/>
    <linearGradient id="linear-gradient-52" x1="8939.66" y1="-5848.64" x2="8939.66" y2="-5763.81" gradientTransform="matrix(0.51, 0.19, 0.13, -1.07, -3571.37, -7104.75)" xlink:href="#linear-gradient-15"/>
    <linearGradient id="linear-gradient-53" x1="20131.81" y1="-2324.86" x2="20131.81" y2="-2279.34" gradientTransform="matrix(0.09, 0.57, 0.93, -0.37, 507.21, -11623.71)" xlink:href="#linear-gradient-15"/>
    <linearGradient id="linear-gradient-54" x1="2098.52" y1="-4242.15" x2="2098.52" y2="-4185.75" gradientTransform="matrix(0.47, -0.27, -0.52, -0.9, -2981.73, -2438.88)" xlink:href="#linear-gradient-13"/>
    <linearGradient id="linear-gradient-55" x1="15042.18" y1="-4790.07" x2="15042.18" y2="-4740.05" gradientTransform="matrix(0.34, 0.47, 0.61, -0.81, -2024.59, -10123.99)" xlink:href="#linear-gradient-13"/>
    <linearGradient id="linear-gradient-56" x1="433.97" y1="-2768.79" x2="433.97" y2="-2724.29" gradientTransform="matrix(-0.11, -0.6, 0.83, -0.13, 2566.39, 676.23)" xlink:href="#linear-gradient-15"/>
    <linearGradient id="linear-gradient-57" x1="8179.72" y1="-5734.62" x2="8179.72" y2="-5658.09" gradientTransform="matrix(-0.44, -0.21, 0.41, -0.95, 6177.59, -2946.77)" xlink:href="#linear-gradient-13"/>
    <linearGradient id="linear-gradient-58" x1="8173.84" y1="-5736.9" x2="8173.84" y2="-5663.92" gradientTransform="matrix(-0.44, -0.21, 0.41, -0.95, 6177.59, -2946.77)" xlink:href="#linear-gradient-13"/>
    <linearGradient id="linear-gradient-59" x1="8607.64" y1="-5777.08" x2="8607.64" y2="-5656.95" gradientTransform="matrix(-0.45, -0.2, 0.38, -0.97, 6261.66, -3091.26)" xlink:href="#linear-gradient-13"/>
    <linearGradient id="linear-gradient-60" x1="22796.72" y1="283.3" x2="22796.72" y2="344.7" gradientTransform="matrix(-0.16, 0.5, -0.91, -0.37, 4025.54, -10460.5)" xlink:href="#linear-gradient-24"/>
    <linearGradient id="linear-gradient-61" x1="10705.49" y1="-5786.3" x2="10705.49" y2="-5668.18" gradientTransform="matrix(-0.47, -0.11, 0.23, -1.03, 6579.35, -3930.64)" xlink:href="#linear-gradient-15"/>
    <linearGradient id="linear-gradient-62" x1="8145.37" y1="-5732.27" x2="8145.37" y2="-5675.12" gradientTransform="matrix(-0.44, -0.21, 0.41, -0.95, 6177.59, -2946.77)" xlink:href="#linear-gradient-13"/>
    <linearGradient id="linear-gradient-63" x1="4874.63" y1="-5281.94" x2="4874.63" y2="-5232.36" gradientTransform="matrix(-0.36, -0.39, 0.62, -0.74, 5267.47, -1257.78)" xlink:href="#linear-gradient-13"/>
    <linearGradient id="linear-gradient-64" x1="-1219.22" y1="-1514.28" x2="-1219.22" y2="-1472.45" gradientTransform="matrix(-0.02, -0.55, 0.92, -0.07, 1599.08, 12.6)" xlink:href="#linear-gradient-15"/>
    <linearGradient id="linear-gradient-65" x1="22033.49" y1="-854.32" x2="22033.49" y2="-810.99" gradientTransform="matrix(-0.22, 0.48, -0.82, -0.53, 4390.91, -10230.45)" xlink:href="#linear-gradient-13"/>
    <linearGradient id="linear-gradient-66" x1="22773.29" y1="1467.4" x2="22773.29" y2="1510.73" gradientTransform="matrix(-0.05, 0.53, -0.95, -0.22, 2683.2, -10863.08)" xlink:href="#linear-gradient-13"/>
    <linearGradient id="linear-gradient-67" x1="21055.61" y1="-588.73" x2="21055.61" y2="-545.4" gradientTransform="matrix(-0.02, 0.57, 1.18, -0.2, 1376.52, -11308.77)" xlink:href="#linear-gradient-13"/>
    <linearGradient id="linear-gradient-68" x1="20740.26" y1="-1872.6" x2="20740.26" y2="-1807.7" gradientTransform="matrix(-0.29, 0.42, -0.63, -0.82, 5061.05, -9557.71)" xlink:href="#linear-gradient-24"/>
    <linearGradient id="linear-gradient-69" x1="18641.99" y1="-2936.43" x2="18641.99" y2="-2877.14" gradientTransform="matrix(-0.36, 0.41, -0.45, -0.89, 5639.44, -9520.39)" xlink:href="#linear-gradient-13"/>
    <linearGradient id="linear-gradient-70" x1="13360.51" y1="-5247.19" x2="13360.51" y2="-5151.94" gradientTransform="matrix(-0.64, 0.09, -0.06, -1.09, 8447.33, -6160.27)" xlink:href="#linear-gradient-24"/>
    <linearGradient id="linear-gradient-71" x1="13095.58" y1="-4606.03" x2="13095.58" y2="-4510.47" gradientTransform="matrix(-0.64, 0.08, -0.04, -1.24, 8459.37, -5929.03)" xlink:href="#linear-gradient-13"/>
    <linearGradient id="linear-gradient-72" x1="13910.26" y1="-4395.35" x2="13910.26" y2="-4300.67" gradientTransform="matrix(-0.63, 0.14, -0.14, -1.23, 8408.65, -6570.84)" xlink:href="#linear-gradient-15"/>
    <linearGradient id="linear-gradient-73" x1="5320.69" y1="-4717.11" x2="5320.69" y2="-4630.33" gradientTransform="matrix(-0.43, -0.56, 0.73, -0.67, 5939.83, 601.63)" xlink:href="#linear-gradient-24"/>
    <linearGradient id="linear-gradient-74" x1="14340.8" y1="-5108.89" x2="14340.8" y2="-5004.97" gradientTransform="matrix(0.28, 0.33, 0.46, -0.93, -1473.15, -8665.43)" xlink:href="#linear-gradient-24"/>
    <linearGradient id="linear-gradient-75" x1="9854.96" y1="-5807.06" x2="9854.96" y2="-5696.25" gradientTransform="matrix(0.36, 0.22, 0.2, -1.04, -2121.74, -7457.16)" xlink:href="#linear-gradient-13"/>
    <linearGradient id="linear-gradient-76" x1="14355.38" y1="-5103.41" x2="14355.38" y2="-4999.5" gradientTransform="matrix(0.28, 0.33, 0.46, -0.93, -1473.15, -8665.43)" xlink:href="#linear-gradient-24"/>
    <linearGradient id="linear-gradient-77" x1="2285.13" y1="-2182.76" x2="2285.13" y2="-2116.89" gradientTransform="matrix(-0.11, -0.74, 0.93, -0.16, 2491.67, 2116.18)" xlink:href="#linear-gradient-24"/>
    <linearGradient id="linear-gradient-78" x1="2281.01" y1="-2165.46" x2="2281.01" y2="-2099.58" gradientTransform="matrix(-0.11, -0.74, 0.93, -0.16, 2491.67, 2116.18)" xlink:href="#linear-gradient-24"/>
    <linearGradient id="linear-gradient-79" x1="1591.05" y1="840.75" x2="1591.05" y2="906.62" gradientTransform="matrix(0.22, -0.71, 0.91, 0.25, -871.27, 1697.03)" xlink:href="#linear-gradient-24"/>
    <linearGradient id="linear-gradient-80" x1="19950.89" y1="-1495.85" x2="19950.89" y2="-1426.63" gradientTransform="matrix(-0.3, 0.53, -0.72, -0.72, 5073.03, -10754.48)" xlink:href="#linear-gradient-13"/>
    <linearGradient id="linear-gradient-81" x1="-2005.8" y1="-4298.57" x2="-2005.8" y2="-4220.17" gradientTransform="matrix(0.35, -0.21, -0.63, -0.8, -1771.46, -3066.2)" xlink:href="#linear-gradient-13"/>
    <linearGradient id="linear-gradient-82" x1="-4228.59" y1="-2074.03" x2="-4228.59" y2="-2008.73" gradientTransform="matrix(0.24, -0.35, -0.86, -0.45, -549.54, -1637.5)" xlink:href="#linear-gradient-15"/>
    <linearGradient id="linear-gradient-83" x1="5191.56" y1="-5962.66" x2="5191.56" y2="-5856.02" gradientTransform="matrix(0.39, 0.07, -0.1, -1.07, -2369.59, -5971.28)" xlink:href="#linear-gradient-13"/>
    <linearGradient id="linear-gradient-84" x1="10677.56" y1="-5781.28" x2="10677.56" y2="-5667.06" gradientTransform="matrix(-0.34, 0.03, 0.23, -1.04, 5148.6, -5566.86)" xlink:href="#linear-gradient-13"/>
    <linearGradient id="linear-gradient-85" x1="-3689.13" y1="-5576.51" x2="-3689.13" y2="-5476.34" gradientTransform="matrix(-0.25, -0.25, 0.86, -0.52, 4084.73, -3043.3)" xlink:href="#linear-gradient-15"/>
    <linearGradient id="linear-gradient-86" x1="28759.04" y1="2063.21" x2="28759.04" y2="2151.88" gradientTransform="matrix(0, 0.38, -0.91, -0.4, 2117.84, -9215.66)" xlink:href="#linear-gradient-13"/>
    <linearGradient id="linear-gradient-87" x1="26252.05" y1="-779.86" x2="26252.05" y2="-684.39" gradientTransform="matrix(-0.14, 0.34, -0.67, -0.78, 3468.35, -8814.44)" xlink:href="#linear-gradient-13"/>
  </defs>
  <g class="cls-2">
    <g id="Layer_1" data-name="Layer 1">
      <g id="SC_05">
        <g class="cls-3">
          <g id="SC_37">
            <g class="cls-4">
              <g>
                <rect class="cls-5" x="1341.36" width="1607" height="471.32"/>
                <path class="cls-6" d="M1343.36,483s637.34-16.26,1067.35.76c306.38,12.13,537.08-10,537.08-10L2946.36,687l-1,168h-1602Z"/>
                <path class="cls-7" d="M1796.36-13.3l10-1.82C1840-18.34,1866.69-3,1873.7,3.15c28,24.69,107.69,110.9,144.89,259.87,27.38,109.64,28.14,220,28.14,220h-974.3S1405,429.1,1497.12,300c86.33-121.06,201.37-268.23,278.29-305.44A96.65,96.65,0,0,1,1796.36-13.3Z"/>
                <path class="cls-8" d="M1407,391.73s.64-43.11,30.2-48.68S1485.41,359,1485.41,359s7.07-21.49,28.27-24.27,37.87,20.17,37.87,20.17,43.73-11.83,46.94,22.25c0,0,38.55-14.6,45.61,27.82,0,0,27.63-4.87,31.49,24.34,0,0,51.39-8.35,43.68,23.64,0,0,40.48-6.95,27,22.95H1449.44Z"/>
                <path class="cls-9" d="M1298.81,500.57s-46.37-37.68,32.26-52.95c0,0-26.21-27.5,0-50.92,0,0,19.15-19.34,52.42-7.12,0,0,38.3-40.74,91.73-15.28,0,0,47.37-15.27,78.62,3.06S1574,433.25,1574,433.25s45.75-17.76,64.86,21.46c0,0,60.59-13.31,60.6,26.43,0,0,46-11.6,80.73,27.28,0,0,64-26.18,49.86-2.76l-24.2,11.21L1309.9,507.7Z"/>
                <path class="cls-10" d="M1364.59,519.58s-35-45.35,6.47-89c31.25-32.86,68.53-25.3,68.53-25.3s24.1-20.44,50.71-22.14,52.08,21.24,52.08,21.24,43.65-8.29,63.77,8.4c28.6,23.73,22,39.22,22,39.22s22.24-7,47.28,45.56c0,0,46.95-13.56,53.21,22l-71.68,10.52-292.34.17Z"/>
                <g>
                  <path class="cls-11" d="M1259.36,172.4s38.49,22.55,37.76,55.31c-.13,5.76.37,23.36-12.64,31-9,5.35-20,3.22-21.65,2.88-20.42-4.25-32.58-26.86-44.49-49-9.74-18.12-14.22-32.26-25.78-33.82-1.39-.19-5.89-.8-8.66,1.58-8.62,7.38,6.26,37.82,23,59.32,13.1,16.86,24.48,24.56,21.53,34.82-2.29,8-11.67,12-12.57,12.38-7.51,3.12-15.87,2.1-27.62-2.07a137.44,137.44,0,0,1-44.87-26.46c-29.23-27.14-52.62-56.15-67.08-75.42l-10,9q9.32,14.19,18.65,28.37c-2.36-3.54-13.28-19-34.44-23.21a56.36,56.36,0,0,0-21.53,0c11,3.79,26.88,10.85,40.19,24.5,14.53,14.91,15.21,26.6,30.14,47.72,11.11,15.72,24.46,28.64,34.44,36.1,34.7,25.94,81.37,25.27,104.78,23.22,9.76,1.06,22.81,4.05,33,12.89,20.39,17.7,16,47.27,10.21,82.64-9.52,58-39.17,128.54-53.1,143.09-13,13.56,154,32.21,199,19.78,29.41-.2,42-8.5,48.19-15.33,37-41.07-69.47-130.51-39.22-232.76,3.26-11,14.06-47.53,44.49-58,18-6.19,26.19,2.39,51.67,0,49.57-4.65,81.94-43.07,84.68-46.42,25.23-30.84,32.5-75.22,32.5-75.23h0l-21.39,2.81c-1,7.78-7,48.82-41.25,64.68-4.06,1.88-22.81,10.55-34.29,3.5-16.15-9.91-6.24-43.55-4.43-46.7,6.91-12.06,23-35,23-35l-53.2,6c2.51,29.08-8.86,54.65-30.57,65.34-2.9,1.42-19.47,9.57-32.64,3.49-15.93-7.35-22.72-33.62-10.29-64.1l-19.58-6.42s-12,102-30,112.43c-31.1,18.14-54.14-43.63-46.07-106h-23s15,68.22-3.46,43.85-36.85-30.78-36.85-30.78h0"/>
                  <path class="cls-12" d="M1466,25.9s39-17.54,100.28-17.28,129.92,39,111,63.63-30.51,38.82-115.43,38.61S1380.18,73,1466,25.9Z"/>
                  <path class="cls-13" d="M1450.62-99.88c163.5,44,179.74,96.7,176.41,120.82,0,0,.35,41.3-168.47,83h0s-99,34.12-281.83,16.22c-55.49-5.43-147-27-159.69-75.23-9.31-35.48,28.77-71.61,42.54-84.68C1171.81-146.22,1395.61-109.95,1450.62-99.88Z"/>
                  <path class="cls-14" d="M1445.47-98.88C1609-55,1625.25-2.5,1621.93,21.51c0,0,.36,41.14-168.42,82.61h0s-99,33.95-281.82,16c-55.48-5.43-147-27-159.71-75-9.33-35.33,28.73-71.31,42.5-84.32C1166.65-145.14,1390.46-108.94,1445.47-98.88Z"/>
                  <path class="cls-15" d="M1710.78,113.22s-42.42,10.38-231.4,11.66l.3-137c4.45-1.27,36.85-8,118.9,15,99.66,27.87,187,87.39,122.48,107.59"/>
                  <path class="cls-16" d="M1710.17,118.75s-43.22,10.5-235.78,11.8L1474.7-8c4.54-1.28,37.54-8.07,121.14,15.13,101.55,28.19,190.54,88.39,124.8,108.83"/>
                  <path class="cls-13" d="M1226.88,188.27c18.13,2.28,21.17,1.41,91.76,1.35,15,0,78.86,0,207.24-3.66,54-1.52,135.34-12.6,157.47-21.77,7.39-3.06,22.13-10.4,22.65-30.5,1.2-45.81-43.4-72.18-57.46-85-13.11-12-46.29-26.47-55.09-29.67C1486.2-19.93,1399-31.77,1399-31.77c-20.85-4.31-185.25-36.08-279,52.64-8.62,8.15-61.62,57.74-46.1,100.8C1091.81,171.26,1190.21,183.65,1226.88,188.27Z"/>
                  <path class="cls-17" d="M1224.73,192.6C1243,194.9,1246,194,1317,194c15.09,0,79.27,0,208.3-3.67,54.27-1.53,136-12.67,158.26-21.88,7.43-3.07,22.24-10.44,22.77-30.64,1.21-46-43.62-72.51-57.75-85.41-13.18-12-46.52-26.59-55.37-29.8-107.8-39.12-195.42-51-195.42-51-21-4.33-186.19-36.24-280.4,52.88-8.66,8.2-61.93,58-46.33,101.27C1089,175.51,1187.88,188,1224.73,192.6Z"/>
                </g>
                <g>
                  <path class="cls-18" d="M1562.88,583s-47.36-35.59,8.74-69.84c42.22-25.79,92.6-19.85,92.6-19.85s32.58-16.05,68.53-17.37,70.38,16.66,70.38,16.66,59-6.5,86.17,6.59C1928,517.83,1919,530,1919,530s47.43,0,81.27,41.22c0,0,224.91,10.73,234.88,26l-277.21-6-395,.13Z"/>
                  <path class="cls-19" d="M1309.62,588.24s73.73-87.57,155.15-62.27c0,0,65.54-45.22,113.9,11.62,0,0,84.47-5,100.8,28.2,0,0,78.59-6.64,101,31.51l22,14.91-500.91,1.67Z"/>
                </g>
                <g>
                  <path class="cls-20" d="M1378.92,632.81s-22.75-49.95-12.21-74.36,38.85,26.31,38.29,63.38c.56,16,7.22,4.32,11.66-10.67s20.53-35,39.95-41.62,20,15.54-12.76,43.29-24.42,35-8.32,20c18.31-16.65,13.31-11.6,21.64-15.24s42.12,1.36,2.74,34.11L1442.18,660H1359.5l-3.33-19.1s17.76,1.9,9.43-2.54-41.06-29.15-27.19-32.34S1356.17,602.29,1378.92,632.81Z"/>
                  <path class="cls-20" d="M1401,650.74s41.94-67,61.2-74"/>
                  <line class="cls-20" x1="1396.9" y1="650.74" x2="1374.21" y2="564.67"/>
                  <line class="cls-20" x1="1420.08" y1="653.65" x2="1468.42" y2="625.54"/>
                </g>
                <path class="cls-21" d="M1867.84,669.29c281,56.15,500.73,48.63,650,31.18,137.12-16,401.83-62.3,430.68,8.53,3.5,8.6,1.3,13.46,0,76-1,49-.55,89,0,115H1346.36V657Z"/>
                <g>
                  <path class="cls-20" d="M1346.36,830c68.06-3.07,119.57-3.43,228-1,30.69.69,81.73,2.18,153.73,6.38,186.23,10.87,330.61,29.2,354.66,32.15,126.52,15.5,389.1,25.35,858.61,5.47-2.4,32.1.22-.41,4.63,18.57a7,7,0,0,1-6.88,8.44c-528.65,1-1064.16-1-1592.75,0C1344.7,849.33,1348,880.67,1346.36,830Z"/>
                  <g>
                    <path class="cls-20" d="M1590.8,829.84s.34-36.9-6.11-39.31-21.48,11.3-9.72,25.38C1583.05,825.59,1590.8,829.84,1590.8,829.84Z"/>
                    <path class="cls-20" d="M1574.16,829s-7.7-32.05-20.69-34.21S1574.16,829,1574.16,829Z"/>
                    <path class="cls-20" d="M1590,828.9s22-11.14,18.89-19S1591.8,815.48,1590,828.9Z"/>
                    <path class="cls-20" d="M1482.16,827.76s.91-42.67-38.7-55.62c-11.85-3.87,6.73,6.63,21.42,38.16,0,0,2.69,7.33,2.11,9.37s-24.92-38.14-41.82-40.87c0,0,31.58,34.47,34.6,46C1459.77,824.83,1470.21,850.21,1482.16,827.76Z"/>
                    <path class="cls-20" d="M1402,823.92s17.59-13.85,6.77-18.31S1387.62,825.67,1402,823.92Z"/>
                    <path class="cls-20" d="M1387.73,832.05s16-27.06.34-36.9S1378.89,827.28,1387.73,832.05Z"/>
                  </g>
                </g>
                <g>
                  <path class="cls-21" d="M1598.88,740s5.42-26.31,10.59-30.24S1589.83,714.11,1598.88,740Z"/>
                  <path class="cls-21" d="M1595.78,740s.25-21.92-10.86-25.3S1591.38,729,1595.78,740Z"/>
                  <path class="cls-21" d="M1592.16,740s-9-9-26-9.58S1581.56,723.54,1592.16,740Z"/>
                  <path class="cls-21" d="M1590.69,740a32.53,32.53,0,0,0-24.63-9.42C1550.55,731.39,1586.9,736.89,1590.69,740Z"/>
                </g>
                <rect class="cls-22" x="1345.36" width="1605" height="898"/>
              </g>
            </g>
          </g>
        </g>
      </g>
      <g class="cls-23">
        <rect class="cls-24" x="453.82" y="-506.78" width="692.36" height="1667.85" transform="translate(472.85 1127.15) rotate(-90)"/>
        <path class="cls-25" d="M-27.1,536.3a787.75,787.75,0,0,1,97.63-10.79c28.75-1.35,36.13-.06,97.05-1.36,52.22-1.12,50.07-2.14,66-1.37,44.38,2.14,51.17,9.5,95.69,13.74,29.52,2.8,51.12,1.8,94.32-.22,58.69-2.74,55.82-6.85,95-7.58,48.41-.89,46.23,5.51,122,7.58,40.06,1.1,60.09,1.64,88.64-1.26,21.15-2.15,29.47-4.38,49.88-4.52,26.57-.18,32.47,3.48,65,5.78,15.93,1.13,40,2.73,68.74,0,35.07-3.34,37.93-9.42,69.89-13,13.36-1.48,15.14-.68,79.73,2.18,72.77,3.21,88.48,3,98.4,2.72,8.07-.21,8.33-.33,48.6-1.74,39.34-1.37,42.93-1.39,49.68-1.67,75.74-3.24,81.78-21,129.51-15.66,14.84,1.67,32.36,5.66,67.4,13.62,13.85,3.15,28,6.59,48.26,8.62,14,1.4,23.78,1.41,33.65,1.54,17.58.25,43.05,1,75.57,3.36V900H-27.1Z"/>
        <g>
          <g>
            <g>
              <path class="cls-26" d="M1276.05,584.21s-9.92-6.85-9-13.06,10.78,6.12,10.78,6.12-3.82-8.46,0-12.1,5.63,10.58,5.63,10.58,4.48-8.6,7.63-7.29-6,17.31-6,17.31Z"/>
              <g class="cls-27">
                <path class="cls-26" d="M1279.94,579.5c-2,1.23-2.51.4-5.37-1.4-1.52-1-3.56-.67-5.14-.2a32.54,32.54,0,0,0,6.62,6.31l9.07,1.56s1-1.76,2.22-4.13c-1-.59-2-1.55-3.4-2.34C1280.29,577.17,1281.94,578.26,1279.94,579.5Z"/>
              </g>
            </g>
            <path class="cls-28" d="M1285.92,577.17s4.1-7.92,4.58-6.5S1286.55,582.51,1285.92,577.17Z"/>
            <path class="cls-28" d="M1280.11,574.48s-2.25-6.29-.34-8.11C1281.15,565.84,1282.15,579.59,1280.11,574.48Z"/>
          </g>
          <g>
            <g>
              <path class="cls-26" d="M1428.27,460.75s-10.23-6.08-9.62-12.37,11,5.25,11,5.25-4.25-8.16-.66-12.14,6.17,10.16,6.17,10.16,4-9,7.18-7.92-5,17.83-5,17.83Z"/>
              <g class="cls-27">
                <path class="cls-26" d="M1431.87,455.7c-1.92,1.39-2.46.61-5.41-1-1.56-.83-3.57-.37-5.11.24a31.73,31.73,0,0,0,6.92,5.79l9.08.81s.9-1.83,2-4.32c-1-.49-2.11-1.38-3.5-2.07C1432.1,453.34,1433.79,454.3,1431.87,455.7Z"/>
              </g>
            </g>
            <path class="cls-28" d="M1437.7,452.88s3.64-8.28,4.19-6.87S1438.61,458.18,1437.7,452.88Z"/>
            <path class="cls-28" d="M1431.77,450.66s-2.57-6.12-.78-8.1C1432.34,441.92,1434.09,455.62,1431.77,450.66Z"/>
          </g>
          <g>
            <g>
              <path class="cls-26" d="M1324.67,441.87s-10.23-6.07-9.62-12.36,11,5.26,11,5.26-4.26-8.18-.66-12.12,6.17,10.14,6.17,10.14,4-9,7.18-7.92-5,17.82-5,17.82Z"/>
              <g class="cls-27">
                <path class="cls-26" d="M1328.27,436.84c-1.92,1.39-2.46.6-5.4-1-1.57-.84-3.59-.37-5.13.23a31.46,31.46,0,0,0,6.93,5.78l9.09.82s.89-1.83,2-4.3c-1-.51-2.1-1.4-3.49-2.08C1328.5,434.47,1330.2,435.44,1328.27,436.84Z"/>
              </g>
            </g>
            <path class="cls-28" d="M1334.09,434s3.65-8.27,4.2-6.86S1335,439.32,1334.09,434Z"/>
            <path class="cls-28" d="M1328.16,431.79s-2.56-6.11-.76-8.09C1328.73,423.05,1330.48,436.76,1328.16,431.79Z"/>
          </g>
          <g>
            <path class="cls-29" d="M1252.34,688.47s-20.21,23.24-35.3-27.54c-14.32-24.89-31.23-83.85-14.46-116.2,11.54-13.37,10.6,1.9,20.81,16.58s36.94,61.74,32.66,89.66S1252.34,688.47,1252.34,688.47Z"/>
            <path class="cls-30" d="M1246.62,692.42s-8.3-5.91-11.55-22.93-15.93-13.74-20-33-1.45-20.93-4.79-32.49-12.33-42.76-5.28-56.61c-2,8.79-5.23,25,1.36,50.59,6.41,27.39,1.83,32.36,9,46.32s11.27,12.09,14.13,23.72S1237.56,693.89,1246.62,692.42Z"/>
            <path class="cls-30" d="M1248.24,678.24s-16.8-25.1-14.61-38.76-5-18.55-9-31.2-4-6.61-4.59-19.22-13.76-30.43-6.89-45.45c.39-.67-1.42,15.35,6,34.1s.1,18.74,7.92,30.78,12.61,20.34,10.89,30.89S1239.07,667,1248.24,678.24Z"/>
            <g class="cls-31">
              <path class="cls-32" d="M1242.86,602.9c5.45,18.47,5.94,20.42,7.22,10.73h0c-7.71-21.7-20.37-43.23-26.69-52.32-7.08-10.16-8.81-20.59-13-21.62a95.38,95.38,0,0,0,6.91,20.18C1226.45,580.16,1237.42,584.44,1242.86,602.9Z"/>
            </g>
            <g class="cls-33">
              <path class="cls-34" d="M1246.4,624.71c-4.67,13.46-12.68.25-10.77,12s-2.27,28.18-11.72,15.21-8.22-23.47-16-44c-5.66-15-8.31-40.49-9.32-53.14-9.56,33.38,5.48,83.63,18.41,106.11,15.09,50.78,35.3,27.54,35.3,27.54s-.58-9.58,3.71-37.5c1.63-10.62-1.25-24-6-37.34C1249.33,616.64,1248.09,619.85,1246.4,624.71Z"/>
            </g>
          </g>
          <g>
            <path class="cls-29" d="M1350.48,591.07s-23.83,17.62-30.67-35.11c-10.22-27.53-17.55-88.63,4.33-115.89,13.61-10.16,10.22,4.39,18,21s26.79,68.6,18,94.58S1350.48,591.07,1350.48,591.07Z"/>
            <path class="cls-30" d="M1344.15,593.52s-7.3-7.71-7.79-24.95-13.63-17.13-14.61-36.77,1.93-20.61.47-32.59-5.37-44.32,3.86-56c-3.4,8-9.22,23-6.78,49.26,2,28-3.39,31.75,1.48,47s9.25,14.4,10.23,26.33S1334.91,592.77,1344.15,593.52Z"/>
            <path class="cls-30" d="M1348,580.19s-12.66-28.32-8.29-41-2-19.14-3.91-32.35-2.92-7.36-1.47-19.68-8.76-32.75.47-45.63c.49-.55-3.88,14.52.5,34.43s-2.91,18.15,2.93,31.68,9.26,22.71,5.86,32.5S1340.73,567.14,1348,580.19Z"/>
            <g class="cls-33">
              <path class="cls-34" d="M1354.82,528c-6.8,11.9-12.65-2.8-12.64,9s-6.8,26.72-14.1,11.9-4.39-24.67-8.78-46.38c-3.2-15.86-1.74-41.17-.72-53.64-14.87,30-8,82.2,1.23,107.07,6.84,52.73,30.67,35.11,30.67,35.11s1-9.41,9.7-35.39c3.33-9.88,2.63-23.53.07-37.56C1359,520.86,1357.27,523.67,1354.82,528Z"/>
            </g>
          </g>
          <path class="cls-29" d="M1394.62,572.83s.19-7.9,8.2-15.85,17.55-9.51,13.44-25.77-12.14-62.75,1.4-69.79,41.21-5.46,45.33,38,2.32,77.65,4.53,100.28-5.32,42.6-26.3,52.06-44.27-4.32-46.85-20.22S1394.62,572.83,1394.62,572.83Z"/>
          <g>
            <path class="cls-30" d="M1396.28,585.26s23.11-4.66,29.67-18.43,4.08-13.36,4.15-28.8-6.46-26.18-9-35.28-8.38-13.15-8.38-13.15,6.72.72,10.74,14.13,10.23,22.38,10.1,46.45-9.21,26.89-15.37,29.71S1397.21,591,1396.28,585.26Z"/>
            <path class="cls-30" d="M1395.49,600.81a115,115,0,0,0,24.33-6.22c11.73-4.63,15.73-9.36,20-19.12s7.86-21.7,5.78-34.52-7.74-45.46-9.25-54.74-3.44-21.22-7.45-25.55,3.5-5.58,7.09,14.26,8.75,49.39,10.4,59.55a75.16,75.16,0,0,1-4.49,40.2c-6.29,15.54-9.94,18-19.53,22.23S1395.49,600.81,1395.49,600.81Z"/>
            <path class="cls-30" d="M1396.37,631.81s15.45-.53,28.25-.8,23.25-8.32,28.9-23.29,4.27-46.06,3.19-59.49-8.61-78-13.62-86.24c2.72,5.45,5.57,7.25,8.74,31.24s10.26,76.8,6.76,100.51-10.57,34.38-24.3,38S1396.8,637.5,1396.37,631.81Z"/>
          </g>
          <g class="cls-35">
            <path class="cls-36" d="M1405.32,599.52c.66-14-8.23-19.39,1.71-19.63,13.16-.33,25.26-28.3,21.91-48.92s-6.11-19.58-11.84-45.86c-2.91-13.36.39-21,4.37-25.29a28.11,28.11,0,0,0-3.81,1.6c-13.54,7-5.51,53.52-1.4,69.79S1410.83,549,1402.82,557s-8.2,15.85-8.2,15.85-2.83,42.8-.25,58.72,25.86,29.67,46.85,20.22a2.21,2.21,0,0,1,.34-.18C1400.77,656,1404.67,613.26,1405.32,599.52Z"/>
          </g>
          <path class="cls-29" d="M1332.12,947.7s3.41-60.44-1.56-69.9-15.55-8.36-25.38-20.69-27.87-36-34-73.71-6-46.21-12.33-63.93-17.38-28.64-12.71-57.22,6.55-62.15,15.23-69,4.28-9.77,17.55-9.5S1312.4,594,1316,616.43s5.18,56,9.2,80.78,7.45,36.89,8.22,38.57,11-7.82,9.61-25.14-19.42-119.64-2.35-147.21,39-25.08,49.6-8,11.38,45.94,8.63,92.35,3,78.75,14.27,124.11,7.76,56.79,1.27,59.06,11.64,5.37,18.21-14.45,13.92-28.87,25.74-31.4S1490,801.7,1478,848.41c-7.72,15.77-9.72,18.51-10.48,28.92s-35.67,21.52-50.75,13.07-18.32-16.38-18.6-3S1332.12,947.7,1332.12,947.7Z"/>
          <path class="cls-30" d="M1408,866.44s.2,13.26,19.37,10.76,22.42-3.64,29.19-7.17,13.36-8.21,16.69-14.8c-3.53,2.38-.09,14.53-15.16,18.19s-25.47,9-35.48,7.57S1409.64,879.46,1408,866.44Z"/>
          <path class="cls-30" d="M1367.48,882.83s-.86-5.3.78-17.82a113.76,113.76,0,0,0,1-21s2.8,12.71,1.65,19.23-.34,18.2-.13,19.54S1367.48,882.83,1367.48,882.83Z"/>
          <path class="cls-30" d="M1334.88,732.53s1.54,18.49,15.57,38.6,23.79,65.1,11.86,76.11c0,0,16.59-15.4,5.51-44.46S1336.51,742.54,1334.88,732.53Z"/>
          <g>
            <path class="cls-30" d="M1287,585.46a77.5,77.5,0,0,1,6.12,37.71c-1.9,21.48-2,36,3.93,48.36s16.33,49.36,19.68,63.94,4.3,17.45,9.36,27.51,8.31,33.14,5.93,45.61-.17,13.95.21,25.38-3.15,7.76,5,15.53,11.54,4.78,10.31,21.31,4,27.76,5.35,36-5-21.57-1.44-36.06c1.23-10.47,2-11.8-5.35-17.88s-11.64-5.35-11.36-24.76,2.18-34.83.74-43.66-10.7-29.73-12.71-39.08-14.62-59.93-20.06-72.34-9.08-19.7-8.12-28.93S1302.39,607.76,1287,585.46Z"/>
            <path class="cls-30" d="M1278,583.9s5.55,28.12,2.41,45-4.28,30.92-6.56,41,4.58,25.28,8.31,33.14,12.13,38.56,14.52,53.29,3.83,26.59,10.8,39.37,8.3,18,9.93,31.05,1.64,22.12,8.6,31.87,6.4,12.27,6.4,12.27-14.13-8.6-16.62-30-5-33.68-10.6-44.25S1297.22,778,1295,764.4s-11.28-51.4-17-62.56-9.26-23.89-6.79-35.8,7.24-36.85,7-47.11S1281.11,591.25,1278,583.9Z"/>
            <path class="cls-30" d="M1351.49,551.4s-2.65,28.86.51,48.31,10.12,44.32,6.88,60.57,1.84,41.44,7.1,61.75,8.31,21,4.78,35.51-2.94,36.18-2.94,45.24-4.11-16.26-1.73-34.78,5.15-16.57-1.35-41.53-10.52-49.7-10-67.34,1.23-25.6-2.88-41.85S1345.11,563.32,1351.49,551.4Z"/>
            <path class="cls-30" d="M1365.62,544.87a70.62,70.62,0,0,1,4.2,41.06c-4.66,22.53,4.22,38,6.42,51.58s3.74,56.24,4.61,70.63,1.26,28.83,3.75,44.15-2.27,40.29-4.37,51.52,7.64,19.91,5.64,34.75-5.42,42-5.42,42-2.39-17.74,1.61-32.31-2.59-25-4.68-34.92,4.18-28.51,5.69-43.28-2.68-31.6-4.12-46.5-1.64-43.28-2.7-58.83-1.34-26.4-4.7-38-7.92-27.75-5.64-40.81S1370.68,561,1365.62,544.87Z"/>
            <path class="cls-30" d="M1377.15,543.6s5.74,29.32,4.89,42.16,8.6,34.89,8.7,53.62,3.18,83,9.12,107.4,15.77,76.07,1.17,82.67c-.19,1.85,13.55-10.06,4.18-46.64s-11.86-54.94-13-80.15-3.65-70.77-7.1-89S1374.49,554.32,1377.15,543.6Z"/>
            <path class="cls-30" d="M1400.67,878.51s-6.1-7.48,1.8-22.07,13.83-17.36,23.37-18.91,23.66,4,23.45-18.33,6.48-32.51,14.78-32.65c-1.43.23-12,4.38-10.58,19.27S1450,838.44,1440,840.06s-20.32,1.49-26.32,6.7S1398.09,862.59,1400.67,878.51Z"/>
            <path class="cls-30" d="M1400.67,878.51s0-15.12,17.74-14.38,26.9-3.16,35.57-16,20.31-40.81,15.91-58.84c2,6.34,5.54,7-.94,30.4s-12.67,36.53-21.07,42.13-15.64,6.17-27.37,6.25S1403.43,868.37,1400.67,878.51Z"/>
            <path class="cls-30" d="M1275.86,586.05a45.58,45.58,0,0,0-10.3,18c-3.52,11.45-1.42,18.38-1.31,34.09s-2.18,34.82-.84,49.12,5.26,32.41,13.38,55.29,12.41,28.22,14.8,43,10.79,21.24,11.47,37.46,6.31,32.85,16.81,40.21c-1-.43-16.31,2-18.62-39.31-5.27-26.37-11-25.44-13.09-38.41a118.06,118.06,0,0,0-12.42-37.29c-6.3-11.68-13.85-37.08-14.91-64.72s3.51-44.73,1.7-55.93S1263.46,594.12,1275.86,586.05Z"/>
          </g>
          <path class="cls-30" d="M1336.22,737.76a53.58,53.58,0,0,0,6.41,33.44c9.55,16.6,7.92,21.69,11.08,41.14s9.56,34.74-1.7,40.8c3.82-3.64,4.76-9.85.94-30.39s-4.88-36.11-11.46-46.53S1330,747.83,1336.22,737.76Z"/>
          <g class="cls-33">
            <path class="cls-34" d="M1351.21,763.75c-7.83-21.1-1.26-34.88-.31-53.18s-6.88-42.42-7.28-62.93.56-38.8-2.79-59.43c-1.69-10.45,2.67-23.91,7.37-34.65a63.88,63.88,0,0,0-7.48,9.87c-17.07,27.57,1,129.88,2.35,147.21,1.06,13.5-4.91,22.23-8,24.63,2.58,13.86,24.88,52.46,24.88,52.46S1359,784.86,1351.21,763.75Z"/>
          </g>
        </g>
        <g>
          <path class="cls-37" d="M1162.18,598.13s14.15-6.35,25.33-14.94c0,0-6,6.33-25.11,15.54"/>
          <path class="cls-38" d="M1154,597.23s3.64-17.91,3.47-34.34c0,0,1.54,10-2.81,34.5"/>
          <path class="cls-39" d="M1149.45,598.53s-16.56-7.73-32.57-11.4c0,0,10,.83,32.89,10.8"/>
          <path class="cls-40" d="M1155.24,598.55a147.91,147.91,0,0,0,10.79-25s-1.2,7.94-10.34,25.33"/>
          <path class="cls-41" d="M1154.34,597.65s-6.19-15-14.41-26.84c0,0,6,6.34,15,26.59"/>
          <path class="cls-42" d="M1151.86,598.83s-15.9-3.4-30.29-3.3c0,0,8.63-1.38,30.4,2.7"/>
          <path class="cls-43" d="M1163.74,598.27s6.64-14.81,9.66-29.18c0,0-.58,9-9.12,29.47"/>
          <path class="cls-44" d="M1155.33,598.8s-11.76-10.56-24-17.26c0,0,8,2.84,24.41,16.77"/>
          <path class="cls-45" d="M1152.54,597.87a121.41,121.41,0,0,1-23.46-11s5.93,5.24,23.34,11.54"/>
          <path class="cls-46" d="M1157.11,597s-6.67-20.71-9-40.27c0,0-.1,12.08,8.36,40.58"/>
          <path class="cls-47" d="M1160.43,598.57s21.22-4.86,40.91-5.52c0,0-12-1.14-41.15,4.82"/>
          <path class="cls-48" d="M1157.32,598.08s-3.68-32.76-1.31-62.51c0,0-3.78,17.9.22,62.76"/>
          <path class="cls-49" d="M1147.52,598.94a188.31,188.31,0,0,1-6.75-30.07s-.07,9,6.25,30.29"/>
          <path class="cls-50" d="M1149.83,596.35a157.2,157.2,0,0,1-13.28-24.16s2.17,8,12.9,24.53"/>
          <path class="cls-51" d="M1150.24,598.12a158,158,0,0,1-26.3-8.25s7.08,4.26,26.29,8.78"/>
          <path class="cls-52" d="M1164.14,598.51a159.74,159.74,0,0,1,26.39-8.26s-8.06.49-26.63,7.8"/>
          <path class="cls-53" d="M1160.44,597.8s15.43-14.14,31.08-23.51c0,0-10.09,4.2-31.51,22.94"/>
          <path class="cls-54" d="M1157.68,598.76s10.41-13.76,21.9-23.22c0,0-7.75,4.44-22.38,22.73"/>
          <path class="cls-55" d="M1159.91,598.51s7.44-30.38,16.53-49.51c0,0-8.13,12.72-17.26,49.42"/>
          <path class="cls-56" d="M1157.21,598.76s6.7-35,15.32-57.16c0,0-7.81,14.85-16,57.08"/>
          <path class="cls-57" d="M1162.65,599s9.83-34.21,20.42-55.53c0,0-9.12,14.08-21.15,55.39"/>
          <path class="cls-58" d="M1151.56,598.37s-19.16-23.8-28.72-42.66c0,0,5.18,14.37,28.23,43.25"/>
          <path class="cls-59" d="M1156.41,598.12s-20.41-29.1-35.9-45.57c0,0,11.55,10.08,36.29,45.16"/>
          <path class="cls-60" d="M1148.49,599.13s-11.24-33.71-21.37-53.93c0,0,8.18,13,21.86,53.66"/>
          <path class="cls-61" d="M1151.8,597.94s-20.4-29.09-35.89-45.57c0,0,11.55,10.09,36.28,45.17"/>
          <path class="cls-62" d="M1156.3,597.39s-24.36-8.92-39.53-18.56c0,0,10,8.32,39.42,19.22"/>
          <path class="cls-63" d="M1159.19,597.39s21.67-14.14,37.42-20.56c0,0-11.48,3.09-37.71,20.1"/>
          <path class="cls-64" d="M1156.29,598.12s14.37-21.18,21.7-36c0,0-4.06,10.6-21.36,36.23"/>
          <path class="cls-65" d="M1161.29,598.11s19.7-12.43,31.21-22.19c0,0-7.23,7.4-31,22.49"/>
          <path class="cls-66" d="M1152,597.31s-.3-33.62-3.36-54.95c0,0,3.39,14.26,3.85,54.87"/>
          <path class="cls-67" d="M1148.61,598.08s-5.21-35.2-5.94-57.81c0,0-.72,15.24,5.49,57.78"/>
          <path class="cls-68" d="M1153.81,599.13s-29.38-20.08-46.47-34.89c0,0,10.7,10.88,46.14,35.2"/>
          <path class="cls-69" d="M1153.33,599s33.81-10.19,55.74-14.07c0,0-14.89,1.39-55.75,13.6"/>
          <path class="cls-70" d="M1155.85,598.93s26.52-23.31,44.86-35.95c0,0-13,7.44-45.06,35.53"/>
        </g>
        <g>
          <path class="cls-71" d="M209.45,791.56S189,778.64,172.82,761.17c0,0,8.72,12.87,36.31,31.61"/>
          <path class="cls-72" d="M221.22,789.72s-5.26-36.43-5-69.84c0,0-2.23,20.24,4.06,70.18"/>
          <path class="cls-73" d="M227.85,792.37s24-15.73,47.1-23.2c0,0-14.51,1.69-47.56,22"/>
          <path class="cls-74" d="M241.57,791.92s23.95-15.73,47.1-23.2c0,0-14.5,1.69-47.55,22"/>
          <path class="cls-75" d="M219.48,792.4s-10.14-25.54-15.6-50.91c0,0,1.74,16.16,15,51.53"/>
          <path class="cls-76" d="M228.58,792.87S237,745.07,251,706.73c0,0-11,21-23.76,85.51"/>
          <path class="cls-77" d="M224.37,793s23-6.92,43.8-6.71c0,0-12.49-2.8-44,5.49"/>
          <path class="cls-78" d="M207.18,791.85s-9.59-30.14-14-59.37c0,0,.83,18.35,13.19,60"/>
          <path class="cls-79" d="M219.34,792.91s17-21.47,34.73-35.09c0,0-11.59,5.77-35.3,34.11"/>
          <path class="cls-80" d="M223.39,791s18.6-8.58,33.92-22.27c0,0-8.57,10.66-33.76,23.48"/>
          <path class="cls-81" d="M216.77,789.16s9.65-42.13,13.07-81.91c0,0,.14,24.56-12.1,82.53"/>
          <path class="cls-82" d="M218,792.4s9.2-40.18,12.46-78.11c0,0,.14,23.41-11.54,78.69"/>
          <path class="cls-83" d="M220.9,792.3s13-66.58,16.37-129.16c0,0,1.46,38.52-14.82,130.07"/>
          <path class="cls-84" d="M212,792.44s-30.68-9.87-59.15-11.21c0,0,17.38-2.33,59.5,9.8"/>
          <path class="cls-85" d="M216.47,791.47s5.33-66.64,1.9-127.16c0,0,5.47,36.41-.33,127.66"/>
          <path class="cls-86" d="M230.64,793.2s7.21-31.46,9.76-61.17c0,0,.11,18.34-9,61.63"/>
          <path class="cls-87" d="M227.3,787.94s11.77-24.2,19.21-49.14c0,0-3.13,16.23-18.66,49.9"/>
          <path class="cls-88" d="M226.71,791.55s20.4-6,38-16.79c0,0-10.25,8.66-38,17.86"/>
          <path class="cls-89" d="M206.61,792.33s-19.48-11.55-38.16-16.81c0,0,11.65,1,38.5,15.88"/>
          <path class="cls-90" d="M211.14,793.37s-22.23-4.34-41.6-3c0,0,11.31-3,41.6,2"/>
          <path class="cls-91" d="M223.05,793.37s27.58-3.65,50.84-1.33c0,0-13.25-3.72-50.7.26"/>
          <path class="cls-92" d="M212,790.89S189.64,762.12,167,743.07c0,0,14.58,8.54,45.57,46.66"/>
          <path class="cls-93" d="M216,792.84s-15.06-28-31.67-47.23c0,0,11.2,9,32.36,46.24"/>
          <path class="cls-94" d="M212.73,792.34S202,730.52,188.83,691.62c0,0,11.74,25.87,25,100.53"/>
          <path class="cls-95" d="M216.63,792.84s-9.69-71.12-22.15-116.27c0,0,11.29,30.21,23.21,116.11"/>
          <path class="cls-96" d="M208.77,793.33s-14.22-69.59-29.53-113c0,0,13.19,28.65,30.58,112.69"/>
          <path class="cls-97" d="M224.81,792s27.7-48.41,41.52-86.78c0,0-7.49,29.24-40.82,88"/>
          <path class="cls-98" d="M217.79,791.53s29.51-59.19,51.91-92.7c0,0-16.71,20.52-52.48,91.88"/>
          <path class="cls-99" d="M229.42,793.48s16.25-68.58,30.9-109.7c0,0-11.83,26.38-31.61,109.14"/>
          <path class="cls-100" d="M224.45,791.18S254,732,276.36,698.48c0,0-16.71,20.52-52.47,91.88"/>
          <path class="cls-101" d="M218,790s35.22-18.13,57.16-37.74c0,0-14.48,16.91-57,39.09"/>
          <path class="cls-102" d="M234.49,790.36s35.21-18.13,57.15-37.74c0,0-14.48,16.91-57,39.09"/>
          <path class="cls-103" d="M231.37,790.45s39.59-1.4,67.79-9.8c0,0-20.3,9.13-68.23,11.08"/>
          <path class="cls-104" d="M213.76,790.06s-31.32-28.78-54.1-41.83c0,0,16.59,6.29,54.53,40.88"/>
          <path class="cls-105" d="M218,791.54s-20.78-43.08-31.38-73.28c0,0,5.87,21.54,30.89,73.68"/>
          <path class="cls-106" d="M210.73,791.52s-28.49-25.29-45.13-45.14c0,0,10.46,15.06,44.82,45.74"/>
          <path class="cls-107" d="M224.21,789.89s.43-68.38,4.85-111.76c0,0-4.9,29-5.56,111.61"/>
          <path class="cls-108" d="M229.06,791.46s7.54-71.62,8.6-117.6c0,0,1,31-7.95,117.53"/>
          <path class="cls-109" d="M221.54,793.6s42.5-40.85,67.21-71c0,0-15.48,22.12-66.73,71.6"/>
          <path class="cls-110" d="M222.24,793.34s-48.89-20.72-80.6-28.62c0,0,21.53,2.82,80.61,27.67"/>
          <path class="cls-111" d="M218.6,793.18s-38.36-47.42-64.87-73.13c0,0,18.75,15.15,65.16,72.27"/>
        </g>
      </g>
    </g>
  </g>
</svg>
