<svg id="Layer_1" data-name="Layer 1" xmlns="http://www.w3.org/2000/svg" xmlns:xlink="http://www.w3.org/1999/xlink" width="1600" height="900" viewBox="0 0 1600 900">
  <defs>
    <style>
      .cls-1 {
        fill: none;
      }

      .cls-2 {
        clip-path: url(#clip-path);
      }

      .cls-3 {
        clip-path: url(#clip-path-2);
      }

      .cls-4 {
        fill: url(#linear-gradient);
      }

      .cls-28, .cls-5 {
        fill: #bfd9f1;
      }

      .cls-5 {
        opacity: 0.56;
      }

      .cls-6 {
        fill: #207d78;
        opacity: 0.36;
      }

      .cls-7 {
        fill: url(#linear-gradient-2);
      }

      .cls-8 {
        fill: #6c8a3b;
      }

      .cls-9 {
        fill: #c4926c;
      }

      .cls-10 {
        fill: #b6885e;
      }

      .cls-11 {
        fill: #7c451d;
      }

      .cls-12 {
        fill: #8b522b;
      }

      .cls-13 {
        fill: #1c3f1d;
      }

      .cls-14 {
        fill: #152c1a;
      }

      .cls-15 {
        fill: #122416;
      }

      .cls-16 {
        fill: #184226;
      }

      .cls-17 {
        opacity: 0.62;
      }

      .cls-18 {
        clip-path: url(#clip-path-3);
      }

      .cls-19 {
        opacity: 0.59;
      }

      .cls-20 {
        clip-path: url(#clip-path-4);
      }

      .cls-21 {
        fill: #2a7b44;
      }

      .cls-22 {
        fill: #0b1e14;
      }

      .cls-23 {
        clip-path: url(#clip-path-5);
      }

      .cls-24 {
        clip-path: url(#clip-path-6);
      }

      .cls-25 {
        fill: #229f49;
      }

      .cls-26 {
        clip-path: url(#clip-path-7);
      }

      .cls-27 {
        fill: url(#linear-gradient-3);
      }

      .cls-29 {
        fill: url(#linear-gradient-4);
      }

      .cls-30 {
        fill: url(#linear-gradient-5);
      }

      .cls-31 {
        fill: url(#linear-gradient-6);
      }

      .cls-32 {
        fill: #392512;
      }

      .cls-33 {
        fill: #1c0e2c;
      }

      .cls-34 {
        fill: url(#linear-gradient-7);
      }

      .cls-35 {
        fill: #895c3a;
      }

      .cls-36 {
        fill: url(#linear-gradient-8);
      }

      .cls-37 {
        fill: url(#linear-gradient-9);
      }

      .cls-38 {
        fill: url(#linear-gradient-10);
      }

      .cls-39 {
        opacity: 0.65;
      }

      .cls-40 {
        fill: url(#linear-gradient-11);
      }

      .cls-41 {
        fill: url(#linear-gradient-12);
      }

      .cls-42 {
        fill: url(#linear-gradient-13);
      }

      .cls-43 {
        fill: #2a6b2a;
      }

      .cls-44 {
        fill: #512c10;
      }

      .cls-45, .cls-46 {
        fill: #267f5f;
      }

      .cls-45, .cls-49 {
        opacity: 0.17;
      }

      .cls-47 {
        fill: #182d25;
      }

      .cls-47, .cls-55 {
        opacity: 0.31;
      }

      .cls-48 {
        fill: #fbf5b6;
      }

      .cls-50 {
        fill: url(#linear-gradient-14);
      }

      .cls-51 {
        fill: #aa1a55;
      }

      .cls-52 {
        opacity: 0.12;
        fill: url(#linear-gradient-15);
      }

      .cls-53 {
        fill: #a32547;
      }

      .cls-54 {
        fill: #d82364;
      }

      .cls-56 {
        fill: url(#linear-gradient-16);
      }

      .cls-57 {
        fill: url(#linear-gradient-17);
      }

      .cls-58 {
        fill: url(#linear-gradient-18);
      }

      .cls-59 {
        fill: #166c83;
      }

      .cls-60 {
        opacity: 0.21;
      }

      .cls-61 {
        fill: url(#linear-gradient-19);
      }

      .cls-62 {
        fill: url(#linear-gradient-20);
      }

      .cls-63 {
        fill: url(#linear-gradient-21);
      }

      .cls-64 {
        fill: url(#linear-gradient-22);
      }

      .cls-65 {
        fill: url(#linear-gradient-23);
      }

      .cls-66 {
        fill: url(#linear-gradient-24);
      }

      .cls-67 {
        fill: url(#linear-gradient-25);
      }

      .cls-68 {
        fill: url(#linear-gradient-26);
      }

      .cls-69 {
        fill: #218bb1;
      }

      .cls-70 {
        fill: #1ebad0;
      }
    </style>
    <clipPath id="clip-path">
      <rect class="cls-1" x="-1050" width="800" height="900"/>
    </clipPath>
    <clipPath id="clip-path-2">
      <rect class="cls-1" x="-1480.27" y="-0.15" width="1600.54" height="900.3"/>
    </clipPath>
    <linearGradient id="linear-gradient" x1="-5244.92" y1="-33.5" x2="-5244.92" y2="932.84" gradientTransform="matrix(-1, 0, 0, 1, -5962, 0)" gradientUnits="userSpaceOnUse">
      <stop offset="0" stop-color="#9fb6de"/>
      <stop offset="0.23" stop-color="#bbcae7"/>
      <stop offset="0.43" stop-color="#d7def0"/>
    </linearGradient>
    <linearGradient id="linear-gradient-2" x1="-494.58" y1="36.7" x2="861.69" y2="36.7" gradientUnits="userSpaceOnUse">
      <stop offset="0" stop-color="#a2b8df"/>
      <stop offset="0.03" stop-color="#a6bbe0"/>
      <stop offset="0.21" stop-color="#bbcae7"/>
      <stop offset="0.42" stop-color="#cbd5ec"/>
      <stop offset="0.66" stop-color="#d4dcef"/>
      <stop offset="1" stop-color="#d7def0"/>
    </linearGradient>
    <clipPath id="clip-path-3">
      <rect class="cls-1" x="31" y="684.84" width="310.53" height="43.1" transform="translate(-542.78 753.1) rotate(-78.89)"/>
    </clipPath>
    <clipPath id="clip-path-4">
      <rect class="cls-1" x="112.13" y="740.82" width="161.53" height="30.75" transform="translate(-586.3 799.82) rotate(-78.89)"/>
    </clipPath>
    <clipPath id="clip-path-5">
      <rect class="cls-1" x="-1850" width="800" height="900"/>
    </clipPath>
    <clipPath id="clip-path-6">
      <rect class="cls-1" x="-2040" width="1600" height="900"/>
    </clipPath>
    <clipPath id="clip-path-7">
      <rect class="cls-1" width="1600" height="900"/>
    </clipPath>
    <linearGradient id="linear-gradient-3" x1="806.99" y1="-185.44" x2="806.99" y2="309.04" gradientUnits="userSpaceOnUse">
      <stop offset="0.01" stop-color="#89a4d5"/>
      <stop offset="1" stop-color="#d7def0"/>
    </linearGradient>
    <linearGradient id="linear-gradient-4" x1="807.36" y1="912.79" x2="807.36" y2="305.57" gradientUnits="userSpaceOnUse">
      <stop offset="0.32" stop-color="#89c159"/>
      <stop offset="0.48" stop-color="#85bd58"/>
      <stop offset="0.64" stop-color="#7ab355"/>
      <stop offset="0.8" stop-color="#67a151"/>
      <stop offset="0.95" stop-color="#4c884b"/>
      <stop offset="1" stop-color="#417e48"/>
    </linearGradient>
    <linearGradient id="linear-gradient-5" x1="588" y1="-158.12" x2="1044.11" y2="631.89" gradientUnits="userSpaceOnUse">
      <stop offset="0.02" stop-color="#6aa587"/>
      <stop offset="0.59" stop-color="#4c7d7d"/>
      <stop offset="0.7" stop-color="#49797c"/>
      <stop offset="0.82" stop-color="#406c79"/>
      <stop offset="0.93" stop-color="#315673"/>
      <stop offset="1" stop-color="#26476f"/>
    </linearGradient>
    <linearGradient id="linear-gradient-6" x1="699.32" y1="54.84" x2="699.32" y2="-483.22" gradientUnits="userSpaceOnUse">
      <stop offset="0" stop-color="#3db049"/>
      <stop offset="1" stop-color="#a1c23a"/>
    </linearGradient>
    <linearGradient id="linear-gradient-7" x1="822.13" y1="442.7" x2="822.13" y2="220.25" gradientUnits="userSpaceOnUse">
      <stop offset="0" stop-color="#8a5f3c"/>
      <stop offset="1" stop-color="#a87c51"/>
    </linearGradient>
    <linearGradient id="linear-gradient-8" x1="1308.4" y1="427.55" x2="1308.43" y2="427.55" gradientUnits="userSpaceOnUse">
      <stop offset="0.03" stop-color="#89c159"/>
      <stop offset="0.2" stop-color="#77b155"/>
      <stop offset="0.52" stop-color="#5a954e"/>
      <stop offset="0.8" stop-color="#47844a"/>
      <stop offset="1" stop-color="#417e48"/>
    </linearGradient>
    <linearGradient id="linear-gradient-9" x1="722.21" y1="427.63" x2="722.24" y2="427.63" xlink:href="#linear-gradient-8"/>
    <linearGradient id="linear-gradient-10" x1="560.76" y1="444.01" x2="1673.72" y2="444.01" xlink:href="#linear-gradient-8"/>
    <linearGradient id="linear-gradient-11" x1="586.57" y1="1734.68" x2="586.6" y2="1734.68" gradientTransform="matrix(1.28, 0, 0, 1.5, 500.58, -1863.49)" xlink:href="#linear-gradient-8"/>
    <linearGradient id="linear-gradient-12" x1="49.14" y1="1735.08" x2="49.17" y2="1735.08" gradientTransform="matrix(1.28, 0, 0, 1.5, 500.58, -1863.49)" xlink:href="#linear-gradient-8"/>
    <linearGradient id="linear-gradient-13" x1="-98.89" y1="1749.15" x2="921.5" y2="1749.15" gradientTransform="matrix(1.28, 0, 0, 1.5, 500.58, -1863.49)" xlink:href="#linear-gradient-8"/>
    <linearGradient id="linear-gradient-14" x1="88.75" y1="526.49" x2="832.09" y2="526.49" gradientUnits="userSpaceOnUse">
      <stop offset="0" stop-color="#3c2417"/>
      <stop offset="1" stop-color="#3c2417"/>
    </linearGradient>
    <linearGradient id="linear-gradient-15" x1="239.94" y1="504.05" x2="689.81" y2="504.05" xlink:href="#linear-gradient-14"/>
    <linearGradient id="linear-gradient-16" x1="622.35" y1="385.28" x2="850.93" y2="385.28" xlink:href="#linear-gradient-14"/>
    <linearGradient id="linear-gradient-17" x1="715.53" y1="449.13" x2="891.85" y2="449.13" xlink:href="#linear-gradient-14"/>
    <linearGradient id="linear-gradient-18" x1="548.35" y1="471.42" x2="832.09" y2="471.42" xlink:href="#linear-gradient-14"/>
    <linearGradient id="linear-gradient-19" x1="318.75" y1="637.45" x2="318.79" y2="637.45" xlink:href="#linear-gradient-14"/>
    <linearGradient id="linear-gradient-20" x1="308.37" y1="680.54" x2="337.57" y2="680.54" xlink:href="#linear-gradient-14"/>
    <linearGradient id="linear-gradient-21" x1="239.94" y1="572.13" x2="689.81" y2="572.13" xlink:href="#linear-gradient-14"/>
    <linearGradient id="linear-gradient-22" x1="308.37" y1="574.85" x2="338.18" y2="574.85" xlink:href="#linear-gradient-14"/>
    <linearGradient id="linear-gradient-23" x1="239.94" y1="585.9" x2="689.81" y2="585.9" xlink:href="#linear-gradient-14"/>
    <linearGradient id="linear-gradient-24" x1="382.83" y1="595.58" x2="407.03" y2="595.58" xlink:href="#linear-gradient-14"/>
    <linearGradient id="linear-gradient-25" x1="239.94" y1="597.18" x2="689.81" y2="597.18" xlink:href="#linear-gradient-14"/>
    <linearGradient id="linear-gradient-26" x1="455.15" y1="612.44" x2="477.13" y2="612.44" xlink:href="#linear-gradient-14"/>
  </defs>
  <g>
    <g id="SC_06">
      <g class="cls-2">
        <g class="cls-3">
          <path class="cls-4" d="M-44.58,861.82c-1-9.24-1.8-18.47-2.84-27.69q-2.19-14.75-4.64-29.44c-4.14-25-8.58-49.92-12-75-4.38-32.14-8.67-64.21-8.73-96.7a83.84,83.84,0,0,1,11.5-42.51q6.59-8.54,13.18-17.05a84.24,84.24,0,0,1,37.17-21.67l22.39-3a63.61,63.61,0,0,1,27.21,4.79l9.41-7.26a62.6,62.6,0,0,1,31.31-10,42.36,42.36,0,0,1,22.4,0,62.67,62.67,0,0,1,31.32,10l8.83,6.83V-33.5h-1718V932.84H-47.45l6.63-39.79C-42.2,882.66-43.48,872.24-44.58,861.82Z"/>
          <path class="cls-5" d="M166.39,103.8q-.37-3-.76-5.9c-1-7.75-2.3-15.5-2.84-23.32,0-.29,0-.58,0-.87-290.44,32.86-597,83.54-798.77,40C-397.18,166.14-98.21,126.63,166.39,103.8Z"/>
          <path class="cls-6" d="M-213,195c-35.38,4-148.34,22.71-157.5,24.14-6.47,1-87.38-18.76-134.35-30.46a176.14,176.14,0,0,0-67.49-3.47l-456.13,64.82-58.91-21.78a99.32,99.32,0,0,0-45.8-5.56l-108,12.31c-35.89-27.73-122-51.43-159.06-60.74A53.53,53.53,0,0,0-1434,177a1038.52,1038.52,0,0,1-98.14,35.17q.75,13.06,1.26,26.14c2.13,54.51,1.39,109-.14,163.5l1713,99.1,6.1-240.17S-179.65,191.25-213,195Z"/>
          <path class="cls-7" d="M161.88,32.18c0-.3,0-.61,0-.92q-1.26-9.42-2.39-18.94c0-2.06.08-4.1.18-6.14C-80.85,43.67-318.06,79.92-485.84,49.51-291.23,85.48-59.28,60,161.88,32.18Z"/>
          <path class="cls-8" d="M-678.07,270.93c-392.16-4.55-849.93,23.53-849.93,23.53v605H-31.11l4.69-30.06q-2-16.26-3.67-32.56c-.95-9.62-1.76-19.25-2.78-28.85-1.41-10.25-2.94-20.47-4.52-30.69-4-26-8.36-52-11.69-78.18-4.26-33.5-8.45-66.92-8.5-100.79a92,92,0,0,1,11.21-44.31l12.84-17.77A81.07,81.07,0,0,1,2.71,513.71l21.83-3.13a58.44,58.44,0,0,1,26.53,5L60.24,508a58.35,58.35,0,0,1,30.53-10.42,38.79,38.79,0,0,1,21.83,0A58.42,58.42,0,0,1,143.14,508l16.62,13.73a67,67,0,0,1,5.24,5.85V314.9S-285.9,275.48-678.07,270.93Z"/>
          <path class="cls-9" d="M188.08,373.25c-65.71-9.31-133.57-10.2-200.53-11l-727.73-8.35-359.37-4.13c-111-1.27-234.54-15.26-344.25-1.06-37.82,4.9-77,8.11-116.28,11.51-2.29,27-5.05,54-8.1,80.93a87,87,0,0,1,6.5,37q0,62.06.46,124.11.85,105.75,3.73,211.49c69.09,44,159.7,63.22,248,65,97.67,1.93,194.17-15.52,289.52-32.86,42.59,50.64,112,83,184.44,100.07s148.47,20.28,223.75,23.19c78.69,3,162.58,4.84,230.17-28.12,28.26-13.79,52.22-33.09,81.55-45.29,69-28.71,151.63-13.08,228.4-4.45,46,5.18,97.36,5.68,140.64-5.91-2.78-17.82-5.45-35.67-7.75-53.57C55.57,788,50,744.2,50,699.85a119.52,119.52,0,0,1,14.83-58l17-23.27a107.35,107.35,0,0,1,48-29.56l28.89-4.11a78,78,0,0,1,35.11,6.55q2.25-1.85,4.51-3.68C192,516.42,189.06,444.85,188.08,373.25Z"/>
          <ellipse class="cls-10" cx="12.95" cy="440.28" rx="16.05" ry="7.13"/>
          <path class="cls-11" d="M162.27,699.85c0-1.15,0-2.29.07-3.43-8.86-.76-18.32-1.18-28.16-1.18C84.91,695.24,45,705.59,45,718.36s39.94,23.11,89.21,23.11c10.38,0,20.34-.46,29.61-1.3C162.86,726.77,162.29,713.34,162.27,699.85Z"/>
          <ellipse class="cls-12" cx="32.73" cy="761.39" rx="67.79" ry="20.15"/>
          <ellipse class="cls-12" cx="37.17" cy="784.15" rx="67.79" ry="20.15"/>
          <path class="cls-12" d="M164.91,754.23a197.23,197.23,0,0,0-37.28-3.32c-37.44,0-67.79,9-67.79,20.15s30.35,20.15,67.79,20.15a191.74,191.74,0,0,0,40.73-4Q166.4,770.72,164.91,754.23Z"/>
          <path class="cls-13" d="M174.17,831.83c-3.09-22.76-6.15-45.5-8.4-68.3C-141.15,770.87-275.67,814-275.67,814c-78.36-3.1-252.87,13.52-414.67,31.85-363.48-87.29-918.56-148.62-918.56-148.62L-1585,905.7l668.23-5,46,4.8H185.73C181.61,881,177.53,856.47,174.17,831.83Z"/>
          <g>
            <path class="cls-14" d="M174.17,831.83c-2-14.75-4-29.49-5.76-44.24C146,750.37,112.78,716.27,91.25,697c-26-23.18-55.18-41.25-86.64-51.57A192.53,192.53,0,0,0-43,636c-8-.52-39.41,7.08-45.17,2.69C-53.18,665.32-32,704.29-5,739.88c26.7,35.17,57.4,56,93.72,75.72,31.65,17.22,62.92,34.79,91.66,57.68C178.18,859.49,176.06,845.67,174.17,831.83Z"/>
            <path class="cls-15" d="M174.17,831.83q-1.81-13.38-3.57-26.73c-3.22-6.75-6.61-13.06-9.78-18.62A394.05,394.05,0,0,0,95.46,701C46.6,652.92-20,615.61-82.66,641.5c94.39,11,157.91,132.41,226.51,195.84,12.6,11.65,25.94,21.34,36.44,35.26C178.11,859,176,845.45,174.17,831.83Z"/>
            <path class="cls-14" d="M176.92,850.9c-23.55-32.68-75.33-54.43-100.2-74.37-44.87-36-90.54-52.64-142.59-36-21.61,6.91-42.71,12.84-64.27,19.05,47.71,24.91,97.07,43.69,143.78,70,42.24,23.8,78.38,21.9,123.27,30.77,16.45,3.25,30.51,11.46,44.42,18.65Q179,865,176.92,850.9Z"/>
            <path class="cls-14" d="M174.17,831.83c-6-43.87-11.82-87.63-11.9-132q0-5.79.58-11.44c-26.08-45.74-62.71-84.72-100.41-108C43.87,569,24.89,559.55,4.09,556.17c21.52,98.07,90,211.29,157.53,278.45,5.59,5.56,10.59,10.26,15.13,15.16Q175.42,840.81,174.17,831.83Z"/>
            <path class="cls-15" d="M162.27,699.85q0-5.69.56-11.24C135.4,642,97.34,602,62.44,580.43c-18.55-11.46-36-21.35-57-20.9C73.17,628,100.21,727.65,158.77,805c4.79,6.33,9.59,12.66,14.34,19C167.53,782.76,162.35,741.57,162.27,699.85Z"/>
            <path class="cls-14" d="M174.17,831.83c-6-43.87-11.82-87.63-11.9-132a114.29,114.29,0,0,1,11.29-49.67c-5.5-13.34-11-27.26-15.9-42.16C144,566.62,141,520.64,126.75,479.82c-8.43-24.18-21.35-43.21-40.24-58.59C99,465.93,96.69,478.09,86.8,524,68.62,608.46,96,695.45,129.91,772.57c6.52,14.82,35.47,102.8,47.19,106.46a12.59,12.59,0,0,0,4.33.6C178.83,863.72,176.35,847.8,174.17,831.83Z"/>
            <path class="cls-15" d="M175.9,844.06q-.89-6.1-1.73-12.23c-6-43.87-11.82-87.63-11.9-132a114.2,114.2,0,0,1,13.08-53.24c-8-15.38-15.71-30.85-20.88-48.13-11.65-38.92-14.31-80.21-27.72-118.66-7.62-21.85-24.14-39.87-38-59.67,13.35,20,15.71,47.39,18.19,71.23C119.3,610.39,118.31,735.9,175.9,844.06Z"/>
            <path class="cls-14" d="M174.17,831.83c-6-43.87-11.82-87.63-11.9-132a114.47,114.47,0,0,1,15.7-58l18-23.27A114.87,114.87,0,0,1,246.67,589l6-.81c8.19-29.31,20.48-56.75,38.29-80.06C176,511.34,128.81,655.49,149.39,770.67c4.44,24.86,4.61,109.84,30.25,105.2a11,11,0,0,0,1.13-.28C178.42,861,176.16,846.45,174.17,831.83Z"/>
            <path class="cls-15" d="M195.94,618.56A114.87,114.87,0,0,1,246.67,589l5.2-.7a473.17,473.17,0,0,1,21.81-67.44c-34.08,15.52-63.7,59.4-83.18,104.75Z"/>
            <path class="cls-15" d="M174.17,831.83c-4.6-33.83-9.12-67.58-11-101.6-7.14,50.43-8.36,99.39,10.72,150.82a71.44,71.44,0,0,0,7-4.95C178.47,861.36,176.19,846.62,174.17,831.83Z"/>
            <path class="cls-16" d="M168.23,876.92c.28-.2-1.51-4.08-6.06-10.16a118.78,118.78,0,0,0-22.63-22.24c-10.55-8.18-24.09-16.35-39.49-24.38s-32.59-16-49.85-26c-17.46-9.78-34.41-18.76-50.58-25.21A218.69,218.69,0,0,0-23.74,761c-7.45-2.08-14.51-3.45-20.88-4.7-12.77-2.59-23.45-3.67-30.83-3.25s-11.36,1.61-11.31,2,4.07,0,11.25.35,17.44,2,30,5.06c6.32,1.51,13.2,3.09,20.42,5.34a233.08,233.08,0,0,1,22.73,8.28c15.76,6.61,32.42,15.61,49.85,25.37,17.4,10.07,34.86,17.92,50.21,25.66s28.9,15.34,39.51,22.9a141.37,141.37,0,0,1,23.29,20.33c5,5.47,7.35,8.88,7.71,8.61"/>
            <path class="cls-16" d="M154.92,835.62c.34-.25-1.75-3.93-5.07-10.82s-7.72-17.06-12.69-29.92c-2.51-6.42-5.21-13.49-8.28-21s-6.55-15.44-10-23.9c-6.88-16.86-14.14-35.6-22.25-55.08S80.28,657,71.73,641a302.35,302.35,0,0,0-25.57-40.81,175.57,175.57,0,0,0-21.43-23.89c-5.57-5.07-9-7.36-9.24-7.07-.63.74,12.09,11.46,27.53,33.58a346.1,346.1,0,0,1,24.19,40.93c8.2,16,16.28,34.28,24.35,53.69s15.48,38.07,22.65,54.88c3.55,8.41,7.21,16.34,10.44,23.68l8.89,20.71C139,809.34,144,819.39,148,826s6.67,9.87,7,9.64"/>
            <path class="cls-16" d="M58.43,671c-.31.29,3.23,5.07,8.61,13s12.54,19.19,20.34,31.72,15,23.75,20.69,31.54,9.56,12.26,9.84,12-3-5.17-8.23-13.27-12.16-19.42-20-32-15.23-23.67-21.09-31.34-9.91-12-10.19-11.73"/>
            <path class="cls-16" d="M151.75,794.15c.39-.16-.74-4.56-2.41-12.58s-3.73-19.71-6.08-34.28c-4.65-29.3-14.6-68.66-22-112.92-1.83-11.06-3.38-21.89-4.58-32.39q-.42-4-.93-7.86c-.3-2.55-.57-5.1-.81-7.62-.47-5-.8-10-1.07-14.86-1-19.43-1.26-37.1-2.29-51.9a244.87,244.87,0,0,0-4.37-34.8c-1.72-8.09-3.35-12.34-3.67-12.23s.49,4.58,1.53,12.7a347,347,0,0,1,2.57,34.65c.51,14.72.33,32.33,1.09,52,.2,4.91.48,10,.9,15.11.22,2.57.46,5.17.75,7.8s.61,5.2.87,7.83c1.13,10.63,2.66,21.59,4.51,32.74,7.44,44.6,18,83.88,23.6,112.65,2.84,14.45,5.47,26.14,7.86,34s4.18,12.06,4.51,11.93"/>
            <g class="cls-17">
              <g class="cls-18">
                <path class="cls-16" d="M156.16,814c-.1-3.59-.07-7.36.09-11.29s.59-8,.95-12.28c.76-8.53,1.72-17.64,2.92-27.19,1-7.82,2.18-16,3.59-24.29-.52-7.72-.93-15.45-1.17-23.2C159,732.12,156.69,748,155,762.68c-1.08,9.66-1.87,18.86-2.44,27.47-.25,4.31-.58,8.43-.64,12.54s.05,7.92.28,11.61a145.3,145.3,0,0,0,6.23,34.08c2.42,7.74,4.24,11.8,4.58,11.67s-.74-4.49-2.49-12.35A175.84,175.84,0,0,1,156.16,814Z"/>
                <path class="cls-16" d="M195.94,618.56q3.65-3.62,7.52-6.85c2.43-5.86,4.84-11.31,7.27-16.29,6.25-13,12.65-22.66,17.87-28.55s8.92-8.26,8.69-8.67-4.31,1.37-10.2,7-13,15.27-19.82,28.26c-4.05,7.61-8,16.35-12,25.94C195.49,619.14,195.72,618.85,195.94,618.56Z"/>
              </g>
            </g>
            <g class="cls-19">
              <g class="cls-20">
                <path class="cls-21" d="M170.38,803.37c-.74,1.9-1.43,3.74-2,5.51-5,14.27-6,23.67-5.66,23.69.46.1,2.08-9.08,7.49-23,.24-.63.51-1.28.77-1.93C170.75,806.24,170.56,804.8,170.38,803.37Z"/>
              </g>
            </g>
          </g>
          <g>
            <path class="cls-22" d="M139.28,945.48c-30.95-91.32,6.91-143.07,6.91-143.07-30.84,16-88.4,48.6-95.48,143.77Z"/>
            <path class="cls-22" d="M117.27,945.66C13.43,843.47,75.58,771,75.58,771,11,810.62,17.91,887.47,41,946.26Z"/>
            <path class="cls-22" d="M152.76,880.55c-.89-8.23-1.78-16.45-2.6-24.67-15.67,22.72-24.35,53.43,4.32,89.48l7.28-.06C158.34,923.71,155.11,902.12,152.76,880.55Z"/>
            <path class="cls-22" d="M60.32,946.11C20.76,807.37,106.93,770.7,106.93,770.7S5.5,802.14-15,946.71Z"/>
            <path class="cls-22" d="M152.76,880.55c-.64-6-1.29-11.95-1.91-17.92-25.21,19.58-61.43,50-90.09,83.47l60.75-.48c11.44-15.83,22.9-35,32.69-52.74C153.7,888.77,153.21,884.66,152.76,880.55Z"/>
            <path class="cls-22" d="M-27.27,946.8C-76.81,755.65,77,748.48,77,748.48S-31,760.36,33.45,946.32Z"/>
            <path class="cls-22" d="M-69.13,947.14c-25.6-156.8,112.05-149.2,112.05-149.2s-100.66,8.33-57.87,148.77Z"/>
          </g>
        </g>
      </g>
    </g>
    <g id="SC_05">
      <g class="cls-23">
        <g class="cls-24">
          <path class="cls-25" d="M22-6.55a53.63,53.63,0,0,0-2-12.09,29.61,29.61,0,0,0,5.91-1.69c-31.7-22.45-69.28-34.25-109-21.07-1.27.42-2.45-1.45-1.36-2.34,5.86-4.75,9-11.22,12.81-17.46-7.76-4.55-16.83-3.42-25.19-.82-1.43.44-2.16-1.33-1.34-2.32C-91.92-72-84.3-78.5-78.73-86.69c-11.87-3.9-24-.68-35.31,4-1.09.45-2.16-1.08-1.53-2,9.65-13.88,28.81-22.43,33.79-39.22-12.34.07-21.23,6.48-29.79,15.08-6.94,7-13.62,14.1-23.1,17.49a1.3,1.3,0,0,1-1.59-1.6A96,96,0,0,0-132-105.8c.73-3.11,3-11.65.51-14.53-2.67-3.12-11.5-2-15.13-1.11a32,32,0,0,0-11.82,5.92c-1.11.84-2.15-.72-1.7-1.71,4.27-9.49,7.42-23.69-1.31-31.84-9.82-9.17-24.34-.94-32.84,5.83a1.2,1.2,0,0,1-1.87-.24c-7.55-13.91-16.5-46.13-37.79-32.06a1.37,1.37,0,0,1-2-1.17c-.51-6.11-5.28-10.2-7.93-15.39-9.46,3.77-16.79,10.95-22.14,19.53a1.4,1.4,0,0,1-2.55-1.08c3.07-14.33,6.09-28.77,6.74-43.45.61-13.77-.39-30.72-11.91-40.06-19.82,31.6-4.67,68.64-11.09,103.13-.27,1.47-2.13,1.07-2.58,0-5.66-13.42-20.25-9.12-28.66-1.11a1.37,1.37,0,0,1-2.27-1.32c.95-3.86.43-7.82,1.16-11.64-11.38,2.48-20.86,9-29.79,16.41-1.16,1-3-.25-2.17-1.67,5.14-8.88,11.19-17.48,14.55-27.26a47.28,47.28,0,0,0,1.61-5.73c.65-3.13,2-5.8-1.28-7-3.79-1.32-9.23.1-12.7,1.69-13.4,6.13-21,21.19-30.9,31.36a1.43,1.43,0,0,1-2.37-.63,144.06,144.06,0,0,1-3-22.94c-.32-5.69-.26-11.54-1.54-17.12-3.51-15.36-20.67-20.35-34-24.22a1.42,1.42,0,0,1-.83-2.07c3.71-4.84,6.92-10.05,7.27-16.31a26.34,26.34,0,0,0-.07-3.44q-.59-3.11-3.54-2.48c-3.08-1-7.69-.48-10.67.25a1.42,1.42,0,0,1-1.58-2.06c5.38-8.39,25-21.94,16.15-33-7.47-9.28-26.45-2.61-34.86,2.22-1.42.82-2.61-1-1.66-2.15,6.61-7.95,15.67-14.34,19.82-24-15.07-5.83-30.92-4.2-45.67,2.09a1.31,1.31,0,0,1-1.59-2.05c5.33-5.8,7.91-13.6,11.18-20.68-15.75-5.24-31.14,6.06-44,14.1-1.28.8-2.41-.95-1.53-2,10.07-11.73,20.76-23.86,25-39-12.07.88-22.32,7.65-30.15,16.7-.92,1.06-2.53-.31-1.88-1.45a53.84,53.84,0,0,0,6.64-24.31,63.29,63.29,0,0,0-14.87,18.65,1.22,1.22,0,0,1-2.2-.29c-5-13.68-6.62-28.75-14.48-41.22-20,22.7-4,55.78-.54,81.84h0l0,.27c.16,1.2-1.7,1.33-2,.27-3.55-11.67-18.61-17.46-29.31-20-10.42-2.46-26.42-4.27-34.18,5.05a1.11,1.11,0,0,1-1.85-.49c-.88-3.9-2.15-10.33-6.81-11.4-3.13-.71-6.44,1.66-8.71,3.47-5.23,4.17-9.39,9.74-13.25,15.13-.66.92-2.39.71-2.32-.63,1-18.91,4-37.68,4.21-56.63.26-19.16-2.1-39.7-15-54.73-32,37.5-12.65,88.64-5.77,131.67a1.15,1.15,0,0,1-2.22.61c-4.58-13.86-11.23-32.8-29.51-26.72a1.13,1.13,0,0,1-1.25-.51c-7.77-12.07-22.27-2.4-29.08,5.47-.78.9-2.53-.06-2.07-1.2,2.36-5.88.63-11.16,0-17A47.1,47.1,0,0,0-749-316.65c-1,1.16-2.59-.33-2-1.53,8.53-16.75,19.57-32.31,26-50.07,2.92-8,6.44-19.44,3.87-28.05-.86-2.87-1.42-2-4.16-1-2,.74-4,1.56-5.91,2.46a81.08,81.08,0,0,0-10.74,6.09c-27.56,18.4-42.46,49.52-61.93,75.25a1.19,1.19,0,0,1-2.16-.91c.72-4.08,1.58-10.25-2.61-12.86-2.82-1.75-6.71-1.06-9.72-.27-7.3,1.9-14.25,6.07-20,10.89a1.26,1.26,0,0,1-2.09-1.21c1.59-6.14.26-12.78,0-19.07-12.57-.34-22,11.22-26.83,21.78-.56,1.22-2.44.56-2.44-.67.15-25.44,4.84-52.45-5.79-76.45-18.2,26.2-27.3,58.33-24.22,90.19.11,1.23-1.47,1.58-2.23.93-13.53-11.5-34.37-17.54-46-.27a1.32,1.32,0,0,1-2,.27c-8.85-9.77-19.38-5-25.43,4.89a1.33,1.33,0,0,1-2.26,0c-2.25-3.66-5.88-6.27-9.07-9.11-6.7,7.74-9.43,18.14-12.59,27.69a1.31,1.31,0,0,1-2.51,0c-3.53-15.46-4.69-31.33-7.22-47-2.38-14.7-5.74-30.4-15.39-42.17-19.31,33.76-5,79.25,9.53,112.17a1.3,1.3,0,0,1-2,1.57,52,52,0,0,0-11.86-7.57c-2.16,13.32,4,25.55,10.46,36.91a1.3,1.3,0,0,1-2,1.57c-4.84-4.18-17.65-14.3-22.39-4.72-3.58,7.22-.84,17.93,3,24.43,8.65,14.53,25.13,24.09,39.82,31.51,1.41.71.33,2.57-1,2.35-7.93-1.32-16.54-1.29-23.69,2.88-7.49,4.37-11,12.05-12.52,20.26a1.29,1.29,0,0,1-2.33.31c-1.82-4.1-5.58-5.24-8.91-7.46-5.74,8.2-7.5,17.45-7.61,27.42a1.27,1.27,0,0,1-2.49.34c-4.75-13.43-6.81-27.66-11.26-41.2-2-6.22-4.49-12.53-8.31-17.91-.87-1.23-4.75-6.74-6.5-6.45-1.58.27-3.86,5.18-4.63,6.61-6,11.27-6.57,24.91-5.23,37.37,2.73,25.27,13.11,53.48,31.11,71.93a1.18,1.18,0,0,1-1.42,1.86c-11.48-6.22-25.56-4.58-29.26,9.58a1.12,1.12,0,0,1-2,.26c-2.59-3.48-6.19-8-10.8-8.79-6.09-1-8.37,5.55-9.56,10.23-.32,1.23-1.92.81-2-.28-1.44-11.75-2.5-24.37-8.07-35-.58-1.12-1.31-3.16-2.44-3.76-1.41-.75-1.47,0-2.55,1.57a29.43,29.43,0,0,0-3.28,6.23,45.68,45.68,0,0,0-2.74,13.08c-1.43,18.66,4.08,38.64,12.23,55.31a.81.81,0,0,1-1.1,1.1c-7-4.1-16.59-6.43-18.43,4a21.45,21.45,0,0,0-.14,6.2,43.66,43.66,0,0,0,24.28,7.34c1,0,2,0,3-.1a73.8,73.8,0,0,0,70.82,53.06,73.61,73.61,0,0,0,28.23-5.59A91.15,91.15,0,0,0-934,99.05,91.15,91.15,0,0,0-847,35,107.22,107.22,0,0,0-792.42,49.8,107.35,107.35,0,0,0-719.6,21.44a151.69,151.69,0,0,0,42.93,6.17A150.87,150.87,0,0,0-588.22-.87,59.45,59.45,0,0,0-555.35-17.8a69.94,69.94,0,0,0,27.18,25,70,70,0,0,0,50.67,5.4,99.14,99.14,0,0,0,23,16.44,98.88,98.88,0,0,0,115.8-18.37,116.3,116.3,0,0,0,45.19,41.5,116.85,116.85,0,0,0,117.75-6,77.85,77.85,0,0,0,20,14.84,78,78,0,0,0,96-19.65q1.88,1.17,3.87,2.21A53.34,53.34,0,0,0,16.07,20.64,53.38,53.38,0,0,0,21.25,5.35c7.24-1.45,12.58-5,12-8.09C32.81-5.44,28-6.94,22-6.55Z"/>
        </g>
      </g>
    </g>
  </g>
  <g class="cls-26">
    <rect class="cls-27" x="-20" y="-185.44" width="1653.98" height="494.47"/>
    <path class="cls-28" d="M745.81,154.64c-232.5,54.16-679-84-922.88-28.93l-2.23,55C-5.34,71.92,443.2,224.33,745.81,154.64Z"/>
    <path class="cls-28" d="M919.75,135.72c230.12-63.53,681.88,56.47,923.29-8.47V72.19C1673.63,188,1219.29,53.84,919.75,135.72Z"/>
    <path class="cls-5" d="M714.21,30.24c230.12-63.53,681.89,56.47,923.3-8.47V-33.29C1468.1,82.48,1013.75-51.64,714.21,30.24Z"/>
    <path class="cls-28" d="M876.92,82.69C642.75,129.1,201.05-23.85-44.49,23.13L-48.55,78C128.93-24.93,572.16,142.29,876.92,82.69Z"/>
    <rect class="cls-29" x="-20" y="305.57" width="1654.72" height="607.22"/>
    <path class="cls-6" d="M-203.45,200.18s168,18.09,418.6-26.6A125,125,0,0,1,244.46,172c33,2.08,109.72,7.58,142.8,15.43l93.65-6.21a239.5,239.5,0,0,1,40.38.72l52.85,5.49,394.74-30.25a428.62,428.62,0,0,1,59.22-.41c41.78,2.62,113.73,7,119.33,6.54,7.92-.64,105.51-9,136.19-11,28.92-1.92,354.75,11.64,354.75,11.64l9.5,75-1851.32,8.41Z"/>
    <path class="cls-30" d="M-17.13,191.26s127.5,66.73,665,47.61c540.31-12.17,414.15-83.44,989.66-48.67v99.09L-4.8,284.62Z"/>
    <path class="cls-31" d="M695.15,42.05l-.93.16c2.62,1.32,5.19,2.75,7.7,4.26,1.68-.81,2.65-1.78,2.46-2.68C704,42.14,699.9,41.36,695.15,42.05Z"/>
    <rect class="cls-32" x="798.33" y="285.62" width="851.13" height="54.04"/>
    <g>
      <polygon class="cls-33" points="848.5 442.7 799.22 442.7 799.22 246.32 823.86 220.25 848.5 246.32 848.5 442.7"/>
      <polygon class="cls-33" points="910.26 442.7 860.97 442.7 860.97 246.32 885.62 220.25 910.26 246.32 910.26 442.7"/>
      <polygon class="cls-33" points="972.01 442.7 922.73 442.7 922.73 246.32 947.37 220.25 972.01 246.32 972.01 442.7"/>
      <polygon class="cls-33" points="1033.77 442.7 984.48 442.7 984.48 246.32 1009.13 220.25 1033.77 246.32 1033.77 442.7"/>
      <polygon class="cls-33" points="1095.53 442.7 1046.24 442.7 1046.24 246.32 1070.88 220.25 1095.53 246.32 1095.53 442.7"/>
      <polygon class="cls-33" points="1157.28 442.7 1107.99 442.7 1107.99 246.32 1132.64 220.25 1157.28 246.32 1157.28 442.7"/>
      <polygon class="cls-33" points="1219.04 442.7 1169.75 442.7 1169.75 246.32 1194.39 220.25 1219.04 246.32 1219.04 442.7"/>
      <polygon class="cls-33" points="1280.79 442.7 1231.51 442.7 1231.51 246.32 1256.15 220.25 1280.79 246.32 1280.79 442.7"/>
      <polygon class="cls-33" points="1342.55 442.7 1293.26 442.7 1293.26 246.32 1317.91 220.25 1342.55 246.32 1342.55 442.7"/>
      <polygon class="cls-33" points="1404.31 442.7 1355.02 442.7 1355.02 246.32 1379.66 220.25 1404.31 246.32 1404.31 442.7"/>
      <polygon class="cls-33" points="1466.06 442.7 1416.77 442.7 1416.77 246.32 1441.41 220.25 1466.06 246.32 1466.06 442.7"/>
      <polygon class="cls-33" points="1527.82 442.7 1478.53 442.7 1478.53 246.32 1503.17 220.25 1527.82 246.32 1527.82 442.7"/>
      <polygon class="cls-33" points="1589.57 442.7 1540.28 442.7 1540.28 246.32 1564.93 220.25 1589.57 246.32 1589.57 442.7"/>
    </g>
    <polygon class="cls-34" points="846.78 442.7 797.49 442.7 797.49 246.32 822.13 220.25 846.78 246.32 846.78 442.7"/>
    <rect class="cls-32" x="-4.8" y="284.62" width="851.13" height="54.04"/>
    <g>
      <polygon class="cls-33" points="45.38 441.7 -3.91 441.7 -3.91 245.32 20.74 219.25 45.38 245.32 45.38 441.7"/>
      <polygon class="cls-33" points="107.14 441.7 57.85 441.7 57.85 245.32 82.49 219.25 107.14 245.32 107.14 441.7"/>
      <polygon class="cls-33" points="168.89 441.7 119.6 441.7 119.6 245.32 144.25 219.25 168.89 245.32 168.89 441.7"/>
      <polygon class="cls-33" points="230.65 441.7 181.36 441.7 181.36 245.32 206 219.25 230.65 245.32 230.65 441.7"/>
      <polygon class="cls-33" points="292.4 441.7 243.12 441.7 243.12 245.32 267.76 219.25 292.4 245.32 292.4 441.7"/>
      <polygon class="cls-33" points="354.16 441.7 304.87 441.7 304.87 245.32 329.52 219.25 354.16 245.32 354.16 441.7"/>
      <polygon class="cls-33" points="415.92 441.7 366.63 441.7 366.63 245.32 391.27 219.25 415.92 245.32 415.92 441.7"/>
      <polygon class="cls-33" points="477.67 441.7 428.38 441.7 428.38 245.32 453.03 219.25 477.67 245.32 477.67 441.7"/>
      <polygon class="cls-33" points="539.43 441.7 490.14 441.7 490.14 245.32 514.78 219.25 539.43 245.32 539.43 441.7"/>
      <polygon class="cls-33" points="601.18 441.7 551.89 441.7 551.89 245.32 576.54 219.25 601.18 245.32 601.18 441.7"/>
      <polygon class="cls-33" points="662.94 441.7 613.65 441.7 613.65 245.32 638.29 219.25 662.94 245.32 662.94 441.7"/>
      <polygon class="cls-33" points="724.69 441.7 675.4 441.7 675.4 245.32 700.05 219.25 724.69 245.32 724.69 441.7"/>
      <polygon class="cls-33" points="786.45 441.7 737.16 441.7 737.16 245.32 761.8 219.25 786.45 245.32 786.45 441.7"/>
      <polygon class="cls-33" points="848.07 441.7 798.78 441.7 798.78 245.32 823.42 219.25 848.07 245.32 848.07 441.7"/>
    </g>
    <g>
      <polygon class="cls-35" points="908.53 442.7 859.24 442.7 859.24 246.32 883.89 220.25 908.53 246.32 908.53 442.7"/>
      <polygon class="cls-35" points="970.29 442.7 921 442.7 921 246.32 945.64 220.25 970.29 246.32 970.29 442.7"/>
      <polygon class="cls-35" points="1032.04 442.7 982.75 442.7 982.75 246.32 1007.4 220.25 1032.04 246.32 1032.04 442.7"/>
      <polygon class="cls-35" points="1093.8 442.7 1044.51 442.7 1044.51 246.32 1069.15 220.25 1093.8 246.32 1093.8 442.7"/>
      <polygon class="cls-35" points="1155.55 442.7 1106.27 442.7 1106.27 246.32 1130.91 220.25 1155.55 246.32 1155.55 442.7"/>
      <polygon class="cls-35" points="1217.31 442.7 1168.02 442.7 1168.02 246.32 1192.66 220.25 1217.31 246.32 1217.31 442.7"/>
      <polygon class="cls-35" points="1279.07 442.7 1229.78 442.7 1229.78 246.32 1254.42 220.25 1279.07 246.32 1279.07 442.7"/>
      <polygon class="cls-35" points="1340.82 442.7 1291.53 442.7 1291.53 246.32 1316.18 220.25 1340.82 246.32 1340.82 442.7"/>
      <polygon class="cls-35" points="1402.58 442.7 1353.29 442.7 1353.29 246.32 1377.93 220.25 1402.58 246.32 1402.58 442.7"/>
      <polygon class="cls-35" points="1464.33 442.7 1415.04 442.7 1415.04 246.32 1439.69 220.25 1464.33 246.32 1464.33 442.7"/>
      <polygon class="cls-35" points="1526.09 442.7 1476.8 442.7 1476.8 246.32 1501.44 220.25 1526.09 246.32 1526.09 442.7"/>
      <polygon class="cls-35" points="1587.84 442.7 1538.55 442.7 1538.55 246.32 1563.2 220.25 1587.84 246.32 1587.84 442.7"/>
      <g>
        <polygon class="cls-35" points="43.65 441.7 -5.64 441.7 -5.64 245.32 19.01 219.25 43.65 245.32 43.65 441.7"/>
        <polygon class="cls-35" points="105.41 441.7 56.12 441.7 56.12 245.32 80.76 219.25 105.41 245.32 105.41 441.7"/>
        <polygon class="cls-35" points="167.16 441.7 117.87 441.7 117.87 245.32 142.52 219.25 167.16 245.32 167.16 441.7"/>
        <polygon class="cls-35" points="228.92 441.7 179.63 441.7 179.63 245.32 204.28 219.25 228.92 245.32 228.92 441.7"/>
        <polygon class="cls-35" points="290.67 441.7 241.38 441.7 241.38 245.32 266.03 219.25 290.67 245.32 290.67 441.7"/>
        <polygon class="cls-35" points="352.43 441.7 303.14 441.7 303.14 245.32 327.79 219.25 352.43 245.32 352.43 441.7"/>
        <polygon class="cls-35" points="414.19 441.7 364.9 441.7 364.9 245.32 389.54 219.25 414.19 245.32 414.19 441.7"/>
        <polygon class="cls-35" points="475.94 441.7 426.65 441.7 426.65 245.32 451.3 219.25 475.94 245.32 475.94 441.7"/>
        <polygon class="cls-35" points="537.7 441.7 488.41 441.7 488.41 245.32 513.05 219.25 537.7 245.32 537.7 441.7"/>
        <polygon class="cls-35" points="599.45 441.7 550.16 441.7 550.16 245.32 574.81 219.25 599.45 245.32 599.45 441.7"/>
        <polygon class="cls-35" points="661.21 441.7 611.92 441.7 611.92 245.32 636.56 219.25 661.21 245.32 661.21 441.7"/>
        <polygon class="cls-35" points="722.96 441.7 673.67 441.7 673.67 245.32 698.32 219.25 722.96 245.32 722.96 441.7"/>
        <polygon class="cls-35" points="784.72 441.7 735.43 441.7 735.43 245.32 760.07 219.25 784.72 245.32 784.72 441.7"/>
        <polygon class="cls-35" points="846.34 441.7 797.05 441.7 797.05 245.32 821.69 219.25 846.34 245.32 846.34 441.7"/>
      </g>
    </g>
    <g>
      <path class="cls-36" d="M1308.43,427.55h0Z"/>
      <path class="cls-37" d="M722.24,427.64h0Z"/>
      <path class="cls-38" d="M591.05,455.54c51.52,4.1,68.59,11.39,67.2,12.31s19,12.59,96.91,4c19.87-2.19,34.25-3.1,44.91-3.23,26.47,3.82,35.81,8.1,34.77,8.78-1.39.91,19,12.59,96.91,4s71.36,2.51,87.92,3.12,60.82-3.14,60.82-3.14l-.12-2.58c80.88-8.75,72.13,2.33,89.35,3,16.56.61,60.82-3.14,60.82-3.14l-.75-16c11.2,2.54,15.36,4.69,14.65,5.16-1.39.91,19,12.59,96.91,4,30.21-3.33,47.72-3.7,58.81-2.87,13,2.76,17.79,5.19,17,5.69-1.39.91,19,12.59,96.92,4s71.36,2.51,87.92,3.11,60.81-3.13,60.81-3.13l-1.63-35s6.48-16.91,11.29-16.9-5-3.18-21,11c0,0-6.68-13-16.06-16.42,0,0,11.85,10.49,1.2,19.16,0,0-3.9-19.12-28.51-30.09,0,0,23,20.51,14.59,28.72,0,0-5.33-6.84-8.75-9.12,0,0,5.84,11.4.36,13.68,0,0-18.24-20.39-20.88-24.34,0,0,11.35,19.78,7.51,24.35,0,0-10.62-9.13-13.93-12.78,0,0,4.1,12,2.09,10.95-3.55-1.82-9.56-13.82-26-17.56,0,0,17.38,8.9,15,15.28,0,0-9.66-8.21-15.12-10.49,0,0,8.14,6.39,5.35,9.13,0,0-20.39-20.37-35.78-22.73,0,0,20.13,12.57,18,19l-3.54,5.53s-4-4.56-6.74-8.21c0,0-2.17-.86-1.51,4.59,1.81,15,.68-4.41-14.66-15.41,0,0,12.62,17.67,5.66,22.69,0,0-17.63-15.06-25.71-25.55,0,0,8.5,11.09,3.31,21-1.45-2.77-10.46-11.38-10.94-17.2,1.11-1.23,2.22-2,3.25-2,4.82,0-5-3.18-21,11,0,0-6.67-13-16-16.42,0,0,8.83,7.82,4.38,15.54-9.42-9.29-2.73-6.72-3.07,3.52-.44.37-3.39-18.73-28.63-30,0,0,23,20.5,14.59,28.71,0,0-5.33-6.84-8.75-9.12a31.59,31.59,0,0,1,2.31,6.28c-.46,1.82-1.16,4.5-2,7.32-.64-.72-5.4-6.05-10.25-11.6.78-6.34,2-12.59,3.49-14.75,0,0-3.53,4.94-7.23,10.42-10.73-12.48-6.92-10.32-1.55,2.31-1.79,2.7-3.51,5.38-4.77,7.53-7.85-7.06-7.1-7.17-6.74-6.08-1.26-2.09-2.62-3.88-3.94-4.62,0,0,4.78,6.07,3.16,12.67-3.9-4.19-10.38-12.24-23.29-15.18,0,0,17.07,8.74,15.1,15.11-.42-.34-10.42-8.33-15.18-10.31a25,25,0,0,1,5.23,5.58,17.36,17.36,0,0,1,.19,3.47c-.17.17-20.24-20.27-35.84-22.66,0,0,20.12,12.57,17.95,19l-3.53,5.54s-4-4.56-6.74-8.21c0,0-2.18-.87-1.52,4.58,1.81,15,.68-4.41-14.65-15.41,0,0,12.61,17.67,5.65,22.69,0,0-17.63-15.05-25.7-25.55,0,0,8.5,11.09,3.3,21-1.45-2.77-11.11-12.09-11-17.71,0,0-4.37,12.66-.38,22.24,0,0-2-4.67-14.92-9.17.24.1,2.06,1.09,2.57,9.18,0,0-15.64-11-21.68-19.39,0,0,4.69,7.07-.33,19.39,0,0-17.17-1.8-17.61-16.64,0,0-4.46,19.84-8.63,22.57,0,0-.53-9.7.25-15.11s-3.8,5.53-5.06,6.9.57-25.95,4.1-31c0,0-14.77,20.65-15.55,24.33,0,0-4.6-12.49-8.69-14.77,0,0,5.13,6.52,3,13.38a17.59,17.59,0,0,0-5.78,1.25c-2.1-2.17-6-5.19-13.1-9,0,0,2.72,1.67-.26,15.36,0,0-10.27-3.21-12.83-14.15-2,6.15,1,3.77-5.62,1.38a21,21,0,0,1,4.15,5.42A20.7,20.7,0,0,0,1208,436a8.81,8.81,0,0,1-.7,1.26l-3.82.17c-2.18-5.81-8.94-18.79-27.59-27.1,0,0,21.38,19.08,15.36,27.8l-1.42.1c-1.52-1.88-5.4-6.51-8.1-8.31,0,0,2.44,4.76,2.69,8.74-2.09.18-4.17.37-6.2.59-5.51-6.22-15.14-17.2-17-20,0,0,8,14,8.3,21.13-1.33.22-2.57.45-3.68.7-3.39-3-8.84-7.83-11-10.26,0,0,4.1,12,2.09,10.95-3.55-1.83-9.56-13.83-26-17.56,0,0,17.38,8.89,15,15.28,0,0-9.65-8.21-15.12-10.49,0,0,8.15,6.38,5.35,9.12,0,0-20.39-20.37-35.78-22.73,0,0,20.13,12.57,18,19l-3.53,5.54s-4-4.56-6.74-8.21c0,0-2.18-.86-1.52,4.59,1.81,15,.68-4.42-14.65-15.42,0,0,12.61,17.67,5.65,22.69,0,0-5.52-4.71-11.8-10.71,1.48-2,3-3.45,4.42-3.44,3.07,0,.16-1.29-6.49,1.45-23.58-23-4.58-11-7.06,3.79-1,.64-2,1.35-3.06,2.14-2.08-2.62-9.5-10.68-9.36-15.46a44.49,44.49,0,0,0-1.89,9.26,24.22,24.22,0,0,0-9.16-6.64s8.07,7.15,4.89,14.53a45.26,45.26,0,0,0-6.89-3.26c-3.58-6.54-10.9-15.76-25.32-22.19,0,0,15.66,14,16.41,23.47-24.18-19.87-4.11-14.4-12.74,7-30.58-34.44-15-21.17-10.6-3.79-12-8.13-3.35-23-10-2-7.35-6.81-3.35-5.24-1.69,4.9-.24.61-.47,1.19-.71,1.76A21.54,21.54,0,0,1,1003,441c.11-7.77,1.94-12-2.76-2.93-.69-.68-1.42-1.39-2.22-2.1.35-7.94,2-22.11,4.43-25.6,0,0-8.82,12.32-13.19,19.62a37.57,37.57,0,0,0-5.32-2.14c-1.64-3.31-3.75-6.82-5.73-7.92a18.68,18.68,0,0,1,3.24,7.22c-.94-.23-.84-.26,0,.22a12.75,12.75,0,0,1,0,4.77c-1.17-.56-.87-.45-.06.24a11.17,11.17,0,0,1-1.23,3.16c-7.18-6.21-19.66-15.78-29.91-17.36a93.75,93.75,0,0,1,13,10c.29,2,.23,5.59-1,11.76-1.33-1.58-3-3.59-4.29-5.37,0,0-1.79-.71-1.63,3.21a19.23,19.23,0,0,1-7.12-11c-1.83,5.54,1.35,3.24-7.42-3.06a62.23,62.23,0,0,1,5.88,10.49c-.35,3.29-.25,7.06,1.24,9.92,0,0-1.47.05-3.91.16-5.11-4.52-17-15.33-23.26-23.42,0,0,8.5,11.08,3.3,21-1.45-2.76-11.11-12.1-11-17.7,0,0-4.37,12.66-.38,22.24,0,0-1.59-3.81-11.41-7.85l-.08-1.73s6.48-16.91,11.29-16.9-5-3.18-21,11c0,0-6.67-13.05-16.05-16.42,0,0,8.17,7.23,4.84,14.65-2.82-3.31-1.4-2.49-.43.84a13.26,13.26,0,0,1-3.21,3.67s-3.9-19.12-28.52-30.09c0,0,23,20.51,14.59,28.72-1.76-2.26-6.06-7.33-8.75-9.12,0,0,5.85,11.4.37,13.68,0,0-2.95-3.3-6.65-7.5.77-6.8,2-13.87,3.66-16.2,0,0-4,5.54-7.88,11.39-17.87-20.52-7.57-11.82-2.71,4.1-1.23,1.91-2.36,3.71-3.23,5.23-1.67-1.48-3.73-3.3-5.64-5.06-1.46-2.69-3.16-5.19-4.78-6.09a17.91,17.91,0,0,1,2,3.52c-.85-.82-1.59-1.56-2.13-2.16,0,0,4.11,12,2.09,11-3.55-1.82-9.56-13.82-26-17.56,0,0,16.95,8.68,15.12,15-3.53-2.34-10.21-8.17-15.2-10.25,0,0,8.15,6.39,5.35,9.13,0,0-20.39-20.37-35.77-22.73,0,0,20.12,12.57,17.95,19l-3.53,5.53s-4-4.56-6.74-8.21c0,0-2.18-.86-1.52,4.59,1.81,15,.68-4.41-14.65-15.41,0,0,12.61,17.67,5.65,22.69,0,0-17.63-15.06-25.7-25.55,0,0,8.5,11.09,3.3,21-1.44-2.76-11.11-12.11-11-17.71,0,0-4.37,12.66-.38,22.24,0,0-1.95-4.68-14.92-9.17.24.09,2.06,1.09,2.57,9.17,0,0-15.64-10.94-21.68-19.38,0,0,4.69,7.07-.33,19.39,0,0-17.17-1.8-17.6-16.64,0,0-4.47,19.83-8.64,22.57,0,0-.53-9.7.25-15.12s-3.8,5.54-5.06,6.91.57-26,4.1-31c0,0-14.77,20.65-15.55,24.33,0,0-4.6-12.49-8.69-14.77,0,0,8.08,10.26-.31,18.59,0,0,.07-4.6-15.6-13,0,0,2.72,1.67-.26,15.36,0,0-10.27-3.22-12.83-14.15,0,0-3.63,11-.3,17.34,0,0-40.6,1.38-47.55,5.49S539.53,451.44,591.05,455.54Zm897.44-18.1c-.08-1.56,4.36-11.39,7.73-15.32-.88,2.94-3.51,13.29-.12,21.42C1496.1,443.54,1494.94,440.77,1488.49,437.44Zm-251-5.84a4.53,4.53,0,0,0-1.08-2.29c1.28-1.58,2.58-2.63,3.78-2.62h.48A12.82,12.82,0,0,1,1237.49,431.6Zm-249.13,0a14,14,0,0,0-1.42,3.07s-.94-2.55-2.34-5.55C985.75,429.81,987.05,430.65,988.36,431.59Z"/>
    </g>
    <g class="cls-39">
      <path class="cls-40" d="M1259.09,744.93l0,0Z"/>
      <path class="cls-41" d="M568.89,743.94l0,0Z"/>
      <path class="cls-42" d="M414.47,780.4c60.67,5.49,80.78,15.12,79.15,16.32s22.44,16.6,114.12,5.45c23.39-2.85,40.31-4,52.87-4.17,31.17,5.08,42.18,10.73,40.95,11.62-1.64,1.2,22.45,16.61,114.12,5.45s84,3.44,103.53,4.27,71.6-4,71.6-4l-.15-3.39c95.22-11.36,84.93,3.2,105.22,4.06,19.5.83,71.6-4,71.6-4l-.92-21.09c13.2,3.36,18.1,6.21,17.26,6.82-1.63,1.2,22.45,16.6,114.12,5.45,35.57-4.33,56.19-4.78,69.24-3.67,15.3,3.66,21,6.86,20,7.52-1.63,1.19,22.45,16.6,114.12,5.44s84,3.44,103.53,4.27,71.6-4,71.6-4l-2-46.11s7.6-22.23,13.26-22.21-5.94-4.19-24.66,14.39c0,0-7.88-17.17-18.93-21.64,0,0,14,13.83,1.45,25.22,0,0-4.63-25.16-33.64-39.64,0,0,27.09,27,17.24,37.81,0,0-6.29-9-10.32-12,0,0,6.9,15,.46,18,0,0-21.52-26.87-24.64-32.06,0,0,13.4,26,8.89,32,0,0-12.53-12-16.43-16.83,0,0,4.85,15.77,2.48,14.41-4.18-2.41-11.28-18.21-30.62-23.16,0,0,20.48,11.74,17.74,20.14,0,0-11.39-10.82-17.83-13.83,0,0,9.61,8.41,6.32,12,0,0-24-26.84-42.17-30,0,0,23.72,16.58,21.18,25.06l-4.15,7.28s-4.78-6-7.95-10.82c0,0-2.56-1.14-1.78,6,2.16,19.72.79-5.8-17.28-20.3,0,0,14.89,23.27,6.7,29.86,0,0-20.79-19.84-30.32-33.66,0,0,10,14.6,3.94,27.66-1.71-3.64-12.34-15-12.92-22.65,1.31-1.61,2.61-2.64,3.83-2.63,5.67,0-5.94-4.2-24.66,14.38,0,0-7.88-17.17-18.93-21.63,0,0,10.41,10.31,5.19,20.45-11.11-12.24-3.24-8.84-3.61,4.64-.52.48-4-24.66-33.77-39.51,0,0,27.09,27,17.24,37.81,0,0-6.29-9-10.33-12a44,44,0,0,1,2.73,8.26c-.53,2.4-1.35,5.93-2.35,9.64-.76-1-6.38-8-12.09-15.3.9-8.33,2.3-16.55,4.08-19.39,0,0-4.15,6.5-8.5,13.7-12.65-16.44-8.16-13.6-1.82,3-2.11,3.55-4.13,7.07-5.61,9.9-9.25-9.31-8.37-9.44-7.94-8-1.48-2.76-3.1-5.12-4.65-6.09,0,0,5.64,8,3.75,16.68-4.61-5.53-12.25-16.12-27.45-20,0,0,20.11,11.52,17.8,19.9-.49-.45-12.28-11-17.89-13.6,0,0,4.32,3.78,6.17,7.36a25,25,0,0,1,.22,4.56c-.19.23-23.86-26.7-42.24-29.88,0,0,23.72,16.58,21.18,25.06l-4.15,7.28s-4.78-6-8-10.82c0,0-2.57-1.13-1.78,6,2.16,19.72.79-5.81-17.28-20.31,0,0,14.88,23.27,6.69,29.86,0,0-20.78-19.84-30.31-33.66,0,0,10,14.6,3.93,27.66-1.71-3.65-13.1-15.93-12.93-23.32,0,0-5.12,16.65-.4,29.27,0,0-2.31-6.16-17.59-12.1.29.12,2.43,1.44,3,12.07,0,0-18.43-14.43-25.56-25.54,0,0,5.54,9.31-.35,25.51,0,0-20.22-2.4-20.76-21.93,0,0-5.22,26.09-10.13,29.69,0,0-.63-12.77.28-19.89s-4.47,7.28-5.95,9.07.63-34.15,4.77-40.78c0,0-17.35,27.14-18.26,32,0,0-5.45-16.43-10.26-19.44,0,0,6,8.58,3.51,17.6a18.87,18.87,0,0,0-6.79,1.64c-2.48-2.86-7-6.84-15.45-11.87,0,0,3.21,2.21-.28,20.21a25.58,25.58,0,0,1-15.13-18.64c-2.38,8.09,1.2,5-6.62,1.8a27.65,27.65,0,0,1,4.91,7.15c-.43,3.94-.47,8.52.76,12.27a12.08,12.08,0,0,1-.81,1.66c-1,0-2.58.11-4.51.21-2.58-7.64-10.56-24.74-32.53-35.71,0,0,25.21,25.15,18.14,36.61l-1.67.13c-1.8-2.47-6.38-8.58-9.56-11,0,0,2.88,6.26,3.18,11.5-2.45.23-4.91.49-7.29.77-6.5-8.19-17.87-22.66-20.07-26.32,0,0,9.46,18.38,9.81,27.81-1.57.29-3,.59-4.33.92-4-3.93-10.42-10.32-13-13.52,0,0,4.85,15.77,2.48,14.41-4.19-2.41-11.29-18.21-30.63-23.16,0,0,20.48,11.74,17.74,20.14,0,0-11.38-10.82-17.82-13.83,0,0,9.6,8.41,6.31,12,0,0-24-26.84-42.16-30,0,0,23.72,16.58,21.17,25.06l-4.15,7.28s-4.77-6-7.95-10.82c0,0-2.56-1.14-1.77,6,2.16,19.73.79-5.8-17.29-20.3,0,0,14.89,23.27,6.7,29.86,0,0-6.51-6.22-13.92-14.11,1.74-2.66,3.55-4.54,5.2-4.53,3.62,0,.19-1.7-7.63,1.9-27.81-30.3-5.42-14.55-8.31,5q-1.73,1.26-3.59,2.82c-2.46-3.46-11.21-14.08-11.06-20.37a64.38,64.38,0,0,0-2.21,12.18c-3-3.65-6.67-7.08-10.8-8.75,0,0,9.53,9.43,5.8,19.13a52.7,52.7,0,0,0-8.13-4.31c-4.23-8.61-12.86-20.76-29.85-29.24,0,0,18.47,18.42,19.36,30.92-28.5-26.19-4.86-19-15,9.12-36.08-45.37-17.64-27.87-12.49-5-14.18-10.72-4-30.29-11.72-2.65-8.66-9-4-6.9-2,6.45-.28.79-.56,1.57-.84,2.3a27.28,27.28,0,0,1-4.11-4.47c.12-10.23,2.26-15.83-3.26-3.86-.8-.9-1.67-1.83-2.61-2.77.4-10.44,2.29-29.09,5.16-33.68,0,0-10.35,16.2-15.48,25.8a42.13,42.13,0,0,0-6.28-2.83c-1.94-4.36-4.42-9-6.76-10.44a26.28,26.28,0,0,1,3.83,9.52c-1.11-.3-1-.34.05.28a18.85,18.85,0,0,1,0,6.27c-1.37-.73-1-.58-.06.33a16.28,16.28,0,0,1-1.44,4.15c-8.47-8.18-23.18-20.8-35.26-22.89A111.35,111.35,0,0,1,852.76,745c.34,2.67.28,7.35-1.2,15.46-1.58-2.08-3.51-4.72-5.07-7.07,0,0-2.1-.94-1.91,4.23a25.86,25.86,0,0,1-8.4-14.47c-2.15,7.28,1.6,4.26-8.75-4a85.4,85.4,0,0,1,7,13.81c-.4,4.34-.28,9.3,1.48,13.06,0,0-1.74.06-4.6.2-6-6-20.09-20.2-27.44-30.86,0,0,10,14.6,3.93,27.66-1.71-3.65-13.11-16-12.93-23.32,0,0-5.12,16.65-.4,29.26,0,0-1.88-5-13.45-10.35l-.1-2.28s7.6-22.23,13.27-22.2-5.95-4.2-24.67,14.38c0,0-7.88-17.17-18.93-21.63,0,0,9.63,9.54,5.73,19.29-3.33-4.37-1.65-3.28-.5,1.1a17,17,0,0,1-3.78,4.82s-4.63-25.15-33.63-39.63c0,0,27.09,27,17.23,37.81-2.08-3-7.15-9.66-10.32-12,0,0,6.91,15,.46,18,0,0-3.48-4.35-7.85-9.89.89-9,2.37-18.24,4.28-21.3,0,0-4.65,7.27-9.26,15-21.07-27-8.92-15.57-3.18,5.39-1.45,2.51-2.77,4.89-3.79,6.87-2-1.94-4.4-4.35-6.65-6.66-1.72-3.54-3.73-6.84-5.63-8a25.3,25.3,0,0,1,2.41,4.64c-1-1.08-1.87-2.05-2.5-2.84,0,0,4.85,15.78,2.47,14.41-4.18-2.41-11.28-18.21-30.62-23.15,0,0,20,11.44,17.83,19.82-4.16-3.09-12-10.77-17.91-13.52,0,0,9.6,8.42,6.31,12,0,0-24-26.84-42.16-30,0,0,23.72,16.58,21.17,25.06l-4.15,7.28s-4.78-6-8-10.82c0,0-2.56-1.13-1.78,6,2.17,19.72.8-5.81-17.28-20.31,0,0,14.89,23.27,6.7,29.86,0,0-20.79-19.84-30.31-33.66,0,0,10,14.6,3.93,27.66-1.71-3.64-13.11-15.94-12.93-23.32,0,0-5.12,16.65-.41,29.27,0,0-2.31-6.16-17.58-12.1.28.13,2.43,1.44,3,12.08,0,0-18.43-14.44-25.57-25.55,0,0,5.54,9.31-.35,25.51,0,0-20.21-2.4-20.75-21.93,0,0-5.22,26.09-10.13,29.69,0,0-.64-12.77.27-19.89s-4.46,7.28-5.95,9.07.63-34.15,4.77-40.78c0,0-17.35,27.14-18.26,32,0,0-5.44-16.43-10.26-19.44,0,0,9.53,13.51-.34,24.45,0,0,.09-6-18.39-17.08,0,0,3.21,2.21-.28,20.21a25.58,25.58,0,0,1-15.13-18.64s-4.24,14.41-.31,22.82c0,0-47.81,1.73-56,7.13S353.81,774.91,414.47,780.4Zm1056.65-22.12c-.09-2.06,5.12-15,9.07-20.15-1,3.87-4.1,17.48-.1,28.19C1480.09,766.32,1478.72,762.67,1471.12,758.28Zm-295.55-8.16a6.4,6.4,0,0,0-1.27-3c1.5-2.07,3-3.44,4.45-3.44h.56A17.21,17.21,0,0,1,1175.57,750.12Zm-293.33-.49a19.91,19.91,0,0,0-1.67,4s-1.11-3.36-2.77-7.31C879.16,747.29,880.69,748.4,882.24,749.63Z"/>
    </g>
    <path class="cls-43" d="M1791.89-152.48l-1.42-.1c0-.31,0-.62,0-.93a142.51,142.51,0,0,0-1.66-21.77c1.85-.53,3.74-1.17,5.65-1.91,16.22-6.34,27.58-18.15,25.38-26.38s-17.14-9.77-33.36-3.43q-2.91,1.14-5.58,2.49c-13.3-33.45-39.26-58.16-70.38-65a108.08,108.08,0,0,0,10.51-47c0-31.57-13-59.48-32.83-76.37,7.08-14,9.08-27.36,4.23-31.82-5.47-5-17.69,3.11-27.8,18.29a65,65,0,0,0-20.85-3.44c-23.86,0-45.2,13.07-59.37,33.61-10-20.13-28.27-33.61-49.13-33.61a48.29,48.29,0,0,0-16.4,2.88c-19.2-51.46-53.91-92.65-96.94-114.87,1.84-9.56.87-17.67-2.56-19s-7.91,4.16-11.09,12.74a159,159,0,0,0-30.14-8.95q1-3,1.92-6.3c5.3-19.57,4.08-37.62-2.73-40.31s-16.62,11-21.91,30.58a98.73,98.73,0,0,0-2.66,13.28c-1.37,0-2.74-.06-4.11-.06a156.47,156.47,0,0,0-21.19,1.44c-.39-10.85-3.58-19.32-7.45-19.32-4.14,0-7.49,9.65-7.49,21.55v.56c-54.45,12.91-100.41,54.42-126.72,111.06a49,49,0,0,0-23.77-6.22c-29.71,0-54.14,27.33-57,62.32a63.39,63.39,0,0,0-36.74-12,61.89,61.89,0,0,0-26.4,5.95c-3.07-12.8-8.92-21.8-13.53-20.42-4.89,1.46-6.51,14-3.64,28.1.23,1.08.47,2.14.73,3.18a80.28,80.28,0,0,0-10.67,11.45c-.29-.59-.6-1.18-.91-1.77-6.55-12.13-15.27-19.27-19.49-15.95s-2.33,15.85,4.21,28a58.4,58.4,0,0,0,5.32,8.2,102.61,102.61,0,0,0-8.53,41.37,102.43,102.43,0,0,0,8.68,41.71c-15.64,11.87-26,32.9-26,56.86,0,.45,0,.88,0,1.32a57,57,0,0,0-12.16-1.32c-13.88,0-26.79,5.06-37.53,13.72-.73-.78-1.5-1.55-2.32-2.3-7.83-7.21-16.21-9.84-18.72-5.86s1.72,12.85,9.39,20a83,83,0,0,0-9.32,15c-6.6-4.79-12.86-6.11-15-2.77-2.42,3.84,1.52,12.42,8.85,19.5a97.11,97.11,0,0,0-3.08,24.46c0,45.18,30.31,81.8,67.7,81.8a55.71,55.71,0,0,0,5.66-.29c9.56,54,49.25,94.41,96.76,94.41a83.51,83.51,0,0,0,31.26-6.09c25.45,54.43,73.78,91.17,129.21,91.17,27.43,0,53.11-9,75.15-24.68,15.85,61.75,63.5,106.61,119.82,106.61,52.83,0,98-39.46,116.51-95.31a86.27,86.27,0,0,0,38.86,9.31c46.19,0,85.18-37.26,97.5-88.26,1.34.11,2.69.17,4.06.17,33.31,0,60.32-32.63,60.32-72.88a85.35,85.35,0,0,0-5.75-31.09c19.8-11.56,35.88-30.95,45.48-54.86q4.07.67,8.34,1c28,2.24,51.3-7.46,52.08-21.66S1819.87-150.24,1791.89-152.48Z"/>
    <path class="cls-44" d="M1316.6-15.66c40.74,55.19,52.16,117.52,52,175.8-.06,22.64.12,57.63-.31,92.19.88,26.38,1.3,52.76,1.1,79.15-.35,46.12-2.24,92.58-7.37,138.43a152.62,152.62,0,0,1-14.22,49.88c-7.78,16-18.3,30.63-29.7,44.24-13.9,16.6-29.78,31.6-46.09,45.8a121.29,121.29,0,0,1-34.1,21.23c1.22,1.35,4,1.92,5.64,2.31,17.06,4,35.14,3.21,52.4,1.21,19.41-2.26,38.72-5.52,58-8.49,18.12-2.78,36.24-4.43,54.32-.46,9.2,2,18.14,5,27.18,7.59a230.71,230.71,0,0,0,27.54,5.92c40.06,6.35,80.74,6.4,121.2,7,14.51.22,29.07.5,43.59,0-21.29-8.36-57.89-23.8-91.45-43.21-58.5-33.81-69.59-35.35-91.3-137.19-25.87-121.34-2.51-228.95,5-283.12S1522.17,7.84,1522.17,7.84l152.29-94-20.69-26.58s-103.4,65.41-114.68,60.31,26.32-81.76,26.32-81.76l-23.81-30.67s-84.82,237-88.37,243.24-12.54,26.58-25.08,16.36-9.39-328.08-9.39-328.08l-65.18,22.49s5.64,137-1.26,145.12-86.48-60.29-91.5-73.59,7.53-106.28,7.53-106.28l-16.3-9.2s-4.4,85.86-11.28,94-57.66-46-57.66-46L1169.32-170S1275.86-70.85,1316.6-15.66Z"/>
    <path class="cls-25" d="M2062-6.55a53.63,53.63,0,0,0-2-12.09,29.61,29.61,0,0,0,5.91-1.69c-31.7-22.45-69.28-34.25-109-21.07-1.27.42-2.45-1.45-1.36-2.34,5.86-4.75,9-11.22,12.81-17.46-7.76-4.55-16.83-3.42-25.19-.82-1.43.44-2.16-1.33-1.34-2.32,6.28-7.62,13.9-14.16,19.47-22.35-11.87-3.9-24-.68-35.31,4-1.09.45-2.16-1.08-1.53-2,9.65-13.88,28.81-22.43,33.79-39.22-12.34.07-21.23,6.48-29.79,15.08-6.94,7-13.62,14.1-23.1,17.49a1.3,1.3,0,0,1-1.59-1.6,96,96,0,0,0,4.27-12.9c.73-3.11,3-11.65.51-14.53-2.67-3.12-11.5-2-15.13-1.11a32,32,0,0,0-11.82,5.92c-1.11.84-2.15-.72-1.7-1.71,4.27-9.49,7.42-23.69-1.31-31.84-9.82-9.17-24.34-.94-32.84,5.83a1.2,1.2,0,0,1-1.87-.24c-7.55-13.91-16.5-46.13-37.79-32.06a1.37,1.37,0,0,1-2-1.17c-.51-6.11-5.28-10.2-7.93-15.39-9.46,3.77-16.79,10.95-22.14,19.53a1.4,1.4,0,0,1-2.55-1.08c3.07-14.33,6.09-28.77,6.74-43.45.61-13.77-.39-30.72-11.91-40.06-19.82,31.6-4.67,68.64-11.09,103.13-.27,1.47-2.13,1.07-2.58,0-5.66-13.42-20.25-9.12-28.66-1.11a1.37,1.37,0,0,1-2.27-1.32c.95-3.86.43-7.82,1.16-11.64-11.38,2.48-20.86,9-29.79,16.41-1.16,1-3-.25-2.17-1.67,5.14-8.88,11.19-17.48,14.55-27.26a47.28,47.28,0,0,0,1.61-5.73c.65-3.13,2-5.8-1.28-7-3.79-1.32-9.23.1-12.7,1.69-13.4,6.13-21,21.19-30.9,31.36a1.43,1.43,0,0,1-2.37-.63,144.06,144.06,0,0,1-3-22.94c-.32-5.69-.26-11.54-1.54-17.12-3.51-15.36-20.67-20.35-34-24.22a1.42,1.42,0,0,1-.83-2.07c3.71-4.84,6.92-10.05,7.27-16.31a26.34,26.34,0,0,0-.07-3.44q-.58-3.11-3.54-2.48c-3.08-1-7.69-.48-10.67.25a1.42,1.42,0,0,1-1.58-2.06c5.38-8.39,25-21.94,16.15-33-7.47-9.28-26.45-2.61-34.86,2.22-1.42.82-2.61-1-1.66-2.15,6.61-7.95,15.67-14.34,19.82-24-15.07-5.83-30.92-4.2-45.67,2.09a1.31,1.31,0,0,1-1.59-2.05c5.33-5.8,7.91-13.6,11.18-20.68-15.75-5.24-31.14,6.06-44,14.1-1.28.8-2.41-.95-1.53-2,10.07-11.73,20.76-23.86,25-39-12.07.88-22.32,7.65-30.15,16.7-.92,1.06-2.53-.31-1.88-1.45a53.84,53.84,0,0,0,6.64-24.31,63.29,63.29,0,0,0-14.87,18.65,1.22,1.22,0,0,1-2.2-.29c-5-13.68-6.62-28.75-14.48-41.22-20,22.7-4,55.78-.54,81.84h0l0,.27c.16,1.2-1.7,1.33-2,.27-3.55-11.67-18.61-17.46-29.31-20-10.42-2.46-26.42-4.27-34.18,5.05a1.11,1.11,0,0,1-1.85-.49c-.88-3.9-2.15-10.33-6.81-11.4-3.13-.71-6.44,1.66-8.71,3.47-5.23,4.17-9.39,9.74-13.25,15.13-.66.92-2.39.71-2.32-.63,1-18.91,4-37.68,4.21-56.63.26-19.16-2.1-39.7-15-54.73-32,37.5-12.65,88.64-5.77,131.67a1.15,1.15,0,0,1-2.22.61c-4.58-13.86-11.23-32.8-29.51-26.72a1.13,1.13,0,0,1-1.25-.51c-7.77-12.07-22.27-2.4-29.08,5.47-.78.9-2.53-.06-2.07-1.2,2.36-5.88.63-11.16,0-17A47.1,47.1,0,0,0,1291-316.65c-1,1.16-2.59-.33-2-1.53,8.53-16.75,19.57-32.31,26-50.07,2.92-8,6.44-19.44,3.87-28.05-.86-2.87-1.42-2-4.16-1-2,.74-4,1.56-5.91,2.46a81.08,81.08,0,0,0-10.74,6.09c-27.56,18.4-42.46,49.52-61.93,75.25a1.19,1.19,0,0,1-2.16-.91c.72-4.08,1.58-10.25-2.61-12.86-2.82-1.75-6.71-1.06-9.72-.27-7.3,1.9-14.25,6.07-20,10.89a1.26,1.26,0,0,1-2.09-1.21c1.59-6.14.26-12.78,0-19.07-12.57-.34-22,11.22-26.83,21.78-.56,1.22-2.44.56-2.44-.67.15-25.44,4.84-52.45-5.79-76.45-18.2,26.2-27.3,58.33-24.22,90.19.11,1.23-1.47,1.58-2.23.93-13.53-11.5-34.37-17.54-46-.27a1.32,1.32,0,0,1-2,.27c-8.85-9.77-19.38-5-25.43,4.89a1.33,1.33,0,0,1-2.26,0c-2.25-3.66-5.88-6.27-9.07-9.11-6.7,7.74-9.43,18.14-12.59,27.69a1.31,1.31,0,0,1-2.51,0c-3.53-15.46-4.69-31.33-7.22-47-2.38-14.7-5.74-30.4-15.39-42.17-19.31,33.76-5,79.25,9.53,112.17a1.3,1.3,0,0,1-2,1.57,52,52,0,0,0-11.86-7.57c-2.16,13.32,4,25.55,10.46,36.91a1.3,1.3,0,0,1-2,1.57c-4.84-4.18-17.65-14.3-22.39-4.72-3.58,7.22-.84,17.93,3,24.43,8.65,14.53,25.13,24.09,39.82,31.51,1.41.71.33,2.57-1,2.35-7.93-1.32-16.54-1.29-23.69,2.88-7.49,4.37-11,12.05-12.52,20.26a1.29,1.29,0,0,1-2.33.31c-1.82-4.1-5.58-5.24-8.91-7.46-5.74,8.2-7.5,17.45-7.61,27.42a1.27,1.27,0,0,1-2.49.34c-4.75-13.43-6.81-27.66-11.26-41.2-2-6.22-4.49-12.53-8.31-17.91-.87-1.23-4.75-6.74-6.5-6.45-1.58.27-3.86,5.18-4.63,6.61-6,11.27-6.57,24.91-5.23,37.37,2.73,25.27,13.11,53.48,31.11,71.93a1.18,1.18,0,0,1-1.42,1.86c-11.48-6.22-25.56-4.58-29.26,9.58a1.12,1.12,0,0,1-2,.26c-2.59-3.48-6.19-8-10.8-8.79-6.09-1-8.37,5.55-9.56,10.23-.32,1.23-1.92.81-2.05-.28-1.44-11.75-2.5-24.37-8.07-35-.58-1.12-1.31-3.16-2.44-3.76-1.41-.75-1.47,0-2.55,1.57a29.43,29.43,0,0,0-3.28,6.23,45.68,45.68,0,0,0-2.74,13.08c-1.43,18.66,4.08,38.64,12.23,55.31a.81.81,0,0,1-1.1,1.1c-7-4.1-16.59-6.43-18.43,4a21.45,21.45,0,0,0-.14,6.2,43.66,43.66,0,0,0,24.28,7.34c1,0,2,0,2.95-.1a73.8,73.8,0,0,0,70.82,53.06,73.61,73.61,0,0,0,28.23-5.59A91.15,91.15,0,0,0,1193,35a107.22,107.22,0,0,0,54.59,14.84,107.35,107.35,0,0,0,72.82-28.36,151.69,151.69,0,0,0,42.93,6.17A150.87,150.87,0,0,0,1451.78-.87a59.45,59.45,0,0,0,32.87-16.93,69.94,69.94,0,0,0,27.18,25,70,70,0,0,0,50.67,5.4,99.14,99.14,0,0,0,23,16.44,98.88,98.88,0,0,0,115.8-18.37,116.3,116.3,0,0,0,45.19,41.5,116.85,116.85,0,0,0,117.75-6,77.85,77.85,0,0,0,20,14.84,78,78,0,0,0,96-19.65q1.88,1.17,3.87,2.21a53.34,53.34,0,0,0,71.89-22.86,53.38,53.38,0,0,0,5.18-15.29c7.24-1.45,12.58-5,12-8.09C2072.81-5.44,2068-6.94,2062-6.55Z"/>
    <path class="cls-45" d="M1604.92,652.61c.38,31.31-109.68,59.86-247.77,52.88-136.69-6.91-247.77-23.67-247.77-52.88s110.93-52.87,247.77-52.87S1604.57,623.42,1604.92,652.61Z"/>
    <path class="cls-46" d="M1519.07,607.38c16.86-5.51,15.7-25.63-4.47-24.69,12.9-15.58.89-36.07-17.55-25.12-5.21-13.35-19.51-14.77-21.27.68-4.88-9.31-13.12-15-21.83-12.14,31.82-20.18-12.68-40.89-31.91-37.19,5.72-32.55-26-47.91-48.74-29.31-7.56-33.52-50.43-1.23-60,14.58-18.17-22.92-50.13-2.88-51.34,24.54-24.47-22.58-36.49,19.68-33.33,39.35-17.11-8.13-17.24,14.95-12,26.93-13.58-4-22.16,4.2-15.53,18.56-14.07-3.67-24.17,7.26-15.53,21-12.17-.47-32.63,2.1-17,15.8-7.54-1.35-11.28,2.67-16.74,3.91,1.73,6.06,4.54,4.32,9.15,5.89l-14.28,3.69c8,13.65,28.87,11.31,39,1.29,7,5.16,3.07,5.14,12.25-.82,7.7,16.57,19.76,7.93,19.14-8.24,7.93,7.86,22.43,8.34,32.14.49-16.6,15,20.91,24.85,32.2,7.79,1,16.41,21.48,10.74,26-.14,5.82,12.18,18.83,13.08,29.4,7.3,18.09,25.83,31-8,45.53-16,3,13.19,17.12,13.76,27.49,8.11-.23,2.63.2,6,0,8.73,15.5,2.81,32.82,4.89,45.19-7.62,8.44,10.21,24.62,4.9,25.67-9.59,10.12,4.92,24.25,6.94,24.5-8.32,8.22-.51,17.21-1.15,24.59-3.13-3-1.49-6.22-4.29-9.53-5.93a74,74,0,0,0,23-5.2C1539.42,612.76,1529.4,608.92,1519.07,607.38Z"/>
    <path class="cls-47" d="M1538.15,615.17a108.42,108.42,0,0,0-27.3-5c-14.46-.88-30,.42-43.34,6.83-.77.36-1.75-.69-1-1.36,3.53-3.07,7.53-5.5,10.88-8.8-4.72-6.53-13.88-6.05-20.71-4.6a54.15,54.15,0,0,0-18.59,7.54c-.67.5-1.36,1-2,1.45s-1.55-.81-.76-1.4,1.35-1,2-1.45a67.26,67.26,0,0,0,19-22c-17.76,1.19-36.5,9.46-48.23,24-.59.73-1.65-.22-1.22-1,2.55-4.64,7.38-10,6.72-15.84a27.27,27.27,0,0,0-18.79,11.65c-.55.81-1.64.13-1.26-.79,1.94-4.66,4.7-8.92,6.28-13.74-9.11,1.28-15.9,8.38-21.84,15.41-.55.65-1.32-.07-1.23-.77.68-5.29,2.28-10.38,3.11-15.64-8.08,4.3-12,14.75-15,23.23-.3.83-1.68.8-1.57-.23a107.38,107.38,0,0,0,.35-20.44c-.56-6.53-1.84-13.66-5.6-19-4.65,6.13-5,14.95-4.63,22.51a123.93,123.93,0,0,0,4,23.93.67.67,0,0,1-1.22.55c-1.45-2.68-3.94-4.76-6.89-3.37-2.67,1.26-3.84,4.36-3.93,7.3a.64.64,0,0,1-1.26.19c-2-7.66-9.77-7.88-14.3-2.57-.45.52-1.23,0-1.07-.66.84-3.47,1.36-7.54.54-11.07-1.29-5.53-5.52-.77-7.49,1.73-.47.6-1.47-.23-1-.85,2-2.74,3.1-5.52,2.69-8.94-3.88.28-7.32,2.24-10.36,4.77a.67.67,0,0,1-1-.84,25.73,25.73,0,0,0,1.89-9.45,39.09,39.09,0,0,0-13.59,8.12c-.42.37-1.29,0-1-.64a37.7,37.7,0,0,0,2.59-10.19c-6.45,3.46-10.7,10.79-13.35,17.72-.35.91-1.49.57-1.36-.4,1.93-14.36,4.4-28.73,4-43.29-11.47,11-12.65,28.74-13.37,44.21a.68.68,0,0,1-1.27.37c-1.55-3.09-4.23-8.63-8.31-7.52-3.65,1-6.48,5.4-8.68,8.37-.35.48-1.19.08-1.14-.51.22-2.37,1-8.12-1.54-9.57-1.77-1-4.22,1-5.56,2A56,56,0,0,0,1240.33,618a.62.62,0,0,1-1.06-.66,123.87,123.87,0,0,0,7.21-19.27c1.66-6.07,3.18-13,1.68-19.31-13.49,12.36-20.39,29.61-29.25,45.67-.35.64-1.15.18-1.06-.48a38.5,38.5,0,0,0,.17-11.29c-6.67,2.66-9.9,11-13.86,16.75-.36.53-1.06.2-1-.44.44-3-.35-5.84-1.09-8.71a23.16,23.16,0,0,0-4.61,11.15.49.49,0,0,1-.91.13c-1.87-4.51-3.69-9.06-5.87-13.41-1.62-3.23-3.61-7.37-6.65-9.47-2.44,4-2.39,9.67,1.54,16-12.17-.47-32.63,2.1-17,15.8-7.54-1.35-11.28,2.67-16.74,3.91,1.73,6.06,4.54,4.32,9.15,5.89l-14.28,3.69c8,13.65,28.87,11.31,39,1.29,7,5.16,3.07,5.14,12.25-.82,7.7,16.57,19.76,7.93,19.14-8.24,7.93,7.86,22.43,8.34,32.14.49-16.6,15,20.91,24.85,32.2,7.79,1,16.41,21.48,10.74,26-.14,5.82,12.18,18.83,13.08,29.4,7.3,18.09,25.82,31-8,45.53-16,3,13.19,17.12,13.76,27.49,8.11-.23,2.63.2,6,0,8.73,15.5,2.81,32.82,4.89,45.19-7.62,8.44,10.21,24.62,4.9,25.67-9.59,10.12,4.92,24.25,6.94,24.5-8.32,8.22-.51,17.21-1.15,24.59-3.13-3-1.49-6.22-4.29-9.53-5.93a74,74,0,0,0,23-5.2A19.77,19.77,0,0,0,1538.15,615.17Z"/>
    <g>
      <path class="cls-48" d="M988.56,554.13A4.59,4.59,0,0,1,984,552.9s-3.1,1.22-5.35-.51.52-3.17.52-3.17-2.81-.57-1.71-2.31c1.38-2.13,5.14-.18,5.14-.18s.31-2.89,3.92-2,2.09,2.85,2.09,2.85,4.55-.36,4.63,2-3.11,1.66-3.11,1.66S991.38,553.31,988.56,554.13Z"/>
      <path class="cls-48" d="M789,547.87a4.33,4.33,0,0,1-4.38,0,5.43,5.43,0,0,1-4.82.85c-2.53-.94-.64-2.87-.64-2.87s-2.65.18-2.28-1.59c.45-2.17,4.4-1.39,4.4-1.39s-.74-2.6,2.71-2.67,2.8,2,2.8,2,3.83-1.4,4.7.59-2.13,2.16-2.13,2.16S791.15,546.47,789,547.87Z"/>
      <path class="cls-48" d="M967,537.75a3.58,3.58,0,0,1-3.57-1.2s-2.59.82-4.24-.65.66-2.5.66-2.5-2.2-.6-1.19-1.91c1.26-1.63,4.12.1,4.12.1s.48-2.29,3.27-1.4,1.45,2.38,1.45,2.38,3.68-.06,3.55,1.79-2.58,1.17-2.58,1.17S969.32,537.24,967,537.75Z"/>
      <path class="cls-48" d="M1143.46,549.14a4.1,4.1,0,0,1-4.17.39,5.17,5.17,0,0,1-4.56,1.21c-2.48-.73-.85-2.75-.85-2.75s-2.49.39-2.27-1.35c.27-2.14,4.08-1.7,4.08-1.7s-.89-2.46,2.4-2.83,2.81,1.72,2.81,1.72,3.56-1.69,4.54.18-1.84,2.3-1.84,2.3S1145.44,547.62,1143.46,549.14Z"/>
      <path class="cls-48" d="M854.73,536.66a5.08,5.08,0,0,1-5.16-.6s-3,1.8-5.8.29-.22-3.49-.22-3.49-3.12-.19-2.35-2.21c.87-2.52,5.38-1,5.38-1s-.39-3.18,3.65-2.77,2.9,2.76,2.9,2.76,4.76-1.09,5.44,1.4-2.88,2.25-2.88,2.25S857.53,535.35,854.73,536.66Z"/>
      <path class="cls-48" d="M824.51,531.31a3.18,3.18,0,0,1-3.2-1.15s-2.37.69-3.82-.7.66-2.25.66-2.25-2-.59-1-1.77c1.19-1.46,3.72.19,3.72.19s.52-2.08,3-1.21,1.24,2.18,1.24,2.18,3.32,0,3.18,1.71-2.4,1-2.4,1S826.63,530.88,824.51,531.31Z"/>
      <path class="cls-48" d="M1113.9,537a3,3,0,0,1-3-1.57s-2.52.39-3.74-1.17,1.2-2.15,1.2-2.15-1.88-.85-.65-1.89c1.54-1.28,3.76.67,3.76.67a2.27,2.27,0,0,1,3.31-.8c2.34,1.2.77,2.33.77,2.33s3.37.46,2.84,2.09-2.64.7-2.64.7S1116.14,536.91,1113.9,537Z"/>
      <path class="cls-48" d="M906,556.61a4.72,4.72,0,0,1-4.79-1.31s-3.3,1.29-5.64-.49.62-3.3.62-3.3-2.92-.61-1.7-2.39c1.47-2.24,5.4-.22,5.4-.22s.41-3,4.17-2.07,2.1,3,2.1,3,4.81-.38,4.83,2.05-3.26,1.71-3.26,1.71S909,555.74,906,556.61Z"/>
      <path class="cls-48" d="M1092.7,535.9a2.82,2.82,0,0,1-2.85-.37,3.62,3.62,0,0,1-3.22.1c-1.49-.83,0-1.91,0-1.91s-1.74-.13-1.24-1.24c.62-1.34,3-.48,3-.48s-.07-1.76,2.15-1.47,1.5,1.53,1.5,1.53,2.7-.55,3,.8-1.67,1.22-1.67,1.22S1094.29,535.22,1092.7,535.9Z"/>
      <path class="cls-48" d="M937,549.09a3.16,3.16,0,0,1-3.17-1.46s-2.53.51-3.88-1,1-2.26,1-2.26-2-.76-.8-1.89c1.42-1.41,3.86.47,3.86.47s.8-2.07,3.31-1,1,2.35,1,2.35,3.46.3,3,2-2.6.83-2.6.83S939.23,548.84,937,549.09Z"/>
      <path class="cls-48" d="M1105.76,499.12a4.12,4.12,0,0,1-4.16-1.11s-2.83,1.11-4.87-.47.48-2.88.48-2.88-2.57-.52-1.57-2.1c1.26-1.94,4.69-.16,4.69-.16s.27-2.64,3.54-1.8,1.91,2.6,1.91,2.6,4.13-.32,4.23,1.78-2.84,1.5-2.84,1.5S1108.34,498.38,1105.76,499.12Z"/>
      <path class="cls-48" d="M933.55,506a4,4,0,0,1-4,0,4.89,4.89,0,0,1-4.37.79c-2.29-.86-.59-2.61-.59-2.61s-2.4.17-2.06-1.44c.41-2,4-1.27,4-1.27s-.65-2.37,2.47-2.43,2.55,1.8,2.55,1.8,3.47-1.28,4.28.54-1.94,1.95-1.94,1.95A1.52,1.52,0,0,1,933.55,506Z"/>
      <path class="cls-48" d="M1085.86,489a3.27,3.27,0,0,1-3.26-1.08s-2.35.73-3.85-.61.61-2.28.61-2.28-2-.53-1.08-1.72c1.14-1.49,3.75.09,3.75.09s.43-2.08,3-1.27,1.32,2.16,1.32,2.16,3.35,0,3.24,1.63-2.35,1.05-2.35,1.05S1088,488.55,1085.86,489Z"/>
      <path class="cls-48" d="M1162.9,513.25a3.75,3.75,0,0,1-3.81.34,4.65,4.65,0,0,1-4.14,1.11c-2.25-.66-.77-2.49-.77-2.49s-2.28.35-2.06-1.25c.24-1.94,3.71-1.54,3.71-1.54s-.8-2.24,2.17-2.55,2.56,1.56,2.56,1.56,3.23-1.54,4.14.15-1.69,2.09-1.69,2.09A1.48,1.48,0,0,1,1162.9,513.25Z"/>
      <path class="cls-48" d="M998.81,507.34a4.69,4.69,0,0,1-4.74-.54,5.86,5.86,0,0,1-5.32.26c-2.56-1.35-.21-3.2-.21-3.2s-2.86-.18-2.15-2c.8-2.32,4.94-.91,4.94-.91s-.36-2.92,3.35-2.55,2.68,2.54,2.68,2.54,4.37-1,5,1.27-2.66,2.08-2.66,2.08S1001.39,506.13,998.81,507.34Z"/>
      <path class="cls-48" d="M968.11,489.69a2.93,2.93,0,0,1-2.92-1.05s-2.16.63-3.48-.64.61-2.05.61-2.05-1.81-.54-.91-1.6c1.08-1.33,3.39.16,3.39.16s.46-1.89,2.75-1.09,1.15,2,1.15,2,3,0,2.88,1.55-2.18.91-2.18.91S970,489.29,968.11,489.69Z"/>
      <path class="cls-48" d="M1216.65,509.12a2.92,2.92,0,0,1-3-1s-2.17.72-3.59-.5.6-2.08.6-2.08-1.86-.47-1-1.59c1.09-1.36,3.5.05,3.5.05s.41-1.93,2.78-1.23,1.19,2,1.19,2,3.11-.09,3,1.44-2.2,1-2.2,1S1218.61,508.65,1216.65,509.12Z"/>
      <path class="cls-48" d="M1036.86,496.2a2.5,2.5,0,0,1-2.56-.7,3.4,3.4,0,0,1-3-.26c-1.23-.94.33-1.75.33-1.75s-1.56-.32-.92-1.27c.79-1.2,2.88-.12,2.88-.12s.21-1.61,2.2-1.11,1.12,1.59,1.12,1.59,2.57-.19,2.57,1.1-1.74.9-1.74.9S1038.44,495.73,1036.86,496.2Z"/>
      <path class="cls-48" d="M1194.74,500.35a2.54,2.54,0,0,1-2.59-.35,3.24,3.24,0,0,1-2.92.1c-1.35-.75,0-1.74,0-1.74s-1.59-.11-1.13-1.11c.57-1.23,2.78-.46,2.78-.46s-.08-1.58,2-1.33,1.36,1.39,1.36,1.39,2.44-.51,2.68.75-1.52,1.1-1.52,1.1S1196.21,499.71,1194.74,500.35Z"/>
      <path class="cls-48" d="M1061.24,501.23a3.13,3.13,0,0,1-3.21-.64,4.17,4.17,0,0,1-3.7-.09c-1.61-1.06.2-2.18.2-2.18s-2-.27-1.27-1.5c.83-1.5,3.51-.37,3.51-.37s.08-2,2.61-1.52,1.56,1.86,1.56,1.86,3.12-.46,3.26,1.12-2,1.26-2,1.26S1063.14,500.54,1061.24,501.23Z"/>
    </g>
    <g>
      <path class="cls-48" d="M1236.09,7.75c-3.24,1.74-5.26-2.67-5.26-2.67s-3.55,2.65-6.13-1.12.61-6.88.61-6.88-3.23-1.25-2-5c1.58-4.63,5.89-.38,5.89-.38s.36-6.28,4.5-4.3,2.39,6.22,2.39,6.22,5.21-.79,5.3,4.25-3.56,3.61-3.56,3.61S1239.33,6,1236.09,7.75Z"/>
      <path class="cls-48" d="M1413.6-3.09c-2.26,3.3-4.79.84-4.79.84s-2.36,4.19-5.22,2.64-1-6-1-6-2.85.85-2.6-2.93a3.73,3.73,0,0,1,4.67-3.71s-1-5.35,2.75-6.14,3.23,3.74,3.23,3.74,4.08-3.67,5.21.38-2.11,5-2.11,5A5.4,5.4,0,0,1,1413.6-3.09Z"/>
      <path class="cls-48" d="M1141.54,13.13c-3.43,1.84-5.5-2.83-5.5-2.83s-3.78,2.78-6.45-1.07.71-7.19.71-7.19-3.35-1.31-2-5.2c1.69-4.85,6.19-.45,6.19-.45s.47-6.58,4.79-4.52,2.4,6.48,2.4,6.48,5.51-.82,5.54,4.46-3.74,3.73-3.74,3.73S1144.93,11.24,1141.54,13.13Z"/>
    </g>
    <path class="cls-49" d="M179.19,655.31c7.4,2.47,381.12,97.45,381.12,97.45l377.41-65.69L491.24,628.19Z"/>
    <polygon class="cls-50" points="825.51 696.77 464.88 652.64 447.19 356.21 756.14 404.45 832.09 492.64 825.51 696.77"/>
    <path class="cls-51" d="M689.81,330.23,381.4,277.35,239.94,451.53,270.28,670l291.08,71.18-13-236.8Zm-371,307.24s0,0,0,0S318.79,637.47,318.77,637.47Z"/>
    <path class="cls-52" d="M366.29,659.82a.68.68,0,0,1-.66-.65c-.36-4.94-5.81-137.65,7.75-140.82,5.43-1.26,11.24-.66,16.7.13,5.69.82,11.29,2.15,16.93,3.21,8.36,1.57,16.83,2.58,25.21,4,9.12,1.58,18.21,3.26,27.31,4.9,17.73,3.18,35.54,6.37,53.5,7.82,13.08,1,26.94,1.28,39.73-2.27l-4.41-31.76L689.81,330.23,381.4,277.35,239.94,451.53,245.57,492c.83.29,24.69,175.65,24.71,178l248.34,60.73C521.39,721.68,372.18,660.51,366.29,659.82Z"/>
    <path class="cls-53" d="M716.67,371.15q-11.37,13.37-22.38,27-8.94,11.15-17.54,22.56-2.61,3.47-5.15,7a41.71,41.71,0,0,1,18-4.2c46.9,0,84.92,83.4,84.92,186.28,0,31.7-5,65.86-11.37,92l10.78,2.6,38-11.94,6.58-207.34Z"/>
    <path class="cls-54" d="M689.81,330.23,548.35,504.41s12.19,233.51,13,236.8l73-14.52c-9-29.52-16.15-74.45-16.15-112.57,0-102.88,38-186.28,84.91-186.28s84.92,83.4,84.92,186.28c0,31.7-7.79,64.14-14.16,90.27l51.58-7.62,6.58-207.34Z"/>
    <g class="cls-55">
      <path class="cls-56" d="M685.06,356.72a132.27,132.27,0,0,1-.85-19.6L675,348.46c.2,5.13.56,10.25,1,15.36,2,23.22,4.26,46.42,6.43,69.62a47.54,47.54,0,0,1,8-3.49c-.87-14.73-1.65-29.46-2.52-44.19C687.28,376,686,366.41,685.06,356.72Z"/>
      <path class="cls-57" d="M767.09,416.7l-11-12.25c.28,5.16.7,10.32,1,15.46,1.2,18.25,1.71,36.56,2.35,54.85A197,197,0,0,1,768,493.82C767.49,468.11,767.1,442.4,767.09,416.7Z"/>
      <path class="cls-58" d="M613.7,423.94c3.63,34.2,10.34,68,14.64,102.09q2-8.34,4.45-16.15c-4.29-31.05-9.56-61.95-13.3-93.07Z"/>
    </g>
    <polygon class="cls-59" points="684.52 330.23 832.09 500.13 841.83 500.13 704.26 307.32 684.52 330.23"/>
    <g class="cls-60">
      <g>
        <path class="cls-61" d="M318.77,637.43s0,0,0,0S318.79,637.43,318.77,637.43Z"/>
        <path class="cls-62" d="M331.08,680.54l1,.09-1-.18Z"/>
        <path class="cls-63" d="M313.78,467.5l-5.41-4.33c0,1.6,22.2,212.52,22.7,217.28l1,.18,5.47.45Z"/>
        <path class="cls-64" d="M313.78,467.5l-5.41-4.33c0,1.6,22.2,212.52,22.7,217.28l.51,4.18,6.6,1.91Z"/>
        <path class="cls-65" d="M381.82,478.55c0,1.49,14.88,183.31,17.37,213.58l6.48,1.11L387.12,483Z"/>
        <path class="cls-66" d="M382.83,488.24c0,1.48,14.89,183.3,17.37,213.58l6.49,1.11L388.14,492.69Z"/>
        <path class="cls-67" d="M453.89,489.11c-.05,1.51,13.42,189,15.29,215l6.48,1.11L459.15,493.61Z"/>
        <path class="cls-68" d="M455.16,504.37c-.05,1.51,13.41,189,15.28,215l6.48,1.11-16.5-211.63Z"/>
      </g>
    </g>
    <path class="cls-69" d="M210.76,458.45l3.7,12.34,148,29.34,4.94-4.05v8l167.86,24L701.8,316.57S841.21,498,841.83,500.13s3.7-20.09,3.7-20.09L704.26,283.26,530.92,512.12s-179.51-43.18-181.36-43.18S210.76,458.45,210.76,458.45Z"/>
    <path class="cls-70" d="M378.55,260.43c-1.85.62-167.79,198-167.79,198l151.75,27.76,11.11-4.93-3.09,9.25,160.39,21.59L704.26,283.26Z"/>
    <path class="cls-69" d="M552.72,478.65c-35.46-6.79-71.26-12.82-105.61-24.24-8.82-2.93-17.45-6.38-26.23-9.42-9.06-3.14-18.18-6.1-27.3-9.08-4-1.31-8.07-2.54-12-4-2.76-1-5.43-2.28-8.14-3.43a63.78,63.78,0,0,0-9.39-3.4c-2.68-.67-5.72-1.15-8.34-.06.73,1.37,1.43,3.24.05,4.36s-3.89.7-5.54.42c-5.16-.89-10.12-2.88-15-4.69-7.48-2.78-15.19-5-22.89-7.09-17.92-4.9-36.45-8.94-53.4-16.76l-4.19,5c22.71,5.05,44.15,14.43,66.16,21.8,5.07,1.7,10.24,3,15.3,4.7,4.8,1.59,9.47,3.66,14.42,4.7a18.87,18.87,0,0,0,7.63.21,37.9,37.9,0,0,1,6.18-.9,39.27,39.27,0,0,1,7.77,1.06c2.57.5,5.12,1.1,7.65,1.77,10.53,2.77,20.69,6.75,30.95,10.35a320.93,320.93,0,0,0,32.67,9.15C480,467.69,517.23,473.31,553.77,482l2.05-2.71Z"/>
    <path class="cls-69" d="M554.41,409.84c-12.29-3.17-24.61-6.52-37-9.1-9.63-2-20.27-3.38-28.22-9.66-.39-.31,0-.85.36-.88a13,13,0,0,0,4-1.31c-3.7-3.87-9.81-5.88-14.68-7.51-5-1.69-10.49-3.35-15.84-3.58,2.19,3.39,6.95,5.82,6.05,10.37a.59.59,0,0,1-.58.43c-13.47-1.3-26.77-3.87-40-6.64-12.05-2.52-24.21-4.77-36.16-7.71s-23.86-6.61-35.88-9.57c-9.82-2.42-19.94-3.49-29.88-5.29-8.79-1.58-17.77-3.56-25.7-7.8l-5.24,6.2,3.89,1.24c21.3,6.61,43.28,10.5,64.92,15.76,22.75,5.53,45.34,11.62,68.37,15.95,11.5,2.16,23.11,3.61,34.65,5.51,11.3,1.86,22.53,4.31,33.7,6.81,5.51,1.23,11,2.57,16.43,4.12s11,3.38,16.58,4.87c11,2.92,22.13,5.31,33.35,7.25,10.13,1.75,20.32,3.13,30.54,4.29l1.19-1.58Q576.88,415.61,554.41,409.84Z"/>
    <path class="cls-69" d="M577.55,337.2c-13-3.15-26.1-6.27-39.14-9.46-12.16-3-24.21-6.3-36.3-9.55s-24.31-6.13-36.84-6.36c-5.69-.1-11.35.19-17,.18-6.17,0-11.92-1.21-17.88-2.71-25.45-6.43-50.82-13.25-75.86-21.11l-4.5,5.28c23.4,5.74,46.3,13.26,69.46,19.85a146,146,0,0,0,17,4.17c5.87.92,11.81,1.24,17.74,1.58A234.58,234.58,0,0,1,488,323.64c11.27,2.31,22.43,5.11,33.73,7.28s22.6,3.05,33.75,5.61,22.17,5.8,33.35,8.34q17.41,4,34.92,7.49c8.16,1.66,16.33,3.28,24.5,4.92l1.38-1.83C625.7,348.88,601.63,343,577.55,337.2Z"/>
  </g>
</svg>
