<svg xmlns="http://www.w3.org/2000/svg" xmlns:xlink="http://www.w3.org/1999/xlink" width="1600" height="900" viewBox="0 0 1600 900">
  <defs>
    <style>
      .cls-1 {
        fill: none;
      }

      .cls-2 {
        isolation: isolate;
      }

      .cls-3 {
        clip-path: url(#clip-path);
      }

      .cls-4 {
        clip-path: url(#clip-path-2);
      }

      .cls-5 {
        fill: url(#linear-gradient);
      }

      .cls-6 {
        fill: #fbdb57;
      }

      .cls-7 {
        fill: #776aa7;
      }

      .cls-107, .cls-110, .cls-111, .cls-121, .cls-124, .cls-14, .cls-8 {
        mix-blend-mode: multiply;
      }

      .cls-8 {
        opacity: 0.27;
      }

      .cls-9 {
        fill: #9e71a8;
      }

      .cls-10 {
        fill: #3baa6e;
      }

      .cls-11 {
        fill: #9fc45b;
      }

      .cls-12 {
        mix-blend-mode: overlay;
        opacity: 0.39;
      }

      .cls-13 {
        fill: #fff28f;
      }

      .cls-14 {
        opacity: 0.25;
      }

      .cls-15 {
        fill: #3b996f;
      }

      .cls-16 {
        fill: url(#linear-gradient-2);
      }

      .cls-17 {
        fill: url(#linear-gradient-3);
      }

      .cls-18 {
        fill: url(#linear-gradient-4);
      }

      .cls-19 {
        fill: url(#linear-gradient-5);
      }

      .cls-20 {
        fill: url(#linear-gradient-6);
      }

      .cls-21 {
        fill: url(#linear-gradient-7);
      }

      .cls-22 {
        fill: url(#linear-gradient-8);
      }

      .cls-23 {
        fill: url(#linear-gradient-9);
      }

      .cls-24 {
        fill: url(#linear-gradient-10);
      }

      .cls-25 {
        fill: url(#linear-gradient-11);
      }

      .cls-26 {
        fill: url(#linear-gradient-12);
      }

      .cls-27 {
        fill: url(#linear-gradient-13);
      }

      .cls-28 {
        fill: url(#linear-gradient-14);
      }

      .cls-29 {
        fill: url(#linear-gradient-15);
      }

      .cls-30 {
        fill: url(#linear-gradient-16);
      }

      .cls-31 {
        fill: url(#linear-gradient-17);
      }

      .cls-32 {
        fill: url(#linear-gradient-18);
      }

      .cls-33 {
        fill: url(#linear-gradient-19);
      }

      .cls-34 {
        fill: url(#linear-gradient-20);
      }

      .cls-35 {
        fill: url(#linear-gradient-21);
      }

      .cls-36 {
        fill: url(#linear-gradient-22);
      }

      .cls-37 {
        fill: url(#linear-gradient-23);
      }

      .cls-38 {
        fill: url(#linear-gradient-24);
      }

      .cls-39 {
        fill: url(#linear-gradient-25);
      }

      .cls-40 {
        fill: url(#linear-gradient-26);
      }

      .cls-41 {
        fill: url(#linear-gradient-27);
      }

      .cls-42 {
        fill: url(#linear-gradient-28);
      }

      .cls-43 {
        fill: url(#linear-gradient-29);
      }

      .cls-44 {
        fill: url(#linear-gradient-30);
      }

      .cls-45 {
        fill: url(#linear-gradient-31);
      }

      .cls-46 {
        fill: url(#linear-gradient-32);
      }

      .cls-47 {
        fill: url(#linear-gradient-33);
      }

      .cls-48 {
        fill: url(#linear-gradient-34);
      }

      .cls-49 {
        fill: url(#linear-gradient-35);
      }

      .cls-50 {
        fill: url(#linear-gradient-36);
      }

      .cls-51 {
        fill: url(#linear-gradient-37);
      }

      .cls-52 {
        fill: url(#linear-gradient-38);
      }

      .cls-53 {
        fill: url(#linear-gradient-39);
      }

      .cls-54 {
        fill: url(#linear-gradient-40);
      }

      .cls-55 {
        fill: url(#linear-gradient-41);
      }

      .cls-56 {
        fill: url(#linear-gradient-42);
      }

      .cls-57 {
        fill: url(#linear-gradient-43);
      }

      .cls-58 {
        fill: url(#linear-gradient-44);
      }

      .cls-59 {
        fill: url(#linear-gradient-45);
      }

      .cls-60 {
        fill: url(#linear-gradient-46);
      }

      .cls-61 {
        fill: url(#linear-gradient-47);
      }

      .cls-62 {
        fill: url(#linear-gradient-48);
      }

      .cls-63 {
        fill: url(#linear-gradient-49);
      }

      .cls-64 {
        fill: url(#linear-gradient-50);
      }

      .cls-65 {
        fill: url(#linear-gradient-51);
      }

      .cls-66 {
        fill: url(#linear-gradient-52);
      }

      .cls-67 {
        fill: url(#linear-gradient-53);
      }

      .cls-68 {
        fill: url(#linear-gradient-54);
      }

      .cls-69 {
        fill: url(#linear-gradient-55);
      }

      .cls-70 {
        fill: url(#linear-gradient-56);
      }

      .cls-71 {
        fill: url(#linear-gradient-57);
      }

      .cls-72 {
        fill: url(#linear-gradient-58);
      }

      .cls-73 {
        fill: url(#linear-gradient-59);
      }

      .cls-74 {
        fill: url(#linear-gradient-60);
      }

      .cls-75 {
        fill: url(#linear-gradient-61);
      }

      .cls-76 {
        fill: url(#linear-gradient-62);
      }

      .cls-77 {
        fill: url(#linear-gradient-63);
      }

      .cls-78 {
        fill: url(#linear-gradient-64);
      }

      .cls-79 {
        fill: url(#linear-gradient-65);
      }

      .cls-80 {
        fill: url(#linear-gradient-66);
      }

      .cls-81 {
        fill: url(#linear-gradient-67);
      }

      .cls-82 {
        fill: url(#linear-gradient-68);
      }

      .cls-83 {
        fill: url(#linear-gradient-69);
      }

      .cls-84 {
        fill: url(#linear-gradient-70);
      }

      .cls-85 {
        fill: url(#linear-gradient-71);
      }

      .cls-86 {
        fill: url(#linear-gradient-72);
      }

      .cls-87 {
        fill: url(#linear-gradient-73);
      }

      .cls-88 {
        fill: url(#linear-gradient-74);
      }

      .cls-89 {
        fill: url(#linear-gradient-75);
      }

      .cls-90 {
        fill: url(#linear-gradient-76);
      }

      .cls-91 {
        clip-path: url(#clip-path-3);
      }

      .cls-92 {
        clip-path: url(#clip-path-4);
      }

      .cls-93 {
        fill: #b5d679;
      }

      .cls-94 {
        fill: url(#linear-gradient-77);
      }

      .cls-95, .cls-96 {
        fill: #bfd9f1;
      }

      .cls-95 {
        opacity: 0.56;
      }

      .cls-96 {
        opacity: 0.18;
      }

      .cls-97 {
        fill: #207d78;
        opacity: 0.36;
      }

      .cls-98 {
        opacity: 0.49;
        fill: url(#linear-gradient-78);
      }

      .cls-99 {
        fill: #278641;
      }

      .cls-100 {
        fill: #698037;
        opacity: 0.32;
      }

      .cls-101 {
        fill: #77a641;
      }

      .cls-102 {
        fill: #794b1f;
      }

      .cls-103 {
        fill: #68c1ed;
      }

      .cls-104 {
        fill: #39a1d2;
      }

      .cls-105 {
        fill: #5e2d12;
      }

      .cls-106 {
        fill: #3c3c3b;
      }

      .cls-106, .cls-109, .cls-112, .cls-113, .cls-119, .cls-122 {
        mix-blend-mode: screen;
      }

      .cls-107, .cls-112 {
        fill: #88cfef;
      }

      .cls-108 {
        fill: #447738;
      }

      .cls-109 {
        fill: #1d1c1a;
      }

      .cls-110 {
        fill: #d8d8d7;
      }

      .cls-111 {
        fill: #d1ddb3;
      }

      .cls-113 {
        fill: #64b9d7;
      }

      .cls-114 {
        fill: #6b5d52;
      }

      .cls-115 {
        fill: #a59289;
      }

      .cls-116 {
        fill: #847068;
      }

      .cls-117 {
        fill: #938078;
      }

      .cls-118 {
        fill: #77a741;
      }

      .cls-119 {
        fill: #706f6e;
      }

      .cls-120, .cls-122 {
        fill: #948374;
      }

      .cls-121 {
        fill: #ebebeb;
      }

      .cls-123 {
        fill: #a28f80;
      }

      .cls-124 {
        fill: #f4f5f5;
      }

      .cls-125 {
        fill: #aec836;
      }

      .cls-126 {
        fill: #a9c738;
      }

      .cls-127 {
        fill: #a99e8b;
      }

      .cls-128 {
        fill: #726658;
      }

      .cls-129 {
        fill: #a29279;
      }

      .cls-130 {
        fill: #c8bda9;
      }

      .cls-131 {
        fill: #579341;
      }

      .cls-132 {
        fill: url(#linear-gradient-79);
      }

      .cls-133 {
        fill: #1c3f1d;
        opacity: 0.61;
      }

      .cls-134 {
        fill: url(#linear-gradient-80);
      }

      .cls-135 {
        fill: #152c1a;
      }

      .cls-136 {
        fill: #122416;
      }

      .cls-137 {
        fill: #184226;
      }

      .cls-138 {
        opacity: 0.62;
      }

      .cls-139 {
        clip-path: url(#clip-path-5);
      }

      .cls-140 {
        opacity: 0.59;
      }

      .cls-141 {
        clip-path: url(#clip-path-6);
      }

      .cls-142 {
        fill: #2a7b44;
      }

      .cls-143 {
        fill: #0b1e14;
      }

      .cls-144 {
        fill: #17405e;
      }
    </style>
    <clipPath id="clip-path">
      <rect class="cls-1" x="800" width="800" height="900"/>
    </clipPath>
    <clipPath id="clip-path-2">
      <rect class="cls-1" x="210" width="1600" height="900"/>
    </clipPath>
    <linearGradient id="linear-gradient" x1="1010" y1="673.33" x2="1010" y2="-19.03" gradientTransform="translate(1337.15 -682.85) rotate(90)" gradientUnits="userSpaceOnUse">
      <stop offset="0" stop-color="#cadef3"/>
      <stop offset="0.13" stop-color="#b1d4ef"/>
      <stop offset="0.55" stop-color="#62b5e2"/>
      <stop offset="0.85" stop-color="#31a2d9"/>
      <stop offset="1" stop-color="#1e9ad6"/>
    </linearGradient>
    <linearGradient id="linear-gradient-2" x1="-2520.89" y1="10945.24" x2="-2520.89" y2="10973.86" gradientTransform="matrix(-0.22, -0.57, 0.98, -0.27, -9913.5, 2056.16)" gradientUnits="userSpaceOnUse">
      <stop offset="0" stop-color="#805a2c"/>
      <stop offset="1" stop-color="#b5a250"/>
    </linearGradient>
    <linearGradient id="linear-gradient-3" x1="-9408.17" y1="5175.69" x2="-9408.17" y2="5207.62" gradientTransform="matrix(-0.56, -0.14, 0.36, -1.01, -5787.06, 4522.47)" xlink:href="#linear-gradient-2"/>
    <linearGradient id="linear-gradient-4" x1="-1062.04" y1="-1786.9" x2="-1062.04" y2="-1754.96" gradientTransform="matrix(-0.27, 0.51, -0.9, -0.59, -534.93, 97.96)" gradientUnits="userSpaceOnUse">
      <stop offset="0" stop-color="#a99348"/>
      <stop offset="1" stop-color="#b4a269"/>
    </linearGradient>
    <linearGradient id="linear-gradient-5" x1="-8156.33" y1="7429.62" x2="-8156.33" y2="7455.11" gradientTransform="matrix(-0.49, -0.32, 0.64, -0.84, -7416.82, 4168.86)" xlink:href="#linear-gradient-2"/>
    <linearGradient id="linear-gradient-6" x1="-8273.63" y1="885.47" x2="-8273.63" y2="914.1" gradientTransform="matrix(-0.53, 0.24, -0.27, -1.05, -2796.08, 3517.3)" xlink:href="#linear-gradient-4"/>
    <linearGradient id="linear-gradient-7" x1="1645.58" y1="-1937.08" x2="1645.58" y2="-1908.45" gradientTransform="matrix(-0.1, 0.57, -1.01, -0.37, -433.03, -1063.53)" xlink:href="#linear-gradient-4"/>
    <linearGradient id="linear-gradient-8" x1="-8705.36" y1="6745.05" x2="-8705.36" y2="6773.68" gradientTransform="matrix(-0.52, -0.27, 0.57, -0.9, -6959.12, 4252.24)" xlink:href="#linear-gradient-2"/>
    <linearGradient id="linear-gradient-9" x1="-4616.11" y1="-1340.93" x2="-4616.11" y2="-1312.31" gradientTransform="matrix(-0.38, 0.47, -0.67, -0.81, -1274.46, 1669.69)" xlink:href="#linear-gradient-2"/>
    <linearGradient id="linear-gradient-10" x1="2127.46" y1="-2930.12" x2="2127.46" y2="-2902.68" gradientTransform="matrix(0.12, -0.6, -0.91, -0.13, -1546.44, 1474.97)" xlink:href="#linear-gradient-4"/>
    <linearGradient id="linear-gradient-11" x1="13906.93" y1="948.88" x2="13906.93" y2="987.22" gradientTransform="matrix(0.48, -0.21, -0.45, -0.95, -4899.63, 4467.81)" xlink:href="#linear-gradient-2"/>
    <linearGradient id="linear-gradient-12" x1="10413.5" y1="11181.06" x2="10413.5" y2="11219.4" gradientTransform="matrix(0.17, 0.5, 0.99, -0.37, -11480.65, -484.14)" xlink:href="#linear-gradient-4"/>
    <linearGradient id="linear-gradient-13" x1="15404.99" y1="2147.05" x2="15404.99" y2="2205.13" gradientTransform="matrix(0.51, -0.11, -0.25, -1.03, -6008.98, 4547.21)" gradientUnits="userSpaceOnUse">
      <stop offset="0" stop-color="#81712c"/>
      <stop offset="1" stop-color="#b59f31"/>
    </linearGradient>
    <linearGradient id="linear-gradient-14" x1="13886.85" y1="950.85" x2="13886.85" y2="979.47" gradientTransform="matrix(0.48, -0.21, -0.45, -0.95, -4899.63, 4467.81)" xlink:href="#linear-gradient-2"/>
    <linearGradient id="linear-gradient-15" x1="10530.5" y1="-1031.18" x2="10530.5" y2="-1004.81" gradientTransform="matrix(0.39, -0.39, -0.68, -0.74, -3495.19, 3899.18)" xlink:href="#linear-gradient-2"/>
    <linearGradient id="linear-gradient-16" x1="674.63" y1="-2115.44" x2="674.63" y2="-2089.07" gradientTransform="matrix(0.02, -0.55, -1.01, -0.07, -778.54, 828.82)" xlink:href="#linear-gradient-4"/>
    <linearGradient id="linear-gradient-17" x1="12060.12" y1="10479.56" x2="12060.12" y2="10505.93" gradientTransform="matrix(0.24, 0.48, 0.89, -0.53, -10899.72, 351.91)" xlink:href="#linear-gradient-2"/>
    <linearGradient id="linear-gradient-18" x1="15338.24" y1="9584.73" x2="15338.24" y2="9621.91" gradientTransform="matrix(0.32, 0.42, 0.69, -0.82, -10153.42, 1969.77)" xlink:href="#linear-gradient-4"/>
    <linearGradient id="linear-gradient-19" x1="15664.72" y1="9070.2" x2="15664.72" y2="9102.96" gradientTransform="matrix(0.4, 0.41, 0.49, -0.89, -9284.37, 2243.41)" xlink:href="#linear-gradient-2"/>
    <linearGradient id="linear-gradient-20" x1="13170.57" y1="4395.57" x2="13170.57" y2="4442.85" gradientTransform="matrix(0.7, 0.09, 0.07, -1.09, -8142.92, 4129.65)" xlink:href="#linear-gradient-4"/>
    <linearGradient id="linear-gradient-21" x1="13111.15" y1="4321.77" x2="13111.15" y2="4369.06" gradientTransform="matrix(0.7, 0.08, 0.04, -1.24, -8015.59, 4946.71)" xlink:href="#linear-gradient-2"/>
    <linearGradient id="linear-gradient-22" x1="13257.69" y1="4867.33" x2="13257.69" y2="4914.61" gradientTransform="matrix(0.69, 0.14, 0.15, -1.23, -8548.72, 4733.02)" xlink:href="#linear-gradient-4"/>
    <linearGradient id="linear-gradient-23" x1="7630.76" y1="-1147.03" x2="7630.76" y2="-1099.74" gradientTransform="matrix(0.47, -0.56, -0.8, -0.67, -3135.29, 4126.21)" xlink:href="#linear-gradient-4"/>
    <linearGradient id="linear-gradient-24" x1="-9466.25" y1="-1119.25" x2="-9466.25" y2="-1062.42" gradientTransform="matrix(-0.31, 0.33, -0.51, -0.93, -2133.66, 2649.75)" xlink:href="#linear-gradient-4"/>
    <linearGradient id="linear-gradient-25" x1="-12185.43" y1="239.94" x2="-12185.43" y2="296.78" gradientTransform="matrix(-0.39, 0.22, -0.22, -1.04, -3345.69, 3589.16)" xlink:href="#linear-gradient-2"/>
    <linearGradient id="linear-gradient-26" x1="-9456.98" y1="-1115.82" x2="-9456.98" y2="-1058.99" gradientTransform="matrix(-0.31, 0.33, -0.51, -0.93, -2133.66, 2649.75)" xlink:href="#linear-gradient-4"/>
    <linearGradient id="linear-gradient-27" x1="2332.76" y1="-2016.37" x2="2332.76" y2="-1975.57" gradientTransform="matrix(0.12, -0.74, -1.02, -0.16, -958.35, 1991.98)" xlink:href="#linear-gradient-4"/>
    <linearGradient id="linear-gradient-28" x1="12700.4" y1="9901.8" x2="12700.4" y2="9942.6" gradientTransform="matrix(0.33, 0.53, 0.79, -0.72, -10537.85, 1027.16)" xlink:href="#linear-gradient-2"/>
    <linearGradient id="linear-gradient-29" x1="-11676.52" y1="6920.11" x2="-11676.52" y2="6960.91" gradientTransform="matrix(-0.38, -0.21, 0.69, -0.8, -7804.42, 3622.14)" xlink:href="#linear-gradient-2"/>
    <linearGradient id="linear-gradient-30" x1="-7007.54" y1="9565.62" x2="-7007.54" y2="9603.15" gradientTransform="matrix(-0.26, -0.35, 0.94, -0.45, -9433.89, 2418.48)" xlink:href="#linear-gradient-4"/>
    <linearGradient id="linear-gradient-31" x1="-13985.21" y1="2341.06" x2="-13985.21" y2="2393.61" gradientTransform="matrix(-0.42, 0.07, 0.11, -1.07, -4826.95, 4081.02)" xlink:href="#linear-gradient-2"/>
    <linearGradient id="linear-gradient-32" x1="21521.18" y1="3942.72" x2="21521.18" y2="3998.77" gradientTransform="matrix(0.37, 0.03, -0.25, -1.04, -5529.76, 4059.58)" xlink:href="#linear-gradient-2"/>
    <linearGradient id="linear-gradient-33" x1="8380.81" y1="-1080.13" x2="8380.81" y2="-1024.08" gradientTransform="matrix(0.27, -0.25, -0.94, -0.52, -1923.01, 2117.06)" xlink:href="#linear-gradient-13"/>
    <linearGradient id="linear-gradient-34" x1="14457.43" y1="12090.02" x2="14457.43" y2="12146.07" gradientTransform="matrix(0, 0.38, 0.99, -0.4, -10668.13, 31.9)" xlink:href="#linear-gradient-2"/>
    <linearGradient id="linear-gradient-35" x1="20652.96" y1="10752.43" x2="20652.96" y2="10808.48" gradientTransform="matrix(0.16, 0.34, 0.74, -0.78, -9802.49, 1910.74)" xlink:href="#linear-gradient-2"/>
    <linearGradient id="linear-gradient-36" x1="3057.68" y1="-1800.95" x2="3057.68" y2="-1753.22" gradientTransform="matrix(0.2, -0.57, -0.9, -0.27, -1795.66, 2056.16)" xlink:href="#linear-gradient-2"/>
    <linearGradient id="linear-gradient-37" x1="12920.94" y1="1904.22" x2="12920.94" y2="1968.89" gradientTransform="matrix(0.51, -0.14, -0.33, -1.01, -5569.14, 4522.47)" xlink:href="#linear-gradient-2"/>
    <linearGradient id="linear-gradient-38" x1="12228.04" y1="9502.54" x2="12228.04" y2="9555.26" gradientTransform="matrix(0.24, 0.51, 0.82, -0.59, -10371.6, 97.96)" xlink:href="#linear-gradient-4"/>
    <linearGradient id="linear-gradient-39" x1="12241.62" y1="9515.18" x2="12241.62" y2="9567.9" gradientTransform="matrix(0.24, 0.51, 0.82, -0.59, -10371.6, 97.96)" xlink:href="#linear-gradient-4"/>
    <linearGradient id="linear-gradient-40" x1="10185.01" y1="93.13" x2="10185.01" y2="142.54" gradientTransform="matrix(0.45, -0.32, -0.59, -0.84, -4078.35, 4168.86)" xlink:href="#linear-gradient-2"/>
    <linearGradient id="linear-gradient-41" x1="14837.75" y1="5391.23" x2="14837.75" y2="5476.06" gradientTransform="matrix(0.51, 0.19, 0.13, -1.07, -7790.91, 3777.01)" xlink:href="#linear-gradient-4"/>
    <linearGradient id="linear-gradient-42" x1="10213.28" y1="10747.79" x2="10213.28" y2="10793.3" gradientTransform="matrix(0.09, 0.57, 0.93, -0.37, -10464.01, -1063.53)" xlink:href="#linear-gradient-4"/>
    <linearGradient id="linear-gradient-43" x1="10975.95" y1="501.28" x2="10975.95" y2="557.68" gradientTransform="matrix(0.47, -0.27, -0.52, -0.9, -4496.65, 4252.24)" xlink:href="#linear-gradient-2"/>
    <linearGradient id="linear-gradient-44" x1="13581.49" y1="8891.86" x2="13581.49" y2="8941.89" gradientTransform="matrix(0.34, 0.47, 0.61, -0.81, -9694.45, 1669.69)" xlink:href="#linear-gradient-2"/>
    <linearGradient id="linear-gradient-45" x1="-1437.08" y1="11716.51" x2="-1437.08" y2="11761.01" gradientTransform="matrix(-0.11, -0.6, 0.83, -0.13, -9445.91, 1474.97)" xlink:href="#linear-gradient-4"/>
    <linearGradient id="linear-gradient-46" x1="-9775.39" y1="6039.62" x2="-9775.39" y2="6116.16" gradientTransform="matrix(-0.44, -0.21, 0.41, -0.95, -6380.25, 4467.81)" xlink:href="#linear-gradient-2"/>
    <linearGradient id="linear-gradient-47" x1="-9781.27" y1="6037.35" x2="-9781.27" y2="6110.33" gradientTransform="matrix(-0.44, -0.21, 0.41, -0.95, -6380.25, 4467.81)" xlink:href="#linear-gradient-2"/>
    <linearGradient id="linear-gradient-48" x1="-9816.41" y1="5843.47" x2="-9816.41" y2="5963.6" gradientTransform="matrix(-0.45, -0.2, 0.38, -0.97, -6203.62, 4487.56)" xlink:href="#linear-gradient-2"/>
    <linearGradient id="linear-gradient-49" x1="1715.86" y1="-1161.77" x2="1715.86" y2="-1100.37" gradientTransform="matrix(-0.16, 0.5, -0.91, -0.37, -363.84, -484.14)" xlink:href="#linear-gradient-13"/>
    <linearGradient id="linear-gradient-50" x1="-9944.55" y1="4765.22" x2="-9944.55" y2="4883.34" gradientTransform="matrix(-0.47, -0.11, 0.23, -1.03, -5366.05, 4547.22)" xlink:href="#linear-gradient-4"/>
    <linearGradient id="linear-gradient-51" x1="-9809.74" y1="6041.98" x2="-9809.74" y2="6099.13" gradientTransform="matrix(-0.44, -0.21, 0.41, -0.95, -6380.25, 4467.81)" xlink:href="#linear-gradient-2"/>
    <linearGradient id="linear-gradient-52" x1="-8013.66" y1="8364.86" x2="-8013.66" y2="8414.44" gradientTransform="matrix(-0.36, -0.39, 0.62, -0.74, -7665.03, 3899.18)" xlink:href="#linear-gradient-2"/>
    <linearGradient id="linear-gradient-53" x1="-1286.15" y1="11491.39" x2="-1286.15" y2="11533.22" gradientTransform="matrix(-0.02, -0.55, 0.92, -0.07, -10148.1, 828.82)" xlink:href="#linear-gradient-4"/>
    <linearGradient id="linear-gradient-54" x1="-651.1" y1="-1429.49" x2="-651.1" y2="-1386.16" gradientTransform="matrix(-0.22, 0.48, -0.82, -0.53, -895.33, 351.91)" xlink:href="#linear-gradient-2"/>
    <linearGradient id="linear-gradient-55" x1="3468.2" y1="-1377.18" x2="3468.2" y2="-1333.85" gradientTransform="matrix(-0.05, 0.53, -0.95, -0.22, -716.98, -1337.78)" xlink:href="#linear-gradient-2"/>
    <linearGradient id="linear-gradient-56" x1="7774.32" y1="10352.85" x2="7774.32" y2="10396.17" gradientTransform="matrix(-0.02, 0.57, 1.18, -0.2, -11611.88, -1587.63)" xlink:href="#linear-gradient-2"/>
    <linearGradient id="linear-gradient-57" x1="-4696.93" y1="-995.18" x2="-4696.93" y2="-930.29" gradientTransform="matrix(-0.29, 0.42, -0.63, -0.82, -1577.61, 1969.77)" xlink:href="#linear-gradient-13"/>
    <linearGradient id="linear-gradient-58" x1="-6189.87" y1="-1237.48" x2="-6189.87" y2="-1178.2" gradientTransform="matrix(-0.36, 0.41, -0.45, -0.89, -2371.56, 2243.41)" xlink:href="#linear-gradient-2"/>
    <linearGradient id="linear-gradient-59" x1="-6217.02" y1="2534.01" x2="-6217.02" y2="2629.26" gradientTransform="matrix(-0.64, 0.09, -0.06, -1.09, -3416.01, 4129.65)" xlink:href="#linear-gradient-13"/>
    <linearGradient id="linear-gradient-60" x1="-6309.6" y1="2955.98" x2="-6309.6" y2="3051.55" gradientTransform="matrix(-0.64, 0.08, -0.04, -1.24, -3531.29, 4946.71)" xlink:href="#linear-gradient-2"/>
    <linearGradient id="linear-gradient-61" x1="-6001.23" y1="2513.53" x2="-6001.23" y2="2608.22" gradientTransform="matrix(-0.63, 0.14, -0.14, -1.23, -3044.37, 4733.02)" xlink:href="#linear-gradient-4"/>
    <linearGradient id="linear-gradient-62" x1="-4611.63" y1="8827.97" x2="-4611.63" y2="8914.76" gradientTransform="matrix(-0.43, -0.56, 0.73, -0.67, -7993.81, 4126.21)" xlink:href="#linear-gradient-13"/>
    <linearGradient id="linear-gradient-63" x1="18916.61" y1="8605.44" x2="18916.61" y2="8709.36" gradientTransform="matrix(0.28, 0.33, 0.46, -0.93, -8909.21, 2649.75)" xlink:href="#linear-gradient-13"/>
    <linearGradient id="linear-gradient-64" x1="19284.02" y1="6852.84" x2="19284.02" y2="6963.65" gradientTransform="matrix(0.36, 0.22, 0.2, -1.04, -7801.06, 3589.16)" xlink:href="#linear-gradient-2"/>
    <linearGradient id="linear-gradient-65" x1="18931.19" y1="8610.92" x2="18931.19" y2="8714.83" gradientTransform="matrix(0.28, 0.33, 0.46, -0.93, -8909.21, 2649.75)" xlink:href="#linear-gradient-13"/>
    <linearGradient id="linear-gradient-66" x1="-720.54" y1="11116.42" x2="-720.54" y2="11182.3" gradientTransform="matrix(-0.11, -0.74, 0.93, -0.16, -9983.51, 1991.98)" xlink:href="#linear-gradient-13"/>
    <linearGradient id="linear-gradient-67" x1="-724.66" y1="11133.73" x2="-724.66" y2="11199.61" gradientTransform="matrix(-0.11, -0.74, 0.93, -0.16, -9983.51, 1991.98)" xlink:href="#linear-gradient-13"/>
    <linearGradient id="linear-gradient-68" x1="2904.04" y1="11753.38" x2="2904.04" y2="11819.25" gradientTransform="matrix(0.22, -0.71, 0.91, 0.25, -10850.97, -138.97)" xlink:href="#linear-gradient-13"/>
    <linearGradient id="linear-gradient-69" x1="-2283.63" y1="-1347.5" x2="-2283.63" y2="-1278.28" gradientTransform="matrix(-0.3, 0.53, -0.72, -0.72, -1225.21, 1027.16)" xlink:href="#linear-gradient-2"/>
    <linearGradient id="linear-gradient-70" x1="12434" y1="233.58" x2="12434" y2="311.98" gradientTransform="matrix(0.35, -0.21, -0.63, -0.8, -3725.46, 3622.14)" xlink:href="#linear-gradient-2"/>
    <linearGradient id="linear-gradient-71" x1="6336.22" y1="-1334.54" x2="6336.22" y2="-1269.23" gradientTransform="matrix(0.24, -0.35, -0.86, -0.45, -2234.86, 2418.48)" xlink:href="#linear-gradient-4"/>
    <linearGradient id="linear-gradient-72" x1="18842.81" y1="4279.78" x2="18842.81" y2="4386.42" gradientTransform="matrix(0.39, 0.07, -0.1, -1.07, -6446.03, 4081.02)" xlink:href="#linear-gradient-2"/>
    <linearGradient id="linear-gradient-73" x1="-16751.82" y1="2642.35" x2="-16751.82" y2="2756.57" gradientTransform="matrix(-0.34, 0.03, 0.23, -1.04, -5804.98, 4059.58)" xlink:href="#linear-gradient-2"/>
    <linearGradient id="linear-gradient-74" x1="-11153.55" y1="7868.13" x2="-11153.55" y2="7968.3" gradientTransform="matrix(-0.25, -0.25, 0.86, -0.52, -9101.51, 2117.06)" xlink:href="#linear-gradient-4"/>
    <linearGradient id="linear-gradient-75" x1="215.75" y1="-1692.34" x2="215.75" y2="-1603.68" gradientTransform="matrix(0, 0.38, -0.91, -0.4, -1105.94, 31.9)" xlink:href="#linear-gradient-2"/>
    <linearGradient id="linear-gradient-76" x1="-7482.62" y1="-1855.45" x2="-7482.62" y2="-1759.98" gradientTransform="matrix(-0.14, 0.34, -0.67, -0.78, -1897.21, 1910.74)" xlink:href="#linear-gradient-2"/>
    <clipPath id="clip-path-3">
      <rect class="cls-1" width="800" height="900"/>
    </clipPath>
    <clipPath id="clip-path-4">
      <rect class="cls-1" x="-290" width="1600" height="900"/>
    </clipPath>
    <linearGradient id="linear-gradient-77" x1="510.7" y1="-0.5" x2="510.7" y2="337.5" gradientUnits="userSpaceOnUse">
      <stop offset="0" stop-color="#89a4d5"/>
      <stop offset="0.17" stop-color="#9cb2dc"/>
      <stop offset="0.52" stop-color="#bccae7"/>
      <stop offset="0.8" stop-color="#d0d9ee"/>
      <stop offset="1" stop-color="#d7def0"/>
    </linearGradient>
    <linearGradient id="linear-gradient-78" x1="290.43" y1="-81.38" x2="727.09" y2="674.92" gradientUnits="userSpaceOnUse">
      <stop offset="0.01" stop-color="#26476f"/>
      <stop offset="0.02" stop-color="#2b4e71"/>
      <stop offset="0.1" stop-color="#426e79"/>
      <stop offset="0.18" stop-color="#54867f"/>
      <stop offset="0.26" stop-color="#609784"/>
      <stop offset="0.35" stop-color="#68a286"/>
      <stop offset="0.46" stop-color="#6aa587"/>
      <stop offset="1" stop-color="#427c83"/>
    </linearGradient>
    <linearGradient id="linear-gradient-79" x1="-102.83" y1="849.17" x2="1349.92" y2="849.17" gradientUnits="userSpaceOnUse">
      <stop offset="0" stop-color="#39a34b"/>
      <stop offset="0.34" stop-color="#265a2c"/>
      <stop offset="1" stop-color="#1d2815"/>
    </linearGradient>
    <linearGradient id="linear-gradient-80" x1="-62.04" y1="951.26" x2="1431.11" y2="951.26" gradientTransform="translate(-93.62 -110.12) rotate(-2.21)" gradientUnits="userSpaceOnUse">
      <stop offset="0.04" stop-color="#1d2815"/>
      <stop offset="0.35" stop-color="#26572a"/>
      <stop offset="0.64" stop-color="#2e7637"/>
      <stop offset="1" stop-color="#39a34b"/>
    </linearGradient>
    <clipPath id="clip-path-5">
      <polygon class="cls-1" points="1350.33 941.08 1309.22 934.34 1355.66 623.7 1396.77 630.45 1350.33 941.08"/>
    </clipPath>
    <clipPath id="clip-path-6">
      <polygon class="cls-1" points="1363.82 915.73 1334.49 910.91 1358.65 749.33 1387.97 754.14 1363.82 915.73"/>
    </clipPath>
  </defs>
  <g class="cls-2">
    <g id="Layer_1" data-name="Layer 1">
      <g id="SC_16">
        <g id="SC_05">
          <g class="cls-3">
            <g class="cls-4">
              <rect class="cls-5" x="663.82" y="-506.78" width="692.36" height="1667.85" transform="translate(682.85 1337.15) rotate(-90)"/>
              <path class="cls-6" d="M182.9,536.3a787.75,787.75,0,0,1,97.63-10.79c28.75-1.35,36.13-.06,97.05-1.36,52.22-1.12,50.07-2.14,66.05-1.37,44.38,2.14,51.17,9.5,95.69,13.74,29.52,2.8,51.12,1.8,94.32-.22,58.69-2.74,55.82-6.85,95-7.58,48.41-.89,46.23,5.51,122,7.58,40.06,1.1,60.09,1.64,88.64-1.26,21.15-2.15,29.47-4.38,49.88-4.52,26.57-.18,32.47,3.48,65,5.78,15.93,1.13,40,2.73,68.74,0,35.07-3.34,37.93-9.42,69.89-13,13.36-1.48,15.14-.68,79.73,2.18,72.77,3.21,88.48,3,98.4,2.72,8.07-.21,8.33-.33,48.6-1.74,39.34-1.37,42.93-1.39,49.68-1.67,75.74-3.24,81.78-21,129.51-15.66,14.84,1.67,32.36,5.66,67.4,13.62,13.85,3.15,28,6.59,48.26,8.62,14,1.4,23.78,1.41,33.65,1.54,17.58.25,43.05,1,75.57,3.36V900H182.9Z"/>
              <g>
                <g>
                  <g>
                    <path class="cls-7" d="M1486.05,584.21s-9.92-6.85-9-13.06,10.78,6.12,10.78,6.12-3.82-8.46,0-12.1,5.63,10.58,5.63,10.58,4.48-8.6,7.63-7.29-6,17.31-6,17.31Z"/>
                    <g class="cls-8">
                      <path class="cls-7" d="M1489.94,579.5c-2,1.23-2.51.4-5.37-1.4-1.52-1-3.56-.67-5.14-.2a32.54,32.54,0,0,0,6.62,6.31l9.07,1.56s1-1.76,2.22-4.13c-1-.59-2-1.55-3.4-2.34C1490.29,577.17,1491.94,578.26,1489.94,579.5Z"/>
                    </g>
                  </g>
                  <path class="cls-9" d="M1495.92,577.17s4.1-7.92,4.58-6.5S1496.55,582.51,1495.92,577.17Z"/>
                  <path class="cls-9" d="M1490.11,574.48s-2.25-6.29-.34-8.11C1491.15,565.84,1492.15,579.59,1490.11,574.48Z"/>
                </g>
                <g>
                  <g>
                    <path class="cls-7" d="M1534.67,441.87s-10.23-6.07-9.62-12.36,11,5.26,11,5.26-4.26-8.18-.66-12.12,6.17,10.14,6.17,10.14,4-9,7.18-7.92-5,17.82-5,17.82Z"/>
                    <g class="cls-8">
                      <path class="cls-7" d="M1538.27,436.84c-1.92,1.39-2.46.6-5.4-1-1.57-.84-3.59-.37-5.13.23a31.46,31.46,0,0,0,6.93,5.78l9.09.82s.89-1.83,2-4.3c-1-.51-2.1-1.4-3.49-2.08C1538.5,434.47,1540.2,435.44,1538.27,436.84Z"/>
                    </g>
                  </g>
                  <path class="cls-9" d="M1544.09,434s3.65-8.27,4.2-6.86S1545,439.32,1544.09,434Z"/>
                  <path class="cls-9" d="M1538.16,431.79s-2.56-6.11-.76-8.09C1538.73,423.05,1540.48,436.76,1538.16,431.79Z"/>
                </g>
                <g>
                  <path class="cls-10" d="M1462.34,688.47s-20.21,23.24-35.3-27.54c-14.32-24.89-31.23-83.85-14.46-116.2,11.54-13.37,10.6,1.9,20.81,16.58s36.94,61.74,32.66,89.66S1462.34,688.47,1462.34,688.47Z"/>
                  <path class="cls-11" d="M1456.62,692.42s-8.3-5.91-11.55-22.93-15.93-13.74-20-33-1.45-20.93-4.79-32.49-12.33-42.76-5.28-56.61c-2,8.79-5.23,25,1.36,50.59,6.41,27.39,1.83,32.36,9,46.32s11.27,12.09,14.13,23.72S1447.56,693.89,1456.62,692.42Z"/>
                  <path class="cls-11" d="M1458.24,678.24s-16.8-25.1-14.61-38.76-5-18.55-9-31.2-4-6.61-4.59-19.22-13.76-30.43-6.89-45.45c.39-.67-1.42,15.35,6,34.1s.1,18.74,7.92,30.78,12.61,20.34,10.89,30.89S1449.07,667,1458.24,678.24Z"/>
                  <g class="cls-12">
                    <path class="cls-13" d="M1452.86,602.9c5.45,18.47,5.94,20.42,7.22,10.73h0c-7.71-21.7-20.37-43.23-26.69-52.32-7.08-10.16-8.81-20.59-13-21.62a95.38,95.38,0,0,0,6.91,20.18C1436.45,580.16,1447.42,584.44,1452.86,602.9Z"/>
                  </g>
                  <g class="cls-14">
                    <path class="cls-15" d="M1456.4,624.71c-4.67,13.46-12.68.25-10.77,12s-2.27,28.18-11.72,15.21-8.22-23.47-16-44c-5.66-15-8.31-40.49-9.32-53.14-9.56,33.38,5.48,83.63,18.41,106.11,15.09,50.78,35.3,27.54,35.3,27.54s-.58-9.58,3.71-37.5c1.63-10.62-1.25-24-6-37.34C1459.33,616.64,1458.09,619.85,1456.4,624.71Z"/>
                  </g>
                </g>
                <g>
                  <path class="cls-10" d="M1560.48,591.07s-23.83,17.62-30.67-35.11c-10.22-27.53-17.55-88.63,4.33-115.89,13.61-10.16,10.22,4.39,18,21s26.79,68.6,18,94.58S1560.48,591.07,1560.48,591.07Z"/>
                  <path class="cls-11" d="M1554.15,593.52s-7.3-7.71-7.79-24.95-13.63-17.13-14.61-36.77,1.93-20.61.47-32.59-5.37-44.32,3.86-56c-3.4,8-9.22,23-6.78,49.26,2,28-3.39,31.75,1.48,47s9.25,14.4,10.23,26.33S1544.91,592.77,1554.15,593.52Z"/>
                  <path class="cls-11" d="M1558,580.19s-12.66-28.32-8.29-41-2-19.14-3.91-32.35-2.92-7.36-1.47-19.68-8.76-32.75.47-45.63c.49-.55-3.88,14.52.5,34.43s-2.91,18.15,2.93,31.68,9.26,22.71,5.86,32.5S1550.73,567.14,1558,580.19Z"/>
                  <g class="cls-14">
                    <path class="cls-15" d="M1564.82,528c-6.8,11.9-12.65-2.8-12.64,9s-6.8,26.72-14.1,11.9-4.39-24.67-8.78-46.38c-3.2-15.86-1.74-41.17-.72-53.64-14.87,30-8,82.2,1.23,107.07,6.84,52.73,30.67,35.11,30.67,35.11s1-9.41,9.7-35.39c3.33-9.88,2.63-23.53.07-37.56C1569,520.86,1567.27,523.67,1564.82,528Z"/>
                  </g>
                </g>
                <path class="cls-10" d="M1542.12,947.7s3.41-60.44-1.56-69.9-15.55-8.36-25.38-20.69-27.87-36-34-73.71-6-46.21-12.33-63.93-17.38-28.64-12.71-57.22,6.55-62.15,15.23-69,4.28-9.77,17.55-9.5S1522.4,594,1526,616.43s5.18,56,9.2,80.78,7.45,36.89,8.22,38.57,11-7.82,9.61-25.14-19.42-119.64-2.35-147.21,39-25.08,49.6-8,11.38,45.94,8.63,92.35,3,78.75,14.27,124.11,7.76,56.79,1.27,59.06,11.64,5.37,18.21-14.45,13.92-28.87,25.74-31.4S1700,801.7,1688,848.41c-7.72,15.77-9.72,18.51-10.48,28.92s-35.67,21.52-50.75,13.07-18.32-16.38-18.6-3S1542.12,947.7,1542.12,947.7Z"/>
                <path class="cls-11" d="M1577.48,882.83s-.86-5.3.78-17.82a113.76,113.76,0,0,0,1-21s2.8,12.71,1.65,19.23-.34,18.2-.13,19.54S1577.48,882.83,1577.48,882.83Z"/>
                <path class="cls-11" d="M1544.88,732.53s1.54,18.49,15.57,38.6,23.79,65.1,11.86,76.11c0,0,16.59-15.4,5.51-44.46S1546.51,742.54,1544.88,732.53Z"/>
                <g>
                  <path class="cls-11" d="M1497,585.46a77.5,77.5,0,0,1,6.12,37.71c-1.9,21.48-2,36,3.93,48.36s16.33,49.36,19.68,63.94,4.3,17.45,9.36,27.51,8.31,33.14,5.93,45.61-.17,13.95.21,25.38-3.15,7.76,5,15.53,11.54,4.78,10.31,21.31,4,27.76,5.35,36-5-21.57-1.44-36.06c1.23-10.47,2-11.8-5.35-17.88s-11.64-5.35-11.36-24.76,2.18-34.83.74-43.66-10.7-29.73-12.71-39.08-14.62-59.93-20.06-72.34-9.08-19.7-8.12-28.93S1512.39,607.76,1497,585.46Z"/>
                  <path class="cls-11" d="M1488,583.9s5.55,28.12,2.41,45-4.28,30.92-6.56,41,4.58,25.28,8.31,33.14,12.13,38.56,14.52,53.29,3.83,26.59,10.8,39.37,8.3,18,9.93,31.05,1.64,22.12,8.6,31.87,6.4,12.27,6.4,12.27-14.13-8.6-16.62-30-5-33.68-10.6-44.25S1507.22,778,1505,764.4s-11.28-51.4-17-62.56-9.26-23.89-6.79-35.8,7.24-36.85,7-47.11S1491.11,591.25,1488,583.9Z"/>
                  <path class="cls-11" d="M1561.49,551.4s-2.65,28.86.51,48.31,10.12,44.32,6.88,60.57,1.84,41.44,7.1,61.75,8.31,21,4.78,35.51-2.94,36.18-2.94,45.24-4.11-16.26-1.73-34.78,5.15-16.57-1.35-41.53-10.52-49.7-10-67.34,1.23-25.6-2.88-41.85S1555.11,563.32,1561.49,551.4Z"/>
                  <path class="cls-11" d="M1575.62,544.87a70.62,70.62,0,0,1,4.2,41.06c-4.66,22.53,4.22,38,6.42,51.58s3.74,56.24,4.61,70.63,1.26,28.83,3.75,44.15-2.27,40.29-4.37,51.52,7.64,19.91,5.64,34.75-5.42,42-5.42,42-2.39-17.74,1.61-32.31-2.59-25-4.68-34.92,4.18-28.51,5.69-43.28-2.68-31.6-4.12-46.5-1.64-43.28-2.7-58.83-1.34-26.4-4.7-38-7.92-27.75-5.64-40.81S1580.68,561,1575.62,544.87Z"/>
                  <path class="cls-11" d="M1587.15,543.6s5.74,29.32,4.89,42.16,8.6,34.89,8.7,53.62,3.18,83,9.12,107.4,15.77,76.07,1.17,82.67c-.19,1.85,13.55-10.06,4.18-46.64s-11.86-54.94-13-80.15-3.65-70.77-7.1-89S1584.49,554.32,1587.15,543.6Z"/>
                  <path class="cls-11" d="M1485.86,586.05a45.58,45.58,0,0,0-10.3,18c-3.52,11.45-1.42,18.38-1.31,34.09s-2.18,34.82-.84,49.12,5.26,32.41,13.38,55.29,12.41,28.22,14.8,43,10.79,21.24,11.47,37.46,6.31,32.85,16.81,40.21c-1-.43-16.31,2-18.62-39.31-5.27-26.37-11-25.44-13.09-38.41a118.06,118.06,0,0,0-12.42-37.29c-6.3-11.68-13.85-37.08-14.91-64.72s3.51-44.73,1.7-55.93S1473.46,594.12,1485.86,586.05Z"/>
                </g>
                <path class="cls-11" d="M1546.22,737.76a53.58,53.58,0,0,0,6.41,33.44c9.55,16.6,7.92,21.69,11.08,41.14s9.56,34.74-1.7,40.8c3.82-3.64,4.76-9.85.94-30.39s-4.88-36.11-11.46-46.53S1540,747.83,1546.22,737.76Z"/>
                <g class="cls-14">
                  <path class="cls-15" d="M1561.21,763.75c-7.83-21.1-1.26-34.88-.31-53.18s-6.88-42.42-7.28-62.93.56-38.8-2.79-59.43c-1.69-10.45,2.67-23.91,7.37-34.65a63.88,63.88,0,0,0-7.48,9.87c-17.07,27.57,1,129.88,2.35,147.21,1.06,13.5-4.91,22.23-8,24.63,2.58,13.86,24.88,52.46,24.88,52.46S1569,784.86,1561.21,763.75Z"/>
                </g>
              </g>
              <g>
                <path class="cls-16" d="M1372.18,598.13s14.15-6.35,25.33-14.94c0,0-6,6.33-25.11,15.54"/>
                <path class="cls-17" d="M1364,597.23s3.64-17.91,3.47-34.34c0,0,1.54,10-2.81,34.5"/>
                <path class="cls-18" d="M1359.45,598.53s-16.56-7.73-32.57-11.4c0,0,10,.83,32.89,10.8"/>
                <path class="cls-19" d="M1365.24,598.55a147.91,147.91,0,0,0,10.79-25s-1.2,7.94-10.34,25.33"/>
                <path class="cls-20" d="M1364.34,597.65s-6.19-15-14.41-26.84c0,0,6,6.34,15,26.59"/>
                <path class="cls-21" d="M1361.86,598.83s-15.9-3.4-30.29-3.3c0,0,8.63-1.38,30.4,2.7"/>
                <path class="cls-22" d="M1373.74,598.27s6.64-14.81,9.66-29.18c0,0-.58,9-9.12,29.47"/>
                <path class="cls-23" d="M1365.33,598.8s-11.76-10.56-24-17.26c0,0,8,2.84,24.41,16.77"/>
                <path class="cls-24" d="M1362.54,597.87a121.41,121.41,0,0,1-23.46-11s5.93,5.24,23.34,11.54"/>
                <path class="cls-25" d="M1367.11,597s-6.67-20.71-9-40.27c0,0-.1,12.08,8.36,40.58"/>
                <path class="cls-26" d="M1370.43,598.57s21.22-4.86,40.91-5.52c0,0-12-1.14-41.15,4.82"/>
                <path class="cls-27" d="M1367.32,598.08s-3.68-32.76-1.31-62.51c0,0-3.78,17.9.22,62.76"/>
                <path class="cls-28" d="M1357.52,598.94a188.31,188.31,0,0,1-6.75-30.07s-.07,9,6.25,30.29"/>
                <path class="cls-29" d="M1359.83,596.35a157.2,157.2,0,0,1-13.28-24.16s2.17,8,12.9,24.53"/>
                <path class="cls-30" d="M1360.24,598.12a158,158,0,0,1-26.3-8.25s7.08,4.26,26.29,8.78"/>
                <path class="cls-31" d="M1374.14,598.51a159.74,159.74,0,0,1,26.39-8.26s-8.06.49-26.63,7.8"/>
                <path class="cls-32" d="M1370.44,597.8s15.43-14.14,31.08-23.51c0,0-10.09,4.2-31.51,22.94"/>
                <path class="cls-33" d="M1367.68,598.76s10.41-13.76,21.9-23.22c0,0-7.75,4.44-22.38,22.73"/>
                <path class="cls-34" d="M1369.91,598.51s7.44-30.38,16.53-49.51c0,0-8.13,12.72-17.26,49.42"/>
                <path class="cls-35" d="M1367.21,598.76s6.7-35,15.32-57.16c0,0-7.81,14.85-16,57.08"/>
                <path class="cls-36" d="M1372.65,599s9.83-34.21,20.42-55.53c0,0-9.12,14.08-21.15,55.39"/>
                <path class="cls-37" d="M1361.56,598.37s-19.16-23.8-28.72-42.66c0,0,5.18,14.37,28.23,43.25"/>
                <path class="cls-38" d="M1366.41,598.12s-20.41-29.1-35.9-45.57c0,0,11.55,10.08,36.29,45.16"/>
                <path class="cls-39" d="M1358.49,599.13s-11.24-33.71-21.37-53.93c0,0,8.18,13,21.86,53.66"/>
                <path class="cls-40" d="M1361.8,597.94s-20.4-29.09-35.89-45.57c0,0,11.55,10.09,36.28,45.17"/>
                <path class="cls-41" d="M1366.3,597.39s-24.36-8.92-39.53-18.56c0,0,10,8.32,39.42,19.22"/>
                <path class="cls-42" d="M1369.19,597.39s21.67-14.14,37.42-20.56c0,0-11.48,3.09-37.71,20.1"/>
                <path class="cls-43" d="M1366.29,598.12s14.37-21.18,21.7-36c0,0-4.06,10.6-21.36,36.23"/>
                <path class="cls-44" d="M1371.29,598.11s19.7-12.43,31.21-22.19c0,0-7.23,7.4-31,22.49"/>
                <path class="cls-45" d="M1362,597.31s-.3-33.62-3.36-54.95c0,0,3.39,14.26,3.85,54.87"/>
                <path class="cls-46" d="M1358.61,598.08s-5.21-35.2-5.94-57.81c0,0-.72,15.24,5.49,57.78"/>
                <path class="cls-47" d="M1363.81,599.13s-29.38-20.08-46.47-34.89c0,0,10.7,10.88,46.14,35.2"/>
                <path class="cls-48" d="M1363.33,599s33.81-10.19,55.74-14.07c0,0-14.89,1.39-55.75,13.6"/>
                <path class="cls-49" d="M1365.85,598.93s26.52-23.31,44.86-35.95c0,0-13,7.44-45.06,35.53"/>
              </g>
              <g>
                <path class="cls-50" d="M419.45,791.56S399,778.64,382.82,761.17c0,0,8.72,12.87,36.31,31.61"/>
                <path class="cls-51" d="M431.22,789.72s-5.26-36.43-5-69.84c0,0-2.23,20.24,4.06,70.18"/>
                <path class="cls-52" d="M437.85,792.37s23.95-15.73,47.1-23.2c0,0-14.51,1.69-47.56,22"/>
                <path class="cls-53" d="M451.57,791.92s23.95-15.73,47.1-23.2c0,0-14.5,1.69-47.55,22"/>
                <path class="cls-54" d="M429.48,792.4s-10.14-25.54-15.6-50.91c0,0,1.74,16.16,14.95,51.53"/>
                <path class="cls-55" d="M438.58,792.87S447,745.07,461,706.73c0,0-11,21-23.76,85.51"/>
                <path class="cls-56" d="M434.37,793s23-6.92,43.8-6.71c0,0-12.49-2.8-44,5.49"/>
                <path class="cls-57" d="M417.18,791.85s-9.59-30.14-14-59.37c0,0,.83,18.35,13.19,60"/>
                <path class="cls-58" d="M429.34,792.91s17-21.47,34.73-35.09c0,0-11.59,5.77-35.3,34.11"/>
                <path class="cls-59" d="M433.39,791s18.6-8.58,33.92-22.27c0,0-8.57,10.66-33.76,23.48"/>
                <path class="cls-60" d="M426.77,789.16s9.65-42.13,13.07-81.91c0,0,.14,24.56-12.1,82.53"/>
                <path class="cls-61" d="M428,792.4s9.2-40.18,12.46-78.11c0,0,.14,23.41-11.54,78.69"/>
                <path class="cls-62" d="M430.9,792.3s13-66.58,16.37-129.16c0,0,1.46,38.52-14.82,130.07"/>
                <path class="cls-63" d="M422,792.44s-30.68-9.87-59.15-11.21c0,0,17.38-2.33,59.5,9.8"/>
                <path class="cls-64" d="M426.47,791.47s5.33-66.64,1.9-127.16c0,0,5.47,36.41-.33,127.66"/>
                <path class="cls-65" d="M440.64,793.2s7.21-31.46,9.76-61.17c0,0,.11,18.34-9,61.63"/>
                <path class="cls-66" d="M437.3,787.94s11.77-24.2,19.21-49.14c0,0-3.13,16.23-18.66,49.9"/>
                <path class="cls-67" d="M436.71,791.55s20.4-6,38-16.79c0,0-10.25,8.66-38,17.86"/>
                <path class="cls-68" d="M416.61,792.33s-19.48-11.55-38.16-16.81c0,0,11.65,1,38.5,15.88"/>
                <path class="cls-69" d="M421.14,793.37s-22.23-4.34-41.6-3c0,0,11.31-3,41.6,2"/>
                <path class="cls-70" d="M433.05,793.37s27.58-3.65,50.84-1.33c0,0-13.25-3.72-50.7.26"/>
                <path class="cls-71" d="M422,790.89S399.64,762.12,377,743.07c0,0,14.58,8.54,45.57,46.66"/>
                <path class="cls-72" d="M426,792.84s-15.06-28-31.67-47.23c0,0,11.2,9,32.36,46.24"/>
                <path class="cls-73" d="M422.73,792.34S412,730.52,398.83,691.62c0,0,11.74,25.87,25,100.53"/>
                <path class="cls-74" d="M426.63,792.84s-9.69-71.12-22.15-116.27c0,0,11.29,30.21,23.21,116.11"/>
                <path class="cls-75" d="M418.77,793.33s-14.22-69.59-29.53-113c0,0,13.19,28.65,30.58,112.69"/>
                <path class="cls-76" d="M434.81,792s27.7-48.41,41.52-86.78c0,0-7.49,29.24-40.82,88"/>
                <path class="cls-77" d="M427.79,791.53s29.51-59.19,51.91-92.7c0,0-16.71,20.52-52.48,91.88"/>
                <path class="cls-78" d="M439.42,793.48s16.25-68.58,30.9-109.7c0,0-11.83,26.38-31.61,109.14"/>
                <path class="cls-79" d="M434.45,791.18S464,732,486.36,698.48c0,0-16.71,20.52-52.47,91.88"/>
                <path class="cls-80" d="M428,790s35.22-18.13,57.16-37.74c0,0-14.48,16.91-57,39.09"/>
                <path class="cls-81" d="M444.49,790.36s35.21-18.13,57.15-37.74c0,0-14.48,16.91-57,39.09"/>
                <path class="cls-82" d="M441.37,790.45s39.59-1.4,67.79-9.8c0,0-20.3,9.13-68.23,11.08"/>
                <path class="cls-83" d="M423.76,790.06s-31.32-28.78-54.1-41.83c0,0,16.59,6.29,54.53,40.88"/>
                <path class="cls-84" d="M428,791.54s-20.78-43.08-31.38-73.28c0,0,5.87,21.54,30.89,73.68"/>
                <path class="cls-85" d="M420.73,791.52s-28.49-25.29-45.13-45.14c0,0,10.46,15.06,44.82,45.74"/>
                <path class="cls-86" d="M434.21,789.89s.43-68.38,4.85-111.76c0,0-4.9,29-5.56,111.61"/>
                <path class="cls-87" d="M439.06,791.46s7.54-71.62,8.6-117.6c0,0,1,31-8,117.53"/>
                <path class="cls-88" d="M431.54,793.6s42.5-40.85,67.21-71c0,0-15.48,22.12-66.73,71.6"/>
                <path class="cls-89" d="M432.24,793.34s-48.89-20.72-80.6-28.62c0,0,21.53,2.82,80.61,27.67"/>
                <path class="cls-90" d="M428.6,793.18s-38.36-47.42-64.87-73.13c0,0,18.75,15.15,65.16,72.27"/>
              </g>
            </g>
          </g>
        </g>
        <g id="SC_05-2" data-name="SC_05">
          <g class="cls-91">
            <g class="cls-92">
              <rect class="cls-93" x="-289.87" y="326.96" width="1600" height="560.46"/>
              <rect class="cls-94" x="-290" y="-0.5" width="1601.4" height="338"/>
              <path class="cls-95" d="M502,166.28c-232.5,54.16-679-84-922.88-28.93l-2.23,55C-249.11,83.56,199.42,236,502,166.28Z"/>
              <path class="cls-96" d="M635.71,129.76c230.11-63.52,681.88,56.48,923.29-8.47V66.24C1389.59,182,935.24,47.88,635.71,129.76Z"/>
              <path class="cls-95" d="M590.71,75.66c230.11-63.53,681.88,56.47,923.29-8.47V12.13C1344.59,127.89,890.24-6.23,590.71,75.66Z"/>
              <path class="cls-96" d="M347.57,122.12C113.4,168.52-328.3,15.57-573.84,62.55l-4,54.91C-400.42,14.49,42.81,181.71,347.57,122.12Z"/>
              <path class="cls-97" d="M-517,260.91s168,35.71,418.6-52.5a64.88,64.88,0,0,1,29.31-3.11c33,4.12,109.71,15,142.8,30.47l93.65-12.27a122.42,122.42,0,0,1,40.38,1.43l52.84,10.84,394.75-59.72a218.62,218.62,0,0,1,59.21-.8c41.79,5.16,113.74,13.81,119.34,12.91,7.91-1.28,105.51-17.69,136.19-21.7,28.92-3.78,354.74,23,354.74,23l9.51,148.07H-517Z"/>
              <path class="cls-98" d="M-300,259.5s90.79,44.18,626.1,23.59c538.13-13.1,412.48-89.83,985.65-52.4V337.36H-308.95Z"/>
              <path class="cls-99" d="M125.77,349.18c2.62,2.38-7.1-7,0,0Z"/>
              <path class="cls-99" d="M89,404.86c-1.34-.64-1-.35,0,0Z"/>
              <path class="cls-99" d="M89.32,405.08c-.18,0-.24,0-.31-.22C89.08,405,89.14,405.11,89.32,405.08Z"/>
              <path class="cls-99" d="M91.89,406.55c.36.11.27.13,0,0Z"/>
              <path class="cls-99" d="M115.51,441.69c.5,2.26-.56-2.25,0,0Z"/>
              <path class="cls-100" d="M509.71,390.84S198.8,396.27,63.85,410s-326.14,46.92-304.32,49.72,25.6,12.47,25.6,12.47l-89.86,13.52,54.86,3.3-39.73,5.67,23.33,1.94s-26.48,4.46-22.7,4.72,20.54,1.57,20.54,1.57S-418.87,517.74-393,521.45s216.93,15.78,202.74,17.88-1.89,5.51-1.89,5.51l-30.9,9.44H-178s-21.13,4.62-19.87,5.06,24.42,1,24.42,1,33.28,34.32,93.51,50.32S54.39,644.27,27,647.68s-92.53,9.44-75.75,11,37.92,7.08,32.24,7.34-9.77,1.05-.94,1.58,25.85,7.08,22.38,7.61S47.46,703,106.42,719.56s214.4,40.4,278.25,43.55,310.41,2.1,310.41,2.1l22.07,6.3-3.78-12.6,51.74,14.7-12.22-11.55,34.7,5.77-11.79-8.39S996,755.6,1020.55,724.73s13.16-33,13.16-33l59.54-5.2L1039.11,681l22.35-4-22.35-2.51,18.65-5.77s270.62-100,288.19-142.34S1320.18,452,1235.28,444.1l17.31-9.68-31,3.73,32.64-14.48-71.33,11.38,87.35-27.86S1127,422,1099.3,422.83s-192.66-22.9-269-25.95S509.71,390.84,509.71,390.84Z"/>
              <path class="cls-101" d="M979.4,450.8s-345.61-73.62-795.22-20.71C16.51,449.82-78.89,519.55,109.5,590.67S219.23,655.49,194.59,666,156,707.81,353.87,735.55s582,1.06,510.62-49.32S1320.38,512.91,979.4,450.8Z"/>
              <path class="cls-102" d="M1142,459S685.71,379.56,91,438.77c-221.21,22-346.2,82.26-97.22,151.55s145.36,66.27,112.8,76.51-48.75,35.28,212.76,62.32,766.51,3.36,672.24-45.72S1592.6,519.46,1142,459Z"/>
              <path class="cls-103" d="M1132.12,461S683.21,390.48,99.21,441.14C-118.58,460-241,522,3.65,590.09s143.7,66.43,111.7,76.5-50,30.69,207,57.26,754.65,6,662-42.25S1575,520.45,1132.12,461Z"/>
              <path class="cls-103" d="M198.39,449.41c430.54-49.08,761.49,19.21,761.49,19.21,59.13,10.43,94.37,23.55,110,38.42-6.12-17.11-37.7-32.9-110-46.06,0,0-331-70.5-761.49-19.84C94.91,453.32,20.63,483.38,29.19,521.45,34.08,486.83,102.6,460.32,198.39,449.41Z"/>
              <path class="cls-104" d="M126.4,492.73c584-49.07,1032.92,19.21,1032.92,19.21,42,5.47,81.12,16,107.7,24.4,13-10,18.84-19.86,14.26-29.3-21.16-14.87-69-28-149.16-38.42,0,0-448.91-68.29-1032.91-19.21-129.94,10.91-222.88,37.42-229.52,72,2.92,9.6,13,19.7,31.35,30.15C-71.64,525.23,16.91,501.93,126.4,492.73Z"/>
              <path class="cls-105" d="M127.51,464.35c584-50.66,1032.92,19.83,1032.92,19.83,59.51,8,98.66,16.95,122.12,26.59-3.68-18.56-45.33-35.68-150.43-49.79,0,0-448.91-70.5-1032.91-19.84-176,15.27-289.77,58.67-197.73,110.71C-126,510.4-21.59,477.28,127.51,464.35Z"/>
              <path class="cls-106" d="M-35.47,552.48c-31.91-37.29,323.7-64.09,445.75-62.37,0,0,338.72-8.45,610.27,12.08-270-23.91-632.67-14.85-632.67-14.85-119-1.69-465.82,24.46-434.7,60.82,7.69,9,30.66,19.61,59.82,30.89C-10.68,569.39-28.76,560.32-35.47,552.48Z"/>
              <path class="cls-107" d="M903.18,515.77c-35.28,0-44,10.09-57.76,16-.32.14-7.74,5.78-7.69,6.16,15.46.41,56.53-2.51,51.94,2s-19,6.67-26,13.68c-.84.84-1.53,3.5-.48,3.79a169,169,0,0,0,40.47,5.39c38.24,0,67.38-5.73,67.38-19.06S938.46,515.77,903.18,515.77Z"/>
              <g>
                <path class="cls-108" d="M901.54,512.67c-35.29,0-63.89,10.81-63.89,24.14a8.74,8.74,0,0,0,.08,1.14c20.45-2.28,54.89-5.61,50.3-1.14s-17.34,9.77-24.34,16.78a1.75,1.75,0,0,0,.53,2.8A144.35,144.35,0,0,0,901.54,561c35.28,0,63.88-10.81,63.88-24.14S936.82,512.67,901.54,512.67Z"/>
                <path class="cls-109" d="M895.26,514.29c-4.72,1.48-9.65,1.65-15.15,1.48a58.24,58.24,0,0,0-16.9,2.55c-3.39,1.21,8.41,2.31.9,4.54s-9.65,2.23-12.58,3.6-14.15,2.83.43,3.71,32.3.41,36.65.73,8.94-.56,7.15,2,1.5-.08-3.07,3.46-7.44,3.68-11.06,7.83c-3.31,3.79-6.81,4.67-4.45,6.85s16.44.49,16.44.49-.79,1.77,4.78-.65,6.58-1.93,20.8.48,13.43-2,15-2.58,7.86-.88,17.07-4,12.37-7.61,9.29-10.89-.07-4.84-6.28-8.22-13.15-5.33-16.65-6.37-10.79-2.83-16.08-4-7.29-1.93-13.65-1.93Z"/>
                <path class="cls-110" d="M936.22,545.12a81.68,81.68,0,0,0-11.3-7.89,52.65,52.65,0,0,0-6.69-3.19,35.48,35.48,0,0,0-5.71-1.65,20.48,20.48,0,0,0-4.82-.44,3.09,3.09,0,0,1,.58-.53,5.23,5.23,0,0,1,1.4-.63c.58-.18,1.28-.33,2-.53a52.25,52.25,0,0,1,11.92-1.34c4.7,0,9,.41,12,.64s5,.33,5,.11-1.87-.69-4.94-1.23a70.8,70.8,0,0,0-12.14-1.12,38.69,38.69,0,0,0-12.12,1.84c-.76.28-1.43.49-2,.77a5,5,0,0,0-1.47,1,2.94,2.94,0,0,0-.56.78,11.87,11.87,0,0,0-1-3,22.43,22.43,0,0,0-4.41-6.28,17.42,17.42,0,0,0-5.92-3.91c-1.65-.61-2.72-.66-2.76-.46-.1.47,4,1.71,7.88,5.63,3.34,3.24,5.21,7.06,5.92,8q-.48-.33-1.53-1c-.62-.38-1.39-.81-2.31-1.26s-1.95-1-3.13-1.48-2.46-1.07-3.86-1.56-2.92-1-4.51-1.49a73.44,73.44,0,0,0-10.55-2.19,72.37,72.37,0,0,0-10.68-.49c-1.64.09-3.2.15-4.66.34s-2.81.35-4,.56-2.33.46-3.3.68a24.85,24.85,0,0,0-2.47.66c-1.35.41-2.08.69-2.06.8s3.05-.44,7.94-1c1.22-.14,2.56-.29,4-.36s3-.14,4.6-.19a85.81,85.81,0,0,1,10.53.6,87.47,87.47,0,0,1,10.42,2c1.58.45,3.09.84,4.48,1.33s2.69.91,3.87,1.35c3.83,1.46,6.42,2.68,7.29,2.95l0,0s0,0,.05.06c-.45.23-1.39.9-2.71,1.78-.91.62-2,1.35-3.18,2.25a21.35,21.35,0,0,0-3.65,3.44,15.2,15.2,0,0,0-2.64,4.77,17.37,17.37,0,0,0-.92,4.57c-.16,2.69.34,4.28.48,4.24s0-1.64.42-4.09a17.24,17.24,0,0,1,3.56-8.35,52.78,52.78,0,0,1,6.41-5.87,12.62,12.62,0,0,0,2.49-2.61c.68.23,2.44.54,4.9,1.23a50.7,50.7,0,0,1,5.51,2,67.69,67.69,0,0,1,6.53,3.23c4.54,2.59,8.49,5.39,11.36,7.4s4.66,3.25,4.76,3.06S939,547.4,936.22,545.12Z"/>
                <path class="cls-111" d="M965.42,536.81c0-9-13.13-16.9-32.56-21a185,185,0,0,1,17.63,6.59c8.67,4.29,11.14,9.6,11.86,10.67s2.23,3.19,0,6.05c-2.08,2.66-2.15,3.55-5.72,4.8s-4.72,2.31-10.57,3.73-8.87,4.09-12.15,4.8-11.44,3.2-22,3.2-8.58,1.6-16.29,1.07-6-1.25-15.3-1.25-9.14-1.77-10.57-4.09a4.38,4.38,0,0,1-.63-2.22,42.45,42.45,0,0,0-5.42,4.47,1.75,1.75,0,0,0,.53,2.8A144.35,144.35,0,0,0,901.54,561C936.82,561,965.42,550.14,965.42,536.81Z"/>
                <path class="cls-109" d="M942,532.27a43.23,43.23,0,0,1-9.5-.56c-5.72-.89-4.54-1.49-11.15-1.78s-17.08-2.82-6.5.32,13.79,3.07,16.79,6,3,4.2,6.65,5.57,5.93,2.82,8.93,1.21,4.57-1.7,6.29-2.66,4.07.64,2.07-2.34-8.14-6.13-9.86-6.13A22.6,22.6,0,0,0,942,532.27Z"/>
                <path class="cls-109" d="M900.91,516.54c1.49.75,6.36,5.25,6.86,7.42s-2.38,4.52,2.56,3,4.58-3.15,8.65-2.91a68,68,0,0,1,11.94,1.62,55.76,55.76,0,0,0,9,1.29c3.07.32,4.63-2.34.78-4A121.41,121.41,0,0,0,926.27,518c-5.28-1.52-3.07-1.76-9.93-2.65S893.76,513,900.91,516.54Z"/>
              </g>
              <path class="cls-107" d="M364.8,555.06s-101.54,3.88-98.56,13.88c2.79,9.36,14.18,27.32,92.38,29.16,0,0-6.43,9.75,13,17.57,18.16,7.32,65.06,18.35,121.62,1.45,41.67-12.46-13.13-40.35-13.13-40.35S521,552.15,487.53,548,364.8,555.06,364.8,555.06Z"/>
              <path class="cls-112" d="M279.38,633.92c-120.41,0-218-30.21-218-67.46,0-21.19,31.57-40.09,81-52.46C78.62,525.78,36,547.32,36,571.94c0,37.26,97.61,67.46,218,67.46,51.94,0,99.62-5.62,137.07-15C358.4,630.44,320.2,633.92,279.38,633.92Z"/>
              <path class="cls-113" d="M610.66,504.86A531.47,531.47,0,0,0,534.41,510c17.06-1.68,35.8-2.61,55.48-2.61,78.77,0,142.62,14.89,142.62,33.25,0,11.83-26.48,22.21-66.38,28.11,51.21-5,87.15-16.87,87.15-30.65C753.28,519.75,689.43,504.86,610.66,504.86Z"/>
              <path class="cls-113" d="M532.4,510a531.47,531.47,0,0,0-76.25,5.15c17.06-1.68,35.8-2.61,55.48-2.61,78.77,0,142.62,14.89,142.62,33.25,0,11.83-26.49,22.21-66.38,28.11C639.08,568.89,675,557.07,675,543.3,675,524.93,611.17,510,532.4,510Z"/>
              <path class="cls-112" d="M249.7,627.78c-94-7-168.25-36.94-165.93-66.77,1.34-17.27,28.09-30.74,68.61-37.64-47.41,5.88-79.55,19.84-81,38.35-2.25,29.07,72.08,58.36,166,65.41q9.13.68,18,1C253.56,628.06,251.64,627.93,249.7,627.78Z"/>
              <g>
                <path class="cls-114" d="M143.14,565.92l74.43-104.18s113.64,5.52,170.46-6.12,158.79,27.9,158.79,27.9l61.22,52L602.83,559,461.91,627.18s-223.47-7.07-254.5-18.3S143.14,565.92,143.14,565.92Z"/>
                <path class="cls-115" d="M419.37,523.75l127.45-40.23S444.84,444,388,455.62s-170.46,6.12-170.46,6.12L247.46,511Z"/>
                <path class="cls-116" d="M217.34,611.31c53.06,9.81,244.57,15.87,244.57,15.87L419.37,523.75,247.46,511Z"/>
                <polygon class="cls-117" points="602.83 559.02 608.04 535.51 546.83 483.52 419.37 523.75 461.91 627.18 602.83 559.02"/>
              </g>
              <path class="cls-118" d="M436.72,460.82c0,.53-1.14.95-2.55.95s-2.54-.42-2.54-.95,1.14-.94,2.54-.94S436.72,460.3,436.72,460.82Z"/>
              <polygon class="cls-119" points="217.57 461.74 248.8 506.41 419.37 523.75 247.46 510.95 217.57 461.74"/>
              <g>
                <path class="cls-120" d="M607.85,591.82l-17.21-32.27c-.47-2.58-19-6.23-19-6.23l-10.9-6.4s-146,2.08-149.28,6.2-85.91,73.78-84,78.94,21.24,23.74,21.24,23.74L462.94,677c10.39,0,38.24-7.74,48.62-6.71s70.8-1,70.8-1l46.26-30.44C628.62,637.22,613.58,604.32,607.85,591.82Z"/>
                <path class="cls-121" d="M511.56,670.24c10.39,1,70.8-1,70.8-1l44.52-29.29h0s-44.45,19-46.44,18.09-17.52-57.51-17.52-58.86-3.18,10.33-6,14.38S348.72,655.8,348.72,655.8L462.94,677C473.33,677,501.18,669.21,511.56,670.24Z"/>
                <path class="cls-122" d="M560.83,547.93s.06,57.88-4.66,64.47-131.13,29-131.13,29l129.13-30.54Z"/>
                <path class="cls-123" d="M555,549.05c-6.62.36-134.56,2-140.53,7.19S362.68,594.88,375.22,594s38.62-11.23,30.85-2.47-24.08,13.93-5.57,15,51.95.23,45,3.37S538,607,544,604.32,559.56,548.8,555,549.05Z"/>
                <path class="cls-124" d="M607.85,591.82l-17.21-32.27c-.08-.43-.71-.9-1.65-1.38a23.2,23.2,0,0,0,1.3,4.58s25.28,53.58,19.71,61-26.08,17-21.3,16.4,28.66,0,18.61,2.69-20.16,5.74-6.57,4c9-1.12,19.68-4.61,26-6.87l1.9-1.25C628.62,637.22,613.58,604.32,607.85,591.82Z"/>
                <path class="cls-109" d="M569.89,553.82s19.62,3.54,18.1,5.9S568,601,571.38,597.46s9.11,52.07,6.57,42.13-14-41.53-14-41.53Z"/>
              </g>
              <path class="cls-106" d="M958.7,522.49c13.44,4.89,21.46,11,21.46,17.7,0,15.85-45.25,28.72-101.4,29,1.92,0,3.85.05,5.79.05,55.34,0,100.19-12.51,100.19-27.94C984.74,534,974.88,527.45,958.7,522.49Z"/>
              <path class="cls-106" d="M827.55,536.81c0-14.66,36.38-26.54,81.26-26.54a236.52,236.52,0,0,1,27.06,1.51,219.35,219.35,0,0,0-35.26-2.73c-44,0-79.73,11.88-79.73,26.54,0,11,20,20.36,48.43,24.41C844.41,555.47,827.55,546.78,827.55,536.81Z"/>
              <path class="cls-105" d="M163.3,650.73c-4,9.12-32.55,11.29-47.8,15.51-25.24,7-38.25,22.1,50.68,36.93Z"/>
              <path class="cls-125" d="M358.57,735.94c.44.45-1.88,10.08-31.14,15.26,0,0,23.85-2.33,29.26-5.18,0,0-9.15,11.8-18.59,14.66,0,0,34.13-8.87,35.54-15,0,0,7.33,12-7,20.76,0,0,29.67-13.84,27.81-20.61,0,0,1.24,11.28,11.84,14.89,0,0-3.4-12.41,2.17-14.66l28.31,16.16-9.36-16s8.91,4.21,24,5c0,0-19-4.93-19.37-15.23Z"/>
              <path class="cls-125" d="M835.29,731.66c.16.3-3.21,8.38-7.59,12.48l8-4-1,14.89,9-14.76,17.67,16.31-9.47-17.47,19.49,11.94s-13.63-14.85-14-19.42Z"/>
              <path class="cls-126" d="M416.43,379.59s-2.09-18.37-9.53-23.09c0,0,8.37,2.36,9.53,6.3l-6.28-27.55,10.46,28.07s0-12.33,5.12-16.53c0,0-3,20.2,0,32.8Z"/>
              <g>
                <path class="cls-127" d="M956.55,706.86s-10,3.47-12.92,9.2c-2.5,4.85-3.19,5.06-5.46,6.54-2.45,1.6-5.92,4.36-5.92,4.36l2.41,10s8.2,2.4,12.86,3.51,13.29,2.24,14.42,1.12S972,731,972,731s6.79-7.82,6.79-8.78-3.82-9.41-3.82-9.41Z"/>
                <path class="cls-128" d="M971.55,727.84s-9.8,8.64-10.93,9.76-9.75,0-14.42-1.12c-4.07-1-10.83-2.92-12.49-3.4l.95,3.93s8.2,2.4,12.86,3.51,13.29,2.24,14.42,1.12S972,731,972,731s6.79-7.82,6.79-8.78a6.11,6.11,0,0,0-.37-1.26C976.32,723.34,971.55,727.84,971.55,727.84Z"/>
                <path class="cls-129" d="M943.63,716.06c-2.49,4.85-3.19,5.06-5.46,6.54-2.45,1.6-5.92,4.36-5.92,4.36l1.46,6.12h0s13.41-7.93,14.31-8.6,8.53-17.62,8.53-17.62S946.58,710.33,943.63,716.06Z"/>
                <path class="cls-130" d="M948,724.48l30.38-3.57h0c-1-2.62-3.45-8.15-3.45-8.15l-18.4-5.9Z"/>
              </g>
              <path class="cls-131" d="M917.49,733c-.11-1.51-15.93-54.8-15.93-54.8s18.23,26.64,21.3,44.83c0,0,4-26.85,7.11-33.35,0,0,3.38,27,1.91,41.37S918.07,741.05,917.49,733Z"/>
              <path class="cls-132" d="M1339.21,921.83c-1-16.23,10.71-163.83,10.71-163.83S122.7,885.15-93.31,866.79l-9.52,73.55Z"/>
              <path class="cls-133" d="M-338.79,708.33s604.06,56.12,849.37,150.61L-313,897.29Z"/>
              <path class="cls-134" d="M-116.4,910.3S693.92,784.37,839.45,784.84c0,0,151.77-56.74,508.85-65.81l26,100c-370.31.71-717.1,17.13-1015,66.23Z"/>
              <g>
                <path class="cls-135" d="M1263,896.7c34.23,17.77,68,36,98.91,61.41,17.62-64.26-61.52-147.36-100.88-181.47-25.9-22.43-54.75-39.57-85.49-48.78a178.26,178.26,0,0,0-46.26-7.73c-7.77-.21-37.75,8.71-43.47,4.49,34.71,25.59,56.59,64.18,84,99.13,27.06,34.55,57.44,54.38,93.22,73"/>
                <path class="cls-136" d="M1091.15,727.25c91.47,7.47,157.24,127.8,225.77,189.29,13.19,11.84,27.1,21.46,38,36.25,9-27.61-9.54-64.82-23.49-88.37a396,396,0,0,0-66.22-83.95c-48.92-46.71-114.54-81.86-174-53.22"/>
                <path class="cls-135" d="M1311.07,940.09c18.93,3.13,34.88,13.43,51.07,20.7-4.61-52.15-80.23-78.3-112.23-103.15-44.63-34.67-89.3-49.72-138.9-30.86-20.59,7.84-40.73,14.66-61.3,21.79,47,23.34,95.26,40.4,141.3,65.21,41.63,22.42,76.43,19.09,120.06,26.31"/>
                <path class="cls-135" d="M1334,913.09c13.08,12.63,22.83,20.58,31.59,37.69,28.1-111.91-53.19-241.5-136.68-291-18.34-10.88-37-19.65-57.18-22.26,24.38,98.39,94.61,210.26,162.27,275.56"/>
                <path class="cls-136" d="M1228.88,659.79c-18.32-10.86-35.51-20.19-55.82-18.91,67.93,66.63,97.7,166.39,157,242.35,12.57,16.09,25.14,32.13,37.06,48.77,25.36-101-64.91-228.7-138.29-272.21"/>
                <path class="cls-135" d="M1354.87,957.85a11.46,11.46,0,0,1-4.33-.43c-11.44-3.25-42.63-91.12-49.47-105.86-35.6-76.7-65.19-163.65-50.78-249.79,7.85-46.86,9.64-59.25-4.08-104,18.79,14.83,32,33.57,41,57.71,15.25,40.74,19.8,87.14,34.56,128.49,29.42,82.41,73.41,134.1,53.14,223.08-3.32,14.58-5.31,49.21-20,50.79"/>
                <path class="cls-136" d="M1351.4,927.94c-62.75-108.39-66.26-237.86-82.89-360-3.41-25-6.83-53.89-21.88-73.7,14.46,20.44,32.09,38.55,40.57,61.23,14.36,38.37,18.45,80,31.13,119,11,33.63,31,59.9,44.2,92.43,16.73,41.14,5.13,69.79-2.66,111.31-3.11,16.6-4.75,33.37-8.47,49.75"/>
                <path class="cls-135" d="M1376.15,920.85c-6.37,16.76-14.28,31.18-23.28,33.27-24.56,5.7-27.87-80.27-33.07-105.25-24.12-115.73,16.11-263.42,126.84-271.17-31.2,46.41-42.41,107.28-43.64,167-.87,42.09-1.58,84.37-11.7,124.47-2.62,10.36-7.89,32.52-15.15,51.63"/>
                <path class="cls-136" d="M1347.53,959.58c-24.89-62.84-20.24-123.1-11.84-187.12,8-61.32,45.1-155,94.78-181.19A496.62,496.62,0,0,0,1403,744.75c-1,48.4-2.84,126-26.11,176.61-7.39,16.08-17,29.42-29.36,38.22"/>
                <path class="cls-137" d="M1341.9,955.63c.27-.21-1.6-4.07-6.22-10A117.29,117.29,0,0,0,1313,924c-10.48-7.86-23.85-15.6-39-23.12s-32-14.91-49-24.35c-17.2-9.21-33.89-17.63-49.73-23.52a204.18,204.18,0,0,0-22.83-7.11c-7.26-1.82-14.13-2.93-20.31-3.94-12.42-2.12-22.76-2.8-29.87-2.09s-10.9,2.08-10.84,2.43,3.93-.18,10.86-.09,16.9,1.31,29.15,3.94c6.16,1.29,12.85,2.62,19.91,4.61a219.65,219.65,0,0,1,22.23,7.49c15.45,6.07,31.85,14.53,49,23.72,17.16,9.51,34.29,16.76,49.39,24s28.45,14.39,39,21.62a137.57,137.57,0,0,1,23.22,19.67c5,5.33,7.41,8.69,7.75,8.4"/>
                <path class="cls-137" d="M1327.53,914.37c.33-.28-1.83-3.92-5.29-10.75s-8.07-17-13.35-29.78c-2.66-6.4-5.52-13.45-8.76-21s-6.89-15.36-10.49-23.79c-7.27-16.78-15-35.46-23.51-54.85s-17.21-37.62-26.06-53.57a306.07,306.07,0,0,0-26.17-40.29A174.16,174.16,0,0,0,1192.34,657c-5.56-4.92-9-7.1-9.17-6.8-.58.78,12.08,11.13,27.79,32.9a351.42,351.42,0,0,1,24.86,40.47c8.5,15.92,17,34,25.47,53.36s16.34,37.92,23.89,54.65c3.73,8.37,7.56,16.25,10.94,23.55l9.34,20.6c5.74,12.63,10.92,22.61,15,29.12s6.8,9.72,7.07,9.48"/>
                <path class="cls-137" d="M1228.36,751.54c-.29.31,3.3,5,8.78,12.85s12.81,18.93,20.8,31.3,15.38,23.44,21.13,31.1,9.67,12,9.93,11.77-3.12-5.12-8.42-13.1-12.46-19.19-20.45-31.57-15.57-23.35-21.51-30.87-10-11.75-10.26-11.48"/>
                <path class="cls-137" d="M1322.94,872.53c.38-.17-.89-4.58-2.79-12.63s-4.33-19.8-7.13-34.44c-5.57-29.46-16.63-68.9-25.38-113.39-2.18-11.12-4.08-22-5.62-32.6q-.55-4-1.19-7.91c-.39-2.57-.74-5.14-1.06-7.68-.64-5.08-1.15-10.09-1.59-15-1.71-19.62-2.58-37.49-4.12-52.42a257.33,257.33,0,0,0-5.51-35c-2-8.11-3.68-12.35-4-12.23s.64,4.61,2,12.79,2.79,20.08,3.76,35,1.51,32.7,3,52.56c.38,5,.84,10.06,1.43,15.25q.45,3.9,1,7.86t1.13,7.9c1.49,10.71,3.37,21.74,5.57,33,8.82,44.83,20.48,84.15,26.93,113,3.28,14.5,6.25,26.23,8.84,34.12s4.47,12,4.79,11.89"/>
                <g class="cls-138">
                  <g class="cls-139">
                    <path class="cls-137" d="M1336.26,938.77c.37-.17-.88-4.51-2.86-12.4a186.12,186.12,0,0,1-5.47-33.93c-.22-3.63-.34-7.44-.33-11.43s.27-8.13.46-12.45c.42-8.67,1-17.92,1.81-27.63a523.68,523.68,0,0,1,8.77-62.63,311.79,311.79,0,0,1,8.21-31.43c3.37-10.07,6.23-20,9-29.23,5.58-18.6,11-35.14,16.61-48.48s11.35-23.42,16.18-29.59,8.3-8.7,8.06-9.11-4.11,1.57-9.58,7.53-12,16-18.08,29.36-12,30-17.88,48.58c-3,9.29-5.88,19-9.29,29a297.84,297.84,0,0,0-8.51,32.12,475.68,475.68,0,0,0-8.47,63.52c-.68,9.81-1.11,19.15-1.33,27.88-.09,4.37-.26,8.55-.16,12.72s.34,8,.7,11.73a153.06,153.06,0,0,0,7.27,34.24c2.62,7.73,4.53,11.77,4.85,11.63"/>
                  </g>
                </g>
                <g class="cls-140">
                  <g class="cls-141">
                    <path class="cls-142" d="M1334.91,911c.44.08,1.66-9.27,6.37-23.53,2.34-7.12,5.56-15.43,9.53-24.47s8.64-18.85,13.46-29.22,9.24-20.39,12.68-29.79a165,165,0,0,0,7.32-25.65c2.85-15.06,1.81-24.6,1.56-24.53-.49,0-.14,9.43-3.42,24.09a181.45,181.45,0,0,1-7.75,25.07c-3.52,9.22-8,19.12-12.77,29.47s-9.45,20.21-13.31,29.4a234.21,234.21,0,0,0-9.09,25c-4.31,14.63-4.88,24.18-4.58,24.19"/>
                  </g>
                </g>
              </g>
              <path class="cls-143" d="M28.89,942.09c50.92-6,107.5-16.69,122.87-23-30.07-2.67-86.77,1.84-134,7.41l10.87-2.62c27.14-4.91,49.21-9.84,51.72-12.3,32.79-7.7,59.7-13.76,63.82-14.08-17.45-.32-62.94,5.34-105.9,13.81-4.43.28-8.9.59-13.37.93,59.37-18.46,125.44-39.76,131.9-45.15-12-.56-60.72,11-111.15,25,27.12-11.67,52.48-23.48,65.12-30.53-12.23,2.21-26.81,5.36-42.18,9.16,13.72-7.82,27.4-15.67,40.55-23.08-3.2-2.26-15.85.87-33.1,7.08,24.07-15.89,41.11-29.24,40.47-34-23.8,11.77-49.5,24.17-74,36.33,16.61-10.71,32.37-21.6,44.92-30.57-10.1,3-25.63,9.07-42.93,16.43,30.63-26.28,56-49.88,60.43-57.88-6.51,1.81-39.62,26.33-76.09,54.34,5.69-6,11.19-11.87,16.35-17.59,13.72-9.93,25.26-18.26,33-23.61q-10,4-19.37,8.07c9.37-11.05,16.56-20.39,20.11-26.26-2,2.56-16,15.72-34.57,32.77q-15.82,7.35-30,14.93c8.5-13,16.24-25.9,22.33-37.53q6.69-4.9,13.65-9.77c-3.89,1.8-7.7,3.64-11.46,5.48a153.18,153.18,0,0,0,8-18.38c-5.31,4.58-14.76,14.7-26,27.72Q2.85,805-12.71,815a88.5,88.5,0,0,0,.31-12.61s-1.69,1.83-4.48,4.94c1.74-5.69,3.38-11.4,4.92-17.09,12.34-19.81,23.43-38.65,31.88-54.51-8.13,6.39-16.19,13.34-24.12,20.69,1.5-8.09,2.69-16,3.5-23.63-6.57,11.74-13.77,25.73-21.12,40.83-13.49,13.83-26.41,28.56-38.4,43.41A657,657,0,0,0-59,748.2c1.54-13.52,2-24.19,1.19-30-.89,1.45-1.77,3-2.66,4.61q-.67-8.34-1.6-16.59c-.87,8.23-1.8,16.6-2.75,25C-78.53,759.55-92.2,803.55-102,841.66c.26-3.56.54-7.16.81-10.79,4.28-26.3,6.47-48,4.11-51.27,2.75-32.45,5.34-59,6.58-62.82-7.52,15.57-18.2,58.66-24,100.57-1.41,4.1-2.8,8.24-4.15,12.39-1.22-60.51-3.64-128.14-8.41-136-5.64,10.61-9.5,58.87-10.76,109.63-5-28.9-10.92-56.25-15.45-70.33-1.93,11.84-3.53,26.18-4.55,41.46-5.16-15.34-10.37-30.68-15.2-45.36-4.11,1.88-5.11,13-4,29.08-.17.56-.33,1.12-.49,1.68-11.74-26.88-22.79-46.52-29.38-47.73,6.49,26,13.06,53.83,19.79,80.59-8-19.06-16.49-37.43-23.7-52.18.06,7.58,1.15,18.45,3,31-.5,2.79-1,5.56-1.38,8.3-22.24-35.18-42.6-64.25-51.29-71-.15,6.55,20,45.77,43.64,89.36C-240.78,768-265.38,740.74-278,730.32c2.12,2.15,10.12,13.41,21.07,29.32a285.81,285.81,0,0,0,7.86,38.27c-21.29-18.09-42.12-33.93-59.09-43.5,8,12.67,38.14,47.3,71.36,81.16.67,1.76,1.34,3.51,2,5.26-6.06-3.36-12.33-6.48-18.8-9.3-25.46-23.24-50.77-43.43-61.64-48.88,6.22,11.25,17.92,26.27,31.82,42.21-16.33-8.55-32.95-16.66-49.4-24-.83-.72-1.42-1.26-1.73-1.6.27.39.56.8.87,1.22-14-6.23-27.9-11.9-41.37-16.77,22,17.08,51.53,37.95,82.73,59,8.1,7.3,16.79,14.8,25.63,22,2.51,2.9,5.09,5.8,7.69,8.7-49.51-31-105.44-65.17-114.44-66.77,5.11,8.06,38.06,32.77,75.51,58.39-3.15-1-6.34-2-9.54-3-19.88-9.19-37.89-16.94-48.8-20.84,3.67,3.13,7.76,6.47,12.16,10-30-8.47-61.27-16.17-92.26-22.37,22.28,8.07,45.26,16.52,68.14,25,3.59,3.76,11.47,8.94,22,14.87-29.08-8.15-51.91-12.81-56.64-9.88,24.54,10.14,50.69,21.24,76,31.68-19.8-5.76-39.36-10.83-55.26-14.72,8.33,5.33,22.57,12.81,39.12,20.81-43.5-7.17-81.46-12.1-92.27-10.95,5.2,3.51,48.05,13.32,96.32,23.57-37.66-3.14-73.28-4.31-88.7-3,6.9,0,73,9.15,129.75,17.34-46.15,1.1-97.39,4.38-127,11.33,16.05,2.6,68.06,4.87,118.1,4.49-18,3.74-35.58,9.39-51.14,17.72,0,0,2.77.2,7.53.48-31.19,8.1-61.82,17.67-87.93,28.23,45.88-4.86,114.32-16.07,171.18-26.87,2.82-.12,5.6-.26,8.31-.44-51.89,18.7-119.08,48.86-177.16,83.52,105.6-42.7,233-90.73,257.57-100,.7.69,1.38,1.33,2,1.9,1.34-1.65,6.45-7.32,7.83-8.95h0c1.1-1.25,2.28-2.58,2.89-3.3a28.66,28.66,0,0,0-3.44-.78c-.19-.45-.41-.94-.64-1.49,15.43,6,26.83,10.44,32.86,12.8-.27,1-.49,2-.64,3,2.82-.27,12.89-.86,15.72-1.1h0c2.2-.14,4.55-.29,5.81-.4a20.68,20.68,0,0,0-1.63-3.14c1-1.37,2.32-3.13,3.94-5.25,2.18-2.52,4.53-5.35,7-8.45,5.22-2.93,11.34-6.64,18.11-11-1.12,8-2,14-2.48,17.52-1.11.13-2.15.28-3.1.45,1,1.75,4.42,8.09,5.44,9.86h0c.75,1.38,1.55,2.86,2,3.64a23.16,23.16,0,0,0,2.65-2c1.63.25,3.73.59,6.27,1,3.09.67,6.54,1.37,10.29,2.09,36.5,21.3,145.37,67.07,177.91,82.16A482.22,482.22,0,0,0-7.63,961.75c36.45,9.72,81.68,24.3,127.92,45.53a417.59,417.59,0,0,0-78.34-43c40.84,4.84,82.93,8.83,114.05,10.29C119,959.91,72.35,949.09,28.89,942.09Zm-36.61-82-.47.43.13-.18ZM3.59,815.8c-7.94,9.76-16.15,20.2-24,30.64a133.58,133.58,0,0,0,4.59-14.21Q-6.51,824.1,3.59,815.8Zm-232.77-15.27c5.6,8.33,11.34,16.89,17,25.38q.07,2.65.21,5.25l-2.58-2.41C-219.34,819.24-224.26,809.74-229.18,800.53Z"/>
            </g>
          </g>
        </g>
        <rect class="cls-144" x="784.25" width="31.51" height="900"/>
      </g>
    </g>
  </g>
</svg>
