<svg id="Layer_1" data-name="Layer 1" xmlns="http://www.w3.org/2000/svg" xmlns:xlink="http://www.w3.org/1999/xlink" width="1920" height="900" viewBox="0 0 1920 900">
  <defs>
    <style>
      .cls-1 {
        fill: none;
      }

      .cls-2 {
        fill: #915c34;
      }

      .cls-3 {
        fill: url(#Áåçûìÿííûé_ãðàäèåíò_42);
      }

      .cls-4 {
        fill: #956334;
      }

      .cls-5 {
        clip-path: url(#clip-path);
      }

      .cls-6 {
        fill: url(#Áåçûìÿííûé_ãðàäèåíò_6);
      }

      .cls-7 {
        fill: url(#Áåçûìÿííûé_ãðàäèåíò_55);
      }

      .cls-8 {
        fill: #e9cc74;
      }

      .cls-9 {
        fill: url(#Áåçûìÿííûé_ãðàäèåíò_6-2);
      }

      .cls-10 {
        fill: #e9c15d;
      }

      .cls-11 {
        fill: url(#Áåçûìÿííûé_ãðàäèåíò_6-3);
      }

      .cls-12 {
        fill: url(#Áåçûìÿííûé_ãðàäèåíò_21);
      }

      .cls-13, .cls-15, .cls-23, .cls-47 {
        fill: #542b0e;
      }

      .cls-13, .cls-54 {
        opacity: 0.3;
      }

      .cls-14 {
        opacity: 0.45;
      }

      .cls-16 {
        fill: url(#Áåçûìÿííûé_ãðàäèåíò_6-4);
      }

      .cls-17 {
        opacity: 0.42;
      }

      .cls-18 {
        clip-path: url(#clip-path-2);
      }

      .cls-19 {
        fill: #89572d;
      }

      .cls-20 {
        fill: #b77b43;
      }

      .cls-21 {
        opacity: 0.52;
      }

      .cls-22 {
        clip-path: url(#clip-path-3);
      }

      .cls-23 {
        opacity: 0.55;
      }

      .cls-24 {
        fill: #a46c3c;
      }

      .cls-25 {
        opacity: 0.46;
      }

      .cls-26 {
        fill: url(#Áåçûìÿííûé_ãðàäèåíò_42-3);
      }

      .cls-27 {
        fill: url(#Áåçûìÿííûé_ãðàäèåíò_56);
      }

      .cls-28 {
        fill: #42808d;
      }

      .cls-29 {
        fill: #b46d34;
      }

      .cls-30 {
        fill: #eeb259;
      }

      .cls-31 {
        fill: #f7c17a;
      }

      .cls-32 {
        fill: #fffcf9;
        opacity: 0.08;
      }

      .cls-33 {
        fill: url(#Áåçûìÿííûé_ãðàäèåíò_17);
      }

      .cls-34 {
        fill: #8fb875;
      }

      .cls-35 {
        fill: #614a4a;
      }

      .cls-36 {
        fill: #70844c;
      }

      .cls-37 {
        fill: #627b36;
      }

      .cls-38 {
        fill: #809256;
      }

      .cls-39 {
        opacity: 0.22;
        fill: url(#Áåçûìÿííûé_ãðàäèåíò_25);
      }

      .cls-40 {
        fill: #864d20;
      }

      .cls-41 {
        fill: #945a25;
      }

      .cls-42 {
        fill: #ecbd59;
      }

      .cls-43 {
        fill: #b46e29;
      }

      .cls-44, .cls-67, .cls-69, .cls-73 {
        fill: #77421b;
      }

      .cls-45 {
        fill: #985825;
      }

      .cls-46, .cls-47 {
        opacity: 0.2;
      }

      .cls-48 {
        fill: url(#Áåçûìÿííûé_ãðàäèåíò_43);
      }

      .cls-49 {
        fill: #472815;
      }

      .cls-50 {
        fill: url(#Áåçûìÿííûé_ãðàäèåíò_42-4);
      }

      .cls-51 {
        fill: url(#Áåçûìÿííûé_ãðàäèåíò_19);
      }

      .cls-52 {
        fill: #a3672b;
      }

      .cls-53 {
        fill: url(#Áåçûìÿííûé_ãðàäèåíò_12);
      }

      .cls-54 {
        fill: #fff;
      }

      .cls-55 {
        fill: #a46427;
      }

      .cls-56 {
        fill: url(#Áåçûìÿííûé_ãðàäèåíò_43-2);
      }

      .cls-57 {
        fill: url(#Áåçûìÿííûé_ãðàäèåíò_42-5);
      }

      .cls-58 {
        fill: url(#Áåçûìÿííûé_ãðàäèåíò_19-2);
      }

      .cls-59 {
        fill: url(#Áåçûìÿííûé_ãðàäèåíò_12-2);
      }

      .cls-60 {
        fill: #da9440;
      }

      .cls-61 {
        clip-path: url(#clip-path-4);
      }

      .cls-62 {
        fill: #7c5029;
      }

      .cls-63 {
        fill: #a26e3c;
      }

      .cls-64 {
        fill: #eeb24b;
      }

      .cls-65 {
        fill: #ab6c29;
      }

      .cls-66 {
        fill: #e5a44b;
      }

      .cls-67 {
        opacity: 0.32;
      }

      .cls-68 {
        fill: url(#Áåçûìÿííûé_ãðàäèåíò_43-3);
      }

      .cls-69 {
        opacity: 0.5;
      }

      .cls-70 {
        fill: #81481e;
      }

      .cls-71 {
        clip-path: url(#clip-path-5);
      }

      .cls-72 {
        fill: #552d12;
      }

      .cls-73 {
        opacity: 0.8;
      }

      .cls-74 {
        fill: #d18839;
      }

      .cls-75 {
        fill: #6d3a17;
      }

      .cls-76 {
        clip-path: url(#clip-path-6);
      }
    </style>
    <linearGradient id="Áåçûìÿííûé_ãðàäèåíò_42" data-name="Áåçûìÿííûé ãðàäèåíò 42" x1="961.94" y1="558.42" x2="962.73" y2="375.78" gradientUnits="userSpaceOnUse">
      <stop offset="0" stop-color="#724722"/>
      <stop offset="1" stop-color="#5c3818"/>
    </linearGradient>
    <clipPath id="clip-path">
      <rect class="cls-1" width="1920" height="900"/>
    </clipPath>
    <linearGradient id="Áåçûìÿííûé_ãðàäèåíò_6" data-name="Áåçûìÿííûé ãðàäèåíò 6" x1="1252.67" y1="566.32" x2="1948.49" y2="566.32" gradientUnits="userSpaceOnUse">
      <stop offset="0" stop-color="#89572d"/>
      <stop offset="1" stop-color="#5c3818"/>
    </linearGradient>
    <linearGradient id="Áåçûìÿííûé_ãðàäèåíò_55" data-name="Áåçûìÿííûé ãðàäèåíò 55" x1="919.89" y1="571.72" x2="922.1" y2="902.74" gradientUnits="userSpaceOnUse">
      <stop offset="0.03" stop-color="#e8e897"/>
      <stop offset="0.58" stop-color="#e3d77f"/>
      <stop offset="0.99" stop-color="#e8ca73"/>
    </linearGradient>
    <linearGradient id="Áåçûìÿííûé_ãðàäèåíò_6-2" x1="11647.82" y1="541.81" x2="12357.57" y2="541.81" gradientTransform="matrix(-1, 0, 0, 1, 12341.64, 0)" xlink:href="#Áåçûìÿííûé_ãðàäèåíò_6"/>
    <linearGradient id="Áåçûìÿííûé_ãðàäèåíò_6-3" x1="964.93" y1="474.99" x2="965.32" y2="551.38" xlink:href="#Áåçûìÿííûé_ãðàäèåíò_6"/>
    <linearGradient id="Áåçûìÿííûé_ãðàäèåíò_21" data-name="Áåçûìÿííûé ãðàäèåíò 21" x1="-15.94" y1="191.13" x2="1942.36" y2="191.13" gradientUnits="userSpaceOnUse">
      <stop offset="0" stop-color="#5e391a"/>
      <stop offset="0.17" stop-color="#6c441e"/>
      <stop offset="0.53" stop-color="#80512f"/>
      <stop offset="0.83" stop-color="#724722"/>
      <stop offset="1" stop-color="#5c3818"/>
    </linearGradient>
    <linearGradient id="Áåçûìÿííûé_ãðàäèåíò_6-4" x1="963.11" y1="227.55" x2="963.67" y2="337.41" xlink:href="#Áåçûìÿííûé_ãðàäèåíò_6"/>
    <clipPath id="clip-path-2">
      <polygon class="cls-2" points="705.95 161.6 710.15 382.28 1218.53 380.02 1216.31 162.71 966.76 80.42 705.95 161.6"/>
    </clipPath>
    <clipPath id="clip-path-3">
      <rect class="cls-3" x="694.14" y="395.28" width="536.15" height="198.11"/>
    </clipPath>
    <linearGradient id="Áåçûìÿííûé_ãðàäèåíò_42-3" x1="970.13" y1="591.88" x2="970.19" y2="577.03" xlink:href="#Áåçûìÿííûé_ãðàäèåíò_42"/>
    <linearGradient id="Áåçûìÿííûé_ãðàäèåíò_56" data-name="Áåçûìÿííûé ãðàäèåíò 56" x1="954.67" y1="545.76" x2="961.88" y2="467.76" gradientUnits="userSpaceOnUse">
      <stop offset="0.62" stop-color="#b2c6e6"/>
      <stop offset="1" stop-color="#8ca7d6"/>
    </linearGradient>
    <linearGradient id="Áåçûìÿííûé_ãðàäèåíò_17" data-name="Áåçûìÿííûé ãðàäèåíò 17" x1="1036.83" y1="586.41" x2="870.55" y2="522.04" gradientUnits="userSpaceOnUse">
      <stop offset="0" stop-color="#eeb259"/>
      <stop offset="0.49" stop-color="#b4b569"/>
      <stop offset="0.99" stop-color="#72ba7e"/>
    </linearGradient>
    <linearGradient id="Áåçûìÿííûé_ãðàäèåíò_25" data-name="Áåçûìÿííûé ãðàäèåíò 25" x1="845.84" y1="549.05" x2="971.7" y2="576.28" gradientUnits="userSpaceOnUse">
      <stop offset="0"/>
      <stop offset="1" stop-color="#9bb871"/>
    </linearGradient>
    <linearGradient id="Áåçûìÿííûé_ãðàäèåíò_43" data-name="Áåçûìÿííûé ãðàäèåíò 43" x1="1331.13" y1="412.26" x2="1751.03" y2="235.51" gradientUnits="userSpaceOnUse">
      <stop offset="0" stop-color="#472815"/>
      <stop offset="1" stop-color="#573217"/>
    </linearGradient>
    <linearGradient id="Áåçûìÿííûé_ãðàäèåíò_42-4" x1="1218.43" y1="324.45" x2="1934.7" y2="324.45" xlink:href="#Áåçûìÿííûé_ãðàäèåíò_42"/>
    <linearGradient id="Áåçûìÿííûé_ãðàäèåíò_19" data-name="Áåçûìÿííûé ãðàäèåíò 19" x1="6152.92" y1="227.68" x2="6105.62" y2="312.15" gradientTransform="matrix(-1, 0, 0, 1, 7711.17, 0)" gradientUnits="userSpaceOnUse">
      <stop offset="0.01" stop-color="#a56c2b"/>
      <stop offset="0.97" stop-color="#945a25"/>
    </linearGradient>
    <linearGradient id="Áåçûìÿííûé_ãðàäèåíò_12" data-name="Áåçûìÿííûé ãðàäèåíò 12" x1="5775.95" y1="233.03" x2="6491.95" y2="233.03" gradientTransform="matrix(-1, 0, 0, 1, 7711.17, 0)" gradientUnits="userSpaceOnUse">
      <stop offset="0.01" stop-color="#d69d4c"/>
      <stop offset="1" stop-color="#eeb24b"/>
    </linearGradient>
    <linearGradient id="Áåçûìÿííûé_ãðàäèåíò_43-2" x1="723.13" y1="449.17" x2="47.32" y2="192.83" xlink:href="#Áåçûìÿííûé_ãðàäèåíò_43"/>
    <linearGradient id="Áåçûìÿííûé_ãðàäèåíò_42-5" x1="-21.04" y1="320.51" x2="704.08" y2="320.51" xlink:href="#Áåçûìÿííûé_ãðàäèåíò_42"/>
    <linearGradient id="Áåçûìÿííûé_ãðàäèåíò_19-2" x1="356.89" y1="223.12" x2="304.18" y2="317.26" gradientTransform="matrix(1, 0, 0, 1, 0, 0)" xlink:href="#Áåçûìÿííûé_ãðàäèåíò_19"/>
    <linearGradient id="Áåçûìÿííûé_ãðàäèåíò_12-2" x1="-39.68" y1="229.74" x2="703.29" y2="229.74" gradientTransform="matrix(1, 0, 0, 1, 0, 0)" xlink:href="#Áåçûìÿííûé_ãðàäèåíò_12"/>
    <clipPath id="clip-path-4">
      <path class="cls-4" d="M-18.49,562.23s394.9-6.84,530.73-8.79q-1.44,72.1-2.92,146.16c-141.8,16.53-525.77,52.59-525.77,52.59Z"/>
    </clipPath>
    <linearGradient id="Áåçûìÿííûé_ãðàäèåíò_43-3" x1="118.95" y1="229.32" x2="572.68" y2="353.07" xlink:href="#Áåçûìÿííûé_ãðàäèåíò_43"/>
    <clipPath id="clip-path-5">
      <polygon class="cls-1" points="295.8 626.66 403.05 600.8 391.32 757.54 280.31 809.41 295.8 626.66"/>
    </clipPath>
    <clipPath id="clip-path-6">
      <polygon class="cls-1" points="-88.44 705.4 72.25 670.15 43.21 913.61 -127.25 990.52 -88.44 705.4"/>
    </clipPath>
  </defs>
  <g class="cls-5">
    <g>
      <polygon class="cls-6" points="1928.06 196.62 1256.5 433.56 1252.67 626.03 1948.49 936.02 1928.06 196.62"/>
      <polygon class="cls-7" points="-13.38 560.19 1226.63 597.09 1855.31 905.49 -4.19 908.45 -13.38 560.19"/>
      <path class="cls-8" d="M1047.25,588.28l531.53,329.14,354.39,2.26,1-134.81c-201-58.72-507.2-140.18-702.07-197.13Z"/>
      <polygon class="cls-9" points="-15.94 163.43 689.99 402.1 693.82 594.57 -11.34 920.19 -15.94 163.43"/>
      <path class="cls-8" d="M876.51,587.19,334.62,917l-349,.09L-26.66,780.79C177,722.07,488.8,644.33,686.26,587.39Z"/>
      <path class="cls-10" d="M676.81,610.1l55.66,2.64L91.11,913.32l-28.7,1.16-93.67-6.54C174.27,818.08,480.8,695.79,676.81,610.1Z"/>
      <polygon class="cls-10" points="1236.61 607.04 1186.55 614.87 1829.73 915.03 1856.35 914.48 1882.87 906.4 1236.61 607.04"/>
      <rect class="cls-11" x="698.34" y="372.78" width="533.24" height="213.48"/>
      <path class="cls-12" d="M-12.87-10.45S783.65-5.83,1109.65-5.71c229.13.09,830.67,1.14,830.67,1.14l2,397.27L-15.94,377.89Z"/>
      <polygon class="cls-13" points="1229.91 359.16 1937.26 -4.32 1937.26 109.04 1220.35 407.44 1229.91 359.16"/>
      <g class="cls-14">
        <path class="cls-15" d="M323,248.51-143.6,64.26l6.12,5.57,459.32,179.9C322.23,249.32,322.62,248.92,323,248.51Z"/>
        <path class="cls-15" d="M346.73,248.51-177.16,33.74l7,6.41L345.46,249.73Z"/>
        <path class="cls-15" d="M371.85,248.51l-590-252.08L-209.89,4,370.46,249.73Z"/>
        <path class="cls-15" d="M400.73,248.51-174.09-9.58l-9.72,0,583,259.35Z"/>
        <path class="cls-15" d="M426.53,248.51-121.68-9.36l-9.71,0L424.87,249.73Z"/>
        <path class="cls-15" d="M457,248.51-59.78-9.1l-9.7,0,524.7,258.87Z"/>
        <path class="cls-15" d="M482.14,248.51-8.84-8.88l-9.69,0L480.22,249.73Z"/>
        <path class="cls-15" d="M511,248.51,49.66-8.64,40-8.68,509,249.73Z"/>
        <path class="cls-15" d="M536.82,248.51,101.88-8.42l-9.67,0L534.63,249.73Z"/>
        <path class="cls-15" d="M563.18,248.51,155.14-8.23l-9.64,0,415.37,258Z"/>
        <path class="cls-15" d="M593.26,250.19,210.82-8.06l-9.65,0L590.83,251.39Z"/>
        <path class="cls-15" d="M616.84,250.19,258.67-7.91l-9.65,0L614.29,251.39Z"/>
        <path class="cls-15" d="M641.79,250.19,309.29-7.75l-9.64,0L639.12,251.39Z"/>
        <path class="cls-15" d="M670.48,250.19,367.44-7.57l-9.63,0,309.86,259Z"/>
        <path class="cls-15" d="M696.1,250.19,419.35-7.4l-9.62,0L693.18,251.39Z"/>
        <path class="cls-15" d="M726.4,250.19,480.67-7.22l-9.6,0L723.33,251.39Z"/>
        <path class="cls-15" d="M751.35,250.19,531.11-7.12l-9.6,0L748.16,251.39Z"/>
        <path class="cls-15" d="M780,250.19,589.06-7l-9.6,0L776.71,251.39Z"/>
        <path class="cls-15" d="M805.67,250.19c-31-48.37-78.77-122.83-164.85-257.08l-9.6,0,171,258.3Z"/>
        <path class="cls-15" d="M831.85,250.19,693.68-6.78l-9.59,0L828.28,251.39Z"/>
        <path class="cls-15" d="M862.6,247.66,757.81-6.65l-9.57,0,110.6,255.56Z"/>
        <path class="cls-15" d="M886.4,247.66l-81-254.21-9.57,0,86.75,255.46Z"/>
        <path class="cls-15" d="M911.61,247.66l-56-254.15h-9.55l61.53,255.39Z"/>
        <path class="cls-15" d="M940.58,247.66c-5.15-48.17-13-122-27.14-254.09h-9.56l32.57,255.33Z"/>
        <path class="cls-15" d="M966.46,247.66c-.26-48.17-.67-122-1.39-254h-9.56l6.7,255.28Z"/>
        <path class="cls-15" d="M997.06,247.66c5.5-48.16,13.94-121.95,29-254h-9.55L992.66,248.89Z"/>
        <path class="cls-15" d="M1022.27,247.66,1076.33-6.26h-9.55l-49,255.16Z"/>
        <path class="cls-15" d="M1051.24,247.66,1134.08-6.21h-9.55l-78,255.1Z"/>
        <path class="cls-15" d="M1077.12,247.66,1185.67-6.18h-9.55L1072.34,248.89Z"/>
        <path class="cls-15" d="M1103.57,247.66,1238.4-6.19h-9.54l-130.2,255.08Z"/>
        <path class="cls-15" d="M1130.18,249.35,1293.62-6.21h-9.57L1125.17,250.56Z"/>
        <path class="cls-15" d="M1153.83,249.35,1341.09-6.22h-9.56L1148.71,250.56Z"/>
        <path class="cls-15" d="M1178.87,249.35,1391.35-6.23h-9.56L1173.63,250.56Z"/>
        <path class="cls-15" d="M1207.64,249.35,1449.13-6.25h-9.57L1202.27,250.56Z"/>
        <path class="cls-15" d="M1233.36,249.35,1500.75-6.26h-9.56L1227.86,250.56Z"/>
        <path class="cls-15" d="M1263.75,249.35l298-255.63h-9.57l-294.1,256.84Z"/>
        <path class="cls-15" d="M1288.79,249.35,1612.05-6.29h-9.57L1283,250.56Z"/>
        <path class="cls-15" d="M1317.57,249.35,1669.88-6.34l-9.59,0L1311.67,250.56Z"/>
        <path class="cls-15" d="M1343.28,249.35,1721.63-6.43l-9.59,0-374.78,257Z"/>
        <path class="cls-15" d="M1369.56,249.35l405-255.87-9.59,0L1363.41,250.56Z"/>
        <path class="cls-15" d="M1401.65,250.19,1842.08-6.64l-9.61,0-437.1,258Z"/>
        <path class="cls-15" d="M1425.23,250.19,1889.73-6.72l-9.61,0L1418.83,251.39Z"/>
        <path class="cls-15" d="M1450.18,250.19l490-257-9.61,0L1443.67,251.39Z"/>
        <path class="cls-15" d="M1478.87,250.19,1998.23-6.91l-9.61,0-516.4,258.28Z"/>
        <path class="cls-15" d="M1504.49,250.19,2050.1-7l-9.62,0L1497.72,251.39Z"/>
        <path class="cls-15" d="M1534.79,250.19,2111.44-7.11l-9.63,0L1527.87,251.39Z"/>
        <path class="cls-15" d="M1559.74,250.19,2118,11.62l8.28-7.54L1552.71,251.39Z"/>
        <path class="cls-15" d="M1588.43,250.19,2072.74,52.77l6.87-6.25L1581.26,251.39Z"/>
        <path class="cls-15" d="M1614.06,250.19,2038.29,84.12l5.89-5.36L1606.76,251.39Z"/>
        <path class="cls-15" d="M1640.24,250.19l367.48-138.25,5.08-4.62-380,144.07Z"/>
      </g>
      <path class="cls-16" d="M954,78.67,710.81,169l-3.12,216.73,512.45,2.43-14.55-217.54Z"/>
      <polygon class="cls-13" points="698.09 352.35 -12.11 -11.98 -12.87 97.55 707.65 400.62 698.09 352.35"/>
      <g class="cls-17">
        <polygon class="cls-2" points="705.95 161.6 710.15 382.28 1218.53 380.02 1216.31 162.71 966.76 80.42 705.95 161.6"/>
        <g class="cls-18">
          <g>
            <g>
              <path class="cls-15" d="M686.24,77.58,687,393.81l1.74-1.65q-.19-158.33-.4-316.26Z"/>
              <path class="cls-15" d="M696,77.58l.79,316.23,1.75-1.65q-.21-158.33-.41-316.26Z"/>
              <path class="cls-15" d="M706.26,77.58,707,393.81l1.75-1.65q-.21-158.33-.41-316.26Z"/>
              <path class="cls-15" d="M718.09,77.58l.78,316.23,1.75-1.65q-.21-158.33-.41-316.26Z"/>
              <path class="cls-15" d="M728.66,77.58l.78,316.23,1.75-1.65Q731,233.84,730.78,75.9Z"/>
              <path class="cls-15" d="M741.15,77.58l.79,316.23,1.74-1.65q-.2-158.33-.4-316.26Z"/>
              <path class="cls-15" d="M751.44,77.58l.79,316.23,1.75-1.65q-.21-158.33-.41-316.26Z"/>
              <path class="cls-15" d="M763.27,77.58l.79,316.23,1.75-1.65q-.21-158.33-.41-316.26Z"/>
              <path class="cls-15" d="M773.84,77.58l.79,316.23,1.75-1.65Q776.17,233.84,776,75.9Z"/>
              <path class="cls-15" d="M784.64,77.58l.79,316.23,1.75-1.65Q787,233.84,786.77,75.9Z"/>
            </g>
            <g>
              <path class="cls-15" d="M796,79.86l.79,316.24,1.75-1.65q-.21-158.33-.41-316.26Z"/>
              <path class="cls-15" d="M805.67,79.86l.79,316.24,1.75-1.65Q808,236.12,807.8,78.19Z"/>
              <path class="cls-15" d="M816,79.86l.78,316.24,1.75-1.65q-.21-158.33-.41-316.26Z"/>
              <path class="cls-15" d="M827.8,79.86l.78,316.24,1.75-1.65q-.21-158.33-.41-316.26Z"/>
              <path class="cls-15" d="M838.37,79.86l.78,316.24,1.75-1.65q-.21-158.33-.41-316.26Z"/>
              <path class="cls-15" d="M850.86,79.86l.79,316.24,1.74-1.65q-.2-158.33-.4-316.26Z"/>
              <path class="cls-15" d="M861.15,79.86l.79,316.24,1.75-1.65q-.21-158.33-.41-316.26Z"/>
              <path class="cls-15" d="M873,79.86l.79,316.24,1.75-1.65q-.21-158.33-.41-316.26Z"/>
              <path class="cls-15" d="M883.55,79.86l.79,316.24,1.75-1.65q-.21-158.33-.41-316.26Z"/>
              <path class="cls-15" d="M894.35,79.86l.79,316.24,1.75-1.65q-.21-158.33-.41-316.26Z"/>
            </g>
            <g>
              <path class="cls-15" d="M907.46,76.43l.79,316.24L910,391q-.19-158.34-.41-316.26Z"/>
              <path class="cls-15" d="M917.18,76.43,918,392.67l1.74-1.65q-.19-158.34-.4-316.26Z"/>
              <path class="cls-15" d="M927.47,76.43l.79,316.24L930,391q-.21-158.34-.41-316.26Z"/>
              <path class="cls-15" d="M939.3,76.43l.79,316.24,1.75-1.65q-.21-158.34-.41-316.26Z"/>
              <path class="cls-15" d="M949.87,76.43l.79,316.24,1.75-1.65Q952.2,232.68,952,74.76Z"/>
              <path class="cls-15" d="M962.37,76.43l.78,316.24L964.9,391q-.2-158.34-.41-316.26Z"/>
              <path class="cls-15" d="M972.66,76.43l.79,316.24,1.74-1.65q-.2-158.34-.4-316.26Z"/>
              <path class="cls-15" d="M984.49,76.43l.79,316.24L987,391q-.19-158.34-.4-316.26Z"/>
              <path class="cls-15" d="M995.06,76.43l.79,316.24,1.74-1.65q-.2-158.34-.4-316.26Z"/>
              <path class="cls-15" d="M1005.86,76.43l.79,316.24,1.74-1.65q-.2-158.34-.4-316.26Z"/>
            </g>
            <g>
              <path class="cls-15" d="M1017.17,78.72,1018,395l1.74-1.66q-.19-158.33-.4-316.25Z"/>
              <path class="cls-15" d="M1026.89,78.72l.79,316.24,1.75-1.66Q1029.22,235,1029,77.05Z"/>
              <path class="cls-15" d="M1037.18,78.72,1038,395l1.75-1.66q-.21-158.33-.41-316.25Z"/>
              <path class="cls-15" d="M1049,78.72,1049.8,395l1.75-1.66q-.21-158.33-.41-316.25Z"/>
              <path class="cls-15" d="M1059.58,78.72l.79,316.24,1.75-1.66q-.21-158.33-.41-316.25Z"/>
              <path class="cls-15" d="M1072.08,78.72l.79,316.24,1.74-1.66q-.19-158.33-.41-316.25Z"/>
              <path class="cls-15" d="M1082.37,78.72l.79,316.24,1.74-1.66q-.2-158.33-.4-316.25Z"/>
              <path class="cls-15" d="M1094.2,78.72,1095,395l1.74-1.66q-.2-158.33-.4-316.25Z"/>
              <path class="cls-15" d="M1104.77,78.72l.79,316.24,1.74-1.66q-.19-158.33-.4-316.25Z"/>
              <path class="cls-15" d="M1115.57,78.72l.79,316.24,1.74-1.66q-.19-158.33-.4-316.25Z"/>
            </g>
            <g>
              <path class="cls-15" d="M1129.36,79.86l.79,316.24,1.74-1.65q-.2-158.33-.41-316.26Z"/>
              <path class="cls-15" d="M1139.08,79.86l.79,316.24,1.74-1.65q-.19-158.33-.4-316.26Z"/>
              <path class="cls-15" d="M1149.37,79.86l.79,316.24,1.75-1.65q-.21-158.33-.41-316.26Z"/>
              <path class="cls-15" d="M1161.2,79.86,1162,396.1l1.75-1.65q-.21-158.33-.41-316.26Z"/>
              <path class="cls-15" d="M1171.77,79.86l.79,316.24,1.75-1.65q-.21-158.33-.41-316.26Z"/>
              <path class="cls-15" d="M1184.27,79.86l.78,316.24,1.75-1.65q-.21-158.33-.41-316.26Z"/>
              <path class="cls-15" d="M1194.56,79.86l.79,316.24,1.74-1.65q-.19-158.33-.4-316.26Z"/>
              <path class="cls-15" d="M1206.39,79.86l.79,316.24,1.74-1.65q-.2-158.33-.4-316.26Z"/>
              <path class="cls-15" d="M1217,79.86l.79,316.24,1.74-1.65q-.2-158.33-.41-316.26Z"/>
              <path class="cls-15" d="M1227.76,79.86l.79,316.24,1.74-1.65q-.19-158.33-.4-316.26Z"/>
            </g>
          </g>
        </g>
      </g>
      <g>
        <path class="cls-19" d="M698.55,168.57,546.27,320.26l49.27.2L725.37,183.75Z"/>
        <path class="cls-20" d="M694.14,162.61,541.86,314.3l49.27.21L721,177.8Z"/>
      </g>
      <g>
        <path class="cls-19" d="M1227.66,168.93l158.26,157.65-51.21.21L1199.79,184.71Z"/>
        <path class="cls-20" d="M1232.24,162.74,1390.5,320.39l-51.21.21L1204.37,178.52Z"/>
      </g>
      <path class="cls-20" d="M945.77,88.24q-6.53-47-13.06-94.08l61.36.22q-5.48,47.57-10.94,95.13Z"/>
      <path class="cls-13" d="M962.44,105.37l222.11,87.49,2.15,124.89h21.87l-2.62-149-252-90L711.55,179.82V318.55l31,.4q-.54-63.69-1.09-127.37Z"/>
      <g>
        <path class="cls-19" d="M694.14,173.12,962.22,71.5V95.13L723.47,190.32Z"/>
        <path class="cls-19" d="M1230.29,173.12,962.22,71.5V95.13L1201,190.32Z"/>
      </g>
      <path class="cls-19" d="M1191.25,162.06l1,232.23h27.15l1.29-231.56Z"/>
      <path class="cls-19" d="M704.23,162.56l1,232.23h27.14Q733,279,733.63,163.23Z"/>
      <g class="cls-21">
        <rect class="cls-3" x="694.14" y="395.28" width="536.15" height="198.11"/>
        <g class="cls-22">
          <g>
            <g>
              <path class="cls-15" d="M686.24,388.8l.79,205,1.74-1.08q-.19-102.6-.4-205Z"/>
              <path class="cls-15" d="M696,388.8l.79,205,1.75-1.08q-.21-102.6-.41-205Z"/>
              <path class="cls-15" d="M706.26,388.8l.78,205,1.75-1.08q-.21-102.6-.41-205Z"/>
              <path class="cls-15" d="M718.09,388.8l.78,205,1.75-1.08q-.21-102.6-.41-205Z"/>
              <path class="cls-15" d="M728.66,388.8l.78,205,1.75-1.08q-.21-102.6-.41-205Z"/>
              <path class="cls-15" d="M741.15,388.8l.79,205,1.74-1.08q-.2-102.6-.4-205Z"/>
              <path class="cls-15" d="M751.44,388.8l.79,205,1.75-1.08q-.21-102.6-.41-205Z"/>
              <path class="cls-15" d="M763.27,388.8l.79,205,1.75-1.08q-.21-102.6-.41-205Z"/>
              <path class="cls-15" d="M773.84,388.8l.79,205,1.75-1.08q-.21-102.6-.41-205Z"/>
              <path class="cls-15" d="M784.64,388.8l.79,205,1.75-1.08q-.21-102.6-.41-205Z"/>
            </g>
            <g>
              <path class="cls-15" d="M796,390.28l.79,205c.58-.36,1.16-.72,1.75-1.07q-.21-102.61-.41-205Z"/>
              <path class="cls-15" d="M805.67,390.28l.79,205,1.75-1.07q-.21-102.61-.41-205Z"/>
              <path class="cls-15" d="M816,390.28l.78,205,1.75-1.07q-.21-102.61-.41-205Z"/>
              <path class="cls-15" d="M827.8,390.28l.78,205,1.75-1.07q-.21-102.61-.41-205Z"/>
              <path class="cls-15" d="M838.37,390.28l.78,205,1.75-1.07q-.21-102.61-.41-205Z"/>
              <path class="cls-15" d="M850.86,390.28l.79,205,1.74-1.07q-.2-102.61-.4-205Z"/>
              <path class="cls-15" d="M861.15,390.28l.79,205,1.75-1.07q-.21-102.61-.41-205Z"/>
              <path class="cls-15" d="M873,390.28l.79,205,1.75-1.07q-.21-102.61-.41-205Z"/>
              <path class="cls-15" d="M883.55,390.28l.79,205,1.75-1.07q-.21-102.61-.41-205Z"/>
              <path class="cls-15" d="M894.35,390.28l.79,205,1.75-1.07q-.21-102.61-.41-205Z"/>
            </g>
            <g>
              <path class="cls-15" d="M907.46,388.06l.79,205,1.74-1.08q-.19-102.6-.41-205Z"/>
              <path class="cls-15" d="M917.18,388.06,918,593l1.74-1.08q-.19-102.6-.4-205Z"/>
              <path class="cls-15" d="M927.47,388.06l.79,205,1.75-1.08q-.21-102.6-.41-205Z"/>
              <path class="cls-15" d="M939.3,388.06l.79,205,1.75-1.08q-.21-102.6-.41-205Z"/>
              <path class="cls-15" d="M949.87,388.06l.79,205,1.75-1.08q-.21-102.6-.41-205Z"/>
              <path class="cls-15" d="M962.37,388.06l.78,205,1.75-1.08q-.2-102.6-.41-205Z"/>
              <path class="cls-15" d="M972.66,388.06l.79,205,1.74-1.08q-.2-102.6-.4-205Z"/>
              <path class="cls-15" d="M984.49,388.06l.79,205,1.74-1.08q-.19-102.6-.4-205Z"/>
              <path class="cls-15" d="M995.06,388.06l.79,205,1.74-1.08q-.2-102.6-.4-205Z"/>
              <path class="cls-15" d="M1005.86,388.06l.79,205,1.74-1.08q-.2-102.6-.4-205Z"/>
            </g>
            <g>
              <path class="cls-15" d="M1017.17,389.54l.79,205,1.74-1.07q-.19-102.61-.4-205Z"/>
              <path class="cls-15" d="M1026.89,389.54l.79,205c.58-.36,1.16-.72,1.75-1.07q-.21-102.61-.41-205Z"/>
              <path class="cls-15" d="M1037.18,389.54l.79,205,1.75-1.07q-.21-102.61-.41-205Z"/>
              <path class="cls-15" d="M1049,389.54l.79,205,1.75-1.07q-.21-102.61-.41-205Z"/>
              <path class="cls-15" d="M1059.58,389.54l.79,205,1.75-1.07q-.21-102.61-.41-205Z"/>
              <path class="cls-15" d="M1072.08,389.54l.79,205,1.74-1.07q-.19-102.61-.41-205Z"/>
              <path class="cls-15" d="M1082.37,389.54l.79,205,1.74-1.07q-.2-102.61-.4-205Z"/>
              <path class="cls-15" d="M1094.2,389.54l.79,205,1.74-1.07q-.2-102.61-.4-205Z"/>
              <path class="cls-15" d="M1104.77,389.54l.79,205,1.74-1.07q-.19-102.61-.4-205Z"/>
              <path class="cls-15" d="M1115.57,389.54l.79,205,1.74-1.07q-.19-102.61-.4-205Z"/>
            </g>
            <g>
              <path class="cls-15" d="M1129.36,390.28l.79,205,1.74-1.07q-.2-102.61-.41-205Z"/>
              <path class="cls-15" d="M1139.08,390.28l.79,205,1.74-1.07q-.19-102.61-.4-205Z"/>
              <path class="cls-15" d="M1149.37,390.28l.79,205c.58-.36,1.16-.72,1.75-1.07q-.21-102.61-.41-205Z"/>
              <path class="cls-15" d="M1161.2,390.28l.79,205c.58-.36,1.16-.72,1.75-1.07q-.21-102.61-.41-205Z"/>
              <path class="cls-15" d="M1171.77,390.28l.79,205c.58-.36,1.16-.72,1.75-1.07q-.21-102.61-.41-205Z"/>
              <path class="cls-15" d="M1184.27,390.28l.78,205,1.75-1.07q-.21-102.61-.41-205Z"/>
              <path class="cls-15" d="M1194.56,390.28l.79,205,1.74-1.07q-.19-102.61-.4-205Z"/>
              <path class="cls-15" d="M1206.39,390.28l.79,205,1.74-1.07q-.2-102.61-.4-205Z"/>
              <path class="cls-15" d="M1217,390.28l.79,205,1.74-1.07q-.2-102.61-.41-205Z"/>
              <path class="cls-15" d="M1227.76,390.28l.79,205,1.74-1.07q-.19-102.61-.4-205Z"/>
            </g>
          </g>
        </g>
      </g>
      <rect class="cls-23" x="694.14" y="381.71" width="536.15" height="26.43"/>
      <g>
        <rect class="cls-24" x="694.14" y="329.27" width="536.15" height="66"/>
        <g class="cls-25">
          <path class="cls-15" d="M694.14,314.54l1,82.87,2.11-.43q-.24-41.49-.49-82.88Z"/>
          <path class="cls-15" d="M708.48,315l1,82.87,2.11-.43q-.24-41.49-.49-82.88Z"/>
          <path class="cls-15" d="M721.29,314.54l1,82.87,2.11-.43q-.24-41.49-.49-82.88Z"/>
          <path class="cls-15" d="M736.44,313.9l.95,82.88,2.12-.44q-.25-41.49-.5-82.87Z"/>
          <path class="cls-15" d="M748.91,313.44l1,82.87,2.12-.43q-.24-41.49-.49-82.88Z"/>
          <path class="cls-15" d="M763.25,313.9l1,82.88,2.12-.44q-.26-41.49-.49-82.87Z"/>
          <path class="cls-15" d="M776.06,313.44l1,82.87,2.12-.43q-.25-41.49-.49-82.88Z"/>
          <path class="cls-15" d="M789.15,313.44l1,82.87,2.12-.43q-.26-41.49-.49-82.88Z"/>
          <path class="cls-15" d="M801.28,313.59l1,82.88,2.12-.44q-.26-41.49-.5-82.88Z"/>
        </g>
        <g class="cls-25">
          <path class="cls-15" d="M817.09,312.61l1,82.88,2.11-.44q-.24-41.49-.49-82.88Z"/>
          <path class="cls-15" d="M831.43,313.08l1,82.87,2.11-.43q-.24-41.49-.49-82.88Z"/>
          <path class="cls-15" d="M844.24,312.61l1,82.88,2.11-.44q-.24-41.49-.49-82.88Z"/>
          <path class="cls-15" d="M859.39,312l1,82.87,2.12-.43q-.26-41.49-.5-82.88Z"/>
          <path class="cls-15" d="M871.86,311.51l.95,82.88,2.12-.44q-.25-41.49-.49-82.88Z"/>
          <path class="cls-15" d="M886.2,312l.95,82.87,2.12-.43q-.25-41.49-.5-82.88Z"/>
          <path class="cls-15" d="M899,311.51l1,82.88,2.12-.44q-.26-41.49-.49-82.88Z"/>
          <path class="cls-15" d="M912.1,311.51l.95,82.88,2.12-.44q-.25-41.49-.5-82.88Z"/>
          <path class="cls-15" d="M924.23,311.66l.95,82.88,2.12-.43q-.25-41.5-.5-82.88Z"/>
        </g>
        <g class="cls-25">
          <path class="cls-15" d="M938.08,312l.95,82.87,2.12-.43q-.25-41.49-.5-82.88Z"/>
          <path class="cls-15" d="M952.41,312.43l1,82.87,2.11-.43q-.24-41.49-.49-82.88Z"/>
          <path class="cls-15" d="M965.23,312l.95,82.87,2.12-.43q-.25-41.49-.5-82.88Z"/>
          <path class="cls-15" d="M980.37,311.33l1,82.87,2.12-.43q-.26-41.5-.49-82.88Z"/>
          <path class="cls-15" d="M992.84,310.86l1,82.87,2.11-.43q-.24-41.49-.49-82.88Z"/>
          <path class="cls-15" d="M1007.18,311.33l1,82.87,2.12-.43q-.24-41.5-.49-82.88Z"/>
          <path class="cls-15" d="M1020,310.86l1,82.87,2.11-.43q-.24-41.49-.49-82.88Z"/>
          <path class="cls-15" d="M1033.08,310.86l1,82.87,2.11-.43q-.24-41.49-.49-82.88Z"/>
          <path class="cls-15" d="M1045.21,311l1,82.88,2.12-.44q-.26-41.49-.49-82.88Z"/>
        </g>
        <g class="cls-25">
          <path class="cls-15" d="M1059.1,312l1,82.88,2.12-.44q-.24-41.49-.49-82.88Z"/>
          <path class="cls-15" d="M1073.44,312.45l1,82.87,2.12-.43q-.26-41.49-.49-82.88Z"/>
          <path class="cls-15" d="M1086.25,312l1,82.88,2.12-.44q-.24-41.49-.49-82.88Z"/>
          <path class="cls-15" d="M1101.39,311.35l1,82.87,2.11-.43q-.24-41.49-.49-82.88Z"/>
          <path class="cls-15" d="M1113.87,310.88l1,82.88,2.12-.44q-.26-41.49-.5-82.88Z"/>
          <path class="cls-15" d="M1128.21,311.35l1,82.87,2.12-.43q-.26-41.49-.5-82.88Z"/>
          <path class="cls-15" d="M1141,310.88l1,82.88,2.12-.44q-.25-41.49-.5-82.88Z"/>
          <path class="cls-15" d="M1154.11,310.88l1,82.88,2.12-.44q-.26-41.49-.5-82.88Z"/>
          <path class="cls-15" d="M1166.23,311l1,82.88,2.11-.43q-.24-41.5-.49-82.88Z"/>
          <path class="cls-15" d="M1180.74,311.59l1,82.87,2.12-.43q-.25-41.49-.5-82.88Z"/>
          <path class="cls-15" d="M1193.83,311.59l1,82.87,2.12-.43q-.26-41.49-.5-82.88Z"/>
          <path class="cls-15" d="M1206,311.74l1,82.88,2.11-.44q-.24-41.49-.49-82.88Z"/>
          <path class="cls-15" d="M1218.89,311.74l1,82.88,2.11-.44q-.24-41.49-.49-82.88Z"/>
        </g>
        <rect class="cls-13" x="694.14" y="374.36" width="536.15" height="18.29"/>
        <rect class="cls-13" x="694.14" y="313.61" width="536.15" height="18.29"/>
        <rect class="cls-20" x="694.14" y="310.98" width="536.15" height="18.29"/>
        <rect class="cls-20" x="694.14" y="376.99" width="536.15" height="18.29"/>
      </g>
      <path class="cls-20" d="M694.14,162.56l1,232.23h27.15q.64-115.79,1.3-231.56Z"/>
      <path class="cls-20" d="M1201.61,162.06l1,232.23h27.15q.66-115.79,1.3-231.56Z"/>
      <g>
        <path class="cls-20" d="M694.14,162.61,962.22,61V84.63L723.47,179.82Z"/>
        <path class="cls-20" d="M1230.29,162.61,962.22,61V84.63L1201,179.82Z"/>
      </g>
      <rect class="cls-26" x="682.75" y="579.77" width="574.81" height="13.8"/>
      <path class="cls-13" d="M744.07,593.36q.34-76.22.68-152.45l99.61,2v-14l234.82,4.81,1.1,11.65h97.09L1183,593.06l-11.31,6.24-7.21-1.22-410.77-.25Z"/>
      <g>
        <rect class="cls-27" x="849.47" y="443.46" width="215.43" height="150.26"/>
        <path class="cls-28" d="M869.11,540.16c-1.84-1-2.37-3-1.34-4.39s3.91-2.16,6.05-1.13c-1-2-.41-3.83.62-4.2s3.43.58,4.65,2.84c-1.36-2.91-.47-5.35.86-5.72s3.62.91,5.09,3.29c-.64-1.75-3.32-9.24-1.42-9.91,1.63-.58,5.91,4.16,7.52,6-.81-5.29-.12-6.25.42-6.38,1.25-.3,3.78,3.29,5.78,6.52.36-3.72,2.28-6.11,3.83-6.09,1.36,0,2.77,1.91,3.46,4.36a4,4,0,0,1,2.68-3.88,6.14,6.14,0,0,1,7.12,2.6c0-.15-.38-3.13,2-4.44s7-.59,9.57,2.66c-.34-2.15.36-4.23,2-5,2.35-1.1,7.16.15,9.56,4.14.39-2.17,2.46-3.9,5.08-4.28,3-.44,6.06.93,7.17,3.29a7.28,7.28,0,0,1,4.14-4.29c3.68-1.47,9-.3,12.36,3.25a5.48,5.48,0,0,1,3.17-3.36c3-1.13,7.57.16,10.18,3.65,0-2.08-.24-12.68,2.08-12.94s5.66,9.14,6.44,11.34c.49-5,1.66-13.79,4.05-13.92,2.63-.13,5.54,10.4,6.72,15.06.77-5.18,2.49-9.09,4.32-9.15s4.18,4,5.42,10c.76-3.83,2.34-6.84,4-6.9s4.11,3.34,5.19,8.48c.7-3.67,3.62-5.85,5.39-5.64s3.74,3,3,6.68a6.64,6.64,0,0,1,4.76-2.91,6.34,6.34,0,0,1,6.43,6.19,6.93,6.93,0,0,1,6.69-2.92,6.12,6.12,0,0,1,5.09,3.5c.9-4.47,3.94-7.53,6.3-7.48,2.54.06,5.79,3.78,5.5,9.31a5.42,5.42,0,0,1,4.81-2,3.88,3.88,0,0,1,2.31,5.85c1.27-1.44,4.56-4.92,6.83-4.39s3.06,5.14,2.08,11.48Z"/>
        <polygon class="cls-29" points="849.47 436.29 849.47 450.63 1069.54 450.63 1069.54 436.98 849.47 436.29"/>
        <g>
          <g>
            <path class="cls-30" d="M1121.66,547.93a250.64,250.64,0,0,0-70.76-15.57,262.28,262.28,0,0,0-65.43,3.37l12.18,42.11Z"/>
            <g>
              <path class="cls-31" d="M989.81,550.72l.73-.94c.64-.85,1.35-1.66,2-2.48l.52-.61.55-.6,1.08-1.18c.73-.77,1.48-1.52,2.21-2.26,1.51-1.46,3-2.85,4.53-4.1l1.11-.93,1.11-.89c.73-.58,1.46-1.12,2.16-1.64s1.39-1,2-1.47l1.54-1c-4.13.35-8,.78-11.68,1.25-.38.28-.77.55-1.17.83-1.77,1.23-3.55,2.6-5.36,4.06-.88.74-1.79,1.5-2.67,2.28l-1.23,1.11Z"/>
              <path class="cls-31" d="M999.12,575.9c.06-.33.13-.67.19-1l.24-1.06c.31-1.45.74-3,1.24-4.64.27-.82.52-1.66.85-2.51l.48-1.29.53-1.3c.34-.89.78-1.76,1.18-2.66.2-.45.44-.89.66-1.34.11-.22.22-.45.34-.67s.22-.45.35-.67l.71-1.3c.13-.23.23-.44.38-.67l.42-.7.86-1.41.05-.09s-.06.09,0,0v0l0-.05.11-.16.22-.33.44-.66c.29-.44.57-.88.88-1.32l.93-1.29c.61-.87,1.29-1.7,1.95-2.53l.49-.63c.18-.2.35-.4.52-.61l1-1.2c.7-.79,1.42-1.56,2.12-2.32,1.46-1.49,2.9-2.91,4.36-4.21l1.08-1,1.07-.9c.7-.61,1.42-1.16,2.09-1.7s1.36-1,2-1.52l1.85-1.33,1.65-1.13.15-.1c-3.33,0-6.56.09-9.69.22l-.26.17c-.78.52-1.61,1.06-2.43,1.65l-1.26.89-1.27.94c-1.72,1.28-3.44,2.7-5.19,4.2-.85.76-1.73,1.53-2.58,2.34l-1.27,1.23-.64.62c-.2.21-.41.42-.61.64-.82.85-1.66,1.71-2.43,2.61l-1.19,1.33-1.12,1.38-.57.69-.28.34-.14.17,0,0,0,0,0,.07-.07.09c-.34.44-.67.89-1,1.34l-.5.67c-.17.22-.34.48-.51.71-.34.49-.67,1-1,1.46l-.48.72-.46.72c-.3.48-.62,1-.9,1.43-.56,1-1.15,1.9-1.64,2.85l-.06.11q2.39,8.27,4.78,16.53l1.19-.28C998.92,577,999,576.48,999.12,575.9Z"/>
              <path class="cls-31" d="M1024.47,571.37c.07-.39.14-.79.23-1.2s.17-.88.26-1.33.21-.89.32-1.34c.2-.91.49-1.82.74-2.75.13-.47.29-.93.44-1.4l.23-.7c.07-.24.15-.47.23-.69l.51-1.37c.08-.23.15-.45.26-.7l.31-.74c.21-.49.41-1,.62-1.48l0-.09,0,0v0l0-.05.08-.17.17-.35.32-.7c.23-.46.44-.93.67-1.39l.72-1.38c.46-.92,1-1.81,1.52-2.7l.39-.67c.14-.22.28-.43.41-.65l.83-1.3c.57-.86,1.16-1.69,1.73-2.51,1.2-1.62,2.41-3.18,3.65-4.6.3-.36.61-.71.91-1.06l.92-1c.6-.66,1.22-1.28,1.8-1.88s1.17-1.16,1.72-1.7,1.11-1,1.61-1.5l1.46-1.29.61-.52q-3.9-.24-7.66-.37l-.59.46c-.64.54-1.35,1.08-2,1.68s-1.42,1.21-2.14,1.88l-1.11,1-1.1,1.07c-1.5,1.43-3,3-4.48,4.67-.72.84-1.46,1.69-2.18,2.57l-1.06,1.35-.53.67-.51.7c-.67.93-1.37,1.86-2,2.83l-1,1.44-.89,1.47-.45.74-.22.37-.11.19,0,0v0c0-.05,0,.08,0,.08l-.05.09-.78,1.43-.4.71c-.13.23-.25.51-.38.76-.26.52-.52,1-.77,1.55-.13.25-.25.51-.36.76l-.34.76c-.22.5-.46,1-.66,1.5-.4,1-.83,2-1.17,3-.18.5-.35,1-.53,1.47s-.31,1-.46,1.46c-.32,1-.56,1.91-.82,2.83s-.48,1.94-.68,2.87Z"/>
              <path class="cls-31" d="M1050.22,565.09c0-.24,0-.48.09-.71l.21-1.42c0-.24.07-.46.12-.72l.15-.77c.11-.51.21-1,.31-1.54l0-.09s0,.1,0,0v-.07l0-.19.09-.36.18-.73c.13-.48.24-1,.37-1.46s.29-1,.43-1.44c.27-1,.62-1.92.94-2.87.09-.23.17-.47.25-.7s.19-.47.28-.7c.18-.47.37-.93.55-1.39.38-.91.79-1.81,1.19-2.69.85-1.75,1.72-3.44,2.65-5l.68-1.16c.24-.37.48-.74.71-1.11.45-.73.93-1.42,1.38-2.09s.93-1.29,1.35-1.89.88-1.15,1.28-1.68l.55-.68c-2.14-.26-4.33-.51-6.55-.73l-.45.49c-.53.61-1.11,1.23-1.66,1.91s-1.16,1.38-1.73,2.12l-.89,1.14-.87,1.18c-1.19,1.61-2.33,3.35-3.46,5.17-.54.93-1.09,1.86-1.62,2.82l-.77,1.46-.39.74-.35.74c-.48,1-1,2-1.39,3-.21.51-.43,1-.65,1.54s-.38,1.05-.58,1.57l-.29.78-.14.4-.07.19,0,0v0c0-.05,0,.09,0,.08l0,.09-.48,1.52-.24.75c-.08.25-.15.53-.22.8-.15.54-.3,1.08-.44,1.62-.08.27-.14.54-.2.8l-.18.79c-.11.52-.25,1.05-.34,1.57s-.17.9-.26,1.35l10.47-2.52Z"/>
              <path class="cls-31" d="M1073.56,558c-.08-1-.06-2-.07-3v-.73l0-.73c0-.49,0-1,0-1.45.06-1,.15-1.91.24-2.84.22-1.87.48-3.67.84-5.37q.13-.65.27-1.26l.3-1.22c.18-.8.41-1.56.62-2.3s.45-1.43.65-2.1c.17-.5.34-1,.5-1.43q-2.9-.51-5.91-1c-.15.32-.31.64-.46,1-.3.69-.65,1.41-.95,2.18s-.65,1.57-.94,2.41c-.16.42-.31.84-.47,1.27s-.29.88-.44,1.33c-.59,1.79-1.1,3.71-1.57,5.7-.2,1-.42,2-.6,3.06l-.24,1.56-.12.79-.09.8c-.11,1.06-.25,2.14-.3,3.22l-.09,1.62c0,.55,0,1.09,0,1.63v.45l8.87-2.13v0C1073.61,559,1073.58,558.51,1073.56,558Z"/>
            </g>
            <path class="cls-32" d="M1047.47,538.12a255.25,255.25,0,0,1,67.33,11.47l6.86-1.66a250.64,250.64,0,0,0-70.76-15.57,262.28,262.28,0,0,0-65.43,3.37l2.07,7.16A261,261,0,0,1,1047.47,538.12Z"/>
          </g>
          <g>
            <path class="cls-33" d="M1047.29,564.75a213,213,0,0,0-56.93-27.83c-62-19.8-119.22-9-140.39-4l68.73,39.75Z"/>
            <path class="cls-32" d="M991.79,541.19A214.47,214.47,0,0,1,1042.73,565l4.56-.28a213,213,0,0,0-56.93-27.83c-62-19.8-119.22-9-140.39-4l5.73,3.31C879.61,531,933.63,522.61,991.79,541.19Z"/>
          </g>
          <g>
            <path class="cls-30" d="M965.79,565.91a227.89,227.89,0,0,0-64.64-27.36,259.09,259.09,0,0,0-64.77-8v43.17Z"/>
            <g>
              <path class="cls-31" d="M836.38,546l1-.79c.87-.72,1.79-1.39,2.7-2.07l.67-.51.7-.48,1.39-1c.93-.63,1.87-1.23,2.8-1.83,1.88-1.15,3.74-2.25,5.57-3.22l1.35-.71,1.33-.67c.87-.45,1.74-.84,2.57-1.24s1.64-.73,2.4-1.07l1.8-.76c-4.13-.37-8.06-.62-11.74-.78l-1.38.6c-2.08.9-4.2,1.93-6.38,3-1.07.57-2.16,1.15-3.25,1.76l-1.51.88Z"/>
              <path class="cls-31" d="M838.36,572.12c.16-.31.31-.63.48-1l.52-1c.72-1.36,1.57-2.8,2.52-4.32.5-.74,1-1.53,1.54-2.29l.83-1.18.89-1.18c.58-.81,1.25-1.58,1.9-2.39.32-.4.68-.79,1-1.19l.52-.6c.17-.2.35-.4.53-.59l1.07-1.15c.18-.2.34-.38.55-.59l.61-.61,1.23-1.22.08-.08,0,0,0,0,0,0,.16-.14.3-.28.62-.57c.41-.38.81-.76,1.23-1.13l1.28-1.1c.84-.75,1.73-1.44,2.61-2.14l.66-.52.67-.51c.46-.33.9-.66,1.35-1,.91-.65,1.82-1.27,2.72-1.89,1.84-1.21,3.65-2.35,5.44-3.36l1.32-.75,1.31-.7c.85-.47,1.7-.88,2.51-1.29s1.61-.78,2.36-1.14l2.17-1,1.94-.82.17-.07q-4.87-.84-9.51-1.46l-.3.12c-.92.38-1.87.76-2.84,1.19l-1.48.66-1.5.7c-2,.95-4.12,2-6.25,3.2-1.05.59-2.12,1.2-3.18,1.84l-1.58,1-.8.49-.78.52c-1,.69-2.1,1.38-3.1,2.13l-1.54,1.1c-.5.37-1,.76-1.48,1.14l-.75.58-.37.29-.18.14-.05,0,0,0-.08.06-.08.07-1.37,1.14-.68.56c-.22.18-.46.41-.7.61l-1.39,1.25c-.24.21-.46.42-.67.62l-.65.62c-.43.42-.87.82-1.28,1.24-.82.84-1.66,1.66-2.41,2.5l-.09.1v17l1.24-.08C837.85,573.19,838.09,572.66,838.36,572.12Z"/>
              <path class="cls-31" d="M864.37,572.06c.18-.38.36-.76.56-1.13s.42-.83.63-1.25l.69-1.26c.45-.86,1-1.69,1.5-2.56.26-.43.54-.85.82-1.28l.42-.65c.14-.22.28-.43.43-.63l.87-1.25c.15-.21.28-.41.46-.64l.51-.66,1-1.34.06-.08s-.07.08,0,0v0l0,0,.13-.16.26-.31.52-.62c.34-.42.68-.84,1-1.25s.72-.81,1.09-1.21c.71-.82,1.49-1.6,2.24-2.38l.57-.59.59-.56,1.18-1.13c.79-.73,1.6-1.44,2.39-2.14,1.63-1.38,3.24-2.69,4.85-3.87l1.19-.87,1.19-.83c.76-.54,1.54-1,2.28-1.53s1.48-.92,2.16-1.36l2-1.18,1.79-1,.74-.4c-2.49-.61-4.94-1.16-7.37-1.68l-.7.35c-.78.41-1.62.82-2.46,1.29s-1.73.93-2.62,1.46l-1.37.79-1.37.85c-1.87,1.14-3.76,2.42-5.69,3.78-.94.7-1.9,1.4-2.85,2.14L872.72,548l-.71.57-.69.59c-.92.79-1.86,1.58-2.74,2.41l-1.34,1.25c-.44.42-.86.85-1.29,1.28l-.65.64-.32.33-.16.16,0,0,0,0s-.07.07-.06.07l-.08.08-1.17,1.26-.58.63c-.2.2-.4.45-.6.67l-1.18,1.38c-.2.23-.39.45-.56.68l-.55.68c-.36.45-.73.9-1.07,1.35-.67.92-1.37,1.81-2,2.72l-.93,1.35c-.29.45-.58.89-.86,1.34-.59.88-1.09,1.76-1.6,2.62s-1,1.81-1.48,2.68Z"/>
              <path class="cls-31" d="M891.26,570.36a7,7,0,0,1,.29-.68l.6-1.34c.11-.23.19-.45.32-.69l.37-.72.73-1.45,0-.09s-.06.09,0,0v0l0,0,.1-.17.19-.34.38-.68c.26-.45.5-.91.77-1.36s.55-.89.83-1.34c.53-.89,1.14-1.76,1.72-2.62l.45-.65.46-.63.93-1.26c.63-.83,1.29-1.63,1.92-2.42,1.33-1.56,2.65-3.06,4-4.42l1-1,1-1c.65-.64,1.31-1.22,1.94-1.8s1.26-1.1,1.85-1.61,1.18-1,1.73-1.42l.72-.57q-3-.95-6.18-1.84l-.58.4c-.69.5-1.43,1-2.16,1.58s-1.52,1.14-2.29,1.77l-1.18,1L900,546c-1.61,1.36-3.21,2.87-4.83,4.45-.79.81-1.59,1.63-2.38,2.47l-1.16,1.29-.58.65-.56.67c-.74.9-1.51,1.79-2.21,2.73-.35.47-.71.93-1.07,1.4l-1,1.42-.5.72-.25.36-.13.18,0,0v0s0,.08,0,.07l-.06.09-.9,1.39-.44.69c-.15.23-.3.5-.45.75l-.88,1.5q-.22.38-.42.75l-.4.74c-.26.49-.54,1-.78,1.47s-.42.85-.62,1.27l10.92-.66Z"/>
              <path class="cls-31" d="M916,567.48c.2-1,.5-1.94.76-2.9l.21-.71c.08-.24.16-.48.23-.71.16-.47.31-.94.47-1.4.32-.93.68-1.84,1-2.74.74-1.78,1.5-3.5,2.34-5.09.2-.4.41-.8.61-1.18l.63-1.14c.41-.75.85-1.45,1.26-2.14s.84-1.32,1.23-1.94c.3-.45.6-.88.89-1.3-1.79-.67-3.62-1.32-5.49-2l-.72.87c-.49.62-1,1.27-1.55,2s-1.07,1.41-1.6,2.18c-.26.38-.54.77-.81,1.17l-.8,1.21c-1.09,1.65-2.12,3.43-3.14,5.3-.48.94-1,1.89-1.45,2.87-.22.5-.45,1-.68,1.49-.11.25-.22.5-.34.75l-.31.76c-.41,1-.84,2-1.19,3.09-.19.52-.37,1-.56,1.57s-.32,1-.49,1.58l-.13.44,9.25-.56h0C915.79,568.45,915.9,568,916,567.48Z"/>
            </g>
            <path class="cls-32" d="M896.18,543.58a234.89,234.89,0,0,1,62.45,22.77l7.16-.44a227.89,227.89,0,0,0-64.64-27.36,259.09,259.09,0,0,0-64.77-8v7.33A260.16,260.16,0,0,1,896.18,543.58Z"/>
          </g>
        </g>
        <path class="cls-34" d="M1064.9,593.72H849.47V559.48a1104.54,1104.54,0,0,1,126.38-5.11c32.13.55,61.93,2.45,89.05,5.11Z"/>
        <g>
          <path class="cls-35" d="M980.62,520.51c0,.84-.08,2.12-.12,3.68,0,.52,0,.91,0,1.23,0,0,0,.67,0,1.33,0,1.21,0,2.23-.06,3.13,0,.11,0,.24,0,.35-.16,1.44-.29,2.71-.39,3.78,0,.54-.1,1-.13,1.46l0,.3a.15.15,0,0,1,0,.07,2.46,2.46,0,0,1,0,.28v.08a1.64,1.64,0,0,0,0,.23v.07c0,.08,0,.16,0,.24v.06a1.94,1.94,0,0,1,0,.24v.1c0,.08,0,.16,0,.25v0l0,.25v.09c0,.08,0,.17,0,.25s0,.11,0,.16v.13c0,.08,0,.16,0,.25l0,.2a.76.76,0,0,1,0,.15v0c0,.8-.11,1.81-.2,3.22h0c0,.78-.1,1.69-.17,2.76-.23,3.61-.25,3.73-.4,6.11-.17,2.66-.28,4.65-.36,6,0,.68-.07,1.28-.09,1.76,0,.19,0,.38-.05.77a1.09,1.09,0,0,0,.08.54,1.35,1.35,0,0,0,.55.48,3.82,3.82,0,0,0,1.72.35,5.14,5.14,0,0,0,2.44-.36,2.37,2.37,0,0,0,.47-.32,1.37,1.37,0,0,0,.46-.92,9.5,9.5,0,0,0-.2-4c-.08-.2-.22-3.68-.52-10.64-.15-3.51-.22-6.24-.28-8.4-.08-2.65-.13-5-.17-7.12,0-2.57,0-3,0-3.36,0-.68,0-3.84-.06-7.34l-2.1.7C980.64,519.88,980.62,520.37,980.62,520.51Z"/>
          <path class="cls-35" d="M979.18,544.92c-.23,3.61-.25,3.73-.4,6.11-.17,2.66-.28,4.65-.36,6,0,.68-.07,1.28-.09,1.76,0,.19,0,.38-.05.77a1.09,1.09,0,0,0,.08.54,1.35,1.35,0,0,0,.55.48,3.82,3.82,0,0,0,1.72.35,5.14,5.14,0,0,0,2.44-.36,2.37,2.37,0,0,0,.47-.32,1.37,1.37,0,0,0,.46-.92,9.5,9.5,0,0,0-.2-4c-.08-.2-.22-3.68-.52-10.64,0-.63,0-1.23-.07-1.82h-3.9C979.27,543.49,979.23,544.16,979.18,544.92Z"/>
        </g>
        <path class="cls-35" d="M971.42,522.63a6.63,6.63,0,0,0,0,2.48c.92,4.94,7.16,7.62,8.37,8.12l1-1a16.82,16.82,0,0,1-3.76-1.81A12.82,12.82,0,0,1,971.42,522.63Z"/>
        <path class="cls-35" d="M963.32,522.59a5.88,5.88,0,0,0,.93,1.77c2.5,3.32,8,3.81,9,3.89l.34-1a14.56,14.56,0,0,1-3.35-.43A13.06,13.06,0,0,1,963.32,522.59Z"/>
        <path class="cls-35" d="M996.92,523.73a4,4,0,0,1-.61,1.18c-1.67,2.2-5.29,2.53-6,2.58l-.23-.63a9.75,9.75,0,0,0,2.23-.29A8.62,8.62,0,0,0,996.92,523.73Z"/>
        <path class="cls-35" d="M991.7,522.67a6.08,6.08,0,0,1-.58,4c-2.07,4-7.94,4.88-8.46,5l-.68-1.17a12.94,12.94,0,0,0,4.2-1.07A9.57,9.57,0,0,0,991.7,522.67Z"/>
        <path class="cls-36" d="M953.4,507.59a9.88,9.88,0,0,1,.56-12.37c3.13-3.79,8.74-5.9,14.5-5.47.59-.41,10.43-7.12,22.46-4.31a22.81,22.81,0,0,1,12.81,7.84c.5.29,7.29,4.28,6.86,11.07-.39,6.18-6.44,9.57-7.15,9.95-.36.86-3.31,7.52-12.5,10.23a27,27,0,0,1-18.36-1.35c-1.13.11-7.78.7-13.36-3A12.61,12.61,0,0,1,953.4,507.59Z"/>
        <path class="cls-37" d="M1011,506c.64-3.54-1.29-6.5-2.08-7.71a16.3,16.3,0,0,0-3.47-3.77c-.61,3.18,1.11,10.73.09,10.86-.38.06-.7-1-1.39-1-1.06,0-1.45,2.64-3.22,6.3-1.23,2.54-1.91,3.94-3.57,5.28-2.83,2.29-6.95,3.12-7.41,2.59s1.74-1.68,1.37-2.11c-.58-.72-6,2.81-13.37,2.94a22.83,22.83,0,0,1-10.42-2c-2.15-1.05-4.17-2.64-4.5-2.4s1.37,1.65,1,1.95-4.68-1.09-6.41-4a7.76,7.76,0,0,1-1-4.11c.1-1.71.79-2.44.2-3.52s-1.8-1.27-2.85-1.94a5.25,5.25,0,0,1-2.2-4.14,9.87,9.87,0,0,0,1.55,8.39,12.61,12.61,0,0,0,5.82,12.62c5.58,3.67,12.23,3.08,13.36,3a14.11,14.11,0,0,0,6.67,3.82c8.44,2,18.36-4,22.6-9.93a16.59,16.59,0,0,0,1.59-2.77C1004.36,513.87,1010.09,511.1,1011,506Z"/>
        <path class="cls-38" d="M972.56,490.6c-.25-.23,1.15-2.16,3.57-2.73s4.7.32,4.67.61-1.6,0-4,.55C974.06,489.68,972.78,490.79,972.56,490.6Z"/>
        <path class="cls-38" d="M956,498.72c-.42-.08-.73-1.83.41-3.06s3.77-1.6,4-1.32-.72.5-1.9,1.55C956.64,497.51,956.34,498.8,956,498.72Z"/>
        <path class="cls-38" d="M989.37,497.55c2.7.13,4.91,1.63,4.73,2s-2-.41-5.3-.39-5.18.75-5.32.48S986.12,497.39,989.37,497.55Z"/>
        <g>
          <path class="cls-38" d="M903.53,471.07c-.29-.3,1.31-2.91,4.07-3.69s5.36.44,5.31.83-1.82,0-4.55.75C905.24,469.83,903.78,471.33,903.53,471.07Z"/>
          <path class="cls-38" d="M922.69,480.46c3.07.18,5.58,2.21,5.38,2.67s-2.27-.54-6-.53-5.9,1-6,.66S919,480.25,922.69,480.46Z"/>
        </g>
        <g>
          <path class="cls-38" d="M846.74,478.15c-.19-.15.86-1.53,2.67-1.94s3.53.23,3.5.44-1.2,0-3,.39C847.86,477.5,846.9,478.29,846.74,478.15Z"/>
          <path class="cls-38" d="M834.3,483.93c-.31-.06-.54-1.3.31-2.18a3.64,3.64,0,0,1,3-.94c.09.13-.54.35-1.42,1.11C834.8,483.07,834.58,484,834.3,483.93Z"/>
        </g>
        <g>
          <path class="cls-37" d="M839.26,553.41c-.46-.43-1.7-1.33-5.69-1.19l-.89,0c1.1-1,1.82-2.14,1.6-3.31a4.11,4.11,0,0,0-3.34-2.93,4.75,4.75,0,0,0-2.47.31,2.71,2.71,0,0,0-.23-1.33,2.88,2.88,0,0,0-.6-.73,4.61,4.61,0,0,0-2.28-.95,3.81,3.81,0,0,0-3.22,1.69,3,3,0,0,0-.81-.93,2.86,2.86,0,0,0-1.79-.62,2.71,2.71,0,0,0-1.78.89c0-5-2.21-8-3.29-8.54a3.81,3.81,0,0,0-3.6,0c-1.52.81-1.36,2.92-1.27,3.93a11.7,11.7,0,0,0,.3,1.77,4.4,4.4,0,0,0-1.09-.38,3.23,3.23,0,0,0-1.95.16c-1.17.6-1.06,2.17-1,2.85a4.46,4.46,0,0,0,.78,2,2.58,2.58,0,0,0-.47.06,3.61,3.61,0,0,0-2.88,2.63,2.94,2.94,0,0,0,1,2.43l-.21,0c-3.16-.57-4.31,0-4.76.3a2.77,2.77,0,0,0-1.1,3.35,2.35,2.35,0,0,0,.48.71,1.79,1.79,0,0,0-.24.22,2.65,2.65,0,0,0,0,3.46c2.23,2.64,9.82,1.17,10.73,1a20.81,20.81,0,0,0,6.35-2.38q-.69-.36-1.47-.72c.43-.11.81-.23,1.15-.33-.3-.26-.62-.53-1-.8a23.65,23.65,0,0,0,3.22.39,19.71,19.71,0,0,0-1.76-3.65,22.45,22.45,0,0,0,.9-2.1,22.73,22.73,0,0,0,1.86,4.57c-.1.62-.16,1.14-.21,1.54l.66-.28-.11.29-.32.19.21.1-.21.6,1.26-.12a26.64,26.64,0,0,0,6.81,1.93c1.14.17,10.65,1.49,13.11-1.91A3.29,3.29,0,0,0,839.26,553.41Z"/>
          <path class="cls-36" d="M828.18,558.88c2.74-2,3-5.72,2.06-6-.27-.1-.74,0-1.58.75a7.36,7.36,0,0,0-.5-3c-.34-.87-.89-2.27-1.74-2.3s-1.49.91-1.94,2.18c-.55-2.54-2.55-3.94-3.8-3.74-1,.15-1.83,1.4-2,2.89-.94-1.81-2-3-2.63-2.89s-.75,1.6-.37,3.52c-2.25-2.17-4.72-3.06-5.62-2.56s-.62,2.31.63,4.32c-1.86-1.09-3.91-1-4.48-.41s-.08,2.22,1.92,3.3c-.17,0-2.66,0-3.12,1s1.37,2.18,2,2.62c5.16,3.52,13.4,2.31,16.57,1.84C826.24,559.94,827.33,559.49,828.18,558.88Z"/>
        </g>
        <path class="cls-39" d="M968.68,559a929,929,0,0,0-123.81,0q-10.9.74-21.49,1.7c65.67,15.38,116.64,25,142,28.43,12,1.6,30.8,3.48,42.34-5a22.48,22.48,0,0,0,4.88-4.85h0c2-1.59-3.53-6.57-5.32-8.21C999.67,564.15,972.94,559.68,968.68,559Z"/>
        <rect class="cls-1" x="849.47" y="443.46" width="215.43" height="150.26"/>
        <g>
          <rect class="cls-24" x="758.3" y="453.2" width="86.67" height="135.38"/>
          <g class="cls-25">
            <path class="cls-15" d="M762.56,449.1l.69,140.67,1.52-.74q-.18-70.42-.36-140.67Z"/>
            <path class="cls-15" d="M772.84,449.89l.69,140.67,1.52-.74q-.18-70.43-.36-140.67Z"/>
            <path class="cls-15" d="M782,449.1l.68,140.67,1.52-.74q-.18-70.42-.35-140.67Z"/>
            <path class="cls-15" d="M792.89,448l.68,140.67,1.52-.74q-.18-70.43-.36-140.67Z"/>
            <path class="cls-15" d="M801.83,447.23l.68,140.67,1.52-.74q-.18-70.42-.35-140.67Z"/>
            <path class="cls-15" d="M812.11,448l.69,140.67,1.51-.74q-.18-70.43-.35-140.67Z"/>
            <path class="cls-15" d="M821.3,447.23,822,587.9l1.52-.74q-.18-70.42-.36-140.67Z"/>
            <path class="cls-15" d="M830.68,447.23l.69,140.67,1.51-.74q-.17-70.42-.35-140.67Z"/>
            <path class="cls-15" d="M839.38,447.49l.68,140.67,1.52-.74q-.18-70.42-.36-140.67Z"/>
          </g>
          <g>
            <path class="cls-40" d="M771.83,457.86Q805,516,838.23,574.06v9l-11.75.07L762.11,465.31c-.21-2.77-.43-5.55-.65-8.32Z"/>
            <path class="cls-20" d="M773.51,457.23q33.19,58.11,66.4,116.2v9l-11.75.07L763.8,464.68l-.66-8.32Z"/>
          </g>
          <g>
            <path class="cls-40" d="M832.82,457.88q-33.5,58.61-67,117.21v9l11.85.07,64.93-118.79c.22-2.8.43-5.6.65-8.4Z"/>
            <path class="cls-20" d="M831.12,457.24l-67,117.21v9l11.86.08,64.92-118.79.66-8.4Z"/>
          </g>
          <polygon class="cls-40" points="752.2 454.7 752.2 592.06 764.4 592.06 764.4 454.92 752.2 454.7"/>
          <polygon class="cls-40" points="839.91 451.92 839.91 589.28 853.1 589.28 853.1 452.14 839.91 451.92"/>
          <polygon class="cls-20" points="749.96 456.14 749.96 593.5 763.14 593.5 763.14 456.36 749.96 456.14"/>
          <polygon class="cls-20" points="841.31 453.19 841.31 590.56 854.5 590.56 854.5 453.41 841.31 453.19"/>
          <path class="cls-40" d="M750,448.11c-1.4-.66,104.53-.88,104.53-.88v10.29L750,457.3Z"/>
          <path class="cls-40" d="M750,583.25c-1.4-.65,104.53-.87,104.53-.87v10.28L750,592.44Z"/>
          <path class="cls-20" d="M750,584.31c-1.4-.66,104.53-.87,104.53-.87v10.28L750,593.5Z"/>
          <path class="cls-20" d="M750,447c-1.4-.66,104.53-.88,104.53-.88v10.29L750,456.14Z"/>
        </g>
        <g>
          <rect class="cls-24" x="1073.24" y="454.47" width="86.67" height="135.38"/>
          <g class="cls-25">
            <path class="cls-15" d="M1077.5,450.38l.69,140.66,1.51-.73q-.17-70.42-.35-140.68Z"/>
            <path class="cls-15" d="M1087.78,451.17l.69,140.66,1.51-.73q-.17-70.43-.35-140.67Z"/>
            <path class="cls-15" d="M1097,450.38l.68,140.66,1.52-.73q-.18-70.42-.35-140.68Z"/>
            <path class="cls-15" d="M1107.83,449.3l.68,140.66,1.52-.73q-.18-70.43-.36-140.67Z"/>
            <path class="cls-15" d="M1116.77,448.51l.68,140.66,1.52-.73q-.18-70.43-.35-140.68Z"/>
            <path class="cls-15" d="M1127.05,449.3l.68,140.66,1.52-.73q-.18-70.43-.35-140.67Z"/>
            <path class="cls-15" d="M1136.24,448.51l.68,140.66,1.52-.73q-.18-70.43-.36-140.68Z"/>
            <path class="cls-15" d="M1145.62,448.51l.69,140.66,1.51-.73q-.18-70.43-.35-140.68Z"/>
            <path class="cls-15" d="M1154.32,448.77l.68,140.66,1.52-.73q-.18-70.43-.36-140.67Z"/>
          </g>
          <g>
            <path class="cls-40" d="M1086.77,459.14l66.4,116.2v8.94l-11.75.07-64.37-117.76c-.21-2.78-.43-5.55-.65-8.33Z"/>
            <path class="cls-20" d="M1088.45,458.51l66.4,116.2v8.94l-11.75.08L1078.73,466c-.21-2.77-.43-5.55-.65-8.32Z"/>
          </g>
          <g>
            <path class="cls-40" d="M1147.75,459.15l-67,117.21v9l11.85.07,64.92-118.79.66-8.4Z"/>
            <path class="cls-20" d="M1146.06,458.52l-67,117.21v9l11.86.07L1155.86,466l.66-8.39Z"/>
          </g>
          <polygon class="cls-40" points="1067.14 455.98 1067.14 593.34 1079.34 593.34 1079.34 456.2 1067.14 455.98"/>
          <polygon class="cls-40" points="1154.85 453.2 1154.85 590.56 1168.04 590.56 1168.04 453.42 1154.85 453.2"/>
          <polygon class="cls-20" points="1064.9 457.42 1064.9 594.78 1078.08 594.78 1078.08 457.64 1064.9 457.42"/>
          <polygon class="cls-20" points="1156.25 454.47 1156.25 591.83 1169.44 591.83 1169.44 454.69 1156.25 454.47"/>
          <path class="cls-40" d="M1064.91,449.38c-1.4-.65,104.53-.87,104.53-.87v10.28l-104.54-.22Z"/>
          <path class="cls-40" d="M1064.91,584.53c-1.4-.66,104.53-.88,104.53-.88v10.29l-104.54-.22Z"/>
          <path class="cls-20" d="M1064.91,585.59c-1.4-.66,104.53-.88,104.53-.88V595l-104.54-.22Z"/>
          <path class="cls-20" d="M1064.91,448.23c-1.4-.66,104.53-.88,104.53-.88v10.29l-104.54-.22Z"/>
        </g>
      </g>
      <g>
        <g>
          <path class="cls-19" d="M1330-6.15l194.21,117.67q37.9,45.81,75.82,91.63l44.44-6.82L1544.64,81.16,1390-7.65Z"/>
          <path class="cls-20" d="M1349.38-6.15q93,55.72,185.93,111.46L1615,203.83l48.9-7.5L1564,81.16,1409.39-7.65Z"/>
        </g>
        <g>
          <path class="cls-19" d="M597.36-6.5,403.15,109.14q-37.9,45-75.82,90l-44.44-6.7L382.74,79.3,537.35-8Z"/>
          <path class="cls-20" d="M578-6.5,392.07,103l-79.65,96.83-48.9-7.38Q313.46,135.9,363.37,79.3L518-8Z"/>
        </g>
        <path class="cls-13" d="M1330-6.24l189.67,110.9q45.64,48.63,91.28,97.25l-18.71,13.4L1509.5,112.92,1311-5.75Z"/>
        <path class="cls-13" d="M994.07-5.62l-8.67,75.4,244.89,92.83L1390.5,320.39l18.56-8.29c-52.23-47.48-116.58-115.2-174.74-163.36L1001.25,63q4.26-34.35,8.5-68.71Z"/>
        <path class="cls-13" d="M932.71-5.84,941.15,69l-247,93.63L545.54,311.09l-33.26.81L679.42,153.81l247.88-91L915.17-5.71Z"/>
        <path class="cls-13" d="M597.36-6.56,407.69,104.34l-85.48,97.5,25-2.89,75.15-88.15L620.67-6.28Z"/>
      </g>
      <path class="cls-41" d="M701.65,388.51l521.22,3.4q-.09,12.84-.19,25.73L701.78,415Z"/>
      <path class="cls-42" d="M699.81,388.51l519.44,2.75q-.18,10.35-.37,20.75l-518.76-2.15Z"/>
      <polygon class="cls-41" points="561.01 443.72 557.77 446.52 559.66 413.18 611.82 375.19 623.5 377.87 561.01 443.72"/>
      <path class="cls-43" d="M616.17,357.65l83.94,35.17L638,364.7Z"/>
      <path class="cls-43" d="M591.24,353.39,675,388.51l-62-28.08Z"/>
      <polygon class="cls-44" points="528.07 403.34 532.78 407.02 532.63 433.48 531.17 407.86 528.07 403.34"/>
      <path class="cls-45" d="M681.11,468.49q-2.31,78.88-4.71,160.13l-3.42,0Z"/>
      <g class="cls-46">
        <path class="cls-15" d="M1785.66,273.63l40.18,347.24-2.61-1.9q-21-179.46-40.54-347.09Z"/>
        <path class="cls-15" d="M1767.54,274.67,1806.82,622l-2.61-1.91q-20.49-179.5-39.63-347.19Z"/>
        <path class="cls-15" d="M1749.93,274.67,1788.32,622l-2.6-1.91q-20-179.5-38.76-347.19Z"/>
        <path class="cls-15" d="M1732.77,274.67,1770.31,622l-2.6-1.91q-19.59-179.5-37.89-347.19Z"/>
        <path class="cls-15" d="M1716,274.67,1752.65,622l-2.59-1.91q-19.15-179.5-37-347.19Z"/>
        <path class="cls-15" d="M1698.58,274.67,1734.4,622l-2.59-1.91q-18.7-179.5-36.18-347.19Z"/>
        <path class="cls-15" d="M1682.05,273.63l35,347.24-2.58-1.9q-18.29-179.46-35.36-347.09Z"/>
        <path class="cls-15" d="M1665.92,273.63l34.18,347.24-2.57-1.9L1663,271.88Z"/>
        <path class="cls-15" d="M1605,266.1l31.1,346.47-2.56-1.91q-16.27-179-31.47-346.3Z"/>
        <path class="cls-15" d="M1626.36,265.17l32.16,346.37-2.56-1.9q-16.82-179-32.52-346.22Z"/>
        <path class="cls-15" d="M1646.38,269.91l33.19,346.86-2.57-1.91q-17.36-179.25-33.55-346.7C1644.42,268.75,1645.4,269.33,1646.38,269.91Z"/>
        <path class="cls-15" d="M1587.52,268.42l30.24,346.7-2.55-1.91q-15.82-179.16-30.61-346.54Z"/>
        <path class="cls-15" d="M1570.56,268.42l29.38,346.7-2.54-1.91Q1582,434.05,1567.64,266.67Z"/>
        <path class="cls-15" d="M1552.48,264.36,1581,610.64l-2.54-1.9q-14.91-179-28.84-346.13Z"/>
        <path class="cls-15" d="M1533.61,265.88l27.53,346.45-2.53-1.9q-14.43-179-27.9-346.29Z"/>
        <path class="cls-15" d="M1515.84,260.74l26.62,345.91-2.53-1.9Q1526,426,1512.94,259Z"/>
        <path class="cls-15" d="M1498.45,260.74l25.76,345.91-2.53-1.9Q1508.18,426,1495.56,259Z"/>
        <path class="cls-15" d="M1482,260.74l24.94,345.91-2.52-1.9Q1491.32,426,1479.1,259Z"/>
        <path class="cls-15" d="M1466,260.74l24.14,345.91-2.52-1.9Q1474.94,426,1463.11,259Z"/>
        <path class="cls-15" d="M1449.13,258.88l23.29,345.73-2.52-1.9q-12.23-178.65-23.65-345.57Z"/>
        <path class="cls-15" d="M1430.53,260.74l22.37,345.91c-.84-.63-1.68-1.26-2.51-1.9Q1438.65,426,1427.66,259Z"/>
        <path class="cls-15" d="M1413.32,258.88l21.5,345.73-2.5-1.9Q1421,424.06,1410.45,257.14Z"/>
        <path class="cls-15" d="M1399.34,271.2l20.84,347-2.5-1.9q-11-179.32-21.21-346.84Z"/>
        <path class="cls-15" d="M1385,266.05l20.11,346.46-2.5-1.91q-10.59-179-20.48-346.3Z"/>
        <path class="cls-15" d="M1371,266.05l19.41,346.46-2.5-1.91q-10.22-179-19.77-346.3Z"/>
        <path class="cls-15" d="M1357.92,266.05l18.93,346.46-2.11-1.91q-9.95-179-19.23-346.3Z"/>
        <path class="cls-15" d="M1347.34,266.05l18.4,346.46-2.1-1.91q-9.67-179-18.71-346.3Z"/>
        <path class="cls-15" d="M1336.05,264.19l17.82,346.27-2.09-1.9q-9.37-178.95-18.14-346.11Z"/>
        <path class="cls-15" d="M1323.28,266.05l17.19,346.46-2.09-1.91q-9.06-179-17.51-346.3Z"/>
        <path class="cls-15" d="M1311.68,264.19l16.61,346.27-2.09-1.9q-8.75-178.95-16.92-346.11Z"/>
        <path class="cls-15" d="M1298,261.66l15.92,346-2.09-1.9q-8.38-178.81-16.23-345.86Z"/>
        <path class="cls-15" d="M1286.69,259.81,1302,605.63l-2.08-1.9q-8.1-178.71-15.66-345.66Z"/>
        <path class="cls-15" d="M1273.92,261.66l14.14,342.82-2.08-1.9c-5.18-119.21-9.61-231.23-14.45-342.66Z"/>
        <path class="cls-15" d="M1262.34,259.81,1276.05,601l-2.07-1.9c-5-119.14-9.37-229.63-14-341Z"/>
        <path class="cls-15" d="M1250.61,259.81l13.54,337.81-2.07-1.9c-4.77-119.14-9.39-226.28-13.86-337.65Z"/>
      </g>
      <path class="cls-47" d="M1940.32,296.7s-335.17,65-436.76,89.11c-89.76,21.32-173.27,44.35-250.3,67.92q-3.85-35.46-7.64-70.45l694.19-193.81Z"/>
      <path class="cls-48" d="M1933.68,120.53l-4.59,104.17L1220.72,453.56q-.53-29.43-1-58.52C1408.36,323.21,1933.68,120.53,1933.68,120.53Z"/>
      <path class="cls-49" d="M1925.34,219.43l-702.87,230.8-2.29-12.31C1410.76,372.56,1925,196.28,1925,196.28Z"/>
      <path class="cls-50" d="M1931.38,223.17,1220.72,453.56l-2.29-12.32c190.69-65.43,716.27-245.9,716.27-245.9Z"/>
      <g>
        <path class="cls-51" d="M1219.67,395q.15,18.63.28,37.38C1409.18,353,1928.4,136,1928.4,136l3.07-50.72S1407.28,312,1219.67,395Z"/>
        <path class="cls-52" d="M1924.74,134.06l-.51,4.6S1409.18,353,1220,432.42C1219.94,430.71,1924.74,134.06,1924.74,134.06Z"/>
      </g>
      <path class="cls-53" d="M1220.13,391q-.45,10.69-.91,21.43c188.71-79,715.31-297.16,715.31-297.16l.68-61.62S1407.09,302.93,1220.13,391Z"/>
      <polygon class="cls-41" points="1361.56 446.74 1364.8 449.55 1362.91 416.18 1310.72 378.16 1299.05 380.85 1361.56 446.74"/>
      <path class="cls-43" d="M1764.2,175.65l-104.47,43.83,77.21-35Z"/>
      <path class="cls-43" d="M1762.6,162l-79.37,33.23,58.64-26.57Z"/>
      <path class="cls-43" d="M1477.52,282.78l-82.19,34.42,60.81-27.52Z"/>
      <path class="cls-43" d="M1306.37,360.6l-84,35.2,62.18-28.14Z"/>
      <path class="cls-43" d="M1711.68,170.22,1632,203.54l58.9-26.63Z"/>
      <path class="cls-43" d="M1512.55,274.86l-81.93,34.34,60.6-27.45Z"/>
      <path class="cls-43" d="M1331.32,356.34l-83.8,35.15,62-28.1Z"/>
      <path class="cls-43" d="M1469,303.08l-82.48,34.62,61-27.68Z"/>
      <path class="cls-54" d="M1767.36,133.25l-136.5,64.29L1715,160.47l53-22.05Z"/>
      <polygon class="cls-44" points="1394.51 406.33 1389.8 410.02 1389.95 436.5 1391.41 410.85 1394.51 406.33"/>
      <path class="cls-45" d="M1241.4,471.54q2.32,79,4.72,160.27l3.42,0Q1245.42,550.46,1241.4,471.54Z"/>
      <polygon class="cls-55" points="1382.1 344.38 1385.65 313.04 1381.11 314.45 1382.1 344.38"/>
      <g class="cls-46">
        <path class="cls-15" d="M131.09,267.05,90.67,613.62l2.61-1.91q21.09-179.1,40.78-346.4Z"/>
        <path class="cls-15" d="M149.19,268.09,109.67,614.76l2.6-1.9q20.62-179.16,39.89-346.52Z"/>
        <path class="cls-15" d="M166.8,268.09,128.15,614.76l2.6-1.9q20.17-179.16,39-346.52Z"/>
        <path class="cls-15" d="M183.93,268.09,146.15,614.76l2.59-1.9,38.15-346.52Z"/>
        <path class="cls-15" d="M200.73,268.09,163.78,614.76l2.59-1.9,37.31-346.52Z"/>
        <path class="cls-15" d="M218.1,268.09,182,614.76l2.58-1.9L221,266.34Z"/>
        <path class="cls-15" d="M234.61,267.05,199.36,613.62l2.58-1.91q18.42-179.1,35.61-346.4Z"/>
        <path class="cls-15" d="M250.72,267.05,216.28,613.62l2.58-1.91q18-179.1,34.8-346.4Z"/>
        <path class="cls-15" d="M311.57,259.53,280.2,605.33l2.56-1.9q16.39-178.69,31.73-345.64Z"/>
        <path class="cls-15" d="M290.25,258.6,257.83,604.3l2.56-1.9q17-178.63,32.79-345.54Z"/>
        <path class="cls-15" d="M270.25,263.34,236.8,609.52l2.57-1.9q17.48-178.9,33.81-346Z"/>
        <path class="cls-15" d="M329.05,261.84l-30.5,346,2.55-1.9q16-178.82,30.87-345.87Z"/>
        <path class="cls-15" d="M346,261.84l-29.65,346,2.54-1.9q15.53-178.82,30-345.87Z"/>
        <path class="cls-15" d="M364.06,257.79,335.33,603.41l2.54-1.9q15-178.6,29.1-345.46Z"/>
        <path class="cls-15" d="M382.91,259.32l-27.8,345.77,2.54-1.9q14.57-178.68,28.16-345.61Z"/>
        <path class="cls-15" d="M400.67,254.18,373.78,599.43l2.53-1.9q14.08-178.41,27.26-345.09Z"/>
        <path class="cls-15" d="M418,254.18,392,599.43l2.52-1.9q13.65-178.41,26.39-345.09Z"/>
        <path class="cls-15" d="M434.49,254.18l-25.2,345.25,2.52-1.9Q425,419.12,437.38,252.44Z"/>
        <path class="cls-15" d="M450.47,254.18,426.06,599.43l2.52-1.9q12.81-178.41,24.77-345.09Z"/>
        <path class="cls-15" d="M467.32,252.33,443.76,597.39l2.51-1.9q12.38-178.3,23.93-344.9Z"/>
        <path class="cls-15" d="M485.9,254.18,463.25,599.43l2.51-1.9q11.89-178.41,23-345.09Z"/>
        <path class="cls-15" d="M503.09,252.33,481.32,597.39l2.5-1.9q11.44-178.3,22.14-344.9Z"/>
        <path class="cls-15" d="M517.05,264.63,495.93,610.94l2.5-1.9q11.11-179,21.49-346.16Z"/>
        <path class="cls-15" d="M531.34,259.48,511,605.27l2.5-1.9q10.72-178.69,20.76-345.63Z"/>
        <path class="cls-15" d="M545.35,259.48,525.66,605.27l2.49-1.9q10.36-178.69,20.06-345.63Z"/>
        <path class="cls-15" d="M558.44,259.48,539.22,605.27l2.11-1.9q10.09-178.69,19.52-345.63Z"/>
        <path class="cls-15" d="M569,259.48,550.32,605.27l2.1-1.9q9.81-178.69,19-345.63Z"/>
        <path class="cls-15" d="M580.29,257.63l-18.11,345.6c.69-.64,1.39-1.27,2.09-1.9q9.53-178.59,18.43-345.44Z"/>
        <path class="cls-15" d="M593.05,259.48,575.56,605.27l2.1-1.9q9.2-178.69,17.79-345.63Z"/>
        <path class="cls-15" d="M604.63,257.63l-16.9,345.6,2.09-1.9Q598.71,422.74,607,255.89Z"/>
        <path class="cls-15" d="M618.33,255.11,602.12,600.45l2.09-1.9q8.53-178.45,16.52-345.18C619.93,253.94,619.13,254.53,618.33,255.11Z"/>
        <path class="cls-15" d="M629.6,253.26,614,598.41l2.08-1.9q8.25-178.35,16-345Z"/>
        <path class="cls-15" d="M642.36,255.11l-15,345.34,2.08-1.9q7.92-178.45,15.32-345.18Z"/>
        <path class="cls-15" d="M653.93,253.26,639.5,598.41l2.07-1.9q7.62-178.35,14.74-345Z"/>
        <path class="cls-15" d="M665.66,253.26,651.81,598.41l2.07-1.9q7.32-178.35,14.16-345Z"/>
      </g>
      <path class="cls-47" d="M-12.36,290.57S311.36,354.93,412.83,379c89.66,21.27,173.07,44.26,250,67.78q3.88-35.39,7.7-70.31L-12.36,182.32Z"/>
      <path class="cls-56" d="M-5.21,125.13l-15.32,91.4,722.32,234q.53-29.38,1-58.46C514.22,320.29-5.21,125.13-5.21,125.13Z"/>
      <path class="cls-49" d="M137.71,264,700,447.2l2.29-12.3L141.15,242.52Q139.44,253.23,137.71,264Z"/>
      <path class="cls-57" d="M-20,217,701.79,450.52l2.29-12.3C513.47,372.85-21,190.49-21,190.49Z"/>
      <g>
        <path class="cls-58" d="M702.83,392.06q-.14,18.6-.27,37.35C513.41,350.07-49.13,124.62-49.13,124.62L-28.19,93S515.31,309.11,702.83,392.06Z"/>
        <path class="cls-52" d="M148.09,191.87l-.57,4.74,555,232.8C702.57,427.7,328.84,267.63,148.09,191.87Z"/>
      </g>
      <path class="cls-59" d="M702.38,388q.45,10.69.91,21.41c-188.63-78.89-743-308-743-308l26.81-51.32S515.49,300,702.38,388Z"/>
      <polygon class="cls-41" points="316.43 386.04 311.52 390.09 315.94 342.02 394.34 287.51 411.34 291.36 316.43 386.04"/>
      <path class="cls-60" d="M316.43,386,436,301.32l-24.61-10L320,350.84Q318.24,368.38,316.43,386Z"/>
      <polygon class="cls-54" points="314.85 377.89 277.38 810.78 272.58 813.02 314.85 377.89"/>
      <polygon class="cls-43" points="264.68 741.53 257.74 805.96 264.34 759.4 264.68 741.53"/>
      <path class="cls-43" d="M158.53,172.85,263,216.64l-77.18-35Z"/>
      <path class="cls-43" d="M160.13,159.21l79.34,33.2-58.61-26.54Z"/>
      <path class="cls-43" d="M445.09,279.89l82.16,34.39-60.78-27.49Z"/>
      <path class="cls-43" d="M211,167.43l79.68,33.28-58.88-26.6Z"/>
      <path class="cls-43" d="M410.08,272,492,306.29,431.4,278.86Z"/>
      <path class="cls-43" d="M453.59,300.17,536,334.76l-61-27.65Z"/>
      <path class="cls-54" d="M155.36,130.48,296.66,197l-89-39.31-52.93-22Z"/>
      <g>
        <g>
          <path class="cls-4" d="M-18.49,562.23s394.9-6.84,530.73-8.79q-1.44,72.1-2.92,146.16c-141.8,16.53-525.77,52.59-525.77,52.59Z"/>
          <g class="cls-61">
            <g>
              <path class="cls-62" d="M118.39,563.15,96.86,757.06l2.5-1q11.2-98.78,22-193.87Z"/>
              <path class="cls-62" d="M137,563.74l-21,194,2.5-1q10.94-98.79,21.47-193.91Z"/>
              <path class="cls-62" d="M155,563.74l-20.56,194,2.5-1q10.69-98.79,21-193.91Z"/>
              <path class="cls-62" d="M172.52,563.74l-20.08,194,2.49-1q10.45-98.79,20.52-193.91Z"/>
              <path class="cls-62" d="M189.71,563.74l-19.62,194,2.49-1q10.21-98.79,20.06-193.91Z"/>
              <path class="cls-62" d="M207.48,563.74l-19.14,194,2.49-1q10-98.79,19.58-193.91Z"/>
              <path class="cls-62" d="M224.33,563.15,205.64,757.06l2.49-1q9.74-98.78,19.13-193.87Z"/>
              <path class="cls-62" d="M240.82,563.15,222.57,757.06l2.49-1q9.51-98.78,18.68-193.87Z"/>
              <path class="cls-62" d="M309.67,558.85,293.28,752.52l2.48-1q8.57-98.65,16.83-193.63Z"/>
              <path class="cls-62" d="M327.68,560.17,311.76,753.92l2.48-1q8.33-98.7,16.35-193.71Z"/>
              <path class="cls-62" d="M345,560.17,329.58,753.92l2.47-1q8.1-98.7,15.89-193.71Z"/>
              <path class="cls-62" d="M363.35,557.85l-15,193.62,2.47-1q7.85-98.62,15.39-193.58Z"/>
              <path class="cls-62" d="M382.71,558.72,368.28,752.39l2.46-1q7.59-98.64,14.88-193.63Z"/>
              <path class="cls-62" d="M400.7,555.78,386.75,749.29l2.46-1q7.34-98.57,14.39-193.47Z"/>
              <path class="cls-62" d="M418.49,555.78,405,749.29l2.46-1q7.08-98.57,13.91-193.47Z"/>
              <path class="cls-62" d="M435.34,555.78l-13,193.51,2.46-1q6.86-98.57,13.46-193.47Z"/>
              <path class="cls-62" d="M451.71,555.78,439.13,749.29l2.45-1q6.63-98.57,13-193.47Z"/>
              <path class="cls-62" d="M468.9,554.72,456.78,748.17l2.45-1q6.4-98.53,12.56-193.41Z"/>
              <path class="cls-62" d="M488,555.78,476.38,749.29l2.45-1q6.14-98.57,12.05-193.47Z"/>
              <path class="cls-62" d="M505.55,554.72,494.41,748.17l2.45-1q5.89-98.53,11.57-193.41Z"/>
            </g>
          </g>
        </g>
        <polygon class="cls-47" points="-7.25 568.7 511.79 560.73 511.02 573.1 -7.94 585.38 -7.25 568.7"/>
        <polygon class="cls-63" points="-21.3 558.66 512.24 553.44 511.47 565.78 -18.23 578.57 -21.3 558.66"/>
      </g>
      <g>
        <polygon class="cls-64" points="703.21 411.69 695.61 620.08 676.4 628.62 683.03 403.34 703.21 411.69"/>
        <path class="cls-65" d="M683,403.34,668,414.9q-3.51,104.75-7.16,213.72H676.4Z"/>
        <path class="cls-64" d="M622.56,397.28l43.66,69.9h13.4q.28-8.62.58-17.21l-39.74-65.14-17-7Z"/>
        <path class="cls-43" d="M679.62,467.18,623.5,377.87q-.46,9.69-.94,19.41l43.66,69.9Z"/>
        <path class="cls-43" d="M701.79,450.52,758,410.67l12.64.13,1.62,5q-35.49,29.52-71.39,59.35Q701.34,462.83,701.79,450.52Z"/>
        <path class="cls-64" d="M753.49,411.09l17.17-.29-69.43,55.05q.28-7.68.56-15.33Z"/>
        <polygon class="cls-54" points="683.03 403.34 703.21 411.69 695.61 620.08 699.97 413.18 683.03 403.34"/>
        <path class="cls-45" d="M680.2,450l.91,18.52-14.87,6.58c0-2.63,0-5.26,0-7.89h13.4Z"/>
        <polygon class="cls-54" points="663.85 537.74 666.22 467.18 666.83 496.16 663.85 537.74"/>
        <polygon class="cls-54" points="683.11 414.27 676.4 628.62 681.54 626.31 684.72 457.49 683.11 414.27"/>
        <polygon class="cls-44" points="703.21 411.69 682.25 400.62 667.97 414.9 683.03 403.34 703.21 411.69"/>
        <path class="cls-54" d="M632.06,391.5l19.44,28.15,28.12,47.53Z"/>
        <polygon class="cls-54" points="640.46 384.83 680.2 449.97 646.88 398.6 640.46 384.83"/>
        <g>
          <path class="cls-64" d="M561,443.72l79.45-58.89-17-7L562.63,419.3Q561.82,431.48,561,443.72Z"/>
          <path class="cls-54" d="M632.06,391.5l-71,52.22,16.45-14.86Z"/>
        </g>
      </g>
      <path class="cls-55" d="M295.16,238.67l1329,4.42-29.14,13.15L337.27,255.18Z"/>
      <polygon class="cls-55" points="540.48 341.44 536.93 310.12 541.46 311.54 540.48 341.44"/>
      <path class="cls-55" d="M540.48,341.44l841.61,2.94-25,9L570.24,353Z"/>
      <path class="cls-66" d="M540.53,341.81q.47-15.18.93-30.27l839.65,2.91q.5,14.93,1,29.93Z"/>
      <path class="cls-44" d="M190,194.76l29.42,12.31,19.29,8.07c-24.49-10.06-32.28-10.23-34.72-8.36-2.8,2.14.43,7.69,2.34,10.17,3.81,5,9.45,7,17,10.14,5.92,2.49,14.39,6.26,24.45,11.58l-42.34-17.76Z"/>
      <path class="cls-44" d="M295.74,242.5l-22.06,7L295,238.67,331.86,254l49.37,20.73-56.7-19.89Z"/>
      <path class="cls-44" d="M539.53,340.76l44.15,18.64L567,351.22l-14.15-7.68Z"/>
      <polygon class="cls-44" points="539.53 340.76 514.31 350.45 519.71 352.71 539.53 340.76"/>
      <g>
        <g>
          <path class="cls-66" d="M564.82,351.3Q556,513,546.66,684.9L521,696.47q9.57-183.78,18.54-355.71Z"/>
          <path class="cls-55" d="M539.53,340.76l-18.95,10q-9.53,167.37-19.69,345.75H521Q530.56,512.69,539.53,340.76Z"/>
        </g>
        <g>
          <path class="cls-60" d="M438,317.51q38.24,57.35,77.3,116h17.31q-.72-12.84-1.46-25.62-33.43-48.69-66.28-96.48L439.4,301.13Z"/>
          <path class="cls-43" d="M532.63,433.48,439.4,301.13,438,317.51q38.24,57.35,77.3,116Z"/>
        </g>
        <g>
          <path class="cls-45" d="M547.93,402.55l-9.52,2.6-.71,35.32a4.94,4.94,0,0,1,2.22-4,8.11,8.11,0,0,1,3.46-1.1c5.27-.67,11.54-.84,14.06-.89Z"/>
          <g>
            <path class="cls-43" d="M540.77,407.66l95.51-60.27,25.57-.77,19,3.31-124.35,84.6-18.32-1.68Q539.47,420.22,540.77,407.66Z"/>
            <path class="cls-60" d="M626.39,346.61h35.46l-123.7,86.23q1.32-12.63,2.62-25.19Z"/>
          </g>
          <path class="cls-67" d="M664.28,347,542,433.2l-3.88-.35,123.7-86.23Z"/>
          <polygon class="cls-67" points="556.47 434.53 680.82 349.93 677.31 349.31 553.66 434.27 556.47 434.53"/>
          <polygon class="cls-67" points="547.4 433.48 602.8 395.17 549.23 433.48 547.4 433.48"/>
          <polygon class="cls-67" points="668.36 347.75 607.49 394.39 670.73 348.17 668.36 347.75"/>
          <polygon class="cls-54" points="538.15 432.85 661.86 346.62 630.97 366.68 538.25 431.17 538.15 432.85"/>
          <polygon class="cls-54" points="540.77 407.66 626.39 346.61 540.44 410.8 540.77 407.66"/>
          <polygon class="cls-43" points="543.88 416.1 601.02 377 548.17 415.16 543.88 416.1"/>
          <polygon class="cls-43" points="600.8 381.34 644.76 349.31 624.1 365.29 600.8 381.34"/>
          <polygon class="cls-68" points="591.41 375.7 627.33 350.45 600.45 370.99 591.41 375.7"/>
        </g>
        <path class="cls-44" d="M534.45,438.22,521,696.47l-3.36,2.06q2.76-64.56,6.92-129.43Q528.87,501.88,534.45,438.22Z"/>
        <path class="cls-54" d="M534.45,438.22,521,696.47l2.75-1.07Q529.23,563.75,534.45,438.22Z"/>
        <polygon class="cls-54" points="515.72 436.21 515.67 498.3 511.17 570.64 507.5 570.4 515.72 436.21"/>
        <polygon class="cls-44" points="532.63 433.48 515.71 443.72 515.32 433.48 532.63 433.48"/>
        <polygon class="cls-54" points="464.89 311.38 531.17 407.86 531.38 411.4 464.89 311.38"/>
        <polygon class="cls-43" points="496.78 375.19 528.49 416.1 504.01 382.63 496.78 375.19"/>
        <g>
          <polygon class="cls-54" points="560.78 434.53 546.66 684.9 541.34 687.3 560.78 434.53"/>
          <path class="cls-54" d="M539.53,340.76q10.47,5.58,21,11.17,1.07,19.83,2.13,39.82,1.11-20.31,2.2-40.45Z"/>
          <path class="cls-69" d="M518.62,387.5c.23,0,.79-8.79,3.54-20.73,1.55-6.76,3.41-14.83,5.6-14.88,1.86-.05,3.19,5.66,4.34,10.73a92,92,0,0,1,2.46,19.32c-.11,10.79.18,25.09.58,43.05q2.21-42.45,4.39-84.23l-19.82,11.95C518.51,380.89,518.42,387.5,518.62,387.5Z"/>
          <path class="cls-43" d="M544,350.91l-3.53,42.91q2.26-15,4.52-30Q544.49,357.37,544,350.91Z"/>
          <path class="cls-69" d="M526.71,359.22l-2.92,35.85q1.77-12.54,3.52-25Z"/>
          <path class="cls-43" d="M541.44,448.92l-7.68,113.25q3.76-39.95,7.47-79.31Q541.33,465.84,541.44,448.92Z"/>
          <path class="cls-69" d="M525.65,433.48l-7.91,112.75q3.84-39.78,7.62-79Q525.51,450.33,525.65,433.48Z"/>
          <path class="cls-43" d="M550,440.47l-7.13,113q3.14-39.86,6.23-79.12Q549.54,457.34,550,440.47Z"/>
          <path class="cls-43" d="M550.74,351.73,547,402.55q2.12-17.81,4.22-35.5Z"/>
          <polygon class="cls-43" points="543.32 574.54 538.9 636.09 543.64 591.61 543.32 574.54"/>
          <polygon class="cls-43" points="536.75 558.95 527.39 680.14 538.19 576.45 536.75 558.95"/>
          <polygon class="cls-54" points="439.4 301.13 532.63 433.48 532.4 429.4 441.66 302.04 439.4 301.13"/>
          <polygon class="cls-43" points="449.75 305.15 503 378.1 454.73 307.59 449.75 305.15"/>
          <polygon class="cls-45" points="448.45 322.83 514.06 419.65 474.58 365.29 448.45 322.83"/>
        </g>
      </g>
      <polygon class="cls-43" points="818.04 335.51 1139.38 335.51 897.82 332.52 818.04 335.51"/>
      <polygon class="cls-43" points="575.37 326.18 896.29 326.18 655.1 324.42 575.37 326.18"/>
      <polygon class="cls-43" points="1026.67 325.84 1347.57 325.84 1106.28 324.08 1026.67 325.84"/>
      <path class="cls-54" d="M541.46,311.54l839.65,2.91.15,4.62L573.5,314Z"/>
      <polygon class="cls-54" points="544.78 341.44 1382.1 344.38 981.93 340.64 544.78 341.44"/>
      <g>
        <polygon class="cls-64" points="1219.3 414.69 1226.9 623.26 1246.12 631.81 1239.49 406.33 1219.3 414.69"/>
        <path class="cls-65" d="M1239.49,406.33l15.06,11.57q3.51,104.85,7.17,213.91h-15.6Z"/>
        <path class="cls-64" d="M1300,400.27l-43.67,70H1242.9q-.3-8.61-.58-17.21l39.75-65.21,17-7Z"/>
        <path class="cls-43" d="M1242.9,470.22l56.15-89.38q.46,9.71.93,19.43l-43.67,70Z"/>
        <path class="cls-43" d="M1220.72,453.56l-56.26-39.89-12.64.13-1.62,5,71.42,59.39Q1221.17,465.86,1220.72,453.56Z"/>
        <path class="cls-64" d="M1169,414.09l-17.18-.29,69.46,55.09q-.29-7.68-.56-15.33Z"/>
        <polygon class="cls-54" points="1239.49 406.33 1219.3 414.69 1226.9 623.26 1222.54 416.18 1239.49 406.33"/>
        <path class="cls-45" d="M1242.32,453l-.92,18.53,14.88,6.59,0-7.91H1242.9Z"/>
        <polygon class="cls-54" points="1258.67 540.84 1256.31 470.22 1255.69 499.23 1258.67 540.84"/>
        <polygon class="cls-54" points="1239.41 417.27 1246.12 631.81 1240.97 629.5 1237.8 460.53 1239.41 417.27"/>
        <polygon class="cls-44" points="1219.3 414.69 1240.27 403.61 1254.55 417.9 1239.49 406.33 1219.3 414.69"/>
        <path class="cls-54" d="M1290.48,394.48q-9.69,14.06-19.45,28.18l-28.13,47.56Z"/>
        <polygon class="cls-54" points="1282.07 387.8 1242.32 453.01 1275.65 401.59 1282.07 387.8"/>
        <g>
          <path class="cls-64" d="M1361.56,446.74l-79.49-58.94,17-7,60.88,41.47Q1360.74,434.49,1361.56,446.74Z"/>
          <path class="cls-54" d="M1290.48,394.48l71.08,52.26-16.45-14.86Z"/>
        </g>
      </g>
      <g>
        <g>
          <path class="cls-60" d="M295.79,238.66q1.45-22.24,2.88-44.29L1623.53,201q1.52,21.12,3,42.4Z"/>
          <path class="cls-54" d="M295,238.67l12.83-40.94,1258.49,5.05,57.21-1.79-1325-6.62Z"/>
          <path class="cls-54" d="M295,238.67l1331.55,4.72L1555,236.54Z"/>
        </g>
        <polygon class="cls-43" points="343.43 213.17 673.37 213.51 552.05 215.67 343.43 213.17"/>
        <polygon class="cls-43" points="614.07 227.81 944.73 228.16 823.23 230.32 614.07 227.81"/>
        <polygon class="cls-43" points="1219.21 212.31 1549.16 212.66 1428.12 214.81 1219.21 212.31"/>
        <polygon class="cls-43" points="730.43 219.48 1046.45 219.48 808.94 216.45 730.43 219.48"/>
        <polygon class="cls-43" points="341.05 227.81 570.1 229.07 385.28 223.84 341.05 227.81"/>
        <polygon class="cls-43" points="1098.58 219.48 1339.2 219.48 1132.56 223.84 1098.58 219.48"/>
        <polygon class="cls-43" points="1369.5 230.32 1607.56 230.32 1481.43 226.45 1369.5 230.32"/>
      </g>
      <g>
        <g>
          <path class="cls-60" d="M281.67,658.84q1.79-18.48,3.6-36.79l213.39-48.71,25.65-1.78q-3.4,62.7-6.88,127l-250,116.82Q274.19,736.22,281.67,658.84Z"/>
          <g>
            <g>
              <path class="cls-55" d="M434.46,602.36l-8.85,131,1.73-.76q4.64-66.37,9.16-131Z"/>
              <path class="cls-54" d="M432.63,602.83q-4.14,64.73-8.38,131.14l1.36-.58q4.49-66.37,8.85-131Z"/>
            </g>
            <g>
              <path class="cls-55" d="M450,596.26l-8.48,130.12,1.7-.74q4.46-65.92,8.8-130.12Z"/>
              <path class="cls-54" d="M448.18,596.72q-4,64.28-8,130.23l1.35-.57q4.29-65.91,8.48-130.12Z"/>
            </g>
            <g>
              <path class="cls-55" d="M466.18,593.81l-8.12,129.34,1.69-.74q4.26-65.5,8.43-129.33Z"/>
              <path class="cls-54" d="M464.39,594.27q-3.78,63.9-7.66,129.45l1.33-.57q4.13-65.5,8.12-129.34Z"/>
            </g>
            <g>
              <path class="cls-55" d="M482.9,588l-7.74,128.41,1.66-.73q4.08-65,8.06-128.4Z"/>
              <path class="cls-54" d="M481.13,588.46Q477.55,651.9,473.85,717l1.31-.56q3.93-65,7.74-128.41Z"/>
            </g>
            <g>
              <path class="cls-55" d="M499.44,581.8l-7.37,127.47,1.64-.72q3.9-64.54,7.69-127.46Z"/>
              <path class="cls-54" d="M497.7,582.25q-3.42,63-6.93,127.58l1.3-.56q3.74-64.54,7.37-127.47Z"/>
            </g>
          </g>
          <path class="cls-70" d="M267.62,815.34l12.69-5.93Q288.41,714,296.19,622h-10.7Z"/>
          <path class="cls-44" d="M507.5,570.4l17,1.11L295.8,626.66l-26.87-1.39Z"/>
          <path class="cls-55" d="M403.05,600.8,391.32,757.54l3.74-1.73q5.88-79.17,11.59-155.88Z"/>
          <path class="cls-55" d="M405.93,609.65l118.14-30.2c.07-1.45.15-2.9.23-4.36L406.37,603.68Q406.16,606.67,405.93,609.65Z"/>
          <polygon class="cls-66" points="406.04 608.12 524.4 578.87 524.5 571.51 406.65 599.93 406.04 608.12"/>
          <path class="cls-55" d="M421.62,605.38Q416,676.06,410.19,748.84L397,755l10.83-146Z"/>
          <polygon class="cls-66" points="419.37 606.22 409.03 749.27 395.06 755.81 405.93 609.65 419.37 606.22"/>
          <path class="cls-55" d="M395.1,755.26,517.66,698c.12-2.18.23-4.37.35-6.55L395.74,746.71Q395.41,751,395.1,755.26Z"/>
          <path class="cls-66" d="M395.06,755.81l122.57-57.28.36-6.44L395.66,747.78Z"/>
          <path class="cls-65" d="M523,580.2,516.9,692.26l-9.24,4.18q2.59-57.45,5.11-113.63Z"/>
          <path class="cls-66" d="M524.07,579.45l-6.06,112-9.23,4.17q2.58-57.42,5.09-113.56Z"/>
          <g class="cls-71">
            <g>
              <g>
                <path class="cls-55" d="M316.68,619.35,300.84,804l1.9-1q8.24-94,16.17-184.56Z"/>
                <path class="cls-54" d="M314.7,620q-7.54,90.71-15.36,184.78l1.5-.79q8.07-94,15.84-184.61Z"/>
              </g>
              <g>
                <path class="cls-55" d="M333.6,611.16,318.33,794.35l1.88-1q7.94-93.27,15.59-183.16Z"/>
                <path class="cls-54" d="M331.64,611.77,316.85,795.13l1.48-.78q7.79-93.27,15.27-183.19Z"/>
              </g>
              <g>
                <path class="cls-55" d="M351,608.11l-14.69,182,1.84-1q7.65-92.64,15-182Z"/>
                <path class="cls-54" d="M349.11,608.71q-7,89.44-14.23,182.18l1.47-.77q7.47-92.67,14.69-182Z"/>
              </g>
              <g>
                <path class="cls-55" d="M369.19,600.38l-14.1,180.55,1.82-1q7.35-91.9,14.42-180.52Z"/>
                <path class="cls-54" d="M367.28,601q-6.7,88.75-13.63,180.73l1.44-.77q7.17-91.9,14.1-180.55Z"/>
              </g>
              <g>
                <path class="cls-55" d="M387.14,592.09,373.63,771.17l1.8-1q7-91.14,13.83-179.05Z"/>
                <path class="cls-54" d="M385.26,592.67q-6.4,88.05-13.05,179.26l1.42-.76q6.89-91.15,13.51-179.08Z"/>
              </g>
            </g>
          </g>
          <polygon class="cls-47" points="419.37 606.22 410.3 740.34 415.84 737.82 423.1 605.26 419.37 606.22"/>
          <path class="cls-47" d="M419.37,606.22l94.5-24.16-.45,1.87-94.26,23.51Z"/>
          <path class="cls-47" d="M423.81,734l88.76-146.59,1.3-5.37-.42,9.49L428.53,732.82Z"/>
          <g>
            <path class="cls-55" d="M497.78,585.89q-42,70.5-86.77,145.49c-.23,3-.47,6-.71,9L423.81,734,511,587.54l1.3-5.37Z"/>
            <polygon class="cls-66" points="499.33 585.78 411.52 732.09 410.9 739.85 423.81 734.02 512.57 587.42 513.87 582.06 499.33 585.78"/>
            <polygon class="cls-54" points="513.87 582.06 501.38 585.25 501.38 585.25 499.33 585.78 411.52 732.08 411.33 734.8 500.44 586.81 513.87 582.06"/>
          </g>
          <path class="cls-72" d="M406.65,599.93l-20.9-1.76-4.87,1.23,22.17,1.4L391.32,757.54l3.74-1.73Z"/>
          <path class="cls-72" d="M367,602.57a.26.26,0,0,0-.15.07c-.14.28,3.68.78,8.08,1.34l9.59,1.21,3.64-.88Z"/>
          <path class="cls-72" d="M349.06,606.91a.26.26,0,0,0-.15.07c-.15.28,3.72.77,8.17,1.33l9.7,1.21,3.69-.89Z"/>
          <path class="cls-72" d="M331.1,611.21c-.06,0-.14,0-.15.07-.16.29,3.75.78,8.26,1.33l9.81,1.21,3.74-.9Z"/>
          <path class="cls-72" d="M313.25,615.44c-.06,0-.13,0-.15.08-.15.28,3.8.77,8.35,1.33l9.93,1.2,3.78-.91Z"/>
          <path class="cls-72" d="M296.68,619.43a.27.27,0,0,0-.16.07c-.16.29,3.84.78,8.44,1.33L315,622l3.82-.92Z"/>
          <polygon class="cls-54" points="406.1 607.33 406.65 599.93 524.5 571.51 408.43 600.39 406.1 607.33"/>
          <polygon class="cls-54" points="405.93 609.65 419.37 606.22 410.3 740.34 417.62 607.21 405.93 609.65"/>
          <polygon class="cls-54" points="395.65 747.78 517.99 692.09 517.63 698.53 516.82 693.69 395.65 747.78"/>
        </g>
        <path class="cls-54" d="M295.8,626.66,403.05,600.8,391.32,757.54l-4.82,2.53q6.81-79.12,13.44-156.05Z"/>
      </g>
      <g>
        <g>
          <g>
            <path class="cls-45" d="M295.74,242.5l-22.06,7q-25.94,273-54.76,576.24h24Q270.8,518.17,295.74,242.5Z"/>
            <path class="cls-60" d="M324.53,254.84q-22.38,263.85-47.15,555.94l-34.42,15Q270.8,518.17,295.74,242.5Z"/>
          </g>
          <polygon class="cls-43" points="307.04 268.94 300.89 325.38 306.82 284.6 307.04 268.94"/>
          <g>
            <polygon class="cls-54" points="295.74 242.5 242.96 825.76 248.26 823.45 295.74 242.5"/>
            <path class="cls-69" d="M295.74,242.5l-22.06,7q-3.09,32.57-6.23,65.55c.74-4.73,1.81-12.08,2.87-21.06,3.13-26.76,2.93-41.41,11.31-43.75a9,9,0,0,1,4.68,0c5.8,1.84,4.31,11.59,3.76,15.4-1.8,12.62-4.32,37.67-7.72,72.07-1,17.64-1.85,37.7-.94,37.7.74,0,2.44-13.3,4.24-28.64C288.51,322.27,292.22,287.28,295.74,242.5Z"/>
            <polygon class="cls-72" points="281.41 375.39 242.96 825.76 235.88 826.67 253.73 630.34 281.41 375.39"/>
            <path class="cls-54" d="M324.53,254.84l-5.31,62.58q1.45-31.12,2.9-61.88l-26.38-13Z"/>
            <path class="cls-54" d="M314.85,377.89l-17.1,193.17q6.22-98.23,12.22-193Z"/>
            <polygon class="cls-43" points="302.16 255.98 294.19 325.38 306.02 250.55 302.16 255.98"/>
            <polygon class="cls-43" points="296.2 438.17 289.81 497.4 295.95 454.6 296.2 438.17"/>
            <polygon class="cls-44" points="255.15 562.54 248.3 623.88 254.81 579.55 255.15 562.54"/>
            <polygon class="cls-43" points="274.43 626.17 267.68 688.6 274.13 643.49 274.43 626.17"/>
            <path class="cls-69" d="M278.68,265.1l-5.16,52.32q2.88-20.16,5.73-40.16Z"/>
            <polygon class="cls-43" points="292.16 403.34 277.04 539.8 292.71 423 292.16 403.34"/>
            <polygon class="cls-43" points="281.84 654.47 265.97 800.89 282.38 675.55 281.84 654.47"/>
            <polygon class="cls-44" points="265.81 412.94 250.16 549.78 266.28 432.66 265.81 412.94"/>
            <polygon class="cls-43" points="292.84 506.33 277.02 676.12 287 538.82 292.84 506.33"/>
            <path class="cls-73" d="M272.37,385.64a69.59,69.59,0,0,1,9-10.24l-19.88,2q-1.45,15.22-2.91,30.52S266.8,393.41,272.37,385.64Z"/>
            <path class="cls-54" d="M261.53,377.44,237.8,627a821.76,821.76,0,0,0,11.47-85.51c1.77-22.35,1.8-35.48,5.26-64.75,2.33-19.74,3.76-26,5.27-41.82A436.43,436.43,0,0,0,261.53,377.44Z"/>
          </g>
        </g>
        <g>
          <g>
            <path class="cls-74" d="M149.72,205.83,261.53,377.44l19.88-2q.48-18.91.94-37.7L189.68,196.94,152.74,182.1Q151.24,194,149.72,205.83Z"/>
            <path class="cls-43" d="M281.41,375.4,152.74,182.1q-1.5,11.85-3,23.73L261.53,377.44Z"/>
          </g>
          <polygon class="cls-69" points="150.32 200.71 149.72 205.84 261.52 377.44 267.68 376.81 150.32 200.71"/>
          <polygon class="cls-54" points="152.74 182.1 281.41 375.39 281.15 364.26 152.74 182.1"/>
          <polygon class="cls-54" points="189.68 196.94 282.35 337.7 182.32 193.99 189.68 196.94"/>
          <polygon class="cls-43" points="198.93 236.94 269.54 337.7 205.72 240.29 198.93 236.94"/>
        </g>
        <g>
          <polygon class="cls-73" points="411.01 254.22 423.13 238.66 552.89 238.66 504.37 247.31 483.08 242.51 428.03 242.5 411.01 254.22"/>
          <g>
            <path class="cls-45" d="M312.35,322.16,289.51,335q-2.94,27.84-5.9,56c1.44-9.27,4.9-12.2,7.87-13.11,2.8-.87,5.1.07,13.28.27,4.28.11,7.8-.05,10.09-.19Q313.59,349.87,312.35,322.16Z"/>
            <g>
              <path class="cls-43" d="M291.79,336.31,443.34,243.7l39.74-1.18,23.18,3.56L314.85,377.89l-28.54-2.6Q289.05,355.73,291.79,336.31Z"/>
              <path class="cls-74" d="M428,242.5l55.05,0L286.31,375.29q2.74-19.56,5.48-39Z"/>
            </g>
            <polygon class="cls-67" points="506.26 246.08 314.85 377.89 304.76 378.08 506.26 246.08"/>
            <polygon class="cls-67" points="286.31 375.29 483.08 242.51 290.88 375.7 286.31 375.29"/>
            <polygon class="cls-54" points="428.03 242.5 291.79 336.31 327.13 316.12 428.03 242.5"/>
            <path class="cls-43" d="M289.48,350.14c81.59-51.2,122.11-76.38,122.45-76.09s-40.47,26.66-123.39,79.73Z"/>
            <polygon class="cls-43" points="364.26 311.45 459.88 250.56 365.92 313.18 364.26 311.45"/>
          </g>
          <polygon class="cls-54" points="288.19 374.02 483.08 242.51 476.15 242.8 288.19 374.02"/>
        </g>
      </g>
      <g>
        <path class="cls-74" d="M-112.11,754.56q4.23-28.54,8.48-56.73L215.43,632l38-1.64q-8.76,96.32-17.86,196.34L-147.17,999.45Q-129.93,874.62-112.11,754.56Z"/>
        <g>
          <g>
            <path class="cls-55" d="M118.59,673.91,96.24,877.17l2.62-1.1q11.64-103.61,22.82-203.22Z"/>
            <path class="cls-54" d="M115.85,674.55,94.16,878l2.08-.85q11.4-103.6,22.35-203.26Z"/>
          </g>
          <g>
            <path class="cls-55" d="M142,665.17,120.47,866.89l2.59-1.09Q134.26,763,145,664.12Z"/>
            <path class="cls-54" d="M139.29,665.8q-10.24,99-20.88,201.93l2.06-.84q11-102.81,21.52-201.72Z"/>
          </g>
          <g>
            <path class="cls-55" d="M166.11,662.1l-20.7,200.46,2.56-1.08q10.77-102.15,21.14-200.42Z"/>
            <path class="cls-54" d="M163.43,662.73q-9.84,98.43-20.05,200.66l2-.83Q156,760.4,166.11,662.1Z"/>
          </g>
          <g>
            <path class="cls-55" d="M191.21,653.89,171.38,852.77l2.53-1.07q10.32-101.33,20.27-198.83Z"/>
            <path class="cls-54" d="M188.57,654.51q-9.42,97.66-19.19,199.08l2-.82q10.11-101.34,19.83-198.88Z"/>
          </g>
          <g>
            <path class="cls-55" d="M216.06,645.07l-19,197.27,2.49-1.05q9.9-100.5,19.42-197.23Z"/>
            <path class="cls-54" d="M213.46,645.68q-9,96.89-18.35,197.47l2-.81q9.67-100.51,19-197.27Z"/>
          </g>
        </g>
        <path class="cls-75" d="M237.8,627l15.93,3.31L-88.44,705.4l-39.64-3.31Z"/>
        <path class="cls-55" d="M72.25,670.15l-29,243.46L48.93,911Q63.61,787.19,77.64,669Z"/>
        <path class="cls-55" d="M75.87,683.91l176.75-41.4.6-6.69L77,674.73Q76.41,679.32,75.87,683.91Z"/>
        <polygon class="cls-60" points="76.15 681.55 253.14 641.63 253.73 630.34 77.64 668.97 76.15 681.55"/>
        <path class="cls-55" d="M99.4,678Q86,787,72.07,900.75l-20.2,9.13L78.69,683Z"/>
        <polygon class="cls-60" points="96 679.19 70.3 901.38 48.93 911.04 75.87 683.91 96 679.19"/>
        <path class="cls-55" d="M49,910.18,236,825.85l.93-10.22L50.63,896.76Z"/>
        <path class="cls-60" d="M48.93,911l187-84.37q.47-5,.94-10L50.43,898.45Z"/>
        <path class="cls-65" d="M251,643.61,235.18,816.85l-14,6.12q7.4-89.36,14.56-175.78Z"/>
        <path class="cls-60" d="M252.62,642.51,236.88,815.63l-14,6.11q7.38-89.29,14.51-175.66Z"/>
        <g class="cls-76">
          <g>
            <g>
              <path class="cls-55" d="M22.21,668.05l-35,280.8,2.81-1.49Q8.2,803.22,25.45,666.66Z"/>
              <path class="cls-54" d="M19.34,668.88Q2.6,805.73-15,950l2.22-1.15q18-144.17,35-280.8Z"/>
            </g>
            <g>
              <path class="cls-55" d="M49.37,656.08,15.71,934.29l2.76-1.48Q36,790,52.57,654.71Z"/>
              <path class="cls-54" d="M46.54,656.89q-16.08,135.61-33,278.53l2.19-1.13Q33,791.48,49.37,656.08Z"/>
            </g>
          </g>
        </g>
        <polygon class="cls-47" points="96 679.19 72.86 887.41 81.32 883.69 101.59 677.88 96 679.19"/>
        <path class="cls-47" d="M96,679.19l141.38-33.11-.78,2.84-141,32.14Z"/>
        <path class="cls-47" d="M93.5,878.08,235.13,654.26l2.25-8.18q-.6,7.27-1.2,14.57L100.64,876.41Z"/>
        <g>
          <path class="cls-55" d="M213.36,651.28q-66.8,106.88-138.78,222.1-.85,7-1.72,14l20.64-9.33q72.38-116.16,139.36-223.71l2.26-8.19Z"/>
          <polygon class="cls-60" points="215.64 651.17 75.29 874.5 73.8 886.67 93.5 878.08 235.13 654.26 237.38 646.08 215.64 651.17"/>
          <polygon class="cls-54" points="237.38 646.08 218.71 650.45 218.71 650.45 215.64 651.17 75.29 874.5 74.8 878.75 217.22 652.8 237.38 646.08"/>
        </g>
        <path class="cls-72" d="M77.64,669l-30.78-3.61-7.29,1.69,32.68,3.1-29,243.46L48.93,911Z"/>
        <path class="cls-72" d="M18.81,671.33c-.09,0-.19,0-.22.1-.24.43,5.37,1.35,11.84,2.41l14.08,2.28,5.46-1.2Z"/>
        <path class="cls-72" d="M-8,677.23c-.09,0-.19.06-.22.11-.25.43,5.43,1.35,12,2.41L18,682l5.53-1.22Z"/>
        <polygon class="cls-54" points="76.29 680.33 77.64 668.97 253.73 630.34 80.24 669.75 76.29 680.33"/>
        <polygon class="cls-54" points="75.87 683.91 96 679.19 72.86 887.41 93.35 680.64 75.87 683.91"/>
        <polygon class="cls-54" points="50.43 898.45 236.81 816.62 235.88 826.67 234.97 819.08 50.43 898.45"/>
      </g>
    </g>
  </g>
</svg>
