<svg xmlns="http://www.w3.org/2000/svg" xmlns:xlink="http://www.w3.org/1999/xlink" width="1600" height="900" viewBox="0 0 1600 900">
  <defs>
    <style>
      .cls-1 {
        fill: none;
      }

      .cls-2 {
        isolation: isolate;
      }

      .cls-3 {
        clip-path: url(#clip-path);
      }

      .cls-4 {
        clip-path: url(#clip-path-2);
      }

      .cls-17, .cls-18, .cls-27, .cls-29, .cls-5, .cls-7 {
        mix-blend-mode: multiply;
      }

      .cls-29, .cls-5, .cls-7 {
        opacity: 0.45;
      }

      .cls-5 {
        fill: url(#linear-gradient);
      }

      .cls-6 {
        fill: #7aab45;
      }

      .cls-7 {
        fill: #008e48;
      }

      .cls-8 {
        clip-path: url(#clip-path-3);
      }

      .cls-9 {
        fill: url(#Áåçûìÿííûé_ãðàäèåíò_5);
      }

      .cls-10 {
        opacity: 0.5;
      }

      .cls-11 {
        clip-path: url(#clip-path-4);
      }

      .cls-12 {
        fill: url(#linear-gradient-2);
      }

      .cls-13 {
        clip-path: url(#clip-path-5);
      }

      .cls-14 {
        fill: url(#linear-gradient-3);
      }

      .cls-15 {
        clip-path: url(#clip-path-6);
      }

      .cls-16 {
        fill: url(#linear-gradient-4);
      }

      .cls-17, .cls-18 {
        fill: #f6a6ac;
      }

      .cls-17 {
        opacity: 0.36;
      }

      .cls-18 {
        opacity: 0.66;
      }

      .cls-19 {
        fill: #3c1e0e;
      }

      .cls-20 {
        clip-path: url(#clip-path-7);
      }

      .cls-21 {
        fill: url(#linear-gradient-5);
      }

      .cls-22 {
        clip-path: url(#clip-path-8);
      }

      .cls-23 {
        fill: url(#linear-gradient-6);
      }

      .cls-24 {
        fill: #5f2d1b;
      }

      .cls-25, .cls-27, .cls-28 {
        fill: #9b6f38;
      }

      .cls-26 {
        fill: #88462c;
      }

      .cls-27, .cls-28 {
        opacity: 0.6;
      }

      .cls-28 {
        mix-blend-mode: screen;
      }

      .cls-29 {
        fill: url(#linear-gradient-7);
      }

      .cls-30 {
        fill: #88bb4a;
      }

      .cls-31 {
        fill: #91c84f;
      }
    </style>
    <clipPath id="clip-path">
      <rect class="cls-1" x="-1050" width="800" height="900" transform="translate(-1300 900) rotate(180)"/>
    </clipPath>
    <clipPath id="clip-path-2">
      <rect class="cls-1" x="-1720" width="1600" height="900"/>
    </clipPath>
    <linearGradient id="linear-gradient" x1="-2574.24" y1="117.56" x2="-4583.98" y2="72.97" gradientTransform="matrix(-1.01, -0.06, -0.06, 1, -4576.52, -102.88)" gradientUnits="userSpaceOnUse">
      <stop offset="0" stop-color="#faf07d"/>
      <stop offset="0.31" stop-color="#458e70"/>
      <stop offset="0.62" stop-color="#4a7740"/>
      <stop offset="1" stop-color="#c2d72f"/>
    </linearGradient>
    <clipPath id="clip-path-3">
      <rect class="cls-1" width="1600" height="900"/>
    </clipPath>
    <linearGradient id="Áåçûìÿííûé_ãðàäèåíò_5" data-name="Áåçûìÿííûé ãðàäèåíò 5" x1="800" y1="902" x2="800" y2="-4" gradientUnits="userSpaceOnUse">
      <stop offset="0" stop-color="#dfedd1"/>
      <stop offset="1" stop-color="#56c8ed"/>
    </linearGradient>
    <clipPath id="clip-path-4">
      <path id="SVGID" class="cls-1" d="M1438.24,616.38l-3.75,19.91s39.61-.11,38.89-10.38c-4.69-9.25-13.91-11.48-21.74-11.48a49,49,0,0,0-13.4,2"/>
    </clipPath>
    <linearGradient id="linear-gradient-2" x1="-3615.81" y1="-2046.63" x2="-3614.97" y2="-2046.63" gradientTransform="matrix(45.64, 0, 0, -45.64, 166448.49, -92775.58)" gradientUnits="userSpaceOnUse">
      <stop offset="0" stop-color="#1f6c37"/>
      <stop offset="0" stop-color="#256f3f"/>
      <stop offset="0" stop-color="#347856"/>
      <stop offset="0" stop-color="#4d867a"/>
      <stop offset="0" stop-color="#6f9aad"/>
      <stop offset="0" stop-color="#8caad7"/>
      <stop offset="0.08" stop-color="#94b0d9"/>
      <stop offset="0.21" stop-color="#aac0df"/>
      <stop offset="0.25" stop-color="#b3c6e1"/>
      <stop offset="0.98" stop-color="#fff"/>
      <stop offset="1" stop-color="#fff"/>
    </linearGradient>
    <clipPath id="clip-path-5">
      <path id="SVGID-2" data-name="SVGID" class="cls-1" d="M1351,629.63s22.6-30.63,56.36-30.63a72.06,72.06,0,0,1,15.19,1.64c42.41,9.14,35.85,35.84,15.31,37.46s-60.76,1.93-69.51,0-20-.53-17.66-8Z"/>
    </clipPath>
    <linearGradient id="linear-gradient-3" x1="-3665.7" y1="-2002.93" x2="-3664.81" y2="-2002.93" gradientTransform="matrix(114.47, 0, 0, -114.47, 420978.29, -228664)" gradientUnits="userSpaceOnUse">
      <stop offset="0" stop-color="#1f6c37"/>
      <stop offset="0" stop-color="#256f3f"/>
      <stop offset="0" stop-color="#347856"/>
      <stop offset="0" stop-color="#4d867a"/>
      <stop offset="0" stop-color="#6f9aad"/>
      <stop offset="0" stop-color="#8caad7"/>
      <stop offset="0.14" stop-color="#94b0da"/>
      <stop offset="0.37" stop-color="#aac0e1"/>
      <stop offset="0.64" stop-color="#cedbee"/>
      <stop offset="0.95" stop-color="#fff"/>
      <stop offset="1" stop-color="#fff"/>
    </linearGradient>
    <clipPath id="clip-path-6">
      <path id="SVGID-3" data-name="SVGID" class="cls-1" d="M1365.12,624.55c-5.93.72-29.25,10.11-29.25,10.11-1.27,7.23,4.67,3.61,9.75,3.42,1.82-.06,5.87.22,10.75.5,8.75.51,20.15,1,26.13-.5,5.09-11.3-7-13.7-14.23-13.7a27.51,27.51,0,0,0-3.15.17"/>
    </clipPath>
    <linearGradient id="linear-gradient-4" x1="-3630.02" y1="-2033.86" x2="-3629.15" y2="-2033.86" gradientTransform="matrix(55.42, 0, 0, -55.42, 202501.77, -112077.54)" xlink:href="#linear-gradient-2"/>
    <clipPath id="clip-path-7">
      <path id="SVGID-4" data-name="SVGID" class="cls-1" d="M-1.35,694.53C-40.69,762,3.15,845.14,3.15,845.14H88.57s3.37,5.87,11.24-75.31c10.86-112-27.33-78.56-27.33-78.56s13.84-87.79-33.37-115.89C35,572.93,31.3,571.82,28,571.82-7,571.83-1.35,694.53-1.35,694.53"/>
    </clipPath>
    <linearGradient id="linear-gradient-5" x1="-3735.73" y1="-2012.51" x2="-3733.08" y2="-2012.51" gradientTransform="matrix(83.28, 0, 0, -83.28, 311040.9, -166894.22)" gradientUnits="userSpaceOnUse">
      <stop offset="0" stop-color="#16a64e"/>
      <stop offset="0.2" stop-color="#16a64e"/>
      <stop offset="0.37" stop-color="#37af52"/>
      <stop offset="0.54" stop-color="#4fb655"/>
      <stop offset="0.69" stop-color="#5dba57"/>
      <stop offset="0.82" stop-color="#62bb58"/>
      <stop offset="1" stop-color="#62bb58"/>
    </linearGradient>
    <clipPath id="clip-path-8">
      <path id="SVGID-5" data-name="SVGID" class="cls-1" d="M76.08,795.93c-20.11,34.48,2.3,77,2.3,77h43.67s1.72,3,5.75-38.5c5.55-57.27-14-40.16-14-40.16S120.9,749.38,96.76,735a11.26,11.26,0,0,0-5.7-1.83c-17.85,0-15,62.74-15,62.74"/>
    </clipPath>
    <linearGradient id="linear-gradient-6" x1="-3736.13" y1="-2013.31" x2="-3734.78" y2="-2013.31" gradientTransform="matrix(83.28, 0, 0, -83.28, 311188.86, -166867.71)" xlink:href="#linear-gradient-5"/>
    <linearGradient id="linear-gradient-7" x1="-4273.44" y1="21.83" x2="-6283.18" y2="-22.76" xlink:href="#linear-gradient"/>
  </defs>
  <g class="cls-2">
    <g id="Layer_1" data-name="Layer 1">
      <g id="SC_25">
        <g class="cls-3">
          <g class="cls-4">
            <path class="cls-5" d="M-102,99.68s81.13-5.19,118.5,26.17S-13.91,187-64.29,164.63c0,0,19.41,36.91-41.3,25.91,0,0,46.81,38.3,15.26,56-31.22,17.79-72.19-21.43-73.66-38.83,0,0,15.18,49.64-28.59,53.61s-49.79-54.14-49.79-54.14,23.6,66-27.65,75.49c-51.43,9.24-71.47-60.2-71.47-60.2s-.55,18.45-24.76,15c0,0-9.36,38.38-51.12,31.68s-53.61-73.42-36.89-87.59c0,0-18.92,30.23-52.38,16.5-33.24-13.83,1.34-34.59,1.34-34.59s-34.08,24-61.05-16.43c0,0,18.35,48.23-13,53.95s-51.17-19.69-51.17-19.69,1.66,49.53-32.44,47.25c-33.88-2.34-64-36-64-36s9.2,22.66-5.88,24c-15.26,1.3-40.21-16.58-40.21-16.58s45.46,70,9.43,82c-35.87,12.15-46.64-40.6-46.64-40.6s-22.78,19.37-53.79,2.45c0,0,50.11,34.58,30.18,51.13-19.78,16.52-66.28-29.28-77.68-70.11,0,0-8.82,35.24-48.31,25.54-39.51-9.92-37.33-48.81-37.33-48.81s-3.7,26.85-33.5,27.42c-29.67.4-29.93-22.95-29.93-22.95s4.23,45.27-59.47,23.21c0,0,13.34,32.56-41.22,26.11,0,0,89.72,23.48,66.48,55.58-23.44,32.17-78.52-42.33-78.52-42.33s27,49.52-2.62,62.28-60.93-48.64-50.36-69.76c0,0-1.07,32-40.41,19.67,0,0,9.65,22.67-10,31.5-19.84,8.72-41.92-6.61-53.86-30.55,0,0-28.81,15.9-44.56-7.07,0,0-6.61,38-43.72,29.53-36.82-8.36-36.63-51.66-36.63-51.66s-13.05,5.78-30.22-11.44c-16.86-17.34.18-4.22.18-4.22s.79,38.8-45,24.29c0,0,49.57,26.44,32.76,38.68-16.6,12.13-71.89-15.92-71.89-15.92s11.61,30.27-19.13,29.93c-30.57-.3-50.7-22.12-50.7-22.12s-22.7,39.41-94.26,14-41.51-92.75-41.51-92.75,30.48,45.91,66.27,38.16,12.31-84.86,12.31-84.86,39.09,92.07,63.64,87,2-48.71,2-48.71,32.85,62.55,69.14,45.09-56.89-71.49-56.89-71.49,119,56.57,118.83,20.91c-.3-35.87-25.07-72.72-25.07-72.72s67.73,94.69,97,87.64,34.08-40.34,34.08-40.34,36.2,64.75,59.81,39.19C-1310.7,187-1320.12,138-1320.12,138s28.68,55.45,14.78,79.64c-14.13,24.14,121.49,14.41,80.68-108.09,0,0,20.93,27.26,17.42,79-3.81,51.81,123.49,20.09,33.81-79.4,0,0,44.94,64.43,72.19,58.37s-10.12-76.43-10.12-76.43,33.47,82.1,83.32,72.85c49.79-9,36.45-100.68,36.45-100.68s15.24,99.35,62,71.66c47-27.66,37.46-72.47,37.46-72.47s23.38,55.48-33.93,92.19c-56.84,37,15.32,48.54,29.17,25.53s13.22-41.47,13.22-41.47,14.28,27.84,16.84,53.92,49.69,11.58,29.29-23.11-26.8-43.24-26.8-43.24,73.41,70.77,91.37,63.6c18.12-7-14-74-14-74s37,78.1,101.13,62.33c64.48-16,3.19-75.83,3.19-75.83s81,48,80.63,18.79c-.42-29.43-28.1-62.33-28.1-62.33s70.88,81,107.11,64.57,32.17-56.65,32.17-56.65,23.48,39.91-2.77,65.79c-26,25.76,48.24,19.19,59.91-5.12s2.18-51.89,2.18-51.89,34.58,47.51,17.33,76.25c-17.5,28.88,35.1,49.16,52.87,10,0,0,41,54.37,73.59,29.2,32.88-25.25-12.94-97.21-12.94-97.21S-241.29,199-206,178.14C-170.72,157.46-219.09,92-219.09,92s65.23,91.5,104.59,76.85-18.88-54.72-18.88-54.72S-50.36,138.23-102,99.68Z"/>
            <g>
              <path class="cls-6" d="M-1839.69,165.71c-12.14-19.17,19.85-22.76,19.85-22.76s-36.35-10.76-32.23-31.07c3.85-19.54,70.55-16.51,76-16.31-5-.19-65.24-4.38-57.33-45.33,8.22-43,95.83-15.22,95.83-15.22s-36.34-18.39-24.1-40.47c12.28-21.92,43.65,2.52,43.65,2.52-11.82-27.74,38.16-27.82,38.16-27.82s-12.65-5,1.09-25.94,68.33,12.58,68.33,12.58c7.59-7.7,13.61-7.77,17.17-6.18-6-5.1-16.22-16.29-15.41-35.61,1.15-27.44,70.12-7.58,70.12-7.58s-8.68-23.57,23.3-24.76c32-1,26.45,34.81,26.45,34.81s10.15-21.15,27-14.32c17.11,6.69,12,26.65,12,26.65,15.12-3.45,32.58,17.74,32.58,17.74s-22.77-46.17,11.42-45.57c34.46.46,52.83,31.78,52.83,31.78.19-8.57,30.25-6.82,30.25-6.82s-20.07-34.39,12.24-32.55c32,1.73,41.69,28.45,41.69,28.45-.75-3.73-.13-6.51,1.89-8.51,5.43-6.23,19.49-6.29,19.49-6.29s-45-37.18,1.89-50.53c47-13.09,51,16,51,16,5.69-6.84,14-2.07,14-2.07s-.63-36.13,35.44-22.46c35.89,13.57,20.22,44.44,20.22,44.44,15.92-2,34.16,13.43,34.16,13.43s-24.88-44.72,14.15-49.73,73.47,46.07,73.47,46.07-1.22-20.28,33.45-22.6S-932.34-85-932.34-85s22.69-31.92,47.49-30.54c24.64,1.45,19.34,24.17,19.34,24.17s9.91-31.21,36.73-28.31c26.77,3.06,28,30.53,28,30.53,32.39-6.8,51,14.48,51,14.48s-42.73-64.49,2.32-62,63.24,31.08,63.24,31.08c7-18.44,41.37-4.26,41.37-4.26s-29.61-67.31,2.81-72c32.58-4.59,56.25,27,56.25,27,28.75-24.35,67.44,4.6,67.44,4.6s-3.09-27.65,22.94-32.63,47.2,28.65,47.2,28.65-.17-48.31,42.86-45.18,51.14,64.19,51.14,64.19,10.71-51.42,39-34.53C-284.44-153-295.1-134.1-295.1-134.1s31.73-39.29,49.22-20.25c17.78,19-8.13,47.94-8.13,47.94,34.11,4.78,33.26,24.94,33.26,24.94s32.34-51.63,64.78-30.35c32.73,21.39-3.5,86.42-3.5,86.42s49-40.41,76.89-12.19S-98,1.28-98,1.28c42.53,12.47,4.59,42.83,4.59,42.83s58.1-19,62.23,12.92C-27.4,89.12-102,99.68-102,99.68s81.13-5.19,118.5,26.17S-13.91,187-64.29,164.63c0,0,19.41,36.91-41.3,25.91,0,0,46.81,38.3,15.26,56-28.77,16.35-65.89-15.65-72.45-34.19,2.46,12.32,5.87,45.73-29.8,49-27.29,2.42-39.81-19-45.45-35.56,2.94,20.39,1.37,50.62-32,56.91-51.43,9.24-71.47-60.2-71.47-60.2s-.55,18.45-24.76,15c0,0-9.36,38.38-51.12,31.68-38.32-6.19-51.33-62.8-40.51-83-6.92,7.88-23.9,22.27-48.76,11.91-29.48-12.34-5.54-30.09.21-33.84-6.15,3.64-35.79,19-59.92-17.18,0,0,18.35,48.23-13,53.95s-51.17-19.69-51.17-19.69,1.66,49.53-32.44,47.25c-33.88-2.34-64-36-64-36s9.2,22.66-5.88,24c-15.26,1.3-40.21-16.58-40.21-16.58s45.46,70,9.43,82c-35.87,12.15-46.64-40.6-46.64-40.6s-22.78,19.37-53.79,2.45c0,0,50.11,34.58,30.18,51.13-19.78,16.52-66.28-29.28-77.68-70.11,0,0-8.82,35.24-48.31,25.54-39.51-9.92-37.33-48.81-37.33-48.81s-3.7,26.85-33.5,27.42c-26.94.41-29.68-19.17-30-22.43.33,5,.12,43.31-59.45,22.69,0,0,13.34,32.56-41.22,26.11,0,0,89.72,23.48,66.48,55.58-23.44,32.17-78.52-42.33-78.52-42.33s27,49.52-2.62,62.28c-26.17,11.29-53.78-35.88-52.48-61.3-3.32,8.56-12.77,19.24-38.29,11.21,0,0,9.65,22.67-10,31.5-19.84,8.72-41.92-6.61-53.86-30.55,0,0-28.81,15.9-44.56-7.07,0,0-6.61,38-43.72,29.53-36.82-8.36-36.63-51.66-36.63-51.66s-13.05,5.78-30.22-11.44v-.19c-1.39,9.45-8.21,32-44.84,20.26,0,0,49.57,26.44,32.76,38.68-16.6,12.13-71.89-15.92-71.89-15.92s11.61,30.27-19.13,29.93c-30.57-.3-50.7-22.12-50.7-22.12s-22.7,39.41-94.26,14-41.51-92.75-41.51-92.75-20.29,21.33-34.47,14,4.45-31.55,4.45-31.55-41.83,36-77.89,11.45C-1919.59,182.28-1839.69,165.71-1839.69,165.71Z"/>
              <path class="cls-7" d="M-102,99.68s81.13-5.19,118.5,26.17S-13.91,187-64.29,164.63c0,0,19.41,36.91-41.3,25.91,0,0,46.81,38.3,15.26,56-31.22,17.79-72.19-21.43-73.66-38.83,0,0,15.18,49.64-28.59,53.61s-49.79-54.14-49.79-54.14,23.6,66-27.65,75.49c-51.43,9.24-71.47-60.2-71.47-60.2s-.55,18.45-24.76,15c0,0-9.36,38.38-51.12,31.68s-53.61-73.42-36.89-87.59c0,0-18.92,30.23-52.38,16.5-33.24-13.83,1.34-34.59,1.34-34.59s-34.08,24-61.05-16.43c0,0,18.35,48.23-13,53.95s-51.17-19.69-51.17-19.69,1.66,49.53-32.44,47.25c-33.88-2.34-64-36-64-36s9.2,22.66-5.88,24c-15.26,1.3-40.21-16.58-40.21-16.58s45.46,70,9.43,82c-35.87,12.15-46.64-40.6-46.64-40.6s-22.78,19.37-53.79,2.45c0,0,50.11,34.58,30.18,51.13-19.78,16.52-66.28-29.28-77.68-70.11,0,0-8.82,35.24-48.31,25.54-39.51-9.92-37.33-48.81-37.33-48.81s-3.7,26.85-33.5,27.42c-29.67.4-29.93-22.95-29.93-22.95s4.23,45.27-59.47,23.21c0,0,13.34,32.56-41.22,26.11,0,0,89.72,23.48,66.48,55.58-23.44,32.17-78.52-42.33-78.52-42.33s27,49.52-2.62,62.28-60.93-48.64-50.36-69.76c0,0-1.07,32-40.41,19.67,0,0,9.65,22.67-10,31.5-19.84,8.72-41.92-6.61-53.86-30.55,0,0-28.81,15.9-44.56-7.07,0,0-6.61,38-43.72,29.53-36.82-8.36-36.63-51.66-36.63-51.66s-13.05,5.78-30.22-11.44c-16.86-17.34.18-4.22.18-4.22s.79,38.8-45,24.29c0,0,49.57,26.44,32.76,38.68-16.6,12.13-71.89-15.92-71.89-15.92s11.61,30.27-19.13,29.93c-30.57-.3-50.7-22.12-50.7-22.12s-22.7,39.41-94.26,14-41.51-92.75-41.51-92.75,30.48,45.91,66.27,38.16,12.31-84.86,12.31-84.86,39.09,92.07,63.64,87,2-48.71,2-48.71,32.85,62.55,69.14,45.09-56.89-71.49-56.89-71.49,119,56.57,118.83,20.91c-.3-35.87-25.07-72.72-25.07-72.72s67.73,94.69,97,87.64,34.08-40.34,34.08-40.34,36.2,64.75,59.81,39.19C-1310.7,187-1320.12,138-1320.12,138s28.68,55.45,14.78,79.64c-14.13,24.14,121.49,14.41,80.68-108.09,0,0,20.93,27.26,17.42,79-3.81,51.81,123.49,20.09,33.81-79.4,0,0,44.94,64.43,72.19,58.37s-10.12-76.43-10.12-76.43,33.47,82.1,83.32,72.85c49.79-9,36.45-100.68,36.45-100.68s15.24,99.35,62,71.66c47-27.66,37.46-72.47,37.46-72.47s23.38,55.48-33.93,92.19c-56.84,37,15.32,48.54,29.17,25.53s13.22-41.47,13.22-41.47,14.28,27.84,16.84,53.92,49.69,11.58,29.29-23.11-26.8-43.24-26.8-43.24,73.41,70.77,91.37,63.6c18.12-7-14-74-14-74s37,78.1,101.13,62.33c64.48-16,3.19-75.83,3.19-75.83s81,48,80.63,18.79c-.42-29.43-28.1-62.33-28.1-62.33s70.88,81,107.11,64.57,32.17-56.65,32.17-56.65,23.48,39.91-2.77,65.79c-26,25.76,48.24,19.19,59.91-5.12s2.18-51.89,2.18-51.89,34.58,47.51,17.33,76.25c-17.5,28.88,35.1,49.16,52.87,10,0,0,41,54.37,73.59,29.2,32.88-25.25-12.94-97.21-12.94-97.21S-241.29,199-206,178.14C-170.72,157.46-219.09,92-219.09,92s65.23,91.5,104.59,76.85-18.88-54.72-18.88-54.72S-50.36,138.23-102,99.68Z"/>
            </g>
          </g>
        </g>
      </g>
      <g class="cls-8">
        <polygon class="cls-9" points="1600.3 -4 1600.3 902 193.92 901.54 -0.3 901.48 -0.3 -4 1600.3 -4"/>
        <g class="cls-10">
          <g class="cls-11">
            <rect class="cls-12" x="1434.98" y="614.96" width="39.21" height="21.44"/>
          </g>
          <g class="cls-13">
            <rect class="cls-14" x="1348.99" y="598.77" width="116.16" height="40.61"/>
          </g>
          <g class="cls-15">
            <rect class="cls-16" x="1334.84" y="624.86" width="52.86" height="17.65"/>
          </g>
        </g>
        <path class="cls-17" d="M1665,883.63l-129.29,29.79H-10l.34-4.13,7.79-96.07.49-6.17,63.21,34H148l97.68-29.78,79.77,15.33,6.92,1.06,21,1.75,44.42,2,43.41,12.25,34.29,10.11L193.72,819.49l204-35.75c12.38-2.59,97.34-17.19,109.2-21.57l77.95-23.9c23-7.84,42.6-13.08,59-23.56,66.44-42.53,123.25-44.59,144.44-43.08l300.09,33.51L1112.14,736l-41.87,66.77,53,20.21,273.22,17.61,7.1.47,8.62,8.51H1461l31.61,17,149.4,4.25Z"/>
        <polygon class="cls-18" points="-19.5 937.04 108.9 966.82 1644 966.82 1643.66 962.69 1635.92 866.62 1635.44 860.46 1572.67 894.49 1487.07 894.49 1390.05 864.71 1295.89 903 1289.02 904.06 1222.9 914.49 1206.1 917.13 1203.27 917.55 1161.79 907.25 1130.4 877.47 1067.28 874.37 810.83 813.65 748.05 809.4 656.75 847.69 571.14 856.2 518.56 876.41 247.21 894.02 240.16 894.49 231.6 903 183.09 903 151.7 920.02 3.33 924.27 -19.5 937.04"/>
        <g>
          <path class="cls-19" d="M44,900.46c6.36-7.12,5.28-16.08,5.51-25.18.26-10.77,1.55-21.42-.27-32.08-1.4-8.24-13.35-7-15.48,0-3.12,10.31-2.64,21.39-2.76,32.08-.09,9.07-1.08,18.23,5.47,25.18a5.37,5.37,0,0,0,7.53,0"/>
          <path class="cls-19" d="M66.92,840.9c-2.83,5.59-6.54,12-11.45,15.93-4.71,3.82-10.49,6.32-15.06,10.27a2.24,2.24,0,0,0,.45,3.5c7.71,3.51,16.89-.5,22.32-6.26,6.15-6.5,9.1-14.13,7.36-23a2,2,0,0,0-3.62-.47"/>
          <path class="cls-19" d="M20.32,843.62l.13-.31c2-4.6-5.7-5.45-4.9-.64A25.19,25.19,0,0,0,22.9,856.1c3.19,3.11,8.11,6.67,12.81,5.65a1.75,1.75,0,0,0,.77-2.9c-2.85-2.66-6.85-3.82-9.72-6.61a22.74,22.74,0,0,1-6-11c-.62,1.1-1.24,2.2-1.87,3.3.54-.16,1.22-.35,1.47-.92"/>
          <g class="cls-20">
            <rect class="cls-21" x="-110" y="625.24" width="289.98" height="172.33" transform="translate(-677.01 691.71) rotate(-85.6)"/>
          </g>
        </g>
        <g>
          <path class="cls-19" d="M99.24,901.21c3.25-3.64,2.7-8.22,2.81-12.87.14-5.51.8-11-.13-16.4-.72-4.21-6.83-3.59-7.92,0-1.59,5.27-1.35,10.93-1.41,16.4,0,4.64-.55,9.32,2.79,12.87a2.75,2.75,0,0,0,3.86,0"/>
          <path class="cls-19" d="M111,870.76c-1.45,2.86-3.34,6.11-5.86,8.15s-5.36,3.23-7.69,5.25a1.14,1.14,0,0,0,.23,1.79c3.94,1.79,8.63-.26,11.41-3.2,3.14-3.33,4.65-7.23,3.76-11.75a1,1,0,0,0-1.85-.24"/>
          <path class="cls-19" d="M87.16,872.15l.06-.16a1.35,1.35,0,1,0-2.5-.32,12.92,12.92,0,0,0,3.75,6.86c1.63,1.59,4.15,3.42,6.55,2.89a.89.89,0,0,0,.4-1.48c-1.46-1.36-3.51-2-5-3.38a11.57,11.57,0,0,1-3.09-5.62c-.32.56-.64,1.12-1,1.68.27-.08.62-.17.75-.47"/>
          <g class="cls-22">
            <rect class="cls-23" x="20.53" y="760.51" width="148.25" height="88.11" transform="translate(-714.8 837.2) rotate(-85.6)"/>
          </g>
        </g>
        <g>
          <g>
            <path class="cls-24" d="M1633.51,171.42c-9.7-1.13-14.24,7.61-16.45,15.52,0,.07,0,.14,0,.21s-.08.15-.1.23c-2.29,5.71-3.27,11.8-4.13,17.93-1.19,5.9-2.27,11.85-3.35,17.79-1.47,5.06-3.44,10.46-4.23,15.76-15.92,46.33-40.48,86.17-71.28,120.75-3.12-49.26-14.79-98.59.71-146.73,2.06-6.42,12.15-27.29,4.62-32.89-7.06-5.25-15,2.73-20.63,10.58a2,2,0,0,0-1.56,1c-18.73,31-23.35,67.81-25.41,103.35-1.07,18.52-1.85,37.3-1.18,55.84.55,15,1.8,29.85-.7,44.38a41.79,41.79,0,0,1-5.43,11.83,583.24,583.24,0,0,1-73.59,51.14c-27,15.93-53.52,31.58-77.77,50.37.41-39.28-1.12-78.61-.85-117.92,0-1.9.11-3.8.15-5.71l0-.05c0-.66,0-1.32,0-2a391.07,391.07,0,0,1,5.38-57.48c2.74-15.79,8.27-32.07,8.73-48.31a198.82,198.82,0,0,1,7.13-20.84c13.86-33.7,36.37-62.61,57.76-91.82h0c4.4-3.88,10.19-9.31,10.35-15.73.15-6.65-5.79-12.94-9.48-18.3-14.64,13-27.88,27.31-41.93,40.9q-7.1,6.87-14.09,13.83c-4.87,5.58-9.75,11.15-14.51,16.83l0,.06a322.8,322.8,0,0,0-28.07,43.6,356.28,356.28,0,0,0-15.36,32.89c0-30.34-3.49-61.48-6.12-91.53,0-.59-.11-1.2-.15-1.79-1.71-13.5-3.79-26.95-6.32-40.34-2.49-13.23-4.89-26.46-8-39.5-.5-1.38-.93-2.79-1.47-4.15-.44-2.43-1-4.83-1.5-7.24-1.56-5.6-3.3-11.15-5.29-16.63-10-.53-20.72.77-27.61,8.63-.2.24-.66,1.68.13,1.36.26-.11.58-.24.95-.36,2.32,49.5,11.56,98.5,11.18,148.14-.39,50.27-22.39,92.07-50.86,132-32.49-92.75-35.6-195-17.66-291.11.53-1.2,1-2.38,1.45-3.58-.25-2.88-.53-5.75-.83-8.63-20.24,3.32-30.23,8.38-40.3,27.1-9.82,18.25-16.1,39.18-22.11,58.94A488.83,488.83,0,0,0,1107,228.52c-2,15.24-3.79,31.25-4,47-3.21-15.72-6.85-31.36-10.4-46.81-7.91-34.32-13.83-72.1-29.27-104.46a167.79,167.79,0,0,0-8.34-20.53c-.31-.63-1.07-.59-1.63-.51-20.14,2.94-40.74,8.4-58.22,19.1a5.42,5.42,0,0,0-2.57,5.17c.71,4,.94,7.79,3.51,9.75a2.57,2.57,0,0,0-.24,1.48c13,46.83,25.43,92.34,32.2,140.63,6.65,47.46,9.11,95.22,11.9,143-25.77-42.43-45.14-87.91-74.53-128.34-21.86-30.06-46.17-58.48-70.33-86.92a132.91,132.91,0,0,1-8.84-10.42l-1.09-1.28a.86.86,0,0,0,0-.16c-.24-.32-.5-.64-.74-1-9-12.64-15.9-26.49-25.83-38.3a20.59,20.59,0,0,0-13-1c-13.59,3-34.82,17.26-27.22,33.11,0,.11,0,.22,0,.3.25.42.53.81.79,1.22.15.24.23.47.38.71a.85.85,0,0,0,.19.19c18.22,28.9,40.71,54.2,62.44,80.48,22.77,27.57,41.08,56.16,55.58,88.8,4.54,13.79,8.2,27.79,11.56,41.18,12.7,50.69,21,102.74,29.45,154.26C988.53,614.64,995.33,674,998,734.1c2.48,56,2,112,3.37,168-.63,40.3-1,80.59-1.9,120.9,0,1-.06,2-.08,3h327.06c-1.94-58.86-5-117.68-7-176.56q-2-62.57-.19-124.86c1.63-3.69,3.14-7.42,4.53-11.1v.26q.93-2.57,2-5.1c0-.13,0-.25,0-.37,2.46-6.84,4.57-13.35,6.46-18.92,8.08-23.94,17-45.87,31-67.22,19-28.94,43.7-53.88,68-78.27,44.27-44.38,88.65-88.73,128.53-137.17q10.46-12.69,20.64-26c7.55-12.53,13.48-25.69,20.38-38.57,2.43-4.55,5-9,7.46-13.55a289.15,289.15,0,0,0,16-38.43c5.8-17.63,9.66-35.78,13.82-53.84,5.11-15.12,9.84-30.38,15-45.45C1657.36,178.23,1643.89,172.64,1633.51,171.42Z"/>
            <path class="cls-25" d="M1634,178.92c-14.49-1.68-13.9,21.42-16,30.94a208.44,208.44,0,0,1-9.25,32.23c-13.34,44.15-38,84.43-68.74,119.69q-5,4.41-10.07,8.72c-.42-1.72-.8-3.46-1.13-5.2l.38-.41c-5.73-41.18-13-83.61-7.13-124.64,1.8-12.58,6.89-24.19,10.89-36.18,1.3-3.89,2.74-7.77,3.67-11.77,1.57-6.67-3.71-11-9.65-5.31a93.51,93.51,0,0,0-10.86,12.8c-15.28,38.28-18.51,78.18-19.72,119.34-.52,17.62.64,35.14.27,52.74,0,1.12-.09,2.24-.14,3.35,0,18.28-3.37,39.52-18.57,45.06a497.61,497.61,0,0,1-40.55,29c-32.75,20.94-68.14,38.76-99.36,62a181.85,181.85,0,0,0-32.19,27c-8.92,9.6-15.91,20.39-22,31.86,2.52-8.86,6.58-17.58,10.49-25.9a273.24,273.24,0,0,1,30.1-28.93c1.19-26.84,1.63-53.69,1.85-80.56-.3-15.23-.46-30.46-.17-45.72a314.19,314.19,0,0,1,2.56-33.31c.25-3.41.43-6.82.73-10.21,2.09-23.52,6.56-46.65,11.07-69.78a219.07,219.07,0,0,1,9.12-23.8c16.08-35.3,39.61-66.19,64.8-95.43,1.75-2.84,2.48-5.82.15-9.39S1410,140,1408,136.25c-5.06,5.14-10,10.44-14.84,15.76-7.59,10.05-17,18.9-25.69,27.89-4.25,4.37-8.38,9-12.4,13.7-11.79,10.75-20.77,24.32-28.26,38.37a2.68,2.68,0,0,0-.29,1.47c-2.16,3.6-4.32,7.21-6.27,10.86a392.88,392.88,0,0,0-20.7,46.33,70.53,70.53,0,0,1-4.09-7.37c-7.14-29.44-6.09-62.29-9.14-92.14-3.29-32.24-10.56-62.6-17.58-94.1a3.83,3.83,0,0,1,.54-2c-.76-3-1.57-6.09-2.46-9.12-1.41-4.81-15.66-1.6-22.31.5,7.29,54.64,19.26,110.26,14.22,165.65-4.18,45.93-29,86-55.75,122.44-.92,1.27-3,2.3-3.73.34-33.37-92.28-41-198.51-17.93-294.45-.47-.21-.71-.75-.45-1.78.71-2.73,1.45-5.33,2.28-7.92-12.06,1.75-22.78,3.4-29.87,15.64a166.42,166.42,0,0,0-12.7,28.28c-6.54,18.52-12.76,37.24-17.44,56.32a545,545,0,0,0-11.4,60.9c-.19,1.46-.32,2.93-.5,4.39a488.86,488.86,0,0,0-6.14,80.14q-1.65-5.49-3.28-11c-11.26-61.3-24.71-121.93-43.37-181.55a97.17,97.17,0,0,0-5.9-10.74c-3-4.4-13.77,0-17.53.93a170.34,170.34,0,0,0-36.9,12.88c.49,2.68,1.09,5.34,1.55,8,20.27,44.24,28,96.77,34.09,144.65a1198.23,1198.23,0,0,1,10,149.77c0,.92-2.12,4.52-3.13,2.75-26.28-46.43-49.37-94.5-82-137-16.31-21.25-34.3-41.52-51.46-62.38C893.23,212.72,878.9,193,866,172.44c-7.62-12.18-14.47-17.18-28.63-10.72-7.41,3.39-13.34,9.75-17.29,16.7-1.89,3.31-.72,6.55,1.22,9.41,0,.19,0,.35.08.54a1.64,1.64,0,0,1-.17.84c28.47,39.47,65.36,72.19,92.65,112.51.94,1.38,1.76,2.85,2.68,4.23a137,137,0,0,1,16.32,27.34c15,39.17,27.76,79.21,34.47,120.72,8.18,50.7,15.69,101.48,23.23,152.28,7.8,52.63,13.94,105.13,14.51,158.38.53,48.78-1.8,97.58,2.19,146.23-.38,36.21-.67,72.42-1.51,108.64,0,2.15-.12,4.3-.17,6.46H1320c-2-59.43-5.22-118.8-6.75-178.25-1-36.5-1.51-73.26-.45-109.93a97,97,0,0,1-8.74,13.14c-9.78,15.77-22.5,30.35-38.07,38.85a75.87,75.87,0,0,1-26.88.91,55.66,55.66,0,0,0,15.21-3c12.91-4.55,23.27-12.43,32.13-22a38,38,0,0,1-3.7,1.62,67.64,67.64,0,0,0,7-5.39c9.83-11.48,17.85-24.89,25.67-37.64,0-.06.08-.07.12-.12a183.05,183.05,0,0,0,8.85-27c3.51-11.2,6.48-21.89,9.53-30.29,18.55-51.14,58.17-91.71,95.91-129.36,43.77-43.68,87.88-87.4,127.13-135.28,8.71-10.62,16.94-21.44,24.88-32.39,10.54-20.82,23.57-40.21,31.72-62.36,9.62-26.09,15.22-52.82,21.73-79.78,2.93-12.15,5.94-24.48,10.6-36.1a12.06,12.06,0,0,0,1.06-5.13C1645,182,1639.38,179.54,1634,178.92Z"/>
          </g>
          <g>
            <path class="cls-26" d="M1040.77,1026H1045c-2-212.55,17.4-431.79-72.44-628.73-.16-.35-.74.42-.61.75C1057,597,1035.31,814.27,1040.77,1026Z"/>
            <path class="cls-26" d="M1263.38,852.66c0-1.59-1.85.18-1.88,1.1-1.1,41-7.14,82.84-4.58,123.76.22,3.5,3.89-.51,4-2.36C1263.55,934.65,1264.24,893.25,1263.38,852.66Z"/>
            <path class="cls-26" d="M1324.46,544.75c-37.85,44-70.83,88.69-77,148.07-.16,1.46,1.7,0,1.84-.81,9.67-57.35,42.39-100.41,76-146C1326.05,545,1325.6,543.44,1324.46,544.75Z"/>
            <path class="cls-26" d="M1272.11,283.69c-.07-1.49-1.72.17-1.74,1-1.37,53.82-15.94,105.89-28.91,157.78-12,47.87-23.68,99.13-17,148.68.19,1.4,2.11-.69,2.08-1.53-1.93-54.37,9.3-105.38,22.83-157.68C1262,383.27,1274.35,334.37,1272.11,283.69Z"/>
            <path class="cls-26" d="M1279,430.49c-2.21,15.52-4.73,31.58-5,47.26,0,2.65,2.92-.11,3.17-1.4,3-15.31,2.64-31.28,3.93-46.8C1281.26,427.86,1279.13,429.55,1279,430.49Z"/>
            <path class="cls-26" d="M1113,519.16c-3-51-7.9-102.94-18.6-153-.23-1.09-1.66.62-1.53,1.37,9.29,52.31,13.46,106,16.5,159,3,51.9,1.22,104.29,10,155.72.15.85,1.27-.49,1.2-1.07C1113.65,627.36,1116.16,573.2,1113,519.16Z"/>
            <path class="cls-26" d="M1172.7,696.61c-.12-1.44-1.75.13-1.7,1,3,50.6-3.55,102,3.65,152.24.23,1.6,2.41-.77,2.36-1.73C1174.41,797.67,1177.06,746.92,1172.7,696.61Z"/>
            <path class="cls-26" d="M1546.27,395.33c-21,15.6-40.3,34-59.93,51.3q-31.81,27.94-62.07,57.61c-37.88,37.28-73.09,78.44-98.57,125.29-.59,1.1.35,1.65,1,.59,29.06-47.31,65.45-88.5,105.14-127.13,37.27-36.27,79.58-68,115.16-105.92C1547.78,396.24,1547.66,394.3,1546.27,395.33Z"/>
          </g>
          <path class="cls-27" d="M1639,180.1c-27.81,75.76-45,158-108.25,213.26-1.81,1.57-5.42.1-4.41-2.57a101,101,0,0,0,5.46-21.93c-.63.53-1.25,1.1-1.89,1.64-.42-1.72-.8-3.46-1.13-5.2l.38-.41c-5.73-41.18-13-83.61-7.13-124.64,1.8-12.58,6.89-24.19,10.89-36.18,1.3-3.89,2.74-7.77,3.67-11.77,1.56-6.64-3.65-10.89-9.57-5.37-13.43,28-17.77,60.31-18.07,92-.18,19.55.79,39.06,2,58.57a2.4,2.4,0,0,1,1.25,2.15c.07,7.56.39,15,.56,22.23,1,12.57,1.39,25.52-2.72,37.08a71.88,71.88,0,0,1-14.6,29.67c-24.17,29.52-54.1,53.85-80.8,81-53.6,54.48-104.11,113.09-130.31,186-1,2.7-5.24,2.42-5.19-.7.63-37.27,14.13-72.78,31-105.58,8.58-16.72,17.62-33.44,29.31-48.24,2.44-3.09,5.08-6,7.74-8.9-28.41,21.89-54.83,46.36-70.15,78.74-1.1,2.34-5.15,1.24-4.91-1.33,4.23-47.43,38.9-71.25,70.73-101.76-1.59,1.15-3.22,2.25-4.8,3.42a181.85,181.85,0,0,0-32.19,27c-8.92,9.6-15.91,20.39-22,31.86,2.52-8.86,6.58-17.58,10.49-25.9a273.24,273.24,0,0,1,30.1-28.93c1.19-26.84,1.63-53.69,1.85-80.56-.3-15.23-.46-30.46-.17-45.72a314.19,314.19,0,0,1,2.56-33.31c.25-3.41.43-6.82.73-10.21,2.09-23.52,6.56-46.65,11.07-69.78a219.07,219.07,0,0,1,9.12-23.8c16.08-35.3,39.61-66.19,64.8-95.43,1.75-2.84,2.48-5.82.15-9.39-1.77-2.68-3.47-5.38-5.07-8.15-13.69,13.33-27,27-38.81,42.06a242,242,0,0,0-42.78,83c-9.13,31.22-15.14,63.21-22.93,94.78-.76,3.09-4.88,2.09-5.18-.7-2.62-23.84-5.09-48.67-3.41-72.94-.32-.62-.65-1.23-1-1.87-7.14-29.44-6.09-62.29-9.14-92.14-3.29-32.24-10.56-62.6-17.58-94.1a3.83,3.83,0,0,1,.54-2c-.76-3-1.57-6.09-2.46-9.12-.79-2.69-5.59-2.87-10.84-2.14,1.86,12.11,2.81,24.42,4.25,36.07,4.88,39.26,9.39,78,12.19,117.46,2.68,37.82,2.89,74.05-10.24,110.14-12,33.05-29.89,63.21-51.1,91.17-1.25,1.66-4.27,1.84-4.82-.63-5.72-25.65-10.22-52-12.21-78.35-28.88-88.63-34.55-188.53-12.73-279.24-.47-.21-.71-.75-.45-1.78.71-2.73,1.45-5.33,2.28-7.92a79.29,79.29,0,0,0-14.75,3.16c-34.52,138.91-38.94,284.42-.58,423.41.79,2.88-3.34,4.66-4.83,2-24-42.27-40.4-89.25-48.9-137.08-4.8-27-6.82-54-7.85-81-.77,11.7-1.2,23.43-1.14,35.19q-1.65-5.49-3.28-11c-11.26-61.3-24.71-121.93-43.37-181.55a97.17,97.17,0,0,0-5.9-10.74c-3-4.4-13.77,0-17.53.93s-7.6,1.94-11.33,3c29.75,103.15,41.36,211.58,26.71,318.3-.32,2.38-3.78,2.43-4.82.63-.92-1.58-1.74-3.21-2.58-4.82-.71,1.09-1.74,2-2.36.93-26.28-46.43-49.37-94.5-82-137-16.31-21.25-34.3-41.52-51.46-62.38C893.23,212.72,878.9,193,866,172.44c-7.62-12.18-14.47-17.18-28.63-10.72-7.41,3.39-13.34,9.75-17.29,16.7-1.89,3.31-.72,6.55,1.22,9.41,0,.19,0,.35.08.54a1.64,1.64,0,0,1-.17.84c28.47,39.47,65.36,72.19,92.65,112.51.94,1.38,1.76,2.85,2.68,4.23a137,137,0,0,1,16.32,27.34c5.77,15.09,11.2,30.31,16.1,45.69a76.19,76.19,0,0,1,6.88-24.88,2.64,2.64,0,0,1,3.61-1c35.33,25.84,54.8,67,68.45,107.46,12.53,37.2,20.55,75.66,31.51,113.29-.46-34.17-5.19-68.17-5.43-102.38,0-2.71,3.53-3.48,4.92-1.33,22.53,34.85,35.59,74.36,43.84,114.84,22,61.07,23.27,127.42,27.59,191.73,5.59,83,9.36,166,10.48,249.24h46.61c-7.92-56.45-5.75-113.45-9.8-170.23-4-56.5-13.92-113.18-5.72-169.76-1.11-28-1.84-55.9-1.39-83.88a2.65,2.65,0,0,1,5.18-.71c21.45,73.82,24.91,150.55,30.78,226.72,5,65.69,10.4,134-8.83,197.86H1320c-2-59.43-5.22-118.8-6.75-178.25-1-36.5-1.51-73.26-.45-109.93a97,97,0,0,1-8.74,13.14c-9.78,15.77-22.5,30.35-38.07,38.85a75.87,75.87,0,0,1-26.88.91,55.66,55.66,0,0,0,15.21-3c12.91-4.55,23.27-12.43,32.13-22a38,38,0,0,1-3.7,1.62,67.64,67.64,0,0,0,7-5.39c9.83-11.48,17.85-24.89,25.67-37.64,0-.06.08-.07.12-.12a183.05,183.05,0,0,0,8.85-27c3.51-11.2,6.48-21.89,9.53-30.29,18.55-51.14,58.17-91.71,95.91-129.36,43.77-43.68,87.88-87.4,127.13-135.28,8.71-10.62,16.94-21.44,24.88-32.39,10.54-20.82,23.57-40.21,31.72-62.36,9.62-26.09,15.22-52.82,21.73-79.78,2.93-12.15,5.94-24.48,10.6-36.1a12.06,12.06,0,0,0,1.06-5.13C1645.61,183.47,1642.56,181.35,1639,180.1ZM1231,636c-.33,3.42-4.41,3.35-4.81,0-4.58-37.68-1.94-75.43,3-112.84,3.18-41.29,11-85.43,37-116.81,1.79-2.16,4.36.19,4,2.56C1259.51,485.1,1238.55,559.21,1231,636Z"/>
          <path class="cls-28" d="M1015,1026h13.57c.8-45.58,1-91.15,0-136.65-2.84-139.6-10.81-279.31-42.64-415.56-.46-2-2.93,1-2.85,2.1,10,140.37,29.2,280,33.1,420.75C1017.37,939.73,1016.51,982.86,1015,1026Z"/>
          <path class="cls-28" d="M1261.28,274c-11.23,42.36-39.42,72-58,110.22-1.07,2.21-.54,7.11,2.64,3.9,29.69-29.89,51.42-73.26,57.66-114.79C1264,271,1261.61,272.7,1261.28,274Z"/>
          <path class="cls-28" d="M1127.27,204.94c-15.73,52.24-15.41,107.58-1.38,160.28.44,1.67,2.37-1,2.23-2-6.8-53.42-10.45-105.71,2.32-158.66C1131.12,201.71,1127.81,203.15,1127.27,204.94Z"/>
          <path class="cls-28" d="M1432.19,460c-45.42,28.37-109.07,49.1-134.1,100.52-1,2.17.14,4.43,2.18,2.07,37.74-43.59,87-66.38,132.12-100.74C1433,461.36,1433.36,459.23,1432.19,460Z"/>
        </g>
        <path class="cls-29" d="M1618,99.68s81.13-5.19,118.5,26.17-30.37,61.11-80.75,38.78c0,0,19.41,36.91-41.3,25.91,0,0,46.81,38.3,15.26,56-31.22,17.79-72.19-21.43-73.66-38.83,0,0,15.18,49.64-28.59,53.61s-49.79-54.14-49.79-54.14,23.6,66-27.65,75.49c-51.43,9.24-71.47-60.2-71.47-60.2s-.55,18.45-24.76,15c0,0-9.36,38.38-51.12,31.68s-53.61-73.42-36.89-87.59c0,0-18.92,30.23-52.38,16.5-33.24-13.83,1.34-34.59,1.34-34.59s-34.08,24-61-16.43c0,0,18.35,48.23-13,53.95-31.24,5.57-51.17-19.69-51.17-19.69s1.66,49.53-32.44,47.25c-33.88-2.34-64-36-64-36s9.2,22.66-5.88,24c-15.26,1.3-40.21-16.58-40.21-16.58s45.46,70,9.43,82c-35.87,12.15-46.64-40.6-46.64-40.6s-22.78,19.37-53.79,2.45c0,0,50.11,34.58,30.18,51.13-19.78,16.52-66.28-29.28-77.68-70.11,0,0-8.82,35.24-48.31,25.54-39.51-9.92-37.33-48.81-37.33-48.81S719,228.4,689.23,229c-29.67.4-29.93-22.95-29.93-22.95s4.23,45.27-59.47,23.21c0,0,13.34,32.56-41.22,26.11,0,0,89.72,23.48,66.48,55.58-23.44,32.17-78.52-42.33-78.52-42.33s27,49.52-2.62,62.28S483,282.23,493.59,261.11c0,0-1.07,32-40.41,19.67,0,0,9.65,22.67-10,31.5-19.84,8.72-41.92-6.61-53.86-30.55,0,0-28.81,15.9-44.56-7.07,0,0-6.61,38-43.72,29.53-36.82-8.36-36.63-51.66-36.63-51.66s-13,5.78-30.22-11.44c-16.86-17.34.18-4.22.18-4.22s.79,38.8-45,24.29c0,0,49.57,26.44,32.76,38.68-16.6,12.13-71.89-15.92-71.89-15.92s11.61,30.27-19.13,29.93c-30.57-.3-50.7-22.12-50.7-22.12s-22.7,39.41-94.26,14S-55.4,212.94-55.4,212.94s30.48,45.91,66.27,38.16,12.31-84.86,12.31-84.86,39.09,92.07,63.64,87,2.05-48.71,2.05-48.71,32.85,62.55,69.14,45.09-56.89-71.49-56.89-71.49,119,56.57,118.83,20.91c-.3-35.87-25.07-72.72-25.07-72.72s67.73,94.69,97,87.64S326,173.66,326,173.66s36.2,64.75,59.81,39.19C409.3,187,399.88,138,399.88,138s28.68,55.45,14.78,79.64c-14.13,24.14,121.49,14.41,80.68-108.09,0,0,20.93,27.26,17.42,79-3.81,51.81,123.49,20.09,33.81-79.4,0,0,44.94,64.43,72.19,58.37S608.64,91.1,608.64,91.1,642.11,173.2,692,164c49.79-9,36.45-100.68,36.45-100.68s15.24,99.35,62,71.66c47-27.66,37.46-72.47,37.46-72.47s23.38,55.48-33.93,92.19c-56.84,37,15.32,48.54,29.17,25.53s13.22-41.47,13.22-41.47,14.28,27.84,16.84,53.92,49.69,11.58,29.29-23.11-26.8-43.24-26.8-43.24,73.41,70.77,91.37,63.6c18.12-7-14-74-14-74s37,78.1,101.13,62.33c64.48-16,3.19-75.83,3.19-75.83s81,48,80.63,18.79c-.42-29.43-28.1-62.33-28.1-62.33s70.88,81,107.11,64.57,32.17-56.65,32.17-56.65,23.48,39.91-2.77,65.79c-26,25.76,48.24,19.19,59.91-5.12s2.18-51.89,2.18-51.89,34.58,47.51,17.33,76.25c-17.5,28.88,35.1,49.16,52.87,10,0,0,41,54.37,73.59,29.2,32.88-25.25-12.94-97.21-12.94-97.21S1478.71,199,1514,178.14c35.31-20.68-13.06-86.16-13.06-86.16s65.23,91.5,104.59,76.85-18.88-54.72-18.88-54.72S1669.64,138.23,1618,99.68Z"/>
        <g>
          <g>
            <path class="cls-6" d="M-119.69,165.71C-131.83,146.54-99.84,143-99.84,143s-36.35-10.76-32.23-31.07c3.85-19.54,70.55-16.51,75.95-16.31-5-.19-65.24-4.38-57.33-45.33C-105.23,7.21-17.62,35-17.62,35S-54,16.63-41.72-5.45C-29.44-27.37,1.93-2.93,1.93-2.93-9.89-30.67,40.09-30.75,40.09-30.75s-12.65-5,1.09-25.94,68.33,12.58,68.33,12.58c7.59-7.7,13.61-7.77,17.17-6.18-6-5.1-16.22-16.29-15.41-35.61,1.15-27.44,70.12-7.58,70.12-7.58s-8.68-23.57,23.3-24.76c32-1,26.45,34.81,26.45,34.81s10.15-21.15,27-14.32c17.11,6.69,12,26.65,12,26.65,15.12-3.45,32.58,17.74,32.58,17.74s-22.77-46.17,11.42-45.57C348.58-98.47,367-67.15,367-67.15,367.14-75.72,397.2-74,397.2-74s-20.07-34.39,12.24-32.55c32.05,1.73,41.69,28.45,41.69,28.45-.75-3.73-.13-6.51,1.89-8.51,5.43-6.23,19.49-6.29,19.49-6.29s-45-37.18,1.89-50.53c47-13.09,51,16,51,16,5.69-6.84,14.05-2.07,14.05-2.07s-.63-36.13,35.44-22.46c35.89,13.57,20.22,44.44,20.22,44.44,15.92-2,34.16,13.43,34.16,13.43s-24.88-44.72,14.15-49.73,73.47,46.07,73.47,46.07-1.22-20.28,33.45-22.6S787.66-85,787.66-85s22.69-31.92,47.49-30.54c24.64,1.45,19.34,24.17,19.34,24.17s9.91-31.21,36.73-28.31c26.77,3.06,28,30.53,28,30.53,32.39-6.8,51,14.48,51,14.48s-42.73-64.49,2.32-62,63.24,31.08,63.24,31.08c7-18.44,41.37-4.26,41.37-4.26s-29.61-67.31,2.81-72c32.58-4.59,56.25,27,56.25,27,28.75-24.35,67.44,4.6,67.44,4.6s-3.09-27.65,22.94-32.63,47.2,28.65,47.2,28.65-.17-48.31,42.86-45.18,51.14,64.19,51.14,64.19,10.71-51.42,39-34.53c28.72,16.73,18.06,35.67,18.06,35.67s31.73-39.29,49.22-20.25c17.78,19-8.13,47.94-8.13,47.94,34.11,4.78,33.26,24.94,33.26,24.94s32.34-51.63,64.78-30.35c32.73,21.39-3.5,86.42-3.5,86.42s49-40.41,76.89-12.19S1622,1.28,1622,1.28c42.53,12.47,4.59,42.83,4.59,42.83s58.1-19,62.23,12.92C1692.6,89.12,1618,99.68,1618,99.68s81.13-5.19,118.5,26.17-30.37,61.11-80.75,38.78c0,0,19.41,36.91-41.3,25.91,0,0,46.81,38.3,15.26,56-28.77,16.35-65.89-15.65-72.45-34.19,2.46,12.32,5.87,45.73-29.8,49-27.29,2.42-39.81-19-45.45-35.56,2.94,20.39,1.37,50.62-32,56.91-51.43,9.24-71.47-60.2-71.47-60.2s-.55,18.45-24.76,15c0,0-9.36,38.38-51.12,31.68-38.32-6.19-51.33-62.8-40.51-83-6.92,7.88-23.9,22.27-48.76,11.91-29.48-12.34-5.54-30.09.21-33.84-6.15,3.64-35.79,19-59.92-17.18,0,0,18.35,48.23-13,53.95-31.24,5.57-51.17-19.69-51.17-19.69s1.66,49.53-32.44,47.25c-33.88-2.34-64-36-64-36s9.2,22.66-5.88,24c-15.26,1.3-40.21-16.58-40.21-16.58s45.46,70,9.43,82c-35.87,12.15-46.64-40.6-46.64-40.6s-22.78,19.37-53.79,2.45c0,0,50.11,34.58,30.18,51.13-19.78,16.52-66.28-29.28-77.68-70.11,0,0-8.82,35.24-48.31,25.54-39.51-9.92-37.33-48.81-37.33-48.81S719,228.4,689.23,229c-26.94.41-29.68-19.17-30-22.43.33,5,.12,43.31-59.45,22.69,0,0,13.34,32.56-41.22,26.11,0,0,89.72,23.48,66.48,55.58-23.44,32.17-78.52-42.33-78.52-42.33s27,49.52-2.62,62.28c-26.17,11.29-53.78-35.88-52.48-61.3-3.32,8.56-12.77,19.24-38.29,11.21,0,0,9.65,22.67-10,31.5-19.84,8.72-41.92-6.61-53.86-30.55,0,0-28.81,15.9-44.56-7.07,0,0-6.61,38-43.72,29.53-36.82-8.36-36.63-51.66-36.63-51.66s-13,5.78-30.22-11.44v-.19c-1.39,9.45-8.21,32-44.84,20.26,0,0,49.57,26.44,32.76,38.68-16.6,12.13-71.89-15.92-71.89-15.92s11.61,30.27-19.13,29.93c-30.57-.3-50.7-22.12-50.7-22.12s-22.7,39.41-94.26,14S-55.4,212.94-55.4,212.94s-20.29,21.33-34.47,14,4.45-31.55,4.45-31.55-41.83,36-77.89,11.45C-199.59,182.28-119.69,165.71-119.69,165.71Z"/>
            <g>
              <path class="cls-30" d="M1494-58s17.72-38.71,45.2-23.44c27.27,15.2,12.62,74.35,5.23,78.29s42.71-37.46,68.84-20.6C1639.56-7,1564,8.76,1564,8.76s58.53,3.39,52.94,21.81S1516.2,40.81,1516.2,40.81s64.87,13.12,61.11,29.47c-4.15,16.41-45.34,2.44-45.34,2.44s50.1,34.61,27.85,39.24c-22,4.47-70.52-52.43-70.52-52.43s0,29.55-27.19,20.33c0,0,40,33,14.06,40.28-26.3,7.12-72.91-54-72.91-54s-7.91,24.67-29.2,18.43c0,0,17.16,33.6-1.57,37.47-18.43,4.11-49.17-33.71-58.43-65.39,0,0-7,11.2-24.84,1.51,0,0-11.86,15.92-27.76,10.37-15.61-5.57,11.85-47.35,11.85-47.35s-15.67,15-47.62,4.56S1243,0,1243,0s-11.56,2-26.86-11,34.48-16.66,34.48-16.66-63.16-12.42-67.78-32.83S1235-75.6,1235-75.6s-71.92-23.32-58.43-39.19c13.56-16,71,3.78,71,3.78s-18.9-35.66,1.46-34.58c20.16,1.2,30.31,42.29,30.31,42.29s2.94-41.17,31.68-38.64c29.12,2.31,43.3,62.23,43.3,62.23s-6.57-36.45,13.89-35.24,19,17.62,19,17.62,21.37-34.88,41-29.31c20.1,5.43,3.61,34.82,3.61,34.82s14.58-13,26.92-1.42c12.65,11.57-20.77,36.56-20.77,36.56S1472.38-77.28,1494-58Z"/>
              <g>
                <path class="cls-30" d="M899.3-34.79s4.06-45.66,41.2-30.08c37.36,15.47-12,71.22-12,71.22S948.69-15.34,979.91-7,952,21.81,952,21.81,1073.5,38.37,1079.24,67.9c5.7,29.73-113.86-6.48-113.86-6.48s75.91,39.12,64.29,67.59c-11.86,28.65-97.36-28.36-134-71.53,0,0,43.37,53.42,13.87,65.86S832,51.84,825.29,33.1c0,0-5.91,45.07-33.94,31.08C763.67,50.07,755.84,22,755.84,22s8,38-9.71,39.48c-17.72,1.75-23.52-32.21-23.52-32.21s-6.25,32.22-32.14,36.11c-26.12,3.87-16.56-30.21-16.56-30.21s-56.22,32.72-99.1,16.59c-43.16-16,90.58-48.44,90.58-48.44S623.46,3.09,603.71-25c-20-28.22,95.83-1.14,95.83-1.14s-46.2-28.89-31-44.07S739.72-33.7,739.72-33.7s-3.67-58.61,27.51-51.37C798-77.9,797-25,797-25s11.39-66.08,48.14-56.13c36.74,10.11,17,49,17,49S879-54.72,899.3-34.79Z"/>
                <path class="cls-31" d="M900.36-13.63s6.9-43.51,29.69-41.82S938.12-5,918.12.35C897.94,5.69,900.36-13.63,900.36-13.63Z"/>
                <path class="cls-31" d="M964,36.48s96.75,17.68,88.36,29.82C1044.06,78.7,928.25,42.45,964,36.48Z"/>
                <path class="cls-31" d="M949.81,73.14s-3.95-7.22,12.6.75,66.8,32.87,40.13,40.66S953.29,89.13,949.81,73.14Z"/>
                <path class="cls-31" d="M842.16,29.54S857,20.62,876.3,39.23c19.35,18.25,23.32,46.86,9.63,48.16C872,88.82,830.7,31.78,842.16,29.54Z"/>
              </g>
              <g>
                <path class="cls-31" d="M1493.1-23.19s8.41-37.41,27-27-4,40.34-15.18,50.34c0,0,42.94-10.28,48.87,1.78,6.11,11.9-31.42,9.83-31.42,9.83s42.7,3.78,30.72,13.89S1487,22,1487,22s45.45,27.76,28.76,33.19-44.07-31.94-44.07-31.94,12.87,26.57-7.9,26.71c-21,.4-14-32.29-14-32.29s-26.28,7.15-38.68-2.9C1398.54,4.72,1450.73-4,1450.73-4s-37.14-15.68-14.28-27.32c23.09-11.47,46.69,25.76,46.69,25.76S1471-35.24,1493.1-23.19Z"/>
                <path class="cls-31" d="M1363.89,42.93S1417,12,1414.62,30C1412.49,47.84,1343.21,76.3,1363.89,42.93Z"/>
                <path class="cls-31" d="M1335.46,1.41s25.39-2.75,29.87,7.17c4.88,10-42,14.45-62.81,9.64C1281.91,13.51,1316.69.92,1335.46,1.41Z"/>
              </g>
              <g>
                <path class="cls-30" d="M272.43-22.15s-16.12-42.06-57.68-51.49C173-83,213.1-34.31,213.1-34.31s-47.87-15.58-97,3.25c0,0-30-27.34-65.91-11.39,0,0-16.84,19.65,30.29,51.66,0,0-49.44-15.94-51.18,5.67S69.65,36.66,69.65,36.66s-56.55-.29-42.3,27.77S72.6,83.29,72.6,83.29s-32.47,18.86-21.53,43.26C61.82,151.08,115.58,101,115.58,101s7.75,58.45,54.92,69.23-8.08-107.65-8.08-107.65,68,112.15,125.63,89.94c57.32-22.22-46.33-94-46.33-94s39.53,21.6,83.55,11.16S281.5,35.26,281.5,35.26,384,33.84,356.15-5,272.43-22.15,272.43-22.15Z"/>
                <path class="cls-31" d="M250.68-6.62s57.1-12.47,70.86,3.94c13.81,16.58-28.67,29.3-41.25,25.23C267.45,18.71,203.31,6.3,250.68-6.62Z"/>
                <path class="cls-31" d="M215.38,28.35s64.86,7.89,61.52,24.58S178.74,21.07,215.38,28.35Z"/>
                <path class="cls-31" d="M181.86,61.53s8.49-13.21,34.08-8.09c25.78,5.05,75.69,94.08,29.16,75.81C198.91,110.86,174.83,67.26,181.86,61.53Z"/>
                <path class="cls-31" d="M103.12,43.11s58.61-9.54,50.21,3.38C144.69,59.27,97.5,67.05,87.75,67.81S69.77,46.41,103.12,43.11Z"/>
              </g>
            </g>
          </g>
          <path class="cls-7" d="M1618,99.68s81.13-5.19,118.5,26.17-30.37,61.11-80.75,38.78c0,0,19.41,36.91-41.3,25.91,0,0,46.81,38.3,15.26,56-31.22,17.79-72.19-21.43-73.66-38.83,0,0,15.18,49.64-28.59,53.61s-49.79-54.14-49.79-54.14,23.6,66-27.65,75.49c-51.43,9.24-71.47-60.2-71.47-60.2s-.55,18.45-24.76,15c0,0-9.36,38.38-51.12,31.68s-53.61-73.42-36.89-87.59c0,0-18.92,30.23-52.38,16.5-33.24-13.83,1.34-34.59,1.34-34.59s-34.08,24-61-16.43c0,0,18.35,48.23-13,53.95-31.24,5.57-51.17-19.69-51.17-19.69s1.66,49.53-32.44,47.25c-33.88-2.34-64-36-64-36s9.2,22.66-5.88,24c-15.26,1.3-40.21-16.58-40.21-16.58s45.46,70,9.43,82c-35.87,12.15-46.64-40.6-46.64-40.6s-22.78,19.37-53.79,2.45c0,0,50.11,34.58,30.18,51.13-19.78,16.52-66.28-29.28-77.68-70.11,0,0-8.82,35.24-48.31,25.54-39.51-9.92-37.33-48.81-37.33-48.81S719,228.4,689.23,229c-29.67.4-29.93-22.95-29.93-22.95s4.23,45.27-59.47,23.21c0,0,13.34,32.56-41.22,26.11,0,0,89.72,23.48,66.48,55.58-23.44,32.17-78.52-42.33-78.52-42.33s27,49.52-2.62,62.28S483,282.23,493.59,261.11c0,0-1.07,32-40.41,19.67,0,0,9.65,22.67-10,31.5-19.84,8.72-41.92-6.61-53.86-30.55,0,0-28.81,15.9-44.56-7.07,0,0-6.61,38-43.72,29.53-36.82-8.36-36.63-51.66-36.63-51.66s-13,5.78-30.22-11.44c-16.86-17.34.18-4.22.18-4.22s.79,38.8-45,24.29c0,0,49.57,26.44,32.76,38.68-16.6,12.13-71.89-15.92-71.89-15.92s11.61,30.27-19.13,29.93c-30.57-.3-50.7-22.12-50.7-22.12s-22.7,39.41-94.26,14S-55.4,212.94-55.4,212.94s30.48,45.91,66.27,38.16,12.31-84.86,12.31-84.86,39.09,92.07,63.64,87,2.05-48.71,2.05-48.71,32.85,62.55,69.14,45.09-56.89-71.49-56.89-71.49,119,56.57,118.83,20.91c-.3-35.87-25.07-72.72-25.07-72.72s67.73,94.69,97,87.64S326,173.66,326,173.66s36.2,64.75,59.81,39.19C409.3,187,399.88,138,399.88,138s28.68,55.45,14.78,79.64c-14.13,24.14,121.49,14.41,80.68-108.09,0,0,20.93,27.26,17.42,79-3.81,51.81,123.49,20.09,33.81-79.4,0,0,44.94,64.43,72.19,58.37S608.64,91.1,608.64,91.1,642.11,173.2,692,164c49.79-9,36.45-100.68,36.45-100.68s15.24,99.35,62,71.66c47-27.66,37.46-72.47,37.46-72.47s23.38,55.48-33.93,92.19c-56.84,37,15.32,48.54,29.17,25.53s13.22-41.47,13.22-41.47,14.28,27.84,16.84,53.92,49.69,11.58,29.29-23.11-26.8-43.24-26.8-43.24,73.41,70.77,91.37,63.6c18.12-7-14-74-14-74s37,78.1,101.13,62.33c64.48-16,3.19-75.83,3.19-75.83s81,48,80.63,18.79c-.42-29.43-28.1-62.33-28.1-62.33s70.88,81,107.11,64.57,32.17-56.65,32.17-56.65,23.48,39.91-2.77,65.79c-26,25.76,48.24,19.19,59.91-5.12s2.18-51.89,2.18-51.89,34.58,47.51,17.33,76.25c-17.5,28.88,35.1,49.16,52.87,10,0,0,41,54.37,73.59,29.2,32.88-25.25-12.94-97.21-12.94-97.21S1478.71,199,1514,178.14c35.31-20.68-13.06-86.16-13.06-86.16s65.23,91.5,104.59,76.85-18.88-54.72-18.88-54.72S1669.64,138.23,1618,99.68Z"/>
        </g>
      </g>
    </g>
  </g>
</svg>
