<svg xmlns="http://www.w3.org/2000/svg" xmlns:xlink="http://www.w3.org/1999/xlink" width="1600" height="900" viewBox="0 0 1600 900">
  <defs>
    <style>
      .cls-1, .cls-21, .cls-22, .cls-24, .cls-25, .cls-49, .cls-61, .cls-63, .cls-77, .cls-78 {
        fill: none;
      }

      .cls-2 {
        isolation: isolate;
      }

      .cls-3 {
        clip-path: url(#clip-path);
      }

      .cls-4 {
        clip-path: url(#clip-path-2);
      }

      .cls-5 {
        fill: #5e2106;
      }

      .cls-6 {
        fill: #301102;
      }

      .cls-7 {
        fill: url(#linear-gradient);
      }

      .cls-8 {
        fill: url(#linear-gradient-2);
      }

      .cls-21, .cls-22, .cls-24, .cls-25, .cls-29, .cls-49, .cls-61, .cls-63, .cls-77, .cls-78, .cls-9 {
        stroke-miterlimit: 10;
      }

      .cls-29, .cls-49, .cls-77, .cls-9 {
        stroke-width: 0.25px;
      }

      .cls-9 {
        fill: url(#linear-gradient-3);
        stroke: url(#linear-gradient-4);
      }

      .cls-10 {
        fill: url(#linear-gradient-5);
      }

      .cls-11 {
        fill: url(#linear-gradient-6);
      }

      .cls-12 {
        fill: url(#linear-gradient-7);
      }

      .cls-13 {
        fill: #724d2f;
      }

      .cls-14 {
        fill: #543415;
      }

      .cls-15 {
        fill: url(#linear-gradient-8);
      }

      .cls-16 {
        fill: #86e3d0;
      }

      .cls-17 {
        fill: #843812;
      }

      .cls-18 {
        fill: #e68851;
      }

      .cls-19 {
        fill: #024e20;
      }

      .cls-20 {
        clip-path: url(#clip-path-3);
      }

      .cls-21 {
        stroke: #fcbb75;
        opacity: 0.43;
      }

      .cls-22, .cls-49 {
        stroke: #000;
      }

      .cls-22, .cls-24, .cls-25, .cls-61, .cls-78 {
        stroke-width: 0.5px;
      }

      .cls-23 {
        fill: #429b21;
      }

      .cls-24 {
        stroke: #e8a058;
      }

      .cls-25 {
        stroke: #020202;
      }

      .cls-26 {
        fill: #6b3f16;
      }

      .cls-27 {
        fill: url(#linear-gradient-9);
      }

      .cls-28 {
        fill: url(#linear-gradient-10);
      }

      .cls-29 {
        fill: url(#linear-gradient-11);
        stroke: url(#linear-gradient-12);
      }

      .cls-30 {
        fill: url(#linear-gradient-13);
      }

      .cls-31 {
        fill: url(#linear-gradient-14);
      }

      .cls-32 {
        fill: url(#linear-gradient-15);
      }

      .cls-33 {
        fill: url(#linear-gradient-16);
      }

      .cls-34 {
        fill: url(#linear-gradient-17);
      }

      .cls-35 {
        mix-blend-mode: screen;
        fill: url(#linear-gradient-18);
      }

      .cls-35, .cls-36 {
        opacity: 0.5;
      }

      .cls-36 {
        fill: #5f8337;
      }

      .cls-36, .cls-66, .cls-67, .cls-68, .cls-70, .cls-76 {
        mix-blend-mode: multiply;
      }

      .cls-37 {
        fill: url(#linear-gradient-19);
      }

      .cls-38 {
        fill: url(#linear-gradient-20);
      }

      .cls-39 {
        fill: #71db91;
      }

      .cls-40 {
        fill: url(#linear-gradient-21);
      }

      .cls-41 {
        fill: #c28a73;
        opacity: 0.56;
      }

      .cls-42 {
        fill: #ce856b;
      }

      .cls-43 {
        fill: #3beaa2;
      }

      .cls-44 {
        fill: url(#linear-gradient-22);
      }

      .cls-45 {
        fill: url(#linear-gradient-23);
      }

      .cls-46 {
        fill: url(#linear-gradient-24);
      }

      .cls-47 {
        fill: url(#linear-gradient-25);
      }

      .cls-48 {
        fill: #fe6255;
      }

      .cls-50 {
        fill: #454f56;
      }

      .cls-51 {
        fill: #bcc2bf;
      }

      .cls-52, .cls-60, .cls-80 {
        fill: #2c2c2c;
      }

      .cls-53 {
        fill: #5c6771;
      }

      .cls-54 {
        fill: #d13830;
      }

      .cls-55 {
        fill: #b5cad9;
      }

      .cls-56 {
        fill: #603812;
      }

      .cls-57 {
        fill: #ba312d;
      }

      .cls-58 {
        fill: #b7312e;
      }

      .cls-59 {
        fill: #5b6972;
      }

      .cls-60 {
        opacity: 0.23;
      }

      .cls-61 {
        stroke: #f4a762;
      }

      .cls-62 {
        fill: #fcbb75;
      }

      .cls-63 {
        stroke: #c4c3c2;
      }

      .cls-63, .cls-67, .cls-70, .cls-76 {
        opacity: 0.4;
      }

      .cls-64 {
        fill: #755b1a;
      }

      .cls-65 {
        fill: #e8ab5b;
      }

      .cls-66 {
        opacity: 0.8;
      }

      .cls-67 {
        fill: url(#radial-gradient);
      }

      .cls-68 {
        opacity: 0.6;
      }

      .cls-69 {
        fill: url(#radial-gradient-2);
      }

      .cls-71 {
        fill: url(#radial-gradient-3);
      }

      .cls-72 {
        fill: url(#radial-gradient-4);
      }

      .cls-73 {
        fill: url(#radial-gradient-5);
      }

      .cls-74 {
        fill: url(#radial-gradient-6);
      }

      .cls-75 {
        fill: url(#radial-gradient-7);
      }

      .cls-76 {
        fill: url(#radial-gradient-8);
      }

      .cls-77 {
        stroke: #774620;
        opacity: 0.49;
      }

      .cls-78 {
        stroke: #efa760;
      }

      .cls-79, .cls-84 {
        fill: #62350c;
      }

      .cls-80 {
        opacity: 0.34;
      }

      .cls-81 {
        fill: #0c4c0d;
      }

      .cls-82, .cls-84 {
        opacity: 0.53;
      }

      .cls-83 {
        fill: #301c0c;
      }

      .cls-85 {
        fill: #965a1e;
      }

      .cls-86 {
        fill: #697383;
      }

      .cls-87 {
        fill: #9b9e9b;
      }
    </style>
    <clipPath id="clip-path">
      <rect class="cls-1" x="-1050" width="800" height="900"/>
    </clipPath>
    <clipPath id="clip-path-2">
      <rect class="cls-1" x="-1230.53" width="1600" height="900"/>
    </clipPath>
    <linearGradient id="linear-gradient" x1="-454.63" y1="-339.38" x2="-406.03" y2="945.91" gradientUnits="userSpaceOnUse">
      <stop offset="0.21" stop-color="#a2d9d8"/>
      <stop offset="0.22" stop-color="#9ad7d7"/>
      <stop offset="0.24" stop-color="#86d1d4"/>
      <stop offset="0.26" stop-color="#7acdd3"/>
      <stop offset="0.27" stop-color="#76ccd2"/>
      <stop offset="0.32" stop-color="#7acdd2"/>
      <stop offset="0.36" stop-color="#86d1d2"/>
      <stop offset="0.4" stop-color="#9ad6d2"/>
      <stop offset="0.43" stop-color="#addcd2"/>
      <stop offset="0.49" stop-color="#c5e6df"/>
      <stop offset="0.59" stop-color="#eff8f6"/>
      <stop offset="0.64" stop-color="#fff"/>
      <stop offset="1" stop-color="#c8e5d2"/>
    </linearGradient>
    <linearGradient id="linear-gradient-2" x1="-665.51" y1="682.23" x2="553.22" y2="483.47" gradientUnits="userSpaceOnUse">
      <stop offset="0" stop-color="#86e76e"/>
      <stop offset="0.27" stop-color="#7de265"/>
      <stop offset="0.57" stop-color="#6cd954"/>
      <stop offset="0.87" stop-color="#85d866"/>
      <stop offset="0.99" stop-color="#005b97"/>
    </linearGradient>
    <linearGradient id="linear-gradient-3" x1="-419.05" y1="944.12" x2="-440.14" y2="331.79" gradientUnits="userSpaceOnUse">
      <stop offset="0.02" stop-color="#4a8e41"/>
      <stop offset="0.31" stop-color="#4b9042"/>
      <stop offset="0.42" stop-color="#4f9744"/>
      <stop offset="0.49" stop-color="#57a249"/>
      <stop offset="0.55" stop-color="#61b34f"/>
      <stop offset="0.6" stop-color="#6ec957"/>
      <stop offset="0.63" stop-color="#78d95d"/>
    </linearGradient>
    <linearGradient id="linear-gradient-4" x1="-1039.78" y1="1204.47" x2="186.47" y2="364.66" gradientUnits="userSpaceOnUse">
      <stop offset="0" stop-color="#76ccd2"/>
      <stop offset="0" stop-color="#6fc4c0"/>
      <stop offset="0" stop-color="#5db193"/>
      <stop offset="0" stop-color="#40914a"/>
      <stop offset="0" stop-color="#3d8e42"/>
      <stop offset="0" stop-color="#348740"/>
      <stop offset="0" stop-color="#20793c"/>
      <stop offset="0" stop-color="#147039"/>
      <stop offset="0" stop-color="#106d38"/>
      <stop offset="0.01" stop-color="#106d3e"/>
      <stop offset="0.02" stop-color="#0f6d49"/>
      <stop offset="0.05" stop-color="#0e6d50"/>
      <stop offset="0.12" stop-color="#0e6d52"/>
      <stop offset="0.32" stop-color="#106e52"/>
      <stop offset="0.39" stop-color="#177250"/>
      <stop offset="0.45" stop-color="#23794d"/>
      <stop offset="0.49" stop-color="#348249"/>
      <stop offset="0.52" stop-color="#4a8f44"/>
      <stop offset="0.56" stop-color="#659e3e"/>
      <stop offset="0.59" stop-color="#85b036"/>
      <stop offset="0.61" stop-color="#aac52d"/>
      <stop offset="0.63" stop-color="#d3dc24"/>
      <stop offset="0.64" stop-color="#d6de23"/>
      <stop offset="0.81" stop-color="#d6de23"/>
      <stop offset="0.84" stop-color="#d6de23"/>
      <stop offset="0.86" stop-color="#d7df27"/>
      <stop offset="0.88" stop-color="#d9e134"/>
      <stop offset="0.9" stop-color="#dde44a"/>
      <stop offset="0.93" stop-color="#e3e869"/>
      <stop offset="0.95" stop-color="#eaee90"/>
      <stop offset="0.97" stop-color="#f3f5c0"/>
      <stop offset="1" stop-color="#fefef7"/>
      <stop offset="1" stop-color="#fff"/>
    </linearGradient>
    <linearGradient id="linear-gradient-5" x1="104.41" y1="193.32" x2="150.04" y2="193.32" gradientUnits="userSpaceOnUse">
      <stop offset="0" stop-color="#1e6c36"/>
      <stop offset="0" stop-color="#246f3e"/>
      <stop offset="0" stop-color="#337855"/>
      <stop offset="0" stop-color="#4c8679"/>
      <stop offset="0" stop-color="#6f9aac"/>
      <stop offset="0" stop-color="#8dabd8"/>
      <stop offset="0.08" stop-color="#95b1da"/>
      <stop offset="0.21" stop-color="#abc1e1"/>
      <stop offset="0.25" stop-color="#b4c7e3"/>
      <stop offset="0.98" stop-color="#fff"/>
    </linearGradient>
    <linearGradient id="linear-gradient-6" x1="5.96" y1="189.23" x2="120.44" y2="189.23" gradientUnits="userSpaceOnUse">
      <stop offset="0" stop-color="#1e6c36"/>
      <stop offset="0" stop-color="#246f3e"/>
      <stop offset="0" stop-color="#337855"/>
      <stop offset="0" stop-color="#4c8679"/>
      <stop offset="0" stop-color="#6f9aac"/>
      <stop offset="0" stop-color="#8dabd8"/>
      <stop offset="0.14" stop-color="#95b1db"/>
      <stop offset="0.37" stop-color="#acc2e2"/>
      <stop offset="0.65" stop-color="#d0ddef"/>
      <stop offset="0.95" stop-color="#fff"/>
    </linearGradient>
    <linearGradient id="linear-gradient-7" x1="-21.03" y1="198.41" x2="34.39" y2="198.41" xlink:href="#linear-gradient-5"/>
    <linearGradient id="linear-gradient-8" x1="-421.94" y1="1022.7" x2="-426.15" y2="-329.85" gradientUnits="userSpaceOnUse">
      <stop offset="0.32" stop-color="#bdfffd"/>
      <stop offset="0.44" stop-color="#b7fafb"/>
      <stop offset="0.59" stop-color="#a7edf7"/>
      <stop offset="0.76" stop-color="#8cd7ef"/>
      <stop offset="0.93" stop-color="#68bae5"/>
    </linearGradient>
    <clipPath id="clip-path-3">
      <rect class="cls-1" width="1600" height="900"/>
    </clipPath>
    <linearGradient id="linear-gradient-9" x1="775.9" y1="-339.38" x2="824.51" y2="945.91" xlink:href="#linear-gradient"/>
    <linearGradient id="linear-gradient-10" x1="565.02" y1="682.23" x2="1783.75" y2="483.47" xlink:href="#linear-gradient-2"/>
    <linearGradient id="linear-gradient-11" x1="811.49" y1="944.12" x2="790.39" y2="331.79" xlink:href="#linear-gradient-3"/>
    <linearGradient id="linear-gradient-12" x1="190.75" y1="1204.47" x2="1417.01" y2="364.66" xlink:href="#linear-gradient-4"/>
    <linearGradient id="linear-gradient-13" x1="1334.94" y1="193.32" x2="1380.58" y2="193.32" xlink:href="#linear-gradient-5"/>
    <linearGradient id="linear-gradient-14" x1="1236.49" y1="189.23" x2="1350.97" y2="189.23" xlink:href="#linear-gradient-6"/>
    <linearGradient id="linear-gradient-15" x1="1209.51" y1="198.41" x2="1264.92" y2="198.41" xlink:href="#linear-gradient-5"/>
    <linearGradient id="linear-gradient-16" x1="231.01" y1="207.15" x2="323.67" y2="207.15" xlink:href="#linear-gradient-5"/>
    <linearGradient id="linear-gradient-17" x1="191.47" y1="207.15" x2="268.47" y2="207.15" xlink:href="#linear-gradient-5"/>
    <linearGradient id="linear-gradient-18" x1="373.37" y1="617.83" x2="373.37" y2="586.45" gradientUnits="userSpaceOnUse">
      <stop offset="0" stop-color="#09170a"/>
      <stop offset="0.58" stop-color="#2d550c"/>
      <stop offset="1" stop-color="#16623e"/>
    </linearGradient>
    <linearGradient id="linear-gradient-19" x1="808.59" y1="1022.7" x2="804.38" y2="-329.85" xlink:href="#linear-gradient-8"/>
    <linearGradient id="linear-gradient-20" x1="5493.01" y1="495.22" x2="5511.32" y2="444.87" gradientTransform="matrix(-1, 0, 0, 1, 6184.56, 0)" gradientUnits="userSpaceOnUse">
      <stop offset="0.16" stop-color="#129ea2"/>
      <stop offset="0.16" stop-color="#149fa3"/>
      <stop offset="0.25" stop-color="#37b4b1"/>
      <stop offset="0.34" stop-color="#54c5bc"/>
      <stop offset="0.43" stop-color="#6ad2c5"/>
      <stop offset="0.53" stop-color="#7adccb"/>
      <stop offset="0.65" stop-color="#83e1cf"/>
      <stop offset="0.81" stop-color="#86e3d0"/>
    </linearGradient>
    <linearGradient id="linear-gradient-21" x1="620.03" y1="620.38" x2="615.35" y2="380.34" gradientTransform="translate(127.04)" gradientUnits="userSpaceOnUse">
      <stop offset="0" stop-color="#907d61"/>
      <stop offset="0.36" stop-color="#6d6b4d"/>
      <stop offset="0.58" stop-color="#5e6345"/>
    </linearGradient>
    <linearGradient id="linear-gradient-22" x1="698.56" y1="430.98" x2="561.89" y2="107.17" gradientTransform="translate(127.04)" gradientUnits="userSpaceOnUse">
      <stop offset="0.26" stop-color="#55b093"/>
      <stop offset="0.39" stop-color="#61c489"/>
      <stop offset="0.56" stop-color="#6ddb7d"/>
      <stop offset="0.68" stop-color="#72e379"/>
    </linearGradient>
    <linearGradient id="linear-gradient-23" x1="935.99" y1="504.92" x2="780.82" y2="352.96" gradientTransform="translate(127.04)" gradientUnits="userSpaceOnUse">
      <stop offset="0.23" stop-color="#2fac76"/>
      <stop offset="0.54" stop-color="#31ad79"/>
      <stop offset="0.74" stop-color="#36b281"/>
      <stop offset="0.88" stop-color="#3db98e"/>
    </linearGradient>
    <linearGradient id="linear-gradient-24" x1="514.05" y1="435.23" x2="472.03" y2="284.28" xlink:href="#linear-gradient-22"/>
    <linearGradient id="linear-gradient-25" x1="688.28" y1="477.07" x2="623.97" y2="255.75" gradientTransform="translate(127.04)" gradientUnits="userSpaceOnUse">
      <stop offset="0.07" stop-color="#39a57e"/>
      <stop offset="0.67" stop-color="#72e379"/>
    </linearGradient>
    <radialGradient id="radial-gradient" cx="-1046.03" cy="565.08" r="283.63" gradientTransform="translate(1118.6)" gradientUnits="userSpaceOnUse">
      <stop offset="0" stop-color="#fff"/>
      <stop offset="0.13" stop-color="#fffefb"/>
      <stop offset="0.26" stop-color="#fdf9f0"/>
      <stop offset="0.38" stop-color="#fbf2dc"/>
      <stop offset="0.5" stop-color="#f9e8c1"/>
      <stop offset="0.62" stop-color="#f5da9e"/>
      <stop offset="0.74" stop-color="#f1ca74"/>
      <stop offset="0.86" stop-color="#ecb741"/>
      <stop offset="0.98" stop-color="#e6a108"/>
      <stop offset="1" stop-color="#e59e00"/>
    </radialGradient>
    <radialGradient id="radial-gradient-2" cx="-705.63" cy="398.5" r="246.96" gradientTransform="translate(854.49 36.69) scale(1.1 1.27)" xlink:href="#radial-gradient"/>
    <radialGradient id="radial-gradient-3" cx="-791.49" cy="389.36" r="246.97" gradientTransform="translate(913.36 35.21) scale(1.08 1.28)" xlink:href="#radial-gradient"/>
    <radialGradient id="radial-gradient-4" cx="-709.26" cy="464.96" r="246.95" gradientTransform="translate(856.21 15.2) scale(1.1 1.14)" xlink:href="#radial-gradient"/>
    <radialGradient id="radial-gradient-5" cx="-1049.13" cy="427.87" r="246.95" gradientTransform="translate(1118.6 24.38) scale(1 1.2)" xlink:href="#radial-gradient"/>
    <radialGradient id="radial-gradient-6" cx="-1063.23" cy="537.89" r="286.48" xlink:href="#radial-gradient"/>
    <radialGradient id="radial-gradient-7" cx="-1370.23" cy="525.61" r="301.93" gradientTransform="translate(1318.43) scale(0.93 1)" xlink:href="#radial-gradient"/>
    <radialGradient id="radial-gradient-8" cx="-1059.98" cy="564.68" r="283.19" xlink:href="#radial-gradient"/>
  </defs>
  <g class="cls-2">
    <g id="Layer_1" data-name="Layer 1">
      <g id="SC_23">
        <g id="SC_05">
          <g class="cls-3">
            <g class="cls-4">
              <polygon class="cls-5" points="149.47 829.06 490.88 843.79 489.84 853.9 149.47 841.48 149.47 829.06"/>
              <ellipse class="cls-6" cx="224.75" cy="837.75" rx="4.16" ry="3.19" transform="translate(-613.79 1059.52) rotate(-89.8)"/>
              <ellipse class="cls-6" cx="299.8" cy="840.83" rx="4.16" ry="3.19" transform="translate(-542.09 1137.64) rotate(-89.8)"/>
              <ellipse class="cls-6" cx="365" cy="843.55" rx="4.16" ry="3.19" transform="translate(-479.84 1205.56) rotate(-89.8)"/>
              <g>
                <rect class="cls-7" x="-1240.74" y="-4.52" width="1619.2" height="572.9"/>
                <path class="cls-8" d="M-795,533.05c482.22-49.57,647.43-65.21,666.75-65.47,14.68-.2,25-.84,45.75-1.56,189.49-6.63,285-10.08,320.3-17.15,91.06-18.21,115.54-37.95,141.28-24.94C391.45,430.16,398.47,679,398.47,679l-1160.54,8.18Z"/>
                <path class="cls-9" d="M-1235.88,660.3c545.24,26.38,948.22,31.24,1076,27C4.81,681.76,87.16,679,126.37,661c7.77-3.57,35.7-17.45,69.72-12.21,22.95,3.54,40.36,14.5,51.08,22.74a420.44,420.44,0,0,1,50.05-27.08c32.6-14.88,49.19-22.19,63.77-15.82,18.69,8.16,24.64,33.07,26.54,44l-18.06,245.2H-1235.88Z"/>
                <g>
                  <path class="cls-10" d="M108.81,185.36S139.4,178,150,193.8c.85,9.11-45.62,9.21-45.62,9.21Z"/>
                  <path class="cls-11" d="M6.57,193s31.3-28.35,78.76-20.25,40.11,31.76,17.12,33.21-68,1.7-77.78,0S3.15,204.71,6.57,193Z"/>
                  <path class="cls-12" d="M-20.83,200.21s26.91-5.85,33.76-6.3,26.9.21,20.06,8.43c-10.77,1.47-36.69-.12-42.56,0S-22.29,204.71-20.83,200.21Z"/>
                </g>
                <path class="cls-13" d="M97.39,678.15C42.81,682.21-16.49,672.94-71.53,674c-72.13,1.37-114.8-8.19-187.06-7.08-74.09,1.14-208-12.8-282-15.25-64.07-2.13-99.24,12.35-163.29,10.26-65.65-2.14-130.25-9.49-195.91-11.41-47.4-1.38-93.33-3.4-140.4-6.28-38.82-2.38-76-8.56-114.55-10.92-36.64-2.24-74.84-6.11-111.78-6.5v216H392L391.47,700c-46.33,4.07-96-16.45-141-10C197.22,697.64,152.15,674.1,97.39,678.15Z"/>
                <path class="cls-14" d="M404.39,793.19c-.11-.51-.2-1-.29-1.51H368c-21.21,0-42.57.2-63.78,0-18.09-.16-36.46-.7-53-3.11-1-.14-.93-.63,0-.78,45.88-7.67,100.53-9.11,152.51-9.78a38.64,38.64,0,0,1-8.2-12.3q-38.14.18-76.29.57c-24.95.77-49.77,1.85-74.15,3.6-23.09,1.68-45.69,4-68.73,5.69-22.09,1.65-44.45,3.08-67.06,3.94-44.87,1.74-91,1.45-136.14.65-34.28-.61-68.5-1.78-102.08-3.91-97-1.72-194.19-4.79-291-1.83,38.24,4.06,79.08,5.46,119.28,6.34,38.15.84,76.59,1.58,114.83,1.91,37.55.31,75.18-.12,112.71.69,33.9.74,69,2.29,99,7.47,1.07.19.9.58,0,.8-21.7,4.8-52,5.52-77.95,5.75-31.17.33-62.33-.41-93.41-1-39.63-.81-79.51-.67-119.21-.87-46.56-.23-93.08-.54-139.59-1.19-49.14-.7-97.77-2.11-146.64-3.83-48.19-1.69-96.48-3.28-145-3.57-48.37-.29-96.72,0-145.07-.35-20.42-.13-40.93-.09-61.33-.33-15.17-.18-31.25-.75-43.34-3.78-.66-.16-.54-.48,0-.65,16.62-5.18,43.59-6.47,66.24-7.15,31.26-.94,62.73-.6,94.06-.34,37.83.29,75.69.12,113.52.25q37,.09,74.11,0c18.68-.08,37.39-.41,56.08-.18,16.81.2,33.7.55,50.54.24,15.61-.3,32.32-1.05,45.21-3.92-52.63-5-107.57-7-162.5-7.93-54.69-1-109.46-1.37-164.08-2.58-49.4-1.09-98.56-3.79-148.05-4.43-23.08-.31-46.43.45-69.47.79-28,.37-56.51.79-84.39-.29-29.51-1.15-41.26-1-44.34-6.33-3.63-6.29,5.78-17.56,17.71-22.91,22.88-10.26,43.65,6.33,89.67,13.68,25.75,4.12,19.38-2.18,147.5-6.62,21.41-.74,41.79-1.58,61.57-4.31,15.84-2.2,30.44-4.7,47.4-6.06s37.71-2.16,51.37-5.75c2.22-.59,1.61-.54-.53-1.09-1.44-.36-2.89-.72-4.45-1-2.5-.52-5.07-1-7.81-1.36-6-.82-12.38-1.37-18.85-1.69-30.06-1.45-60.75.47-90.83.81-25.86.31-54.28-.22-73.51-6.12-.72-.24-.48-.57.3-.72,15.81-3.42,36-4.73,54.86-5.67,21.13-1.05,42.45-1.52,63.7-2.26,19.59-.68,39.11-1.59,58.73-2.22,23.58-.78,47.27-1.55,70.38-3.18,17-1.18,34.18-2.75,49.25-5.46,10.19-1.84,28.91-5.41,27.92-9.69a3.19,3.19,0,0,0-1.54-1.72c-57.43-3.53-114.68-8-172.54-9.51-62.19-1.65-122.46-4-184.21-7.48-50.94-2.84-99.73-10.19-150.31-13-48.07-2.67-98.2-7.27-146.67-7.74v6.08q14.82.36,29.57,1c93.13,4,182.1,13.87,272.48,21.38,22.49,1.88,45.17,3.63,68.18,4.83,21.63,1.15,43.1,1.67,65,2,35.48.52,74.62,1.14,105.54,7.06.89.17,1,.61,0,.79-18.23,2.79-38.76,3.8-58.94,4.16-38.3.68-76.56-.63-114.84-.63-43.57,0-86.22,3.12-128.46,6.1-23.78,1.67-47.56,3.71-71.59,5-15.52.87-31.32,1.25-46.92,2-16.77.79-34.56,1.73-49.62,4.24l-1,.17a291.85,291.85,0,0,0-69.35,7c0,62-3.85,92-3.85,154l1637,24c-4.23-22.5-.15-46.78,5.92-68.37C408,810.79,406.27,802,404.39,793.19Zm-1486.52-78.36c28.81.39,57.6.06,86.43,0,25.37-.06,50.58.72,76,1,30.8.27,67.59.15,94.28,5.53.69.15.94.39.52.63-7,3.93-17.75,4.53-31.35,4.92-12.38.34-24.66,1.43-36.94,2.06-10.57.54-21.22,1-31.88,1.42-27.59,1.05-61.54,2-72.45,2.12-40.28.27-64.16-9.43-91.77-17.79Z"/>
                <rect class="cls-15" x="-1227.53" width="1606.41" height="512.31"/>
                <g>
                  <path class="cls-16" d="M254.47,509c1.19-10.05,2.08-29.59-8.06-44.14a42.93,42.93,0,0,0-3.94-4.86C241,458.48,224,440.66,210.7,446.34c-8.32,3.54-10.89,14.41-11.49,17.37-2.41-4.78-8.09-8-14.52-8.35a19.22,19.22,0,0,0-14.87,5.83,14.79,14.79,0,0,0-6.95-12.34c-6.78-4.36-17.35-4.47-25.65.09-2.25-8.1-10.51-14.18-20.31-15.17-11.58-1.17-23.23,5-26.45,14.66-10.83-8.8-27.18-9.84-37.13-3.76-10.71,6.54-9.2,18.36-9.1,19-7.66-7.38-20.18-10.44-31.53-7.75-10.35,2.46-18.17,9.33-20.31,17.79-6.31-4.38-15.07-4.81-20.68-1.52a11.55,11.55,0,0,0-5.77,9.68,23.91,23.91,0,0,0-11.62,1.74,16.29,16.29,0,0,0-9,8.85c.52-14.09-14.43-14.26-23-9.87,6.14-9.42-16-33.27-37.41-10.88A20.45,20.45,0,0,0-128.46,464c-9-1.14-19.07,3.85-22.9,12.46a48.22,48.22,0,0,0-21.91-7.11c-2-.15-21.22-1.38-28.59,7.53a16.29,16.29,0,0,0-3.21,7.32c-3.73,16.77-.26,39.72,1.54,49.79,1,5.67,26.06,12.32,27.06,18C-80.24,541.75-9.41,535,87,527.23c44.65-3.59,90.76-10.16,135.45-13.23Z"/>
                  <path class="cls-16" d="M385.94,512.15q-1-6.06-2.1-12.1c-1.66-9.41-1.06-17.59,3.41-26.06.09-.16.19-.32.28-.49-1.06-13-1.87-26-2.18-39A36.9,36.9,0,0,0,366.7,434c-10.35,2.46-18.17,9.33-20.31,17.79-6.31-4.38-15.07-4.82-20.68-1.52a11.55,11.55,0,0,0-5.77,9.68,23.91,23.91,0,0,0-11.62,1.74,16.25,16.25,0,0,0-8.95,8.85c.52-14.09-14.43-14.26-23-9.87,6.14-9.42-16-33.27-37.41-10.88A20.45,20.45,0,0,0,225.54,442c-9-1.14-19.07,3.85-22.9,12.46a48.22,48.22,0,0,0-21.91-7.11c-2-.15-21.22-1.38-28.59,7.53a16.29,16.29,0,0,0-3.21,7.32c-3.73,16.77-.26,39.72,1.54,49.79-1.34,2.33-2.67,4.67-4,7C222.93,513.09,303.37,512.32,385.94,512.15Z"/>
                </g>
                <polygon class="cls-17" points="166 604.04 187.03 604.01 187.5 688.27 189.69 688.33 189.57 601.61 166 604.04"/>
                <polygon class="cls-5" points="116.45 615.04 457.86 628.53 456.82 637.79 116.45 626.42 116.45 615.04"/>
                <polygon class="cls-18" points="210.65 609.11 227.47 609.45 229.86 648.72 229.18 691.74 207.93 691.45 210.65 609.11"/>
                <path class="cls-18" d="M281.65,608.78l-5.36,82.32,17.16.35,8.2-71s1.12-6.82-3.52-11.33Z"/>
                <polygon class="cls-18" points="348.35 610.45 370.46 610.91 366.23 700.11 347.44 698.2 348.35 610.45"/>
                <polygon class="cls-17" points="210.65 609.11 223.96 611.19 227.17 647.66 226.47 691.68 229.18 691.74 229.77 647.11 227.47 609.45 210.65 609.11"/>
                <path class="cls-17" d="M281.65,608.78l15.32,2.1a18.37,18.37,0,0,1,2.63,10.33c-.26,6.1-7.71,70.21-7.71,70.21l1.56,0,8.09-70s1.46-8.73-3.41-12.32Z"/>
                <polygon class="cls-17" points="350.35 608.96 369.95 612.33 366.13 700.19 369.08 699.64 372.55 609.42 350.35 608.96"/>
                <polygon class="cls-18" points="166 604.04 188.2 604.61 188.41 688.16 168.86 689.24 166 604.04"/>
                <ellipse class="cls-6" cx="137.71" cy="624.9" rx="3.81" ry="3.19" transform="translate(-487.91 759.28) rotate(-89.69)"/>
                <ellipse class="cls-6" cx="177.2" cy="620.64" rx="3.75" ry="3.19" transform="translate(-447.8 781.81) rotate(-88.52)"/>
                <ellipse class="cls-6" cx="217.12" cy="625.45" rx="3.81" ry="3.19" transform="translate(-409.48 839.23) rotate(-89.69)"/>
                <ellipse class="cls-6" cx="290.85" cy="624.24" rx="3.81" ry="3.19" transform="translate(-334.94 911.76) rotate(-89.69)"/>
                <ellipse class="cls-6" cx="357.8" cy="628.59" rx="3.81" ry="3.19" transform="translate(-272.7 983.03) rotate(-89.69)"/>
                <polygon class="cls-5" points="-230.55 605.99 146.85 616.24 148.13 629.23 -230.55 617.57 -230.55 605.99"/>
                <polygon class="cls-18" points="1.34 597.12 23.46 597.56 21.02 677.05 1.34 677.61 1.34 597.12"/>
                <path class="cls-18" d="M46.77,597.69l21.58-3q-.93,44.13-1.88,88.25l-21.13-.56Z"/>
                <polygon class="cls-18" points="105.44 596.75 127.64 597.32 127.77 683.98 108.22 685.12 105.44 596.75"/>
                <polygon class="cls-17" points="105.44 596.75 125.11 599.72 125.57 683.93 127.77 683.98 127.64 597.32 105.44 596.75"/>
                <ellipse class="cls-6" cx="115.34" cy="613.97" rx="3.89" ry="3.19" transform="translate(-501.39 713.47) rotate(-88.52)"/>
                <polygon class="cls-17" points="2.92 595.82 22.55 598.65 19.66 677.56 22.59 677.04 25.12 596.02 2.92 595.82"/>
                <polygon class="cls-17" points="46.47 597.93 67.65 594.98 66.47 682.93 69.47 681.85 70.36 591.45 46.47 597.93"/>
                <ellipse class="cls-6" cx="10.8" cy="614.34" rx="3.62" ry="3.19" transform="translate(-603.6 620.48) rotate(-89.57)"/>
                <ellipse class="cls-6" cx="54.69" cy="612.71" rx="3.62" ry="3.19" transform="translate(-558.42 662.75) rotate(-89.57)"/>
                <polygon class="cls-5" points="-210.53 814.49 146.86 828.54 145.77 838.17 -210.53 826.33 -210.53 814.49"/>
                <polygon class="cls-18" points="40.34 798.72 62.46 799.19 59.09 887.51 38.92 891.23 40.34 798.72"/>
                <path class="cls-18" d="M123.94,799.13s7.54-8.73,19.54-1.36c0,0,5.11,61.47,4.62,93l-19.56,3.14S122.37,813.77,123.94,799.13Z"/>
                <polygon class="cls-17" points="42.35 797.16 61.95 800.5 58.23 886.86 61.17 886.32 64.55 797.64 42.35 797.16"/>
                <path class="cls-17" d="M125.86,796.43s11.22-3.9,17.5,1.84c0,0,4.52,86.61,4.11,93.38l3-2.36s-.53-46.67-1.65-62.12c-.92-12.74-3.43-32-3.43-32S135.34,787.25,125.86,796.43Z"/>
                <ellipse class="cls-6" cx="49.8" cy="829.6" rx="3.97" ry="3.19" transform="translate(-780.01 875.79) rotate(-89.75)"/>
                <ellipse class="cls-6" cx="133.69" cy="829" rx="3.97" ry="3.19" transform="translate(-695.88 959.08) rotate(-89.75)"/>
                <polygon class="cls-18" points="217.02 800.09 238.21 800.57 235.19 891.83 215.68 891.39 217.02 800.09"/>
                <path class="cls-18" d="M294.68,804.47s-5.77,3.59-2,46.82l3.74,43.23,18.84.42-4.36-92.74Z"/>
                <polygon class="cls-18" points="354.93 803.19 377.13 803.69 378.13 896.36 358.6 897.67 354.93 803.19"/>
                <polygon class="cls-17" points="217.02 800.09 235.1 803.13 231.66 891.75 235.19 891.83 238.21 800.57 217.02 800.09"/>
                <polygon class="cls-17" points="294.69 804.47 308.57 804.79 313.51 894.9 315.23 894.94 310.87 802.2 294.69 804.47"/>
                <polygon class="cls-17" points="354.93 803.19 374.62 806.27 375.94 896.31 378.13 896.36 377.13 803.69 354.93 803.19"/>
                <g>
                  <path class="cls-19" d="M163.55,686.8s7.23-5.53,21.19-6.89-15-7.25-25.33,6.89q-19.29-29-18.61-29.46T163.55,686.8Z"/>
                  <path class="cls-19" d="M143.9,687.58s21.2-17.67,33.6-22.39-11.89-5.1-28.43,9.63C149.07,674.82,140.8,683.65,143.9,687.58Z"/>
                  <path class="cls-19" d="M137.7,687.58s14.08-28.67,20.48-32.21-10.14-5.5-20.48,17.87C137.7,673.24,133.57,685.62,137.7,687.58Z"/>
                  <path class="cls-19" d="M130.21,687.58s5.42-26.32,10.59-30.24S121.16,661.66,130.21,687.58Z"/>
                  <path class="cls-19" d="M127.11,687.58s.25-21.92-10.86-25.3S122.71,676.58,127.11,687.58Z"/>
                  <path class="cls-19" d="M123.49,687.58s-9-9-26-9.58S112.89,671.08,123.49,687.58Z"/>
                  <path class="cls-19" d="M122,687.58a32.56,32.56,0,0,0-24.63-9.43C81.88,678.94,118.23,684.44,122,687.58Z"/>
                </g>
                <path class="cls-13" d="M-429,744c.51,20-173,56.67-11.23,40.33s199.09,26,303.92,10.85C-37.67,780.89,69.81,822,83,800c1-1.74.32-2.5,1.34-4.86,9.37-21.8,62.69-17.41,96.13-16.18,82.11,3,155.69-8.82,156-14,.22-3.66-35.63-10.88-195-26.55C31.91,732.49-85.09,730.18-429,744Z"/>
                <path class="cls-14" d="M-125.08,757.58s92.61-11.43,135.08-3S-125.08,757.58-125.08,757.58Z"/>
                <ellipse class="cls-14" cx="145.97" cy="713.5" rx="83.5" ry="3.5"/>
                <ellipse class="cls-14" cx="181.97" cy="784.5" rx="241.5" ry="10.5"/>
              </g>
            </g>
          </g>
        </g>
      </g>
      <g class="cls-20">
        <polyline class="cls-21" points="19.74 377.65 24.89 382.68 24.89 709.11"/>
        <line class="cls-22" x1="26.17" y1="384.08" x2="27.09" y2="706.51"/>
        <path class="cls-22" d="M31.32,384.08l-9-9.65Z"/>
        <path class="cls-23" d="M60.6,624.32s5.33-36.73,26.66-41.18C87.26,583.14,79.6,611,60.6,624.32Z"/>
        <path class="cls-23" d="M77.8,624.32s9.41-22.35,30.1-31C107.9,593.32,110,625,77.8,624.32Z"/>
        <path class="cls-23" d="M60.6,624.32s-29.92-16.46-31-28.05S46.6,589,60.6,624.32Z"/>
        <polygon class="cls-5" points="1380 829.06 1721.41 843.79 1720.37 853.9 1380 841.48 1380 829.06"/>
        <ellipse class="cls-6" cx="1455.28" cy="837.75" rx="4.16" ry="3.19" transform="matrix(0, -1, 1, 0, 612.37, 2290.04)"/>
        <ellipse class="cls-6" cx="1530.33" cy="840.83" rx="4.16" ry="3.19" transform="translate(684.07 2368.16) rotate(-89.8)"/>
        <ellipse class="cls-6" cx="1595.53" cy="843.55" rx="4.16" ry="3.19" transform="translate(746.32 2436.08) rotate(-89.8)"/>
        <line class="cls-22" x1="99.18" y1="127.1" x2="-6.65" y2="247.25"/>
        <line class="cls-24" x1="96.6" y1="127.1" x2="-9.23" y2="247.25"/>
        <line class="cls-22" x1="53.25" y1="126.21" x2="-6.65" y2="192.89"/>
        <line class="cls-24" x1="51.82" y1="126.21" x2="-8.09" y2="192.89"/>
        <line class="cls-22" x1="73.8" y1="384.08" x2="74.72" y2="706.51"/>
        <polygon class="cls-18" points="55.05 778.06 76.25 778.45 73.22 852.16 53.72 851.81 55.05 778.06"/>
        <polygon class="cls-17" points="55.05 778.06 73.13 780.52 69.69 852.1 73.22 852.16 76.25 778.45 55.05 778.06"/>
        <ellipse class="cls-6" cx="62.78" cy="797.17" rx="3.36" ry="3.19" transform="translate(-735.39 845.47) rotate(-88.96)"/>
        <line class="cls-25" x1="99.26" y1="384.37" x2="91.07" y2="373.43"/>
        <g>
          <polyline class="cls-26" points="1 312 1 319.39 218 320 211 312"/>
          <rect class="cls-27" x="-10.2" y="-4.52" width="1619.2" height="572.9"/>
          <path class="cls-28" d="M435.56,533.05c482.22-49.57,647.43-65.21,666.75-65.47,14.69-.2,25-.84,45.75-1.56,189.49-6.63,285-10.08,320.3-17.15,91.06-18.21,115.54-37.95,141.28-24.94C1622,430.16,1629,679,1629,679L468.46,687.18Z"/>
          <path class="cls-29" d="M-5.35,660.3c545.24,26.38,948.22,31.24,1076,27,164.69-5.51,247-8.26,286.24-26.24,7.78-3.57,35.7-17.45,69.72-12.21,23,3.54,40.36,14.5,51.08,22.74a420.71,420.71,0,0,1,50.06-27.08c32.59-14.88,49.18-22.19,63.76-15.82,18.69,8.16,24.64,33.07,26.54,44L1600,917.82H-5.35Z"/>
          <g>
            <path class="cls-30" d="M1339.34,185.36s30.59-7.41,41.23,8.44c.84,9.11-45.63,9.21-45.63,9.21Z"/>
            <path class="cls-31" d="M1237.1,193s31.3-28.35,78.76-20.25S1356,204.52,1333,206s-68,1.7-77.78,0S1233.68,204.71,1237.1,193Z"/>
            <path class="cls-32" d="M1209.71,200.21s26.9-5.85,33.75-6.3,26.91.21,20.06,8.43c-10.76,1.47-36.69-.12-42.56,0S1208.24,204.71,1209.71,200.21Z"/>
          </g>
          <g>
            <path class="cls-33" d="M241.22,204.5s59.66-16.77,81.76,0c6.08,10.17-29.17,13.4-70.16,12.65S241.22,204.5,241.22,204.5Z"/>
            <path class="cls-34" d="M191.47,210.45s52.48-15.24,76.79-5.08C271.58,213,234.56,214,191.47,210.45Z"/>
          </g>
          <path class="cls-35" d="M20.43,596.05c27.17.33,54.16,2,81.35,2.18,33.59.27,66.8-2.17,100.44-1.13,19,.59,37.91,1.32,56.92,1.7,17.18.32,34.34.17,51.45.93,35.11,1.57,69.24,5.58,103.91,8.15,73.77,5.46,148.69,6.21,223.57,7.4,27,.44,53.22.11,79.83-.76a144.29,144.29,0,0,1,14.77-1.28c8.36-.42,16.75-.6,25.13-.64-4.6-.1-8.6-.14-11.72-.14-28.34,0-89.72,2.38-122.78,1.19s-47.22,0-94.45-1.8-102.32-6.56-135.37-7.75-70.84-6-100.74-6.59-53.52,1.2-96-1.19-81.84,1.79-125.91-.6C40.94,594.1,9,592.48-11.06,591.61v4.89C-.54,596,10.22,595.93,20.43,596.05Z"/>
          <path class="cls-13" d="M1327.92,678.15C1273.34,682.21,1214,672.94,1159,674c-72.13,1.37-114.8-8.19-187.06-7.08-74.09,1.14-208-12.8-282-15.25-64.07-2.13-99.24,12.35-163.29,10.26-65.65-2.14-130.25-9.49-195.91-11.41-47.4-1.38-93.33-3.4-140.4-6.28-38.82-2.38-76-8.56-114.55-10.92C39.14,631.08.93,627.21-36,626.82v216H1622.5L1622,700c-46.33,4.07-96-16.45-141-10C1427.76,697.64,1382.68,674.1,1327.92,678.15Z"/>
          <path class="cls-14" d="M1634.92,793.19c-.11-.51-.2-1-.29-1.51h-36.14c-21.21,0-42.56.2-63.78,0-18.09-.16-36.46-.7-53-3.11-1-.14-.92-.63,0-.78,45.89-7.67,100.53-9.11,152.51-9.78a38.64,38.64,0,0,1-8.2-12.3q-38.15.18-76.29.57c-24.94.77-49.77,1.85-74.14,3.6-23.1,1.68-45.7,4-68.74,5.69-22.09,1.65-44.44,3.08-67.06,3.94-44.87,1.74-91,1.45-136.14.65-34.28-.61-68.5-1.78-102.08-3.91-97-1.72-194.19-4.79-291-1.83,38.24,4.06,79.08,5.46,119.28,6.34,38.15.84,76.59,1.58,114.83,1.91,37.55.31,75.18-.12,112.71.69,33.9.74,69,2.29,99,7.47,1.07.19.9.58,0,.8-21.7,4.8-52,5.52-77.95,5.75-31.17.33-62.33-.41-93.41-1-39.63-.81-79.5-.67-119.21-.87-46.56-.23-93.08-.54-139.59-1.19-49.14-.7-97.77-2.11-146.64-3.83-48.19-1.69-96.47-3.28-145-3.57-48.36-.29-96.72,0-145.07-.35-20.42-.13-40.93-.09-61.32-.33-15.18-.18-31.25-.75-43.35-3.78-.65-.16-.54-.48,0-.65,16.62-5.18,43.59-6.47,66.24-7.15,31.26-.94,62.73-.6,94.06-.34,37.83.29,75.69.12,113.52.25q37,.09,74.11,0c18.69-.08,37.39-.41,56.08-.18,16.81.2,33.71.55,50.54.24,15.61-.3,32.32-1.05,45.21-3.92-52.62-5-107.57-7-162.5-7.93-54.69-1-109.46-1.37-164.08-2.58-49.4-1.09-98.56-3.79-148-4.43-23.08-.31-46.43.45-69.47.79-28,.37-56.51.79-84.38-.29-29.52-1.15-41.27-1-44.35-6.33-3.63-6.29,5.78-17.56,17.72-22.91,22.88-10.26,43.65,6.33,89.66,13.68,25.76,4.12,19.38-2.18,147.51-6.62,21.4-.74,41.78-1.58,61.56-4.31,15.84-2.2,30.44-4.7,47.41-6.06s37.7-2.16,51.36-5.75c2.22-.59,1.61-.54-.53-1.09-1.44-.36-2.89-.72-4.45-1-2.5-.52-5.06-1-7.81-1.36-6-.82-12.38-1.37-18.85-1.69-30.06-1.45-60.74.47-90.83.81-25.86.31-54.28-.22-73.51-6.12-.72-.24-.47-.57.3-.72,15.81-3.42,36-4.73,54.86-5.67,21.13-1.05,42.45-1.52,63.7-2.26,19.59-.68,39.11-1.59,58.73-2.22,23.58-.78,47.28-1.55,70.38-3.18,17-1.18,34.18-2.75,49.25-5.46,10.19-1.84,28.91-5.41,27.92-9.69a3.15,3.15,0,0,0-1.54-1.72C597.13,673,539.88,668.58,482,667c-62.19-1.65-122.46-4-184.21-7.48-50.94-2.84-99.73-10.19-150.31-13-48.06-2.67-98.19-7.27-146.66-7.74v6.08q14.81.36,29.56,1c93.13,4,182.11,13.87,272.48,21.38,22.49,1.88,45.17,3.63,68.18,4.83,21.63,1.15,43.1,1.67,65,2,35.47.52,74.61,1.14,105.53,7.06.89.17,1,.61,0,.79-18.23,2.79-38.76,3.8-58.94,4.16-38.3.68-76.56-.63-114.84-.63-43.56,0-86.22,3.12-128.46,6.1-23.78,1.67-47.55,3.71-71.59,5-15.52.87-31.31,1.25-46.92,2-16.77.79-34.55,1.73-49.62,4.24l-1,.17A291.88,291.88,0,0,0,.85,710C.85,772-3,802-3,864l1637,24c-4.23-22.5-.15-46.78,5.92-68.37C1638.49,810.79,1636.8,802,1634.92,793.19ZM148.41,714.83c28.8.39,57.59.06,86.42,0,25.37-.06,50.58.72,76,1,30.8.27,67.59.15,94.28,5.53.69.15.94.39.52.63-7,3.93-17.75,4.53-31.35,4.92-12.38.34-24.65,1.43-36.93,2.06q-15.87.81-31.89,1.42c-27.59,1.05-61.54,2-72.45,2.12-40.28.27-64.15-9.43-91.77-17.79Z"/>
          <g>
            <path class="cls-36" d="M802.69,690c-1.76,0-4.12.06-6.47.18-4.55.19-8.65.73-9.71,1.82-.12.14-.08.25.16.37,4.44,2,13.38,1.46,19.45,1.18,2.21-.09,14.63-.29,13.91-2.11S806.25,690,802.69,690Z"/>
            <path class="cls-36" d="M370.49,743.57c-1.75,0-4.11.06-6.45.18-4.55.18-8.64.72-9.71,1.82-.14.13-.09.26.15.37,4.44,2,13.4,1.45,19.45,1.18,2.21-.09,14.63-.3,13.93-2.1C387.09,743.06,374.05,743.5,370.49,743.57Z"/>
            <path class="cls-36" d="M444.57,749.23c-1.51-1.42-10.59-.83-13.54-.73-1.23,0-4.08,0-6.45.23l-2,.1c-1.27,0-5.36.78-3.18,1.47,2.41.78,6.42.76,9.38.79,3.19,0,6.39-.11,9.49-.36a27.66,27.66,0,0,0,5.52-.72C444.39,749.82,444.89,749.55,444.57,749.23Z"/>
            <path class="cls-36" d="M842.52,754.41c-1.21,0-2.86,0-4.49.12-3.2.15-6,.51-6.79,1.28-.08.08-.07.17.1.25,3.11,1.41,9.36,1,13.58.83,1.55-.07,10.24-.21,9.74-1.48S845,754.36,842.52,754.41Z"/>
            <path class="cls-36" d="M894.25,758.36c-1-1-7.38-.58-9.44-.51-.87,0-2.86,0-4.51.16l-1.39.07c-.9,0-3.75.53-2.23,1a26.7,26.7,0,0,0,6.56.54c2.23,0,4.44-.07,6.6-.25a20.84,20.84,0,0,0,3.89-.5C894.13,758.77,894.47,758.58,894.25,758.36Z"/>
          </g>
          <rect class="cls-37" x="3" width="1606.41" height="512.31"/>
          <g>
            <path class="cls-16" d="M694.63,472.58a7.79,7.79,0,0,1-1.5,4.34,8.23,8.23,0,0,1-6.69,3l.13-6.95-2.41.1v3.85a5.07,5.07,0,0,1-3.08-.39,5.37,5.37,0,0,1-2.76-3.25l-1,0,.61,1.89a3.83,3.83,0,0,1-2.77.4,4,4,0,0,1-2.53-2.19h-.75s.49,4.39,6.39,2.93c1.07,1.53,3.58,3.17,5.9,2.35-.13,4.78-.91,23.46-.91,23.46H686q.24-10.25.47-20.49a9.64,9.64,0,0,0,6.48-2.94,9.9,9.9,0,0,0,2.65-6.32Z"/>
            <path class="cls-38" d="M697.84,462.66s-20.87-8-33.46,0c-10.69,7.77.29,11.08,7.49,10.77,11.11-.12,24.72-1,24.72-1S711.67,470.07,697.84,462.66Z"/>
            <path class="cls-16" d="M1085,546q-27.11-78.87-42.77-76.66-6.84,1-11.49,17.37c-2.41-4.78-8.09-8-14.51-8.35a19.26,19.26,0,0,0-14.88,5.83,14.76,14.76,0,0,0-7-12.34c-6.77-4.36-17.35-4.47-25.65.09-2.25-8.1-10.51-14.18-20.31-15.17-11.58-1.17-23.22,5-26.45,14.66-10.83-8.8-27.17-9.84-37.13-3.76-10.71,6.54-9.2,18.36-9.1,19-7.66-7.38-20.18-10.44-31.53-7.75-10.35,2.46-18.17,9.33-20.3,17.79-6.32-4.38-15.08-4.81-20.69-1.52a11.55,11.55,0,0,0-5.77,9.68,23.86,23.86,0,0,0-11.61,1.74,16.21,16.21,0,0,0-9,8.85c.51-14.09-14.44-14.26-23-9.87,6.14-9.42-16-33.27-37.41-10.88A20.41,20.41,0,0,0,703.08,487c-9.06-1.14-19.08,3.85-22.91,12.46a48.22,48.22,0,0,0-21.91-7.11c-2-.15-21.21-1.38-28.59,7.53-1.94,2.34-2.56,4.79-3.21,7.32a25.16,25.16,0,0,0,.36,13.49l3.38,17.69L946,551l110,1Z"/>
            <path class="cls-16" d="M1485,509c1.19-10.05,2.08-29.59-8-44.14a44.63,44.63,0,0,0-4-4.86c-1.42-1.52-18.44-19.34-31.77-13.66-8.32,3.54-10.88,14.41-11.49,17.37-2.41-4.78-8.09-8-14.51-8.35a19.26,19.26,0,0,0-14.88,5.83,14.76,14.76,0,0,0-6.95-12.34c-6.77-4.36-17.35-4.47-25.65.09-2.25-8.1-10.51-14.18-20.31-15.17-11.58-1.17-23.22,5-26.45,14.66-10.83-8.8-27.17-9.84-37.13-3.76-10.71,6.54-9.2,18.36-9.1,19-7.66-7.38-20.18-10.44-31.53-7.75-10.35,2.46-18.17,9.33-20.3,17.79-6.32-4.38-15.08-4.81-20.69-1.52a11.55,11.55,0,0,0-5.77,9.68,23.86,23.86,0,0,0-11.61,1.74,16.21,16.21,0,0,0-8.95,8.85c.51-14.09-14.44-14.26-23-9.87,6.14-9.42-16-33.27-37.41-10.88a20.41,20.41,0,0,0-13.43-7.74c-9.06-1.14-19.08,3.85-22.91,12.46a48.22,48.22,0,0,0-21.91-7.11c-2-.15-21.21-1.38-28.59,7.53a16.29,16.29,0,0,0-3.21,7.32c-3.73,16.77-.25,39.72,1.54,49.79,1,5.67,26.06,12.32,27.06,18,96.24-10.23,167.06-17,263.49-24.75,44.65-3.59,90.76-10.16,135.45-13.23Z"/>
            <path class="cls-16" d="M1616.47,512.15q-1-6.06-2.09-12.1c-1.66-9.41-1.07-17.59,3.4-26.06.09-.16.19-.32.28-.49-1.06-13-1.87-26-2.18-39a36.89,36.89,0,0,0-18.65-.51c-10.35,2.46-18.17,9.33-20.31,17.79-6.31-4.38-15.07-4.82-20.68-1.52a11.55,11.55,0,0,0-5.77,9.68,23.86,23.86,0,0,0-11.61,1.74,16.21,16.21,0,0,0-8.95,8.85c.51-14.09-14.44-14.26-23-9.87,6.14-9.42-16-33.27-37.41-10.88a20.41,20.41,0,0,0-13.43-7.74c-9.06-1.14-19.08,3.85-22.91,12.46a48.22,48.22,0,0,0-21.91-7.11c-2-.15-21.21-1.38-28.59,7.53a16.29,16.29,0,0,0-3.21,7.32c-3.73,16.77-.25,39.72,1.54,49.79l-4,7C1453.46,513.09,1533.9,512.32,1616.47,512.15Z"/>
          </g>
          <path class="cls-39" d="M-.91,401.21s25.25,5.62,12.19,27.55c70.54-24.18,111.47-2.25,108,27,72.28-5.06,92.31,47.24,64.44,59,0,0,60.09-23.06,115.83,9,55.73-28.12,188.1,12.37,222.06,33.18L5.86,558.1Z"/>
          <g>
            <path class="cls-40" d="M856.74,604.7c.21-.53-1.31-1-2.71-3s-2.63-3.66-2.86-4.57c-1.23-4.78-5-10.54-6.55-12.67-5-6.78-7.33-17-11.22-33.83a250.05,250.05,0,0,1-4.91-29c-.29-16.83,2-29.52,6.79-36.84a198.77,198.77,0,0,0,13.58-25s28,1.27,30.36,0,9.19-7.31,8-22.92l.4-3.76-7.19,2s-2.21,14-11.42,15.08c-11,1.52-23.53-5.22-21.69-15.08h-8s2.45,28.75-9.62,34.83c-9,2.38-14.33-1.39-13.92-18.23l.41-16.83-14.33,0s.82,17.9,0,19S794.71,466.08,788,443.3c-5.74-16.05-2.46-8.32-2.46-8.32l-7.78.18s3.48,17.69,14.94,28.75c7.58,10.63,7.78,28.42,2.05,34.71-6.14,6.29-16.58,9.77-24.56-27.55-5.32-24.73-6.75-35.91-6.75-35.91L752.34,435s4.51,29.52,3.69,34.73c-1,5.86-1.43,23.86-25.59,16.27-57.91-16.62,8.7-40.68.42-54.45-2.37-3.94-39.63,39.07-43.13,28.54-5.46-16.48-8.45-25.94-8.45-25.94l-9-.24s-.42,9.7,1.42,12.3c-2.88.21-26.86-1.83-37.52-7.06-9.5-4.68-21.95-11.45-22.95-14-2.41-.1-9.76.1-12.16,0,1.87,4.78,5,6.68,7.26,8.44,8.82,6.77,27.61,15.71,59.83,20.19a63,63,0,0,1,7.63,1.11c0,.07.12,1,.12,1s1.28,24.27,30.13,36c25.79,10.19,37.05,15.4,43.6,19.52s11.05,8.46,10,22.57a116.6,116.6,0,0,0,1.84,33.73,114.16,114.16,0,0,0,14.12,36.34c22.16.73,36.39.81,45.51.72,18.3-.18,28.72-1.13,34.2.21C853.37,605,856.47,605.4,856.74,604.7Z"/>
            <path class="cls-41" d="M831.82,543.32c-5.66,2.41-15.8,6.77-21.09,12.15-19.59,19.9-6.27,46.07-4.75,48.91l51.71.7a36.37,36.37,0,0,1-7.78-11.47C842.41,576.86,833.27,556.6,831.82,543.32Z"/>
            <path class="cls-42" d="M768.49,464.24s9.58,37.62,17.09,37.34C777.81,505.43,763.31,495,768.49,464.24Z"/>
            <path class="cls-43" d="M624.65,351.24c2.22-16.23,8.08-40.72,25.71-60.73,47.62-54,138.82-28.9,168-20.83,72,19.93,118.7,67.72,141.57,95.53l11.34,8.92a935.24,935.24,0,0,1-181,15.24,934.91,934.91,0,0,1-157.5-15.5Z"/>
            <path class="cls-44" d="M625.29,350.33c2.2-15.62,8-39.2,25.44-58.46,47.13-52,137.37-27.82,166.24-20.05,71.27,19.19,117.46,65.19,140.09,92l11.22,8.59a950.55,950.55,0,0,1-179.09,14.68,951,951,0,0,1-155.85-14.93Z"/>
            <path class="cls-43" d="M919.75,359.41s66-15.15,95.18,31c19,35.81,22.44,47.42-95.18,40.93C899.86,374,919.75,359.41,919.75,359.41Z"/>
            <path class="cls-45" d="M921.46,360.75s64.06-15.4,92.45,31.5c18.49,36.4,21.79,48.2-92.45,41.6C902.15,375.57,921.46,360.75,921.46,360.75Z"/>
            <path class="cls-43" d="M639.06,425.17c-2,0-59.64-4.06-59.64-4.06s-35.79-7.44-15.25-25.7a34.19,34.19,0,0,0,13-11.08c4.1-6,3-8.91,5.61-14.42,8.27-17.44,36-23.37,36-23.37h0s37.61-7.7,65.6,7.4c3.12,1.68,4.66,2.59,5.85,4.16,12.94,17.09-27.32,67.07-27.32,67.07Z"/>
            <path class="cls-46" d="M667.92,427.31c-1.92,0-108.77-2.14-108.77-2.14s-19.36-2.93-8.56-20.94c6.31-9,10.89-15.92,14.73-21.74,4-6,14.61-15.12,21.76-20.15,17.56-14,51.27-14.87,51.27-14.88h0s36.33-7.71,63.37,7.43c3,1.69,4.5,2.6,5.65,4.18,12.5,17.14-26.39,67.27-26.39,67.27Z"/>
            <path class="cls-43" d="M642.14,379S675,351.71,709.35,341c37.58-16.08,87.32-52,147.65-35.37,46.57,15.54,81.5,37,102.14,76.63,10.06,23.05,11.64,50.92-65.09,47.16l-213.8.35S596.63,423.52,642.14,379Z"/>
            <path class="cls-47" d="M639,384.94s33.19-27.79,68-38.69c38-16.34,88.33-52.84,149.36-35.95,47.12,15.8,82.45,37.59,103.33,77.91,10.17,23.42,11.78,51.75-65.85,47.94l-216.28.35S593,430.16,639,384.94Z"/>
            <path class="cls-42" d="M887.66,436.16s1,15.65-6.22,21.95c-2.14,2.21-3.84,2.15-6.41,2.21A14.94,14.94,0,0,0,884,449.57a83.76,83.76,0,0,0,1.95-13.41h1.74Z"/>
            <path class="cls-42" d="M816.26,436.23c-.28,2.84-.49,11.43-.37,13.35.49,8.43,1.06,18,6.22,20.51a6.67,6.67,0,0,0,3.87.52l2-.23c-2.41,3.15-4.56,3.41-5.25,3.45-4.27.21-9.26-5.67-10.48-15.13a61.71,61.71,0,0,1-.86-13.6c.2-3.78.78-8.93.78-8.93h0Z"/>
          </g>
          <path class="cls-36" d="M1118,761c0,1.84-25.63,3.33-57.18,3.33s-57.18-1.49-57.18-3.33,25.6-3.34,57.18-3.34S1118,759.16,1118,761Z"/>
          <polygon class="cls-5" points="659.24 593 1000.55 607.49 999.45 615.65 659.16 603.03 659.24 593"/>
          <polygon class="cls-18" points="670.11 584.75 689.28 585.24 691.55 588.47 689.92 651.67 668.33 653.89 670.11 584.75"/>
          <polygon class="cls-18" points="713.88 583.75 735.07 584.29 731.49 657.99 711.99 657.48 713.88 583.75"/>
          <polygon class="cls-18" points="753.47 588.48 770.29 588.91 772.43 623.56 771.45 661.5 750.33 658.47 753.47 588.48"/>
          <polygon class="cls-18" points="851.77 587.3 873.97 587.87 874.4 662.73 854.86 663.64 851.77 587.3"/>
          <path class="cls-18" d="M936.58,591.58,958.19,589q-1.26,41-2.51,82l-21.13-.67Z"/>
          <polygon class="cls-17" points="670.11 584.75 687.11 586.77 689.48 590.51 687.24 651.94 689.92 651.67 691.55 588.47 689.28 585.24 670.11 584.75"/>
          <polygon class="cls-17" points="713.88 583.75 731.94 586.34 727.96 657.89 731.49 657.99 735.07 584.29 713.88 583.75"/>
          <polygon class="cls-17" points="753.47 588.48 766.78 590.41 769.74 622.61 768.74 661.43 771.45 661.5 772.34 622.14 770.29 588.91 753.47 588.48"/>
          <polygon class="cls-17" points="851.77 587.3 871.44 589.93 872.21 662.67 874.4 662.73 873.97 587.87 851.77 587.3"/>
          <polygon class="cls-17" points="936.28 591.8 957.48 589.22 955.68 670.95 958.68 669.98 960.21 585.96 936.28 591.8"/>
          <ellipse class="cls-6" cx="680.44" cy="601.86" rx="3.36" ry="3.19" transform="translate(61.27 1266.57) rotate(-88.52)"/>
          <ellipse class="cls-6" cx="721.47" cy="602.91" rx="3.36" ry="3.19" transform="translate(100.18 1308.62) rotate(-88.52)"/>
          <ellipse class="cls-6" cx="759.84" cy="602.94" rx="3.36" ry="3.19" transform="translate(137.54 1347.01) rotate(-88.52)"/>
          <ellipse class="cls-6" cx="861.73" cy="602.2" rx="3.36" ry="3.19" transform="translate(237.54 1448.14) rotate(-88.52)"/>
          <polygon class="cls-18" points="803.9 590.28 826.1 590.86 826.53 665.72 806.99 666.63 803.9 590.28"/>
          <polygon class="cls-17" points="803.9 590.28 823.57 592.92 824.34 665.66 826.53 665.72 826.1 590.86 803.9 590.28"/>
          <ellipse class="cls-6" cx="813.86" cy="605.19" rx="3.36" ry="3.19" transform="translate(187.92 1403.2) rotate(-88.52)"/>
          <polygon class="cls-17" points="1396.54 604.04 1417.56 604.01 1418.03 688.27 1420.22 688.33 1420.1 601.61 1396.54 604.04"/>
          <ellipse class="cls-6" cx="944.39" cy="605.6" rx="3.36" ry="3.19" transform="translate(314.68 1534.09) rotate(-88.52)"/>
          <polygon class="cls-5" points="1346.98 615.04 1688.39 628.53 1687.35 637.79 1346.98 626.42 1346.98 615.04"/>
          <polygon class="cls-18" points="1441.18 609.11 1458 609.45 1460.4 648.72 1459.71 691.74 1438.46 691.45 1441.18 609.11"/>
          <path class="cls-18" d="M1512.18,608.78l-5.36,82.32,17.16.35,8.2-71s1.12-6.82-3.52-11.33Z"/>
          <polygon class="cls-18" points="1578.88 610.45 1600.99 610.91 1596.76 700.11 1577.98 698.2 1578.88 610.45"/>
          <polygon class="cls-17" points="1441.18 609.11 1454.5 611.19 1457.7 647.66 1457 691.68 1459.71 691.74 1460.3 647.11 1458 609.45 1441.18 609.11"/>
          <path class="cls-17" d="M1512.18,608.78l15.32,2.1a18.28,18.28,0,0,1,2.63,10.33c-.26,6.1-7.71,70.21-7.71,70.21l1.56,0,8.09-70s1.46-8.73-3.41-12.32Z"/>
          <polygon class="cls-17" points="1580.88 608.96 1600.48 612.33 1596.67 700.19 1599.61 699.64 1603.08 609.42 1580.88 608.96"/>
          <polygon class="cls-18" points="1396.54 604.04 1418.73 604.61 1418.94 688.16 1399.39 689.24 1396.54 604.04"/>
          <ellipse class="cls-6" cx="1368.25" cy="624.9" rx="3.81" ry="3.19" transform="translate(736.05 1989.79) rotate(-89.69)"/>
          <ellipse class="cls-6" cx="1407.74" cy="620.64" rx="3.75" ry="3.19" transform="translate(751.06 2011.94) rotate(-88.52)"/>
          <ellipse class="cls-6" cx="1447.65" cy="625.45" rx="3.81" ry="3.19" transform="translate(814.48 2069.75) rotate(-89.69)"/>
          <ellipse class="cls-6" cx="1521.38" cy="624.24" rx="3.81" ry="3.19" transform="translate(889.02 2142.27) rotate(-89.69)"/>
          <ellipse class="cls-6" cx="1588.33" cy="628.59" rx="3.81" ry="3.19" transform="matrix(0.01, -1, 1, 0.01, 951.27, 2213.55)"/>
          <polygon class="cls-5" points="999.98 605.99 1377.38 616.24 1378.67 629.23 999.98 617.57 999.98 605.99"/>
          <polygon class="cls-18" points="1010.79 592.52 1029.96 592.89 1032.26 596.52 1031.04 668.04 1009.52 667.27 1010.79 592.52"/>
          <polygon class="cls-18" points="1094.18 595.85 1111 596.17 1113.4 633.44 1112.71 674.26 1091.46 673.99 1094.18 595.85"/>
          <path class="cls-18" d="M1165.18,595.53l-5.36,78.12L1177,674l8.2-67.38s1.12-6.47-3.52-10.76Z"/>
          <polygon class="cls-18" points="1231.88 597.12 1253.99 597.56 1251.56 677.05 1231.87 677.61 1231.88 597.12"/>
          <path class="cls-18" d="M1277.3,597.69l21.59-3L1297,682.93l-21.13-.56Z"/>
          <polygon class="cls-18" points="1335.98 596.75 1358.17 597.32 1358.3 683.98 1338.75 685.12 1335.98 596.75"/>
          <polygon class="cls-17" points="1335.98 596.75 1355.64 599.72 1356.11 683.93 1358.3 683.98 1358.17 597.32 1335.98 596.75"/>
          <ellipse class="cls-6" cx="1345.87" cy="613.97" rx="3.89" ry="3.19" transform="translate(697.46 1943.59) rotate(-88.52)"/>
          <polygon class="cls-17" points="1010.79 592.52 1027.8 594.62 1030.2 598.8 1028.37 667.81 1031.05 667.47 1032.26 596.49 1029.96 592.89 1010.79 592.52"/>
          <polygon class="cls-17" points="1094.18 595.85 1107.5 597.82 1110.7 632.43 1110 674.2 1112.71 674.26 1113.3 631.91 1111 596.17 1094.18 595.85"/>
          <path class="cls-17" d="M1165.18,595.53l15.32,2a16.73,16.73,0,0,1,2.63,9.8c-.26,5.79-7.71,66.63-7.71,66.63l1.56,0,8.09-66.44s1.46-8.29-3.41-11.7Z"/>
          <polygon class="cls-17" points="1233.45 595.82 1253.08 598.65 1250.19 677.56 1253.12 677.04 1255.65 596.02 1233.45 595.82"/>
          <polygon class="cls-17" points="1277 597.93 1298.19 594.98 1297 682.93 1300 681.85 1300.89 591.45 1277 597.93"/>
          <ellipse class="cls-6" cx="1021.25" cy="610.83" rx="3.62" ry="3.19" transform="translate(402.68 1627.42) rotate(-89.57)"/>
          <ellipse class="cls-6" cx="1100.65" cy="611.36" rx="3.62" ry="3.19" transform="translate(480.97 1707.34) rotate(-89.57)"/>
          <ellipse class="cls-6" cx="1174.38" cy="610.21" rx="3.62" ry="3.19" transform="translate(555.28 1779.93) rotate(-89.57)"/>
          <ellipse class="cls-6" cx="1241.33" cy="614.34" rx="3.62" ry="3.19" transform="translate(617.6 1850.97) rotate(-89.57)"/>
          <ellipse class="cls-6" cx="1285.22" cy="612.71" rx="3.62" ry="3.19" transform="translate(662.78 1893.25) rotate(-89.57)"/>
          <polygon class="cls-5" points="669 802.91 1024.39 816.27 1023.31 825.44 669 814.17 669 802.91"/>
          <polygon class="cls-18" points="737.55 789.09 758.75 789.52 755.72 872.29 736.22 871.89 737.55 789.09"/>
          <path class="cls-18" d="M815.22,793.06s-5.78,3.25-2,42.46l3.74,39.21,18.84.39L831.4,791Z"/>
          <polygon class="cls-18" points="875.47 791.9 897.67 792.35 898.66 876.4 879.13 877.6 875.47 791.9"/>
          <path class="cls-18" d="M960.3,796l21.59-3.14L980,885l-21.13-.58Z"/>
          <polygon class="cls-17" points="737.55 789.09 755.63 791.84 752.19 872.22 755.72 872.29 758.75 789.52 737.55 789.09"/>
          <polygon class="cls-17" points="815.22 793.06 829.1 793.34 834.04 875.08 835.76 875.12 831.4 791 815.22 793.06"/>
          <polygon class="cls-17" points="875.47 791.9 895.15 794.69 896.47 876.36 898.66 876.4 897.67 792.35 875.47 791.9"/>
          <polygon class="cls-17" points="960 796.24 981.19 793.15 980 884.95 983 883.82 983.89 789.47 960 796.24"/>
          <ellipse class="cls-6" cx="745.28" cy="810.54" rx="3.77" ry="3.19" transform="translate(-69.45 1551.23) rotate(-89.68)"/>
          <ellipse class="cls-6" cx="820.33" cy="816.64" rx="3.77" ry="3.19" transform="translate(-0.93 1632.34) rotate(-89.68)"/>
          <ellipse class="cls-6" cx="885.53" cy="815.48" rx="3.77" ry="3.19" transform="translate(65.06 1696.4) rotate(-89.68)"/>
          <ellipse class="cls-6" cx="968.22" cy="818.59" rx="3.77" ry="3.19" transform="translate(144.17 1782.18) rotate(-89.68)"/>
          <polygon class="cls-5" points="325 794.48 671.39 807.28 670.34 816.07 325 805.27 325 794.48"/>
          <polygon class="cls-18" points="340.79 785.52 359.96 785.89 362.26 789.34 361.11 857.35 339.53 859.92 340.79 785.52"/>
          <polygon class="cls-18" points="424.18 788.85 441 789.17 443.4 826.44 442.71 867.26 421.56 864.17 424.18 788.85"/>
          <path class="cls-18" d="M495.18,788.53l-5.36,78.12L507,867l8.2-67.38s1.12-6.47-3.52-10.76Z"/>
          <polygon class="cls-18" points="561.88 790.12 583.99 790.56 580.62 871.08 560.45 874.47 561.88 790.12"/>
          <path class="cls-18" d="M645.47,790.5s7.54-8,19.54-1.24c0,0,5.11,56,4.62,84.82l-19.56,2.86S643.9,803.85,645.47,790.5Z"/>
          <polygon class="cls-17" points="340.79 785.52 357.8 787.55 360.2 791.55 358.43 857.67 361.11 857.35 362.26 789.34 359.96 785.89 340.79 785.52"/>
          <polygon class="cls-17" points="424.18 788.85 437.5 790.82 440.7 825.43 440 867.2 442.71 867.26 443.3 824.91 441 789.17 424.18 788.85"/>
          <path class="cls-17" d="M495.18,788.53l15.32,2a16.73,16.73,0,0,1,2.63,9.8c-.26,5.79-7.71,66.63-7.71,66.63l1.56,0,8.09-66.44s1.46-8.29-3.41-11.7Z"/>
          <polygon class="cls-17" points="563.88 788.71 583.49 791.75 579.76 870.49 582.7 869.99 586.08 789.14 563.88 788.71"/>
          <path class="cls-17" d="M647.39,788s11.22-3.56,17.5,1.67c0,0,4.52,79,4.11,85.14l3-2.15s-.53-42.55-1.65-56.63c-.92-11.62-3.43-29.17-3.43-29.17S656.87,779.67,647.39,788Z"/>
          <ellipse class="cls-6" cx="351.25" cy="803.83" rx="3.62" ry="3.19" transform="translate(-455.23 1148.97) rotate(-89.57)"/>
          <ellipse class="cls-6" cx="430.65" cy="804.36" rx="3.62" ry="3.19" transform="translate(-376.95 1228.9) rotate(-89.57)"/>
          <ellipse class="cls-6" cx="504.38" cy="803.21" rx="3.62" ry="3.19" transform="translate(-302.63 1301.49) rotate(-89.57)"/>
          <ellipse class="cls-6" cx="571.33" cy="807.34" rx="3.62" ry="3.19" transform="translate(-240.32 1372.53) rotate(-89.57)"/>
          <ellipse class="cls-6" cx="655.22" cy="806.79" rx="3.62" ry="3.19" transform="translate(-156.51 1455.87) rotate(-89.57)"/>
          <polygon class="cls-5" points="1020 814.49 1377.39 828.54 1376.3 838.17 1020 826.33 1020 814.49"/>
          <polygon class="cls-18" points="1049.79 793.66 1068.96 794.07 1071.26 797.86 1070.11 872.45 1048.53 875.27 1049.79 793.66"/>
          <polygon class="cls-18" points="1133.18 797.32 1150 797.68 1152.4 838.55 1151.71 883.32 1130.56 879.94 1133.18 797.32"/>
          <path class="cls-18" d="M1204.18,797l-5.36,85.68L1216,883l8.2-73.9s1.12-7.09-3.52-11.8Z"/>
          <polygon class="cls-18" points="1270.88 798.72 1292.99 799.19 1289.62 887.51 1269.45 891.23 1270.88 798.72"/>
          <path class="cls-18" d="M1354.47,799.13s7.54-8.73,19.54-1.36c0,0,5.11,61.47,4.62,93l-19.56,3.14S1352.9,813.77,1354.47,799.13Z"/>
          <polygon class="cls-17" points="1049.79 793.66 1066.8 795.89 1069.2 800.28 1067.43 872.8 1070.11 872.45 1071.26 797.86 1068.96 794.07 1049.79 793.66"/>
          <polygon class="cls-17" points="1133.18 797.32 1146.5 799.48 1149.7 837.45 1149 883.26 1151.71 883.32 1152.3 836.88 1150 797.68 1133.18 797.32"/>
          <path class="cls-17" d="M1204.18,797l15.32,2.2a19.57,19.57,0,0,1,2.63,10.75c-.26,6.34-7.71,73.07-7.71,73.07l1.56,0,8.09-72.86s1.46-9.1-3.41-12.84Z"/>
          <polygon class="cls-17" points="1272.88 797.16 1292.49 800.5 1288.76 886.86 1291.7 886.32 1295.08 797.64 1272.88 797.16"/>
          <path class="cls-17" d="M1356.39,796.43s11.22-3.9,17.5,1.84c0,0,4.52,86.61,4.11,93.38l3-2.36s-.53-46.67-1.65-62.12c-.92-12.74-3.43-32-3.43-32S1365.87,787.25,1356.39,796.43Z"/>
          <ellipse class="cls-6" cx="1060.25" cy="825.76" rx="3.97" ry="3.19" transform="translate(229.89 1882.4) rotate(-89.75)"/>
          <ellipse class="cls-6" cx="1139.65" cy="826.33" rx="3.97" ry="3.19" transform="translate(308.38 1962.38) rotate(-89.75)"/>
          <ellipse class="cls-6" cx="1213.38" cy="825.07" rx="3.97" ry="3.19" transform="translate(383.04 2034.85) rotate(-89.75)"/>
          <ellipse class="cls-6" cx="1280.33" cy="829.6" rx="3.97" ry="3.19" transform="translate(445.17 2106.31) rotate(-89.75)"/>
          <ellipse class="cls-6" cx="1364.22" cy="829" rx="3.97" ry="3.19" transform="translate(529.3 2189.6) rotate(-89.75)"/>
          <polygon class="cls-18" points="1447.55 800.09 1468.74 800.57 1465.72 891.83 1446.21 891.39 1447.55 800.09"/>
          <path class="cls-18" d="M1525.22,804.47s-5.78,3.59-2,46.82l3.74,43.23,18.84.42-4.36-92.74Z"/>
          <polygon class="cls-18" points="1585.47 803.19 1607.67 803.69 1608.66 896.36 1589.13 897.67 1585.47 803.19"/>
          <polygon class="cls-17" points="1447.55 800.09 1465.63 803.13 1462.19 891.75 1465.72 891.83 1468.74 800.57 1447.55 800.09"/>
          <polygon class="cls-17" points="1525.22 804.47 1539.1 804.79 1544.04 894.9 1545.76 894.94 1541.4 802.2 1525.22 804.47"/>
          <polygon class="cls-17" points="1585.47 803.19 1605.15 806.27 1606.47 896.31 1608.66 896.36 1607.67 803.69 1585.47 803.19"/>
          <ellipse class="cls-14" cx="656" cy="695" rx="168" ry="9"/>
          <path class="cls-48" d="M468.55,122.52a979.43,979.43,0,0,0-216.9,252V699.71l83.08-6.21.59-292.75L522,399.46l15.45,284.11L585,678.79,596.7,382A1024.05,1024.05,0,0,0,542,248,1023.09,1023.09,0,0,0,468.55,122.52Z"/>
          <g>
            <line class="cls-49" x1="578.5" y1="340.97" x2="588.37" y2="673.84"/>
            <line class="cls-22" x1="464.47" y1="127.1" x2="464.47" y2="682.16"/>
            <line class="cls-22" x1="505.07" y1="185.28" x2="507.54" y2="665.81"/>
            <line class="cls-22" x1="546.08" y1="267.56" x2="549.62" y2="673.35"/>
            <line class="cls-22" x1="366.64" y1="209.03" x2="366.64" y2="686.67"/>
            <line class="cls-22" x1="414.27" y1="177.18" x2="414.27" y2="654.82"/>
            <line class="cls-22" x1="311.29" y1="219.33" x2="311.29" y2="696.97"/>
          </g>
          <polygon class="cls-50" points="396.25 219.14 488.93 222.49 488.93 337.1 396.25 337.1 396.25 219.14"/>
          <polygon class="cls-51" points="401.4 219.33 494.08 222.68 494.08 337.28 401.4 337.28 401.4 219.33"/>
          <rect class="cls-52" x="407.83" y="230.26" width="78.89" height="96.68"/>
          <polygon class="cls-53" points="481.48 236.24 414.27 245.71 414.27 326.94 481.48 326.94 481.48 236.24"/>
          <polygon class="cls-52" points="424.57 258.58 464.47 252.14 464.47 310.8 424.57 314.53 424.57 258.58"/>
          <rect class="cls-50" x="481.48" y="236.24" width="5.24" height="90.7"/>
          <polygon class="cls-54" points="254.65 380 -6.65 380 -6.65 704.32 254.65 712.97 254.65 380"/>
          <polygon class="cls-55" points="337.73 402.66 254.65 392.45 254.65 744 337.73 703.04 337.73 402.66"/>
          <rect class="cls-53" x="243.16" y="392.45" width="11.49" height="351.55"/>
          <polygon class="cls-55" points="540.42 398.89 658.98 392.45 658.98 704.28 540.42 688.14 540.42 398.89"/>
          <rect class="cls-53" x="658.98" y="392.45" width="9.93" height="311.83"/>
          <polygon class="cls-51" points="317.73 378.29 540.42 378.29 540.42 688.14 522.44 688.14 524.97 401.46 317.73 400.2 317.73 378.29"/>
          <polygon class="cls-53" points="524.97 401.46 510.03 401.46 510.03 688.14 522.44 688.14 524.97 401.46"/>
          <polygon class="cls-52" points="337.73 668.28 366.05 668.28 509.52 688.51 510.03 401.46 335 401 337.73 668.28"/>
          <polygon class="cls-56" points="90.07 526.78 196.82 530.89 192.87 533.27 84.92 528.52 90.07 526.78"/>
          <line class="cls-22" x1="227.02" y1="378.29" x2="227.02" y2="704.28"/>
          <polygon class="cls-57" points="326.74 415.62 267.53 409.18 267.53 722.9 326.74 695.59 326.74 415.62"/>
          <polygon class="cls-55" points="326.74 415.62 267.53 722.9 282.55 715.97 326.74 469.68 326.74 415.62"/>
          <polygon class="cls-55" points="267.53 415.62 317.73 699.75 326.74 695.59 276.67 410.18 267.53 409.18 267.53 415.62"/>
          <polygon class="cls-58" points="549.75 415.62 644.68 415.62 644.68 683.18 549.75 674.49 549.75 415.62"/>
          <polygon class="cls-55" points="634.15 415.62 549.75 657.11 549.75 674.49 558.59 675.3 644.68 431.2 644.68 415.62 634.15 415.62"/>
          <polygon class="cls-55" points="629.09 681.75 644.68 683.18 644.68 669.52 563.4 415.62 549.75 415.62 629.09 681.75"/>
          <path class="cls-59" d="M483.07,117.58l60.68,97.47,76.11,166.4-23.16.5C579,341,558,290,530,230c-15.34-32.86-44.06-68.83-62.75-97.56Z"/>
          <path class="cls-60" d="M479,135c-8.75,6.51-20.53,15.6-34,27-16.68,14.12-46.42,39.31-73,72-16.42,20.2-18.2,26.74-57,91-18.07,29.92-33.12,54.07-42.88,69.6l-17.47-2.15V380A841.06,841.06,0,0,1,473,118Z"/>
          <polyline class="cls-22" points="359.83 121.64 168.69 372.87 175.49 383.96"/>
          <line class="cls-22" x1="282.87" y1="122.78" x2="90.07" y2="374.43"/>
          <line class="cls-61" x1="283.87" y1="120.21" x2="91.07" y2="371.85"/>
          <line class="cls-22" x1="220.82" y1="123.71" x2="22.31" y2="372.5"/>
          <line class="cls-24" x1="221.54" y1="121.13" x2="23.02" y2="369.92"/>
          <line class="cls-22" x1="160" y1="124.62" x2="-6.65" y2="320.73"/>
          <line class="cls-24" x1="158.71" y1="124.62" x2="-7.94" y2="320.73"/>
          <path class="cls-22" d="M232.45,372.87l8.23,11.86-8.23-11.86S444.7,99,443,99.61"/>
          <path class="cls-62" d="M228.3,376.73l5.47,8-5.47-8s212.25-273.9,210.55-273.26"/>
          <polyline class="cls-22" points="168.69 374.43 176.69 383.95 176.69 710.38"/>
          <line class="cls-21" x1="167.49" y1="374.45" x2="175.49" y2="383.96"/>
          <line class="cls-63" x1="224.5" y1="374.5" x2="225.69" y2="386.54"/>
          <line class="cls-21" x1="120.14" y1="382.66" x2="116.28" y2="378.93"/>
          <line class="cls-22" x1="121.43" y1="384.08" x2="122.35" y2="706.51"/>
          <g>
            <path class="cls-64" d="M96.94,580.31c-.07-.14-8.32-13.74-36-7.06,0,0,21.1-9.47,37.36,6.3Z"/>
            <path class="cls-64" d="M100.24,580.26c-.28-.6-7.24-14.61-28.95-12.88,0,0,18.89-5.12,30.34,12.22Z"/>
            <path class="cls-64" d="M103.86,580.33c-.08-.15-9.14-14.85-17.92-16.55,0,0,9.62-.66,19.24,15.75Z"/>
            <path class="cls-64" d="M16.83,710.63c26.33-13.91,35.66-37.77,35.75-38l1.44.55C44.66,701.13,16.83,710.63,16.83,710.63Z"/>
            <path class="cls-64" d="M12.69,719.81C35.58,711.18,47.9,689.45,48,689.23l1.34.75C37.49,714.18,12.69,719.81,12.69,719.81Z"/>
            <path class="cls-64" d="M6,729c24-2.62,41.91-29.36,42.09-29.63l1.28.85C31,729,6,729,6,729Z"/>
            <path class="cls-64" d="M204.16,622.87l1.42-.55c.1.24,9.45,24.1,35.76,38C241.34,660.33,218.3,654.22,204.16,622.87Z"/>
            <path class="cls-64" d="M208.81,639.67l1.34-.74c.12.22,12.44,22,35.33,30.58C245.48,669.51,223.87,666.36,208.81,639.67Z"/>
            <path class="cls-64" d="M208.84,649.9l1.28-.84c.17.27,18.15,27,42.09,29.62C252.21,678.68,230.34,680.84,208.84,649.9Z"/>
            <g>
              <path class="cls-65" d="M296,791.61a106.27,106.27,0,0,1-36.11-11.15c6.68,2.29,19.6,1.54,19.6,1.54s-18.7-3.59-25.36-11.78a88.91,88.91,0,0,0,12.68,0c-10.55-3.44-14.47-4.35-18.06-8.45a32.69,32.69,0,0,0,5.38,0c-6.92-3.33-15.11-7.43-19.21-17.93a85,85,0,0,0,9,1.79c-10.5-4.86-17.67-17.41-18.94-34.57a22.93,22.93,0,0,0,10,5.63c-8.71-7.42-12.29-27.4-12-44.05a87.7,87.7,0,0,1,6.66,8.2c0-14.6-.51-34.07-10.24-45.59a9.64,9.64,0,0,1,6.66,2.82c-2.05-11.27-15.63-27.92-22.54-32.53,0-1.8,8.2,1.54,8.2,1.54-5.38-10.5-14.93-21.31-23.64-23.1,1.53-2.82,10.06-1,10.06-1-7-5.72-34.9-26.53-64.71-7.66-39.51-16-57.56,1.8-64.7,7.66,0,0,8.53-1.84,10.07,1-8.71,1.79-18.26,12.6-23.64,23.1,0,0,8.2-3.34,8.2-1.54-6.92,4.61-20.49,21.26-22.54,32.53a9.64,9.64,0,0,1,6.66-2.82c-9.74,11.52-10.25,31-10.25,45.59a89.63,89.63,0,0,1,6.66-8.2c.26,16.65-3.33,36.63-12,44.05a22.94,22.94,0,0,0,10-5.63c-1.28,17.16-8.45,29.71-19,34.57a84.54,84.54,0,0,0,9-1.79c-4.09,10.5-12.29,14.6-19.21,17.93a32.73,32.73,0,0,0,5.38,0c-3.58,4.1-7.5,5-18,8.45a88.79,88.79,0,0,0,12.67,0C5.92,778.41-12.78,782-12.78,782s12.92.75,19.59-1.54A106.27,106.27,0,0,1-29.3,791.61c15,.76,36.5-5.77,45-6.92a79.36,79.36,0,0,0-10.76,8.64s20.75-5.57,30.35-12.1c0,0-4.22,7.3-7.3,10,0,0,27.66-10.76,38.42-17.67a123.89,123.89,0,0,1-23.43,17.29s17.28-5.77,26.89-11.91c0,0-5.76,6.91-11.91,10.76,12.67-2.31,26.51-12.3,26.51-12.3L84,785.46l11.53-8.84s1.54,7.3-5.38,13.45A75.72,75.72,0,0,0,109,783.15s.39,4.61-7.68,10.18c0,0,21.64-3.39,32-11.07,10.47,2.17,32.06,11.07,32.06,11.07-7-7.47-7.69-10.18-7.69-10.18a75.71,75.71,0,0,0,18.83,6.92c-6.92-6.15-5.38-13.45-5.38-13.45l11.52,8.84-.38-8.07s13.83,10,26.51,12.3c-6.15-3.85-11.91-10.76-11.91-10.76,9.6,6.14,26.89,11.91,26.89,11.91a123.48,123.48,0,0,1-23.43-17.29c10.75,6.91,38.41,17.67,38.41,17.67-3.07-2.69-7.29-10-7.29-10,9.6,6.53,30.34,12.1,30.34,12.1a79.65,79.65,0,0,0-10.75-8.64C259.54,785.84,281.05,792.37,296,791.61Z"/>
              <path class="cls-65" d="M171.8,778.07a14.52,14.52,0,0,0,5.27,11.42l2.12,1.89-2.78-.56A77.64,77.64,0,0,1,159.55,785a58.12,58.12,0,0,0,6.43,7.86l2.42,2.58L165.12,794c-.21-.08-21.18-8.71-31.58-11-10.52,7.56-31.22,10.88-32.1,11l-3.33.52,2.77-1.91c5-3.45,6.6-6.49,7.12-8.15a77.86,77.86,0,0,1-17.67,6.27l-2.78.56,2.12-1.89a14.63,14.63,0,0,0,5.26-11.41l-11.74,9,.38-8.16c-3.74,2.53-14.93,9.6-25.52,11.53l-3.95.72L57.5,789a49.07,49.07,0,0,0,8.33-6.92,177.51,177.51,0,0,1-22.66,9.45L36,794l6.53-3.78a134.89,134.89,0,0,0,17.84-12.36c-12.58,6.49-31.93,14-32.16,14.13l-4.07,1.58,3.29-2.88a38.07,38.07,0,0,0,5.46-7.07c-10.23,5.75-27,10.29-27.81,10.5l-2.87.78,2.14-2.07a83.38,83.38,0,0,1,8-6.75c-2,.41-4.42.94-7,1.53-10,2.23-24,5.35-34.69,4.81l-8.28.13C-24.7,791-5.32,785.21,1,782.43a77.58,77.58,0,0,1-8.87.46c-2.84,0-4.9-.12-4.9-.12l-6.19-.36,6.07-1.16c.17,0,16.36-3.22,23.62-10.14-1.41.07-2.87.1-4.37.1-3.75,0-6.38-.21-6.5-.23l-3.77-.32,6.75-2.19c7-2.25,10.43-3.36,13.2-5.83h-.7c-1.61,0-2.76-.11-2.81-.12l-2.72-.27,2.46-1.19c6.28-3,14-6.74,18.23-16.09-3.39.82-7.34,1.39-7.54,1.42l-5.17.73,4.74-2.2c10-4.61,16.72-16.49,18.33-32a23.84,23.84,0,0,1-8.87,4.5l-3.05.69,2.38-2c8.14-7,11.73-25.49,11.78-41.49-2.93,3.34-5.26,6.62-5.28,6.66l-1.4,2v-2.41c0-15.65.75-33.17,9.28-44.64a9.19,9.19,0,0,0-4.33,2.36l-1.82,2,.47-2.61c2-11.17,14.47-26.53,21.56-32.08a35.82,35.82,0,0,0-6.17,1.94l-1.91.77.94-1.84c4.84-9.44,13.83-20.35,22.68-23.11a8.65,8.65,0,0,0-3-.43,29.52,29.52,0,0,0-5.22.57l-3.1.67,2.45-2c.36-.29.73-.61,1.15-1,5.55-4.67,15.9-13.37,34.32-13.37,9,0,19,2.15,29.64,6.4a48.34,48.34,0,0,1,25.86-7.65c17.78,0,32.32,9.76,39.41,15.58l2.45,2-3.1-.67a29.22,29.22,0,0,0-5.22-.57,8.67,8.67,0,0,0-3.05.43c8.86,2.76,17.85,13.67,22.69,23.11l.94,1.84-1.91-.77a36,36,0,0,0-6.18-1.94c7.09,5.55,19.53,20.91,21.56,32.08l.48,2.61-1.8-2a9.2,9.2,0,0,0-4.35-2.38c8.53,11.47,9.27,29,9.27,44.64v2.41l-1.39-2s-2.36-3.32-5.28-6.66c.05,16,3.64,34.54,11.78,41.49l2.38,2-3.05-.69a23.84,23.84,0,0,1-8.88-4.5c1.61,15.5,8.39,27.39,18.34,32l4.74,2.2-5.17-.73c-.19,0-4.15-.6-7.55-1.42,4.23,9.35,12,13.07,18.24,16.09l2.45,1.19-2.72.27a28,28,0,0,1-2.8.12h-.7c2.77,2.47,6.24,3.59,13.19,5.83l6.76,2.19-3.78.32c-.11,0-2.75.23-6.49.23-1.5,0-3,0-4.38-.1,7.27,6.93,23.46,10.1,23.63,10.14l6.07,1.16-6.17.36s-2.08.12-4.93.12a77.58,77.58,0,0,1-8.87-.46,107.1,107.1,0,0,0,30.36,8.41l6.25,1.28a159.9,159.9,0,0,1-41-4.56c-2.61-.59-5-1.12-7-1.53a82.22,82.22,0,0,1,8,6.75l2.15,2.07-2.88-.78c-.77-.21-17.57-4.75-27.81-10.5a38.53,38.53,0,0,0,5.47,7.07l3.29,2.88-4.08-1.58c-.22-.09-19.58-7.64-32.15-14.13a133.55,133.55,0,0,0,17.84,12.36l6.52,3.78-7.15-2.39a177.37,177.37,0,0,1-22.67-9.45,49.15,49.15,0,0,0,8.34,6.92l3.39,2.13-3.94-.72c-10.6-1.93-21.78-9-25.53-11.53l.39,8.16"/>
            </g>
            <g>
              <g class="cls-66">
                <path class="cls-67" d="M88.9,600.58S77.37,606,78.26,613.15c4.45-1.19,6.23-3.26,6.23-3.26-5.94,7.71-4.16,27.89-4.16,27.89,2.08-4.45,11-16.61,11-16.61-3,13.64,0,22.55,0,22.55,3-4.46,12.17-11,12.17-11l4.75,12.71c7.12-8,3.25-25.56,3.25-25.56Z"/>
              </g>
              <path class="cls-65" d="M88.9,600.58s-9,4.7-8.2,10.85c3.85-1,5.38-2.82,5.38-2.82-5.12,6.66-3.58,24.07-3.58,24.07,1.79-3.83,9.47-14.34,9.47-14.34-2.56,11.79,0,19.47,0,19.47,2.56-3.85,10.5-9.48,10.5-9.48l4.1,11c6.15-6.87,4.91-19.41,4.91-19.41Z"/>
              <path class="cls-64" d="M106.29,640.76l-4.19-11.21c-2.06,1.53-7.51,5.72-9.49,8.69l-.87,1.3-.5-1.49c-.09-.29-2.13-6.57-.65-16.48-2.39,3.38-6.22,8.92-7.4,11.45L82,635.61l-.25-2.86c-.06-.63-1.17-13.81,2.08-21.65a16.21,16.21,0,0,1-2.91,1.07l-.85.23-.11-.87c-.82-6.56,9.37-11.23,9.37-11.23s-7.64,4.87-7.88,10.11a9.87,9.87,0,0,0,4.06-2.29l2.45-1.81c-5.25,8.34-5,18.6-4.83,23.67,2.77-4.61,8-11.73,8.24-12.09L93.49,615l-.77,3.55a42.7,42.7,0,0,0-.4,17.57c3.19-3.73,9.41-8.16,9.71-8.37l.81-.58,4,10.64c5-6.75,4.62-18.14,4.62-18.26s2,13.28-4.3,20.31Z"/>
            </g>
            <g>
              <g class="cls-68">
                <path class="cls-69" d="M64.45,662.47s-3.09,12.53-.83,18.08a69.7,69.7,0,0,1,3.95-8c-2,16.79,4,23.32,4,23.32-.28-4.9,2.82-9.48,2.82-9.48,2.55,12.09,8.19,14,12.42,14.32a40.17,40.17,0,0,1-4.28-11.37c8.23,8.49,15.85,5.22,15.85,5.22-6.49-4.57-5.92-10.26-5.92-10.26,9.59,2.43,14.67,0,14.67,0-2.82-6.06.92-21.85-11.22-22.7Z"/>
              </g>
              <path class="cls-65" d="M64.3,662.29s-2.81,9.83-.76,14.19a50.7,50.7,0,0,1,3.59-6.25c-1.79,13.17,3.58,18.29,3.58,18.29-.25-3.84,2.57-7.44,2.57-7.44,2.3,9.49,7.42,10.95,11.27,11.24a29.09,29.09,0,0,1-3.9-8.92c7.48,6.65,14.39,4.09,14.39,4.09-5.89-3.58-5.37-8-5.37-8,8.71,1.9,13.31,0,13.31,0-2.55-4.76.84-17.14-10.18-17.81Z"/>
              <path class="cls-64" d="M86,693.21l-1.53-.12C80.75,692.8,75.6,691.4,73,683a10.4,10.4,0,0,0-1.51,5.52l.13,2-1.43-1.36c-.21-.2-4.74-4.67-4.13-15.66-.53.92-1.14,2.06-1.82,3.4l-.71,1.42-.67-1.44c-2.57-6.14,1.45-14.51,1.45-14.51s-1.54,7.61-.59,12.19a42.38,42.38,0,0,1,2.8-4.7l1.8-2.54-.42,3.09c-1.17,8.59.81,13.67,2.2,16a14.51,14.51,0,0,1,2.58-5.74l1-1.24.37,1.54c1.88,7.71,5.62,9.84,9,10.45a28.57,28.57,0,0,1-3.17-7.81l-.44-2.25,1.7,1.52c5,4.44,9.63,4.62,12,4.31-4.66-3.58-4.27-7.58-4.25-7.77l.1-.84.83.18c6.36,1.38,10.49.69,12.1.27a24.7,24.7,0,0,1-1-5.35c-.68-5.62-1.39-11.42-8.47-11.85,0,0,8.69-2.21,10,11.66a18.17,18.17,0,0,0,1.23,5.65l.4.75-.78.33c-.19.08-4.59,1.83-12.81.24.19,1.35,1.07,4.06,5,6.44l1.36.82-1.49.56c-.27.1-6.29,2.23-13.23-2.71a31.24,31.24,0,0,0,3.11,6.4Z"/>
            </g>
            <g>
              <g class="cls-70">
                <path class="cls-71" d="M164.88,676.25s-3.32,14.36-.81,20.72a79.07,79.07,0,0,1,4.4-9.12c-2.2,19.21,4.39,26.68,4.39,26.68-.31-5.6,3.15-10.84,3.15-10.84,2.82,13.83,9.1,16,13.81,16.39a46.89,46.89,0,0,1-4.76-13c9.16,9.72,17.64,6,17.64,6-7.22-5.23-6.6-11.74-6.6-11.74,10.68,2.78,16.34,0,16.34,0-3.14-6.94,0-25.92-12.93-25.92Z"/>
              </g>
              <path class="cls-65" d="M164.76,676.06s-3.09,11.2-.76,16.17a58.83,58.83,0,0,1,4.09-7.11c-2,15,4.08,20.82,4.08,20.82-.3-4.37,2.92-8.46,2.92-8.46,2.62,10.79,8.45,12.45,12.82,12.79a33.43,33.43,0,0,1-4.43-10.16c8.51,7.58,16.39,4.66,16.39,4.66-6.71-4.08-6.12-9.16-6.12-9.16,9.91,2.16,15.15,0,15.15,0-2.91-5.42,0-20.23-12-20.23Z"/>
              <path class="cls-64" d="M189.39,711.15l-1.53-.12c-4.26-.32-10.14-1.93-13.07-11.71a12.08,12.08,0,0,0-1.85,6.57l.12,2-1.42-1.35c-.24-.24-5.49-5.4-4.65-18.2-.65,1.11-1.44,2.54-2.3,4.27L164,694l-.67-1.44c-2.41-5.13,1.45-16.49,1.45-16.49s-1.82,9-.61,14.2a50.91,50.91,0,0,1,3.31-5.59l1.81-2.54-.42,3.09c-1.39,10.18,1.07,16,2.65,18.57a16.35,16.35,0,0,1,3-6.79l1-1.24.38,1.53c2.19,9,6.61,11.38,10.61,12a32.51,32.51,0,0,1-3.71-9.06l-.45-2.25,1.72,1.52c5.88,5.24,11.35,5.29,14,4.89-5.48-4.07-5-8.69-5-8.89l.1-.85.83.18c7.46,1.63,12.18.76,13.94.28a27.4,27.4,0,0,1-1.2-6.19c-.74-6.13-1.59-13.08-9.74-13.57,0,0,9.85-2.32,11.26,13.39.32,2.56.61,5,1.41,6.47l.41.76-.79.32c-.22.09-5.25,2.1-14.67.24.17,1.51,1.11,4.74,5.74,7.56l1.35.82-1.49.56c-.31.11-7.26,2.57-15.23-3.27a35,35,0,0,0,3.66,7.62Z"/>
            </g>
            <g>
              <g class="cls-70">
                <path class="cls-72" d="M53.7,733.45s-5.34,17.18-17.19,20.91c8.67,1.31,18-8.11,18-8.11a78.15,78.15,0,0,1-5.72,12.27c5.08,0,15.46-5.48,15.66-10.3a87,87,0,0,1,6.14,7.67c3.18-2.63,1.7-16.43,0-18.41,10.38,3.95,13.13,6.36,13.13,6.36.42-5,2.11-21.48-5.93-22.36,7-2.41,12.7,4.82,12.7,4.82,0-6.79-7.82-23.66-24.42-20.17Z"/>
              </g>
              <path class="cls-65" d="M52.11,730s-4.85,15.06-15.6,18.33c7.87,1.15,16.32-7.11,16.32-7.11A66.54,66.54,0,0,1,47.65,752c4.61,0,14-4.8,14.21-9a77.47,77.47,0,0,1,5.57,6.73c2.88-2.31,1.54-14.41,0-16.14,9.41,3.46,11.91,5.57,11.91,5.57.38-4.41,1.92-18.83-5.37-19.59,6.33-2.12,11.52,4.22,11.52,4.22,0-6-7.1-20.74-22.17-17.68Z"/>
              <path class="cls-64" d="M47.65,752.76H46.26l.74-1.18a65.65,65.65,0,0,0,3.94-7.73c-3.16,2.45-8.92,6.08-14.55,5.25l-3.4-.5,3.29-1c10.26-3.11,15.77-17.44,15.83-17.59S49,742.44,40.46,747.43c6.14-1.25,11.77-6.68,11.83-6.75l2.47-2.4-1.21,3.22a69.13,69.13,0,0,1-4.48,9.59c4.6-.77,11.87-4.81,12-8.16l.08-1.82,1.25,1.33a76,76,0,0,1,5,6,9.79,9.79,0,0,0,.82-3.48c.36-4.37-.62-10-1.42-10.89l-2-2.29,2.88,1.06a66.13,66.13,0,0,1,11,4.92c.42-5,1.14-16.83-4.81-17.46l-3.53-.37,3.37-1.12c4.63-1.55,8.62,1,10.74,2.84A22.53,22.53,0,0,0,77.37,710a17,17,0,0,0-14.05-4s6.48-3.19,15,2.8c4.94,4.23,7.89,10.89,7.89,14.88v2.15l-1.36-1.66s-3.49-4.17-8-4.36c4.62,3.55,3.66,14.36,3.26,18.83L80,740.66l-1.12-1s-2.27-1.83-10-4.79a31.51,31.51,0,0,1,.93,10.16c-.23,2.63-.86,4.39-1.9,5.21l-.63.51-.47-.66s-2-2.75-4.56-5.61C60.39,748.75,52.19,752.76,47.65,752.76Z"/>
            </g>
            <path class="cls-64" d="M162.51,603.12c-.13-.22-13.65-22.18-29.37-27l.46-1.46C149.86,579.65,162.51,603.12,162.51,603.12Z"/>
            <g>
              <g class="cls-68">
                <path class="cls-73" d="M104.61,706l-6.52,13.7,10-4.95c-.51,8.32,2.82,18.18,2.82,18.18,4.1-19.72,4.61-22.19,4.61-22.19a83.53,83.53,0,0,0,3.07,16.64A121.13,121.13,0,0,1,124,708c2.05,9.55,3.6,11.4,3.6,11.4,1.23-12,2.1-15.61,2.1-15.61,9.82,7.4,8.58,4.26,8.58,4.26l-1.48-12.3h5.39s.76-12-11.43-13.63Z"/>
              </g>
              <path class="cls-65" d="M104.61,701.94l-6.52,11.39,10-4.11c-.51,6.91,2.82,15.11,2.82,15.11l4.61-18.44a59.45,59.45,0,0,0,3.07,13.83A88.23,88.23,0,0,1,124,703.58c2.05,7.94,3.6,9.48,3.6,9.48,1.23-9.95,2.1-13,2.1-13,9.82,6.16,8.58,3.54,8.58,3.54l-1.48-10.22h5.39s.76-9.94-11.43-11.33Z"/>
              <path class="cls-64" d="M111.07,726.8l-.88-2.18c-.13-.33-3-7.53-2.93-14.23L96.12,715l8.75-13.6-4.81,10.32,8.88-3.66-.1,1.25c-.32,4.43,1,9.48,1.93,12.38l5-20,.49,4.17a69.68,69.68,0,0,0,2.18,11.06,95,95,0,0,1,4.81-13.6l.9-2,.55,2.1a46.39,46.39,0,0,0,2.38,7.28,91.85,91.85,0,0,1,1.83-10.8l.28-1,.87.54c4.66,2.92,6.6,3.7,7.36,3.9l-1.55-10.69h5.51c0-2.26-1-9.15-10.67-10.57,0,0,11.44-.76,12.19,11.4l-.06.7h-5.2l1.34,9.25a1.1,1.1,0,0,1-.28,1.22c-.47.42-1.26,1.13-8.55-3.34-.33,1.56-1,5.12-1.84,11.85l-.19,1.55L127,713.61c-.16-.16-1.47-1.59-3.23-7.7a82.85,82.85,0,0,0-4.46,14l-.5,2.53-1-2.4a52.08,52.08,0,0,1-2.57-10.12Z"/>
            </g>
            <g>
              <g class="cls-70">
                <path class="cls-74" d="M136.46,741.18l-8.83,17.48a47.31,47.31,0,0,0,9.23-8.34c-2.06,11.42-10.09,20.92-10.09,20.92,5.56-1.17,18-14.77,18-14.77-.6,10.53,1.45,16.68,1.45,16.68,3.8-4.39,5.85-19.9,5.85-19.9a95.12,95.12,0,0,0,9.07,14.93c3.52-6.44,0-22.24,0-22.24a115.81,115.81,0,0,0,14.05,7.9c-.58-9.66-7.59-21-18.59-19.15Z"/>
              </g>
              <path class="cls-65" d="M136.76,740.44,130.42,754a16,16,0,0,0,5.63-5.63,49.7,49.7,0,0,1-5.63,16.13c4.86-1,12.56-10.75,12.56-10.75-.52,9.22,1.27,14.59,1.27,14.59,3.33-3.84,5.12-17.41,5.12-17.41A82.64,82.64,0,0,0,157.3,764c3.08-5.63,0-19.46,0-19.46a101.61,101.61,0,0,0,12.3,6.91c-.51-8.45-6.64-18.34-16.26-16.76Z"/>
              <path class="cls-64" d="M143.94,769.85l-.42-1.28c-.07-.21-1.55-4.75-1.39-12.62-2.52,2.91-7.75,8.48-11.56,9.28l-1.76.38.95-1.53a46.87,46.87,0,0,0,4.83-12.5,19.46,19.46,0,0,1-3.77,3.06l-2,1.25,7.95-15.45-4.61,11.33a13.93,13.93,0,0,0,3.21-3.77l2.37-4.67-.92,5.15a54.14,54.14,0,0,1-4.7,14.5c3.71-2.07,8.49-7.48,10.27-9.73l1.51-1.91-.14,2.43a47.8,47.8,0,0,0,.81,12.7c2.58-4.79,4-15.54,4.05-15.66l.32-2.49,1.12,2.25a90.65,90.65,0,0,0,7.08,11.88c2-5.89-.55-17.65-.57-17.78l-.42-1.86,1.59,1.06a102,102,0,0,0,11,6.27A20.69,20.69,0,0,0,162,737.47a11.41,11.41,0,0,0-8.89-2.7,10.3,10.3,0,0,1,9.86,1.51,22,22,0,0,1,7.45,15.09l.08,1.28-1.17-.53a103.51,103.51,0,0,1-10.87-6c.73,4,2.1,13.57-.43,18.2l-.56,1-.72-.91a81.13,81.13,0,0,1-6.93-11.08c-.68,4.13-2.34,12.45-4.94,15.46Z"/>
            </g>
            <g>
              <g class="cls-70">
                <path class="cls-75" d="M187.66,740.82s-4.25,11.38-4.39,14.82c2.74-.63,7.4-4.38,7.4-4.38-3.35,5.32-1.46,12.83-1.46,12.83,1.44-3.76,6.78-9.23,6.78-9.23-.26,8,6.26,12.83,6.26,12.83-1-5,0-14.09,0-14.09,3.62,6.58,11.59,7,11.59,7-5.37-7.52-6.09-9.56-6.09-9.56,9,4.08,12,.79,12,.79-8.84-4.54-14.2-7.36-14.2-7.36,7.83,1.57,8.69.32,8.69.32-3.91-3.13-6.71-5.46-12.65-6.17Z"/>
              </g>
              <path class="cls-65" d="M187.81,740.43s-3.76,9.3-3.89,12.12c2.44-.51,6.55-3.59,6.55-3.59-3,4.36-1.3,10.5-1.3,10.5,1.28-3.07,6-7.55,6-7.55-.24,6.53,5.53,10.5,5.53,10.5-.9-4.1,0-11.52,0-11.52,3.2,5.37,10.24,5.76,10.24,5.76-4.74-6.15-5.37-7.81-5.37-7.81,7.93,3.33,10.62.64,10.62.64-7.81-3.72-12.55-6-12.55-6,6.92,1.28,7.68.25,7.68.25-3.45-2.56-5.93-4.46-11.18-5Z"/>
              <path class="cls-64" d="M201.86,764.15l-1.6-1.11c-.23-.15-5.08-3.57-5.78-9.34-1.45,1.51-3.79,4.12-4.6,6.06l-.86,2.07-.59-2.16a16.67,16.67,0,0,1,.12-8.48,15.82,15.82,0,0,1-4.47,2.11l-1,.2,0-1c.13-2.9,4.2-11.16,4.66-12.09,0,0-2.31,7.54-2.91,11a30.93,30.93,0,0,0,5.11-3.08l3.67-2.74-2.58,3.79c-1.71,2.52-1.74,5.73-1.53,7.8a41.67,41.67,0,0,1,5.07-5.85l1.37-1.29-.07,1.88a11.76,11.76,0,0,0,3.7,8.54,54,54,0,0,1,.3-9.69l.27-2.24,1.15,1.94c2,3.35,5.62,4.63,7.82,5.11-3.64-4.84-4.28-6.32-4.34-6.49l-.64-1.68,1.66.7c4.5,1.89,7.18,1.74,8.57,1.36-7-3.31-11.12-5.34-11.12-5.34l-5.1-2.48,5.57,1a29.16,29.16,0,0,0,5.67.63c-2.28-3-9.31-4.66-9.31-4.66,5.11.57,7.83,1.6,11.65,4.43l.61.46-.46.61c-.42.56-1.66.79-3.65.68l8.23,3.94,1,.46-.76.77c-.12.11-2.65,2.53-9.43.29.76,1.17,2.05,3,4.24,5.87l1,1.32-1.67-.09c-.27,0-6-.37-9.63-4.45a37.68,37.68,0,0,0,.17,9.29Z"/>
            </g>
            <g>
              <g class="cls-68">
                <path class="cls-76" d="M178.54,601.53s17.45,3.28,20.38,15.87c-6.74-1.47-11,0-11,0,10.09,4.69,13.89,23.43,13.89,23.43-12.3-10.25-19.27-7-19.27-7,10.78,7,7.64,19.61,7.64,19.61l-4.18-3.8c-.59,10.84-5.57,13.48-5.57,13.48-2.63-9.68-8.19-10.27-8.19-10.27.29,8.8-4.69,12.9-4.69,12.9-6.15-15.23-8.2-21.72-8.2-21.72-4.69,10.89-8.72,12.15-8.72,12.15-1.53-11.22-2.41-19.42-2.41-19.42a42.56,42.56,0,0,1-7.62,10.12c.3-8.36-3-25.23,7.27-30.5Z"/>
              </g>
              <path class="cls-65" d="M178.54,601.53s10.5,2.86,13.06,13.88c-5.89-1.28-9.59,0-9.59,0,8.82,4.1,12.15,20.49,12.15,20.49-10.76-9-16.86-6.15-16.86-6.15,9.43,6.15,6.68,17.15,6.68,17.15l-3.65-3.32c-.51,9.48-4.87,11.79-4.87,11.79-2.3-8.47-7.16-9-7.16-9,.25,7.69-4.1,11.28-4.1,11.28-5.38-13.32-7.17-19-7.17-19-4.1,9.52-7.63,10.62-7.63,10.62-1.34-9.8-2.11-17-2.11-17a37,37,0,0,1-6.66,8.86c.26-7.32-1.7-20.21,7.27-24.82Z"/>
              <path class="cls-64" d="M163.87,658.93l-.39-1c-3.62-9-5.64-14.53-6.56-17.18-3.77,8-6.93,9.14-7.29,9.26l-.87.27-.12-.9c-.89-6.48-1.53-11.86-1.86-14.73a34.71,34.71,0,0,1-5.64,7.07l-1.33,1.2.06-1.8c0-1.29,0-2.8,0-4.4-1.45-18.35,8.06-20.39,8.06-20.39-6.93,3.57-6.71,12.87-6.53,20.36,0,.88,0,1.74,0,2.55a41.58,41.58,0,0,0,5.21-7.33l1.17-2.08.26,2.38c0,.07.72,6.71,1.94,15.81,1.22-.95,3.64-3.43,6.32-9.67l.82-1.9.61,2c0,.06,1.76,5.5,6.72,17.85a14.21,14.21,0,0,0,3.05-9.87l0-.88.87.09c.22,0,5,.61,7.51,8.42,1.18-1.16,3.34-4.11,3.68-10.51l.09-1.61,3.82,3.46c.38-3,.48-10.39-6.58-15l-1.17-.76,1.26-.59c.25-.11,6-2.61,15.89,4.85-1.23-4.51-4.69-14.78-11.18-17.79l-1.73-.8,1.8-.63a19.1,19.1,0,0,1,8.79-.25c-2.86-9.59-11.91-12.86-12-12.9s11.18,2.41,13.81,13.71l.28,1.18-1.19-.26a21.49,21.49,0,0,0-7.3-.4c7.72,5.34,10.65,19.35,10.77,20l.44,2.14-1.68-1.4c-7.23-6-12.22-6.57-14.54-6.36,8.09,6.5,5.63,16.85,5.6,17l-.31,1.24L181,645.21c-.9,8.49-5,10.73-5.14,10.83l-.85.45-.26-.92c-1.56-5.74-4.27-7.58-5.65-8.16-.13,7.26-4.2,10.7-4.39,10.85Z"/>
            </g>
          </g>
          <polygon class="cls-26" points="474.13 99.61 -4.08 106 -4.08 127.1 458.68 120.2 474.13 99.61"/>
          <polygon class="cls-52" points="86.03 437.5 191.58 434.93 186.43 541.77 84.74 535.33 86.03 437.5"/>
          <g>
            <path class="cls-51" d="M75.73,428.49v110.7L198,545V428.49ZM185.87,533.27,85.48,528.52V437.63H185.87Z"/>
            <polygon class="cls-51" points="140.18 437.63 140.18 530.89 126.43 530.29 126.43 437.63 140.18 437.63"/>
            <polygon class="cls-53" points="140.18 437.63 140.18 530.89 146.4 531.17 146.4 437.63 140.18 437.63"/>
            <polygon class="cls-53" points="91.36 437.63 91.36 528.74 86.21 528.52 86.21 437.63 91.36 437.63"/>
            <polygon class="cls-51" points="75.73 480.99 192.87 484.26 192.87 490.92 75.73 486.74 75.73 480.99"/>
          </g>
          <polygon class="cls-53" points="326.74 415.62 301.69 545.63 300.91 548.37 298.26 533.27 322.32 415.14 326.74 415.62"/>
          <polygon class="cls-5" points="0.48 787.73 340.79 795.36 340.46 805.07 0.48 797.76 0.48 787.73"/>
          <path class="cls-18" d="M132.72,781.6s-5.78,2.9-2,37.82l3.74,34.92,18.84.34-4.36-74.91Z"/>
          <polygon class="cls-18" points="192.97 780.57 215.17 780.97 216.16 855.82 196.63 856.89 192.97 780.57"/>
          <path class="cls-18" d="M277.8,784.21l21.59-2.8-1.89,82-21.13-.51Z"/>
          <polygon class="cls-17" points="132.72 781.6 146.6 781.85 151.54 854.65 153.26 854.68 148.9 779.77 132.72 781.6"/>
          <polygon class="cls-17" points="192.97 780.57 212.65 783.05 213.97 855.78 216.16 855.82 215.17 780.97 192.97 780.57"/>
          <polygon class="cls-17" points="277.5 784.43 298.69 781.69 297.5 863.43 300.5 862.43 301.39 778.41 277.5 784.43"/>
          <ellipse class="cls-6" cx="137.83" cy="796.43" rx="3.36" ry="3.19" transform="translate(-660.97 919.77) rotate(-88.96)"/>
          <ellipse class="cls-6" cx="203.03" cy="795.4" rx="3.36" ry="3.19" transform="translate(-595.92 983.95) rotate(-88.96)"/>
          <ellipse class="cls-6" cx="285.72" cy="798.17" rx="3.36" ry="3.19" transform="translate(-517.5 1069.35) rotate(-88.96)"/>
          <polygon class="cls-53" points="295.85 575.92 267.53 722.9 267.53 701.71 293.24 561.14 295.85 575.92"/>
          <polygon class="cls-53" points="267.53 415.62 293.24 561.14 290.89 573.95 267.53 442.65 267.53 415.62"/>
          <polygon class="cls-53" points="301.72 609.13 317.73 699.75 311.29 699.75 299.54 621.26 301.72 609.13"/>
          <line class="cls-77" x1="360.26" y1="120.35" x2="169.11" y2="371.58"/>
          <line class="cls-78" x1="358.26" y1="120.35" x2="167.11" y2="371.58"/>
          <path class="cls-53" d="M604.69,544.6s2.12,10,2.39,7.47,37.6-103.83,37.6-103.83v-17Z"/>
          <polygon class="cls-53" points="595.75 569.93 558.59 675.3 563.4 675.3 598.26 578.33 595.75 569.93"/>
          <polygon class="cls-50" points="429.07 261.15 429.07 314.11 424.57 314.53 424.57 258.58 429.07 261.15"/>
          <polygon class="cls-50" points="429.07 261.15 464.47 256.19 464.47 252.14 424.57 258.58 429.07 261.15"/>
          <polygon class="cls-53" points="447.28 256.65 447.28 312.41 443.01 312.41 443.01 255.6 447.28 256.65"/>
          <polygon class="cls-50" points="450.36 258.58 450.36 312.12 447.28 312.41 447.28 256.65 450.36 258.58"/>
          <line class="cls-22" x1="168.12" y1="373.7" x2="175.49" y2="383.96"/>
          <polyline class="cls-22" points="232.48 374.99 239.85 385.25 232.48 374.99 239.85 385.25"/>
          <line class="cls-25" x1="232.45" y1="372.87" x2="239.85" y2="385.25"/>
          <line class="cls-25" x1="168.69" y1="372.87" x2="176.69" y2="383.95"/>
          <polygon class="cls-79" points="0 373.12 263.67 372.45 272.12 383.92 0 384.08 0 373.12"/>
          <polygon class="cls-80" points="-6.65 380 254.65 380 254.65 392.45 0 394.6 -6.65 380"/>
          <g>
            <path class="cls-19" d="M1066.81,675.5s25.89-3.94,25.18-14.76S1066.81,675.5,1066.81,675.5Z"/>
            <path class="cls-19" d="M1061.77,679.87s14.39-27,25.18-33.93-18.7-7.44-25.18,20.87Z"/>
            <path class="cls-19" d="M1060.69,676.22s7.26-21-19.78-22.12C1028.69,653.61,1060.69,676.22,1060.69,676.22Z"/>
          </g>
          <g>
            <path class="cls-81" d="M119.27,873.25s12.12-8.2,35.48-10.23-25.09-10.77-42.4,10.23C112.35,873.25,104.56,882.59,119.27,873.25Z"/>
            <path class="cls-81" d="M86.39,874.42s35.48-26.26,56.25-33.26-19.91-7.59-47.6,14.3C95,855.46,81.19,868.59,86.39,874.42Z"/>
            <path class="cls-81" d="M76,874.42s23.57-42.6,34.29-47.85-17-8.17-34.29,26.55C76,853.12,69.08,871.5,76,874.42Z"/>
            <path class="cls-81" d="M63.45,874.42s9.09-39.1,17.74-44.93S48.31,835.91,63.45,874.42Z"/>
            <path class="cls-81" d="M58.26,874.42s.43-32.57-18.17-37.58S50.91,858.08,58.26,874.42Z"/>
            <path class="cls-81" d="M52.2,874.42S40.52,837.1,12,836.21,34.46,849.91,52.2,874.42Z"/>
            <path class="cls-81" d="M49.75,874.42s-15.29-15.17-41.25-14S43.4,869.75,49.75,874.42Z"/>
          </g>
          <g>
            <path class="cls-19" d="M1394.08,686.8s7.23-5.53,21.19-6.89-15-7.25-25.33,6.89q-19.29-29-18.6-29.46T1394.08,686.8Z"/>
            <path class="cls-19" d="M1374.44,687.58s21.19-17.67,33.59-22.39-11.88-5.1-28.42,9.63C1379.61,674.82,1371.34,683.65,1374.44,687.58Z"/>
            <path class="cls-19" d="M1368.23,687.58s14.08-28.67,20.48-32.21-10.14-5.5-20.48,17.87C1368.23,673.24,1364.1,685.62,1368.23,687.58Z"/>
            <path class="cls-19" d="M1360.74,687.58s5.43-26.32,10.6-30.24S1351.69,661.66,1360.74,687.58Z"/>
            <path class="cls-19" d="M1357.64,687.58s.26-21.92-10.86-25.3S1353.25,676.58,1357.64,687.58Z"/>
            <path class="cls-19" d="M1354,687.58s-9-9-26-9.58S1343.42,671.08,1354,687.58Z"/>
            <path class="cls-19" d="M1352.56,687.58a32.6,32.6,0,0,0-24.64-9.43C1312.41,678.94,1348.77,684.44,1352.56,687.58Z"/>
          </g>
          <path class="cls-13" d="M801.49,744c.51,20-173,56.67-11.22,40.33s199.09,26,303.91,10.85c98.68-14.29,206.17,26.84,219.35,4.86,1-1.74.33-2.5,1.34-4.86,9.37-21.8,62.69-17.41,96.13-16.18,82.12,3,155.69-8.82,156-14,.22-3.66-35.63-10.88-195-26.55C1262.44,732.49,1145.44,730.18,801.49,744Z"/>
          <path class="cls-14" d="M913.45,729.58s92.61-11.43,135.08-3S913.45,729.58,913.45,729.58Z"/>
          <path class="cls-14" d="M1105.45,757.58s92.61-11.43,135.08-3S1105.45,757.58,1105.45,757.58Z"/>
          <ellipse class="cls-14" cx="821.5" cy="734.5" rx="22.5" ry="7.5"/>
          <path class="cls-52" d="M507,683l-171,5q1-22.5,2-45l134.49-8.74Z"/>
          <g class="cls-82">
            <polygon class="cls-79" points="353.74 587.1 353.74 687.39 364.67 687.39 364.67 585.31 353.74 587.1"/>
            <polygon class="cls-83" points="364.67 585.31 373.46 584.73 373.46 687.18 364.67 687.39 364.67 585.31"/>
          </g>
          <g class="cls-82">
            <polygon class="cls-79" points="448.74 587.1 448.74 687.39 459.67 687.39 459.67 585.31 448.74 587.1"/>
            <polygon class="cls-83" points="459.67 585.31 468.46 584.73 468.46 687.18 459.67 687.39 459.67 585.31"/>
          </g>
          <polygon class="cls-84" points="339.53 604.74 510.86 605.74 510.86 622.62 339.13 621.11 339.53 604.74"/>
          <polygon class="cls-85" points="336 688 507 683 522.5 682.01 522.5 695.98 338.43 706.75 336 688"/>
          <polygon class="cls-53" points="607.08 552.07 644.68 669.52 644.68 653.02 609.78 543.99 607.08 552.07"/>
          <polygon class="cls-53" points="563.4 415.62 596.7 519.63 599.7 514.15 568.43 415.62 563.4 415.62"/>
          <polygon class="cls-50" points="311.29 378.26 311.29 399.41 317.73 400.2 317.73 378.29 311.29 378.26"/>
          <path class="cls-60" d="M467.25,132.44C480.67,150.13,494.45,170,508,192c9.3,15.14,17.6,29.86,25,44q15.82,36.5,31.74,72.95c15.88,36.48,31.81,73,32,73h-5.85l-67-140.17c-7.25-15.05-15.79-31.1-25.86-47.78a577.39,577.39,0,0,0-37.72-55l7-6.55"/>
          <ellipse class="cls-14" cx="1376.5" cy="713.5" rx="83.5" ry="3.5"/>
          <ellipse class="cls-14" cx="1412.5" cy="784.5" rx="241.5" ry="10.5"/>
          <polygon class="cls-53" points="263.67 374.43 356 221 -1 227 -6.65 374.43 263.67 374.43"/>
          <polygon class="cls-86" points="-1 230 353.74 222.68 486.72 99.61 -4.08 106 -1 230"/>
          <polygon class="cls-51" points="263.67 374.43 353.74 222.68 486.72 99.61 491.93 109.26 363.1 230.26 272.12 383.95 263.67 374.43"/>
          <polygon class="cls-87" points="0 373.12 263.67 374.43 272.12 383.95 0 384.08 0 373.12"/>
          <polygon class="cls-51" points="478.75 110.64 548 223 619.86 381.45 626.25 369.76 561 223 486.72 102.35 478.75 110.64"/>
        </g>
      </g>
    </g>
  </g>
</svg>
