<svg id="Layer_1" data-name="Layer 1" xmlns="http://www.w3.org/2000/svg" xmlns:xlink="http://www.w3.org/1999/xlink" width="1600" height="900" viewBox="0 0 1600 900">
  <defs>
    <style>
      .cls-1 {
        fill: none;
      }

      .cls-2 {
        fill: url(#linear-gradient);
      }

      .cls-3 {
        clip-path: url(#clip-path);
      }

      .cls-4 {
        clip-path: url(#clip-path-2);
      }

      .cls-5 {
        fill: url(#linear-gradient-2);
      }

      .cls-28, .cls-6 {
        fill: #bfd9f1;
      }

      .cls-6 {
        opacity: 0.56;
      }

      .cls-7 {
        fill: #207d78;
        opacity: 0.36;
      }

      .cls-8 {
        fill: url(#linear-gradient-3);
      }

      .cls-9 {
        fill: #6c8a3b;
      }

      .cls-10 {
        fill: #c4926c;
      }

      .cls-11 {
        fill: #b6885e;
      }

      .cls-12, .cls-38 {
        fill: #7c451d;
      }

      .cls-13 {
        fill: #8b522b;
      }

      .cls-14, .cls-31 {
        fill: #1c3f1d;
      }

      .cls-15 {
        fill: #152c1a;
      }

      .cls-16 {
        fill: #122416;
      }

      .cls-17 {
        fill: #184226;
      }

      .cls-18 {
        opacity: 0.62;
      }

      .cls-19 {
        clip-path: url(#clip-path-3);
      }

      .cls-20 {
        opacity: 0.59;
      }

      .cls-21 {
        clip-path: url(#clip-path-4);
      }

      .cls-22 {
        fill: #2a7b44;
      }

      .cls-23 {
        fill: #0b1e14;
      }

      .cls-24 {
        clip-path: url(#clip-path-5);
      }

      .cls-25 {
        clip-path: url(#clip-path-6);
      }

      .cls-26 {
        fill: #b5d679;
      }

      .cls-27 {
        fill: url(#linear-gradient-4);
      }

      .cls-28 {
        opacity: 0.18;
      }

      .cls-29 {
        opacity: 0.49;
        fill: url(#linear-gradient-5);
      }

      .cls-30 {
        fill: #698037;
        opacity: 0.32;
      }

      .cls-31 {
        opacity: 0.61;
      }

      .cls-32 {
        clip-path: url(#clip-path-7);
      }

      .cls-33 {
        clip-path: url(#clip-path-8);
      }

      .cls-34 {
        clip-path: url(#clip-path-9);
      }

      .cls-35 {
        fill: url(#linear-gradient-6);
      }

      .cls-36 {
        fill: url(#linear-gradient-7);
      }

      .cls-37 {
        fill: url(#linear-gradient-8);
      }

      .cls-38 {
        opacity: 0.89;
      }

      .cls-39 {
        fill: #5c2d1f;
      }

      .cls-40 {
        fill: #3a1a0b;
      }

      .cls-41 {
        fill: #220c00;
      }

      .cls-42 {
        fill: #f05a2b;
      }

      .cls-43 {
        fill: url(#linear-gradient-9);
      }

      .cls-44 {
        fill: url(#linear-gradient-10);
      }

      .cls-45 {
        fill: #8a96a1;
      }

      .cls-46 {
        fill: #2e3d49;
      }

      .cls-47 {
        clip-path: url(#clip-path-10);
      }

      .cls-48 {
        fill: url(#linear-gradient-12);
      }

      .cls-49 {
        fill: url(#linear-gradient-13);
      }
    </style>
    <linearGradient id="linear-gradient" x1="1769.13" y1="346.85" x2="2766.07" y2="346.85" gradientTransform="matrix(0.62, 0.02, -0.01, 0.83, -425.13, 465.83)" gradientUnits="userSpaceOnUse">
      <stop offset="0" stop-color="#103145"/>
      <stop offset="0.2" stop-color="#234a40"/>
      <stop offset="0.46" stop-color="#36633c"/>
      <stop offset="0.7" stop-color="#427239"/>
      <stop offset="0.89" stop-color="#467738"/>
    </linearGradient>
    <clipPath id="clip-path">
      <rect class="cls-1" x="-1050" width="800" height="900"/>
    </clipPath>
    <clipPath id="clip-path-2">
      <rect class="cls-1" x="-1480.27" y="-0.15" width="1600.54" height="900.3"/>
    </clipPath>
    <linearGradient id="linear-gradient-2" x1="-1544.92" y1="-33.5" x2="-1544.92" y2="932.84" gradientTransform="matrix(-1, 0, 0, 1, -2262, 0)" gradientUnits="userSpaceOnUse">
      <stop offset="0" stop-color="#9fb6de"/>
      <stop offset="0.23" stop-color="#bbcae7"/>
      <stop offset="0.43" stop-color="#d7def0"/>
    </linearGradient>
    <linearGradient id="linear-gradient-3" x1="-494.58" y1="36.7" x2="861.69" y2="36.7" gradientUnits="userSpaceOnUse">
      <stop offset="0" stop-color="#a2b8df"/>
      <stop offset="0.03" stop-color="#a6bbe0"/>
      <stop offset="0.21" stop-color="#bbcae7"/>
      <stop offset="0.42" stop-color="#cbd5ec"/>
      <stop offset="0.66" stop-color="#d4dcef"/>
      <stop offset="1" stop-color="#d7def0"/>
    </linearGradient>
    <clipPath id="clip-path-3">
      <rect class="cls-1" x="31" y="684.84" width="310.53" height="43.1" transform="translate(-542.78 753.1) rotate(-78.89)"/>
    </clipPath>
    <clipPath id="clip-path-4">
      <rect class="cls-1" x="112.13" y="740.82" width="161.53" height="30.75" transform="translate(-586.3 799.82) rotate(-78.89)"/>
    </clipPath>
    <clipPath id="clip-path-5">
      <rect class="cls-1" x="1850" width="800" height="900"/>
    </clipPath>
    <clipPath id="clip-path-6">
      <rect class="cls-1" x="1560" width="1600" height="900"/>
    </clipPath>
    <linearGradient id="linear-gradient-4" x1="2360.7" y1="-0.5" x2="2360.7" y2="337.5" gradientUnits="userSpaceOnUse">
      <stop offset="0" stop-color="#89a4d5"/>
      <stop offset="0.17" stop-color="#9cb2dc"/>
      <stop offset="0.52" stop-color="#bccae7"/>
      <stop offset="0.8" stop-color="#d0d9ee"/>
      <stop offset="1" stop-color="#d7def0"/>
    </linearGradient>
    <linearGradient id="linear-gradient-5" x1="2140.43" y1="-81.38" x2="2577.09" y2="674.92" gradientUnits="userSpaceOnUse">
      <stop offset="0.01" stop-color="#26476f"/>
      <stop offset="0.02" stop-color="#2b4e71"/>
      <stop offset="0.1" stop-color="#426e79"/>
      <stop offset="0.18" stop-color="#54867f"/>
      <stop offset="0.26" stop-color="#609784"/>
      <stop offset="0.35" stop-color="#68a286"/>
      <stop offset="0.46" stop-color="#6aa587"/>
      <stop offset="1" stop-color="#427c83"/>
    </linearGradient>
    <clipPath id="clip-path-7">
      <polygon class="cls-1" points="1571.76 873.64 1605.17 860.41 1516.99 618.44 1483.58 631.66 1571.76 873.64"/>
    </clipPath>
    <clipPath id="clip-path-8">
      <polygon class="cls-1" points="1556.42 855.72 1580.26 846.29 1534.39 720.42 1510.56 729.86 1556.42 855.72"/>
    </clipPath>
    <clipPath id="clip-path-9">
      <rect class="cls-1" x="-0.27" y="-0.15" width="1600.54" height="900.3"/>
    </clipPath>
    <linearGradient id="linear-gradient-6" x1="-3024.92" y1="-33.5" x2="-3024.92" y2="932.84" xlink:href="#linear-gradient-2"/>
    <linearGradient id="linear-gradient-7" x1="985.42" y1="48.68" x2="2341.69" y2="48.68" xlink:href="#linear-gradient-3"/>
    <linearGradient id="linear-gradient-8" x1="985.42" y1="36.7" x2="2341.69" y2="36.7" xlink:href="#linear-gradient-3"/>
    <linearGradient id="linear-gradient-9" x1="-576" y1="125.89" x2="777.09" y2="125.89" gradientUnits="userSpaceOnUse">
      <stop offset="0" stop-color="#a2b8df"/>
      <stop offset="1" stop-color="#d7def0"/>
    </linearGradient>
    <linearGradient id="linear-gradient-10" x1="-576" y1="142.9" x2="777.09" y2="142.9" xlink:href="#linear-gradient-9"/>
    <clipPath id="clip-path-10">
      <path class="cls-2" d="M956,824.68l2.31-1.15,4.23,1.6.37.18a2.53,2.53,0,0,1-.82.12,38.51,38.51,0,0,1-6.09-.75m-31.89-1.34q2.8,1,5.47,1.85c-3.21,1.39-6.35,2.82-9.36,4.29.2-1,1.54-3.11,3.89-6.14m115.62-5.21.38-.3.73.34h-.24a5.5,5.5,0,0,1-.87,0m-72.58,1.25.81-.37,1,.8a8.83,8.83,0,0,1-1.8-.43m-60.1-2,4,1.39c-1.67,1.83-3.23,3.63-4.61,5.4a23.79,23.79,0,0,1,.61-6.79M1126.88,815c1.59-1.05,3.19-2.07,4.78-3,3.93,1.24,7,2.13,9.19,2.76l-3.62,1.05c-2.68-.09-6.19-.37-10.35-.77m-199,3.73c1.53-1.8,3.27-3.78,5.22-5.92,5,2.31,9.35,4.26,13.16,5.89-2.34.83-4.67,1.7-7,2.59-3.57-.79-7.39-1.65-11.39-2.56M1051.23,810l.66-.43.59.6-.21,0a3.33,3.33,0,0,1-1-.19m-28.56,2.63c1.11-1.59,2.27-3.12,3.46-4.59,1.6,1.34,3.14,2.59,4.62,3.73-1.29.82-2.55,1.66-3.82,2.5-1.34-.5-2.76-1-4.26-1.64M991,809.05c.7-.32,1.39-.63,2.06-.95l.61.4a35.24,35.24,0,0,0-.56,3.5,18.24,18.24,0,0,1-2.11-3m232.72-5.72,1.45,1.36-1.72,1.16-.7.07c.3-.88.62-1.75,1-2.59m-111.42,1.9,3,1.1c-1.64.75-3.27,1.51-4.85,2.28a11.81,11.81,0,0,1,1.86-3.38m30.83.18,2.35-1.22,3.24,2.35-.15,0a31.92,31.92,0,0,1-5.44-1.15m-153.81.25.36.24-.23.05c0-.1-.09-.2-.13-.29m71.85-2.34,1.53-1.11.94,3a10.16,10.16,0,0,1-2.47-1.92m35.64-4.15,2.47,1c-.92,1.06-1.8,2.12-2.61,3.16a19.87,19.87,0,0,1,.14-4.16m-189,15A114.22,114.22,0,0,1,912,802.3q5.52,2.88,10.49,5.34c-3,2.63-5.79,5.28-8.39,7.92l-6.28-1.42m29.3-5.71c2.92-3.11,6.18-6.48,9.76-10.07A116.05,116.05,0,0,0,961.4,813.6q-2.73.85-5.54,1.77c-5.05-1.87-11.39-4.24-18.74-6.94m96.6-8.65c1.68-1.66,3.37-3.23,5-4.73,2.76,3.31,5.19,6.07,7.25,8.33-1.32.6-2.6,1.22-3.82,1.84-2.5-1.54-5.34-3.38-8.46-5.44m141-8.77.37-.15c0,.19,0,.39,0,.58l-.39-.43m-168.37,14.82a123.86,123.86,0,0,1,2.84-13.18c3.36,3.21,6.61,6.27,9.7,9.09-2.63,2-5.19,4.11-7.6,6.23-1.6-.68-3.24-1.39-4.94-2.14M1209,788.78l.76.18,2.53,2.71c-2.12,2.33-4.27,4.69-6.51,7.11a100.86,100.86,0,0,1,3.22-10m-91.24,9.5c2.41-2.85,5.39-6.19,8.88-9.93,3.69,3.64,7.13,6.67,10.32,9.29q-4.67,1.65-9.28,3.47l-9.92-2.83m-47.66-10.78q5,2.31,9.71,4.4a97.4,97.4,0,0,1-6.32,9.54,66.33,66.33,0,0,1-1.87-6.73l.25-.23-.28.08c-.49-2.07-1-4.44-1.49-7.06M967.94,809.75c-4.37-4-10-9.51-16.34-16.07q4.24-4.17,9-8.65,6.85,5.31,13.09,9.8c.29,5.68.71,10.93.87,14.9l-3.52,1-3.09-1m130.25-16.94c2.1-7.31,6-16.27,10.18-25.53,3.93,5.21,7.66,9.72,11.2,13.67a196.8,196.8,0,0,0-15.1,13.6l-6.28-1.74M1133,781.64c4.54-4.66,9.71-9.78,15.42-15.22,1.75,9.9,3.76,19.21,4.9,25.78-2,.61-3.95,1.23-6,1.88-3.93-3.2-8.8-7.42-14.36-12.44m-121.54,3.05c1.66-5.46,3.72-11.52,6.19-18,6.49,9.68,12.37,17.56,17.4,23.85-2.47,1.56-5,3.24-7.64,5-5-3.34-10.35-7-16-10.87m-25.16,12c-2.9-10.69-4.89-23.94-8.49-33.92,8.5,7.76,16.83,15.84,24.67,23.4a103,103,0,0,0-6.75,14.88q-4.57-2.08-9.43-4.36M1171.7,787c-4.67-7.24-8.63-18.6-12.6-30.54l4.53-4.11c-.82,0-2.66.66-5.24,2-3.64-11-7.33-22.27-11.6-31.11-2.83,8.94-1.55,23.39.69,37.47-6.28,4-13.71,9.16-21.12,14.86-4.74-4.4-9.85-9.24-15.2-14.45,4.23-9.39,8.36-18.78,10.78-26.8-6,4.3-12.13,11.5-18.06,19.65-4.41-4.37-8.94-8.94-13.53-13.67,3.81,6.36,7.48,12.06,11,17.21-7.31,10.49-14.11,22-19.46,30.91-4-1-8.07-2.12-12.26-3.2a387.9,387.9,0,0,1-6.36-48.64c-7.72,38.77-5.58,47.76-2,61-1.59.5-3.1,1-4.56,1.53-2.76-2.78-6.28-6.39-10.45-10.65a62.11,62.11,0,0,0,8.58-8.6c-1.46.39-5.76,2.48-11.41,5.7-9.72-9.92-22.43-22.75-37.08-36.52q5.57,9.19,10.69,16.84c-2.46,1.86-7,7.6-11.42,14.91-9.45-6.44-19.19-13-28.08-18.58l-.22-.6c-.07.11-.12.23-.18.34l-1.18-.74,1.06,1c-3.52,6.61-3.93,17.9-3.56,28.54q-6.07-2.92-12.43-6.07c3.89-3.65,8-7.44,12.33-11.33-2.41-.16-13.64,6.21-26.66,15.37-6-6.33-12.51-13.43-19.15-21A193.78,193.78,0,0,0,942.08,792c-5.29,3.87-10.73,8.11-15.89,12.48-4.17-1.5-8.56-3.07-13.14-4.69,6.08-14.5,14.68-31.4,18.66-44.57C921,762.92,909.53,780,900.14,795.25l-3.3-1.13,3,1.65c-3.25,5.3-6.24,10.34-8.86,14.68-3.82-.81-7.54-1.59-11.09-2.28,3.46,1.12,6.93,2.28,10.38,3.45a111.88,111.88,0,0,1-7,10.69c-3.32-9.36-8.32-39.65-11.11-75.85-9.39,47.15-2.82,66.49,1.27,79.65-2.61-.75-25.33-26.29-57.23-56.28,23.32,38.55,41.31,56.28,46.08,61.25-4.68,1-46.09-30.1-76.48-49.07,26.16,23.61,50.92,51,64.82,57-6.07.58-41.1-14.39-82.7-35.06,37.52,29.38,61.78,40.33,69,45.71-9,0-18.52-6.92-71.82-23,19,9.91,39.24,19.74,54.15,26.76l-20,.68c-8.73-2.7-19-6.06-31-10.16,7.5,3.77,14.48,7.26,21,10.5l-52.86,1.79c-27.06-7.35-45.7-7.22-65.83-6.8l.45,17,618.69-10.72"/>
    </clipPath>
    <linearGradient id="linear-gradient-12" x1="-1857.39" y1="2644.38" x2="-1855.97" y2="2644.38" gradientTransform="matrix(-2.87, 190.42, 123.68, 8.03, -331414.04, 333188.49)" xlink:href="#linear-gradient"/>
    <linearGradient id="linear-gradient-13" x1="1119.53" y1="157.43" x2="1119.53" y2="481.35" gradientTransform="matrix(0.99, -0.06, -0.06, 0.74, 146.26, 650.54)" gradientUnits="userSpaceOnUse">
      <stop offset="0" stop-color="#103145"/>
      <stop offset="0.19" stop-color="#153744"/>
      <stop offset="0.44" stop-color="#224941"/>
      <stop offset="0.74" stop-color="#39663b"/>
      <stop offset="0.89" stop-color="#467738"/>
    </linearGradient>
  </defs>
  <g id="SC_06">
    <g class="cls-3">
      <g class="cls-4">
        <path class="cls-5" d="M-44.58,861.82c-1-9.24-1.8-18.47-2.84-27.69q-2.19-14.75-4.64-29.44c-4.14-25-8.58-49.92-12-75-4.38-32.14-8.67-64.21-8.73-96.7a83.84,83.84,0,0,1,11.5-42.51q6.59-8.54,13.18-17.05a84.24,84.24,0,0,1,37.17-21.67l22.39-3a63.61,63.61,0,0,1,27.21,4.79l9.41-7.26a62.6,62.6,0,0,1,31.31-10,42.36,42.36,0,0,1,22.4,0,62.67,62.67,0,0,1,31.32,10l8.83,6.83V-33.5h-1718V932.84H-47.45l6.63-39.79C-42.2,882.66-43.48,872.24-44.58,861.82Z"/>
        <path class="cls-6" d="M166.39,103.8q-.37-3-.76-5.9c-1-7.75-2.3-15.5-2.84-23.32,0-.29,0-.58,0-.87-290.44,32.86-597,83.54-798.77,40C-397.18,166.14-98.21,126.63,166.39,103.8Z"/>
        <path class="cls-7" d="M-213,195c-35.38,4-148.34,22.71-157.5,24.14-6.47,1-87.38-18.76-134.35-30.46a176.14,176.14,0,0,0-67.49-3.47l-456.13,64.82-58.91-21.78a99.32,99.32,0,0,0-45.8-5.56l-108,12.31c-35.89-27.73-122-51.43-159.06-60.74A53.53,53.53,0,0,0-1434,177a1038.52,1038.52,0,0,1-98.14,35.17q.75,13.06,1.26,26.14c2.13,54.51,1.39,109-.14,163.5l1713,99.1,6.1-240.17S-179.65,191.25-213,195Z"/>
        <path class="cls-8" d="M161.88,32.18c0-.3,0-.61,0-.92q-1.26-9.42-2.39-18.94c0-2.06.08-4.1.18-6.14C-80.85,43.67-318.06,79.92-485.84,49.51-291.23,85.48-59.28,60,161.88,32.18Z"/>
        <path class="cls-9" d="M-678.07,270.93c-392.16-4.55-849.93,23.53-849.93,23.53v605H-31.11l4.69-30.06q-2-16.26-3.67-32.56c-.95-9.62-1.76-19.25-2.78-28.85-1.41-10.25-2.94-20.47-4.52-30.69-4-26-8.36-52-11.69-78.18-4.26-33.5-8.45-66.92-8.5-100.79a92,92,0,0,1,11.21-44.31l12.84-17.77A81.07,81.07,0,0,1,2.71,513.71l21.83-3.13a58.44,58.44,0,0,1,26.53,5L60.24,508a58.35,58.35,0,0,1,30.53-10.42,38.79,38.79,0,0,1,21.83,0A58.42,58.42,0,0,1,143.14,508l16.62,13.73a67,67,0,0,1,5.24,5.85V314.9S-285.9,275.48-678.07,270.93Z"/>
        <path class="cls-10" d="M188.08,373.25c-65.71-9.31-133.57-10.2-200.53-11l-727.73-8.35-359.37-4.13c-111-1.27-234.54-15.26-344.25-1.06-37.82,4.9-77,8.11-116.28,11.51-2.29,27-5.05,54-8.1,80.93a87,87,0,0,1,6.5,37q0,62.06.46,124.11.85,105.75,3.73,211.49c69.09,44,159.7,63.22,248,65,97.67,1.93,194.17-15.52,289.52-32.86,42.59,50.64,112,83,184.44,100.07s148.47,20.28,223.75,23.19c78.69,3,162.58,4.84,230.17-28.12,28.26-13.79,52.22-33.09,81.55-45.29,69-28.71,151.63-13.08,228.4-4.45,46,5.18,97.36,5.68,140.64-5.91-2.78-17.82-5.45-35.67-7.75-53.57C55.57,788,50,744.2,50,699.85a119.52,119.52,0,0,1,14.83-58l17-23.27a107.35,107.35,0,0,1,48-29.56l28.89-4.11a78,78,0,0,1,35.11,6.55q2.25-1.85,4.51-3.68C192,516.42,189.06,444.85,188.08,373.25Z"/>
        <ellipse class="cls-11" cx="12.95" cy="440.28" rx="16.05" ry="7.13"/>
        <path class="cls-12" d="M162.27,699.85c0-1.15,0-2.29.07-3.43-8.86-.76-18.32-1.18-28.16-1.18C84.91,695.24,45,705.59,45,718.36s39.94,23.11,89.21,23.11c10.38,0,20.34-.46,29.61-1.3C162.86,726.77,162.29,713.34,162.27,699.85Z"/>
        <ellipse class="cls-13" cx="32.73" cy="761.39" rx="67.79" ry="20.15"/>
        <ellipse class="cls-13" cx="37.17" cy="784.15" rx="67.79" ry="20.15"/>
        <path class="cls-13" d="M164.91,754.23a197.23,197.23,0,0,0-37.28-3.32c-37.44,0-67.79,9-67.79,20.15s30.35,20.15,67.79,20.15a191.74,191.74,0,0,0,40.73-4Q166.4,770.72,164.91,754.23Z"/>
        <path class="cls-14" d="M174.17,831.83c-3.09-22.76-6.15-45.5-8.4-68.3C-141.15,770.87-275.67,814-275.67,814c-78.36-3.1-252.87,13.52-414.67,31.85-363.48-87.29-918.56-148.62-918.56-148.62L-1585,905.7l668.23-5,46,4.8H185.73C181.61,881,177.53,856.47,174.17,831.83Z"/>
        <g>
          <path class="cls-15" d="M174.17,831.83c-2-14.75-4-29.49-5.76-44.24C146,750.37,112.78,716.27,91.25,697c-26-23.18-55.18-41.25-86.64-51.57A192.53,192.53,0,0,0-43,636c-8-.52-39.41,7.08-45.17,2.69C-53.18,665.32-32,704.29-5,739.88c26.7,35.17,57.4,56,93.72,75.72,31.65,17.22,62.92,34.79,91.66,57.68C178.18,859.49,176.06,845.67,174.17,831.83Z"/>
          <path class="cls-16" d="M174.17,831.83q-1.81-13.38-3.57-26.73c-3.22-6.75-6.61-13.06-9.78-18.62A394.05,394.05,0,0,0,95.46,701C46.6,652.92-20,615.61-82.66,641.5c94.39,11,157.91,132.41,226.51,195.84,12.6,11.65,25.94,21.34,36.44,35.26C178.11,859,176,845.45,174.17,831.83Z"/>
          <path class="cls-15" d="M176.92,850.9c-23.55-32.68-75.33-54.43-100.2-74.37-44.87-36-90.54-52.64-142.59-36-21.61,6.91-42.71,12.84-64.27,19.05,47.71,24.91,97.07,43.69,143.78,70,42.24,23.8,78.38,21.9,123.27,30.77,16.45,3.25,30.51,11.46,44.42,18.65Q179,865,176.92,850.9Z"/>
          <path class="cls-15" d="M174.17,831.83c-6-43.87-11.82-87.63-11.9-132q0-5.79.58-11.44c-26.08-45.74-62.71-84.72-100.41-108C43.87,569,24.89,559.55,4.09,556.17c21.52,98.07,90,211.29,157.53,278.45,5.59,5.56,10.59,10.26,15.13,15.16Q175.42,840.81,174.17,831.83Z"/>
          <path class="cls-16" d="M162.27,699.85q0-5.69.56-11.24C135.4,642,97.34,602,62.44,580.43c-18.55-11.46-36-21.35-57-20.9C73.17,628,100.21,727.65,158.77,805c4.79,6.33,9.59,12.66,14.34,19C167.53,782.76,162.35,741.57,162.27,699.85Z"/>
          <path class="cls-15" d="M174.17,831.83c-6-43.87-11.82-87.63-11.9-132a114.29,114.29,0,0,1,11.29-49.67c-5.5-13.34-11-27.26-15.9-42.16C144,566.62,141,520.64,126.75,479.82c-8.43-24.18-21.35-43.21-40.24-58.59C99,465.93,96.69,478.09,86.8,524,68.62,608.46,96,695.45,129.91,772.57c6.52,14.82,35.47,102.8,47.19,106.46a12.59,12.59,0,0,0,4.33.6C178.83,863.72,176.35,847.8,174.17,831.83Z"/>
          <path class="cls-16" d="M175.9,844.06q-.89-6.1-1.73-12.23c-6-43.87-11.82-87.63-11.9-132a114.2,114.2,0,0,1,13.08-53.24c-8-15.38-15.71-30.85-20.88-48.13-11.65-38.92-14.31-80.21-27.72-118.66-7.62-21.85-24.14-39.87-38-59.67,13.35,20,15.71,47.39,18.19,71.23C119.3,610.39,118.31,735.9,175.9,844.06Z"/>
          <path class="cls-15" d="M174.17,831.83c-6-43.87-11.82-87.63-11.9-132a114.47,114.47,0,0,1,15.7-58l18-23.27A114.87,114.87,0,0,1,246.67,589l6-.81c8.19-29.31,20.48-56.75,38.29-80.06C176,511.34,128.81,655.49,149.39,770.67c4.44,24.86,4.61,109.84,30.25,105.2a11,11,0,0,0,1.13-.28C178.42,861,176.16,846.45,174.17,831.83Z"/>
          <path class="cls-16" d="M195.94,618.56A114.87,114.87,0,0,1,246.67,589l5.2-.7a473.17,473.17,0,0,1,21.81-67.44c-34.08,15.52-63.7,59.4-83.18,104.75Z"/>
          <path class="cls-16" d="M174.17,831.83c-4.6-33.83-9.12-67.58-11-101.6-7.14,50.43-8.36,99.39,10.72,150.82a71.44,71.44,0,0,0,7-4.95C178.47,861.36,176.19,846.62,174.17,831.83Z"/>
          <path class="cls-17" d="M168.23,876.92c.28-.2-1.51-4.08-6.06-10.16a118.78,118.78,0,0,0-22.63-22.24c-10.55-8.18-24.09-16.35-39.49-24.38s-32.59-16-49.85-26c-17.46-9.78-34.41-18.76-50.58-25.21A218.69,218.69,0,0,0-23.74,761c-7.45-2.08-14.51-3.45-20.88-4.7-12.77-2.59-23.45-3.67-30.83-3.25s-11.36,1.61-11.31,2,4.07,0,11.25.35,17.44,2,30,5.06c6.32,1.51,13.2,3.09,20.42,5.34a233.08,233.08,0,0,1,22.73,8.28c15.76,6.61,32.42,15.61,49.85,25.37,17.4,10.07,34.86,17.92,50.21,25.66s28.9,15.34,39.51,22.9a141.37,141.37,0,0,1,23.29,20.33c5,5.47,7.35,8.88,7.71,8.61"/>
          <path class="cls-17" d="M154.92,835.62c.34-.25-1.75-3.93-5.07-10.82s-7.72-17.06-12.69-29.92c-2.51-6.42-5.21-13.49-8.28-21s-6.55-15.44-10-23.9c-6.88-16.86-14.14-35.6-22.25-55.08S80.28,657,71.73,641a302.35,302.35,0,0,0-25.57-40.81,175.57,175.57,0,0,0-21.43-23.89c-5.57-5.07-9-7.36-9.24-7.07-.63.74,12.09,11.46,27.53,33.58a346.1,346.1,0,0,1,24.19,40.93c8.2,16,16.28,34.28,24.35,53.69s15.48,38.07,22.65,54.88c3.55,8.41,7.21,16.34,10.44,23.68l8.89,20.71C139,809.34,144,819.39,148,826s6.67,9.87,7,9.64"/>
          <path class="cls-17" d="M58.43,671c-.31.29,3.23,5.07,8.61,13s12.54,19.19,20.34,31.72,15,23.75,20.69,31.54,9.56,12.26,9.84,12-3-5.17-8.23-13.27-12.16-19.42-20-32-15.23-23.67-21.09-31.34-9.91-12-10.19-11.73"/>
          <path class="cls-17" d="M151.75,794.15c.39-.16-.74-4.56-2.41-12.58s-3.73-19.71-6.08-34.28c-4.65-29.3-14.6-68.66-22-112.92-1.83-11.06-3.38-21.89-4.58-32.39q-.42-4-.93-7.86c-.3-2.55-.57-5.1-.81-7.62-.47-5-.8-10-1.07-14.86-1-19.43-1.26-37.1-2.29-51.9a244.87,244.87,0,0,0-4.37-34.8c-1.72-8.09-3.35-12.34-3.67-12.23s.49,4.58,1.53,12.7a347,347,0,0,1,2.57,34.65c.51,14.72.33,32.33,1.09,52,.2,4.91.48,10,.9,15.11.22,2.57.46,5.17.75,7.8s.61,5.2.87,7.83c1.13,10.63,2.66,21.59,4.51,32.74,7.44,44.6,18,83.88,23.6,112.65,2.84,14.45,5.47,26.14,7.86,34s4.18,12.06,4.51,11.93"/>
          <g class="cls-18">
            <g class="cls-19">
              <path class="cls-17" d="M156.16,814c-.1-3.59-.07-7.36.09-11.29s.59-8,.95-12.28c.76-8.53,1.72-17.64,2.92-27.19,1-7.82,2.18-16,3.59-24.29-.52-7.72-.93-15.45-1.17-23.2C159,732.12,156.69,748,155,762.68c-1.08,9.66-1.87,18.86-2.44,27.47-.25,4.31-.58,8.43-.64,12.54s.05,7.92.28,11.61a145.3,145.3,0,0,0,6.23,34.08c2.42,7.74,4.24,11.8,4.58,11.67s-.74-4.49-2.49-12.35A175.84,175.84,0,0,1,156.16,814Z"/>
              <path class="cls-17" d="M195.94,618.56q3.65-3.62,7.52-6.85c2.43-5.86,4.84-11.31,7.27-16.29,6.25-13,12.65-22.66,17.87-28.55s8.92-8.26,8.69-8.67-4.31,1.37-10.2,7-13,15.27-19.82,28.26c-4.05,7.61-8,16.35-12,25.94C195.49,619.14,195.72,618.85,195.94,618.56Z"/>
            </g>
          </g>
          <g class="cls-20">
            <g class="cls-21">
              <path class="cls-22" d="M170.38,803.37c-.74,1.9-1.43,3.74-2,5.51-5,14.27-6,23.67-5.66,23.69.46.1,2.08-9.08,7.49-23,.24-.63.51-1.28.77-1.93C170.75,806.24,170.56,804.8,170.38,803.37Z"/>
            </g>
          </g>
        </g>
        <g>
          <path class="cls-23" d="M139.28,945.48c-30.95-91.32,6.91-143.07,6.91-143.07-30.84,16-88.4,48.6-95.48,143.77Z"/>
          <path class="cls-23" d="M117.27,945.66C13.43,843.47,75.58,771,75.58,771,11,810.62,17.91,887.47,41,946.26Z"/>
          <path class="cls-23" d="M152.76,880.55c-.89-8.23-1.78-16.45-2.6-24.67-15.67,22.72-24.35,53.43,4.32,89.48l7.28-.06C158.34,923.71,155.11,902.12,152.76,880.55Z"/>
          <path class="cls-23" d="M60.32,946.11C20.76,807.37,106.93,770.7,106.93,770.7S5.5,802.14-15,946.71Z"/>
          <path class="cls-23" d="M152.76,880.55c-.64-6-1.29-11.95-1.91-17.92-25.21,19.58-61.43,50-90.09,83.47l60.75-.48c11.44-15.83,22.9-35,32.69-52.74C153.7,888.77,153.21,884.66,152.76,880.55Z"/>
          <path class="cls-23" d="M-27.27,946.8C-76.81,755.65,77,748.48,77,748.48S-31,760.36,33.45,946.32Z"/>
          <path class="cls-23" d="M-69.13,947.14c-25.6-156.8,112.05-149.2,112.05-149.2s-100.66,8.33-57.87,148.77Z"/>
        </g>
      </g>
    </g>
  </g>
  <g id="SC_16">
    <g id="SC_05">
      <g class="cls-24">
        <g class="cls-25">
          <rect class="cls-26" x="1560.13" y="326.96" width="1600" height="560.46"/>
          <rect class="cls-27" x="1560" y="-0.5" width="1601.4" height="338"/>
          <path class="cls-6" d="M2352,166.28c-232.5,54.16-679-84-922.88-28.93l-2.23,55C1600.89,83.56,2049.42,236,2352,166.28Z"/>
          <path class="cls-28" d="M2197.57,122.12c-234.17,46.4-675.87-106.55-921.41-59.57l-4.05,54.91C1449.58,14.49,1892.81,181.71,2197.57,122.12Z"/>
          <path class="cls-7" d="M1333,260.91s168,35.71,418.6-52.5a64.88,64.88,0,0,1,29.31-3.11c33,4.12,109.71,15,142.8,30.47l93.65-12.27a122.42,122.42,0,0,1,40.38,1.43l52.84,10.84,394.75-59.72a218.62,218.62,0,0,1,59.21-.8c41.79,5.16,113.74,13.81,119.34,12.91,7.91-1.28,105.51-17.69,136.19-21.7,28.92-3.78,354.74,23,354.74,23l9.51,148.07H1333Z"/>
          <path class="cls-29" d="M1550,259.5s90.79,44.18,626.1,23.59c538.13-13.1,412.48-89.83,985.65-52.4V337.36H1541.05Z"/>
          <path class="cls-30" d="M2359.71,390.84S2048.8,396.27,1913.85,410s-326.14,46.92-304.32,49.72,25.6,12.47,25.6,12.47l-89.86,13.52,54.86,3.3-39.73,5.67,23.33,1.94s-26.48,4.46-22.7,4.72,20.54,1.57,20.54,1.57S1431.13,517.74,1457,521.45s216.93,15.78,202.74,17.88-1.89,5.51-1.89,5.51l-30.9,9.44H1672s-21.13,4.62-19.87,5.06,24.42,1,24.42,1,33.28,34.32,93.51,50.32,134.31,33.58,106.88,37-92.53,9.44-75.75,11,37.92,7.08,32.24,7.34-9.77,1.05-.94,1.58,25.85,7.08,22.38,7.61,42.57,27.8,101.53,44.33,214.4,40.4,278.25,43.55,310.41,2.1,310.41,2.1l22.07,6.3-3.78-12.6,51.74,14.7-12.22-11.55,34.7,5.77-11.79-8.39s220.23-3.84,244.75-34.71,13.16-33,13.16-33l59.54-5.2L2889.11,681l22.35-4-22.35-2.51,18.65-5.77s270.62-100,288.19-142.34S3170.18,452,3085.28,444.1l17.31-9.68-31,3.73,32.64-14.48-71.33,11.38,87.35-27.86S2977,422,2949.3,422.83s-192.66-22.9-269-25.95S2359.71,390.84,2359.71,390.84Z"/>
          <path class="cls-31" d="M1511.21,708.33s604.06,56.12,849.37,150.61L1537,897.29Z"/>
          <g>
            <path class="cls-15" d="M1638,821.27c-25.9,20.83-51.38,41.91-73.23,68.3C1539.82,841,1593,759,1620.65,724c18.17-23,39.65-42.31,64-55.56a161.65,161.65,0,0,1,37.58-15c6.49-1.64,33-.12,37.18-4.61-25.07,27.23-37.3,62.53-54.73,95.93-17.22,33-39.56,54.77-66.63,76.53"/>
            <path class="cls-16" d="M1755.27,652c-75.54,23.34-111.64,132.93-159.37,195.54-9.2,12.06-19.34,22.45-26.12,36.45-12-20.57-2.27-54.13,5.7-75.78a342,342,0,0,1,42.24-80.3c33.63-47,83.11-87.77,137.55-75.91"/>
            <path class="cls-15" d="M1604.53,865.41c-15.38,6.11-27.13,17.44-39.55,26.37-4.4-43,54.89-78.39,77.79-104.51,31.94-36.43,67-57,111.61-51.2,18.52,2.43,36.49,4.12,54.88,6-35.68,27.73-73.51,50.65-108.2,79.39-31.36,26-61.08,29.88-96.53,44"/>
            <path class="cls-15" d="M1581.05,848c-9,12.67-15.89,20.93-20.52,36.4-41.31-85,6.34-205,68.53-260.78,13.66-12.25,27.92-22.87,44.44-28.8-4.87,84.05-46,187.65-92.45,253.18"/>
            <path class="cls-16" d="M1629.05,623.57c13.65-12.24,26.59-23,43.83-25.83-46.42,66.65-55.58,152.81-93.33,225.37-8,15.37-16,30.69-23.36,46.38-37.28-76.76,18.21-196.9,72.86-245.92"/>
            <path class="cls-15" d="M1570.6,888a10.43,10.43,0,0,0,3.57-1.17c9.08-4.79,21.32-81.63,24.72-94.83,17.7-68.65,28.75-144.45,3-211.25-14-36.34-17.48-46-13.05-84.72-13.42,15.53-21.49,33.15-25.24,54.34-6.34,35.78-2.8,74.1-8.63,110.27-11.62,72.1-40.32,122.15-9.23,190.15,5.1,11.14,12.26,38.72,24.85,37.21"/>
            <path class="cls-16" d="M1568.78,863.24c35.45-99.38,17.88-204.57,12.48-306.3-1.1-20.81-2.81-44.8,6.67-63.63-8.89,19.23-20.8,37.19-24.32,57.1-6,33.7-2.79,68.12-7.26,101.93-3.86,29.22-16.49,54.22-22.43,83-7.52,36.38,6.75,57.31,19.87,89.36,5.24,12.81,9.27,26,15,38.56"/>
            <path class="cls-15" d="M1546.9,862.19c8,12.33,16.91,22.47,24.79,22.46,21.51,0,10.66-70.08,11.07-91.23,1.88-98-55.27-209.6-149.37-194.89,33.52,31.56,52.57,78.58,63.08,126.59,7.4,33.81,14.69,67.81,29.53,98.26,3.84,7.87,11.77,24.76,20.9,38.81"/>
            <path class="cls-16" d="M1577,888.05c10.92-55.44-2.53-103.21-19.73-153.31-16.46-48-62.38-116.59-108.21-128.32a386.92,386.92,0,0,1,47.37,118.7c8.51,38.88,22.35,101.21,49.88,137.63,8.75,11.58,18.89,20.54,30.69,25.3"/>
            <path class="cls-17" d="M1581.13,883.79c-.25-.12.7-3.59,3.63-9.28a102.7,102.7,0,0,1,15.58-21.75c7.54-8.33,17.52-17.1,29.05-26s24.5-18.1,37.28-29c13-10.69,25.63-20.64,38-28.4a183.79,183.79,0,0,1,18-10.06c5.8-2.84,11.39-5,16.42-7,10.08-4.06,18.65-6.56,24.72-7.34s9.47-.38,9.47-.09-3.32.6-9.12,2-14,4.26-23.83,8.7c-5,2.21-10.36,4.54-16,7.49a196.08,196.08,0,0,0-17.46,10.26c-12,7.82-24.42,17.75-37.37,28.42-12.88,10.93-26.11,20-37.63,28.73s-21.58,17-29.25,24.83a122.53,122.53,0,0,0-16.37,20.27c-3.33,5.25-4.84,8.42-5.17,8.25"/>
            <path class="cls-17" d="M1586.65,847.76c-.32-.16.91-3.51,2.73-9.68s4.09-15.22,6.48-26.57c1.22-5.66,2.5-11.9,4-18.58s3.34-13.71,5-21.19c3.43-14.93,6.93-31.46,11-48.74s8.48-33.62,13.37-48.17a261.33,261.33,0,0,1,15.57-37.48,151.32,151.32,0,0,1,14.39-22.91c3.88-5,6.4-7.43,6.62-7.23.6.52-8.38,11.27-18.11,31.82a299.28,299.28,0,0,0-14.43,37.38c-4.62,14.45-8.85,30.69-12.92,47.9s-7.69,33.7-11.37,48.63c-1.8,7.46-3.77,14.55-5.45,21.09L1599,812.42a222,222,0,0,1-8,26.35c-2.37,6-4.17,9.13-4.43,9"/>
            <path class="cls-17" d="M1583.87,813.11c-.34-.06,0-3.86.34-10.72s.49-16.8.52-29.15c0-24.84,3-58.77,3.32-96.34.07-9.39-.07-18.55-.45-27.38-.12-2.23-.2-4.44-.25-6.61s-.2-4.29-.33-6.4c-.28-4.23-.64-8.37-1-12.41-1.67-16.16-3.77-30.75-4.85-43.09a206.14,206.14,0,0,1-.93-29.33c.36-6.92,1.13-10.67,1.41-10.63s.19,3.84.39,10.69.84,16.74,2.39,28.94,3.91,26.68,5.83,43c.47,4.08.9,8.28,1.22,12.58q.24,3.24.4,6.54c.07,2.19.17,4.38.31,6.59.44,8.93.61,18.19.55,27.65-.3,37.87-3.85,71.82-4.68,96.36-.45,12.33-1.08,22.36-2,29.22s-1.84,10.56-2.13,10.5"/>
            <g class="cls-18">
              <g class="cls-32">
                <path class="cls-17" d="M1583.19,869.11c-.34-.07,0-3.81.43-10.55a148.35,148.35,0,0,0-.78-28.43q-.58-4.46-1.53-9.29c-.63-3.15-1.52-6.51-2.36-10-1.73-6.92-3.69-14.27-5.91-22a407.24,407.24,0,0,0-17.27-48.9,243.6,243.6,0,0,0-11.87-23.82c-4.42-7.49-8.38-14.92-12.21-21.88-7.63-14-14.8-26.29-21.62-36s-13.23-16.75-18.26-20.82-8.34-5.45-8.21-5.83,3.7.49,9.23,4.27,12.58,10.61,19.82,20.28,14.84,21.94,22.7,35.83c4,6.94,8,14.25,12.39,21.65A230,230,0,0,1,1560,738a369.79,369.79,0,0,1,17.17,49.67c2.13,7.8,4,15.25,5.54,22.26.77,3.51,1.57,6.85,2.15,10.23s1,6.54,1.27,9.61a123.8,123.8,0,0,1-.67,29c-1,6.74-1.93,10.36-2.23,10.31"/>
              </g>
            </g>
            <g class="cls-20">
              <g class="cls-33">
                <path class="cls-22" d="M1579.92,846.42c-.36.15-2.86-7.17-9.07-17.78a214.67,214.67,0,0,0-11.88-18c-4.74-6.56-10.23-13.58-15.91-21s-11-14.71-15.36-21.65a127.43,127.43,0,0,1-10.2-19.32c-4.78-11.62-5.42-19.51-5.2-19.51.41-.1,1.61,7.59,6.68,18.8a141.07,141.07,0,0,0,10.48,18.77c4.41,6.79,9.71,13.93,15.38,21.38s11.13,14.53,15.82,21.21a183.87,183.87,0,0,1,11.59,18.44c5.93,11,7.92,18.6,7.67,18.66"/>
              </g>
            </g>
          </g>
          <path class="cls-23" d="M1878.89,942.09c50.92-6,107.5-16.69,122.87-23-30.07-2.67-86.77,1.84-134,7.41l10.87-2.62c27.14-4.91,49.21-9.84,51.72-12.3,32.79-7.7,59.7-13.76,63.82-14.08-17.45-.32-62.94,5.34-105.9,13.81-4.43.28-8.9.59-13.37.93,59.37-18.46,125.44-39.76,131.9-45.15-12-.56-60.72,11-111.15,25,27.12-11.67,52.48-23.48,65.12-30.53-12.23,2.21-26.81,5.36-42.18,9.16,13.72-7.82,27.4-15.67,40.55-23.08-3.2-2.26-15.85.87-33.1,7.08,24.07-15.89,41.11-29.24,40.47-34-23.8,11.77-49.5,24.17-74,36.33,16.61-10.71,32.37-21.6,44.92-30.57-10.1,3-25.63,9.07-42.93,16.43,30.63-26.28,56-49.88,60.43-57.88-6.51,1.81-39.62,26.33-76.09,54.34,5.69-6,11.19-11.87,16.35-17.59,13.72-9.93,25.26-18.26,33-23.61q-10,4-19.37,8.07c9.37-11.05,16.56-20.39,20.11-26.26-2,2.56-16,15.72-34.57,32.77q-15.83,7.35-30,14.93c8.5-13,16.24-25.9,22.33-37.53q6.69-4.9,13.65-9.77c-3.89,1.8-7.7,3.64-11.46,5.48a153.18,153.18,0,0,0,8-18.38c-5.31,4.58-14.76,14.7-26,27.72Q1852.85,805,1837.29,815a88.5,88.5,0,0,0,.31-12.61s-1.69,1.83-4.48,4.94c1.74-5.69,3.38-11.4,4.92-17.09,12.34-19.81,23.43-38.65,31.88-54.51-8.13,6.39-16.19,13.34-24.12,20.69,1.5-8.09,2.69-16,3.5-23.63-6.57,11.74-13.77,25.73-21.12,40.83-13.49,13.83-26.41,28.56-38.4,43.41A657,657,0,0,0,1791,748.2c1.54-13.52,2-24.19,1.19-30-.89,1.45-1.77,3-2.66,4.61q-.68-8.34-1.6-16.59c-.87,8.23-1.8,16.6-2.75,25-13.66,28.26-27.33,72.26-37.17,110.37.26-3.56.54-7.16.81-10.79,4.28-26.3,6.47-48,4.11-51.27,2.75-32.45,5.34-59,6.58-62.82-7.52,15.57-18.2,58.66-24,100.57-1.41,4.1-2.8,8.24-4.15,12.39-1.22-60.51-3.64-128.14-8.41-136-5.64,10.61-9.5,58.87-10.76,109.63-5-28.9-10.92-56.25-15.45-70.33-1.93,11.84-3.53,26.18-4.55,41.46-5.16-15.34-10.37-30.68-15.2-45.36-4.11,1.88-5.11,13-4,29.08-.17.56-.33,1.12-.49,1.68-11.74-26.88-22.79-46.52-29.38-47.73,6.49,26,13.06,53.83,19.79,80.59-7.95-19.06-16.49-37.43-23.7-52.18.06,7.58,1.15,18.45,2.95,31-.5,2.79-1,5.56-1.38,8.3-22.24-35.18-42.6-64.25-51.29-71-.15,6.55,20,45.77,43.64,89.36-23.87-30.27-48.47-57.49-61.11-67.91,2.12,2.15,10.12,13.41,21.07,29.32a285.81,285.81,0,0,0,7.86,38.27c-21.29-18.09-42.12-33.93-59.09-43.5,8,12.67,38.14,47.3,71.36,81.16.67,1.76,1.34,3.51,2,5.26-6.06-3.36-12.33-6.48-18.8-9.3-25.46-23.24-50.77-43.43-61.64-48.88,6.22,11.25,17.92,26.27,31.82,42.21-16.33-8.55-32.95-16.66-49.4-24-.83-.72-1.42-1.26-1.73-1.6.27.39.56.8.87,1.22-14-6.23-27.9-11.9-41.37-16.77,22,17.08,51.53,37.95,82.73,59,8.1,7.3,16.79,14.8,25.63,22,2.51,2.9,5.09,5.8,7.69,8.7-49.51-31-105.44-65.17-114.44-66.77,5.11,8.06,38.06,32.77,75.51,58.39-3.15-1-6.34-2-9.54-3-19.88-9.19-37.89-16.94-48.8-20.84,3.67,3.13,7.76,6.47,12.16,10-30-8.47-61.27-16.17-92.26-22.37,22.28,8.07,45.26,16.52,68.14,25,3.59,3.76,11.47,8.94,22,14.87-29.08-8.15-51.91-12.81-56.64-9.88,24.54,10.14,50.69,21.24,76,31.68-19.8-5.76-39.36-10.83-55.26-14.72,8.33,5.33,22.57,12.81,39.12,20.81-43.5-7.17-81.46-12.1-92.27-10.95,5.2,3.51,48,13.32,96.32,23.57-37.66-3.14-73.28-4.31-88.7-3,6.9,0,73,9.15,129.75,17.34-46.15,1.1-97.39,4.38-127,11.33,16.05,2.6,68.06,4.87,118.1,4.49-18,3.74-35.58,9.39-51.14,17.72,0,0,2.77.2,7.53.48-31.19,8.1-61.82,17.67-87.93,28.23,45.88-4.86,114.32-16.07,171.18-26.87,2.82-.12,5.6-.26,8.31-.44-51.89,18.7-119.08,48.86-177.16,83.52,105.6-42.7,233-90.73,257.57-100,.7.69,1.38,1.33,2,1.9,1.34-1.65,6.45-7.32,7.83-8.95h0c1.1-1.25,2.28-2.58,2.89-3.3a28.66,28.66,0,0,0-3.44-.78c-.19-.45-.41-.94-.64-1.49,15.43,6,26.83,10.44,32.86,12.8-.27,1-.49,2-.64,3,2.82-.27,12.89-.86,15.72-1.1h0c2.2-.14,4.55-.29,5.81-.4a20.68,20.68,0,0,0-1.63-3.14c1-1.37,2.32-3.13,3.94-5.25,2.18-2.52,4.53-5.35,7-8.45,5.22-2.93,11.34-6.64,18.11-11-1.12,8-2,14-2.48,17.52-1.11.13-2.15.28-3.1.45,1,1.75,4.42,8.09,5.44,9.86h0c.75,1.38,1.55,2.86,2,3.64a23.16,23.16,0,0,0,2.65-2c1.63.25,3.73.59,6.27,1,3.09.67,6.54,1.37,10.29,2.09,36.5,21.3,145.37,67.07,177.91,82.16a482.22,482.22,0,0,0-118.09-68.77c36.45,9.72,81.68,24.3,127.92,45.53a417.59,417.59,0,0,0-78.34-43c40.84,4.84,82.93,8.83,114,10.29C1969,959.91,1922.35,949.09,1878.89,942.09Zm-36.61-82-.47.43.13-.18Zm11.31-44.27c-7.94,9.76-16.15,20.2-24,30.64a133.58,133.58,0,0,0,4.59-14.21Q1843.49,824.1,1853.59,815.8Zm-232.77-15.27c5.6,8.33,11.34,16.89,17,25.38q.08,2.65.21,5.25l-2.58-2.41C1630.66,819.24,1625.74,809.74,1620.82,800.53Z"/>
        </g>
      </g>
    </g>
  </g>
  <g class="cls-34">
    <path class="cls-35" d="M1435.42,861.82c-1-9.24-1.8-18.47-2.84-27.69q-2.19-14.75-4.64-29.44c-4.14-25-8.58-49.92-12-75-4.38-32.14-8.67-64.21-8.73-96.7a83.84,83.84,0,0,1,11.5-42.51q6.58-8.54,13.18-17.05a84.24,84.24,0,0,1,37.17-21.67l22.39-3a63.61,63.61,0,0,1,27.21,4.79l9.41-7.26a62.6,62.6,0,0,1,31.31-10,42.36,42.36,0,0,1,22.4,0,62.67,62.67,0,0,1,31.32,10l8.83,6.83V-33.5h-1718V932.84H1432.55l6.63-39.79C1437.8,882.66,1436.52,872.24,1435.42,861.82Z"/>
    <path class="cls-6" d="M844,113.72c-2.9-.63-5.8-1.27-8.69-1.94Q839.59,112.79,844,113.72Z"/>
    <path class="cls-6" d="M1646.39,103.8q-.37-3-.76-5.9c-1.05-7.75-2.3-15.5-2.84-23.32,0-.29,0-.58,0-.87-290.44,32.86-597,83.54-798.77,40C1082.82,166.14,1381.79,126.63,1646.39,103.8Z"/>
    <path class="cls-7" d="M1267,195c-35.38,4-148.34,22.71-157.5,24.14-6.47,1-87.38-18.76-134.35-30.46a176.14,176.14,0,0,0-67.49-3.47L451.53,250.06l-58.91-21.78a99.32,99.32,0,0,0-45.8-5.56L238.82,235c-35.89-27.73-122-51.43-159.06-60.74A53.53,53.53,0,0,0,46,177,1038.52,1038.52,0,0,1-52.1,212.13q.75,13.06,1.26,26.14c2.13,54.51,1.39,109-.14,163.5l1713,99.1,6.1-240.17S1300.35,191.25,1267,195Z"/>
    <path class="cls-36" d="M994.16,49.51c-2.92-.54-5.84-1.09-8.74-1.66C988.31,48.43,991.23,49,994.16,49.51Z"/>
    <path class="cls-37" d="M1641.88,32.18c0-.3,0-.61,0-.92q-1.26-9.42-2.39-18.94c0-2.06.08-4.1.18-6.14-240.48,37.49-477.69,73.74-645.47,43.33C1188.77,85.48,1420.72,60,1641.88,32.18Z"/>
    <path class="cls-9" d="M801.93,270.93C409.77,266.38-48,294.46-48,294.46v605H1448.89l4.69-30.06q-2-16.26-3.67-32.56c-1-9.62-1.76-19.25-2.78-28.85-1.41-10.25-2.94-20.47-4.52-30.69-4-26-8.36-52-11.69-78.18-4.26-33.5-8.45-66.92-8.5-100.79a92,92,0,0,1,11.21-44.31l12.84-17.77a81.07,81.07,0,0,1,36.24-22.58l21.83-3.13a58.44,58.44,0,0,1,26.53,5l9.17-7.57a58.35,58.35,0,0,1,30.53-10.42,38.79,38.79,0,0,1,21.83,0A58.42,58.42,0,0,1,1623.14,508l16.62,13.73a67,67,0,0,1,5.24,5.85V314.9S1194.1,275.48,801.93,270.93Z"/>
    <path class="cls-6" d="M851.49,57.62c2.87.76,5.75,1.52,8.6,2.3C857.25,59.13,854.38,58.37,851.49,57.62Z"/>
    <path class="cls-6" d="M-33.68,38.23V70.87C281.55,52.57,632,.88,851.49,57.62,589.89-11,250.29,29.74-33.68,38.23Z"/>
    <path class="cls-10" d="M1668.08,373.25c-65.71-9.31-133.57-10.2-200.53-11l-727.73-8.35L380.45,349.8c-111-1.27-234.54-15.26-344.25-1.06-37.82,4.9-77,8.11-116.28,11.51-2.29,27-5,54-8.1,80.93a87,87,0,0,1,6.5,37q0,62.06.46,124.11.85,105.75,3.73,211.49c69.09,44,159.7,63.22,248,65,97.67,1.93,194.17-15.52,289.52-32.86,42.59,50.64,112,83,184.44,100.07s148.47,20.28,223.75,23.19c78.69,3,162.58,4.84,230.17-28.12,28.26-13.79,52.22-33.09,81.55-45.29,69-28.71,151.63-13.08,228.4-4.45,46,5.18,97.36,5.68,140.64-5.91-2.78-17.82-5.45-35.67-7.75-53.57-5.64-43.87-11.18-87.63-11.25-132a119.52,119.52,0,0,1,14.83-58l17-23.27a107.35,107.35,0,0,1,48-29.56l28.89-4.11a78,78,0,0,1,35.11,6.55q2.25-1.85,4.51-3.68C1672,516.42,1669.06,444.85,1668.08,373.25Z"/>
    <path class="cls-38" d="M1642.27,699.85a114.47,114.47,0,0,1,15.7-58l8.73-11.3c-166.09-78.16-347-121.33-528.95-144.49-192.94-24.55-387.87-27.21-582.31-29.84-59.79,7.45-117.55,16.51-176.74,27.8-20.84,4-41.85,8.27-61.1,17.25S268,525.82,258.84,545.17a520.75,520.75,0,0,0-133.24,87.9c-8,7.23-16.27,15.93-16.5,26.74-.31,14.45,13.56,24.65,26.27,31.27A322.36,322.36,0,0,0,292,727.32c8.87,26.6,33.39,45.34,59.6,54.58s54.4,10.51,82.09,12.56a1340.14,1340.14,0,0,1,264.09,46.47c51.67,14.55,105.93,32.34,157.8,18.53,30-8,56.73-26.11,87-32.83,29.57-6.56,60.28-1.81,90.4,1.37a861.39,861.39,0,0,0,300.51-21.35c68.61,27.41,151.88,6,205-45.77a328.54,328.54,0,0,0,106.19-8.81C1643.24,734.73,1642.3,717.34,1642.27,699.85Z"/>
    <g>
      <ellipse class="cls-11" cx="1290.63" cy="415.44" rx="41.27" ry="13.31"/>
      <ellipse class="cls-11" cx="1386.24" cy="423.07" rx="25.11" ry="9.9"/>
      <ellipse class="cls-11" cx="1132.45" cy="383.82" rx="14.92" ry="9.56"/>
    </g>
    <ellipse class="cls-13" cx="1302.1" cy="505.97" rx="38.85" ry="11.93"/>
    <ellipse class="cls-12" cx="1231.7" cy="478.27" rx="40.06" ry="13.91"/>
    <ellipse class="cls-12" cx="1236.14" cy="501.03" rx="40.06" ry="13.91"/>
    <ellipse class="cls-13" cx="1397" cy="515.65" rx="38.85" ry="11.93"/>
    <ellipse class="cls-12" cx="1326.6" cy="487.94" rx="40.06" ry="13.91"/>
    <g>
      <path class="cls-39" d="M1188.88,457.42c-9.9-3.11-22.47-.95-29.37,5,5.43-7.06,2.77-16.82-6-21.87s-22.52-4.82-30.91.53c5-11-4.09-24.39-19.31-28.22s-33.89,2.52-39.47,13.43c-9.16-10.11-31.46-13.54-46.48-8.5a17.78,17.78,0,0,0,.25-6c-.72-5-4.78-10.12-11.43-11.69s-15.24,2-15,7C981,394.45,956.7,388.87,938.25,395c-6.31,2.09-12.53,5.42-19.4,4.73-4.8-.47-8.74-2.84-12.83-4.71-21.22-9.72-52.38-5.66-67.54,8.8-11.14-8.31-28.42-12.06-44.07-9.57a57.44,57.44,0,0,0-13.88,4,36.94,36.94,0,0,0-10.29-2,63.17,63.17,0,0,0-31.56,6.23c-3.63-2.67-9.69-1.48-13.9.64A28.7,28.7,0,0,0,720,406c-1.07.13-2.13.29-3.19.49-15.39,2.86-28,12.4-31.22,23.62-10.19-7.09-25.85-9.78-39.37-6.78S621.86,434.94,619,444.93c-16.16-3.1-34.27-.39-47.38,7.1s-20.93,19.57-20.45,31.63c9.82,4.49,20.24,8.28,30.86,4.86s32.65,9.21,42.13,4.36c38.3-19.58,72.41-45.51,118.25-52.81,36.65-5.83,74-11.69,111.38-9.39,19.35,1.19,38.33,4.56,57.65,6,32.93,2.4,66.8-.89,98.83,5.14,47.14,8.86,83.26,36.47,128.65,49.23,12.22,3.43,25.58,5.77,38.42,3.82s24.82-9.11,26.49-18.48C1205.16,468.63,1198.78,460.52,1188.88,457.42Z"/>
      <path class="cls-40" d="M1220.93,528.78c-1.2-18.3-19.56-33.18-36.85-46.32-8.46-6.43-17.32-13-28.66-16.19s-25.93-1.7-32.72,5.7c8.84-14.18-7.1-31.45-27.09-36.53s-41.84-1.58-62.37,1.95c-12.68-11.63-26.17-23.72-44.81-29.4s-43.91-2.3-52.59,11.14c-8.55-12.21-26.66-20.41-45.18-20.47s-36.6,8-45.13,20.22c-21.29-11-49-14.74-74.11-10.05s-47,17.75-58.56,34.88c-18.19-9-42.85-7.63-62.53-.74s-35.46,18.52-50.84,29.94a3.07,3.07,0,0,1-.4.26c-2.44.47-4.86,1-7.25,1.55-12.93,2.95-26.09,6.48-36,13.27-10.29,6.83-14.92,17-11.82,27-15.88,1.9-33.17,8.41-38.43,20.71-6,14,13.26,37.08,35,28.56a68.22,68.22,0,0,0,14-7.82c13.88,11.53,37.1,17.85,57.87,21.78,86.68,16.38,176.73,19.26,266,22.06,108.81,3.41,219,6.73,325.32-10.45,21.1-3.41,44.67-9.29,53-24C1266.26,549.05,1245.33,527.46,1220.93,528.78Z"/>
      <path class="cls-41" d="M1203.5,504.49c-14.13-10.58-34.11-16.84-54.2-17-11.85-.08-24.2,1.81-35.26-1.4-8.23-2.39-14.71-7.36-22.93-9.76s-20.16-.51-21.48,5.86C1055.91,465,1021.7,458.79,999,469.3c-1.67-8.92-11.81-16.69-23.9-18.34s-25.18,3-30.87,10.88c-9.44-11.75-26.75-19.95-45.18-21.42s-37.54,3.83-49.87,13.84c-6.76-8.67-21-13.92-34.45-12.69S789.4,450.43,786.05,460c-8.21-8.49-24-12.6-37.59-9.75s-23.79,12.44-24.33,22.77a109.08,109.08,0,0,0-36.59,5l2.93-2.6c-8.84-5.59-22-7.25-32.71-4.13S639.1,482.15,638,490.61c-16.61-1.34-30.59,11.66-28.84,23.82s15.34,22.12,30.76,26.94,32.52,5.46,49.2,5.91c90.09,2.47,180.23,1.9,270.33,1.33l204.13-1.29c10.44-.06,21.1-.15,30.93-2.65s18.86-7.87,21.48-15.25C1219.19,520.51,1212.37,511.13,1203.5,504.49Z"/>
      <path class="cls-39" d="M903.52,409.36a7.59,7.59,0,0,1,4.15,0,3.43,3.43,0,0,1,2,3.84c-.8,5.46-12.27,11.59-18.36,7.09C883.05,414.19,897.89,410.48,903.52,409.36Z"/>
      <path class="cls-39" d="M781.54,417.76c2.41-.53,5.35-.78,7.12.6,2,1.55,1.25,4.21-.22,6.09-2.29,2.92-5.87,5.08-9.37,7.17-4.35,2.59-20.19,10.18-18.77.39C761.34,424.84,773.58,419.53,781.54,417.76Z"/>
      <path class="cls-39" d="M831.15,417.16c1.32.47,2.78,1.43,2.53,2.45a1,1,0,0,1-.11.28c-.6,1.08-2.58,1-4.05.73C822.55,419.27,824.34,414.73,831.15,417.16Z"/>
    </g>
    <g>
      <path class="cls-9" d="M1475.18,459.57c-2.58,9.1-7.64,9.4-13.71,9.17s-10.88-.91-8-10c1.43-4.54,7.17-14.34,12.31-23l9.81-16.23S1477.74,450.47,1475.18,459.57Z"/>
      <path class="cls-9" d="M1452.23,453.5c2.76,9.1.92,14.88-5.22,15.11s-5.08-3.95-7.15-13.07c-4.86-21.06-20-29.14-19.95-29.15s7.2,4.55,14.94,10.19S1450.85,449,1452.23,453.5Z"/>
      <path class="cls-9" d="M1461.66,451.35c0,16.67,16.46,17.5,4.87,17.52s-21.15-.89-20.81-17.55c.18-8.33,5.63-26.49,10.59-42.58s9.6-30.1,9.6-30.1l-2.05,30.1C1462.8,424.84,1461.65,443,1461.66,451.35Z"/>
    </g>
    <path class="cls-42" d="M1444,494.78s-16.75-28.17,12.45-29.34,12.61,29.67,12.61,29.67-3.78-8.65-9.83-.33C1459.22,494.78,1452.11,485.05,1444,494.78Z"/>
    <g>
      <path class="cls-9" d="M1378,418.45c-2.58,9.1-7.64,9.39-13.71,9.16s-10.88-.9-8-10c1.43-4.54,7.16-14.34,12.31-23l9.81-16.24S1380.54,409.35,1378,418.45Z"/>
      <path class="cls-9" d="M1355,412.38c2.76,9.09.92,14.88-5.22,15.1s-5.08-4-7.16-13.06c-4.85-21.06-20-29.14-19.94-29.15s7.2,4.54,14.94,10.18S1353.65,407.84,1355,412.38Z"/>
      <path class="cls-9" d="M1364.46,410.23c0,16.67,16.46,17.5,4.87,17.52s-21.15-.89-20.81-17.55c.18-8.33,5.63-26.49,10.59-42.58s9.6-30.11,9.6-30.11l-2,30.11C1365.6,383.72,1364.45,401.89,1364.46,410.23Z"/>
    </g>
    <path class="cls-42" d="M1346.78,453.66s-16.74-28.17,12.46-29.35S1371.85,454,1371.85,454s-3.78-8.65-9.83-.33C1362,453.66,1354.91,443.93,1346.78,453.66Z"/>
    <path class="cls-43" d="M-31.66,119.08c1.25,10,2.54,20,3.81,30.06C262.67,128,569.46,90.29,768.49,141.75,532.55,79.87,233.15,106.94-31.66,119.08Z"/>
    <path class="cls-44" d="M768.49,141.75c2.87.76,5.75,1.52,8.6,2.3C774.25,143.26,771.38,142.5,768.49,141.75Z"/>
    <g>
      <ellipse class="cls-11" cx="279.36" cy="401.35" rx="41.27" ry="13.31"/>
      <ellipse class="cls-11" cx="374.97" cy="408.98" rx="25.11" ry="9.9"/>
      <ellipse class="cls-11" cx="679.39" cy="402.72" rx="31.05" ry="14.68"/>
      <ellipse class="cls-11" cx="797.95" cy="392.14" rx="20.74" ry="9.22"/>
      <ellipse class="cls-11" cx="121.19" cy="369.74" rx="14.92" ry="9.56"/>
    </g>
    <path class="cls-12" d="M1642.27,699.85c0-1.15,0-2.29.07-3.43-8.86-.76-18.32-1.18-28.16-1.18-49.27,0-89.21,10.35-89.21,23.12s39.94,23.11,89.21,23.11c10.38,0,20.34-.46,29.61-1.3C1642.86,726.77,1642.29,713.34,1642.27,699.85Z"/>
    <g>
      <ellipse class="cls-13" cx="664.21" cy="740.59" rx="67.79" ry="20.15"/>
      <ellipse class="cls-13" cx="1411.97" cy="767.04" rx="38.85" ry="11.93"/>
      <ellipse class="cls-12" cx="383.18" cy="457.47" rx="40.06" ry="13.91"/>
    </g>
    <g>
      <ellipse class="cls-13" cx="814.68" cy="727.64" rx="67.79" ry="20.15"/>
      <ellipse class="cls-13" cx="1562.44" cy="754.09" rx="38.85" ry="11.93"/>
      <ellipse class="cls-12" cx="533.65" cy="444.52" rx="40.06" ry="13.91"/>
    </g>
    <g>
      <ellipse class="cls-13" cx="640.65" cy="773.73" rx="67.79" ry="20.15"/>
      <ellipse class="cls-13" cx="1388.4" cy="800.18" rx="38.85" ry="11.93"/>
      <ellipse class="cls-12" cx="359.61" cy="490.61" rx="40.06" ry="13.91"/>
    </g>
    <g>
      <ellipse class="cls-13" cx="754.89" cy="754.17" rx="67.79" ry="20.15"/>
      <ellipse class="cls-13" cx="1502.65" cy="780.61" rx="38.85" ry="11.93"/>
      <ellipse class="cls-12" cx="473.86" cy="471.05" rx="40.06" ry="13.91"/>
    </g>
    <ellipse class="cls-13" cx="1512.73" cy="761.39" rx="67.79" ry="20.15"/>
    <ellipse class="cls-13" cx="1517.17" cy="784.15" rx="67.79" ry="20.15"/>
    <ellipse class="cls-13" cx="1306.54" cy="528.74" rx="38.85" ry="11.93"/>
    <path class="cls-13" d="M1644.91,754.23a197.23,197.23,0,0,0-37.28-3.32c-37.44,0-67.79,9-67.79,20.15s30.35,20.15,67.79,20.15a191.74,191.74,0,0,0,40.73-4Q1646.4,770.72,1644.91,754.23Z"/>
    <path class="cls-39" d="M1149,592.25c0,5.83-11.09,6.71-16.46,7.49-4.24.61-10.18,2.06-12.62-1.62-3.41-5.13,2.72-12.72,9.53-13.57C1135.38,583.81,1149,586.09,1149,592.25Z"/>
    <path class="cls-39" d="M1169.9,597.73a2.84,2.84,0,0,1,.85,3.21c-2.22,4.64-14.77,1.74-15.78-2.34C1153.35,592,1166.94,594.81,1169.9,597.73Z"/>
    <path class="cls-39" d="M1220.52,598.42c2.52-.26,5.28.17,7.06,1.57s2.17,3.89.41,5.31a6.83,6.83,0,0,1-5.14,1,19.71,19.71,0,0,1-5-1.75c-1.83-.84-9-3-6.43-5C1211.83,599.25,1219.58,598.51,1220.52,598.42Z"/>
    <path class="cls-39" d="M977.59,448.17c-.67-.94.34-2.18,1.66-2.51a8.31,8.31,0,0,1,4.07.32c2.43.65,5,1.63,6,3.48.8,1.61,0,3.58-1.83,4.6a7.27,7.27,0,0,1-6.31.15,4.85,4.85,0,0,1-3-4.36l-1,.78"/>
    <path class="cls-40" d="M1445.33,619.53c-.76,1.08-1.57,2.16-2.44,3.22A10.77,10.77,0,0,1,1445.33,619.53Z"/>
    <path class="cls-39" d="M1070.24,638.48a4.84,4.84,0,0,1,2.53,3.62,2.67,2.67,0,0,1-.63,1.86c-3.05,3.64-8.91,1.57-9.11-2.15S1066.13,636.05,1070.24,638.48Z"/>
    <path class="cls-39" d="M1049.51,649.24c-.48-1.42,1.12-2.93,3-3.12a5.44,5.44,0,0,1,4.72,2,3.77,3.77,0,0,1-.89,5.45c-1.88,1.34-5.23,1.28-6.85-.25s-.84-4.25,1.56-4.94"/>
    <g>
      <ellipse class="cls-11" cx="749.41" cy="736.37" rx="23.29" ry="7.26"/>
      <ellipse class="cls-11" cx="950.71" cy="705.56" rx="34" ry="12.32"/>
      <ellipse class="cls-11" cx="645.11" cy="720.69" rx="26.23" ry="9.5"/>
      <ellipse class="cls-11" cx="955.9" cy="740" rx="13.72" ry="3.63"/>
      <ellipse class="cls-11" cx="1363.06" cy="628.03" rx="34.48" ry="12.47"/>
      <ellipse class="cls-11" cx="277.38" cy="608.66" rx="19.58" ry="6.89"/>
      <ellipse class="cls-11" cx="390.86" cy="542.07" rx="13.52" ry="6.32"/>
      <ellipse class="cls-11" cx="1256.43" cy="699.56" rx="13.52" ry="6.32"/>
    </g>
    <g>
      <path class="cls-9" d="M248,478.71c-2.58,10.44-7.64,10.79-13.71,10.52s-10.88-1-8-11.47c1.43-5.22,7.16-16.47,12.31-26.44l9.81-18.64S250.56,468.26,248,478.71Z"/>
      <path class="cls-9" d="M225.05,471.74c2.76,10.44.92,17.09-5.22,17.34s-5.08-4.53-7.16-15c-4.85-24.18-19.95-33.45-19.94-33.47s7.2,5.22,14.94,11.69S223.67,466.52,225.05,471.74Z"/>
      <path class="cls-9" d="M234.48,469.27c0,19.14,16.46,20.09,4.87,20.12s-21.15-1-20.81-20.16c.18-9.56,5.63-30.41,10.59-48.88s9.6-34.57,9.6-34.57l-2,34.57C235.62,438.83,234.46,459.7,234.48,469.27Z"/>
    </g>
    <path class="cls-42" d="M216.8,519.14s-16.74-32.35,12.46-33.7,12.61,34.08,12.61,34.08-3.78-9.93-9.83-.38C232,519.14,224.92,508,216.8,519.14Z"/>
    <g>
      <path class="cls-9" d="M344.11,408.37c-2,6.74-5.94,7-10.67,6.79s-8.46-.67-6.24-7.4c1.11-3.37,5.57-10.64,9.57-17.08l7.63-12S346.1,401.62,344.11,408.37Z"/>
      <path class="cls-9" d="M326.26,403.87c2.15,6.74.72,11-4.06,11.2s-3.95-2.93-5.56-9.69c-3.78-15.62-15.52-21.61-15.51-21.61s5.59,3.37,11.61,7.55S325.18,400.5,326.26,403.87Z"/>
      <path class="cls-9" d="M333.59,402.27c0,12.36,12.8,13,3.79,13s-16.45-.66-16.18-13c.14-6.18,4.38-19.64,8.23-31.57s7.47-22.33,7.47-22.33l-1.6,22.33C334.48,382.61,333.58,396.09,333.59,402.27Z"/>
    </g>
    <path class="cls-42" d="M319.85,434.48s-13-20.89,9.69-21.76,9.8,22,9.8,22-2.94-6.41-7.65-.24C331.69,434.48,326.16,427.26,319.85,434.48Z"/>
    <path class="cls-45" d="M600.2,556.2c-.26-.38-.51-.75-.77-1.11l1.1.19Z"/>
    <path class="cls-46" d="M609.28,454.05a9,9,0,0,1-7.27,3.66,10.19,10.19,0,0,1-8-3.52C602.31,460,609,454.31,609.28,454.05Z"/>
    <g>
      <path class="cls-2" d="M956,824.68l2.31-1.15,4.23,1.6.37.18a2.53,2.53,0,0,1-.82.12,38.51,38.51,0,0,1-6.09-.75m-31.89-1.34q2.8,1,5.47,1.85c-3.21,1.39-6.35,2.82-9.36,4.29.2-1,1.54-3.11,3.89-6.14m115.62-5.21.38-.3.73.34h-.24a5.5,5.5,0,0,1-.87,0m-72.58,1.25.81-.37,1,.8a8.83,8.83,0,0,1-1.8-.43m-60.1-2,4,1.39c-1.67,1.83-3.23,3.63-4.61,5.4a23.79,23.79,0,0,1,.61-6.79M1126.88,815c1.59-1.05,3.19-2.07,4.78-3,3.93,1.24,7,2.13,9.19,2.76l-3.62,1.05c-2.68-.09-6.19-.37-10.35-.77m-199,3.73c1.53-1.8,3.27-3.78,5.22-5.92,5,2.31,9.35,4.26,13.16,5.89-2.34.83-4.67,1.7-7,2.59-3.57-.79-7.39-1.65-11.39-2.56M1051.23,810l.66-.43.59.6-.21,0a3.33,3.33,0,0,1-1-.19m-28.56,2.63c1.11-1.59,2.27-3.12,3.46-4.59,1.6,1.34,3.14,2.59,4.62,3.73-1.29.82-2.55,1.66-3.82,2.5-1.34-.5-2.76-1-4.26-1.64M991,809.05c.7-.32,1.39-.63,2.06-.95l.61.4a35.24,35.24,0,0,0-.56,3.5,18.24,18.24,0,0,1-2.11-3m232.72-5.72,1.45,1.36-1.72,1.16-.7.07c.3-.88.62-1.75,1-2.59m-111.42,1.9,3,1.1c-1.64.75-3.27,1.51-4.85,2.28a11.81,11.81,0,0,1,1.86-3.38m30.83.18,2.35-1.22,3.24,2.35-.15,0a31.92,31.92,0,0,1-5.44-1.15m-153.81.25.36.24-.23.05c0-.1-.09-.2-.13-.29m71.85-2.34,1.53-1.11.94,3a10.16,10.16,0,0,1-2.47-1.92m35.64-4.15,2.47,1c-.92,1.06-1.8,2.12-2.61,3.16a19.87,19.87,0,0,1,.14-4.16m-189,15A114.22,114.22,0,0,1,912,802.3q5.52,2.88,10.49,5.34c-3,2.63-5.79,5.28-8.39,7.92l-6.28-1.42m29.3-5.71c2.92-3.11,6.18-6.48,9.76-10.07A116.05,116.05,0,0,0,961.4,813.6q-2.73.85-5.54,1.77c-5.05-1.87-11.39-4.24-18.74-6.94m96.6-8.65c1.68-1.66,3.37-3.23,5-4.73,2.76,3.31,5.19,6.07,7.25,8.33-1.32.6-2.6,1.22-3.82,1.84-2.5-1.54-5.34-3.38-8.46-5.44m141-8.77.37-.15c0,.19,0,.39,0,.58l-.39-.43m-168.37,14.82a123.86,123.86,0,0,1,2.84-13.18c3.36,3.21,6.61,6.27,9.7,9.09-2.63,2-5.19,4.11-7.6,6.23-1.6-.68-3.24-1.39-4.94-2.14M1209,788.78l.76.18,2.53,2.71c-2.12,2.33-4.27,4.69-6.51,7.11a100.86,100.86,0,0,1,3.22-10m-91.24,9.5c2.41-2.85,5.39-6.19,8.88-9.93,3.69,3.64,7.13,6.67,10.32,9.29q-4.67,1.65-9.28,3.47l-9.92-2.83m-47.66-10.78q5,2.31,9.71,4.4a97.4,97.4,0,0,1-6.32,9.54,66.33,66.33,0,0,1-1.87-6.73l.25-.23-.28.08c-.49-2.07-1-4.44-1.49-7.06M967.94,809.75c-4.37-4-10-9.51-16.34-16.07q4.24-4.17,9-8.65,6.85,5.31,13.09,9.8c.29,5.68.71,10.93.87,14.9l-3.52,1-3.09-1m130.25-16.94c2.1-7.31,6-16.27,10.18-25.53,3.93,5.21,7.66,9.72,11.2,13.67a196.8,196.8,0,0,0-15.1,13.6l-6.28-1.74M1133,781.64c4.54-4.66,9.71-9.78,15.42-15.22,1.75,9.9,3.76,19.21,4.9,25.78-2,.61-3.95,1.23-6,1.88-3.93-3.2-8.8-7.42-14.36-12.44m-121.54,3.05c1.66-5.46,3.72-11.52,6.19-18,6.49,9.68,12.37,17.56,17.4,23.85-2.47,1.56-5,3.24-7.64,5-5-3.34-10.35-7-16-10.87m-25.16,12c-2.9-10.69-4.89-23.94-8.49-33.92,8.5,7.76,16.83,15.84,24.67,23.4a103,103,0,0,0-6.75,14.88q-4.57-2.08-9.43-4.36M1171.7,787c-4.67-7.24-8.63-18.6-12.6-30.54l4.53-4.11c-.82,0-2.66.66-5.24,2-3.64-11-7.33-22.27-11.6-31.11-2.83,8.94-1.55,23.39.69,37.47-6.28,4-13.71,9.16-21.12,14.86-4.74-4.4-9.85-9.24-15.2-14.45,4.23-9.39,8.36-18.78,10.78-26.8-6,4.3-12.13,11.5-18.06,19.65-4.41-4.37-8.94-8.94-13.53-13.67,3.81,6.36,7.48,12.06,11,17.21-7.31,10.49-14.11,22-19.46,30.91-4-1-8.07-2.12-12.26-3.2a387.9,387.9,0,0,1-6.36-48.64c-7.72,38.77-5.58,47.76-2,61-1.59.5-3.1,1-4.56,1.53-2.76-2.78-6.28-6.39-10.45-10.65a62.11,62.11,0,0,0,8.58-8.6c-1.46.39-5.76,2.48-11.41,5.7-9.72-9.92-22.43-22.75-37.08-36.52q5.57,9.19,10.69,16.84c-2.46,1.86-7,7.6-11.42,14.91-9.45-6.44-19.19-13-28.08-18.58l-.22-.6c-.07.11-.12.23-.18.34l-1.18-.74,1.06,1c-3.52,6.61-3.93,17.9-3.56,28.54q-6.07-2.92-12.43-6.07c3.89-3.65,8-7.44,12.33-11.33-2.41-.16-13.64,6.21-26.66,15.37-6-6.33-12.51-13.43-19.15-21A193.78,193.78,0,0,0,942.08,792c-5.29,3.87-10.73,8.11-15.89,12.48-4.17-1.5-8.56-3.07-13.14-4.69,6.08-14.5,14.68-31.4,18.66-44.57C921,762.92,909.53,780,900.14,795.25l-3.3-1.13,3,1.65c-3.25,5.3-6.24,10.34-8.86,14.68-3.82-.81-7.54-1.59-11.09-2.28,3.46,1.12,6.93,2.28,10.38,3.45a111.88,111.88,0,0,1-7,10.69c-3.32-9.36-8.32-39.65-11.11-75.85-9.39,47.15-2.82,66.49,1.27,79.65-2.61-.75-25.33-26.29-57.23-56.28,23.32,38.55,41.31,56.28,46.08,61.25-4.68,1-46.09-30.1-76.48-49.07,26.16,23.61,50.92,51,64.82,57-6.07.58-41.1-14.39-82.7-35.06,37.52,29.38,61.78,40.33,69,45.71-9,0-18.52-6.92-71.82-23,19,9.91,39.24,19.74,54.15,26.76l-20,.68c-8.73-2.7-19-6.06-31-10.16,7.5,3.77,14.48,7.26,21,10.5l-52.86,1.79c-27.06-7.35-45.7-7.22-65.83-6.8l.45,17,618.69-10.72"/>
      <g class="cls-47">
        <polygon class="cls-48" points="1292.81 630.45 1289.12 904.61 662.14 865.89 665.84 591.73 1292.81 630.45"/>
      </g>
    </g>
    <path class="cls-49" d="M1338.13,833.56c30.33-9.8,63.65-23.17,72.38-28.83-18.5,2-52.48,11.68-80.63,20.8l6.35-2.91c16-6.26,28.93-11.93,30.22-13.72,19.17-8.64,34.92-15.57,37.39-16.26-10.62,1.92-37.68,10.88-62.95,21.23q-4,1.07-8,2.19c34.28-18.37,72.35-39.27,75.76-43.31-7.35,1.13-35.8,14-65.07,28.64,15.35-10.34,29.61-20.56,36.62-26.35-7.21,2.82-15.77,6.5-24.73,10.66,7.58-6.38,15.14-12.78,22.42-18.86-2.16-1-9.54,2.46-19.42,8.31,13.1-12.52,22.18-22.65,21.34-25.41-13.33,10-27.74,20.61-41.48,30.94,9.06-8.49,17.59-17,24.36-23.92-5.84,3.07-14.7,8.6-24.5,15.14,16.1-19.58,29.22-36.9,31.18-42.27-3.77,1.89-21.54,20.71-41,42,2.89-4.28,5.66-8.52,8.25-12.6,7.38-7.67,13.6-14.09,17.78-18.26q-5.65,3.6-11,7.22a156.81,156.81,0,0,0,9.71-18.29c-1,1.79-8.21,11.43-17.87,24q-8.91,6.36-16.81,12.67c3.92-8.91,7.4-17.61,10-25.36q3.6-3.78,7.36-7.56c-2.19,1.57-4.33,3.13-6.43,4.71a99.75,99.75,0,0,0,3.08-12.06c-2.79,3.41-7.57,10.66-13.14,19.88q-9.94,8-18.43,16a54.34,54.34,0,0,0-1-7.64s-.85,1.31-2.25,3.53q.76-5.48,1.36-10.91c5.61-13.45,10.55-26.16,14.18-36.76-4.33,4.85-8.57,10-12.68,15.42.15-5.06.12-10-.12-14.68-2.87,7.88-5.91,17.19-8.94,27.2-6.87,10-13.31,20.44-19.18,30.86a397.06,397.06,0,0,0-5.83-41.68c-.34-8.34-1.06-14.84-2.12-18.22-.4,1-.79,2-1.18,3.11q-1.18-5-2.54-9.81c.25,5.07.49,10.23.71,15.43-5.61,18.71-9.73,46.91-12.09,71.09-.17-2.17-.35-4.38-.53-6.6.1-16.38-.63-29.77-2.37-31.42-1.41-19.91-2.36-36.23-2-38.69-3.08,10.31-5.47,37.6-5,63.58-.47,2.64-.92,5.31-1.35,8-6.48-36.35-14.36-76.84-18-81-2.42,7.08-.19,36.66,3.86,67.43-5.77-16.82-12-32.59-16-40.54,0,7.38.34,16.22,1.17,25.57-4.59-8.63-9.2-17.24-13.52-25.51-2.32,1.64-1.87,8.47.34,18,0,.36-.1.72-.14,1.08-9.67-14.78-18.24-25.28-22.36-25.21,6.4,14.86,13,30.88,19.66,46.2-6.64-10.53-13.56-20.57-19.33-28.59a150.33,150.33,0,0,0,4.73,18.35c0,1.74-.06,3.47,0,5.17-16.84-18.5-32-33.55-37.86-36.57.53,4,16.49,25.17,35,48.58-17.36-15.34-34.87-28.76-43.52-33.51,1.49,1,7.41,6.85,15.56,15.11a168.82,168.82,0,0,0,8.4,22.13c-14.63-8.32-28.78-15.33-40-19,6,6.67,27.63,23.88,51,40.25.57,1,1.15,2,1.73,2.93q-6-1.93-12.29-3.32c-17.65-10.91-34.93-20-42-22,4.84,6,13.36,13.67,23.31,21.58-10.72-3.16-21.57-6-32.25-8.45a11.6,11.6,0,0,1-1.2-.75l.64.63c-9.09-2.05-18.06-3.77-26.69-5.07,15,7.62,34.87,16.61,55.79,25.48,5.61,3.41,11.59,6.88,17.64,10.16,1.8,1.44,3.64,2.88,5.49,4.31-33-12.69-70.16-26.46-75.77-26.32,3.86,4.23,26.2,15.12,51.36,26q-3-.35-6.08-.66c-12.93-3.12-24.6-5.6-31.59-6.62,2.53,1.44,5.32,3,8.33,4.52-19-1.45-38.72-2.29-58.11-2.25,14.28,2.15,29,4.45,43.72,6.79,2.54,1.83,7.81,4,14.78,6.27-18.42-1.37-32.72-1.39-35.31.95,15.86,3.12,32.78,6.63,49.14,9.84-12.56-1.06-24.92-1.73-34.93-2.14a251.88,251.88,0,0,0,25.71,7.79c-27.07,1-50.58,2.62-57,4.63,3.49,1.49,30.42,2.18,60.69,2.48-23.16,2.7-44.88,6.33-54.12,9,4.19-.84,45.16-3.38,80.38-5.35-27.9,6.28-58.68,14.5-76,22.31,10-.39,41.77-5.36,72.09-11.68a123.74,123.74,0,0,0-29.35,16.92s1.7-.22,4.62-.64c-18.16,8.7-35.84,18.19-50.68,27.75,27.38-8.53,67.84-23.62,101.32-37.06,1.7-.42,3.38-.85,5-1.28-29.71,17.6-67.62,44-99.58,71.95,60-38.62,132.76-83.11,146.82-91.69q.73.51,1.41.9c.66-1.16,3.22-5.2,3.9-6.35h0c.55-.89,1.14-1.83,1.45-2.35a16.7,16.7,0,0,0-2.16,0c-.17-.25-.34-.52-.53-.82,9.93,1.73,17.26,3,21.15,3.71-.06.67-.1,1.29-.11,1.86,1.69-.5,7.74-2.09,9.43-2.58h0c1.32-.35,2.73-.73,3.48-.95a11,11,0,0,0-1.29-1.69c.49-.95,1.12-2.17,1.9-3.65q1.62-2.68,3.47-6c2.89-2.4,6.25-5.38,10-8.81.08,4.95.13,8.66.16,10.87-.67.22-1.28.43-1.84.65.8.93,3.45,4.34,4.23,5.28h0c.58.74,1.21,1.54,1.56,2a15.05,15.05,0,0,0,1.42-1.51c1,0,2.32-.1,3.9-.15,1.94,0,4.1,0,6.44,0,24.17,8.4,94.58,22.74,115.75,27.88a283.2,283.2,0,0,0-78.18-27.09,486.67,486.67,0,0,1,82,11.87,246.37,246.37,0,0,0-51.62-16.37c25.24-2.06,51.16-4.78,70.19-7.69C1394.52,833.32,1365.16,832.49,1338.13,833.56Zm-30-45-.25.32.06-.12Zm2.66-28.07c-3.9,6.85-7.89,14.15-11.67,21.4a84.07,84.07,0,0,0,1.44-9.13Q1305.45,766.71,1310.8,760.48Zm-142.7,19.15c4.19,4.34,8.48,8.8,12.73,13.24.2,1.06.41,2.1.62,3.14l-1.79-1.14C1175.85,789.72,1172,784.59,1168.1,779.63Z"/>
    <path class="cls-14" d="M1654.17,831.83c-3.09-22.76-6.15-45.5-8.4-68.3C1338.85,770.87,1204.33,814,1204.33,814c-78.36-3.1-252.87,13.52-414.67,31.85C426.18,758.52-128.9,697.19-128.9,697.19L-105,905.7l668.23-5,46,4.8H1665.73C1661.61,881,1657.53,856.47,1654.17,831.83Z"/>
    <path class="cls-15" d="M884.31,951c40.82-3.12,86.31-9.76,98.78-14.17-23.92-2.94-69.31-1.12-107.19,1.81l8.76-1.71c21.81-3,39.58-6.17,41.66-8,26.41-5,48.08-8.88,51.37-9-13.91-.76-50.39,2.29-84.94,7.58q-5.32.12-10.7.32c48-12.52,101.36-27.05,106.69-31-9.58-.78-48.81,6.75-89.5,16.09,22-8.23,42.62-16.62,52.94-21.69-9.83,1.34-21.57,3.35-33.95,5.84,11.19-5.64,22.36-11.31,33.09-16.65-2.48-1.85-12.68.21-26.64,4.5,19.71-11.57,33.73-21.39,33.37-25-19.37,8.4-40.27,17.23-60.24,25.91C911.4,878,924.33,870,934.63,863.44c-8.16,2.07-20.75,6.27-34.79,11.45,25.28-19.41,46.23-36.91,50.06-43-5.25,1.2-32.45,19.18-62.44,39.77,4.73-4.43,9.31-8.85,13.61-13.12,11.26-7.28,20.74-13.37,27.07-17.28q-8.05,2.78-15.7,5.66c7.82-8.26,13.85-15.27,16.87-19.7-1.65,1.92-13.25,11.68-28.62,24.31q-12.87,5.22-24.44,10.67c7.19-9.84,13.79-19.55,19-28.36q5.49-3.58,11.2-7.15c-3.16,1.28-6.26,2.59-9.32,3.9a118.2,118.2,0,0,0,6.93-14c-4.38,3.38-12.24,10.93-21.61,20.66-9.73,4.63-18.84,9.42-27.33,14.29a67.62,67.62,0,0,0,.64-9.74s-1.4,1.36-3.73,3.68q2.36-6.51,4.46-13.06c10.48-15,19.93-29.18,27.17-41.19-6.69,4.7-13.34,9.83-19.9,15.28,1.45-6.21,2.65-12.29,3.54-18.16-5.62,8.88-11.8,19.48-18.15,30.94-11.2,10.29-22,21.29-32,32.43a492,492,0,0,0,3.1-53.2c1.67-10.4,2.4-18.63,1.9-23.12-.75,1.1-1.51,2.26-2.27,3.48-.18-4.3-.42-8.6-.74-12.86-1,6.33-2,12.78-3,19.27-11.79,21.43-24.09,55-33.15,84.2q.5-4.11,1-8.31c4.25-20.2,6.68-37,4.9-39.5,3.22-25,6.13-45.44,7.24-48.36-6.5,11.81-16.38,44.8-22.34,77-1.26,3.12-2.49,6.29-3.7,9.46.93-46.81,1.14-99.15-2.41-105.38-4.84,8-9.45,45.22-12.06,84.41-3.08-22.48-6.93-43.79-10.1-54.81-1.92,9.1-3.65,20.13-5,31.91-3.63-12-7.3-24-10.69-35.5-3.34,1.33-4.49,9.9-4.1,22.36-.15.43-.3.86-.44,1.28-8.52-21.12-16.72-36.62-21.94-37.74,4.36,20.24,8.72,42,13.25,62.86-5.75-15-12-29.41-17.27-41a190.05,190.05,0,0,0,1.38,24.06q-.74,3.21-1.37,6.37c-16.64-27.84-32-50.9-38.68-56.37-.34,5.05,14.53,36,32,70.34-18.1-24.09-36.87-45.85-46.62-54.28,1.62,1.73,7.65,10.66,15.88,23.28A216.08,216.08,0,0,0,667,831.45c-16.41-14.61-32.54-27.46-45.77-35.35,6,10,28.94,37.67,54.38,64.81.47,1.38,1,2.76,1.45,4.13q-7.1-4.17-14.71-7.74c-19.58-18.71-39.14-35-47.65-39.59,4.62,8.88,13.48,20.84,24.07,33.56-12.77-7.08-25.77-13.84-38.67-20-.64-.58-1.1-1-1.33-1.28.21.31.42.63.66,1-11-5.22-21.89-10-32.49-14.17,17,13.85,39.93,30.84,64.16,48,6.23,5.88,12.93,11.93,19.75,17.78q2.88,3.47,5.87,7c-38.53-25.44-82.08-53.46-89.22-55,3.82,6.37,29.34,26.44,58.41,47.33l-7.51-2.61c-15.58-7.69-29.71-14.2-38.29-17.54,2.83,2.53,6,5.23,9.4,8-23.71-7.43-48.39-14.29-72.93-20,17.53,6.89,35.6,14.09,53.59,21.33,2.75,3,8.87,7.25,17.11,12.13-22.95-7.14-41-11.41-44.89-9.29,19.27,8.56,39.78,17.9,59.67,26.71-15.62-5-31.07-9.52-43.64-13,6.48,4.36,17.61,10.56,30.56,17.23-34.48-6.81-64.62-11.74-73.28-11.17,4,2.87,37.92,11.7,76.12,21-30-3.53-58.34-5.48-70.69-4.95,5.5.2,58,9.2,103,17.2-36.87-.51-77.87.53-101.74,5,12.72,2.48,54.16,5.76,94.11,6.93-14.46,2.37-28.69,6.21-41.37,12.2,0,0,2.2.23,6,.59C556,957.14,531.25,963.63,510.08,971c36.76-2.41,91.73-9.07,137.45-15.75q3.39,0,6.65-.1c-42,12.93-96.58,34.28-144,59.36,85.62-29.91,188.78-63.3,208.71-69.73.54.55,1.06,1.07,1.56,1.52,1.13-1.23,5.39-5.46,6.54-6.68h0c.91-.93,1.9-1.93,2.41-2.47a24.23,24.23,0,0,0-2.72-.7l-.46-1.17c12.12,5.08,21.08,8.85,25.81,10.85-.24.81-.45,1.57-.6,2.27,2.26-.13,10.31-.29,12.58-.39h0c1.76,0,3.64-.1,4.65-.15a17.21,17.21,0,0,0-1.2-2.47c.85-1,1.95-2.35,3.31-3.94,1.82-1.89,3.79-4,5.88-6.33,4.27-2.11,9.26-4.8,14.8-7.93-1.14,6.13-2,10.73-2.53,13.47-.89.07-1.73.15-2.49.25.78,1.39,3.28,6.39,4,7.78h0c.55,1.09,1.15,2.26,1.48,2.88a20.54,20.54,0,0,0,2.18-1.45c1.29.24,2.95.57,5,1,2.45.61,5.17,1.26,8.14,1.92,28.46,17.53,113.89,56.09,139.38,68.71a385.82,385.82,0,0,0-92.06-56.61,659,659,0,0,1,100.65,38.93A335.19,335.19,0,0,0,894,968.57c32.44,4.94,65.9,9.25,90.7,11.29C955.69,967.42,918.77,957.7,884.31,951Zm-26.62-64.47-.4.32.11-.13Zm10.42-33.88c-6.65,7.31-13.53,15.14-20.13,23a103.17,103.17,0,0,0,4.11-10.85Q859.79,858.79,868.11,852.67ZM682.83,834.06c4.21,6.6,8.51,13.38,12.77,20.11,0,1.37,0,2.72,0,4.06l-2-1.94C690.09,848.8,686.47,841.32,682.83,834.06Z"/>
    <path class="cls-23" d="M1198.78,910.34c25.85-15,53.48-34.25,60.07-41.67-16.95,4.84-46.32,20.12-70.31,34l5.15-4.07c13.32-9.09,23.89-17.1,24.58-19.24,15.61-12.13,28.48-21.92,30.62-23-9.51,3.59-32.51,17.18-53.4,32q-3.48,1.73-7,3.52c27-24.89,56.92-53.07,58.94-58-6.64,2.27-29.77,20.38-53.19,40.43,11.47-13.46,22-26.63,26.86-33.94-6,4.09-13,9.31-20.28,15.12,5.29-8.05,10.55-16.11,15.63-23.77-2.34-.76-8.32,4-15.94,11.8,8.68-15.52,14.26-27.87,12.63-30.78-9.65,12.81-20.16,26.43-30.1,39.65,6.06-10.55,11.61-21,16-29.57a248.63,248.63,0,0,0-18.71,20c9.41-23.67,16.67-44.45,16.92-50.6-3,2.59-14.24,25.66-26.33,51.73,1.46-5.09,2.83-10.11,4.06-14.94,4.71-9.41,8.68-17.31,11.4-22.46q-4.29,4.74-8.26,9.44a165.57,165.57,0,0,0,3.73-21.36c-.37,2.09-4.36,13.65-9.77,28.72-4.36,5.47-8.41,10.89-12.15,16.21,1-10.29,1.74-20.29,1.87-29.13q2.28-4.63,4.72-9.3c-1.61,2-3.17,4-4.7,6a120.29,120.29,0,0,0-.69-13.62c-1.62,4.12-4,12.72-6.51,23.59-4.69,6.77-8.92,13.48-12.7,20.07a75.47,75.47,0,0,0-3.25-8.22s-.42,1.55-1.08,4.17c-.61-4.06-1.27-8.11-2-12.12,1.29-15.5,2.17-30.1,2.43-42.19-2.66,5.9-5.12,12.15-7.41,18.63-1.38-5.55-2.88-10.93-4.51-16-.37,9-.46,19.64-.34,31-3.53,11.88-6.5,24.22-9,36.44-5.12-14.49-11.19-29.74-18-44.78-2.83-9.07-5.46-16.08-7.48-19.63-.09,1.14-.15,2.33-.19,3.56q-2.62-5.24-5.36-10.37c1.76,5.51,3.53,11.12,5.3,16.78.29,21.25,4.84,52.67,9.86,79.46l-2.49-7.16c-4.82-17.93-9.53-32.47-11.68-34-7.31-21.58-13.1-39.3-13.47-42,.16,11.71,6.08,41.89,14.3,70.25.35,3,.72,5.94,1.12,8.92-17.06-38.85-36.7-82-41.4-86.1-.18,8.09,10.82,40.13,23.9,73.21-10.53-17.58-21.14-34-27.4-42.09,2.17,8.08,5.19,17.69,8.78,27.8-6.94-8.8-13.9-17.57-20.49-26-1.71,2.11.77,9.52,5.73,19.67.06.4.13.79.19,1.19-13.62-14.81-24.9-25.1-28.79-24.44,10.54,15.36,21.64,32,32.53,47.78-9.46-10.59-19-20.6-26.94-28.56a217.1,217.1,0,0,0,10,19.4c.49,1.92,1,3.8,1.51,5.67-21.54-17.89-40.4-32.24-46.92-34.71C981.08,827,1002.6,848,1027.16,871c-21.09-14.35-41.74-26.58-51.38-30.56,1.72.93,9.09,6.46,19.31,14.36a239.63,239.63,0,0,0,14.61,23c-16.39-7-31.92-12.74-43.67-15.22,7.75,6.44,33.4,22.25,60.5,36.89l2.52,3a125.54,125.54,0,0,0-12.66-1.92c-20-9.46-39.17-17-46.51-18.14,6.41,5.91,16.79,13.07,28.61,20.34-11.13-2-22.3-3.58-33.16-4.73a13.71,13.71,0,0,1-1.36-.66c.25.2.51.4.8.6-9.26-1-18.28-1.6-26.87-1.81,16.49,6.24,38.09,13.29,60.62,20.06,6.34,3,13.07,5.91,19.8,8.65,2.14,1.32,4.31,2.64,6.5,3.94-35.13-9.26-74.55-19.12-79.84-18.18,4.94,4.09,29.41,12.87,56.57,21.26l-6,.13c-13.22-1.6-25-2.68-32-2.82,2.83,1.22,5.94,2.49,9.26,3.77-18.51,1.08-37.44,2.92-55.85,5.68,14.21.35,28.9.8,43.55,1.31,3,1.64,8.61,3.27,15.92,4.79-17.9,1.08-31.49,3-33.24,6,16,1.2,33.11,2.67,49.61,3.89-12.25.6-24.18,1.59-33.81,2.54,5.94,1.63,15.65,3.36,26.74,4.92-25.41,4.86-47.23,10-52.75,13.05,3.76,1.14,29.53-1.87,58.36-5.78-21.17,6.19-40.71,13.21-48.69,17.39,3.73-1.51,41.87-10,74.72-17.11-24.61,10.78-51.37,24.08-65.48,35,9.36-1.82,38-11.7,64.94-22.86a98.22,98.22,0,0,0-22.79,22.61s1.55-.48,4.19-1.34c-14.63,12.05-28.56,24.91-39.79,37.44,23.44-13.15,57.33-35.33,85.08-54.71,1.5-.7,3-1.4,4.37-2.1a578.86,578.86,0,0,0-73,92.64c45.41-50.65,101.11-109.48,111.89-120.84.56.3,1.1.56,1.61.78.28-1.35,1.5-6.13,1.8-7.49h0c.25-1,.53-2.16.66-2.76a15.38,15.38,0,0,0-2.06.24c-.23-.24-.48-.52-.75-.82,9.95.51,17.3.9,21.2,1.11.14.73.29,1.42.45,2,1.45-.79,6.72-3.37,8.19-4.14h0c1.14-.57,2.37-1.18,3-1.52a16.45,16.45,0,0,0-1.73-1.68c.17-1.1.41-2.53.71-4.25.49-2.11,1-4.45,1.5-7,2-3,4.32-6.77,6.81-11,1.56,5.4,2.72,9.46,3.41,11.87-.57.32-1.09.65-1.55,1,1,.9,4.58,4.27,5.6,5.19h0c.78.73,1.61,1.51,2.07,1.91a13.35,13.35,0,0,0,.89-1.85l3.66-.71c1.85-.24,3.9-.54,6.12-.89,25.46,5.8,96.62,11.64,118.27,14.29A278.42,278.42,0,0,0,1184.4,931a427.59,427.59,0,0,1,81.36,1.52,238.23,238.23,0,0,0-53.92-10.68c23.35-5.78,47.14-12.39,64.33-18.24C1252.25,902.18,1224.12,905.38,1198.78,910.34Zm-42-45c0,.13-.09.26-.14.39l0-.15Zm-5.89-31.08c-1.64,8-3.24,16.59-4.65,25-.3-3.41-.76-6.82-1.38-10.19Q1147.69,841.79,1150.9,834.22Zm-129.74,40.92c5.28,4.16,10.69,8.44,16.05,12.7.51,1.13,1,2.24,1.54,3.34l-2-1C1031.54,885.09,1026.31,880,1021.16,875.14Z"/>
    <g>
      <path class="cls-15" d="M1654.17,831.83c-2-14.75-4-29.49-5.76-44.24-22.39-37.22-55.63-71.32-77.16-90.55-26-23.18-55.18-41.25-86.64-51.57A192.53,192.53,0,0,0,1437,636c-8-.52-39.41,7.08-45.17,2.69,35,26.64,56.15,65.61,83.16,101.2,26.7,35.17,57.4,56,93.72,75.72,31.65,17.22,62.92,34.79,91.66,57.68C1658.18,859.49,1656.06,845.67,1654.17,831.83Z"/>
      <path class="cls-16" d="M1654.17,831.83q-1.82-13.38-3.57-26.73c-3.22-6.75-6.61-13.06-9.78-18.62A394.05,394.05,0,0,0,1575.46,701c-48.86-48.07-115.45-85.38-178.12-59.49,94.39,11,157.91,132.41,226.51,195.84,12.6,11.65,25.94,21.34,36.44,35.26C1658.11,859,1656,845.45,1654.17,831.83Z"/>
      <path class="cls-15" d="M1656.92,850.9c-23.55-32.68-75.33-54.43-100.2-74.37-44.87-36-90.54-52.64-142.59-36-21.61,6.91-42.71,12.84-64.27,19.05,47.71,24.91,97.07,43.69,143.78,70,42.24,23.8,78.38,21.9,123.27,30.77,16.45,3.25,30.51,11.46,44.42,18.65Q1659,865,1656.92,850.9Z"/>
      <path class="cls-15" d="M1654.17,831.83c-6-43.87-11.82-87.63-11.9-132,0-3.86.21-7.68.58-11.44-26.08-45.74-62.71-84.72-100.41-108-18.57-11.46-37.55-20.87-58.35-24.25,21.52,98.07,90,211.29,157.53,278.45,5.59,5.56,10.59,10.26,15.13,15.16Q1655.42,840.81,1654.17,831.83Z"/>
      <path class="cls-16" d="M1642.27,699.85q0-5.69.56-11.24C1615.4,642,1577.34,602,1542.44,580.43c-18.55-11.46-36-21.35-57-20.9C1553.17,628,1580.21,727.65,1638.77,805c4.79,6.33,9.59,12.66,14.34,19C1647.53,782.76,1642.35,741.57,1642.27,699.85Z"/>
      <path class="cls-15" d="M1654.17,831.83c-6-43.87-11.82-87.63-11.9-132a114.29,114.29,0,0,1,11.29-49.67c-5.5-13.34-11-27.26-15.9-42.16-13.71-41.4-16.67-87.38-30.91-128.2-8.43-24.18-21.35-43.21-40.24-58.59,12.51,44.7,10.18,56.86.29,102.79-18.18,84.44,9.17,171.43,43.11,248.55,6.52,14.82,35.47,102.8,47.19,106.46a12.59,12.59,0,0,0,4.33.6C1658.83,863.72,1656.35,847.8,1654.17,831.83Z"/>
      <path class="cls-16" d="M1655.9,844.06q-.89-6.1-1.73-12.23c-6-43.87-11.82-87.63-11.9-132a114.2,114.2,0,0,1,13.08-53.24c-8-15.38-15.71-30.85-20.88-48.13-11.65-38.92-14.31-80.21-27.72-118.66-7.62-21.85-24.14-39.87-38-59.67,13.35,20,15.71,47.39,18.19,71.23C1599.3,610.39,1598.31,735.9,1655.9,844.06Z"/>
      <path class="cls-17" d="M1648.23,876.92c.28-.2-1.51-4.08-6.06-10.16a118.78,118.78,0,0,0-22.63-22.24c-10.55-8.18-24.09-16.35-39.49-24.38s-32.59-16-49.85-26c-17.46-9.78-34.41-18.76-50.58-25.21a218.69,218.69,0,0,0-23.36-7.93c-7.45-2.08-14.51-3.45-20.88-4.7-12.77-2.59-23.45-3.67-30.83-3.25s-11.36,1.61-11.31,2,4.07,0,11.25.35,17.44,2,30,5.06c6.32,1.51,13.2,3.09,20.42,5.34a233.08,233.08,0,0,1,22.73,8.28c15.76,6.61,32.42,15.61,49.85,25.37,17.4,10.07,34.86,17.92,50.21,25.66s28.9,15.34,39.51,22.9a141.37,141.37,0,0,1,23.29,20.33c5,5.47,7.35,8.88,7.71,8.61"/>
      <path class="cls-17" d="M1634.92,835.62c.34-.25-1.75-3.93-5.07-10.82s-7.72-17.06-12.69-29.92c-2.51-6.42-5.21-13.49-8.28-21s-6.55-15.44-10-23.9c-6.88-16.86-14.14-35.6-22.25-55.08S1560.28,657,1551.73,641a302.35,302.35,0,0,0-25.57-40.81,175.57,175.57,0,0,0-21.43-23.89c-5.57-5.07-9-7.36-9.24-7.07-.63.74,12.09,11.46,27.53,33.58a346.1,346.1,0,0,1,24.19,40.93c8.2,16,16.28,34.28,24.35,53.69s15.48,38.07,22.65,54.88c3.55,8.41,7.21,16.34,10.44,23.68l8.89,20.71C1619,809.34,1624,819.39,1628,826s6.67,9.87,7,9.64"/>
      <path class="cls-17" d="M1538.43,671c-.31.29,3.23,5.07,8.61,13s12.54,19.19,20.34,31.72,15,23.75,20.69,31.54,9.56,12.26,9.84,12-3-5.17-8.23-13.27-12.16-19.42-20-32-15.23-23.67-21.09-31.34-9.91-12-10.19-11.73"/>
      <path class="cls-17" d="M1631.75,794.15c.39-.16-.74-4.56-2.41-12.58s-3.73-19.71-6.08-34.28c-4.65-29.3-14.6-68.66-22-112.92-1.83-11.06-3.38-21.89-4.58-32.39q-.42-4-.93-7.86c-.3-2.55-.57-5.1-.81-7.62-.47-5-.8-10-1.07-14.86-1-19.43-1.26-37.1-2.29-51.9a244.87,244.87,0,0,0-4.37-34.8c-1.72-8.09-3.35-12.34-3.67-12.23s.49,4.58,1.53,12.7a347,347,0,0,1,2.57,34.65c.51,14.72.33,32.33,1.09,52,.2,4.91.48,10,.9,15.11.22,2.57.46,5.17.75,7.8s.61,5.2.87,7.83c1.13,10.63,2.66,21.59,4.51,32.74,7.44,44.6,18,83.88,23.6,112.65,2.84,14.45,5.47,26.14,7.86,34s4.18,12.06,4.51,11.93"/>
    </g>
    <g>
      <path class="cls-23" d="M1436.09,941.71c-22.13-126.55,23.85-177.52,23.85-177.52s-15.64,66.4,11.24,170.35Z"/>
      <path class="cls-23" d="M1385.7,952c-47.54-130.59,27.87-213.07,27.87-213.07s-30.65,91.09-4,208.19Z"/>
      <path class="cls-23" d="M1650.58,897.87c-24.76-87.19-5.69-142.93-5.69-142.93-17.33,19.42-49.47,58.38-47.17,153.74Z"/>
      <path class="cls-23" d="M1637.44,900.56c-69-89.68-36.89-168.78-36.89-168.78-35.86,46.75-26.46,122.31-8.66,178.09Z"/>
      <path class="cls-23" d="M1431.59,942.63c-14.33-102.8,32.33-151.29,32.33-151.29s-90,31.6-67.64,158.51Z"/>
      <path class="cls-23" d="M1527.09,923.11c-14.71-137.72,22.67-170.36,22.67-170.36s-70.58,21.22-60.41,178.07Z"/>
      <path class="cls-23" d="M1603.45,907.5c-33.14-133.32,15.81-179.58,15.81-179.58s-58.43,42.81-60.74,188.77Z"/>
      <path class="cls-23" d="M1527.34,923.06c-57.41-133.18-14.75-192.2-14.75-192.2s-74.5,62.76-11.83,197.63Z"/>
      <path class="cls-23" d="M1551.18,918.19c-42.71-184.26,48.67-208.93,48.67-208.93s-63.68,24.12-12.43,201.52Z"/>
      <path class="cls-23" d="M1387.6,951.62c-22.64-146.39,47.14-192.73,47.14-192.73s-34,38.31-16.31,186.43Z"/>
      <path class="cls-23" d="M1456.09,937.62c-32.3-151.25,66.61-168.48,66.61-168.48s-68.71,32-34.28,161.87Z"/>
      <path class="cls-23" d="M1526.2,923.29c-26-152.85,56.69-161,56.69-161s-59.55,19.75-24.36,154.39Z"/>
      <path class="cls-23" d="M1409.07,947.23c44.07-198.11,146.69-160.3,146.69-160.3s-98.37,6.07-104.31,151.64Z"/>
      <path class="cls-23" d="M1232.27,983.36c13-92.29-58.3-150.93-58.3-150.93s59.08,14.1,102.6,141.88Z"/>
      <path class="cls-23" d="M1310.83,967.31c-13.49-86.12-83.76-172.51-83.76-172.51S1250,879.13,1273.2,975Z"/>
      <path class="cls-23" d="M1397.79,949.54c-37-58.89-42.64-142.45-42.64-142.45-26.24,51.52-22,103-5.89,152.37Z"/>
      <path class="cls-23" d="M1316.78,966.09c-56.54-121.32,22.38-188,22.38-188s-40.94,103.43,9.08,181.52Z"/>
      <path class="cls-23" d="M1344.48,733.54c-16.83,16.56-68.6,81.89-25.79,232.16l-36.09,7.38S1227,796.94,1344.48,733.54Z"/>
      <path class="cls-23" d="M1342.93,960.75c10.91-45.91-63.72-110.77-63.72-110.77s61.27,12.39,110.9,101.13Z"/>
    </g>
    <g>
      <path class="cls-15" d="M70.75,770.41c-37.17,33-73.71,66.15-104.54,105C-73.85,821.26.11,704.31,39,653.16c25.56-33.66,56.27-63.54,91.57-86.61a308.71,308.71,0,0,1,54.88-28.77c9.53-3.78,49.06-8.93,54.92-15.65C204.79,562.9,188.79,610.37,165,656.84,141.43,702.76,109.6,736,70.75,770.41"/>
      <path class="cls-16" d="M234.43,527.17C123.69,576.48,76.84,723.35,9.82,814.46-3.09,832-17.51,847.72-26.72,867.06c-19-22.59-6.71-67.2,3.79-96.44A486.7,486.7,0,0,1,34.85,658.81c47-67.78,118-132,199.58-131.64"/>
      <path class="cls-15" d="M23.74,834.6c-22.47,11.74-39.21,29.06-57.11,43.55C-42.55,825.49,43.31,765.36,75.7,726.56c45.19-54.13,96-89.27,162.59-93.8,27.64-1.88,54.44-4.54,81.86-7.09-51.28,44.22-106,83-155.78,128.2-45,40.88-88.85,53.66-140.63,80.73"/>
      <path class="cls-15" d="M-12.2,819c-12.54,18.25-22.31,30.44-28.23,51C-107,774.49-43.65,611.51,45.26,525.14c19.53-19,40.05-36.06,64.21-47.88C107.43,583.83,52.67,724.55-12.2,819"/>
      <path class="cls-16" d="M45.25,525.14c19.51-18.95,38.06-35.9,63.48-44C43.91,577,35.62,687.33-16,788.25c-10.93,21.38-21.87,42.7-31.83,64.31-60.09-86.25,14.9-251.49,93-327.42"/>
      <path class="cls-15" d="M-25.25,872A20,20,0,0,0-20,869.55C-6.83,861.14,6.6,761.63,10.84,744.2,32.9,653.49,44.63,555.61,2.29,478.77c-23-41.81-28.78-53-24.6-102.66-19,23-29.87,47.24-34.13,74.78-7.2,46.49.41,93.56-6,140.42-12.8,93.4-52.34,163.73-2,240.64,8.26,12.6,20.58,45.25,39.19,40"/>
      <path class="cls-17" d="M-9.87,863.84c-.39-.08.82-4.68,4.81-12.59s11-19,21.79-31.38,25-26.08,41.54-40.34,35.27-29.18,53.58-46.16c18.6-16.84,36.79-32.68,54.65-45.68,8.92-6.5,17.7-12.32,26.15-17.39s16.6-9.33,23.94-13.16c14.72-7.77,27.29-13.18,36.26-15.77s14-3,14.06-2.63-4.89,1.63-13.43,4.91S233,652.7,218.64,660.89c-7.23,4.08-15.11,8.44-23.24,13.61s-16.65,11-25.3,17.5c-17.34,13-35.16,28.72-53.74,45.53-18.45,17.11-37.53,32-54.1,46s-31,27-41.91,38.88a196,196,0,0,0-23,29.74c-4.63,7.46-6.67,11.83-7.17,11.71"/>
      <path class="cls-17" d="M-3.9,817.24c-.48-.11,1.14-4.63,3.46-12.85s5.13-20.15,8-35C9,762,10.53,753.82,12.38,745S16.5,727,18.54,717.16c4.19-19.61,8.35-41.24,13.36-64s10.52-44.37,16.9-63.89A348.62,348.62,0,0,1,69.6,538.2a228.84,228.84,0,0,1,20-32.53c5.46-7.32,9-11,9.39-10.81.93.49-11.75,16.35-24.92,44.67a393.51,393.51,0,0,0-19.13,50.66c-6,19.33-11.25,40.8-16.23,63.43s-9.35,44.27-13.89,63.94c-2.22,9.83-4.7,19.23-6.79,27.86l-5.65,24.27c-3.48,14.87-7,26.92-10.21,35.11s-5.62,12.55-6,12.44"/>
      <path class="cls-17" d="M72.05,613.82c.45.16-2.64,6.37-7.18,16.5s-10.41,24.23-16.73,39.89S35.84,700,30.93,710.08s-8.5,16.11-8.9,16,2.39-6.39,6.66-16.57,9.9-24.32,16.23-40,12.56-29.79,17.74-39.81,9-16,9.39-15.85"/>
    </g>
    <g>
      <path class="cls-23" d="M164.67,975.82c20.55-196.91,96.72-254.29,96.72-254.29S216.91,814,210.79,979.18Z"/>
      <path class="cls-23" d="M98.45,971c-9.34-213,115.15-305.5,115.15-305.5S141.2,788.6,129.83,973.28Z"/>
      <path class="cls-23" d="M539.44,1003.13C546.5,889.67,573,796,573,796c-33,17.87-69,75.38-98.59,202.38Z"/>
      <path class="cls-23" d="M446.54,996.36c2.4-139.47,47.09-214.68,47.09-214.68-28.79,21.93-83.29,67-116.55,209.62Z"/>
      <path class="cls-23" d="M429.28,995.1c-51.43-160.85,18.28-265.55,18.28-265.55-62.05,55.13-79,171.19-78.14,261.19Z"/>
      <path class="cls-23" d="M676.87,1013.14c-13.41-89.74,26.59-151.51,26.59-151.51-49.1,11.51-88.25,60.21-86.84,147.12Z"/>
      <path class="cls-23" d="M158.76,975.39C180,816.89,256,763.47,256,763.47S132.8,774.49,112.35,972Z"/>
      <path class="cls-23" d="M458.46,997.23C437,895.94,505.33,829.13,520,807.79c0,0,.49,63.66-28,191.88Z"/>
      <path class="cls-23" d="M649.65,1011.16c37.74-145.49,97.89-141.4,97.89-141.4S641.86,869.37,606.26,1008Z"/>
      <path class="cls-23" d="M284.26,984.53c34-210.54,92.55-244.12,92.55-244.12s-95.32,3.34-142.15,240.51Z"/>
      <path class="cls-23" d="M521.26,1001.8c16.27-225.11,139.35-246.47,139.35-246.47S551.52,805.66,578.38,1006Z"/>
      <path class="cls-23" d="M607.47,1008.09c3.83-148.62,93-182.93,93-182.93s-140.61,31.61-136.13,179.78Z"/>
      <path class="cls-23" d="M384.61,991.85c9.49-211.37,87.55-260.57,87.55-260.57s-88.47,40.27-146.6,256.26Z"/>
      <path class="cls-23" d="M432.6,995.34C467.87,935.46,510,840.93,510,840.93s-70,68.14-125.07,150.94Z"/>
      <path class="cls-23" d="M284.59,984.56C264,763.71,339.13,693,339.13,693s-115.9,63.5-89.47,289Z"/>
      <path class="cls-23" d="M315.92,986.84c16.95-290.89,139.31-291,139.31-291s-87.9,10.4-91.69,294.51Z"/>
      <path class="cls-23" d="M101,971.17c27.44-226.58,131.29-267.58,131.29-267.58s-56.61,43.33-90.78,270.54Z"/>
      <path class="cls-23" d="M191,977.73C208.28,740.05,337.14,754,337.14,754s-97.1,20.1-103.7,226.87Z"/>
      <path class="cls-23" d="M283.09,984.45c25.66-237.56,131.08-216.62,131.08-216.62S333,773.39,325.58,987.54Z"/>
      <path class="cls-23" d="M129.16,973.23C258.68,696.42,371.29,793.61,371.29,793.61s-124-30.27-186.43,183.68Z"/>
      <path class="cls-23" d="M.06,963.82C16,830.45-38.2,674-38.2,674s-3.65,134.46-11.18,286.22Z"/>
      <path class="cls-23" d="M114.35,972.15c-23.45-102.29,1.19-228.73,1.19-228.73-52,66.09-66.21,144.29-65,224.08Z"/>
      <path class="cls-23" d="M7.88,964.39C-16.11,761.51,106.74,694,106.74,694S16.93,831.37,49.22,967.41Z"/>
      <path class="cls-23" d="M130.21,629.86c-27.1,17.88-115.86,94.29-119.82,334.72L-37,961.12S-39.16,677.14,130.21,629.86Z"/>
      <path class="cls-23" d="M42.24,966.9C73.12,903,5.38,776.83,5.38,776.83s71.09,42.88,98.86,194.58Z"/>
    </g>
  </g>
</svg>
