<svg xmlns="http://www.w3.org/2000/svg" xmlns:xlink="http://www.w3.org/1999/xlink" width="1920" height="900" viewBox="0 0 1920 900">
  <defs>
    <style>
      .cls-1 {
        fill: #fff;
      }

      .cls-2 {
        fill: none;
      }

      .cls-3 {
        isolation: isolate;
      }

      .cls-4 {
        clip-path: url(#clip-path);
      }

      .cls-5 {
        fill: #36bf36;
      }

      .cls-6 {
        fill: #8f4b2f;
      }

      .cls-7 {
        fill: #f7c872;
      }

      .cls-22, .cls-8 {
        fill: #af613f;
      }

      .cls-33, .cls-8 {
        opacity: 0.3;
      }

      .cls-9 {
        fill: #eab763;
      }

      .cls-10 {
        fill: #52322c;
      }

      .cls-11 {
        fill: #73473e;
      }

      .cls-12 {
        fill: #613227;
      }

      .cls-13 {
        fill: #733526;
      }

      .cls-14 {
        fill: #a15136;
      }

      .cls-15 {
        fill: #a85438;
      }

      .cls-16 {
        fill: #8f472f;
      }

      .cls-17 {
        fill: #804627;
      }

      .cls-18 {
        fill: #af5b3f;
      }

      .cls-19 {
        fill: #bc5e3e;
      }

      .cls-20 {
        fill: #804a27;
      }

      .cls-21 {
        fill: #8f4b28;
      }

      .cls-23 {
        fill: #bc6a46;
      }

      .cls-24 {
        fill: #52332c;
      }

      .cls-25 {
        fill: #733e2f;
      }

      .cls-26 {
        fill: #613e34;
      }

      .cls-27 {
        fill: #733826;
      }

      .cls-28 {
        fill: #a15536;
      }

      .cls-29 {
        fill: #a85938;
      }

      .cls-30 {
        fill: #33a033;
      }

      .cls-31 {
        fill: #579131;
      }

      .cls-32, .cls-33, .cls-43 {
        fill: #1c6a00;
      }

      .cls-32 {
        opacity: 0.44;
      }

      .cls-34 {
        fill: #b69a8a;
      }

      .cls-35 {
        fill: #a18778;
      }

      .cls-36 {
        fill: #917b6d;
      }

      .cls-37 {
        fill: #706054;
      }

      .cls-38 {
        fill: #c4a594;
      }

      .cls-39 {
        fill: #816e62;
      }

      .cls-40 {
        fill: #d1b09e;
      }

      .cls-41 {
        fill: #e0bdaa;
      }

      .cls-42 {
        fill: #b09484;
      }

      .cls-44 {
        fill: #3ab449;
      }

      .cls-45 {
        fill: #109343;
      }

      .cls-46 {
        fill: #56c859;
      }

      .cls-47 {
        fill: #938d7a;
      }

      .cls-48 {
        fill: #3f3a24;
      }

      .cls-49 {
        mask: url(#mask);
      }

      .cls-50, .cls-52 {
        opacity: 0.49;
      }

      .cls-50 {
        mix-blend-mode: multiply;
      }

      .cls-51 {
        fill: #6d6651;
      }

      .cls-52, .cls-53 {
        fill: #ccc5b4;
      }

      .cls-54 {
        fill: #76b757;
      }

      .cls-55 {
        fill: #2c932c;
      }

      .cls-56 {
        fill: #308c1f;
      }

      .cls-57 {
        fill: #297a18;
      }
    </style>
    <clipPath id="clip-path">
      <rect class="cls-2" width="1920" height="900"/>
    </clipPath>
    <mask id="mask" x="1034.04" y="578.95" width="509.71" height="71.42" maskUnits="userSpaceOnUse">
      <path class="cls-1" d="M1463.47,618.11s4.06-24.17,11.72-21.48,32.44,20.59,34.24,24.62,11.27,1.79,13.52,1.34,19.83-8.06,20.73-13.43-7.21,19.25-7.21,19.25-11.27,14.77-22.53,14.77-34.25-13-41-16.11A20.55,20.55,0,0,1,1463.47,618.11Z"/>
      <path class="cls-1" d="M1402.64,629.3s3.15-8,8.11-6.26,23.88,4.92,33.34.89,5,2.69,3.16,4.48-9.92,7.16-20.73,8.06-25.69-7.61-25.69-7.61Z"/>
      <path class="cls-1" d="M1034,632.44s5.4-18.8,13.06-18.8,15.77,15.22,23.89,15.22,12.61-.45,13.06-5.38,19.83-4.47,23-.44a14.11,14.11,0,0,0-12.62.44c-6.76,3.59-3.16,7.61,3.15,7.61s14,1.8,16.67-3.13-1.8,9.85-5.4,13.88-38.31,8.95-50,8.5S1034,632.44,1034,632.44Z"/>
    </mask>
  </defs>
  <g class="cls-3">
    <g id="Layer_1" data-name="Layer 1">
      <g class="cls-4">
        <g>
          <rect class="cls-5" x="-39.33" y="-9.1" width="1961.52" height="918.64"/>
          <path class="cls-6" d="M786.89,231.25A1147.1,1147.1,0,0,1,1254,274c136.42,16.41,171.29,48,177.56,74.15,10,41.78-54.83,62.21-66.72,133.82-15.32,92.2,78.55,140.61,61.19,220.63-6.49,29.94-29.48,68.61-103.14,105.3H610.08c-212.55-27.6-273.29-62.58-276.28-94.33-4.68-49.9,134.65-76.86,151-177.23C496,468,438.64,435.7,448,382.9,457.22,330.88,528.94,271.72,786.89,231.25Z"/>
          <path class="cls-7" d="M787,234.57a1137.59,1137.59,0,0,1,463.77,42.53c135.45,16.32,170.07,47.75,176.3,73.73,10,41.53-54.45,61.85-66.25,133-15.21,91.67,78,139.8,60.76,219.37-6.45,29.76-29.28,68.21-102.41,104.69H611.45c-211-27.44-271.35-62.22-274.31-93.79-4.65-49.61,133.69-76.42,150-176.21,11.08-68-45.87-100.09-36.58-152.59C459.68,333.62,530.89,274.81,787,234.57Z"/>
          <path class="cls-5" d="M305.17,670.43s143.48-.38,115.51,22,70.62,54.9,142,55.48c36.12,46.07,40.55,5.19-37.55,44.89s-234.7,16.92-234.7,16.92L287,670.42"/>
          <path class="cls-5" d="M608.72,739.57c-79.51,23-159.29,66.77-155.11,85.07.75,3.31,4.09,5.11,5.88,6,44.49,21.45,89.13,6.57,171.2,27.21s378.63-2.53,507.16,14.3c124,16.23,181.78,22.18,231-19.06,57.4-48.09,69-140.45,52.74-149.83-11-6.31-30.22,27.46-86.39,47.88-16.27,5.92-69,25.1-87.41,6.07-26-27,50.69-95,31.35-153.86-30.83-93.89-267.27-80.15-333.33-76.31-46.43,2.69-215.15,12.5-231.49,81-8.15,34.19,27.07,60.39,12.58,90.7C714.05,725.55,679.67,719,608.72,739.57Z"/>
          <ellipse class="cls-5" cx="554.87" cy="471.7" rx="139.91" ry="29.46"/>
          <path class="cls-5" d="M1307.21,261.28c-24,17.21-78.64,46,10.14,53.22s58.52,36.33,84.12,36.33,96.93-12.72,96.93-20,7.19-58.58-34.75-60S1307.21,261.28,1307.21,261.28Z"/>
          <path class="cls-5" d="M602.45,470.18c24,17.22,78.64,46-10.14,53.22s-58.52,36.33-84.12,36.33-96.92-12.71-96.92-20-7.2-58.58,34.74-59.95S602.45,470.18,602.45,470.18Z"/>
          <path class="cls-8" d="M691.3,359.83s-267.66,52.8-104.24,90.89,216.75,6.08,156.62,25.36-268.82,27.28-181.32,52.74,91.1,76.43,55.47,94.54S405.59,698.53,599.78,712s150.2-17.9,315-4.26,510.65,12.65,397.16-19.55-57-133.64-19.6-163.14,69.4-40.14-151.67-50.65-537-58.6-451.37-77.43,129.47-6.79,261.78-28.69c37.58-6.22,483.5-55,139.34-60.65s-524.28-13-490.66,12.82,134.79,6.41,100.63,23.76S691.3,359.83,691.3,359.83Z"/>
          <ellipse class="cls-9" cx="998.51" cy="292.92" rx="209.11" ry="9.7"/>
          <ellipse class="cls-9" cx="1215.71" cy="409.08" rx="57.44" ry="7.69"/>
          <path class="cls-9" d="M716.28,604.79c28.33.08,71.41.14,124,0,127.06-.33,194.63-1.52,194.73,1s-71.33,7.86-76.62,8.26c-45,3.33-78.84,4-78.75,6.49,0,1,3.42,1.9,11.51,2.67,42.13,4,167.45-2,195.73,0s136.13,15.41,2.05,17.88-347.3-1.69-254.56,8.55,261.65,1.06,292.29,7.18,219.79,17.92,73.83,31.42-499,11.65-441.68,16.65,430.33-9.16,351.72,11.71-416.44,25.35-429.91,20-29.75-18.38,13.32-31.75,47.18-16.42,96.51-24.59S894,663,778.52,659.88,605.7,648.81,695,641.07c76.27-6.62,164.63-14.82,164.41-18.43,0-.88-6.91-1.32-8.34-1.42C826.45,619.62,786,615.13,716.28,604.79Z"/>
          <g>
            <g>
              <rect class="cls-10" x="941.44" y="216.54" width="290.84" height="9.86"/>
              <rect class="cls-11" x="941.44" y="216.54" width="290.84" height="1.97"/>
              <rect class="cls-12" x="941.44" y="218.51" width="290.84" height="5.92"/>
              <rect class="cls-10" x="941.44" y="245.91" width="290.84" height="9.86"/>
              <rect class="cls-11" x="941.44" y="245.91" width="290.84" height="1.97"/>
              <rect class="cls-12" x="941.44" y="247.88" width="290.84" height="5.92"/>
              <rect class="cls-10" x="945.54" y="275.19" width="286.74" height="10.02"/>
              <rect class="cls-11" x="945.54" y="275.19" width="286.74" height="2"/>
              <rect class="cls-12" x="945.54" y="277.19" width="286.74" height="6.01"/>
              <rect class="cls-13" x="1124.87" y="209.75" width="15.89" height="83.14"/>
              <polygon class="cls-14" points="1138.99 211.75 1124.87 292.89 1124.87 209.75 1140.76 209.75 1138.99 211.75"/>
              <polygon class="cls-15" points="1126.64 292.89 1124.87 292.89 1124.87 209.75 1126.64 211.75 1126.64 292.89"/>
              <rect class="cls-16" x="1126.64" y="211.75" width="12.36" height="81.14"/>
              <rect class="cls-13" x="1023.81" y="209.06" width="15.89" height="83.14"/>
              <polygon class="cls-14" points="1037.94 211.06 1023.81 292.2 1023.81 209.06 1039.7 209.06 1037.94 211.06"/>
              <polygon class="cls-15" points="1025.58 292.2 1023.81 292.2 1023.81 209.06 1025.58 211.06 1025.58 292.2"/>
              <rect class="cls-16" x="1025.58" y="211.06" width="12.36" height="81.14"/>
              <rect class="cls-13" x="1214.35" y="209.75" width="15.89" height="83.14"/>
              <polygon class="cls-14" points="1228.47 211.75 1214.35 292.89 1214.35 209.75 1230.23 209.75 1228.47 211.75"/>
              <polygon class="cls-15" points="1216.11 292.89 1214.35 292.89 1214.35 209.75 1216.11 211.75 1216.11 292.89"/>
              <rect class="cls-16" x="1216.11" y="211.75" width="12.36" height="81.14"/>
            </g>
            <g>
              <rect class="cls-10" x="723.35" y="215.96" width="222.01" height="10.35"/>
              <rect class="cls-11" x="723.35" y="215.96" width="222.01" height="2.07"/>
              <rect class="cls-12" x="723.35" y="218.03" width="222.01" height="6.21"/>
              <rect class="cls-10" x="723.35" y="245.62" width="222.01" height="10.35"/>
              <rect class="cls-11" x="723.35" y="245.62" width="222.01" height="2.07"/>
              <rect class="cls-12" x="723.35" y="247.69" width="222.01" height="6.21"/>
              <rect class="cls-10" x="723.35" y="275.29" width="222.01" height="10.35"/>
              <rect class="cls-11" x="723.35" y="275.29" width="222.01" height="2.07"/>
              <rect class="cls-12" x="723.35" y="277.36" width="222.01" height="6.21"/>
              <rect class="cls-13" x="726.2" y="207.69" width="15.15" height="85.89"/>
              <polygon class="cls-14" points="739.67 209.76 726.2 293.57 726.2 207.69 741.35 207.69 739.67 209.76"/>
              <polygon class="cls-15" points="727.88 293.57 726.2 293.57 726.2 207.69 727.88 209.76 727.88 293.57"/>
              <rect class="cls-16" x="727.88" y="209.76" width="11.79" height="83.82"/>
              <rect class="cls-13" x="827.22" y="207.69" width="15.15" height="85.89"/>
              <polygon class="cls-14" points="840.69 209.76 827.22 293.57 827.22 207.69 842.38 207.69 840.69 209.76"/>
              <polygon class="cls-15" points="828.91 293.57 827.22 293.57 827.22 207.69 828.91 209.76 828.91 293.57"/>
              <rect class="cls-16" x="828.91" y="209.76" width="11.79" height="83.82"/>
              <rect class="cls-13" x="928.25" y="207.69" width="15.15" height="85.89"/>
              <polygon class="cls-14" points="941.72 209.76 928.25 293.57 928.25 207.69 943.4 207.69 941.72 209.76"/>
              <polygon class="cls-15" points="929.93 293.57 928.25 293.57 928.25 207.69 929.93 209.76 929.93 293.57"/>
              <rect class="cls-16" x="929.93" y="209.76" width="11.79" height="83.82"/>
            </g>
          </g>
          <g>
            <polygon class="cls-17" points="734.84 205.51 646.61 668.15 647.33 688.22 735.28 217.76 734.84 205.51"/>
            <polygon class="cls-17" points="737.82 241.19 649.58 703.83 650.3 723.89 738.26 253.44 737.82 241.19"/>
            <polygon class="cls-17" points="738.88 270.8 650.64 733.45 651.37 753.51 739.32 283.05 738.88 270.8"/>
            <polygon class="cls-6" points="709.65 303.24 720.63 302.85 722.9 421.52 714.13 421.83 709.65 303.24"/>
            <polygon class="cls-6" points="723.54 218.91 737.06 218.43 738.87 337.12 728.07 337.5 723.54 218.91"/>
            <polygon class="cls-6" points="689.33 397 702 396.55 703.97 515.23 693.84 515.59 689.33 397"/>
            <polygon class="cls-6" points="672.57 495.75 683.55 495.36 685.82 614.03 677.04 614.34 672.57 495.75"/>
            <polygon class="cls-6" points="656.62 593.44 669.29 593 671.26 711.67 661.13 712.03 656.62 593.44"/>
            <polygon class="cls-18" points="702 396.55 706.42 377.77 708.07 494.49 703.97 515.23 702 396.55"/>
            <polygon class="cls-19" points="706.42 377.77 694.54 378.19 689.33 397 702 396.55 706.42 377.77"/>
            <polygon class="cls-18" points="720.63 302.85 723.58 290.63 726.01 405.34 722.9 421.52 720.63 302.85"/>
            <polygon class="cls-19" points="720.63 302.85 723.58 290.63 713.92 290.97 709.65 303.24 720.63 302.85"/>
            <polygon class="cls-18" points="737.06 218.43 740.37 207.35 742.39 315.37 738.87 337.12 737.06 218.43"/>
            <polygon class="cls-19" points="723.54 218.91 737.06 218.43 740.37 207.35 729.91 207.73 723.54 218.91"/>
            <path class="cls-18" d="M683.55,495.36l5.08-16.72,1.24,113.63-4,21.76S683.55,495.21,683.55,495.36Z"/>
            <polygon class="cls-19" points="672.57 495.75 683.55 495.36 688.63 478.64 677.47 479.04 672.57 495.75"/>
            <polygon class="cls-18" points="669.29 593 672.9 575.63 676.81 684.53 671.26 711.67 669.29 593"/>
            <polygon class="cls-19" points="656.62 593.44 669.29 593 672.9 575.63 662.33 576.01 656.62 593.44"/>
          </g>
          <g>
            <polygon class="cls-20" points="1235.44 217.56 1278.95 657.85 1276.46 676.52 1233.93 228.96 1235.44 217.56"/>
            <polygon class="cls-20" points="1229.4 250.61 1272.9 690.9 1270.42 709.57 1227.89 262.01 1229.4 250.61"/>
            <polygon class="cls-20" points="1228.17 261.79 1274.03 717.17 1271.89 736.62 1226.86 273.67 1228.17 261.79"/>
            <polygon class="cls-21" points="1247.08 310.29 1236.48 309.72 1232.42 421 1240.89 421.45 1247.08 310.29"/>
            <polygon class="cls-21" points="1259.34 399.84 1247.12 398.98 1241.32 510.18 1251.09 510.88 1259.34 399.84"/>
            <polygon class="cls-21" points="1265.61 493.69 1255.02 493.03 1249.88 604.26 1258.35 604.79 1265.61 493.69"/>
            <polygon class="cls-21" points="1278.36 594.55 1266.15 593.67 1260.28 704.87 1270.05 705.57 1278.36 594.55"/>
            <polygon class="cls-22" points="1247.12 398.98 1243.47 381.21 1238.05 490.59 1241.32 510.18 1247.12 398.98"/>
            <polygon class="cls-23" points="1243.47 381.21 1254.92 382.02 1259.34 399.84 1247.12 398.98 1243.47 381.21"/>
            <polygon class="cls-22" points="1236.48 309.72 1233.83 298.2 1229.68 405.77 1232.42 421 1236.48 309.72"/>
            <polygon class="cls-23" points="1236.48 309.72 1233.83 298.2 1243.15 298.69 1247.08 310.29 1236.48 309.72"/>
            <polygon class="cls-21" points="1236.78 223.7 1226.18 223.14 1223.17 314.85 1231.64 315.3 1236.78 223.7"/>
            <polygon class="cls-22" points="1226.18 223.14 1223.42 213.62 1220.29 302.26 1223.17 314.85 1226.18 223.14"/>
            <polygon class="cls-23" points="1226.18 223.14 1223.42 213.62 1232.74 214.11 1236.78 223.7 1226.18 223.14"/>
            <path class="cls-22" d="M1255.79,492.9l-4.4-15.84-4.53,106.51,3.27,20.54S1255.8,492.76,1255.79,492.9Z"/>
            <polygon class="cls-23" points="1266.38 493.61 1255.8 492.9 1251.39 477.06 1262.14 477.78 1266.38 493.61"/>
            <polygon class="cls-22" points="1266.15 593.67 1263.25 577.26 1255.83 679.23 1260.28 704.87 1266.15 593.67"/>
            <polygon class="cls-23" points="1278.36 594.55 1266.15 593.67 1263.25 577.26 1273.42 577.99 1278.36 594.55"/>
          </g>
          <ellipse class="cls-9" cx="851.05" cy="360.8" rx="75.01" ry="5.1"/>
          <path class="cls-9" d="M1196.32,369.47c-64.08-5.77-96.12-8.67-135.13-8.67-57.68,0-103.07,5.21-135.12,8.67-29.65,3.2-80.35,8.67-80.16,11.74.21,3.26,63.93-.09,215.28-3.06,96.87-1.9,161.79-2.31,161.84-5.11C1223.05,372.1,1215.56,371.21,1196.32,369.47Z"/>
          <ellipse class="cls-9" cx="1019.06" cy="455.21" rx="50.86" ry="4.59"/>
          <ellipse class="cls-9" cx="840.26" cy="414.38" rx="50.86" ry="4.59"/>
          <path class="cls-9" d="M752.85,499.2s63.27-8.34,98.2-3.45,117.81,15.7,59.93,19.48,69.84,6.13,168.85.36,203.54,21,105,25-314,2.18-356.8,0-15.77-22-15.77-22C877.77,511.86,767.67,498.8,752.85,499.2Z"/>
          <ellipse class="cls-9" cx="982.07" cy="331.71" rx="36.48" ry="5.61"/>
          <ellipse class="cls-9" cx="1141.85" cy="599.64" rx="33.91" ry="5.1"/>
          <ellipse class="cls-9" cx="1186.55" cy="560.35" rx="53.95" ry="5.61"/>
          <ellipse class="cls-9" cx="735.45" cy="560.35" rx="40.59" ry="5.61"/>
          <ellipse class="cls-9" cx="1321.67" cy="337.82" rx="71.42" ry="5.61"/>
          <ellipse class="cls-9" cx="796.59" cy="320.48" rx="54.46" ry="5.61"/>
          <ellipse class="cls-9" cx="1171.14" cy="320.48" rx="63.2" ry="5.61"/>
          <ellipse class="cls-9" cx="786.83" cy="463.89" rx="52.92" ry="4.08"/>
          <ellipse class="cls-9" cx="868.52" cy="472.56" rx="22.61" ry="4.59"/>
          <ellipse class="cls-9" cx="1034.99" cy="588.42" rx="24.66" ry="4.08"/>
          <ellipse class="cls-9" cx="1181.93" cy="487.87" rx="25.69" ry="5.61"/>
          <g>
            <g>
              <rect class="cls-24" x="926.07" y="669.97" width="363.76" height="14.67"/>
              <rect class="cls-25" x="926.07" y="669.97" width="363.76" height="2.93"/>
              <rect class="cls-26" x="926.07" y="672.9" width="363.76" height="8.8"/>
              <rect class="cls-24" x="926.07" y="713.64" width="363.76" height="14.67"/>
              <rect class="cls-25" x="926.07" y="713.64" width="363.76" height="2.93"/>
              <rect class="cls-26" x="926.07" y="716.58" width="363.76" height="8.8"/>
              <rect class="cls-24" x="931.2" y="757.19" width="358.62" height="14.9"/>
              <rect class="cls-25" x="931.2" y="757.19" width="358.62" height="2.98"/>
              <rect class="cls-26" x="931.2" y="760.17" width="358.62" height="8.94"/>
              <rect class="cls-27" x="1155.49" y="659.87" width="19.87" height="123.65"/>
              <polygon class="cls-28" points="1173.15 662.85 1155.49 783.52 1155.49 659.87 1175.36 659.87 1173.15 662.85"/>
              <polygon class="cls-29" points="1157.69 783.52 1155.49 783.52 1155.49 659.87 1157.69 662.85 1157.69 783.52"/>
              <rect class="cls-6" x="1157.69" y="662.84" width="15.45" height="120.67"/>
              <rect class="cls-27" x="1029.1" y="658.84" width="19.87" height="123.65"/>
              <polygon class="cls-28" points="1046.76 661.82 1029.1 782.5 1029.1 658.85 1048.96 658.85 1046.76 661.82"/>
              <polygon class="cls-29" points="1031.3 782.5 1029.1 782.5 1029.1 658.85 1031.3 661.82 1031.3 782.5"/>
              <rect class="cls-6" x="1031.3" y="661.82" width="15.45" height="120.67"/>
              <rect class="cls-27" x="1267.4" y="659.87" width="19.87" height="123.65"/>
              <polygon class="cls-28" points="1285.06 662.85 1267.4 783.52 1267.4 659.87 1287.27 659.87 1285.06 662.85"/>
              <polygon class="cls-29" points="1269.61 783.52 1267.4 783.52 1267.4 659.87 1269.61 662.85 1269.61 783.52"/>
              <rect class="cls-6" x="1269.6" y="662.84" width="15.45" height="120.67"/>
            </g>
            <g>
              <rect class="cls-24" x="640.11" y="669.11" width="291.09" height="15.39"/>
              <rect class="cls-25" x="640.11" y="669.11" width="291.09" height="3.08"/>
              <rect class="cls-26" x="640.11" y="672.18" width="291.09" height="9.23"/>
              <rect class="cls-24" x="640.11" y="713.22" width="291.09" height="15.39"/>
              <rect class="cls-25" x="640.11" y="713.22" width="291.09" height="3.08"/>
              <rect class="cls-26" x="640.11" y="716.3" width="291.09" height="9.23"/>
              <rect class="cls-24" x="640.11" y="757.34" width="291.09" height="15.39"/>
              <rect class="cls-25" x="640.11" y="757.34" width="291.09" height="3.08"/>
              <rect class="cls-26" x="640.11" y="760.42" width="291.09" height="9.23"/>
              <rect class="cls-27" x="643.85" y="656.8" width="19.87" height="127.74"/>
              <polygon class="cls-28" points="661.51 659.88 643.85 784.54 643.85 656.8 663.72 656.8 661.51 659.88"/>
              <polygon class="cls-29" points="646.06 784.54 643.85 784.54 643.85 656.8 646.06 659.88 646.06 784.54"/>
              <rect class="cls-6" x="646.06" y="659.88" width="15.45" height="124.66"/>
              <rect class="cls-27" x="776.31" y="656.8" width="19.87" height="127.74"/>
              <polygon class="cls-28" points="793.98 659.88 776.31 784.54 776.31 656.8 796.18 656.8 793.98 659.88"/>
              <polygon class="cls-29" points="778.52 784.54 776.31 784.54 776.31 656.8 778.52 659.88 778.52 784.54"/>
              <rect class="cls-6" x="778.52" y="659.88" width="15.45" height="124.66"/>
              <rect class="cls-27" x="908.78" y="656.8" width="19.87" height="127.74"/>
              <polygon class="cls-28" points="926.44 659.88 908.78 784.54 908.78 656.8 928.64 656.8 926.44 659.88"/>
              <polygon class="cls-29" points="910.98 784.54 908.78 784.54 908.78 656.8 910.98 659.88 910.98 784.54"/>
              <rect class="cls-6" x="910.98" y="659.88" width="15.45" height="124.66"/>
            </g>
          </g>
          <path class="cls-30" d="M240.63,181.78c51.55,186.06,32.93,312.8,4.84,395.48-16.62,48.93-37.17,92.86-18.5,139.19,25.82,64,111.74,91.7,247.94,113.48,248.88,39.81,328.61,6.11,657.7,7.84,189.78,1,313.91,13,354.46-57.85,23.27-40.66,6.26-86.29,53.43-172.5,21.45-39.2,50-75.51,60.48-88.85,56.61-72,69.2-64.24,79.62-92.74,32.36-88.48-16.77-191.64-103.4-220.32-12.77-4.23-23.11-22.84-44-37.57-86.73-61.2-169.56-54.26-170.48-65.78-.94-11.88,256.06-68.46,568.65-110.31.69,294.31,5.45,629.95,6.13,924.26L-33.55,924.28l-3.07-751.66C12.71,156,214.94,135.17,264.26,118.49Q252.46,150.14,240.63,181.78Z"/>
          <path class="cls-31" d="M1506.79,452.67s-8.84,4.94,0,10.54,80.89,6.53,88.94,2.18,9.79-19.6,3.5-21.77S1505.29,447.73,1506.79,452.67Z"/>
          <path class="cls-32" d="M1036.56,170.26s-12.86,6.42-5.25,9,38.3,2.63,70.31,0,40.41-2.63,43.55-6-2.48-10.06-2.48-10.06S1041.8,161.24,1036.56,170.26Z"/>
          <polygon class="cls-33" points="410.62 444.96 440.52 466.14 505.83 456.99 508.38 442.92 447.11 431.45 410.62 444.96"/>
          <g>
            <polygon class="cls-34" points="1082.65 132.63 1067.94 138.25 1066.16 140.92 1066.78 143.82 1062.93 145.78 1058.59 152.31 1074.24 165.12 1084.02 148.38 1082.65 132.63"/>
            <polygon class="cls-35" points="1100.83 156.26 1084.02 148.38 1074.24 162.25 1089.18 168.78 1100.83 156.26 1100.83 156.26"/>
            <polygon class="cls-36" points="1130.77 170.75 1115.18 152.73 1100.83 156.26 1118.08 170.75 1130.77 170.75 1130.77 170.75"/>
            <polygon class="cls-37" points="1144.37 126.99 1129.4 133.86 1115.18 152.73 1130.77 170.75 1136.86 163.15 1144.37 126.99"/>
            <polygon class="cls-38" points="1136.86 125.04 1129.4 123.84 1105.78 125.09 1129.4 133.86 1144.37 126.99 1136.86 125.04"/>
            <polygon class="cls-39" points="1089.18 168.78 1069.54 160.19 1058.59 152.31 1069.54 169.27 1089.88 173.98 1089.18 168.78"/>
            <polygon class="cls-37" points="1118.08 170.75 1118.08 170.75 1100.83 156.26 1089.18 168.78 1089.88 173.98 1118.08 170.75"/>
            <path class="cls-40" d="M1129.4,133.86s-19.41-11.68-25.84-8.15-20.91,6.92-20.91,6.92-1.78,11.82,1.37,15.75,16.81,7.88,16.81,7.88l14.35-3.53Z"/>
            <polygon class="cls-41" points="1086.62 150.5 1098.14 156.84 1089.43 168.52 1099.99 157.36 1114.74 152.84 1099.17 155.79 1086.62 150.5"/>
            <polygon class="cls-41" points="1117.55 127.89 1129.07 133.92 1119.92 146.44 1130.91 134.44 1142.1 128.03 1130.1 132.87 1117.55 127.89"/>
            <polygon class="cls-40" points="1083.8 146.26 1076.2 157.19 1083.16 143.82 1083.8 146.26"/>
            <polygon class="cls-39" points="1137.81 158.58 1130.77 137.16 1129.15 139.28 1137.37 160.7 1137.81 158.58"/>
            <polygon class="cls-39" points="1137.07 161.19 1128.41 140.38 1126.67 142.81 1136.68 162.66 1137.07 161.19"/>
            <polygon class="cls-37" points="1121.22 146.44 1116.75 147.79 1118.08 150.5 1121.22 146.44"/>
            <polygon class="cls-38" points="1111.62 125.04 1104.3 129.47 1114.74 126.07 1111.62 125.04"/>
            <polygon class="cls-39" points="1100.83 158.58 1098.29 161.14 1098.29 165.9 1101.56 164.33 1111.02 170.08 1115.18 169.78 1100.83 158.58"/>
          </g>
          <path class="cls-33" d="M1463.68,605.52s-14.48,3.89-7.36,8.51,45,24.15,54.82,21.53,29.78-19.71,29.78-19.71l-43.29-21.3Z"/>
          <path class="cls-33" d="M1401.49,622.5s-13.52,10.58,8.29,10a226.68,226.68,0,0,0,40.59-5s-3.41-10.74-26.51-7.76S1401.49,622.5,1401.49,622.5Z"/>
          <g>
            <polygon class="cls-39" points="457.28 444.96 435.46 427.94 449.2 413.42 471.67 436.88 457.28 444.96"/>
            <polygon class="cls-39" points="442.36 461.27 480.16 459.51 480.16 446.14 473.16 435.35 459.32 440.23 444.93 448.31 442.36 461.27"/>
            <polygon class="cls-35" points="505.83 420.95 492.17 446.67 480.16 446.14 473.16 435.35 495.07 406.72 505.83 420.95"/>
            <polygon class="cls-38" points="460.16 420.12 459.32 440.23 473.16 435.35 495.07 406.72 460.16 420.12"/>
            <polygon class="cls-35" points="449.2 413.42 445.6 425.82 447.6 433.3 459.32 440.23 460.16 420.12 449.2 413.42"/>
            <polygon class="cls-40" points="460.16 420.12 449.2 413.42 466.9 406.72 495.07 406.72 460.16 420.12"/>
            <polygon class="cls-42" points="444.93 448.31 423.74 430 435.46 427.94 447.11 431.45 459.32 440.23 444.93 448.31"/>
            <polygon class="cls-35" points="442.36 461.27 423.85 453.03 414.96 442.24 423.74 430 444.93 448.31 442.36 461.27"/>
            <polygon class="cls-37" points="500.04 455.92 480.16 459.51 480.16 446.14 492.17 446.67 505.83 420.95 500.04 455.92"/>
            <polygon class="cls-35" points="473.16 435.35 479.95 445.93 480.16 459.51 481.61 446.4 492.17 446.67 480.87 444.99 473.16 435.35"/>
            <polygon class="cls-41" points="423.74 430 443.99 448.42 442.36 460.87 445.65 448.89 458.61 440.63 444.92 447.48 423.74 430"/>
            <polygon class="cls-37" points="460.87 449.68 469.12 447.88 470.08 456.99 473.16 456.99 471.67 442.92 460.16 445.44 452.16 456.99 455.81 456.99 460.87 449.68"/>
            <polygon class="cls-39" points="438.87 458.85 441.18 448.31 439.63 446.67 437.38 457.81 438.87 458.85"/>
            <polygon class="cls-38" points="439.53 459.41 441.83 449.99 441.14 448.9 438.89 458.94 439.53 459.41"/>
            <polygon class="cls-38" points="464.94 432.22 469.28 416.87 467.75 417.43 465.5 427.46 464.94 432.22"/>
            <polygon class="cls-38" points="469.5 424.93 472.24 415.22 471.28 415.57 469.85 421.92 469.5 424.93"/>
            <polygon class="cls-41" points="450.25 414.06 459.35 420.5 459.32 439.83 461 420.96 489.83 408.73 460.27 419.56 450.25 414.06"/>
            <polygon class="cls-37" points="503.96 426.15 500.96 427.94 493 427.94 500.4 429.19 501.07 433.21 503.96 426.15"/>
          </g>
          <g>
            <polygon class="cls-40" points="1509.12 439.75 1523.13 435.32 1531.65 433.36 1540.42 434.42 1541.72 431.04 1554.2 428.16 1560.46 428.9 1555.68 438.47 1527.8 443.09 1509.12 439.75"/>
            <polygon class="cls-38" points="1555.68 438.47 1573.32 437.83 1586.96 429.5 1594.69 416.43 1573.32 422.7 1560.46 428.9 1555.68 438.47"/>
            <path class="cls-39" d="M1602.42,450.81s5.53-12.8,3.68-19.44-11.41-14.94-11.41-14.94L1587,429.5l9.79,29.07Z"/>
            <polygon class="cls-37" points="1581.81 461.81 1596.75 458.57 1586.96 429.5 1573.32 437.83 1572.55 454.45 1581.81 461.81"/>
            <polygon class="cls-36" points="1560.46 461.81 1572.55 454.45 1573.32 437.83 1555.68 438.47 1548.42 461.44 1560.46 461.81"/>
            <polygon class="cls-37" points="1531.93 463.24 1548.42 461.44 1555.68 438.47 1527.8 443.09 1515.55 454.21 1531.93 463.24"/>
            <polygon class="cls-35" points="1515.55 454.21 1515.55 454.21 1527.8 443.09 1509.12 439.75 1507.43 452.16 1515.55 454.21"/>
            <polygon class="cls-35" points="1571.13 463.24 1571.13 463.24 1581.81 461.81 1572.55 454.45 1560.46 461.81 1571.13 463.24"/>
            <polygon class="cls-36" points="1515.55 458.85 1515.55 458.85 1531.93 463.24 1515.55 454.21 1507.43 452.16 1515.55 458.85"/>
            <polygon class="cls-41" points="1511.14 440.11 1526.61 443.06 1516.37 453.46 1528.47 443.57 1547.74 439.79 1527.65 442.04 1511.14 440.11"/>
            <polygon class="cls-41" points="1556.65 438.47 1572.99 438.33 1572.55 454.45 1574.28 438.47 1586.96 429.5 1574.03 437.31 1556.65 438.47"/>
            <polygon class="cls-40" points="1560.54 434.76 1562 429.5 1563.52 428.89 1572.75 425.19 1584.65 422.7 1564.52 430.55 1560.54 434.76"/>
            <polygon class="cls-39" points="1536.8 460.21 1525.96 453.06 1531.93 445.65 1549.65 444.32 1548.42 449.75 1542.35 446.63 1533.54 449.75 1532.33 455.23 1536.8 460.21"/>
            <polygon class="cls-37" points="1591.31 422.15 1584.65 425.94 1596.72 434.42 1591.31 422.15"/>
          </g>
          <g>
            <polygon class="cls-40" points="375.71 665.85 389.72 661.42 398.25 659.46 407.01 660.52 408.31 657.14 420.79 654.27 427.05 655 422.27 664.58 394.4 669.2 375.71 665.85"/>
            <polygon class="cls-38" points="422.27 664.58 439.91 663.93 453.56 655.61 461.29 642.53 439.91 648.8 427.05 655 422.27 664.58"/>
            <path class="cls-39" d="M469,676.91s5.52-12.8,3.68-19.43-11.41-15-11.41-15l-7.73,13.08,9.78,29.06Z"/>
            <polygon class="cls-37" points="448.4 687.91 463.34 684.67 453.56 655.61 439.91 663.93 439.14 680.56 448.4 687.91"/>
            <polygon class="cls-36" points="427.05 687.91 439.14 680.56 439.91 663.93 422.27 664.58 415.02 687.54 427.05 687.91"/>
            <polygon class="cls-37" points="398.52 689.34 415.02 687.54 422.27 664.58 394.4 669.2 382.14 680.32 398.52 689.34"/>
            <polygon class="cls-35" points="382.14 680.32 382.14 680.32 394.4 669.2 375.71 665.85 374.03 678.26 382.14 680.32"/>
            <polygon class="cls-35" points="437.73 689.34 437.73 689.34 448.4 687.91 439.14 680.56 427.05 687.91 437.73 689.34"/>
            <polygon class="cls-36" points="382.14 684.95 382.14 684.95 398.52 689.34 382.14 680.32 374.03 678.26 382.14 684.95"/>
            <polygon class="cls-41" points="377.73 666.21 393.2 669.16 382.97 679.57 395.06 669.67 414.33 665.89 394.24 668.15 377.73 666.21"/>
            <polygon class="cls-41" points="423.24 664.58 439.58 664.43 439.14 680.56 440.88 664.58 453.56 655.61 440.62 663.42 423.24 664.58"/>
            <polygon class="cls-40" points="427.13 660.86 428.59 655.61 430.11 655 439.34 651.3 451.24 648.8 431.11 656.65 427.13 660.86"/>
            <polygon class="cls-39" points="403.39 686.32 392.56 679.17 398.52 671.76 416.25 670.42 415.02 675.85 408.94 672.73 400.13 675.85 398.92 681.33 403.39 686.32"/>
            <polygon class="cls-37" points="457.9 648.25 451.24 652.05 463.31 660.52 457.9 648.25"/>
          </g>
          <g>
            <path class="cls-43" d="M1072.79,161.29c-6.66-5-19.24-6-28.1-2.23-3.4,1.44-5.74,3.37-7,5.49-.32.12-.66.2-1,.33-8.85,3.74-10.63,10.81-4,15.78s19.24,6,28.09,2.24c3.41-1.44,5.74-3.38,7-5.49.31-.12.66-.2,1-.33C1077.67,173.34,1079.45,166.27,1072.79,161.29Z"/>
            <g>
              <path class="cls-44" d="M1042.87,132.7a13.29,13.29,0,0,1,11.78,7.11,10.19,10.19,0,0,1,2.08-.21,10.51,10.51,0,0,1,9,5.17,4.27,4.27,0,0,1,6.56,5.24,11.89,11.89,0,0,1-5.06,22.7c-.21,0-.41,0-.61,0a8.45,8.45,0,0,1-8,5.79,8.27,8.27,0,0,1-2.69-.49,4.29,4.29,0,0,1-8.29.88,15.42,15.42,0,0,1-21.19-10.11,7.44,7.44,0,0,1-2.49-12.84,6.91,6.91,0,0,1-2.71-5.47,7,7,0,0,1,8.55-6.79A13.25,13.25,0,0,1,1042.87,132.7Z"/>
              <path class="cls-45" d="M1026.45,164a15.43,15.43,0,0,0,21.19,10.1,4.29,4.29,0,0,0,8.29-.88,8.27,8.27,0,0,0,2.69.49,8.45,8.45,0,0,0,8-5.79c.2,0,.4,0,.61,0a12,12,0,0,0,11.73-9.45,11.79,11.79,0,0,1-11.73,14.25c-.21,0-.41,0-.61,0a8.45,8.45,0,0,1-8,5.79,8.27,8.27,0,0,1-2.69-.49,4.29,4.29,0,0,1-8.29.88,15.42,15.42,0,0,1-21.19-10.11,7.46,7.46,0,0,1-5.2-7.1,7.34,7.34,0,0,1,.42-2.34A7.54,7.54,0,0,0,1026.45,164Z"/>
              <path class="cls-46" d="M1030.5,153.07a5.63,5.63,0,0,1,4.56-1.44,5.21,5.21,0,0,1,1.64-4.28,5.25,5.25,0,0,1,8.12,1.2,10,10,0,0,1,12.73,1.56,10.42,10.42,0,0,1,1.47,2.07,9.82,9.82,0,0,0-2.53-5.16,10,10,0,0,0-12.72-1.55,5.6,5.6,0,0,0-.69-.93,5.29,5.29,0,0,0-7.44-.27,5.19,5.19,0,0,0-1.64,4.27,5.63,5.63,0,0,0-4.56,1.45,5.57,5.57,0,0,0-.74,7.37A5.55,5.55,0,0,1,1030.5,153.07Z"/>
            </g>
          </g>
          <g>
            <g>
              <g>
                <path class="cls-47" d="M1511.67,632.29c-8,0-46.63-12.44-48-16.35-1.36-4.07,3.34-20.94,6.81-24.38s22.36-12.82,31.92-12.82c4,0,11.58,4.76,22.61,14.15,8.19,7,15.32,14,15.39,14.11a.14.14,0,0,1,0,.1c2.68,11.95-22.3,23.51-27.85,25.09a3.73,3.73,0,0,1-1,.1Z"/>
                <path class="cls-48" d="M1502.45,579c9.46,0,37.85,28.2,37.85,28.2,2.7,12.08-23,23.5-27.71,24.84a3.74,3.74,0,0,1-.92.09c-7.75,0-46.46-12.37-47.75-16.2-1.35-4,3.38-20.82,6.76-24.18S1493,579,1502.45,579Zm0-.42c-9.6,0-28.63,9.47-32.07,12.88s-8.24,20.48-6.86,24.6c.23.66,1.21,1.83,7.15,4.4,3.73,1.61,8.9,3.53,14.57,5.4,9.74,3.22,22.17,6.69,26.43,6.69a4,4,0,0,0,1-.11,73.48,73.48,0,0,0,16.77-8.45c6-4,12.72-10.25,11.24-16.88a.53.53,0,0,0-.11-.21c-1.17-1.15-28.62-28.32-38.15-28.32Z"/>
              </g>
              <g>
                <path class="cls-47" d="M1414.92,629c-6.42,0-9.79-1-10-3a6.62,6.62,0,0,1,1.93-5c3.7-4.28,13.17-8.84,26-9.37.38,0,.75,0,1.11,0,4.52,0,7.68,1.24,9.37,3.68,2.8,4,.63,9.81.54,10.05a.23.23,0,0,1-.14.13,156.08,156.08,0,0,1-28.78,3.49Z"/>
                <path class="cls-48" d="M1433.93,611.82c14.87,0,9.71,13.46,9.71,13.46a155.27,155.27,0,0,1-28.72,3.48c-5.47,0-9.57-.73-9.8-2.81-.68-6.05,11.49-13.43,27.71-14.1l1.1,0Zm0-.41-1.12,0a52,52,0,0,0-16.07,3.14c-4.42,1.67-8,3.91-10.06,6.31a6.82,6.82,0,0,0-2,5.11c.24,2.14,3.58,3.18,10.22,3.18a155.57,155.57,0,0,0,28.84-3.5.36.36,0,0,0,.27-.25c.1-.24,2.3-6.12-.56-10.24-1.73-2.5-5-3.77-9.54-3.77Z"/>
              </g>
            </g>
            <g class="cls-49">
              <g class="cls-50">
                <path class="cls-51" d="M1540.3,607.15s-28.39-28.2-37.85-28.2c-7.89,0-22.37,6.54-28.92,10.65a18.41,18.41,0,0,0-2.85,2.1c-3.38,3.36-8.11,20.15-6.76,24.18s43.94,17.45,48.67,16.11S1543,619.23,1540.3,607.15Z"/>
                <path class="cls-51" d="M1443.64,625.28s5.41-14.1-10.81-13.43-28.39,8-27.71,14.1S1438.91,626.62,1443.64,625.28Z"/>
              </g>
            </g>
            <g>
              <path class="cls-52" d="M1474.29,593.49s-3.16-1.78,4-4.92,18.93-14.32,29.29-6.26,21.63,30.88,6.76,26.85S1475.64,595.73,1474.29,593.49Z"/>
              <path class="cls-52" d="M1415.71,615.88c3.8-2.27,17.35-5.15,22.53-3.36s6.53,6.49.67,4.92-21.85-.67-27,1.57S1412.33,617.89,1415.71,615.88Z"/>
              <path class="cls-53" d="M1502.45,579c-3.24-1-22.64,7.72-14.53,9.73S1518.33,584,1502.45,579Z"/>
              <path class="cls-52" d="M1509.21,614.87s6.42,4.36,12.16,3.69,4.74,2.69-1.35,3.36-7.09,2-12.5-4.7S1509.21,614.87,1509.21,614.87Z"/>
              <path class="cls-53" d="M1439.25,614c0,.83-2.5,1.51-5.58,1.51s-5.57-.68-5.57-1.51,2.49-1.51,5.57-1.51S1439.25,613.2,1439.25,614Z"/>
            </g>
          </g>
          <g>
            <path class="cls-54" d="M1578.37,477.33c-6.66-5-19.24-6-28.1-2.24-3.4,1.44-5.74,3.38-7,5.49-.32.12-.66.2-1,.33-8.85,3.75-10.63,10.81-4,15.79s19.24,6,28.09,2.23c3.41-1.44,5.74-3.37,7-5.49.31-.11.66-.19,1-.32C1583.25,489.37,1585,482.3,1578.37,477.33Z"/>
            <g>
              <path class="cls-44" d="M1548.45,448.74a13.28,13.28,0,0,1,11.78,7.1,11,11,0,0,1,2.08-.2,10.49,10.49,0,0,1,9,5.17,4.27,4.27,0,0,1,6.56,5.24,11.89,11.89,0,0,1-5.06,22.7c-.21,0-.41,0-.61,0a8.46,8.46,0,0,1-8,5.78,8.29,8.29,0,0,1-2.7-.49,4.29,4.29,0,0,1-8.28.89,15.43,15.43,0,0,1-21.2-10.11,7.44,7.44,0,0,1-2.49-12.84,6.92,6.92,0,0,1-2.71-5.47,7,7,0,0,1,8.55-6.8A13.25,13.25,0,0,1,1548.45,448.74Z"/>
              <path class="cls-45" d="M1532,480a15.42,15.42,0,0,0,21.19,10.11,4.29,4.29,0,0,0,8.29-.88,8.55,8.55,0,0,0,2.7.48,8.44,8.44,0,0,0,8-5.78c.2,0,.4,0,.61,0a12,12,0,0,0,11.73-9.45,11.79,11.79,0,0,1-11.73,14.25c-.21,0-.41,0-.61,0a8.46,8.46,0,0,1-8,5.78,8.29,8.29,0,0,1-2.7-.49,4.29,4.29,0,0,1-8.28.89,15.43,15.43,0,0,1-21.2-10.11,7.47,7.47,0,0,1-5.2-7.1,7.29,7.29,0,0,1,.42-2.34A7.5,7.5,0,0,0,1532,480Z"/>
              <path class="cls-46" d="M1536.08,469.11a5.67,5.67,0,0,1,4.56-1.45,5.2,5.2,0,0,1,1.64-4.27,5.29,5.29,0,0,1,7.44.27,5.39,5.39,0,0,1,.68.93,9.94,9.94,0,0,1,14.2,3.62,9.82,9.82,0,0,0-2.53-5.15,10,10,0,0,0-12.72-1.55,5.6,5.6,0,0,0-.69-.93,5.29,5.29,0,0,0-7.44-.28,5.21,5.21,0,0,0-1.64,4.28A5.66,5.66,0,0,0,1535,466a5.57,5.57,0,0,0-.74,7.37A5.55,5.55,0,0,1,1536.08,469.11Z"/>
            </g>
          </g>
          <g>
            <path class="cls-44" d="M462.47,498.63a16.82,16.82,0,0,0,12-5,9.25,9.25,0,0,0,15.65-3.24c.22,0,.44,0,.67,0a13,13,0,1,0,0-26h-.08a11.49,11.49,0,0,0-11.43-10.14,12.05,12.05,0,0,0-2.27.22,14.52,14.52,0,0,0-27.13,4.19,7.59,7.59,0,0,0-6.37,13.4,8.12,8.12,0,0,0,2.72,14A16.81,16.81,0,0,0,462.47,498.63Z"/>
            <path class="cls-45" d="M490.76,485c-.23,0-.45,0-.67,0a9.24,9.24,0,0,1-15.65,3.25,16.87,16.87,0,0,1-28.24-7.53,8.15,8.15,0,0,1-5.13-4.88,7.93,7.93,0,0,0-.55,2.8,8.15,8.15,0,0,0,5.68,7.75,16.87,16.87,0,0,0,28.24,7.53,9.24,9.24,0,0,0,15.65-3.25c.22,0,.44,0,.67,0a13.05,13.05,0,0,0,13.08-13,12.59,12.59,0,0,0-.33-2.83A13.06,13.06,0,0,1,490.76,485Z"/>
            <path class="cls-46" d="M452.29,469.08a10.59,10.59,0,0,1,11.77-3.53,8.18,8.18,0,0,1,11-1,8,8,0,0,1,2.85,4.14,8.08,8.08,0,0,0-3.1-7.53,8.18,8.18,0,0,0-11,1A10.6,10.6,0,0,0,452,465.69a10.38,10.38,0,0,0-1.87,8.85A10.29,10.29,0,0,1,452.29,469.08Z"/>
          </g>
          <ellipse class="cls-33" cx="425.59" cy="682.44" rx="54.46" ry="13.78"/>
          <path class="cls-55" d="M1920.15,414.66c0,61.28-371,212.32-313.67,322s-163.6,166.8-222.17,153.53S603.51,855.74,462.66,877,16.49,631.17-11.09,617.89c-58.18-28-5.1,299.24-5.1,299.24L1920.15,913Z"/>
          <path class="cls-55" d="M287.75,55.49S121.43,75,145.07,241.19c-8.22,79.2-25.69,79.29-25.69,79.29V-9.1H348.52L317.27,55.7Z"/>
          <g>
            <g>
              <path class="cls-56" d="M692.45,271.77s20.48-17.71,24.64-20.87c5.1-3.88-4.51-9.85-19.68,3.7C697.41,254.6,688.12,264.44,692.45,271.77Z"/>
              <path class="cls-56" d="M682.65,270.41s-4.49-17-27.49-17S682.65,270.41,682.65,270.41Z"/>
              <path class="cls-56" d="M689,273s6.36-37.6,16.41-47.73c8.6-8.67-10-11.52-20.06,9.42S689,273,689,273Z"/>
            </g>
            <g>
              <path class="cls-57" d="M935.41,824.5s37.73-5.51,36.68-20.64S935.41,824.5,935.41,824.5Z"/>
              <path class="cls-57" d="M928.07,830.62s21-37.84,36.68-47.48-27.24-10.41-36.68,29.2Z"/>
              <path class="cls-57" d="M926.5,825.52s10.58-29.44-28.82-31C879.86,793.87,926.5,825.52,926.5,825.52Z"/>
            </g>
            <g>
              <path class="cls-57" d="M758.09,822s14.67-9.68,43-12.06S770.67,797.23,749.7,822C749.7,822,740.27,833,758.09,822Z"/>
              <path class="cls-57" d="M718.26,823.38s43-31,68.13-39.22-24.11-8.95-57.65,16.85C728.74,801,712,816.49,718.26,823.38Z"/>
              <path class="cls-57" d="M705.69,823.38s28.54-50.23,41.52-56.43-20.56-9.63-41.52,31.31C705.69,798.26,697.3,819.94,705.69,823.38Z"/>
              <path class="cls-57" d="M690.49,823.38s11-46.11,21.48-53S672.15,778,690.49,823.38Z"/>
              <path class="cls-57" d="M684.2,823.38s.52-38.41-22-44.32S675.29,804.11,684.2,823.38Z"/>
              <path class="cls-57" d="M676.86,823.38s-14.15-44-48.73-45.06S655.38,794.48,676.86,823.38Z"/>
              <path class="cls-57" d="M673.89,823.38s-18.51-17.89-49.95-16.52S666.21,817.87,673.89,823.38Z"/>
            </g>
            <g>
              <path class="cls-57" d="M734.1,89.42s7.09-7.81,20.77-9.74S740.18,69.43,730,89.42C730,89.42,725.48,98.3,734.1,89.42Z"/>
              <path class="cls-57" d="M714.84,90.53s20.78-25,32.93-31.66-11.65-7.22-27.86,13.61C719.91,72.48,711.8,85,714.84,90.53Z"/>
              <path class="cls-57" d="M708.76,90.53S722.56,50,728.84,45s-9.94-7.78-20.08,25.27C708.76,70.26,704.71,87.75,708.76,90.53Z"/>
              <path class="cls-57" d="M701.42,90.53s5.32-37.21,10.38-42.76S692.55,53.88,701.42,90.53Z"/>
              <path class="cls-57" d="M698.38,90.53s.25-31-10.64-35.77S694.07,75,698.38,90.53Z"/>
              <path class="cls-57" d="M694.83,90.53S688,55,671.28,54.16,684.45,67.2,694.83,90.53Z"/>
              <path class="cls-57" d="M693.4,90.53s-8.95-14.44-24.15-13.33S689.68,86.09,693.4,90.53Z"/>
            </g>
            <g>
              <path class="cls-57" d="M1343.44,68s7.1-7.81,20.78-9.73S1349.52,48,1339.39,68C1339.39,68,1334.83,76.87,1343.44,68Z"/>
              <path class="cls-57" d="M1324.19,69.09s20.77-25,32.93-31.65-11.65-7.22-27.86,13.61C1329.26,51.05,1321.15,63.54,1324.19,69.09Z"/>
              <path class="cls-57" d="M1318.11,69.09s13.8-40.54,20.07-45.54-9.93-7.77-20.07,25.27C1318.11,48.82,1314.06,66.32,1318.11,69.09Z"/>
              <path class="cls-57" d="M1310.77,69.09s5.32-37.21,10.38-42.76S1301.9,32.44,1310.77,69.09Z"/>
              <path class="cls-57" d="M1307.73,69.09s.25-31-10.64-35.77S1303.42,53.54,1307.73,69.09Z"/>
              <path class="cls-57" d="M1304.18,69.09s-6.84-35.52-23.56-36.36S1293.8,45.77,1304.18,69.09Z"/>
              <path class="cls-57" d="M1302.75,69.09s-9-14.43-24.15-13.32S1299,64.65,1302.75,69.09Z"/>
            </g>
            <g>
              <path class="cls-56" d="M1320.06,277.43s6.42-7.44,18.81-9.28-13.31-9.78-22.48,9.28C1316.39,277.43,1312.26,285.91,1320.06,277.43Z"/>
              <path class="cls-56" d="M1302.62,278.49s18.82-23.83,29.83-30.19-10.56-6.88-25.24,13C1307.21,261.28,1299.87,273.2,1302.62,278.49Z"/>
              <path class="cls-56" d="M1297.12,278.49s12.5-38.66,18.18-43.43-9-7.41-18.18,24.1C1297.12,259.16,1293.45,275.85,1297.12,278.49Z"/>
              <path class="cls-56" d="M1290.47,278.49s4.81-35.48,9.4-40.78S1282.44,243.54,1290.47,278.49Z"/>
              <path class="cls-56" d="M1287.71,278.49s.23-29.56-9.63-34.11S1283.81,263.66,1287.71,278.49Z"/>
              <path class="cls-56" d="M1284.5,278.49s-6.19-33.88-21.33-34.68S1275.09,256.25,1284.5,278.49Z"/>
              <path class="cls-56" d="M1283.2,278.49s-8.11-13.77-21.87-12.71S1279.84,274.26,1283.2,278.49Z"/>
            </g>
          </g>
          <g>
            <g>
              <path class="cls-57" d="M587.06,911.26s37.73-5.51,36.69-20.64S587.06,911.26,587.06,911.26Z"/>
              <path class="cls-57" d="M579.73,917.38s21-37.84,36.68-47.48-27.25-10.41-36.68,29.2Z"/>
              <path class="cls-57" d="M578.15,912.28s10.58-29.44-28.82-31C531.52,880.63,578.15,912.28,578.15,912.28Z"/>
            </g>
            <g>
              <path class="cls-56" d="M1442.42,410.38s8.58-9.15,25.13-11.41-17.78-12-30,11.41C1437.51,410.38,1432,420.78,1442.42,410.38Z"/>
              <path class="cls-56" d="M1419.12,411.68s25.13-29.27,39.85-37.07-14.1-8.46-33.72,15.93C1425.25,390.54,1415.45,405.17,1419.12,411.68Z"/>
              <path class="cls-56" d="M1411.77,411.68s16.69-47.48,24.28-53.33-12-9.11-24.28,29.59C1411.77,387.94,1406.87,408.43,1411.77,411.68Z"/>
              <path class="cls-56" d="M1402.88,411.68s6.44-43.58,12.57-50.08S1392.15,368.75,1402.88,411.68Z"/>
              <path class="cls-56" d="M1399.2,411.68s.31-36.31-12.87-41.89S1394,393.47,1399.2,411.68Z"/>
              <path class="cls-56" d="M1394.91,411.68s-8.27-41.6-28.5-42.59S1382.35,384.36,1394.91,411.68Z"/>
              <path class="cls-56" d="M1393.18,411.68s-10.83-16.91-29.22-15.61S1388.68,406.47,1393.18,411.68Z"/>
            </g>
            <g>
              <path class="cls-56" d="M1416.4,297.24s8.58-9.15,25.13-11.4-17.78-12-30,11.4C1411.49,297.24,1406,307.65,1416.4,297.24Z"/>
              <path class="cls-56" d="M1393.11,298.54s25.13-29.27,39.84-37.07-14.1-8.46-33.71,15.93C1399.24,277.4,1389.43,292,1393.11,298.54Z"/>
              <path class="cls-56" d="M1385.75,298.54s16.7-47.48,24.29-53.33-12-9.11-24.29,29.59C1385.75,274.8,1380.85,295.29,1385.75,298.54Z"/>
              <path class="cls-56" d="M1376.86,298.54s6.44-43.58,12.57-50.08S1366.14,255.62,1376.86,298.54Z"/>
              <path class="cls-56" d="M1373.19,298.54s.3-36.3-12.88-41.89S1368,280.33,1373.19,298.54Z"/>
              <path class="cls-56" d="M1368.9,298.54s-8.28-41.6-28.51-42.59S1356.33,271.22,1368.9,298.54Z"/>
              <path class="cls-56" d="M1367.16,298.54s-10.83-16.91-29.22-15.61S1362.66,293.34,1367.16,298.54Z"/>
            </g>
            <g>
              <path class="cls-56" d="M1601.91,298.54s8.58-9.15,25.13-11.4-17.78-12-30,11.4C1597,298.54,1591.49,309,1601.91,298.54Z"/>
              <path class="cls-56" d="M1578.62,299.84s25.13-29.27,39.84-37.07-14.1-8.46-33.71,15.93C1584.75,278.7,1574.94,293.34,1578.62,299.84Z"/>
              <path class="cls-56" d="M1571.26,299.84s16.7-47.48,24.29-53.33-12-9.11-24.29,29.59C1571.26,276.1,1566.36,296.59,1571.26,299.84Z"/>
              <path class="cls-56" d="M1562.37,299.84s6.44-43.57,12.57-50.08S1551.65,256.92,1562.37,299.84Z"/>
              <path class="cls-56" d="M1558.7,299.84s.3-36.3-12.88-41.89S1553.49,281.63,1558.7,299.84Z"/>
              <path class="cls-56" d="M1554.41,299.84s-8.28-41.6-28.51-42.59S1541.84,272.53,1554.41,299.84Z"/>
              <path class="cls-56" d="M1552.67,299.84s-10.83-16.91-29.22-15.61S1548.17,294.64,1552.67,299.84Z"/>
            </g>
            <g>
              <path class="cls-56" d="M449,167.15s8.59-9.15,25.13-11.4-17.77-12-30,11.4C444.09,167.15,438.57,177.56,449,167.15Z"/>
              <path class="cls-56" d="M425.7,168.45s25.13-29.27,39.84-37.07-14.09-8.46-33.71,15.93C431.83,147.31,422,162,425.7,168.45Z"/>
              <path class="cls-56" d="M418.35,168.45S435,121,442.63,115.12s-12-9.11-24.28,29.59C418.35,144.71,413.44,165.2,418.35,168.45Z"/>
              <path class="cls-56" d="M409.46,168.45s6.44-43.58,12.56-50.08S398.73,125.52,409.46,168.45Z"/>
              <path class="cls-56" d="M405.78,168.45s.31-36.3-12.87-41.89S400.57,150.24,405.78,168.45Z"/>
              <path class="cls-56" d="M401.49,168.45s-8.27-41.6-28.5-42.59S388.93,141.13,401.49,168.45Z"/>
              <path class="cls-56" d="M399.75,168.45s-10.82-16.91-29.21-15.61S395.26,163.25,399.75,168.45Z"/>
            </g>
            <g>
              <path class="cls-56" d="M389.61,777.45s8.58-9.15,25.13-11.4-17.78-12-30,11.4C384.71,777.45,379.19,787.86,389.61,777.45Z"/>
              <path class="cls-56" d="M366.32,778.75s25.13-29.27,39.84-37.07-14.1-8.46-33.71,15.93C372.45,757.61,362.64,772.25,366.32,778.75Z"/>
              <path class="cls-56" d="M359,778.75s16.7-47.48,24.29-53.33-12-9.11-24.29,29.59C359,755,354.06,775.5,359,778.75Z"/>
              <path class="cls-56" d="M350.07,778.75s6.44-43.58,12.57-50.08S339.35,735.83,350.07,778.75Z"/>
              <path class="cls-56" d="M346.4,778.75s.3-36.3-12.88-41.89S341.19,760.54,346.4,778.75Z"/>
              <path class="cls-56" d="M342.11,778.75s-8.28-41.6-28.51-42.59S329.54,751.43,342.11,778.75Z"/>
              <path class="cls-56" d="M340.37,778.75s-10.83-16.91-29.22-15.61S335.87,773.55,340.37,778.75Z"/>
            </g>
            <g>
              <path class="cls-56" d="M516.22,803.1s8.58-9.15,25.13-11.41-17.78-12-30,11.41C511.31,803.1,505.8,813.5,516.22,803.1Z"/>
              <path class="cls-56" d="M492.92,804.4s25.14-29.27,39.85-37.08-14.1-8.45-33.72,15.94C499.05,783.26,489.25,797.89,492.92,804.4Z"/>
              <path class="cls-56" d="M485.57,804.4s16.7-47.48,24.28-53.34-12-9.1-24.28,29.6C485.57,780.66,480.67,801.14,485.57,804.4Z"/>
              <path class="cls-56" d="M476.68,804.4s6.44-43.58,12.57-50.08S466,761.47,476.68,804.4Z"/>
              <path class="cls-56" d="M473,804.4s.31-36.31-12.87-41.9S467.79,786.19,473,804.4Z"/>
              <path class="cls-56" d="M468.71,804.4s-8.27-41.61-28.5-42.59S456.15,777.08,468.71,804.4Z"/>
              <path class="cls-56" d="M467,804.4s-10.83-16.91-29.22-15.61S462.48,799.19,467,804.4Z"/>
            </g>
            <g>
              <path class="cls-56" d="M1484.14,805.9s8.58-9.14,25.13-11.4-17.77-12-30,11.4C1479.24,805.9,1473.72,816.31,1484.14,805.9Z"/>
              <path class="cls-56" d="M1460.85,807.21s25.13-29.27,39.84-37.08-14.1-8.45-33.71,15.94C1467,786.07,1457.17,800.7,1460.85,807.21Z"/>
              <path class="cls-56" d="M1453.5,807.21s16.69-47.48,24.28-53.34-12-9.1-24.28,29.6C1453.5,783.47,1448.59,804,1453.5,807.21Z"/>
              <path class="cls-56" d="M1444.61,807.21s6.43-43.58,12.56-50.08S1433.88,764.28,1444.61,807.21Z"/>
              <path class="cls-56" d="M1440.93,807.21s.31-36.31-12.87-41.9S1435.72,789,1440.93,807.21Z"/>
              <path class="cls-56" d="M1436.64,807.21s-8.27-41.61-28.5-42.59S1424.07,779.89,1436.64,807.21Z"/>
              <path class="cls-56" d="M1434.9,807.21s-10.83-16.91-29.21-15.61S1430.41,802,1434.9,807.21Z"/>
            </g>
            <g>
              <path class="cls-56" d="M381,271.32s8.58-8.14,25.13-10.15-17.78-10.68-30,10.15C376.08,271.32,370.56,280.57,381,271.32Z"/>
              <path class="cls-56" d="M357.69,272.47s25.13-26,39.84-33-14.1-7.53-33.71,14.17C363.82,253.67,354,266.69,357.69,272.47Z"/>
              <path class="cls-56" d="M350.33,272.47S367,230.24,374.62,225s-12-8.1-24.29,26.33C350.33,251.36,345.43,269.58,350.33,272.47Z"/>
              <path class="cls-56" d="M341.44,272.47s6.44-38.76,12.57-44.55S330.72,234.29,341.44,272.47Z"/>
              <path class="cls-56" d="M337.77,272.47s.3-32.29-12.88-37.26S332.56,256.27,337.77,272.47Z"/>
              <path class="cls-56" d="M333.48,272.47s-8.28-37-28.51-37.88S320.91,248.17,333.48,272.47Z"/>
              <path class="cls-56" d="M331.74,272.47s-10.83-15-29.22-13.88S327.24,267.84,331.74,272.47Z"/>
            </g>
            <g>
              <path class="cls-56" d="M484,339.07s8.58-8.14,25.13-10.14-17.77-10.69-30,10.14C479.1,339.07,473.58,348.33,484,339.07Z"/>
              <path class="cls-56" d="M460.71,340.23s25.13-26,39.84-33-14.1-7.52-33.71,14.17C466.84,321.42,457,334.44,460.71,340.23Z"/>
              <path class="cls-56" d="M453.35,340.23s16.7-42.24,24.29-47.44-12-8.1-24.29,26.32C453.35,319.11,448.45,337.33,453.35,340.23Z"/>
              <path class="cls-56" d="M444.47,340.23s6.43-38.77,12.56-44.55S433.74,302,444.47,340.23Z"/>
              <path class="cls-56" d="M440.79,340.23s.3-32.3-12.87-37.27S435.58,324,440.79,340.23Z"/>
              <path class="cls-56" d="M436.5,340.23s-8.28-37-28.5-37.89S423.93,315.93,436.5,340.23Z"/>
              <path class="cls-56" d="M434.76,340.23s-10.83-15-29.22-13.89S430.27,335.6,434.76,340.23Z"/>
            </g>
            <g>
              <path class="cls-56" d="M632.14,175.56s8.58-8.13,25.13-10.14-17.78-10.69-30,10.14C627.23,175.56,621.72,184.82,632.14,175.56Z"/>
              <path class="cls-56" d="M608.84,176.72s25.14-26,39.85-33-14.1-7.52-33.72,14.18C615,157.92,605.17,170.93,608.84,176.72Z"/>
              <path class="cls-56" d="M601.49,176.72s16.7-42.24,24.28-47.44-12-8.1-24.28,26.32C601.49,155.6,596.59,173.83,601.49,176.72Z"/>
              <path class="cls-56" d="M592.6,176.72S599,138,605.17,132.17,581.88,138.53,592.6,176.72Z"/>
              <path class="cls-56" d="M588.92,176.72s.31-32.3-12.87-37.27S583.71,160.52,588.92,176.72Z"/>
              <path class="cls-56" d="M584.63,176.72s-8.27-37-28.5-37.89S572.07,152.42,584.63,176.72Z"/>
              <path class="cls-56" d="M582.9,176.72s-10.83-15-29.22-13.89S578.4,172.09,582.9,176.72Z"/>
            </g>
            <g>
              <path class="cls-56" d="M456.66,599.16S465.25,591,481.8,589s-17.78-10.68-30,10.15C451.76,599.16,446.24,608.41,456.66,599.16Z"/>
              <path class="cls-56" d="M433.37,600.31s25.13-26,39.84-33-14.09-7.52-33.71,14.17C439.5,581.51,429.7,594.53,433.37,600.31Z"/>
              <path class="cls-56" d="M426,600.31s16.69-42.23,24.28-47.44-12-8.1-24.28,26.33C426,579.2,421.11,597.42,426,600.31Z"/>
              <path class="cls-56" d="M417.13,600.31s6.44-38.76,12.57-44.54S406.4,562.13,417.13,600.31Z"/>
              <path class="cls-56" d="M413.45,600.31s.31-32.29-12.87-37.26S408.24,584.12,413.45,600.31Z"/>
              <path class="cls-56" d="M409.16,600.31s-8.27-37-28.5-37.88S396.6,576,409.16,600.31Z"/>
              <path class="cls-56" d="M407.43,600.31s-10.83-15-29.22-13.88S402.93,595.69,407.43,600.31Z"/>
            </g>
            <g>
              <path class="cls-57" d="M376.5,686.54s7.09-7.81,20.77-9.74-14.69-10.26-24.82,9.74C372.45,686.54,367.89,695.42,376.5,686.54Z"/>
              <path class="cls-57" d="M357.25,687.65s20.77-25,32.93-31.66-11.65-7.22-27.86,13.61C362.32,669.6,354.21,682.09,357.25,687.65Z"/>
              <path class="cls-57" d="M351.17,687.65s13.8-40.54,20.07-45.54-9.94-7.78-20.07,25.27C351.17,667.38,347.12,684.87,351.17,687.65Z"/>
              <path class="cls-57" d="M343.83,687.65s5.31-37.21,10.38-42.77S335,651,343.83,687.65Z"/>
              <path class="cls-57" d="M340.79,687.65s.25-31-10.64-35.77S336.48,672.1,340.79,687.65Z"/>
              <path class="cls-57" d="M337.24,687.65s-6.84-35.53-23.56-36.37S326.85,664.32,337.24,687.65Z"/>
              <path class="cls-57" d="M335.8,687.65s-8.95-14.44-24.15-13.33S332.09,683.21,335.8,687.65Z"/>
            </g>
            <g>
              <path class="cls-57" d="M995.1,154.74s7.09-7.81,20.77-9.73-14.69-10.26-24.82,9.73C991.05,154.74,986.49,163.63,995.1,154.74Z"/>
              <path class="cls-57" d="M975.85,155.86s20.77-25,32.93-31.66-11.66-7.22-27.87,13.61C980.91,137.81,972.81,150.3,975.85,155.86Z"/>
              <path class="cls-57" d="M969.77,155.86s13.8-40.55,20.07-45.54-9.94-7.78-20.07,25.26C969.77,135.58,965.71,153.08,969.77,155.86Z"/>
              <path class="cls-57" d="M962.42,155.86s5.32-37.21,10.39-42.77S953.56,119.2,962.42,155.86Z"/>
              <path class="cls-57" d="M959.38,155.86s.25-31-10.64-35.78S955.08,140.31,959.38,155.86Z"/>
              <path class="cls-57" d="M955.84,155.86s-6.84-35.53-23.56-36.37S945.45,132.53,955.84,155.86Z"/>
              <path class="cls-57" d="M954.4,155.86s-8.95-14.44-24.15-13.33S950.68,151.41,954.4,155.86Z"/>
            </g>
            <g>
              <path class="cls-56" d="M759.34,343.12a17.6,17.6,0,0,1,10.27-5.07c6.77-1-7.27-5.34-12.28,5.07C757.33,343.12,755.08,347.75,759.34,343.12Z"/>
              <path class="cls-56" d="M749.81,343.7s10.28-13,16.29-16.49-5.76-3.76-13.78,7.09C752.32,334.3,748.31,340.81,749.81,343.7Z"/>
              <path class="cls-56" d="M746.81,343.7s6.82-21.12,9.92-23.72-4.91-4.05-9.92,13.16C746.81,333.14,744.8,342.25,746.81,343.7Z"/>
              <path class="cls-56" d="M743.17,343.7s2.63-19.38,5.14-22.28S738.79,324.61,743.17,343.7Z"/>
              <path class="cls-56" d="M741.67,343.7s.12-16.15-5.26-18.63S739.54,335.6,741.67,343.7Z"/>
              <path class="cls-56" d="M739.91,343.7s-3.38-18.5-11.65-18.94S734.78,331.55,739.91,343.7Z"/>
              <path class="cls-56" d="M739.2,343.7s-4.42-7.52-11.94-6.94S737.37,341.39,739.2,343.7Z"/>
            </g>
            <g>
              <path class="cls-56" d="M355.41,358.53s20.48-17.71,24.64-20.87c5.1-3.88-4.51-9.85-19.68,3.7C360.37,341.36,351.07,351.2,355.41,358.53Z"/>
              <path class="cls-56" d="M345.61,357.17s-4.49-16.95-27.49-17S345.61,357.17,345.61,357.17Z"/>
              <path class="cls-56" d="M351.92,359.77s6.36-37.6,16.4-47.73c8.61-8.67-10-11.52-20.05,9.42S351.92,359.77,351.92,359.77Z"/>
            </g>
          </g>
          <path class="cls-30" d="M264.72,293.57S225.53,37.93,503.84,84.85s363-7.21,404.94-29.15,285.26-61.64,420,28.13,330.47-20.42,330.47-20.42L1751.6,174,1763.49-9.1-26.4-20.4-63.17,326.83Z"/>
          <path class="cls-55" d="M-28.45,263.51S140,3.15,335.72,17.44,741.15,42.59,776,16.75,1165.42-9.1,1165.42-9.1L-57-20.4Z"/>
          <path class="cls-55" d="M1295.49-9.1c72.4,0,288,9.3,421.76,164.79,16.35,19,198.41,151.81,213.11,178.29C1930,256.4,1946,68.4,1945.68-9.17Z"/>
          <path class="cls-55" d="M-12.39,181.08S121.2,285.68-9.3,650.18Z"/>
          <path class="cls-5" d="M1355.51,519.41s-69.25,31.24-18,47.59,14.63,38.15,27.43,40,36.79,26.85,63.2,7.07,71-118.06,21.7-101.22S1355.51,519.41,1355.51,519.41Z"/>
          <path class="cls-5" d="M1412.78,627.41s-69.25,42.26-18,64.37,14.63,51.59,27.43,54,36.79,36.31,63.2,9.56,71-159.67,21.7-136.89S1412.78,627.41,1412.78,627.41Z"/>
        </g>
      </g>
    </g>
  </g>
</svg>
