<svg xmlns="http://www.w3.org/2000/svg" xmlns:xlink="http://www.w3.org/1999/xlink" width="1600" height="900" viewBox="0 0 1600 900">
  <defs>
    <style>
      .cls-1 {
        fill: #fff;
      }

      .cls-2 {
        fill: none;
      }

      .cls-3 {
        isolation: isolate;
      }

      .cls-4 {
        clip-path: url(#clip-path);
      }

      .cls-5 {
        clip-path: url(#clip-path-2);
      }

      .cls-6 {
        clip-path: url(#clip-path-3);
      }

      .cls-7 {
        fill: url(#linear-gradient);
      }

      .cls-8 {
        clip-path: url(#clip-path-4);
      }

      .cls-9 {
        clip-path: url(#clip-path-5);
      }

      .cls-10 {
        fill: url(#linear-gradient-2);
      }

      .cls-11 {
        fill: #6cbd46;
      }

      .cls-12 {
        fill: url(#linear-gradient-3);
      }

      .cls-13 {
        fill: url(#linear-gradient-4);
      }

      .cls-14 {
        fill: url(#linear-gradient-5);
      }

      .cls-15 {
        fill: url(#linear-gradient-6);
      }

      .cls-16 {
        fill: url(#linear-gradient-7);
      }

      .cls-17 {
        clip-path: url(#clip-path-6);
      }

      .cls-18 {
        clip-path: url(#clip-path-7);
      }

      .cls-19 {
        fill: #36bf36;
      }

      .cls-20 {
        fill: #f7c872;
      }

      .cls-21 {
        fill: #bc7646;
      }

      .cls-22 {
        fill: #6d3521;
      }

      .cls-23 {
        fill: #8c5631;
      }

      .cls-24 {
        fill: #7f4837;
      }

      .cls-25 {
        fill: #308c1f;
      }

      .cls-26 {
        fill: #d1b09e;
      }

      .cls-27 {
        fill: #c4a594;
      }

      .cls-28 {
        fill: #816e62;
      }

      .cls-29 {
        fill: #706054;
      }

      .cls-30 {
        fill: #917b6d;
      }

      .cls-31 {
        fill: #a18778;
      }

      .cls-32 {
        fill: #e0bdaa;
      }

      .cls-33 {
        fill: #938d7a;
      }

      .cls-34 {
        fill: #3f3a24;
      }

      .cls-35 {
        mask: url(#mask);
      }

      .cls-36 {
        mix-blend-mode: multiply;
      }

      .cls-36, .cls-38 {
        opacity: 0.49;
      }

      .cls-37 {
        fill: #6d6651;
      }

      .cls-38, .cls-39 {
        fill: #ccc5b4;
      }

      .cls-40 {
        fill: #33a033;
      }

      .cls-41 {
        fill: #579131;
      }

      .cls-42 {
        fill: #1c6a00;
        opacity: 0.3;
      }

      .cls-43 {
        fill: #2c932c;
      }

      .cls-44 {
        fill: #b09484;
      }

      .cls-45 {
        fill: #297a18;
      }
    </style>
    <clipPath id="clip-path">
      <rect class="cls-2" x="2650" width="800" height="900"/>
    </clipPath>
    <clipPath id="clip-path-2">
      <rect class="cls-2" x="1870" width="1600" height="900"/>
    </clipPath>
    <clipPath id="clip-path-3">
      <path class="cls-2" d="M3088.6,568.6l-12.93,107.52-1597.93-1.67,21.53-105.85c141-44,364.6-58.62,600.09-58.61,470.89,0,989.24,58.61,989.24,58.61"/>
    </clipPath>
    <linearGradient id="linear-gradient" x1="3697.53" y1="-825.47" x2="3698.91" y2="-825.47" gradientTransform="translate(4326429.59 -964584.2) rotate(180) scale(1169.25)" gradientUnits="userSpaceOnUse">
      <stop offset="0" stop-color="#30b14b"/>
      <stop offset="0.2" stop-color="#2fad4a"/>
      <stop offset="0.4" stop-color="#2ea148"/>
      <stop offset="0.56" stop-color="#2c9245"/>
      <stop offset="1" stop-color="#68bc46"/>
    </linearGradient>
    <clipPath id="clip-path-4">
      <rect class="cls-2" x="1850" width="800" height="900"/>
    </clipPath>
    <clipPath id="clip-path-5">
      <rect class="cls-2" x="1770" width="1600" height="900"/>
    </clipPath>
    <linearGradient id="linear-gradient-2" x1="1729.41" y1="675.09" x2="1888.16" y2="21.48" gradientUnits="userSpaceOnUse">
      <stop offset="0" stop-color="#694722"/>
      <stop offset="0.55" stop-color="#4f4030"/>
    </linearGradient>
    <linearGradient id="linear-gradient-3" x1="1744.77" y1="140.97" x2="2185.19" y2="-352.81" gradientTransform="matrix(1.08, 0, 0, 1.06, -307.42, 78.31)" gradientUnits="userSpaceOnUse">
      <stop offset="0" stop-color="#0d5f3f"/>
      <stop offset="0.27" stop-color="#157d66"/>
      <stop offset="0.43" stop-color="#198a77"/>
      <stop offset="0.76" stop-color="#1ca989"/>
    </linearGradient>
    <linearGradient id="linear-gradient-4" x1="1449.83" y1="306.66" x2="1655.12" y2="50.63" gradientUnits="userSpaceOnUse">
      <stop offset="0" stop-color="#0d5f3f"/>
      <stop offset="0.33" stop-color="#0b7251"/>
      <stop offset="0.33" stop-color="#0b7251"/>
      <stop offset="0.43" stop-color="#087353"/>
      <stop offset="0.76" stop-color="#017458"/>
    </linearGradient>
    <linearGradient id="linear-gradient-5" x1="1449.83" y1="309.48" x2="1655.12" y2="53.46" gradientUnits="userSpaceOnUse">
      <stop offset="0.03" stop-color="#106a56"/>
      <stop offset="0.42" stop-color="#116e59"/>
      <stop offset="0.62" stop-color="#0d745b"/>
      <stop offset="0.75" stop-color="#077b5e"/>
    </linearGradient>
    <linearGradient id="linear-gradient-6" x1="1465.81" y1="43.6" x2="2287.03" y2="43.6" gradientUnits="userSpaceOnUse">
      <stop offset="0.09" stop-color="#106e5b"/>
      <stop offset="0.3" stop-color="#0e8168"/>
      <stop offset="0.4" stop-color="#0d8c6f"/>
      <stop offset="0.5" stop-color="#139673"/>
      <stop offset="0.67" stop-color="#22b27d"/>
      <stop offset="0.68" stop-color="#23b37e"/>
    </linearGradient>
    <linearGradient id="linear-gradient-7" x1="1404.75" y1="81.55" x2="2378.1" y2="14.2" gradientUnits="userSpaceOnUse">
      <stop offset="0.21" stop-color="#0b6848"/>
      <stop offset="0.36" stop-color="#127b57"/>
      <stop offset="0.55" stop-color="#1c986d"/>
      <stop offset="0.6" stop-color="#279e6e"/>
      <stop offset="0.7" stop-color="#44ad71"/>
      <stop offset="0.8" stop-color="#66be75"/>
    </linearGradient>
    <clipPath id="clip-path-6">
      <rect class="cls-2" x="1850" y="1150" width="800" height="900"/>
    </clipPath>
    <clipPath id="clip-path-7">
      <rect class="cls-2" x="1346.36" y="1150" width="1600" height="900"/>
    </clipPath>
    <mask id="mask" x="883.01" y="569.11" width="496.04" height="69.97" maskUnits="userSpaceOnUse">
      <path class="cls-1" d="M1300.93,607.48s3.94-23.68,11.4-21.05,31.57,20.17,33.33,24.12,11,1.75,13.15,1.32,19.3-7.9,20.17-13.16-7,18.86-7,18.86S1361,632,1350,632s-33.33-12.72-39.9-15.79A20.06,20.06,0,0,1,1300.93,607.48Z"/>
      <path class="cls-1" d="M1241.73,618.44s3.07-7.89,7.89-6.14,23.24,4.83,32.45.88,4.83,2.63,3.07,4.39-9.65,7-20.17,7.89-25-7.45-25-7.45Z"/>
      <path class="cls-1" d="M883,621.51s5.27-18.42,12.72-18.42S911.08,618,919,618s12.28-.44,12.72-5.26,19.3-4.38,22.36-.44a13.64,13.64,0,0,0-12.27.44c-6.58,3.51-3.07,7.46,3.07,7.46s13.59,1.75,16.22-3.07-1.75,9.65-5.26,13.59-37.28,8.77-48.68,8.33S883,621.51,883,621.51Z"/>
    </mask>
  </defs>
  <g class="cls-3">
    <g id="Layer_1" data-name="Layer 1">
      <g>
        <g id="SC_06">
          <g class="cls-4">
            <g class="cls-5">
              <g class="cls-6">
                <rect class="cls-7" x="1477.68" y="509.78" width="1610.51" height="166.34"/>
              </g>
            </g>
          </g>
        </g>
        <g id="SC_05">
          <g class="cls-8">
            <g class="cls-9">
              <g>
                <path class="cls-10" d="M1755.39,206.6s41.28,26.9,40.49,66c-.14,6.87.39,27.88-13.55,37.05-9.7,6.39-21.44,3.85-23.22,3.44-21.89-5.07-34.94-32.06-47.71-58.49-10.45-21.62-15.24-38.49-27.65-40.36-1.49-.22-6.31-.95-9.29,1.89-9.24,8.81,6.72,45.14,24.63,70.8,14.05,20.13,26.25,29.32,23.09,41.55-2.46,9.51-12.52,14.34-13.48,14.78-8,3.73-17,2.51-29.62-2.47A146,146,0,0,1,1631,309.23c-31.35-32.4-56.43-67-71.94-90L1548.26,230l20,33.86c-2.54-4.22-14.25-22.68-36.94-27.7a54.21,54.21,0,0,0-23.09,0c11.8,4.52,28.83,12.95,43.1,29.24,15.58,17.79,16.31,31.75,32.32,56.95,11.92,18.76,26.23,34.18,36.94,43.09,37.2,31,87.25,30.16,112.35,27.7,10.47,1.28,24.47,4.84,35.4,15.4,4.68,4.51,22.2,23.38,11,98.62,0,0-6.28,42-38.56,136l172.39.82c21,7.44,60.11,19.19,71.33,4.39,5.64-7.44,2.14-18.81.56-24-19.41-63.56-34-112.17-40-152-3.77-25.36-4-47.13.3-66.92,1.48-6.82,12.81-55.87,47.71-69.26,19.25-7.39,28.08,2.85,55.41,0,53.15-5.55,87.87-51.41,90.8-55.41,27.06-36.8,34.85-89.78,34.85-89.78l-22.93,3.34c-1.06,9.29-7.46,58.28-44.24,77.2-4.36,2.25-24.46,12.59-36.77,4.18-17.31-11.83-6.69-52-4.75-55.74,7.41-14.38,24.7-41.79,24.7-41.79l-57.05,7.16c2.69,34.71-9.5,65.23-32.79,78-3.1,1.7-20.87,11.43-35,4.17-17.08-8.78-24.36-40.12-11-76.5l-21-7.66S1920.4,305,1901.14,317.51c-33.35,21.66-58.05-52.06-49.4-126.51H1827s16.06,81.41-3.7,52.33c-7.07-10.4-19.87-22.93-39.53-36.73"/>
                <path class="cls-11" d="M1960.49-118.37C2135.82-65.81,2153.24-3,2149.66,25.83c0,0,.37,49.29-180.65,99.06h0s-106.15,40.74-302.24,19.37c-59.5-6.49-157.66-32.24-171.23-89.79-10-42.34,30.85-85.47,45.62-101.06C1661.51-173.67,1901.5-130.39,1960.49-118.37Z"/>
                <path class="cls-12" d="M1939.55-136C2129.92-80,2149-13.63,2145.23,16.72c0,0,.56,52-195.65,103.89h0s-115,42.62-327.8,19.44c-64.57-7-171.14-34.51-186-95.24-11-44.69,33.19-90,49.16-106.43C1615-195.26,1875.52-148.83,1939.55-136Z"/>
                <path class="cls-13" d="M1386.69,187.1s-9.14-39.14,32.88-73.16c23.7-19.18,97.15-71.09,176.22-17.8,90.75,61.16,188.88,129.49,51.38,135.29S1401,238.63,1386.69,187.1Z"/>
                <path class="cls-14" d="M1386.69,189.93s-9.14-39.15,32.88-73.16c23.7-19.19,97.15-71.09,176.22-17.8,90.75,61.16,188.88,129.49,51.38,135.29S1401,241.46,1386.69,189.93Z"/>
                <path class="cls-15" d="M1667.29,207.29c23.44,3.28,27.38,2,118.68,1.94,19.42,0,102,0,268.06-5.26,69.84-2.19,175-18.14,203.67-31.33,9.56-4.4,28.62-15,29.3-43.88,1.55-65.92-56.14-103.86-74.32-122.33-17-17.24-59.87-38.09-71.26-42.69-138.72-56-251.48-73.07-251.48-73.07-27-6.21-239.61-51.91-360.85,75.74-11.15,11.73-79.69,83.08-59.62,145C1492.58,182.81,1619.85,200.64,1667.29,207.29Z"/>
                <path class="cls-16" d="M1663.51,213.51c23.44,3.28,27.39,2,118.68,1.94,19.42,0,102,0,268.06-5.26,69.84-2.19,175-18.14,203.67-31.33,9.56-4.4,28.62-15,29.3-43.88,1.56-65.92-56.14-103.86-74.32-122.33-17-17.24-59.87-38.09-71.26-42.69-138.72-56-251.48-73.07-251.48-73.07-27-6.21-239.61-51.91-360.85,75.74-11.14,11.73-79.69,83.08-59.62,145C1488.8,189,1616.07,206.86,1663.51,213.51Z"/>
              </g>
            </g>
          </g>
        </g>
      </g>
      <g>
        <rect class="cls-19" width="1600" height="900"/>
        <g>
          <path class="cls-20" d="M548,230.57h527c1.44,17.58,7.57,75.42,9,93,11.49,141,33.83,275,45,416H471Z"/>
          <path class="cls-21" d="M554.84,551.61c27.57.08,69.49.14,120.66,0,123.65-.32,189.4-1.49,189.5,1s-69.41,7.71-74.56,8.09c-43.75,3.26-76.72,3.93-76.64,6.36,0,1,3.33,1.87,11.2,2.62,41,3.93,163-1.93,190.48,0s132.48,15.1,2,17.51-338-1.65-247.73,8.38,254.63,1,284.44,7,213.9,17.55,71.85,30.77-485.61,11.42-429.83,16.32,418.79-9,342.29,11.47S533.23,686,520.12,680.77s-29-18,13-31.11S579,633.57,627,625.57s100.83-17-11.59-20-168.18-10.84-81.29-18.43c74.22-6.48,160.21-14.51,160-18-.06-.86-6.73-1.3-8.12-1.39C662.06,566.14,622.73,561.75,554.84,551.61Z"/>
          <g>
            <g>
              <rect class="cls-22" x="773.96" y="171.24" width="283.04" height="9.66"/>
              <rect class="cls-22" x="773.96" y="171.24" width="283.04" height="1.93"/>
              <rect class="cls-22" x="773.96" y="173.17" width="283.04" height="5.8"/>
              <rect class="cls-22" x="773.96" y="200.01" width="283.04" height="9.66"/>
              <rect class="cls-22" x="773.96" y="200.01" width="283.04" height="1.93"/>
              <rect class="cls-22" x="773.96" y="201.94" width="283.04" height="5.8"/>
              <rect class="cls-22" x="777.96" y="228.7" width="279.04" height="9.81"/>
              <rect class="cls-22" x="777.96" y="228.7" width="279.04" height="1.96"/>
              <rect class="cls-22" x="777.96" y="230.66" width="279.04" height="5.89"/>
              <rect class="cls-22" x="952.47" y="164.59" width="15.46" height="81.45"/>
              <polygon class="cls-22" points="966.21 166.55 952.47 246.04 952.47 164.59 967.93 164.59 966.21 166.55"/>
              <polygon class="cls-22" points="954.19 246.04 952.47 246.04 952.47 164.59 954.19 166.55 954.19 246.04"/>
              <rect class="cls-22" x="954.19" y="166.55" width="12.02" height="79.49"/>
              <rect class="cls-22" x="854.13" y="163.91" width="15.46" height="81.45"/>
              <polygon class="cls-22" points="867.87 165.88 854.13 245.37 854.13 163.91 869.59 163.91 867.87 165.88"/>
              <polygon class="cls-22" points="855.85 245.37 854.13 245.37 854.13 163.91 855.85 165.88 855.85 245.37"/>
              <rect class="cls-22" x="855.84" y="165.88" width="12.02" height="79.49"/>
              <rect class="cls-22" x="1039.55" y="164.59" width="15.46" height="81.45"/>
              <polygon class="cls-22" points="1053.29 166.55 1039.55 246.04 1039.55 164.59 1055.01 164.59 1053.29 166.55"/>
              <polygon class="cls-22" points="1041.27 246.04 1039.55 246.04 1039.55 164.59 1041.27 166.55 1041.27 246.04"/>
              <rect class="cls-22" x="1041.27" y="166.55" width="12.02" height="79.49"/>
            </g>
            <g>
              <rect class="cls-22" x="561.72" y="170.67" width="216.05" height="10.14"/>
              <rect class="cls-22" x="561.72" y="170.67" width="216.05" height="2.03"/>
              <rect class="cls-22" x="561.72" y="172.7" width="216.05" height="6.08"/>
              <rect class="cls-22" x="561.72" y="199.73" width="216.05" height="10.14"/>
              <rect class="cls-22" x="561.72" y="199.73" width="216.05" height="2.03"/>
              <rect class="cls-22" x="561.72" y="201.76" width="216.05" height="6.08"/>
              <rect class="cls-22" x="561.72" y="228.8" width="216.05" height="10.14"/>
              <rect class="cls-22" x="561.72" y="228.8" width="216.05" height="2.03"/>
              <rect class="cls-22" x="561.72" y="230.82" width="216.05" height="6.08"/>
              <rect class="cls-22" x="564.49" y="162.57" width="14.75" height="84.14"/>
              <polygon class="cls-22" points="577.6 164.6 564.5 246.71 564.5 162.57 579.24 162.57 577.6 164.6"/>
              <polygon class="cls-22" points="566.13 246.71 564.5 246.71 564.5 162.57 566.13 164.6 566.13 246.71"/>
              <rect class="cls-22" x="566.13" y="164.6" width="11.47" height="82.12"/>
              <rect class="cls-22" x="662.81" y="162.57" width="14.75" height="84.14"/>
              <polygon class="cls-22" points="675.92 164.6 662.81 246.71 662.81 162.57 677.56 162.57 675.92 164.6"/>
              <polygon class="cls-22" points="664.45 246.71 662.81 246.71 662.81 162.57 664.45 164.6 664.45 246.71"/>
              <rect class="cls-22" x="664.45" y="164.6" width="11.47" height="82.12"/>
              <rect class="cls-22" x="761.13" y="162.57" width="14.75" height="84.14"/>
              <polygon class="cls-22" points="774.24 164.6 761.13 246.71 761.13 162.57 775.87 162.57 774.24 164.6"/>
              <polygon class="cls-22" points="762.76 246.71 761.13 246.71 761.13 162.57 762.76 164.6 762.76 246.71"/>
              <rect class="cls-22" x="762.76" y="164.6" width="11.47" height="82.12"/>
            </g>
          </g>
          <path class="cls-23" d="M576.83,289.37l3.43-21.3-2-105.83-5.3.19-.07-2-.38,2-4.43.16-6.19,10.95L563.33,211l-6.25,33-4.53.16-4.16,12,1.05,28.11-8.53,45.07-7.22.26L528.61,348l1.46,38.53-7.9,41.66-5.1.18-4.77,16.37,1.11,29.69-9.26,48.88-1.81.06-5.56,17.09.68,18.16-10.42,55,.7,19.65,10.43-56.13.88,23.32-9.12,48.11.7,19.66,9.12-49.1.38,10.08L491,677.66l.7,19.65,9.17-49.37.33,8.74,9.86-.36,5.4-26.59-2-55.15L517,561l8.21-.29v0l3.94-21.32L528.69,498,535,464.15l7.89-.28,4-20.32-.56-40.34,6.33-34.12.13,3.28,8.54-.31,3-15.85-.95-44.95,4-21.55Zm-13-65.64,1.11,29.12-2.51,13.21L562,243.82l-1.88.07ZM550,298.27l1,28-5.41,28.54-.36-25.56-1,0Zm-19.31,104,1,26.21L528.14,447l-.21-19-2.07.08Zm-16.6,89.39L515,516.4,512.8,528l-.18-4.9-4.43.15Zm-.63,53.94,2.21-11.9.43,11.5L513.83,557Zm14.91-80.28,3.91-21.06.49,13-4.25,22.4Zm17.72-78.42-.22-15.82,5.7-30.73L552.1,355ZM562.71,280.2l2.69-14.51.61,15.88-2.94,15.52Z"/>
          <g>
            <polygon class="cls-24" points="1060.08 172.24 1102.41 603.6 1100 621.89 1058.6 183.41 1060.08 172.24"/>
            <polygon class="cls-24" points="1054.2 204.62 1096.53 635.98 1094.12 654.27 1052.72 215.79 1054.2 204.62"/>
            <polygon class="cls-24" points="1053 215.57 1097.63 661.71 1095.55 680.77 1051.72 227.21 1053 215.57"/>
            <polygon class="cls-24" points="1071.4 263.08 1061.09 262.53 1057.14 371.55 1065.38 371.99 1071.4 263.08"/>
            <polygon class="cls-24" points="1083.33 350.82 1071.44 349.97 1065.8 458.92 1075.3 459.61 1083.33 350.82"/>
            <polygon class="cls-24" points="1089.44 442.77 1079.13 442.12 1074.13 551.09 1082.37 551.61 1089.44 442.77"/>
            <polygon class="cls-24" points="1101.84 541.58 1089.96 540.72 1084.25 649.66 1093.75 650.35 1101.84 541.58"/>
            <polygon class="cls-24" points="1071.44 349.97 1067.89 332.57 1062.61 439.73 1065.8 458.92 1071.44 349.97"/>
            <polygon class="cls-24" points="1067.89 332.57 1079.03 333.37 1083.33 350.82 1071.44 349.97 1067.89 332.57"/>
            <polygon class="cls-24" points="1061.09 262.53 1058.51 251.24 1054.47 356.63 1057.14 371.55 1061.09 262.53"/>
            <polygon class="cls-24" points="1061.09 262.53 1058.51 251.24 1067.57 251.73 1071.4 263.08 1061.09 262.53"/>
            <polygon class="cls-24" points="1061.38 178.26 1051.06 177.71 1048.14 267.55 1056.38 267.99 1061.38 178.26"/>
            <polygon class="cls-24" points="1051.06 177.71 1048.38 168.38 1045.33 255.23 1048.14 267.55 1051.06 177.71"/>
            <polygon class="cls-24" points="1051.06 177.71 1048.38 168.38 1057.44 168.86 1061.38 178.26 1051.06 177.71"/>
            <path class="cls-24" d="M1079.88,442l-4.29-15.52-4.4,104.35,3.18,20.12S1079.89,441.85,1079.88,442Z"/>
            <polygon class="cls-24" points="1090.19 442.69 1079.88 441.99 1075.59 426.47 1086.06 427.18 1090.19 442.69"/>
            <polygon class="cls-24" points="1089.96 540.72 1087.13 524.64 1079.92 624.54 1084.25 649.66 1089.96 540.72"/>
            <polygon class="cls-24" points="1101.84 541.58 1089.96 540.72 1087.13 524.64 1097.04 525.36 1101.84 541.58"/>
          </g>
          <path class="cls-22" d="M1110.51,615.46v-9.89h-19.34v9.89H1001.6v-9.89H982.27v9.89H878.6V604.57H859.27v10.89H764v-.84h-2.49v-12H742.17v12H632.6v-12H613.27v12H503.69v-12H484.36v12h-3.64V629.7h3.64v28.14h-3.64v15.08h3.64v28.15h-3.64v15.07h3.64v11.57h19.33V716.14H613.27v11.57H632.6V716.14H742.17v11.57h19.34V716.14H764v-.63h95.27v10.2H878.6v-10.2H982.27v11.2h19.33v-11.2h89.57v11.2h19.34v-11.2H1113V700.92h-2.49V672.63H1113V658.26h-2.49V629.83H1113V615.46Zm-108.91,42.8V629.83h89.57v28.43Zm-19.33,0H878.6V629.83H982.27Zm-123,0H764v-.42h-2.49v-28h97.76Zm-117.1-.42H632.6V629.7H742.17Zm-128.9,0H503.69V629.7H613.27ZM503.69,672.92H613.27v28.15H503.69Zm128.91,0H742.17v28.15H632.6Zm128.91,0H764v-.29h95.27v28.29H764v.15h-2.49Zm117.09-.29H982.27v28.29H878.6Zm123,0h89.57v28.29H1001.6Z"/>
          <ellipse class="cls-21" cx="686" cy="312.57" rx="73" ry="5"/>
          <path class="cls-21" d="M1022,321.07c-62.36-5.66-93.53-8.5-131.5-8.5-56.13,0-100.3,5.11-131.5,8.5-28.85,3.13-78.19,8.49-78,11.5.2,3.19,62.21-.09,209.5-3,94.27-1.86,157.45-2.27,157.5-5C1048,323.64,1040.73,322.77,1022,321.07Z"/>
          <ellipse class="cls-21" cx="849.5" cy="405.07" rx="49.5" ry="4.5"/>
          <ellipse class="cls-21" cx="675.5" cy="365.07" rx="49.5" ry="4.5"/>
          <path class="cls-21" d="M590.43,448.17S652,440,686,444.78s114.65,15.39,58.32,19.09,68,6,164.32.35,198.07,20.62,102.22,24.49-305.6,2.13-347.23,0-15.34-21.57-15.34-21.57C712,460.57,604.86,447.77,590.43,448.17Z"/>
          <ellipse class="cls-21" cx="969" cy="546.57" rx="33" ry="5"/>
          <ellipse class="cls-21" cx="1012.5" cy="508.07" rx="52.5" ry="5.5"/>
          <ellipse class="cls-21" cx="633" cy="273.07" rx="53" ry="5.5"/>
        </g>
        <g>
          <path class="cls-25" d="M1358.46,849.82s6.25-7.3,18.31-9.1-13-9.58-21.88,9.1C1354.89,849.82,1350.87,858.12,1358.46,849.82Z"/>
          <path class="cls-25" d="M1341.49,850.86s18.31-23.35,29-29.58S1360.25,814.53,1346,834C1346,834,1338.81,845.67,1341.49,850.86Z"/>
          <path class="cls-25" d="M1336.14,850.86s12.16-37.88,17.69-42.55-8.76-7.27-17.69,23.61C1336.14,831.92,1332.56,848.26,1336.14,850.86Z"/>
          <path class="cls-25" d="M1329.66,850.86s4.69-34.77,9.15-40S1321.85,816.61,1329.66,850.86Z"/>
          <path class="cls-25" d="M1327,850.86s.23-29-9.37-33.42S1323.19,836.33,1327,850.86Z"/>
          <path class="cls-25" d="M1323.86,850.86s-6-33.19-20.77-34S1314.7,829.06,1323.86,850.86Z"/>
          <path class="cls-25" d="M1322.59,850.86s-7.89-13.49-21.28-12.46S1319.32,846.71,1322.59,850.86Z"/>
        </g>
        <g>
          <polygon class="cls-26" points="355.44 231.25 369.08 226.91 377.38 224.99 385.9 226.03 387.17 222.72 399.32 219.9 405.41 220.62 400.76 230 373.63 234.53 355.44 231.25"/>
          <polygon class="cls-27" points="400.76 230 417.92 229.37 431.2 221.21 438.72 208.41 417.92 214.54 405.41 220.62 400.76 230"/>
          <path class="cls-28" d="M446.25,242.09s5.37-12.55,3.58-19.05-11.11-14.63-11.11-14.63l-7.52,12.8,9.52,28.48Z"/>
          <polygon class="cls-29" points="426.19 252.86 440.72 249.69 431.2 221.21 417.92 229.37 417.18 245.66 426.19 252.86"/>
          <polygon class="cls-30" points="405.41 252.86 417.18 245.66 417.92 229.37 400.76 230 393.7 252.5 405.41 252.86"/>
          <polygon class="cls-29" points="377.64 254.26 393.7 252.5 400.76 230 373.63 234.53 361.7 245.42 377.64 254.26"/>
          <polygon class="cls-31" points="361.7 245.42 361.7 245.42 373.63 234.53 355.44 231.25 353.81 243.41 361.7 245.42"/>
          <polygon class="cls-31" points="415.8 254.26 415.8 254.26 426.19 252.86 417.18 245.66 405.41 252.86 415.8 254.26"/>
          <polygon class="cls-30" points="361.7 249.96 361.7 249.96 377.64 254.26 361.7 245.42 353.81 243.41 361.7 249.96"/>
          <polygon class="cls-32" points="357.41 231.6 372.47 234.5 362.5 244.69 374.28 234.99 393.03 231.29 373.48 233.5 357.41 231.6"/>
          <polygon class="cls-32" points="401.7 230 417.6 229.86 417.18 245.66 418.86 230 431.2 221.21 418.61 228.87 401.7 230"/>
          <polygon class="cls-26" points="405.48 226.36 406.9 221.21 408.38 220.62 417.37 216.99 428.95 214.54 409.36 222.24 405.48 226.36"/>
          <polygon class="cls-28" points="382.39 251.3 371.84 244.29 377.64 237.04 394.89 235.73 393.7 241.05 387.79 237.99 379.2 241.05 378.03 246.41 382.39 251.3"/>
          <polygon class="cls-29" points="435.43 214 428.95 217.73 440.7 226.03 435.43 214"/>
        </g>
        <g>
          <g>
            <g>
              <path class="cls-33" d="M1347.83,621.37c-7.81,0-45.38-12.18-46.66-16s3.25-20.51,6.63-23.89,21.76-12.55,31.06-12.55c3.87,0,11.27,4.66,22,13.86,8,6.83,14.91,13.75,15,13.82a.14.14,0,0,1,.05.1c2.6,11.71-21.7,23-27.11,24.58a3.39,3.39,0,0,1-1,.1Z"/>
              <path class="cls-34" d="M1338.86,569.11c9.21,0,36.84,27.63,36.84,27.63,2.63,11.84-22.37,23-27,24.33a3.1,3.1,0,0,1-.9.1c-7.54,0-45.21-12.12-46.46-15.88-1.32-3.95,3.28-20.39,6.57-23.68s21.71-12.5,30.92-12.5Zm0-.41c-9.34,0-27.86,9.28-31.2,12.62s-8,20.07-6.68,24.1c.21.64,1.17,1.79,7,4.31,3.63,1.58,8.67,3.46,14.18,5.29,9.48,3.16,21.58,6.55,25.72,6.55a3.93,3.93,0,0,0,1-.1,71,71,0,0,0,16.31-8.28c5.79-4,12.39-10,10.94-16.54a.31.31,0,0,0-.11-.2c-1.13-1.13-27.85-27.75-37.12-27.75Z"/>
            </g>
            <g>
              <path class="cls-33" d="M1253.68,618.11c-6.25,0-9.53-1-9.74-2.93a6.45,6.45,0,0,1,1.88-4.86c3.6-4.2,12.81-8.66,25.28-9.18l1.07,0c4.41,0,7.48,1.22,9.13,3.61,2.72,3.95.61,9.61.52,9.85a.2.2,0,0,1-.13.12,150.32,150.32,0,0,1-28,3.42Z"/>
              <path class="cls-34" d="M1272.17,601.32c14.48,0,9.46,13.18,9.46,13.18a149.54,149.54,0,0,1-28,3.41c-5.32,0-9.31-.71-9.54-2.76-.66-5.92,11.18-13.15,27-13.81l1.06,0Zm0-.41-1.08,0a50.55,50.55,0,0,0-15.64,3.08c-4.3,1.64-7.77,3.83-9.79,6.18a6.75,6.75,0,0,0-1.93,5c.24,2.1,3.49,3.12,10,3.12a151.43,151.43,0,0,0,28.06-3.43.4.4,0,0,0,.27-.25c.09-.24,2.24-6-.54-10-1.69-2.46-4.82-3.7-9.3-3.7Z"/>
            </g>
          </g>
          <g class="cls-35">
            <g class="cls-36">
              <path class="cls-37" d="M1375.7,596.74s-27.63-27.63-36.84-27.63c-7.68,0-21.77,6.41-28.14,10.44a17.13,17.13,0,0,0-2.78,2.06c-3.29,3.29-7.89,19.73-6.57,23.68s42.75,17.1,47.36,15.78S1378.33,608.58,1375.7,596.74Z"/>
              <path class="cls-37" d="M1281.63,614.5s5.26-13.82-10.52-13.16-27.63,7.89-27,13.81S1277,615.81,1281.63,614.5Z"/>
            </g>
          </g>
          <g>
            <path class="cls-38" d="M1311.45,583.36s-3.07-1.75,4-4.82,18.42-14,28.5-6.14,21,30.26,6.58,26.31S1312.77,585.55,1311.45,583.36Z"/>
            <path class="cls-38" d="M1254.44,605.29c3.71-2.22,16.89-5,21.93-3.29s6.36,6.36.66,4.82-21.27-.66-26.31,1.54S1251.16,607.26,1254.44,605.29Z"/>
            <path class="cls-39" d="M1338.86,569.11c-3.15-1-22,7.56-14.14,9.54S1354.32,574,1338.86,569.11Z"/>
            <path class="cls-38" d="M1345.44,604.3s6.25,4.28,11.84,3.62,4.6,2.63-1.32,3.29-6.9,2-12.17-4.61S1345.44,604.3,1345.44,604.3Z"/>
            <path class="cls-39" d="M1277.36,603.48c0,.82-2.43,1.48-5.43,1.48s-5.43-.66-5.43-1.48,2.43-1.48,5.43-1.48S1277.36,602.66,1277.36,603.48Z"/>
          </g>
        </g>
        <g>
          <path class="cls-19" d="M1106.28,271.38s-25.77,7.29,0,31.15,4.77,76.85,4.77,76.85-4.87,56,8.06,77c19.69,32-1.56,39.66,5.57,84.5,4.65,29.27,8.64,26.9,9.37,46.5,1,27.78-6.77,38,1.36,55.59,5.89,12.78,18.8,26.53,27.39,24.28a8.45,8.45,0,0,0,4.32-3c9.93-11.92,29.93-95.37,18.93-114.14s-26-111-30-144.37c-5.19-43.29,4-74.92-18.49-106.15A103.68,103.68,0,0,0,1106.28,271.38Z"/>
          <path class="cls-40" d="M119,193c50.16,182.29,32.05,306.45,4.71,387.46-16.17,47.93-36.18,91-18,136.36C130.83,779.56,214.44,806.66,347,828c242.2,39,319.79,6,640.05,7.68,184.69,1,305.48,12.73,345-56.68,22.65-39.83,6.09-84.54,52-169,20.87-38.4,48.65-74,58.86-87,55.08-70.54,67.34-62.94,77.48-90.86,31.49-86.68-16.33-187.75-100.63-215.85-12.43-4.15-22.49-22.38-42.81-36.81-84.4-59.95-165-53.16-165.9-64.44-.92-11.64,83.8-33,388-74q1,432.5,2,865H1L-2,180l144-49Z"/>
          <path class="cls-41" d="M1350.19,452.39s-8.6,4.85,0,10.33,78.72,6.4,86.55,2.13,9.54-19.19,3.41-21.33S1348.74,447.55,1350.19,452.39Z"/>
          <polygon class="cls-42" points="283.43 444.84 312.53 465.59 376.09 456.63 378.57 442.85 318.94 431.61 283.43 444.84"/>
          <path class="cls-42" d="M1308.24,602.14s-14.1,3.82-7.17,8.34,43.77,23.66,53.35,21.09,29-19.3,29-19.3l-42.12-20.88Z"/>
          <path class="cls-42" d="M1247.71,618.78s-13.15,10.37,8.07,9.79a218.94,218.94,0,0,0,39.51-4.88s-3.32-10.52-25.8-7.61S1247.71,618.78,1247.71,618.78Z"/>
          <g>
            <polygon class="cls-26" points="249.45 661.25 263.1 656.91 271.39 654.99 279.92 656.03 281.18 652.72 293.33 649.9 299.42 650.62 294.77 660 267.64 664.53 249.45 661.25"/>
            <polygon class="cls-27" points="294.77 660 311.93 659.37 325.21 651.21 332.74 638.41 311.93 644.54 299.42 650.62 294.77 660"/>
            <path class="cls-28" d="M340.26,672.09s5.37-12.55,3.58-19.05-11.1-14.63-11.1-14.63l-7.53,12.8,9.53,28.48Z"/>
            <polygon class="cls-29" points="320.2 682.86 334.74 679.68 325.21 651.21 311.93 659.37 311.19 675.66 320.2 682.86"/>
            <polygon class="cls-30" points="299.42 682.86 311.19 675.66 311.93 659.37 294.77 660 287.71 682.5 299.42 682.86"/>
            <polygon class="cls-29" points="271.66 684.26 287.71 682.5 294.77 660 267.64 664.53 255.72 675.42 271.66 684.26"/>
            <polygon class="cls-31" points="255.72 675.42 255.72 675.42 267.64 664.53 249.45 661.25 247.82 673.41 255.72 675.42"/>
            <polygon class="cls-31" points="309.81 684.26 309.81 684.26 320.2 682.86 311.19 675.66 299.42 682.86 309.81 684.26"/>
            <polygon class="cls-30" points="255.72 679.96 255.72 679.96 271.66 684.26 255.72 675.42 247.82 673.41 255.72 679.96"/>
            <polygon class="cls-32" points="251.42 661.6 266.48 664.5 256.52 674.69 268.29 664.99 287.04 661.29 267.49 663.5 251.42 661.6"/>
            <polygon class="cls-32" points="295.71 660 311.61 659.86 311.19 675.66 312.87 660 325.21 651.21 312.62 658.87 295.71 660"/>
            <polygon class="cls-26" points="299.5 656.36 300.92 651.21 302.4 650.62 311.38 646.99 322.96 644.54 303.37 652.24 299.5 656.36"/>
            <polygon class="cls-28" points="276.4 681.3 265.85 674.29 271.66 667.04 288.9 665.73 287.71 671.05 281.8 667.99 273.22 671.05 272.04 676.41 276.4 681.3"/>
            <polygon class="cls-29" points="329.45 644 322.96 647.73 334.71 656.03 329.45 644"/>
          </g>
          <path class="cls-43" d="M163.86,63.27S2,82.4,25,245.2c-8,77.6-25,77.68-25,77.68V0H223L192.58,63.49Z"/>
          <g>
            <polygon class="cls-28" points="328.83 444.84 307.6 428.16 320.97 413.94 342.84 436.93 328.83 444.84"/>
            <polygon class="cls-28" points="314.31 460.82 351.1 459.1 351.1 446 344.29 435.43 330.82 440.21 316.82 448.13 314.31 460.82"/>
            <polygon class="cls-31" points="376.09 421.32 362.79 446.51 351.1 446 344.29 435.43 365.61 407.38 376.09 421.32"/>
            <polygon class="cls-27" points="331.64 420.5 330.82 440.21 344.29 435.43 365.61 407.38 331.64 420.5"/>
            <polygon class="cls-31" points="320.97 413.94 317.47 426.09 319.42 433.41 330.82 440.21 331.64 420.5 320.97 413.94"/>
            <polygon class="cls-26" points="331.64 420.5 320.97 413.94 338.2 407.38 365.61 407.38 331.64 420.5"/>
            <polygon class="cls-44" points="316.82 448.13 296.2 430.19 307.6 428.16 318.94 431.61 330.82 440.21 316.82 448.13"/>
            <polygon class="cls-31" points="314.31 460.82 296.31 452.75 287.65 442.18 296.2 430.19 316.82 448.13 314.31 460.82"/>
            <polygon class="cls-29" points="370.45 455.58 351.1 459.1 351.1 446 362.79 446.51 376.09 421.32 370.45 455.58"/>
            <polygon class="cls-31" points="344.29 435.43 350.9 445.79 351.1 459.1 352.51 446.25 362.79 446.51 351.8 444.87 344.29 435.43"/>
            <polygon class="cls-32" points="296.2 430.19 315.91 448.23 314.31 460.43 317.52 448.69 330.13 440.6 316.81 447.31 296.2 430.19"/>
            <polygon class="cls-29" points="332.33 449.46 340.36 447.7 341.3 456.63 344.29 456.63 342.84 442.85 331.64 445.31 323.86 456.63 327.4 456.63 332.33 449.46"/>
            <polygon class="cls-28" points="310.93 458.45 313.17 448.13 311.66 446.51 309.47 457.43 310.93 458.45"/>
            <polygon class="cls-27" points="311.56 459 313.8 449.76 313.14 448.71 310.94 458.54 311.56 459"/>
            <polygon class="cls-27" points="336.3 432.36 340.51 417.32 339.03 417.87 336.84 427.7 336.3 432.36"/>
            <polygon class="cls-27" points="340.73 425.21 343.4 415.7 342.46 416.05 341.07 422.26 340.73 425.21"/>
            <polygon class="cls-32" points="321.99 414.57 330.85 420.87 330.82 439.82 332.46 421.33 360.51 409.35 331.75 419.95 321.99 414.57"/>
            <polygon class="cls-29" points="374.26 426.41 371.34 428.16 363.6 428.16 370.8 429.39 371.45 433.33 374.26 426.41"/>
          </g>
          <ellipse class="cls-42" cx="298" cy="677.5" rx="53" ry="13.5"/>
          <g>
            <path class="cls-25" d="M557.7,275.17s19.93-17.35,24-20.45c5-3.8-4.39-9.65-19.15,3.62C562.53,258.34,553.48,268,557.7,275.17Z"/>
            <path class="cls-25" d="M548.16,273.84s-4.36-16.62-26.75-16.65S548.16,273.84,548.16,273.84Z"/>
            <path class="cls-25" d="M554.3,276.38s6.19-36.84,16-46.76c8.37-8.5-9.72-11.29-19.52,9.23S554.3,276.38,554.3,276.38Z"/>
          </g>
          <g>
            <path class="cls-25" d="M1168.47,280.71s6.25-7.29,18.31-9.09-13-9.59-21.88,9.09C1164.9,280.71,1160.88,289,1168.47,280.71Z"/>
            <path class="cls-25" d="M1151.5,281.75s18.31-23.35,29-29.57-10.27-6.75-24.56,12.71C1156,264.89,1148.82,276.56,1151.5,281.75Z"/>
            <path class="cls-25" d="M1146.14,281.75s12.17-37.88,17.7-42.55-8.77-7.26-17.7,23.61C1146.14,262.81,1142.57,279.16,1146.14,281.75Z"/>
            <path class="cls-25" d="M1139.67,281.75s4.69-34.76,9.15-39.95S1131.86,247.51,1139.67,281.75Z"/>
            <path class="cls-25" d="M1137,281.75s.22-29-9.38-33.42S1133.2,267.22,1137,281.75Z"/>
            <path class="cls-25" d="M1133.87,281.75s-6-33.19-20.77-34S1124.71,260,1133.87,281.75Z"/>
            <path class="cls-25" d="M1132.6,281.75s-7.89-13.49-21.28-12.45S1129.33,277.6,1132.6,281.75Z"/>
          </g>
          <g>
            <path class="cls-45" d="M1500.24,471.47s8.35-9,24.45-11.17-17.29-11.77-29.22,11.17C1495.47,471.47,1490.1,481.66,1500.24,471.47Z"/>
            <path class="cls-45" d="M1477.57,472.74s24.46-28.67,38.77-36.32-13.72-8.28-32.8,15.61C1483.54,452,1474,466.37,1477.57,472.74Z"/>
            <path class="cls-45" d="M1470.41,472.74s16.25-46.51,23.64-52.25-11.71-8.92-23.64,29C1470.41,449.49,1465.64,469.56,1470.41,472.74Z"/>
            <path class="cls-45" d="M1461.76,472.74s6.27-42.69,12.23-49.06S1451.33,430.69,1461.76,472.74Z"/>
            <path class="cls-45" d="M1458.18,472.74s.3-35.56-12.52-41S1453.11,454.9,1458.18,472.74Z"/>
            <path class="cls-45" d="M1454,472.74S1446,432,1426.27,431,1441.78,446,1454,472.74Z"/>
            <path class="cls-45" d="M1452.32,472.74s-10.54-16.56-28.43-15.29S1448,467.65,1452.32,472.74Z"/>
          </g>
          <g>
            <path class="cls-45" d="M250.23,681.52s6.9-7.66,20.21-9.54-14.3-10.05-24.16,9.54C246.28,681.52,241.85,690.22,250.23,681.52Z"/>
            <path class="cls-45" d="M231.49,682.6s20.22-24.48,32.05-31-11.34-7.07-27.12,13.33C236.42,664.92,228.53,677.16,231.49,682.6Z"/>
            <path class="cls-45" d="M225.58,682.6S239,642.88,245.11,638s-9.67-7.62-19.53,24.75C225.58,662.74,221.63,679.88,225.58,682.6Z"/>
            <path class="cls-45" d="M218.43,682.6s5.17-36.45,10.1-41.89S209.8,646.69,218.43,682.6Z"/>
            <path class="cls-45" d="M215.47,682.6s.25-30.37-10.35-35S211.28,667.37,215.47,682.6Z"/>
            <path class="cls-45" d="M212,682.6s-6.66-34.8-22.93-35.62S201.91,659.75,212,682.6Z"/>
            <path class="cls-45" d="M210.62,682.6s-8.71-14.14-23.5-13.05S207,678.25,210.62,682.6Z"/>
          </g>
          <g>
            <path class="cls-25" d="M229.7,360.17s19.93-17.35,24-20.45c5-3.8-4.39-9.65-19.15,3.62C234.53,343.34,225.48,353,229.7,360.17Z"/>
            <path class="cls-25" d="M220.16,358.84s-4.36-16.62-26.75-16.65S220.16,358.84,220.16,358.84Z"/>
            <path class="cls-25" d="M226.3,361.38s6.19-36.84,16-46.76c8.37-8.5-9.72-11.29-19.52,9.23S226.3,361.38,226.3,361.38Z"/>
          </g>
          <path class="cls-40" d="M142.45,302.53S104.31,52.07,375.15,98,728.44,91,769.22,69.49,1046.84,9.09,1177.92,97s321.6-20,321.6-20l89.91,108.33L1601,6H1V350.07Z"/>
          <rect class="cls-21" x="1341" y="649" width="5" height="5"/>
          <rect class="cls-21" x="1210" y="461" width="2" height="2"/>
        </g>
      </g>
    </g>
  </g>
</svg>
